<?xml version="1.0" encoding="utf-8"?>
<!-- Generator: Adobe Illustrator 16.0.0, SVG Export Plug-In . SVG Version: 6.00 Build 0)  -->
<!DOCTYPE svg PUBLIC "-//W3C//DTD SVG 1.1//EN" "http://www.w3.org/Graphics/SVG/1.1/DTD/svg11.dtd">
<svg version="1.1" xmlns="http://www.w3.org/2000/svg" xmlns:xlink="http://www.w3.org/1999/xlink" x="0px" y="0px" width="100px"
	 height="100px" viewBox="0 0 100 100" enable-background="new 0 0 100 100" xml:space="preserve">
<g id="Layer_3" display="none">
</g>
<g id="Your_Icon">
</g>
<g id="Layer_4">
	<g>
		<path d="M17.543,44H45v-4H21.63c3.197-14,15.196-23.25,29.052-23.25C65.021,16.75,78,26.662,80,40.691V44h4v-3.5v-0.373
			C80.964,24.119,67.291,12.5,50.972,12.5C37.217,12.5,25,20.866,20,33.132V15h-4v26.5C16,42.604,16.438,44,17.543,44z"/>
		<path d="M82.4,57H55v4h23.312c-3.198,13-15.167,22.75-29.023,22.75C34.95,83.75,22,73.338,20,59.309V57h-4v2.5v0.373
			C19.036,75.881,32.694,87.5,49.014,87.5C62.769,87.5,75,79.135,80,66.868V86h4V58.5C84,57.396,83.504,57,82.4,57z"/>
	</g>
</g>
</svg>
