<?xml version="1.0" encoding="utf-8"?>
<!-- Generator: Adobe Illustrator 16.0.0, SVG Export Plug-In . SVG Version: 6.00 Build 0)  -->
<!DOCTYPE svg PUBLIC "-//W3C//DTD SVG 1.1//EN" "http://www.w3.org/Graphics/SVG/1.1/DTD/svg11.dtd">
<svg version="1.1" xmlns="http://www.w3.org/2000/svg" xmlns:xlink="http://www.w3.org/1999/xlink" x="0px" y="0px" width="100px"
	 height="100px" viewBox="0 0 100 100" enable-background="new 0 0 100 100" xml:space="preserve">
<g id="Layer_3" display="none">
</g>
<g id="Your_Icon">
</g>
<g id="Layer_4">
	<g opacity="0.99">
		<path fill="#FFFFFF" d="M90.423,18.107C71.98,4.994,59.929,27.922,59.929,27.922c27.257-7.334,3.722,35.416,1.048,38.273
			C60.402,66.811,46.604,81.113,42.43,31.03C39.328-6.126,7.995,36.369,7.995,36.369l1.97,0.997
			c9.617-7.701,12.291-2.983,12.291-2.983c13.215,52.068,15.66,59.053,30.261,58.908c12.291-0.127,25.156-18.479,30.959-32.811
			C87.112,51.5,97.654,23.25,90.423,18.107z"/>
		<path d="M52.088,95.293c-15.937,0-18.604-8.551-31.658-59.974c-0.189-0.15-0.589-0.367-1.318-0.367
			c-1.096,0-3.577,0.517-7.896,3.976c-0.613,0.489-1.453,0.576-2.153,0.223l-1.97-0.997c-0.525-0.266-0.906-0.749-1.042-1.321
			c-0.137-0.573-0.014-1.176,0.336-1.649c1.613-2.189,16.086-21.388,27.053-21.388c6.344,0,10.039,5.743,10.984,17.069
			C47.183,63.97,54,66.545,56.024,66.545c0.001,0,0.001,0,0.001,0c1.868,0,3.473-1.697,3.489-1.714
			c1.935-2.085,14.375-25.064,10.838-33.175c-0.483-1.107-1.516-2.579-4.892-2.579c-1.412,0-3.099,0.261-5.013,0.776
			c-0.766,0.206-1.585-0.062-2.081-0.682c-0.497-0.621-0.579-1.477-0.209-2.181c0.32-0.609,7.998-14.934,20.972-14.934
			c4.138,0,8.327,1.487,12.452,4.42c8.02,5.703-0.476,30.487-6.253,44.754c-5.511,13.611-18.792,33.915-32.792,34.06L52.088,95.293z
			 M19.111,30.952c3.402,0,4.743,2.194,4.885,2.445c0.088,0.154,0.154,0.32,0.198,0.493c13.343,52.574,15.689,57.402,27.894,57.402
			l0.409-0.002c10.274-0.106,22.877-16.131,29.125-31.562c8.409-20.766,11.552-37.212,7.642-39.992
			c-3.434-2.441-6.844-3.68-10.134-3.68c-6.842,0-12.095,5.294-14.971,9.071c0.448-0.034,0.883-0.052,1.302-0.052
			c5.287,0,7.576,2.718,8.565,4.997c4.688,10.808-9.856,35.636-11.59,37.487c-0.463,0.497-2.958,2.982-6.41,2.983h-0.002
			c-8.282,0.001-13.381-12.87-15.588-39.349c-0.742-8.893-3.097-13.401-6.998-13.401c-5.807,0-14.289,8.328-19.775,14.71
			C15.665,31.473,17.487,30.952,19.111,30.952z"/>
	</g>
</g>
</svg>
