<?xml version="1.0" encoding="utf-8"?>
<!-- Generator: Adobe Illustrator 16.0.0, SVG Export Plug-In . SVG Version: 6.00 Build 0)  -->
<!DOCTYPE svg PUBLIC "-//W3C//DTD SVG 1.1//EN" "http://www.w3.org/Graphics/SVG/1.1/DTD/svg11.dtd">
<svg version="1.1" xmlns="http://www.w3.org/2000/svg" xmlns:xlink="http://www.w3.org/1999/xlink" x="0px" y="0px" width="100px"
	 height="100px" viewBox="0 0 100 100" enable-background="new 0 0 100 100" xml:space="preserve">
<g id="Layer_3" display="none">
</g>
<g id="Your_Icon">
</g>
<g id="Layer_4">
	<path d="M43.3,44.457c15.186,0,27.5,13.256,27.5,29.614h-55C15.8,57.713,28.114,44.457,43.3,44.457 M43.3,40.457
		c-17.369,0-31.5,15.079-31.5,33.614c0,2.209,1.791,4,4,4h55c2.209,0,4-1.791,4-4C74.8,55.536,60.669,40.457,43.3,40.457
		L43.3,40.457z"/>
	<path d="M43.299,4.2c6.511,0,11.787,5.6,11.787,12.511c0,6.913-5.276,12.512-11.787,12.512c-6.509,0-11.785-5.599-11.785-12.512
		C31.514,9.8,36.79,4.2,43.299,4.2 M43.299,0.2c-8.704,0-15.785,7.406-15.785,16.511s7.081,16.512,15.785,16.512
		c8.705,0,15.787-7.407,15.787-16.512S52.004,0.2,43.299,0.2L43.299,0.2z"/>
	<g>
		<path d="M95.231,70h-39H52v3.961v5V83h4.231h39H99v-4.039v-5V70H95.231z M95,79c0,0-8.059,0-18,0h-3c-9.941,0-18,0-18,0v-5
			c0,0,8.059,0,18,0h3c9.941,0,18,0,18,0V79z"/>
		<path fill="#FFFFFF" d="M99.231,69.961v4v5v4h-4h-39h-4v-4v-5v-4h4h39H99.231 M56.231,78.961h17h4h18v-5h-18h-4h-17V78.961
			 M103.231,65.961h-4h-4h-39h-4h-4v4v4v5v4v4h4h4h39h4h4v-4v-4v-5v-4V65.961L103.231,65.961z"/>
	</g>
</g>
</svg>
