<?xml version="1.0" encoding="utf-8"?>
<!-- Generator: Adobe Illustrator 16.0.0, SVG Export Plug-In . SVG Version: 6.00 Build 0)  -->
<!DOCTYPE svg PUBLIC "-//W3C//DTD SVG 1.1//EN" "http://www.w3.org/Graphics/SVG/1.1/DTD/svg11.dtd">
<svg version="1.1" xmlns="http://www.w3.org/2000/svg" xmlns:xlink="http://www.w3.org/1999/xlink" x="0px" y="0px" width="100px"
	 height="100px" viewBox="0 0 100 100" enable-background="new 0 0 100 100" xml:space="preserve">
<g id="Layer_3" display="none">
</g>
<g id="Your_Icon">
</g>
<g id="Layer_4">
	<g>
		<g>
			<path fill="#FFFFFF" d="M49.702,88.885c4.426,0,7.699-3.306,7.699-7.394V44H42v37.491C42,85.579,45.275,88.885,49.702,88.885z"/>
			<path d="M53.4,48v33.491c0,1.967-1.556,3.394-3.699,3.394c-2.145,0-3.702-1.427-3.702-3.394V48H53.4 M57.4,44H42v37.491
				c0,4.088,3.275,7.394,7.702,7.394c4.426,0,7.699-3.306,7.699-7.394V44L57.4,44z"/>
		</g>
		<path d="M50.169,99.84l-0.08-0.001c-0.165-0.003-16.527-0.479-16.527-21.386V14.077l-9.561,0.104L24,1.761h52l0,12.396
			l-9.699,0.017l0.035,64.396c0.058,0.995,0.425,10.002-4.836,16.027c-2.769,3.17-6.554,4.933-11.251,5.238L50.169,99.84z
			 M37.562,10.034v68.419c0,16.392,11.395,17.331,12.522,17.384c3.544-0.251,6.366-1.548,8.389-3.856
			c4.363-4.979,3.873-13.129,3.867-13.211l-0.005-0.136L62.299,10.18L72,10.163l0-4.402H28l0.001,4.377L37.562,10.034z"/>
	</g>
</g>
</svg>
