<?xml version="1.0" encoding="utf-8"?>
<!-- Generator: Adobe Illustrator 16.0.0, SVG Export Plug-In . SVG Version: 6.00 Build 0)  -->
<!DOCTYPE svg PUBLIC "-//W3C//DTD SVG 1.1//EN" "http://www.w3.org/Graphics/SVG/1.1/DTD/svg11.dtd">
<svg version="1.1" xmlns="http://www.w3.org/2000/svg" xmlns:xlink="http://www.w3.org/1999/xlink" x="0px" y="0px" width="100px"
	 height="100px" viewBox="0 0 100 100" enable-background="new 0 0 100 100" xml:space="preserve">
<g id="Layer_3" display="none">
</g>
<g id="Your_Icon">
</g>
<g id="Layer_4">
	<path d="M35.4,49.9c-0.136,0-0.271-0.014-0.406-0.042C23.161,47.405,20.767,33.86,21.153,25.515
		c-7.196-1.099-15.844-6.678-16.244-6.938c-0.52-0.339-0.854-0.898-0.902-1.518c-0.05-0.618,0.19-1.225,0.65-1.641
		C4.9,15.197,29.005-6.162,57.11,10.563c1.979-1.303,6.478-4.891,6.454-10.556l4-0.016c0.04,9.724-9.17,14.494-9.562,14.692
		c-0.625,0.317-1.37,0.282-1.965-0.09C34.714,1.229,15.782,12.182,9.523,16.679c3.334,1.891,9.406,4.958,13.805,5.021
		c0.563,0.009,1.098,0.255,1.471,0.677c0.373,0.423,0.551,0.983,0.489,1.543c-0.021,0.19-1.903,18.616,9.736,21.833
		c0.701-0.452,1.43-0.901,2.19-1.369c6.547-4.031,13.968-8.601,13.885-21.971l4-0.025c0.097,15.622-9.084,21.274-15.788,25.402
		c-0.996,0.613-1.937,1.192-2.795,1.77C36.185,49.783,35.795,49.9,35.4,49.9z"/>
	<path d="M52.806,97.8c-10.47-0.001-13.517-13.906-14.273-18.917c-8.998-0.721-14.693-6.311-14.946-6.562
		c-0.445-0.445-0.655-1.075-0.565-1.699s0.468-1.169,1.021-1.472c0.502-0.273,12.452-6.715,25.679-6.715
		c8.856,0,16.161,2.879,21.71,8.559c0.608,0.623,0.744,1.569,0.334,2.338c-6.929,13.004-17.014,23.427-17.439,23.864
		c-0.372,0.382-0.881,0.6-1.414,0.604C52.905,97.8,52.812,97.8,52.806,97.8z M28.771,71.315c2.384,1.578,6.439,3.611,11.546,3.644
		c1.029,0.007,1.886,0.795,1.979,1.82c0.015,0.165,1.561,16.074,9.771,16.98c2.185-2.352,9.794-10.855,15.447-20.988
		c-4.634-4.207-10.612-6.337-17.794-6.337C41.127,66.435,32.921,69.484,28.771,71.315z"/>
	<g>
		<path d="M74.493,53.795c-10.618,0.001-16.945-3.656-17.314-3.875c-0.647-0.385-1.023-1.102-0.974-1.853
			c0.05-0.752,0.519-1.412,1.212-1.707c3.29-1.403,10.083-5.414,10.083-8.86c0-0.261,0.051-0.519,0.15-0.76
			c0.664-1.617,6.726-15.741,15.569-15.741c0.035,0,0.069,0.001,0.105,0.001c1.016,0.013,1.86,0.786,1.964,1.796
			c0.016,0.147,1.511,14.396,5.48,24.633l9.219-0.054l0.023,4l-10.32,0.06C83.975,53.174,78.869,53.795,74.493,53.795z
			 M62.952,48.018c4.499,1.456,12.84,3.021,23.8,0.098c-3.083-8.311-4.632-18.467-5.192-22.805
			c-4.487,1.641-8.657,9.332-10.074,12.628C71.191,42.352,66.526,45.917,62.952,48.018z"/>
	</g>
</g>
</svg>
