<?xml version="1.0" encoding="utf-8"?>
<!-- Generator: Adobe Illustrator 16.0.0, SVG Export Plug-In . SVG Version: 6.00 Build 0)  -->
<!DOCTYPE svg PUBLIC "-//W3C//DTD SVG 1.1//EN" "http://www.w3.org/Graphics/SVG/1.1/DTD/svg11.dtd">
<svg version="1.1" xmlns="http://www.w3.org/2000/svg" xmlns:xlink="http://www.w3.org/1999/xlink" x="0px" y="0px" width="100px"
	 height="100px" viewBox="0 0 100 100" enable-background="new 0 0 100 100" xml:space="preserve">
<g id="Layer_3" display="none">
</g>
<g id="Your_Icon">
</g>
<g id="Layer_4">
	<g>
		<path d="M91.436,14.204C86.884,7.719,79.386,4,70.865,4c-12.55,0-17.94,6.813-20.863,12.154C44.938,8.185,37.189,4,27.386,4
			c-8.03,0-14.754,3.276-18.93,9.226C4.057,19.493,3.227,27.774,6.18,35.948c7.625,21.104,40.927,57.844,42.341,59.398
			c0.379,0.416,0.915,0.653,1.477,0.654H50c0.562,0,1.097-0.236,1.476-0.65c1.422-1.554,34.902-38.295,42.526-59.402
			C96.744,28.359,95.809,20.434,91.436,14.204z M90.24,34.589c-6.47,17.909-33.577,48.955-40.236,56.417
			c-6.632-7.47-33.592-38.509-40.062-56.417c-2.504-6.931-1.852-13.879,1.788-19.064C15.136,10.672,20.696,8,27.386,8
			c9.612,0,16.646,4.476,20.905,13.303c0.333,0.691,1.033,1.131,1.801,1.131s1.468-0.439,1.801-1.131l0.201-0.417
			C54.56,15.754,58.285,8,70.865,8c7.199,0,13.504,3.099,17.296,8.502C91.775,21.65,92.533,28.243,90.24,34.589z"/>
	</g>
</g>
</svg>
