<?xml version="1.0" encoding="utf-8"?>
<!-- Generator: Adobe Illustrator 16.0.0, SVG Export Plug-In . SVG Version: 6.00 Build 0)  -->
<!DOCTYPE svg PUBLIC "-//W3C//DTD SVG 1.1//EN" "http://www.w3.org/Graphics/SVG/1.1/DTD/svg11.dtd">
<svg version="1.1" xmlns="http://www.w3.org/2000/svg" xmlns:xlink="http://www.w3.org/1999/xlink" x="0px" y="0px" width="100px"
	 height="100px" viewBox="0 0 100 100" enable-background="new 0 0 100 100" xml:space="preserve">
<g id="Layer_3" display="none">
</g>
<g id="Your_Icon">
</g>
<g id="Layer_4">
	<g>
		<circle fill="#FFFFFF" cx="20" cy="50" r="6"/>
		<path d="M20,44c3.313,0,6,2.688,6,6s-2.687,6-6,6s-6-2.688-6-6S16.687,44,20,44 M20,40c-5.514,0-10,4.486-10,10s4.486,10,10,10
			s10-4.486,10-10S25.514,40,20,40L20,40z"/>
	</g>
	<g>
		<circle fill="#FFFFFF" cx="50" cy="50" r="6"/>
		<path d="M50,44c3.313,0,6,2.688,6,6s-2.687,6-6,6s-6-2.688-6-6S46.687,44,50,44 M50,40c-5.514,0-10,4.486-10,10s4.486,10,10,10
			s10-4.486,10-10S55.514,40,50,40L50,40z"/>
	</g>
	<g>
		<circle fill="#FFFFFF" cx="80" cy="50" r="6"/>
		<path d="M80,44c3.313,0,6,2.688,6,6s-2.687,6-6,6s-6-2.688-6-6S76.687,44,80,44 M80,40c-5.514,0-10,4.486-10,10s4.486,10,10,10
			s10-4.486,10-10S85.514,40,80,40L80,40z"/>
	</g>
</g>
</svg>
