<?xml version="1.0" encoding="utf-8"?>
<!-- Generator: Adobe Illustrator 16.0.0, SVG Export Plug-In . SVG Version: 6.00 Build 0)  -->
<!DOCTYPE svg PUBLIC "-//W3C//DTD SVG 1.1//EN" "http://www.w3.org/Graphics/SVG/1.1/DTD/svg11.dtd">
<svg version="1.1" xmlns="http://www.w3.org/2000/svg" xmlns:xlink="http://www.w3.org/1999/xlink" x="0px" y="0px" width="100px"
	 height="100px" viewBox="0 0 100 100" enable-background="new 0 0 100 100" xml:space="preserve">
<g id="Layer_3" display="none">
</g>
<g id="Your_Icon">
</g>
<g id="Layer_4">
	<path d="M49.976,22c9.324,0,18.439,4.655,23.754,13.146c8.202,13.097,4.236,30.376-8.871,38.582C60.24,76.62,55.102,78,50.027,78
		c-9.325,0-18.439-4.655-23.752-13.14c-8.211-13.106-4.24-30.38,8.867-38.587C39.762,23.381,44.9,22,49.976,22 M49.978,18h-0.002
		c-5.993,0-11.856,1.689-16.956,4.884c-7.245,4.536-12.289,11.621-14.203,19.95s-0.469,16.905,4.069,24.15
		C28.772,76.386,38.919,82,50.027,82c5.992,0,11.854-1.688,16.954-4.883c7.244-4.534,12.288-11.62,14.202-19.951
		c1.914-8.328,0.471-16.903-4.064-24.144C71.231,23.616,61.084,18,49.978,18L49.978,18z"/>
	<path d="M49.891,56.085c-0.491,0-0.968-0.181-1.337-0.513L34.176,42.65l2.674-2.975l12.757,11.465l13.408-17.768l3.192,2.409
		L51.487,55.29c-0.338,0.446-0.847,0.731-1.404,0.786C50.019,56.082,49.954,56.085,49.891,56.085z"/>
</g>
</svg>
