<?xml version="1.0" encoding="utf-8"?>
<!-- Generator: Adobe Illustrator 16.0.0, SVG Export Plug-In . SVG Version: 6.00 Build 0)  -->
<!DOCTYPE svg PUBLIC "-//W3C//DTD SVG 1.1//EN" "http://www.w3.org/Graphics/SVG/1.1/DTD/svg11.dtd">
<svg version="1.1" xmlns="http://www.w3.org/2000/svg" xmlns:xlink="http://www.w3.org/1999/xlink" x="0px" y="0px" width="100px"
	 height="100px" viewBox="0 0 100 100" enable-background="new 0 0 100 100" xml:space="preserve">
<g id="Layer_3" display="none">
</g>
<g id="Your_Icon">
</g>
<g id="Layer_4">
	<path d="M49.068,61.061c17.394,0,31.5,15.184,31.5,33.921h-63C17.568,76.244,31.674,61.061,49.068,61.061 M49.068,57.061
		c-19.575,0-35.5,17.012-35.5,37.921c0,2.209,1.791,4,4,4h63c2.209,0,4-1.791,4-4C84.568,74.072,68.643,57.061,49.068,57.061
		L49.068,57.061z"/>
	<path d="M49.067,16.239c7.458,0,13.501,6.413,13.501,14.33c0,7.918-6.043,14.331-13.501,14.331
		c-7.456,0-13.499-6.413-13.499-14.331C35.568,22.652,41.611,16.239,49.067,16.239 M49.067,12.239
		c-9.649,0-17.499,8.223-17.499,18.33S39.418,48.9,49.067,48.9c9.65,0,17.501-8.224,17.501-18.331S58.717,12.239,49.067,12.239
		L49.067,12.239z"/>
</g>
</svg>
