<?xml version="1.0" encoding="utf-8"?>
<!-- Generator: Adobe Illustrator 16.0.0, SVG Export Plug-In . SVG Version: 6.00 Build 0)  -->
<!DOCTYPE svg PUBLIC "-//W3C//DTD SVG 1.1//EN" "http://www.w3.org/Graphics/SVG/1.1/DTD/svg11.dtd">
<svg version="1.1" xmlns="http://www.w3.org/2000/svg" xmlns:xlink="http://www.w3.org/1999/xlink" x="0px" y="0px" width="100px"
	 height="100px" viewBox="0 0 100 100" enable-background="new 0 0 100 100" xml:space="preserve">
<g id="Layer_3" display="none">
</g>
<g id="Your_Icon">
	<rect x="28.385" y="62" transform="matrix(0.9216 0.388 -0.388 0.9216 28.8315 -14.7754)" width="45.231" height="4"/>
	<rect x="49" y="14.385" transform="matrix(0.388 0.9217 -0.9217 0.388 65.3161 -24.36)" width="4" height="45.231"/>
	<g>
		<path fill="#FFFFFF" d="M36.5,49.7c0-9.115-7.382-16.5-16.5-16.5c-9.108,0-16.5,7.385-16.5,16.5S10.892,66.2,20,66.2
			C29.118,66.2,36.5,58.815,36.5,49.7z"/>
	</g>
	<g>
		<path fill="#FFFFFF" d="M96.5,75c0,9.116-7.382,16.5-16.5,16.5c-9.107,0-16.5-7.384-16.5-16.5S70.893,58.5,80,58.5
			C89.118,58.5,96.5,65.884,96.5,75z"/>
	</g>
	<g>
		<circle fill="#FFFFFF" cx="80" cy="75" r="10"/>
		<path d="M80,65c5.524,0,10,4.476,10,10s-4.476,10-10,10c-5.522,0-10-4.476-10-10S74.478,65,80,65 M80,61c-7.72,0-14,6.28-14,14
			s6.28,14,14,14s14-6.28,14-14S87.72,61,80,61L80,61z"/>
	</g>
	<g>
		<path fill="#FFFFFF" d="M96.5,26c0-9.116-7.382-16.5-16.5-16.5c-9.107,0-16.5,7.384-16.5,16.5S70.893,42.5,80,42.5
			C89.118,42.5,96.5,35.116,96.5,26z"/>
	</g>
	<g>
		<circle fill="#FFFFFF" cx="80" cy="26" r="10"/>
		<path d="M80,16c5.524,0,10,4.476,10,10s-4.476,10-10,10c-5.523,0-10-4.476-10-10S74.477,16,80,16 M80,12c-7.72,0-14,6.28-14,14
			s6.28,14,14,14s14-6.28,14-14S87.72,12,80,12L80,12z"/>
	</g>
	<g>
		<circle fill="#FFFFFF" cx="20" cy="50" r="10"/>
		<path d="M20,40c5.524,0,10,4.476,10,10s-4.476,10-10,10c-5.522,0-10-4.476-10-10S14.478,40,20,40 M20,36c-7.72,0-14,6.28-14,14
			s6.28,14,14,14s14-6.28,14-14S27.72,36,20,36L20,36z"/>
	</g>
</g>
<g id="Layer_4">
</g>
</svg>
