<?xml version="1.0" encoding="utf-8"?>
<!-- Generator: Adobe Illustrator 16.0.0, SVG Export Plug-In . SVG Version: 6.00 Build 0)  -->
<!DOCTYPE svg PUBLIC "-//W3C//DTD SVG 1.1//EN" "http://www.w3.org/Graphics/SVG/1.1/DTD/svg11.dtd">
<svg version="1.1" xmlns="http://www.w3.org/2000/svg" xmlns:xlink="http://www.w3.org/1999/xlink" x="0px" y="0px" width="100px"
	 height="100px" viewBox="0 0 100 100" enable-background="new 0 0 100 100" xml:space="preserve">
<g id="Layer_3" display="none">
</g>
<g id="Your_Icon">
</g>
<g id="Layer_4">
	<path d="M74.2,82.069H25.8c-1.104,0-2-0.896-2-2V69.1c0-1.104,0.896-2,2-2h9.433c-0.161-0.372-0.331-0.765-0.504-1.162
		c-3.557-8.19-10.958-25.233-11.024-33.452c-0.066-8.002,2.457-15.404,7.102-20.842c4.875-5.705,11.837-8.881,19.605-8.942
		L50.653,2.7c15.197,0,25.501,11.785,25.642,29.326c0.075,9.06-7.513,26.825-10.753,34.411c-0.096,0.224-0.19,0.445-0.283,0.662
		H74.2c1.104,0,2,0.896,2,2v10.97C76.2,81.174,75.305,82.069,74.2,82.069z M27.8,78.069h44.4V71.1h-9.9
		c-0.56,0-1.095-0.235-1.473-0.647c-0.379-0.413-0.567-0.965-0.52-1.523c0.043-0.508,0.194-0.875,1.556-4.062
		c2.872-6.723,10.5-24.583,10.432-32.808C72.194,19.437,65.463,6.7,50.653,6.7l-0.209,0.001c-6.687,0.053-12.425,2.66-16.595,7.541
		c-4.02,4.705-6.202,11.172-6.144,18.211c0.059,7.405,7.511,24.564,10.693,31.892c1.648,3.794,1.766,4.097,1.798,4.632
		c0.034,0.551-0.161,1.091-0.539,1.493S38.752,71.1,38.2,71.1H27.8V78.069z"/>
	<path d="M84,98.069H16c-1.104,0-2-0.896-2-2v-16c0-1.104,0.896-2,2-2h68c1.104,0,2,0.896,2,2v16C86,97.174,85.104,98.069,84,98.069
		z M18,94.069h64v-12H18V94.069z"/>
</g>
</svg>
