<?xml version="1.0" encoding="utf-8"?>
<!-- Generator: Adobe Illustrator 16.0.0, SVG Export Plug-In . SVG Version: 6.00 Build 0)  -->
<!DOCTYPE svg PUBLIC "-//W3C//DTD SVG 1.1//EN" "http://www.w3.org/Graphics/SVG/1.1/DTD/svg11.dtd">
<svg version="1.1" xmlns="http://www.w3.org/2000/svg" xmlns:xlink="http://www.w3.org/1999/xlink" x="0px" y="0px" width="100px"
	 height="100px" viewBox="0 0 100 100" enable-background="new 0 0 100 100" xml:space="preserve">
<g id="Layer_3" display="none">
</g>
<g id="Your_Icon">
</g>
<g id="Layer_4">
	<g>
		<path d="M51.9,2c-17.645,0-32,15.252-32,34c0,17.318,25.773,55.034,28.711,59.277C49.359,96.356,50.587,97,51.9,97
			s2.541-0.644,3.289-1.723C58.127,91.034,83.9,53.318,83.9,36C83.9,17.252,69.545,2,51.9,2z M51.9,93c0,0-28-40.432-28-57
			c0-16.569,12.535-30,28-30s28,13.431,28,30C79.9,52.568,51.9,93,51.9,93z"/>
	</g>
	<polygon points="64,32 54,32 54,22 50,22 50,32 40,32 40,36 50,36 50,46 54,46 54,36 64,36 	"/>
</g>
</svg>
