<?xml version="1.0" encoding="utf-8"?>
<!-- Generator: Adobe Illustrator 16.0.0, SVG Export Plug-In . SVG Version: 6.00 Build 0)  -->
<!DOCTYPE svg PUBLIC "-//W3C//DTD SVG 1.1//EN" "http://www.w3.org/Graphics/SVG/1.1/DTD/svg11.dtd">
<svg version="1.1" xmlns="http://www.w3.org/2000/svg" xmlns:xlink="http://www.w3.org/1999/xlink" x="0px" y="0px" width="100px"
	 height="100px" viewBox="0 0 100 100" enable-background="new 0 0 100 100" xml:space="preserve">
<g id="Layer_3" display="none">
</g>
<g id="Your_Icon">
</g>
<g id="Layer_4">
	<g>
		<path d="M50.959,48.495c-0.596-0.325-1.317-0.326-1.916-0.001C40.612,53.084,21,64.464,21,70.97v24.78c0,1.104,0.896,2.25,2,2.25
			h54c1.104,0,2-1.146,2-2.25V70.97C79,64.511,59.39,53.101,50.959,48.495z M75,94H25v-4h50V94z M75,86H25V70.97
			c0-2.513,11.573-11.026,24.999-18.438C63.404,59.956,74.979,68.469,75,70.97V86z"/>
	</g>
	<g>
		<path d="M77.2,2h-54C22.096,2,21,2.896,21,4v24.78c0,6.505,19.712,17.885,28.144,22.476c0.298,0.163,0.678,0.244,1.007,0.244
			c0.33,0,0.585-0.082,0.884-0.245C59.465,46.649,79,35.239,79,28.78V4C79,2.896,78.305,2,77.2,2z M75,28.78
			c0,2.499-11.596,11.013-25.001,18.438C36.574,39.807,25,31.293,25,28.78V14h50V28.78z M75,10H25V6h50V10z"/>
	</g>
</g>
</svg>
