<?xml version="1.0" encoding="utf-8"?>
<!-- Generator: Adobe Illustrator 16.0.0, SVG Export Plug-In . SVG Version: 6.00 Build 0)  -->
<!DOCTYPE svg PUBLIC "-//W3C//DTD SVG 1.1//EN" "http://www.w3.org/Graphics/SVG/1.1/DTD/svg11.dtd">
<svg version="1.1" xmlns="http://www.w3.org/2000/svg" xmlns:xlink="http://www.w3.org/1999/xlink" x="0px" y="0px" width="100px"
	 height="100px" viewBox="0 0 100 100" enable-background="new 0 0 100 100" xml:space="preserve">
<g id="Layer_3" display="none">
</g>
<g id="Your_Icon">
</g>
<g id="Layer_4">
	<g>
		<g>
			<path d="M88.2,8.557v10.506c-0.018,0-0.037,0-0.054,0c-11.515-0.001-13.446,11.8-13.446,11.8v10.755h14v10h-14V91.6h-11V51.617
				h-15v-10h15V31.199C63.7,10.899,88.2,8.557,88.2,8.557 M88.2,4.557c-0.126,0-0.253,0.006-0.381,0.019
				c-0.281,0.026-6.96,0.697-13.686,4.127C64.691,13.517,59.7,21.296,59.7,31.199v6.418h-11c-2.209,0-4,1.791-4,4v10
				c0,2.209,1.791,4,4,4h11V91.6c0,2.209,1.791,4,4,4h11c2.209,0,4-1.791,4-4V55.617h10c2.209,0,4-1.791,4-4v-10
				c0-2.209-1.791-4-4-4h-10v-6.372c0.343-1.584,2.208-8.184,9.445-8.183c0.005,0,0.009,0,0.014,0c1.059,0,2.094-0.42,2.844-1.167
				c0.753-0.75,1.197-1.77,1.197-2.833V8.557c0-1.127-0.476-2.202-1.31-2.96C90.151,4.925,89.19,4.557,88.2,4.557L88.2,4.557z"/>
		</g>
	</g>
</g>
</svg>
