<?xml version="1.0" encoding="utf-8"?>
<!-- Generator: Adobe Illustrator 16.0.0, SVG Export Plug-In . SVG Version: 6.00 Build 0)  -->
<!DOCTYPE svg PUBLIC "-//W3C//DTD SVG 1.1//EN" "http://www.w3.org/Graphics/SVG/1.1/DTD/svg11.dtd">
<svg version="1.1" xmlns="http://www.w3.org/2000/svg" xmlns:xlink="http://www.w3.org/1999/xlink" x="0px" y="0px" width="100px"
	 height="100px" viewBox="0 0 100 100" enable-background="new 0 0 100 100" xml:space="preserve">
<g id="Layer_3" display="none">
</g>
<g id="Your_Icon">
</g>
<g id="Layer_4">
	<g>
		<polygon fill="#FFFFFF" points="94.754,59.59 49.448,5 5.246,59.59 23.5,59.59 23.5,94.978 75.5,95 75.5,59.59 		"/>
		<path d="M75.5,97.5L75.5,97.5l-52.001-0.022c-1.381-0.001-2.499-1.12-2.499-2.5V62.09H5.246c-0.964,0-1.842-0.554-2.257-1.424
			c-0.414-0.87-0.293-1.9,0.313-2.649l44.202-54.59c0.472-0.582,1.18-0.922,1.929-0.927c0.005,0,0.01,0,0.015,0
			c0.743,0,1.448,0.331,1.924,0.903l45.306,54.59c0.619,0.746,0.751,1.782,0.339,2.659s-1.294,1.438-2.263,1.438H78V95
			c0,0.663-0.264,1.299-0.732,1.769C76.799,97.236,76.163,97.5,75.5,97.5z M26,92.479l47,0.021V59.59c0-1.381,1.119-2.5,2.5-2.5
			h13.931L49.472,8.943L10.487,57.09H23.5c1.381,0,2.5,1.119,2.5,2.5V92.479z"/>
	</g>
</g>
</svg>
