<?xml version="1.0" encoding="utf-8"?>
<!-- Generator: Adobe Illustrator 16.0.0, SVG Export Plug-In . SVG Version: 6.00 Build 0)  -->
<!DOCTYPE svg PUBLIC "-//W3C//DTD SVG 1.1//EN" "http://www.w3.org/Graphics/SVG/1.1/DTD/svg11.dtd">
<svg version="1.1" xmlns="http://www.w3.org/2000/svg" xmlns:xlink="http://www.w3.org/1999/xlink" x="0px" y="0px" width="100px"
	 height="100px" viewBox="0 0 100 100" enable-background="new 0 0 100 100" xml:space="preserve">
<g id="Layer_3" display="none">
</g>
<g id="Your_Icon">
</g>
<g id="Layer_4">
	<path d="M49.072,18.55c17.123,0,31,13.876,31,31c0,17.114-13.877,31-31,31s-31-13.886-31-31
		C18.072,32.426,31.949,18.55,49.072,18.55 M49.072,14.55c-19.299,0-35,15.701-35,35s15.701,35,35,35s35-15.701,35-35
		S68.371,14.55,49.072,14.55L49.072,14.55z"/>
	<rect x="17.072" y="47.55" transform="matrix(0.7071 0.7071 -0.7071 0.7071 49.4107 -20.1864)" width="64" height="4"/>
</g>
</svg>
