<?xml version="1.0" encoding="utf-8"?>
<!-- Generator: Adobe Illustrator 16.0.0, SVG Export Plug-In . SVG Version: 6.00 Build 0)  -->
<!DOCTYPE svg PUBLIC "-//W3C//DTD SVG 1.1//EN" "http://www.w3.org/Graphics/SVG/1.1/DTD/svg11.dtd">
<svg version="1.1" xmlns="http://www.w3.org/2000/svg" xmlns:xlink="http://www.w3.org/1999/xlink" x="0px" y="0px" width="100px"
	 height="100px" viewBox="0 0 100 100" enable-background="new 0 0 100 100" xml:space="preserve">
<g id="Layer_3" display="none">
</g>
<g id="Your_Icon">
</g>
<g id="Layer_4">
	<path d="M40.961,20.121C63.196,20.121,89.077,33,89.077,33c4.804,12.01-6.876,13.894-14.678,13.894
		c-3.566,0-6.322-0.394-6.322-0.394c17,12-11,12.5-11,12.5c10.625,9.375,2.305,11.133-5.43,11.133c-4.641,0-9.07-0.633-9.07-0.633
		c6.667,6.945,0.834,8.487-5.669,8.487C31.707,77.987,26.077,77,26.077,77c5.625,9.375,0.117,11.133-4.805,11.133
		c-2.953,0-5.695-0.633-5.695-0.633C-0.575,33.49,18.299,20.121,40.961,20.121 M40.961,16.121c-12.977,0-22.591,4.076-28.577,12.114
		c-8.855,11.892-9.07,32.217-0.639,60.411c0.412,1.377,1.531,2.428,2.933,2.751c0.13,0.03,3.225,0.735,6.595,0.735
		c5.03,0,8.447-1.531,10.156-4.55c1.062-1.876,1.189-3.901,0.879-5.792c1.47,0.116,3.048,0.196,4.601,0.196
		c4.295,0,10.224-0.514,12.119-4.962c0.426-0.998,0.56-1.983,0.494-2.931c0.693,0.024,1.406,0.038,2.126,0.038
		c5.111,0,12.127-0.587,14.045-5.658c0.816-2.16,0.402-4.27-0.612-6.214c0.099-0.017,0.197-0.033,0.296-0.05
		c6.89-1.175,10.777-3.496,11.885-7.096c0.469-1.526,0.359-2.97-0.095-4.297c7.451-0.419,12.552-2.592,15.181-6.474
		c2.326-3.436,2.476-7.753,0.444-12.83c-0.365-0.912-1.053-1.658-1.932-2.096C89.768,28.876,63.873,16.121,40.961,16.121
		L40.961,16.121z"/>
</g>
</svg>
