<?xml version="1.0" encoding="utf-8"?>
<!-- Generator: Adobe Illustrator 16.0.0, SVG Export Plug-In . SVG Version: 6.00 Build 0)  -->
<!DOCTYPE svg PUBLIC "-//W3C//DTD SVG 1.1//EN" "http://www.w3.org/Graphics/SVG/1.1/DTD/svg11.dtd">
<svg version="1.1" xmlns="http://www.w3.org/2000/svg" xmlns:xlink="http://www.w3.org/1999/xlink" x="0px" y="0px" width="100px"
	 height="100px" viewBox="0 0 100 100" enable-background="new 0 0 100 100" xml:space="preserve">
<g id="Layer_3" display="none">
</g>
<g id="Your_Icon">
</g>
<g id="Layer_4">
	<path d="M37.951,67.001L17.451,67C9.633,67,3.269,60.884,2.962,53.077c-0.005-0.148-0.003-2.028-0.002-2.786l0-0.292
		c0-0.172,0.005-2.902,0.011-3.071c0.309-7.814,6.673-13.929,14.489-13.929h20.5v4h-20.5c-5.66,0-10.269,4.427-10.492,10.079
		c-0.005,0.236-0.008,2.759-0.008,2.921l0,0.299c-0.001,0.706-0.004,2.429,0,2.647C7.181,58.573,11.79,63,17.451,63l20.5,0.001
		V67.001z"/>
	<rect x="31" y="48" width="38" height="4"/>
	<path d="M64.012,67.001v-4L82.512,63c5.661,0,10.268-4.427,10.49-10.079c0.005-0.224,0-1.923-0.001-2.622l0-0.3
		c0-0.161-0.001-2.647-0.008-2.931c-0.222-5.643-4.83-10.069-10.492-10.069H62v-4h20.5c7.818,0,14.183,6.115,14.489,13.921
		C97,47.151,97,49.971,97,49.999l0,0.292c0.006,2.429,0.002,2.694-0.003,2.803C96.692,60.884,90.329,67,82.512,67L64.012,67.001z"/>
</g>
</svg>
