<?xml version="1.0" encoding="utf-8"?>
<!-- Generator: Adobe Illustrator 16.0.0, SVG Export Plug-In . SVG Version: 6.00 Build 0)  -->
<!DOCTYPE svg PUBLIC "-//W3C//DTD SVG 1.1//EN" "http://www.w3.org/Graphics/SVG/1.1/DTD/svg11.dtd">
<svg version="1.1" xmlns="http://www.w3.org/2000/svg" xmlns:xlink="http://www.w3.org/1999/xlink" x="0px" y="0px" width="100px"
	 height="100px" viewBox="0 0 100 100" enable-background="new 0 0 100 100" xml:space="preserve">
<g id="Layer_3" display="none">
</g>
<g id="Your_Icon">
</g>
<g id="Layer_4">
	<rect x="35" y="28.4" width="4" height="37.6"/>
	<rect x="26" y="34.8" width="4" height="31.3"/>
	<rect x="17" y="49" width="4" height="17.2"/>
	<g>
		<path fill="#FFFFFF" d="M91.801,64c0-6,0.999-13.6-5.301-16.899c-4.49-2.352-9.2-0.3-12.025,2.282C71.5,36.131,61,30.3,47,30.3V64
			h24.814h0.028H91.801z"/>
		<path d="M91.801,66H47c-1.104,0-2-0.896-2-2V30.3c0-1.104,0.896-2,2-2c14.784,0,24.833,6.269,28.625,17.74
			c3.797-2.278,8.184-2.606,11.803-0.711c6.65,3.482,6.512,10.713,6.401,16.521c-0.015,0.732-0.028,1.452-0.028,2.149
			C93.801,65.104,92.905,66,91.801,66z M49,62h40.825c0.001-0.075,0.003-0.15,0.004-0.226c0.122-6.383-0.108-10.729-4.257-12.902
			c-1.02-0.533-2.108-0.805-3.235-0.805c-2.166,0-4.601,1.044-6.513,2.792c-0.527,0.481-1.271,0.644-1.95,0.432
			c-0.68-0.215-1.194-0.774-1.351-1.47C69.489,36.305,58.465,32.756,49,32.343V62z"/>
	</g>
	<rect x="8.7" y="44.1" width="4" height="22"/>
</g>
</svg>
