<?xml version="1.0" encoding="utf-8"?>
<!-- Generator: Adobe Illustrator 16.0.0, SVG Export Plug-In . SVG Version: 6.00 Build 0)  -->
<!DOCTYPE svg PUBLIC "-//W3C//DTD SVG 1.1//EN" "http://www.w3.org/Graphics/SVG/1.1/DTD/svg11.dtd">
<svg version="1.1" xmlns="http://www.w3.org/2000/svg" xmlns:xlink="http://www.w3.org/1999/xlink" x="0px" y="0px" width="100px"
	 height="100px" viewBox="0 0 100 100" enable-background="new 0 0 100 100" xml:space="preserve">
<g id="Layer_3" display="none">
</g>
<g id="Your_Icon">
</g>
<g id="Layer_4">
	<path d="M25.675,72.657c11.5,0,20.825,10.041,20.825,22.427H4.851C4.851,82.698,14.175,72.657,25.675,72.657 M25.675,68.657
		c-13.688,0-24.824,11.854-24.824,26.427c0,2.209,1.791,4,4,4H46.5c2.209,0,4-1.791,4-4C50.5,80.512,39.364,68.657,25.675,68.657
		L25.675,68.657z"/>
	<path d="M25.674,39.1c5.433,0,9.835,4.401,9.835,9.835c0,5.433-4.402,9.833-9.835,9.833c-5.431,0-9.833-4.4-9.833-9.833
		C15.842,43.501,20.244,39.1,25.674,39.1 M25.674,35.1c-7.627,0-13.833,6.206-13.833,13.835c0,7.628,6.205,13.833,13.833,13.833
		c7.628,0,13.835-6.205,13.835-13.833C39.509,41.306,33.303,35.1,25.674,35.1L25.674,35.1z"/>
	<path d="M74.776,37.573C86.276,37.573,95.6,47.614,95.6,60H53.951C53.951,47.614,63.275,37.573,74.776,37.573 M74.776,33.573
		c-13.688,0-24.825,11.854-24.825,26.427c0,2.209,1.791,4,4,4H95.6c2.209,0,4-1.791,4-4C99.6,45.428,88.464,33.573,74.776,33.573
		L74.776,33.573z"/>
	<path d="M74.774,4.016c5.434,0,9.836,4.401,9.836,9.835c0,5.433-4.402,9.833-9.836,9.833c-5.43,0-9.832-4.4-9.832-9.833
		C64.942,8.417,69.344,4.016,74.774,4.016 M74.774,0.016c-7.627,0-13.832,6.206-13.832,13.835c0,7.628,6.205,13.833,13.832,13.833
		c7.629,0,13.836-6.205,13.836-13.833C88.61,6.222,82.403,0.016,74.774,0.016L74.774,0.016z"/>
</g>
</svg>
