<?xml version="1.0" encoding="utf-8"?>
<!-- Generator: Adobe Illustrator 16.0.0, SVG Export Plug-In . SVG Version: 6.00 Build 0)  -->
<!DOCTYPE svg PUBLIC "-//W3C//DTD SVG 1.1//EN" "http://www.w3.org/Graphics/SVG/1.1/DTD/svg11.dtd">
<svg version="1.1" xmlns="http://www.w3.org/2000/svg" xmlns:xlink="http://www.w3.org/1999/xlink" x="0px" y="0px" width="100px"
	 height="100px" viewBox="0 0 100 100" enable-background="new 0 0 100 100" xml:space="preserve">
<g id="Layer_3" display="none">
</g>
<g id="Your_Icon">
</g>
<g id="Layer_4">
	<path d="M29.861,85.035c-7.249,0-16.844-0.953-21.383-5.493c-6.184-6.185-5.48-20.926-5.377-22.628
		c-0.104-1.702-0.807-16.443,5.377-22.627c0.07-0.07,0.146-0.135,0.226-0.195l23.981-17.715c0.684-0.637,3.823-3.372,7.26-3.372
		c1.746,0,4.173,0.695,5.816,4.005c2.697,5.43,2.158,10.041,1.266,12.903h37.943c4.15,0,12,2.508,12,12c0,8.701-7.85,11-12,11
		H59.864c0.188,5.848,0.104,21.059-5.466,26.628c-4.709,4.71-13.688,5.414-18.622,5.414c-0.894,0-1.526-0.025-1.79-0.038
		C33.538,84.947,32.003,85.035,29.861,85.035z M11.209,37.215c-4.182,4.351-4.387,15.573-4.108,19.56
		c0.007,0.092,0.007,0.185,0,0.276c-0.276,4.022-0.061,15.395,4.206,19.662c2.746,2.746,9.509,4.321,18.555,4.321
		c2.35,0,3.947-0.114,3.963-0.115c0.089-0.008,0.18-0.009,0.267-0.002c0.031,0.002,0.663,0.038,1.686,0.038
		c2.71,0,11.858-0.307,15.794-4.242c4.485-4.484,4.557-20.054,4.205-25.675c-0.034-0.551,0.16-1.092,0.538-1.494
		s0.906-0.631,1.458-0.631h27.199c0.812-0.006,8-0.252,8-7c0-7.909-7.674-8-8-8h-41c-0.738,0-1.417-0.407-1.765-1.059
		s-0.308-1.442,0.104-2.056c0.127-0.196,3.268-5.166-0.131-12.009c-0.785-1.582-1.606-1.784-2.234-1.784
		c-1.761,0-3.955,1.738-4.585,2.346c-0.063,0.062-0.131,0.118-0.201,0.171L11.209,37.215z"/>
</g>
</svg>
