<?xml version="1.0" encoding="utf-8"?>
<!-- Generator: Adobe Illustrator 16.0.0, SVG Export Plug-In . SVG Version: 6.00 Build 0)  -->
<!DOCTYPE svg PUBLIC "-//W3C//DTD SVG 1.1//EN" "http://www.w3.org/Graphics/SVG/1.1/DTD/svg11.dtd">
<svg version="1.1" xmlns="http://www.w3.org/2000/svg" xmlns:xlink="http://www.w3.org/1999/xlink" x="0px" y="0px" width="100px"
	 height="100px" viewBox="0 0 100 100" enable-background="new 0 0 100 100" xml:space="preserve">
<g id="Layer_3" display="none">
</g>
<g id="Your_Icon">
</g>
<g id="Layer_4">
	<g>
		<polygon fill="#FFFFFF" points="39.94,72.55 68.204,49.55 39.94,26.55 		"/>
		<path d="M39.94,74.55c-0.292,0-0.585-0.063-0.858-0.193c-0.697-0.332-1.141-1.035-1.141-1.807v-46
			c0-0.771,0.444-1.475,1.141-1.807c0.697-0.331,1.522-0.233,2.121,0.256l28.264,23c0.467,0.379,0.738,0.949,0.738,1.551
			s-0.271,1.172-0.738,1.551l-28.264,23C40.839,74.397,40.392,74.55,39.94,74.55z M41.94,30.756v37.588L65.036,49.55L41.94,30.756z"
			/>
	</g>
</g>
</svg>
