<?xml version="1.0" encoding="utf-8"?>
<!-- Generator: Adobe Illustrator 16.0.0, SVG Export Plug-In . SVG Version: 6.00 Build 0)  -->
<!DOCTYPE svg PUBLIC "-//W3C//DTD SVG 1.1//EN" "http://www.w3.org/Graphics/SVG/1.1/DTD/svg11.dtd">
<svg version="1.1" xmlns="http://www.w3.org/2000/svg" xmlns:xlink="http://www.w3.org/1999/xlink" x="0px" y="0px" width="100px"
	 height="100px" viewBox="0 0 100 100" enable-background="new 0 0 100 100" xml:space="preserve">
<g id="Layer_3" display="none">
</g>
<g id="Your_Icon">
</g>
<g id="Layer_4">
	<path d="M47.095,96.5c-0.539,0-0.94-0.002-0.978-0.004c-5.22-0.204-11.047-4.449-11.047-10.214V70.958
		c-1.296-2.174-6.796-11.307-9.389-14.188C20.656,51.187,18,43.817,18,35.459C18,17.837,32.411,3.5,50.125,3.5
		C67.701,3.5,82,17.837,82,35.459c0,7.697-2.996,15.265-8.435,21.31c-2.414,2.682-8.828,11.979-10.392,14.26v15.249
		c0,5.414-4.562,9.996-10.17,10.213c-0.173,0.008-3.009,0.009-3.038,0.009L47.095,96.5z M50.125,7.5C34.617,7.5,22,20.042,22,35.459
		c0,7.354,2.301,13.798,6.655,18.636c3.203,3.559,9.856,14.821,10.138,15.299c0.182,0.308,0.277,0.658,0.277,1.016v15.873
		c0,3.343,3.877,6.087,7.213,6.218c0.045,0,0.378,0,0.812,0l2.907-0.001c0.071,0,2.625-0.002,2.87-0.006
		c3.404-0.132,6.301-2.979,6.301-6.216V70.409c0-0.401,0.121-0.794,0.347-1.126c0.332-0.486,8.148-11.942,11.072-15.19
		C75.369,48.784,78,42.167,78,35.459C78,20.042,65.495,7.5,50.125,7.5z"/>
	<path d="M56,85.5c0,0-0.221,3-7.469,3c-6.325,0-6.331-3-6.331-3v-9.032H56V85.5z"/>
	<rect x="42" y="71" width="14" height="4"/>
</g>
</svg>
