<?xml version="1.0" encoding="utf-8"?>
<!-- Generator: Adobe Illustrator 16.0.0, SVG Export Plug-In . SVG Version: 6.00 Build 0)  -->
<!DOCTYPE svg PUBLIC "-//W3C//DTD SVG 1.1//EN" "http://www.w3.org/Graphics/SVG/1.1/DTD/svg11.dtd">
<svg version="1.1" xmlns="http://www.w3.org/2000/svg" xmlns:xlink="http://www.w3.org/1999/xlink" x="0px" y="0px" width="100px"
	 height="100px" viewBox="0 0 100 100" enable-background="new 0 0 100 100" xml:space="preserve">
<g id="Layer_3" display="none">
</g>
<g id="Your_Icon">
</g>
<g id="Layer_4">
	<rect x="35.801" y="22.527" transform="matrix(0.9848 0.1738 -0.1738 0.9848 10.4006 -5.7099)" width="4" height="68.001"/>
	<rect x="13.04" y="57.284" transform="matrix(0.9382 0.346 -0.346 0.9382 23.7764 -14.6346)" width="79.686" height="4"/>
	<g>
		<g>
			<path fill="#FFFFFF" d="M51.853,24.094c-4.079,4.116-10.726,4.146-14.843,0.063c-4.122-4.078-4.147-10.727-0.068-14.849
				c4.082-4.115,10.73-4.146,14.845-0.065C55.912,13.322,55.938,19.974,51.853,24.094z"/>
		</g>
		<g>
			<path d="M50.365,22.613c-3.267,3.293-8.581,3.319-11.878,0.052c-3.297-3.262-3.318-8.58-0.055-11.874
				c3.269-3.296,8.581-3.319,11.88-0.057C53.607,14,53.628,19.32,50.365,22.613z"/>
			<path d="M44.4,12.304c1.167,0,2.269,0.453,3.097,1.271c1.723,1.708,1.734,4.499,0.028,6.221c-0.834,0.84-1.944,1.303-3.126,1.303
				c-1.167,0-2.267-0.453-3.099-1.277c-0.834-0.825-1.296-1.926-1.301-3.1c-0.006-1.175,0.447-2.281,1.272-3.115
				C42.107,12.767,43.218,12.304,44.4,12.304 M44.4,8.304c-2.162,0-4.323,0.83-5.968,2.488c-3.264,3.294-3.242,8.612,0.055,11.874
				c1.639,1.624,3.775,2.434,5.912,2.434c2.161,0,4.323-0.83,5.966-2.486c3.263-3.293,3.242-8.613-0.053-11.879
				C48.673,9.113,46.536,8.304,44.4,8.304L44.4,8.304z"/>
		</g>
	</g>
	<g>
		<g>
			<path fill="#FFFFFF" d="M39.352,96.394c-4.08,4.115-10.727,4.146-14.844,0.063c-4.121-4.077-4.146-10.728-0.068-14.849
				c4.082-4.115,10.73-4.146,14.846-0.064C43.41,85.622,43.438,92.273,39.352,96.394z"/>
		</g>
		<g>
			<path d="M37.863,94.913c-3.266,3.293-8.58,3.319-11.877,0.053c-3.297-3.263-3.318-8.58-0.055-11.875
				c3.268-3.295,8.58-3.318,11.879-0.057C41.105,86.3,41.127,91.62,37.863,94.913z"/>
			<path d="M31.898,84.604L31.898,84.604c1.168,0,2.269,0.453,3.097,1.271c1.723,1.708,1.735,4.499,0.028,6.222
				c-0.834,0.84-1.943,1.303-3.126,1.303c-1.166,0-2.266-0.453-3.098-1.276c-0.834-0.825-1.296-1.927-1.301-3.101
				c-0.006-1.175,0.447-2.281,1.272-3.115C29.605,85.066,30.716,84.604,31.898,84.604 M31.898,80.604
				c-2.162,0-4.323,0.83-5.967,2.487c-3.264,3.295-3.242,8.612,0.055,11.875c1.639,1.623,3.775,2.434,5.911,2.434
				c2.162,0,4.323-0.83,5.966-2.486c3.264-3.293,3.242-8.613-0.053-11.879C36.171,81.413,34.034,80.604,31.898,80.604L31.898,80.604
				z"/>
		</g>
	</g>
	<g>
		<g>
			<path fill="#FFFFFF" d="M19.453,51.394c-4.078,4.115-10.725,4.146-14.842,0.063C0.488,47.38,0.463,40.729,4.543,36.608
				c4.082-4.115,10.73-4.146,14.844-0.064C23.514,40.622,23.539,47.273,19.453,51.394z"/>
		</g>
		<g>
			<path d="M17.967,49.913c-3.268,3.293-8.582,3.319-11.879,0.053c-3.297-3.263-3.318-8.58-0.055-11.875
				c3.27-3.295,8.582-3.318,11.881-0.057C21.209,41.3,21.229,46.62,17.967,49.913z"/>
			<path d="M12.002,39.604L12.002,39.604c1.167,0,2.269,0.453,3.097,1.271c1.722,1.708,1.734,4.499,0.028,6.221
				c-0.834,0.841-1.944,1.304-3.128,1.304c-1.166,0-2.266-0.453-3.098-1.277c-0.834-0.825-1.296-1.926-1.301-3.1
				c-0.006-1.175,0.447-2.282,1.271-3.114C9.707,40.067,10.818,39.604,12.002,39.604 M12.002,35.604
				c-2.162,0-4.324,0.83-5.969,2.487c-3.264,3.295-3.242,8.612,0.055,11.875c1.639,1.623,3.775,2.434,5.911,2.434
				c2.162,0,4.324-0.83,5.968-2.486c3.262-3.293,3.242-8.613-0.053-11.879C16.274,36.413,14.138,35.604,12.002,35.604L12.002,35.604
				z"/>
		</g>
	</g>
	<g>
		<g>
			<path fill="#FFFFFF" d="M95.453,80.294c-4.078,4.115-10.725,4.146-14.842,0.063c-4.123-4.077-4.148-10.728-0.068-14.849
				c4.082-4.115,10.73-4.146,14.844-0.064C99.514,69.522,99.539,76.174,95.453,80.294z"/>
		</g>
		<g>
			<path d="M93.967,78.813c-3.268,3.293-8.582,3.319-11.879,0.053c-3.297-3.263-3.318-8.58-0.055-11.875
				c3.27-3.295,8.582-3.318,11.881-0.057C97.209,70.2,97.229,75.521,93.967,78.813z"/>
			<path d="M88.002,68.504L88.002,68.504c1.167,0,2.269,0.453,3.097,1.271c1.722,1.707,1.734,4.499,0.028,6.221
				c-0.834,0.841-1.944,1.304-3.128,1.304c-1.166,0-2.266-0.453-3.098-1.276c-0.834-0.825-1.296-1.927-1.301-3.101
				c-0.006-1.175,0.447-2.281,1.271-3.114C85.707,68.968,86.818,68.504,88.002,68.504 M88.002,64.504
				c-2.162,0-4.324,0.83-5.969,2.487c-3.264,3.295-3.242,8.612,0.055,11.875c1.639,1.623,3.775,2.434,5.911,2.434
				c2.162,0,4.324-0.83,5.968-2.486c3.262-3.293,3.242-8.613-0.053-11.879C92.274,65.313,90.138,64.504,88.002,64.504L88.002,64.504
				z"/>
		</g>
	</g>
</g>
</svg>
