<?xml version="1.0" encoding="utf-8"?>
<!-- Generator: Adobe Illustrator 16.0.0, SVG Export Plug-In . SVG Version: 6.00 Build 0)  -->
<!DOCTYPE svg PUBLIC "-//W3C//DTD SVG 1.1//EN" "http://www.w3.org/Graphics/SVG/1.1/DTD/svg11.dtd">
<svg version="1.1" xmlns="http://www.w3.org/2000/svg" xmlns:xlink="http://www.w3.org/1999/xlink" x="0px" y="0px" width="100px"
	 height="100px" viewBox="0 0 100 100" enable-background="new 0 0 100 100" xml:space="preserve">
<g id="Layer_3" display="none">
	<rect x="18" display="inline" fill="none" stroke="#000000" stroke-miterlimit="10" width="64" height="100"/>
	<rect display="inline" fill="none" stroke="#000000" stroke-miterlimit="10" width="100" height="100"/>
	<g display="inline">
		<path fill="none" stroke="#000000" stroke-miterlimit="10" d="M50.1,40.3c-5.52,0-10,4.477-10,10s4.48,10,10,10
			c5.523,0,10-4.477,10-10S55.623,40.3,50.1,40.3z"/>
		<path fill="none" stroke="#000000" stroke-miterlimit="10" d="M50.1,30.3c-11.027,0-20,8.972-20,20s8.973,20,20,20s20-8.972,20-20
			S61.127,30.3,50.1,30.3L50.1,30.3z"/>
	</g>
	<g display="inline">
		<path fill="none" stroke="#000000" stroke-miterlimit="10" d="M50.6,19.08c17.245,0,31.22,13.974,31.22,31.22
			c0,17.236-13.975,31.22-31.22,31.22S19.38,67.536,19.38,50.3C19.38,33.054,33.354,19.08,50.6,19.08 M50.6,10.3
			c-22.057,0-40,17.944-40,40s17.943,40,40,40s40-17.944,40-40S72.656,10.3,50.6,10.3L50.6,10.3z"/>
	</g>
</g>
<g id="Your_Icon">
</g>
<g id="Layer_4">
	<g>
		<path d="M86,44H14c-1.104,0-2,1.139-2,2.244v50c0,0.531,0.211,0.918,0.587,1.293C12.962,97.911,13.47,98,14,98
			c0.001,0,0.001,0,0.002,0l72,0.047C87.105,98.046,88,97.272,88,96.168V46.244C88,45.139,87.104,44,86,44z M84,94.17l-68,0.071V48
			h68V94.17z"/>
		<path d="M24,30.006c0-13.372,11.663-24.25,26-24.25s26,10.878,26,24.25V41h4V30.006c0-15.577-13.458-28.25-30-28.25
			s-30,12.673-30,28.25V41h4V30.006z"/>
		<path d="M45.347,73.126l2.203-3.338c-1.064-0.703-1.675-1.93-1.675-3.367c0-2.213,1.822-4.014,4.062-4.014
			c2.155,0,3.781,1.717,3.781,3.993c0,2.1-0.586,2.994-2.321,3.542L50,70.385V82h4v-8.812c2.47-1.266,3.719-3.543,3.719-6.788
			c0-4.482-3.418-7.993-7.781-7.993c-4.445,0-8.062,3.595-8.062,8.014C41.875,69.185,43.173,71.691,45.347,73.126z"/>
	</g>
</g>
</svg>
