<?xml version="1.0" encoding="utf-8"?>
<!-- Generator: Adobe Illustrator 16.0.0, SVG Export Plug-In . SVG Version: 6.00 Build 0)  -->
<!DOCTYPE svg PUBLIC "-//W3C//DTD SVG 1.1//EN" "http://www.w3.org/Graphics/SVG/1.1/DTD/svg11.dtd">
<svg version="1.1" xmlns="http://www.w3.org/2000/svg" xmlns:xlink="http://www.w3.org/1999/xlink" x="0px" y="0px" width="100px"
	 height="100px" viewBox="0 0 100 100" enable-background="new 0 0 100 100" xml:space="preserve">
<g id="Layer_3" display="none">
</g>
<g id="Your_Icon">
</g>
<g id="Layer_4">
	<path d="M40,45.457c15.186,0,27.5,13.255,27.5,29.612h-55C12.5,58.712,24.814,45.457,40,45.457 M40,41.457
		c-17.369,0-31.5,15.078-31.5,33.612c0,2.209,1.791,4,4,4h55c2.209,0,4-1.791,4-4C71.5,56.535,57.369,41.457,40,41.457L40,41.457z"
		/>
	<path d="M39.999,5.2c6.512,0,11.787,5.599,11.787,12.51c0,6.912-5.275,12.512-11.787,12.512c-6.51,0-11.785-5.6-11.785-12.512
		C28.214,10.799,33.489,5.2,39.999,5.2 M39.999,1.2c-8.704,0-15.785,7.406-15.785,16.51c0,9.104,7.081,16.512,15.785,16.512
		c8.705,0,15.787-7.407,15.787-16.512C55.786,8.606,48.704,1.2,39.999,1.2L39.999,1.2z"/>
	<g>
		<g>
			<path d="M97.2,69.26l-6.921-0.697l4.538-5.556c0.649-0.796,0.592-1.954-0.135-2.68l-5.657-5.656
				c-0.728-0.729-1.886-0.784-2.68-0.135l-5.624,4.595l-0.732-7.212C79.884,50.899,79.025,50,78,50h-8
				c-1.025,0-1.884,0.899-1.989,1.919l-0.703,6.862l-5.304-4.279c-0.795-0.647-1.95-0.571-2.676,0.153l-5.657,5.664
				c-0.725,0.725-0.784,1.884-0.138,2.68l4.493,5.531L50.8,69.259c-1.022,0.104-1.8,0.964-1.8,1.991v8c0,1.027,0.777,1.887,1.8,1.99
				l7.138,0.719l-4.401,5.387c-0.649,0.796-0.592,1.953,0.135,2.68l5.656,5.657c0.727,0.727,1.885,0.782,2.68,0.135l5.332-4.355
				l0.672,6.619C68.116,99.101,68.975,100,70,100h7.75c1.006,0,1.854-0.871,1.983-1.869l0.893-6.967l5.371,4.334
				c0.795,0.647,1.952,0.572,2.676-0.153l5.479-5.488c0.711-0.711,0.783-1.843,0.17-2.64l-4.067-5.275l6.945-0.7
				c1.022-0.104,1.8-0.964,1.8-1.991v-8C99,70.223,98.223,69.363,97.2,69.26z M95,77.441l-8.124,0.818
				c-0.735,0.074-1.369,0.547-1.649,1.23c-0.063,0.154-0.132,0.307-0.201,0.459c-0.312,0.676-0.223,1.47,0.231,2.06l4.824,6.255
				l-2.961,2.962l-6.146-4.995c-0.489-0.398-1.136-0.541-1.748-0.389c-0.068,0.018-0.137,0.039-0.204,0.063
				c-0.047,0.017-0.093,0.035-0.139,0.056l-0.589,0.244c-0.062,0.023-0.122,0.05-0.182,0.08c-0.075,0.037-0.148,0.079-0.218,0.125
				c-0.483,0.32-0.804,0.96-0.878,1.536L75.992,96h-4.188l-0.805-7.91c-0.078-0.758-0.581-1.469-1.297-1.732
				c-0.156-0.058-0.311-0.148-0.464-0.212c-0.682-0.285-1.464-0.188-2.038,0.28l-6.323,5.157l-3.099-3.103l5.047-6.18
				c0.494-0.605,0.591-1.443,0.248-2.145c-0.106-0.218-0.207-0.438-0.297-0.66c-0.279-0.686-0.915-1.162-1.652-1.236L53,77.441
				v-4.383l8.031-0.809c0.766-0.077,1.419-0.587,1.681-1.311c0.102-0.281,0.21-0.562,0.332-0.836
				c0.308-0.688,0.201-1.491-0.274-2.077l-4.995-6.146l3.106-3.105l6.146,4.996c0.617,0.503,1.45,0.577,2.131,0.25
				c0.08-0.035,0.17-0.07,0.314-0.129c0.004-0.002,0.09-0.038,0.094-0.04l0.126-0.052c0.02-0.008,0.039-0.016,0.059-0.023
				c0.679-0.274,1.161-1.029,1.238-1.772L71.804,54h4.393l0.814,8.004c0.077,0.749,0.569,1.454,1.273,1.724
				c0.281,0.108,0.556,0.261,0.826,0.388c0.698,0.327,1.52,0.242,2.115-0.246l6.251-5.099l3.099,3.103l-5.165,6.325
				c-0.469,0.574-0.582,1.361-0.294,2.045c0.095,0.223,0.179,0.45,0.258,0.681c0.255,0.734,0.914,1.257,1.689,1.335l7.937,0.8
				V77.441z"/>
			<path fill="#FFFFFF" d="M78,50.25c1.025,0,1.884,0.774,1.989,1.794l0.732,7.087l5.624-4.595c0.369-0.303,0.818-0.452,1.266-0.452
				c0.514,0,1.025,0.197,1.414,0.587l5.657,5.656c0.727,0.726,0.784,1.884,0.135,2.68l-4.538,5.556L97.2,69.26
				c1.022,0.104,1.8,0.963,1.8,1.99v8c0,1.027-0.777,1.887-1.8,1.99l-6.945,0.699l4.067,5.273c0.613,0.797,0.541,1.925-0.17,2.636
				l-5.479,5.48c-0.388,0.389-0.9,0.586-1.414,0.586c-0.446,0-0.893-0.147-1.262-0.448l-5.371-4.365l-0.893,6.904
				c-0.129,0.998-0.978,1.744-1.983,1.744H70c-1.025,0-1.884-0.774-1.989-1.794l-0.672-6.494l-5.332,4.355
				c-0.37,0.302-0.818,0.45-1.266,0.45c-0.514,0-1.025-0.196-1.414-0.585l-5.656-5.657c-0.727-0.727-0.784-1.884-0.135-2.68
				l4.401-5.387L50.8,81.24c-1.022-0.104-1.8-0.963-1.8-1.99v-8c0-1.027,0.777-1.887,1.8-1.99l7.227-0.728l-4.493-5.529
				c-0.646-0.796-0.587-1.951,0.138-2.676l5.657-5.656c0.389-0.389,0.901-0.586,1.416-0.586c0.444,0,0.891,0.147,1.26,0.448
				l5.304,4.311l0.703-6.8c0.105-1.02,0.964-1.794,1.989-1.794H78 M68.287,64.219c-0.444,0-0.891-0.147-1.26-0.448l-6.146-4.996
				l-3.106,3.105l4.995,6.146c0.476,0.586,0.582,1.389,0.274,2.077c-0.122,0.274-0.23,0.555-0.332,0.836
				c-0.262,0.724-0.915,1.233-1.681,1.311L53,73.059v4.383l8.124,0.818c0.737,0.074,1.373,0.55,1.652,1.235
				c0.09,0.223,0.19,0.442,0.297,0.66c0.343,0.701,0.246,1.538-0.248,2.144l-5.047,6.178l3.099,3.099L67.2,86.41
				c0.364-0.297,0.812-0.451,1.266-0.451c0.261,0,0.523,0.051,0.772,0.155c0.153,0.063,0.308,0.123,0.464,0.181
				c0.716,0.264,1.219,0.912,1.297,1.67l0.805,7.785h4.188l1.024-7.929c0.074-0.576,0.395-1.091,0.878-1.411
				c0.069-0.046,0.143-0.088,0.218-0.125c0.06-0.03,0.12-0.057,0.182-0.08l0.589-0.244c0.046-0.021,0.092-0.039,0.139-0.056
				c0.067-0.024,0.136-0.046,0.204-0.063c0.161-0.04,0.324-0.06,0.486-0.06c0.455,0,0.901,0.154,1.262,0.448l6.146,4.995
				l2.961-2.962l-4.824-6.255c-0.454-0.59-0.544-1.384-0.231-2.06c0.069-0.152,0.138-0.305,0.201-0.459
				c0.28-0.684,0.914-1.156,1.649-1.23L95,77.441v-4.383l-7.937-0.8c-0.775-0.078-1.435-0.6-1.689-1.335
				c-0.079-0.229-0.163-0.457-0.258-0.68c-0.288-0.684-0.175-1.47,0.294-2.044l5.165-6.323l-3.099-3.099l-6.251,5.106
				c-0.363,0.298-0.812,0.452-1.264,0.452c-0.289,0-0.58-0.063-0.852-0.19c-0.271-0.127-0.545-0.248-0.826-0.356
				c-0.704-0.27-1.196-0.912-1.273-1.661l-0.814-7.879h-4.393l-0.814,7.879c-0.077,0.743-0.56,1.373-1.238,1.647
				c-0.02,0.008-0.039,0.016-0.059,0.023l-0.126,0.052c-0.004,0.002-0.09,0.038-0.094,0.04c-0.145,0.059-0.234,0.094-0.314,0.129
				C68.885,64.152,68.586,64.219,68.287,64.219 M78,46.25h-8c-2.91,0-5.357,2.059-5.893,4.867c-0.986-0.668-2.163-1.032-3.363-1.032
				c-1.602,0-3.108,0.623-4.242,1.756l-5.659,5.657c-2.113,2.113-2.346,5.417-0.591,7.799C47.246,65.674,45,68.208,45,71.25v8
				c0,3.011,2.199,5.522,5.155,5.94c-1.65,2.372-1.387,5.589,0.688,7.663l5.655,5.657c1.134,1.133,2.641,1.757,4.243,1.757
				c1.227,0,2.43-0.38,3.433-1.078c0.649,2.65,3.023,4.561,5.826,4.561h7.75c2.938,0,5.446-2.146,5.92-5.026
				c1.03,0.77,2.296,1.192,3.589,1.192c1.605,0,3.113-0.626,4.246-1.763l5.477-5.477c2-2.001,2.312-5.132,0.81-7.479
				c2.983-0.396,5.209-2.92,5.209-5.948v-8c0-2.935-2.09-5.396-4.934-5.905c1.796-2.389,1.573-5.72-0.558-7.848l-5.655-5.655
				c-1.131-1.133-2.639-1.758-4.242-1.758c-1.33,0-2.631,0.447-3.68,1.262C83.489,48.421,80.988,46.25,78,46.25L78,46.25z
				 M71.144,67.528l0.069-0.028l0.024-0.01c1.151-0.466,2.103-1.256,2.761-2.245c0.676,1.019,1.661,1.823,2.856,2.28
				c0.184,0.071,0.371,0.155,0.557,0.242c0.795,0.372,1.676,0.569,2.551,0.569c0.379,0,0.755-0.037,1.124-0.107
				c-0.248,1.175-0.141,2.417,0.344,3.568c0.063,0.148,0.114,0.289,0.163,0.43c0.424,1.224,1.226,2.253,2.25,2.966
				c-1.021,0.653-1.839,1.613-2.317,2.779c-0.043,0.104-0.092,0.212-0.141,0.319c-0.531,1.149-0.673,2.414-0.441,3.618
				c-0.403-0.084-0.815-0.128-1.231-0.128c-0.488,0-0.978,0.06-1.452,0.178c-0.221,0.057-0.412,0.116-0.601,0.185
				c-0.103,0.036-0.223,0.084-0.346,0.137l-0.512,0.212c-0.169,0.067-0.336,0.142-0.501,0.226c-0.186,0.091-0.405,0.218-0.614,0.356
				c-0.693,0.459-1.274,1.051-1.717,1.73c-0.693-1.02-1.695-1.826-2.885-2.265c-0.105-0.038-0.212-0.079-0.316-0.122
				c-0.724-0.304-1.503-0.46-2.303-0.46c-0.435,0-0.867,0.048-1.288,0.141c0.223-1.234,0.06-2.534-0.511-3.701
				c-0.064-0.132-0.127-0.265-0.182-0.4c-0.474-1.164-1.28-2.122-2.288-2.778c1.029-0.7,1.84-1.714,2.276-2.92
				c0.069-0.193,0.142-0.384,0.225-0.57c0.521-1.165,0.649-2.431,0.405-3.63c0.389,0.079,0.785,0.119,1.184,0.119
				c0.856,0,1.717-0.188,2.495-0.542l0.08-0.032l0.113-0.046l0.143-0.058L71.144,67.528L71.144,67.528z"/>
		</g>
		<g>
			<circle cx="73.846" cy="75.46" r="5.622"/>
			<path fill="#FFFFFF" d="M73.851,70c3.103,0,5.618,2.438,5.618,5.54c0,3.104-2.518,5.583-5.623,5.583
				c-3.104-0.004-5.621-2.459-5.621-5.562c0-3.104,2.517-5.562,5.62-5.562c0,0,0.001,0,0.002,0H74 M73.851,66h-0.004
				c-2.571,0-4.987,0.92-6.805,2.737c-1.816,1.817-2.817,4.192-2.817,6.763c0,5.301,4.314,9.598,9.617,9.603
				c5.311,0,9.627-4.246,9.627-9.553C83.469,70.245,79.154,66,73.851,66L73.851,66z"/>
		</g>
	</g>
</g>
</svg>
