<?xml version="1.0" encoding="utf-8"?>
<!-- Generator: Adobe Illustrator 16.0.0, SVG Export Plug-In . SVG Version: 6.00 Build 0)  -->
<!DOCTYPE svg PUBLIC "-//W3C//DTD SVG 1.1//EN" "http://www.w3.org/Graphics/SVG/1.1/DTD/svg11.dtd">
<svg version="1.1" xmlns="http://www.w3.org/2000/svg" xmlns:xlink="http://www.w3.org/1999/xlink" x="0px" y="0px" width="100px"
	 height="100px" viewBox="0 0 100 100" enable-background="new 0 0 100 100" xml:space="preserve">
<g id="Layer_3" display="none">
</g>
<g id="Your_Icon">
</g>
<g id="Layer_4">
	<g>
		<path d="M25,30.3C25,16.928,36.663,6.05,51,6.05c14.579,0,26,10.191,26,23.2V31h4v-1.75c0-15.252-13.178-27.2-30-27.2
			c-16.542,0-30,12.673-30,28.25V41h4V30.3z"/>
		<path d="M86,44H14c-1.104,0-2,0.846-2,1.95v50c0,0.531,0.211,1.065,0.587,1.44C12.962,97.765,13.47,98,14,98
			c0.001,0,0.001,0,0.002,0l72-0.1C87.105,97.899,88,96.979,88,95.875V45.95C88,44.846,87.104,44,86,44z M84,93.877l-68,0.071V48h68
			V93.877z"/>
		<path d="M46.346,72.904l2.205-3.338c-1.034-0.683-1.676-2.015-1.676-3.479c0-2.206,1.86-4.069,4.062-4.069
			c2.155,0,3.781,1.705,3.781,3.965c0,2.079-0.586,2.966-2.321,3.515L51,69.941V82h4v-9.254c2.47-1.264,3.719-3.532,3.719-6.761
			c0-4.466-3.418-7.965-7.781-7.965c-4.445,0-8.062,3.62-8.062,8.069C42.875,68.878,44.205,71.49,46.346,72.904z"/>
	</g>
</g>
</svg>
