<?xml version="1.0" encoding="utf-8"?>
<!-- Generator: Adobe Illustrator 16.0.0, SVG Export Plug-In . SVG Version: 6.00 Build 0)  -->
<!DOCTYPE svg PUBLIC "-//W3C//DTD SVG 1.1//EN" "http://www.w3.org/Graphics/SVG/1.1/DTD/svg11.dtd">
<svg version="1.1" xmlns="http://www.w3.org/2000/svg" xmlns:xlink="http://www.w3.org/1999/xlink" x="0px" y="0px" width="100px"
	 height="100px" viewBox="0 0 100 100" enable-background="new 0 0 100 100" xml:space="preserve">
<g id="Layer_3" display="none">
	<rect x="18" display="inline" opacity="0.4" fill="none" stroke="#000000" stroke-miterlimit="10" width="64" height="100"/>
	<rect display="inline" opacity="0.4" fill="none" stroke="#000000" stroke-miterlimit="10" width="100" height="100"/>
	<g display="inline" opacity="0.4">
		<path fill="none" stroke="#000000" stroke-miterlimit="10" d="M50,18c17.677,0,32,14.323,32,32c0,17.667-14.323,32-32,32
			S18,67.667,18,50C18,32.323,32.323,18,50,18 M50,11c-21.506,0-39,17.496-39,39s17.494,39,39,39s39-17.496,39-39S71.506,11,50,11
			L50,11z"/>
	</g>
	
		<line display="inline" opacity="0.4" fill="none" stroke="#000000" stroke-linecap="square" stroke-miterlimit="10" x1="18.5" y1="149" x2="18.5" y2="7"/>
	
		<line display="inline" opacity="0.4" fill="none" stroke="#000000" stroke-linecap="square" stroke-miterlimit="10" x1="-52" y1="78.5" x2="90" y2="78.5"/>
</g>
<g id="Your_Icon">
</g>
<g id="Layer_4">
	<g>
		<path d="M16.112,72.886c-3.117,3.127-3.114,8.194,0,11.319c3.124,3.117,8.187,3.124,11.326-0.001
			c3.118-3.124,3.115-8.189-0.004-11.32C24.299,69.77,19.236,69.762,16.112,72.886z"/>
		<path d="M24.225,11H22v4h2.225C57.311,15,84,42.368,84,75.444V77h4v-1.556C88,40.162,59.517,11,24.225,11z"/>
		<path d="M24.225,31H22v4h2.225C46.626,35,65,53.052,65,75.444V77h4v-1.556C69,50.847,48.832,31,24.225,31z"/>
		<path d="M24.225,50H22v4h2.225C35.938,54,45,63.734,45,75.444V77h4v-1.557C49,61.528,38.144,50,24.225,50z"/>
	</g>
</g>
</svg>
