<?xml version="1.0" encoding="utf-8"?>
<!-- Generator: Adobe Illustrator 16.0.0, SVG Export Plug-In . SVG Version: 6.00 Build 0)  -->
<!DOCTYPE svg PUBLIC "-//W3C//DTD SVG 1.1//EN" "http://www.w3.org/Graphics/SVG/1.1/DTD/svg11.dtd">
<svg version="1.1" xmlns="http://www.w3.org/2000/svg" xmlns:xlink="http://www.w3.org/1999/xlink" x="0px" y="0px" width="100px"
	 height="100px" viewBox="0 0 100 100" enable-background="new 0 0 100 100" xml:space="preserve">
<g id="Layer_3" display="none">
</g>
<g id="Your_Icon">
</g>
<g id="Layer_4">
	<g>
		<path fill="#FFFFFF" d="M25.689,32.412c8.286,0,15.011,6.694,15.011,14.989c0,8.291-6.725,14.987-15.011,14.987
			c-8.272,0-14.989-6.696-14.989-14.987C10.7,39.106,17.417,32.412,25.689,32.412z"/>
		<path d="M25.689,32.412c8.286,0,15.011,6.694,15.011,14.989c0,8.291-6.725,14.987-15.011,14.987
			c-8.272,0-14.989-6.696-14.989-14.987C10.7,39.106,17.417,32.412,25.689,32.412 M25.689,28.412
			C15.219,28.412,6.7,36.931,6.7,47.401c0,10.47,8.519,18.987,18.989,18.987c10.482,0,19.011-8.518,19.011-18.987
			C44.7,36.931,36.172,28.412,25.689,28.412L25.689,28.412z"/>
	</g>
	<g>
		<path fill="#FFFFFF" d="M74.022,32.412c8.264,0,14.988,6.694,14.988,14.989c0,8.291-6.725,14.987-14.988,14.987
			c-8.295,0-15.012-6.696-15.012-14.987C59.011,39.106,65.728,32.412,74.022,32.412z"/>
		<path d="M74.022,32.412c8.264,0,14.988,6.694,14.988,14.989c0,8.291-6.725,14.987-14.988,14.987
			c-8.295,0-15.012-6.696-15.012-14.987C59.011,39.106,65.728,32.412,74.022,32.412 M74.022,28.412
			c-10.483,0-19.012,8.519-19.012,18.989c0,10.47,8.528,18.987,19.012,18.987c10.47,0,18.988-8.518,18.988-18.987
			C93.011,36.931,84.492,28.412,74.022,28.412L74.022,28.412z"/>
	</g>
</g>
</svg>
