<?xml version="1.0" encoding="utf-8"?>
<!-- Generator: Adobe Illustrator 16.0.0, SVG Export Plug-In . SVG Version: 6.00 Build 0)  -->
<!DOCTYPE svg PUBLIC "-//W3C//DTD SVG 1.1//EN" "http://www.w3.org/Graphics/SVG/1.1/DTD/svg11.dtd">
<svg version="1.1" xmlns="http://www.w3.org/2000/svg" xmlns:xlink="http://www.w3.org/1999/xlink" x="0px" y="0px" width="100px"
	 height="100px" viewBox="0 0 100 100" enable-background="new 0 0 100 100" xml:space="preserve">
<g id="Layer_3" display="none">
</g>
<g id="Your_Icon">
</g>
<g id="Layer_4">
	<g>
		<path d="M96.646,35.052C96.334,34.31,95.607,34,94.802,34h-30.13L51.916,4.379C51.6,3.649,50.881,3.002,50.086,3
			c-0.002,0-0.003,0-0.005,0c-0.794,0-1.513,0.649-1.832,1.376L35.335,34H5.198c-0.807,0-1.535,0.305-1.846,1.05
			s-0.144,1.513,0.424,2.087l23.625,23.851l-9.776,33.475c-0.234,0.802,0.055,1.653,0.724,2.152c0.67,0.499,1.577,0.524,2.28,0.072
			l29.469-19.008l30.419,19.019C80.843,96.901,81.21,97,81.577,97c0.435,0,0.867-0.142,1.227-0.42
			c0.663-0.515,0.934-1.389,0.679-2.188L72.798,60.914l23.431-23.773C96.793,36.566,96.958,35.795,96.646,35.052z M69.1,59.146
			c-0.52,0.529-0.704,1.216-0.479,1.922l9.393,29.389L51.142,73.633c-0.325-0.203-0.692-0.315-1.061-0.315
			c-0.377,0-0.754,0.101-1.084,0.314l-26.03,16.785l8.604-29.481c0.203-0.697,0.013-1.271-0.498-1.788L9.988,38h26.653
			c0.794,0,1.513-0.649,1.832-1.376l11.596-26.528l11.454,26.571C61.84,37.397,62.562,38,63.358,38h26.677L69.1,59.146z"/>
	</g>
</g>
</svg>
