<?xml version="1.0" encoding="utf-8"?>
<!-- Generator: Adobe Illustrator 16.0.0, SVG Export Plug-In . SVG Version: 6.00 Build 0)  -->
<!DOCTYPE svg PUBLIC "-//W3C//DTD SVG 1.1//EN" "http://www.w3.org/Graphics/SVG/1.1/DTD/svg11.dtd">
<svg version="1.1" xmlns="http://www.w3.org/2000/svg" xmlns:xlink="http://www.w3.org/1999/xlink" x="0px" y="0px" width="100px"
	 height="100px" viewBox="0 0 100 100" enable-background="new 0 0 100 100" xml:space="preserve">
<g id="Layer_3" display="none">
</g>
<g id="Your_Icon">
</g>
<g id="Layer_4">
	<g>
		<path fill="none" d="M51,22c-16.569,0-40,28-40,28s23.431,28,40,28c16.568,0,38-28,38-28S67.568,22,51,22z M51.5,60.5
			c-7.444,0-13.5-6.056-13.5-13.499C38,39.557,44.056,33.5,51.5,33.5S65,39.557,65,47.001C65,54.444,58.944,60.5,51.5,60.5z"/>
		<path fill="none" d="M51.5,37.5c-5.249,0-9.5,4.253-9.5,9.501c0,5.245,4.251,9.499,9.5,9.499c5.24,0,9.5-4.254,9.5-9.499
			C61,41.753,56.74,37.5,51.5,37.5z"/>
		<path d="M51.5,33.5c-7.444,0-13.5,6.057-13.5,13.501C38,54.444,44.056,60.5,51.5,60.5S65,54.444,65,47.001
			C65,39.557,58.944,33.5,51.5,33.5z M51.5,56.5c-5.249,0-9.5-4.254-9.5-9.499c0-5.248,4.251-9.501,9.5-9.501
			c5.24,0,9.5,4.253,9.5,9.501C61,52.246,56.74,56.5,51.5,56.5z"/>
		<path d="M92.176,47.569c-0.227-0.296-5.642-7.34-13.22-14.48C68.331,23.077,58.925,18,51,18c-7.875,0-17.586,5.047-28.861,15.001
			C14.077,40.12,8.18,47.138,7.932,47.433c-1.243,1.485-1.243,3.648,0,5.134c0.248,0.295,6.145,7.313,14.207,14.432
			C33.414,76.953,43.125,82,51,82c7.925,0,17.331-5.077,27.956-15.089c7.578-7.14,12.994-14.184,13.22-14.48
			C93.274,50.997,93.274,49.003,92.176,47.569z M51,78c-16.569,0-40-28-40-28s23.431-28,40-28c16.568,0,38,28,38,28S67.568,78,51,78
			z"/>
	</g>
</g>
</svg>
