<?xml version="1.0" encoding="utf-8"?>
<!-- Generator: Adobe Illustrator 16.0.0, SVG Export Plug-In . SVG Version: 6.00 Build 0)  -->
<!DOCTYPE svg PUBLIC "-//W3C//DTD SVG 1.1//EN" "http://www.w3.org/Graphics/SVG/1.1/DTD/svg11.dtd">
<svg version="1.1" xmlns="http://www.w3.org/2000/svg" xmlns:xlink="http://www.w3.org/1999/xlink" x="0px" y="0px" width="100px"
	 height="100px" viewBox="0 0 100 100" enable-background="new 0 0 100 100" xml:space="preserve">
<g id="Layer_3" display="none">
</g>
<g id="Your_Icon">
</g>
<g id="Layer_4">
	<path d="M64,97H43v-4h19V7H43V3h21c1.104,0,2,0.896,2,2v90C66,96.104,65.104,97,64,97z"/>
	<path d="M26,97H5c-1.104,0-2-0.896-2-2V5c0-1.104,0.896-2,2-2h21v4H7v86h19V97z"/>
	<path d="M95,97H70v-4h23V7H70V3h25c1.104,0,2,0.896,2,2v90C97,96.104,96.104,97,95,97z"/>
	<rect x="22" y="48" width="24" height="4"/>
	<rect x="32" y="38" width="4" height="24"/>
</g>
</svg>
