<?xml version="1.0" encoding="utf-8"?>
<!-- Generator: Adobe Illustrator 16.0.0, SVG Export Plug-In . SVG Version: 6.00 Build 0)  -->
<!DOCTYPE svg PUBLIC "-//W3C//DTD SVG 1.1//EN" "http://www.w3.org/Graphics/SVG/1.1/DTD/svg11.dtd">
<svg version="1.1" xmlns="http://www.w3.org/2000/svg" xmlns:xlink="http://www.w3.org/1999/xlink" x="0px" y="0px" width="100px"
	 height="100px" viewBox="0 0 100 100" enable-background="new 0 0 100 100" xml:space="preserve">
<g id="Layer_3" display="none">
</g>
<g id="Your_Icon">
</g>
<g id="Layer_4">
	<g>
		<rect x="22" y="3.3" fill="#FFFFFF" width="56" height="92.7"/>
		<path d="M78,3.3V96H22V3.3H78 M78-0.7H22c-2.209,0-4,1.791-4,4V96c0,2.209,1.791,4,4,4h56c2.209,0,4-1.791,4-4V3.3
			C82,1.091,80.209-0.7,78-0.7L78-0.7z"/>
	</g>
	<g>
		<rect x="30.15" y="11.101" fill="#FFFFFF" width="40" height="54.699"/>
		<path d="M70.15,67.8h-40c-1.104,0-2-0.896-2-2V11.101c0-1.104,0.896-2,2-2h40c1.104,0,2,0.896,2,2V65.8
			C72.15,66.904,71.255,67.8,70.15,67.8z M32.15,63.8h36V13.101h-36V63.8z"/>
	</g>
	<g>
		<path d="M55.9,82.5c0,3.312-2.687,6-6.001,6c-3.308,0-5.999-2.688-5.999-6s2.691-6,5.999-6C53.216,76.5,55.9,79.188,55.9,82.5z"/>
	</g>
</g>
</svg>
