<?xml version="1.0" encoding="utf-8"?>
<!-- Generator: Adobe Illustrator 16.0.0, SVG Export Plug-In . SVG Version: 6.00 Build 0)  -->
<!DOCTYPE svg PUBLIC "-//W3C//DTD SVG 1.1//EN" "http://www.w3.org/Graphics/SVG/1.1/DTD/svg11.dtd">
<svg version="1.1" xmlns="http://www.w3.org/2000/svg" xmlns:xlink="http://www.w3.org/1999/xlink" x="0px" y="0px" width="100px"
	 height="100px" viewBox="0 0 100 100" enable-background="new 0 0 100 100" xml:space="preserve">
<g id="Layer_3" display="none">
</g>
<g id="Your_Icon">
</g>
<g id="Layer_4">
	<g>
		<path d="M17.375,8.064c3.544,0,7.107,1.533,7.057,4.549V32.5c0,0,11.378-0.039,20.8-0.039c4.712,0,8.933,0.01,11,0.039
			c8.431,0.118,8.612,13.004,0,13.057c-0.247,0.001-3.863,0.002-8.574,0.002c-9.422,0-23.227-0.002-23.227-0.002s0,15.944,0,24.601
			c0,7.323,18.099,7.812,27.875,7.812c1.505,0,2.812-0.012,3.826-0.012c8.88,0,8.531,13.6,0.058,13.6c-0.02,0-0.038,0-0.058,0
			c-0.053,0-0.109-0.001-0.167-0.001c-0.989,0-2.776,0.053-5.088,0.053c-12.598,0-40.796-1.557-40.545-21.651l0.1-57.344
			C10.382,9.565,13.869,8.064,17.375,8.064 M17.375,4.064c-3.584,0-6.771,1.15-8.742,3.154c-1.464,1.488-2.224,3.36-2.201,5.418
			l-0.1,57.313c-0.074,5.884,1.909,10.936,5.895,14.971c7.003,7.092,20.008,10.688,38.651,10.688c1.422,0,2.649-0.02,3.62-0.035
			c0.598-0.009,1.093-0.018,1.467-0.018l0.138,0.001h0.088c5.974,0,10.479-4.68,10.479-10.885c0-2.729-0.919-5.298-2.587-7.233
			c-1.936-2.245-4.759-3.481-7.949-3.481c-0.462,0-0.985,0.002-1.56,0.005c-0.686,0.003-1.446,0.007-2.267,0.007
			c-4.265,0-10.543-0.095-15.81-0.915c-7.128-1.109-8.057-2.848-8.063-2.864l-0.001-20.633l19.227,0.002
			c4.722,0,8.347-0.001,8.595-0.002c6.783-0.042,10.35-5.267,10.37-10.407c0.02-5.092-3.595-10.555-10.335-10.649
			c-1.847-0.025-5.567-0.039-11.057-0.039c-5.902,0-12.63,0.016-16.8,0.027V12.642c0.024-2.036-0.734-3.896-2.193-5.379
			C24.24,5.23,21.009,4.064,17.375,4.064L17.375,4.064z"/>
	</g>
</g>
</svg>
