<?xml version="1.0" encoding="utf-8"?>
<!-- Generator: Adobe Illustrator 16.0.0, SVG Export Plug-In . SVG Version: 6.00 Build 0)  -->
<!DOCTYPE svg PUBLIC "-//W3C//DTD SVG 1.1//EN" "http://www.w3.org/Graphics/SVG/1.1/DTD/svg11.dtd">
<svg version="1.1" xmlns="http://www.w3.org/2000/svg" xmlns:xlink="http://www.w3.org/1999/xlink" x="0px" y="0px" width="100px"
	 height="100px" viewBox="0 0 100 100" enable-background="new 0 0 100 100" xml:space="preserve">
<g id="Layer_3" display="none">
</g>
<g id="Your_Icon">
</g>
<g id="Layer_4">
	<g>
		<path fill="#FFFFFF" d="M52.6,99.131c0,0,0.538-14.449-3.1-15.131c-1.6-0.3-9.948-0.179-11.715-0.066
			C32,84.3,35.688,59.3,35.688,59.3L23.1,60.168c0,0,7.6-19.967,7.6-27.299c0-15.467,17.736-28,33.201-28s31,12.533,31,28"/>
		<path d="M54.599,99.205l-3.998-0.148c0.219-5.916-0.536-12.073-1.591-13.11c-1.553-0.207-9.067-0.146-11.098-0.017
			c-1.175,0.066-2.271-0.381-3.098-1.279c-3.401-3.696-2.272-16.633-1.441-23.187l-10.136,0.699
			c-0.676,0.046-1.338-0.256-1.744-0.804s-0.505-1.266-0.263-1.902c2.077-5.459,7.469-20.878,7.469-26.588
			c0-16.896,18.923-30,35.201-30c15.577,0,33,12.83,33,30h-4c0-14.881-15.311-26-29-26c-14.132,0-31.201,11.598-31.201,26
			c0,5.944-4.522,19.182-6.654,25.091l9.505-0.655c0.604-0.036,1.194,0.193,1.605,0.637c0.411,0.444,0.599,1.051,0.511,1.65
			c-1.562,10.598-1.521,20.938,0.073,22.341c1.63-0.091,10.172-0.266,12.129,0.102C54.508,82.903,54.823,93.166,54.599,99.205z"/>
	</g>
	<g>
		<circle fill="#FFFFFF" cx="57.301" cy="41.393" r="6"/>
		<path d="M57.301,35.393c3.314,0,6,2.686,6,6s-2.686,6-6,6s-6-2.686-6-6S53.986,35.393,57.301,35.393 M57.301,31.393
			c-5.514,0-10,4.486-10,10s4.486,10,10,10s10-4.486,10-10S62.814,31.393,57.301,31.393L57.301,31.393z"/>
	</g>
</g>
</svg>
