<?xml version="1.0" encoding="utf-8"?>
<!-- Generator: Adobe Illustrator 16.0.0, SVG Export Plug-In . SVG Version: 6.00 Build 0)  -->
<!DOCTYPE svg PUBLIC "-//W3C//DTD SVG 1.1//EN" "http://www.w3.org/Graphics/SVG/1.1/DTD/svg11.dtd">
<svg version="1.1" xmlns="http://www.w3.org/2000/svg" xmlns:xlink="http://www.w3.org/1999/xlink" x="0px" y="0px" width="100px"
	 height="100px" viewBox="0 0 100 100" enable-background="new 0 0 100 100" xml:space="preserve">
<g id="Layer_3" display="none">
</g>
<g id="Your_Icon">
</g>
<g id="Layer_4">
	<path d="M72,97H5c-1.104,0-2-0.896-2-2V28c0-1.104,0.896-2,2-2h26v4H7v63h63V71h4v24C74,96.104,73.104,97,72,97z"/>
	<path d="M88.551,11.449c-0.381-0.381-0.937-0.455-1.438-0.449H51v4h31.251L33.506,63.666l2.828,2.828L85.08,17.748L85,48h4V12.887
		C89.006,12.348,88.932,11.83,88.551,11.449z"/>
</g>
</svg>
