<?xml version="1.0" encoding="utf-8"?>
<!-- Generator: Adobe Illustrator 16.0.0, SVG Export Plug-In . SVG Version: 6.00 Build 0)  -->
<!DOCTYPE svg PUBLIC "-//W3C//DTD SVG 1.1//EN" "http://www.w3.org/Graphics/SVG/1.1/DTD/svg11.dtd">
<svg version="1.1" xmlns="http://www.w3.org/2000/svg" xmlns:xlink="http://www.w3.org/1999/xlink" x="0px" y="0px" width="100px"
	 height="100px" viewBox="0 0 100 100" enable-background="new 0 0 100 100" xml:space="preserve">
<g id="Layer_3" display="none">
</g>
<g id="Your_Icon">
</g>
<g id="Layer_4">
	<path d="M60.101,98.9c-0.531,0-1.052-0.211-1.436-0.607l-56.1-57.807C2.203,40.113,2,39.614,2,39.094V3.461
		c0-1.095,0.88-1.986,1.975-2L41.062,1c0.525-0.039,1.076,0.212,1.458,0.605l55.666,57.2c0.563,0.578,0.723,1.438,0.406,2.181
		c-0.317,0.743-1.076,1.215-1.857,1.214L62.58,61.882L62.1,96.928c-0.011,0.81-0.509,1.532-1.261,1.831
		C60.599,98.854,60.349,98.9,60.101,98.9z M6,38.283l52.167,53.753l0.441-32.2c0.015-1.095,0.907-1.973,2-1.973
		c0.006,0,0.013,0,0.019,0l31.346,0.292L40.253,5.011L6,5.437V38.283z"/>
	<path d="M31.1,24.197c0-3.31-2.687-6.002-6-5.999c-3.313-0.002-6,2.688-6,6.001c0,3.311,2.687,5.998,5.999,6.001
		C28.414,30.201,31.1,27.512,31.1,24.197z"/>
</g>
</svg>
