<?xml version="1.0" encoding="utf-8"?>
<!-- Generator: Adobe Illustrator 16.0.0, SVG Export Plug-In . SVG Version: 6.00 Build 0)  -->
<!DOCTYPE svg PUBLIC "-//W3C//DTD SVG 1.1//EN" "http://www.w3.org/Graphics/SVG/1.1/DTD/svg11.dtd">
<svg version="1.1" xmlns="http://www.w3.org/2000/svg" xmlns:xlink="http://www.w3.org/1999/xlink" x="0px" y="0px" width="100px"
	 height="100px" viewBox="0 0 100 100" enable-background="new 0 0 100 100" xml:space="preserve">
<g id="Layer_3" display="none">
</g>
<g id="Your_Icon">
</g>
<g id="Layer_4">
	<path d="M71.884,90.569c-5.692,0-12.085-1.918-16.243-8.321L28.194,39.995c-0.151-0.232-1.482-2.357-1.682-5.291
		c-0.192-2.817,0.636-6.862,5.677-10.137c4.619-2.997,8.456-1.929,10.86-0.502c2.435,1.443,3.805,3.486,3.953,3.715L64.2,54.259
		l-3.354,2.179L43.647,29.959c-0.378-0.57-3.896-5.531-9.279-2.037c-2.738,1.779-4.039,3.969-3.865,6.509
		c0.129,1.898,1.037,3.371,1.046,3.385l27.447,42.254c6.339,9.762,18.839,5.759,20.568,5.146
		c13.549-9.553,5.781-22.858,5.441-23.423L59.98,23.268c-6.95-10.7-16.369-16.283-26.538-15.731
		c-8.617,0.47-16.376,5.535-20.25,13.218c-4.547,9.02-3.206,19.828,3.778,30.437l9.449,14.548l-3.354,2.179L13.623,53.38
		C5.938,41.707,4.476,29.155,9.62,18.953C14.137,9.995,23.182,4.09,33.224,3.542c11.486-0.64,22.46,5.769,30.11,17.546l25.06,38.58
		c0.135,0.222,10.207,17.248-6.758,28.979l-0.189,0.13l-0.213,0.084C78.936,89.771,75.555,90.569,71.884,90.569z"/>
</g>
</svg>
