<?xml version="1.0" encoding="utf-8"?>
<!-- Generator: Adobe Illustrator 16.0.0, SVG Export Plug-In . SVG Version: 6.00 Build 0)  -->
<!DOCTYPE svg PUBLIC "-//W3C//DTD SVG 1.1//EN" "http://www.w3.org/Graphics/SVG/1.1/DTD/svg11.dtd">
<svg version="1.1" xmlns="http://www.w3.org/2000/svg" xmlns:xlink="http://www.w3.org/1999/xlink" x="0px" y="0px" width="100px"
	 height="100px" viewBox="0 0 100 100" enable-background="new 0 0 100 100" xml:space="preserve">
<g id="Layer_3" display="none">
</g>
<g id="Your_Icon">
</g>
<g id="Layer_4">
	<path d="M87,97H13c-1.104,0-2-0.896-2-2V5c0-1.104,0.896-2,2-2h74c1.104,0,2,0.896,2,2v90C89,96.104,88.104,97,87,97z M15,93h70V7
		H15V93z"/>
	<path d="M44.695,61.576c-11.108,0-20.145-9.039-20.145-20.15c0-11.11,9.037-20.148,20.145-20.148
		c11.111,0,20.151,9.038,20.151,20.148C64.846,52.537,55.807,61.576,44.695,61.576z M44.695,25.277
		c-8.902,0-16.145,7.244-16.145,16.148c0,8.905,7.243,16.15,16.145,16.15c8.906,0,16.151-7.245,16.151-16.15
		C60.846,32.521,53.601,25.277,44.695,25.277z"/>
	<rect x="51.171" y="62.716" transform="matrix(0.7013 0.7128 -0.7128 0.7013 65.9416 -27.9505)" width="30.308" height="3.999"/>
</g>
</svg>
