<?xml version="1.0" encoding="utf-8"?>
<!-- Generator: Adobe Illustrator 16.0.0, SVG Export Plug-In . SVG Version: 6.00 Build 0)  -->
<!DOCTYPE svg PUBLIC "-//W3C//DTD SVG 1.1//EN" "http://www.w3.org/Graphics/SVG/1.1/DTD/svg11.dtd">
<svg version="1.1" xmlns="http://www.w3.org/2000/svg" xmlns:xlink="http://www.w3.org/1999/xlink" x="0px" y="0px" width="100px"
	 height="100px" viewBox="0 0 100 100" enable-background="new 0 0 100 100" xml:space="preserve">
<g id="Layer_3" display="none">
</g>
<g id="Your_Icon">
</g>
<g id="Layer_4">
	<g>
		<path d="M73.094,34.3c-3.301,0-6.715,1.785-10.435,5.458c-0.562,0.555-0.745,1.388-0.467,2.127
			c0.723,1.924,1.456,4.054,2.042,5.926l-2.479-2.282c-0.03-0.027-0.061-0.054-0.092-0.08c-0.567-0.461-14.035-11.288-26.374-9.545
			c-4.409,0.623-8.106,2.766-11.023,6.354c-4.715-7.733-8.866-15.288-10.368-21.52c-0.651-2.698,0.23-6.023,2.418-8.801
			C19.066,8.442,23.314,6,27.138,6c-0.001,0,0.002,0,0.004,0c3.529,0,6.682,1.527,9.173,3.964C38.796,12.391,40,15.799,40,19.226V21
			h4v-1.774c0-4.512-1.631-8.936-4.887-12.121C35.87,3.932,31.724,2,27.143,2c-0.001,0-0.004,0-0.006,0
			c-5.079,0-10.431,2.974-13.966,7.462c-2.951,3.747-4.104,8.224-3.164,12.121c2.153,8.929,9.016,19.888,15.654,30.441
			c6.038,9.6,12.281,19.55,14.468,27.29c0.979,3.463-0.892,6.841-2.094,8.43C35.292,91.368,30.806,94,26.871,94
			c-0.002,0-0.003,0-0.004,0C19.6,94,14,87.863,14,80.775V79h-4v1.776C10,90.07,17.394,98,26.867,98c0.002,0,0.003,0,0.005,0
			c5.204,0,10.837-3.186,14.353-7.831c2.85-3.766,3.828-8.025,2.754-11.827c-2.345-8.294-8.744-18.515-14.932-28.354
			c-0.866-1.377-1.736-2.785-2.598-4.168l0.094,0.054c2.423-3.491,5.464-5.458,9.296-6.002c10.291-1.46,22.442,8.003,23.257,8.65
			l2.094,1.926c-2.236-0.544-4.658-1.224-6.378-1.749c-0.707-0.217-1.476-0.025-1.999,0.499c-4.442,4.442-5.947,8.607-4.471,12.378
			c4.429,11.32,35.858,12.882,39.427,13.023c0.026,0.001,0.053,0.001,0.079,0.001c0.534,0,1.047-0.214,1.423-0.595
			c0.395-0.4,0.604-0.948,0.574-1.51C89.639,68.585,87.418,34.3,73.094,34.3z M52.067,60.117c-0.768-1.962,0.161-4.395,2.759-7.241
			c2.67,0.782,8.835,2.498,11.518,2.498c0.058,0,0.128-0.006,0.19-0.007l16.185,14.899C70.377,69.196,54.35,65.953,52.067,60.117z
			 M69.401,52.568c-0.033-1.649-0.748-4.712-3.002-10.845c2.515-2.273,4.763-3.424,6.694-3.424c6.952,0,10.948,16.076,12.321,29.01
			L69.401,52.568z"/>
	</g>
</g>
</svg>
