<?xml version="1.0" encoding="utf-8"?>
<!-- Generator: Adobe Illustrator 16.0.0, SVG Export Plug-In . SVG Version: 6.00 Build 0)  -->
<!DOCTYPE svg PUBLIC "-//W3C//DTD SVG 1.1//EN" "http://www.w3.org/Graphics/SVG/1.1/DTD/svg11.dtd">
<svg version="1.1" xmlns="http://www.w3.org/2000/svg" xmlns:xlink="http://www.w3.org/1999/xlink" x="0px" y="0px" width="100px"
	 height="100px" viewBox="0 0 100 100" enable-background="new 0 0 100 100" xml:space="preserve">
<g id="Layer_3" display="none">
</g>
<g id="Your_Icon">
</g>
<g id="Layer_4">
	<g>
		<rect x="16" y="4" fill="#FFFFFF" width="68" height="92"/>
		<path d="M84,4v92H16V4H84 M84,0H16c-2.209,0-4,1.791-4,4v92c0,2.209,1.791,4,4,4h68c2.209,0,4-1.791,4-4V4C88,1.791,86.209,0,84,0
			L84,0z"/>
	</g>
	<g>
		<rect x="24.5" y="12.201" fill="#FFFFFF" width="51" height="75"/>
		<path d="M75.5,89.201h-51c-1.104,0-2-0.896-2-2v-75c0-1.104,0.896-2,2-2h51c1.104,0,2,0.896,2,2v75
			C77.5,88.306,76.604,89.201,75.5,89.201z M26.5,85.201h47v-71h-47V85.201z"/>
	</g>
</g>
</svg>
