<?xml version="1.0" encoding="utf-8"?>
<!-- Generator: Adobe Illustrator 16.0.0, SVG Export Plug-In . SVG Version: 6.00 Build 0)  -->
<!DOCTYPE svg PUBLIC "-//W3C//DTD SVG 1.1//EN" "http://www.w3.org/Graphics/SVG/1.1/DTD/svg11.dtd">
<svg version="1.1" xmlns="http://www.w3.org/2000/svg" xmlns:xlink="http://www.w3.org/1999/xlink" x="0px" y="0px" width="100px"
	 height="100px" viewBox="0 0 100 100" enable-background="new 0 0 100 100" xml:space="preserve">
<g id="Layer_3" display="none">
</g>
<g id="Your_Icon">
</g>
<g id="Layer_4">
	<g>
		<path d="M77,3H23c-1.104,0-2,0.896-2,2v89.746c0,0.789,0.464,1.504,1.185,1.826c0.72,0.321,1.562,0.19,2.15-0.337l25.658-23
			l25.664,23.247C76.032,96.822,76.514,97,77,97c0.274,0,0.551-0.056,0.811-0.172C78.534,96.508,79,95.791,79,95V5
			C79,3.896,78.104,3,77,3z M75,90.49L51.343,69.061c-0.381-0.345-0.862-0.518-1.343-0.518c-0.478,0-0.955,0.17-1.335,0.511
			L25,90.268V7h50V90.49z"/>
	</g>
</g>
</svg>
