<?xml version="1.0" encoding="utf-8"?>
<!-- Generator: Adobe Illustrator 16.0.0, SVG Export Plug-In . SVG Version: 6.00 Build 0)  -->
<!DOCTYPE svg PUBLIC "-//W3C//DTD SVG 1.1//EN" "http://www.w3.org/Graphics/SVG/1.1/DTD/svg11.dtd">
<svg version="1.1" xmlns="http://www.w3.org/2000/svg" xmlns:xlink="http://www.w3.org/1999/xlink" x="0px" y="0px" width="100px"
	 height="100px" viewBox="0 0 100 100" enable-background="new 0 0 100 100" xml:space="preserve">
<g id="Layer_3" display="none">
</g>
<g id="Your_Icon">
</g>
<g id="Layer_4">
	<path d="M28.854,97.337c-0.314,0-0.63-0.074-0.919-0.224c-0.668-0.347-1.086-1.038-1.081-1.791
		c0.048-6.466,0.095-16.346,0.056-20.19c-7.547-0.947-10.164-2.846-13.959-6.662C6.51,61.997,2.976,53.405,3,44.276
		c0.024-9.128,3.602-17.701,10.076-24.14c6.406-6.374,25.77-7.456,36.742-7.534L50.71,12.6c8.635,0,29.463,0.747,36.347,7.667
		c6.436,6.47,9.967,15.06,9.943,24.188c-0.023,9.131-3.602,17.704-10.075,24.141c-4.009,3.989-22.481,6.54-27.365,7.152
		L30.02,96.961C29.674,97.21,29.265,97.337,28.854,97.337z M50.71,16.6l-0.864,0.003c-17.373,0.123-30.064,2.504-33.949,6.37
		C10.181,28.658,7.021,36.228,7,44.287s3.1,15.646,8.787,21.361c3.36,3.38,5.186,4.906,13.261,5.696
		c0.819,0.08,1.506,0.653,1.73,1.445c0.088,0.312,0.219,0.774,0.103,18.629l26.76-19.218c0.273-0.196,0.591-0.32,0.925-0.361
		c9.192-1.119,23.192-3.746,25.538-6.081C89.82,60.075,92.979,52.506,93,44.444c0.021-8.061-3.097-15.645-8.779-21.357
		C79.462,18.304,63.79,16.6,50.71,16.6z"/>
</g>
</svg>
