<?xml version="1.0" encoding="utf-8"?>
<!-- Generator: Adobe Illustrator 16.0.0, SVG Export Plug-In . SVG Version: 6.00 Build 0)  -->
<!DOCTYPE svg PUBLIC "-//W3C//DTD SVG 1.1//EN" "http://www.w3.org/Graphics/SVG/1.1/DTD/svg11.dtd">
<svg version="1.1" xmlns="http://www.w3.org/2000/svg" xmlns:xlink="http://www.w3.org/1999/xlink" x="0px" y="0px" width="100px"
	 height="100px" viewBox="0 0 100 100" enable-background="new 0 0 100 100" xml:space="preserve">
<g id="Layer_3" display="none">
</g>
<g id="Your_Icon">
</g>
<g id="Layer_4">
	<g>
		<path fill="#FFFFFF" d="M88.839,8.4c0,0-20.53,23.389-39.081,23.389c-2.229,0-24.031,0-26.335,0
			c-6.096,0-11.066,4.398-11.303,10.256c-0.005,0.145-0.008,2.35-0.008,2.496c0,0.145-0.008,2.418,0,2.562
			c0.234,5.861,5.207,10.5,11.302,10.5c2.952,0,22.663,0.041,24.842-0.018C64.783,57.156,88.839,80.4,88.839,80.4V8.4z"/>
		<path d="M88.84,82.4c-0.509,0-1.01-0.194-1.39-0.562c-0.232-0.225-23.62-22.596-39.142-22.254
			c-0.805,0.021-3.89,0.032-9.427,0.032c-4.153,0-8.784-0.006-11.96-0.01l-3.506-0.004c-7.18,0-13.021-5.455-13.3-12.42
			c-0.003-0.066-0.008-0.147-0.002-2.393l0-0.25c0-0.15,0.004-2.415,0.009-2.563c0.276-6.841,6.119-12.188,13.302-12.188h26.335
			c17.422,0,37.379-22.481,37.578-22.708c0.55-0.627,1.428-0.846,2.208-0.552c0.779,0.293,1.295,1.039,1.295,1.871v72
			c0,0.803-0.48,1.527-1.219,1.841C89.369,82.349,89.103,82.4,88.84,82.4z M48.712,55.58c13.484,0,30.868,13.911,38.127,20.287
			V13.403c-6.79,6.762-22.305,20.386-37.081,20.386H23.423c-5.113,0-9.113,3.584-9.304,8.337c-0.004,0.199-0.006,2.274-0.006,2.415
			l0,0.261c-0.001,0.59-0.006,2.012-0.001,2.232c0.192,4.801,4.279,8.569,9.303,8.569l3.512,0.004
			c3.175,0.004,7.803,0.01,11.955,0.01c5.425,0,8.562-0.01,9.322-0.03C48.373,55.582,48.542,55.58,48.712,55.58z"/>
	</g>
	<g>
		<path fill="#FFFFFF" d="M44.4,58.051c0,0,0,30.078,0,31.139c0,2.537-2.13,4.6-4.803,4.703c-0.069,0.002-1.132,0.008-1.198,0.008
			c-0.069,0-1.129,0-1.2,0c-2.672-0.096-4.799-2.174-4.799-4.711c0-25.354,0.001-25.314,0.001-31.139H44.4z"/>
		<path d="M38.398,95.9h-1.2c-3.844-0.137-6.799-3.084-6.799-6.711l0.001-33.139H46.4v33.139c0,3.612-2.954,6.556-6.726,6.701
			C39.582,95.894,38.467,95.9,38.398,95.9z M34.401,60.051L34.4,89.189c0,1.463,1.261,2.654,2.871,2.712l1.127-0.001
			c0.075,0,1.035-0.005,1.155-0.008c1.582-0.062,2.847-1.249,2.847-2.703V60.051H34.401z"/>
	</g>
	<rect x="42" y="30" width="4" height="28"/>
</g>
</svg>
