<?xml version="1.0" encoding="utf-8"?>
<!-- Generator: Adobe Illustrator 16.0.0, SVG Export Plug-In . SVG Version: 6.00 Build 0)  -->
<!DOCTYPE svg PUBLIC "-//W3C//DTD SVG 1.1//EN" "http://www.w3.org/Graphics/SVG/1.1/DTD/svg11.dtd">
<svg version="1.1" xmlns="http://www.w3.org/2000/svg" xmlns:xlink="http://www.w3.org/1999/xlink" x="0px" y="0px" width="64px"
	 height="100px" viewBox="0 0 64 100" enable-background="new 0 0 64 100" xml:space="preserve">
<g id="Layer_3" display="none">
</g>
<g id="Your_Icon">
</g>
<g id="Layer_4">
	<path fill="none" stroke="#000000" stroke-width="4" stroke-linecap="square" stroke-miterlimit="10" d="M33.318,67.799"/>
	<path d="M43.012,66.654l-2.58-3.057l1.528-1.29c3.642-3.075,5.382-7.234,4.432-10.596c-2.041-7.219-8.09-10.01-14.495-12.965
		c-7.026-3.242-14.292-6.594-16.524-15.851c-0.931-3.857,0.211-8.195,3.131-11.902c3.496-4.438,8.788-7.196,13.812-7.196
		c0.002-0.001,0.004,0,0.008,0c4.529,0,8.791,1.728,11.999,4.866c3.221,3.151,4.994,7.343,4.994,11.806v2h-4v-2
		c0-3.377-1.347-6.555-3.791-8.947c-2.456-2.402-5.725-3.725-9.203-3.725c0,0-0.002,0-0.004,0c0,0-0.001,0-0.002,0
		c-3.77,0-7.958,2.226-10.672,5.671c-2.156,2.737-3.024,5.832-2.384,8.489c1.778,7.374,7.866,10.182,14.312,13.156
		c6.621,3.055,14.127,6.518,16.669,15.509c1.396,4.944-0.788,10.592-5.701,14.74L43.012,66.654z"/>
	<path d="M31.678,96.201c-4.53,0-8.792-1.728-12-4.866c-3.221-3.15-4.994-7.343-4.994-11.806v-2h4v2
		c0,3.378,1.347,6.555,3.791,8.946c2.456,2.402,5.726,3.726,9.204,3.726c0,0,0.002,0,0.004,0c0,0,0.001,0,0.002,0
		c3.77,0,7.957-2.226,10.671-5.671c2.156-2.737,3.025-5.831,2.384-8.489c-1.778-7.373-7.866-10.183-14.312-13.156
		c-6.621-3.055-14.127-6.517-16.669-15.509c-1.396-4.943,0.788-10.591,5.701-14.74l1.527-1.291l2.581,3.056l-1.528,1.29
		c-3.642,3.076-5.381,7.235-4.432,10.596c2.041,7.219,8.09,10.01,14.495,12.965c7.026,3.242,14.292,6.594,16.524,15.851
		c0.931,3.856-0.211,8.195-3.131,11.902c-3.496,4.438-8.788,7.195-13.812,7.195C31.682,96.2,31.681,96.2,31.678,96.201z"/>
</g>
</svg>
