<?xml version="1.0" encoding="utf-8"?>
<!-- Generator: Adobe Illustrator 16.0.0, SVG Export Plug-In . SVG Version: 6.00 Build 0)  -->
<!DOCTYPE svg PUBLIC "-//W3C//DTD SVG 1.1//EN" "http://www.w3.org/Graphics/SVG/1.1/DTD/svg11.dtd">
<svg version="1.1" xmlns="http://www.w3.org/2000/svg" xmlns:xlink="http://www.w3.org/1999/xlink" x="0px" y="0px" width="100px"
	 height="100px" viewBox="0 0 100 100" enable-background="new 0 0 100 100" xml:space="preserve">
<g id="Layer_3" display="none">
</g>
<g id="Your_Icon">
</g>
<g id="Layer_4">
	<path d="M42,44.511c15.184,0,27.5,13.254,27.5,29.61h-55C14.5,57.765,26.816,44.511,42,44.511 M42,40.511
		c-17.369,0-31.5,15.077-31.5,33.61c0,2.209,1.791,4,4,4h55c2.209,0,4-1.791,4-4C73.5,55.588,59.369,40.511,42,40.511L42,40.511z"/>
	<path d="M41.999,4c6.513,0,11.79,5.598,11.79,12.515c0,6.91-5.277,12.511-11.79,12.511c-6.511,0-11.788-5.601-11.788-12.511
		C30.211,9.598,35.488,4,41.999,4 M41.999,0c-8.706,0-15.788,7.408-15.788,16.515c0,9.104,7.082,16.511,15.788,16.511
		c8.707,0,15.79-7.406,15.79-16.511C57.789,7.408,50.706,0,41.999,0L41.999,0z"/>
	<g>
		<path d="M93.932,70H81V57v-4h-4.068h-5H68v4v13H54.932H51v4v5v4h3.932H68v13v4h3.932h5H81v-4V83h12.932H98v-4v-5v-4H93.932z
			 M94,79H77v17h-5V79H55v-5h17V57h5v17h17V79z"/>
		<path fill="#FFFFFF" d="M80.932,53v4v13h13h4v4v5v4h-4h-13v13v4h-4h-5h-4v-4V83h-13h-4v-4v-5v-4h4h13V57v-4h4h5H80.932 M54.932,79
			h17v17h5V79h17v-5h-17V57h-5v17h-17V79 M84.932,49h-4h-4h-5h-4h-4v4v4v9h-9h-4h-4v4v4v5v4v4h4h4h9v9v4v4h4h4h5h4h4v-4v-4v-9h9h4h4
			v-4v-4v-5v-4v-4h-4h-4h-9v-9v-4V49L84.932,49z"/>
	</g>
</g>
</svg>
