<?xml version="1.0" encoding="utf-8"?>
<!-- Generator: Adobe Illustrator 16.0.0, SVG Export Plug-In . SVG Version: 6.00 Build 0)  -->
<!DOCTYPE svg PUBLIC "-//W3C//DTD SVG 1.1//EN" "http://www.w3.org/Graphics/SVG/1.1/DTD/svg11.dtd">
<svg version="1.1" xmlns="http://www.w3.org/2000/svg" xmlns:xlink="http://www.w3.org/1999/xlink" x="0px" y="0px" width="100px"
	 height="100px" viewBox="0 0 100 100" enable-background="new 0 0 100 100" xml:space="preserve">
<g id="Layer_3" display="none">
</g>
<g id="Your_Icon">
</g>
<g id="Layer_4">
	<g>
		<path d="M16.966,96.988c-3.518,0-6.825-1.38-9.312-3.888c-2.483-2.502-3.851-5.826-3.851-9.36c0-7.306,5.907-13.251,13.167-13.252
			h65.684c0.001,0,0.002,0,0.003,0c2.445,0,4.744-0.96,6.475-2.705c1.735-1.748,2.69-4.071,2.69-6.543
			c0-5.101-4.113-9.251-9.168-9.252H16.971c-0.001,0-0.003,0-0.004,0c-3.518,0-6.825-1.38-9.312-3.888
			c-2.483-2.502-3.851-5.826-3.851-9.36c0-7.306,5.907-13.251,13.167-13.252h65.684c0.001,0,0.002,0,0.003,0
			c2.445,0,4.744-0.96,6.475-2.704c1.735-1.748,2.69-4.072,2.69-6.544c0-5.1-4.113-9.25-9.168-9.252H50v-4h32.654
			C89.916,2.99,95.822,8.936,95.822,16.24c0,3.534-1.368,6.858-3.851,9.361c-2.487,2.507-5.795,3.887-9.313,3.887
			c-0.001,0-0.002,0-0.004,0H16.971c-5.055,0.001-9.168,4.151-9.168,9.252c0,2.472,0.956,4.795,2.69,6.543
			c1.73,1.744,4.03,2.705,6.474,2.705c0.001,0,0.002,0,0.003,0h65.684c7.261,0.001,13.168,5.946,13.168,13.252
			c0,3.534-1.368,6.858-3.851,9.36c-2.487,2.507-5.795,3.888-9.313,3.888c-0.001,0-0.002,0-0.004,0H16.971
			c-5.055,0.001-9.168,4.151-9.168,9.252c0,2.472,0.956,4.795,2.69,6.543c1.73,1.744,4.03,2.705,6.474,2.705
			c0.001,0,0.002,0,0.003,0H50v4H16.971C16.969,96.988,16.968,96.988,16.966,96.988z"/>
	</g>
</g>
</svg>
