<?xml version="1.0" encoding="utf-8"?>
<!-- Generator: Adobe Illustrator 16.0.0, SVG Export Plug-In . SVG Version: 6.00 Build 0)  -->
<!DOCTYPE svg PUBLIC "-//W3C//DTD SVG 1.1//EN" "http://www.w3.org/Graphics/SVG/1.1/DTD/svg11.dtd">
<svg version="1.1" xmlns="http://www.w3.org/2000/svg" xmlns:xlink="http://www.w3.org/1999/xlink" x="0px" y="0px" width="100px"
	 height="100px" viewBox="0 0 100 100" enable-background="new 0 0 100 100" xml:space="preserve">
<g id="Layer_3" display="none">
</g>
<g id="Your_Icon">
</g>
<g id="Layer_4">
	<g>
		<polygon fill="#FFFFFF" points="74,97 65,84 96,84 96,14 4,14 4,84 35,84 26,97 		"/>
		<path d="M74,99H26c-0.744,0-1.427-0.413-1.771-1.072c-0.346-0.658-0.296-1.454,0.127-2.066L31.183,86H4c-1.104,0-2-0.896-2-2V14
			c0-1.104,0.896-2,2-2h92c1.104,0,2,0.896,2,2v70c0,1.104-0.896,2-2,2H68.817l6.827,9.861c0.423,0.612,0.473,1.408,0.127,2.066
			C75.427,98.587,74.744,99,74,99z M29.817,95h40.365l-6.827-9.861c-0.423-0.612-0.473-1.408-0.127-2.066
			C63.573,82.413,64.256,82,65,82h29V16H6v66h29c0.744,0,1.427,0.413,1.771,1.072c0.346,0.658,0.296,1.454-0.127,2.066L29.817,95z"
			/>
	</g>
	<g>
		<rect x="12.501" y="22.595" fill="#FFFFFF" width="74.998" height="52"/>
		<path d="M87.5,76.595H12.502c-1.104,0-2-0.896-2-2l-0.002-52c0-0.53,0.211-1.039,0.586-1.414s0.884-0.586,1.414-0.586h74.998
			c1.104,0,2,0.896,2,2l0.002,52c0,0.53-0.211,1.039-0.586,1.414S88.03,76.595,87.5,76.595z M14.502,72.595H85.5l-0.002-48H14.5
			L14.502,72.595z"/>
	</g>
</g>
</svg>
