<?xml version="1.0" encoding="utf-8"?>
<!-- Generator: Adobe Illustrator 16.0.0, SVG Export Plug-In . SVG Version: 6.00 Build 0)  -->
<!DOCTYPE svg PUBLIC "-//W3C//DTD SVG 1.1//EN" "http://www.w3.org/Graphics/SVG/1.1/DTD/svg11.dtd">
<svg version="1.1" xmlns="http://www.w3.org/2000/svg" xmlns:xlink="http://www.w3.org/1999/xlink" x="0px" y="0px" width="100px"
	 height="100px" viewBox="0 0 100 100" enable-background="new 0 0 100 100" xml:space="preserve">
<g id="Layer_3" display="none">
</g>
<g id="Your_Icon">
</g>
<g id="Layer_4">
	<path d="M96,75H32c-1.381,0-2.5-1.119-2.5-2.5v-69C29.5,2.119,30.619,1,32,1h64c1.381,0,2.5,1.119,2.5,2.5v69
		C98.5,73.881,97.381,75,96,75z M34.5,70h59V6h-59V70z"/>
	<path d="M68,98H4.2c-1.381,0-2.5-1.119-2.5-2.5V26c0-1.381,1.119-2.5,2.5-2.5h22.3v5H6.7V93h58.8V77.5h5v18
		C70.5,96.881,69.381,98,68,98z"/>
	<rect x="45.5" y="23.5" width="37" height="5"/>
	<rect x="45.5" y="35.572" width="37" height="5"/>
	<rect x="45.5" y="48" width="37" height="5"/>
</g>
</svg>
