<?xml version="1.0" encoding="utf-8"?>
<!-- Generator: Adobe Illustrator 16.0.0, SVG Export Plug-In . SVG Version: 6.00 Build 0)  -->
<!DOCTYPE svg PUBLIC "-//W3C//DTD SVG 1.1//EN" "http://www.w3.org/Graphics/SVG/1.1/DTD/svg11.dtd">
<svg version="1.1" xmlns="http://www.w3.org/2000/svg" xmlns:xlink="http://www.w3.org/1999/xlink" x="0px" y="0px" width="100px"
	 height="100px" viewBox="0 0 100 100" enable-background="new 0 0 100 100" xml:space="preserve">
<g id="Layer_3" display="none">
</g>
<g id="Your_Icon">
</g>
<g id="Layer_4">
	<g>
		<path fill="#FFFFFF" d="M90,22.176v50c0,0-11.427-1.429-24,1c-1.51,0.292-14.862,10.092-16,10.093
			c-1.137,0.001-14.491-9.804-16-10.093c-12.569-2.402-24-1-24-1v-50c0,0,11.348-2.414,24-0.6c1.932,0.276,14.634,4.6,16,4.6
			c1.246,0,14.275-4.267,16-4.5C78.554,19.976,90,22.176,90,22.176z"/>
		<path d="M24.129,20.9c3.057,0,6.414,0.18,9.871,0.676c1.932,0.276,14.634,4.6,16,4.6c1.246,0,14.275-4.267,16-4.5
			c3.499-0.474,6.911-0.645,10.014-0.645c8.031,0,13.986,1.145,13.986,1.145v50c0,0-3.339-0.417-8.393-0.418
			c-4.296,0-9.83,0.302-15.607,1.418c-1.51,0.292-14.862,10.092-16,10.093c-1.137,0.001-14.491-9.804-16-10.093
			c-5.799-1.108-11.355-1.407-15.659-1.407c-5.024,0-8.341,0.407-8.341,0.407v-50C10,22.176,15.996,20.9,24.129,20.9 M24.129,16.9
			c-8.457,0-14.699,1.308-14.961,1.363C7.32,18.656,6,20.287,6,22.176v50c0,1.146,0.491,2.236,1.35,2.996
			c0.735,0.65,1.68,1.004,2.65,1.004c0.162,0,0.324-0.01,0.487-0.029c0.027-0.004,3.172-0.378,7.854-0.378
			c5.107,0,9.989,0.425,14.517,1.263c1.149,0.619,4.58,2.944,6.898,4.517c7.486,5.074,8.54,5.721,10.244,5.721
			c1.705-0.001,2.759-0.647,10.247-5.723c2.32-1.572,5.753-3.898,6.899-4.517c4.511-0.844,9.373-1.271,14.461-1.271
			c4.705,0.001,7.868,0.384,7.899,0.388c0.164,0.02,0.327,0.03,0.49,0.03c0.971,0,1.916-0.354,2.651-1.004
			C93.507,74.413,94,73.322,94,72.176v-50c0-1.918-1.361-3.566-3.245-3.928c-0.259-0.05-6.425-1.217-14.74-1.217
			c-3.665,0-7.216,0.229-10.552,0.681c-1.019,0.138-3.131,0.76-8.068,2.252c-2.459,0.742-6.037,1.824-7.403,2.153
			c-1.357-0.329-4.891-1.428-7.315-2.183c-4.897-1.523-7.002-2.159-8.109-2.318C31.254,17.142,27.741,16.9,24.129,16.9L24.129,16.9z
			"/>
	</g>
	<rect x="48" y="23.176" width="4" height="72.832"/>
	<rect x="6.25" y="92.1" width="87.5" height="4"/>
	<path d="M49.699,95.61c-0.852,0-1.924-0.412-10.461-4.44c-3.05-1.439-7.227-3.41-7.976-3.62
		C19.202,85.247,8.055,86.57,7.943,86.585l-1.984,0.243l-0.487-3.97l1.985-0.244c0.478-0.059,11.889-1.41,24.618,1.021
		c0.833,0.16,2.741,1.025,8.87,3.917c3.156,1.489,7.376,3.481,8.753,3.987c1.383-0.511,5.632-2.524,8.809-4.03
		c6.163-2.92,8.081-3.794,8.913-3.955c12.74-2.462,24.148-1.081,24.628-1.021l1.983,0.248l-0.495,3.967l-1.983-0.246
		c-0.111-0.013-11.284-1.356-23.374,0.979c-0.688,0.197-4.891,2.188-7.959,3.643c-8.593,4.072-9.665,4.485-10.518,4.486H49.699z"/>
</g>
</svg>
