<?xml version="1.0" encoding="utf-8"?>
<!-- Generator: Adobe Illustrator 16.0.0, SVG Export Plug-In . SVG Version: 6.00 Build 0)  -->
<!DOCTYPE svg PUBLIC "-//W3C//DTD SVG 1.1//EN" "http://www.w3.org/Graphics/SVG/1.1/DTD/svg11.dtd">
<svg version="1.1" xmlns="http://www.w3.org/2000/svg" xmlns:xlink="http://www.w3.org/1999/xlink" x="0px" y="0px" width="100px"
	 height="100px" viewBox="0 0 100 100" enable-background="new 0 0 100 100" xml:space="preserve">
<g id="Layer_3" display="none">
</g>
<g id="Your_Icon">
</g>
<g id="Layer_4">
	<rect x="47.5" y="28.599" width="5" height="54"/>
	<path d="M87.5,78.158h-5V63.304h-65v14.854h-5V60.804c0-1.381,1.119-2.5,2.5-2.5h70c1.381,0,2.5,1.119,2.5,2.5V78.158z"/>
	<g>
		<g>
			<path fill="#FFFFFF" d="M52.133,36.907c-6.518,1.18-12.762-3.149-13.937-9.669c-1.187-6.519,3.147-12.763,9.667-13.947
				c6.52-1.177,12.766,3.153,13.939,9.67C62.992,29.483,58.657,35.727,52.133,36.907z"/>
		</g>
		<path d="M50.008,19.6L50.008,19.6c2.655,0,4.928,1.902,5.403,4.52c0.541,2.985-1.448,5.853-4.43,6.394
			c-0.328,0.06-0.661,0.089-0.99,0.089c-2.657,0-4.928-1.901-5.402-4.526c-0.263-1.444,0.053-2.904,0.889-4.11
			s2.094-2.016,3.537-2.277C49.345,19.629,49.678,19.6,50.008,19.6 M50.007,15.6c-0.561,0-1.13,0.05-1.702,0.153
			c-5.163,0.936-8.591,5.877-7.651,11.04c0.829,4.592,4.83,7.81,9.337,7.81c0.561,0,1.13-0.05,1.701-0.153
			c5.161-0.936,8.591-5.877,7.655-11.043C58.514,18.817,54.516,15.599,50.007,15.6L50.007,15.6z"/>
	</g>
	<g>
		<g>
			<path fill="#FFFFFF" d="M87.132,96.906c-6.518,1.18-12.762-3.148-13.937-9.668c-1.187-6.52,3.147-12.764,9.667-13.947
				c6.52-1.178,12.766,3.152,13.939,9.67C97.992,89.482,93.657,95.727,87.132,96.906z"/>
		</g>
		<path d="M85.006,79.6L85.006,79.6c2.656,0,4.929,1.901,5.405,4.52c0.541,2.984-1.448,5.854-4.431,6.394
			c-0.328,0.06-0.661,0.09-0.99,0.09c-2.656,0-4.927-1.901-5.401-4.525c-0.263-1.445,0.053-2.905,0.889-4.111
			c0.836-1.207,2.094-2.016,3.537-2.277C84.343,79.629,84.677,79.6,85.006,79.6 M85.005,75.6c-0.56,0-1.129,0.05-1.7,0.152
			c-5.163,0.936-8.591,5.877-7.651,11.041c0.829,4.591,4.83,7.81,9.336,7.81c0.561,0,1.13-0.05,1.702-0.153
			c5.161-0.936,8.591-5.877,7.655-11.043C93.513,78.816,89.515,75.599,85.005,75.6L85.005,75.6z"/>
	</g>
	<g>
		<g>
			<path fill="#FFFFFF" d="M52.133,96.906c-6.518,1.18-12.762-3.148-13.937-9.668c-1.187-6.52,3.147-12.764,9.667-13.947
				c6.52-1.178,12.766,3.152,13.939,9.67C62.992,89.482,58.657,95.727,52.133,96.906z"/>
		</g>
		<g>
			<path fill="#FFFFFF" d="M51.692,94.449c-5.163,0.934-10.106-2.494-11.038-7.656c-0.939-5.164,2.488-10.105,7.651-11.041
				c5.166-0.932,10.104,2.494,11.042,7.654C60.283,88.572,56.854,93.514,51.692,94.449z"/>
			<path d="M50.007,79.6L50.007,79.6c2.656,0,4.929,1.901,5.405,4.52c0.541,2.984-1.448,5.854-4.431,6.394
				c-0.328,0.06-0.661,0.09-0.99,0.09c-2.656,0-4.927-1.901-5.401-4.525c-0.263-1.445,0.053-2.905,0.889-4.111
				c0.836-1.207,2.094-2.016,3.537-2.277C49.344,79.629,49.677,79.6,50.007,79.6 M50.006,75.6c-0.56,0-1.129,0.05-1.7,0.152
				c-5.163,0.936-8.591,5.877-7.651,11.041c0.829,4.591,4.83,7.81,9.336,7.81c0.561,0,1.13-0.05,1.702-0.153
				c5.161-0.936,8.591-5.877,7.655-11.043C58.514,78.816,54.515,75.599,50.006,75.6L50.006,75.6z"/>
		</g>
	</g>
	<g>
		<g>
			<path fill="#FFFFFF" d="M17.133,96.906c-6.518,1.18-12.762-3.148-13.937-9.668c-1.187-6.52,3.147-12.764,9.667-13.947
				c6.52-1.178,12.766,3.152,13.939,9.67C27.992,89.482,23.657,95.727,17.133,96.906z"/>
		</g>
		<path d="M15.007,79.6L15.007,79.6c2.656,0,4.929,1.901,5.405,4.52c0.541,2.984-1.448,5.854-4.431,6.394
			c-0.328,0.06-0.661,0.09-0.99,0.09c-2.656,0-4.927-1.901-5.401-4.525c-0.263-1.445,0.053-2.905,0.889-4.111
			c0.836-1.207,2.094-2.016,3.537-2.277C14.344,79.629,14.677,79.6,15.007,79.6 M15.006,75.6c-0.56,0-1.129,0.05-1.7,0.152
			c-5.163,0.936-8.591,5.877-7.651,11.041c0.829,4.591,4.83,7.81,9.336,7.81c0.561,0,1.13-0.05,1.702-0.153
			c5.161-0.936,8.591-5.877,7.655-11.043C23.514,78.816,19.515,75.599,15.006,75.6L15.006,75.6z"/>
	</g>
</g>
</svg>
