<?xml version="1.0" encoding="utf-8"?>
<!-- Generator: Adobe Illustrator 16.0.0, SVG Export Plug-In . SVG Version: 6.00 Build 0)  -->
<!DOCTYPE svg PUBLIC "-//W3C//DTD SVG 1.1//EN" "http://www.w3.org/Graphics/SVG/1.1/DTD/svg11.dtd">
<svg version="1.1" xmlns="http://www.w3.org/2000/svg" xmlns:xlink="http://www.w3.org/1999/xlink" x="0px" y="0px" width="100px"
	 height="100px" viewBox="0 0 100 100" enable-background="new 0 0 100 100" xml:space="preserve">
<g id="Layer_3" display="none">
</g>
<g id="Your_Icon">
</g>
<g id="Layer_4">
	<g>
		<polygon fill="#FFFFFF" points="68.907,26.053 63.153,11 36.677,11 31.049,26.053 4,26.053 4,95.999 96,95.9 96,26.053 		"/>
		<path d="M4,97.999c-0.53,0-1.039-0.21-1.414-0.585C2.211,97.039,2,96.53,2,95.999V26.053c0-1.104,0.896-2,2-2h25.662L34.803,10.3
			C35.096,9.518,35.842,9,36.677,9h26.477c0.829,0,1.572,0.512,1.868,1.286l5.262,13.767H96c1.104,0,2,0.896,2,2V95.9
			c0,1.104-0.894,1.999-1.998,2l-92,0.099C4.002,97.999,4,97.999,4,97.999z M6,28.053v65.944l88-0.095v-65.85H68.907
			c-0.829,0-1.572-0.512-1.868-1.286L61.777,13H38.064l-5.142,13.753c-0.292,0.782-1.039,1.3-1.874,1.3H6z"/>
	</g>
	<path d="M50,47c7.718,0,14,6.278,14,14s-6.282,14-14,14s-14-6.278-14-14S42.282,47,50,47 M50,43c-9.925,0-18,8.075-18,18
		s8.075,18,18,18s18-8.075,18-18S59.925,43,50,43L50,43z"/>
</g>
</svg>
