<?xml version="1.0" encoding="utf-8"?>
<!-- Generator: Adobe Illustrator 16.0.0, SVG Export Plug-In . SVG Version: 6.00 Build 0)  -->
<!DOCTYPE svg PUBLIC "-//W3C//DTD SVG 1.1//EN" "http://www.w3.org/Graphics/SVG/1.1/DTD/svg11.dtd">
<svg version="1.1" xmlns="http://www.w3.org/2000/svg" xmlns:xlink="http://www.w3.org/1999/xlink" x="0px" y="0px" width="100px"
	 height="100px" viewBox="0 0 100 100" enable-background="new 0 0 100 100" xml:space="preserve">
<g id="Layer_3" display="none">
</g>
<g id="Your_Icon">
</g>
<g id="Layer_4">
	<g>
		<path fill="#FFFFFF" d="M77.3,94L77.252,6L50.228,36c-5.797,0-20.897,0-22.952,0c-6.736,0-12.227,4.726-12.49,11.397
			c-0.006,0.164-0.01,2.53-0.01,2.698c0,0.166-0.006,3.286,0,3.452C15.037,60.222,20.529,66,27.266,66c2.678,0,17.754,0,23.302,0
			L77.3,94z"/>
		<path d="M77.3,96c-0.536,0-1.062-0.216-1.446-0.619L49.712,68H27.266c-7.679,0-14.178-6.448-14.488-14.374
			c-0.006-0.149-0.004-2.387-0.002-3.229v-0.301c0-0.173,0.005-2.602,0.011-2.77C13.087,39.726,19.315,34,27.275,34h22.062
			L75.766,4.661c0.554-0.614,1.431-0.826,2.203-0.528c0.772,0.297,1.283,1.038,1.283,1.866l0.048,88
			c0,0.817-0.497,1.553-1.256,1.857C77.803,95.953,77.551,96,77.3,96z M27.275,38c-5.862,0-10.274,3.985-10.492,9.477
			c-0.005,0.227-0.008,2.458-0.008,2.619v0.307c-0.002,0.792-0.005,2.861-0.001,3.094C17.002,59.276,21.708,64,27.266,64h23.302
			c0.547,0,1.069,0.224,1.446,0.619l23.283,24.387l-0.042-77.801L51.714,37.339C51.334,37.76,50.794,38,50.228,38H27.275z"/>
	</g>
</g>
</svg>
