<?xml version="1.0" encoding="utf-8"?>
<!-- Generator: Adobe Illustrator 16.0.0, SVG Export Plug-In . SVG Version: 6.00 Build 0)  -->
<!DOCTYPE svg PUBLIC "-//W3C//DTD SVG 1.1//EN" "http://www.w3.org/Graphics/SVG/1.1/DTD/svg11.dtd">
<svg version="1.1" xmlns="http://www.w3.org/2000/svg" xmlns:xlink="http://www.w3.org/1999/xlink" x="0px" y="0px" width="62px"
	 height="100px" viewBox="0 0 62 100" enable-background="new 0 0 62 100" xml:space="preserve">
<g id="Layer_3" display="none">
</g>
<g id="Your_Icon">
</g>
<g id="Layer_4">
	<path d="M29.832,97.63c-0.002,0-0.003-0.001-0.005,0c-9.473,0-17.182-7.56-17.185-16.854l0-2l4-0.001l0,2
		c0.002,7.088,5.918,12.855,13.186,12.855c0.001,0,0.002,0,0.004,0c3.935,0,8.421-2.435,11.164-6.06
		c1.202-1.588,3.073-4.771,2.094-8.233c-2.188-7.74-8.431-17.667-14.468-27.266C21.983,41.517,15.12,30.604,12.967,21.676
		c-0.94-3.897,0.213-8.282,3.164-12.029c3.535-4.488,8.887-7.277,13.966-7.277c0.003,0.001,0.005,0,0.006,0
		c4.581,0,8.889,1.747,12.132,4.92c3.256,3.185,5.049,7.424,5.049,11.936v2h-4v-2c0-3.427-1.366-6.65-3.846-9.077
		c-2.491-2.437-5.807-3.779-9.335-3.779c-0.002,0-0.005-0.001-0.004,0c-3.824,0-8.072,2.257-10.824,5.752
		c-2.188,2.777-3.069,5.918-2.418,8.616c1.999,8.292,8.685,18.922,15.151,29.203c6.188,9.839,12.587,20.014,14.932,28.308
		c1.074,3.802,0.096,7.969-2.754,11.735C40.669,94.629,35.035,97.629,29.832,97.63z"/>
</g>
</svg>
