<?xml version="1.0" encoding="utf-8"?>
<!-- Generator: Adobe Illustrator 16.0.0, SVG Export Plug-In . SVG Version: 6.00 Build 0)  -->
<!DOCTYPE svg PUBLIC "-//W3C//DTD SVG 1.1//EN" "http://www.w3.org/Graphics/SVG/1.1/DTD/svg11.dtd">
<svg version="1.1" xmlns="http://www.w3.org/2000/svg" xmlns:xlink="http://www.w3.org/1999/xlink" x="0px" y="0px" width="100px"
	 height="100px" viewBox="0 0 100 100" enable-background="new 0 0 100 100" xml:space="preserve">
<g id="Layer_3" display="none">
</g>
<g id="Your_Icon">
</g>
<g id="Layer_4">
	<path d="M49.95,16.7C37.271,16.7,25.88,23.64,20,34.629V14h-4v26.5c0,1.104,0.896,2.5,2,2.5h27v-4H22.555
		c4.823-11,15.464-18.05,27.396-18.05c16.542,0,30,13.333,30,29.875s-13.458,29.938-30,29.938c-12.589,0-24.089-7.98-28.376-19.812
		C20.932,59.18,20.7,58.3,20,55.444L19.8,53H16l0.186,2.903c0.332,2.171,0.961,4.317,1.708,6.379
		C22.753,75.691,35.644,84.7,49.91,84.7c18.748,0,34.02-15.252,34.02-34S68.698,16.7,49.95,16.7z"/>
</g>
</svg>
