<?xml version="1.0" encoding="utf-8"?>
<!-- Generator: Adobe Illustrator 16.0.0, SVG Export Plug-In . SVG Version: 6.00 Build 0)  -->
<!DOCTYPE svg PUBLIC "-//W3C//DTD SVG 1.1//EN" "http://www.w3.org/Graphics/SVG/1.1/DTD/svg11.dtd">
<svg version="1.1" xmlns="http://www.w3.org/2000/svg" xmlns:xlink="http://www.w3.org/1999/xlink" x="0px" y="0px" width="100px"
	 height="100px" viewBox="0 0 100 100" enable-background="new 0 0 100 100" xml:space="preserve">
<g id="Layer_3" display="none">
</g>
<g id="Your_Icon">
</g>
<g id="Layer_4">
	<rect x="-8.706" y="47.382" transform="matrix(0.3505 0.9366 -0.9366 0.3505 63.639 7.0025)" width="70.954" height="4"/>
	<rect x="44.504" y="39.941" transform="matrix(0.9144 0.4047 -0.4047 0.9144 29.4404 -13.4389)" width="4.001" height="45.935"/>
	<rect x="47.154" y="53.758" transform="matrix(0.7082 0.706 -0.706 0.7082 59.6732 -32.8706)" width="44.901" height="4"/>
	<rect x="83.504" y="29.909" width="4" height="40"/>
	<g>
		<g>
			<path fill="#FFFFFF" d="M21.152,21.492c-4.079,4.115-10.726,4.146-14.843,0.063C2.188,17.478,2.162,10.828,6.241,6.707
				c4.082-4.115,10.73-4.146,14.845-0.064C25.212,10.72,25.238,17.372,21.152,21.492z"/>
		</g>
		<g>
			<path d="M19.665,20.011c-3.267,3.293-8.581,3.319-11.878,0.053c-3.297-3.263-3.318-8.58-0.055-11.875
				c3.269-3.295,8.581-3.318,11.88-0.057C22.907,11.398,22.928,16.718,19.665,20.011z"/>
			<path d="M13.7,9.702L13.7,9.702c1.167,0,2.269,0.453,3.097,1.271c1.723,1.708,1.734,4.499,0.028,6.221
				c-0.834,0.84-1.944,1.303-3.127,1.303c-1.166,0-2.266-0.453-3.098-1.277c-0.834-0.825-1.296-1.926-1.301-3.1
				c-0.006-1.175,0.447-2.282,1.272-3.115C11.406,10.165,12.518,9.702,13.7,9.702 M13.7,5.702c-2.162,0-4.323,0.83-5.968,2.487
				c-3.264,3.295-3.242,8.612,0.055,11.875c1.639,1.624,3.775,2.434,5.911,2.434c2.162,0,4.323-0.83,5.967-2.486
				c3.263-3.293,3.242-8.613-0.053-11.879C17.973,6.511,15.836,5.702,13.7,5.702L13.7,5.702z"/>
		</g>
	</g>
	<g>
		<g>
			<path fill="#FFFFFF" d="M46.152,93.894c-4.079,4.115-10.726,4.146-14.843,0.063c-4.122-4.077-4.147-10.728-0.068-14.849
				c4.082-4.115,10.73-4.146,14.845-0.064C50.212,83.122,50.238,89.773,46.152,93.894z"/>
		</g>
		<g>
			<path d="M44.665,92.413c-3.267,3.293-8.581,3.319-11.878,0.053c-3.297-3.263-3.318-8.58-0.055-11.875
				c3.269-3.295,8.581-3.318,11.88-0.057C47.907,83.8,47.928,89.12,44.665,92.413z"/>
			<path d="M38.7,82.104L38.7,82.104c1.167,0,2.269,0.453,3.097,1.271c1.723,1.708,1.734,4.499,0.028,6.221
				c-0.834,0.841-1.944,1.304-3.127,1.304c-1.166,0-2.266-0.453-3.098-1.276c-0.834-0.825-1.296-1.927-1.301-3.101
				c-0.006-1.175,0.447-2.281,1.272-3.114C36.406,82.566,37.518,82.104,38.7,82.104 M38.7,78.104c-2.162,0-4.323,0.83-5.968,2.487
				c-3.264,3.295-3.242,8.612,0.055,11.875c1.639,1.623,3.775,2.434,5.911,2.434c2.162,0,4.323-0.83,5.967-2.486
				c3.263-3.293,3.242-8.613-0.053-11.879C42.973,78.913,40.836,78.104,38.7,78.104L38.7,78.104z"/>
		</g>
	</g>
	<g>
		<g>
			<path fill="#FFFFFF" d="M62.754,44.394c-4.079,4.115-10.726,4.146-14.843,0.063c-4.122-4.077-4.147-10.728-0.068-14.849
				c4.082-4.115,10.73-4.146,14.845-0.064C66.813,33.622,66.84,40.273,62.754,44.394z"/>
		</g>
		<g>
			<path d="M61.267,42.913c-3.267,3.293-8.581,3.319-11.878,0.053c-3.297-3.263-3.318-8.58-0.055-11.875
				c3.269-3.295,8.581-3.318,11.88-0.057C64.509,34.3,64.529,39.62,61.267,42.913z"/>
			<path d="M55.302,32.604L55.302,32.604c1.167,0,2.269,0.453,3.097,1.271c1.723,1.708,1.734,4.499,0.028,6.221
				c-0.834,0.84-1.944,1.303-3.127,1.303c-1.166,0-2.266-0.453-3.098-1.277c-0.834-0.825-1.296-1.926-1.301-3.1
				c-0.006-1.175,0.447-2.282,1.272-3.115C53.008,33.067,54.119,32.604,55.302,32.604 M55.302,28.604
				c-2.162,0-4.323,0.83-5.968,2.487c-3.264,3.295-3.242,8.612,0.055,11.875c1.639,1.624,3.775,2.434,5.911,2.434
				c2.162,0,4.323-0.83,5.967-2.486c3.263-3.293,3.242-8.613-0.053-11.879C59.574,29.413,57.438,28.604,55.302,28.604L55.302,28.604
				z"/>
		</g>
	</g>
	<g>
		<g>
			<path fill="#FFFFFF" d="M94.154,83.393c-4.079,4.115-10.726,4.146-14.843,0.063c-4.122-4.077-4.147-10.728-0.068-14.849
				c4.082-4.115,10.73-4.146,14.845-0.064C98.214,72.621,98.24,79.272,94.154,83.393z"/>
		</g>
		<g>
			<path d="M92.667,81.912c-3.267,3.293-8.581,3.319-11.878,0.053c-3.297-3.263-3.318-8.58-0.055-11.875
				c3.269-3.295,8.581-3.318,11.88-0.057C95.909,73.299,95.93,78.619,92.667,81.912z"/>
			<path d="M86.702,71.603L86.702,71.603c1.167,0,2.269,0.453,3.097,1.271c1.723,1.708,1.734,4.499,0.028,6.221
				c-0.834,0.841-1.944,1.304-3.127,1.304c-1.166,0-2.266-0.453-3.098-1.276c-0.834-0.825-1.296-1.927-1.301-3.101
				c-0.006-1.175,0.447-2.281,1.272-3.114C84.408,72.065,85.52,71.603,86.702,71.603 M86.702,67.603
				c-2.162,0-4.323,0.83-5.968,2.487c-3.264,3.295-3.242,8.612,0.055,11.875c1.639,1.623,3.775,2.434,5.911,2.434
				c2.162,0,4.323-0.83,5.967-2.486c3.263-3.293,3.242-8.613-0.053-11.879C90.975,68.412,88.838,67.603,86.702,67.603L86.702,67.603
				z"/>
		</g>
	</g>
	<g>
		<g>
			<path fill="#FFFFFF" d="M92.154,32.692c-4.079,4.115-10.726,4.146-14.843,0.063c-4.122-4.077-4.147-10.728-0.068-14.849
				c4.082-4.115,10.73-4.146,14.845-0.064C96.214,21.921,96.24,28.572,92.154,32.692z"/>
		</g>
		<g>
			<path d="M90.667,31.212c-3.267,3.293-8.581,3.319-11.878,0.053c-3.297-3.263-3.318-8.58-0.055-11.875
				c3.269-3.295,8.581-3.318,11.88-0.057C93.909,22.599,93.93,27.919,90.667,31.212z"/>
			<path d="M84.702,20.902L84.702,20.902c1.167,0,2.269,0.453,3.097,1.271c1.723,1.708,1.734,4.499,0.028,6.221
				c-0.834,0.84-1.944,1.303-3.127,1.303c-1.166,0-2.266-0.453-3.098-1.277c-0.834-0.825-1.296-1.926-1.301-3.1
				c-0.006-1.175,0.447-2.282,1.272-3.115C82.408,21.366,83.52,20.902,84.702,20.902 M84.702,16.902
				c-2.162,0-4.323,0.83-5.968,2.487c-3.264,3.295-3.242,8.612,0.055,11.875c1.639,1.624,3.775,2.434,5.911,2.434
				c2.162,0,4.323-0.83,5.967-2.486c3.263-3.293,3.242-8.613-0.053-11.879C88.975,17.712,86.838,16.902,84.702,16.902L84.702,16.902
				z"/>
		</g>
	</g>
</g>
</svg>
