<?xml version="1.0" encoding="utf-8"?>
<!-- Generator: Adobe Illustrator 16.0.0, SVG Export Plug-In . SVG Version: 6.00 Build 0)  -->
<!DOCTYPE svg PUBLIC "-//W3C//DTD SVG 1.1//EN" "http://www.w3.org/Graphics/SVG/1.1/DTD/svg11.dtd">
<svg version="1.1" xmlns="http://www.w3.org/2000/svg" xmlns:xlink="http://www.w3.org/1999/xlink" x="0px" y="0px" width="100px"
	 height="100px" viewBox="0 0 100 100" enable-background="new 0 0 100 100" xml:space="preserve">
<g id="Layer_3" display="none">
</g>
<g id="Your_Icon">
</g>
<g id="Layer_4">
	<path d="M49.974,22c9.326,0,18.441,4.655,23.757,13.143c8.202,13.101,4.232,30.38-8.87,38.586C60.241,76.62,55.104,78,50.029,78
		c-9.326,0-18.442-4.656-23.754-13.138c-8.21-13.108-4.236-30.383,8.866-38.59C39.759,23.381,44.898,22.001,49.974,22 M49.976,18v4
		V18h-0.003c-5.993,0.001-11.855,1.689-16.956,4.882C18.065,32.248,13.52,52.033,22.884,66.985C28.772,76.387,38.92,82,50.029,82
		c5.992,0,11.854-1.688,16.954-4.881c14.952-9.364,19.5-29.147,10.138-44.1C71.23,23.615,61.083,18,49.976,18L49.976,18z"/>
	<rect x="32" y="81.789" width="4" height="14.723"/>
	<g>
		<path d="M18.262,28.492c0,0-1.174-1.177-2.65-2.652c-2.746-2.746-2.813-7.157-0.198-9.985c0.064-0.069,1.154-1.155,1.223-1.224
			s1.156-1.154,1.227-1.22c2.828-2.612,7.24-2.547,9.989,0.199c1.146,1.148,2.648,2.651,2.648,2.651L18.262,28.492z"/>
		<path d="M18.262,30.492C18.261,30.492,18.261,30.492,18.262,30.492c-0.532,0-1.041-0.212-1.416-0.588l-2.648-2.649
			c-3.511-3.512-3.622-9.115-0.253-12.758c0.06-0.065,0.873-0.878,1.175-1.18l0.102-0.101c0.071-0.071,1.205-1.202,1.278-1.27
			c1.71-1.58,3.929-2.447,6.253-2.447c2.459,0,4.771,0.957,6.512,2.695l2.649,2.652c0.781,0.781,0.78,2.048-0.001,2.829
			l-12.238,12.23C19.3,30.281,18.792,30.492,18.262,30.492z M22.753,13.5c-1.315,0-2.57,0.49-3.534,1.38
			c-0.105,0.103-1.104,1.101-1.169,1.165l-0.105,0.105c-0.271,0.27-0.98,0.978-1.085,1.085c-1.883,2.036-1.82,5.205,0.166,7.19
			l1.237,1.238l9.409-9.403l-1.236-1.237C25.454,14.042,24.145,13.5,22.753,13.5z"/>
	</g>
	<rect x="64" y="82.389" width="4" height="14.611"/>
	<g>
		<path d="M81.738,28.492c0,0,1.174-1.177,2.65-2.652c2.746-2.746,2.813-7.157,0.198-9.985c-0.064-0.069-1.154-1.155-1.223-1.224
			s-1.156-1.154-1.227-1.22c-2.828-2.612-7.24-2.547-9.989,0.199c-1.146,1.148-2.648,2.651-2.648,2.651L81.738,28.492z"/>
		<path d="M81.738,30.492c-0.53,0-1.039-0.211-1.414-0.585l-12.238-12.23c-0.781-0.781-0.782-2.048-0.001-2.829l2.647-2.65
			c1.742-1.74,4.055-2.697,6.514-2.697c2.325,0,4.543,0.867,6.248,2.442c0.079,0.072,1.212,1.203,1.284,1.274l0.102,0.101
			c0.302,0.302,1.115,1.114,1.172,1.176c3.373,3.646,3.262,9.25-0.249,12.761l-2.648,2.65c-0.375,0.376-0.884,0.588-1.415,0.588
			H81.738z M72.328,16.261l9.409,9.403l1.238-1.239c1.985-1.984,2.048-5.153,0.144-7.213c-0.083-0.084-0.793-0.792-1.063-1.062
			l-0.105-0.105c-0.065-0.064-1.064-1.062-1.191-1.186c-0.942-0.869-2.197-1.359-3.512-1.359c-1.392,0-2.7,0.542-3.685,1.525
			L72.328,16.261z"/>
	</g>
	<path d="M62.498,55.452l-13-0.014c-0.531-0.001-1.039-0.212-1.414-0.587c-0.375-0.376-0.584-0.885-0.584-1.415l0.023-19.438
		l4,0.004L51.502,51.44l11,0.012L62.498,55.452z"/>
</g>
</svg>
