<?xml version="1.0" encoding="utf-8"?>
<!-- Generator: Adobe Illustrator 16.0.0, SVG Export Plug-In . SVG Version: 6.00 Build 0)  -->
<!DOCTYPE svg PUBLIC "-//W3C//DTD SVG 1.1//EN" "http://www.w3.org/Graphics/SVG/1.1/DTD/svg11.dtd">
<svg version="1.1" xmlns="http://www.w3.org/2000/svg" xmlns:xlink="http://www.w3.org/1999/xlink" x="0px" y="0px" width="100px"
	 height="100px" viewBox="0 0 100 100" enable-background="new 0 0 100 100" xml:space="preserve">
<g id="Layer_3" display="none">
</g>
<g id="Your_Icon">
</g>
<g id="Layer_4">
	<path d="M28.76,89.284c-3.519,0-7.042-1.283-9.835-3.864c-0.098-0.091-1.108-1.103-1.725-1.722l-0.447-0.448
		c-0.128-0.128-2.063-2.071-2.177-2.195c-5.299-5.734-5.124-14.558,0.404-20.084l13.082-13.082l2.828,2.828L17.808,63.798
		c-4.003,4.002-4.131,10.391-0.292,14.545c0.177,0.186,1.944,1.958,2.059,2.072l0.457,0.458c0.571,0.573,1.495,1.499,1.627,1.627
		c4.134,3.821,10.524,3.692,14.527-0.311L49.269,69.11l2.828,2.829l-13.082,13.08C36.177,87.856,32.471,89.284,28.76,89.284z"/>
	<rect x="48.01" y="30.983" transform="matrix(0.7071 0.7071 -0.7071 0.7071 49.9908 -20.7226)" width="4" height="38"/>
	<path d="M71.939,52.097l-2.829-2.828l13.082-13.083c4.002-4.002,4.13-10.392,0.291-14.544c-0.156-0.164-1.359-1.36-1.854-1.853
		l-0.213-0.212c-0.114-0.114-1.868-1.866-2.077-2.064c-4.148-3.835-10.537-3.708-14.54,0.296L50.716,30.89l-2.828-2.828L60.97,14.98
		c5.528-5.529,14.352-5.705,20.088-0.4c0.167,0.151,2.103,2.086,2.185,2.169l0.207,0.206c1.722,1.714,1.907,1.904,1.981,1.985
		c5.292,5.723,5.117,14.547-0.411,20.075L71.939,52.097z"/>
</g>
</svg>
