<?xml version="1.0" encoding="utf-8"?>
<!-- Generator: Adobe Illustrator 16.0.0, SVG Export Plug-In . SVG Version: 6.00 Build 0)  -->
<!DOCTYPE svg PUBLIC "-//W3C//DTD SVG 1.1//EN" "http://www.w3.org/Graphics/SVG/1.1/DTD/svg11.dtd">
<svg version="1.1" xmlns="http://www.w3.org/2000/svg" xmlns:xlink="http://www.w3.org/1999/xlink" x="0px" y="0px" width="100px"
	 height="100px" viewBox="0 0 100 100" enable-background="new 0 0 100 100" xml:space="preserve">
<g id="Layer_3" display="none">
</g>
<g id="Your_Icon">
</g>
<g id="Layer_4">
	<path d="M75.053,70.328l-2.795-2.861L90.138,50l-17.88-17.467l2.795-2.861l19.345,18.897C94.783,48.946,95,49.461,95,50
		s-0.217,1.054-0.603,1.431L75.053,70.328z"/>
	<path d="M25.747,70.328L6.402,51.431C6.017,51.054,5.8,50.539,5.8,50s0.217-1.054,0.603-1.431l19.345-18.897l2.795,2.861L10.662,50
		l17.88,17.467L25.747,70.328z"/>
	<rect x="48" y="17.122" transform="matrix(0.9659 0.259 -0.259 0.9659 14.659 -11.2455)" width="4" height="65.757"/>
</g>
</svg>
