<?xml version="1.0" encoding="utf-8"?>
<!-- Generator: Adobe Illustrator 16.0.0, SVG Export Plug-In . SVG Version: 6.00 Build 0)  -->
<!DOCTYPE svg PUBLIC "-//W3C//DTD SVG 1.1//EN" "http://www.w3.org/Graphics/SVG/1.1/DTD/svg11.dtd">
<svg version="1.1" xmlns="http://www.w3.org/2000/svg" xmlns:xlink="http://www.w3.org/1999/xlink" x="0px" y="0px" width="100px"
	 height="100px" viewBox="0 0 100 100" enable-background="new 0 0 100 100" xml:space="preserve">
<g id="Layer_3" display="none">
</g>
<g id="Your_Icon">
</g>
<g id="Layer_4">
	<path d="M62,96.7h-4V57.8c0-4.412-3.589-8.001-8-8.001s-8,3.589-8,8.001v38.9h-4V57.8c0-6.617,5.383-12.001,12-12.001
		S62,51.183,62,57.8V96.7z"/>
	<g>
		<path d="M49,4.946c-5.514,0-10,4.487-10,10.003c0,5.512,4.486,9.997,10,9.997s10-4.485,10-9.997C59,9.433,54.514,4.946,49,4.946z
			 M49,20.946c-3.311,0-6-2.69-6-5.997c0-3.312,2.689-6.003,6-6.003s6,2.69,6,6.003C55,18.255,52.311,20.946,49,20.946z"/>
	</g>
	<path d="M48.7,35.346c-16.542,0-30-14.42-30-32.146h4c0,15.52,11.663,28.146,26,28.146s26-12.626,26-28.146h4
		C78.7,20.925,65.242,35.346,48.7,35.346z"/>
</g>
</svg>
