<?xml version="1.0" encoding="utf-8"?>
<!-- Generator: Adobe Illustrator 16.0.0, SVG Export Plug-In . SVG Version: 6.00 Build 0)  -->
<!DOCTYPE svg PUBLIC "-//W3C//DTD SVG 1.1//EN" "http://www.w3.org/Graphics/SVG/1.1/DTD/svg11.dtd">
<svg version="1.1" xmlns="http://www.w3.org/2000/svg" xmlns:xlink="http://www.w3.org/1999/xlink" x="0px" y="0px" width="100px"
	 height="100px" viewBox="0 0 100 100" enable-background="new 0 0 100 100" xml:space="preserve">
<g id="Layer_3" display="none">
</g>
<g id="Your_Icon">
</g>
<g id="Layer_4">
	<g>
		<g>
			<path d="M49.875,23c-6.617,0-12,5.383-12,12s5.383,12,12,12s12-5.383,12-12S56.492,23,49.875,23z M49.875,43
				c-4.418,0-8-3.581-8-8s3.582-8,8-8c4.419,0,8,3.581,8,8S54.294,43,49.875,43z"/>
		</g>
		<g>
			<path d="M49.875,2c-17.645,0-32,15.252-32,34c0,17.318,25.773,55.034,28.711,59.277C47.334,96.356,48.562,97,49.875,97
				s2.541-0.644,3.289-1.723C56.102,91.034,81.875,53.318,81.875,36C81.875,17.252,67.52,2,49.875,2z M49.875,93
				c0,0-28-40.432-28-57c0-16.569,12.535-30,28-30s28,13.431,28,30C77.875,52.568,49.875,93,49.875,93z"/>
		</g>
	</g>
</g>
</svg>
