<?xml version="1.0" encoding="utf-8"?>
<!-- Generator: Adobe Illustrator 16.0.0, SVG Export Plug-In . SVG Version: 6.00 Build 0)  -->
<!DOCTYPE svg PUBLIC "-//W3C//DTD SVG 1.1//EN" "http://www.w3.org/Graphics/SVG/1.1/DTD/svg11.dtd">
<svg version="1.1" xmlns="http://www.w3.org/2000/svg" xmlns:xlink="http://www.w3.org/1999/xlink" x="0px" y="0px" width="100px"
	 height="100px" viewBox="0 0 100 100" enable-background="new 0 0 100 100" xml:space="preserve">
<g id="Layer_3" display="none">
</g>
<g id="Your_Icon">
</g>
<g id="Layer_4">
	<g>
		<path fill="#FFFFFF" d="M23.498,69.079C7.632,68.981,1.792,45.053,8.1,44.964c6.963-0.098,23.663,0,29.763,0
			C44.008,44.964,38.881,69.174,23.498,69.079z"/>
		<path d="M23.588,71.079c-0.004,0-0.098,0-0.103,0C10.489,70.999,3.635,56.823,3.604,49.246c-0.018-4.585,2.296-6.251,4.467-6.282
			c5.001-0.069,15.012-0.04,22.528-0.017c2.963,0.009,5.537,0.017,7.263,0.017c2.191,0,4.534,1.711,4.534,6.514
			C42.396,57.23,36.111,71.079,23.588,71.079z M17.555,46.921c-3.72,0-7.113,0.011-9.427,0.043
			c-0.462,0.294-0.993,2.759,0.271,6.817c1.901,6.103,7,13.248,15.112,13.298l0.077,2v-2c7.265,0,11.918-6.329,13.851-12.252
			c1.515-4.641,0.909-7.516,0.414-7.878c-1.721,0.016-4.298,0.006-7.265-0.002C26.573,46.935,21.847,46.921,17.555,46.921z"/>
	</g>
	<path d="M9.011,45.441l-3.652-1.631l8.315-18.626C13.995,24.464,14.711,24,15.5,24h14v4H16.798L9.011,45.441z"/>
	<g>
		<path fill="#FFFFFF" d="M76.502,69.079C92.368,68.981,98.208,45.053,91.9,44.964c-6.963-0.098-23.663,0-29.763,0
			C55.992,44.964,61.119,69.174,76.502,69.079z"/>
		<path d="M76.412,71.079c-12.523,0-18.809-13.849-18.809-21.602c0-4.803,2.343-6.514,4.534-6.514c1.726,0,4.3-0.008,7.263-0.017
			c7.517-0.023,17.528-0.053,22.528,0.017c2.171,0.031,4.484,1.697,4.467,6.282c-0.03,7.577-6.885,21.753-19.881,21.833
			C76.51,71.079,76.416,71.079,76.412,71.079z M82.445,46.921c-4.292,0-9.019,0.014-13.033,0.026
			c-2.967,0.009-5.546,0.017-7.274,0.017c-0.485,0.348-1.091,3.223,0.424,7.863c1.933,5.923,6.586,12.252,13.851,12.252v2l0.077-2
			c8.112-0.05,13.211-7.195,15.112-13.298c1.264-4.059,0.732-6.523,0.308-6.819C89.559,46.932,86.165,46.921,82.445,46.921z"/>
	</g>
	<path d="M90.808,46.364L84.102,28H71.5v-4h14c0.84,0,1.591,0.525,1.879,1.313l7.186,19.679L90.808,46.364z"/>
	<rect x="38.5" y="43" width="27.5" height="4"/>
</g>
</svg>
