<?xml version="1.0" encoding="utf-8"?>
<!-- Generator: Adobe Illustrator 16.0.0, SVG Export Plug-In . SVG Version: 6.00 Build 0)  -->
<!DOCTYPE svg PUBLIC "-//W3C//DTD SVG 1.1//EN" "http://www.w3.org/Graphics/SVG/1.1/DTD/svg11.dtd">
<svg version="1.1" xmlns="http://www.w3.org/2000/svg" xmlns:xlink="http://www.w3.org/1999/xlink" x="0px" y="0px" width="100px"
	 height="100px" viewBox="0 0 100 100" enable-background="new 0 0 100 100" xml:space="preserve">
<g id="Layer_3" display="none">
</g>
<g id="Your_Icon">
</g>
<g id="Layer_4">
	<g>
		<path d="M79.381,28.25L57,6.764v0.011l-0.648-0.634C55.604,5.409,54.6,5,53.555,5H23.332C21.123,5,19,6.291,19,8.5v83
			c0,2.209,2.123,4.5,4.332,4.5h53.336C78.877,96,81,93.709,81,91.5V31.109C81,30.033,80.15,29.002,79.381,28.25z M57,12.359
			L71.956,27H57V12.359z M77,92H23V9h30v19.5c0,1.104,1.396,2.5,2.5,2.5h20.545L77,31.109V92z"/>
	</g>
</g>
</svg>
