<?xml version="1.0" encoding="utf-8"?>
<!-- Generator: Adobe Illustrator 16.0.0, SVG Export Plug-In . SVG Version: 6.00 Build 0)  -->
<!DOCTYPE svg PUBLIC "-//W3C//DTD SVG 1.1//EN" "http://www.w3.org/Graphics/SVG/1.1/DTD/svg11.dtd">
<svg version="1.1" xmlns="http://www.w3.org/2000/svg" xmlns:xlink="http://www.w3.org/1999/xlink" x="0px" y="0px" width="100px"
	 height="100px" viewBox="0 0 100 100" enable-background="new 0 0 100 100" xml:space="preserve">
<g id="Layer_3" display="none">
	<g display="inline" opacity="0.39">
		<line opacity="0.3" fill="none" stroke="#699CD1" enable-background="new    " x1="2.325" y1="-1" x2="2.325" y2="99"/>
		<line fill="none" stroke="#699CD1" x1="5.45" y1="-1" x2="5.45" y2="99"/>
		<line opacity="0.3" fill="none" stroke="#699CD1" enable-background="new    " x1="8.575" y1="-1" x2="8.575" y2="99"/>
		<line fill="none" stroke="#699CD1" x1="11.7" y1="-1" x2="11.7" y2="99"/>
		<line opacity="0.3" fill="none" stroke="#699CD1" enable-background="new    " x1="14.825" y1="-1" x2="14.825" y2="99"/>
		<line fill="none" stroke="#699CD1" x1="17.95" y1="-1" x2="17.95" y2="99"/>
		<line opacity="0.3" fill="none" stroke="#699CD1" enable-background="new    " x1="21.075" y1="-1" x2="21.075" y2="99"/>
		<line fill="none" stroke="#699CD1" x1="24.2" y1="-1" x2="24.2" y2="99"/>
		<line opacity="0.3" fill="none" stroke="#699CD1" enable-background="new    " x1="27.325" y1="-1" x2="27.325" y2="99"/>
		<line fill="none" stroke="#699CD1" x1="30.45" y1="-1" x2="30.45" y2="99"/>
		<line opacity="0.3" fill="none" stroke="#699CD1" enable-background="new    " x1="33.575" y1="-1" x2="33.575" y2="99"/>
		<line fill="none" stroke="#699CD1" x1="36.7" y1="-1" x2="36.7" y2="99"/>
		<line opacity="0.3" fill="none" stroke="#699CD1" enable-background="new    " x1="39.825" y1="-1" x2="39.825" y2="99"/>
		<line fill="none" stroke="#699CD1" x1="42.95" y1="-1" x2="42.95" y2="99"/>
		<line opacity="0.3" fill="none" stroke="#699CD1" enable-background="new    " x1="46.075" y1="-1" x2="46.075" y2="99"/>
		<line fill="none" stroke="#699CD1" x1="49.2" y1="-1" x2="49.2" y2="99"/>
		<line opacity="0.3" fill="none" stroke="#699CD1" enable-background="new    " x1="52.325" y1="-1" x2="52.325" y2="99"/>
		<line fill="none" stroke="#699CD1" x1="55.45" y1="-1" x2="55.45" y2="99"/>
		<line opacity="0.3" fill="none" stroke="#699CD1" enable-background="new    " x1="58.575" y1="-1" x2="58.575" y2="99"/>
		<line fill="none" stroke="#699CD1" x1="61.7" y1="-1" x2="61.7" y2="99"/>
		<line opacity="0.3" fill="none" stroke="#699CD1" enable-background="new    " x1="64.825" y1="-1" x2="64.825" y2="99"/>
		<line fill="none" stroke="#699CD1" x1="67.95" y1="-1" x2="67.95" y2="99"/>
		<line opacity="0.3" fill="none" stroke="#699CD1" enable-background="new    " x1="71.075" y1="-1" x2="71.075" y2="99"/>
		<line fill="none" stroke="#699CD1" x1="74.2" y1="-1" x2="74.2" y2="99"/>
		<line opacity="0.3" fill="none" stroke="#699CD1" enable-background="new    " x1="77.325" y1="-1" x2="77.325" y2="99"/>
		<line fill="none" stroke="#699CD1" x1="80.45" y1="-1" x2="80.45" y2="99"/>
		<line opacity="0.3" fill="none" stroke="#699CD1" enable-background="new    " x1="83.575" y1="-1" x2="83.575" y2="99"/>
		<line fill="none" stroke="#699CD1" x1="86.7" y1="-1" x2="86.7" y2="99"/>
		<line opacity="0.3" fill="none" stroke="#699CD1" enable-background="new    " x1="89.825" y1="-1" x2="89.825" y2="99"/>
		<line fill="none" stroke="#699CD1" x1="92.95" y1="-1" x2="92.95" y2="99"/>
		<line opacity="0.3" fill="none" stroke="#699CD1" enable-background="new    " x1="96.075" y1="-1" x2="96.075" y2="99"/>
		<line opacity="0.3" fill="none" stroke="#699CD1" enable-background="new    " x1="-0.8" y1="2.125" x2="99.2" y2="2.125"/>
		<line fill="none" stroke="#699CD1" x1="-0.8" y1="5.25" x2="99.2" y2="5.25"/>
		<line opacity="0.3" fill="none" stroke="#699CD1" enable-background="new    " x1="-0.8" y1="8.375" x2="99.2" y2="8.375"/>
		<line fill="none" stroke="#699CD1" x1="-0.8" y1="11.5" x2="99.2" y2="11.5"/>
		<line opacity="0.3" fill="none" stroke="#699CD1" enable-background="new    " x1="-0.8" y1="14.625" x2="99.2" y2="14.625"/>
		<line fill="none" stroke="#699CD1" x1="-0.8" y1="17.75" x2="99.2" y2="17.75"/>
		<line opacity="0.3" fill="none" stroke="#699CD1" enable-background="new    " x1="-0.8" y1="20.875" x2="99.2" y2="20.875"/>
		<line fill="none" stroke="#699CD1" x1="-0.8" y1="24" x2="99.2" y2="24"/>
		<line opacity="0.3" fill="none" stroke="#699CD1" enable-background="new    " x1="-0.8" y1="27.125" x2="99.2" y2="27.125"/>
		<line fill="none" stroke="#699CD1" x1="-0.8" y1="30.25" x2="99.2" y2="30.25"/>
		<line opacity="0.3" fill="none" stroke="#699CD1" enable-background="new    " x1="-0.8" y1="33.375" x2="99.2" y2="33.375"/>
		<line fill="none" stroke="#699CD1" x1="-0.8" y1="36.5" x2="99.2" y2="36.5"/>
		<line opacity="0.3" fill="none" stroke="#699CD1" enable-background="new    " x1="-0.8" y1="39.625" x2="99.2" y2="39.625"/>
		<line fill="none" stroke="#699CD1" x1="-0.8" y1="42.75" x2="99.2" y2="42.75"/>
		<line opacity="0.3" fill="none" stroke="#699CD1" enable-background="new    " x1="-0.8" y1="45.875" x2="99.2" y2="45.875"/>
		<line fill="none" stroke="#699CD1" x1="-0.8" y1="49" x2="99.2" y2="49"/>
		<line opacity="0.3" fill="none" stroke="#699CD1" enable-background="new    " x1="-0.8" y1="52.125" x2="99.2" y2="52.125"/>
		<line fill="none" stroke="#699CD1" x1="-0.8" y1="55.25" x2="99.2" y2="55.25"/>
		<line opacity="0.3" fill="none" stroke="#699CD1" enable-background="new    " x1="-0.8" y1="58.375" x2="99.2" y2="58.375"/>
		<line fill="none" stroke="#699CD1" x1="-0.8" y1="61.5" x2="99.2" y2="61.5"/>
		<line opacity="0.3" fill="none" stroke="#699CD1" enable-background="new    " x1="-0.8" y1="64.625" x2="99.2" y2="64.625"/>
		<line fill="none" stroke="#699CD1" x1="-0.8" y1="67.75" x2="99.2" y2="67.75"/>
		<line opacity="0.3" fill="none" stroke="#699CD1" enable-background="new    " x1="-0.8" y1="70.875" x2="99.2" y2="70.875"/>
		<line fill="none" stroke="#699CD1" x1="-0.8" y1="74" x2="99.2" y2="74"/>
		<line opacity="0.3" fill="none" stroke="#699CD1" enable-background="new    " x1="-0.8" y1="77.125" x2="99.2" y2="77.125"/>
		<line fill="none" stroke="#699CD1" x1="-0.8" y1="80.25" x2="99.2" y2="80.25"/>
		<line opacity="0.3" fill="none" stroke="#699CD1" enable-background="new    " x1="-0.8" y1="83.375" x2="99.2" y2="83.375"/>
		<line fill="none" stroke="#699CD1" x1="-0.8" y1="86.5" x2="99.2" y2="86.5"/>
		<line opacity="0.3" fill="none" stroke="#699CD1" enable-background="new    " x1="-0.8" y1="89.625" x2="99.2" y2="89.625"/>
		<line fill="none" stroke="#699CD1" x1="-0.8" y1="92.75" x2="99.2" y2="92.75"/>
		<line opacity="0.3" fill="none" stroke="#699CD1" enable-background="new    " x1="-0.8" y1="95.875" x2="99.2" y2="95.875"/>
	</g>
	<rect x="19" display="inline" opacity="0.78" fill="none" stroke="#000000" stroke-miterlimit="10" width="62" height="100"/>
	<rect display="inline" opacity="0.78" fill="none" stroke="#000000" stroke-miterlimit="10" width="100" height="100"/>
	<g display="inline" opacity="0.78">
		<path fill="none" stroke="#000000" stroke-miterlimit="10" d="M50,40c-5.52,0-10,4.477-10,10s4.48,10,10,10
			c5.523,0,10-4.477,10-10S55.523,40,50,40z"/>
		<path fill="none" stroke="#000000" stroke-miterlimit="10" d="M50,30c-11.028,0-20,8.972-20,20s8.972,20,20,20s20-8.972,20-20
			S61.028,30,50,30L50,30z"/>
	</g>
	<g display="inline" opacity="0.78">
		<path fill="none" stroke="#000000" stroke-miterlimit="10" d="M50,19c17.123,0,31,13.876,31,31c0,17.115-13.877,31-31,31
			S19,67.115,19,50C19,32.876,32.877,19,50,19 M50,10c-22.056,0-40,17.944-40,40s17.944,40,40,40s40-17.944,40-40S72.056,10,50,10
			L50,10z"/>
	</g>
</g>
<g id="Your_Icon">
</g>
<g id="Layer_4">
	<g>
		<path d="M92,14H8c-2.209,0-4,1.791-4,4v74c0,2.209,1.791,4,4,4h84c2.209,0,4-1.791,4-4V18C96,15.791,94.209,14,92,14z M92,92H8
			V38.392c11.009,8.017,34.669,24.852,39.587,25.129c0.377,0.021,0.857,0.029,1.374,0.029c0.533,0,1.104-0.008,1.638-0.015
			c0.421-0.005,0.806-0.011,1.102-0.011c4.718,0,29.066-16.656,40.3-24.522V92z M92,34.113C74.409,46.517,54.73,59.277,51.7,59.525
			c-0.31,0-0.714,0.005-1.154,0.011c-0.939,0.012-2.105,0.027-2.728-0.008C44.752,59.245,25.328,46.146,8,33.437V18h84V34.113z"/>
	</g>
</g>
</svg>
