<?xml version="1.0" encoding="utf-8"?>
<!-- Generator: Adobe Illustrator 16.0.0, SVG Export Plug-In . SVG Version: 6.00 Build 0)  -->
<!DOCTYPE svg PUBLIC "-//W3C//DTD SVG 1.1//EN" "http://www.w3.org/Graphics/SVG/1.1/DTD/svg11.dtd">
<svg version="1.1" xmlns="http://www.w3.org/2000/svg" xmlns:xlink="http://www.w3.org/1999/xlink" x="0px" y="0px" width="100px"
	 height="100px" viewBox="0 0 100 100" enable-background="new 0 0 100 100" xml:space="preserve">
<g id="Layer_3" display="none">
</g>
<g id="Your_Icon">
</g>
<g id="Layer_4">
	<path d="M5,99.801c-0.53,0-1.039-0.211-1.414-0.585C3.211,98.841,3,98.331,3,97.801V35.5c0-1.104,0.896-2,2-2h90
		c1.104,0,2,0.896,2,2v62.222c0,1.104-0.895,1.999-1.998,2l-90,0.079C5.001,99.801,5,99.801,5,99.801z M7,37.5v58.299l86-0.075V37.5
		H7z"/>
	<path d="M69.5,32.1h-4v-2.828c0-5.183-3.355-9.771-7.977-10.912c-0.574-0.101-4.25-0.225-7.302-0.275
		c-2.923,0.035-6.333,0.115-6.882,0.19c-5.02,0.983-8.839,5.714-8.839,10.997V32.1h-4v-2.828c0-7.16,5.208-13.579,12.116-14.931
		c0.757-0.147,4.559-0.221,7.615-0.257c3.292,0.055,7.34,0.167,8.251,0.393c6.486,1.6,11.017,7.685,11.017,14.795V32.1z"/>
</g>
</svg>
