<?xml version="1.0" encoding="utf-8"?>
<!-- Generator: Adobe Illustrator 16.0.0, SVG Export Plug-In . SVG Version: 6.00 Build 0)  -->
<!DOCTYPE svg PUBLIC "-//W3C//DTD SVG 1.1//EN" "http://www.w3.org/Graphics/SVG/1.1/DTD/svg11.dtd">
<svg version="1.1" xmlns="http://www.w3.org/2000/svg" xmlns:xlink="http://www.w3.org/1999/xlink" x="0px" y="0px" width="100px"
	 height="100px" viewBox="0 0 100 100" enable-background="new 0 0 100 100" xml:space="preserve">
<g id="Layer_3" display="none">
</g>
<g id="Your_Icon">
</g>
<g id="Layer_4">
	<g>
		<polygon fill="#FFFFFF" points="91.8,22.896 91.8,92.213 7.8,92.3 7.8,22.896 		"/>
		<path d="M91.8,22.896v69.317L7.8,92.3V22.896H91.8 M91.8,18.896h-84c-2.209,0-4,1.791-4,4V92.3c0,1.062,0.422,2.079,1.173,2.83
			C5.723,95.879,6.74,96.3,7.8,96.3c0.001,0,0.003,0,0.003,0l84.001-0.087c2.208-0.002,3.996-1.793,3.996-4V22.896
			C95.8,20.687,94.009,18.896,91.8,18.896L91.8,18.896z"/>
	</g>
	<g>
		<polygon fill="#FFFFFF" points="39.832,80.771 67.832,57.985 39.832,35.2 		"/>
		<path d="M39.832,82.771c-0.292,0-0.585-0.063-0.858-0.193c-0.697-0.332-1.142-1.035-1.142-1.807V35.2
			c0-0.771,0.444-1.475,1.142-1.807c0.696-0.33,1.521-0.232,2.121,0.255l28,22.785c0.467,0.38,0.737,0.95,0.737,1.552
			s-0.271,1.172-0.737,1.552l-28,22.785C40.73,82.618,40.283,82.771,39.832,82.771z M41.832,39.406v37.158l22.831-18.579
			L41.832,39.406z"/>
	</g>
</g>
</svg>
