<?xml version="1.0" encoding="utf-8"?>
<!-- Generator: Adobe Illustrator 16.0.0, SVG Export Plug-In . SVG Version: 6.00 Build 0)  -->
<!DOCTYPE svg PUBLIC "-//W3C//DTD SVG 1.1//EN" "http://www.w3.org/Graphics/SVG/1.1/DTD/svg11.dtd">
<svg version="1.1" xmlns="http://www.w3.org/2000/svg" xmlns:xlink="http://www.w3.org/1999/xlink" x="0px" y="0px" width="100px"
	 height="100px" viewBox="0 0 100 100" enable-background="new 0 0 100 100" xml:space="preserve">
<g id="Layer_3" display="none">
</g>
<g id="Your_Icon">
</g>
<g id="Layer_4">
	<path d="M37.366,98h-7.32c-7.108,0-15.693-5.508-15.693-12.348c0-10.428-1.597-26.295-5.147-28.922L4.84,53.614
		c-0.525-0.376-0.837-0.982-0.837-1.628v-4.182c0-0.646,0.312-1.252,0.837-1.628l4.392-3.137c3.523-2.608,5.121-18.353,5.121-28.692
		C14.352,7.508,22.937,2,30.045,2h8.052v4h-8.052c-5.106,0-11.693,4.048-11.693,8.348c0,4.495-0.326,27.159-6.768,31.928
		l-3.582,2.559v2.123l3.554,2.538c6.469,4.787,6.795,27.627,6.795,32.157c0,4.3,6.587,8.348,11.693,8.348h7.32V98z"/>
	<path d="M69.955,98h-7.32v-4h7.32c5.106,0,11.693-4.048,11.693-8.348c0-4.53,0.326-27.37,6.77-32.137l3.58-2.559v-2.123
		l-3.553-2.539c-6.47-4.789-6.796-27.452-6.796-31.947c0-4.3-6.587-8.348-11.693-8.348h-8.051V2h8.051
		c7.108,0,15.693,5.508,15.693,12.348c0,10.34,1.598,26.084,5.149,28.713l4.363,3.117c0.525,0.375,0.837,0.981,0.837,1.627v4.182
		c0,0.646-0.312,1.252-0.837,1.627L90.77,56.75c-3.524,2.608-5.122,18.475-5.122,28.902C85.648,92.492,77.063,98,69.955,98z"/>
</g>
</svg>
