<?xml version="1.0" encoding="utf-8"?>
<!-- Generator: Adobe Illustrator 16.0.0, SVG Export Plug-In . SVG Version: 6.00 Build 0)  -->
<!DOCTYPE svg PUBLIC "-//W3C//DTD SVG 1.1//EN" "http://www.w3.org/Graphics/SVG/1.1/DTD/svg11.dtd">
<svg version="1.1" xmlns="http://www.w3.org/2000/svg" xmlns:xlink="http://www.w3.org/1999/xlink" x="0px" y="0px" width="100px"
	 height="100px" viewBox="0 0 100 100" enable-background="new 0 0 100 100" xml:space="preserve">
<g id="Layer_3" display="none">
</g>
<g id="Your_Icon">
</g>
<g id="Layer_4">
	<g>
		<path d="M97.887,22.379c-0.024-1.045-0.47-2.035-1.234-2.747L79.959,4.091c-0.745-0.694-1.695-1.04-2.644-1.04
			c-0.982,0-1.964,0.371-2.717,1.111L7.638,69.921c-0.548,0.538-0.924,1.227-1.08,1.979L2.28,92.505
			c-0.251,1.211,0.091,2.47,0.92,3.388c0.739,0.819,1.788,1.279,2.878,1.279c0.133,0,0.266-0.006,0.399-0.021l20.817-2.153
			c0.901-0.093,1.742-0.499,2.375-1.147l4.346-4.447l1.11-1.024l-0.053-0.058l61.71-63.141
			C97.514,24.434,97.911,23.424,97.887,22.379z M26.896,91.14L6.078,93.293l4.277-20.604l2.633-2.586l16.736,18.144L26.896,91.14z
			 M32.439,85.468L15.757,67.384l2.433-2.389l16.635,18.033L32.439,85.468z M37.539,80.25L20.958,62.276L77.315,6.929L94.01,22.471
			L37.539,80.25z"/>
	</g>
</g>
</svg>
