<?xml version="1.0" encoding="utf-8"?>
<!-- Generator: Adobe Illustrator 16.0.0, SVG Export Plug-In . SVG Version: 6.00 Build 0)  -->
<!DOCTYPE svg PUBLIC "-//W3C//DTD SVG 1.1//EN" "http://www.w3.org/Graphics/SVG/1.1/DTD/svg11.dtd">
<svg version="1.1" xmlns="http://www.w3.org/2000/svg" xmlns:xlink="http://www.w3.org/1999/xlink" x="0px" y="0px" width="100px"
	 height="100px" viewBox="0 0 100 100" enable-background="new 0 0 100 100" xml:space="preserve">
<g id="Layer_3" display="none">
</g>
<g id="Your_Icon">
</g>
<g id="Layer_4">
	<g>
		<path d="M71.329,65.671l-1.415,1.415L57.981,55.153C62.966,49.509,66,42.104,66,34C66,16.355,51.645,2,34,2S2,16.355,2,34
			s14.355,32,32,32c8.104,0,15.509-3.034,21.153-8.019l11.933,11.933l-1.415,1.415l24.5,24.5l5.657-5.657L71.329,65.671z M6,34
			C6,18.533,18.534,6,34,6s28,12.533,28,28c0,15.459-12.534,28-28,28S6,49.459,6,34z"/>
		<polygon points="36,22 32,22 32,32 22,32 22,36 32,36 32,46 36,46 36,36 46,36 46,32 36,32 		"/>
	</g>
</g>
</svg>
