<?xml version="1.0" encoding="utf-8"?>
<!-- Generator: Adobe Illustrator 16.0.0, SVG Export Plug-In . SVG Version: 6.00 Build 0)  -->
<!DOCTYPE svg PUBLIC "-//W3C//DTD SVG 1.1//EN" "http://www.w3.org/Graphics/SVG/1.1/DTD/svg11.dtd">
<svg version="1.1" xmlns="http://www.w3.org/2000/svg" xmlns:xlink="http://www.w3.org/1999/xlink" x="0px" y="0px" width="100px"
	 height="100px" viewBox="0 0 100 100" enable-background="new 0 0 100 100" xml:space="preserve">
<g id="Layer_3" display="none">
</g>
<g id="Your_Icon">
</g>
<g id="Layer_4">
	<rect x="5" y="18" width="91" height="16.5"/>
	<path d="M92,21.2v71.409l-84,0.09V21.2H92 M92,16.2H8c-2.762,0-5,2.238-5,5v71.499c0,1.327,0.527,2.6,1.467,3.537
		C5.404,97.173,6.675,97.699,8,97.699c0.002,0,0.004,0,0.005,0l84-0.09c2.76-0.003,4.995-2.24,4.995-5V21.2
		C97,18.438,94.762,16.2,92,16.2L92,16.2z"/>
	<g>
		<polygon fill="#FFFFFF" points="20,7 31.979,7 32,31.5 20,31.5 		"/>
		<path d="M32.02,34c-0.005,0.001-0.013,0.001-0.02,0H20c-1.381,0-2.5-1.119-2.5-2.5V7c0-1.381,1.119-2.5,2.5-2.5h11.979
			c1.38,0,2.499,1.118,2.5,2.498L34.5,31.181c0.013,0.104,0.02,0.211,0.02,0.319C34.52,32.881,33.4,34,32.02,34z M22.5,29h6.998
			L29.481,9.5H22.5V29z"/>
	</g>
	<g>
		<polygon fill="#FFFFFF" points="68,7 79.979,7 80,31.5 68,31.5 		"/>
		<path d="M80.02,34c-0.005,0.001-0.013,0.001-0.02,0H68c-1.381,0-2.5-1.119-2.5-2.5V7c0-1.381,1.119-2.5,2.5-2.5h11.979
			c1.38,0,2.499,1.118,2.5,2.498L82.5,31.181c0.013,0.104,0.02,0.211,0.02,0.319C82.52,32.881,81.4,34,80.02,34z M70.5,29h6.998
			L77.481,9.5H70.5V29z"/>
	</g>
	<g>
		<rect x="22" y="50" width="7" height="7"/>
		<path fill="#FFFFFF" d="M29,50v7h-7v-7H29 M33,46h-3.884h-7H18v4.116v7V61h4.116h7H33v-3.884v-7V46L33,46z"/>
	</g>
	<g>
		<rect x="34" y="50" width="7" height="7"/>
		<path fill="#FFFFFF" d="M41,50v7h-7v-7H41 M45,46h-3.83h-7H30v4.116v7V61h4.17h7H45v-3.884v-7V46L45,46z"/>
	</g>
	<g>
		<rect x="46" y="50" width="7" height="7"/>
		<path fill="#FFFFFF" d="M53,50v7h-7v-7H53 M57,46h-3.777h-7H42v4.116v7V61h4.223h7H57v-3.884v-7V46L57,46z"/>
	</g>
	<g>
		<rect x="58" y="50" width="7" height="7"/>
		<path fill="#FFFFFF" d="M65,50v7h-7v-7H65 M69,46h-3.723h-7H54v4.116v7V61h4.277h7H69v-3.884v-7V46L69,46z"/>
	</g>
	<g>
		<rect x="70" y="50" width="7" height="7"/>
		<path fill="#FFFFFF" d="M77,50v7h-7v-7H77 M81,46h-3.67h-7H66v4.116v7V61h4.33h7H81v-3.884v-7V46L81,46z"/>
	</g>
	<g>
		<rect x="22" y="61" width="7" height="7"/>
		<path fill="#FFFFFF" d="M29,61v7h-7v-7H29 M33,57h-3.884h-7H18v4.116v7V72h4.116h7H33v-3.884v-7V57L33,57z"/>
	</g>
	<g>
		<rect x="34" y="61" width="7" height="7"/>
		<path fill="#FFFFFF" d="M41,61v7h-7v-7H41 M45,57h-3.83h-7H30v4.116v7V72h4.17h7H45v-3.884v-7V57L45,57z"/>
	</g>
	<g>
		<rect x="46" y="61" width="7" height="7"/>
		<path fill="#FFFFFF" d="M53,61v7h-7v-7H53 M57,57h-3.777h-7H42v4.116v7V72h4.223h7H57v-3.884v-7V57L57,57z"/>
	</g>
	<g>
		<rect x="58" y="61" width="7" height="7"/>
		<path fill="#FFFFFF" d="M65,61v7h-7v-7H65 M69,57h-3.723h-7H54v4.116v7V72h4.277h7H69v-3.884v-7V57L69,57z"/>
	</g>
	<g>
		<rect x="70" y="61" width="7" height="7"/>
		<path fill="#FFFFFF" d="M77,61v7h-7v-7H77 M81,57h-3.67h-7H66v4.116v7V72h4.33h7H81v-3.884v-7V57L81,57z"/>
	</g>
	<g>
		<rect x="22" y="72" width="7" height="7"/>
		<path fill="#FFFFFF" d="M29,72v7h-7v-7H29 M33,68h-3.884h-7H18v4.116v7V83h4.116h7H33v-3.884v-7V68L33,68z"/>
	</g>
	<g>
		<rect x="34" y="72" width="7" height="7"/>
		<path fill="#FFFFFF" d="M41,72v7h-7v-7H41 M45,68h-3.83h-7H30v4.116v7V83h4.17h7H45v-3.884v-7V68L45,68z"/>
	</g>
	<g>
		<rect x="46" y="72" width="7" height="7"/>
		<path fill="#FFFFFF" d="M53,72v7h-7v-7H53 M57,68h-3.777h-7H42v4.116v7V83h4.223h7H57v-3.884v-7V68L57,68z"/>
	</g>
</g>
</svg>
