<?xml version="1.0" encoding="utf-8"?>
<!-- Generator: Adobe Illustrator 16.0.0, SVG Export Plug-In . SVG Version: 6.00 Build 0)  -->
<!DOCTYPE svg PUBLIC "-//W3C//DTD SVG 1.1//EN" "http://www.w3.org/Graphics/SVG/1.1/DTD/svg11.dtd">
<svg version="1.1" xmlns="http://www.w3.org/2000/svg" xmlns:xlink="http://www.w3.org/1999/xlink" x="0px" y="0px" width="100px"
	 height="100px" viewBox="0 0 100 100" enable-background="new 0 0 100 100" xml:space="preserve">
<g id="Layer_3" display="none">
</g>
<g id="Your_Icon">
</g>
<g id="Layer_4">
	<g>
		<rect y="94" width="100" height="4"/>
		<path d="M26,4c0-1.104-0.896-2-2-2H4C2.896,2,2,2.896,2,4v76c0,1.104,0.896,2,2,2h20c1.104,0,2-0.896,2-2V4z M6,6h16v72H6V6z"/>
		<path d="M62,29c0-1.104-0.896-2-2-2H40c-1.104,0-2,0.896-2,2v51c0,1.104,0.896,2,2,2h20c1.104,0,2-0.896,2-2V29z M42,31h16v47H42
			V31z"/>
		<path d="M98,57c0-1.104-0.896-2-2-2H76c-1.104,0-2,0.896-2,2v23c0,1.104,0.896,2,2,2h20c1.104,0,2-0.896,2-2V57z M78,59h16v19H78
			V59z"/>
	</g>
</g>
</svg>
