<?xml version="1.0" encoding="utf-8"?>
<!-- Generator: Adobe Illustrator 16.0.0, SVG Export Plug-In . SVG Version: 6.00 Build 0)  -->
<!DOCTYPE svg PUBLIC "-//W3C//DTD SVG 1.1//EN" "http://www.w3.org/Graphics/SVG/1.1/DTD/svg11.dtd">
<svg version="1.1" xmlns="http://www.w3.org/2000/svg" xmlns:xlink="http://www.w3.org/1999/xlink" x="0px" y="0px" width="100px"
	 height="100px" viewBox="0 0 100 100" enable-background="new 0 0 100 100" xml:space="preserve">
<g id="Layer_3" display="none">
</g>
<g id="Your_Icon">
</g>
<g id="Layer_4">
	<g>
		<path d="M95.201,40.672L78.118,38.95l11.13-13.625c0.65-0.795,0.591-1.953-0.135-2.679L78.046,11.578
			c-0.726-0.727-1.884-0.785-2.679-0.135L61.613,22.678l-1.798-17.64C59.71,4.019,58.851,3,57.826,3H42.174
			c-1.025,0-1.884,1.019-1.989,2.039l-1.739,16.945L25.322,11.379c-0.796-0.646-1.951-0.557-2.675,0.169L11.578,22.63
			c-0.725,0.725-0.785,1.887-0.138,2.683l11.029,13.576L4.8,40.67C3.778,40.773,3,41.635,3,42.662v15.652
			c0,1.027,0.778,1.887,1.799,1.99l17.508,1.765L11.443,75.365c-0.65,0.795-0.592,1.954,0.135,2.68l11.067,11.068
			c0.726,0.726,1.884,0.784,2.679,0.135l13.181-10.767l1.679,16.48C40.29,95.981,41.149,97,42.174,97h15.163
			c1.005,0,1.854-0.991,1.983-1.988l2.186-17.036l13.173,10.645c0.795,0.645,1.951,0.556,2.675-0.169l10.722-10.738
			c0.711-0.711,0.784-1.847,0.17-2.643l-10.06-13.048l17.015-1.717C96.222,60.203,97,59.341,97,58.314V42.662
			C97,41.635,96.222,40.775,95.201,40.672z M93,56.506l-17.617,1.776c-0.736,0.074-1.371,0.548-1.65,1.233
			c-0.134,0.327-0.278,0.649-0.426,0.971c-0.312,0.676-0.222,1.469,0.232,2.058l10.466,13.571l-8.203,8.204L62.436,73.456
			c-0.506-0.412-1.183-0.549-1.81-0.371c-0.057,0.017-0.119,0.037-0.177,0.06c-0.039,0.015-0.077,0.03-0.114,0.047
			c-0.128,0.058-0.259,0.11-0.39,0.164l-0.401,0.166c-0.152,0.064-0.304,0.129-0.458,0.188c-0.05,0.019-0.1,0.041-0.148,0.064
			c-0.05,0.023-0.101,0.05-0.146,0.076c-0.545,0.311-0.912,1.103-0.992,1.725L55.579,93H43.978l-1.752-17.192
			c-0.078-0.757-0.579-1.526-1.292-1.791c-0.33-0.123-0.657-0.308-0.98-0.444c-0.684-0.29-1.471-0.208-2.045,0.262L24.195,85.021
			l-8.509-8.518l10.97-13.429c0.493-0.604,0.591-1.441,0.25-2.143c-0.227-0.467-0.443-0.94-0.638-1.417
			c-0.28-0.685-0.915-1.159-1.65-1.233L7,56.506V44.471l17.436-1.756c0.766-0.077,1.42-0.587,1.681-1.311
			c0.249-0.689,0.471-1.25,0.701-1.762c0.308-0.688,0.202-1.492-0.274-2.077L15.682,24.198l8.517-8.516l13.366,10.862
			c0.587,0.477,1.405,0.575,2.098,0.265c0.176-0.08,0.355-0.152,0.535-0.225l0.412-0.171c0.095-0.04,0.189-0.081,0.217-0.093
			c0.024-0.008,0.072-0.026,0.095-0.035c0.709-0.267,1.208-1.156,1.285-1.911L43.978,7h12.045l1.771,17.375
			c0.078,0.751,0.571,1.516,1.276,1.785c0.523,0.199,1.076,0.499,1.741,0.811c0.698,0.328,1.52,0.256,2.116-0.23L76.497,15.67
			l8.51,8.517L73.805,37.904c-0.469,0.574-0.582,1.363-0.293,2.046c0.201,0.475,0.381,0.96,0.551,1.448
			c0.256,0.735,0.915,1.256,1.688,1.333L93,44.471V56.506z"/>
		<path d="M51.005,41H51c-2.673,0-5.183,0.816-7.072,2.778C42.04,45.738,41,48.213,41,50.985c0,5.719,4.484,10.308,9.995,10.314
			C56.513,61.3,61,56.872,61,51.147C61,45.425,56.516,41,51.005,41z"/>
	</g>
</g>
</svg>
