<?xml version="1.0" encoding="utf-8"?>
<!-- Generator: Adobe Illustrator 16.0.0, SVG Export Plug-In . SVG Version: 6.00 Build 0)  -->
<!DOCTYPE svg PUBLIC "-//W3C//DTD SVG 1.1//EN" "http://www.w3.org/Graphics/SVG/1.1/DTD/svg11.dtd">
<svg version="1.1" id="Capa_1" xmlns="http://www.w3.org/2000/svg" xmlns:xlink="http://www.w3.org/1999/xlink" x="0px" y="0px"
	 width="128px" height="128px" viewBox="0 0 128 128" enable-background="new 0 0 128 128" xml:space="preserve">
<path d="M33.28,38.784c0-16.41,14.355-29.76,32-29.76c17.945,0,32,12.481,32,28.416v3.52h7.681v-3.52
	c0-20.241-17.431-36.096-39.681-36.096C43.4,1.344,25.6,18.14,25.6,38.784V53.76h7.68V38.784z"/>
<path d="M110.08,56.32H17.92c-2.121,0-3.84,1.655-3.84,3.776v64c0,1.02,0.405,2.028,1.126,2.748
	c0.719,0.721,1.696,1.156,2.714,1.156c0.001,0,0.003,0,0.004,0l92.16-0.128c2.12-0.002,3.836-1.752,3.836-3.872V60.096
	C113.92,57.975,112.201,56.32,110.08,56.32z M106.24,120.164l-84.48,0.088V64h84.48V120.164z"/>
<path d="M58.618,95.666l4.233-6.409c-0.954-0.63-1.571-1.958-1.571-3.384c0-2.13,1.794-3.928,3.919-3.928
	c2.062,0,3.56,1.596,3.56,3.795c0,2.242-0.518,2.785-2.077,3.279l-2.683,0.847v16.374h7.681V95.158
	c3.161-1.889,4.76-5.044,4.76-9.417c0-6.435-4.938-11.476-11.24-11.476c-6.396,0-11.599,5.207-11.599,11.608
	c-0.001,4.056,1.875,7.717,5.016,9.792H58.618z"/>
</svg>
