<?xml version="1.0" encoding="utf-8"?>
<!-- Generator: Adobe Illustrator 16.0.0, SVG Export Plug-In . SVG Version: 6.00 Build 0)  -->
<!DOCTYPE svg PUBLIC "-//W3C//DTD SVG 1.1//EN" "http://www.w3.org/Graphics/SVG/1.1/DTD/svg11.dtd">
<svg version="1.1" id="Capa_1" xmlns="http://www.w3.org/2000/svg" xmlns:xlink="http://www.w3.org/1999/xlink" x="0px" y="0px"
	 width="128px" height="128px" viewBox="0 0 128 128" enable-background="new 0 0 128 128" xml:space="preserve">
<path d="M111.359,60.16H19.2c-3.535,0-6.4,3.25-6.4,6.783v55.041c0,1.697,0.675,3.135,1.877,4.334
	c1.199,1.199,2.827,1.682,4.524,1.682c0.003,0,0.004,0,0.006,0h92.16c3.533-0.002,6.395-2.566,6.395-6.1V66.943
	c0-3.533-2.865-6.783-6.4-6.783H111.359z M104.96,115.2H25.6V72.96h79.36V115.2z"/>
<path d="M94.262,35.543h12.946C104.731,16.179,87.212,1.617,65.279,1.617c-23.291,0-42.239,17.944-42.239,40v13.679h12.8h0.001
	V41.617c0-14.998,13.206-27.2,29.438-27.2C80.212,14.417,91.871,23.22,94.262,35.543z"/>
</svg>
