<?xml version="1.0" encoding="utf-8"?>
<!-- Generator: Adobe Illustrator 16.0.0, SVG Export Plug-In . SVG Version: 6.00 Build 0)  -->
<!DOCTYPE svg PUBLIC "-//W3C//DTD SVG 1.1//EN" "http://www.w3.org/Graphics/SVG/1.1/DTD/svg11.dtd">
<svg version="1.1" id="Capa_1" xmlns="http://www.w3.org/2000/svg" xmlns:xlink="http://www.w3.org/1999/xlink" x="0px" y="0px"
	 width="128px" height="128px" viewBox="0 0 128 128" enable-background="new 0 0 128 128" xml:space="preserve">
<path d="M64,55.039c-10.587,0-20.48,8.613-20.48,19.201V128h12.8V74.24c0-3.529,4.151-6.401,7.68-6.401
	c3.529,0,7.68,2.872,7.68,6.401V128H84.48V74.24C84.48,63.652,74.587,55.039,64,55.039z"/>
<path d="M62.72,28.101c7.061,0,12.799-5.738,12.799-12.795c0-7.067-5.74-12.805-12.799-12.805c-7.06,0-12.8,5.739-12.8,12.805
	C49.92,22.363,55.659,28.101,62.72,28.101z"/>
<path d="M91.775,3.84c0,17.92-13.205,32.187-29.439,32.187c-16.234,0-29.44-14.267-29.44-32.187h-12.8
	c0,25.6,18.949,44.987,42.24,44.987s42.24-19.387,42.24-44.987H91.775z"/>
</svg>
