<?xml version="1.0" encoding="utf-8"?>
<!-- Generator: Adobe Illustrator 16.0.0, SVG Export Plug-In . SVG Version: 6.00 Build 0)  -->
<!DOCTYPE svg PUBLIC "-//W3C//DTD SVG 1.1//EN" "http://www.w3.org/Graphics/SVG/1.1/DTD/svg11.dtd">
<svg version="1.1" id="Capa_1" xmlns="http://www.w3.org/2000/svg" xmlns:xlink="http://www.w3.org/1999/xlink" x="0px" y="0px"
	 width="128px" height="128px" viewBox="0 0 128 128" enable-background="new 0 0 128 128" xml:space="preserve">
<path d="M24.299,107.52h32.02v-12.8h-32.02c0,0,0.013,0,0.015,0h-0.015c0-16.64,10.392-27.415,26.888-27.415
	c5.398,0,9.902,1.467,14.075,3.002c0.35,0.129,10.206-8.528,9.825-8.819c-6.702-5.115-14.799-7.331-23.82-7.331
	c-11.383,0-21.647,4.04-28.834,11.411c-6.998,7.181-10.883,17.757-10.909,28.859C11.55,101.473,17.251,107.52,24.299,107.52
	L24.299,107.52z"/>
<path d="M51.02,12.16c6.365,0,11.52,5.448,11.52,12.16c0,6.718-5.154,12.16-11.52,12.16c-6.363,0-11.52-5.442-11.52-12.16
	C39.5,17.608,44.658,12.16,51.02,12.16z M51.02,0.64c-12.704,0-23.04,10.623-23.04,23.68C27.98,37.377,38.316,48,51.02,48
	s23.041-10.623,23.041-23.68C74.061,11.263,63.724,0.64,51.02,0.64L51.02,0.64z"/>
<path d="M119.391,88.605l-8.193-0.822l5.32-6.541c0.764-0.938,0.688-2.303-0.172-3.158l-6.668-6.662
	c-0.855-0.84-2.226-0.904-3.16-0.161l-6.623,5.412L99.031,68.5c-0.123-1.197-1.135-1.939-2.342-1.939h-9.42
	c-1.207,0-2.217,0.742-2.34,1.943l-0.828,7.995l-6.246-5.157c-0.438-0.355-0.965-0.57-1.484-0.57c-0.607,0-1.21,0.213-1.668,0.67
	l-6.668,6.651c-0.042,0.046-0.073,0.091-0.115,0.134c-0.346,0.404-0.538,0.893-0.566,1.4c-0.008,0.143,0.002,0.307,0.022,0.482
	c0.06,0.399,0.218,0.791,0.487,1.127l5.279,6.508l-8.406,0.861c-1.208,0.117-2.016,1.133-2.016,2.343v9.419
	c0,1.21,0.827,2.219,2.029,2.342l8.36,0.846l-5.207,6.344c-0.766,0.938-0.707,2.301,0.147,3.156l6.657,6.66
	c0.845,0.845,2.223,0.902,3.152,0.163l6.275-5.13l0.795,8.111c0.123,1.201,1.133,2.58,2.342,2.58h9.125
	c0.151,0,0.293-0.336,0.438-0.363c0.986-0.215,1.766-1.289,1.9-2.317l1.047-8.356l6.322,5.102c0.438,0.355,0.959,0.507,1.484,0.507
	c0.604,0,1.198-0.241,1.655-0.7l6.432-6.459c0.421-0.42,0.608-0.961,0.647-1.519c0.035-0.553,0.07-1.12-0.293-1.59l-4.668-6.208
	l8.147-0.826c1.208-0.123,2.093-1.133,2.093-2.342v-9.419c0-1.211-1.004-2.226-2.209-2.343H119.391z M91.98,104.323
	c-4.939,0-8.961-4.013-8.961-8.96s4.021-8.961,8.961-8.961c4.951,0,8.959,4.014,8.959,8.961S96.932,104.323,91.98,104.323z"/>
</svg>
