<?xml version="1.0" encoding="utf-8"?>
<!-- Generator: Adobe Illustrator 16.0.0, SVG Export Plug-In . SVG Version: 6.00 Build 0)  -->
<!DOCTYPE svg PUBLIC "-//W3C//DTD SVG 1.1//EN" "http://www.w3.org/Graphics/SVG/1.1/DTD/svg11.dtd">
<svg version="1.1" id="Capa_1" xmlns="http://www.w3.org/2000/svg" xmlns:xlink="http://www.w3.org/1999/xlink" x="0px" y="0px"
	 width="128px" height="128px" viewBox="0 0 128 128" enable-background="new 0 0 128 128" xml:space="preserve">
<path d="M64,15.345l-0.032,0.015h-0.002c-9.114,0-18.028,2.56-25.778,7.412C15.458,37.01,8.548,67.078,22.783,89.807
	c8.951,14.291,24.373,22.82,41.254,22.82c9.111,0,18.025-2.566,25.777-7.42c22.728-14.234,29.654-44.305,15.424-67.032
	C96.287,23.879,80.641,15.345,64,15.345L64,15.345z M83.021,94.357c-5.912,3.703-12.489,5.468-18.985,5.468
	c-11.937,0-23.606-5.96-30.405-16.817C23.122,66.23,28.209,44.118,44.98,33.613c5.912-3.702,12.49-5.467,18.986-5.468
	c11.937,0,23.604,5.958,30.409,16.823C104.875,61.736,99.793,83.854,83.021,94.357z"/>
<path d="M69.12,35.84h-12.8v30.316c0,2.843,1.842,5.344,4.571,6.143l19.054,5.579l3.617-12.285L69.119,61.36L69.12,35.84
	L69.12,35.84z"/>
<path d="M33.047,16.543l5.15-3.799L30.598,2.442l-5.149,3.8c-6.957,5.133-12.968,11.34-18.915,19.537l-3.759,5.179l10.359,7.519
	l3.759-5.18C22.046,26.197,27.179,20.873,33.047,16.543L33.047,16.543z"/>
<path d="M121.467,25.779c-5.947-8.197-11.958-14.404-18.916-19.537l-5.15-3.8l-7.598,10.302l5.149,3.799
	c5.868,4.33,11.003,9.654,16.155,16.754l3.76,5.18l10.359-7.519L121.467,25.779z"/>
</svg>
