<?xml version="1.0" encoding="utf-8"?>
<!-- Generator: Adobe Illustrator 16.0.0, SVG Export Plug-In . SVG Version: 6.00 Build 0)  -->
<!DOCTYPE svg PUBLIC "-//W3C//DTD SVG 1.1//EN" "http://www.w3.org/Graphics/SVG/1.1/DTD/svg11.dtd">
<svg version="1.1" id="Capa_1" xmlns="http://www.w3.org/2000/svg" xmlns:xlink="http://www.w3.org/1999/xlink" x="0px" y="0px"
	 width="128px" height="128px" viewBox="0 0 128 128" enable-background="new 0 0 128 128" xml:space="preserve">
<path d="M64.16,0.64c-24.791,0-44.96,20.074-44.96,44.748c0,11.662,3.695,21.984,10.774,29.846
	c2.359,2.623,7.146,11.031,10.986,16.648v18.559c0,7.83,7.214,16.814,17.856,17.23c0.055,0.002,9.016-0.004,9.065-0.006
	c9.213-0.355,16.6-8.262,16.6-17.23V92.107c3.84-4.901,9.961-14.135,12.426-16.873c7.598-8.443,11.839-19.042,11.839-29.844
	c0-24.673-19.972-44.748-44.585-44.748V0.64z M67.968,114.561c-0.61,0.004-9.728,0-9.728,0c-2.724-0.15-4.48-2.502-4.48-4.119
	v-5.481h17.92v5.476C71.68,112.514,70.314,114.426,67.968,114.561L67.968,114.561z M87.503,66.67
	c-3.849,4.275-13.522,18.268-14.601,19.85c-0.725,1.062-1.223,2.317-1.223,3.604v2.037H53.76v-2.037
	c0-1.144-0.261-2.267-0.842-3.251c-0.924-1.566-9.128-15.443-13.408-20.2c-4.928-5.476-7.521-12.836-7.521-21.285
	c0-17.615,14.432-31.948,32.165-31.948c17.556,0,31.843,14.332,31.843,31.948C95.998,53.023,92.984,60.582,87.503,66.67
	L87.503,66.67z"/>
</svg>
