<?xml version="1.0" encoding="utf-8"?>
<!-- Generator: Adobe Illustrator 16.0.0, SVG Export Plug-In . SVG Version: 6.00 Build 0)  -->
<!DOCTYPE svg PUBLIC "-//W3C//DTD SVG 1.1//EN" "http://www.w3.org/Graphics/SVG/1.1/DTD/svg11.dtd">
<svg version="1.1" id="Capa_1" xmlns="http://www.w3.org/2000/svg" xmlns:xlink="http://www.w3.org/1999/xlink" x="0px" y="0px"
	 width="128px" height="128px" viewBox="0 0 128 128" enable-background="new 0 0 128 128" xml:space="preserve">
<path d="M115.173,17.756L115.173,17.756c-1.497-0.563-3.237-0.005-4.293,1.195c-0.252,0.287-25.435,27.473-47.19,27.473h-3.53v0.001
	h-7.68v-0.002H29.982c-9.884,0-17.995,7.25-18.377,16.703c-0.006,0.192-0.085,2.994-0.085,3.19v0.315
	c0,2.909,0.069,3.013,0.075,3.118c0.384,9.604,8.46,17.126,18.34,17.126l4.247,0.005c0.962,0,2.938,0.001,2.938,0.001l0.042-0.022
	v0.004l0.214,31.269c0,5.335,4.453,9.67,9.974,9.868l1.736,0.001c0.091,0,1.325-0.009,1.459-0.013
	c5.517-0.215,9.615-4.545,9.615-9.857V86.868c1.28-0.005,1.212-0.011,1.453-0.017l0.612-0.007c19.33,0,48.468,26.505,48.759,26.785
	c0.729,0.705,1.724,1.078,2.699,1.078c0.506,0,1.135-0.101,1.619-0.306c1.418-0.603,2.459-1.993,2.459-3.534V21.35
	C117.762,19.751,116.668,18.319,115.173,17.756z M52.48,118.13c0,1.171-0.824,2.194-2.129,2.245
	c-0.17,0.002-1.097,0.073-1.203,0.073h-1.45c-1.321,0-2.386-1.142-2.386-2.286l0.001-30.778h7.167V118.13z M52.48,79.705
	c-0.211,0-11.593,0-15.36,0v-0.002c-0.94,0-1.841,0-2.654,0l0.001,0.001h-4.898c-5.742,0-10.08-4.666-10.298-10.099
	c-0.006-0.314-0.07-2.213-0.07-2.953v-0.336c0-0.178,0.076-2.642,0.079-2.906c0.218-5.384,4.86-9.307,10.703-9.307H52.48V79.705z
	 M110.08,102.271c-10.24-8.819-31.173-23.106-47.625-23.106c-0.229,0-0.508,0.002-0.739,0.009c-0.265,0.008-0.833,0.014-1.556,0.02
	V54.104h3.53c17.901,0,36.15-14.106,46.39-23.322V102.271z"/>
</svg>
