<?xml version="1.0" encoding="utf-8"?>
<!-- Generator: Adobe Illustrator 16.0.0, SVG Export Plug-In . SVG Version: 6.00 Build 0)  -->
<!DOCTYPE svg PUBLIC "-//W3C//DTD SVG 1.1//EN" "http://www.w3.org/Graphics/SVG/1.1/DTD/svg11.dtd">
<svg version="1.1" id="Capa_1" xmlns="http://www.w3.org/2000/svg" xmlns:xlink="http://www.w3.org/1999/xlink" x="0px" y="0px"
	 width="128px" height="128px" viewBox="0 0 128 128" enable-background="new 0 0 128 128" xml:space="preserve">
<path d="M115.87,8.178c-2.49-0.938-5.462,0.11-7.222,2.11c-6.795,7.722-28.321,28.113-45.368,28.113H29.572
	c-11.263,0-20.293,8.115-20.731,18.962c-0.005,0.197-0.018,6.451-0.008,6.597c0.39,9.825,7.807,17.724,16.767,19.285v28.062
	c0,9.151,8.133,16.475,18.118,16.752l4.026-0.01c9.942-0.29,17.535-7.609,17.535-16.742V83.788
	c15.361,2.373,36.275,20.035,43.641,27.142c1.217,1.174,2.789,1.793,4.416,1.793c0.844,0,1.986-0.166,2.792-0.508
	c2.364-1.004,4.192-3.322,4.192-5.891v-92.16c0-2.662-1.957-5.046-4.451-5.985L115.87,8.178z M52.48,111.305
	c0,2.165-2.44,3.863-5.427,3.95l-2.74-0.055c-2.985,0-5.912-1.731-5.912-3.896c0-21.635,0-21.705,0-26.824h14.08
	C52.481,84.48,52.481,110.4,52.48,111.305L52.48,111.305z M107.52,92.239C96,83.055,77.6,70.714,62.25,70.714
	c-0.252,0-0.657,0.004-0.911,0.011c-0.645,0.018-3.298,0.036-11.907,0.036c-5.312,0-11.274-0.008-15.334-0.013l-4.518-0.005
	c-4.317,0-7.711-3.138-7.944-7.258l-0.004-5.651c0.16-3.983,3.498-6.636,7.94-6.636h33.709c16.308,0,32.719-12.507,44.239-21.814
	v62.853V92.239z"/>
</svg>
