<?xml version="1.0" encoding="utf-8"?>
<!-- Generator: Adobe Illustrator 16.0.0, SVG Export Plug-In . SVG Version: 6.00 Build 0)  -->
<!DOCTYPE svg PUBLIC "-//W3C//DTD SVG 1.1//EN" "http://www.w3.org/Graphics/SVG/1.1/DTD/svg11.dtd">
<svg version="1.1" id="Capa_1" xmlns="http://www.w3.org/2000/svg" xmlns:xlink="http://www.w3.org/1999/xlink" x="0px" y="0px"
	 width="128px" height="128px" viewBox="0 0 128 128" enable-background="new 0 0 128 128" xml:space="preserve">
<path d="M81.92,0H57.6v12.8H75.52v102.4H57.6V128h24.32c3.534,0,6.4-2.865,6.4-6.4V6.4C88.32,2.865,85.454,0,81.92,0z"/>
<path d="M14.08,12.8H32V0H7.68c-3.534,0-6.4,2.865-6.4,6.4v115.2c0,3.535,2.866,6.4,6.4,6.4H32v-12.8H14.08V12.8z"/>
<path d="M121.6,0h-24.32v12.8H115.2v102.4H97.279V128h24.32c3.534,0,6.4-2.865,6.4-6.4V6.4C128,2.865,125.134,0,121.6,0z"/>
<path d="M66.561,70.4V57.6H51.2V42.24H38.4V57.6H23.04v12.8H38.4V85.76h12.8V70.4H66.561z"/>
</svg>
