<?xml version="1.0" encoding="utf-8"?>
<!-- Generator: Adobe Illustrator 16.0.0, SVG Export Plug-In . SVG Version: 6.00 Build 0)  -->
<!DOCTYPE svg PUBLIC "-//W3C//DTD SVG 1.1//EN" "http://www.w3.org/Graphics/SVG/1.1/DTD/svg11.dtd">
<svg version="1.1" id="Capa_1" xmlns="http://www.w3.org/2000/svg" xmlns:xlink="http://www.w3.org/1999/xlink" x="0px" y="0px"
	 width="128px" height="128px" viewBox="0 0 128 128" enable-background="new 0 0 128 128" xml:space="preserve">
<path d="M57.6,53.76h12.8V84.48H57.6V53.76z"/>
<path d="M57.6,90.88h12.8v14.08H57.6V90.88z"/>
<path d="M127.32,118.536L69.721,3.724c-1.086-2.163-3.3-3.53-5.721-3.53s-4.635,1.366-5.72,3.53L0.68,118.536
	c-0.996,1.983-0.892,4.438,0.274,6.328C2.119,126.753,4.181,128,6.4,128h115.2c2.219,0,4.282-1.247,5.446-3.136
	C128.212,122.975,128.316,120.52,127.32,118.536z M16.772,115.2L64,21.06l47.229,94.14H16.772z"/>
</svg>
