<?xml version="1.0" encoding="utf-8"?>
<!-- Generator: Adobe Illustrator 16.0.0, SVG Export Plug-In . SVG Version: 6.00 Build 0)  -->
<!DOCTYPE svg PUBLIC "-//W3C//DTD SVG 1.1//EN" "http://www.w3.org/Graphics/SVG/1.1/DTD/svg11.dtd">
<svg version="1.1" id="Capa_1" xmlns="http://www.w3.org/2000/svg" xmlns:xlink="http://www.w3.org/1999/xlink" x="0px" y="0px"
	 width="128px" height="128px" viewBox="0 0 128 128" enable-background="new 0 0 128 128" xml:space="preserve">
<path d="M111.359,2.56H16.64c-2.121,0-3.84,1.719-3.84,3.84v115.2c0,2.121,1.719,3.84,3.84,3.84h94.719
	c2.121,0,3.841-1.719,3.841-3.84V6.4C115.2,4.279,113.48,2.56,111.359,2.56z M107.52,117.76H20.48V10.24h87.04V117.76z"/>
<path d="M57.21,80.098c5.578,0,10.767-1.697,15.078-4.603l24.373,24.772l5.476-5.387L77.995,70.345
	c3.922-4.698,6.29-10.737,6.29-17.32c0-14.926-12.145-27.07-27.073-27.07c-14.924,0-27.066,12.143-27.066,27.07
	C30.145,67.952,42.287,80.098,57.21,80.098z M57.21,33.635c10.692,0,19.394,8.699,19.394,19.389
	c0,10.693-8.701,19.392-19.394,19.392c-10.689,0-19.386-8.7-19.386-19.392C37.824,42.333,46.52,33.635,57.21,33.635z"/>
</svg>
