<?xml version="1.0" encoding="utf-8"?>
<!-- Generator: Adobe Illustrator 16.0.0, SVG Export Plug-In . SVG Version: 6.00 Build 0)  -->
<!DOCTYPE svg PUBLIC "-//W3C//DTD SVG 1.1//EN" "http://www.w3.org/Graphics/SVG/1.1/DTD/svg11.dtd">
<svg version="1.1" id="Capa_1" xmlns="http://www.w3.org/2000/svg" xmlns:xlink="http://www.w3.org/1999/xlink" x="0px" y="0px"
	 width="128px" height="128px" viewBox="0 0 128 128" enable-background="new 0 0 128 128" xml:space="preserve">
<path d="M108.8,0H19.2c-3.534,0-6.4,2.865-6.4,6.4v115.2c0,3.535,2.866,6.4,6.4,6.4h89.6c3.534,0,6.4-2.865,6.4-6.4V6.4
	C115.2,2.865,112.334,0,108.8,0z M102.4,115.2H25.6V12.8h76.8V115.2z"/>
<path d="M58.756,80.008c4.21,0,8.174-1.05,11.665-2.881l20.259,20.59l9.123-8.978L79.895,68.505
	c2.573-3.953,4.084-8.657,4.084-13.713c0-13.909-11.313-25.224-25.221-25.224c-13.906,0-25.22,11.315-25.22,25.224
	C33.537,68.695,44.851,80.008,58.756,80.008z M58.756,42.368c6.85,0,12.422,5.573,12.422,12.424c0,6.847-5.572,12.416-12.422,12.416
	c-6.848,0-12.42-5.571-12.42-12.416C46.336,47.942,51.908,42.368,58.756,42.368z"/>
</svg>
