<?xml version="1.0" encoding="utf-8"?>
<!-- Generator: Adobe Illustrator 16.0.0, SVG Export Plug-In . SVG Version: 6.00 Build 0)  -->
<!DOCTYPE svg PUBLIC "-//W3C//DTD SVG 1.1//EN" "http://www.w3.org/Graphics/SVG/1.1/DTD/svg11.dtd">
<svg version="1.1" id="Capa_1" xmlns="http://www.w3.org/2000/svg" xmlns:xlink="http://www.w3.org/1999/xlink" x="0px" y="0px"
	 width="128px" height="128px" viewBox="0 0 128 128" enable-background="new 0 0 128 128" xml:space="preserve">
<path d="M125.488,37.71c-1.166-2.918-3.368-5.306-6.182-6.706c-1.451-0.721-35.904-17.688-66.783-17.688
	c-13.093,0-31.091,3.208-42.47,18.487c-12.959,17.4-13.617,44.717-2.016,83.512c1.318,4.408,4.902,7.77,9.385,8.805
	c0.819,0.188,5.153,1.132,10.108,1.132c11.674,0,17.108-5.271,19.612-9.694c0.585-1.033,1.059-2.095,1.421-3.189
	c5.083-0.061,16.223-0.801,20.856-10.024c6.602-0.286,17.893-1.989,21.723-12.116c0.604-1.598,0.95-3.211,1.041-4.834
	c5.35-1.81,11.575-5.352,13.801-12.584c0.084-0.279,0.17-0.584,0.25-0.914c8.188-1.625,14.193-5.203,17.914-10.699
	c3.08-4.548,5.811-12.314,1.343-23.487L125.488,37.71z M94.971,60.101c-4.525,0-8.025-0.501-8.025-0.501
	c21.578,15.232-13.963,15.867-13.963,15.867C86.469,87.368,75.908,89.6,66.089,89.6c-5.891,0-11.514-0.805-11.514-0.805
	c8.462,8.814,1.057,10.773-7.196,10.773c-6.602,0-13.75-1.252-13.75-1.252c7.14,11.9,0.148,14.133-6.099,14.133
	c-3.749,0-7.23-0.805-7.23-0.805c-20.503-68.559,3.456-85.53,32.223-85.53c28.227,0,61.081,16.348,61.081,16.348
	C119.702,57.711,104.875,60.1,94.971,60.101L94.971,60.101z"/>
</svg>
