<?xml version="1.0" encoding="utf-8"?>
<!-- Generator: Adobe Illustrator 16.0.0, SVG Export Plug-In . SVG Version: 6.00 Build 0)  -->
<!DOCTYPE svg PUBLIC "-//W3C//DTD SVG 1.1//EN" "http://www.w3.org/Graphics/SVG/1.1/DTD/svg11.dtd">
<svg version="1.1" id="Capa_1" xmlns="http://www.w3.org/2000/svg" xmlns:xlink="http://www.w3.org/1999/xlink" x="0px" y="0px"
	 width="128px" height="128px" viewBox="0 0 128 128" enable-background="new 0 0 128 128" xml:space="preserve">
<path d="M117.76,17.92h-11.537l-0.01-10.533c0-2.117-1.719-3.547-3.84-3.547H87.04c-2.121,0-3.84,1.399-3.84,3.52v10.56H44.782
	L44.773,7.387c0-2.117-1.719-3.547-3.84-3.547H25.6c-2.121,0-3.84,1.399-3.84,3.52v10.56H10.24c-4.241,0-7.68,3.695-7.68,7.936
	v91.519c0,2.039,0.81,4.186,2.253,5.627c1.44,1.439,3.392,2.438,5.427,2.438c0.002,0,0.005,0,0.009,0l107.521-0.307
	c4.236-0.005,7.67-3.634,7.67-7.873V25.857C125.439,21.616,122.001,17.921,117.76,17.92L117.76,17.92z M90.88,11.52h7.657
	l0.02,23.04H90.88V11.52z M29.44,11.52h7.657l0.019,23.04H29.44V11.52z M117.76,117.26l-107.52,0.115V58.88h107.52V117.26z
	 M117.76,51.2H10.24V25.6h11.52v13.12c0,2.121,1.719,3.521,3.84,3.521h15.36c0.009,0,0.019,0,0.026,0c2.121,0,3.84-1.559,3.84-3.68
	c0-0.151-0.009-0.349-0.026-0.498L44.79,25.6H83.2v13.12c0,2.121,1.719,3.521,3.84,3.521h15.36c0.01,0,0.02,0,0.025,0
	c2.121,0,3.84-1.559,3.84-3.68c0-0.151-0.009-0.349-0.025-0.498L106.23,25.6h11.529V51.2z"/>
</svg>
