<?xml version="1.0" encoding="utf-8"?>
<!-- Generator: Adobe Illustrator 16.0.0, SVG Export Plug-In . SVG Version: 6.00 Build 0)  -->
<!DOCTYPE svg PUBLIC "-//W3C//DTD SVG 1.1//EN" "http://www.w3.org/Graphics/SVG/1.1/DTD/svg11.dtd">
<svg version="1.1" id="Capa_1" xmlns="http://www.w3.org/2000/svg" xmlns:xlink="http://www.w3.org/1999/xlink" x="0px" y="0px"
	 width="128px" height="128px" viewBox="0 0 128 128" enable-background="new 0 0 128 128" xml:space="preserve">
<path d="M115.2,21.76h-1.947l-0.015-15.223C113.234,3.006,110.37,0,106.838,0H82.561c-3.535,0-7.041,2.865-7.041,6.4v15.36H52.453
	L52.438,6.537C52.434,3.006,49.57,0,46.038,0H21.76c-3.535,0-6.4,2.865-6.4,6.4v15.36H12.8C5.732,21.76,0,27.202,0,34.271v80.577
	c0,3.397,1.35,6.832,3.754,9.231C6.154,126.479,9.408,128,12.8,128c0.005,0,0.009,0,0.013,0l102.4-0.277
	c7.066-0.009,12.787-5.912,12.787-12.976V34.271C128,27.203,122.268,21.76,115.2,21.76z M39.68,12.8v25.6H28.16V12.8H39.68z
	 M100.445,12.8l0.027,25.6H88.32V12.8H100.445L100.445,12.8z M12.8,114.85V53.76h102.4v60.987L12.8,114.85z"/>
</svg>
