<?xml version="1.0" encoding="utf-8"?>
<!-- Generator: Adobe Illustrator 16.0.0, SVG Export Plug-In . SVG Version: 6.00 Build 0)  -->
<!DOCTYPE svg PUBLIC "-//W3C//DTD SVG 1.1//EN" "http://www.w3.org/Graphics/SVG/1.1/DTD/svg11.dtd">
<svg version="1.1" id="Capa_1" xmlns="http://www.w3.org/2000/svg" xmlns:xlink="http://www.w3.org/1999/xlink" x="0px" y="0px"
	 width="128px" height="128px" viewBox="0 0 128 128" enable-background="new 0 0 128 128" xml:space="preserve">
<path d="M121.611,25.599H92.125l-5.649-15.075c-0.935-2.501-3.323-4.125-5.993-4.125H47.33c-2.687,0-5.088,1.645-6.011,4.168
	l-5.51,15.032H6.413c-3.534,0-6.4,2.933-6.4,6.468v89.532c0,1.697,0.674,3.328,1.877,4.528C3.091,127.325,4.817,128,6.513,128
	c0.003,0,0.005,0,0.006,0l115.1-0.128c3.531-0.002,6.395-2.868,6.395-6.4V32.068c0-3.535-2.865-6.468-6.4-6.468L121.611,25.599z
	 M115.212,115.199l-102.4-0.009V38.399h27.47c2.687,0,5.088-1.645,6.011-4.168l5.51-15.032h24.238l5.65,15.075
	c0.934,2.501,3.324,4.126,5.994,4.126h27.525L115.212,115.199L115.212,115.199z"/>
<path d="M64.012,48.639c-15.528,0-28.16,12.632-28.16,28.16c0,15.528,12.632,28.16,28.16,28.16c15.527,0,28.16-12.632,28.16-28.16
	C92.172,61.271,79.539,48.639,64.012,48.639z M64.012,92.159c-8.467,0-15.36-6.887-15.36-15.36s6.893-15.36,15.36-15.36
	s15.359,6.886,15.359,15.36S72.479,92.159,64.012,92.159z"/>
</svg>
