<?xml version="1.0" encoding="utf-8"?>
<!-- Generator: Adobe Illustrator 16.0.0, SVG Export Plug-In . SVG Version: 6.00 Build 0)  -->
<!DOCTYPE svg PUBLIC "-//W3C//DTD SVG 1.1//EN" "http://www.w3.org/Graphics/SVG/1.1/DTD/svg11.dtd">
<svg version="1.1" id="Capa_1" xmlns="http://www.w3.org/2000/svg" xmlns:xlink="http://www.w3.org/1999/xlink" x="0px" y="0px"
	 width="128px" height="128px" viewBox="0 0 128 128" enable-background="new 0 0 128 128" xml:space="preserve">
<path d="M68.918,87.344l32-38.4c1.59-1.906,1.93-4.61,0.881-6.856c-1.057-2.25-3.314-3.733-5.797-3.733h-64
	c-2.483,0-4.742,1.482-5.797,3.733c-0.403,0.867-0.604,1.814-0.604,2.737c0,1.469,0.508,2.936,1.484,4.108l32,38.406
	c1.215,1.459,3.016,2.306,4.916,2.306C65.9,89.645,67.703,88.803,68.918,87.344z M45.666,51.153h36.672L64.001,73.156L45.666,51.153
	z"/>
</svg>
