<?xml version="1.0" encoding="utf-8"?>
<!-- Generator: Adobe Illustrator 16.0.0, SVG Export Plug-In . SVG Version: 6.00 Build 0)  -->
<!DOCTYPE svg PUBLIC "-//W3C//DTD SVG 1.1//EN" "http://www.w3.org/Graphics/SVG/1.1/DTD/svg11.dtd">
<svg version="1.1" id="Capa_1" xmlns="http://www.w3.org/2000/svg" xmlns:xlink="http://www.w3.org/1999/xlink" x="0px" y="0px"
	 width="128px" height="128px" viewBox="0 0 128 128" enable-background="new 0 0 128 128" xml:space="preserve">
<path d="M92.51,58.508l-38.4-32c-1.907-1.59-4.611-1.931-6.857-0.881c-2.25,1.055-3.733,3.313-3.733,5.797v64
	c0,2.483,1.482,4.742,3.733,5.796c0.867,0.404,1.815,0.604,2.737,0.604c1.469,0,2.936-0.508,4.109-1.484l38.406-32
	c1.459-1.215,2.306-3.016,2.306-4.916C94.811,61.524,93.969,59.722,92.51,58.508z M56.32,81.76V45.088l22.002,18.336L56.32,81.76z"
	/>
</svg>
