<?xml version="1.0" encoding="utf-8"?>
<!-- Generator: Adobe Illustrator 16.0.0, SVG Export Plug-In . SVG Version: 6.00 Build 0)  -->
<!DOCTYPE svg PUBLIC "-//W3C//DTD SVG 1.1//EN" "http://www.w3.org/Graphics/SVG/1.1/DTD/svg11.dtd">
<svg version="1.1" id="Capa_1" xmlns="http://www.w3.org/2000/svg" xmlns:xlink="http://www.w3.org/1999/xlink" x="0px" y="0px"
	 width="128px" height="128px" viewBox="0 0 128 128" enable-background="new 0 0 128 128" xml:space="preserve">
<path d="M89.725,60.446l-36.178-29.44c-1.148-0.933-2.697-1.125-4.035-0.489c-1.339,0.636-2.153,1.985-2.153,3.468v58.88
	c0,1.482,0.814,2.83,2.153,3.468c0.525,0.25,1.069,0.373,1.63,0.373c0.867,0,1.716-0.293,2.414-0.862l36.172-29.439
	c0.896-0.73,1.414-1.824,1.414-2.979c0-1.154-0.521-2.249-1.418-2.978V60.446z M55.04,84.787V42.059l26.254,21.363L55.04,84.787
	L55.04,84.787z"/>
</svg>
