<?xml version="1.0" encoding="utf-8"?>
<!-- Generator: Adobe Illustrator 16.0.0, SVG Export Plug-In . SVG Version: 6.00 Build 0)  -->
<!DOCTYPE svg PUBLIC "-//W3C//DTD SVG 1.1//EN" "http://www.w3.org/Graphics/SVG/1.1/DTD/svg11.dtd">
<svg version="1.1" id="Capa_1" xmlns="http://www.w3.org/2000/svg" xmlns:xlink="http://www.w3.org/1999/xlink" x="0px" y="0px"
	 width="128px" height="128px" viewBox="0 0 128 128" enable-background="new 0 0 128 128" xml:space="preserve">
<path d="M110.08,60.16H17.92c-3.535,0-6.4,2.37-6.4,5.904v55.158c0,1.697,0.675,3.516,1.877,4.717
	c1.199,1.199,2.827,2.062,4.524,2.062c0.003,0,0.004,0,0.006,0h92.154c3.532-0.004,6.399-3.446,6.399-6.978V66.066
	C116.48,62.532,113.616,60.161,110.08,60.16L110.08,60.16z M103.68,114.628l-79.36,0.188V72.96h79.36V114.628z"/>
<path d="M106.24,55.424H93.439V41.92c0-14.998-13.205-27.2-29.439-27.2c-16.234,0-29.44,12.202-29.44,27.2v13.504h-12.8V41.92
	c0-22.056,18.949-40,42.24-40s42.24,17.944,42.24,40V55.424z"/>
</svg>
