<?xml version="1.0" encoding="utf-8"?>
<!-- Generator: Adobe Illustrator 16.0.0, SVG Export Plug-In . SVG Version: 6.00 Build 0)  -->
<!DOCTYPE svg PUBLIC "-//W3C//DTD SVG 1.1//EN" "http://www.w3.org/Graphics/SVG/1.1/DTD/svg11.dtd">
<svg version="1.1" id="Capa_1" xmlns="http://www.w3.org/2000/svg" xmlns:xlink="http://www.w3.org/1999/xlink" x="0px" y="0px"
	 width="128px" height="128px" viewBox="0 0 128 128" enable-background="new 0 0 128 128" xml:space="preserve">
<path d="M110.08,56.32H17.92c-2.121,0-3.84,1.941-3.84,4.06v64c0,1.019,0.405,1.886,1.126,2.606
	c0.719,0.721,1.696,1.014,2.714,1.014c0.001,0,0.003,0,0.004,0l92.16,0.014c2.12-0.002,3.836-1.609,3.836-3.729V60.38
	C113.92,58.26,112.201,56.32,110.08,56.32z M106.24,120.448l-84.48,0.088V64h84.48V120.448z"/>
<path d="M32,38.408c0-16.41,14.355-29.76,32-29.76c17.645,0,32,13.35,32,29.76V53.76h7.68V38.408c0-20.644-17.8-37.44-39.68-37.44
	s-39.68,16.796-39.68,37.44V53.76H32V38.408z"/>
<path d="M57.339,95.859l4.23-6.41C60.573,88.791,60,87.609,60,86.208c0-2.091,1.794-3.858,3.919-3.858c2.03,0,3.56,1.647,3.56,3.832
	c0,2.272-0.518,2.82-2.078,3.313l-2.681,0.849v15.896h7.679V95.613c2.535-1.549,4.761-4.355,4.761-9.432
	c0-6.455-4.937-11.512-11.24-11.512c-6.396,0-11.599,5.176-11.599,11.538C52.319,90.176,54.195,93.784,57.339,95.859L57.339,95.859z
	"/>
</svg>
