<?xml version="1.0" encoding="utf-8"?>
<!-- Generator: Adobe Illustrator 16.0.0, SVG Export Plug-In . SVG Version: 6.00 Build 0)  -->
<!DOCTYPE svg PUBLIC "-//W3C//DTD SVG 1.1//EN" "http://www.w3.org/Graphics/SVG/1.1/DTD/svg11.dtd">
<svg version="1.1" id="Capa_1" xmlns="http://www.w3.org/2000/svg" xmlns:xlink="http://www.w3.org/1999/xlink" x="0px" y="0px"
	 width="128px" height="128px" viewBox="0 0 128 128" enable-background="new 0 0 128 128" xml:space="preserve">
<path d="M108.863,53.12v-35.2h-7.68v19.114C93.504,23.57,79.039,14.72,62.802,14.72c-21.504,0-39.662,15.311-43.662,36.404
	L19.136,57.6h7.808v-5.39c2.56-17.295,18.509-29.49,36.21-29.49c16.597,0,30.985,10.561,35.493,27.2H69.184v7.68h36.354
	C107.656,57.6,108.863,55.241,108.863,53.12z"/>
<path d="M22.463,71.678c-2.12,0-3.327,1.079-3.327,3.2v36.479h7.68V90.963c7.681,13.467,22.146,22.316,38.382,22.316
	c21.503,0,39.661-15.311,43.661-36.404l0.004-5.195h-7.807v4.11c-2.561,17.295-18.51,30.13-36.211,30.13
	c-16.597,0-30.985-11.2-35.492-26.561h29.462v-7.68H22.463V71.678z"/>
</svg>
