<?xml version="1.0" encoding="utf-8"?>
<!-- Generator: Adobe Illustrator 16.0.0, SVG Export Plug-In . SVG Version: 6.00 Build 0)  -->
<!DOCTYPE svg PUBLIC "-//W3C//DTD SVG 1.1//EN" "http://www.w3.org/Graphics/SVG/1.1/DTD/svg11.dtd">
<svg version="1.1" id="Capa_1" xmlns="http://www.w3.org/2000/svg" xmlns:xlink="http://www.w3.org/1999/xlink" x="0px" y="0px"
	 width="128px" height="128px" viewBox="0 0 128 128" enable-background="new 0 0 128 128" xml:space="preserve">
<path d="M106.816,60.16H67.84v-12.8h25.828C88.516,34.462,76.057,25.6,61.778,25.6C45.38,25.6,30.72,37.133,28.16,53.107v0.653
	H14.976l0.271-2.473c4.229-22.3,23.397-38.487,46.13-38.487c15.818,0,30.783,7.946,38.463,20.333V15.36h12.801v38.4
	C112.641,57.294,110.35,60.16,106.816,60.16L106.816,60.16z"/>
<path d="M21.184,67.84H53.76v12.801H34.332c5.153,12.897,17.611,21.76,31.891,21.76c16.397,0,31.057-11.533,33.617-27.508V74.24
	h13.057l-0.146,2.473C108.523,99.014,89.355,115.2,66.622,115.2c-15.818,0-30.783-7.946-38.463-20.333v11.373h-12.8v-32
	C15.359,70.705,17.649,67.84,21.184,67.84L21.184,67.84z"/>
</svg>
