<?xml version="1.0" encoding="utf-8"?>
<!-- Generator: Adobe Illustrator 16.0.0, SVG Export Plug-In . SVG Version: 6.00 Build 0)  -->
<!DOCTYPE svg PUBLIC "-//W3C//DTD SVG 1.1//EN" "http://www.w3.org/Graphics/SVG/1.1/DTD/svg11.dtd">
<svg version="1.1" id="Capa_1" xmlns="http://www.w3.org/2000/svg" xmlns:xlink="http://www.w3.org/1999/xlink" x="0px" y="0px"
	 width="128px" height="128px" viewBox="0 0 128 128" enable-background="new 0 0 128 128" xml:space="preserve">
<path d="M92.402,124.247c-8.43,0-17.973-2.87-24.229-12.488l-35.59-54.698c-0.408-0.627-3.958-6.349-2.465-13.371
	c0.695-3.277,2.781-7.996,8.767-11.876c10.854-7.038,20.58-0.699,24.467,5.276L87.73,74.559L77.001,81.54L52.622,44.069
	c-0.664-0.955-2.826-4.079-6.774-1.517c-1.85,1.199-2.93,2.477-3.209,3.797c-0.386,1.816,0.662,3.712,0.673,3.73l35.592,54.7
	c6.289,9.664,18.771,6.285,21.713,5.32c13.344-9.736,7.142-22.219,5.601-24.869L73.801,35.408
	c-8.242-12.669-19.279-19.279-31.04-18.638c-9.825,0.545-18.662,6.316-23.063,15.061c-5.231,10.396-3.564,23.02,4.696,35.546
	l14.344,22.044l-10.729,6.981L13.688,74.391C2.977,58.151,0.992,40.528,8.265,26.078C14.72,13.252,27.667,4.788,42.054,3.992
	c16.292-0.898,31.782,8.004,42.475,24.438l32.596,50.104c5.299,8.702,10.053,28.799-9.895,42.569l-0.603,0.416l-0.683,0.269
	c-3.33,1.313-8.215,2.46-13.541,2.46L92.402,124.247z"/>
</svg>
