<?xml version="1.0" encoding="utf-8"?>
<!-- Generator: Adobe Illustrator 16.0.0, SVG Export Plug-In . SVG Version: 6.00 Build 0)  -->
<!DOCTYPE svg PUBLIC "-//W3C//DTD SVG 1.1//EN" "http://www.w3.org/Graphics/SVG/1.1/DTD/svg11.dtd">
<svg version="1.1" id="Capa_1" xmlns="http://www.w3.org/2000/svg" xmlns:xlink="http://www.w3.org/1999/xlink" x="0px" y="0px"
	 width="128px" height="128px" viewBox="0 0 128 128" enable-background="new 0 0 128 128" xml:space="preserve">
<path d="M115.447,79.477L83.37,30.095C73.322,14.624,58.854,6.249,43.686,7.054C30.375,7.781,18.388,15.608,12.4,27.483
	c-6.795,13.478-4.899,30.011,5.193,45.339l12.783,19.683l6.441-4.185L24.021,68.619c-8.677-13.18-10.368-26.56-4.763-37.679
	c4.753-9.426,14.273-15.64,24.847-16.218c12.54-0.663,24.189,6.262,32.827,19.555l32.014,49.286
	c0.412,0.674,9.802,16.566-6.475,28.168c-2.642,0.929-17.178,5.371-24.652-6.141L42.685,51.506c-0.01-0.015-0.993-1.645-1.135-3.721
	c-0.191-2.793,1.238-5.139,4.369-7.172c5.556-3.611,9.153,0.813,10.107,2.23l22.71,34.968l6.441-4.185L62.466,38.661
	c-0.206-0.318-2.113-3.163-5.48-5.158c-4.794-2.844-10.209-2.602-15.251,0.671c-6.975,4.529-8.117,10.186-7.846,14.134
	c0.278,4.079,2.145,7.058,2.356,7.383l35.132,54.084c5.613,8.643,14.217,11.229,21.857,11.229c4.891,0,9.386-1.061,12.445-2.27
	l0.409-0.161l0.362-0.25c22.697-15.694,9.197-38.519,8.996-38.843V79.477z"/>
</svg>
