<?xml version="1.0" encoding="utf-8"?>
<!-- Generator: Adobe Illustrator 16.0.0, SVG Export Plug-In . SVG Version: 6.00 Build 0)  -->
<!DOCTYPE svg PUBLIC "-//W3C//DTD SVG 1.1//EN" "http://www.w3.org/Graphics/SVG/1.1/DTD/svg11.dtd">
<svg version="1.1" id="Capa_1" xmlns="http://www.w3.org/2000/svg" xmlns:xlink="http://www.w3.org/1999/xlink" x="0px" y="0px"
	 width="128px" height="128px" viewBox="0 0 128 128" enable-background="new 0 0 128 128" xml:space="preserve">
<path d="M96.004,95.451l-8.945-9.156L109.881,64L87.059,41.706l8.945-9.156l27.508,26.872c1.233,1.203,1.928,2.854,1.928,4.577
	c0,1.724-0.694,3.374-1.928,4.578L96.004,95.449V95.451z"/>
<path d="M33.019,95.451L5.512,68.579c-1.233-1.204-1.928-2.856-1.928-4.578c0-1.722,0.695-3.374,1.928-4.578l27.509-26.872
	l8.945,9.156L19.144,64.002l22.822,22.294l-8.946,9.157L33.019,95.451z"/>
<path d="M69.719,17.988l12.364,3.317l-23.798,88.716l-12.364-3.316L69.719,17.988z"/>
</svg>
