<?xml version="1.0" encoding="utf-8"?>
<!-- Generator: Adobe Illustrator 16.0.0, SVG Export Plug-In . SVG Version: 6.00 Build 0)  -->
<!DOCTYPE svg PUBLIC "-//W3C//DTD SVG 1.1//EN" "http://www.w3.org/Graphics/SVG/1.1/DTD/svg11.dtd">
<svg version="1.1" id="Capa_1" xmlns="http://www.w3.org/2000/svg" xmlns:xlink="http://www.w3.org/1999/xlink" x="0px" y="0px"
	 width="128px" height="128px" viewBox="0 0 128 128" enable-background="new 0 0 128 128" xml:space="preserve">
<path d="M96.046,36.17l-5.366,5.494L113.545,64L90.68,86.336l5.366,5.494l25.677-25.083c0.74-0.722,1.157-1.713,1.157-2.747
	s-0.417-2.025-1.157-2.747L96.046,36.17z"/>
<path d="M32.978,36.17L7.301,61.253C6.56,61.975,6.144,62.966,6.144,64s0.417,2.025,1.157,2.747L32.978,91.83l5.366-5.494L15.479,64
	l22.865-22.336L32.978,36.17z"/>
<path d="M56.475,106.88l-7.417-1.989l22.471-83.764l7.416,1.99L56.475,106.88z"/>
</svg>
