<?xml version="1.0" encoding="utf-8"?>
<!-- Generator: Adobe Illustrator 16.0.0, SVG Export Plug-In . SVG Version: 6.00 Build 0)  -->
<!DOCTYPE svg PUBLIC "-//W3C//DTD SVG 1.1//EN" "http://www.w3.org/Graphics/SVG/1.1/DTD/svg11.dtd">
<svg version="1.1" id="Capa_1" xmlns="http://www.w3.org/2000/svg" xmlns:xlink="http://www.w3.org/1999/xlink" x="0px" y="0px"
	 width="128px" height="128px" viewBox="0 0 128 128" enable-background="new 0 0 128 128" xml:space="preserve">
<path d="M92.16,128H6.4c-3.535,0-6.4-2.866-6.4-6.4V35.84c0-3.534,2.865-6.4,6.4-6.4h37.12v12.8H12.8v72.96h72.96V87.04h12.801
	v34.56C98.561,125.134,95.695,128,92.16,128z"/>
<path d="M116.061,11.94c-1.218-1.219-2.834-1.718-4.601-1.7H61.44v12.8h34.462L37.54,81.409l9.05,9.051L104.961,32v33.28h12.801
	V16.64C117.781,14.916,117.279,13.158,116.061,11.94L116.061,11.94z"/>
</svg>
