<?xml version="1.0" encoding="utf-8"?>
<!-- Generator: Adobe Illustrator 16.0.0, SVG Export Plug-In . SVG Version: 6.00 Build 0)  -->
<!DOCTYPE svg PUBLIC "-//W3C//DTD SVG 1.1//EN" "http://www.w3.org/Graphics/SVG/1.1/DTD/svg11.dtd">
<svg version="1.1" id="Capa_1" xmlns="http://www.w3.org/2000/svg" xmlns:xlink="http://www.w3.org/1999/xlink" x="0px" y="0px"
	 width="80px" height="128px" viewBox="0 0 80 128" enable-background="new 0 0 80 128" xml:space="preserve">
<path d="M59.011,86.168c7.105-6.259,10.188-14.79,8.033-22.415c-3.734-13.21-14.65-18.246-23.423-22.293
	c-8.9-4.106-14.444-6.99-16.195-14.253c-0.543-2.25,0.105-5.016,2.133-7.589C32.289,16.15,36.16,13.95,40,13.95v0.129h0.412
	c3.442,0,6.47,1.175,8.892,3.546c2.385,2.332,3.496,5.295,3.496,8.577v5.797h12.801v-5.797c0-6.753-2.479-12.966-7.346-17.728
	c-4.828-4.723-11.033-7.195-17.841-7.195c-0.002,0-0.005,0-0.011,0c-7.58,0-15.511,3.962-20.698,10.546
	c-4.47,5.676-6.191,12.358-4.722,18.446c1.167,4.842,3.325,8.562,6.006,11.592c-7.105,6.261-10.188,14.775-8.033,22.399
	c3.735,13.211,14.651,18.237,23.423,22.285c8.899,4.105,14.444,6.987,16.194,14.25c0.543,2.25-0.106,5.016-2.135,7.588
	c-2.729,3.467-6.6,5.665-10.439,5.665v-0.13h-0.411c-3.443,0-6.472-1.176-8.892-3.546c-2.386-2.332-3.497-5.295-3.497-8.577V96
	h-12.8v5.797c0,6.753,2.478,12.969,7.345,17.729c4.829,4.722,11.034,7.194,17.842,7.194c0,0,0.002,0,0.011,0
	c7.58,0,15.51-3.962,20.696-10.545c4.47-5.677,6.19-12.36,4.722-18.446c-1.166-4.845-3.324-8.529-6.006-11.561H59.011z
	 M25.274,60.766c-0.794-2.812,0.996-6.664,4.456-9.586l1.696-1.432c2.31,1.248,4.638,2.323,6.833,3.336
	c8.888,4.101,14.438,6.978,16.466,14.152c0.795,2.812-0.996,6.664-4.453,9.584l-1.697,1.435c-2.311-1.249-4.639-2.323-6.833-3.336
	C32.854,70.818,27.304,67.941,25.274,60.766L25.274,60.766z"/>
</svg>
