<?xml version="1.0" encoding="utf-8"?>
<!-- Generator: Adobe Illustrator 16.0.0, SVG Export Plug-In . SVG Version: 6.00 Build 0)  -->
<!DOCTYPE svg PUBLIC "-//W3C//DTD SVG 1.1//EN" "http://www.w3.org/Graphics/SVG/1.1/DTD/svg11.dtd">
<svg version="1.1" id="Capa_1" xmlns="http://www.w3.org/2000/svg" xmlns:xlink="http://www.w3.org/1999/xlink" x="0px" y="0px"
	 width="128px" height="128px" viewBox="0 0 128 128" enable-background="new 0 0 128 128" xml:space="preserve">
<path d="M64,126.72c-0.002,0-0.006,0-0.009,0c-1.798-0.002-3.514-0.762-4.724-2.093C57.437,122.615,14.316,75.04,4.3,47.319
	C0.087,35.663,1.32,23.782,7.68,14.723C13.678,6.18,23.654,1.28,35.054,1.28c11.699,0,21.585,4.422,28.696,12.654
	C68.453,7.612,76.379,1.28,90.707,1.28c12.175,0,22.917,5.355,29.473,14.694c6.325,9.013,7.694,20.437,3.754,31.345
	c-10.017,27.73-53.371,75.309-55.213,77.322C67.509,125.966,65.795,126.72,64,126.72L64,126.72z M35.054,14.08
	c-7.277,0-13.276,2.84-16.897,7.998c-3.93,5.599-4.594,13.213-1.82,20.892c7.333,20.296,36.215,54.589,47.676,67.714
	c11.514-13.119,40.557-47.434,47.883-67.715c2.539-7.032,1.761-14.007-2.193-19.64c-4.127-5.878-11.051-9.249-18.996-9.249
	c-13.688,0-17.501,7.939-20.566,14.317l-0.26,0.539c-1.066,2.213-3.309,3.619-5.764,3.619c-2.456,0-4.696-1.407-5.764-3.619
	C53.595,19.079,45.757,14.08,35.054,14.08L35.054,14.08z"/>
</svg>
