<?xml version="1.0" encoding="utf-8"?>
<!-- Generator: Adobe Illustrator 16.0.0, SVG Export Plug-In . SVG Version: 6.00 Build 0)  -->
<!DOCTYPE svg PUBLIC "-//W3C//DTD SVG 1.1//EN" "http://www.w3.org/Graphics/SVG/1.1/DTD/svg11.dtd">
<svg version="1.1" id="Capa_1" xmlns="http://www.w3.org/2000/svg" xmlns:xlink="http://www.w3.org/1999/xlink" x="0px" y="0px"
	 width="128px" height="128px" viewBox="0 0 128 128" enable-background="new 0 0 128 128" xml:space="preserve">
<path d="M86.363,75.977l-18.377-3.125l7.597-42.037c-2.546,0.109-5.128-0.358-7.543-1.45l-7.624,42.197l-17.467-2.971
	c0.181,2.568-0.227,5.166-1.235,7.579l17.336,2.95l-3.265,18.072c2.545-0.143,5.135,0.287,7.56,1.348l3.277-18.133l18.419,3.133
	C84.891,80.973,85.328,78.379,86.363,75.977L86.363,75.977z"/>
<path d="M83.382,4.987c-2.497-2.472-5.755-3.706-9.011-3.706c-3.295,0-6.59,1.263-9.094,3.79
	c-4.973,5.021-4.941,13.126,0.082,18.099c2.496,2.474,5.754,3.709,9.01,3.709c3.295,0,6.588-1.265,9.093-3.789
	C88.434,18.07,88.402,9.962,83.382,4.987L83.382,4.987z M78.01,17.681c-0.97,0.98-2.264,1.519-3.642,1.519
	c-1.359,0-2.64-0.527-3.606-1.487c-0.97-0.959-1.508-2.24-1.514-3.606c-0.006-1.367,0.521-2.657,1.48-3.625
	c0.972-0.979,2.266-1.519,3.643-1.519c1.359,0,2.643,0.527,3.605,1.48C79.98,12.429,79.993,15.68,78.01,17.681z"/>
<path d="M66.229,104.826c-2.498-2.473-5.755-3.706-9.012-3.706c-3.295,0-6.59,1.263-9.094,3.79
	c-4.973,5.021-4.941,13.126,0.082,18.099c2.497,2.474,5.754,3.708,9.01,3.708c3.295,0,6.588-1.265,9.094-3.789
	C71.281,117.908,71.25,109.8,66.229,104.826L66.229,104.826z M60.858,117.52c-0.971,0.98-2.266,1.519-3.643,1.519
	c-1.359,0-2.639-0.527-3.607-1.487c-0.969-0.959-1.507-2.24-1.513-3.605c-0.006-1.367,0.521-2.657,1.48-3.625
	c0.971-0.981,2.266-1.521,3.643-1.521c1.359,0,2.642,0.527,3.605,1.48C62.829,112.266,62.842,115.516,60.858,117.52L60.858,117.52z"
	/>
<path d="M111.029,73.338c-2.496-2.472-5.754-3.706-9.01-3.706c-3.295,0-6.59,1.263-9.095,3.79c-4.973,5.021-4.94,13.126,0.082,18.1
	c2.497,2.474,5.755,3.707,9.011,3.707c3.295,0,6.588-1.265,9.092-3.789c4.973-5.019,4.943-13.125-0.078-18.103L111.029,73.338z
	 M105.659,86.031c-0.972,0.98-2.267,1.519-3.644,1.519c-1.358,0-2.639-0.526-3.606-1.487c-0.97-0.959-1.507-2.239-1.513-3.605
	c-0.006-1.367,0.521-2.657,1.479-3.625c0.972-0.979,2.267-1.52,3.644-1.52c1.358,0,2.642,0.527,3.604,1.48
	C107.63,80.777,107.643,84.027,105.659,86.031L105.659,86.031z"/>
<path d="M34.998,61.306c-2.497-2.472-5.755-3.706-9.011-3.706c-3.295,0-6.59,1.263-9.094,3.79
	c-4.973,5.021-4.941,13.125,0.082,18.099c2.497,2.474,5.754,3.708,9.01,3.708c3.295,0,6.588-1.266,9.093-3.789
	C40.049,74.389,40.02,66.28,34.998,61.306L34.998,61.306z M29.627,73.999c-0.971,0.981-2.266,1.519-3.643,1.519
	c-1.359,0-2.639-0.526-3.607-1.486c-0.969-0.959-1.506-2.24-1.513-3.606c-0.006-1.366,0.521-2.657,1.48-3.625
	c0.971-0.981,2.266-1.521,3.643-1.521c1.359,0,2.642,0.527,3.604,1.479C31.597,68.746,31.608,71.996,29.627,73.999z"/>
</svg>
