<?xml version="1.0" encoding="utf-8"?>
<!-- Generator: Adobe Illustrator 16.0.0, SVG Export Plug-In . SVG Version: 6.00 Build 0)  -->
<!DOCTYPE svg PUBLIC "-//W3C//DTD SVG 1.1//EN" "http://www.w3.org/Graphics/SVG/1.1/DTD/svg11.dtd">
<svg version="1.1" id="Capa_1" xmlns="http://www.w3.org/2000/svg" xmlns:xlink="http://www.w3.org/1999/xlink" x="0px" y="0px"
	 width="128px" height="128px" viewBox="0 0 128 128" enable-background="new 0 0 128 128" xml:space="preserve">
<path d="M88.734,74.213l-19.78-3.488l7.213-40.474c-1.308,0.296-2.64,0.471-3.972,0.471c-3.133,0-6.108-0.819-8.707-2.268
	l-7.142,40.049l-16.715-2.948c0.28,4.047-0.804,8.04-3.148,11.422c-0.218,0.312-0.457,0.603-0.691,0.897l18.437,3.251l-2.153,15.4
	c1.144-0.227,2.299-0.373,3.459-0.373c3.319,0,6.456,0.924,9.157,2.533l2.144-15.34l19.144,3.377
	c-0.681-4.525,0.399-8.937,2.756-12.512L88.734,74.213z"/>
<path d="M68.273,112.28c1.258,6.956-3.359,13.616-10.315,14.87c-6.956,1.267-13.613-3.351-14.872-10.309
	c-1.257-6.959,3.36-13.613,10.312-14.875C60.356,100.707,67.014,105.327,68.273,112.28z"/>
<path d="M85.445,10.52c1.258,6.957-3.359,13.617-10.315,14.871c-6.956,1.266-13.613-3.351-14.872-10.309
	C59.001,8.123,63.618,1.469,70.57,0.207C77.527-1.053,84.188,3.567,85.445,10.52z"/>
<path d="M116.146,81.943c1.256,6.957-3.36,13.617-10.316,14.871c-6.956,1.267-13.613-3.351-14.872-10.309
	c-1.257-6.959,3.36-13.613,10.312-14.875C108.229,70.371,114.887,74.991,116.146,81.943z"/>
<path d="M34.481,65.305c1.257,6.956-3.36,13.616-10.316,14.87c-6.956,1.267-13.613-3.351-14.872-10.309
	c-1.257-6.959,3.36-13.613,10.312-14.875C26.564,53.731,33.222,58.351,34.481,65.305z"/>
</svg>
