<?xml version="1.0" encoding="utf-8"?>
<!-- Generator: Adobe Illustrator 16.0.0, SVG Export Plug-In . SVG Version: 6.00 Build 0)  -->
<!DOCTYPE svg PUBLIC "-//W3C//DTD SVG 1.1//EN" "http://www.w3.org/Graphics/SVG/1.1/DTD/svg11.dtd">
<svg version="1.1" id="Capa_1" xmlns="http://www.w3.org/2000/svg" xmlns:xlink="http://www.w3.org/1999/xlink" x="0px" y="0px"
	 width="128px" height="128px" viewBox="0 0 128 128" enable-background="new 0 0 128 128" xml:space="preserve">
<path d="M103.718,34.33L74.025,5.711c-1.435-1.404-3.469-1.87-5.476-1.87H29.865c-4.241,0-8.105,2.799-8.105,7.04v106.24
	c0,4.24,3.864,8.32,8.105,8.32h68.27c4.241,0,8.105-4.08,8.105-8.32v-77.3C106.24,37.755,105.195,35.775,103.718,34.33
	L103.718,34.33z M71.68,13.942L95.375,37.12H71.68V13.942z M98.561,117.76H29.44V11.52H64v29.44c0,2.121,1.719,3.84,3.84,3.84
	h30.721V117.76z"/>
</svg>
