<?xml version="1.0" encoding="utf-8"?>
<!-- Generator: Adobe Illustrator 16.0.0, SVG Export Plug-In . SVG Version: 6.00 Build 0)  -->
<!DOCTYPE svg PUBLIC "-//W3C//DTD SVG 1.1//EN" "http://www.w3.org/Graphics/SVG/1.1/DTD/svg11.dtd">
<svg version="1.1" id="Capa_1" xmlns="http://www.w3.org/2000/svg" xmlns:xlink="http://www.w3.org/1999/xlink" x="0px" y="0px"
	 width="128px" height="128px" viewBox="0 0 128 128" enable-background="new 0 0 128 128" xml:space="preserve">
<path d="M107.838,30.607L77.652,3.033c-2.359-2.158-5.12-3.034-8.317-3.034H29.441c-7.069,0-14.08,5.09-14.08,12.16v102.399
	c0,7.07,7.011,13.44,14.08,13.44h70.4c7.07,0,11.521-6.37,11.521-13.44V40.053C111.361,36.459,110.491,33.031,107.838,30.607
	L107.838,30.607z M98.561,40.054v0.906H67.84V12.8h1.494L98.561,40.054z M28.16,115.2V12.8h26.88v33.92
	c0,3.534,4.146,7.04,7.68,7.04h35.84v61.44H28.16z"/>
</svg>
