<?xml version="1.0" encoding="utf-8"?>
<!-- Generator: Adobe Illustrator 16.0.0, SVG Export Plug-In . SVG Version: 6.00 Build 0)  -->
<!DOCTYPE svg PUBLIC "-//W3C//DTD SVG 1.1//EN" "http://www.w3.org/Graphics/SVG/1.1/DTD/svg11.dtd">
<svg version="1.1" id="Capa_1" xmlns="http://www.w3.org/2000/svg" xmlns:xlink="http://www.w3.org/1999/xlink" x="0px" y="0px"
	 width="128px" height="128px" viewBox="0 0 128 128" enable-background="new 0 0 128 128" xml:space="preserve">
<path d="M115.2,12.8H12.8C5.731,12.8,0,18.53,0,25.6v89.6C0,122.27,5.731,128,12.8,128h102.4c7.069,0,12.8-5.73,12.8-12.8V25.6
	C128,18.531,122.27,12.8,115.2,12.8z M12.801,25.6h102.4v21.021H115.2c-20.664,14.566-44.032,29.92-49.161,31.557
	c-1.303,0.008-2.606,0.054-3.909,0.021c-5.014-1.557-28.529-16.968-49.329-31.587V25.6z M115.2,62.267V115.2H12.8V62.245
	c-0.085-0.059-0.086-0.06-0.001-0.001C39.807,81.023,56.03,90.68,61.078,90.965c1.824,0.104,3.655,0.01,5.48,0.01
	C68.48,90.975,115.2,62.267,115.2,62.267z"/>
</svg>
