<?xml version="1.0" encoding="utf-8"?>
<!-- Generator: Adobe Illustrator 16.0.0, SVG Export Plug-In . SVG Version: 6.00 Build 0)  -->
<!DOCTYPE svg PUBLIC "-//W3C//DTD SVG 1.1//EN" "http://www.w3.org/Graphics/SVG/1.1/DTD/svg11.dtd">
<svg version="1.1" id="Capa_1" xmlns="http://www.w3.org/2000/svg" xmlns:xlink="http://www.w3.org/1999/xlink" x="0px" y="0px"
	 width="128px" height="128px" viewBox="0 0 128 128" enable-background="new 0 0 128 128" xml:space="preserve">
<path d="M55.124,55.137c-4.902,4.896-4.9,12.841-0.001,17.742c4.896,4.895,12.838,4.895,17.74,0.001
	c4.898-4.899,4.898-12.847,0-17.746c-4.896-4.895-12.843-4.897-17.738,0.002L55.124,55.137z"/>
<path d="M120.434,48.704l-14.979-1.874l10.043-11.876c2.025-1.681,1.477-6.322-0.342-8.403l-13.594-13.636
	c-2.276-2.276-6.002-2.57-8.494-0.533L81.932,22.996L79.543,7.819c-0.329-3.197-2.551-5.26-5.766-5.26H54.962
	c-3.153,0-5.892,2.132-6.296,5.26l-2.232,15.112L34.871,12.51c-2.495-2.027-6.208-1.79-8.483,0.484L12.915,26.449
	c-2.23,2.229-2.579,5.879-0.653,8.374l10.966,12.008L7.622,48.71c-3.205,0.321-5.06,3.045-5.06,6.264v18.817
	c0,3.221,1.855,5.448,5.059,5.77l15.51,2.006L12.197,93.102c-2.04,2.492-1.656,6.235,0.62,8.513l13.638,13.372
	c2.278,2.277,6.042,2.57,8.534,0.533l11.81-9.744l1.887,14.35c0.33,3.198,3.063,5.312,6.277,5.312h18.816
	c3.214,0,5.439-2.115,5.771-5.312l2.007-14.373l11.504,10.143c2.492,2.026,6.211,1.623,8.483-0.65l13.651-13.713
	c2.271-2.273,2.388-5.857,0.361-8.352l-10.17-11.598l15.045-2.016c3.205-0.322,5.01-2.555,5.01-5.776V54.974
	c0-3.221-1.803-5.95-5.008-6.272V48.704z M114.17,69.025l-18.484,1.632c-2.402,0.241-4.451,0.586-5.271,2.856
	c-0.279,0.774-1.316,3.906-1.321,4.479c-0.008,1.426,0.69,3.054,1.622,4.2l12.307,13.746l-7.096,7.095L80.93,90.725
	c-2.132-2.259-3.164-1.923-5.306-0.994c-0.033,0.015-0.076-0.072-0.108-0.058c-0.177,0.079-1.347,0.476-1.347,0.476
	c-0.017-0.018-0.157,0.08-0.206,0.101c-2.146,0.869-3.178,3.181-3.42,5.494l-1.52,18.43l-10.04,0.005l-1.636-18.417
	c-0.243-2.354-1.176-4.522-3.387-5.366c-0.567-0.215-1.161-0.603-1.925-0.908c-2.944-1.176-3.734,0.215-5.602,1.74l-14.372,11.809
	l-7.095-7.096l11.987-14.472c1.408-1.407,1.32-5.221,0.991-6.345c-0.156-0.539-0.403-1.035-0.589-1.568
	c-0.8-2.309-2.548-2.66-4.978-2.906l-18.563-1.627l0.002-10.031l18.714-1.627c2.306-0.232,4.298-1.72,5.175-3.867
	c0.147-0.36,0.306-0.714,0.471-1.069c0.975-2.118,0.686-4.614-0.74-6.462L24.966,32.073l7.095-7.095L46.46,37.603
	c1.59,1.29,4.954,1.404,7.139,0.457c0.148-0.064,1.15-0.572,1.288-0.651c1.706-0.975,2.232-3.025,2.486-4.974l1.618-18.59
	l10.026-0.008l1.627,18.186c0.248,2.373,1.178,4.556,3.416,5.386c0.359,0.134,0.717,0.344,1.07,0.494
	c2.143,0.906,4.623,0.856,6.426-0.616l14.369-12.309l7.096,7.095L91.354,46.211c-0.963,1.18-2.168,3.956-1.758,5.732
	c0.129,0.559,0.479,1.026,0.693,1.555c0.877,2.15,3.388,3.759,5.697,3.991l18.188,1.503l-0.002,10.033H114.17z"/>
</svg>
