<?xml version="1.0" encoding="utf-8"?>
<!-- Generator: Adobe Illustrator 16.0.0, SVG Export Plug-In . SVG Version: 6.00 Build 0)  -->
<!DOCTYPE svg PUBLIC "-//W3C//DTD SVG 1.1//EN" "http://www.w3.org/Graphics/SVG/1.1/DTD/svg11.dtd">
<svg version="1.1" id="Capa_1" xmlns="http://www.w3.org/2000/svg" xmlns:xlink="http://www.w3.org/1999/xlink" x="0px" y="0px"
	 width="128px" height="128px" viewBox="0 0 128 128" enable-background="new 0 0 128 128" xml:space="preserve">
<path d="M121.984,50.786l-19.496-1.965l12.74-15.597c1.248-1.527,1.135-3.75-0.258-5.144l-14.166-14.166
	c-1.395-1.395-3.617-1.506-5.145-0.258L79.895,26.534L77.837,6.318C77.635,4.36,75.986,2.56,74.018,2.56H53.982
	c-1.969,0-3.617,1.8-3.819,3.758L48.18,25.652L33.219,13.571c-1.527-1.242-3.747-1.089-5.137,0.303L13.914,28.06
	c-1.391,1.391-1.507,3.62-0.265,5.147l12.62,15.534L6.014,50.783c-1.961,0.198-3.455,1.852-3.455,3.823v20.035
	c0,1.973,1.494,3.625,3.455,3.821l20.041,2.021L13.656,95.656c-1.248,1.527-1.135,3.75,0.258,5.144l14.166,14.168
	c1.395,1.396,3.619,1.507,5.146,0.259l15.034-12.281l1.905,18.734c0.201,1.959,1.85,3.758,3.818,3.758h19.41
	c1.93,0,3.561-1.746,3.808-3.66l2.504-19.528l15.08,12.177c1.526,1.24,3.743,1.088,5.138-0.305l13.725-13.745
	c1.365-1.365,1.504-3.54,0.324-5.069L102.502,80.43l19.486-1.967c1.959-0.197,3.453-1.852,3.453-3.822V54.605
	c0-1.971-1.494-3.622-3.455-3.821L121.984,50.786z M117.76,71.171l-21.398,2.157c-1.412,0.142-2.631,1.053-3.168,2.367
	c-0.164,0.402-0.342,0.798-0.523,1.193c-0.598,1.297-0.426,2.82,0.447,3.95l12.708,16.479l-8.888,8.889L80.727,93.031
	c-0.973-0.79-2.267-1.057-3.473-0.713c-0.107,0.031-0.22,0.067-0.329,0.109c-0.073,0.028-0.147,0.059-0.219,0.092
	c-0.151,0.067-0.304,0.129-0.457,0.19l-0.532,0.22c-0.18,0.076-0.361,0.154-0.546,0.225c-0.096,0.037-0.188,0.078-0.282,0.121
	c-0.095,0.045-0.188,0.093-0.271,0.142c-1.043,0.599-1.748,1.961-1.902,3.153l-2.697,21.19h-12.57l-2.125-20.858
	c-0.15-1.452-1.112-2.852-2.482-3.359c-0.403-0.15-0.805-0.38-1.202-0.548c-1.311-0.556-2.824-0.378-3.926,0.522l-16.655,13.586
	l-9.252-9.271l13.306-16.288c0.591-0.725,0.887-1.624,0.865-2.525c-0.013-0.539-0.139-1.082-0.385-1.586
	c-0.279-0.572-0.544-1.152-0.782-1.736c-0.538-1.314-1.758-2.225-3.169-2.368l-21.399-2.158v-13.09l21.166-2.133
	c1.471-0.148,2.725-1.126,3.227-2.517c0.307-0.852,0.581-1.542,0.861-2.168c0.221-0.495,0.331-1.023,0.334-1.546
	c0.004-0.873-0.289-1.739-0.86-2.442L21.796,31.064l9.268-9.268l16.212,13.175c1.115,0.905,2.638,1.11,3.947,0.544
	c0.024-0.01,0.047-0.02,0.07-0.031c0.21-0.095,0.425-0.182,0.64-0.267l0.549-0.228c0.105-0.045,0.209-0.09,0.316-0.13
	c0.041-0.015,0.082-0.032,0.12-0.047c1.316-0.532,2.234-2.061,2.38-3.478l2.148-21.092h13.107l2.148,21.093
	c0.148,1.441,1.096,2.831,2.449,3.349c0.64,0.243,1.318,0.616,2.141,1.001c1.339,0.627,2.917,0.474,4.062-0.462l16.476-13.439
	l9.252,9.27L93.479,47.709c-0.676,0.827-0.967,1.886-0.836,2.916c0.043,0.344,0.133,0.685,0.272,1.013
	c0.246,0.582,0.467,1.176,0.674,1.775c0.49,1.412,1.757,2.41,3.242,2.56l20.928,2.109L117.76,71.171L117.76,71.171z"/>
<path d="M63.999,55.04c4.952,0,8.961,4.011,8.961,8.96s-4.011,8.96-8.961,8.96c-4.937,0-8.959-4.011-8.959-8.96
	S59.062,55.04,63.999,55.04z M63.999,47.36c-9.174,0-16.639,7.465-16.639,16.64s7.465,16.641,16.639,16.641
	c9.176,0,16.642-7.466,16.642-16.641S73.175,47.36,63.999,47.36L63.999,47.36z"/>
</svg>
