<?xml version="1.0" encoding="utf-8"?>
<!-- Generator: Adobe Illustrator 16.0.0, SVG Export Plug-In . SVG Version: 6.00 Build 0)  -->
<!DOCTYPE svg PUBLIC "-//W3C//DTD SVG 1.1//EN" "http://www.w3.org/Graphics/SVG/1.1/DTD/svg11.dtd">
<svg version="1.1" id="Capa_1" xmlns="http://www.w3.org/2000/svg" xmlns:xlink="http://www.w3.org/1999/xlink" x="0px" y="0px"
	 width="128px" height="128px" viewBox="0 0 128 128" enable-background="new 0 0 128 128" xml:space="preserve">
<path d="M43.603,102.488c-3.643,3.643-9.446,3.775-13.245,0.316c-0.291-0.287-1.334-1.332-1.998-1.998l-0.589-0.591
	c-0.141-0.141-2.282-2.286-2.53-2.543c-3.509-3.796-3.391-9.637,0.269-13.297l16.744-16.744l-9.05-9.051L16.459,75.326
	c-8.539,8.538-8.81,22.171-0.629,31.021c0.294,0.321,2.865,2.895,2.907,2.936l0.559,0.561c0.823,0.827,2.174,2.176,2.321,2.313
	c4.315,3.987,9.758,5.97,15.195,5.97c5.733,0,11.46-2.206,15.841-6.588l16.746-16.742l-9.05-9.051L43.603,102.488L43.603,102.488z"
	/>
<path d="M79.398,39.54l9.052,9.051L48.626,88.415l-9.051-9.051L79.398,39.54z"/>
<path d="M112.193,21.66c-0.15-0.165-0.226-0.248-2.67-2.68l-0.258-0.257c-2.647-2.647-2.865-2.844-2.906-2.88
	C97.497,7.65,83.863,7.92,75.325,16.46L58.58,33.204l9.051,9.051l16.746-16.744c3.633-3.636,9.419-3.777,13.268-0.293
	c0.414,0.403,2.433,2.421,2.569,2.558l0.279,0.278c0.606,0.604,2.056,2.046,2.262,2.257c3.511,3.795,3.392,9.634-0.267,13.294
	L85.745,60.35l9.051,9.05l16.744-16.747c8.539-8.539,8.81-22.171,0.653-30.991V21.66z"/>
</svg>
