<?xml version="1.0" encoding="utf-8"?>
<!-- Generator: Adobe Illustrator 16.0.0, SVG Export Plug-In . SVG Version: 6.00 Build 0)  -->
<!DOCTYPE svg PUBLIC "-//W3C//DTD SVG 1.1//EN" "http://www.w3.org/Graphics/SVG/1.1/DTD/svg11.dtd">
<svg version="1.1" id="Capa_1" xmlns="http://www.w3.org/2000/svg" xmlns:xlink="http://www.w3.org/1999/xlink" x="0px" y="0px"
	 width="128px" height="128px" viewBox="0 0 128 128" enable-background="new 0 0 128 128" xml:space="preserve">
<path d="M46.017,89.602L22.337,89.6c-12.078,0-21.91-9.449-22.382-21.51c-0.008-0.213-0.008-2.715-0.005-3.722v-0.369
	c0-0.228,0.009-3.843,0.017-4.066C0.446,47.847,10.276,38.399,22.35,38.399h30.08v12.8H22.35c-5.175,0-9.387,4.047-9.592,9.212
	c-0.004,0.319-0.008,3.387-0.008,3.588v0.39c-0.001,0.869-0.005,2.962,0,3.322c0.197,5.043,4.411,9.089,9.587,9.089l23.68,0.001
	V89.602z"/>
<path d="M35.84,57.6h56.32v12.8H35.84V57.6z"/>
<path d="M81.936,89.602l-0.002-12.801l23.682-0.001c5.175,0,9.388-4.046,9.59-9.212c0.002-0.292-0.002-2.34-0.004-3.196v-0.393
	c0-0.193-0.001-3.05-0.01-3.629c-0.25-5.172-4.443-9.171-9.59-9.171H75.52v-12.8h30.08c12.078,0,21.91,9.448,22.383,21.509
	c0.01,0.224,0.018,1.618,0.018,4.091v0.365c0.008,3.442,0.002,3.562-0.008,3.776C127.521,80.15,117.691,89.6,105.615,89.6
	L81.936,89.602z"/>
</svg>
