<?xml version="1.0" encoding="utf-8"?>
<!-- Generator: Adobe Illustrator 16.0.0, SVG Export Plug-In . SVG Version: 6.00 Build 0)  -->
<!DOCTYPE svg PUBLIC "-//W3C//DTD SVG 1.1//EN" "http://www.w3.org/Graphics/SVG/1.1/DTD/svg11.dtd">
<svg version="1.1" id="Capa_1" xmlns="http://www.w3.org/2000/svg" xmlns:xlink="http://www.w3.org/1999/xlink" x="0px" y="0px"
	 width="128px" height="128px" viewBox="0 0 128 128" enable-background="new 0 0 128 128" xml:space="preserve">
<path d="M10.213,67.748c-0.004-0.314,0.027-2.475,0.027-3.364v-0.385c0-0.205-0.021-3.369-0.015-3.688
	c0.258-6.545,5.57-11.671,12.125-11.671h27.57v-7.68H22.35c-10.694,0-19.378,8.366-19.8,19.063c-0.008,0.219,0.01,3.753,0.01,3.976
	v0.372c0,0.982-0.028,3.42-0.022,3.618c0.42,10.682,9.102,19.05,19.799,19.05L46.08,87.04v-7.681H22.337
	C15.781,79.359,10.469,74.232,10.213,67.748L10.213,67.748z"/>
<path d="M38.4,60.16h51.2v7.68H38.4V60.16z"/>
<path d="M125.439,63.999c0-0.375,0-3.676-0.015-3.99c-0.418-10.682-9.128-19.049-19.825-19.049H78.08v7.68h27.52
	c6.559,0,11.895,5.125,12.15,11.638c0.009,0.407,0.01,3.519,0.01,3.721v0.388c0.002,0.878,0.008,3.003,0.002,3.302
	c-0.256,6.545-5.592,11.67-12.146,11.67L81.92,79.361v7.679h23.695c10.695,0,19.402-8.369,19.82-19.021
	c0.008-0.151,0.004-0.27,0.004-3.65V63.999z"/>
</svg>
