<?xml version="1.0" encoding="utf-8"?>
<!-- Generator: Adobe Illustrator 16.0.0, SVG Export Plug-In . SVG Version: 6.00 Build 0)  -->
<!DOCTYPE svg PUBLIC "-//W3C//DTD SVG 1.1//EN" "http://www.w3.org/Graphics/SVG/1.1/DTD/svg11.dtd">
<svg version="1.1" id="Capa_1" xmlns="http://www.w3.org/2000/svg" xmlns:xlink="http://www.w3.org/1999/xlink" x="0px" y="0px"
	 width="128px" height="128px" viewBox="0 0 128 128" enable-background="new 0 0 128 128" xml:space="preserve">
<path d="M45.413,104.298c-4.636,4.636-12.036,4.785-16.8,0.384c-0.191-0.185-1.348-1.346-2.066-2.066l-0.586-0.588
	c-0.145-0.146-2.358-2.364-2.6-2.616c-4.445-4.81-4.297-12.21,0.338-16.845l16.745-16.744l-5.43-5.431L18.268,77.136
	c-7.564,7.562-7.804,19.636-0.554,27.48c0.148,0.161,2.657,2.683,2.828,2.853l0.567,0.568c0.8,0.802,2.113,2.115,2.245,2.24
	c3.821,3.531,8.642,5.285,13.458,5.285c5.078,0,10.149-1.951,14.031-5.834l16.745-16.742l-5.43-5.432L45.413,104.298L45.413,104.298
	z"/>
<path d="M48.626,84.796l-5.431-5.43l36.204-36.203l5.431,5.431L48.626,84.796L48.626,84.796z"/>
<path d="M107.718,20.795l-0.262-0.261c-0.782-0.782-2.628-2.625-2.833-2.811c-7.85-7.259-19.924-7.017-27.486,0.548L60.391,35.015
	l5.429,5.43L82.566,23.7c4.637-4.637,12.033-4.785,16.824-0.357c0.297,0.285,2.491,2.478,2.637,2.62l0.273,0.274
	c0.622,0.619,2.127,2.116,2.336,2.334c4.447,4.809,4.299,12.207-0.337,16.842L87.555,62.161l5.432,5.43l16.744-16.746
	c7.563-7.562,7.803-19.638,0.567-27.462c-0.103-0.111-0.183-0.2-2.581-2.586L107.718,20.795z"/>
</svg>
