<?xml version="1.0" encoding="utf-8"?>
<!-- Generator: Adobe Illustrator 16.0.0, SVG Export Plug-In . SVG Version: 6.00 Build 0)  -->
<!DOCTYPE svg PUBLIC "-//W3C//DTD SVG 1.1//EN" "http://www.w3.org/Graphics/SVG/1.1/DTD/svg11.dtd">
<svg version="1.1" id="Capa_1" xmlns="http://www.w3.org/2000/svg" xmlns:xlink="http://www.w3.org/1999/xlink" x="0px" y="0px"
	 width="72px" height="128px" viewBox="0 0 72 128" enable-background="new 0 0 72 128" xml:space="preserve">
<path d="M63.328,98.251C60.244,87.343,52.456,74.96,44.21,61.849c-7.917-12.586-16.101-25.6-18.451-35.343
	c-0.532-2.204,0.305-5.197,2.295-7.725c2.688-3.411,6.893-5.982,10.467-5.982c0.002,0,0.002,0,0.004,0
	c3.388,0,6.611,1.563,8.992,3.893c2.346,2.293,3.683,5.611,3.683,8.837v6.47H64v-6.47c0-6.698-2.705-13.267-7.532-17.988
	c-4.788-4.684-11.19-7.542-17.942-7.542c-0.002,0-0.004,0-0.008,0c-7.516,0-15.377,4.334-20.52,10.862
	c-4.434,5.63-6.14,12.463-4.684,18.506c2.842,11.781,11.594,25.768,20.059,39.227c7.4,11.768,15.053,23.969,17.636,33.104
	c0.792,2.806-1.01,5.763-1.866,6.896c-2.688,3.549-6.904,6.038-10.744,6.038v0.004c-7.679,0-12.689-5.456-12.692-12.169l-0.056-6.4
	l-12.827,0.006l-0.01,6.68c0.005,13.768,11.377,25.247,25.367,25.247c0.002,0,0.006,0,0.006,0c7.685,0,15.947-4.64,21.053-11.386
	c4.256-5.622,5.746-12.492,4.088-18.363L63.328,98.251z"/>
</svg>
