<?xml version="1.0" encoding="utf-8"?>
<!-- Generated by IcoMoon.io -->
<!DOCTYPE svg PUBLIC "-//W3C//DTD SVG 1.1//EN" "http://www.w3.org/Graphics/SVG/1.1/DTD/svg11.dtd">
<svg version="1.1" xmlns="http://www.w3.org/2000/svg" xmlns:xlink="http://www.w3.org/1999/xlink" width="128" height="128" viewBox="0 0 128 128">
<g id="icomoon-ignore">
	<line stroke-width="1" x1="" y1="" x2="" y2="" stroke="#449FDB" opacity=""></line>
</g>
	<path d="M77.44 2.587c0.015 3.646-2.112 5.696-3.876 6.769-30.143-16.9-58.901-2.692-70.182 7.534-1.47 1.334-2.239 3.274-2.081 5.253 0.159 1.979 1.226 3.772 2.89 4.855 1.21 0.786 10.153 6.479 19.067 8.78 0.059 2.812 0.331 6.321 1.108 9.948 2.573 11.999 9.55 19.759 19.649 21.852 0.43 0.090 0.865 0.133 1.299 0.133 1.263 0 2.509-0.374 3.574-1.091 1.033-0.696 2.206-1.417 3.446-2.181 8.827-5.434 22.171-13.649 22.034-35.807l-12.8 0.079c0.092 14.954-7.698 19.75-15.946 24.828-0.428 0.264-0.847 0.522-1.261 0.778-10.047-4.526-8.194-23.087-8.177-23.274 0.201-1.793-0.366-3.589-1.56-4.942s-2.904-2.142-4.708-2.166c-2.693-0.038-6.462-1.335-10.089-2.98 10.129-5.707 28.904-12.159 49.861 0.978 1.513 0.948 3.358 1.218 5.083 0.753 5.372-1.464 15.52-7.562 15.469-20.154l-12.8 0.054z" fill="#000000"></path>
	<path d="M94.177 88.187c-7.852-8.036-18.125-12.111-30.534-12.111-17.898 0-34.031 8.695-34.709 9.065-1.771 0.966-2.982 2.711-3.269 4.708s0.385 4.011 1.811 5.438c0.347 0.346 7.727 7.592 19.438 9.275 2.987 7.822 10.042 22.159 21.566 22.159 1.586 0 3.117-0.59 4.293-1.654 0.536-0.486 13.254-12.094 22.475-29.397 1.312-2.462 0.878-5.487-1.071-7.483zM66.721 113.070c-2.872-2.394-6.871-9.467-9.011-16.429-0.817-2.68-3.279-4.516-6.081-4.534-1.627-0.010-3.16-0.209-4.578-0.527 4.827-1.468 10.654-2.703 16.593-2.703 6.993 0 12.957 1.74 17.796 5.184-5.327 8.776-11.384 15.562-14.718 19.009z" fill="#000000"></path>
	<path d="M120.296 56.919c-4.236-12.325-5.882-27.96-5.898-28.132-0.333-3.233-3.035-5.705-6.285-5.747-0.064 0-0.128-0.001-0.191-0.001-6.35 0-12.324 4.047-17.757 12.033-3.502 5.147-5.627 10.278-5.716 10.495-0.316 0.772-0.478 1.55-0.478 2.385-0.269 1.61-5.203 5.553-10.569 7.854-2.219 0.942-3.721 3.054-3.882 5.462-0.162 2.406 1.042 4.7 3.117 5.931 0.518 0.307 9.459 5.477 24.219 5.477 5.787 0 12.469-0.795 19.886-2.989l8.002 0.073 0.115-12.8-4.563-0.041zM90.984 59.563c2.863-2.739 5.197-6.107 5.688-10.033 1.612-3.645 3.978-7.482 6.285-10.162 0.914 5.486 2.36 12.666 4.492 19.446-6.511 1.293-12.058 1.281-16.465 0.749z" fill="#000000"></path>
</svg>
