<?xml version="1.0" encoding="utf-8"?>
<!-- Generated by IcoMoon.io -->
<!DOCTYPE svg PUBLIC "-//W3C//DTD SVG 1.1//EN" "http://www.w3.org/Graphics/SVG/1.1/DTD/svg11.dtd">
<svg version="1.1" xmlns="http://www.w3.org/2000/svg" xmlns:xlink="http://www.w3.org/1999/xlink" width="128" height="128" viewBox="0 0 128 128">
<g id="icomoon-ignore">
	<line stroke-width="1" x1="" y1="" x2="" y2="" stroke="#449FDB" opacity=""></line>
</g>
	<path d="M121.344 42.24h-37.727l-15.992-37.144c-0.608-1.402-1.988-2.536-3.515-2.536-0.002 0-0.006 0-0.009 0-1.523 0-2.904 1.131-3.516 2.528l-16.195 37.152h-37.739c-1.549 0-2.946 0.696-3.544 2.126-0.597 1.428-0.276 2.959 0.813 4.062l29.713 29.992-12.303 42.125c-0.449 1.538 0.105 3.18 1.39 4.138s3.031 1.011 4.378 0.142l37.037-23.889 38.248 23.913c0.625 0.392 1.331 0.584 2.037 0.584 0.833 0 1.666-0.271 2.356-0.808 1.271-0.988 1.791-2.666 1.303-4.201l-13.442-42.117 29.45-29.99c1.084-1.103 1.4-2.523 0.801-3.949s-1.996-2.127-3.542-2.127zM87.531 74.805c-0.997 1.016-1.352 2.387-0.919 3.744l10.962 34.291-31.437-19.684c-0.623-0.39-1.33-0.599-2.037-0.599-0.723 0-1.448 0.197-2.081 0.607l-30.433 19.624 10.052-34.442c0.392-1.338 0.026-2.551-0.955-3.542l-24.836-24.883h31.051c1.523 0 2.904-1.137 3.516-2.533l13.664-31.269 13.494 31.32c0.608 1.404 1.992 2.482 3.522 2.482h31.095l-24.659 24.885z" fill="#000000"></path>
</svg>
