<?xml version="1.0" encoding="utf-8"?>
<!-- Generated by IcoMoon.io -->
<!DOCTYPE svg PUBLIC "-//W3C//DTD SVG 1.1//EN" "http://www.w3.org/Graphics/SVG/1.1/DTD/svg11.dtd">
<svg version="1.1" xmlns="http://www.w3.org/2000/svg" xmlns:xlink="http://www.w3.org/1999/xlink" width="128" height="128" viewBox="0 0 128 128">
<g id="icomoon-ignore">
	<line stroke-width="1" x1="" y1="" x2="" y2="" stroke="#449FDB" opacity=""></line>
</g>
	<path d="M103.694 125.43c-1.169 0-2.341-0.32-3.382-0.966l-36.159-22.509-34.981 22.46c-2.246 1.442-5.154 1.339-7.292-0.262-2.139-1.6-3.058-4.361-2.306-6.925l11.642-39.709-28.077-28.27c-1.821-1.834-2.36-4.584-1.367-6.97s3.323-3.941 5.909-3.941h35.354l15.21-34.528c1.025-2.326 3.323-3.871 5.873-3.82 2.541 0.005 4.84 1.516 5.853 3.846l15.017 34.517h35.333c2.581 0 4.909 1.55 5.905 3.931 0.995 2.381 0.463 5.126-1.349 6.963l-27.795 28.181 12.71 39.648c0.819 2.556-0.043 5.352-2.161 7.002-1.151 0.897-2.541 1.353-3.936 1.353zM23.055 51.137l19.907 20.045c1.644 1.655 2.257 4.073 1.6 6.31l-7.883 26.893 23.967-15.388c2.079-1.334 4.741-1.353 6.84-0.047l24.795 15.434-8.572-26.739c-0.726-2.268-0.133-4.753 1.538-6.449l19.771-20.045h-24.225c-2.547 0-4.853-1.51-5.869-3.846l-10.858-24.959-11 24.97c-1.024 2.322-3.322 3.819-5.857 3.819h-24.152z" fill="#000000"></path>
</svg>
