<?xml version="1.0" encoding="utf-8"?>
<!-- Generated by IcoMoon.io -->
<!DOCTYPE svg PUBLIC "-//W3C//DTD SVG 1.1//EN" "http://www.w3.org/Graphics/SVG/1.1/DTD/svg11.dtd">
<svg version="1.1" xmlns="http://www.w3.org/2000/svg" xmlns:xlink="http://www.w3.org/1999/xlink" width="128" height="128" viewBox="0 0 128 128">
<g id="icomoon-ignore">
	<line stroke-width="1" x1="" y1="" x2="" y2="" stroke="#449FDB" opacity=""></line>
</g>
	<path d="M125.563 67.34l-63.19-65.391c-1.303-1.348-3.128-2.059-5.002-1.94l-48.050 3.006c-3.232 0.202-5.803 2.785-5.99 6.019l-2.68 46.386c-0.106 1.833 0.581 3.622 1.884 4.915l66.421 65.818c1.222 1.211 2.85 1.854 4.507 1.854 0.818 0 1.642-0.156 2.427-0.479 2.377-0.975 3.941-3.278 3.971-5.847l0.484-41.841 40.874-1.654c2.519-0.102 4.745-1.674 5.682-4.015 0.939-2.342 0.415-5.015-1.336-6.829zM73.756 67.292c-3.402 0.137-6.102 2.916-6.14 6.321l-0.38 32.811-53.64-53.152 2.186-37.839 39.439-2.466 51.218 53.002-32.683 1.323z" fill="#000000"></path>
	<path d="M42.24 29.44c-7.068-0.003-12.8 5.731-12.8 12.8 0 7.066 5.729 12.796 12.799 12.8 7.071 0.001 12.801-5.732 12.801-12.803 0-7.064-5.73-12.801-12.8-12.797z" fill="#000000"></path>
</svg>
