<?xml version="1.0" encoding="utf-8"?>
<!-- Generated by IcoMoon.io -->
<!DOCTYPE svg PUBLIC "-//W3C//DTD SVG 1.1//EN" "http://www.w3.org/Graphics/SVG/1.1/DTD/svg11.dtd">
<svg version="1.1" xmlns="http://www.w3.org/2000/svg" xmlns:xlink="http://www.w3.org/1999/xlink" width="128" height="128" viewBox="0 0 128 128">
<g id="icomoon-ignore">
	<line stroke-width="1" x1="" y1="" x2="" y2="" stroke="#449FDB" opacity=""></line>
</g>
	<path d="M126.596 74.377l-70.808-72.701c-0.733-0.754-1.741-1.198-2.799-1.162h-47.916c-2.103 0.026-3.793 1.814-3.793 3.917v45.61c0 0.998 0.389 1.957 1.084 2.674l71.808 73.993c0.737 0.76 1.737 1.166 2.756 1.166 0.478 0 0.957-0.088 1.418-0.271 1.444-0.575 2.4-1.962 2.421-3.516l0.598-43.712 42.444 0.266c0.011 0 0.024 0 0.036 0 1.536 0 2.926-0.787 3.53-2.203 0.609-1.425 0.303-2.948-0.778-4.060zM77.613 72.96c-0.011 0-0.024 0-0.036 0-2.098 0-3.811 1.599-3.839 3.701l-0.522 38.078-64.256-66.255v-40.26l42.474-0.031 63.231 65.025-37.052-0.257z" fill="#000000"></path>
	<path d="M32.128 23.294c-4.241-0.003-7.68 3.441-7.68 7.681 0 4.238 3.439 7.678 7.679 7.681 4.242 0.001 7.681-3.441 7.681-7.684 0-4.236-3.438-7.683-7.68-7.679z" fill="#000000"></path>
</svg>
