<?xml version="1.0" encoding="utf-8"?>
<!-- Generated by IcoMoon.io -->
<!DOCTYPE svg PUBLIC "-//W3C//DTD SVG 1.1//EN" "http://www.w3.org/Graphics/SVG/1.1/DTD/svg11.dtd">
<svg version="1.1" xmlns="http://www.w3.org/2000/svg" xmlns:xlink="http://www.w3.org/1999/xlink" width="128" height="128" viewBox="0 0 128 128">
<g id="icomoon-ignore">
	<line stroke-width="1" x1="" y1="" x2="" y2="" stroke="#449FDB" opacity=""></line>
</g>
	<path d="M109.696 42.24h-4.901c0.236-1.28 0.567-1.227 1.004-1.818 0.699-0.942 1.385-1.406 3.187-1.406 3.394 0 6.558-1.343 8.959-3.743 2.401-2.399 3.656-5.647 3.656-9.043v-13.448c0-3.607-1.394-7.048-4.063-9.472-2.367-2.15-5.376-3.328-8.545-3.328-0.404 0-0.779 0.018-1.186 0.058-1.051 0.1-10.338 1.125-20.068 6.085-14.616 7.455-22.458 20.11-22.458 35.64v0.474h-6.784c-7.069 0-12.416 5.791-12.416 12.861v12.8c0 7.067 5.346 12.739 12.416 12.739h6.784v34.472c0 7.067 5.347 12.888 12.416 12.888h14.080c7.070 0 13.184-5.822 13.184-12.888v-34.472h4.736c7.070 0 13.184-5.672 13.184-12.739v-12.8c0-7.071-6.114-12.861-13.184-12.861zM110.080 67.84h-17.92v47.36h-14.080v-47.36h-19.2v-12.8h19.2v-13.274c0-25.985 30.72-28.983 30.72-28.983v12.817c0 0 0.21 0 0.187 0-14.739 0-16.827 15.734-16.827 15.734v13.706h17.92v12.8z" fill="#000000"></path>
</svg>
