<?xml version="1.0" encoding="utf-8"?>
<!-- Generated by IcoMoon.io -->
<!DOCTYPE svg PUBLIC "-//W3C//DTD SVG 1.1//EN" "http://www.w3.org/Graphics/SVG/1.1/DTD/svg11.dtd">
<svg version="1.1" xmlns="http://www.w3.org/2000/svg" xmlns:xlink="http://www.w3.org/1999/xlink" width="128" height="128" viewBox="0 0 128 128">
<g id="icomoon-ignore">
	<line stroke-width="1" x1="" y1="" x2="" y2="" stroke="#449FDB" opacity=""></line>
</g>
	<path d="M28.427 48.654c8.489 0 15.374 6.853 15.374 15.347 0 8.49-6.885 15.345-15.374 15.345-8.466 0-15.346-6.854-15.346-15.345 0-8.495 6.88-15.347 15.346-15.347zM28.427 35.854c-15.52 0-28.146 12.627-28.146 28.147 0 15.519 12.626 28.145 28.146 28.145 15.535 0 28.174-12.626 28.174-28.145 0-15.52-12.639-28.147-28.174-28.147v0z" fill="#000000"></path>
	<path d="M99.574 48.654c8.46 0 15.345 6.853 15.345 15.347 0 8.49-6.885 15.345-15.345 15.345-8.495 0-15.375-6.854-15.375-15.345 0-8.495 6.88-15.347 15.375-15.347zM99.574 35.854c-15.537 0-28.175 12.627-28.175 28.147 0 15.519 12.639 28.145 28.175 28.145 15.519 0 28.145-12.626 28.145-28.145 0-15.52-12.626-28.147-28.145-28.147v0z" fill="#000000"></path>
</svg>
