<?xml version="1.0" encoding="utf-8"?>
<!-- Generated by IcoMoon.io -->
<!DOCTYPE svg PUBLIC "-//W3C//DTD SVG 1.1//EN" "http://www.w3.org/Graphics/SVG/1.1/DTD/svg11.dtd">
<svg version="1.1" xmlns="http://www.w3.org/2000/svg" xmlns:xlink="http://www.w3.org/1999/xlink" width="128" height="128" viewBox="0 0 128 128">
<g id="icomoon-ignore">
	<line stroke-width="1" x1="" y1="" x2="" y2="" stroke="#449FDB" opacity=""></line>
</g>
	<path d="M0 115.2h128v12.8h-128v-12.8z" fill="#000000"></path>
	<path d="M29.44 3.84h-23.040c-3.534 0-6.4 2.866-6.4 6.4v90.88c0 3.535 2.866 6.4 6.4 6.4h23.040c3.534 0 6.4-2.865 6.4-6.4v-90.88c0-3.534-2.866-6.4-6.4-6.4zM23.040 94.72h-10.24v-78.080h10.24v78.080z" fill="#000000"></path>
	<path d="M75.52 30.72h-23.040c-3.534 0-6.4 2.866-6.4 6.4v64c0 3.535 2.866 6.4 6.4 6.4h23.040c3.534 0 6.4-2.865 6.4-6.4v-64c0-3.534-2.866-6.4-6.4-6.4zM69.12 94.72h-10.24v-51.2h10.24v51.2z" fill="#000000"></path>
	<path d="M121.6 65.28h-23.040c-3.534 0-6.4 2.865-6.4 6.4v29.44c0 3.535 2.866 6.4 6.4 6.4h23.040c3.534 0 6.4-2.865 6.4-6.4v-29.44c0-3.535-2.866-6.4-6.4-6.4zM115.2 94.72h-10.24v-16.64h10.24v16.64z" fill="#000000"></path>
</svg>
