<?xml version="1.0" encoding="utf-8"?>
<!-- Generated by IcoMoon.io -->
<!DOCTYPE svg PUBLIC "-//W3C//DTD SVG 1.1//EN" "http://www.w3.org/Graphics/SVG/1.1/DTD/svg11.dtd">
<svg version="1.1" xmlns="http://www.w3.org/2000/svg" xmlns:xlink="http://www.w3.org/1999/xlink" width="128" height="128" viewBox="0 0 128 128">
<g id="icomoon-ignore">
	<line stroke-width="1" x1="" y1="" x2="" y2="" stroke="#449FDB" opacity=""></line>
</g>
	<path d="M68.476 50.446c0.44 0.134 0.906 0.269 1.363 0.404-7.038-4.399-19.008-10.322-30.509-8.696-4.801 0.68-9.124 2.643-12.804 5.723-4.582-7.804-8.376-15.237-9.856-21.371-0.531-2.204 0.308-4.916 2.298-7.443 2.687-3.412 6.632-5.984 10.472-5.984v-0.279c3.386 0 6.673 1.563 9.053 3.891 2.344 2.294 3.746 5.611 3.746 8.837v6.472h12.8v-6.472c0-6.698-2.769-13.266-7.596-17.988-4.787-4.684-11.254-7.54-18.003-7.54-0.003 0-0.004 0-0.009 0-7.516 0-15.38 4.335-20.522 10.863-4.434 5.628-6.14 12.462-4.684 18.504 2.842 11.782 11.594 25.769 20.059 39.228 7.4 11.766 15.053 23.969 17.635 33.103 0.792 2.806-1.117 6.043-1.975 7.176-2.685 3.551-7.145 6.326-10.847 6.326 0 0-0.001 0-0.001 0-6.936 0-12.582-5.738-12.585-12.452l-0.003-6.54-12.8-0.064 0.002 6.643c0.005 13.769 11.391 25.212 25.381 25.212 0.001 0 0.004 0 0.008 0 7.684 0 15.946-4.638 21.052-11.384 4.255-5.623 5.745-12.353 4.086-18.225-3.084-10.908-10.872-23.36-19.118-36.471-0.593-0.943-1.188-1.924-1.78-2.87 2.162-2.362 4.714-3.785 7.758-4.219 5.026-0.721 10.837 1.106 15.876 3.508 1.27-2.016 2.926-4.119 5.106-6.299 1.673-1.674 4.134-2.289 6.396-1.595z" fill="#000000"></path>
	<path d="M68.95 63.922c-0.088-0.026-0.183-0.051-0.269-0.075-0.311 0.403-0.581 0.796-0.832 1.182 0.037 0.029 0.087 0.067 0.123 0.096l0.978-1.202z" fill="#000000"></path>
	<path d="M119.371 64.805c-1.809-8.874-7.311-35.877-25.057-35.877-5.684 0-11.347 2.862-17.313 8.75-1.798 1.775-2.383 4.442-1.494 6.807 1.019 2.711 2.111 5.874 2.982 8.636-2.703-0.646-5.801-1.487-8.649-2.33-0.457-0.134-0.924-0.27-1.363-0.404-2.262-0.694-4.723-0.079-6.396 1.595-2.18 2.18-3.836 4.283-5.106 6.299-4.294 6.821-3.946 12.599-2.583 16.586 6.959 20.362 52.588 27.163 61.664 28.319 0.27 0.034 0.54 0.051 0.809 0.051 1.592 0 3.14-0.595 4.328-1.684 1.388-1.275 2.144-3.095 2.067-4.978-0.028-0.648-0.69-16.070-3.889-31.77zM66.504 70.728c-0.552-1.613 2.358-7.154 2.446-7.13 4.945 1.393 12.184 2.962 15.999 2.962 0.006 0 0.013 0 0.020 0 0.863 0 3.405 0.252 5.51-1.547 3.094-2.639 4.014-5.627-1.463-20.998 2.069-1.563 3.917-2.351 5.299-2.351 7.149 0 13.654 23.777 15.662 47.601-18.14-3.266-40.663-10.31-43.474-18.536z" fill="#000000"></path>
</svg>
