<?xml version="1.0" encoding="utf-8"?>
<!-- Generated by IcoMoon.io -->
<!DOCTYPE svg PUBLIC "-//W3C//DTD SVG 1.1//EN" "http://www.w3.org/Graphics/SVG/1.1/DTD/svg11.dtd">
<svg version="1.1" xmlns="http://www.w3.org/2000/svg" xmlns:xlink="http://www.w3.org/1999/xlink" width="128" height="128" viewBox="0 0 128 128">
<g id="icomoon-ignore">
	<line stroke-width="1" x1="" y1="" x2="" y2="" stroke="#449FDB" opacity=""></line>
</g>
	<path d="M126.21 72.187l-57.992-69.874c-1.216-1.466-3.021-2.313-4.925-2.313-0.013 0-0.027 0-0.038 0-1.917 0.011-3.729 0.882-4.934 2.373l-56.58 69.874c-1.553 1.918-1.865 4.819-0.802 7.045 1.062 2.228 3.309 3.908 5.777 3.908h18.885v38.372c0 3.534 3.183 6.399 6.717 6.4l61.762 0.028c1.696 0 3.004-0.673 4.205-1.874 1.201-1.199 1.555-2.829 1.555-4.526v-38.4h21.445c2.481 0 4.739-1.696 5.792-3.942 1.056-2.245 0.717-5.161-0.867-7.071zM94.080 70.4c-3.535 0-7.040 2.34-7.040 5.875v38.922l-48.64-0.024v-38.898c0-3.535-2.225-5.875-5.76-5.875h-12.507l43.223-53.38 44.299 53.38h-13.576z" fill="#000000"></path>
</svg>
