<?xml version="1.0" encoding="utf-8"?>
<!-- Generated by IcoMoon.io -->
<!DOCTYPE svg PUBLIC "-//W3C//DTD SVG 1.1//EN" "http://www.w3.org/Graphics/SVG/1.1/DTD/svg11.dtd">
<svg version="1.1" xmlns="http://www.w3.org/2000/svg" xmlns:xlink="http://www.w3.org/1999/xlink" width="512" height="512" viewBox="0 0 512 512">
<g id="icomoon-ignore">
	<line stroke-width="1" x1="0" y1="656" x2="672" y2="656" stroke="#449FDB" opacity="0.3"></line>
</g>
	<path d="M394.245 507.392c-6.236 0-12.39-2.279-17.188-6.625l-121.149-109.732-121.058 108.519c-7.526 6.743-18.309 8.428-27.53 4.311s-15.16-13.271-15.16-23.373v-460.012c0-14.136 11.459-25.6 25.6-25.6h276.48c14.142 0 25.6 11.463 25.6 25.6v461.312c0 10.127-5.965 19.298-15.222 23.404-3.333 1.474-6.866 2.197-10.373 2.197zM256 330.972c6.154 0 12.308 2.212 17.183 6.625l95.457 86.466v-377.984h-225.28v377.083l95.549-85.653c4.864-4.362 10.982-6.538 17.090-6.538z" fill="#000000"></path>
</svg>
