<?xml version="1.0" encoding="utf-8"?>
<!-- Generated by IcoMoon.io -->
<!DOCTYPE svg PUBLIC "-//W3C//DTD SVG 1.1//EN" "http://www.w3.org/Graphics/SVG/1.1/DTD/svg11.dtd">
<svg version="1.1" xmlns="http://www.w3.org/2000/svg" xmlns:xlink="http://www.w3.org/1999/xlink" width="512" height="512" viewBox="0 0 512 512">
<g id="icomoon-ignore">
	<line stroke-width="1" x1="0" y1="656" x2="672" y2="656" stroke="#449FDB" opacity="0.3"></line>
</g>
	<path d="M461.788 317.906l-128.307-197.53c-40.192-61.886-98.064-95.385-158.736-92.165-53.243 2.908-101.192 34.217-125.143 81.715-27.182 53.913-19.594 120.043 20.772 181.356l51.133 78.73 25.764-16.738-51.184-78.807c-34.709-52.721-41.472-106.24-19.052-150.718 19.010-37.703 57.093-62.562 99.39-64.871 50.161-2.652 96.758 25.047 131.303 78.218l128.061 197.145c1.644 2.698 39.204 66.263-25.902 112.671-10.567 3.712-68.71 21.478-98.611-24.566l-140.534-216.335c-0.041-0.061-3.973-6.579-4.542-14.884-0.763-11.172 4.951-20.557 17.475-28.688 22.226-14.444 36.613 3.251 40.428 8.919l90.844 139.868 25.764-16.738-90.85-139.858c-0.825-1.27-8.453-12.651-21.918-20.633-19.174-11.376-40.837-10.409-61.005 2.683-27.899 18.114-32.466 40.745-31.386 56.535 1.111 16.317 8.581 28.232 9.426 29.532l140.529 216.34c22.451 34.57 56.868 44.913 87.429 44.913 19.563 0 37.545-4.24 49.782-9.078l1.639-0.65 1.449-0.998c90.788-62.776 36.787-154.071 35.983-155.372z" fill="#000000"></path>
</svg>
