<?xml version="1.0" encoding="utf-8"?>
<!-- Generated by IcoMoon.io -->
<!DOCTYPE svg PUBLIC "-//W3C//DTD SVG 1.1//EN" "http://www.w3.org/Graphics/SVG/1.1/DTD/svg11.dtd">
<svg version="1.1" xmlns="http://www.w3.org/2000/svg" xmlns:xlink="http://www.w3.org/1999/xlink" width="512" height="512" viewBox="0 0 512 512">
<g id="icomoon-ignore">
	<line stroke-width="1" x1="0" y1="656" x2="672" y2="656" stroke="#449FDB" opacity="0.3"></line>
</g>
	<path d="M255.98 230.589c-17.3-7.808-36.219-12.185-56.043-12.185-81.869 0-148.48 69.581-148.48 156.462 0 16.957 13.763 29.614 30.72 29.614h102.144v-30.72h-102.144c0-66.56 52.731-124.79 117.76-124.79 11.843 0 23.275 1.817 34.053 5.325l21.99-23.706z" fill="#000000"></path>
	<path d="M199.926 20.331c-44.759 0-81.172 37.811-81.172 84.285 0 46.48 36.408 84.29 81.172 84.29 44.769 0 81.188-37.811 81.188-84.29s-36.418-84.285-81.188-84.285zM199.926 158.188c-27.879 0-50.452-23.931-50.452-53.571 0-29.568 22.569-53.566 50.452-53.566 27.899 0 50.468 23.998 50.468 53.566 0 29.639-22.569 53.571-50.468 53.571z" fill="#000000"></path>
	<path d="M481.567 331.577l-38.277-3.85 25.093-30.725c3.604-4.393 3.272-10.803-0.732-14.802l-31.283-31.278c-0.522-0.522-1.080-0.978-1.664-1.367-0.226-0.159-0.471-0.256-0.702-0.394-0.374-0.226-0.763-0.43-1.157-0.609-0.281-0.123-0.568-0.195-0.855-0.281-0.384-0.133-0.748-0.256-1.137-0.327-0.307-0.082-0.61-0.107-0.921-0.138-0.363-0.046-0.748-0.092-1.116-0.102-0.389-0.010-0.763 0.016-1.137 0.041-0.256 0.020-0.512 0.025-0.758 0.061-0.414 0.056-0.809 0.174-1.219 0.272-0.231 0.061-0.44 0.113-0.671 0.185-0.445 0.133-0.855 0.338-1.285 0.548-0.185 0.077-0.348 0.128-0.527 0.24-0.584 0.317-1.147 0.681-1.68 1.126l-31.094 25.405-4.050-39.885c-0.599-5.642-5.335-10.603-11.003-10.603h-44.231c-5.668 0-10.404 4.966-11.003 10.603l-3.881 38.293-29.332-23.828c-2.027-1.659-4.5-2.473-6.974-2.473-2.837 0-5.683 1.090-7.834 3.241l-31.268 31.278c-0.21 0.19-0.369 0.425-0.542 0.645-1.613 1.899-2.55 4.219-2.667 6.569-0.030 0.697 0.005 1.479 0.092 2.294 0.281 1.879 1.024 3.697 2.304 5.269l24.755 30.592-39.87 4.004c-5.673 0.589-9.902 5.33-9.902 11.008v44.242c0 5.678 4.301 10.44 9.953 11.008l39.465 3.978-24.335 29.778c-3.584 4.393-3.272 10.798 0.748 14.822l31.278 31.283c0.507 0.527 1.086 0.962 1.669 1.372 0.185 0.118 0.399 0.2 0.61 0.327 0.394 0.24 0.814 0.481 1.25 0.645 0.256 0.118 0.502 0.179 0.752 0.261 0.409 0.144 0.798 0.272 1.219 0.368 0.281 0.057 0.558 0.077 0.845 0.108 0.409 0.051 0.798 0.103 1.209 0.108 0.348 0.031 0.697-0.015 1.045-0.036 0.276-0.021 0.574-0.031 0.825-0.067 0.399-0.057 0.768-0.164 1.162-0.261 0.246-0.057 0.502-0.103 0.727-0.195 0.43-0.128 0.845-0.327 1.239-0.527 0.195-0.087 0.379-0.144 0.568-0.261 0.579-0.317 1.142-0.681 1.674-1.122l29.502-24.079 3.702 36.608c0.599 5.642 5.335 10.603 11.003 10.603h42.859c0.686 0 1.377-0.072 2.027-0.22 4.649-0.983 8.3-5.279 8.919-10.112l4.946-38.871 29.691 24.13c2.027 1.659 4.48 2.473 6.938 2.473 2.852 0 5.637-1.091 7.783-3.241l30.208-30.3c1.961-1.961 2.877-4.51 3.036-7.101 0.179-2.611-0.926-5.274-2.616-7.475l-23.194-29.159 39.111-3.861c5.642-0.568 10.649-5.33 10.649-11.008v-44.242c0.015-5.658-4.286-10.399-9.938-10.988zM264.889 330.142h-0.092v-0.092l0.092 0.092zM469.401 376.827l-44.913 4.531c-4.065 0.399-7.572 3.021-9.124 6.8-0.343 0.85-0.738 1.69-1.111 2.529-0.86 1.869-1.183 3.911-0.962 5.878 0.226 1.966 0.978 3.897 2.243 5.524l26.66 34.596-16.358 16.368-33.991-27.597c-0.604-0.502-1.28-0.855-1.956-1.198-0.2-0.108-0.404-0.113-0.61-0.2-0.533-0.236-1.075-0.272-1.634-0.425-0.185-0.046-0.389 0.19-0.599 0.149-0.727-0.149-1.433 0.358-2.181 0.358-0.021 0-0.036 0-0.057 0-0.875 0-1.772-0.466-2.637-0.266-0.368 0.108-0.758-0.363-1.127-0.24-0.261 0.108-0.517 0.22-0.768 0.343l-0.886 0.399c-1.162 0.533-2.314 1.116-3.492 1.582-0.384 0.2-0.748 0.568-1.086 0.798-2.673 1.782-4.454 4.956-4.854 8.146l-5.663 44.534h-23.163l-4.439-43.74c-0.118-1.029-0.374-2.022-0.738-2.99-0.046-0.113-0.138-0.24-0.185-0.353-1.178-2.816-3.389-5.192-6.262-6.226-0.635-0.24-1.275-0.584-1.899-0.886-0.236-0.092-0.466-0.195-0.702-0.307-3.763-1.572-8.074-1.029-11.228 1.562l-34.974 28.524-17.127-17.168 0.010-0.010-0.010-0.010 27.899-34.171c1.367-1.669 2.181-3.656 2.422-5.724 0.24-2.043-0.098-4.168-1.050-6.103-0.113-0.261-0.231-0.522-0.343-0.778-0.455-0.962-0.896-1.904-1.296-2.877-1.551-3.789-5.063-6.43-9.139-6.83l-44.912-4.531v-24.238l44.4-4.459c4.24-0.435 7.844-3.246 9.303-7.25 0.558-1.562 1.157-3.113 1.838-4.618 1.695-3.804 1.111-8.253-1.526-11.495l-27.618-33.992 17.168-17.162 33.991 27.623c0.773 0.62 1.613 1.096 2.478 1.495 0.164 0.067 0.327 0.133 0.476 0.195 0.845 0.343 1.71 0.548 2.611 0.676 0.159 0.021 0.333 0.031 0.512 0.041 0.707 0.057 1.428 0.015 2.151-0.062 0.292-0.031 0.574-0.041 0.86-0.113 0.921-0.164 1.843-0.435 2.704-0.86 0.43-0.2 0.932-0.389 1.731-0.732 0.021-0.010 0.502-0.215 0.522-0.226l0.707-0.343c0.103-0.041 0.22-0.159 0.317-0.2 1.337-0.538 2.452-1.572 3.471-2.55 0.906-0.875 1.674-1.976 2.253-3.2 0.584-1.214 0.983-2.55 1.116-3.886l4.51-44.262h24.289l4.51 44.262c0.414 4.137 3.134 8.043 7.040 9.523 1.562 0.594 3.067 1.433 4.572 2.146 3.856 1.813 8.402 1.341 11.689-1.362l34.565-28.185 17.127 17.147-0.010 0.010 0.010 0.010-28.544 34.974c-1.961 2.386-2.796 5.417-2.411 8.382 0.113 0.973 0.374 1.966 0.784 2.918 0.527 1.219 0.973 2.483 1.418 3.763 1.403 4.060 5.058 6.933 9.349 7.373l43.873 4.413v24.253z" fill="#000000"></path>
	<path d="M377.856 364.349c0 14.139-11.462 25.6-25.6 25.6s-25.6-11.462-25.6-25.6c0-14.139 11.462-25.6 25.6-25.6s25.6 11.462 25.6 25.6z" fill="#000000"></path>
</svg>
