<?xml version="1.0" encoding="utf-8"?>
<!-- Generated by IcoMoon.io -->
<!DOCTYPE svg PUBLIC "-//W3C//DTD SVG 1.1//EN" "http://www.w3.org/Graphics/SVG/1.1/DTD/svg11.dtd">
<svg version="1.1" xmlns="http://www.w3.org/2000/svg" xmlns:xlink="http://www.w3.org/1999/xlink" width="512" height="512" viewBox="0 0 512 512">
<g id="icomoon-ignore">
	<line stroke-width="1" x1="0" y1="656" x2="672" y2="656" stroke="#449FDB" opacity="0.3"></line>
</g>
	<path d="M484.598 157.548c-2.806-7.004-8.084-12.728-14.838-16.097-5.673-2.821-140.35-69.156-260.039-69.156-69.852 0-121.841 22.262-154.532 66.15-48.041 64.528-49.633 168.653-4.864 318.356 3.159 10.578 11.761 18.652 22.518 21.135 1.792 0.409 17.977 4.024 36.071 4.024 37.012 0 53.555-15.493 60.912-28.488 4.096-7.235 6.262-15.166 6.507-23.757 4.178 0.19 8.422 0.302 12.631 0.302 15.862 0 57.989-0.333 71.47-31.964 1.214-2.837 2.099-3.815 2.678-8.935 0.44 0 0.886 0 1.326 0 18.606 0 68.034 0.338 81.49-35.251 3.63-9.61 3.512-18.77 1.193-27.443 18.985-4.122 49.858-14.070 58.24-41.308 1.685-5.483 2.274-10.706 2.012-15.714 35.267-3.922 60.073-16.179 73.923-36.633 9.575-14.151 17.925-38.666 3.303-75.223zM380.923 240.097c-18.258 0-32.368-2.018-32.368-2.018 87.040 61.44-56.32 64-56.32 64 54.4 48 11.801 57.001-27.801 57.001-23.762 0-46.439-3.241-46.439-3.241 34.135 35.558 4.27 43.454-29.025 43.454-26.629 0-55.454-5.053-55.454-5.053 28.8 48 0.599 57.001-24.602 57.001-15.12 0-29.159-3.241-29.159-3.241-82.698-276.531 13.936-344.981 129.966-344.981 113.843 0 246.354 65.94 246.354 65.94 24.596 61.491-35.205 71.137-75.151 71.137z" fill="#000000"></path>
</svg>
