<?xml version="1.0" encoding="utf-8"?>
<!-- Generated by IcoMoon.io -->
<!DOCTYPE svg PUBLIC "-//W3C//DTD SVG 1.1//EN" "http://www.w3.org/Graphics/SVG/1.1/DTD/svg11.dtd">
<svg version="1.1" xmlns="http://www.w3.org/2000/svg" xmlns:xlink="http://www.w3.org/1999/xlink" width="512" height="512" viewBox="0 0 512 512">
<g id="icomoon-ignore">
	<line stroke-width="1" x1="0" y1="656" x2="672" y2="656" stroke="#449FDB" opacity="0.3"></line>
</g>
	<path d="M147.727 512c-2.411 0-4.833-0.568-7.060-1.721-5.13-2.658-8.34-7.977-8.299-13.757 0.226-30.74 0.456-71.685 0.322-93.619-36.746-5.279-50.923-15.774-70.016-34.974-33.935-34.109-52.557-79.391-52.434-127.493s18.985-93.281 53.099-127.212c32.384-32.22 122.117-39.572 191.693-40.064l4.603-0.016c44.851 0 153.124 3.968 189.726 40.761 33.915 34.094 52.521 79.365 52.398 127.472-0.123 48.113-18.98 93.296-53.094 127.216-21.033 20.93-109.266 33.808-141.793 37.909l-150.18 102.615c-2.667 1.91-5.806 2.883-8.965 2.883zM259.635 103.865l-4.382 0.016c-86.334 0.609-151.567 12.539-170.245 31.124-28.303 28.144-43.94 65.618-44.047 105.513-0.108 39.9 15.344 77.456 43.499 105.749 16.727 16.819 25.088 23.798 64.768 27.678 6.292 0.615 11.561 5.017 13.286 11.106 0.681 2.411 1.28-0.722 0.784 81.5l128.839-87.286c2.099-1.505 4.541-2.457 7.101-2.77 53.893-6.569 118.093-20.065 127.764-29.686 28.298-28.135 43.935-65.608 44.037-105.513 0.108-39.9-15.329-77.445-43.459-105.723-23.286-23.404-105.022-31.708-167.946-31.708z" fill="#000000"></path>
</svg>
