<?xml version="1.0" encoding="utf-8"?>
<!-- Generated by IcoMoon.io -->
<!DOCTYPE svg PUBLIC "-//W3C//DTD SVG 1.1//EN" "http://www.w3.org/Graphics/SVG/1.1/DTD/svg11.dtd">
<svg version="1.1" xmlns="http://www.w3.org/2000/svg" xmlns:xlink="http://www.w3.org/1999/xlink" width="512" height="512" viewBox="0 0 512 512">
<g id="icomoon-ignore">
	<line stroke-width="1" x1="0" y1="656" x2="672" y2="656" stroke="#449FDB" opacity="0.3"></line>
</g>
	<path d="M486.4 0h-460.8c-14.142 0-25.6 10.951-25.6 25.088v381.332c0 14.142 11.459 23.659 25.6 23.659h100.070l-35.978 43.484 39.086 33.562 30.736-36.086 40.894-48.205c4.040-4.772 6.108-11.1 6.057-17.387-0.016-1.966-0.302-3.917-0.738-5.827-0.389-1.715-0.896-3.405-1.633-5.002-4.194-9.042-13.256-15.739-23.225-15.739h-129.669v-327.68h409.6v327.68h-129.669c-9.969 0-19.031 6.753-23.224 15.8-1.572 3.379-2.345 7.055-2.375 10.726-0.041 6.154 2.027 12.303 6.062 17.065l71.634 85.017 39.086-33.986-35.983-43.423h100.070c14.142 0 25.6-9.518 25.6-23.659v-381.332c0-14.136-11.459-25.088-25.6-25.088z" fill="#000000"></path>
	<path d="M412.339 330.419c4.808-4.798 7.501-11.31 7.501-18.099l-0.010-194.56c0-14.142-11.459-25.6-25.6-25.6h-276.47c-6.789 0-13.302 2.693-18.099 7.501-4.808 4.797-7.501 11.31-7.501 18.099l0.010 194.56c0 14.142 11.459 25.6 25.6 25.6h276.47c6.789 0 13.302-2.693 18.099-7.501zM143.37 286.72l-0.010-143.36h225.27l0.010 143.36h-225.27z" fill="#000000"></path>
</svg>
