<?xml version="1.0" encoding="utf-8"?>
<!-- Generated by IcoMoon.io -->
<!DOCTYPE svg PUBLIC "-//W3C//DTD SVG 1.1//EN" "http://www.w3.org/Graphics/SVG/1.1/DTD/svg11.dtd">
<svg version="1.1" xmlns="http://www.w3.org/2000/svg" xmlns:xlink="http://www.w3.org/1999/xlink" width="512" height="512" viewBox="0 0 512 512">
<g id="icomoon-ignore">
	<line stroke-width="1" x1="0" y1="656" x2="672" y2="656" stroke="#449FDB" opacity="0.3"></line>
</g>
	<path d="M487.941 203.146l-77.983-7.859 50.959-62.387c4.992-6.108 4.541-15.001-1.034-20.578l-56.668-56.663c-5.575-5.581-14.469-6.026-20.577-1.034l-63.063 51.512-8.228-80.865c-0.809-7.834-7.404-15.033-15.278-15.033h-80.138c-7.875 0-14.469 7.199-15.278 15.033l-7.931 77.338-59.843-48.322c-6.108-4.967-14.986-4.357-20.547 1.214l-56.673 56.745c-5.566 5.566-6.026 14.48-1.060 20.588l50.478 62.136-81.019 8.166c-7.844 0.793-13.819 7.409-13.819 15.293v80.138c0 7.89 5.975 14.495 13.819 15.283l80.164 8.079-49.597 60.697c-4.992 6.108-4.541 15.002 1.034 20.577l56.663 56.673c5.581 5.581 14.474 6.026 20.583 1.034l60.135-49.122 7.619 74.937c0.804 7.834 7.399 15.033 15.273 15.033h77.634c7.721 0 14.244-6.983 15.232-14.643l10.014-78.111 60.318 48.707c6.103 4.962 14.976 4.352 20.551-1.219l54.897-54.978c5.458-5.458 6.016-14.162 1.3-20.275l-45.875-59.51 77.947-7.87c7.834-0.788 13.808-7.404 13.808-15.293v-80.138c0-7.885-5.975-14.489-13.819-15.283zM471.040 284.682l-85.591 8.627c-5.652 0.568-10.526 4.214-12.677 9.472-0.656 1.603-1.367 3.19-2.094 4.767-2.391 5.192-1.705 11.284 1.787 15.805l50.832 65.92-35.548 35.553-64.845-52.706c-3.891-3.159-9.067-4.224-13.89-2.852-0.43 0.123-0.88 0.272-1.316 0.44-0.297 0.113-0.589 0.231-0.875 0.363-0.604 0.272-1.214 0.517-1.828 0.763l-2.13 0.875c-0.722 0.307-1.449 0.62-2.186 0.901-0.384 0.149-0.758 0.313-1.132 0.486-0.374 0.179-0.748 0.368-1.086 0.563-4.173 2.391-6.994 7.844-7.608 12.615l-10.788 84.762h-50.279l-8.499-83.43c-0.599-5.811-4.45-11.408-9.928-13.44-1.613-0.599-3.22-1.521-4.808-2.192-5.243-2.222-11.294-1.51-15.703 2.094l-66.621 54.344-37.007-37.084 53.222-65.152c2.365-2.898 3.548-6.498 3.461-10.102-0.051-2.161-0.558-4.327-1.541-6.344-1.116-2.294-2.176-4.613-3.129-6.948-2.15-5.258-7.030-8.899-12.677-9.472l-85.596-8.632v-52.362l84.665-8.53c5.883-0.594 10.9-4.506 12.907-10.066 1.229-3.41 2.325-6.169 3.446-8.673 0.886-1.982 1.326-4.091 1.337-6.185 0.016-3.492-1.157-6.958-3.441-9.769l-52.695-64.845 37.074-37.074 64.85 52.7c4.459 3.62 10.553 4.439 15.79 2.176 0.097-0.041 0.19-0.082 0.281-0.123 0.839-0.379 1.7-0.727 2.56-1.070l2.196-0.911c0.42-0.179 0.834-0.358 1.264-0.522 0.164-0.061 0.327-0.128 0.482-0.19 5.263-2.13 8.934-8.243 9.518-13.911l8.591-84.368h52.429l8.591 84.373c0.594 5.765 4.382 11.326 9.8 13.394 2.555 0.973 5.274 2.463 8.56 4.004 5.356 2.509 11.668 1.894 16.251-1.849l65.899-53.755 37.007 37.079-54.41 66.621c-2.704 3.308-3.865 7.542-3.344 11.663 0.174 1.377 0.538 2.739 1.091 4.050 0.983 2.329 1.869 4.706 2.698 7.101 1.961 5.648 7.024 9.641 12.969 10.24l83.712 8.438v52.362z" fill="#000000"></path>
	<path d="M255.995 220.16c19.81 0 35.845 16.046 35.845 35.84s-16.046 35.84-35.845 35.84c-19.748 0-35.835-16.046-35.835-35.84s16.087-35.84 35.835-35.84zM255.995 189.44c-36.695 0-66.555 29.86-66.555 66.56s29.86 66.56 66.555 66.56c36.706 0 66.565-29.86 66.565-66.56s-29.86-66.56-66.565-66.56v0z" fill="#000000"></path>
</svg>
