<?xml version="1.0" encoding="utf-8"?>
<!-- Generated by IcoMoon.io -->
<!DOCTYPE svg PUBLIC "-//W3C//DTD SVG 1.1//EN" "http://www.w3.org/Graphics/SVG/1.1/DTD/svg11.dtd">
<svg version="1.1" xmlns="http://www.w3.org/2000/svg" xmlns:xlink="http://www.w3.org/1999/xlink" width="512" height="512" viewBox="0 0 512 512">
<g id="icomoon-ignore">
	<line stroke-width="1" x1="0" y1="656" x2="672" y2="656" stroke="#449FDB" opacity="0.3"></line>
</g>
	<path d="M181.15 148.48h30.72v194.56h-30.72v-194.56z" fill="#000000"></path>
	<path d="M123.806 183.808h30.72v158.72h-30.72v-158.72z" fill="#000000"></path>
	<path d="M67.487 256h30.72v87.040h-30.72v-87.040z" fill="#000000"></path>
	<path d="M462.197 227.548c-18.361-9.625-40.243-9.088-59.971 0.784-21.499-57.323-73.733-88.555-149.397-88.555-8.484 0-15.36 6.876-15.36 15.36v172.544c0 8.484 6.876 15.36 15.36 15.36h229.381c8.484 0 15.36-6.876 15.36-15.36 0-3.538 0.072-7.188 0.138-10.906 0.563-29.512 1.337-69.924-35.512-89.226zM467.062 312.32h-198.871v-141.307c45.342 3.138 96.062 21.653 110.326 85.191 1.193 5.346 5.151 9.646 10.373 11.284 5.228 1.649 10.926 0.389 14.971-3.308 8.873-8.11 20.050-12.953 29.896-12.953 4.935 0 9.707 1.188 14.188 3.533 17.843 9.344 19.522 28.902 19.118 57.559z" fill="#000000"></path>
	<path d="M12.191 230.4h30.72v112.64h-30.72v-112.64z" fill="#000000"></path>
</svg>
