<?xml version="1.0" encoding="utf-8"?>
<!-- Generated by IcoMoon.io -->
<!DOCTYPE svg PUBLIC "-//W3C//DTD SVG 1.1//EN" "http://www.w3.org/Graphics/SVG/1.1/DTD/svg11.dtd">
<svg version="1.1" xmlns="http://www.w3.org/2000/svg" xmlns:xlink="http://www.w3.org/1999/xlink" width="512" height="512" viewBox="0 0 512 512">
<g id="icomoon-ignore">
	<line stroke-width="1" x1="0" y1="656" x2="672" y2="656" stroke="#449FDB" opacity="0.3"></line>
</g>
	<path d="M460.8 51.2h-409.6c-28.273 0-51.2 20.367-51.2 48.64v358.4c0 13.589 5.402 27.899 15.017 37.504 9.6 9.59 22.615 16.256 36.183 16.256 0.020 0 0.036 0 0.056 0h408.54c28.252-0.031 52.203-25.948 52.203-54.206v-357.954c0-28.273-22.928-48.64-51.2-48.64zM460.8 457.795l-409.6 0.445v-355.84h409.6v355.394z" fill="#000000"></path>
	<path d="M193.889 421.305c3.502 1.664 7.301 2.478 11.029 2.478 5.78 0 11.53-1.956 16.185-5.745l143.37-116.659c5.97-4.859 9.447-12.155 9.447-19.856s-3.466-14.997-9.436-19.856l-143.36-116.659c-7.67-6.236-18.304-7.511-27.233-3.267-8.919 4.25-14.69 13.245-14.69 23.122v233.318c0 9.882 5.77 18.877 14.69 23.122zM230.4 218.701l77.2 62.828-77.2 62.822v-125.65z" fill="#000000"></path>
</svg>
