<?xml version="1.0" encoding="utf-8"?>
<!-- Generated by IcoMoon.io -->
<!DOCTYPE svg PUBLIC "-//W3C//DTD SVG 1.1//EN" "http://www.w3.org/Graphics/SVG/1.1/DTD/svg11.dtd">
<svg version="1.1" xmlns="http://www.w3.org/2000/svg" xmlns:xlink="http://www.w3.org/1999/xlink" width="512" height="512" viewBox="0 0 512 512">
<g id="icomoon-ignore">
	<line stroke-width="1" x1="0" y1="656" x2="672" y2="656" stroke="#449FDB" opacity="0.3"></line>
</g>
	<path d="M458.087 387.722h-304.64c-13.379 0-24.218-10.839-24.218-24.202v-334.198c-0.005-13.363 10.834-24.202 24.218-24.202h304.64c13.378 0 24.217 10.839 24.217 24.202v334.198c0 13.358-10.839 24.202-24.217 24.202zM177.664 339.303h256.2v-285.762h-256.2v285.762z" fill="#000000"></path>
	<path d="M218.823 123.53h174.080v51.2h-174.080v-51.2z" fill="#000000"></path>
	<path d="M218.823 221.322h174.080v51.2h-174.080v-51.2z" fill="#000000"></path>
	<path d="M402.012 496.64h-352.256c-14.136 0-25.6-11.459-25.6-25.6v-381.44h51.2v355.84h326.656v51.2z" fill="#000000"></path>
</svg>
