<?xml version="1.0" encoding="utf-8"?>
<!-- Generated by IcoMoon.io -->
<!DOCTYPE svg PUBLIC "-//W3C//DTD SVG 1.1//EN" "http://www.w3.org/Graphics/SVG/1.1/DTD/svg11.dtd">
<svg version="1.1" xmlns="http://www.w3.org/2000/svg" xmlns:xlink="http://www.w3.org/1999/xlink" width="512" height="512" viewBox="0 0 512 512">
<g id="icomoon-ignore">
	<line stroke-width="1" x1="0" y1="656" x2="672" y2="656" stroke="#449FDB" opacity="0.3"></line>
</g>
	<path d="M502.252 269.358l-252.759-261.565c-5.212-5.391-12.513-8.238-20.009-7.762l-192.2 12.022c-12.928 0.809-23.214 11.141-23.962 24.074l-10.722 185.543c-0.425 7.332 2.325 14.489 7.537 19.661l265.682 263.271c4.889 4.844 11.402 7.414 18.027 7.414 3.272 0 6.569-0.625 9.707-1.915 9.508-3.901 15.764-13.113 15.882-23.388l1.935-167.363 163.497-6.615c10.076-0.409 18.98-6.697 22.728-16.062 3.758-9.37 1.659-20.060-5.346-27.315zM295.024 269.168c-13.609 0.548-24.407 11.663-24.56 25.283l-1.521 131.246-214.559-212.608 8.745-151.357 157.757-9.866 204.871 212.009-130.734 5.294z" fill="#000000"></path>
	<path d="M168.96 117.76c-28.273-0.010-51.2 22.922-51.2 51.2 0 28.262 22.917 51.184 51.195 51.2 28.283 0.005 51.205-22.928 51.205-51.21 0-28.257-22.922-51.205-51.2-51.19z" fill="#000000"></path>
</svg>
