<?xml version="1.0" encoding="utf-8"?>
<!-- Generated by IcoMoon.io -->
<!DOCTYPE svg PUBLIC "-//W3C//DTD SVG 1.1//EN" "http://www.w3.org/Graphics/SVG/1.1/DTD/svg11.dtd">
<svg version="1.1" xmlns="http://www.w3.org/2000/svg" xmlns:xlink="http://www.w3.org/1999/xlink" width="512" height="512" viewBox="0 0 512 512">
<g id="icomoon-ignore">
	<line stroke-width="1" x1="0" y1="656" x2="672" y2="656" stroke="#449FDB" opacity="0.3"></line>
</g>
	<path d="M256 242.171c-36.7 0-66.56 29.86-66.56 66.565v203.264h30.72v-203.264c0-19.763 16.082-35.845 35.84-35.845s35.84 16.082 35.84 35.845v203.264h30.72v-203.264c0-36.706-29.86-66.565-66.56-66.565z" fill="#000000"></path>
	<path d="M256 143.36c33.879 0 61.44-27.556 61.44-61.424 0-33.889-27.561-61.456-61.44-61.456s-61.44 27.566-61.44 61.456c0 33.869 27.561 61.424 61.44 61.424zM256 51.2c16.952 0 30.72 13.773 30.72 30.736 0 16.932-13.767 30.704-30.72 30.704s-30.72-13.773-30.72-30.704c0-16.962 13.768-30.736 30.72-30.736z" fill="#000000"></path>
	<path d="M384 36.121c0 76.8-57.421 138.988-128 138.988s-128-62.188-128-138.988v-20.762h-30.72v20.762c0 92.16 71.198 169.708 158.72 169.708s158.72-77.548 158.72-169.708v-20.762h-30.72v20.762z" fill="#000000"></path>
</svg>
