<?xml version="1.0" encoding="utf-8"?>
<!-- Generated by IcoMoon.io -->
<!DOCTYPE svg PUBLIC "-//W3C//DTD SVG 1.1//EN" "http://www.w3.org/Graphics/SVG/1.1/DTD/svg11.dtd">
<svg version="1.1" xmlns="http://www.w3.org/2000/svg" xmlns:xlink="http://www.w3.org/1999/xlink" width="512" height="512" viewBox="0 0 512 512">
<g id="icomoon-ignore">
	<line stroke-width="1" x1="0" y1="656" x2="672" y2="656" stroke="#449FDB" opacity="0.3"></line>
</g>
	<path d="M358.902 241.782l-144.712-117.76c-4.593-3.733-10.788-4.501-16.138-1.956-5.356 2.544-8.612 7.941-8.612 13.87v235.52c0 5.929 3.256 11.325 8.612 13.87 2.099 0.998 4.275 1.49 6.518 1.49 3.466 0 6.866-1.173 9.656-3.446l144.691-117.76c3.584-2.918 5.652-7.296 5.652-11.914s-2.084-8.996-5.668-11.914zM220.16 339.149v-170.911l105.016 85.453-105.017 85.458z" fill="#000000"></path>
</svg>
