<?xml version="1.0" encoding="utf-8"?>
<!-- Generated by IcoMoon.io -->
<!DOCTYPE svg PUBLIC "-//W3C//DTD SVG 1.1//EN" "http://www.w3.org/Graphics/SVG/1.1/DTD/svg11.dtd">
<svg version="1.1" xmlns="http://www.w3.org/2000/svg" xmlns:xlink="http://www.w3.org/1999/xlink" width="512" height="512" viewBox="0 0 512 512">
<g id="icomoon-ignore">
	<line stroke-width="1" x1="0" y1="656" x2="672" y2="656" stroke="#449FDB" opacity="0.3"></line>
</g>
	<path d="M133.12 155.136c0-65.638 57.421-119.040 128-119.040 71.778 0 128 49.925 128 113.664v14.080h30.72v-14.080c0-80.963-69.719-144.384-158.72-144.384-87.522 0-158.72 67.184-158.72 149.76v59.904h30.72v-59.904z" fill="#000000"></path>
	<path d="M440.32 225.28h-368.64c-8.484 0-15.36 6.62-15.36 15.104v256c0 4.075 1.618 8.11 4.505 10.993 2.877 2.882 6.784 4.623 10.855 4.623 0.005 0 0.010 0 0.016 0l368.64-0.512c8.478-0.010 15.344-7.010 15.344-15.488v-255.616c0-8.484-6.876-15.104-15.36-15.104zM424.96 480.656l-337.92 0.353v-225.009h337.92v224.655z" fill="#000000"></path>
	<path d="M234.47 382.663l16.932-25.636c-3.815-2.519-6.282-7.834-6.282-13.538 0-8.519 7.178-15.714 15.677-15.714 8.248 0 14.238 6.385 14.238 15.181 0 8.97-2.074 11.141-8.31 13.118l-10.726 3.389v65.495h30.72v-44.329c12.647-7.552 19.041-20.178 19.041-37.668 0-25.738-19.748-45.901-44.959-45.901-25.584 0-46.398 20.828-46.398 46.433-0.005 16.226 7.501 30.868 20.066 39.168z" fill="#000000"></path>
</svg>
