<?xml version="1.0" encoding="utf-8"?>
<!-- Generated by IcoMoon.io -->
<!DOCTYPE svg PUBLIC "-//W3C//DTD SVG 1.1//EN" "http://www.w3.org/Graphics/SVG/1.1/DTD/svg11.dtd">
<svg version="1.1" xmlns="http://www.w3.org/2000/svg" xmlns:xlink="http://www.w3.org/1999/xlink" width="512" height="512" viewBox="0 0 512 512">
<g id="icomoon-ignore">
	<line stroke-width="1" x1="0" y1="656" x2="672" y2="656" stroke="#449FDB" opacity="0.3"></line>
</g>
	<path d="M384.015 381.803l-35.779-36.623 91.289-89.18-91.289-89.175 35.779-36.624 110.034 107.489c4.93 4.813 7.711 11.417 7.711 18.309s-2.78 13.496-7.711 18.314l-110.034 107.49z" fill="#000000"></path>
	<path d="M132.076 381.803l-110.029-107.49c-4.931-4.818-7.71-11.423-7.71-18.314s2.78-13.496 7.71-18.314l110.034-107.49 35.779 36.624-91.29 89.18 91.29 89.175-35.784 36.629z" fill="#000000"></path>
	<path d="M278.878 71.95l49.454 13.266-95.192 354.868-49.454-13.266 95.192-354.868z" fill="#000000"></path>
</svg>
