<?xml version="1.0" encoding="utf-8"?>
<!-- Generated by IcoMoon.io -->
<!DOCTYPE svg PUBLIC "-//W3C//DTD SVG 1.1//EN" "http://www.w3.org/Graphics/SVG/1.1/DTD/svg11.dtd">
<svg version="1.1" xmlns="http://www.w3.org/2000/svg" xmlns:xlink="http://www.w3.org/1999/xlink" width="512" height="512" viewBox="0 0 512 512">
<g id="icomoon-ignore">
	<line stroke-width="1" x1="0" y1="656" x2="672" y2="656" stroke="#449FDB" opacity="0.3"></line>
</g>
	<path d="M485.832 219.981l-33.639-92.129c-2.217-6.062-7.982-10.091-14.433-10.091h-79.36v30.72h68.613l24.182 66.212c-27.397-0.128-65.567-0.020-95.887 0.082-15.161 0.046-28.334 0.087-37.166 0.087-0.962 0-1.935 0.077-2.913 0.185h-118.457c-0.978-0.107-1.956-0.185-2.913-0.185-8.832 0-22.006-0.041-37.166-0.087-30.7-0.097-69.463-0.205-96.932-0.071l29.563-66.222h64.276v-30.72h-74.24c-6.062 0-11.556 3.564-14.023 9.098l-43.259 96.901c-5.191 5.913-8.791 14.858-8.74 28.201 0.164 40.561 37.008 116.679 106.875 116.679 0.031 0 0.528 0 0.553 0 30.034 0 57.339-15.191 76.887-43.131 15.135-21.632 24.535-49.27 24.535-72.284 0-2.698-0.179-5.084-0.44-7.465h68.5c-0.261 2.381-0.44 4.659-0.44 7.363 0.005 41.528 33.894 115.518 101.422 115.518 0.031 0 0.527 0 0.553 0 69.868 0 106.716-76.119 106.88-116.68 0.067-16.619-5.529-26.547-12.831-31.98zM121.462 337.92c-34.514 0-55.158-27.172-64.082-43.341-12.621-22.882-14.116-42.481-12.493-49.147 26.332-0.307 137.206 0.107 145.905 0.113 2.028 7.327 1.633 28.913-10.972 52.199-8.161 15.084-26.22 40.176-56.94 40.176h-1.418zM389.12 337.92c-30.72 0-48.748-25.078-56.904-40.161-12.508-23.111-12.943-44.513-10.983-51.999 0 0 119.808-0.307 146.146 0 1.618 6.666 0.384 25.938-12.237 48.819-8.919 16.169-30.085 43.341-64.604 43.341h-1.418z" fill="#000000"></path>
</svg>
