<?xml version="1.0" encoding="utf-8"?>
<!-- Generated by IcoMoon.io -->
<!DOCTYPE svg PUBLIC "-//W3C//DTD SVG 1.1//EN" "http://www.w3.org/Graphics/SVG/1.1/DTD/svg11.dtd">
<svg version="1.1" xmlns="http://www.w3.org/2000/svg" xmlns:xlink="http://www.w3.org/1999/xlink" width="512" height="512" viewBox="0 0 512 512">
<g id="icomoon-ignore">
	<line stroke-width="1" x1="0" y1="656" x2="672" y2="656" stroke="#449FDB" opacity="0.3"></line>
</g>
	<path d="M494.459 213.75l-32.656-89.41c-3.682-10.102-13.291-16.819-24.043-16.819h-89.6v51.2h71.695l16.686 45.686c-4.495-0.005-9.277-0.010-14.418-0.010-22.011 0-46.249 0.071-66.841 0.133-15.145 0.046-28.308 0.087-37.135 0.087-1.214 0-2.437 0.066-3.646 0.185h-117.002c-1.208-0.118-2.432-0.185-3.645-0.185-8.827 0-21.99-0.041-37.136-0.087-20.588-0.066-44.831-0.133-66.841-0.133-5.105 0-9.851 0.005-14.311 0.010l20.398-45.686h67.876v-51.2h-84.48c-10.102 0-19.261 5.939-23.373 15.165l-42.685 95.611c-6.21 7.772-10.261 18.734-10.204 33.705 0.179 45.348 39.45 126.878 117.053 126.878 0.056 0 0.569 0 0.62 0 72.909 0 110.183-77.245 111.591-122.88h47.278c1.408 45.635 38.681 122.88 111.591 122.88 0.051 0 0.563 0 0.62 0 77.604 0 116.874-81.531 117.058-126.879 0.067-18.16-5.878-30.587-14.449-38.251zM169.667 294.942c-1.5 2.704-3.118 5.197-5.007 7.824-11.914 16.676-26.419 24.914-41.779 24.914h-1.357c-3.666 0-7.147-0.251-10.471-0.962-17.469-3.712-30.188-15.769-37.867-26.245-12.319-16.804-17.439-34.483-18.457-44.836 10.276-0.071 22.579-0.077 35.666-0.077 4.373 0 8.837 0.016 13.332 0.025 17.981 0.020 36.613 0.087 52.966 0.133 9.093 0.025 17.413 0.051 24.581 0.071-0.583 9.319-3.44 24.443-11.607 39.153zM439.327 300.575c-8.428 11.5-23.358 24.837-43.627 26.988-1.715 0.179-3.451 0.118-5.233 0.118h-1.346c-15.36 0-29.829-8.238-41.743-24.909-0.676-0.942-1.234-1.808-1.863-2.76-10.649-16.24-14.602-33.849-15.252-44.262 7.168-0.020 15.815-0.020 24.909-0.046 19.922-0.061 43.32-0.113 64.763-0.123 12.815 0 24.935 0.030 35.195 0.092l0.292 0.706 0.281 0.691 0.010 0.021 1.438-0.522 0.246-0.087c-1.178 10.44-6.041 27.684-18.069 44.094z" fill="#000000"></path>
</svg>
