<?xml version="1.0" encoding="utf-8"?>
<!-- Generated by IcoMoon.io -->
<!DOCTYPE svg PUBLIC "-//W3C//DTD SVG 1.1//EN" "http://www.w3.org/Graphics/SVG/1.1/DTD/svg11.dtd">
<svg version="1.1" xmlns="http://www.w3.org/2000/svg" xmlns:xlink="http://www.w3.org/1999/xlink" width="512" height="512" viewBox="0 0 512 512">
<g id="icomoon-ignore">
	<line stroke-width="1" x1="0" y1="656" x2="672" y2="656" stroke="#449FDB" opacity="0.3"></line>
</g>
	<path d="M327.68 0h-97.28v51.2h71.68v409.6h-71.68v51.2h97.28c14.137 0 25.6-11.459 25.6-25.6v-460.8c0-14.142-11.464-25.6-25.6-25.6z" fill="#000000"></path>
	<path d="M56.32 51.2h71.68v-51.2h-97.28c-14.136 0-25.6 11.459-25.6 25.6v460.8c0 14.142 11.463 25.6 25.6 25.6h97.28v-51.2h-71.68v-409.6z" fill="#000000"></path>
	<path d="M486.4 0h-97.28v51.2h71.68v409.6h-71.68v51.2h97.28c14.137 0 25.6-11.459 25.6-25.6v-460.8c0-14.142-11.464-25.6-25.6-25.6z" fill="#000000"></path>
	<path d="M266.24 281.6v-51.2h-61.44v-61.44h-51.2v61.44h-61.44v51.2h61.44v61.44h51.2v-61.44z" fill="#000000"></path>
</svg>
