<?xml version="1.0" encoding="utf-8"?>
<!-- Generated by IcoMoon.io -->
<!DOCTYPE svg PUBLIC "-//W3C//DTD SVG 1.1//EN" "http://www.w3.org/Graphics/SVG/1.1/DTD/svg11.dtd">
<svg version="1.1" xmlns="http://www.w3.org/2000/svg" xmlns:xlink="http://www.w3.org/1999/xlink" width="512" height="512" viewBox="0 0 512 512">
<g id="icomoon-ignore">
	<line stroke-width="1" x1="0" y1="656" x2="672" y2="656" stroke="#449FDB" opacity="0.3"></line>
</g>
	<path d="M489.467 111.913l-92.324-92.319c-9.994-9.994-23.101-14.996-36.204-14.996-13.026 0-26.050 4.935-36.029 14.828l-286.361 283.658c-8.018 7.941-13.189 18.309-14.704 29.491l-15.841 116.741c-2.237 16.466 3.661 32.993 15.816 44.329 9.569 8.93 22.083 13.757 34.919 13.757 3.461 0 119.209-23.644 119.209-23.644 9.769-2.027 18.734-6.861 25.79-13.916l285.712-285.507c9.61-9.6 15.012-22.625 15.012-36.209 0-13.578-5.386-26.608-14.991-36.214zM167.552 433.623l-55.808 11.582-45.671-43.013 8.51-62.73 286.361-283.658 92.313 92.319-285.706 285.502z" fill="#000000"></path>
	<path d="M396.101 148.906l-227.585 221.582-32.145-33.017 227.585-221.582 32.145 33.017z" fill="#000000"></path>
</svg>
