<?xml version="1.0" encoding="utf-8"?>
<!-- Generated by IcoMoon.io -->
<!DOCTYPE svg PUBLIC "-//W3C//DTD SVG 1.1//EN" "http://www.w3.org/Graphics/SVG/1.1/DTD/svg11.dtd">
<svg version="1.1" xmlns="http://www.w3.org/2000/svg" xmlns:xlink="http://www.w3.org/1999/xlink" width="288" height="512" viewBox="0 0 288 512">
<g id="icomoon-ignore">
	<line stroke-width="1" x1="0" y1="656" x2="672" y2="656" stroke="#449FDB" opacity="0.3"></line>
</g>
	<path d="M253.312 393.006c-12.334-43.632-43.489-93.163-76.472-145.607-31.667-50.345-64.404-102.4-73.805-141.374-2.13-8.817 1.219-20.787 9.18-30.899 10.752-13.645 27.571-23.926 41.871-23.926 0.005 0 0.005 0 0.016 0 13.547 0 26.445 6.252 35.968 15.57 9.38 9.17 14.73 22.446 14.73 35.349v25.882h51.2v-25.882c0-26.793-10.819-53.069-30.126-71.951-19.154-18.734-44.759-30.167-71.767-30.167-0.010 0-0.020 0-0.030 0-30.064 0-61.511 17.337-82.079 43.449-17.736 22.518-24.561 49.854-18.734 74.025 11.366 47.125 46.377 103.070 80.236 156.907 29.604 47.068 60.211 95.877 70.543 132.413 3.169 11.223-4.040 23.050-7.47 27.587-10.752 14.198-27.612 24.151-42.972 24.151v0.015c-30.72 0-50.76-21.827-50.77-48.676l-0.225-25.6-51.307 0.021-0.041 26.721c0.020 55.070 45.506 100.987 101.468 100.987 0.005 0 0.020 0 0.025 0 30.736 0 63.79-18.555 84.214-45.543 17.019-22.487 22.978-49.966 16.348-73.452z" fill="#000000"></path>
</svg>
