<?xml version="1.0" encoding="utf-8"?>
<!-- Generated by IcoMoon.io -->
<!DOCTYPE svg PUBLIC "-//W3C//DTD SVG 1.1//EN" "http://www.w3.org/Graphics/SVG/1.1/DTD/svg11.dtd">
<svg version="1.1" xmlns="http://www.w3.org/2000/svg" xmlns:xlink="http://www.w3.org/1999/xlink" width="512" height="512" viewBox="0 0 512 512">
<g id="icomoon-ignore">
	<line stroke-width="1" x1="0" y1="656" x2="672" y2="656" stroke="#449FDB" opacity="0.3"></line>
</g>
	<path d="M434.877 331.781c9.103 0 17.843 1.751 25.923 4.889v-70.922c0-14.137-12.841-25.108-26.983-25.108h-152.217v-97.444c-4.5 1.828-9.252 3.236-14.213 4.137-4.229 0.768-8.546 1.157-12.815 1.157-8.448 0-16.584-1.495-24.172-4.214v96.364h-154.982c-14.136 0-24.218 10.972-24.218 25.108v69.438c3.379-1.152 6.84-2.135 10.419-2.78 4.229-0.768 8.54-1.157 12.816-1.157h0.005c9.882 0 19.318 2.074 27.96 5.745v-45.154h128v75.269c4.009-1.5 8.172-2.693 12.477-3.476 4.224-0.763 8.53-1.147 12.8-1.147 9.103 0 17.843 1.751 25.923 4.889v-75.536h128v44.56c4.009-1.5 8.171-2.693 12.478-3.476 4.224-0.763 8.53-1.142 12.8-1.142z" fill="#000000"></path>
	<path d="M265.113 127.181c-27.822 5.017-54.462-13.44-59.479-41.272-5.059-27.822 13.41-54.451 41.231-59.489 27.842-5.028 54.451 13.44 59.505 41.252 5.043 27.837-13.44 54.467-41.257 59.51z" fill="#000000"></path>
	<path d="M84.377 454.861c-27.822 5.017-54.462-13.44-59.479-41.272-5.059-27.822 13.41-54.451 41.231-59.49 27.843-5.028 54.451 13.44 59.505 41.252 5.043 27.837-13.44 54.466-41.257 59.51z" fill="#000000"></path>
	<path d="M265.113 485.581c-27.822 5.017-54.462-13.44-59.479-41.272-5.059-27.822 13.41-54.451 41.231-59.49 27.842-5.028 54.451 13.44 59.505 41.252 5.043 27.837-13.44 54.466-41.257 59.51z" fill="#000000"></path>
	<path d="M445.849 454.861c-27.822 5.017-54.462-13.44-59.479-41.272-5.058-27.822 13.409-54.451 41.231-59.49 27.842-5.028 54.451 13.44 59.505 41.252 5.043 27.837-13.44 54.466-41.257 59.51z" fill="#000000"></path>
</svg>
