<?xml version="1.0" encoding="utf-8"?>
<!-- Generated by IcoMoon.io -->
<!DOCTYPE svg PUBLIC "-//W3C//DTD SVG 1.1//EN" "http://www.w3.org/Graphics/SVG/1.1/DTD/svg11.dtd">
<svg version="1.1" xmlns="http://www.w3.org/2000/svg" xmlns:xlink="http://www.w3.org/1999/xlink" width="512" height="512" viewBox="0 0 512 512">
<g id="icomoon-ignore">
	<line stroke-width="1" x1="0" y1="656" x2="672" y2="656" stroke="#449FDB" opacity="0.3"></line>
</g>
	<path d="M409.231 245.76h-306.468c-0.005 0-0.005 0-0.010 0-11.479 0-22.282-4.547-30.413-12.738-8.166-8.222-12.662-19.149-12.662-30.786 0-24.002 19.328-43.515 43.090-43.515h306.452c0.005 0 0.015 0 0.021 0 19.733 0 38.277-7.772 52.219-21.822 13.911-14.013 21.57-32.624 21.57-52.423 0.010-40.929-33.101-74.235-73.799-74.235h-153.232v30.72h153.226c23.762 0 43.095 19.507 43.095 43.499 0 11.638-4.495 22.59-12.662 30.823-8.13 8.192-18.928 12.718-30.418 12.718 0 0-0.005 0-0.010 0h-306.462c-40.699 0-73.81 33.285-73.81 74.22 0 19.794 7.665 38.436 21.57 52.454 13.947 14.050 32.492 21.806 52.219 21.806 0.005 0 0.016 0 0.020 0h306.457c23.762 0 43.095 19.502 43.095 43.5 0 11.632-4.495 22.589-12.662 30.817-8.13 8.192-18.934 12.723-30.418 12.723 0 0-0.005 0-0.010 0h-306.462c-40.699 0-73.81 33.285-73.81 74.219 0 19.794 7.665 38.436 21.57 52.454 13.947 14.050 32.492 21.806 52.219 21.806 0.005 0 0.016 0 0.020 0h153.232v-30.72h-153.237c-0.005 0-0.005 0-0.010 0-11.479 0-22.282-4.546-30.413-12.738-8.166-8.223-12.662-19.149-12.662-30.786 0-24.002 19.328-43.515 43.090-43.515h306.452c0.005 0 0.015 0 0.021 0 19.733 0 38.277-7.772 52.219-21.822 13.911-14.019 21.57-32.63 21.57-52.423 0.010-40.935-33.101-74.235-73.8-74.235z" fill="#000000"></path>
</svg>
