<?xml version="1.0" encoding="utf-8"?>
<!-- Generated by IcoMoon.io -->
<!DOCTYPE svg PUBLIC "-//W3C//DTD SVG 1.1//EN" "http://www.w3.org/Graphics/SVG/1.1/DTD/svg11.dtd">
<svg version="1.1" xmlns="http://www.w3.org/2000/svg" xmlns:xlink="http://www.w3.org/1999/xlink" width="512" height="512" viewBox="0 0 512 512">
<g id="icomoon-ignore">
	<line stroke-width="1" x1="0" y1="656" x2="672" y2="656" stroke="#449FDB" opacity="0.3"></line>
</g>
	<path d="M88.96 41.288c18.145 0 36.388 7.849 36.132 23.291v101.822c0 0 58.255-0.2 106.496-0.2 24.125 0 45.737 0.051 56.32 0.2 43.166 0.604 44.094 66.581 0 66.852-1.264 0.005-19.779 0.010-43.899 0.010-48.24 0-118.922-0.010-118.922-0.010s0 81.633 0 125.957c0 37.494 92.667 39.998 142.72 39.998 7.705 0 14.397-0.062 19.589-0.062 45.466 0 43.678 69.632 0.297 69.632-0.103 0-0.195 0-0.297 0-0.272 0-0.558-0.005-0.86-0.005-5.058 0-14.213 0.272-26.046 0.272-64.496 0-208.875-7.972-207.59-110.853l0.512-293.601c-0.256-15.616 17.597-23.301 35.548-23.301zM88.96 10.568c-21.079 0-40.054 7.004-52.060 19.21-9.293 9.451-14.331 21.858-14.203 34.959l-0.512 293.238c-0.369 33.111 10.773 61.368 33.132 84.009 37.858 38.329 106.885 57.764 205.179 57.764 7.347 0 13.68-0.103 18.698-0.179 2.995-0.046 5.474-0.092 7.353-0.092l0.63 0.005h0.527c36.423 0 63.892-28.36 63.892-65.971 0-37.115-27.597-65.101-64.19-65.101-2.381 0-5.074 0.010-8.028 0.026-3.502 0.015-7.378 0.036-11.561 0.036-81.081 0-105.246-9.401-112-13.614v-90.885l88.202 0.010c24.207 0 42.788-0.005 44.058-0.010 35.947-0.22 63.14-27.51 63.283-63.483 0.144-36.434-26.947-64.297-63.012-64.798-9.502-0.133-28.601-0.205-56.75-0.205-25.764 0-54.6 0.061-75.776 0.107v-70.809c0.133-13.005-4.889-25.339-14.167-34.775-12.16-12.355-31.36-19.441-52.695-19.441v0z" fill="#000000"></path>
</svg>
