<?xml version="1.0" encoding="utf-8"?>
<!-- Generated by IcoMoon.io -->
<!DOCTYPE svg PUBLIC "-//W3C//DTD SVG 1.1//EN" "http://www.w3.org/Graphics/SVG/1.1/DTD/svg11.dtd">
<svg version="1.1" xmlns="http://www.w3.org/2000/svg" xmlns:xlink="http://www.w3.org/1999/xlink" width="512" height="512" viewBox="0 0 512 512">
<g id="icomoon-ignore">
	<line stroke-width="1" x1="0" y1="656" x2="672" y2="656" stroke="#449FDB" opacity="0.3"></line>
</g>
	<path d="M1.536 460.8h509.44v30.72h-509.44v-30.72z" fill="#000000"></path>
	<path d="M133.12 15.36h-92.16c-8.484 0-15.36 6.876-15.36 15.36v384c0 8.484 6.876 15.36 15.36 15.36h92.16c8.484 0 15.36-6.876 15.36-15.36v-384c0-8.484-6.876-15.36-15.36-15.36zM117.76 399.36h-61.44v-353.28h61.44v353.28z" fill="#000000"></path>
	<path d="M302.080 138.24h-92.16c-8.484 0-15.36 6.876-15.36 15.36v261.12c0 8.484 6.876 15.36 15.36 15.36h92.16c8.484 0 15.36-6.876 15.36-15.36v-261.12c0-8.484-6.876-15.36-15.36-15.36zM286.72 394.24h-61.44v-225.28h61.44v225.28z" fill="#000000"></path>
	<path d="M471.040 281.6h-92.16c-8.484 0-15.36 6.876-15.36 15.36v117.76c0 8.484 6.876 15.36 15.36 15.36h92.16c8.484 0 15.36-6.876 15.36-15.36v-117.76c0-8.484-6.876-15.36-15.36-15.36zM455.68 394.24h-61.44v-81.92h61.44v81.92z" fill="#000000"></path>
</svg>
