<?xml version="1.0" encoding="utf-8"?>
<!-- Generated by IcoMoon.io -->
<!DOCTYPE svg PUBLIC "-//W3C//DTD SVG 1.1//EN" "http://www.w3.org/Graphics/SVG/1.1/DTD/svg11.dtd">
<svg version="1.1" xmlns="http://www.w3.org/2000/svg" xmlns:xlink="http://www.w3.org/1999/xlink" width="512" height="512" viewBox="0 0 512 512">
<g id="icomoon-ignore">
	<line stroke-width="1" x1="0" y1="656" x2="672" y2="656" stroke="#449FDB" opacity="0.3"></line>
</g>
	<path d="M256.64 12.8c-93.517 0-169.6 75.699-169.6 168.75 0 44.078 13.875 82.995 40.464 112.537 11.376 12.636 36.337 52.327 46.577 70.62v77.056c0 32.414 32.609 56.274 61.635 57.411 0.205 0.010 34.289 0.021 35.323-0.026 31.426-1.219 56.642-26.967 56.642-57.411v-76.493c15.36-18.918 41.666-59.31 52.337-71.163 28.697-31.892 44.723-71.854 44.723-112.532 0-93.051-75.289-168.75-168.1-168.75zM296.96 441.738c0 13.901-12.135 26.132-26.782 26.706-1.408 0.021-33.255 0.036-33.403 0.036-14.505-0.563-31.975-12.611-31.975-26.716v-37.284h92.16v37.258zM357.622 273.531c-15.196 16.886-55.849 75.812-57.554 78.315-1.736 2.55-3.108 5.565-3.108 8.647v18.386h-92.16v-18.386c0-2.745-0.553-5.438-1.951-7.798-3.641-6.18-35.968-60.877-52.423-79.155-21.433-23.813-32.712-55.624-32.712-91.991 0-76.109 62.326-138.030 138.906-138.030 75.874 0 137.61 61.922 137.61 138.030 0 33.075-12.995 65.741-36.608 91.981z" fill="#000000"></path>
	<path d="M296.566 82.048l-13.031 27.279c0.476 0.22 47.472 23.793 47.472 69.872h30.72c0-66.56-62.5-95.903-65.162-97.152z" fill="#000000"></path>
</svg>
