<?xml version="1.0" encoding="utf-8"?>
<!-- Generated by IcoMoon.io -->
<!DOCTYPE svg PUBLIC "-//W3C//DTD SVG 1.1//EN" "http://www.w3.org/Graphics/SVG/1.1/DTD/svg11.dtd">
<svg version="1.1" xmlns="http://www.w3.org/2000/svg" xmlns:xlink="http://www.w3.org/1999/xlink" width="512" height="512" viewBox="0 0 512 512">
<g id="icomoon-ignore">
	<line stroke-width="1" x1="0" y1="656" x2="672" y2="656" stroke="#449FDB" opacity="0.3"></line>
</g>
	<path d="M484.039 110.971l-87.040-86.82c-5.76-5.765-13.573-8.791-21.719-8.791-0.026 0-0.051 0-0.072 0-8.176 0-16 3.087-21.75 8.889l-310.211 312.981c-4.644 4.69-7.654 10.69-8.591 17.219l-15.386 107.566c-1.424 9.943 2.11 19.947 9.456 26.798 5.745 5.361 13.255 8.253 20.956 8.253 2.145 0 4.306-0.231 6.451-0.691l100.342-21.54c5.78-1.239 11.079-4.127 15.262-8.31l312.3-312.105c5.765-5.76 9.006-13.578 9.006-21.724-0.005-8.146-3.241-15.964-9.006-21.724zM150.021 444.8l-100.342 21.54 15.391-107.591 250.599-252.923 34.34 34.35-234.619 234.614 21.719 21.724 234.614-234.608 30.663 30.684-252.365 252.211zM424.12 170.87l-86.83-86.866 37.99-38.339 87.040 87.030-38.2 38.174z" fill="#000000"></path>
</svg>
