<?xml version="1.0" encoding="utf-8"?>
<!-- Generated by IcoMoon.io -->
<!DOCTYPE svg PUBLIC "-//W3C//DTD SVG 1.1//EN" "http://www.w3.org/Graphics/SVG/1.1/DTD/svg11.dtd">
<svg version="1.1" xmlns="http://www.w3.org/2000/svg" xmlns:xlink="http://www.w3.org/1999/xlink" width="512" height="512" viewBox="0 0 512 512">
<g id="icomoon-ignore">
	<line stroke-width="1" x1="0" y1="656" x2="672" y2="656" stroke="#449FDB" opacity="0.3"></line>
</g>
	<path d="M354.934 296.853l-79.12-13.952 28.851-161.894c-5.228 1.183-10.558 1.884-15.887 1.884-12.534 0-24.433-3.277-34.826-9.073l-28.57 160.195-66.862-11.791c1.121 16.19-3.215 32.159-12.59 45.686-0.87 1.25-1.828 2.411-2.765 3.594l73.749 13.005-8.612 61.604c4.577-0.906 9.196-1.495 13.834-1.495 13.276 0 25.826 3.697 36.633 10.137l8.571-61.358 76.575 13.507c-2.724-18.104 1.598-35.748 11.018-50.048z" fill="#000000"></path>
	<path d="M273.096 449.122c5.028 27.827-13.44 54.466-41.262 59.484-27.822 5.063-54.451-13.404-59.489-41.236-5.028-27.837 13.44-54.451 41.246-59.5 27.833-5.038 54.462 13.44 59.505 41.252z" fill="#000000"></path>
	<path d="M341.786 42.081c5.028 27.827-13.44 54.467-41.262 59.484-27.822 5.064-54.451-13.404-59.489-41.236-5.028-27.837 13.44-54.451 41.246-59.499 27.832-5.038 54.466 13.44 59.505 41.252z" fill="#000000"></path>
	<path d="M464.584 327.777c5.028 27.827-13.44 54.466-41.262 59.484-27.822 5.063-54.451-13.404-59.49-41.236-5.028-27.837 13.44-54.451 41.246-59.5 27.837-5.038 54.466 13.44 59.505 41.252z" fill="#000000"></path>
	<path d="M137.923 261.217c5.028 27.827-13.44 54.466-41.262 59.484-27.822 5.063-54.451-13.404-59.489-41.236-5.028-27.838 13.44-54.451 41.247-59.5 27.838-5.038 54.466 13.44 59.505 41.252z" fill="#000000"></path>
</svg>
