<?xml version="1.0" encoding="utf-8"?>
<!-- Generated by IcoMoon.io -->
<!DOCTYPE svg PUBLIC "-//W3C//DTD SVG 1.1//EN" "http://www.w3.org/Graphics/SVG/1.1/DTD/svg11.dtd">
<svg version="1.1" xmlns="http://www.w3.org/2000/svg" xmlns:xlink="http://www.w3.org/1999/xlink" width="512" height="512" viewBox="0 0 512 512">
<g id="icomoon-ignore">
	<line stroke-width="1" x1="0" y1="656" x2="672" y2="656" stroke="#449FDB" opacity="0.3"></line>
</g>
	<path d="M40.852 270.991c-0.016-1.255 0.108-9.897 0.108-13.456v-1.541c0-0.819-0.082-13.476-0.062-14.75 1.034-26.178 22.282-46.684 48.502-46.684h110.28v-30.72h-110.279c-42.778 0-77.511 33.464-79.201 76.252-0.030 0.875 0.041 15.012 0.041 15.903v1.49c0 3.927-0.113 13.68-0.087 14.474 1.68 42.726 36.408 76.201 79.196 76.201l94.971 0.005v-30.725h-94.971c-26.224 0-47.472-20.505-48.496-46.449z" fill="#000000"></path>
	<path d="M153.6 240.64h204.8v30.72h-204.8v-30.72z" fill="#000000"></path>
	<path d="M501.76 255.995c0-1.5 0-14.704-0.062-15.959-1.674-42.726-36.51-76.196-79.298-76.196h-110.080v30.72h110.080c26.23 0 47.575 20.5 48.599 46.551 0.036 1.628 0.041 14.075 0.041 14.884v1.551c0.005 3.517 0.031 12.012 0.010 13.209-1.024 26.178-22.37 46.684-48.589 46.684l-94.781 0.005v30.715h94.781c42.782 0 77.609-33.474 79.278-76.083 0.031-0.604 0.021-1.075 0.021-14.602v-1.48z" fill="#000000"></path>
</svg>
