<?xml version="1.0" encoding="utf-8"?>
<!-- Generated by IcoMoon.io -->
<!DOCTYPE svg PUBLIC "-//W3C//DTD SVG 1.1//EN" "http://www.w3.org/Graphics/SVG/1.1/DTD/svg11.dtd">
<svg version="1.1" xmlns="http://www.w3.org/2000/svg" xmlns:xlink="http://www.w3.org/1999/xlink" width="512" height="512" viewBox="0 0 512 512">
<g id="icomoon-ignore">
	<line stroke-width="1" x1="0" y1="656" x2="672" y2="656" stroke="#449FDB" opacity="0.3"></line>
</g>
	<path d="M431.35 122.43l-120.745-110.295c-9.436-8.633-20.48-12.134-33.27-12.134h-159.575c-28.278 0-56.32 20.362-56.32 48.64v409.6c0 28.278 28.042 53.76 56.32 53.76h281.6c28.278 0 46.080-25.482 46.080-53.76v-298.025c0-14.377-3.481-28.089-14.090-37.785zM394.24 160.215v3.625h-122.88v-112.64h5.975l116.905 109.015zM112.64 460.8v-409.6h107.52v135.68c0 14.137 16.583 28.16 30.72 28.16h143.36v245.76h-281.6z" fill="#000000"></path>
</svg>
