<?xml version="1.0" encoding="utf-8"?>
<!-- Generated by IcoMoon.io -->
<!DOCTYPE svg PUBLIC "-//W3C//DTD SVG 1.1//EN" "http://www.w3.org/Graphics/SVG/1.1/DTD/svg11.dtd">
<svg version="1.1" xmlns="http://www.w3.org/2000/svg" xmlns:xlink="http://www.w3.org/1999/xlink" width="512" height="512" viewBox="0 0 512 512">
<g id="icomoon-ignore">
	<line stroke-width="1" x1="0" y1="656" x2="672" y2="656" stroke="#449FDB" opacity="0.3"></line>
</g>
	<path d="M251.249 43.776c-115.748 0-209.92 94.172-209.92 209.92s94.172 209.92 209.92 209.92 209.92-94.172 209.92-209.92-94.167-209.92-209.92-209.92zM92.528 253.696c0-34.59 11.095-66.57 29.87-92.647l221.481 221.486c-26.071 18.78-58.046 29.88-92.631 29.88-87.67 0-158.72-71.096-158.72-158.72zM380.089 346.332l-221.481-221.481c26.071-18.78 58.050-29.875 92.642-29.875 87.67 0 158.72 71.045 158.72 158.72 0 34.581-11.1 66.56-29.88 92.636z" fill="#000000"></path>
</svg>
