<?xml version="1.0" encoding="utf-8"?>
<!-- Generated by IcoMoon.io -->
<!DOCTYPE svg PUBLIC "-//W3C//DTD SVG 1.1//EN" "http://www.w3.org/Graphics/SVG/1.1/DTD/svg11.dtd">
<svg version="1.1" xmlns="http://www.w3.org/2000/svg" xmlns:xlink="http://www.w3.org/1999/xlink" width="512" height="512" viewBox="0 0 512 512">
<g id="icomoon-ignore">
	<line stroke-width="1" x1="0" y1="656" x2="672" y2="656" stroke="#449FDB" opacity="0.3"></line>
</g>
	<path d="M471.040 61.44h-430.080c-16.962 0-30.72 13.757-30.72 30.72v378.88c0 16.962 13.758 30.72 30.72 30.72h430.080c16.962 0 30.72-13.757 30.72-30.72v-378.88c0-16.963-13.757-30.72-30.72-30.72zM471.040 471.040h-430.080c0 0-0.379-305.444 0-305.168v-73.713h430.080v378.88z" fill="#000000"></path>
	<path d="M471.040 169.421c-88.054 62.203-188.805 127.846-206.853 131.251-1.526 0.005-3.415 0.031-5.458 0.057-4.72 0.062-10.608 0.138-13.194 0.010-17.393-3.062-117.433-70.82-204.575-134.866-0.379-0.281-0.763-0.558-1.142-0.839 0 0-5.965 33.725 1.142 38.892 63.944 46.52 176.65 125.982 202.393 127.437 2.038 0.113 4.603 0.154 7.337 0.154 2.76 0 5.694-0.041 8.438-0.077 2.13-0.031 4.080-0.057 5.575-0.057 24.325 0 132.418-72.653 206.336-124.411 6.666-4.669 1.372-38.528 1.372-38.528-0.455 0.333-0.916 0.655-1.372 0.978z" fill="#000000"></path>
</svg>
