<?xml version="1.0" encoding="utf-8"?>
<!-- Generated by IcoMoon.io -->
<!DOCTYPE svg PUBLIC "-//W3C//DTD SVG 1.1//EN" "http://www.w3.org/Graphics/SVG/1.1/DTD/svg11.dtd">
<svg version="1.1" xmlns="http://www.w3.org/2000/svg" xmlns:xlink="http://www.w3.org/1999/xlink" width="512" height="512" viewBox="0 0 512 512">
<g id="icomoon-ignore">
	<line stroke-width="1" x1="0" y1="656" x2="672" y2="656" stroke="#449FDB" opacity="0.3"></line>
</g>
	<path d="M248.387 262.671c26.875 0 48.65-21.775 48.65-48.64s-21.765-48.64-48.65-48.64c-26.798 0-48.63 21.775-48.63 48.64s21.827 48.64 48.63 48.64z" fill="#000000"></path>
	<path d="M445.266 80.364c-29.752-29.783-101.274-52.531-153.482-62.961-63.99-12.78-122.931-13.537-125.404-13.563l-0.548 51.2c0.563 0.005 56.811 0.763 115.927 12.574 63.621 12.703 113.065 34.693 127.288 48.937 51.471 51.517 31.749 180.112-4.444 246.006-20.823 37.934-131.927 96.466-200.371 96.804-7.706-0.118-25.974-0.839-30.761-9.313-5.612-12.651-7.214-76.267-5.197-127.749 0.281-7.158-2.452-14.111-7.536-19.164-5.084-5.043-11.976-7.685-19.21-7.414l-62.362 2.846 27.29-110.162-49.7-12.309-35.528 143.442c-1.941 7.839-0.072 16.138 5.053 22.385 5.12 6.247 12.851 9.692 20.962 9.344l69.053-3.149c-0.876 46.433 0.573 103.9 12.334 124.774 9.206 16.379 29.686 33.986 75.059 33.986 0.261 0 0.532 0 0.793 0 83.067 0 213.576-64.292 244.997-121.518 23.531-42.834 39.101-99.789 41.661-153.892 2.186-46.218-3.998-109.194-45.875-151.107z" fill="#000000"></path>
</svg>
