<?xml version="1.0" encoding="utf-8"?>
<!-- Generated by IcoMoon.io -->
<!DOCTYPE svg PUBLIC "-//W3C//DTD SVG 1.1//EN" "http://www.w3.org/Graphics/SVG/1.1/DTD/svg11.dtd">
<svg version="1.1" xmlns="http://www.w3.org/2000/svg" xmlns:xlink="http://www.w3.org/1999/xlink" width="512" height="512" viewBox="0 0 512 512">
<g id="icomoon-ignore">
	<line stroke-width="1" x1="0" y1="656" x2="672" y2="656" stroke="#449FDB" opacity="0.3"></line>
</g>
	<path d="M471.040 71.68h-46.151l-0.036-42.133c0-8.468-6.876-14.188-15.36-14.188h-61.332c-8.484 0-15.36 5.596-15.36 14.080v42.24h-153.672l-0.036-42.133c0-8.468-6.876-14.188-15.36-14.188h-61.333c-8.484 0-15.36 5.596-15.36 14.080v42.24h-46.080c-16.962 0-30.72 14.781-30.72 31.744v366.075c0 8.156 3.241 16.743 9.011 22.507 5.76 5.755 13.568 9.753 21.709 9.753 0.010 0 0.020 0 0.036 0l430.080-1.229c16.947-0.021 30.684-14.536 30.684-31.493v-365.614c0-16.963-13.757-31.744-30.72-31.744zM363.52 46.080h30.628l0.077 92.16h-30.704v-92.16zM117.76 46.080h30.628l0.077 92.16h-30.704v-92.16zM471.040 469.038l-430.080 0.461v-233.979h430.080v233.518zM471.040 204.8h-430.080v-102.4h46.080v52.48c0 8.484 6.876 14.080 15.36 14.080h61.44c0.036 0 0.077 0 0.102 0 8.484 0 15.36-6.236 15.36-14.72 0-0.604-0.036-1.398-0.102-1.992l-0.041-49.849h153.641v52.48c0 8.484 6.876 14.080 15.36 14.080h61.44c0.041 0 0.082 0 0.103 0 8.484 0 15.36-6.236 15.36-14.72 0-0.604-0.036-1.398-0.103-1.992l-0.041-49.849h46.121v102.4z" fill="#000000"></path>
</svg>
