<?xml version="1.0" encoding="utf-8"?>
<!-- Generated by IcoMoon.io -->
<!DOCTYPE svg PUBLIC "-//W3C//DTD SVG 1.1//EN" "http://www.w3.org/Graphics/SVG/1.1/DTD/svg11.dtd">
<svg version="1.1" xmlns="http://www.w3.org/2000/svg" xmlns:xlink="http://www.w3.org/1999/xlink" width="512" height="512" viewBox="0 0 512 512">
<g id="icomoon-ignore">
	<line stroke-width="1" x1="0" y1="656" x2="672" y2="656" stroke="#449FDB" opacity="0.3"></line>
</g>
	<path d="M255.744 70.144c-53.494 0-102.912 22.149-137.984 59.479v-73.303h-51.2v151.040c0 14.137 11.459 28.16 25.6 28.16h153.6v-51.2h-105.943c25.154-38.887 68.306-62.976 115.932-62.976 76.226 0 138.24 62.013 138.24 138.24s-62.014 138.24-138.24 138.24c-58.014 0-110.259-36.628-130.018-91.146-0.993-2.75-1.91-5.545-2.724-8.351l-0.128-6.487-51.195 0.476 1.055 16.358c1.382 5.182 3.016 10.373 4.849 15.447 27.070 74.706 98.668 124.903 178.155 124.903 104.458 0 189.44-84.982 189.44-189.44s-84.976-189.44-189.44-189.44z" fill="#000000"></path>
</svg>
