<?xml version="1.0" encoding="utf-8"?>
<!-- Generated by IcoMoon.io -->
<!DOCTYPE svg PUBLIC "-//W3C//DTD SVG 1.1//EN" "http://www.w3.org/Graphics/SVG/1.1/DTD/svg11.dtd">
<svg version="1.1" xmlns="http://www.w3.org/2000/svg" xmlns:xlink="http://www.w3.org/1999/xlink" width="512" height="512" viewBox="0 0 512 512">
<g id="icomoon-ignore">
	<line stroke-width="1" x1="0" y1="656" x2="672" y2="656" stroke="#449FDB" opacity="0.3"></line>
</g>
	<path d="M156.953 355.769c-24.059-23.921-62.94-23.982-86.933 0.005-23.956 24.013-23.941 62.909 0 86.907 23.972 23.931 62.848 23.987 86.953-0.005 23.966-23.987 23.952-62.878-0.020-86.907z" fill="#000000"></path>
	<path d="M485.534 394.348l-51.2-0.005v-25.6c0.010-160.881-130.908-291.779-291.84-291.789h-25.6v-51.2h25.6c189.163 0.010 343.050 153.876 343.040 342.994v25.6z" fill="#000000"></path>
	<path d="M386.334 394.342h-51.2v-25.6c0.005-106.183-86.416-192.578-192.645-192.589h-25.6l0.010-51.2h25.6c134.457 0.016 243.84 109.378 243.835 243.789v25.6z" fill="#000000"></path>
	<path d="M235.945 394.348l-0.010-25.6c-0.016-51.486-41.933-93.383-93.445-93.389h-25.6l0.010-51.2h25.6c79.724 0.010 144.609 64.865 144.635 144.573l0.010 25.6-51.2 0.015z" fill="#000000"></path>
</svg>
