<?xml version="1.0" encoding="utf-8"?>
<!-- Generated by IcoMoon.io -->
<!DOCTYPE svg PUBLIC "-//W3C//DTD SVG 1.1//EN" "http://www.w3.org/Graphics/SVG/1.1/DTD/svg11.dtd">
<svg version="1.1" xmlns="http://www.w3.org/2000/svg" xmlns:xlink="http://www.w3.org/1999/xlink" width="512" height="512" viewBox="0 0 512 512">
<g id="icomoon-ignore">
	<line stroke-width="1" x1="0" y1="656" x2="672" y2="656" stroke="#449FDB" opacity="0.3"></line>
</g>
	<path d="M97.372 430.080h127.908v-51.2h-127.908c0 0 0.051 0 0.056 0h-0.056c0-66.56 41.569-109.66 107.546-109.66 43.31 0 75.331 19.435 96.615 48.389 1.111 1.51 0.512-70.492 0-70.958-25.257-23.050-59.771-30.008-96.292-30.008-45.532 0-86.59 16.159-115.338 45.65-27.996 28.718-43.53 71.019-43.638 115.425 0.108 28.18 22.902 52.362 51.108 52.362z" fill="#000000"></path>
	<path d="M405.12 368.64v-76.8h-61.44v76.8h-76.8v61.44h76.8v76.8h61.44v-76.8h76.8v-61.44z" fill="#000000"></path>
	<path d="M204.795 48.64c25.462 0 46.085 21.79 46.085 48.64 0 26.87-20.624 48.64-46.085 48.64-25.452 0-46.075-21.77-46.075-48.64 0-26.849 20.624-48.64 46.075-48.64zM204.795 2.56c-50.816 0-92.155 42.491-92.155 94.72s41.339 94.72 92.155 94.72c50.821 0 92.165-42.491 92.165-94.72s-41.344-94.72-92.165-94.72v0z" fill="#000000"></path>
</svg>
