<?xml version="1.0" encoding="utf-8"?>
<!-- Generated by IcoMoon.io -->
<!DOCTYPE svg PUBLIC "-//W3C//DTD SVG 1.1//EN" "http://www.w3.org/Graphics/SVG/1.1/DTD/svg11.dtd">
<svg version="1.1" xmlns="http://www.w3.org/2000/svg" xmlns:xlink="http://www.w3.org/1999/xlink" width="512" height="512" viewBox="0 0 512 512">
<g id="icomoon-ignore">
	<line stroke-width="1" x1="0" y1="656" x2="672" y2="656" stroke="#449FDB" opacity="0.3"></line>
</g>
	<path d="M86.861 511.938c-22.129 0-42.937-8.678-58.578-24.443-15.591-15.708-24.177-36.572-24.177-58.747 0-45.875 37.13-83.205 82.775-83.21h336.317c8.397 0 16.297-3.308 22.252-9.308 6.006-6.052 9.318-14.111 9.318-22.682 0-17.649-14.167-32.005-31.586-32.010h-336.292c-0.005 0-0.016 0-0.025 0-22.129 0-42.937-8.678-58.578-24.443-15.591-15.708-24.177-36.572-24.177-58.747 0-45.875 37.13-83.205 82.775-83.21h336.317c8.397 0 16.297-3.308 22.252-9.303 6.011-6.057 9.318-14.111 9.318-22.686 0-17.644-14.172-32.005-31.586-32.010h-167.189v-51.2h167.189c45.65 0.015 82.78 37.34 82.78 83.21 0 22.174-8.586 43.038-24.176 58.752-15.642 15.76-36.45 24.438-58.588 24.438-0.005 0-0.015 0-0.026 0h-336.286c-17.413 0.005-31.58 14.362-31.58 32.010 0 8.571 3.307 16.63 9.319 22.681 5.954 6.006 13.855 9.308 22.246 9.308h336.317c45.65 0.005 82.78 37.335 82.78 83.21 0 22.175-8.586 43.034-24.176 58.747-15.642 15.764-36.45 24.443-58.588 24.443-0.005 0-0.015 0-0.026 0h-336.292c-17.413 0.005-31.58 14.361-31.58 32.010 0 8.571 3.307 16.63 9.319 22.681 5.954 6.006 13.855 9.308 22.246 9.308h169.124v51.2h-169.108c-0.010 0-0.020 0-0.031 0z" fill="#000000"></path>
</svg>
