<?xml version="1.0" encoding="utf-8"?>
<!-- Generated by IcoMoon.io -->
<!DOCTYPE svg PUBLIC "-//W3C//DTD SVG 1.1//EN" "http://www.w3.org/Graphics/SVG/1.1/DTD/svg11.dtd">
<svg version="1.1" xmlns="http://www.w3.org/2000/svg" xmlns:xlink="http://www.w3.org/1999/xlink" width="512" height="512" viewBox="0 0 512 512">
<g id="icomoon-ignore">
	<line stroke-width="1" x1="0" y1="656" x2="672" y2="656" stroke="#449FDB" opacity="0.3"></line>
</g>
	<path d="M228.567 422.897c-9.989-9.887-23.019-14.822-36.045-14.822-13.179 0-26.358 5.053-36.377 15.161-19.891 20.086-19.763 52.505 0.327 72.397 9.989 9.897 23.014 14.832 36.040 14.832 13.179 0 26.352-5.058 36.373-15.155 19.886-20.080 19.763-52.51-0.317-72.412zM207.078 473.671c-3.886 3.922-9.063 6.077-14.571 6.077-5.438 0-10.558-2.11-14.428-5.95-3.876-3.835-6.026-8.96-6.052-14.423-0.025-5.468 2.084-10.629 5.918-14.5 3.886-3.917 9.063-6.077 14.571-6.077 5.438 0 10.567 2.11 14.418 5.918 8.023 7.941 8.074 20.941 0.143 28.954z" fill="#000000"></path>
	<path d="M455.68 342.861v-158.874c-10.24 2.386-20.48 2.386-30.72 0v153.282l-113.157-113.567c-17.849 9.805-38.861 10.803-57.452 2.97l-55.050 158.715-96.297-257.587c-8.832 5.816-18.698 9.287-28.841 10.455l96.619 258.146c18.197-6.262 38.533-4.413 55.445 5.565l57.113-164.024 116.787 117.192c16.272-12.733 40.192-16.825 55.552-12.272z" fill="#000000"></path>
	<path d="M477.389 374.247c-9.989-9.887-23.019-14.822-36.039-14.822-13.179 0-26.358 5.053-36.377 15.161-19.891 20.086-19.769 52.505 0.327 72.397 9.989 9.897 23.010 14.832 36.039 14.832 13.179 0 26.348-5.058 36.373-15.155 19.891-20.080 19.769-52.51-0.322-72.412zM455.911 425.022c-3.891 3.922-9.063 6.077-14.572 6.077-5.438 0-10.558-2.11-14.428-5.95-3.881-3.835-6.031-8.96-6.052-14.423-0.031-5.468 2.079-10.629 5.918-14.5 3.881-3.917 9.063-6.077 14.572-6.077 5.438 0 10.567 2.11 14.418 5.918 8.023 7.941 8.074 20.941 0.144 28.954z" fill="#000000"></path>
	<path d="M476.37 84.454c-9.989-9.886-23.019-14.823-36.045-14.823-13.179 0-26.358 5.053-36.377 15.16-19.891 20.086-19.763 52.506 0.327 72.397 9.989 9.897 23.014 14.833 36.039 14.833 13.179 0 26.353-5.059 36.373-15.155 19.886-20.081 19.769-52.511-0.317-72.412zM454.887 135.23c-3.886 3.922-9.063 6.077-14.572 6.077-5.438 0-10.558-2.109-14.428-5.95-3.876-3.835-6.026-8.96-6.052-14.423-0.026-5.468 2.084-10.629 5.918-14.5 3.886-3.917 9.063-6.078 14.572-6.078 5.438 0 10.567 2.109 14.418 5.918 8.023 7.941 8.074 20.941 0.144 28.954z" fill="#000000"></path>
	<path d="M317.655 127.468c-9.989-9.886-23.019-14.823-36.045-14.823-13.179 0-26.358 5.053-36.377 15.16-19.891 20.086-19.763 52.505 0.327 72.397 9.989 9.897 23.014 14.833 36.039 14.833 13.179 0 26.353-5.059 36.373-15.155 19.886-20.081 19.769-52.511-0.317-72.412zM296.171 178.238c-3.886 3.922-9.063 6.077-14.572 6.077-5.438 0-10.558-2.109-14.428-5.95-3.876-3.835-6.026-8.96-6.052-14.423-0.026-5.468 2.084-10.629 5.918-14.5 3.886-3.917 9.063-6.077 14.572-6.077 5.438 0 10.567 2.109 14.418 5.918 8.023 7.946 8.074 20.946 0.144 28.953z" fill="#000000"></path>
	<path d="M102.615 35.307c-9.989-9.886-23.020-14.822-36.045-14.822-13.179 0-26.358 5.053-36.377 15.16-19.891 20.086-19.763 52.505 0.328 72.397 9.989 9.897 23.014 14.832 36.039 14.832 13.179 0 26.352-5.058 36.373-15.155 19.886-20.081 19.769-52.511-0.317-72.412zM81.132 86.078c-3.886 3.922-9.063 6.078-14.572 6.078-5.438 0-10.557-2.109-14.428-5.95-3.876-3.835-6.026-8.96-6.052-14.423-0.026-5.468 2.084-10.629 5.919-14.5 3.886-3.917 9.063-6.078 14.572-6.078 5.438 0 10.567 2.109 14.418 5.919 8.023 7.946 8.074 20.946 0.144 28.953z" fill="#000000"></path>
</svg>
