<?xml version="1.0" encoding="utf-8"?>
<!-- Generated by IcoMoon.io -->
<!DOCTYPE svg PUBLIC "-//W3C//DTD SVG 1.1//EN" "http://www.w3.org/Graphics/SVG/1.1/DTD/svg11.dtd">
<svg version="1.1" xmlns="http://www.w3.org/2000/svg" xmlns:xlink="http://www.w3.org/1999/xlink" width="512" height="512" viewBox="0 0 512 512">
<g id="icomoon-ignore">
	<line stroke-width="1" x1="0" y1="656" x2="672" y2="656" stroke="#449FDB" opacity="0.3"></line>
</g>
	<path d="M254.618 254.464c-115.625 0-196.377 84.987-196.377 205.568 0 28.278 22.922 51.968 51.2 51.968h290.304c28.278 0 51.2-23.69 51.2-51.968 0-120.581-80.732-205.568-196.327-205.568zM109.44 460.8c0-92.16 56.12-153.6 145.178-153.6s145.127 61.44 145.127 153.6h-290.304z" fill="#000000"></path>
	<path d="M255.288-1.024c-62.106 0-112.635 52.224-112.635 116.418s50.529 116.418 112.635 116.418c62.111 0 112.645-52.224 112.645-116.418s-50.529-116.418-112.645-116.418zM255.288 180.613c-33.93 0-61.435-29.179-61.435-65.219 0-36.035 27.505-65.219 61.435-65.219 33.94 0 61.445 29.184 61.445 65.219 0 36.040-27.505 65.219-61.445 65.219z" fill="#000000"></path>
</svg>
