<?xml version="1.0" encoding="utf-8"?>
<!-- Generated by IcoMoon.io -->
<!DOCTYPE svg PUBLIC "-//W3C//DTD SVG 1.1//EN" "http://www.w3.org/Graphics/SVG/1.1/DTD/svg11.dtd">
<svg version="1.1" xmlns="http://www.w3.org/2000/svg" xmlns:xlink="http://www.w3.org/1999/xlink" width="512" height="512" viewBox="0 0 512 512">
<g id="icomoon-ignore">
	<line stroke-width="1" x1="0" y1="656" x2="672" y2="656" stroke="#449FDB" opacity="0.3"></line>
</g>
	<path d="M463.478 32.712c-9.959-3.758-21.847 0.441-28.887 8.438-27.177 30.889-113.285 112.451-181.468 112.451h-134.835c-45.051 0-81.172 32.461-82.924 75.847-0.020 0.788-0.072 25.805-0.031 26.388 1.562 39.301 31.227 70.897 67.067 77.138v112.246c0 36.608 32.532 65.899 72.474 67.010l16.102-0.041c39.767-1.162 70.144-30.438 70.144-66.969v-110.075c61.44 9.493 145.101 80.138 174.562 108.565 4.869 4.7 11.156 7.178 17.664 7.178 3.374 0 7.946-0.666 11.166-2.033 9.457-4.014 16.768-13.291 16.768-23.562v-368.64c0-10.65-7.829-20.183-17.802-23.941zM209.92 445.22c0 8.658-9.758 15.452-21.709 15.8l-10.962-0.22c-11.94 0-23.649-6.922-23.649-15.58 0-86.538 0-86.82 0-107.3h56.32c0 0 0 103.68 0 107.3zM430.080 368.957c-46.080-36.736-119.68-86.098-181.079-86.098-1.008 0-2.626 0.015-3.645 0.041-2.581 0.072-13.194 0.149-47.626 0.149-21.248 0-45.097-0.031-61.338-0.051l-18.073-0.021c-17.27 0-30.843-12.554-31.775-29.030l-0.016-22.605c0.64-15.934 13.993-26.542 31.76-26.542h134.835c65.234 0 130.877-50.028 176.958-87.255v251.412z" fill="#000000"></path>
</svg>
