<?xml version="1.0" encoding="utf-8"?>
<!-- Generated by IcoMoon.io -->
<!DOCTYPE svg PUBLIC "-//W3C//DTD SVG 1.1//EN" "http://www.w3.org/Graphics/SVG/1.1/DTD/svg11.dtd">
<svg version="1.1" xmlns="http://www.w3.org/2000/svg" xmlns:xlink="http://www.w3.org/1999/xlink" width="512" height="512" viewBox="0 0 512 512">
<g id="icomoon-ignore">
	<line stroke-width="1" x1="0" y1="656" x2="672" y2="656" stroke="#449FDB" opacity="0.3"></line>
</g>
	<path d="M345.457 303.908l-73.508-12.503 30.382-168.146c-10.183 0.435-20.51-1.433-30.172-5.801l-30.494 168.791-69.868-11.884c0.722 10.271-0.906 20.664-4.941 30.315l69.346 11.801-13.061 72.289c10.179-0.568 20.542 1.152 30.238 5.392l13.107-72.53 73.677 12.534c-0.604-10.276 1.147-20.649 5.294-30.259z" fill="#000000"></path>
	<path d="M215.911 405.197c1.25-0.272 2.504-0.497 3.763-0.671-1.264 0.174-2.514 0.399-3.763 0.671z" fill="#000000"></path>
	<path d="M231.716 404.224c0.487 0.046 0.968 0.103 1.449 0.159-0.487-0.057-0.963-0.113-1.449-0.159z" fill="#000000"></path>
	<path d="M221.522 404.281c1.423-0.149 2.862-0.226 4.296-0.256-1.439 0.031-2.873 0.108-4.296 0.256z" fill="#000000"></path>
	<path d="M227.195 403.978c0.389 0 0.784 0.031 1.173 0.041-0.389-0.010-0.784-0.041-1.173-0.041z" fill="#000000"></path>
	<path d="M236.462 404.905c0.399 0.082 0.804 0.138 1.203 0.231-0.399-0.092-0.804-0.149-1.203-0.231z" fill="#000000"></path>
	<path d="M322.775 102.451c-1.669 0.85-3.385 1.597-5.13 2.248 1.746-0.656 3.461-1.398 5.13-2.248z" fill="#000000"></path>
	<path d="M323.41 11.586c0.42 0.22 0.839 0.435 1.255 0.671-0.414-0.236-0.834-0.45-1.255-0.671z" fill="#000000"></path>
	<path d="M316.206 105.186c-1.296 0.441-2.596 0.845-3.917 1.183 1.321-0.338 2.622-0.743 3.917-1.183z" fill="#000000"></path>
	<path d="M310.425 106.798c-1.234 0.272-2.483 0.492-3.738 0.671 1.255-0.179 2.498-0.4 3.738-0.671z" fill="#000000"></path>
	<path d="M276.27 11.207c1.669-0.85 3.389-1.592 5.135-2.248-1.746 0.661-3.466 1.398-5.135 2.248z" fill="#000000"></path>
	<path d="M271.406 14.065c1.331-0.876 2.698-1.674 4.096-2.422-1.398 0.748-2.765 1.546-4.096 2.422z" fill="#000000"></path>
	<path d="M282.865 8.473c1.28-0.441 2.575-0.845 3.891-1.178-1.316 0.333-2.611 0.738-3.891 1.178z" fill="#000000"></path>
	<path d="M288.645 6.856c1.224-0.266 2.457-0.487 3.702-0.66-1.244 0.174-2.478 0.394-3.702 0.66z" fill="#000000"></path>
	<path d="M319.053 9.523c0.445 0.184 0.891 0.384 1.337 0.584-0.445-0.194-0.891-0.399-1.337-0.584z" fill="#000000"></path>
	<path d="M314.742 7.941c0.24 0.077 0.481 0.174 0.722 0.251-0.246-0.077-0.481-0.179-0.722-0.251z" fill="#000000"></path>
	<path d="M299.92 5.647c0.368 0 0.743 0.030 1.111 0.041-0.368-0.016-0.743-0.041-1.111-0.041z" fill="#000000"></path>
	<path d="M294.252 5.944c1.398-0.144 2.806-0.22 4.209-0.251-1.408 0.030-2.811 0.107-4.209 0.251z" fill="#000000"></path>
	<path d="M304.425 5.888c0.481 0.046 0.962 0.103 1.444 0.159-0.481-0.056-0.962-0.112-1.444-0.159z" fill="#000000"></path>
	<path d="M309.156 6.569c0.404 0.082 0.814 0.138 1.219 0.231-0.404-0.087-0.814-0.149-1.219-0.231z" fill="#000000"></path>
	<path d="M294.666 107.776c-0.507-0.051-1.009-0.108-1.51-0.169 0.502 0.061 1.003 0.118 1.51 0.169z" fill="#000000"></path>
	<path d="M299.156 108.022c-0.394-0.005-0.788-0.036-1.183-0.046 0.389 0.010 0.788 0.041 1.183 0.046z" fill="#000000"></path>
	<path d="M304.825 107.715c-1.418 0.148-2.846 0.225-4.281 0.256 1.433-0.031 2.862-0.108 4.281-0.256z" fill="#000000"></path>
	<path d="M289.94 107.095c-0.425-0.082-0.85-0.144-1.27-0.24 0.425 0.097 0.845 0.159 1.27 0.24z" fill="#000000"></path>
	<path d="M275.646 102.082c-0.42-0.225-0.845-0.441-1.26-0.676 0.414 0.236 0.839 0.451 1.26 0.676z" fill="#000000"></path>
	<path d="M280.007 104.141c-0.455-0.184-0.911-0.389-1.362-0.594 0.455 0.205 0.906 0.404 1.362 0.594z" fill="#000000"></path>
	<path d="M284.324 105.723c-0.261-0.087-0.512-0.184-0.768-0.272 0.261 0.087 0.507 0.189 0.768 0.272z" fill="#000000"></path>
	<path d="M333.527 19.948c-9.989-9.886-23.019-14.822-36.045-14.822-13.179 0-26.358 5.053-36.377 15.161-19.891 20.086-19.763 52.505 0.327 72.397 9.989 9.897 23.014 14.838 36.039 14.838 13.179 0 26.353-5.058 36.373-15.155 19.886-20.081 19.763-52.511-0.317-72.418zM312.038 70.722c-3.881 3.922-9.058 6.078-14.567 6.078-5.438 0-10.558-2.109-14.428-5.95-3.876-3.835-6.026-8.96-6.052-14.423-0.026-5.468 2.084-10.629 5.918-14.5 3.886-3.917 9.063-6.078 14.572-6.078 5.438 0 10.567 2.109 14.418 5.919 8.018 7.946 8.069 20.946 0.138 28.953z" fill="#000000"></path>
	<path d="M264.914 419.303c-9.989-9.887-23.019-14.822-36.045-14.822-13.179 0-26.358 5.053-36.377 15.161-19.891 20.086-19.763 52.505 0.327 72.397 9.989 9.897 23.014 14.832 36.040 14.832 13.179 0 26.352-5.058 36.373-15.155 19.891-20.081 19.769-52.51-0.317-72.412zM243.43 470.077c-3.886 3.922-9.063 6.077-14.572 6.077-5.438 0-10.558-2.11-14.428-5.95-3.876-3.835-6.026-8.96-6.052-14.423-0.025-5.468 2.084-10.629 5.918-14.5 3.886-3.922 9.063-6.082 14.571-6.082 5.438 0 10.567 2.11 14.418 5.918 8.023 7.946 8.074 20.946 0.143 28.959z" fill="#000000"></path>
	<path d="M444.119 293.351c-9.989-9.887-23.019-14.822-36.045-14.822-13.179 0-26.358 5.053-36.377 15.161-19.891 20.086-19.763 52.505 0.327 72.397 9.989 9.897 23.014 14.832 36.039 14.832 13.179 0 26.353-5.058 36.373-15.155 19.886-20.075 19.769-52.505-0.317-72.412zM422.635 344.125c-3.886 3.922-9.063 6.077-14.572 6.077-5.438 0-10.558-2.11-14.428-5.95-3.876-3.835-6.026-8.96-6.052-14.423-0.026-5.468 2.084-10.629 5.918-14.5 3.886-3.917 9.063-6.077 14.572-6.077 5.438 0 10.567 2.11 14.418 5.918 8.023 7.941 8.074 20.941 0.144 28.954z" fill="#000000"></path>
	<path d="M139.991 245.222c-9.989-9.887-23.019-14.822-36.045-14.822-13.179 0-26.358 5.054-36.377 15.161-19.891 20.086-19.763 52.506 0.328 72.397 9.989 9.897 23.014 14.832 36.040 14.832 13.179 0 26.352-5.058 36.373-15.155 19.886-20.080 19.768-52.51-0.317-72.412zM118.507 295.998c-3.886 3.922-9.063 6.077-14.572 6.077-5.438 0-10.558-2.11-14.428-5.95-3.876-3.835-6.026-8.96-6.052-14.423-0.025-5.468 2.084-10.629 5.918-14.5 3.886-3.922 9.063-6.082 14.572-6.082 5.438 0 10.567 2.11 14.418 5.918 8.023 7.946 8.069 20.946 0.144 28.959z" fill="#000000"></path>
</svg>
