<?xml version="1.0" encoding="utf-8"?>
<!-- Generated by IcoMoon.io -->
<!DOCTYPE svg PUBLIC "-//W3C//DTD SVG 1.1//EN" "http://www.w3.org/Graphics/SVG/1.1/DTD/svg11.dtd">
<svg version="1.1" xmlns="http://www.w3.org/2000/svg" xmlns:xlink="http://www.w3.org/1999/xlink" width="512" height="512" viewBox="0 0 512 512">
<g id="icomoon-ignore">
	<line stroke-width="1" x1="0" y1="656" x2="672" y2="656" stroke="#449FDB" opacity="0.3"></line>
</g>
	<path d="M430.080 407.040h-35.84v-68.608c0-8.484-5.852-15.872-14.336-15.872h-38.026c27.1-61.44 54.211-112.492 53.873-153.508-0.732-91.392-56.822-154.204-136.407-154.204h-1.275c-41.273 0-78.29 16.461-104.228 46.818-24.586 28.78-37.939 67.236-37.591 109.435 0.338 42.721 37.801 110.5 56.34 151.46h-40.494c-8.484 0-14.336 7.383-14.336 15.872v68.608h-35.84c-8.484 0-15.36 7.229-15.36 15.714v74.24c0 8.484 6.876 15.006 15.36 15.006h348.16c8.484 0 15.36-6.518 15.36-15.007v-74.24c0-8.484-6.876-15.714-15.36-15.714zM148.48 353.28h47.104c4.239 0 8.29-1.495 11.192-4.587 2.903-3.087 4.403-7.106 4.142-11.336-0.236-3.83-1.126-5.817-9.62-25.38-16.169-37.228-54.031-104.412-54.323-141.281-0.286-34.811 10.45-65.945 30.228-89.093 20.352-23.823 48.4-36.035 81.111-36.035h1.029c72.32 0 105.19 61.891 105.687 123.991 0.343 41.042-38.41 111.416-53.002 145.572-7.142 16.722-8.059 18.668-8.361 22.18-0.363 4.286 1.080 8.182 3.988 11.346 2.913 3.17 7.014 4.623 11.32 4.623h44.544v53.76h-215.040v-53.76zM414.72 481.28h-317.44v-43.52h317.44v43.52z" fill="#000000"></path>
</svg>
