<?xml version="1.0" encoding="utf-8"?>
<!-- Generated by IcoMoon.io -->
<!DOCTYPE svg PUBLIC "-//W3C//DTD SVG 1.1//EN" "http://www.w3.org/Graphics/SVG/1.1/DTD/svg11.dtd">
<svg version="1.1" xmlns="http://www.w3.org/2000/svg" xmlns:xlink="http://www.w3.org/1999/xlink" width="512" height="512" viewBox="0 0 512 512">
<g id="icomoon-ignore">
	<line stroke-width="1" x1="0" y1="656" x2="672" y2="656" stroke="#449FDB" opacity="0.3"></line>
</g>
	<path d="M354.698 428.769c19.753-3.349 40.955-5.048 63.13-5.048 21.898 0.005 36.587 1.741 36.731 1.762 2.043 0.246 4.096 0.363 6.134 0.363 12.462 0 24.601-4.536 34.017-12.887 10.962-9.712 17.29-23.654 17.29-38.298v-256c0-24.55-17.423-45.645-41.534-50.279-1.438-0.276-35.804-6.779-81.27-6.779-20.142 0-39.706 1.264-58.142 3.763-7.358 0.993-15.831 3.42-46.075 12.559-8.837 2.668-20.798 6.287-28.943 8.602-8.182-2.381-20.224-6.124-28.406-8.668-27.874-8.674-38.339-11.812-46.295-12.948-18.391-2.637-37.842-3.973-57.79-3.973-46.495 0-81.526 7.342-82.99 7.65-23.649 5.022-40.556 25.902-40.556 50.073v256c0 14.663 6.293 28.626 17.27 38.344 9.415 8.33 21.499 12.856 33.93 12.856 2.069 0 4.157-0.123 6.236-0.379 0.036-0.005 14.649-1.705 36.47-1.705 22.287 0 43.587 1.685 63.437 5.012 7.101 4.454 19.911 13.138 28.974 19.282 10.829 7.347 19.456 13.184 26.68 17.849h-212.997v51.2h512v-51.2h-212.997c7.224-4.67 15.856-10.512 26.695-17.853 9.083-6.154 21.913-14.853 29-19.298zM230.4 416.062c-22.246-14.889-51.43-35.344-56.32-36.281-3.482-0.666-6.938-1.26-10.373-1.817-0.338-0.057-0.686-0.113-1.024-0.169-3.262-0.517-6.487-0.978-9.692-1.403-0.492-0.067-0.978-0.133-1.47-0.195-3.097-0.399-6.169-0.758-9.201-1.086-0.558-0.062-1.121-0.118-1.674-0.174-2.98-0.307-5.924-0.579-8.832-0.814-0.548-0.046-1.095-0.092-1.643-0.128-2.898-0.231-5.76-0.43-8.566-0.594-0.476-0.026-0.942-0.051-1.408-0.077-2.862-0.159-5.678-0.302-8.422-0.399-0.297-0.015-0.573-0.021-0.871-0.031-2.647-0.098-5.233-0.164-7.757-0.215-0.317-0.005-0.65-0.015-0.968-0.021-2.54-0.046-4.997 0.533-7.388 0.533l-6.165 0.010c-0.333 0.010-0.656-0.281-0.983-0.276-5.212 0.072-9.984 0.067-14.234 0.256-0.108 0.005-0.225-0.062-0.328-0.057-0.876 0.041-1.705 0.041-2.534 0.082-0.307 0.015-0.624 0.015-0.927 0.036-0.732 0.036-1.418 0.067-2.109 0.108-0.353 0.021-0.717 0.041-1.060 0.062-0.66 0.041-1.29 0.077-1.915 0.113-0.317 0.021-0.635 0.041-0.942 0.062-0.599 0.046-1.172 0.087-1.736 0.123-0.302 0.021-0.599 0.046-0.886 0.067-0.532 0.041-1.044 0.082-1.541 0.118-0.272 0.021-0.532 0.041-0.788 0.062-0.446 0.041-0.876 0.077-1.285 0.108-0.282 0.026-0.553 0.051-0.814 0.072-0.364 0.036-0.712 0.067-1.039 0.098-0.205 0.021-0.394 0.041-0.584 0.057-0.348 0.036-0.686 0.067-0.983 0.098-0.148 0.015-0.282 0.031-0.414 0.046-0.256 0.026-0.512 0.051-0.727 0.077-0.154 0.015-0.286 0.031-0.42 0.046-0.45 0.046-0.804 0.087-0.983 0.108-0.123-0.010-0.194 0-0.194 0v-256c0 0 0.133-0.031 0.266-0.056 0.062-0.010 0.092-0.020 0.174-0.036 0.194-0.041 0.471-0.097 0.794-0.159 0.077-0.016 0.118-0.020 0.205-0.041 0.4-0.077 0.916-0.169 1.48-0.276 0.138-0.025 0.276-0.056 0.425-0.082 0.532-0.103 1.147-0.205 1.802-0.317 0.144-0.025 0.266-0.051 0.414-0.077 0.798-0.138 1.69-0.292 2.657-0.445 0.158-0.025 0.328-0.056 0.496-0.082 0.85-0.133 1.772-0.281 2.729-0.43 0.24-0.036 0.466-0.072 0.712-0.108 1.142-0.169 2.35-0.348 3.635-0.532 0.215-0.031 0.441-0.061 0.66-0.092 1.111-0.148 2.273-0.307 3.487-0.461 0.343-0.046 0.686-0.092 1.040-0.133 1.449-0.184 2.96-0.364 4.541-0.543 0.164-0.020 0.338-0.036 0.512-0.056 1.433-0.164 2.924-0.317 4.46-0.476 0.415-0.046 0.829-0.589 1.249-0.63 0.487-0.051 0.968-0.148 1.459-0.272l3.927-0.717c1.813 0 3.707 0.2 5.622 0.061 0.507-0.031 1.014 0.184 1.531 0.148 1.705-0.112 3.446-0.103 5.222-0.2 0.307-0.016 0.599 0.025 0.906 0.010 2.028-0.108 4.106-0.169 6.216-0.251 0.537-0.020 1.085-0.025 1.628-0.041 1.776-0.067 3.579-0.108 5.412-0.148 0.471-0.010 0.932 0.24 1.403 0.231l4.47 0.112c0.752 0.036 1.495 0.077 2.253 0.077 0.184 0 0.364 0 0.548 0 0.195 0 0.4-0.246 0.589-0.246 3.522 0.005 7.117-0.077 10.773 0.036 0.286 0.005 0.573-0.005 0.86-0.016 0.154-0.036 0.307-0.077 0.461-0.072 3.62 0.118 7.301 0.292 11.034 0.528-3.732-0.236-7.414-0.292-11.034-0.409-0.154-0.005-0.307 0.179-0.461 0.179 0.154 0 0.307 0 0.461 0 3.62 0 7.301 0.138 11.034 0.374 0.456 0.031 0.911-0.016 1.367 0.016 3.83 0.251 7.716 0.537 11.638 0.937 0.327 0.031 0.661 0.041 0.994 0.077 4.234 0.435 8.514 0.937 12.826 1.556-4.311-0.62-8.591-1.136-12.826-1.572-0.333-0.036-0.666-0.072-0.994-0.103 0.327 0.031 0.661 0.061 0.994 0.097 4.234 0.435 8.514 0.953 12.826 1.572 6.256 0.896 34.581 10.082 56.32 16.712v283.755zM281.6 416.062v-283.663c21.986-6.523 50.734-15.544 56.32-16.302 4.368-0.589 8.704-1.085 13-1.5 0.313-0.031 0.62-0.056 0.932-0.087 4.014-0.379 7.993-0.686 11.92-0.932 0.394-0.025 0.784-0.051 1.183-0.077 3.886-0.231 7.726-0.394 11.495-0.512 0.317-0.010 0.645-0.103 0.962-0.108l18.78-0.108c0.491 0.010 0.967 0.061 1.459 0.072 1.93 0.036 3.835 0.108 5.704 0.164 0.338 0.010 0.686 0.031 1.019 0.041 2.161 0.077 4.281 0.164 6.349 0.266 0.363 0.020 0.717 0.041 1.075 0.061 1.772 0.092 3.502 0.189 5.197 0.297 0.389 0.025 0.784 0.046 1.173 0.072 1.945 0.128 3.85 0.261 5.693 0.404 0.22 0.016 0.425 0.036 0.64 0.051 1.628 0.128 3.216 0.261 4.762 0.4 0.404 0.036 0.804 0.072 1.198 0.108 3.41 0.313 6.584 0.64 9.498 0.968 0.327 0.041 0.645 0.077 0.962 0.112 1.331 0.148 2.616 0.307 3.83 0.461 0.082 0.010 0.164 0.020 0.246 0.031 1.316 0.164 2.545 0.328 3.712 0.487 0.246 0.036 0.471 0.067 0.712 0.103 0.962 0.128 1.879 0.261 2.729 0.384 0.149 0.025 0.313 0.046 0.455 0.067 0.962 0.144 1.838 0.281 2.642 0.404 0.169 0.025 0.317 0.051 0.476 0.077 0.63 0.103 1.203 0.189 1.721 0.276 0.149 0.025 0.302 0.051 0.44 0.077 0.558 0.097 1.065 0.179 1.464 0.251 0.108 0.020 0.169 0.031 0.266 0.046 0.292 0.056 0.553 0.103 0.738 0.133 0.087 0.016 0.118 0.020 0.179 0.031 0.133 0.025 0.266 0.051 0.266 0.051v256c0 0-0.072-0.010-0.179-0.021-0.051-0.010-0.128-0.015-0.2-0.026-0.098-0.010-0.19-0.026-0.322-0.041-0.103-0.010-0.226-0.026-0.348-0.036-0.174-0.021-0.358-0.041-0.579-0.067-0.123-0.015-0.266-0.031-0.404-0.041-0.261-0.031-0.538-0.062-0.85-0.092-0.159-0.015-0.333-0.036-0.507-0.051-0.348-0.036-0.727-0.072-1.127-0.108-0.174-0.015-0.358-0.031-0.543-0.051-0.43-0.036-0.88-0.082-1.362-0.118-0.226-0.021-0.455-0.041-0.697-0.062-0.507-0.046-1.039-0.087-1.598-0.128-0.231-0.021-0.461-0.036-0.702-0.057-0.584-0.046-1.198-0.092-1.833-0.138-0.276-0.021-0.548-0.041-0.834-0.062-0.64-0.046-1.316-0.092-2.002-0.133-0.307-0.021-0.604-0.041-0.921-0.062-0.722-0.046-1.479-0.087-2.248-0.128-0.317-0.021-0.625-0.041-0.957-0.057-0.763-0.046-1.572-0.087-2.381-0.123-0.368-0.015-0.732-0.036-1.111-0.057-0.962-0.046-1.966-0.087-2.98-0.123-0.24-0.010-0.461-0.021-0.707-0.031-1.25-0.051-2.539-0.092-3.865-0.128-0.625-0.021-1.285-0.036-1.93-0.051-0.712-0.021-1.403-0.036-2.135-0.051-0.825-0.021-1.68-0.031-2.524-0.046-0.579-0.010-1.147-0.021-1.736-0.026-0.947-0.010-1.915 0.604-2.887 0.594-0.512 0-1.019 0.61-1.536 0.61l-1.966-0.61c-2.309 0.005-4.675-0.292-7.117-0.246-0.445 0.005-0.901-0.133-1.346-0.123-2.442 0.046-4.935 0.041-7.495 0.128-0.327 0.010-0.661-0.015-0.993-0.005-2.673 0.108-5.427 0.22-8.212 0.374-0.486 0.031-0.962 0.046-1.449 0.072-2.77 0.169-5.596 0.363-8.458 0.589-0.584 0.046-1.168 0.092-1.756 0.138-2.867 0.231-5.77 0.507-8.709 0.809-0.584 0.062-1.173 0.118-1.762 0.185-3 0.322-6.031 0.681-9.088 1.080-0.527 0.072-1.050 0.144-1.572 0.215-3.17 0.425-6.359 0.891-9.584 1.403-0.353 0.057-0.712 0.118-1.065 0.179-3.415 0.553-6.851 1.157-10.312 1.822-4.88 0.952-34.058 21.401-56.305 36.291z" fill="#000000"></path>
</svg>
