<?xml version="1.0" encoding="utf-8"?>
<!-- Generated by IcoMoon.io -->
<!DOCTYPE svg PUBLIC "-//W3C//DTD SVG 1.1//EN" "http://www.w3.org/Graphics/SVG/1.1/DTD/svg11.dtd">
<svg version="1.1" xmlns="http://www.w3.org/2000/svg" xmlns:xlink="http://www.w3.org/1999/xlink" width="512" height="512" viewBox="0 0 512 512">
<g id="icomoon-ignore">
	<line stroke-width="1" x1="0" y1="656" x2="672" y2="656" stroke="#449FDB" opacity="0.3"></line>
</g>
	<path d="M113.71 194.617c33.956 0 61.497 27.412 61.497 61.389 0 33.961-27.541 61.379-61.496 61.379-33.864 0-61.383-27.418-61.383-61.379 0-33.981 27.52-61.389 61.383-61.389zM113.71 143.417c-62.080 0-112.584 50.509-112.584 112.589 0 62.075 50.504 112.579 112.584 112.579 62.141 0 112.697-50.503 112.697-112.579 0-62.080-50.555-112.589-112.697-112.589v0z" fill="#000000"></path>
	<path d="M398.295 194.617c33.838 0 61.378 27.412 61.378 61.389 0 33.961-27.541 61.379-61.379 61.379-33.981 0-61.502-27.418-61.502-61.379 0-33.981 27.52-61.389 61.502-61.389zM398.295 143.417c-62.147 0-112.702 50.509-112.702 112.589 0 62.075 50.555 112.579 112.702 112.579 62.075 0 112.579-50.503 112.579-112.579 0-62.080-50.504-112.589-112.579-112.589v0z" fill="#000000"></path>
</svg>
