<?xml version="1.0" encoding="utf-8"?>
<!-- Generated by IcoMoon.io -->
<!DOCTYPE svg PUBLIC "-//W3C//DTD SVG 1.1//EN" "http://www.w3.org/Graphics/SVG/1.1/DTD/svg11.dtd">
<svg version="1.1" xmlns="http://www.w3.org/2000/svg" xmlns:xlink="http://www.w3.org/1999/xlink" width="512" height="512" viewBox="0 0 512 512">
<g id="icomoon-ignore">
	<line stroke-width="1" x1="0" y1="656" x2="672" y2="656" stroke="#449FDB" opacity="0.3"></line>
</g>
	<path d="M445.44 10.24h-378.88c-8.484 0-15.36 6.876-15.36 15.36v460.8c0 8.484 6.876 15.36 15.36 15.36h378.88c8.484 0 15.36-6.876 15.36-15.36v-460.8c0-8.484-6.876-15.36-15.36-15.36zM430.080 471.040h-348.16v-430.080h348.16v430.080z" fill="#000000"></path>
	<path d="M228.839 320.389c22.313 0 43.065-6.789 60.313-18.406l97.49 99.088 21.898-21.545-96.563-98.146c15.688-18.796 25.159-42.947 25.159-69.279 0-59.704-48.579-108.278-108.293-108.278-59.694 0-108.263 48.574-108.263 108.278-0.005 59.709 48.563 108.288 108.258 108.288zM228.839 134.538c42.772 0 77.573 34.796 77.573 77.558 0 42.773-34.8 77.568-77.573 77.568-42.757 0-77.543-34.8-77.543-77.568 0-42.762 34.786-77.558 77.543-77.558z" fill="#000000"></path>
</svg>
