<?xml version="1.0" encoding="utf-8"?>
<!-- Generated by IcoMoon.io -->
<!DOCTYPE svg PUBLIC "-//W3C//DTD SVG 1.1//EN" "http://www.w3.org/Graphics/SVG/1.1/DTD/svg11.dtd">
<svg version="1.1" xmlns="http://www.w3.org/2000/svg" xmlns:xlink="http://www.w3.org/1999/xlink" width="512" height="512" viewBox="0 0 512 512">
<g id="icomoon-ignore">
	<line stroke-width="1" x1="0" y1="656" x2="672" y2="656" stroke="#449FDB" opacity="0.3"></line>
</g>
	<path d="M504.505 468.296l-155.546-155.546c25.159-32.788 40.161-73.758 40.161-118.19 0-107.279-87.281-194.56-194.56-194.56s-194.56 87.281-194.56 194.56 87.281 194.56 194.56 194.56c44.431 0 85.401-15.002 118.19-40.161l155.546 155.546 36.209-36.209zM51.2 194.56c0-79.186 64.179-143.36 143.36-143.36s143.36 64.174 143.36 143.36c0 79.155-64.179 143.36-143.36 143.36s-143.36-64.205-143.36-143.36z" fill="#000000"></path>
	<path d="M107.52 168.96h174.080v51.2h-174.080v-51.2z" fill="#000000"></path>
	<path d="M168.96 107.52h51.2v174.080h-51.2v-174.080z" fill="#000000"></path>
</svg>
