<?xml version="1.0" encoding="utf-8"?>
<!-- Generated by IcoMoon.io -->
<!DOCTYPE svg PUBLIC "-//W3C//DTD SVG 1.1//EN" "http://www.w3.org/Graphics/SVG/1.1/DTD/svg11.dtd">
<svg version="1.1" xmlns="http://www.w3.org/2000/svg" xmlns:xlink="http://www.w3.org/1999/xlink" width="512" height="512" viewBox="0 0 512 512">
<g id="icomoon-ignore">
	<line stroke-width="1" x1="0" y1="656" x2="672" y2="656" stroke="#449FDB" opacity="0.3"></line>
</g>
	<path d="M84.736 240.64h155.904v-51.2h-103.311c20.613-51.594 70.446-87.040 127.559-87.040 65.593 0 124.231 46.131 134.471 110.029v2.611h52.736l-1.086-9.892c-16.916-89.201-93.589-153.948-184.519-153.948-63.273 0-123.131 31.785-153.851 81.331v-71.091h-51.2v153.6c0 14.137 9.159 25.6 23.296 25.6z" fill="#000000"></path>
	<path d="M427.264 271.36h-130.304v51.2h77.712c-20.613 51.594-70.446 87.040-127.56 87.040-65.593 0-124.231-46.131-134.471-110.029v-2.611h-52.224l0.578 9.892c16.912 89.2 93.583 153.948 184.514 153.948 63.273 0 123.131-31.785 153.851-81.331v45.491h51.2v-128c0-14.142-9.159-25.6-23.296-25.6z" fill="#000000"></path>
</svg>
