<?xml version="1.0" encoding="utf-8"?>
<!-- Generated by IcoMoon.io -->
<!DOCTYPE svg PUBLIC "-//W3C//DTD SVG 1.1//EN" "http://www.w3.org/Graphics/SVG/1.1/DTD/svg11.dtd">
<svg version="1.1" xmlns="http://www.w3.org/2000/svg" xmlns:xlink="http://www.w3.org/1999/xlink" width="512" height="512" viewBox="0 0 512 512">
<g id="icomoon-ignore">
	<line stroke-width="1" x1="0" y1="656" x2="672" y2="656" stroke="#449FDB" opacity="0.3"></line>
</g>
	<path d="M256 53.76c79.181 0 143.36 68.767 143.36 153.6 0 84.828-143.36 250.88-143.36 250.88s-143.36-166.052-143.36-250.88c0-84.834 64.179-153.6 143.36-153.6zM256 2.56c-107.279 0-194.56 91.874-194.56 204.8 0 46.382 26.394 107.305 80.691 186.26 37.013 53.817 73.575 96.297 75.111 98.079 9.728 11.264 23.875 17.741 38.758 17.741s29.031-6.477 38.754-17.741c1.536-1.782 38.103-44.262 75.111-98.079 54.303-78.956 80.697-139.879 80.697-186.261 0-112.927-87.281-204.8-194.56-204.8v0z" fill="#000000"></path>
	<path d="M168.96 179.2h174.080v51.2h-174.080v-51.2z" fill="#000000"></path>
	<path d="M230.4 117.76h51.2v174.080h-51.2v-174.080z" fill="#000000"></path>
</svg>
