<?xml version="1.0" encoding="utf-8"?>
<!-- Generated by IcoMoon.io -->
<!DOCTYPE svg PUBLIC "-//W3C//DTD SVG 1.1//EN" "http://www.w3.org/Graphics/SVG/1.1/DTD/svg11.dtd">
<svg version="1.1" xmlns="http://www.w3.org/2000/svg" xmlns:xlink="http://www.w3.org/1999/xlink" width="512" height="512" viewBox="0 0 512 512">
<g id="icomoon-ignore">
	<line stroke-width="1" x1="0" y1="656" x2="672" y2="656" stroke="#449FDB" opacity="0.3"></line>
</g>
	<path d="M456.704 427.52h-327.68c-8.484 0-15.36-6.876-15.36-15.36v-399.36c0-8.484 6.876-15.36 15.36-15.36h327.68c8.484 0 15.36 6.876 15.36 15.36v399.36c0 8.484-6.882 15.36-15.36 15.36zM144.384 396.8h296.96v-368.64h-296.96v368.64z" fill="#000000"></path>
	<path d="M392.704 506.88h-342.016c-8.484 0-15.36-6.876-15.36-15.36v-371.2h30.72v355.84h326.656v30.72z" fill="#000000"></path>
	<path d="M195.584 115.2h194.56v30.72h-194.56v-30.72z" fill="#000000"></path>
	<path d="M195.584 197.12h194.56v30.72h-194.56v-30.72z" fill="#000000"></path>
	<path d="M195.584 279.040h194.56v30.72h-194.56v-30.72z" fill="#000000"></path>
</svg>
