<?xml version="1.0" encoding="utf-8"?>
<!-- Generated by IcoMoon.io -->
<!DOCTYPE svg PUBLIC "-//W3C//DTD SVG 1.1//EN" "http://www.w3.org/Graphics/SVG/1.1/DTD/svg11.dtd">
<svg version="1.1" xmlns="http://www.w3.org/2000/svg" xmlns:xlink="http://www.w3.org/1999/xlink" width="512" height="512" viewBox="0 0 512 512">
<g id="icomoon-ignore">
	<line stroke-width="1" x1="0" y1="656" x2="672" y2="656" stroke="#449FDB" opacity="0.3"></line>
</g>
	<path d="M261.934 503.26c-100.905 0-117.863-61.168-187.756-318.111-3.436 1.715-8.29 4.598-14.771 9.441-7.588 5.662-17.689 6.677-26.25 2.642l-10.809-5.105c-7.066-3.333-12.216-9.708-13.993-17.316s0.005-15.606 4.854-21.724c13.466-17.004 83.737-101.822 145.275-101.822 30.351 0 68.162 18.273 75.955 105.329 14.428 161.511 48.763 168.755 49.106 168.755 2.944 0 7.050-2.698 8.863-4.342 16.036-19.021 70.507-121.902 56.663-152.11-0.584-1.275-2.14-4.665-13.747-4.665-6.615 0-14.73 1.193-24.125 3.554-9.938 2.483-20.382-1.167-26.583-9.298-6.211-8.136-6.974-19.179-1.956-28.094 1.935-3.43 48.246-84.019 127.678-84.019 25.498 0 51.113 8.412 76.119 25.006 40.73 27.013 31.043 110.612-28.784 248.468-18.498 42.624-46.285 85.775-76.226 118.39-38.712 42.163-79.135 64.645-116.91 65.009l-2.601 0.010zM123.566 171.638c72.059 264.755 83.456 280.423 138.368 280.423l2.12-0.010c49.884-0.481 114.964-79.575 146.652-152.581 46.546-107.249 55.567-173.895 47.058-185.687-16.333-10.762-32.292-16.21-47.426-16.21-19.154 0-35.911 8.658-49.264 19.292 21.478 7.117 31.242 22.6 35.486 32.87 26.706 64.589-56.141 195.722-67.763 207.309-4.557 4.557-21.356 19.502-45.235 19.507-0.005 0-0.015 0-0.015 0-54.416 0.005-87.153-70.451-100.106-215.393-1.229-13.762-6.672-58.691-24.955-58.691-14.874 0-37.048 14.7-58.394 33.459 13.788 7.035 21.909 21.376 23.475 35.712z" fill="#000000"></path>
</svg>
