<?xml version="1.0" encoding="utf-8"?>
<!-- Generated by IcoMoon.io -->
<!DOCTYPE svg PUBLIC "-//W3C//DTD SVG 1.1//EN" "http://www.w3.org/Graphics/SVG/1.1/DTD/svg11.dtd">
<svg version="1.1" xmlns="http://www.w3.org/2000/svg" xmlns:xlink="http://www.w3.org/1999/xlink" width="512" height="512" viewBox="0 0 512 512">
<g id="icomoon-ignore">
	<line stroke-width="1" x1="0" y1="656" x2="672" y2="656" stroke="#449FDB" opacity="0.3"></line>
</g>
	<path d="M368.64 512h-343.040c-14.142 0-25.6-11.464-25.6-25.6v-343.040c0-14.137 11.459-25.6 25.6-25.6h148.48v51.2h-122.88v291.84h291.84v-112.64h51.2v138.24c0 14.137-11.459 25.6-25.6 25.6z" fill="#000000"></path>
	<path d="M464.24 47.76c-4.869-4.874-11.331-6.871-18.401-6.8h-200.079v51.2h137.846l-233.446 233.477 36.198 36.204 233.482-233.84v133.12h51.2v-194.56c0.082-6.897-1.925-13.927-6.8-18.8z" fill="#000000"></path>
</svg>
