<?xml version="1.0" encoding="utf-8"?>
<!-- Generated by IcoMoon.io -->
<!DOCTYPE svg PUBLIC "-//W3C//DTD SVG 1.1//EN" "http://www.w3.org/Graphics/SVG/1.1/DTD/svg11.dtd">
<svg version="1.1" xmlns="http://www.w3.org/2000/svg" xmlns:xlink="http://www.w3.org/1999/xlink" width="512" height="512" viewBox="0 0 512 512">
<g id="icomoon-ignore">
	<line stroke-width="1" x1="0" y1="656" x2="672" y2="656" stroke="#449FDB" opacity="0.3"></line>
</g>
	<path d="M255.744 80.384c-60.441 0-115.344 29.916-148.224 78.479v-92.303h-30.72v140.8c0 8.484 6.876 17.92 15.36 17.92h143.36v-30.72h-111.995c25.242-51.2 75.843-82.176 132.219-82.176 81.869 0 148.48 65.966 148.48 147.84s-66.611 148.163-148.48 148.163c-62.31 0-119.255-39.501-140.477-98.058-3.129-8.642-5.186-13.88-7.746-26.86v-17.229h-30.72v20.762c1.751 11.443 6.067 22.759 10.005 33.628 25.605 70.671 93.543 118.154 168.734 118.154 98.811 0 179.303-80.389 179.303-179.2s-80.286-179.2-179.097-179.2z" fill="#000000"></path>
</svg>
