<?xml version="1.0" encoding="utf-8"?>
<!-- Generated by IcoMoon.io -->
<!DOCTYPE svg PUBLIC "-//W3C//DTD SVG 1.1//EN" "http://www.w3.org/Graphics/SVG/1.1/DTD/svg11.dtd">
<svg version="1.1" xmlns="http://www.w3.org/2000/svg" xmlns:xlink="http://www.w3.org/1999/xlink" width="512" height="512" viewBox="0 0 512 512">
<g id="icomoon-ignore">
	<line stroke-width="1" x1="0" y1="656" x2="672" y2="656" stroke="#449FDB" opacity="0.3"></line>
</g>
	<path d="M435.051 138.24h-175.673c1.5-15.36-0.911-36.792-11.321-57.758-9.165-18.453-25.037-29.143-43.541-29.143-22.129 0-40.909 15.196-46.971 20.706l-122.107 90.184c-1.024 0.752-1.992 1.572-2.888 2.473-35.415 35.415-32.932 111.611-32.062 126.704-0.871 15.094-3.353 91.3 32.056 126.715 21.652 21.652 62.137 32.62 120.346 32.62 10.235 0 17.987-0.384 21.243-0.579 1.808 0.077 4.93 0.174 9.042 0.174 27.632 0 78.183-4.188 106.204-32.215 17.705-17.705 27.986-49.433 31.426-97.459 0.891-12.467 1.188-23.7 1.209-33.94h113.034c30.868 0 76.8-19.092 76.8-71.68 0-56.346-45.931-76.8-76.8-76.8zM435.051 235.52h-139.264c-7.065 0-13.814 2.703-18.652 7.854-4.839 5.145-7.337 11.96-6.902 19.010 2.882 46.649-3.282 105.799-17.065 119.582-10.455 10.46-37.934 17.188-70.006 17.188-4.521 0-7.378-0.159-7.685-0.179-1.121-0.067-2.284-0.067-3.42 0.015-0.077 0.005-7.798 0.548-19.174 0.548-49.040 0-75.618-9.108-84.137-17.628-14.899-14.899-18.954-60.877-17.075-88.734 0.082-1.168 0.082-2.365 0-3.527-1.833-27.207 1.981-71.634 16-87.613l121.462-89.723c0.906-0.671 1.772-1.398 2.581-2.181 2.284-2.212 7.173-5.576 10.522-7.014 12.944 26.137 2.585 44.436 1.633 46.019-5.694 7.782-6.242 17.894-1.874 26.496 4.368 8.596 13.491 13.809 23.137 13.809h209.613c11.822 0 25.907 4.987 25.907 25.6 0 17.372-16.19 20.48-25.6 20.48z" fill="#000000"></path>
</svg>
