<?xml version="1.0" encoding="utf-8"?>
<!-- Generated by IcoMoon.io -->
<!DOCTYPE svg PUBLIC "-//W3C//DTD SVG 1.1//EN" "http://www.w3.org/Graphics/SVG/1.1/DTD/svg11.dtd">
<svg version="1.1" xmlns="http://www.w3.org/2000/svg" xmlns:xlink="http://www.w3.org/1999/xlink" width="512" height="512" viewBox="0 0 512 512">
<g id="icomoon-ignore">
	<line stroke-width="1" x1="0" y1="656" x2="672" y2="656" stroke="#449FDB" opacity="0.3"></line>
</g>
	<path d="M312.32 215.040c0-19.789-16.046-35.84-35.856-35.84-19.743 0-35.825 16.051-35.825 35.84s16.082 35.84 35.825 35.84c19.799 0 35.856-16.051 35.856-35.84z" fill="#000000"></path>
	<path d="M424.018 88.002c-21.381-28.314-48.036-49.648-108.636-61.752-63.058-12.601-121.067-13.342-123.505-13.368l-0.317 30.72c0.569 0.005 57.543 0.737 117.811 12.77 56.812 11.351 75.678 30.997 90.137 50.14 67.609 89.538 12.36 233.625-1.321 258.534-23.024 41.933-117.289 100.874-174.75 100.874-0.138 0-0.272 0-0.41 0-24.684 0-31.001-9.984-33.090-13.706-6.641-11.791-8.433-77.476-6.287-132.142 0.164-4.301-1.475-8.161-4.526-11.192-3.047-3.031-7.173-4.516-11.525-4.296l-71.337 3.328 55.91-120.448-27.868-12.907-66.56 143.463c-2.258 4.869-1.813 10.567 1.178 15.033 2.99 4.45 7.997 6.999 13.456 6.789l80.031-3.651c-0.994 38.754-1.126 110.003 10.757 131.092 7.854 13.983 24.617 29.358 59.863 29.358 0.19 0 0.374 0 0.558 0 70.615 0 173.394-65.567 201.529-116.808 18.396-33.495 76.037-189.696-1.096-291.83z" fill="#000000"></path>
</svg>
