<?xml version="1.0" encoding="utf-8"?>
<!-- Generated by IcoMoon.io -->
<!DOCTYPE svg PUBLIC "-//W3C//DTD SVG 1.1//EN" "http://www.w3.org/Graphics/SVG/1.1/DTD/svg11.dtd">
<svg version="1.1" xmlns="http://www.w3.org/2000/svg" xmlns:xlink="http://www.w3.org/1999/xlink" width="512" height="512" viewBox="0 0 512 512">
<g id="icomoon-ignore">
	<line stroke-width="1" x1="0" y1="656" x2="672" y2="656" stroke="#449FDB" opacity="0.3"></line>
</g>
	<path d="M263.68 161.28c-43.761 0-79.36 35.605-79.36 79.365 0 43.755 35.6 79.355 79.36 79.355s79.36-35.599 79.36-79.355c0-43.761-35.599-79.365-79.36-79.365zM263.68 289.28c-26.875 0-48.64-21.781-48.64-48.635 0-26.87 21.765-48.645 48.64-48.645 26.829 0 48.64 21.775 48.64 48.645 0 26.855-21.811 48.635-48.64 48.635z" fill="#000000"></path>
	<path d="M480.077 237.327c-1.183-1.541-29.399-38.246-68.798-75.367-56.366-53.11-106.885-80.041-150.159-80.041-96.404 0-215.137 138.563-228.362 154.363-9.549 11.412-9.549 28.022 0 39.429 13.225 15.805 131.958 154.368 228.362 154.368 43.274 0 93.793-26.931 150.159-80.041 39.399-37.12 67.615-73.82 68.798-75.366 8.433-11.018 8.433-26.327 0-37.346zM261.12 399.36c-84.834 0-204.8-143.36-204.8-143.36s119.966-143.36 204.8-143.36c84.828 0 194.56 143.36 194.56 143.36s-109.732 143.36-194.56 143.36z" fill="#000000"></path>
</svg>
