<?xml version="1.0" encoding="utf-8"?>
<!-- Generated by IcoMoon.io -->
<!DOCTYPE svg PUBLIC "-//W3C//DTD SVG 1.1//EN" "http://www.w3.org/Graphics/SVG/1.1/DTD/svg11.dtd">
<svg version="1.1" xmlns="http://www.w3.org/2000/svg" xmlns:xlink="http://www.w3.org/1999/xlink" width="512" height="512" viewBox="0 0 512 512">
<g id="icomoon-ignore">
	<line stroke-width="1" x1="0" y1="656" x2="672" y2="656" stroke="#449FDB" opacity="0.3"></line>
</g>
	<path d="M327.68 10.24h-112.64v30.72h97.28v430.080h-97.28v30.72h112.64c8.484 0 15.36-6.876 15.36-15.36v-460.8c0-8.484-6.876-15.36-15.36-15.36z" fill="#000000"></path>
	<path d="M40.96 40.96h97.28v-30.72h-112.64c-8.484 0-15.36 6.876-15.36 15.36v460.8c0 8.484 6.876 15.36 15.36 15.36h112.64v-30.72h-97.28v-430.080z" fill="#000000"></path>
	<path d="M486.4 10.24h-107.52v30.72h92.16v430.080h-92.16v30.72h107.52c8.484 0 15.36-6.876 15.36-15.36v-460.8c0-8.484-6.876-15.36-15.36-15.36z" fill="#000000"></path>
	<path d="M240.64 271.36v-30.72h-51.2v-51.2h-30.72v51.2h-51.2v30.72h51.2v51.2h30.72v-51.2z" fill="#000000"></path>
</svg>
