<?xml version="1.0" encoding="utf-8"?>
<!-- Generated by IcoMoon.io -->
<!DOCTYPE svg PUBLIC "-//W3C//DTD SVG 1.1//EN" "http://www.w3.org/Graphics/SVG/1.1/DTD/svg11.dtd">
<svg version="1.1" xmlns="http://www.w3.org/2000/svg" xmlns:xlink="http://www.w3.org/1999/xlink" width="512" height="512" viewBox="0 0 512 512">
<g id="icomoon-ignore">
	<line stroke-width="1" x1="0" y1="656" x2="672" y2="656" stroke="#449FDB" opacity="0.3"></line>
</g>
	<path d="M505.252 483.84l-235.52-469.458c-2.606-5.191-7.921-8.473-13.732-8.473s-11.126 3.282-13.732 8.473l-235.52 469.458c-2.391 4.762-2.14 10.813 0.66 15.35 2.795 4.536 7.747 7.69 13.072 7.69h471.040c5.325 0 10.276-3.154 13.072-7.685 2.8-4.536 3.046-10.588 0.661-15.355zM45.368 476.16l210.632-419.845 210.631 419.845h-421.264z" fill="#000000"></path>
	<path d="M240.64 204.8h30.72v153.6h-30.72v-153.6z" fill="#000000"></path>
	<path d="M240.64 381.44h30.72v30.72h-30.72v-30.72z" fill="#000000"></path>
</svg>
