<?xml version="1.0" encoding="utf-8"?>
<!-- Generated by IcoMoon.io -->
<!DOCTYPE svg PUBLIC "-//W3C//DTD SVG 1.1//EN" "http://www.w3.org/Graphics/SVG/1.1/DTD/svg11.dtd">
<svg version="1.1" xmlns="http://www.w3.org/2000/svg" xmlns:xlink="http://www.w3.org/1999/xlink" width="512" height="512" viewBox="0 0 512 512">
<g id="icomoon-ignore">
	<line stroke-width="1" x1="0" y1="656" x2="672" y2="656" stroke="#449FDB" opacity="0.3"></line>
</g>
	<path d="M131.528 135.23c-59.254 0-107.463 48.21-107.463 107.463 0 59.248 48.21 107.454 107.463 107.454 59.315 0 107.576-48.205 107.576-107.454 0-59.254-48.261-107.464-107.577-107.464zM131.528 319.432c-42.352 0-76.743-34.284-76.743-76.733 0-42.471 34.391-76.743 76.743-76.743 42.424 0 76.857 34.274 76.857 76.743 0 42.445-34.427 76.733-76.856 76.733z" fill="#000000"></path>
	<path d="M378.993 135.23c-59.32 0-107.582 48.21-107.582 107.463 0 59.248 48.261 107.454 107.582 107.454 59.254 0 107.459-48.205 107.459-107.454 0.005-59.254-48.2-107.464-107.459-107.464zM378.993 319.432c-42.471 0-76.862-34.284-76.862-76.733 0-42.471 34.391-76.743 76.861-76.743 42.312 0 76.738 34.274 76.738 76.743 0.005 42.445-34.427 76.733-76.738 76.733z" fill="#000000"></path>
</svg>
