<?xml version="1.0" encoding="utf-8"?>
<!-- Generated by IcoMoon.io -->
<!DOCTYPE svg PUBLIC "-//W3C//DTD SVG 1.1//EN" "http://www.w3.org/Graphics/SVG/1.1/DTD/svg11.dtd">
<svg version="1.1" xmlns="http://www.w3.org/2000/svg" xmlns:xlink="http://www.w3.org/1999/xlink" width="512" height="512" viewBox="0 0 512 512">
<g id="icomoon-ignore">
	<line stroke-width="1" x1="0" y1="656" x2="672" y2="656" stroke="#449FDB" opacity="0.3"></line>
</g>
	<path d="M178.13 260.291c1.034 0.215 2.078 0.317 3.118 0.317 3.031 0 6.021-0.901 8.576-2.616 4.306-2.898 9.078-5.842 14.137-8.95 35.358-21.765 83.784-51.584 83.271-134.446l-30.72 0.189c0.404 65.582-36.286 88.171-68.654 108.098-3.205 1.971-6.298 3.881-9.308 5.791-52.966-17.065-44.078-104.73-43.986-105.626 0.482-4.306-0.881-8.617-3.743-11.863s-6.969-5.135-11.3-5.202c-17.71-0.256-42.762-21.642-61.077-31.396 36.475-24.248 125.844-58.148 225.751 4.475 4.567 2.862 10.291 3.118 15.094 0.691 2.12-1.075 51.978-26.906 51.763-79.821l-30.72 0.128c0.103 24.335-17.95 40.678-28.13 47.959-145.92-84.46-270.541 15.662-271.8 16.814-3.527 3.2-5.376 7.854-4.997 12.606s2.939 9.058 6.933 11.648c5.018 3.266 44.81 38.922 80.835 45.865-0.532 33.531 5.873 111.012 74.957 125.338z" fill="#000000"></path>
	<path d="M369.387 344.499c-29.409-30.101-68.045-45.491-114.816-45.491-69.013 0-131.308 33.582-133.929 35.010-4.249 2.32-7.153 6.507-7.844 11.294-0.686 4.798 0.927 9.63 4.352 13.051 1.311 1.31 30.101 30.080 75.725 35.21 5.028 29.419 22.584 97.772 77.496 97.772 0.051 0 0.538 0 0.584 0 4.096 0 8.002-2.222 10.865-5.161 2.202-2.258 54.323-56.387 90.137-123.602 3.149-5.909 2.11-13.291-2.57-18.084zM264.683 459.024c-35.164-7.276-42.962-81.137-43.029-81.899-0.712-7.885-7.291-13.942-15.207-13.988-19.645-0.123-36.126-6.349-47.892-12.738 22.451-9.067 58.506-20.664 96.016-20.664 33.874 0 62.275 9.554 84.598 28.432-26.993 47.278-61.814 87.030-74.486 100.859z" fill="#000000"></path>
	<path d="M511.908 237.44l-43.643 0.256c-19.128-51.446-26.414-120.77-26.491-121.498-0.793-7.762-7.286-13.696-15.084-13.793-0.2 0-0.399-0.005-0.599-0.005-48.62 0-80.921 75.167-84.454 83.763-0.768 1.853-1.157 3.83-1.157 5.837 0 13.005-28.175 31.964-48.502 40.648-5.33 2.258-8.93 7.332-9.319 13.107s2.503 11.279 7.481 14.233c1.95 1.162 35.466 20.536 91.392 20.531 22.676 0 49.039-3.185 78.464-12.058l52.096-0.302-0.185-30.72zM334.95 244.373c28.907-19.655 34.852-39.675 35.993-48.65 7.634-17.602 24.883-47.529 42.512-58.46 3.353 23.966 10.742 67.671 23.998 105.529-44.754 11.008-79.831 7.266-102.502 1.582z" fill="#000000"></path>
</svg>
