<?xml version="1.0" encoding="utf-8"?>
<!-- Generated by IcoMoon.io -->
<!DOCTYPE svg PUBLIC "-//W3C//DTD SVG 1.1//EN" "http://www.w3.org/Graphics/SVG/1.1/DTD/svg11.dtd">
<svg version="1.1" xmlns="http://www.w3.org/2000/svg" xmlns:xlink="http://www.w3.org/1999/xlink" width="512" height="512" viewBox="0 0 512 512">
<g id="icomoon-ignore">
	<line stroke-width="1" x1="0" y1="656" x2="672" y2="656" stroke="#449FDB" opacity="0.3"></line>
</g>
	<path d="M230.4 215.040h51.2v122.88h-51.2v-122.88z" fill="#000000"></path>
	<path d="M230.4 363.52h51.2v56.32h-51.2v-56.32z" fill="#000000"></path>
	<path d="M509.281 474.142l-230.4-459.248c-4.342-8.653-13.194-14.121-22.881-14.121s-18.54 5.463-22.881 14.121l-230.4 459.248c-3.983 7.936-3.568 17.756 1.095 25.313 4.659 7.557 12.908 12.544 21.785 12.544h460.8c8.878 0 17.127-4.987 21.786-12.544 4.665-7.557 5.079-17.377 1.096-25.313zM67.088 460.8l188.912-376.56 188.913 376.56h-377.825z" fill="#000000"></path>
</svg>
