<?xml version="1.0" encoding="utf-8"?>
<!-- Generated by IcoMoon.io -->
<!DOCTYPE svg PUBLIC "-//W3C//DTD SVG 1.1//EN" "http://www.w3.org/Graphics/SVG/1.1/DTD/svg11.dtd">
<svg version="1.1" xmlns="http://www.w3.org/2000/svg" xmlns:xlink="http://www.w3.org/1999/xlink" width="512" height="512" viewBox="0 0 512 512">
<g id="icomoon-ignore">
	<line stroke-width="1" x1="0" y1="656" x2="672" y2="656" stroke="#449FDB" opacity="0.3"></line>
</g>
	<path d="M384.185 144.681l-21.463 21.975 91.459 89.344-91.459 89.344 21.463 21.975 102.707-100.332c2.959-2.887 4.628-6.851 4.628-10.988s-1.669-8.1-4.628-10.988l-102.707-100.332z" fill="#000000"></path>
	<path d="M131.911 144.681l-102.707 100.332c-2.965 2.887-4.628 6.851-4.628 10.987s1.669 8.1 4.628 10.988l102.707 100.332 21.463-21.975-91.459-89.344 91.459-89.344-21.463-21.975z" fill="#000000"></path>
	<path d="M225.899 427.52l-29.669-7.959 89.886-335.051 29.669 7.96-89.886 335.051z" fill="#000000"></path>
</svg>
