<?xml version="1.0" encoding="utf-8"?>
<!-- Generated by IcoMoon.io -->
<!DOCTYPE svg PUBLIC "-//W3C//DTD SVG 1.1//EN" "http://www.w3.org/Graphics/SVG/1.1/DTD/svg11.dtd">
<svg version="1.1" xmlns="http://www.w3.org/2000/svg" xmlns:xlink="http://www.w3.org/1999/xlink" width="512" height="512" viewBox="0 0 512 512">
<g id="icomoon-ignore">
	<line stroke-width="1" x1="0" y1="656" x2="672" y2="656" stroke="#449FDB" opacity="0.3"></line>
</g>
	<path d="M451.584 43.812v53.79c-0.092 0-0.19 0-0.276 0-58.957-0.005-68.844 60.416-68.844 60.416v55.066h71.68v51.2h-71.68v204.708h-56.32v-204.713h-76.8v-51.2h76.8v-53.34c0-103.936 125.44-115.927 125.44-115.927zM451.589 13.092c-0.973 0-1.95 0.046-2.928 0.138-1.515 0.143-37.596 3.763-73.748 22.201-51.262 26.137-79.488 70.282-79.488 124.309v22.62h-46.080c-16.963 0-30.72 13.757-30.72 30.72v51.2c0 16.962 13.757 30.72 30.72 30.72h46.080v173.993c0 16.962 13.757 30.72 30.72 30.72h56.32c16.962 0 30.72-13.757 30.72-30.72v-173.993h40.96c16.962 0 30.72-13.757 30.72-30.72v-51.2c0-16.963-13.757-30.72-30.72-30.72h-40.96v-21.202c2.099-8.77 10.394-32.84 38.118-32.84 0.031 0 0.057 0 0.087 0 8.13 0 16.026-3.225 21.786-8.965 5.781-5.765 9.124-13.594 9.124-21.755v-53.785c0-8.653-3.651-16.912-10.055-22.727-5.678-5.171-13.051-7.992-20.654-7.992v0z" fill="#000000"></path>
</svg>
