<?xml version="1.0" encoding="utf-8"?>
<!-- Generated by IcoMoon.io -->
<!DOCTYPE svg PUBLIC "-//W3C//DTD SVG 1.1//EN" "http://www.w3.org/Graphics/SVG/1.1/DTD/svg11.dtd">
<svg version="1.1" xmlns="http://www.w3.org/2000/svg" xmlns:xlink="http://www.w3.org/1999/xlink" width="512" height="512" viewBox="0 0 512 512">
<g id="icomoon-ignore">
	<line stroke-width="1" x1="0" y1="656" x2="672" y2="656" stroke="#449FDB" opacity="0.3"></line>
</g>
	<path d="M460.8 87.040h-7.788l-0.062-60.892c-0.015-14.126-11.474-26.148-25.6-26.148h-97.111c-14.142 0-28.16 11.459-28.16 25.6v61.44h-92.267l-0.061-60.892c-0.016-14.126-11.474-26.148-25.6-26.148h-97.111c-14.141 0-25.6 11.459-25.6 25.6v61.44h-10.24c-28.273 0-51.2 21.77-51.2 50.043v322.309c0 13.589 5.402 27.325 15.017 36.925 9.6 9.595 22.615 15.682 36.183 15.682 0.020 0 0.036 0 0.051 0l409.6-1.111c28.262-0.031 51.149-23.644 51.149-51.901v-321.904c0-28.273-22.928-50.043-51.2-50.043zM158.72 51.2v102.4h-46.080v-102.4h46.080zM401.782 51.2l0.108 102.4h-48.61v-102.4h48.502zM51.2 459.397v-244.357h409.6v243.947l-409.6 0.409z" fill="#000000"></path>
</svg>
