<?xml version="1.0" encoding="utf-8"?>
<!-- Generated by IcoMoon.io -->
<!DOCTYPE svg PUBLIC "-//W3C//DTD SVG 1.1//EN" "http://www.w3.org/Graphics/SVG/1.1/DTD/svg11.dtd">
<svg version="1.1" xmlns="http://www.w3.org/2000/svg" xmlns:xlink="http://www.w3.org/1999/xlink" width="328" height="512" viewBox="0 0 328 512">
<g id="icomoon-ignore">
	<line stroke-width="1" x1="0" y1="656" x2="672" y2="656" stroke="#449FDB" opacity="0.3"></line>
</g>
	<path d="M225.008 343.931l6.339-5.356c26.711-22.548 38.513-53.499 30.812-80.773-13.655-48.307-53.222-66.56-88.125-82.668-33.224-15.329-61.922-28.565-70.446-63.908-2.908-12.068 1.188-25.805 11.254-38.579 12.964-16.451 32.83-26.567 50.622-26.567 0 0 0.016 0 0.025 0 16.466 0 31.114 5.739 42.732 17.101 11.525 11.274 17.060 25.723 17.060 41.63v12.948h30.72v-12.948c0-24.238-8.822-46.489-26.302-63.59-17.382-17.009-39.665-25.861-64.205-25.861-0.020 0-0.030 0-0.041 0-27.254 0-55.895 14.351-74.747 38.282-15.923 20.219-22.114 43.766-16.978 65.049 5.228 21.683 15.78 37.299 28.938 49.51l-6.338 5.289c-26.711 22.553-38.513 53.474-30.812 80.743 13.655 48.307 53.222 66.54 88.126 82.647 33.224 15.329 61.922 28.565 70.446 63.903 2.908 12.073-1.188 25.805-11.254 38.579-12.958 16.445-32.819 26.558-50.611 26.558 0 0-0.016 0-0.025 0-16.466 0-31.119-5.74-42.731-17.101-11.53-11.274-17.065-25.723-17.065-41.63v-12.949h-30.72v12.949c0 24.238 8.822 46.49 26.302 63.591 17.388 17.009 39.67 25.861 64.21 25.861 0.016 0 0.020 0 0.041 0 27.254 0 55.89-14.351 74.742-38.282 15.923-20.219 22.113-43.771 16.978-65.049-5.227-21.678-15.78-37.161-28.944-49.377zM95.079 245.847c-4.316-15.283 3.953-34.494 21.069-48.953l11.735-9.912-1.081-1.28c11.218 6.636 23.030 12.103 34.361 17.331 33.070 15.257 61.625 28.431 71.434 63.124 4.316 15.283-3.952 34.498-21.069 48.952l-11.735 9.913 1.085 1.28c-11.223-6.635-23.035-12.099-34.365-17.331-33.070-15.262-61.624-28.437-71.434-63.125z" fill="#000000"></path>
</svg>
