<?xml version="1.0" encoding="utf-8"?>
<!-- Generated by IcoMoon.io -->
<!DOCTYPE svg PUBLIC "-//W3C//DTD SVG 1.1//EN" "http://www.w3.org/Graphics/SVG/1.1/DTD/svg11.dtd">
<svg version="1.1" xmlns="http://www.w3.org/2000/svg" xmlns:xlink="http://www.w3.org/1999/xlink" width="512" height="512" viewBox="0 0 512 512">
<g id="icomoon-ignore">
	<line stroke-width="1" x1="0" y1="656" x2="672" y2="656" stroke="#449FDB" opacity="0.3"></line>
</g>
	<path d="M496.957 295.291l-231.962-279.501c-2.918-3.518-7.25-5.55-11.822-5.55-0.030 0-0.061 0-0.097 0-4.598 0.030-8.945 2.12-11.838 5.694l-226.314 279.501c-3.732 4.598-4.48 11.986-1.93 17.331 2.55 5.34 7.946 9.795 13.865 9.795h75.54v163.727c0 8.478 8.156 15.355 16.635 15.36l267.202 0.113c4.075 0 6.861-1.613 9.738-4.495s3.385-6.789 3.385-10.865v-163.84h85.781c5.954 0 11.372-4.49 13.906-9.882 2.529-5.386 1.715-12.81-2.089-17.387zM386.56 291.84c-8.484 0-17.92 4.777-17.92 13.261v165.934l-235.52-0.108v-165.827c0-8.484-4.316-13.261-12.8-13.261h-61.261l194.258-239.908 199.112 239.908h-65.869z" fill="#000000"></path>
</svg>
