<?xml version="1.0" encoding="utf-8"?>
<!-- Generated by IcoMoon.io -->
<!DOCTYPE svg PUBLIC "-//W3C//DTD SVG 1.1//EN" "http://www.w3.org/Graphics/SVG/1.1/DTD/svg11.dtd">
<svg version="1.1" xmlns="http://www.w3.org/2000/svg" xmlns:xlink="http://www.w3.org/1999/xlink" width="512" height="512" viewBox="0 0 512 512">
<g id="icomoon-ignore">
	<line stroke-width="1" x1="0" y1="656" x2="672" y2="656" stroke="#449FDB" opacity="0.3"></line>
</g>
	<path d="M483.84 153.6h-74.24v-82.944c0-14.136-8.899-24.576-23.040-24.576h-250.88c-14.142 0-28.16 10.44-28.16 24.576v82.944h-79.36c-14.142 0-28.16 9.928-28.16 24.064v230.4c0 14.137 14.018 27.136 28.16 27.136h74.24v50.176c0 6.8 3.984 13.829 8.791 18.627 4.802 4.798 12.59 7.998 19.369 7.998 0.016 0 0.025 0 0.041 0l249.6-0.911c14.126-0.021 24.279-11.991 24.279-26.112v-49.776h79.36c14.142 0 23.040-13 23.040-27.136v-230.4c0-14.137-8.899-24.064-23.040-24.064zM158.72 97.28h199.68v49.971l-199.68 0.179v-50.15zM353.28 459.418l-199.68 0.317v-121.815h199.68v121.498zM455.68 384h-51.2v-72.704c0-14.137-8.899-24.576-23.040-24.576h-250.88c-14.142 0-28.16 10.44-28.16 24.576v72.704h-51.2v-179.2h404.48v179.2z" fill="#000000"></path>
</svg>
