<?xml version="1.0" encoding="utf-8"?>
<!-- Generated by IcoMoon.io -->
<!DOCTYPE svg PUBLIC "-//W3C//DTD SVG 1.1//EN" "http://www.w3.org/Graphics/SVG/1.1/DTD/svg11.dtd">
<svg version="1.1" xmlns="http://www.w3.org/2000/svg" xmlns:xlink="http://www.w3.org/1999/xlink" width="512" height="512" viewBox="0 0 512 512">
<g id="icomoon-ignore">
	<line stroke-width="1" x1="0" y1="656" x2="672" y2="656" stroke="#449FDB" opacity="0.3"></line>
</g>
	<path d="M92.416 415.744c2.442 5.596 7.972 9.216 14.080 9.216h297.984c8.484 0 15.36-6.876 15.36-15.36v-194.56c0-6.425-4.004-12.175-10.030-14.403-6.026-2.238-12.805-0.471-16.993 4.409l-83.010 96.845-63.826-45.589c-6.287-4.49-14.935-3.605-20.188 2.053l-130.56 140.8c-4.153 4.48-5.258 10.993-2.816 16.589zM303.39 335.058c6.471 4.628 15.416 3.538 20.587-2.503l65.142-75.991v137.677h-247.434l97.444-105.083 64.261 45.901z" fill="#000000"></path>
	<path d="M139.771 126.976c-33.874 0-61.435 27.561-61.435 61.44s27.561 61.44 61.435 61.44c33.879 0 61.445-27.561 61.445-61.44s-27.566-61.44-61.445-61.44zM139.771 219.136c-16.932 0-30.715-13.757-30.715-30.72s13.783-30.72 30.715-30.72c16.978 0 30.725 13.757 30.725 30.72s-13.757 30.72-30.725 30.72z" fill="#000000"></path>
	<path d="M471.040 61.44h-430.080c-16.962 0-30.72 13.757-30.72 30.72v378.88c0 16.962 13.758 30.72 30.72 30.72h430.080c16.962 0 30.72-13.757 30.72-30.72v-378.88c0-16.963-13.757-30.72-30.72-30.72zM471.040 471.040h-430.080v-378.88h430.080v378.88z" fill="#000000"></path>
</svg>
