<?xml version="1.0" encoding="utf-8"?>
<!-- Generated by IcoMoon.io -->
<!DOCTYPE svg PUBLIC "-//W3C//DTD SVG 1.1//EN" "http://www.w3.org/Graphics/SVG/1.1/DTD/svg11.dtd">
<svg version="1.1" xmlns="http://www.w3.org/2000/svg" xmlns:xlink="http://www.w3.org/1999/xlink" width="512" height="512" viewBox="0 0 512 512">
<g id="icomoon-ignore">
	<line stroke-width="1" x1="0" y1="656" x2="672" y2="656" stroke="#449FDB" opacity="0.3"></line>
</g>
	<path d="M359.803 194.304c-8.519-14.69-12.846-31.964-11.474-50.094l-196.813 63.314c7.849 13.072 12.452 28.303 12.452 44.631 0 17.244-5.105 33.285-13.783 46.823l195.369 62.853c-0.138-17.986 5.248-34.928 14.736-49.044l-184.397-59.321 183.911-59.161z" fill="#000000"></path>
	<path d="M138.368 252.16c0 33.932-27.507 61.44-61.44 61.44s-61.44-27.507-61.44-61.44c0-33.933 27.508-61.44 61.44-61.44s61.44 27.507 61.44 61.44z" fill="#000000"></path>
	<path d="M496.64 153.6c0 33.933-27.507 61.44-61.44 61.44s-61.44-27.507-61.44-61.44c0-33.933 27.507-61.44 61.44-61.44s61.44 27.507 61.44 61.44z" fill="#000000"></path>
	<path d="M496.768 358.4c0 33.933-27.507 61.44-61.44 61.44s-61.44-27.507-61.44-61.44c0-33.933 27.507-61.44 61.44-61.44s61.44 27.507 61.44 61.44z" fill="#000000"></path>
</svg>
