<?xml version="1.0" encoding="utf-8"?>
<!-- Generated by IcoMoon.io -->
<!DOCTYPE svg PUBLIC "-//W3C//DTD SVG 1.1//EN" "http://www.w3.org/Graphics/SVG/1.1/DTD/svg11.dtd">
<svg version="1.1" xmlns="http://www.w3.org/2000/svg" xmlns:xlink="http://www.w3.org/1999/xlink" width="512" height="512" viewBox="0 0 512 512">
<g id="icomoon-ignore">
	<line stroke-width="1" x1="0" y1="656" x2="672" y2="656" stroke="#449FDB" opacity="0.3"></line>
</g>
	<path d="M400.123 205.752c-8.924-4.25-19.486-2.985-27.146 3.246l-79.058 64.231-40.811-14.116c-10.061-3.487-21.202-0.384-28.017 7.783l-92.672 110.935c-6.37 7.629-7.751 18.253-3.543 27.259s13.25 14.75 23.189 14.75h237.056c14.137 0 25.6-11.464 25.6-25.6v-165.376c0-9.876-5.678-18.867-14.597-23.112zM363.52 368.64h-156.713l46.254-55.368 37.581 13c8.366 2.887 17.639 1.26 24.514-4.327l48.363-39.296v85.99z" fill="#000000"></path>
	<path d="M153.595 251.392c28.288 0 51.205-22.933 51.205-51.2s-22.907-51.2-51.205-51.2c-28.227 0-51.195 22.933-51.195 51.2s22.969 51.2 51.195 51.2z" fill="#000000"></path>
	<path d="M460.8 51.2h-409.6c-28.278 0-51.2 22.922-51.2 51.2v358.4c0 28.278 22.922 51.2 51.2 51.2h409.6c28.278 0 51.2-22.922 51.2-51.2v-358.4c0-28.278-22.922-51.2-51.2-51.2zM460.8 460.8h-409.6v-358.4h409.6v358.4z" fill="#000000"></path>
</svg>
