<?xml version="1.0" encoding="utf-8"?>
<!-- Generated by IcoMoon.io -->
<!DOCTYPE svg PUBLIC "-//W3C//DTD SVG 1.1//EN" "http://www.w3.org/Graphics/SVG/1.1/DTD/svg11.dtd">
<svg version="1.1" xmlns="http://www.w3.org/2000/svg" xmlns:xlink="http://www.w3.org/1999/xlink" width="512" height="512" viewBox="0 0 512 512">
<g id="icomoon-ignore">
	<line stroke-width="1" x1="0" y1="656" x2="672" y2="656" stroke="#449FDB" opacity="0.3"></line>
</g>
	<path d="M209.92 202.24v207.411c0 20.93 18.14 37.858 46.080 37.858s46.080-16.926 46.080-37.858v-163.891l-92.16-43.52zM271.36 409.651c0 1.464-3.026 7.137-15.36 7.137s-15.36-5.668-15.36-7.137v-159.995l30.72 16.010v143.984z" fill="#000000"></path>
	<path d="M356.787 102.4h57.933v-97.28h-317.44l0.005 97.28h56.315v293.96c0 112.062 103.962 115.097 103.962 115.097 31.462-1.751 56.248-13.041 73.677-33.044 27.689-31.78 26.153-75.177 25.764-81.536l-0.215-294.477zM326.282 397.291l0.046 1.188c0.026 0.353 2.427 35.938-18.391 59.658-11.678 13.307-29.399 20.741-51.906 22.103-6.713-0.21-71.71-4.382-71.71-83.881v-324.68h-56.32v-35.84h256v35.84h-57.954l0.236 325.611z" fill="#000000"></path>
</svg>
