<?xml version="1.0" encoding="utf-8"?>
<!-- Generated by IcoMoon.io -->
<!DOCTYPE svg PUBLIC "-//W3C//DTD SVG 1.1//EN" "http://www.w3.org/Graphics/SVG/1.1/DTD/svg11.dtd">
<svg version="1.1" xmlns="http://www.w3.org/2000/svg" xmlns:xlink="http://www.w3.org/1999/xlink" width="512" height="512" viewBox="0 0 512 512">
<g id="icomoon-ignore">
	<line stroke-width="1" x1="0" y1="656" x2="672" y2="656" stroke="#449FDB" opacity="0.3"></line>
</g>
	<path d="M506.384 297.508l-283.233-290.806c-2.934-3.015-6.963-4.793-11.197-4.649h-191.662c-8.412 0.103-15.171 7.255-15.171 15.667v182.441c0 3.994 1.556 7.828 4.337 10.696l287.232 295.972c2.949 3.041 6.948 4.664 11.024 4.664 1.91 0 3.83-0.353 5.673-1.086 5.776-2.299 9.6-7.849 9.682-14.065l2.391-174.848 169.774 1.065c0.046 0 0.098 0 0.144 0 6.144 0 11.704-3.149 14.121-8.812 2.437-5.699 1.214-11.791-3.113-16.24zM310.451 291.84c-0.046 0-0.098 0-0.144 0-8.392 0-15.242 6.395-15.355 14.802l-2.089 152.31-257.024-265.022v-161.040l169.897-0.123 252.923 260.101-148.208-1.029z" fill="#000000"></path>
	<path d="M128.512 93.174c-16.963-0.010-30.72 13.763-30.72 30.725 0 16.952 13.757 30.71 30.715 30.725 16.968 0.005 30.725-13.762 30.725-30.736 0-16.942-13.752-30.73-30.72-30.715z" fill="#000000"></path>
</svg>
