<?xml version="1.0" encoding="utf-8"?>
<!-- Generated by IcoMoon.io -->
<!DOCTYPE svg PUBLIC "-//W3C//DTD SVG 1.1//EN" "http://www.w3.org/Graphics/SVG/1.1/DTD/svg11.dtd">
<svg version="1.1" xmlns="http://www.w3.org/2000/svg" xmlns:xlink="http://www.w3.org/1999/xlink" width="512" height="512" viewBox="0 0 512 512">
<g id="icomoon-ignore">
	<line stroke-width="1" x1="0" y1="656" x2="672" y2="656" stroke="#449FDB" opacity="0.3"></line>
</g>
	<path d="M0 460.8h512v51.2h-512v-51.2z" fill="#000000"></path>
	<path d="M117.76 15.36h-92.16c-14.136 0-25.6 11.463-25.6 25.6v363.52c0 14.142 11.463 25.6 25.6 25.6h92.16c14.136 0 25.6-11.459 25.6-25.6v-363.52c0-14.136-11.464-25.6-25.6-25.6zM92.16 378.88h-40.96v-312.32h40.96v312.32z" fill="#000000"></path>
	<path d="M302.080 122.88h-92.16c-14.137 0-25.6 11.464-25.6 25.6v256c0 14.142 11.464 25.6 25.6 25.6h92.16c14.137 0 25.6-11.459 25.6-25.6v-256c0-14.137-11.464-25.6-25.6-25.6zM276.48 378.88h-40.96v-204.8h40.96v204.8z" fill="#000000"></path>
	<path d="M486.4 261.12h-92.16c-14.137 0-25.6 11.459-25.6 25.6v117.76c0 14.142 11.464 25.6 25.6 25.6h92.16c14.137 0 25.6-11.459 25.6-25.6v-117.76c0-14.142-11.464-25.6-25.6-25.6zM460.8 378.88h-40.96v-66.56h40.96v66.56z" fill="#000000"></path>
</svg>
