<?xml version="1.0" encoding="utf-8"?>
<!-- Generated by IcoMoon.io -->
<!DOCTYPE svg PUBLIC "-//W3C//DTD SVG 1.1//EN" "http://www.w3.org/Graphics/SVG/1.1/DTD/svg11.dtd">
<svg version="1.1" xmlns="http://www.w3.org/2000/svg" xmlns:xlink="http://www.w3.org/1999/xlink" width="512" height="512" viewBox="0 0 512 512">
<g id="icomoon-ignore">
	<line stroke-width="1" x1="0" y1="656" x2="672" y2="656" stroke="#449FDB" opacity="0.3"></line>
</g>
	<path d="M199.68 512h-40.714c-39.025 0-95.708-30.167-95.708-77.43 0-58.747-9.579-121.579-20.132-132.321l-21.924-15.314c-6.855-4.793-10.937-12.626-10.937-20.987v-20.951c0-8.361 4.080-16.195 10.937-20.987l21.934-15.324c10.547-10.603 20.117-72.95 20.117-131.262 0.005-47.258 56.688-77.424 95.713-77.424h40.714v51.2h-40.714c-20.209 0-44.508 16.108-44.508 26.23 0 19.517-1.424 52.951-5.442 82.918-6.558 48.917-17.552 76.57-35.645 89.677l-7.798 5.447 7.445 5.202c18.448 13.348 29.445 41.18 36.004 90.481 4.014 30.192 5.438 63.805 5.438 83.415 0 10.122 24.304 26.23 44.508 26.23h40.714v51.2z" fill="#000000"></path>
	<path d="M352.548 512h-40.228v-51.2h40.228c20.209 0 44.508-16.108 44.508-26.23 0-19.604 1.423-53.218 5.442-83.415 6.558-49.3 17.556-77.127 35.656-90.23l7.788-5.447-7.445-5.202c-18.442-13.353-29.435-41.011-35.998-89.923-4.019-29.972-5.447-63.401-5.447-82.918 0-10.122-24.305-26.23-44.508-26.23h-40.223v-51.205h40.228c39.024 0 95.708 30.167 95.708 77.43 0 58.306 9.575 120.647 20.122 131.262l21.934 15.324c6.851 4.792 10.937 12.626 10.937 20.987v20.951c0 8.361-4.080 16.195-10.937 20.987l-21.918 15.314c-10.558 10.742-20.137 73.575-20.137 132.322 0 47.257-56.683 77.424-95.708 77.424z" fill="#000000"></path>
</svg>
