<?xml version="1.0" encoding="utf-8"?>
<!-- Generated by IcoMoon.io -->
<!DOCTYPE svg PUBLIC "-//W3C//DTD SVG 1.1//EN" "http://www.w3.org/Graphics/SVG/1.1/DTD/svg11.dtd">
<svg version="1.1" xmlns="http://www.w3.org/2000/svg" xmlns:xlink="http://www.w3.org/1999/xlink" width="512" height="512" viewBox="0 0 512 512">
<g id="icomoon-ignore">
	<line stroke-width="1" x1="0" y1="656" x2="672" y2="656" stroke="#449FDB" opacity="0.3"></line>
</g>
	<path d="M470.016 87.040h-430.080c-16.968 0-29.696 13.22-29.696 30.188v355.349c0 8.156 2.729 15.207 8.499 20.966 5.76 5.76 13.056 8.217 21.197 8.217 0.010 0 0.020 0 0.031 0l430.597 0.317c16.947-0.015 31.196-12.995 31.196-29.947v-354.903c0-16.968-14.781-30.188-31.744-30.188zM471.040 472.13l-430.080 0.445v-354.816h430.080v354.37z" fill="#000000"></path>
	<path d="M197.775 427.413c2.099 0.998 4.142 1.49 6.38 1.49 3.466 0 6.794-1.173 9.584-3.446l143.309-116.659c3.584-2.918 5.637-7.296 5.637-11.914s-2.089-8.996-5.673-11.914l-143.37-116.659c-4.598-3.732-10.512-4.5-15.862-1.956-5.356 2.544-8.34 7.941-8.34 13.87v233.319c0 5.934 2.98 11.325 8.335 13.87zM220.16 212.526l103.665 84.362-103.665 84.357v-168.72z" fill="#000000"></path>
</svg>
