<?xml version="1.0" encoding="utf-8"?>
<!-- Generated by IcoMoon.io -->
<!DOCTYPE svg PUBLIC "-//W3C//DTD SVG 1.1//EN" "http://www.w3.org/Graphics/SVG/1.1/DTD/svg11.dtd">
<svg version="1.1" xmlns="http://www.w3.org/2000/svg" xmlns:xlink="http://www.w3.org/1999/xlink" width="512" height="512" viewBox="0 0 512 512">
<g id="icomoon-ignore">
	<line stroke-width="1" x1="0" y1="656" x2="672" y2="656" stroke="#449FDB" opacity="0.3"></line>
</g>
	<path d="M25.6 510.976c-4.070 0-7.977-1.613-10.86-4.495s-4.5-6.789-4.5-10.865v-318.981c0-8.484 6.876-15.36 15.36-15.36h460.8c8.484 0 15.36 6.876 15.36 15.36v318.577c0 8.478-6.866 15.355-15.35 15.36l-460.8 0.404c0 0-0.005 0-0.010 0zM40.96 191.995v288.246l430.080-0.374v-287.872h-430.080z" fill="#000000"></path>
	<path d="M360.96 153.6h-30.72v-19.6c0-24.064-15.355-45.358-36.562-50.8-3.973-0.532-21.904-1.116-36.629-1.362-13.706 0.164-30.736 0.553-34.299 0.912-23.388 4.761-40.986 26.731-40.986 51.251v19.6h-30.72v-19.6c0-39.066 28.447-74.091 66.171-81.469 1.28-0.251 5.145-1.004 39.916-1.408 37.33 0.62 42.005 1.782 43.541 2.16 35.486 8.75 60.288 41.948 60.288 80.717v19.6z" fill="#000000"></path>
</svg>
