<?xml version="1.0" encoding="utf-8"?>
<!-- Generated by IcoMoon.io -->
<!DOCTYPE svg PUBLIC "-//W3C//DTD SVG 1.1//EN" "http://www.w3.org/Graphics/SVG/1.1/DTD/svg11.dtd">
<svg version="1.1" xmlns="http://www.w3.org/2000/svg" xmlns:xlink="http://www.w3.org/1999/xlink" width="512" height="512" viewBox="0 0 512 512">
<g id="icomoon-ignore">
	<line stroke-width="1" x1="0" y1="656" x2="672" y2="656" stroke="#449FDB" opacity="0.3"></line>
</g>
	<path d="M273.904 201.785c1.762 0.537 3.625 1.075 5.453 1.618-28.15-17.597-76.032-41.287-122.035-34.785-19.205 2.719-36.495 10.573-51.215 22.892-18.329-31.216-33.505-60.948-39.424-85.484-2.125-8.817 1.234-19.666 9.191-29.773 10.747-13.65 26.526-23.936 41.886-23.936v-1.116c13.542 0 26.691 6.252 36.214 15.565 9.375 9.175 14.986 22.446 14.986 35.349v25.886h51.2v-25.886c0-26.793-11.075-53.063-30.382-71.951-19.149-18.734-45.015-30.162-72.013-30.162-0.010 0-0.016 0-0.036 0-30.064 0-61.522 17.341-82.089 43.453-17.735 22.513-24.561 49.849-18.734 74.014 11.367 47.129 46.377 103.076 80.236 156.913 29.599 47.063 60.211 95.877 70.538 132.413 3.169 11.223-4.47 24.171-7.9 28.702-10.742 14.203-28.58 25.303-43.387 25.303 0 0-0.005 0-0.005 0-27.745 0-50.329-22.953-50.34-49.808l-0.010-26.158-51.2-0.256 0.010 26.573c0.021 55.076 45.563 100.849 101.525 100.849 0.005 0 0.016 0 0.031 0 30.735 0 63.785-18.55 84.209-45.538 17.019-22.492 22.978-49.413 16.343-72.899-12.334-43.632-43.489-93.44-76.472-145.884-2.37-3.774-4.751-7.696-7.122-11.479 8.648-9.447 18.857-15.14 31.032-16.875 20.106-2.882 43.346 4.423 63.504 14.034 5.079-8.064 11.704-16.476 20.423-25.196 6.692-6.697 16.538-9.155 25.584-6.38z" fill="#000000"></path>
	<path d="M275.799 255.688c-0.353-0.102-0.732-0.205-1.075-0.302-1.244 1.613-2.325 3.184-3.328 4.726 0.149 0.118 0.348 0.266 0.491 0.384l3.911-4.808z" fill="#000000"></path>
	<path d="M477.486 259.221c-7.235-35.497-29.245-143.508-100.229-143.508-22.738 0-45.389 11.448-69.253 35.001-7.193 7.101-9.534 17.767-5.975 27.228 4.075 10.844 8.443 23.495 11.93 34.544-10.813-2.585-23.204-5.95-34.596-9.319-1.828-0.537-3.697-1.081-5.453-1.618-9.047-2.775-18.893-0.317-25.584 6.38-8.72 8.72-15.345 17.131-20.423 25.196-17.178 27.285-15.785 50.396-10.332 66.345 27.838 81.449 210.35 108.651 246.656 113.275 1.080 0.138 2.161 0.205 3.236 0.205 6.37 0 12.56-2.381 17.31-6.738 5.55-5.099 8.576-12.38 8.269-19.911-0.113-2.591-2.76-64.281-15.555-127.079zM266.014 282.911c-2.207-6.451 9.431-28.615 9.784-28.518 19.779 5.571 48.738 11.847 63.995 11.847 0.026 0 0.051 0 0.082 0 3.451 0 13.619 1.009 22.041-6.19 12.375-10.558 16.056-22.507-5.852-83.993 8.274-6.251 15.667-9.405 21.197-9.405 28.595 0 54.615 95.109 62.649 190.403-72.56-13.066-162.652-41.242-173.896-74.142z" fill="#000000"></path>
</svg>
