<?xml version="1.0" encoding="utf-8"?>
<!-- Generated by IcoMoon.io -->
<!DOCTYPE svg PUBLIC "-//W3C//DTD SVG 1.1//EN" "http://www.w3.org/Graphics/SVG/1.1/DTD/svg11.dtd">
<svg version="1.1" xmlns="http://www.w3.org/2000/svg" xmlns:xlink="http://www.w3.org/1999/xlink" width="512" height="512" viewBox="0 0 512 512">
<g id="icomoon-ignore">
	<line stroke-width="1" x1="0" y1="656" x2="672" y2="656" stroke="#449FDB" opacity="0.3"></line>
</g>
	<path d="M263.68 143.36c-56.464 0-102.4 45.936-102.4 102.405 0 56.458 45.936 102.395 102.4 102.395s102.4-45.937 102.4-102.395c0-56.469-45.937-102.405-102.4-102.405zM263.68 296.96c-28.288 0-51.2-22.928-51.2-51.195 0-28.283 22.912-51.205 51.2-51.205 28.242 0 51.2 22.922 51.2 51.205 0 28.267-22.958 51.195-51.2 51.195z" fill="#000000"></path>
	<path d="M496.338 224.881c-1.224-1.597-30.423-39.572-71.014-77.824-61.143-57.61-114.852-85.617-164.204-85.617-48.712 0-103.695 27.638-168.1 84.496-42.998 37.965-74.639 75.623-75.966 77.209-15.913 19.016-15.913 46.7 0 65.715 1.326 1.587 32.968 39.245 75.966 77.204 64.405 56.858 119.388 84.495 168.1 84.495 49.351 0 103.060-28.007 164.203-85.617 40.591-38.246 69.791-76.226 71.014-77.824 14.060-18.365 14.060-43.874 0-62.238zM261.12 399.36c-84.834 0-204.8-143.36-204.8-143.36s119.966-143.36 204.8-143.36c84.828 0 194.56 143.36 194.56 143.36s-109.732 143.36-194.56 143.36z" fill="#000000"></path>
</svg>
