<?xml version="1.0" encoding="utf-8"?>
<!-- Generated by IcoMoon.io -->
<!DOCTYPE svg PUBLIC "-//W3C//DTD SVG 1.1//EN" "http://www.w3.org/Graphics/SVG/1.1/DTD/svg11.dtd">
<svg version="1.1" xmlns="http://www.w3.org/2000/svg" xmlns:xlink="http://www.w3.org/1999/xlink" width="512" height="512" viewBox="0 0 512 512">
<g id="icomoon-ignore">
	<line stroke-width="1" x1="0" y1="656" x2="672" y2="656" stroke="#449FDB" opacity="0.3"></line>
</g>
	<path d="M438.784 168.96h-19.605c0.942-5.12 2.268-4.91 4.014-7.27 2.796-3.768 5.54-5.622 12.749-5.622 13.578 0 26.23-5.371 35.835-14.971 9.605-9.595 14.623-22.59 14.623-36.173v-53.791c0-14.428-5.575-28.191-16.251-37.888-9.467-8.601-21.504-13.312-34.181-13.312-1.618 0-3.118 0.071-4.746 0.231-4.204 0.399-41.354 4.5-80.272 24.34-58.466 29.819-89.831 80.441-89.831 142.561v1.894h-27.136c-28.278 0-49.664 23.163-49.664 51.446v51.2c0 28.267 21.386 50.954 49.664 50.954h27.136v137.887c0 28.267 21.386 51.553 49.664 51.553h56.32c28.278 0 52.736-23.286 52.736-51.553v-137.887h18.944c28.278 0 52.736-22.687 52.736-50.954v-51.2c0-28.283-24.458-51.446-52.736-51.446zM440.32 271.36h-71.68v189.44h-56.32v-189.44h-76.8v-51.2h76.8v-53.094c0-103.941 122.88-115.932 122.88-115.932v51.266c0 0 0.839 0 0.748 0-58.957 0-67.308 62.935-67.308 62.935v54.825h71.68v51.2z" fill="#000000"></path>
</svg>
