<?xml version="1.0" encoding="utf-8"?>
<!-- Generated by IcoMoon.io -->
<!DOCTYPE svg PUBLIC "-//W3C//DTD SVG 1.1//EN" "http://www.w3.org/Graphics/SVG/1.1/DTD/svg11.dtd">
<svg version="1.1" xmlns="http://www.w3.org/2000/svg" xmlns:xlink="http://www.w3.org/1999/xlink" width="512" height="512" viewBox="0 0 512 512">
<g id="icomoon-ignore">
	<line stroke-width="1" x1="0" y1="656" x2="672" y2="656" stroke="#449FDB" opacity="0.3"></line>
</g>
	<path d="M353.28 471.040h-312.32v-312.32h122.88v-30.72h-138.24c-8.484 0-15.36 6.876-15.36 15.36v343.040c0 8.484 6.876 15.36 15.36 15.36h343.040c8.484 0 15.36-6.876 15.36-15.36v-128h-30.72v112.64z" fill="#000000"></path>
	<path d="M445.962 50.498l-187.53 2.191 0.358 30.72 149.832-1.746-251.223 251.218 21.719 21.719 251.223-251.223-1.756 149.827 30.72 0.358 2.192-187.52c0.046-4.137-1.577-8.115-4.5-11.038-2.913-2.928-6.953-4.434-11.034-4.505z" fill="#000000"></path>
</svg>
