<?xml version="1.0" encoding="utf-8"?>
<!-- Generated by IcoMoon.io -->
<!DOCTYPE svg PUBLIC "-//W3C//DTD SVG 1.1//EN" "http://www.w3.org/Graphics/SVG/1.1/DTD/svg11.dtd">
<svg version="1.1" xmlns="http://www.w3.org/2000/svg" xmlns:xlink="http://www.w3.org/1999/xlink" width="512" height="512" viewBox="0 0 512 512">
<g id="icomoon-ignore">
	<line stroke-width="1" x1="0" y1="656" x2="672" y2="656" stroke="#449FDB" opacity="0.3"></line>
</g>
	<path d="M137.866 318.817h-19.594c-22.969 0-40.32-18.663-41.191-40.392-0.025-1.26-0.281-8.853-0.281-11.812v-1.346c0-0.712 0.302-10.563 0.317-11.623 0.871-21.535 19.441-37.227 42.813-37.227h89.989v-30.72h-89.994c-39.536 0-71.982 29-73.508 66.811-0.026 0.768-0.338 11.975-0.338 12.759v1.264c0 11.638 0.276 12.053 0.302 12.473 1.536 38.416 33.838 68.505 73.359 68.505l16.988 0.021c3.85 0 11.75 0.005 11.75 0.005l0.169-0.092-0.169-28.626c-3.758 0-7.363 0-10.614 0z" fill="#000000"></path>
	<path d="M460.688 71.025c-5.986-2.253-12.943-0.020-17.168 4.782-1.009 1.147-101.74 109.891-188.759 109.891h-14.121v30.72h14.121c71.603 0 144.599-56.422 185.559-93.287v285.957c-40.96-35.277-124.692-92.426-190.5-92.426-0.917 0-2.032 0.010-2.954 0.036-1.060 0.031-3.333 0.057-6.226 0.077v30.7c5.12-0.021 4.849-0.041 5.811-0.067l2.447-0.026c77.317 0 193.874 106.014 195.036 107.141 2.918 2.821 6.897 4.311 10.798 4.311 2.022 0 4.536-0.399 6.477-1.224 5.673-2.406 9.831-7.972 9.831-14.137v-358.072c0-6.395-4.373-12.124-10.353-14.377z" fill="#000000"></path>
	<path d="M240.64 316.774v-131.077h-30.72v133.12c-0.845 0-46.372 0-61.44 0l0.169 28.631 0.855 125.077c0 21.34 17.813 38.682 39.895 39.47l6.942 0.005c0.363 0 5.299-0.036 5.837-0.051 22.067-0.855 38.462-18.176 38.462-39.429v-155.745zM209.92 472.519c0 4.685-3.298 8.776-8.514 8.981-0.681 0.010-4.388 0.292-4.813 0.292h-5.801c-5.284 0-9.543-4.567-9.543-9.144l0.005-123.111h28.667v122.983z" fill="#000000"></path>
</svg>
