<?xml version="1.0" encoding="utf-8"?>
<!-- Generated by IcoMoon.io -->
<!DOCTYPE svg PUBLIC "-//W3C//DTD SVG 1.1//EN" "http://www.w3.org/Graphics/SVG/1.1/DTD/svg11.dtd">
<svg version="1.1" xmlns="http://www.w3.org/2000/svg" xmlns:xlink="http://www.w3.org/1999/xlink" width="512" height="512" viewBox="0 0 512 512">
<g id="icomoon-ignore">
	<line stroke-width="1" x1="0" y1="656" x2="672" y2="656" stroke="#449FDB" opacity="0.3"></line>
</g>
	<path d="M68.362 73.462c0 60.324-9.758 132.142-24.074 142.74l-22.492 16.061c-4.035 2.882-6.436 7.536-6.436 12.498v21.412c0 4.962 2.401 9.615 6.441 12.498l22.282 15.908c14.52 10.747 24.279 83.108 24.279 143.959 0 37.858 46.756 68.342 85.468 68.342h40.73v-30.72h-40.73c-22.897 0-54.748-18.954-54.748-37.622 0-33.188-2.652-143.442-36.941-168.811l-16.061-11.464v-5.601l16.272-11.623c34.078-25.226 36.731-134.651 36.731-167.583 0-18.663 31.857-37.617 54.748-37.617h40.73v-30.72h-40.73c-38.713 0-85.468 30.484-85.468 68.342z" fill="#000000"></path>
	<path d="M490.204 232.258l-22.277-15.903c-14.531-10.757-24.289-82.57-24.289-142.894 0-37.858-46.756-68.342-85.468-68.342h-40.729v30.72h40.73c22.897 0 54.748 18.954 54.748 37.622 0 32.937 2.658 142.357 36.946 167.742l16.057 11.464v5.602l-16.261 11.618c-34.084 25.221-36.741 135.47-36.741 168.658 0 18.668-31.856 37.622-54.753 37.622h-40.724v30.72h40.729c38.712 0 85.468-30.485 85.468-68.342 0-60.846 9.759-133.217 24.079-143.81l22.487-16.062c4.034-2.887 6.436-7.542 6.436-12.503v-21.412c0-4.956-2.401-9.61-6.436-12.498z" fill="#000000"></path>
</svg>
