<?xml version="1.0" encoding="utf-8"?>
<!-- Generated by IcoMoon.io -->
<!DOCTYPE svg PUBLIC "-//W3C//DTD SVG 1.1//EN" "http://www.w3.org/Graphics/SVG/1.1/DTD/svg11.dtd">
<svg version="1.1" xmlns="http://www.w3.org/2000/svg" xmlns:xlink="http://www.w3.org/1999/xlink" width="512" height="512" viewBox="0 0 512 512">
<g id="icomoon-ignore">
	<line stroke-width="1" x1="0" y1="656" x2="672" y2="656" stroke="#449FDB" opacity="0.3"></line>
</g>
	<path d="M251.228 276.885c-105.871 0-192 91.689-192 204.395 0 16.962 13.757 30.72 30.72 30.72h322.56c16.962 0 30.72-13.757 30.72-30.72 0-112.707-86.129-204.395-192-204.395zM89.948 481.28c0-95.933 72.223-173.675 161.28-173.675s161.28 77.742 161.28 173.675h-322.56z" fill="#000000"></path>
	<path d="M256.144 245.345c55.055 0 99.845-46.695 99.845-104.095 0-57.395-44.79-104.090-99.845-104.090-55.050 0-99.835 46.694-99.835 104.090 0 57.4 44.785 104.094 99.835 104.094zM256.144 67.881c38.185 0 69.125 32.834 69.125 73.369 0 40.54-30.94 73.375-69.125 73.375-38.174 0-69.115-32.834-69.115-73.375 0-40.535 30.94-73.37 69.115-73.37z" fill="#000000"></path>
</svg>
