<?xml version="1.0" encoding="utf-8"?>
<!-- Generated by IcoMoon.io -->
<!DOCTYPE svg PUBLIC "-//W3C//DTD SVG 1.1//EN" "http://www.w3.org/Graphics/SVG/1.1/DTD/svg11.dtd">
<svg version="1.1" xmlns="http://www.w3.org/2000/svg" xmlns:xlink="http://www.w3.org/1999/xlink" width="512" height="512" viewBox="0 0 512 512">
<g id="icomoon-ignore">
	<line stroke-width="1" x1="0" y1="656" x2="672" y2="656" stroke="#449FDB" opacity="0.3"></line>
</g>
	<path d="M460.8 51.2h-409.6c-28.278 0-51.2 22.922-51.2 51.2v358.4c0 28.278 22.922 51.2 51.2 51.2h409.6c28.278 0 51.2-22.922 51.2-51.2v-358.4c0-28.278-22.922-51.2-51.2-51.2zM460.8 249.067v211.732h-409.6v-211.82c-0.338-0.236-0.656-0.456-0.998-0.691-14.116-9.82-28.964-20.26-44.539-31.319l29.64-41.749c5.069 3.6 10.199 7.225 15.376 10.859 0.174 0.123 0.348 0.246 0.528 0.369v-84.050h409.6v84.086c5.34-3.763 10.639-7.516 15.872-11.244l29.701 41.708c-16.348 11.632-31.426 22.251-45.578 32.118z" fill="#000000"></path>
	<path d="M460.8 186.486c-82.657 58.266-176.128 119.68-196.644 126.228-1.224 0.010-2.591 0.031-4.029 0.046-3.712 0.051-8.596 0.118-11.607 0.036-20.055-6.226-114.119-67.87-197.32-126.346-0.174-0.123-0.348-0.246-0.528-0.369-5.176-3.635-10.306-7.26-15.376-10.859l-29.64 41.749c15.575 11.059 30.423 21.499 44.539 31.319 0.343 0.236 0.66 0.456 0.998 0.691 108.032 75.116 172.923 113.741 193.116 114.882 2.263 0.128 5.028 0.169 7.936 0.169 2.821 0 5.775-0.041 8.55-0.077 2.079-0.026 3.978-0.051 5.438-0.051 7.69 0 29.988-0.098 194.56-114.837 14.151-9.866 29.23-20.48 45.568-32.118l-29.691-41.708c-5.233 3.727-10.532 7.481-15.872 11.244z" fill="#000000"></path>
</svg>
