<?xml version="1.0" encoding="utf-8"?>
<!-- Generated by IcoMoon.io -->
<!DOCTYPE svg PUBLIC "-//W3C//DTD SVG 1.1//EN" "http://www.w3.org/Graphics/SVG/1.1/DTD/svg11.dtd">
<svg version="1.1" xmlns="http://www.w3.org/2000/svg" xmlns:xlink="http://www.w3.org/1999/xlink" width="512" height="512" viewBox="0 0 512 512">
<g id="icomoon-ignore">
	<line stroke-width="1" x1="0" y1="656" x2="672" y2="656" stroke="#449FDB" opacity="0.3"></line>
</g>
	<path d="M164.864 161.28h51.2v194.56h-51.2v-194.56z" fill="#000000"></path>
	<path d="M92.16 202.24h51.2v153.6h-51.2v-153.6z" fill="#000000"></path>
	<path d="M16.896 253.44h51.2v102.4h-51.2v-102.4z" fill="#000000"></path>
	<path d="M291.697 174.398c55.188 0 81.603 29.353 93.327 81.602 8.647-7.89 25.979-18.361 41.59-18.361 4.531 0 8.924 0.886 12.908 2.975 24.842 13.005 20.9 39.050 20.9 62.684h-168.725v-128.901zM291.697 123.198c-28.272 0-51.2 22.927-51.2 51.2v128.906c0 28.272 22.928 51.2 51.2 51.2h168.73c28.272 0 51.2-22.928 51.2-51.2 0-2.503 0.057-5.038 0.108-7.577 0.476-24.125 1.47-74.327-48.456-100.464-11.166-5.847-23.506-8.816-36.659-8.816-4.567 0-9.093 0.369-13.553 1.049-30.945-51.763-80.584-64.297-121.37-64.297v0z" fill="#000000"></path>
</svg>
