<?xml version="1.0" encoding="utf-8"?>
<!-- Generated by IcoMoon.io -->
<!DOCTYPE svg PUBLIC "-//W3C//DTD SVG 1.1//EN" "http://www.w3.org/Graphics/SVG/1.1/DTD/svg11.dtd">
<svg version="1.1" xmlns="http://www.w3.org/2000/svg" xmlns:xlink="http://www.w3.org/1999/xlink" width="512" height="512" viewBox="0 0 512 512">
<g id="icomoon-ignore">
	<line stroke-width="1" x1="0" y1="656" x2="672" y2="656" stroke="#449FDB" opacity="0.3"></line>
</g>
	<path d="M394.24 10.24h-276.48c-8.484 0-15.36 6.841-15.36 15.324v459.5c0 6.062 3.564 11.556 9.093 14.024 5.54 2.468 12.007 1.454 16.522-2.586l127.928-114.683 127.985 115.932c2.877 2.611 6.569 3.973 10.317 3.973 2.099 0 4.219-0.43 6.221-1.316 5.555-2.468 9.134-7.972 9.134-14.044v-460.8c0-8.484-6.876-15.324-15.36-15.324zM378.88 451.728l-112.568-101.97c-2.923-2.652-6.615-3.973-10.312-3.973-3.666 0-7.337 1.305-10.256 3.922l-112.624 100.962v-409.707h245.76v410.767z" fill="#000000"></path>
</svg>
