<?xml version="1.0" encoding="utf-8"?>
<!-- Generated by IcoMoon.io -->
<!DOCTYPE svg PUBLIC "-//W3C//DTD SVG 1.1//EN" "http://www.w3.org/Graphics/SVG/1.1/DTD/svg11.dtd">
<svg version="1.1" xmlns="http://www.w3.org/2000/svg" xmlns:xlink="http://www.w3.org/1999/xlink" width="512" height="512" viewBox="0 0 512 512">
<g id="icomoon-ignore">
	<line stroke-width="1" x1="0" y1="656" x2="672" y2="656" stroke="#449FDB" opacity="0.3"></line>
</g>
	<path d="M504.842 288.748l-231.966-279.495c-4.864-5.862-12.083-9.252-19.702-9.252-0.051 0-0.107 0-0.154 0-7.67 0.046-14.915 3.527-19.738 9.492l-226.32 279.495c-6.21 7.67-7.46 19.277-3.21 28.18 4.25 8.914 13.235 15.632 23.107 15.632h75.54v153.488c0 14.137 12.734 25.595 26.87 25.6l247.050 0.112c6.784 0 12.017-2.693 16.819-7.495 4.803-4.798 6.221-11.315 6.221-18.105v-153.6h85.781c9.923 0 18.954-6.784 23.168-15.769 4.224-8.981 2.867-20.644-3.466-28.283zM376.32 281.6c-14.142 0-28.16 9.36-28.16 23.501v155.689l-194.56-0.098v-155.591c0-14.142-8.899-23.501-23.040-23.501h-50.028l172.892-213.519 177.198 213.519h-54.303z" fill="#000000"></path>
</svg>
