<?xml version="1.0" encoding="utf-8"?>
<!-- Generated by IcoMoon.io -->
<!DOCTYPE svg PUBLIC "-//W3C//DTD SVG 1.1//EN" "http://www.w3.org/Graphics/SVG/1.1/DTD/svg11.dtd">
<svg version="1.1" xmlns="http://www.w3.org/2000/svg" xmlns:xlink="http://www.w3.org/1999/xlink" width="512" height="512" viewBox="0 0 512 512">
<g id="icomoon-ignore">
	<line stroke-width="1" x1="0" y1="656" x2="672" y2="656" stroke="#449FDB" opacity="0.3"></line>
</g>
	<path d="M419.84 141.721v-122.010c0-14.136-11.464-24.832-25.6-24.832h-276.48c-14.136 0-25.6 10.695-25.6 24.832v122.010c0 10.532 0.103 40.996 120.074 110.822-119.972 69.827-120.074 100.291-120.074 110.822v122.010c0 14.137 11.463 26.624 25.6 26.624h276.48c14.137 0 25.6-12.488 25.6-26.624v-122.010c0-10.471-0.098-40.765-120.166-110.822 120.069-70.057 120.166-100.352 120.166-110.822zM368.64 366.387v58.573h-225.28v-58.639c8.637-13.978 58.542-49.219 112.624-79.76 54.031 30.597 103.931 65.849 112.656 79.826zM368.64 138.701c-8.719 13.962-58.614 49.214-112.661 79.821-54.077-30.541-103.987-65.776-112.62-79.754v-56.847h225.28v56.781z" fill="#000000"></path>
</svg>
