<?xml version="1.0" encoding="utf-8"?>
<!-- Generated by IcoMoon.io -->
<!DOCTYPE svg PUBLIC "-//W3C//DTD SVG 1.1//EN" "http://www.w3.org/Graphics/SVG/1.1/DTD/svg11.dtd">
<svg version="1.1" xmlns="http://www.w3.org/2000/svg" xmlns:xlink="http://www.w3.org/1999/xlink" width="512" height="512" viewBox="0 0 512 512">
<g id="icomoon-ignore">
	<line stroke-width="1" x1="0" y1="656" x2="672" y2="656" stroke="#449FDB" opacity="0.3"></line>
</g>
	<path d="M379.065 337.736l-7.245 7.245-54.098-54.103c25.365-30.249 40.678-69.202 40.678-111.678 0-95.99-78.090-174.080-174.080-174.080s-174.080 78.090-174.080 174.080 78.090 174.080 174.080 174.080c42.475 0 81.429-15.314 111.677-40.678l54.098 54.098-7.245 7.245 125.44 125.44 36.204-36.204-125.43-125.445zM40.96 179.2c0-79.191 64.174-143.36 143.36-143.36s143.36 64.169 143.36 143.36c0 79.15-64.174 143.36-143.36 143.36s-143.36-64.21-143.36-143.36z" fill="#000000"></path>
	<path d="M117.76 163.84h133.12v30.72h-133.12v-30.72z" fill="#000000"></path>
</svg>
