<?xml version="1.0" encoding="utf-8"?>
<!-- Generated by IcoMoon.io -->
<!DOCTYPE svg PUBLIC "-//W3C//DTD SVG 1.1//EN" "http://www.w3.org/Graphics/SVG/1.1/DTD/svg11.dtd">
<svg version="1.1" xmlns="http://www.w3.org/2000/svg" xmlns:xlink="http://www.w3.org/1999/xlink" width="512" height="512" viewBox="0 0 512 512">
<g id="icomoon-ignore">
	<line stroke-width="1" x1="0" y1="656" x2="672" y2="656" stroke="#449FDB" opacity="0.3"></line>
</g>
	<path d="M450.56 365.389v-105.779c0-8.484-6.876-13.85-15.36-13.85h-163.84v-90.951c-10.096 2.386-20.618 2.386-30.72 0v90.952h-163.84c-8.484 0-15.36 5.366-15.36 13.849v105.769c10.102-2.386 20.618-2.381 30.72 0.010v-88.909h148.48v88.904c10.102-2.386 20.618-2.381 30.72 0.010v-88.914h148.48v88.899c10.102-2.386 20.618-2.381 30.72 0.010z" fill="#000000"></path>
	<path d="M292.055 55.788c-9.989-9.886-23.019-14.822-36.045-14.822-13.179 0-26.358 5.053-36.377 15.16-19.891 20.086-19.763 52.505 0.327 72.397 9.989 9.897 23.014 14.833 36.040 14.833 13.179 0 26.352-5.059 36.372-15.155 19.886-20.081 19.763-52.511-0.317-72.412zM270.567 106.558c-3.886 3.922-9.063 6.078-14.572 6.078-5.438 0-10.558-2.109-14.428-5.95-3.876-3.835-6.026-8.96-6.052-14.423-0.025-5.468 2.084-10.629 5.918-14.5 3.886-3.917 9.063-6.078 14.571-6.078 5.438 0 10.567 2.109 14.418 5.918 8.023 7.946 8.074 20.946 0.144 28.953z" fill="#000000"></path>
	<path d="M292.055 393.707c-9.989-9.887-23.019-14.822-36.045-14.822-13.179 0-26.358 5.053-36.377 15.161-19.891 20.086-19.763 52.505 0.327 72.397 9.989 9.897 23.014 14.832 36.040 14.832 13.179 0 26.352-5.058 36.372-15.155 19.886-20.081 19.763-52.51-0.317-72.412zM270.567 444.478c-3.886 3.922-9.063 6.077-14.572 6.077-5.438 0-10.558-2.11-14.428-5.95-3.876-3.835-6.026-8.96-6.052-14.423-0.025-5.468 2.084-10.629 5.918-14.5 3.886-3.917 9.063-6.077 14.571-6.077 5.438 0 10.567 2.11 14.418 5.918 8.023 7.946 8.074 20.946 0.144 28.954z" fill="#000000"></path>
	<path d="M471.255 393.707c-9.989-9.887-23.019-14.822-36.045-14.822-13.179 0-26.358 5.053-36.377 15.161-19.891 20.086-19.763 52.505 0.327 72.397 9.989 9.897 23.014 14.832 36.039 14.832 13.179 0 26.353-5.058 36.373-15.155 19.886-20.081 19.763-52.51-0.317-72.412zM449.767 444.478c-3.886 3.922-9.063 6.077-14.572 6.077-5.438 0-10.558-2.11-14.428-5.95-3.876-3.835-6.026-8.96-6.052-14.423-0.026-5.468 2.084-10.629 5.918-14.5 3.886-3.917 9.063-6.077 14.572-6.077 5.438 0 10.567 2.11 14.418 5.918 8.023 7.946 8.074 20.946 0.144 28.954z" fill="#000000"></path>
	<path d="M112.855 393.707c-9.989-9.887-23.020-14.822-36.045-14.822-13.179 0-26.358 5.053-36.377 15.161-19.891 20.086-19.763 52.505 0.328 72.397 9.989 9.897 23.014 14.832 36.039 14.832 13.179 0 26.352-5.058 36.373-15.155 19.886-20.081 19.763-52.51-0.317-72.412zM91.367 444.478c-3.886 3.922-9.063 6.077-14.572 6.077-5.438 0-10.558-2.11-14.428-5.95-3.876-3.835-6.026-8.96-6.052-14.423-0.026-5.468 2.084-10.629 5.919-14.5 3.886-3.917 9.063-6.077 14.572-6.077 5.438 0 10.567 2.11 14.418 5.918 8.023 7.946 8.074 20.946 0.144 28.954z" fill="#000000"></path>
</svg>
