<?xml version="1.0" encoding="utf-8"?>
<!-- Generated by IcoMoon.io -->
<!DOCTYPE svg PUBLIC "-//W3C//DTD SVG 1.1//EN" "http://www.w3.org/Graphics/SVG/1.1/DTD/svg11.dtd">
<svg version="1.1" xmlns="http://www.w3.org/2000/svg" xmlns:xlink="http://www.w3.org/1999/xlink" width="512" height="512" viewBox="0 0 512 512">
<g id="icomoon-ignore">
	<line stroke-width="1" x1="0" y1="656" x2="672" y2="656" stroke="#449FDB" opacity="0.3"></line>
</g>
	<path d="M311.824 227.845c-9.543-7.522-76.094-57.81-137.881-49.090-21.586 3.052-39.966 12.862-54.942 28.994-22.405-37.136-41.733-73.109-48.886-102.769-2.965-12.278 0.85-26.767 11.070-39.746 13.153-16.706 35.686-28.447 51.047-28.447 0 0 0.661 0.077 0.671 0.077 16.722 0 31.923 6.277 43.72 17.813 11.699 11.454 17.94 27.602 17.94 43.761v14.203h30.72v-14.203c0-24.489-9.344-48.441-27.003-65.715-17.572-17.193-40.519-27.602-65.316-27.602-0.016 0-0.025 0-0.030 0-27.535 0-56.478 15.975-75.525 40.156-16.087 20.424-22.338 44.944-17.157 66.427 11.218 46.531 46.587 102.999 80.788 157.383 30.72 48.845 62.485 99.471 73.487 138.389 4.409 15.601-4.296 31.303-9.876 38.682-13.127 17.341-34.458 30.003-53.084 30.003-0.005 0-0.005 0-0.016 0-34.386 0-59.868-29.123-59.868-62.597v-15.36l-30.72 0.010v15.36c0 50.411 39.26 93.307 90.583 93.307 0.005 0 0.016 0 0.025 0 28.191 0 58.639-17.111 77.568-42.127 15.58-20.587 20.894-43.991 14.946-65.039-12.201-43.177-43.699-93.486-77.040-146.504-3.696-5.878-7.409-11.904-11.1-17.813 11.233-15.047 25.058-23.71 42.235-26.158 42.091-6.011 91.177 25.744 108.713 38.354 11.3 3.205 24.212 6.543 34.033 8.525-2.233-7.946-5.555-18.212-9.098-28.273z" fill="#000000"></path>
	<path d="M470.334 294.293c-15.974-69.576-42.014-104.853-77.394-104.853-18.32 0-36.971 9.62-57.026 29.419-4.316 4.26-5.719 10.665-3.589 16.338 1.403 3.732 2.821 7.649 4.209 11.597 3.538 10.061 6.866 20.326 9.098 28.273-9.82-1.981-22.738-5.315-34.032-8.525-3.84-1.091-7.495-2.161-10.772-3.164-5.427-1.654-11.336-0.19-15.35 3.83-24.32 24.315-32.404 47.483-24.038 68.864 10.88 27.817 48.743 47.319 115.733 59.623 46.116 8.469 88.904 10.24 90.701 10.306 0.205 0.005 0.404 0.010 0.604 0.010 4.101 0 8.038-1.639 10.931-4.572 3.036-3.077 4.634-7.286 4.403-11.597-0.092-1.945-2.637-48.333-13.476-95.549zM427.505 372.132c-60.841-6.692-127.877-22.759-137.457-47.252-3.497-8.945 3.041-20.055 11.044-29.378 15.094 4.357 42.404 11.694 56.238 12.048 0.343 0.005 0.722 0.031 1.050 0.031 3.952 0 9.769-0.481 14.618-4.628 3.656-3.123 7.050-6.046 6.134-17.116-0.788-9.493-4.752-24.96-14.459-51.727 10.752-9.16 20.413-13.952 28.262-13.952 28.38 0 48.010 67.758 56.315 130.232 1.080 8.125 1.976 16.169 2.668 23.962-7.911-0.558-16.108-1.305-24.412-2.217z" fill="#000000"></path>
</svg>
