<?xml version="1.0" encoding="utf-8"?>
<!-- Generated by IcoMoon.io -->
<!DOCTYPE svg PUBLIC "-//W3C//DTD SVG 1.1//EN" "http://www.w3.org/Graphics/SVG/1.1/DTD/svg11.dtd">
<svg version="1.1" xmlns="http://www.w3.org/2000/svg" xmlns:xlink="http://www.w3.org/1999/xlink" width="512" height="512" viewBox="0 0 512 512">
<g id="icomoon-ignore">
	<line stroke-width="1" x1="0" y1="656" x2="672" y2="656" stroke="#449FDB" opacity="0.3"></line>
</g>
	<path d="M420.889 152.77c-35.799-57.185-97.485-91.331-165.002-91.331h-0.016c-36.454 0.005-72.11 10.27-103.117 29.691-44.047 27.576-74.716 70.656-86.354 121.298s-2.857 102.789 24.74 146.836c35.789 57.159 97.475 91.294 164.997 91.294 36.45 0 72.11-10.265 103.111-29.686 44.042-27.571 74.711-70.651 86.349-121.303 11.638-50.642 2.862-102.774-24.709-146.8zM332.073 377.488c-23.644 14.807-49.95 21.873-75.935 21.873-47.744 0-94.407-23.834-121.61-67.277-42.041-67.103-21.709-155.546 45.399-197.565 23.654-14.807 49.961-21.878 75.95-21.878 47.739 0 94.408 23.834 121.62 67.308 41.994 67.052 21.688 155.52-45.425 197.54z" fill="#000000"></path>
	<path d="M276.48 143.36h-51.2v121.318c0 11.372 7.368 21.381 18.279 24.571l76.231 22.318 14.469-49.147-57.779-16.927v-102.134z" fill="#000000"></path>
</svg>
