<?xml version="1.0" encoding="utf-8"?>
<!-- Generated by IcoMoon.io -->
<!DOCTYPE svg PUBLIC "-//W3C//DTD SVG 1.1//EN" "http://www.w3.org/Graphics/SVG/1.1/DTD/svg11.dtd">
<svg version="1.1" xmlns="http://www.w3.org/2000/svg" xmlns:xlink="http://www.w3.org/1999/xlink" width="512" height="512" viewBox="0 0 512 512">
<g id="icomoon-ignore">
	<line stroke-width="1" x1="0" y1="656" x2="672" y2="656" stroke="#449FDB" opacity="0.3"></line>
</g>
	<path d="M256 81.92h-0.128c-32.604 0.005-64.507 9.191-92.247 26.563-39.414 24.674-66.852 63.222-77.266 108.528-10.414 45.312-2.555 91.97 22.139 131.379 32.020 51.149 87.219 81.69 147.641 81.69 32.604 0 64.502-9.185 92.242-26.563 39.404-24.668 66.841-63.216 77.255-108.534 10.409-45.312 2.616-91.955-22.052-131.344-32.031-51.169-86.144-81.721-147.584-81.721zM332.073 377.488c-23.644 14.807-49.95 21.873-75.935 21.873-47.744 0-94.413-23.834-121.61-67.277-42.041-67.103-21.709-155.546 45.399-197.565 23.649-14.807 49.961-21.878 75.95-21.878 47.739 0 94.408 23.834 121.62 67.308 41.994 67.052 21.688 155.52-45.425 197.54z" fill="#000000"></path>
	<path d="M271.36 158.72h-30.72v111.078c0 6.82 4.373 12.825 10.916 14.74l66.396 19.446 8.724-29.486-55.317-16.21v-99.569z" fill="#000000"></path>
	<path d="M97.239 152.356c14.781-23.322 34.243-42.634 57.856-57.416l13.020-8.151-16.302-26.041-13.020 8.151c-27.535 17.234-50.243 39.782-67.502 67.005l-8.222 12.974 25.948 16.446 8.222-12.969z" fill="#000000"></path>
	<path d="M418.642 153.636l8.223 12.969 25.948-16.446-8.223-12.974c-17.255-27.223-39.966-49.772-67.502-67.005l-13.020-8.151-16.302 26.041 13.020 8.151c23.613 14.781 43.075 34.094 57.856 57.415z" fill="#000000"></path>
</svg>
