<?xml version="1.0" encoding="utf-8"?>
<!-- Generated by IcoMoon.io -->
<!DOCTYPE svg PUBLIC "-//W3C//DTD SVG 1.1//EN" "http://www.w3.org/Graphics/SVG/1.1/DTD/svg11.dtd">
<svg version="1.1" xmlns="http://www.w3.org/2000/svg" xmlns:xlink="http://www.w3.org/1999/xlink" width="512" height="512" viewBox="0 0 512 512">
<g id="icomoon-ignore">
	<line stroke-width="1" x1="0" y1="656" x2="672" y2="656" stroke="#449FDB" opacity="0.3"></line>
</g>
	<path d="M449.296 309.75c7.926 0 16.625 1.229 21.745 3.538v-142.74c-5.12 2.304-15.104 3.523-23.045 3.523-7.931 0-12.795-1.229-23.035-3.538v123.234l-90.383-83.947c-12.82 9.011-27.392 13.916-43.392 13.916-10.020 0-19.425-1.93-28.452-5.581l-56.868 138.286-100.060-233.405c-12.247 7.864-26.43 12.135-41.339 12.135-1.127 0-2.217-0.113-3.333-0.164l105.948 248.791c11.632-6.83 24.888-10.547 38.743-10.547 13.886 0 27.187 3.748 38.876 10.634l58.332-141.542 95.181 87.552c14.188-12.969 31.734-20.142 51.082-20.142z" fill="#000000"></path>
	<path d="M102.933 101.074c-19.922 20.066-52.316 20.224-72.412 0.313-20.096-19.891-20.224-52.306-0.333-72.397 19.932-20.091 52.316-20.234 72.422-0.348 20.086 19.912 20.209 52.342 0.323 72.433z" fill="#000000"></path>
	<path d="M241.173 480.978c-19.922 20.065-52.316 20.224-72.412 0.313-20.096-19.891-20.224-52.306-0.333-72.397 19.932-20.091 52.316-20.234 72.423-0.348 20.086 19.917 20.209 52.347 0.322 72.433z" fill="#000000"></path>
	<path d="M328.212 189.138c-19.922 20.066-52.316 20.224-72.412 0.313-20.096-19.891-20.224-52.306-0.333-72.397 19.932-20.091 52.316-20.234 72.423-0.348 20.086 19.917 20.209 52.347 0.322 72.433z" fill="#000000"></path>
	<path d="M484.373 416.978c-19.922 20.065-52.316 20.224-72.412 0.313-20.096-19.891-20.224-52.306-0.333-72.397 19.932-20.091 52.316-20.234 72.423-0.348 20.080 19.917 20.204 52.347 0.322 72.433z" fill="#000000"></path>
	<path d="M482.32 143.058c-19.922 20.065-52.316 20.224-72.412 0.313-20.096-19.891-20.224-52.306-0.333-72.397 19.932-20.091 52.316-20.234 72.423-0.348 20.080 19.917 20.209 52.347 0.322 72.433z" fill="#000000"></path>
</svg>
