<?xml version="1.0" encoding="utf-8"?>
<!-- Generated by IcoMoon.io -->
<!DOCTYPE svg PUBLIC "-//W3C//DTD SVG 1.1//EN" "http://www.w3.org/Graphics/SVG/1.1/DTD/svg11.dtd">
<svg version="1.1" xmlns="http://www.w3.org/2000/svg" xmlns:xlink="http://www.w3.org/1999/xlink" width="512" height="512" viewBox="0 0 512 512">
<g id="icomoon-ignore">
	<line stroke-width="1" x1="0" y1="656" x2="672" y2="656" stroke="#449FDB" opacity="0.3"></line>
</g>
	<path d="M372.587 217.058c-0.251-0.030-0.491-0.087-0.743-0.107-6.579-0.717-13.291-1.126-20.101-1.126-45.522 0.005-86.41 16.286-115.154 45.767-0.215 0.215-0.415 0.502-0.625 0.743 17.408 6.349 33.695 14.899 48.502 25.508 17.623-12.764 40.392-18.591 67.308-18.591 65.849 0 107.331 42.921 107.479 109.276 0.005 0.036 0.010 0.138 0.010 0.353h-105.221c5.873 15.432 10.041 30.72 12.375 51.2h92.846c28.15 0 50.98-24.474 51.18-52.582-0.2-44.272-15.621-86.723-43.515-115.349-24.274-24.914-57.246-40.755-94.341-45.092z" fill="#000000"></path>
	<path d="M158.745 300.185c-45.532 0-86.43 16.24-115.18 45.732-28.093 28.82-43.566 69.77-43.566 114.37 0 28.272 22.927 51.712 51.2 51.712h215.040c28.272 0 51.2-23.44 51.2-51.712 0-44.601-15.462-85.54-43.536-114.361-28.733-29.497-69.632-45.742-115.159-45.742zM51.2 460.8c0-66.56 41.569-108.391 107.545-108.391 65.971 0 107.495 41.831 107.495 108.39h-215.040z" fill="#000000"></path>
	<path d="M153.595 128.138c24.043 0 43.525 20.583 43.525 45.942 0 25.375-19.482 45.942-43.525 45.942-24.034 0-43.515-20.567-43.515-45.942 0-25.359 19.481-45.942 43.515-45.942zM153.595 82.058c-49.403 0-89.595 41.282-89.595 92.022s40.192 92.022 89.595 92.022c49.408 0 89.605-41.282 89.605-92.022s-40.197-92.022-89.605-92.022v0z" fill="#000000"></path>
	<path d="M348.155 46.218c24.043 0 43.525 20.582 43.525 45.942 0 25.37-19.481 45.942-43.525 45.942-24.034 0-43.515-20.572-43.515-45.942 0-25.359 19.481-45.942 43.515-45.942zM348.155 0.138c-49.403 0-89.595 41.282-89.595 92.022s40.192 92.022 89.595 92.022c49.408 0 89.605-41.282 89.605-92.022s-40.197-92.022-89.605-92.022v0z" fill="#000000"></path>
</svg>
