<?xml version="1.0" encoding="utf-8"?>
<!-- Generated by IcoMoon.io -->
<!DOCTYPE svg PUBLIC "-//W3C//DTD SVG 1.1//EN" "http://www.w3.org/Graphics/SVG/1.1/DTD/svg11.dtd">
<svg version="1.1" xmlns="http://www.w3.org/2000/svg" xmlns:xlink="http://www.w3.org/1999/xlink" width="512" height="512" viewBox="0 0 512 512">
<g id="icomoon-ignore">
	<line stroke-width="1" x1="0" y1="656" x2="672" y2="656" stroke="#449FDB" opacity="0.3"></line>
</g>
	<path d="M230.4 87.040h51.2v337.92h-51.2v-337.92z" fill="#000000"></path>
	<path d="M152.32 412.524l-138.419-138.424c-4.803-4.803-7.501-11.31-7.501-18.105s2.693-13.302 7.501-18.105l138.419-138.414 36.203 36.203-120.32 120.315 120.32 120.325-36.203 36.204z" fill="#000000"></path>
	<path d="M359.68 412.524l-36.204-36.204 120.32-120.325-120.32-120.315 36.204-36.203 138.419 138.419c4.803 4.803 7.501 11.31 7.501 18.104s-2.693 13.302-7.501 18.105l-138.419 138.419z" fill="#000000"></path>
</svg>
