<?xml version="1.0" encoding="utf-8"?>
<!-- Generated by IcoMoon.io -->
<!DOCTYPE svg PUBLIC "-//W3C//DTD SVG 1.1//EN" "http://www.w3.org/Graphics/SVG/1.1/DTD/svg11.dtd">
<svg version="1.1" xmlns="http://www.w3.org/2000/svg" xmlns:xlink="http://www.w3.org/1999/xlink" width="512" height="512" viewBox="0 0 512 512">
<g id="icomoon-ignore">
	<line stroke-width="1" x1="0" y1="656" x2="672" y2="656" stroke="#449FDB" opacity="0.3"></line>
</g>
	<path d="M231.941 290.944c8.986 4.608 17.531 10.014 25.605 16.082 20.623-36.741 58.076-60.359 100.854-60.359 65.029 0 117.76 55.414 117.76 127.094h-0.010c0 0 0.010-0.169 0.010 0h-163.471c4.757 9.625 8.786 20.48 11.925 30.72h151.547c16.937 0 30.669-13.988 30.715-30.914-0.082-81.29-58.476-148.736-133.094-156.944-5.058-0.558-10.189-0.917-15.38-0.917s-10.322 0.256-15.38 0.814c-46.945 5.171-87.454 33.71-111.079 74.424z" fill="#000000"></path>
	<path d="M5.13 459.714c0 0.19-0.010 0.374-0.010 0.558v-0.005c0-0.185 0.010-0.368 0.010-0.553zM302.080 460.272c0-0.185-0.010-0.368-0.010-0.558 0 0.185 0.010 0.368 0.010 0.558v0zM506.88 373.233c0-0.185-0.010-0.368-0.010-0.558 0 0.185 0.010 0.368 0.010 0.558v0z" fill="#000000"></path>
	<path d="M358.39 20.992c-43.914 0-79.642 37.12-79.642 82.749 0 41.278 29.271 75.504 67.364 81.669 4.014 0.65 8.094 1.090 12.278 1.090 4.188 0 8.269-0.44 12.283-1.090 38.093-6.169 67.369-40.392 67.369-81.669 0.005-45.63-35.733-82.749-79.652-82.749zM358.39 157.312c-27.878 0-50.452-23.931-50.452-53.571 0-29.568 22.574-53.56 50.452-53.56 27.899 0 50.468 23.992 50.468 53.56 0 29.639-22.569 53.571-50.468 53.571z" fill="#000000"></path>
	<path d="M5.125 460.606c0.046 16.926 13.778 30.914 30.715 30.914h235.52c16.937 0 30.669-13.988 30.715-30.914-0.082-81.29-58.476-148.736-133.095-156.943-5.059-0.558-10.189-0.916-15.381-0.916s-10.322 0.384-15.381 0.947c-74.619 8.212-133.012 75.623-133.095 156.912zM271.36 460.8h-0.010c0 0 0.010-0.169 0.010 0h-235.52c0-0.169 0.010 0 0.010 0h-0.010c0-71.68 52.731-126.838 117.76-126.838s117.76 55.158 117.76 126.838z" fill="#000000"></path>
	<path d="M153.59 108.032c-43.914 0-79.641 37.12-79.641 82.749 0 41.278 29.271 75.505 67.364 81.669 4.014 0.65 8.095 1.091 12.278 1.091 4.188 0 8.269-0.44 12.283-1.091 38.093-6.17 67.369-40.392 67.369-81.669 0.005-45.63-35.732-82.749-79.652-82.749zM153.59 244.352c-27.879 0-50.453-23.931-50.453-53.571 0-29.568 22.574-53.56 50.453-53.56 27.899 0 50.468 23.993 50.468 53.56 0 29.639-22.569 53.571-50.468 53.571z" fill="#000000"></path>
</svg>
