<?xml version="1.0" encoding="utf-8"?>
<!-- Generated by IcoMoon.io -->
<!DOCTYPE svg PUBLIC "-//W3C//DTD SVG 1.1//EN" "http://www.w3.org/Graphics/SVG/1.1/DTD/svg11.dtd">
<svg version="1.1" xmlns="http://www.w3.org/2000/svg" xmlns:xlink="http://www.w3.org/1999/xlink" width="512" height="512" viewBox="0 0 512 512">
<g id="icomoon-ignore">
	<line stroke-width="1" x1="0" y1="656" x2="672" y2="656" stroke="#449FDB" opacity="0.3"></line>
</g>
	<path d="M471.865 80.189c-22-15.647-44.452-23.573-66.719-23.573-69.478 0-110.203 75.965-111.902 79.201-2.841 5.406-2.212 11.976 1.598 16.743 3.82 4.772 10.112 6.84 15.985 5.232 9.365-2.519 17.556-3.794 24.336-3.794 15.724 0 18.862 6.866 20.199 9.794 16.686 36.531-41.692 149.991-54.39 164.649-1.853 1.991-8.007 7.147-14.121 7.147-4.039 0-39.88-4.987-54.303-177.997-6.349-76.103-36.859-92.083-61.338-92.083-58.665 0-134.21 100.162-142.633 111.585-2.678 3.635-3.625 8.269-2.581 12.672 1.044 4.393 3.973 8.11 8.008 10.148l10.087 5.105c5.355 2.714 11.837 2.048 16.532-1.715 21.673-17.357 33.255-19.231 37.227-19.231 1.040 0 1.808 0.113 2.361 0.256 65.925 259.625 81.536 308.69 166.482 308.69l2.355-0.010c74.178-0.763 143.856-106.619 172.585-177.587 66.719-164.746 53.269-218.855 30.233-235.233zM266.69 460.8c-58.834 0-70.43-23.644-137.851-289.29-0.338-1.326-0.85-2.227-1.526-3.415-3.948-6.969-14.034-14.925-29.466-14.925-3.364 0-6.83 0.461-10.404 1.203 28.052-30.075 61.558-58.189 83.758-58.189 20.987 0 28.293 35.947 30.73 65.106 11.561 138.732 39.337 207.35 84.91 207.35h0.010c19.794 0 33.94-15.252 36.562-18.058 9.457-10.102 85.683-139.52 60.293-198.052-5.401-12.462-17.474-27.484-44.395-28.862 14.797-17.085 37.586-36.188 65.828-36.188 15.76 0 32.22 5.95 48.921 17.823 1.577 1.121 14.868 12.974-2.928 84.854-11.495 46.428-30.392 94.264-37.975 113.003-31.36 77.456-93.957 157.639-144.425 157.639h-2.043z" fill="#000000"></path>
</svg>
