<?xml version="1.0" encoding="utf-8"?>
<!-- Generated by IcoMoon.io -->
<!DOCTYPE svg PUBLIC "-//W3C//DTD SVG 1.1//EN" "http://www.w3.org/Graphics/SVG/1.1/DTD/svg11.dtd">
<svg version="1.1" xmlns="http://www.w3.org/2000/svg" xmlns:xlink="http://www.w3.org/1999/xlink" width="512" height="512" viewBox="0 0 512 512">
<g id="icomoon-ignore">
	<line stroke-width="1" x1="0" y1="656" x2="672" y2="656" stroke="#449FDB" opacity="0.3"></line>
</g>
	<path d="M440.32 225.28h-368.64c-8.484 0-15.36 7.762-15.36 16.24v256c0 4.075 1.618 7.542 4.505 10.425 2.877 2.882 6.784 4.055 10.855 4.055 0.005 0 0.010 0 0.016 0l368.64 0.057c8.478-0.010 15.344-6.441 15.344-14.919v-255.616c0-8.478-6.876-16.24-15.36-16.24zM424.96 481.792l-337.92 0.353v-226.145h337.92v225.792z" fill="#000000"></path>
	<path d="M128 153.631c0-65.638 57.421-119.040 128-119.040s128 53.401 128 119.040v61.41h30.72v-61.41c0-82.576-71.198-149.76-158.72-149.76s-158.72 67.184-158.72 149.76v61.41h30.72v-61.41z" fill="#000000"></path>
	<path d="M229.356 383.437l16.922-25.641c-3.983-2.632-6.277-7.358-6.277-12.964 0-8.366 7.178-15.432 15.678-15.432 8.121 0 14.239 6.589 14.239 15.324 0 9.093-2.074 11.284-8.31 13.255l-10.726 3.394v63.586h30.72v-42.506c10.137-6.195 19.041-17.418 19.041-37.73 0-25.82-19.748-46.044-44.959-46.044-25.584 0-46.398 20.7-46.398 46.151-0.005 15.872 7.501 30.305 20.071 38.605z" fill="#000000"></path>
</svg>
