<?xml version="1.0" encoding="utf-8"?>
<!-- Generated by IcoMoon.io -->
<!DOCTYPE svg PUBLIC "-//W3C//DTD SVG 1.1//EN" "http://www.w3.org/Graphics/SVG/1.1/DTD/svg11.dtd">
<svg version="1.1" xmlns="http://www.w3.org/2000/svg" xmlns:xlink="http://www.w3.org/1999/xlink" width="512" height="512" viewBox="0 0 512 512">
<g id="icomoon-ignore">
	<line stroke-width="1" x1="0" y1="656" x2="672" y2="656" stroke="#449FDB" opacity="0.3"></line>
</g>
	<path d="M369.613 496.988c-33.726 0-71.895-11.479-96.921-49.95l-142.362-218.793c-1.633-2.509-15.831-25.395-9.861-53.483 2.78-13.107 11.126-31.984 35.067-47.504 43.417-28.15 82.32-2.796 97.869 21.105l97.511 149.878-42.916 27.925-97.516-149.883c-2.657-3.82-11.305-16.317-27.095-6.067-7.399 4.798-11.72 9.907-12.836 15.186-1.546 7.266 2.647 14.848 2.693 14.919l142.367 218.798c25.159 38.661 75.085 25.144 86.851 21.284 53.376-38.948 28.57-88.878 22.405-99.476l-129.669-199.291c-32.973-50.678-77.118-77.118-124.16-74.552-39.301 2.181-74.65 25.262-92.252 60.242-20.925 41.584-14.254 92.078 18.785 142.183l57.374 88.177-42.916 27.925-57.282-88.048c-42.844-64.957-50.785-135.45-21.694-193.25 25.82-51.303 77.609-85.161 135.158-88.346 65.167-3.594 127.129 32.016 169.902 97.751l130.386 200.417c21.197 34.811 40.207 115.195-39.577 170.276l-2.411 1.664-2.729 1.075c-13.322 5.258-32.86 9.841-54.169 9.841z" fill="#000000"></path>
</svg>
