<?xml version="1.0" encoding="utf-8"?>
<!-- Generated by IcoMoon.io -->
<!DOCTYPE svg PUBLIC "-//W3C//DTD SVG 1.1//EN" "http://www.w3.org/Graphics/SVG/1.1/DTD/svg11.dtd">
<svg version="1.1" xmlns="http://www.w3.org/2000/svg" xmlns:xlink="http://www.w3.org/1999/xlink" width="512" height="512" viewBox="0 0 512 512">
<g id="icomoon-ignore">
	<line stroke-width="1" x1="0" y1="656" x2="672" y2="656" stroke="#449FDB" opacity="0.3"></line>
</g>
	<path d="M441.401 368.64h-36.921v-63.867c0-14.172-4.757-23.173-19.072-23.173h-25.406c27.725-51.2 52.142-94.254 51.82-132.751-0.743-92.462-57.498-148.849-148.116-148.849h-1.762c-45.671 0-84.362 12.498-111.877 39.475-27.868 27.321-42.398 65.705-42.025 110.828 0.292 35.681 23.204 80.097 50.678 131.298h-24.254c-14.32 0-26.947 9.001-26.947 23.173v63.867h-23.87c-14.316 0-32.45 9.226-32.45 23.404v87.629c0 14.178 18.135 32.322 32.45 32.322h357.755c14.315 0.005 19.394-18.146 19.394-32.317v-87.634c0-14.178-5.079-23.404-19.399-23.404zM186.547 75.888c17.72-17.367 43.934-24.689 75.817-24.689h1.346c43.556 0 95.611 14.935 96.266 96.758 0.307 36.505-42.721 103.659-58.911 129.367-9.748 15.462-12.063 18.581-12.692 25.82-0.62 7.163 1.822 15.145 6.733 20.444s11.837 9.211 19.098 9.211h39.076v35.84h-194.56v-35.84h44.467c7.153 0 13.988-4.111 18.887-9.262 4.9-5.161 7.429-12.692 6.989-19.758-0.456-7.276-2.585-11.161-12.826-28.421-15.334-25.851-56.079-93.891-56.34-126.96-0.261-30.956 8.955-55.163 26.649-72.51zM409.6 460.8h-302.080v-40.96h302.080v40.96z" fill="#000000"></path>
</svg>
