<?xml version="1.0" encoding="utf-8"?>
<!-- Generated by IcoMoon.io -->
<!DOCTYPE svg PUBLIC "-//W3C//DTD SVG 1.1//EN" "http://www.w3.org/Graphics/SVG/1.1/DTD/svg11.dtd">
<svg version="1.1" xmlns="http://www.w3.org/2000/svg" xmlns:xlink="http://www.w3.org/1999/xlink" width="512" height="512" viewBox="0 0 512 512">
<g id="icomoon-ignore">
	<line stroke-width="1" x1="0" y1="656" x2="672" y2="656" stroke="#449FDB" opacity="0.3"></line>
</g>
	<path d="M486.4 102.4h-117.945l-22.599-60.298c-3.738-10.005-13.296-16.502-23.977-16.502h-132.608c-10.747 0-20.352 6.579-24.043 16.671l-22.041 60.13h-117.586c-14.136 0-25.6 11.73-25.6 25.871v358.123c0 6.794 2.698 13.317 7.506 18.115 4.803 4.793 11.31 7.49 18.094 7.49 0.010 0 0.020 0 0.026 0l460.8-0.512c14.126-0.010 25.574-11.474 25.574-25.6v-357.616c0-14.142-11.464-25.871-25.6-25.871zM460.8 460.8l-409.6-0.036v-307.164h109.88c10.747 0 20.352-6.579 24.043-16.671l22.041-60.13h96.957l22.599 60.298c3.738 10.005 13.296 16.502 23.977 16.502h110.101v307.2z" fill="#000000"></path>
	<path d="M256 194.56c-62.111 0-112.64 50.529-112.64 112.64s50.529 112.64 112.64 112.64 112.64-50.529 112.64-112.64-50.529-112.64-112.64-112.64zM256 368.64c-33.869 0-61.44-27.546-61.44-61.44s27.571-61.44 61.44-61.44 61.44 27.546 61.44 61.44-27.571 61.44-61.44 61.44z" fill="#000000"></path>
</svg>
