<?xml version="1.0" encoding="utf-8"?>
<!-- Generated by IcoMoon.io -->
<!DOCTYPE svg PUBLIC "-//W3C//DTD SVG 1.1//EN" "http://www.w3.org/Graphics/SVG/1.1/DTD/svg11.dtd">
<svg version="1.1" xmlns="http://www.w3.org/2000/svg" xmlns:xlink="http://www.w3.org/1999/xlink" width="512" height="512" viewBox="0 0 512 512">
<g id="icomoon-ignore">
	<line stroke-width="1" x1="0" y1="656" x2="672" y2="656" stroke="#449FDB" opacity="0.3"></line>
</g>
	<path d="M455.68 35.84c0-16.962-13.757-30.72-30.72-30.72h-337.92c-16.963 0-30.72 13.758-30.72 30.72v440.32c0 16.962 13.757 30.72 30.72 30.72h337.92c16.962 0 30.72-13.757 30.72-30.72v-440.32zM424.96 476.16h-337.92v-440.32h337.92v440.32z" fill="#000000"></path>
	<path d="M153.59 440.32l204.815-0.010c16.962 0 30.715-13.757 30.715-30.72v-307.19c0-8.151-3.231-15.959-8.996-21.724-5.76-5.76-13.573-8.996-21.714-8.996h-204.815c-16.963 0-30.715 13.763-30.715 30.73v307.19c0 8.151 3.231 15.959 8.996 21.724 5.76 5.76 13.568 8.996 21.714 8.996zM153.6 102.4h204.8v307.19l-204.8 0.010v-307.2z" fill="#000000"></path>
</svg>
