<?xml version="1.0" encoding="utf-8"?>
<!-- Generated by IcoMoon.io -->
<!DOCTYPE svg PUBLIC "-//W3C//DTD SVG 1.1//EN" "http://www.w3.org/Graphics/SVG/1.1/DTD/svg11.dtd">
<svg version="1.1" xmlns="http://www.w3.org/2000/svg" xmlns:xlink="http://www.w3.org/1999/xlink" width="512" height="512" viewBox="0 0 512 512">
<g id="icomoon-ignore">
	<line stroke-width="1" x1="0" y1="656" x2="672" y2="656" stroke="#449FDB" opacity="0.3"></line>
</g>
	<path d="M309.76 10.348c0.062 14.582-8.448 22.784-15.503 27.074-120.571-67.6-235.602-10.767-280.729 30.136-5.878 5.335-8.955 13.097-8.325 21.013 0.635 7.915 4.905 15.088 11.561 19.42 4.838 3.144 40.612 25.918 76.267 35.118 0.236 11.249 1.326 25.282 4.434 39.792 10.291 47.995 38.201 79.037 78.597 87.409 1.72 0.358 3.461 0.533 5.197 0.533 5.053 0 10.035-1.495 14.295-4.362 4.132-2.786 8.822-5.668 13.783-8.724 35.308-21.734 88.683-54.594 88.135-143.227l-51.2 0.317c0.369 59.817-30.791 79.001-63.785 99.313-1.71 1.054-3.389 2.089-5.043 3.113-40.187-18.105-32.778-92.35-32.707-93.097 0.804-7.173-1.464-14.356-6.242-19.769s-11.618-8.566-18.832-8.663c-10.773-0.153-25.846-5.34-40.356-11.919 40.514-22.83 115.615-48.635 199.445 3.912 6.052 3.794 13.43 4.874 20.332 3.010 21.488-5.858 62.080-30.249 61.875-80.615l-51.2 0.215z" fill="#000000"></path>
	<path d="M376.709 352.748c-31.406-32.144-72.499-48.445-122.137-48.445-71.593 0-136.125 34.78-138.834 36.26-7.086 3.865-11.93 10.844-13.076 18.832s1.541 16.046 7.245 21.75c1.388 1.382 30.909 30.366 77.752 37.099 11.95 31.288 40.166 88.637 86.262 88.637 6.344 0 12.467-2.361 17.173-6.615 2.146-1.945 53.017-48.374 89.902-117.586 5.248-9.846 3.512-21.95-4.286-29.932zM266.885 452.281c-11.489-9.575-27.484-37.868-36.045-65.715-3.267-10.721-13.118-18.063-24.325-18.135-6.507-0.041-12.642-0.834-18.314-2.11 19.308-5.873 42.614-10.813 66.371-10.813 27.971 0 51.83 6.958 71.183 20.736-21.31 35.103-45.538 62.249-58.87 76.037z" fill="#000000"></path>
	<path d="M481.183 227.676c-16.942-49.3-23.526-111.841-23.593-112.528-1.331-12.933-12.139-22.82-25.139-22.989-0.256 0-0.512-0.005-0.763-0.005-25.401 0-49.296 16.189-71.030 48.133-14.009 20.588-22.507 41.114-22.866 41.979-1.264 3.088-1.91 6.201-1.91 9.538-1.075 6.441-20.813 22.21-42.276 31.416-8.878 3.768-14.884 12.216-15.529 21.847-0.65 9.625 4.168 18.801 12.467 23.726 2.074 1.229 37.837 21.909 96.875 21.909 23.147 0 49.874-3.18 79.544-11.955l32.010 0.292 0.461-51.2-18.253-0.164zM363.935 238.254c11.454-10.957 20.787-24.428 22.753-40.131 6.446-14.582 15.913-29.927 25.139-40.648 3.656 21.945 9.442 50.662 17.966 77.783-26.046 5.171-48.231 5.125-65.858 2.995z" fill="#000000"></path>
</svg>
