<?xml version="1.0" encoding="utf-8"?>
<!-- Generated by IcoMoon.io -->
<!DOCTYPE svg PUBLIC "-//W3C//DTD SVG 1.1//EN" "http://www.w3.org/Graphics/SVG/1.1/DTD/svg11.dtd">
<svg version="1.1" xmlns="http://www.w3.org/2000/svg" xmlns:xlink="http://www.w3.org/1999/xlink" width="512" height="512" viewBox="0 0 512 512">
<g id="icomoon-ignore">
	<line stroke-width="1" x1="0" y1="656" x2="672" y2="656" stroke="#449FDB" opacity="0.3"></line>
</g>
	<path d="M240.64 97.28h30.72v317.44h-30.72v-317.44z" fill="#000000"></path>
	<path d="M152.32 113.956l-131.179 131.174c-2.883 2.882-4.5 6.789-4.5 10.864 0 4.071 1.618 7.982 4.5 10.859l131.179 131.19 21.719-21.724-120.32-120.325 120.32-120.315-21.719-21.724z" fill="#000000"></path>
	<path d="M490.86 245.13l-131.179-131.174-21.719 21.724 120.32 120.315-120.32 120.325 21.719 21.724 131.179-131.19c2.877-2.877 4.5-6.789 4.5-10.859 0-4.076-1.618-7.982-4.5-10.864z" fill="#000000"></path>
</svg>
