<?xml version="1.0" encoding="utf-8"?>
<!-- Generated by IcoMoon.io -->
<!DOCTYPE svg PUBLIC "-//W3C//DTD SVG 1.1//EN" "http://www.w3.org/Graphics/SVG/1.1/DTD/svg11.dtd">
<svg version="1.1" xmlns="http://www.w3.org/2000/svg" xmlns:xlink="http://www.w3.org/1999/xlink" width="512" height="512" viewBox="0 0 512 512">
<g id="icomoon-ignore">
	<line stroke-width="1" x1="0" y1="656" x2="672" y2="656" stroke="#449FDB" opacity="0.3"></line>
</g>
	<path d="M220.498 220.549c-19.609 19.584-19.6 51.369-0.005 70.969 19.584 19.579 51.353 19.579 70.963 0.005 19.594-19.599 19.589-51.389-0.005-70.983-19.579-19.579-51.374-19.589-70.953 0.010z" fill="#000000"></path>
	<path d="M481.731 194.816l-59.914-7.495 40.171-47.504c8.1-6.722 5.909-25.287-1.367-33.613l-54.375-54.544c-9.103-9.104-24.002-10.281-33.976-2.13l-44.549 42.455-9.554-60.708c-1.316-12.79-10.204-21.038-23.060-21.038h-75.264c-12.611 0-23.567 8.53-25.185 21.038l-8.929 60.447-46.254-41.682c-9.979-8.11-24.832-7.158-33.93 1.935l-53.893 53.822c-8.919 8.914-10.317 23.516-2.611 33.495l43.863 48.030-62.423 7.516c-12.82 1.285-20.239 12.18-20.239 25.058v75.269c0 12.882 7.419 21.791 20.234 23.081l62.039 8.023-43.735 46.137c-8.162 9.974-6.626 24.945 2.478 34.053l54.554 53.494c9.114 9.108 24.166 10.276 34.135 2.13l47.242-38.974 7.547 57.395c1.321 12.79 12.252 21.253 25.108 21.253h75.269c12.851 0 21.755-8.464 23.081-21.253l8.028-57.493 46.014 40.571c9.974 8.105 24.848 6.487 33.935-2.606l54.605-54.851c9.088-9.093 9.554-23.429 1.449-33.403l-40.678-46.392 60.18-8.059c12.82-1.29 20.034-10.219 20.034-23.106v-75.264c0-12.882-7.214-23.798-20.029-25.088zM456.678 276.106l-73.938 6.523c-9.61 0.967-17.808 2.345-21.089 11.428-1.116 3.098-5.269 15.626-5.284 17.915-0.031 5.704 2.76 12.216 6.487 16.804l49.229 54.978-28.385 28.38-59.986-49.239c-8.53-9.031-12.662-7.69-21.223-3.973-0.133 0.057-0.302-0.292-0.43-0.231-0.707 0.317-5.386 1.899-5.386 1.899-0.067-0.067-0.63 0.322-0.825 0.404-8.586 3.476-12.713 12.723-13.68 21.975l-6.077 73.718-40.161 0.021-6.543-73.666c-0.973-9.421-4.706-18.094-13.548-21.468-2.268-0.86-4.644-2.406-7.701-3.63-11.776-4.705-14.935 0.855-22.41 6.958l-57.488 47.232-28.38-28.38 47.949-57.887c5.632-5.627 5.279-20.885 3.963-25.38-0.625-2.156-1.613-4.142-2.355-6.277-3.2-9.231-10.194-10.634-19.911-11.623l-74.25-6.507 0.010-40.125 74.855-6.507c9.226-0.927 17.193-6.881 20.7-15.468 0.589-1.439 1.224-2.857 1.884-4.275 3.901-8.474 2.744-18.458-2.959-25.846l-49.884-55.567 28.38-28.38 57.595 50.499c6.359 5.161 19.815 5.617 28.554 1.828 0.594-0.256 4.598-2.288 5.15-2.606 6.825-3.901 8.929-12.099 9.943-19.897l6.471-74.358 40.11-0.031 6.507 72.745c0.988 9.493 4.711 18.222 13.66 21.545 1.438 0.537 2.873 1.377 4.286 1.976 8.571 3.625 18.493 3.425 25.702-2.463l57.477-49.234 28.385 28.38-46.674 56.55c-3.856 4.72-8.673 15.826-7.035 22.928 0.522 2.238 1.915 4.106 2.775 6.221 3.507 8.601 13.553 15.037 22.789 15.964l72.75 6.011-0.010 40.136z" fill="#000000"></path>
</svg>
