<?xml version="1.0" encoding="utf-8"?>
<!-- Generated by IcoMoon.io -->
<!DOCTYPE svg PUBLIC "-//W3C//DTD SVG 1.1//EN" "http://www.w3.org/Graphics/SVG/1.1/DTD/svg11.dtd">
<svg version="1.1" xmlns="http://www.w3.org/2000/svg" xmlns:xlink="http://www.w3.org/1999/xlink" width="512" height="512" viewBox="0 0 512 512">
<g id="icomoon-ignore">
	<line stroke-width="1" x1="0" y1="656" x2="672" y2="656" stroke="#449FDB" opacity="0.3"></line>
</g>
	<path d="M179.2 373.76h-104.448c0-66.56 52.731-124.79 117.76-124.79 36.5 0 69.11 17.27 90.711 47.99h36.649c-25.984-46.080-73.344-77.947-127.36-77.947-81.869 0-148.48 69.274-148.48 156.155 0 16.957 13.763 29.312 30.72 29.312h104.448v-30.72z" fill="#000000"></path>
	<path d="M330.578 312.32c-0.317-0.855-0.62 0-0.962 0h-33.526c0.42 0 0.809-0.855 1.219 0h33.27z" fill="#000000"></path>
	<path d="M324.608 373.76h16.159c0.092-0.839 0.138 0 0.169 0h-16.327z" fill="#000000"></path>
	<path d="M192.502 21.55c-44.759 0-81.172 37.811-81.172 84.285 0 46.48 36.408 84.29 81.172 84.29 44.769 0 81.188-37.811 81.188-84.29 0-46.474-36.418-84.285-81.188-84.285zM192.502 159.406c-27.879 0-50.452-23.931-50.452-53.571 0-29.568 22.569-53.566 50.452-53.566 27.899 0 50.468 23.998 50.468 53.566 0 29.639-22.569 53.571-50.468 53.571z" fill="#000000"></path>
	<path d="M211.87 324.51v87.040h266.24v-87.040h-266.24zM452.51 385.95h-215.040v-35.84h215.040v35.84z" fill="#000000"></path>
</svg>
