<?xml version="1.0" encoding="utf-8"?>
<!-- Generated by IcoMoon.io -->
<!DOCTYPE svg PUBLIC "-//W3C//DTD SVG 1.1//EN" "http://www.w3.org/Graphics/SVG/1.1/DTD/svg11.dtd">
<svg version="1.1" xmlns="http://www.w3.org/2000/svg" xmlns:xlink="http://www.w3.org/1999/xlink" width="512" height="512" viewBox="0 0 512 512">
<g id="icomoon-ignore">
	<line stroke-width="1" x1="0" y1="656" x2="672" y2="656" stroke="#449FDB" opacity="0.3"></line>
</g>
	<path d="M251.249 64.256c-104.458 0-189.44 84.987-189.44 189.44s84.982 189.44 189.44 189.44 189.44-84.987 189.44-189.44-84.982-189.44-189.44-189.44zM92.528 253.696c0-38.303 13.563-73.431 36.147-100.849l223.411 223.417c-27.418 22.584-62.541 36.158-100.839 36.158-87.67-0.005-158.72-71.101-158.72-158.725zM373.811 354.539l-223.411-223.417c27.417-22.584 62.546-36.153 100.849-36.153 87.67 0 158.72 71.045 158.72 158.72 0 38.292-13.568 73.426-36.158 100.849z" fill="#000000"></path>
</svg>
