<?xml version="1.0" encoding="utf-8"?>
<!-- Generated by IcoMoon.io -->
<!DOCTYPE svg PUBLIC "-//W3C//DTD SVG 1.1//EN" "http://www.w3.org/Graphics/SVG/1.1/DTD/svg11.dtd">
<svg version="1.1" xmlns="http://www.w3.org/2000/svg" xmlns:xlink="http://www.w3.org/1999/xlink" width="512" height="512" viewBox="0 0 512 512">
<g id="icomoon-ignore">
	<line stroke-width="1" x1="0" y1="656" x2="672" y2="656" stroke="#449FDB" opacity="0.3"></line>
</g>
	<path d="M445.44 30.72c0-16.962-13.757-30.72-30.72-30.72h-307.2c-16.963 0-30.72 13.758-30.72 30.72v450.56c0 16.962 13.757 30.72 30.72 30.72h307.2c16.962 0 30.72-13.757 30.72-30.72v-450.56zM414.72 481.28h-307.2v-450.56h307.2v450.56z" fill="#000000"></path>
	<path d="M384 97.28c0-16.963-13.757-30.72-30.72-30.72h-184.32c-16.963 0-30.72 13.757-30.72 30.72v235.52c0 16.962 13.757 30.72 30.72 30.72h184.32c16.962 0 30.72-13.757 30.72-30.72v-235.52zM168.96 97.28h184.32v235.52h-184.32v-235.52z" fill="#000000"></path>
	<path d="M259.272 394.24c-16.937 0-30.715 13.762-30.715 30.72s13.778 30.72 30.715 30.72c16.968 0 30.725-13.762 30.725-30.72s-13.747-30.72-30.725-30.72z" fill="#000000"></path>
</svg>
