<?xml version="1.0" encoding="utf-8"?>
<!-- Generated by IcoMoon.io -->
<!DOCTYPE svg PUBLIC "-//W3C//DTD SVG 1.1//EN" "http://www.w3.org/Graphics/SVG/1.1/DTD/svg11.dtd">
<svg version="1.1" xmlns="http://www.w3.org/2000/svg" xmlns:xlink="http://www.w3.org/1999/xlink" width="512" height="512" viewBox="0 0 512 512">
<g id="icomoon-ignore">
	<line stroke-width="1" x1="0" y1="656" x2="672" y2="656" stroke="#449FDB" opacity="0.3"></line>
</g>
	<path d="M157.087 257.296l207.933-62.971c-4.075-9.615-6.108-19.891-6.082-30.172l-209.28 63.334c7.767 19.026 7.506 40.525-0.666 59.443l209.552 63.406c0.394-10.24 2.816-20.393 7.281-29.855l-208.738-63.186z" fill="#000000"></path>
	<path d="M461.015 127.468c-9.989-9.886-23.019-14.823-36.045-14.823-13.179 0-26.358 5.053-36.377 15.16-19.891 20.086-19.763 52.505 0.327 72.397 9.989 9.897 23.014 14.838 36.039 14.838 13.179 0 26.353-5.059 36.373-15.155 19.886-20.081 19.763-52.511-0.317-72.418zM439.526 178.243c-3.886 3.922-9.058 6.077-14.567 6.077-5.438 0-10.558-2.109-14.428-5.95-3.876-3.835-6.026-8.96-6.052-14.423-0.026-5.468 2.084-10.629 5.918-14.5 3.886-3.917 9.063-6.077 14.572-6.077 5.438 0 10.567 2.109 14.418 5.918 8.018 7.946 8.069 20.946 0.138 28.953z" fill="#000000"></path>
	<path d="M461.015 311.788c-9.989-9.887-23.019-14.822-36.045-14.822-13.179 0-26.358 5.053-36.377 15.161-19.891 20.086-19.763 52.505 0.327 72.397 9.989 9.897 23.014 14.832 36.039 14.832 13.179 0 26.353-5.058 36.373-15.155 19.886-20.081 19.763-52.51-0.317-72.412zM439.526 362.558c-3.886 3.922-9.063 6.077-14.572 6.077-5.438 0-10.558-2.11-14.428-5.95-3.876-3.835-6.026-8.96-6.052-14.423-0.026-5.468 2.084-10.629 5.918-14.5 3.886-3.917 9.063-6.077 14.572-6.077 5.438 0 10.567 2.11 14.418 5.918 8.023 7.946 8.074 20.946 0.144 28.954z" fill="#000000"></path>
	<path d="M123.095 219.627c-9.989-9.887-23.019-14.822-36.045-14.822-13.179 0-26.358 5.053-36.377 15.161-19.891 20.086-19.763 52.505 0.328 72.397 9.989 9.897 23.014 14.832 36.040 14.832 13.179 0 26.352-5.058 36.373-15.155 19.886-20.080 19.763-52.511-0.317-72.412zM101.606 270.397c-3.886 3.922-9.063 6.077-14.572 6.077-5.438 0-10.558-2.11-14.428-5.95-3.876-3.835-6.026-8.96-6.052-14.423-0.025-5.468 2.084-10.629 5.918-14.5 3.886-3.917 9.063-6.077 14.572-6.077 5.438 0 10.567 2.109 14.418 5.918 8.023 7.946 8.074 20.946 0.144 28.954z" fill="#000000"></path>
</svg>
