<?xml version="1.0" encoding="utf-8"?>
<!-- Generated by IcoMoon.io -->
<!DOCTYPE svg PUBLIC "-//W3C//DTD SVG 1.1//EN" "http://www.w3.org/Graphics/SVG/1.1/DTD/svg11.dtd">
<svg version="1.1" xmlns="http://www.w3.org/2000/svg" xmlns:xlink="http://www.w3.org/1999/xlink" width="512" height="512" viewBox="0 0 512 512">
<g id="icomoon-ignore">
	<line stroke-width="1" x1="0" y1="656" x2="672" y2="656" stroke="#449FDB" opacity="0.3"></line>
</g>
	<path d="M144.532 369.357c-11.663-11.632-27.079-18.012-43.469-18.012-16.425 0-31.867 6.405-43.469 18.038-11.581 11.577-17.971 27.008-17.971 43.413s6.39 31.836 18.002 43.443c11.633 11.607 27.059 17.986 43.454 17.986 16.404 0 31.831-6.39 43.423-17.986 11.602-11.566 18.002-27.003 18.002-43.433 0-16.399-6.38-31.831-17.971-43.449zM122.782 434.524c-5.995 5.995-13.85 8.986-21.703 8.986-7.864 0-15.728-3-21.734-8.986-12.001-12.002-12.001-31.442 0-43.438 6.001-6.016 13.86-9.017 21.719-9.017s15.719 3 21.719 8.986c12.001 12.027 12.001 31.498 0 43.469z" fill="#000000"></path>
	<path d="M457.017 401.239h-30.72v-15.36c0.010-166.528-135.506-302.019-302.080-302.029h-15.36v-30.72h15.36c183.516 0.010 332.81 149.284 332.8 332.749v15.36z" fill="#000000"></path>
	<path d="M357.817 401.239h-30.72v-15.36c0.005-111.826-91.008-202.814-202.88-202.829h-15.36v-30.72h15.36c128.814 0.016 233.605 104.786 233.6 233.549v15.36z" fill="#000000"></path>
	<path d="M227.901 401.239l-0.005-15.36c-0.016-57.134-46.531-103.618-103.68-103.623h-15.36v-30.72h15.36c74.087 0.005 134.375 60.268 134.4 134.333l0.005 15.36-30.72 0.010z" fill="#000000"></path>
</svg>
