<?xml version="1.0" encoding="utf-8"?>
<!-- Generated by IcoMoon.io -->
<!DOCTYPE svg PUBLIC "-//W3C//DTD SVG 1.1//EN" "http://www.w3.org/Graphics/SVG/1.1/DTD/svg11.dtd">
<svg version="1.1" xmlns="http://www.w3.org/2000/svg" xmlns:xlink="http://www.w3.org/1999/xlink" width="512" height="512" viewBox="0 0 512 512">
<g id="icomoon-ignore">
	<line stroke-width="1" x1="0" y1="656" x2="672" y2="656" stroke="#449FDB" opacity="0.3"></line>
</g>
	<path d="M435.051 148.48h-187.638c3.543-15.36 4.081-38.052-8.53-63.442-10.087-20.316-25.861-23.46-34.365-23.46-19.082 0-36.173 14.464-40.433 18.37l-122.563 90.511c-0.614 0.456-1.193 0.937-1.736 1.485-32.855 32.855-29.824 106.762-29.041 119.46-0.778 12.697-3.809 86.615 29.046 119.475 24.478 24.484 75.013 29.619 113.101 29.619 10.66 0 18.468-0.425 21.161-0.594 1.552 0.072 4.746 0.19 9.124 0.19 26.050 0 73.549-3.579 98.965-29 28.298-28.293 30.3-103.895 29.614-134.615h123.294c1.649 0 16.538-0.42 31.902-7.337 22.344-10.055 34.657-29.235 34.657-54.215 0-48.834-39.808-66.448-66.56-66.448zM435.051 245.76h-139.264c-4.24 0-8.295 1.531-11.197 4.624s-4.398 7.138-4.137 11.371c2.452 39.096-0.809 108.226-20.039 127.457-12.662 12.662-41.534 20.188-77.245 20.188-4.992 0-8.1-0.185-8.31-0.195-0.686-0.041-1.377-0.046-2.058 0-0.082 0.005-8.105 0.579-19.917 0.579-44.303 0-78.464-7.716-91.382-20.628-20.465-20.47-21.412-76.743-20.045-96.686 0.046-0.707 0.046-1.423 0-2.13-1.352-19.717-0.446-74.885 19.323-95.944l122.266-90.322c0.517-0.379 1.044-0.829 1.506-1.27 4.506-4.281 13.962-10.619 19.958-10.619 1.208 0 3.732 0 6.856 6.293 15.99 32.205 1.531 55.522 0.999 56.356-3.159 4.71-3.471 10.998-0.798 16.005 2.683 5.012 7.89 8.361 13.568 8.361h209.92c3.671 0 35.84 1.004 35.84 35.84 0 28.857-29.926 30.72-35.84 30.72z" fill="#000000"></path>
</svg>
