<?xml version="1.0" encoding="utf-8"?>
<!-- Generated by IcoMoon.io -->
<!DOCTYPE svg PUBLIC "-//W3C//DTD SVG 1.1//EN" "http://www.w3.org/Graphics/SVG/1.1/DTD/svg11.dtd">
<svg version="1.1" xmlns="http://www.w3.org/2000/svg" xmlns:xlink="http://www.w3.org/1999/xlink" width="512" height="512" viewBox="0 0 512 512">
<g id="icomoon-ignore">
	<line stroke-width="1" x1="0" y1="656" x2="672" y2="656" stroke="#449FDB" opacity="0.3"></line>
</g>
	<path d="M414.873 137.319l-118.769-114.478c-5.74-5.617-13.875-7.48-21.904-7.48h-154.742c-16.963 0-32.42 11.197-32.42 28.16v424.96c0 16.962 15.457 33.28 32.42 33.28h273.081c16.962 0 32.42-16.317 32.42-33.28v-309.202c0-8.263-4.178-16.185-10.087-21.959zM286.72 55.767l94.781 92.713h-94.781v-92.713zM394.24 471.040h-276.48v-424.96h138.24v117.76c0 8.484 6.876 15.36 15.36 15.36h122.88v291.84z" fill="#000000"></path>
</svg>
