<?xml version="1.0" encoding="utf-8"?>
<!-- Generated by IcoMoon.io -->
<!DOCTYPE svg PUBLIC "-//W3C//DTD SVG 1.1//EN" "http://www.w3.org/Graphics/SVG/1.1/DTD/svg11.dtd">
<svg version="1.1" xmlns="http://www.w3.org/2000/svg" xmlns:xlink="http://www.w3.org/1999/xlink" width="512" height="512" viewBox="0 0 512 512">
<g id="icomoon-ignore">
	<line stroke-width="1" x1="0" y1="656" x2="672" y2="656" stroke="#449FDB" opacity="0.3"></line>
</g>
	<path d="M445.44 240.64h-368.64c-14.142 0-25.6 13-25.6 27.136v220.16c0 6.794 2.698 12.539 7.506 17.341 4.797 4.798 11.31 6.722 18.094 6.722 0.010 0 0.016 0 0.025 0h368.64c14.131-0.010 25.575-10.265 25.575-24.397v-219.827c0-14.137-11.459-27.136-25.6-27.136zM419.84 460.8h-317.44v-168.96h317.44v168.96z" fill="#000000"></path>
	<path d="M143.36 221.184h-51.2v-54.718c0-88.222 75.796-160 168.96-160 94.745 0 168.96 67.922 168.96 154.624v25.6h-51.2v-25.6c0-58.962-50.627-103.424-117.76-103.424-64.937 0-117.76 48.809-117.76 108.8v54.718z" fill="#000000"></path>
</svg>
