<?xml version="1.0" encoding="utf-8"?>
<!-- Generated by IcoMoon.io -->
<!DOCTYPE svg PUBLIC "-//W3C//DTD SVG 1.1//EN" "http://www.w3.org/Graphics/SVG/1.1/DTD/svg11.dtd">
<svg version="1.1" xmlns="http://www.w3.org/2000/svg" xmlns:xlink="http://www.w3.org/1999/xlink" width="512" height="512" viewBox="0 0 512 512">
<g id="icomoon-ignore">
	<line stroke-width="1" x1="0" y1="656" x2="672" y2="656" stroke="#449FDB" opacity="0.3"></line>
</g>
	<path d="M414.776 501.719c-4.675 0-9.365-1.28-13.527-3.865l-144.635-90.035-139.924 89.841c-8.986 5.77-20.618 5.356-29.168-1.050-8.555-6.4-12.231-17.444-9.226-27.699l46.566-158.838-112.307-113.081c-7.286-7.337-9.441-18.334-5.468-27.879s13.291-15.764 23.634-15.764h141.415l60.841-138.112c4.101-9.303 13.291-15.483 23.49-15.278 10.163 0.021 19.358 6.062 23.414 15.386l60.068 138.066h141.333c10.322 0 19.635 6.201 23.618 15.724 3.978 9.523 1.853 20.506-5.397 27.853l-111.181 112.722 50.841 158.592c3.277 10.224-0.174 21.406-8.642 28.007-4.603 3.589-10.163 5.412-15.744 5.412zM92.222 204.549l79.626 80.179c6.574 6.62 9.026 16.292 6.4 25.241l-31.534 107.571 95.867-61.553c8.315-5.335 18.964-5.412 27.361-0.19l99.18 61.737-34.288-106.957c-2.903-9.072-0.533-19.010 6.154-25.794l79.084-80.179h-96.901c-10.189 0-19.41-6.042-23.475-15.386l-43.433-99.835-44.001 99.881c-4.096 9.287-13.286 15.278-23.429 15.278h-96.609z" fill="#000000"></path>
</svg>
