<?xml version="1.0" encoding="utf-8"?>
<!-- Generated by IcoMoon.io -->
<!DOCTYPE svg PUBLIC "-//W3C//DTD SVG 1.1//EN" "http://www.w3.org/Graphics/SVG/1.1/DTD/svg11.dtd">
<svg version="1.1" xmlns="http://www.w3.org/2000/svg" xmlns:xlink="http://www.w3.org/1999/xlink" width="512" height="512" viewBox="0 0 512 512">
<g id="icomoon-ignore">
	<line stroke-width="1" x1="0" y1="656" x2="672" y2="656" stroke="#449FDB" opacity="0.3"></line>
</g>
	<path d="M485.376 168.96h-150.907l-63.969-148.577c-2.432-5.607-7.952-10.143-14.060-10.143-0.010 0-0.026 0-0.036 0-6.093 0-11.618 4.526-14.065 10.112l-64.778 148.608h-150.958c-6.195 0-11.786 2.786-14.178 8.505-2.386 5.714-1.106 11.838 3.251 16.246l118.851 119.966-49.214 168.499c-1.797 6.154 0.42 12.718 5.561 16.553s12.124 4.045 17.51 0.568l148.147-95.555 152.99 95.652c2.498 1.567 5.325 2.334 8.146 2.334 3.333 0 6.666-1.086 9.426-3.231 5.084-3.952 7.163-10.665 5.212-16.804l-53.77-168.469 117.801-119.962c4.337-4.413 5.601-10.091 3.205-15.795s-7.982-8.51-14.167-8.51zM350.126 299.218c-3.988 4.065-5.406 9.549-3.676 14.976l43.848 137.165-125.747-78.736c-2.493-1.562-5.32-2.396-8.146-2.396-2.893 0-5.791 0.788-8.325 2.427l-121.733 78.495 40.208-137.769c1.566-5.351 0.102-10.204-3.82-14.167l-99.344-99.533h124.206c6.093 0 11.618-4.547 14.065-10.132l54.656-125.076 53.975 125.281c2.432 5.617 7.966 9.928 14.090 9.928h124.38l-98.637 99.538z" fill="#000000"></path>
</svg>
