<?xml version="1.0" encoding="utf-8"?>
<!-- Generated by IcoMoon.io -->
<!DOCTYPE svg PUBLIC "-//W3C//DTD SVG 1.1//EN" "http://www.w3.org/Graphics/SVG/1.1/DTD/svg11.dtd">
<svg version="1.1" xmlns="http://www.w3.org/2000/svg" xmlns:xlink="http://www.w3.org/1999/xlink" width="512" height="512" viewBox="0 0 512 512">
<g id="icomoon-ignore">
	<line stroke-width="1" x1="0" y1="656" x2="672" y2="656" stroke="#449FDB" opacity="0.3"></line>
</g>
	<path d="M395.781 496.64c-4.122 0-8.161-1.654-11.115-4.757l-132.332-138.603h-112.732c-42.025 0-77.599-35.221-79.299-78.515-0.026-0.788-0.020-12.38-0.010-16.748v-1.531c0-0.896 0.031-13.491 0.062-14.367 1.644-41.728 35.737-73.16 79.294-73.16h110.679l133.791-148.521c4.25-4.726 10.978-6.349 16.911-4.060 5.934 2.273 9.856 7.977 9.861 14.331l0.246 450.56c0.005 6.282-3.815 11.93-9.646 14.264-1.849 0.748-3.789 1.106-5.709 1.106zM139.648 199.68c-27.166 0-47.606 18.334-48.599 43.602-0.025 1.219-0.041 12.395-0.041 13.21v1.582c-0.010 3.998-0.025 14.402-0.005 15.744 1.040 26.301 23.291 48.743 48.599 48.743h119.306c4.193 0 8.212 1.721 11.111 4.757l110.382 115.61-0.205-372.229-111.616 123.904c-2.913 3.236-7.065 5.079-11.413 5.079h-117.519z" fill="#000000"></path>
</svg>
