<?xml version="1.0" encoding="utf-8"?>
<!-- Generated by IcoMoon.io -->
<!DOCTYPE svg PUBLIC "-//W3C//DTD SVG 1.1//EN" "http://www.w3.org/Graphics/SVG/1.1/DTD/svg11.dtd">
<svg version="1.1" xmlns="http://www.w3.org/2000/svg" xmlns:xlink="http://www.w3.org/1999/xlink" width="512" height="512" viewBox="0 0 512 512">
<g id="icomoon-ignore">
	<line stroke-width="1" x1="0" y1="656" x2="672" y2="656" stroke="#449FDB" opacity="0.3"></line>
</g>
	<path d="M256 220.155c-42.347 0-81.92 34.453-81.92 76.805v215.040h51.2v-215.040c0-14.116 16.604-25.605 30.72-25.605s30.72 11.49 30.72 25.605v215.040h51.2v-215.040c0-42.352-39.572-76.805-81.92-76.805z" fill="#000000"></path>
	<path d="M250.88 112.404c28.242 0 51.2-22.953 51.2-51.179 0-28.267-22.958-51.221-51.2-51.221s-51.2 22.958-51.2 51.221c0 28.227 22.958 51.179 51.2 51.179z" fill="#000000"></path>
	<path d="M367.104 15.36c0 71.68-52.823 128.748-117.76 128.748s-117.76-57.067-117.76-128.748h-51.2c0 102.4 75.796 179.947 168.96 179.947s168.96-77.547 168.96-179.947h-51.2z" fill="#000000"></path>
</svg>
