<?xml version="1.0" encoding="utf-8"?>
<!-- Generated by IcoMoon.io -->
<!DOCTYPE svg PUBLIC "-//W3C//DTD SVG 1.1//EN" "http://www.w3.org/Graphics/SVG/1.1/DTD/svg11.dtd">
<svg version="1.1" xmlns="http://www.w3.org/2000/svg" xmlns:xlink="http://www.w3.org/1999/xlink" width="512" height="512" viewBox="0 0 512 512">
<g id="icomoon-ignore">
	<line stroke-width="1" x1="0" y1="656" x2="672" y2="656" stroke="#449FDB" opacity="0.3"></line>
</g>
	<path d="M180.731 370.176h-110.587c0-71.68 52.731-126.838 117.76-126.838 34.514 0 66.012 15.534 87.552 40.837l-0.026-41.242c-24.56-19.088-54.825-30.367-87.526-30.367-81.869 0-148.48 70.712-148.48 157.589 0 16.957 13.758 30.74 30.72 30.74h110.587v-30.72z" fill="#000000"></path>
	<path d="M187.894 17.915c-43.914 0-79.641 37.12-79.641 82.75s35.728 82.76 79.641 82.76c43.919 0 79.657-37.13 79.657-82.76s-35.738-82.749-79.657-82.749zM187.894 154.235c-27.879 0-50.452-23.931-50.452-53.571 0-29.568 22.574-53.56 50.452-53.56 27.899 0 50.468 23.992 50.468 53.56 0.005 29.639-22.569 53.571-50.468 53.571z" fill="#000000"></path>
	<path d="M483.231 324.51h-87.040v-96.256l-87.040 0.030v96.226h-92.16v87.040h92.16v97.28h89.088l-0.010-24.709 0.010-72.571h84.992v-87.040zM370.591 385.95v97.28h-35.84v-97.28h-92.16v-35.84h92.16v-93.184l35.84-0.010v93.194h87.040v35.84h-87.040z" fill="#000000"></path>
</svg>
