<?xml version="1.0" encoding="utf-8"?>
<!-- Generated by IcoMoon.io -->
<!DOCTYPE svg PUBLIC "-//W3C//DTD SVG 1.1//EN" "http://www.w3.org/Graphics/SVG/1.1/DTD/svg11.dtd">
<svg version="1.1" xmlns="http://www.w3.org/2000/svg" xmlns:xlink="http://www.w3.org/1999/xlink" width="512" height="512" viewBox="0 0 512 512">
<g id="icomoon-ignore">
	<line stroke-width="1" x1="0" y1="656" x2="672" y2="656" stroke="#449FDB" opacity="0.3"></line>
</g>
	<path d="M256 506.88c-0.010 0-0.025 0-0.036 0-7.194-0.010-14.054-3.046-18.898-8.371-7.321-8.048-179.804-198.349-219.868-309.233-16.85-46.623-11.919-94.147 13.522-130.386 23.992-34.171 63.898-53.77 109.496-53.77 46.797 0 86.339 17.689 114.786 50.617 18.811-25.288 50.514-50.617 107.827-50.617 48.702 0 91.668 21.422 117.888 58.778 25.303 36.050 30.781 81.746 15.017 125.379-40.064 110.92-213.483 301.235-220.846 309.284-4.849 5.305-11.704 8.32-18.887 8.32zM140.216 56.32c-29.107 0-53.105 11.361-67.589 31.99-15.718 22.395-18.376 52.854-7.281 83.569 29.332 81.183 144.86 218.352 190.704 270.858 46.055-52.48 162.233-189.737 191.534-270.858 10.158-28.13 7.045-56.028-8.771-78.561-16.507-23.511-44.201-36.997-75.986-36.997-54.748 0-70.006 31.754-82.263 57.267l-1.039 2.156c-4.27 8.853-13.23 14.474-23.055 14.474s-18.786-5.627-23.055-14.474c-19.031-39.429-50.386-59.422-93.2-59.422z" fill="#000000"></path>
</svg>
