<?xml version="1.0" encoding="utf-8"?>
<!-- Generated by IcoMoon.io -->
<!DOCTYPE svg PUBLIC "-//W3C//DTD SVG 1.1//EN" "http://www.w3.org/Graphics/SVG/1.1/DTD/svg11.dtd">
<svg version="1.1" xmlns="http://www.w3.org/2000/svg" xmlns:xlink="http://www.w3.org/1999/xlink" width="512" height="512" viewBox="0 0 512 512">
<g id="icomoon-ignore">
	<line stroke-width="1" x1="0" y1="656" x2="672" y2="656" stroke="#449FDB" opacity="0.3"></line>
</g>
	<path d="M97.198 430.080h128.082v-51.2h-128.082c0 0 0.051 0 0.061 0h-0.061c0-66.56 41.57-109.666 107.55-109.666 21.591 0 39.608 5.868 56.3 12.007 1.398 0.522 40.822-34.109 39.301-35.272-26.808-20.459-59.197-29.322-95.278-29.322-45.532 0-86.59 16.159-115.338 45.65-27.991 28.718-43.53 71.024-43.638 115.435 0.102 28.18 22.907 52.368 51.102 52.368z" fill="#000000"></path>
	<path d="M204.078 48.64c25.462 0 46.080 21.79 46.080 48.64 0 26.87-20.618 48.64-46.080 48.64-25.452 0-46.080-21.77-46.080-48.64 0-26.849 20.633-48.64 46.080-48.64zM204.078 2.56c-50.816 0-92.16 42.491-92.16 94.72s41.344 94.72 92.16 94.72 92.16-42.491 92.16-94.72-41.344-94.72-92.16-94.72v0z" fill="#000000"></path>
	<path d="M477.563 354.422l-32.773-3.292 21.279-26.163c3.051-3.753 2.75-9.206-0.691-12.631l-26.67-26.649c-0.44-0.44-0.921-0.819-1.428-1.168-0.179-0.118-0.399-0.215-0.589-0.317-0.327-0.185-0.65-0.389-0.998-0.533-0.24-0.092-0.491-0.154-0.722-0.24-0.317-0.098-0.64-0.215-0.952-0.292-0.261-0.041-0.533-0.067-0.798-0.103-0.317-0.046-0.63-0.092-0.952-0.103-0.313-0.010-0.65 0.015-0.978 0.041-0.21 0.021-0.43 0.026-0.64 0.062-0.327 0.057-0.691 0.133-1.019 0.231-0.19 0.062-0.399 0.082-0.589 0.144-0.358 0.133-0.732 0.302-1.080 0.471-0.149 0.077-0.313 0.128-0.45 0.2-0.502 0.276-0.978 0.599-1.438 0.962l-26.491 21.647-3.451-32.691c-0.491-4.787-4.541-7.757-9.37-7.757h-37.678c-4.828 0-8.868 2.969-9.36 7.772l-3.318 31.98-24.981-20.628c-1.751-1.418-3.861-2.279-5.939-2.279-2.432 0-4.839 0.85-6.671 2.678l-26.67 26.608c-0.169 0.179-0.292 0.358-0.461 0.538-1.382 1.618-2.151 3.568-2.268 5.601-0.031 0.568 0.010 1.229 0.092 1.93 0.24 1.598 0.87 3.164 1.95 4.505l21.11 26.030-33.623 3.446c-4.828 0.466-8.064 4.526-8.064 9.37v37.678c0 4.839 3.308 8.878 8.115 9.37l33.444 3.385-20.828 25.375c-3.062 3.753-2.832 9.2 0.589 12.621l26.629 26.644c0.45 0.45 0.911 0.839 1.408 1.173 0.19 0.118 0.348 0.2 0.522 0.292 0.348 0.2 0.691 0.399 1.050 0.563 0.22 0.082 0.45 0.138 0.671 0.22 0.327 0.108 0.681 0.231 1.019 0.292 0.24 0.057 0.481 0.077 0.732 0.108 0.327 0.051 0.681 0.103 1.019 0.108 0.302 0 0.599-0.015 0.911-0.036 0.24-0.021 0.471-0.031 0.702-0.067 0.327-0.057 0.661-0.128 0.967-0.22 0.2-0.057 0.42-0.103 0.64-0.154 0.348-0.128 0.691-0.292 1.039-0.445 0.159-0.087 0.338-0.144 0.491-0.231 0.502-0.266 0.978-0.589 1.438-0.952l25.098-20.521 3.18 32.445c0.491 4.803 4.531 10.322 9.365 10.322h36.5c0.61 0 1.178-1.346 1.751-1.454 3.942-0.855 7.060-5.156 7.598-9.267l4.188-33.428 25.288 20.409c1.751 1.418 3.84 2.027 5.939 2.027 2.411 0 4.793-0.967 6.62-2.8l25.728-25.841c1.68-1.68 2.432-3.84 2.591-6.072 0.138-2.212 0.276-4.48-1.173-6.359l-18.673-24.832 32.589-3.303c4.834-0.491 8.371-4.531 8.371-9.37v-37.678c0-4.844-4.014-8.904-8.837-9.37zM367.918 417.29c-19.758 0-35.84-16.051-35.84-35.84s16.082-35.84 35.84-35.84c19.81 0 35.84 16.051 35.84 35.84s-16.036 35.84-35.84 35.84z" fill="#000000"></path>
</svg>
