<?xml version="1.0" encoding="utf-8"?>
<!-- Generated by IcoMoon.io -->
<!DOCTYPE svg PUBLIC "-//W3C//DTD SVG 1.1//EN" "http://www.w3.org/Graphics/SVG/1.1/DTD/svg11.dtd">
<svg version="1.1" xmlns="http://www.w3.org/2000/svg" xmlns:xlink="http://www.w3.org/1999/xlink" width="512" height="512" viewBox="0 0 512 512">
<g id="icomoon-ignore">
	<line stroke-width="1" x1="0" y1="656" x2="672" y2="656" stroke="#449FDB" opacity="0.3"></line>
</g>
	<path d="M90.112 230.4h145.408v-30.72h-117.847c18.027-66.56 75.582-108.8 141.967-108.8 70.805 0 134.6 48.778 144.839 117.96v21.56h31.232l-0.015-25.902c-16-84.377-88.632-145.618-174.649-145.618-64.947 0-122.808 35.4-153.529 89.257v-76.457h-30.72v140.8c0 8.484 4.828 17.92 13.312 17.92z" fill="#000000"></path>
	<path d="M421.888 286.72h-145.408v30.72h117.847c-18.027 61.44-75.582 106.24-141.968 106.24-70.804 0-134.6-51.338-144.839-120.519v-16.44h-31.232l0.016 20.782c16 84.377 88.632 145.618 174.649 145.618 64.947 0 122.809-35.399 153.528-89.262v81.582h30.72v-145.92c0-8.484-4.828-12.8-13.312-12.8z" fill="#000000"></path>
</svg>
