<?xml version="1.0" encoding="utf-8"?>
<!-- Generated by IcoMoon.io -->
<!DOCTYPE svg PUBLIC "-//W3C//DTD SVG 1.1//EN" "http://www.w3.org/Graphics/SVG/1.1/DTD/svg11.dtd">
<svg version="1.1" xmlns="http://www.w3.org/2000/svg" xmlns:xlink="http://www.w3.org/1999/xlink" width="512" height="512" viewBox="0 0 512 512">
<g id="icomoon-ignore">
	<line stroke-width="1" x1="0" y1="656" x2="672" y2="656" stroke="#449FDB" opacity="0.3"></line>
</g>
	<path d="M255.36 115.2c-39.526 0-71.68 32.153-71.68 71.68s32.154 71.68 71.68 71.68 71.68-32.154 71.68-71.68-32.154-71.68-71.68-71.68zM255.36 227.84c-22.62 0-40.96-18.334-40.96-40.96s18.34-40.96 40.96-40.96c22.625 0 40.96 18.334 40.96 40.96s-18.334 40.96-40.96 40.96z" fill="#000000"></path>
	<path d="M255.36 7.68c-95.99 0-174.080 82.683-174.080 184.32 0 91.781 133.591 277.094 148.823 299.090 5.739 8.284 15.175 13.23 25.257 13.23s19.517-4.946 25.257-13.23c15.232-21.995 148.823-207.309 148.823-299.090 0-101.637-78.090-184.32-174.080-184.32zM255.36 473.6c0 0-143.36-196.772-143.36-281.6 0-84.834 64.179-153.6 143.36-153.6s143.36 68.766 143.36 153.6c0 84.828-143.36 281.6-143.36 281.6z" fill="#000000"></path>
</svg>
