<?xml version="1.0" encoding="utf-8"?>
<!-- Generated by IcoMoon.io -->
<!DOCTYPE svg PUBLIC "-//W3C//DTD SVG 1.1//EN" "http://www.w3.org/Graphics/SVG/1.1/DTD/svg11.dtd">
<svg version="1.1" xmlns="http://www.w3.org/2000/svg" xmlns:xlink="http://www.w3.org/1999/xlink" width="512" height="512" viewBox="0 0 512 512">
<g id="icomoon-ignore">
	<line stroke-width="1" x1="0" y1="656" x2="672" y2="656" stroke="#449FDB" opacity="0.3"></line>
</g>
	<path d="M435.2 0h-358.4c-14.136 0-25.6 11.459-25.6 25.6v460.8c0 14.142 11.464 25.6 25.6 25.6h358.4c14.137 0 25.6-11.459 25.6-25.6v-460.8c0-14.142-11.464-25.6-25.6-25.6zM409.6 460.8h-307.2v-409.6h307.2v409.6z" fill="#000000"></path>
	<path d="M235.024 320.031c16.839 0 32.691-4.199 46.659-11.525l81.034 82.361 36.495-35.911-79.637-80.937c10.296-15.81 16.338-34.626 16.338-54.851 0-55.634-45.255-100.894-100.885-100.894-55.624 0-100.88 45.261-100.88 100.894-0.005 55.613 45.25 100.864 100.874 100.864zM235.024 169.472c27.397 0 49.685 22.292 49.685 49.695 0 27.387-22.288 49.664-49.685 49.664-27.392 0-49.679-22.282-49.679-49.664 0-27.402 22.287-49.695 49.679-49.695z" fill="#000000"></path>
</svg>
