<?xml version="1.0" encoding="utf-8"?>
<!-- Generated by IcoMoon.io -->
<!DOCTYPE svg PUBLIC "-//W3C//DTD SVG 1.1//EN" "http://www.w3.org/Graphics/SVG/1.1/DTD/svg11.dtd">
<svg version="1.1" xmlns="http://www.w3.org/2000/svg" xmlns:xlink="http://www.w3.org/1999/xlink" width="512" height="512" viewBox="0 0 512 512">
<g id="icomoon-ignore">
	<line stroke-width="1" x1="0" y1="656" x2="672" y2="656" stroke="#449FDB" opacity="0.3"></line>
</g>
	<path d="M352.722 366.756c-15.344-17.802-37.32-27.602-61.88-27.602-2.217 0-4.716 0.010-7.465 0.026-3.175 0.015-6 0.031-9.795 0.031-44.206 0-68.782-3.077-79.022-5.776v-41.595h56.489c22.277 0 39.383-1.209 40.551-1.209 45.957-0.292 80.732-35.774 80.916-81.756 0.185-45.65-35.164-82.222-80.476-82.867-8.848-0.118-25.728-0.333-51.559-0.333-15.314 0-30.556-0.123-45.916-0.103v-41.764c0-18.038-7.486-35.108-20.291-48.128-15.442-15.698-39.378-24.699-65.070-24.699-25.467 0-49.024 8.924-64.333 24.489-12.82 13.030-19.87 30.146-19.733 48.272l-0.512 268.723c-0.374 36.173 12.406 68.454 37.008 93.363 39.757 40.253 106.654 59.827 204.534 59.827 6.892 0 12.825 0.64 17.526 0.563 2.596-0.036 4.736 0.661 6.364 0.661h1.055c45.767 0 81.618-37.422 81.618-84.26 0-20.582-7.106-40.894-20.009-55.865zM291.113 455.68c-0.092 0-0.185 0-0.276 0-0.246 0-0.507 0-0.778 0-4.644 0-13.041-0.486-23.9-0.486-59.161 0-191.554-7.685-190.377-102.036l0.471-269.44c-0.236-14.316 16.825-21.448 33.285-21.448 16.64 0 33.822 7.106 33.822 21.264v93.369c0 0 52.741-0.179 96.983-0.179 22.124 0 41.6 0.046 51.307 0.179 39.582 0.563 40.269 61.072-0.169 61.322-1.162 0.005-17.541 0.010-39.66 0.010-44.247 0-108.462-0.010-108.462-0.010s0 74.865 0 115.517c0 34.381 84.322 36.67 130.222 36.67 7.055 0 12.846 0.681 17.603 0.681 41.692 0 39.711 64.589-0.072 64.589z" fill="#000000"></path>
</svg>
