<?xml version="1.0" encoding="utf-8"?>
<!-- Generated by IcoMoon.io -->
<!DOCTYPE svg PUBLIC "-//W3C//DTD SVG 1.1//EN" "http://www.w3.org/Graphics/SVG/1.1/DTD/svg11.dtd">
<svg version="1.1" xmlns="http://www.w3.org/2000/svg" xmlns:xlink="http://www.w3.org/1999/xlink" width="512" height="512" viewBox="0 0 512 512">
<g id="icomoon-ignore">
	<line stroke-width="1" x1="0" y1="656" x2="672" y2="656" stroke="#449FDB" opacity="0.3"></line>
</g>
	<path d="M347.346 440.817c22-3.998 45.696-6.031 70.487-6.031 23.358 0.005 39.045 1.889 39.199 1.91 1.244 0.149 2.488 0.226 3.733 0.226 7.46 0 14.73-2.714 20.373-7.716 6.594-5.832 10.384-14.203 10.384-22.999v-297.277c0-14.73-10.455-27.392-24.919-30.172-1.367-0.261-33.869-6.41-77.404-6.41-19.226 0-37.868 1.203-55.399 3.579-6 0.809-15.964 3.733-42.901 11.868-11.172 3.374-27.038 8.177-34.923 10.26-7.787-2.094-23.429-6.958-34.432-10.378-26.173-8.146-36.674-11.31-43.111-12.231-17.439-2.493-35.911-3.763-54.892-3.763-44.365 0-77.348 6.912-78.73 7.198-14.188 3.021-24.33 15.544-24.33 30.049v297.058c0 8.801 3.773 17.173 10.363 23.004 5.648 5.002 12.903 7.716 20.357 7.716 1.244 0 2.489-0.077 3.737-0.231 0.112-0.010 15.713-1.853 38.963-1.853 24.894 0 48.686 2.017 70.779 5.986 6.538 3.82 22.303 9.042 33.121 16.368 18.309 12.411 29.501 19.185 37.55 24.305h-235.351v30.72h512v-30.72h-235.361c8.059-5.12 19.251-11.899 37.57-24.315 10.824-7.337 26.603-12.339 33.137-16.149zM337.92 106.368c17.91-2.427 35.385-3.302 51.272-3.302 41.118 0 71.608 5.862 71.608 5.862v297.277c0 0-17.096-2.135-42.972-2.14-21.995 0-50.329 1.546-79.908 7.26-5.694 1.101-44.298 23.188-66.56 42.819v-323.267c22.057-11.515 60.048-23.629 66.56-24.51zM174.080 411.106c-29.691-5.673-58.138-7.204-80.174-7.204-25.723 0-42.706 2.084-42.706 2.084v-297.058c0 0 30.7-6.528 72.341-6.528 15.652 0 32.839 0.921 50.54 3.461 7.306 1.044 44.692 13.394 66.56 24.99v323.292c-22.262-19.635-60.867-41.948-66.56-43.038z" fill="#000000"></path>
</svg>
