<?xml version="1.0" encoding="utf-8"?>
<!-- Generated by IcoMoon.io -->
<!DOCTYPE svg PUBLIC "-//W3C//DTD SVG 1.1//EN" "http://www.w3.org/Graphics/SVG/1.1/DTD/svg11.dtd">
<svg version="1.1" xmlns="http://www.w3.org/2000/svg" xmlns:xlink="http://www.w3.org/1999/xlink" width="318" height="512" viewBox="0 0 318 512">
<g id="icomoon-ignore">
	<line stroke-width="1" x1="0" y1="656" x2="672" y2="656" stroke="#449FDB" opacity="0.3"></line>
</g>
	<path d="M152.734 504.986c-0.010 0-0.020 0-0.025 0-51.318 0-93.087-41.001-93.107-91.413l-0.005-15.36 30.72-0.010 0.005 15.36c0.010 33.469 28.001 60.697 62.392 60.697 0.010 0 0.010 0 0.016 0 18.626 0 39.952-11.653 53.079-28.995 5.581-7.373 14.285-22.077 9.876-37.673-10.998-38.917-42.767-89.421-73.488-138.265-34.202-54.385-69.57-110.618-80.788-157.148-5.181-21.489 1.070-45.532 17.157-65.956 19.046-24.187 47.99-39.209 75.525-39.209 0.005-0.005 0.016 0 0.030 0 24.796 0 48.128 9.462 65.695 26.65 17.664 17.28 27.392 40.279 27.392 64.768v15.36h-30.72v-15.36c0-16.154-6.446-31.36-18.15-42.813-11.792-11.535-27.5-17.89-44.216-17.89-0.005 0-0.010 0-0.016 0 0 0 0 0-0.005 0-18.069 0-38.242 10.793-51.4 27.499-10.225 12.979-14.387 27.469-11.422 39.746 10.035 41.636 44.048 95.703 76.928 147.994 33.346 53.022 64.839 103.096 77.041 146.274 5.95 21.048 0.64 43.976-14.946 64.563-18.929 25.017-49.377 41.175-77.568 41.18z" fill="#000000"></path>
</svg>
