<?xml version="1.0" encoding="utf-8"?>
<!-- Generated by IcoMoon.io -->
<!DOCTYPE svg PUBLIC "-//W3C//DTD SVG 1.1//EN" "http://www.w3.org/Graphics/SVG/1.1/DTD/svg11.dtd">
<svg version="1.1" xmlns="http://www.w3.org/2000/svg" xmlns:xlink="http://www.w3.org/1999/xlink" width="512" height="512" viewBox="0 0 512 512">
<g id="icomoon-ignore">
	<line stroke-width="1" x1="0" y1="656" x2="672" y2="656" stroke="#449FDB" opacity="0.3"></line>
</g>
	<path d="M256 61.379l-0.128 0.062h-0.010c-36.454 0-72.11 10.24-103.112 29.65-90.921 56.95-118.558 177.223-61.619 268.135 35.804 57.165 97.49 91.284 165.017 91.284 36.45 0 72.105-10.265 103.106-29.68 90.911-56.935 118.62-177.219 61.701-268.13-35.81-57.185-98.396-91.32-164.956-91.32zM332.083 377.431c-23.649 14.807-49.956 21.868-75.94 21.868-47.749 0-94.423-23.839-121.62-67.267-42.035-67.113-21.689-155.561 45.394-197.581 23.649-14.807 49.961-21.868 75.945-21.873 47.749 0 94.418 23.833 121.636 67.292 42 67.072 21.673 155.546-45.414 197.56z" fill="#000000"></path>
	<path d="M276.48 143.36h-51.2v121.262c0 11.372 7.368 21.376 18.284 24.571l76.221 22.318 14.469-49.142-57.774-16.932v-102.078z" fill="#000000"></path>
	<path d="M132.188 66.171l20.598-15.196-30.398-41.206-20.598 15.201c-27.827 20.531-51.87 45.358-75.658 78.147l-15.037 20.716 41.436 30.075 15.037-20.72c20.613-28.4 41.145-49.695 64.62-67.016z" fill="#000000"></path>
	<path d="M485.868 103.117c-23.788-32.788-47.831-57.615-75.663-78.147l-20.598-15.201-30.397 41.206 20.598 15.196c23.475 17.321 44.012 38.615 64.625 67.016l15.038 20.721 41.436-30.075-15.038-20.716z" fill="#000000"></path>
</svg>
