<?xml version="1.0" encoding="utf-8"?>
<!-- Generated by IcoMoon.io -->
<!DOCTYPE svg PUBLIC "-//W3C//DTD SVG 1.1//EN" "http://www.w3.org/Graphics/SVG/1.1/DTD/svg11.dtd">
<svg version="1.1" xmlns="http://www.w3.org/2000/svg" xmlns:xlink="http://www.w3.org/1999/xlink" width="512" height="512" viewBox="0 0 512 512">
<g id="icomoon-ignore">
	<line stroke-width="1" x1="0" y1="656" x2="672" y2="656" stroke="#449FDB" opacity="0.3"></line>
</g>
	<path d="M184.069 358.405l-94.72-0.005c-48.313 0-87.639-37.796-89.528-86.041-0.030-0.85-0.030-10.86-0.020-14.889v-1.475c0-0.911 0.036-15.37 0.067-16.266 1.915-48.343 41.236-86.134 89.534-86.134h120.32v51.2h-120.32c-20.7 0-37.55 16.19-38.37 36.849-0.016 1.275-0.031 13.548-0.031 14.351v1.562c-0.005 3.476-0.020 11.848 0 13.286 0.788 20.173 17.644 36.357 38.349 36.357l94.72 0.005v51.2z" fill="#000000"></path>
	<path d="M143.36 230.4h225.28v51.2h-225.28v-51.2z" fill="#000000"></path>
	<path d="M327.741 358.405l-0.005-51.2 94.725-0.005c20.7 0 37.55-16.185 38.359-36.849 0.010-1.168-0.010-9.36-0.015-12.784v-1.572c0-0.773-0.005-12.201-0.036-14.515-0.998-20.69-17.776-36.685-38.364-36.685h-120.325v-51.2h120.32c48.313 0 87.639 37.791 89.529 86.036 0.041 0.896 0.071 6.471 0.071 16.363v1.459c0.030 13.773 0.010 14.249-0.031 15.104-1.884 48.046-41.2 85.842-89.508 85.842l-94.72 0.005z" fill="#000000"></path>
</svg>
