<?xml version="1.0" encoding="utf-8"?>
<!-- Generated by IcoMoon.io -->
<!DOCTYPE svg PUBLIC "-//W3C//DTD SVG 1.1//EN" "http://www.w3.org/Graphics/SVG/1.1/DTD/svg11.dtd">
<svg version="1.1" xmlns="http://www.w3.org/2000/svg" xmlns:xlink="http://www.w3.org/1999/xlink" width="512" height="512" viewBox="0 0 512 512">
<g id="icomoon-ignore">
	<line stroke-width="1" x1="0" y1="656" x2="672" y2="656" stroke="#449FDB" opacity="0.3"></line>
</g>
	<path d="M399.36 0h-286.72c-28.273 0-51.2 22.927-51.2 51.2v409.6c0 28.272 22.927 51.2 51.2 51.2h286.72c28.272 0 51.2-22.928 51.2-51.2v-409.6c0-28.273-22.928-51.2-51.2-51.2zM399.36 460.8h-286.72v-409.6h286.72v409.6z" fill="#000000"></path>
	<path d="M358.4 112.64c0-14.141-11.459-25.6-25.6-25.6h-153.6c-14.142 0-25.6 11.459-25.6 25.6v194.56c0 14.142 11.459 25.6 25.6 25.6h153.6c14.142 0 25.6-11.459 25.6-25.6v-194.56zM204.8 138.24h102.4v143.36h-102.4v-143.36z" fill="#000000"></path>
	<path d="M255.483 366.080c-19.753 0-35.835 16.051-35.835 35.84s16.082 35.84 35.835 35.84c19.799 0 35.845-16.051 35.845-35.84s-16.031-35.84-35.845-35.84z" fill="#000000"></path>
</svg>
