<?xml version="1.0" encoding="utf-8"?>
<!-- Generated by IcoMoon.io -->
<!DOCTYPE svg PUBLIC "-//W3C//DTD SVG 1.1//EN" "http://www.w3.org/Graphics/SVG/1.1/DTD/svg11.dtd">
<svg version="1.1" xmlns="http://www.w3.org/2000/svg" xmlns:xlink="http://www.w3.org/1999/xlink" width="512" height="512" viewBox="0 0 512 512">
<g id="icomoon-ignore">
	<line stroke-width="1" x1="0" y1="656" x2="672" y2="656" stroke="#449FDB" opacity="0.3"></line>
</g>
	<path d="M486.4 158.72h-81.92v-88.064c0-8.484-4.316-14.336-12.8-14.336h-256c-8.484 0-17.92 5.852-17.92 14.336v88.064h-92.16c-8.484 0-15.36 8.412-15.36 16.896v204.8c0 8.484 6.876 13.824 15.36 13.824h87.040v91.136c0 4.075 2.898 8.499 5.785 11.382 2.882 2.873 8.064 5.002 12.134 5.002 0.010 0 0.016 0 0.025 0l254.72-0.911c8.474-0.010 14.055-7.399 14.055-15.872v-90.736h87.040c8.484 0 15.36-5.34 15.36-13.824v-204.8c0-8.484-6.876-16.896-15.36-16.896zM148.48 87.040h225.28v70.441l-225.28 0.2v-70.641zM368.64 469.642l-225.28 0.348v-142.31h225.28v141.962zM471.040 363.52h-71.68v-52.224c0-8.484-4.316-14.336-12.8-14.336h-256c-8.484 0-17.92 5.852-17.92 14.336v52.224h-71.68v-174.080h430.080v174.080z" fill="#000000"></path>
</svg>
