<?xml version="1.0" encoding="utf-8"?>
<!-- Generated by IcoMoon.io -->
<!DOCTYPE svg PUBLIC "-//W3C//DTD SVG 1.1//EN" "http://www.w3.org/Graphics/SVG/1.1/DTD/svg11.dtd">
<svg version="1.1" xmlns="http://www.w3.org/2000/svg" xmlns:xlink="http://www.w3.org/1999/xlink" width="512" height="512" viewBox="0 0 512 512">
<g id="icomoon-ignore">
	<line stroke-width="1" x1="0" y1="656" x2="672" y2="656" stroke="#449FDB" opacity="0.3"></line>
</g>
	<path d="M491.52 107.52h-128.144l-25.682-67.062c-2.274-5.944-7.982-9.738-14.351-9.738h-135.557c-6.405 0-12.144 3.845-14.387 9.846l-25.083 66.954h-127.836c-8.484 0-15.36 7.147-15.36 15.632v358.123c0 4.075 1.618 7.987 4.505 10.865 2.877 2.882 6.784 4.5 10.854 4.5 0.005 0 0.010 0 0.015 0l471.040-0.512c8.474-0.010 15.344-6.887 15.344-15.36v-357.616c0-8.484-6.876-15.632-15.36-15.632zM476.16 465.423l-440.32 0.476v-327.659h123.131c6.405 0 12.144-3.845 14.387-9.846l25.083-66.954h114.334l25.687 67.062c2.268 5.945 7.977 9.738 14.341 9.738h123.356v327.183z" fill="#000000"></path>
	<path d="M256 199.68c-56.464 0-102.4 45.936-102.4 102.4s45.936 102.4 102.4 102.4 102.4-45.937 102.4-102.4-45.937-102.4-102.4-102.4zM256 373.76c-39.516 0-71.68-32.144-71.68-71.68s32.164-71.68 71.68-71.68 71.68 32.144 71.68 71.68-32.164 71.68-71.68 71.68z" fill="#000000"></path>
</svg>
