<?xml version="1.0" encoding="utf-8"?>
<!-- Generated by IcoMoon.io -->
<!DOCTYPE svg PUBLIC "-//W3C//DTD SVG 1.1//EN" "http://www.w3.org/Graphics/SVG/1.1/DTD/svg11.dtd">
<svg version="1.1" xmlns="http://www.w3.org/2000/svg" xmlns:xlink="http://www.w3.org/1999/xlink" width="512" height="512" viewBox="0 0 512 512">
<g id="icomoon-ignore">
	<line stroke-width="1" x1="0" y1="656" x2="672" y2="656" stroke="#449FDB" opacity="0.3"></line>
</g>
	<path d="M395.264 5.12h-276.48c-8.484 0-16.384 6.876-16.384 15.36v46.080h30.72v-30.72h245.76v30.72h30.72v-46.080c0-8.484-5.852-15.36-14.336-15.36z" fill="#000000"></path>
	<path d="M102.4 66.56v80.793c0 13.63 9.549 33.485 76.57 77.44 18.109 11.879 36.265 22.595 49.485 30.264-13.307 7.705-31.539 18.668-50.125 30.858-67.021 43.966-75.93 63.821-75.93 77.45v126.874c0 8.484 6.876 16.64 15.36 16.64h276.48c8.484 0 15.36-8.156 15.36-16.64v-126.874c0-13.548-9.037-33.326-76.048-77.342-18.14-11.914-36.065-22.671-49.29-30.367 13.312-7.726 31.191-18.734 49.808-30.96 67.005-44.017 75.53-63.795 75.53-77.343v-80.793h-307.2zM378.88 476.16h-245.76v-30.72h245.76v30.72zM378.88 363.873v50.846h-245.76v-50.877c3.917-13.716 59.141-53.611 122.87-89.026 63.642 35.481 118.856 75.377 122.89 89.058zM378.88 146.846c-5.12 13.68-59.248 53.576-122.89 89.058-63.728-35.405-117.75-75.294-122.87-89.026v-49.597h245.76v49.566z" fill="#000000"></path>
</svg>
