<?xml version="1.0" encoding="utf-8"?>
<!-- Generated by IcoMoon.io -->
<!DOCTYPE svg PUBLIC "-//W3C//DTD SVG 1.1//EN" "http://www.w3.org/Graphics/SVG/1.1/DTD/svg11.dtd">
<svg version="1.1" xmlns="http://www.w3.org/2000/svg" xmlns:xlink="http://www.w3.org/1999/xlink" width="512" height="512" viewBox="0 0 512 512">
<g id="icomoon-ignore">
	<line stroke-width="1" x1="0" y1="656" x2="672" y2="656" stroke="#449FDB" opacity="0.3"></line>
</g>
	<path d="M194.56 419.84c0 33.879 27.561 61.44 61.44 61.44s61.44-27.561 61.44-61.44-27.561-61.44-61.44-61.44-61.44 27.561-61.44 61.44zM286.72 419.84c0 16.962-13.762 30.72-30.72 30.72s-30.72-13.757-30.72-30.72 13.762-30.72 30.72-30.72 30.72 13.757 30.72 30.72z" fill="#000000"></path>
	<path d="M194.56 256c0 33.879 27.561 61.44 61.44 61.44s61.44-27.561 61.44-61.44-27.561-61.44-61.44-61.44-61.44 27.561-61.44 61.44zM286.72 256c0 16.962-13.762 30.72-30.72 30.72s-30.72-13.757-30.72-30.72 13.762-30.72 30.72-30.72 30.72 13.757 30.72 30.72z" fill="#000000"></path>
	<path d="M194.56 92.16c0 33.879 27.561 61.44 61.44 61.44s61.44-27.561 61.44-61.44-27.561-61.44-61.44-61.44-61.44 27.561-61.44 61.44zM286.72 92.16c0 16.963-13.762 30.72-30.72 30.72s-30.72-13.757-30.72-30.72 13.762-30.72 30.72-30.72 30.72 13.757 30.72 30.72z" fill="#000000"></path>
</svg>
