<?xml version="1.0" encoding="utf-8"?>
<!-- Generated by IcoMoon.io -->
<!DOCTYPE svg PUBLIC "-//W3C//DTD SVG 1.1//EN" "http://www.w3.org/Graphics/SVG/1.1/DTD/svg11.dtd">
<svg version="1.1" xmlns="http://www.w3.org/2000/svg" xmlns:xlink="http://www.w3.org/1999/xlink" width="512" height="512" viewBox="0 0 512 512">
<g id="icomoon-ignore">
	<line stroke-width="1" x1="0" y1="656" x2="672" y2="656" stroke="#449FDB" opacity="0.3"></line>
</g>
	<path d="M421.13 30.704c-0.005-10.594-6.538-20.091-16.43-23.885-9.887-3.789-21.099-1.106-28.19 6.764l-130.739 145.137h-106.122c-49.167 0-87.081 35.661-88.96 83.042-0.031 0.896 0.512 13.814 0.512 14.73v1.515c0 4.464-0.584 16.313-0.553 17.168 1.91 48.712 41.498 88.346 88.955 88.346h108.35l129.311 135.44c4.925 5.161 11.653 7.921 18.519 7.921 3.205 0 6.436-0.599 9.523-1.838 9.707-3.897 16.077-13.312 16.072-23.777l-0.246-450.56zM101.822 273.669c-0.020-1.546 0.579-11.658 0.579-15.586v-1.598c0-0.798-0.558-11.591-0.543-12.805 0.773-19.564 16.333-33.762 37.79-33.762h117.514c7.255 0 14.167-3.077 19.021-8.464l93.778-104.105 0.174 320.010-92.713-97.121c-4.834-5.053-11.52-7.921-18.519-7.921h-119.301c-19.968 0-36.962-17.93-37.781-38.651z" fill="#000000"></path>
</svg>
