<?xml version="1.0" encoding="utf-8"?>
<!-- Generated by IcoMoon.io -->
<!DOCTYPE svg PUBLIC "-//W3C//DTD SVG 1.1//EN" "http://www.w3.org/Graphics/SVG/1.1/DTD/svg11.dtd">
<svg version="1.1" xmlns="http://www.w3.org/2000/svg" xmlns:xlink="http://www.w3.org/1999/xlink" width="512" height="512" viewBox="0 0 512 512">
<g id="icomoon-ignore">
	<line stroke-width="1" x1="0" y1="656" x2="672" y2="656" stroke="#449FDB" opacity="0.3"></line>
</g>
	<path d="M440.32 240.64h-368.64c-14.142 0-25.6 9.482-25.6 23.618v220.626c0 6.794 2.698 14.065 7.506 18.867 4.797 4.798 11.31 8.248 18.094 8.248 0.010 0 0.016 0 0.025 0h368.615c14.131-0.015 25.6-13.783 25.6-27.914v-219.827c0-14.137-11.459-23.619-25.6-23.619zM414.72 458.512l-317.44 0.752v-167.424h317.44v166.672z" fill="#000000"></path>
	<path d="M424.96 221.696h-51.2v-54.016c0-59.991-52.823-108.8-117.76-108.8s-117.76 48.809-117.76 108.8v54.016h-51.2v-54.016c0-88.222 75.796-160 168.96-160s168.96 71.778 168.96 160v54.016z" fill="#000000"></path>
</svg>
