<?xml version="1.0" encoding="utf-8"?>
<!-- Generated by IcoMoon.io -->
<!DOCTYPE svg PUBLIC "-//W3C//DTD SVG 1.1//EN" "http://www.w3.org/Graphics/SVG/1.1/DTD/svg11.dtd">
<svg version="1.1" xmlns="http://www.w3.org/2000/svg" xmlns:xlink="http://www.w3.org/1999/xlink" width="320" height="512" viewBox="0 0 320 512">
<g id="icomoon-ignore">
	<line stroke-width="1" x1="0" y1="656" x2="672" y2="656" stroke="#449FDB" opacity="0.3"></line>
</g>
	<path d="M239.882 344.673c28.421-25.037 40.75-59.161 32.133-89.661-14.94-52.839-58.603-72.986-93.691-89.17-35.6-16.425-57.774-27.96-64.778-57.011-2.171-9.001 0.42-20.066 8.53-30.356 10.921-13.87 26.404-22.672 41.764-22.672v0.517h1.649c13.768 0 25.881 4.7 35.564 14.183 9.543 9.329 13.988 21.181 13.988 34.309v23.189h51.2v-23.189c0-27.013-9.913-51.865-29.379-70.912-19.313-18.893-44.135-28.779-71.362-28.779-0.010 0-0.020 0-0.046 0-30.321 0-62.044 15.846-82.79 42.184-17.879 22.702-24.766 49.434-18.888 73.785 4.669 19.369 13.302 34.248 24.023 46.367-28.421 25.042-40.75 59.1-32.133 89.595 14.94 52.839 58.603 72.95 93.691 89.139 35.6 16.425 57.774 27.95 64.778 57.001 2.171 9.001-0.425 20.060-8.535 30.351-10.921 13.865-26.398 22.661-41.758 22.661v-0.522h-1.643c-13.773 0-25.887-4.705-35.569-14.183-9.543-9.329-13.988-21.182-13.988-34.309v-23.188h-51.2v23.188c0 27.013 9.912 51.87 29.379 70.912 19.318 18.887 44.134 28.779 71.367 28.779 0 0 0.010 0 0.046 0 30.321 0 62.039-15.846 82.786-42.178 17.879-22.707 24.765-49.438 18.887-73.789-4.67-19.374-13.302-34.115-24.023-46.238zM104.934 243.062c-3.174-11.249 3.984-26.654 17.823-38.344l6.784-5.73c9.242 4.992 18.55 9.293 27.331 13.343 35.554 16.404 57.754 27.914 65.869 56.606 3.174 11.248-3.983 26.654-17.817 38.339l-6.789 5.735c-9.242-4.997-18.55-9.293-27.331-13.342-35.554-16.404-57.754-27.914-65.869-56.606z" fill="#000000"></path>
</svg>
