<?xml version="1.0" encoding="utf-8"?>
<!-- Generated by IcoMoon.io -->
<!DOCTYPE svg PUBLIC "-//W3C//DTD SVG 1.1//EN" "http://www.w3.org/Graphics/SVG/1.1/DTD/svg11.dtd">
<svg version="1.1" xmlns="http://www.w3.org/2000/svg" xmlns:xlink="http://www.w3.org/1999/xlink" width="512" height="512" viewBox="0 0 512 512">
<g id="icomoon-ignore">
	<line stroke-width="1" x1="0" y1="656" x2="672" y2="656" stroke="#449FDB" opacity="0.3"></line>
</g>
	<path d="M424.96 0h-337.92v51.2h40.96v342.528c0 41.452 43.96 118.779 128 118.779 84.449 0 128-82.539 128-117.76v-343.547h40.96v-51.2zM332.8 394.731c-0.19 9.488-23.086 66.581-76.8 66.581-56.791 0-76.8-55.654-76.8-67.584v-342.528h153.6v343.531z" fill="#000000"></path>
	<path d="M256.005 415.81c17.659 0 30.715-16.691 30.715-37.33v-184.489l-61.44-33.731v218.22c0 20.639 13.066 37.33 30.725 37.33z" fill="#000000"></path>
</svg>
