<?xml version="1.0" encoding="utf-8"?>
<!-- Generated by IcoMoon.io -->
<!DOCTYPE svg PUBLIC "-//W3C//DTD SVG 1.1//EN" "http://www.w3.org/Graphics/SVG/1.1/DTD/svg11.dtd">
<svg version="1.1" xmlns="http://www.w3.org/2000/svg" xmlns:xlink="http://www.w3.org/1999/xlink" width="512" height="512" viewBox="0 0 512 512">
<g id="icomoon-ignore">
	<line stroke-width="1" x1="0" y1="656" x2="672" y2="656" stroke="#449FDB" opacity="0.3"></line>
</g>
	<path d="M504.499 468.296l-149.565-149.565c25.564-32.932 40.842-74.23 40.842-119.050 0-107.279-87.281-194.56-194.56-194.56s-194.56 87.281-194.56 194.56 87.281 194.56 194.56 194.56c44.042 0 84.69-14.725 117.335-39.49l149.75 149.755 36.199-36.209zM57.856 199.68c0-79.186 64.179-143.36 143.36-143.36 79.191 0 143.36 64.169 143.36 143.36 0 79.155-64.179 143.36-143.36 143.36s-143.36-64.205-143.36-143.36z" fill="#000000"></path>
</svg>
