<?xml version="1.0" encoding="utf-8"?>
<!-- Generated by IcoMoon.io -->
<!DOCTYPE svg PUBLIC "-//W3C//DTD SVG 1.1//EN" "http://www.w3.org/Graphics/SVG/1.1/DTD/svg11.dtd">
<svg version="1.1" xmlns="http://www.w3.org/2000/svg" xmlns:xlink="http://www.w3.org/1999/xlink" width="512" height="512" viewBox="0 0 512 512">
<g id="icomoon-ignore">
	<line stroke-width="1" x1="0" y1="656" x2="672" y2="656" stroke="#449FDB" opacity="0.3"></line>
</g>
	<path d="M256.64 2.56c-99.164 0-179.84 80.297-179.84 178.99 0 46.649 14.781 87.936 43.095 119.388 9.436 10.491 28.585 44.124 43.945 66.591v74.235c0 31.319 28.857 67.257 71.424 68.921 0.22 0.010 36.066-0.015 36.26-0.026 36.854-1.418 66.396-33.050 66.396-68.921v-73.314c15.36-19.61 39.849-56.546 49.705-67.497 30.392-33.772 47.355-76.165 47.355-119.378 0-98.693-79.882-178.99-178.34-178.99zM271.872 458.24c-2.442 0.021-38.912 0-38.912 0-10.895-0.599-17.92-10.005-17.92-16.476v-21.924h71.68v21.898c0 8.315-5.463 15.964-14.848 16.502zM350.014 266.68c-15.39 17.101-54.093 73.067-58.404 79.396-2.898 4.25-4.889 9.272-4.889 14.418v8.146h-71.68v-8.146c0-4.577-1.044-9.067-3.369-13.005-3.696-6.267-36.511-61.773-53.632-80.798-19.712-21.904-30.085-51.344-30.085-85.141 0-70.462 57.728-127.79 128.661-127.79 70.226 0 127.37 57.329 127.37 127.79 0.005 30.541-12.053 60.775-33.971 85.13z" fill="#000000"></path>
</svg>
