<?xml version="1.0" encoding="utf-8"?>
<!-- Generated by IcoMoon.io -->
<!DOCTYPE svg PUBLIC "-//W3C//DTD SVG 1.1//EN" "http://www.w3.org/Graphics/SVG/1.1/DTD/svg11.dtd">
<svg version="1.1" xmlns="http://www.w3.org/2000/svg" xmlns:xlink="http://www.w3.org/1999/xlink" width="512" height="512" viewBox="0 0 512 512">
<g id="icomoon-ignore">
	<line stroke-width="1" x1="0" y1="656" x2="672" y2="656" stroke="#449FDB" opacity="0.3"></line>
</g>
	<path d="M486.4 179.2h-460.8c-14.136 0-25.6 8.981-25.6 23.122v281.6c0 6.794 2.698 14.546 7.506 19.349 4.797 4.793 11.31 8.729 18.094 8.729 0.005 0 0.015 0 0.020 0h460.8c14.131-0.010 25.579-14.31 25.579-28.442v-281.241c0-14.137-11.464-23.117-25.6-23.117zM460.8 460.8h-409.6v-230.4h409.6v230.4z" fill="#000000"></path>
	<path d="M189.44 128.451c0-19.543 15.078-37.053 33.5-41.093 4.388-0.317 20.695-0.671 33.659-0.819 13.414 0.231 28.825 0.752 33.603 1.213 16.399 4.567 27.238 21.509 27.238 40.699v30.269h51.2v-30.269c0-43.489-26.721-80.773-66.791-90.66-2.565-0.635-6.702-1.818-44.754-2.453-0.24-0.016-0.164-0.010-0.409-0.010-35.697 0.42-40.75 1.182-42.88 1.597-42.44 8.31-75.566 47.657-75.566 91.525v30.269h51.2v-30.269z" fill="#000000"></path>
</svg>
