<?xml version="1.0" encoding="utf-8"?>
<!-- Generated by IcoMoon.io -->
<!DOCTYPE svg PUBLIC "-//W3C//DTD SVG 1.1//EN" "http://www.w3.org/Graphics/SVG/1.1/DTD/svg11.dtd">
<svg version="1.1" xmlns="http://www.w3.org/2000/svg" xmlns:xlink="http://www.w3.org/1999/xlink" width="512" height="512" viewBox="0 0 512 512">
<g id="icomoon-ignore">
	<line stroke-width="1" x1="0" y1="656" x2="672" y2="656" stroke="#449FDB" opacity="0.3"></line>
</g>
	<path d="M97.92 430.080h127.36v-51.2h-127.36c0 0 0.051 0 0.056 0h-0.056c0-66.56 41.569-112.752 107.546-112.752 53.151 0 90.389 30.832 102.876 76.912h52.147c-6.098-30.72-19.712-58.342-39.859-80.020-28.733-30.919-69.632-47.257-115.159-47.257s-86.43 17.382-115.18 48.286c-27.991 30.126-43.443 69.519-43.556 116.091 0.102 29.522 22.978 49.94 51.184 49.94z" fill="#000000"></path>
	<path d="M266.88 368.64v61.44h215.040v-61.44z" fill="#000000"></path>
	<path d="M204.155 50.519c25.462 0 46.085 21.791 46.085 48.64 0 26.87-20.624 48.64-46.085 48.64-25.452 0-46.075-21.77-46.075-48.64 0-26.849 20.624-48.64 46.075-48.64zM204.155 4.439c-50.816 0-92.155 42.491-92.155 94.72s41.339 94.72 92.155 94.72c50.821 0 92.165-42.491 92.165-94.72s-41.344-94.72-92.165-94.72v0z" fill="#000000"></path>
</svg>
