<?xml version="1.0" encoding="utf-8"?>
<!-- Generated by IcoMoon.io -->
<!DOCTYPE svg PUBLIC "-//W3C//DTD SVG 1.1//EN" "http://www.w3.org/Graphics/SVG/1.1/DTD/svg11.dtd">
<svg version="1.1" xmlns="http://www.w3.org/2000/svg" xmlns:xlink="http://www.w3.org/1999/xlink" width="512" height="512" viewBox="0 0 512 512">
<g id="icomoon-ignore">
	<line stroke-width="1" x1="0" y1="656" x2="672" y2="656" stroke="#449FDB" opacity="0.3"></line>
</g>
	<path d="M181.653 417.193c-18.544 18.544-48.143 19.139-67.2 1.531-0.763-0.738-5.391-5.381-8.264-8.264l-2.345-2.35c-0.579-0.579-9.431-9.457-10.398-10.466-17.782-19.241-17.188-48.839 1.352-67.379l66.98-66.974-21.719-21.724-66.985 66.98c-30.254 30.249-31.216 78.546-2.217 109.921 0.594 0.645 10.629 10.731 11.31 11.413l2.268 2.274c3.2 3.21 8.453 8.464 8.981 8.96 15.283 14.126 34.57 21.146 53.832 21.146 20.311 0 40.596-7.808 56.126-23.342l66.98-66.969-21.719-21.724-66.98 66.969z" fill="#000000"></path>
	<path d="M194.504 339.183l-21.722-21.722 144.814-144.814 21.722 21.722-144.814 144.814z" fill="#000000"></path>
	<path d="M430.873 83.18l-1.050-1.044c-3.128-3.129-10.512-10.501-11.331-11.243-31.401-29.035-79.698-28.068-109.947 2.192l-66.98 66.974 21.719 21.719 66.985-66.98c18.545-18.55 48.133-19.139 67.292-1.428 1.193 1.142 9.969 9.912 10.547 10.481l1.096 1.096c2.488 2.478 8.505 8.463 9.344 9.334 17.787 19.236 17.193 48.83-1.346 67.369l-66.98 66.99 21.724 21.719 66.975-66.985c30.254-30.254 31.212-78.551 2.274-109.85-0.409-0.445-0.732-0.799-10.322-10.343z" fill="#000000"></path>
</svg>
