<?xml version="1.0" encoding="utf-8"?>
<!-- Generated by IcoMoon.io -->
<!DOCTYPE svg PUBLIC "-//W3C//DTD SVG 1.1//EN" "http://www.w3.org/Graphics/SVG/1.1/DTD/svg11.dtd">
<svg version="1.1" xmlns="http://www.w3.org/2000/svg" xmlns:xlink="http://www.w3.org/1999/xlink" width="512" height="512" viewBox="0 0 512 512">
<g id="icomoon-ignore">
	<line stroke-width="1" x1="0" y1="656" x2="672" y2="656" stroke="#449FDB" opacity="0.3"></line>
</g>
	<path d="M501.954 150.84c-4.67-11.673-13.476-21.222-24.729-26.823-5.806-2.882-143.616-70.754-267.131-70.754-52.373 0-124.365 12.831-169.881 73.948-51.835 69.602-54.467 178.867-8.064 334.044 5.273 17.634 19.61 31.079 37.54 35.221 3.277 0.752 20.613 4.526 40.433 4.526 46.695 0 68.434-21.084 78.448-38.774 2.34-4.132 4.234-8.382 5.683-12.759 20.332-0.24 64.891-3.205 83.425-40.094 26.404-1.147 71.572-7.962 86.887-48.466 2.416-6.39 3.804-12.841 4.163-19.333 21.401-7.24 46.305-21.406 55.204-50.34 0.338-1.116 0.681-2.334 0.998-3.656 32.758-6.498 56.77-20.808 71.654-42.793 12.324-18.191 23.245-49.255 5.371-93.947zM379.884 240.405c-18.105 0-32.103-2.002-32.103-2.002 86.318 60.928-55.854 63.468-55.854 63.468 53.95 47.606 11.704 56.53-27.571 56.53-23.562 0-46.054-3.216-46.054-3.216 33.849 35.262 4.229 43.095-28.785 43.095-26.409 0-54.999-5.012-54.999-5.012 28.559 47.606 0.594 56.53-24.397 56.53-14.996 0-28.918-3.216-28.918-3.216-82.012-274.238 13.824-342.123 128.891-342.123 112.906 0 244.321 65.392 244.321 65.392 24.397 60.995-34.913 70.553-74.532 70.553z" fill="#000000"></path>
</svg>
