<?xml version="1.0" encoding="utf-8"?>
<!-- Generated by IcoMoon.io -->
<!DOCTYPE svg PUBLIC "-//W3C//DTD SVG 1.1//EN" "http://www.w3.org/Graphics/SVG/1.1/DTD/svg11.dtd">
<svg version="1.1" xmlns="http://www.w3.org/2000/svg" xmlns:xlink="http://www.w3.org/1999/xlink" width="512" height="512" viewBox="0 0 512 512">
<g id="icomoon-ignore">
	<line stroke-width="1" x1="0" y1="656" x2="672" y2="656" stroke="#449FDB" opacity="0.3"></line>
</g>
	<path d="M414.72 0h-317.44c-28.273 0-51.2 22.927-51.2 51.2v409.6c0 28.272 22.927 51.2 51.2 51.2h317.44c28.272 0 51.2-22.928 51.2-51.2v-409.6c0-28.273-22.928-51.2-51.2-51.2zM414.72 460.8h-317.44v-409.6h317.44v409.6z" fill="#000000"></path>
	<path d="M368.64 122.88c0-14.142-11.459-25.6-25.6-25.6h-174.080c-14.142 0-25.6 11.459-25.6 25.6v266.24c0 14.142 11.459 25.6 25.6 25.6h174.080c14.142 0 25.6-11.459 25.6-25.6v-266.24zM194.56 148.48h122.88v215.040h-122.88v-215.040z" fill="#000000"></path>
</svg>
