<?xml version="1.0" encoding="utf-8"?>
<!-- Generated by IcoMoon.io -->
<!DOCTYPE svg PUBLIC "-//W3C//DTD SVG 1.1//EN" "http://www.w3.org/Graphics/SVG/1.1/DTD/svg11.dtd">
<svg version="1.1" xmlns="http://www.w3.org/2000/svg" xmlns:xlink="http://www.w3.org/1999/xlink" width="512" height="512" viewBox="0 0 512 512">
<g id="icomoon-ignore">
	<line stroke-width="1" x1="0" y1="656" x2="672" y2="656" stroke="#449FDB" opacity="0.3"></line>
</g>
	<path d="M370.038 234.030l-153.6-128c-7.629-6.359-18.442-7.726-27.428-3.522-9.001 4.219-14.93 13.251-14.93 23.189v256c0 9.933 5.929 18.969 14.93 23.183 3.466 1.618 7.26 2.416 10.946 2.416 5.878 0 11.745-2.027 16.435-5.934l153.625-128c5.837-4.859 9.221-12.063 9.221-19.666s-3.364-14.807-9.2-19.666zM225.28 327.040v-146.688l88.013 73.344-88.013 73.344z" fill="#000000"></path>
</svg>
