<?xml version="1.0" encoding="utf-8"?>
<!-- Generated by IcoMoon.io -->
<!DOCTYPE svg PUBLIC "-//W3C//DTD SVG 1.1//EN" "http://www.w3.org/Graphics/SVG/1.1/DTD/svg11.dtd">
<svg version="1.1" xmlns="http://www.w3.org/2000/svg" xmlns:xlink="http://www.w3.org/1999/xlink" width="512" height="512" viewBox="0 0 512 512">
<g id="icomoon-ignore">
	<line stroke-width="1" x1="0" y1="656" x2="672" y2="656" stroke="#449FDB" opacity="0.3"></line>
</g>
	<path d="M472.156 69.745c-24.279-34.586-64.195-54.42-109.512-54.42-61.589 0-90.788 30.643-107.166 57.641-26.864-37.831-66.284-57.641-115.446-57.641-42.209 0-79.063 18.012-101.11 49.413-23.501 33.469-27.976 77.578-12.278 121.022 39.378 108.999 210.55 297.856 217.815 305.843 2.898 3.195 7.014 5.038 11.335 5.038 0.005 0 0.016 0 0.020 0 4.311 0 8.428-1.828 11.336-5.012 7.306-7.987 179.389-196.849 218.772-305.863 14.613-40.448 9.59-82.739-13.767-116.019zM457.031 175.319c-31.698 87.757-161.772 238.434-201.185 282.88-39.245-44.483-168.607-195.123-200.315-282.88-12.247-33.894-9.134-67.769 8.53-92.933 16.456-23.439 43.433-36.347 75.97-36.347 47.078 0 81.541 21.944 102.421 65.213 2.565 5.309 7.941 8.683 13.834 8.683s11.269-3.374 13.834-8.683l1.029-2.14c12.79-26.619 30.305-63.074 91.495-63.074 35.169 0 65.92 15.074 84.368 41.349 17.531 24.98 21.181 57.026 10.020 87.931z" fill="#000000"></path>
</svg>
