<?xml version="1.0" encoding="utf-8"?>
<!-- Generated by IcoMoon.io -->
<!DOCTYPE svg PUBLIC "-//W3C//DTD SVG 1.1//EN" "http://www.w3.org/Graphics/SVG/1.1/DTD/svg11.dtd">
<svg version="1.1" xmlns="http://www.w3.org/2000/svg" xmlns:xlink="http://www.w3.org/1999/xlink" width="512" height="512" viewBox="0 0 512 512">
<g id="icomoon-ignore">
	<line stroke-width="1" x1="0" y1="656" x2="672" y2="656" stroke="#449FDB" opacity="0.3"></line>
</g>
	<path d="M403.589 163.641c-32.031-51.169-86.149-81.721-147.589-81.721v0h-0.066c-32.609 0.005-64.537 9.191-92.278 26.563-39.409 24.674-66.873 63.222-77.281 108.528-10.414 45.312-2.555 91.97 22.124 131.379 32.030 51.149 87.225 81.69 147.645 81.69 32.604 0 64.496-9.185 92.237-26.563 39.404-24.668 66.877-63.216 77.291-108.534 10.409-45.307 2.591-91.955-22.082-131.344zM332.073 377.488c-23.644 14.807-49.95 21.873-75.935 21.873-47.744 0-94.407-23.834-121.61-67.277-42.041-67.103-21.709-155.546 45.399-197.565 23.654-14.807 49.961-21.878 75.95-21.878 47.739 0 94.408 23.834 121.62 67.308 41.994 67.052 21.688 155.52-45.425 197.54z" fill="#000000"></path>
	<path d="M271.36 158.72h-30.72v111.078c0 6.82 4.373 12.825 10.916 14.74l66.401 19.446 8.724-29.486-55.322-16.21v-99.569z" fill="#000000"></path>
</svg>
