<?xml version="1.0" encoding="utf-8"?>
<!-- Generated by IcoMoon.io -->
<!DOCTYPE svg PUBLIC "-//W3C//DTD SVG 1.1//EN" "http://www.w3.org/Graphics/SVG/1.1/DTD/svg11.dtd">
<svg version="1.1" xmlns="http://www.w3.org/2000/svg" xmlns:xlink="http://www.w3.org/1999/xlink" width="512" height="512" viewBox="0 0 512 512">
<g id="icomoon-ignore">
	<line stroke-width="1" x1="0" y1="656" x2="672" y2="656" stroke="#449FDB" opacity="0.3"></line>
</g>
	<path d="M476.16 5.12h-440.32c-16.962 0-30.72 15.211-30.72 32.174v335.012c0 16.962 13.758 32.174 30.72 32.174h149.356l-45.020 80.313c-2.647 4.762-2.576 10.194 0.185 14.884s7.803 7.204 13.24 7.204h204.8c5.438 0 10.481-2.877 13.24-7.572s2.832-9.759 0.185-14.521l-45.020-80.307h149.356c16.962 0 30.72-15.212 30.72-32.174v-335.012c0-16.962-13.757-32.174-30.72-32.174zM179.707 476.16l34.135-61.44h84.322l34.135 61.44h-152.591zM476.16 373.76h-440.32v-337.92h440.32v337.92z" fill="#000000"></path>
	<path d="M102.41 337.92h307.19c8.151 0 15.959-3.231 21.724-8.996 5.76-5.76 8.996-13.573 8.996-21.714l-0.010-204.815c0-16.963-13.757-30.715-30.72-30.715h-307.19c-8.151 0-15.959 3.231-21.724 8.996-5.76 5.76-8.996 13.573-8.996 21.714l0.010 204.815c0 16.962 13.752 30.715 30.72 30.715zM409.59 102.4l0.010 204.8h-307.19l-0.010-204.8h307.19z" fill="#000000"></path>
</svg>
