<?xml version="1.0" encoding="utf-8"?>
<!-- Generated by IcoMoon.io -->
<!DOCTYPE svg PUBLIC "-//W3C//DTD SVG 1.1//EN" "http://www.w3.org/Graphics/SVG/1.1/DTD/svg11.dtd">
<svg version="1.1" xmlns="http://www.w3.org/2000/svg" xmlns:xlink="http://www.w3.org/1999/xlink" width="128" height="128" viewBox="0 0 128 128">
<g id="icomoon-ignore">
	<line stroke-width="1" x1="" y1="" x2="" y2="" stroke="#449FDB" opacity=""></line>
</g>
	<path d="M23.104 103.936c0.611 1.399 1.993 2.304 3.52 2.304h74.496c2.121 0 3.84-1.719 3.84-3.84v-48.64c0-1.606-1.001-3.044-2.507-3.601-1.507-0.559-3.201-0.118-4.248 1.102l-20.753 24.211-15.956-11.397c-1.572-1.123-3.734-0.901-5.047 0.513l-32.64 35.2c-1.038 1.12-1.314 2.748-0.704 4.147zM75.848 83.764c1.618 1.157 3.854 0.885 5.147-0.626l16.285-18.998v34.419h-61.858l24.361-26.271 16.065 11.475z" fill="#000000"></path>
	<path d="M34.943 31.744c-8.468 0-15.359 6.89-15.359 15.36s6.89 15.36 15.359 15.36c8.47 0 15.361-6.89 15.361-15.36s-6.892-15.36-15.361-15.36zM34.943 54.784c-4.233 0-7.679-3.439-7.679-7.68s3.446-7.68 7.679-7.68c4.245 0 7.681 3.439 7.681 7.68s-3.439 7.68-7.681 7.68z" fill="#000000"></path>
	<path d="M117.76 15.36h-107.52c-4.241 0-7.68 3.439-7.68 7.68v94.72c0 4.241 3.439 7.68 7.68 7.68h107.52c4.241 0 7.68-3.439 7.68-7.68v-94.72c0-4.241-3.439-7.68-7.68-7.68zM117.76 117.76h-107.52v-94.72h107.52v94.72z" fill="#000000"></path>
</svg>
