<?xml version="1.0" encoding="utf-8"?>
<!-- Generated by IcoMoon.io -->
<!DOCTYPE svg PUBLIC "-//W3C//DTD SVG 1.1//EN" "http://www.w3.org/Graphics/SVG/1.1/DTD/svg11.dtd">
<svg version="1.1" xmlns="http://www.w3.org/2000/svg" xmlns:xlink="http://www.w3.org/1999/xlink" width="128" height="128" viewBox="0 0 128 128">
<g id="icomoon-ignore">
	<line stroke-width="1" x1="" y1="" x2="" y2="" stroke="#449FDB" opacity=""></line>
</g>
	<path d="M100.031 51.438c-2.231-1.062-4.872-0.746-6.787 0.812l-19.764 16.058-10.203-3.529c-2.515-0.872-5.3-0.096-7.004 1.946l-23.168 27.734c-1.592 1.907-1.938 4.563-0.886 6.815s3.313 3.688 5.797 3.688h59.264c3.534 0 6.4-2.866 6.4-6.4v-41.344c0-2.469-1.419-4.717-3.649-5.778zM90.88 92.16h-39.178l11.563-13.842 9.395 3.25c2.091 0.722 4.41 0.315 6.129-1.082l12.091-9.824v21.498z" fill="#000000"></path>
	<path d="M38.399 62.848c7.072 0 12.801-5.733 12.801-12.8s-5.727-12.8-12.801-12.8c-7.057 0-12.799 5.733-12.799 12.8s5.742 12.8 12.799 12.8z" fill="#000000"></path>
	<path d="M115.2 12.8h-102.4c-7.069 0-12.8 5.73-12.8 12.8v89.6c0 7.070 5.731 12.8 12.8 12.8h102.4c7.070 0 12.8-5.731 12.8-12.8v-89.6c0-7.069-5.731-12.8-12.8-12.8zM115.2 115.2h-102.4v-89.6h102.4v89.6z" fill="#000000"></path>
</svg>
