<?xml version="1.0" encoding="utf-8"?>
<!-- Generated by IcoMoon.io -->
<!DOCTYPE svg PUBLIC "-//W3C//DTD SVG 1.1//EN" "http://www.w3.org/Graphics/SVG/1.1/DTD/svg11.dtd">
<svg version="1.1" xmlns="http://www.w3.org/2000/svg" xmlns:xlink="http://www.w3.org/1999/xlink" width="128" height="128" viewBox="0 0 128 128">
<g id="icomoon-ignore">
	<line stroke-width="1" x1="" y1="" x2="" y2="" stroke="#449FDB" opacity=""></line>
</g>
	<path d="M121.6 39.68h-20.48v-22.016c0-2.121-1.079-3.584-3.2-3.584h-64c-2.121 0-4.48 1.463-4.48 3.584v22.016h-23.040c-2.121 0-3.84 2.103-3.84 4.224v51.2c0 2.121 1.719 3.456 3.84 3.456h21.76v22.784c0 1.019 0.724 2.125 1.446 2.846 0.721 0.718 2.016 1.251 3.034 1.251 0.002 0 0.004 0 0.006 0l63.68-0.228c2.118-0.002 3.514-1.85 3.514-3.968v-22.684h21.76c2.121 0 3.84-1.335 3.84-3.456v-51.2c0-2.121-1.719-4.224-3.84-4.224zM37.12 21.76h56.32v17.61l-56.32 0.050v-17.66zM92.16 117.41l-56.32 0.087v-35.578h56.32v35.49zM117.76 90.88h-17.92v-13.056c0-2.121-1.079-3.584-3.2-3.584h-64c-2.121 0-4.48 1.463-4.48 3.584v13.056h-17.92v-43.52h107.52v43.52z" fill="#000000"></path>
</svg>
