<?xml version="1.0" encoding="utf-8"?>
<!-- Generated by IcoMoon.io -->
<!DOCTYPE svg PUBLIC "-//W3C//DTD SVG 1.1//EN" "http://www.w3.org/Graphics/SVG/1.1/DTD/svg11.dtd">
<svg version="1.1" xmlns="http://www.w3.org/2000/svg" xmlns:xlink="http://www.w3.org/1999/xlink" width="128" height="128" viewBox="0 0 128 128">
<g id="icomoon-ignore">
	<line stroke-width="1" x1="" y1="" x2="" y2="" stroke="#449FDB" opacity=""></line>
</g>
	<path d="M120.96 38.4h-18.56v-20.736c0-3.534-2.225-6.144-5.76-6.144h-62.72c-3.535 0-7.040 2.61-7.040 6.144v20.736h-19.84c-3.535 0-7.040 2.482-7.040 6.016v57.6c0 3.534 3.505 6.784 7.040 6.784h18.56v12.544c0 1.7 0.996 3.457 2.198 4.657 1.201 1.199 3.148 1.999 4.842 1.999 0.004 0 0.006 0 0.010 0l62.4-0.228c3.531-0.005 6.070-2.998 6.070-6.528v-12.444h19.84c3.535 0 5.76-3.25 5.76-6.784v-57.6c0-3.534-2.225-6.016-5.76-6.016zM39.68 24.32h49.92v12.493l-49.92 0.045v-12.538zM88.32 114.854l-49.92 0.079v-30.454h49.92v30.374zM113.92 96h-12.8v-18.176c0-3.534-2.225-6.144-5.76-6.144h-62.72c-3.535 0-7.040 2.61-7.040 6.144v18.176h-12.8v-44.8h101.12v44.8z" fill="#000000"></path>
</svg>
