<?xml version="1.0" encoding="utf-8"?>
<!-- Generated by IcoMoon.io -->
<!DOCTYPE svg PUBLIC "-//W3C//DTD SVG 1.1//EN" "http://www.w3.org/Graphics/SVG/1.1/DTD/svg11.dtd">
<svg version="1.1" xmlns="http://www.w3.org/2000/svg" xmlns:xlink="http://www.w3.org/1999/xlink" width="128" height="128" viewBox="0 0 128 128">
<g id="icomoon-ignore">
	<line stroke-width="1" x1="" y1="" x2="" y2="" stroke="#449FDB" opacity=""></line>
</g>
	<path d="M122.367 27.978l-23.081-23.080c-2.498-2.498-5.775-3.749-9.051-3.749-3.256 0-6.513 1.234-9.007 3.707l-71.59 70.915c-2.005 1.985-3.297 4.577-3.676 7.373l-3.96 29.185c-0.559 4.117 0.915 8.248 3.954 11.082 2.392 2.232 5.521 3.439 8.73 3.439 0.865 0 29.802-5.911 29.802-5.911 2.442-0.507 4.684-1.715 6.447-3.479l71.428-71.377c2.403-2.4 3.753-5.656 3.753-9.052 0-3.395-1.347-6.652-3.748-9.053zM41.888 108.406l-13.952 2.895-11.418-10.753 2.127-15.683 71.59-70.915 23.078 23.080-71.427 71.375z" fill="#000000"></path>
	<path d="M99.025 37.227l-56.896 55.395-8.036-8.254 56.896-55.395 8.036 8.254z" fill="#000000"></path>
</svg>
