<?xml version="1.0" encoding="utf-8"?>
<!-- Generated by IcoMoon.io -->
<!DOCTYPE svg PUBLIC "-//W3C//DTD SVG 1.1//EN" "http://www.w3.org/Graphics/SVG/1.1/DTD/svg11.dtd">
<svg version="1.1" xmlns="http://www.w3.org/2000/svg" xmlns:xlink="http://www.w3.org/1999/xlink" width="128" height="128" viewBox="0 0 128 128">
<g id="icomoon-ignore">
	<line stroke-width="1" x1="" y1="" x2="" y2="" stroke="#449FDB" opacity=""></line>
</g>
	<path d="M121.458 54.995l-8.41-23.032c-0.554-1.515-1.996-2.523-3.608-2.523h-19.84v7.68h17.153l6.046 16.553c-6.849-0.032-16.392-0.005-23.972 0.020-3.79 0.011-7.084 0.022-9.291 0.022-0.241 0-0.484 0.019-0.728 0.046h-29.614c-0.245-0.027-0.489-0.046-0.728-0.046-2.208 0-5.502-0.010-9.291-0.022-7.675-0.024-17.366-0.051-24.233-0.018l7.391-16.556h16.069v-7.68h-18.56c-1.515 0-2.889 0.891-3.506 2.274l-10.815 24.225c-1.298 1.478-2.198 3.715-2.185 7.050 0.041 10.14 9.252 29.17 26.719 29.17 0.008 0 0.132 0 0.138 0 7.508 0 14.335-3.798 19.222-10.783 3.784-5.408 6.134-12.317 6.134-18.071 0-0.675-0.045-1.271-0.11-1.866h17.125c-0.065 0.595-0.11 1.165-0.11 1.841 0.001 10.382 8.474 28.879 25.356 28.879 0.008 0 0.132 0 0.138 0 17.467 0 26.679-19.030 26.72-29.17 0.017-4.155-1.382-6.637-3.208-7.995zM30.366 84.48c-8.628 0-13.79-6.793-16.020-10.835-3.155-5.72-3.529-10.62-3.123-12.287 6.583-0.077 34.301 0.027 36.476 0.028 0.507 1.832 0.408 7.228-2.743 13.050-2.040 3.771-6.555 10.044-14.235 10.044h-0.355zM97.28 84.48c-7.68 0-12.187-6.269-14.226-10.040-3.127-5.778-3.236-11.128-2.746-13 0 0 29.952-0.077 36.536 0 0.404 1.666 0.096 6.485-3.059 12.205-2.23 4.042-7.521 10.835-16.151 10.835h-0.355z" fill="#000000"></path>
</svg>
