<?xml version="1.0" encoding="utf-8"?>
<!-- Generated by IcoMoon.io -->
<!DOCTYPE svg PUBLIC "-//W3C//DTD SVG 1.1//EN" "http://www.w3.org/Graphics/SVG/1.1/DTD/svg11.dtd">
<svg version="1.1" xmlns="http://www.w3.org/2000/svg" xmlns:xlink="http://www.w3.org/1999/xlink" width="128" height="128" viewBox="0 0 128 128">
<g id="icomoon-ignore">
	<line stroke-width="1" x1="" y1="" x2="" y2="" stroke="#449FDB" opacity=""></line>
</g>
	<path d="M123.615 53.438l-8.164-22.353c-0.92-2.526-3.323-4.205-6.011-4.205h-22.4v12.8h17.924l4.171 11.422c-1.124-0.001-2.319-0.002-3.605-0.002-5.503 0-11.562 0.018-16.71 0.033-3.786 0.011-7.077 0.022-9.284 0.022-0.303 0-0.609 0.017-0.911 0.046h-29.251c-0.302-0.029-0.608-0.046-0.911-0.046-2.207 0-5.498-0.010-9.284-0.022-5.147-0.017-11.208-0.033-16.71-0.033-1.276 0-2.463 0.001-3.578 0.002l5.099-11.422h16.969v-12.8h-21.12c-2.526 0-4.815 1.485-5.843 3.791l-10.671 23.903c-1.553 1.943-2.565 4.684-2.551 8.426 0.045 11.337 9.862 31.72 29.263 31.72 0.014 0 0.142 0 0.155 0 18.227 0 27.546-19.311 27.898-30.72h11.82c0.352 11.409 9.67 30.72 27.898 30.72 0.013 0 0.141 0 0.155 0 19.401 0 29.218-20.383 29.265-31.72 0.017-4.54-1.469-7.647-3.612-9.563zM42.417 73.736c-0.375 0.676-0.779 1.299-1.252 1.956-2.978 4.169-6.605 6.228-10.445 6.228h-0.339c-0.916 0-1.787-0.063-2.618-0.241-4.367-0.928-7.547-3.942-9.467-6.561-3.080-4.201-4.36-8.621-4.614-11.209 2.569-0.018 5.645-0.019 8.916-0.019 1.093 0 2.209 0.004 3.333 0.006 4.495 0.005 9.153 0.022 13.242 0.033 2.273 0.006 4.353 0.013 6.145 0.018-0.146 2.33-0.86 6.111-2.902 9.788zM109.832 75.144c-2.107 2.875-5.839 6.209-10.907 6.747-0.429 0.045-0.863 0.029-1.308 0.029h-0.337c-3.84 0-7.457-2.059-10.436-6.227-0.169-0.236-0.308-0.452-0.466-0.69-2.662-4.060-3.65-8.462-3.813-11.066 1.792-0.005 3.954-0.005 6.227-0.011 4.981-0.015 10.83-0.028 16.191-0.031 3.204 0 6.234 0.008 8.799 0.023l0.073 0.177 0.070 0.173 0.002 0.005 0.36-0.13 0.061-0.022c-0.294 2.61-1.51 6.921-4.517 11.023z" fill="#000000"></path>
</svg>
