<?xml version="1.0" encoding="utf-8"?>
<!-- Generated by IcoMoon.io -->
<!DOCTYPE svg PUBLIC "-//W3C//DTD SVG 1.1//EN" "http://www.w3.org/Graphics/SVG/1.1/DTD/svg11.dtd">
<svg version="1.1" xmlns="http://www.w3.org/2000/svg" xmlns:xlink="http://www.w3.org/1999/xlink" width="128" height="128" viewBox="0 0 128 128">
<g id="icomoon-ignore">
	<line stroke-width="1" x1="" y1="" x2="" y2="" stroke="#449FDB" opacity=""></line>
</g>
	<path d="M49.92 128h-10.178c-9.756 0-23.927-7.542-23.927-19.358 0-14.687-2.395-30.395-5.033-33.080l-5.481-3.829c-1.714-1.198-2.734-3.156-2.734-5.247v-5.238c0-2.090 1.020-4.049 2.734-5.247l5.484-3.831c2.637-2.651 5.029-18.237 5.029-32.815 0.001-11.814 14.172-19.356 23.928-19.356h10.178v12.8h-10.178c-5.052 0-11.127 4.027-11.127 6.558 0 4.879-0.356 13.238-1.361 20.73-1.64 12.229-4.388 19.142-8.911 22.419l-1.95 1.362 1.861 1.3c4.612 3.337 7.361 10.295 9.001 22.62 1.003 7.548 1.359 15.951 1.359 20.854 0 2.531 6.076 6.558 11.127 6.558h10.178v12.8z" fill="#000000"></path>
	<path d="M88.137 128h-10.057v-12.8h10.057c5.052 0 11.127-4.027 11.127-6.558 0-4.901 0.356-13.304 1.361-20.854 1.64-12.325 4.389-19.282 8.914-22.558l1.947-1.362-1.861-1.3c-4.611-3.338-7.359-10.253-9-22.481-1.005-7.493-1.362-15.85-1.362-20.73 0-2.53-6.076-6.558-11.127-6.558h-10.056v-12.801h10.057c9.756 0 23.927 7.542 23.927 19.358 0 14.577 2.394 30.162 5.030 32.815l5.484 3.831c1.713 1.198 2.734 3.157 2.734 5.247v5.238c0 2.090-1.020 4.049-2.734 5.247l-5.48 3.829c-2.639 2.686-5.034 18.394-5.034 33.080 0 11.814-14.171 19.356-23.927 19.356z" fill="#000000"></path>
</svg>
