<?xml version="1.0" encoding="utf-8"?>
<!-- Generated by IcoMoon.io -->
<!DOCTYPE svg PUBLIC "-//W3C//DTD SVG 1.1//EN" "http://www.w3.org/Graphics/SVG/1.1/DTD/svg11.dtd">
<svg version="1.1" xmlns="http://www.w3.org/2000/svg" xmlns:xlink="http://www.w3.org/1999/xlink" width="128" height="128" viewBox="0 0 128 128">
<g id="icomoon-ignore">
	<line stroke-width="1" x1="" y1="" x2="" y2="" stroke="#449FDB" opacity=""></line>
</g>
	<path d="M86.837 110.204c5.5-1 11.424-1.508 17.622-1.508 5.839 0.001 9.761 0.472 9.8 0.478 0.311 0.037 0.622 0.056 0.933 0.056 1.865 0 3.683-0.678 5.093-1.929 1.649-1.458 2.596-3.551 2.596-5.75v-74.319c0-3.683-2.614-6.848-6.23-7.543-0.342-0.065-8.467-1.602-19.351-1.602-4.806 0-9.467 0.301-13.85 0.895-1.5 0.202-3.991 0.933-10.725 2.967-2.793 0.843-6.76 2.044-8.731 2.565-1.947-0.523-5.857-1.739-8.608-2.595-6.543-2.037-9.169-2.828-10.778-3.058-4.36-0.623-8.978-0.941-13.723-0.941-11.091 0-19.337 1.728-19.683 1.8-3.547 0.755-6.082 3.886-6.082 7.512v74.264c0 2.2 0.943 4.293 2.591 5.751 1.412 1.251 3.226 1.929 5.089 1.929 0.311 0 0.622-0.019 0.934-0.058 0.028-0.002 3.928-0.463 9.741-0.463 6.223 0 12.172 0.504 17.695 1.496 1.635 0.955 5.576 2.26 8.28 4.092 4.577 3.103 7.375 4.796 9.387 6.076h-58.838v7.68h128v-7.68h-58.84c2.015-1.28 4.813-2.975 9.393-6.079 2.706-1.834 6.651-3.085 8.284-4.037zM84.48 26.592c4.478-0.607 8.846-0.826 12.818-0.826 10.28 0 17.902 1.466 17.902 1.466v74.319c0 0-4.274-0.534-10.743-0.535-5.499 0-12.582 0.386-19.977 1.815-1.423 0.275-11.075 5.797-16.64 10.705v-80.817c5.514-2.879 15.012-5.907 16.64-6.127zM43.52 102.776c-7.423-1.418-14.534-1.801-20.044-1.801-6.431 0-10.677 0.521-10.677 0.521v-74.264c0 0 7.675-1.632 18.085-1.632 3.913 0 8.21 0.23 12.635 0.865 1.827 0.261 11.173 3.349 16.64 6.248v80.823c-5.566-4.909-15.217-10.487-16.64-10.76z" fill="#000000"></path>
</svg>
