<?xml version="1.0" encoding="utf-8"?>
<!-- Generated by IcoMoon.io -->
<!DOCTYPE svg PUBLIC "-//W3C//DTD SVG 1.1//EN" "http://www.w3.org/Graphics/SVG/1.1/DTD/svg11.dtd">
<svg version="1.1" xmlns="http://www.w3.org/2000/svg" xmlns:xlink="http://www.w3.org/1999/xlink" width="128" height="128" viewBox="0 0 128 128">
<g id="icomoon-ignore">
	<line stroke-width="1" x1="" y1="" x2="" y2="" stroke="#449FDB" opacity=""></line>
</g>
	<path d="M88.674 107.192c4.938-0.837 10.239-1.262 15.782-1.262 5.475 0.001 9.147 0.435 9.183 0.44 0.511 0.061 1.024 0.091 1.534 0.091 3.115 0 6.15-1.134 8.504-3.222 2.74-2.428 4.323-5.914 4.323-9.574v-64c0-6.138-4.356-11.411-10.383-12.57-0.36-0.069-8.951-1.695-20.317-1.695-5.035 0-9.926 0.316-14.536 0.941-1.839 0.248-3.958 0.855-11.519 3.14-2.209 0.667-5.199 1.572-7.236 2.15-2.045-0.595-5.056-1.531-7.102-2.167-6.968-2.168-9.585-2.953-11.574-3.237-4.598-0.659-9.46-0.993-14.447-0.993-11.624 0-20.381 1.835-20.747 1.912-5.912 1.256-10.139 6.476-10.139 12.518v64c0 3.666 1.573 7.156 4.317 9.586 2.354 2.082 5.375 3.214 8.482 3.214 0.517 0 1.039-0.031 1.559-0.095 0.009-0.001 3.662-0.426 9.118-0.426 5.572 0 10.897 0.421 15.859 1.253 1.775 1.114 4.978 3.284 7.243 4.82 2.707 1.837 4.864 3.296 6.67 4.462h-53.249v12.8h128v-12.8h-53.249c1.806-1.167 3.964-2.628 6.674-4.463 2.271-1.538 5.478-3.713 7.25-4.824zM57.6 104.015c-5.562-3.722-12.858-8.836-14.080-9.070-0.87-0.166-1.734-0.315-2.593-0.454-0.084-0.014-0.172-0.028-0.256-0.042-0.815-0.129-1.622-0.245-2.423-0.351-0.123-0.017-0.245-0.033-0.367-0.049-0.774-0.1-1.542-0.189-2.3-0.271-0.139-0.015-0.28-0.029-0.419-0.043-0.745-0.077-1.481-0.145-2.208-0.204-0.137-0.011-0.274-0.023-0.411-0.032-0.724-0.058-1.44-0.108-2.142-0.148-0.119-0.006-0.235-0.013-0.352-0.019-0.715-0.040-1.419-0.076-2.106-0.1-0.074-0.004-0.143-0.005-0.218-0.008-0.662-0.024-1.308-0.041-1.939-0.054-0.079-0.001-0.163-0.004-0.242-0.005-0.635-0.011-1.249 0.133-1.847 0.133l-1.541 0.002c-0.083 0.002-0.164-0.070-0.246-0.069-1.303 0.018-2.496 0.017-3.558 0.064-0.027 0.001-0.056-0.015-0.082-0.014-0.219 0.010-0.426 0.010-0.634 0.020-0.077 0.004-0.156 0.004-0.232 0.009-0.183 0.009-0.355 0.017-0.527 0.027-0.088 0.005-0.179 0.010-0.265 0.015-0.165 0.010-0.323 0.019-0.479 0.028-0.079 0.005-0.159 0.010-0.236 0.015-0.15 0.011-0.293 0.022-0.434 0.031-0.075 0.005-0.15 0.011-0.222 0.017-0.133 0.010-0.261 0.020-0.385 0.029-0.068 0.005-0.133 0.010-0.197 0.015-0.111 0.010-0.219 0.019-0.321 0.027-0.070 0.006-0.138 0.013-0.204 0.018-0.091 0.009-0.178 0.017-0.26 0.024-0.051 0.005-0.098 0.010-0.146 0.014-0.087 0.009-0.171 0.017-0.246 0.024-0.037 0.004-0.070 0.008-0.104 0.011-0.064 0.006-0.128 0.013-0.182 0.019-0.038 0.004-0.072 0.008-0.105 0.011-0.113 0.011-0.201 0.022-0.246 0.027-0.031-0.002-0.049 0-0.049 0v-64c0 0 0.033-0.008 0.066-0.014 0.015-0.003 0.023-0.005 0.043-0.009 0.049-0.010 0.118-0.024 0.198-0.040 0.019-0.004 0.030-0.005 0.051-0.010 0.1-0.019 0.229-0.042 0.37-0.069 0.034-0.006 0.069-0.014 0.106-0.020 0.133-0.026 0.287-0.051 0.45-0.079 0.036-0.006 0.066-0.013 0.104-0.019 0.2-0.035 0.422-0.073 0.664-0.111 0.040-0.006 0.082-0.014 0.124-0.020 0.213-0.033 0.443-0.070 0.682-0.108 0.060-0.009 0.117-0.018 0.178-0.027 0.285-0.042 0.587-0.087 0.909-0.133 0.054-0.008 0.11-0.015 0.165-0.023 0.278-0.037 0.568-0.077 0.872-0.115 0.086-0.012 0.172-0.023 0.26-0.033 0.362-0.046 0.74-0.091 1.135-0.136 0.041-0.005 0.084-0.009 0.128-0.014 0.358-0.041 0.731-0.079 1.115-0.119 0.104-0.012 0.207-0.147 0.312-0.157 0.122-0.013 0.242-0.037 0.365-0.068l0.982-0.179c0.453 0 0.927 0.050 1.405 0.015 0.127-0.008 0.253 0.046 0.383 0.037 0.426-0.028 0.861-0.026 1.306-0.050 0.077-0.004 0.15 0.006 0.227 0.003 0.507-0.027 1.026-0.042 1.554-0.063 0.134-0.005 0.271-0.006 0.407-0.010 0.444-0.017 0.895-0.027 1.353-0.037 0.118-0.003 0.233 0.060 0.351 0.058l1.117 0.028c0.188 0.009 0.374 0.019 0.563 0.019 0.046 0 0.091 0 0.137 0 0.049 0 0.1-0.061 0.147-0.061 0.881 0.001 1.779-0.019 2.693 0.009 0.072 0.001 0.143-0.001 0.215-0.004 0.038-0.009 0.077-0.019 0.115-0.018 0.905 0.029 1.825 0.073 2.758 0.132-0.933-0.059-1.853-0.073-2.758-0.102-0.038-0.001-0.077 0.045-0.115 0.045 0.038 0 0.077 0 0.115 0 0.905 0 1.825 0.035 2.758 0.093 0.114 0.008 0.228-0.004 0.342 0.004 0.958 0.063 1.929 0.134 2.91 0.234 0.082 0.008 0.165 0.010 0.248 0.019 1.059 0.109 2.129 0.234 3.206 0.389-1.078-0.155-2.148-0.284-3.206-0.393-0.083-0.009-0.166-0.018-0.248-0.026 0.082 0.008 0.165 0.015 0.248 0.024 1.059 0.109 2.129 0.238 3.206 0.393 1.564 0.224 8.645 2.52 14.080 4.178v70.939zM70.4 104.015v-70.916c5.496-1.631 12.683-3.886 14.080-4.075 1.092-0.147 2.176-0.271 3.25-0.375 0.078-0.008 0.155-0.014 0.233-0.022 1.004-0.095 1.998-0.172 2.98-0.233 0.099-0.006 0.196-0.013 0.296-0.019 0.972-0.058 1.931-0.099 2.874-0.128 0.079-0.003 0.161-0.026 0.241-0.027l4.695-0.027c0.123 0.003 0.242 0.015 0.365 0.018 0.483 0.009 0.959 0.027 1.426 0.041 0.085 0.003 0.171 0.008 0.255 0.010 0.54 0.019 1.070 0.041 1.587 0.067 0.091 0.005 0.179 0.010 0.269 0.015 0.443 0.023 0.876 0.047 1.299 0.074 0.097 0.006 0.196 0.012 0.293 0.018 0.486 0.032 0.963 0.065 1.423 0.101 0.055 0.004 0.106 0.009 0.16 0.013 0.407 0.032 0.804 0.065 1.19 0.1 0.101 0.009 0.201 0.018 0.299 0.027 0.853 0.078 1.646 0.16 2.374 0.242 0.082 0.010 0.161 0.019 0.241 0.028 0.333 0.037 0.654 0.077 0.957 0.115 0.020 0.003 0.041 0.005 0.061 0.008 0.329 0.041 0.636 0.082 0.928 0.122 0.061 0.009 0.118 0.017 0.178 0.026 0.241 0.032 0.47 0.065 0.682 0.096 0.037 0.006 0.078 0.012 0.114 0.017 0.241 0.036 0.46 0.070 0.66 0.101 0.042 0.006 0.079 0.013 0.119 0.019 0.157 0.026 0.301 0.047 0.43 0.069 0.037 0.006 0.076 0.013 0.11 0.019 0.139 0.024 0.266 0.045 0.366 0.063 0.027 0.005 0.042 0.008 0.067 0.012 0.073 0.014 0.138 0.026 0.184 0.033 0.022 0.004 0.029 0.005 0.045 0.008 0.033 0.006 0.067 0.013 0.067 0.013v64c0 0-0.018-0.002-0.045-0.005-0.013-0.002-0.032-0.004-0.050-0.006-0.024-0.002-0.047-0.006-0.081-0.010-0.026-0.002-0.056-0.006-0.087-0.009-0.043-0.005-0.090-0.010-0.145-0.017-0.031-0.004-0.067-0.008-0.101-0.010-0.065-0.008-0.134-0.015-0.213-0.023-0.040-0.004-0.083-0.009-0.127-0.013-0.087-0.009-0.182-0.018-0.282-0.027-0.043-0.004-0.090-0.008-0.136-0.013-0.108-0.009-0.22-0.020-0.341-0.029-0.056-0.005-0.114-0.010-0.174-0.015-0.127-0.011-0.26-0.022-0.399-0.032-0.058-0.005-0.115-0.009-0.175-0.014-0.146-0.011-0.299-0.023-0.458-0.034-0.069-0.005-0.137-0.010-0.209-0.015-0.16-0.011-0.329-0.023-0.501-0.033-0.077-0.005-0.151-0.010-0.23-0.015-0.18-0.011-0.37-0.022-0.562-0.032-0.079-0.005-0.156-0.010-0.239-0.014-0.191-0.011-0.393-0.022-0.595-0.031-0.092-0.004-0.183-0.009-0.278-0.014-0.241-0.011-0.492-0.022-0.745-0.031-0.060-0.002-0.115-0.005-0.177-0.008-0.312-0.013-0.635-0.023-0.966-0.032-0.156-0.005-0.321-0.009-0.483-0.013-0.178-0.005-0.351-0.009-0.534-0.013-0.206-0.005-0.42-0.008-0.631-0.011-0.145-0.002-0.287-0.005-0.434-0.006-0.237-0.002-0.479 0.151-0.722 0.148-0.128 0-0.255 0.152-0.384 0.152l-0.492-0.152c-0.577 0.001-1.169-0.073-1.779-0.061-0.111 0.001-0.225-0.033-0.337-0.031-0.611 0.011-1.234 0.010-1.874 0.032-0.082 0.002-0.165-0.004-0.248-0.001-0.668 0.027-1.357 0.055-2.053 0.094-0.122 0.008-0.241 0.011-0.362 0.018-0.692 0.042-1.399 0.091-2.115 0.147-0.146 0.011-0.292 0.023-0.439 0.034-0.717 0.058-1.442 0.127-2.177 0.202-0.146 0.015-0.293 0.029-0.44 0.046-0.75 0.081-1.508 0.17-2.272 0.27-0.132 0.018-0.262 0.036-0.393 0.054-0.792 0.106-1.59 0.223-2.396 0.351-0.088 0.014-0.178 0.029-0.266 0.045-0.854 0.138-1.713 0.289-2.578 0.456-1.22 0.238-8.514 5.35-14.076 9.073z" fill="#000000"></path>
</svg>
