<?xml version="1.0" encoding="utf-8"?>
<!-- Generated by IcoMoon.io -->
<!DOCTYPE svg PUBLIC "-//W3C//DTD SVG 1.1//EN" "http://www.w3.org/Graphics/SVG/1.1/DTD/svg11.dtd">
<svg version="1.1" xmlns="http://www.w3.org/2000/svg" xmlns:xlink="http://www.w3.org/1999/xlink" width="128" height="128" viewBox="0 0 128 128">
<g id="icomoon-ignore">
	<line stroke-width="1" x1="" y1="" x2="" y2="" stroke="#449FDB" opacity=""></line>
</g>
	<path d="M26.88 42.24h43.52v12.8h-43.52v-12.8z" fill="#000000"></path>
	<path d="M126.126 117.074l-38.886-38.886c6.29-8.197 10.040-18.44 10.040-29.547 0-26.82-21.82-48.64-48.64-48.64s-48.64 21.82-48.64 48.64 21.82 48.64 48.64 48.64c11.108 0 21.35-3.75 29.547-10.040l38.886 38.886 9.052-9.052zM12.8 48.64c0-19.797 16.045-35.84 35.84-35.84s35.84 16.044 35.84 35.84c0 19.789-16.045 35.84-35.84 35.84s-35.84-16.051-35.84-35.84z" fill="#000000"></path>
</svg>
