<?xml version="1.0" encoding="utf-8"?>
<!-- Generated by IcoMoon.io -->
<!DOCTYPE svg PUBLIC "-//W3C//DTD SVG 1.1//EN" "http://www.w3.org/Graphics/SVG/1.1/DTD/svg11.dtd">
<svg version="1.1" xmlns="http://www.w3.org/2000/svg" xmlns:xlink="http://www.w3.org/1999/xlink" width="128" height="128" viewBox="0 0 128 128">
<g id="icomoon-ignore">
	<line stroke-width="1" x1="" y1="" x2="" y2="" stroke="#449FDB" opacity=""></line>
</g>
	<path d="M126.125 117.074l-37.391-37.391c6.391-8.233 10.21-18.558 10.21-29.763 0-26.82-21.82-48.64-48.64-48.64s-48.64 21.82-48.64 48.64 21.82 48.64 48.64 48.64c11.011 0 21.172-3.681 29.334-9.873l37.438 37.439 9.050-9.052zM14.464 49.92c0-19.797 16.045-35.84 35.84-35.84 19.798 0 35.84 16.042 35.84 35.84 0 19.789-16.045 35.84-35.84 35.84s-35.84-16.051-35.84-35.84z" fill="#000000"></path>
</svg>
