<?xml version="1.0" encoding="utf-8"?>
<!-- Generator: Adobe Illustrator 16.0.0, SVG Export Plug-In . SVG Version: 6.00 Build 0)  -->
<!DOCTYPE svg PUBLIC "-//W3C//DTD SVG 1.1//EN" "http://www.w3.org/Graphics/SVG/1.1/DTD/svg11.dtd">
<svg version="1.1" id="Capa_1" xmlns="http://www.w3.org/2000/svg" xmlns:xlink="http://www.w3.org/1999/xlink" x="0px" y="0px"
	 width="128px" height="128px" viewBox="0 0 128 128" enable-background="new 0 0 128 128" xml:space="preserve">
<path d="M92.2,108.771V64.854c3.84,0.375,9.198-0.229,14.439-2.83c4.613-2.291,7.286-6.259,7.286-10.885
	c0-5.532-3.799-10.228-5.176-11.743L86.204,8.868c-0.188-0.256-0.394-0.498-0.618-0.722C76.732-0.707,57.683-0.087,53.91,0.132
	c-3.773-0.219-22.825-0.838-31.68,8.014c-5.412,5.413-8.154,15.534-8.154,30.086c0,2.56,0.096,4.497,0.145,5.312
	c-0.02,0.451-0.043,1.232-0.043,2.261c0,6.908,1.047,19.545,8.055,26.55c4.426,4.426,12.357,6.996,24.364,7.857
	c3.117,0.223,5.925,0.297,8.485,0.302v28.259c0,7.717,4.773,19.199,17.92,19.199c14.086,0,19.2-11.482,19.2-19.199H92.2z
	 M67.88,108.771V73.955c0-1.766-0.676-3.454-1.964-4.663c-1.286-1.21-2.99-1.834-4.754-1.726
	c-11.661,0.721-26.449-0.82-29.896-4.265c-2.614-2.614-4.297-9.483-4.297-17.502c0-1.13,0.04-1.846,0.045-1.921
	c0.017-0.28,0.017-0.571-0.004-0.855c-0.001-0.019-0.137-1.95-0.137-4.794c0-12.26,2.276-18.904,4.407-21.034
	c3.725-3.725,15.219-4.738,22.184-4.269c0.292,0.021,0.591,0.021,0.882,0c6.802-0.458,17.909,0.495,21.903,4l22.431,30.366
	c0.168,0.227,0.35,0.442,0.545,0.645c0.554,0.571,1.395,1.793,1.755,2.63c-6.534,3.236-11.109,0.646-11.506,0.408
	c-1.945-1.423-4.474-1.56-6.624-0.468c-2.148,1.092-3.451,3.373-3.451,5.784v52.401c0,2.957-1.247,6.478-6.4,6.478
	C68.656,115.171,67.879,111.124,67.88,108.771L67.88,108.771z"/>
</svg>
