<?xml version="1.0" encoding="utf-8"?>
<!-- Generated by IcoMoon.io -->
<!DOCTYPE svg PUBLIC "-//W3C//DTD SVG 1.1//EN" "http://www.w3.org/Graphics/SVG/1.1/DTD/svg11.dtd">
<svg version="1.1" xmlns="http://www.w3.org/2000/svg" xmlns:xlink="http://www.w3.org/1999/xlink" width="128" height="128" viewBox="0 0 128 128">
<g id="icomoon-ignore">
	<line stroke-width="1" x1="" y1="" x2="" y2="" stroke="#449FDB" opacity=""></line>
</g>
	<path d="M108.763 37.12h-46.91c0.886-3.84 1.020-9.513-2.133-15.861-2.522-5.079-6.465-5.865-8.591-5.865-4.77 0-9.043 3.616-10.108 4.593l-30.641 22.628c-0.154 0.114-0.298 0.234-0.434 0.371-8.214 8.214-7.456 26.691-7.26 29.865-0.195 3.174-0.952 21.654 7.261 29.869 6.12 6.121 18.753 7.405 28.275 7.405 2.665 0 4.617-0.106 5.29-0.148 0.388 0.018 1.187 0.047 2.281 0.047 6.513 0 18.387-0.895 24.741-7.25 7.075-7.073 7.575-25.974 7.403-33.654h30.824c0.412 0 4.134-0.105 7.976-1.834 5.586-2.514 8.664-7.309 8.664-13.554 0-12.209-9.952-16.612-16.64-16.612zM108.763 61.44h-34.816c-1.060 0-2.074 0.383-2.799 1.156s-1.1 1.784-1.034 2.843c0.613 9.774-0.202 27.057-5.010 31.864-3.166 3.165-10.383 5.047-19.311 5.047-1.248 0-2.025-0.046-2.078-0.049-0.172-0.010-0.344-0.011-0.514 0-0.020 0.001-2.026 0.145-4.979 0.145-11.076 0-19.616-1.929-22.846-5.157-5.116-5.117-5.353-19.186-5.011-24.171 0.011-0.177 0.011-0.356 0-0.532-0.338-4.929-0.111-18.721 4.831-23.986l30.566-22.581c0.129-0.095 0.261-0.207 0.376-0.317 1.126-1.070 3.49-2.655 4.989-2.655 0.302 0 0.933 0 1.714 1.573 3.998 8.051 0.383 13.88 0.25 14.089-0.79 1.178-0.868 2.749-0.2 4.001 0.671 1.253 1.972 2.090 3.392 2.090h52.48c0.918 0 8.96 0.251 8.96 8.96 0 7.214-7.482 7.68-8.96 7.68z" fill="#000000"></path>
</svg>
