<?xml version="1.0" encoding="utf-8"?>
<!-- Generator: Adobe Illustrator 16.0.0, SVG Export Plug-In . SVG Version: 6.00 Build 0)  -->
<!DOCTYPE svg PUBLIC "-//W3C//DTD SVG 1.1//EN" "http://www.w3.org/Graphics/SVG/1.1/DTD/svg11.dtd">
<svg version="1.1" id="Capa_1" xmlns="http://www.w3.org/2000/svg" xmlns:xlink="http://www.w3.org/1999/xlink" x="0px" y="0px"
	 width="128px" height="128px" viewBox="0 0 128 128" enable-background="new 0 0 128 128" xml:space="preserve">
<path d="M35.801,19.229v43.918c-3.84-0.375-9.198,0.229-14.44,2.83c-4.613,2.291-7.286,6.259-7.286,10.885
	c0,5.532,3.799,10.228,5.176,11.743l22.546,30.527c0.188,0.256,0.393,0.498,0.618,0.722c8.854,8.854,27.903,8.233,31.676,8.015
	c3.773,0.219,22.825,0.838,31.68-8.014c5.412-5.413,8.154-15.534,8.154-30.086c0-2.56-0.096-4.497-0.145-5.312
	c0.02-0.451,0.043-1.232,0.043-2.261c0-6.908-1.047-19.545-8.055-26.55c-4.426-4.426-12.357-6.996-24.364-7.857
	c-3.117-0.223-5.925-0.297-8.485-0.302V19.229c0-7.717-4.773-19.199-17.92-19.199c-14.086,0-19.2,11.482-19.2,19.199H35.801z
	 M60.121,19.229v34.816c0,1.766,0.676,3.454,1.964,4.663c1.286,1.21,2.99,1.834,4.754,1.726c11.661-0.721,26.449,0.82,29.896,4.265
	c2.614,2.614,4.297,9.483,4.297,17.502c0,1.13-0.04,1.846-0.045,1.921c-0.017,0.28-0.017,0.571,0.004,0.855
	c0.001,0.019,0.137,1.95,0.137,4.794c0,12.26-2.276,18.904-4.407,21.034c-3.725,3.725-15.219,4.738-22.184,4.269
	c-0.292-0.021-0.591-0.021-0.882,0c-6.802,0.458-17.909-0.495-21.903-4L29.32,80.708c-0.168-0.227-0.349-0.442-0.545-0.645
	c-0.553-0.571-1.394-1.793-1.754-2.63c6.534-3.236,11.109-0.646,11.505-0.408c1.946,1.423,4.474,1.56,6.624,0.468
	c2.149-1.092,3.452-3.373,3.452-5.784V19.308c0-2.957,1.247-6.478,6.4-6.478C59.345,12.83,60.122,16.877,60.121,19.229
	L60.121,19.229z"/>
</svg>
