<?xml version="1.0" encoding="utf-8"?>
<!-- Generator: Adobe Illustrator 16.0.0, SVG Export Plug-In . SVG Version: 6.00 Build 0)  -->
<!DOCTYPE svg PUBLIC "-//W3C//DTD SVG 1.1//EN" "http://www.w3.org/Graphics/SVG/1.1/DTD/svg11.dtd">
<svg version="1.1" id="Capa_1" xmlns="http://www.w3.org/2000/svg" xmlns:xlink="http://www.w3.org/1999/xlink" x="0px" y="0px"
	 width="128px" height="128px" viewBox="0 0 128 128" enable-background="new 0 0 128 128" xml:space="preserve">
<path d="M108.771,35.801H64.853c0.375-3.84-0.229-9.198-2.83-14.44c-2.291-4.613-6.259-7.286-10.885-7.286
	c-5.532,0-10.227,3.799-11.743,5.176L8.867,41.797c-0.256,0.188-0.498,0.393-0.722,0.618c-8.854,8.854-8.233,27.903-8.015,31.676
	c-0.218,3.773-0.838,22.825,8.014,31.68c5.413,5.412,15.534,8.154,30.086,8.154c2.559,0,4.497-0.096,5.311-0.145
	c0.452,0.02,1.233,0.043,2.261,0.043c6.908,0,19.545-1.047,26.55-8.055c4.426-4.426,6.996-12.357,7.857-24.364
	c0.223-3.117,0.297-5.925,0.302-8.485h28.259c7.717,0,19.199-4.773,19.199-17.92c0-14.086-11.482-19.2-19.199-19.2V35.801z
	 M108.771,60.121H73.954c-1.766,0-3.454,0.676-4.663,1.964c-1.21,1.286-1.834,2.99-1.726,4.754
	c0.721,11.661-0.82,26.449-4.265,29.896c-2.614,2.614-9.483,4.297-17.502,4.297c-1.13,0-1.845-0.04-1.921-0.045
	c-0.28-0.017-0.571-0.017-0.855,0.004c-0.019,0.001-1.95,0.137-4.794,0.137c-12.26,0-18.904-2.276-21.034-4.407
	c-3.725-3.725-4.739-15.219-4.269-22.184c0.021-0.292,0.021-0.591,0-0.882c-0.458-6.802,0.495-17.909,4-21.903L47.292,29.32
	c0.227-0.168,0.443-0.349,0.645-0.545c0.571-0.553,1.793-1.394,2.63-1.754c3.236,6.534,0.646,11.109,0.408,11.505
	c-1.423,1.946-1.56,4.474-0.468,6.624c1.092,2.149,3.373,3.452,5.784,3.452h52.402c2.957,0,6.478,1.247,6.478,6.4
	C115.17,59.345,111.123,60.122,108.771,60.121L108.771,60.121z"/>
</svg>
