<?xml version="1.0" encoding="utf-8"?>
<!-- Generated by IcoMoon.io -->
<!DOCTYPE svg PUBLIC "-//W3C//DTD SVG 1.1//EN" "http://www.w3.org/Graphics/SVG/1.1/DTD/svg11.dtd">
<svg version="1.1" xmlns="http://www.w3.org/2000/svg" xmlns:xlink="http://www.w3.org/1999/xlink" width="128" height="128" viewBox="0 0 128 128">
<g id="icomoon-ignore">
	<line stroke-width="1" x1="" y1="" x2="" y2="" stroke="#449FDB" opacity=""></line>
</g>
	<path d="M108.763 34.56h-43.918c0.375-3.84-0.228-9.198-2.83-14.44-2.291-4.613-6.259-7.286-10.885-7.286-5.532 0-10.227 3.799-11.743 5.176l-30.527 22.546c-0.256 0.188-0.498 0.393-0.722 0.618-8.854 8.854-8.233 27.903-8.015 31.676-0.218 3.773-0.838 22.825 8.014 31.679 5.413 5.413 15.534 8.155 30.086 8.155 2.559 0 4.497-0.096 5.311-0.145 0.452 0.019 1.233 0.043 2.261 0.043 6.908 0 19.546-1.047 26.551-8.054 4.426-4.426 6.996-12.358 7.857-24.365 0.223-3.117 0.297-5.925 0.302-8.485h28.258c7.717 0 19.2-4.773 19.2-17.92 0-14.086-11.483-19.2-19.2-19.2zM108.763 58.88h-34.816c-1.766 0-3.454 0.676-4.663 1.964-1.21 1.286-1.834 2.99-1.725 4.753 0.721 11.662-0.82 26.45-4.266 29.896-2.614 2.615-9.483 4.297-17.502 4.297-1.13 0-1.845-0.040-1.921-0.045-0.28-0.017-0.571-0.017-0.855 0.004-0.019 0.001-1.95 0.137-4.794 0.137-12.26 0-18.904-2.277-21.034-4.407-3.725-3.725-4.739-15.219-4.269-22.184 0.021-0.292 0.021-0.591 0-0.882-0.458-6.802 0.495-17.909 4-21.903l30.366-22.431c0.227-0.168 0.443-0.349 0.645-0.545 0.571-0.553 1.793-1.394 2.63-1.754 3.236 6.534 0.646 11.109 0.408 11.505-1.423 1.946-1.56 4.474-0.468 6.624 1.092 2.149 3.373 3.452 5.784 3.452h52.403c2.956 0 6.477 1.247 6.477 6.4 0 4.343-4.047 5.12-6.4 5.12z" fill="#000000"></path>
</svg>
