<?xml version="1.0" encoding="utf-8"?>
<!-- Generated by IcoMoon.io -->
<!DOCTYPE svg PUBLIC "-//W3C//DTD SVG 1.1//EN" "http://www.w3.org/Graphics/SVG/1.1/DTD/svg11.dtd">
<svg version="1.1" xmlns="http://www.w3.org/2000/svg" xmlns:xlink="http://www.w3.org/1999/xlink" width="128" height="128" viewBox="0 0 128 128">
<g id="icomoon-ignore">
	<line stroke-width="1" x1="" y1="" x2="" y2="" stroke="#449FDB" opacity=""></line>
</g>
	<path d="M64 13.44c19.795 0 35.84 17.192 35.84 38.4 0 21.207-35.84 62.72-35.84 62.72s-35.84-41.513-35.84-62.72c0-21.208 16.045-38.4 35.84-38.4zM64 0.64c-26.82 0-48.64 22.968-48.64 51.2 0 11.596 6.598 26.826 20.173 46.565 9.253 13.454 18.394 24.074 18.778 24.52 2.432 2.816 5.969 4.435 9.69 4.435s7.258-1.619 9.688-4.435c0.384-0.445 9.526-11.066 18.778-24.52 13.576-19.739 20.174-34.97 20.174-46.565 0-28.232-21.82-51.2-48.64-51.2v0z" fill="#000000"></path>
	<path d="M42.24 44.8h43.52v12.8h-43.52v-12.8z" fill="#000000"></path>
	<path d="M57.6 29.44h12.8v43.52h-12.8v-43.52z" fill="#000000"></path>
</svg>
