<?xml version="1.0" encoding="utf-8"?>
<!-- Generated by IcoMoon.io -->
<!DOCTYPE svg PUBLIC "-//W3C//DTD SVG 1.1//EN" "http://www.w3.org/Graphics/SVG/1.1/DTD/svg11.dtd">
<svg version="1.1" xmlns="http://www.w3.org/2000/svg" xmlns:xlink="http://www.w3.org/1999/xlink" width="128" height="128" viewBox="0 0 128 128">
<g id="icomoon-ignore">
	<line stroke-width="1" x1="" y1="" x2="" y2="" stroke="#449FDB" opacity=""></line>
</g>
	<path d="M63.84 28.8c-9.882 0-17.92 8.038-17.92 17.92s8.038 17.92 17.92 17.92 17.92-8.038 17.92-17.92-8.038-17.92-17.92-17.92zM63.84 56.96c-5.655 0-10.24-4.584-10.24-10.24s4.585-10.24 10.24-10.24c5.656 0 10.24 4.584 10.24 10.24s-4.584 10.24-10.24 10.24z" fill="#000000"></path>
	<path d="M63.84 1.92c-23.998 0-43.52 20.671-43.52 46.080 0 22.945 33.398 69.274 37.206 74.772 1.435 2.071 3.794 3.308 6.314 3.308s4.879-1.237 6.314-3.308c3.808-5.499 37.206-51.827 37.206-74.772 0-25.409-19.523-46.080-43.52-46.080zM63.84 118.4c0 0-35.84-49.193-35.84-70.4 0-21.208 16.045-38.4 35.84-38.4s35.84 17.192 35.84 38.4c0 21.207-35.84 70.4-35.84 70.4z" fill="#000000"></path>
</svg>
