<?xml version="1.0" encoding="utf-8"?>
<!-- Generated by IcoMoon.io -->
<!DOCTYPE svg PUBLIC "-//W3C//DTD SVG 1.1//EN" "http://www.w3.org/Graphics/SVG/1.1/DTD/svg11.dtd">
<svg version="1.1" xmlns="http://www.w3.org/2000/svg" xmlns:xlink="http://www.w3.org/1999/xlink" width="128" height="128" viewBox="0 0 128 128">
<g id="icomoon-ignore">
	<line stroke-width="1" x1="" y1="" x2="" y2="" stroke="#449FDB" opacity=""></line>
</g>
	<path d="M66.432 1.92c-23.998 0-43.52 20.671-43.52 46.080 0 22.945 33.398 69.274 37.206 74.772 1.435 2.071 3.794 3.308 6.314 3.308s4.879-1.237 6.314-3.308c3.808-5.499 37.206-51.827 37.206-74.772 0-25.409-19.524-46.080-43.52-46.080zM66.432 118.4c0 0-35.84-49.193-35.84-70.4 0-21.208 16.045-38.4 35.84-38.4s35.84 17.192 35.84 38.4c0 21.207-35.84 70.4-35.84 70.4z" fill="#000000"></path>
	<path d="M70.4 29.44h-7.68v12.8h-12.8v7.68h12.8v12.8h7.68v-12.8h12.8v-7.68h-12.8z" fill="#000000"></path>
</svg>
