<?xml version="1.0" encoding="utf-8"?>
<!-- Generated by IcoMoon.io -->
<!DOCTYPE svg PUBLIC "-//W3C//DTD SVG 1.1//EN" "http://www.w3.org/Graphics/SVG/1.1/DTD/svg11.dtd">
<svg version="1.1" xmlns="http://www.w3.org/2000/svg" xmlns:xlink="http://www.w3.org/1999/xlink" width="128" height="128" viewBox="0 0 128 128">
<g id="icomoon-ignore">
	<line stroke-width="1" x1="" y1="" x2="" y2="" stroke="#449FDB" opacity=""></line>
</g>
	<path d="M98.56 2.56h-69.12c-2.121 0-3.84 1.71-3.84 3.831v114.875c0 1.516 0.891 2.889 2.273 3.506 1.385 0.617 3.002 0.364 4.13-0.646l31.982-28.671 31.996 28.983c0.719 0.653 1.642 0.993 2.579 0.993 0.525 0 1.055-0.108 1.555-0.329 1.389-0.617 2.284-1.993 2.284-3.511v-115.2c0-2.121-1.719-3.831-3.84-3.831zM94.72 112.932l-28.142-25.492c-0.731-0.663-1.654-0.993-2.578-0.993-0.916 0-1.834 0.326-2.564 0.981l-28.156 25.24v-102.427h61.44v102.692z" fill="#000000"></path>
</svg>
