<?xml version="1.0" encoding="utf-8"?>
<!-- Generated by IcoMoon.io -->
<!DOCTYPE svg PUBLIC "-//W3C//DTD SVG 1.1//EN" "http://www.w3.org/Graphics/SVG/1.1/DTD/svg11.dtd">
<svg version="1.1" xmlns="http://www.w3.org/2000/svg" xmlns:xlink="http://www.w3.org/1999/xlink" width="128" height="128" viewBox="0 0 128 128">
<g id="icomoon-ignore">
	<line stroke-width="1" x1="" y1="" x2="" y2="" stroke="#449FDB" opacity=""></line>
</g>
	<path d="M98.561 126.848c-1.559 0-3.098-0.57-4.297-1.656l-30.287-27.433-30.264 27.13c-1.882 1.686-4.577 2.107-6.883 1.078s-3.79-3.318-3.79-5.843v-115.003c0-3.534 2.865-6.4 6.4-6.4h69.12c3.535 0 6.4 2.866 6.4 6.4v115.328c0 2.532-1.491 4.824-3.805 5.851-0.833 0.369-1.716 0.549-2.593 0.549zM64 82.743c1.538 0 3.077 0.553 4.296 1.656l23.864 21.617v-94.496h-56.32v94.271l23.887-21.413c1.216-1.091 2.746-1.635 4.273-1.635z" fill="#000000"></path>
</svg>
