<?xml version="1.0" encoding="utf-8"?>
<!-- Generated by IcoMoon.io -->
<!DOCTYPE svg PUBLIC "-//W3C//DTD SVG 1.1//EN" "http://www.w3.org/Graphics/SVG/1.1/DTD/svg11.dtd">
<svg version="1.1" xmlns="http://www.w3.org/2000/svg" xmlns:xlink="http://www.w3.org/1999/xlink" width="128" height="128" viewBox="0 0 128 128">
<g id="icomoon-ignore">
	<line stroke-width="1" x1="" y1="" x2="" y2="" stroke="#449FDB" opacity=""></line>
</g>
	<path d="M64 92.16c8.483 0 15.36 6.877 15.36 15.36s-6.877 15.36-15.36 15.36c-8.483 0-15.36-6.877-15.36-15.36s6.877-15.36 15.36-15.36z" fill="#000000"></path>
	<path d="M64 48.64c8.483 0 15.36 6.877 15.36 15.36s-6.877 15.36-15.36 15.36c-8.483 0-15.36-6.877-15.36-15.36s6.877-15.36 15.36-15.36z" fill="#000000"></path>
	<path d="M64 5.12c8.483 0 15.36 6.877 15.36 15.36s-6.877 15.36-15.36 15.36c-8.483 0-15.36-6.877-15.36-15.36s6.877-15.36 15.36-15.36z" fill="#000000"></path>
</svg>
