<?xml version="1.0" encoding="utf-8"?>
<!-- Generated by IcoMoon.io -->
<!DOCTYPE svg PUBLIC "-//W3C//DTD SVG 1.1//EN" "http://www.w3.org/Graphics/SVG/1.1/DTD/svg11.dtd">
<svg version="1.1" xmlns="http://www.w3.org/2000/svg" xmlns:xlink="http://www.w3.org/1999/xlink" width="128" height="128" viewBox="0 0 128 128">
<g id="icomoon-ignore">
	<line stroke-width="1" x1="" y1="" x2="" y2="" stroke="#449FDB" opacity=""></line>
</g>
	<path d="M111.36 7.68c0-4.241-3.439-7.68-7.68-7.68h-76.8c-4.241 0-7.68 3.439-7.68 7.68v112.64c0 4.241 3.439 7.68 7.68 7.68h76.8c4.241 0 7.68-3.439 7.68-7.68v-112.64zM103.68 120.32h-76.8v-112.64h76.8v112.64z" fill="#000000"></path>
	<path d="M96 24.32c0-4.241-3.439-7.68-7.68-7.68h-46.080c-4.241 0-7.68 3.439-7.68 7.68v58.88c0 4.241 3.439 7.68 7.68 7.68h46.080c4.241 0 7.68-3.439 7.68-7.68v-58.88zM42.24 24.32h46.080v58.88h-46.080v-58.88z" fill="#000000"></path>
	<path d="M64.818 98.56c-4.234 0-7.679 3.441-7.679 7.68s3.444 7.68 7.679 7.68c4.242 0 7.681-3.441 7.681-7.68s-3.437-7.68-7.681-7.68z" fill="#000000"></path>
</svg>
