<?xml version="1.0" encoding="utf-8"?>
<!-- Generated by IcoMoon.io -->
<!DOCTYPE svg PUBLIC "-//W3C//DTD SVG 1.1//EN" "http://www.w3.org/Graphics/SVG/1.1/DTD/svg11.dtd">
<svg version="1.1" xmlns="http://www.w3.org/2000/svg" xmlns:xlink="http://www.w3.org/1999/xlink" width="128" height="128" viewBox="0 0 128 128">
<g id="icomoon-ignore">
	<line stroke-width="1" x1="" y1="" x2="" y2="" stroke="#449FDB" opacity=""></line>
</g>
	<path d="M99.84 0h-71.68c-7.068 0-12.8 5.732-12.8 12.8v102.4c0 7.068 5.732 12.8 12.8 12.8h71.68c7.068 0 12.8-5.732 12.8-12.8v-102.4c0-7.068-5.732-12.8-12.8-12.8zM99.84 115.2h-71.68v-102.4h71.68v102.4z" fill="#000000"></path>
	<path d="M89.6 28.16c0-3.535-2.865-6.4-6.4-6.4h-38.4c-3.535 0-6.4 2.865-6.4 6.4v48.64c0 3.535 2.865 6.4 6.4 6.4h38.4c3.535 0 6.4-2.865 6.4-6.4v-48.64zM51.2 34.56h25.6v35.84h-25.6v-35.84z" fill="#000000"></path>
	<path d="M63.871 91.52c-4.938 0-8.959 4.013-8.959 8.96s4.020 8.96 8.959 8.96c4.95 0 8.961-4.013 8.961-8.96s-4.008-8.96-8.961-8.96z" fill="#000000"></path>
</svg>
