<?xml version="1.0" encoding="utf-8"?>
<!-- Generated by IcoMoon.io -->
<!DOCTYPE svg PUBLIC "-//W3C//DTD SVG 1.1//EN" "http://www.w3.org/Graphics/SVG/1.1/DTD/svg11.dtd">
<svg version="1.1" xmlns="http://www.w3.org/2000/svg" xmlns:xlink="http://www.w3.org/1999/xlink" width="128" height="128" viewBox="0 0 128 128">
<g id="icomoon-ignore">
	<line stroke-width="1" x1="" y1="" x2="" y2="" stroke="#449FDB" opacity=""></line>
</g>
	<path d="M114.176 106.88h-81.92c-2.121 0-3.84-1.719-3.84-3.84v-99.84c0-2.121 1.719-3.84 3.84-3.84h81.92c2.121 0 3.84 1.719 3.84 3.84v99.84c0 2.121-1.72 3.84-3.84 3.84zM36.096 99.2h74.24v-92.16h-74.24v92.16z" fill="#000000"></path>
	<path d="M98.176 126.72h-85.504c-2.121 0-3.84-1.719-3.84-3.84v-92.8h7.68v88.96h81.664v7.68z" fill="#000000"></path>
	<path d="M48.896 28.8h48.64v7.68h-48.64v-7.68z" fill="#000000"></path>
	<path d="M48.896 49.28h48.64v7.68h-48.64v-7.68z" fill="#000000"></path>
	<path d="M48.896 69.76h48.64v7.68h-48.64v-7.68z" fill="#000000"></path>
</svg>
