<?xml version="1.0" encoding="utf-8"?>
<!-- Generated by IcoMoon.io -->
<!DOCTYPE svg PUBLIC "-//W3C//DTD SVG 1.1//EN" "http://www.w3.org/Graphics/SVG/1.1/DTD/svg11.dtd">
<svg version="1.1" xmlns="http://www.w3.org/2000/svg" xmlns:xlink="http://www.w3.org/1999/xlink" width="128" height="128" viewBox="0 0 128 128">
<g id="icomoon-ignore">
	<line stroke-width="1" x1="" y1="" x2="" y2="" stroke="#449FDB" opacity=""></line>
</g>
	<path d="M114.522 96.93h-76.16c-3.345 0-6.054-2.71-6.054-6.050v-83.549c-0.001-3.341 2.709-6.051 6.054-6.051h76.16c3.345 0 6.054 2.71 6.054 6.051v83.549c0 3.34-2.71 6.050-6.054 6.050zM44.416 84.826h64.050v-71.441h-64.050v71.441z" fill="#000000"></path>
	<path d="M54.706 30.883h43.52v12.8h-43.52v-12.8z" fill="#000000"></path>
	<path d="M54.706 55.331h43.52v12.8h-43.52v-12.8z" fill="#000000"></path>
	<path d="M100.503 124.16h-88.064c-3.534 0-6.4-2.865-6.4-6.4v-95.36h12.8v88.96h81.664v12.8z" fill="#000000"></path>
</svg>
