<?xml version="1.0" encoding="utf-8"?>
<!-- Generated by IcoMoon.io -->
<!DOCTYPE svg PUBLIC "-//W3C//DTD SVG 1.1//EN" "http://www.w3.org/Graphics/SVG/1.1/DTD/svg11.dtd">
<svg version="1.1" xmlns="http://www.w3.org/2000/svg" xmlns:xlink="http://www.w3.org/1999/xlink" width="128" height="128" viewBox="0 0 128 128">
<g id="icomoon-ignore">
	<line stroke-width="1" x1="" y1="" x2="" y2="" stroke="#449FDB" opacity=""></line>
</g>
	<path d="M65.92 40.32c-10.94 0-19.84 8.901-19.84 19.841 0 10.939 8.9 19.839 19.84 19.839s19.84-8.9 19.84-19.839c0-10.94-8.9-19.841-19.84-19.841zM65.92 72.32c-6.719 0-12.16-5.445-12.16-12.159 0-6.718 5.441-12.161 12.16-12.161 6.707 0 12.16 5.444 12.16 12.161 0 6.714-5.453 12.159-12.16 12.159z" fill="#000000"></path>
	<path d="M120.019 59.332c-0.296-0.385-7.35-9.562-17.199-18.842-14.091-13.277-26.721-20.010-37.54-20.010-24.101 0-53.784 34.641-57.090 38.591-2.387 2.853-2.387 7.006 0 9.857 3.306 3.951 32.989 38.592 57.090 38.592 10.819 0 23.448-6.733 37.54-20.010 9.85-9.28 16.904-18.455 17.199-18.842 2.108-2.755 2.108-6.582 0-9.336zM65.28 99.84c-21.208 0-51.2-35.84-51.2-35.84s29.992-35.84 51.2-35.84c21.207 0 48.64 35.84 48.64 35.84s-27.433 35.84-48.64 35.84z" fill="#000000"></path>
</svg>
