<?xml version="1.0" encoding="utf-8"?>
<!-- Generated by IcoMoon.io -->
<!DOCTYPE svg PUBLIC "-//W3C//DTD SVG 1.1//EN" "http://www.w3.org/Graphics/SVG/1.1/DTD/svg11.dtd">
<svg version="1.1" xmlns="http://www.w3.org/2000/svg" xmlns:xlink="http://www.w3.org/1999/xlink" width="128" height="128" viewBox="0 0 128 128">
<g id="icomoon-ignore">
	<line stroke-width="1" x1="" y1="" x2="" y2="" stroke="#449FDB" opacity=""></line>
</g>
	<path d="M65.92 35.84c-14.116 0-25.6 11.484-25.6 25.601 0 14.114 11.484 25.599 25.6 25.599s25.6-11.484 25.6-25.599c0-14.117-11.484-25.601-25.6-25.601zM65.92 74.24c-7.072 0-12.8-5.732-12.8-12.799 0-7.071 5.728-12.801 12.8-12.801 7.061 0 12.8 5.73 12.8 12.801 0 7.067-5.739 12.799-12.8 12.799z" fill="#000000"></path>
	<path d="M124.085 56.22c-0.306-0.399-7.606-9.893-17.754-19.456-15.286-14.402-28.713-21.404-41.051-21.404-12.178 0-25.924 6.91-42.025 21.124-10.749 9.491-18.66 18.906-18.991 19.302-3.978 4.754-3.978 11.675 0 16.429 0.332 0.397 8.242 9.811 18.991 19.301 16.101 14.214 29.847 21.124 42.025 21.124 12.338 0 25.765-7.002 41.051-21.404 10.148-9.562 17.448-19.057 17.754-19.456 3.515-4.591 3.515-10.968 0-15.56zM65.28 99.84c-21.208 0-51.2-35.84-51.2-35.84s29.992-35.84 51.2-35.84c21.207 0 48.64 35.84 48.64 35.84s-27.433 35.84-48.64 35.84z" fill="#000000"></path>
</svg>
