<?xml version="1.0" encoding="utf-8"?>
<!-- Generator: Adobe Illustrator 16.0.0, SVG Export Plug-In . SVG Version: 6.00 Build 0)  -->
<!DOCTYPE svg PUBLIC "-//W3C//DTD SVG 1.1//EN" "http://www.w3.org/Graphics/SVG/1.1/DTD/svg11.dtd">
<svg version="1.1" id="Capa_1" xmlns="http://www.w3.org/2000/svg" xmlns:xlink="http://www.w3.org/1999/xlink" x="0px" y="0px"
	 width="128px" height="128px" viewBox="0 0 128 128" enable-background="new 0 0 128 128" xml:space="preserve">
<g>
	<path d="M21.76,70.4V57.6h84.48v12.8H21.76z"/>
	<path d="M103.131,89.92l-34.605,34.605c-1.2,1.201-2.827,1.875-4.525,1.875s-3.325-0.674-4.526-1.875L24.87,89.92l9.051-9.051
		L64,110.949l30.081-30.08L103.131,89.92L103.131,89.92z"/>
	<path d="M103.131,38.08l-9.051,9.051l-30.081-30.08L33.92,47.131l-9.051-9.051L59.474,3.475C60.675,2.273,62.302,1.6,64,1.6
		s3.326,0.674,4.525,1.875L103.131,38.08z"/>
</g>
</svg>
