<?xml version="1.0" encoding="utf-8"?>
<!-- Generated by IcoMoon.io -->
<!DOCTYPE svg PUBLIC "-//W3C//DTD SVG 1.1//EN" "http://www.w3.org/Graphics/SVG/1.1/DTD/svg11.dtd">
<svg version="1.1" xmlns="http://www.w3.org/2000/svg" xmlns:xlink="http://www.w3.org/1999/xlink" width="128" height="128" viewBox="0 0 128 128">
<g id="icomoon-ignore">
	<line stroke-width="1" x1="" y1="" x2="" y2="" stroke="#449FDB" opacity=""></line>
</g>
	<path d="M114.156 19.218c-9.473-9.523-34.921-10.945-49.247-10.945l-1.17 0.004c-32.378 0.23-44.904 5.979-49.71 10.761-9.014 8.965-13.995 20.901-14.029 33.611s4.887 24.673 13.854 33.684c4.927 4.955 8.809 7.661 16.767 9.119 0.014 5.911-0.026 15.974-0.088 25.207-0.017 2.46 1.378 4.712 3.588 5.792 0.892 0.438 1.855 0.651 2.812 0.651 1.41 0 2.811-0.466 3.963-1.374l36.942-29.118c11.913-1.527 30.726-4.721 36.134-10.103 9.014-8.963 13.995-20.9 14.028-33.613 0.033-12.709-4.883-24.669-13.843-33.678zM105.023 77.357c-2.65 1.951-16.851 5.105-30.523 6.772-1.165 0.141-2.267 0.6-3.189 1.326l-27.901 21.993c0.079-17.928-0.062-18.427-0.319-19.337-0.717-2.534-2.913-4.371-5.536-4.627-9.398-0.919-10.927-2.458-14.625-6.176-6.556-6.59-10.154-15.336-10.13-24.626 0.024-9.291 3.666-18.016 10.257-24.571 3.15-3.134 15.72-6.857 40.773-7.035l1.078-0.004c19.451 0 35.971 2.949 40.172 7.173 6.551 6.583 10.145 15.327 10.121 24.618-0.024 9.254-3.638 17.948-10.177 24.493z" fill="#000000"></path>
</svg>
