<?xml version="1.0" encoding="utf-8"?>
<!-- Generated by IcoMoon.io -->
<!DOCTYPE svg PUBLIC "-//W3C//DTD SVG 1.1//EN" "http://www.w3.org/Graphics/SVG/1.1/DTD/svg11.dtd">
<svg version="1.1" xmlns="http://www.w3.org/2000/svg" xmlns:xlink="http://www.w3.org/1999/xlink" width="128" height="128" viewBox="0 0 128 128">
<g id="icomoon-ignore">
	<line stroke-width="1" x1="" y1="" x2="" y2="" stroke="#449FDB" opacity=""></line>
</g>
	<path d="M105.282 7.676c-0.001-2.648-1.635-5.023-4.108-5.971-2.472-0.947-5.275-0.276-7.048 1.691l-32.685 36.284h-26.53c-12.292 0-21.77 8.915-22.24 20.76-0.008 0.224 0.128 3.453 0.128 3.683v0.379c0 1.116-0.146 4.078-0.138 4.292 0.477 12.178 10.374 22.086 22.239 22.086h27.087l32.328 33.86c1.231 1.29 2.913 1.98 4.63 1.98 0.801 0 1.609-0.15 2.381-0.46 2.427-0.974 4.019-3.328 4.018-5.944l-0.061-112.64zM25.455 68.417c-0.005-0.386 0.145-2.915 0.145-3.896v-0.399c0-0.2-0.14-2.898-0.136-3.201 0.193-4.891 4.083-8.44 9.448-8.44h29.378c1.814 0 3.542-0.769 4.755-2.116l23.445-26.026 0.043 80.002-23.178-24.28c-1.208-1.263-2.88-1.98-4.63-1.98h-29.825c-4.992 0-9.24-4.483-9.445-9.663z" fill="#000000"></path>
</svg>
