<?xml version="1.0" encoding="utf-8"?>
<!-- Generated by IcoMoon.io -->
<!DOCTYPE svg PUBLIC "-//W3C//DTD SVG 1.1//EN" "http://www.w3.org/Graphics/SVG/1.1/DTD/svg11.dtd">
<svg version="1.1" xmlns="http://www.w3.org/2000/svg" xmlns:xlink="http://www.w3.org/1999/xlink" width="128" height="128" viewBox="0 0 128 128">
<g id="icomoon-ignore">
	<line stroke-width="1" x1="" y1="" x2="" y2="" stroke="#449FDB" opacity=""></line>
</g>
	<path d="M121.6 0h-115.2c-3.535 0-6.4 2.738-6.4 6.272v95.333c0 3.535 2.865 5.915 6.4 5.915h25.018l-8.994 10.871 9.771 8.39 7.684-9.022 10.223-12.051c1.010-1.193 1.527-2.775 1.514-4.347-0.004-0.492-0.075-0.979-0.184-1.457-0.097-0.429-0.224-0.851-0.408-1.251-1.048-2.26-3.314-3.935-5.806-3.935h-32.417v-81.92h102.4v81.92h-32.417c-2.492 0-4.758 1.688-5.806 3.95-0.393 0.845-0.586 1.764-0.594 2.682-0.010 1.538 0.507 3.076 1.516 4.266l17.909 21.254 9.772-8.497-8.996-10.856h25.018c3.535 0 6.4-2.379 6.4-5.915v-95.333c0-3.534-2.865-6.272-6.4-6.272z" fill="#000000"></path>
	<path d="M103.085 82.605c1.202-1.199 1.875-2.828 1.875-4.525l-0.002-48.64c0-3.535-2.865-6.4-6.4-6.4h-69.118c-1.697 0-3.325 0.673-4.525 1.875-1.202 1.199-1.875 2.828-1.875 4.525l0.003 48.64c0 3.535 2.865 6.4 6.4 6.4h69.118c1.697 0 3.326-0.673 4.525-1.875zM35.843 71.68l-0.002-35.84h56.317l0.002 35.84h-56.318z" fill="#000000"></path>
</svg>
