<?xml version="1.0" encoding="utf-8"?>
<!-- Generator: Adobe Illustrator 16.0.0, SVG Export Plug-In . SVG Version: 6.00 Build 0)  -->
<!DOCTYPE svg PUBLIC "-//W3C//DTD SVG 1.1//EN" "http://www.w3.org/Graphics/SVG/1.1/DTD/svg11.dtd">
<svg version="1.1" id="Capa_1" xmlns="http://www.w3.org/2000/svg" xmlns:xlink="http://www.w3.org/1999/xlink" x="0px" y="0px"
	 width="128px" height="128px" viewBox="0 0 128 128" enable-background="new 0 0 128 128" xml:space="preserve">
<path d="M62.097,65.668c6.719,0,12.162-5.444,12.162-12.16c0-6.716-5.44-12.16-12.163-12.16c-6.7,0-12.157,5.444-12.157,12.16
	C49.939,60.224,55.396,65.668,62.097,65.668L62.097,65.668z"/>
<path d="M111.316,20.091c-7.438-7.446-25.317-13.133-38.371-15.74C56.948,1.156,42.213,0.967,41.595,0.96l-0.137,12.8
	c0.141,0.001,14.203,0.191,28.981,3.144c15.906,3.176,28.267,8.673,31.822,12.234c12.868,12.879,7.938,45.028-1.111,61.502
	c-5.205,9.482-32.981,24.116-50.092,24.2c-1.926-0.028-6.493-0.21-7.69-2.327c-1.403-3.164-1.803-19.068-1.299-31.938
	c0.07-1.79-0.613-3.528-1.884-4.791c-1.271-1.262-2.994-1.921-4.803-1.854l-15.59,0.713l6.822-27.542l-12.425-3.077L5.307,79.887
	c-0.485,1.961-0.018,4.034,1.263,5.596c1.28,1.562,3.213,2.424,5.24,2.336l17.263-0.786c-0.219,11.608,0.143,25.975,3.083,31.194
	c2.301,4.094,7.422,8.496,18.765,8.496c0.065,0,0.133,0,0.198,0c20.768,0,53.395-16.072,61.249-30.379
	c5.883-10.709,9.774-24.947,10.415-38.473c0.546-11.555-1-27.299-11.469-37.777L111.316,20.091z"/>
</svg>
