<?xml version="1.0" encoding="utf-8"?>
<!-- Generated by IcoMoon.io -->
<!DOCTYPE svg PUBLIC "-//W3C//DTD SVG 1.1//EN" "http://www.w3.org/Graphics/SVG/1.1/DTD/svg11.dtd">
<svg version="1.1" xmlns="http://www.w3.org/2000/svg" xmlns:xlink="http://www.w3.org/1999/xlink" width="128" height="128" viewBox="0 0 128 128">
<g id="icomoon-ignore">
	<line stroke-width="1" x1="" y1="" x2="" y2="" stroke="#449FDB" opacity=""></line>
</g>
	<path d="M78.080 53.76c0-4.947-4.011-8.96-8.964-8.96-4.936 0-8.956 4.013-8.956 8.96s4.020 8.96 8.956 8.96c4.95 0 8.964-4.013 8.964-8.96z" fill="#000000"></path>
	<path d="M106.004 22.001c-5.345-7.078-12.009-12.412-27.159-15.438-15.764-3.15-30.267-3.336-30.876-3.342l-0.079 7.68c0.142 0.001 14.386 0.184 29.453 3.192 14.203 2.838 18.92 7.749 22.534 12.535 16.902 22.385 3.090 58.406-0.33 64.634-5.756 10.483-29.322 25.219-43.688 25.219-0.035 0-0.068 0-0.102 0-6.171 0-7.75-2.496-8.273-3.427-1.66-2.948-2.108-19.369-1.572-33.035 0.041-1.075-0.369-2.040-1.132-2.798-0.762-0.758-1.793-1.129-2.881-1.074l-17.834 0.832 13.978-30.112-6.967-3.227-16.64 35.866c-0.565 1.217-0.453 2.642 0.294 3.758 0.748 1.112 1.999 1.75 3.364 1.697l20.008-0.913c-0.248 9.688-0.282 27.501 2.689 32.773 1.964 3.496 6.154 7.34 14.966 7.34 0.047 0 0.093 0 0.139 0 17.654 0 43.349-16.392 50.382-29.202 4.599-8.374 19.009-47.424-0.274-72.957z" fill="#000000"></path>
</svg>
