<?xml version="1.0" encoding="utf-8"?>
<!-- Generated by IcoMoon.io -->
<!DOCTYPE svg PUBLIC "-//W3C//DTD SVG 1.1//EN" "http://www.w3.org/Graphics/SVG/1.1/DTD/svg11.dtd">
<svg version="1.1" xmlns="http://www.w3.org/2000/svg" xmlns:xlink="http://www.w3.org/1999/xlink" width="128" height="128" viewBox="0 0 128 128">
<g id="icomoon-ignore">
	<line stroke-width="1" x1="" y1="" x2="" y2="" stroke="#449FDB" opacity=""></line>
</g>
	<path d="M62.812 10.944c-28.937 0-52.48 23.543-52.48 52.48s23.543 52.48 52.48 52.48 52.48-23.543 52.48-52.48-23.542-52.48-52.48-52.48zM23.132 63.424c0-8.648 2.774-16.642 7.468-23.162l55.37 55.371c-6.518 4.695-14.511 7.47-23.158 7.47-21.917 0-39.68-17.774-39.68-39.68zM95.022 86.583l-55.37-55.37c6.518-4.695 14.513-7.469 23.16-7.469 21.918 0 39.68 17.761 39.68 39.68 0 8.645-2.775 16.64-7.47 23.159z" fill="#000000"></path>
</svg>
