<?xml version="1.0" encoding="utf-8"?>
<!-- Generated by IcoMoon.io -->
<!DOCTYPE svg PUBLIC "-//W3C//DTD SVG 1.1//EN" "http://www.w3.org/Graphics/SVG/1.1/DTD/svg11.dtd">
<svg version="1.1" xmlns="http://www.w3.org/2000/svg" xmlns:xlink="http://www.w3.org/1999/xlink" width="128" height="128" viewBox="0 0 128 128">
<g id="icomoon-ignore">
	<line stroke-width="1" x1="" y1="" x2="" y2="" stroke="#449FDB" opacity=""></line>
</g>
	<path d="M62.812 16.064c-26.114 0-47.36 21.247-47.36 47.36s21.245 47.36 47.36 47.36 47.36-21.247 47.36-47.36-21.245-47.36-47.36-47.36zM23.132 63.424c0-9.576 3.391-18.358 9.037-25.212l55.853 55.854c-6.854 5.646-15.635 9.039-25.21 9.039-21.918-0.001-39.68-17.775-39.68-39.681zM93.453 88.635l-55.853-55.854c6.854-5.646 15.636-9.038 25.212-9.038 21.918 0 39.68 17.761 39.68 39.68 0 9.573-3.392 18.357-9.039 25.212z" fill="#000000"></path>
</svg>
