<?xml version="1.0" encoding="utf-8"?>
<!-- Generated by IcoMoon.io -->
<!DOCTYPE svg PUBLIC "-//W3C//DTD SVG 1.1//EN" "http://www.w3.org/Graphics/SVG/1.1/DTD/svg11.dtd">
<svg version="1.1" xmlns="http://www.w3.org/2000/svg" xmlns:xlink="http://www.w3.org/1999/xlink" width="128" height="128" viewBox="0 0 128 128">
<g id="icomoon-ignore">
	<line stroke-width="1" x1="" y1="" x2="" y2="" stroke="#449FDB" opacity=""></line>
</g>
	<path d="M89.951 48.576c-2.13-3.672-3.212-7.991-2.868-12.523l-49.203 15.828c1.962 3.268 3.113 7.076 3.113 11.158 0 4.311-1.276 8.321-3.446 11.706l48.842 15.713c-0.034-4.497 1.312-8.732 3.684-12.261l-46.099-14.83 45.978-14.79z" fill="#000000"></path>
	<path d="M34.592 63.040c0 8.483-6.877 15.36-15.36 15.36s-15.36-6.877-15.36-15.36c0-8.483 6.877-15.36 15.36-15.36s15.36 6.877 15.36 15.36z" fill="#000000"></path>
	<path d="M124.16 38.4c0 8.483-6.877 15.36-15.36 15.36s-15.36-6.877-15.36-15.36c0-8.483 6.877-15.36 15.36-15.36s15.36 6.877 15.36 15.36z" fill="#000000"></path>
	<path d="M124.192 89.6c0 8.483-6.877 15.36-15.36 15.36s-15.36-6.877-15.36-15.36c0-8.483 6.877-15.36 15.36-15.36s15.36 6.877 15.36 15.36z" fill="#000000"></path>
</svg>
