<?xml version="1.0" encoding="utf-8"?>
<!-- Generated by IcoMoon.io -->
<!DOCTYPE svg PUBLIC "-//W3C//DTD SVG 1.1//EN" "http://www.w3.org/Graphics/SVG/1.1/DTD/svg11.dtd">
<svg version="1.1" xmlns="http://www.w3.org/2000/svg" xmlns:xlink="http://www.w3.org/1999/xlink" width="128" height="128" viewBox="0 0 128 128">
<g id="icomoon-ignore">
	<line stroke-width="1" x1="" y1="" x2="" y2="" stroke="#449FDB" opacity=""></line>
</g>
	<path d="M64.064 20.096c15.11 0 28.836 7.479 37.056 19.62v-23.076h7.68v35.2c0 2.121-1.719 4.48-3.84 4.48h-35.84v-7.68h27.999c-6.31-12.8-18.961-20.544-33.055-20.544-20.467 0-37.12 16.491-37.12 36.96s16.653 37.041 37.12 37.041c15.578 0 29.814-9.875 35.119-24.514 0.782-2.161 1.297-3.47 1.937-6.715v-4.307h7.68v5.19c-0.438 2.861-1.517 5.69-2.501 8.407-6.401 17.668-23.386 29.538-42.184 29.538-24.703 0-44.826-20.097-44.826-44.8s20.072-44.8 44.774-44.8z" fill="#000000"></path>
</svg>
