<?xml version="1.0" encoding="utf-8"?>
<!-- Generated by IcoMoon.io -->
<!DOCTYPE svg PUBLIC "-//W3C//DTD SVG 1.1//EN" "http://www.w3.org/Graphics/SVG/1.1/DTD/svg11.dtd">
<svg version="1.1" xmlns="http://www.w3.org/2000/svg" xmlns:xlink="http://www.w3.org/1999/xlink" width="128" height="128" viewBox="0 0 128 128">
<g id="icomoon-ignore">
	<line stroke-width="1" x1="" y1="" x2="" y2="" stroke="#449FDB" opacity=""></line>
</g>
	<path d="M63.936 17.536c-13.373 0-25.728 5.537-34.496 14.87v-18.326h-12.8v37.76c0 3.534 2.865 7.040 6.4 7.040h38.4v-12.8h-26.486c6.289-9.722 17.076-15.744 28.983-15.744 19.057 0 34.56 15.503 34.56 34.56s-15.503 34.56-34.56 34.56c-14.504 0-27.565-9.157-32.504-22.787-0.248-0.687-0.477-1.386-0.681-2.088l-0.032-1.622-12.799 0.119 0.264 4.090c0.346 1.295 0.754 2.593 1.212 3.862 6.767 18.677 24.667 31.226 44.539 31.226 26.115 0 47.36-21.245 47.36-47.36s-21.244-47.36-47.36-47.36z" fill="#000000"></path>
</svg>
