<?xml version="1.0" encoding="utf-8"?>
<!-- Generated by IcoMoon.io -->
<!DOCTYPE svg PUBLIC "-//W3C//DTD SVG 1.1//EN" "http://www.w3.org/Graphics/SVG/1.1/DTD/svg11.dtd">
<svg version="1.1" xmlns="http://www.w3.org/2000/svg" xmlns:xlink="http://www.w3.org/1999/xlink" width="128" height="128" viewBox="0 0 128 128">
<g id="icomoon-ignore">
	<line stroke-width="1" x1="" y1="" x2="" y2="" stroke="#449FDB" opacity=""></line>
</g>
	<path d="M100.897 40.91c-8.008-12.792-21.537-20.43-36.897-20.43v0h-0.017c-8.152 0.001-16.134 2.298-23.069 6.641-9.852 6.168-16.718 15.805-19.32 27.132-2.604 11.328-0.639 22.993 5.531 32.845 8.008 12.787 21.806 20.422 36.911 20.422 8.151 0 16.124-2.296 23.059-6.641 9.851-6.167 16.719-15.804 19.323-27.133 2.602-11.327 0.648-22.989-5.521-32.836zM83.018 94.372c-5.911 3.702-12.488 5.468-18.984 5.468-11.936 0-23.602-5.958-30.403-16.819-10.51-16.776-5.427-38.886 11.35-49.391 5.914-3.702 12.49-5.47 18.987-5.47 11.935 0 23.602 5.958 30.405 16.827 10.499 16.763 5.422 38.88-11.356 49.385z" fill="#000000"></path>
	<path d="M67.84 39.68h-7.68v27.77c0 1.705 1.093 3.206 2.729 3.685l16.6 4.862 2.181-7.371-13.83-4.052v-24.892z" fill="#000000"></path>
</svg>
