<?xml version="1.0" encoding="utf-8"?>
<!-- Generated by IcoMoon.io -->
<!DOCTYPE svg PUBLIC "-//W3C//DTD SVG 1.1//EN" "http://www.w3.org/Graphics/SVG/1.1/DTD/svg11.dtd">
<svg version="1.1" xmlns="http://www.w3.org/2000/svg" xmlns:xlink="http://www.w3.org/1999/xlink" width="128" height="128" viewBox="0 0 128 128">
<g id="icomoon-ignore">
	<line stroke-width="1" x1="" y1="" x2="" y2="" stroke="#449FDB" opacity=""></line>
</g>
	<path d="M105.222 38.193c-8.95-14.296-24.371-22.833-41.251-22.833h-0.004c-9.114 0.001-18.027 2.568-25.779 7.423-11.012 6.894-18.679 17.664-21.588 30.325s-0.714 25.697 6.185 36.709c8.947 14.29 24.369 22.824 41.249 22.824 9.112 0 18.028-2.566 25.778-7.421 11.011-6.893 18.678-17.663 21.587-30.326 2.909-12.66 0.716-25.694-6.177-36.7zM83.018 94.372c-5.911 3.702-12.488 5.468-18.984 5.468-11.936 0-23.602-5.958-30.403-16.819-10.51-16.776-5.427-38.886 11.35-49.391 5.914-3.702 12.49-5.47 18.987-5.47 11.935 0 23.602 5.958 30.405 16.827 10.499 16.763 5.422 38.88-11.356 49.385z" fill="#000000"></path>
	<path d="M69.12 35.84h-12.8v30.33c0 2.843 1.842 5.345 4.57 6.143l19.058 5.579 3.617-12.287-14.445-4.232v-25.533z" fill="#000000"></path>
</svg>
