<?xml version="1.0" encoding="utf-8"?>
<!-- Generated by IcoMoon.io -->
<!DOCTYPE svg PUBLIC "-//W3C//DTD SVG 1.1//EN" "http://www.w3.org/Graphics/SVG/1.1/DTD/svg11.dtd">
<svg version="1.1" xmlns="http://www.w3.org/2000/svg" xmlns:xlink="http://www.w3.org/1999/xlink" width="128" height="128" viewBox="0 0 128 128">
<g id="icomoon-ignore">
	<line stroke-width="1" x1="" y1="" x2="" y2="" stroke="#449FDB" opacity=""></line>
</g>
	<path d="M39.238 88.942c-6.015-5.98-15.735-5.995-21.733 0.001-5.989 6.003-5.985 15.727 0 21.727 5.993 5.983 15.712 5.997 21.738-0.001 5.992-5.997 5.988-15.72-0.005-21.727z" fill="#000000"></path>
	<path d="M121.384 98.587l-12.8-0.001v-6.4c0.002-40.22-32.727-72.945-72.96-72.947h-6.4v-12.8h6.4c47.291 0.003 85.763 38.469 85.76 85.749v6.4z" fill="#000000"></path>
	<path d="M96.584 98.586h-12.8v-6.4c0.001-26.546-21.604-48.145-48.161-48.147h-6.4l0.003-12.8h6.4c33.614 0.004 60.96 27.345 60.959 60.947v6.4z" fill="#000000"></path>
	<path d="M58.986 98.587l-0.002-6.4c-0.004-12.872-10.483-23.346-23.361-23.347h-6.4l0.003-12.8h6.4c19.931 0.002 36.152 16.216 36.159 36.143l0.002 6.4-12.8 0.004z" fill="#000000"></path>
</svg>
