<?xml version="1.0" encoding="utf-8"?>
<!-- Generated by IcoMoon.io -->
<!DOCTYPE svg PUBLIC "-//W3C//DTD SVG 1.1//EN" "http://www.w3.org/Graphics/SVG/1.1/DTD/svg11.dtd">
<svg version="1.1" xmlns="http://www.w3.org/2000/svg" xmlns:xlink="http://www.w3.org/1999/xlink" width="79" height="128" viewBox="0 0 79 128">
<g id="icomoon-ignore">
	<line stroke-width="1" x1="" y1="" x2="" y2="" stroke="#449FDB" opacity=""></line>
</g>
	<path d="M38.184 126.246c-0.002 0-0.005 0-0.006 0-12.829 0-23.272-10.25-23.277-22.853l-0.001-3.84 7.68-0.002 0.001 3.84c0.003 8.367 7 15.174 15.598 15.174 0.002 0 0.002 0 0.004 0 4.657 0 9.988-2.913 13.27-7.249 1.395-1.843 3.571-5.519 2.469-9.418-2.749-9.729-10.692-22.355-18.372-34.566-8.55-13.596-17.393-27.654-20.197-39.287-1.295-5.372 0.268-11.383 4.289-16.489 4.762-6.047 11.997-9.802 18.881-9.802 0.001-0.001 0.004 0 0.008 0 6.199 0 12.032 2.365 16.424 6.662 4.416 4.32 6.848 10.070 6.848 16.192v3.84h-7.68v-3.84c0-4.038-1.611-7.84-4.538-10.703-2.948-2.884-6.875-4.472-11.054-4.472-0.001 0-0.002 0-0.004 0 0 0 0 0-0.001 0-4.517 0-9.56 2.698-12.85 6.875-2.556 3.245-3.597 6.867-2.856 9.937 2.509 10.409 11.012 23.926 19.232 36.998 8.337 13.256 16.21 25.774 19.26 36.568 1.487 5.262 0.16 10.994-3.736 16.141-4.732 6.254-12.344 10.294-19.392 10.295z" fill="#000000"></path>
</svg>
