<?xml version="1.0" encoding="utf-8"?>
<!-- Generated by IcoMoon.io -->
<!DOCTYPE svg PUBLIC "-//W3C//DTD SVG 1.1//EN" "http://www.w3.org/Graphics/SVG/1.1/DTD/svg11.dtd">
<svg version="1.1" xmlns="http://www.w3.org/2000/svg" xmlns:xlink="http://www.w3.org/1999/xlink" width="128" height="128" viewBox="0 0 128 128">
<g id="icomoon-ignore">
	<line stroke-width="1" x1="" y1="" x2="" y2="" stroke="#449FDB" opacity=""></line>
</g>
	<path d="M41.216 40.32h12.8v48.64h-12.8v-48.64z" fill="#000000"></path>
	<path d="M23.040 50.56h12.8v38.4h-12.8v-38.4z" fill="#000000"></path>
	<path d="M4.224 63.36h12.8v25.6h-12.8v-25.6z" fill="#000000"></path>
	<path d="M72.924 43.599c13.797 0 20.401 7.338 23.332 20.401 2.162-1.972 6.495-4.59 10.398-4.59 1.133 0 2.231 0.221 3.227 0.744 6.21 3.251 5.225 9.762 5.225 15.671h-42.181v-32.225zM72.924 30.799c-7.068 0-12.8 5.732-12.8 12.8v32.226c0 7.068 5.732 12.8 12.8 12.8h42.182c7.068 0 12.8-5.732 12.8-12.8 0-0.626 0.014-1.26 0.027-1.894 0.119-6.031 0.367-18.582-12.114-25.116-2.792-1.462-5.876-2.204-9.165-2.204-1.142 0-2.273 0.092-3.388 0.262-7.736-12.941-20.146-16.074-30.342-16.074v0z" fill="#000000"></path>
</svg>
