<?xml version="1.0" encoding="utf-8"?>
<!-- Generated by IcoMoon.io -->
<!DOCTYPE svg PUBLIC "-//W3C//DTD SVG 1.1//EN" "http://www.w3.org/Graphics/SVG/1.1/DTD/svg11.dtd">
<svg version="1.1" xmlns="http://www.w3.org/2000/svg" xmlns:xlink="http://www.w3.org/1999/xlink" width="128" height="128" viewBox="0 0 128 128">
<g id="icomoon-ignore">
	<line stroke-width="1" x1="" y1="" x2="" y2="" stroke="#449FDB" opacity=""></line>
</g>
	<path d="M45.288 37.12h7.68v48.64h-7.68v-48.64z" fill="#000000"></path>
	<path d="M30.952 45.952h7.68v39.68h-7.68v-39.68z" fill="#000000"></path>
	<path d="M16.872 64h7.68v21.76h-7.68v-21.76z" fill="#000000"></path>
	<path d="M115.549 56.887c-4.59-2.406-10.061-2.272-14.993 0.196-5.375-14.331-18.433-22.139-37.349-22.139-2.121 0-3.84 1.719-3.84 3.84v43.136c0 2.121 1.719 3.84 3.84 3.84h57.345c2.121 0 3.84-1.719 3.84-3.84 0-0.885 0.018-1.797 0.034-2.726 0.141-7.378 0.334-17.481-8.878-22.306zM116.765 78.080h-49.718v-35.327c11.336 0.785 24.015 5.413 27.582 21.298 0.298 1.336 1.288 2.412 2.593 2.821 1.307 0.412 2.731 0.097 3.743-0.827 2.218-2.028 5.013-3.238 7.474-3.238 1.234 0 2.427 0.297 3.547 0.883 4.461 2.336 4.881 7.226 4.779 14.39z" fill="#000000"></path>
	<path d="M3.048 57.6h7.68v28.16h-7.68v-28.16z" fill="#000000"></path>
</svg>
