<?xml version="1.0" encoding="utf-8"?>
<!-- Generated by IcoMoon.io -->
<!DOCTYPE svg PUBLIC "-//W3C//DTD SVG 1.1//EN" "http://www.w3.org/Graphics/SVG/1.1/DTD/svg11.dtd">
<svg version="1.1" xmlns="http://www.w3.org/2000/svg" xmlns:xlink="http://www.w3.org/1999/xlink" width="128" height="128" viewBox="0 0 128 128">
<g id="icomoon-ignore">
	<line stroke-width="1" x1="" y1="" x2="" y2="" stroke="#449FDB" opacity=""></line>
</g>
	<path d="M110.35 92.16h-9.23v-15.967c0-3.543-1.189-5.793-4.768-5.793h-6.351c6.931-12.8 13.035-23.564 12.955-33.188-0.186-23.116-14.374-37.212-37.029-37.212h-0.44c-11.418 0-21.090 3.124-27.969 9.869-6.967 6.83-10.6 16.426-10.506 27.707 0.073 8.92 5.801 20.024 12.669 32.824h-6.063c-3.58 0-6.737 2.25-6.737 5.793v15.967h-5.967c-3.579 0-8.113 2.306-8.113 5.851v21.907c0 3.544 4.534 8.081 8.113 8.081h89.439c3.579 0.001 4.849-4.536 4.849-8.079v-21.909c0-3.544-1.27-5.851-4.85-5.851zM46.637 18.972c4.43-4.342 10.984-6.172 18.954-6.172h0.337c10.889 0 23.903 3.734 24.067 24.189 0.077 9.126-10.68 25.915-14.728 32.342-2.437 3.866-3.016 4.645-3.173 6.455-0.155 1.791 0.456 3.786 1.683 5.111s2.959 2.303 4.774 2.303h9.769v8.96h-48.64v-8.96h11.117c1.788 0 3.497-1.028 4.722-2.316 1.225-1.29 1.857-3.173 1.747-4.939-0.114-1.819-0.646-2.79-3.206-7.105-3.834-6.463-14.020-23.473-14.085-31.74-0.065-7.739 2.239-13.791 6.662-18.127zM102.4 115.2h-75.52v-10.24h75.52v10.24z" fill="#000000"></path>
</svg>
