<?xml version="1.0" encoding="utf-8"?>
<!-- Generated by IcoMoon.io -->
<!DOCTYPE svg PUBLIC "-//W3C//DTD SVG 1.1//EN" "http://www.w3.org/Graphics/SVG/1.1/DTD/svg11.dtd">
<svg version="1.1" xmlns="http://www.w3.org/2000/svg" xmlns:xlink="http://www.w3.org/1999/xlink" width="128" height="128" viewBox="0 0 128 128">
<g id="icomoon-ignore">
	<line stroke-width="1" x1="" y1="" x2="" y2="" stroke="#449FDB" opacity=""></line>
</g>
	<path d="M107.52 101.76h-8.96v-17.152c0-2.121-1.463-3.968-3.584-3.968h-9.507c6.775-15.36 13.553-28.123 13.468-38.377-0.183-22.848-14.206-38.551-34.102-38.551h-0.319c-10.318 0-19.573 4.115-26.057 11.704-6.147 7.195-9.485 16.809-9.398 27.359 0.084 10.68 9.45 27.625 14.085 37.865h-10.123c-2.121 0-3.584 1.846-3.584 3.968v17.152h-8.96c-2.121 0-3.84 1.807-3.84 3.928v18.56c0 2.121 1.719 3.752 3.84 3.752h87.040c2.121 0 3.84-1.629 3.84-3.752v-18.56c0-2.121-1.719-3.928-3.84-3.928zM37.12 88.32h11.776c1.060 0 2.072-0.374 2.798-1.147 0.726-0.772 1.101-1.777 1.035-2.834-0.059-0.957-0.282-1.454-2.405-6.345-4.042-9.307-13.508-26.103-13.581-35.32-0.072-8.703 2.612-16.486 7.557-22.273 5.088-5.956 12.1-9.009 20.278-9.009h0.257c18.080 0 26.298 15.473 26.422 30.998 0.086 10.261-9.603 27.854-13.251 36.393-1.786 4.18-2.015 4.667-2.090 5.545-0.091 1.071 0.27 2.046 0.997 2.837 0.728 0.792 1.754 1.156 2.83 1.156h11.136v13.44h-53.76v-13.44zM103.68 120.32h-79.36v-10.88h79.36v10.88z" fill="#000000"></path>
</svg>
