<?xml version="1.0" encoding="utf-8"?>
<!-- Generated by IcoMoon.io -->
<!DOCTYPE svg PUBLIC "-//W3C//DTD SVG 1.1//EN" "http://www.w3.org/Graphics/SVG/1.1/DTD/svg11.dtd">
<svg version="1.1" xmlns="http://www.w3.org/2000/svg" xmlns:xlink="http://www.w3.org/1999/xlink" width="128" height="128" viewBox="0 0 128 128">
<g id="icomoon-ignore">
	<line stroke-width="1" x1="" y1="" x2="" y2="" stroke="#449FDB" opacity=""></line>
</g>
	<path d="M103.68 0h-79.36c-7.068 0-12.8 5.732-12.8 12.8v102.4c0 7.068 5.732 12.8 12.8 12.8h79.36c7.068 0 12.8-5.732 12.8-12.8v-102.4c0-7.068-5.732-12.8-12.8-12.8zM103.68 115.2h-79.36v-102.4h79.36v102.4z" fill="#000000"></path>
	<path d="M92.16 30.72c0-3.535-2.865-6.4-6.4-6.4h-43.52c-3.535 0-6.4 2.865-6.4 6.4v66.56c0 3.535 2.865 6.4 6.4 6.4h43.52c3.535 0 6.4-2.865 6.4-6.4v-66.56zM48.64 37.12h30.72v53.76h-30.72v-53.76z" fill="#000000"></path>
</svg>
