<?xml version="1.0" encoding="utf-8"?>
<!-- Generated by IcoMoon.io -->
<!DOCTYPE svg PUBLIC "-//W3C//DTD SVG 1.1//EN" "http://www.w3.org/Graphics/SVG/1.1/DTD/svg11.dtd">
<svg version="1.1" xmlns="http://www.w3.org/2000/svg" xmlns:xlink="http://www.w3.org/1999/xlink" width="128" height="128" viewBox="0 0 128 128">
<g id="icomoon-ignore">
	<line stroke-width="1" x1="" y1="" x2="" y2="" stroke="#449FDB" opacity=""></line>
</g>
	<path d="M113.92 8.96c0-4.241-3.439-7.68-7.68-7.68h-84.48c-4.241 0-7.68 3.439-7.68 7.68v110.080c0 4.241 3.439 7.68 7.68 7.68h84.48c4.241 0 7.68-3.439 7.68-7.68v-110.080zM106.24 119.040h-84.48v-110.080h84.48v110.080z" fill="#000000"></path>
	<path d="M38.398 110.080l51.204-0.002c4.241 0 7.679-3.439 7.679-7.68v-76.797c0-2.038-0.808-3.99-2.249-5.431-1.44-1.44-3.393-2.249-5.428-2.249h-51.204c-4.241 0-7.679 3.441-7.679 7.683v76.797c0 2.038 0.808 3.99 2.249 5.431 1.44 1.44 3.392 2.249 5.428 2.249zM38.4 25.6h51.2v76.798l-51.2 0.002v-76.8z" fill="#000000"></path>
</svg>
