<?xml version="1.0" encoding="utf-8"?>
<!-- Generator: Adobe Illustrator 16.0.0, SVG Export Plug-In . SVG Version: 6.00 Build 0)  -->
<!DOCTYPE svg PUBLIC "-//W3C//DTD SVG 1.1//EN" "http://www.w3.org/Graphics/SVG/1.1/DTD/svg11.dtd">
<svg version="1.1" id="Capa_1" xmlns="http://www.w3.org/2000/svg" xmlns:xlink="http://www.w3.org/1999/xlink" x="0px" y="0px"
	 width="128px" height="128px" viewBox="0 0 128 128" enable-background="new 0 0 128 128" xml:space="preserve">
<path d="M104.96,36.347v-30.2c0-3.499-2.866-6.146-6.399-6.146H29.44c-3.534,0-6.4,2.648-6.4,6.146v30.2
	c0,2.607,0.026,10.148,30.018,27.432C23.065,81.062,23.04,88.604,23.04,91.21v30.2c0,3.499,2.866,6.59,6.4,6.59h69.121
	c3.533,0,6.399-3.091,6.399-6.59v-30.2c0-2.592-0.024-10.091-30.042-27.432C104.936,46.438,104.96,38.938,104.96,36.347z
	 M92.16,91.958v14.498H35.84V91.94c2.159-3.459,14.636-12.183,28.156-19.741c13.508,7.572,25.982,16.298,28.164,19.757V91.958z
	 M92.16,35.599c-2.18,3.456-14.653,12.181-28.165,19.757C50.476,47.797,37.998,39.076,35.84,35.615V21.544h56.32V35.599
	L92.16,35.599z"/>
</svg>
