<?xml version="1.0" encoding="utf-8"?>
<!-- Generated by IcoMoon.io -->
<!DOCTYPE svg PUBLIC "-//W3C//DTD SVG 1.1//EN" "http://www.w3.org/Graphics/SVG/1.1/DTD/svg11.dtd">
<svg version="1.1" xmlns="http://www.w3.org/2000/svg" xmlns:xlink="http://www.w3.org/1999/xlink" width="128" height="128" viewBox="0 0 128 128">
<g id="icomoon-ignore">
	<line stroke-width="1" x1="" y1="" x2="" y2="" stroke="#449FDB" opacity=""></line>
</g>
	<path d="M121.6 44.8h-115.2c-3.534 0-6.4 2.245-6.4 5.781v70.4c0 1.698 0.674 3.636 1.877 4.837 1.199 1.198 2.828 2.182 4.524 2.182 0.001 0 0.004 0 0.005 0h115.2c3.533-0.002 6.395-3.578 6.395-7.11v-70.31c0-3.534-2.866-5.779-6.4-5.779zM115.2 115.2h-102.4v-57.6h102.4v57.6z" fill="#000000"></path>
	<path d="M47.36 32.113c0-4.886 3.77-9.263 8.375-10.273 1.097-0.079 5.174-0.168 8.415-0.205 3.354 0.058 7.206 0.188 8.401 0.303 4.1 1.142 6.81 5.377 6.81 10.175v7.567h12.8v-7.567c0-10.872-6.68-20.193-16.698-22.665-0.641-0.159-1.675-0.454-11.189-0.613-0.060-0.004-0.041-0.002-0.102-0.002-8.924 0.105-10.188 0.296-10.72 0.399-10.61 2.078-18.892 11.914-18.892 22.881v7.567h12.8v-7.567z" fill="#000000"></path>
</svg>
