<?xml version="1.0" encoding="utf-8"?>
<!-- Generated by IcoMoon.io -->
<!DOCTYPE svg PUBLIC "-//W3C//DTD SVG 1.1//EN" "http://www.w3.org/Graphics/SVG/1.1/DTD/svg11.dtd">
<svg version="1.1" xmlns="http://www.w3.org/2000/svg" xmlns:xlink="http://www.w3.org/1999/xlink" width="128" height="128" viewBox="0 0 128 128">
<g id="icomoon-ignore">
	<line stroke-width="1" x1="" y1="" x2="" y2="" stroke="#449FDB" opacity=""></line>
</g>
	<path d="M102.308 61.44h-76.617c-0.001 0-0.001 0-0.003 0-2.87 0-5.57-1.137-7.603-3.185-2.042-2.056-3.165-4.787-3.165-7.697 0-6.001 4.832-10.879 10.772-10.879h76.613c0.001 0 0.004 0 0.005 0 4.933 0 9.569-1.943 13.055-5.455 3.478-3.503 5.393-8.156 5.393-13.106 0.002-10.232-8.275-18.559-18.45-18.559h-38.308v7.68h38.307c5.941 0 10.774 4.877 10.774 10.875 0 2.91-1.124 5.647-3.165 7.706-2.033 2.048-4.732 3.18-7.605 3.18 0 0-0.001 0-0.002 0h-76.616c-10.175 0-18.453 8.321-18.453 18.555 0 4.949 1.916 9.609 5.393 13.114 3.487 3.512 8.123 5.451 13.055 5.451 0.001 0 0.004 0 0.005 0h76.614c5.941 0 10.774 4.876 10.774 10.875 0 2.908-1.124 5.647-3.165 7.704-2.033 2.048-4.734 3.181-7.605 3.181 0 0-0.001 0-0.002 0h-76.616c-10.175 0-18.453 8.321-18.453 18.555 0 4.948 1.916 9.609 5.393 13.114 3.487 3.512 8.123 5.451 13.055 5.451 0.001 0 0.004 0 0.005 0h38.308v-7.68h-38.309c-0.001 0-0.001 0-0.003 0-2.87 0-5.57-1.137-7.603-3.185-2.042-2.056-3.165-4.787-3.165-7.697 0-6.001 4.832-10.879 10.772-10.879h76.613c0.001 0 0.004 0 0.005 0 4.933 0 9.569-1.943 13.055-5.455 3.478-3.505 5.393-8.157 5.393-13.106 0.002-10.234-8.275-18.559-18.45-18.559z" fill="#000000"></path>
</svg>
