<?xml version="1.0" encoding="utf-8"?>
<!-- Generated by IcoMoon.io -->
<!DOCTYPE svg PUBLIC "-//W3C//DTD SVG 1.1//EN" "http://www.w3.org/Graphics/SVG/1.1/DTD/svg11.dtd">
<svg version="1.1" xmlns="http://www.w3.org/2000/svg" xmlns:xlink="http://www.w3.org/1999/xlink" width="128" height="128" viewBox="0 0 128 128">
<g id="icomoon-ignore">
	<line stroke-width="1" x1="" y1="" x2="" y2="" stroke="#449FDB" opacity=""></line>
</g>
	<path d="M21.715 127.985c-5.532 0-10.734-2.17-14.645-6.111-3.898-3.927-6.044-9.143-6.044-14.687 0-11.469 9.283-20.801 20.694-20.802h84.079c2.099 0 4.074-0.827 5.563-2.327 1.501-1.513 2.33-3.528 2.33-5.67 0-4.412-3.542-8.001-7.896-8.002h-84.073c-0.001 0-0.004 0-0.006 0-5.532 0-10.734-2.17-14.645-6.111-3.898-3.927-6.044-9.143-6.044-14.687 0-11.469 9.283-20.801 20.694-20.802h84.079c2.099 0 4.074-0.827 5.563-2.326 1.503-1.514 2.33-3.528 2.33-5.672 0-4.411-3.543-8.001-7.896-8.002h-41.797v-12.8h41.797c11.412 0.004 20.695 9.335 20.695 20.802 0 5.544-2.147 10.76-6.044 14.688-3.91 3.94-9.112 6.109-14.647 6.109-0.001 0-0.004 0-0.006 0h-84.072c-4.353 0.001-7.895 3.59-7.895 8.002 0 2.143 0.827 4.157 2.33 5.67 1.489 1.502 3.464 2.327 5.562 2.327h84.079c11.412 0.001 20.695 9.334 20.695 20.803 0 5.544-2.147 10.758-6.044 14.687-3.91 3.941-9.112 6.111-14.647 6.111-0.001 0-0.004 0-0.006 0h-84.073c-4.353 0.001-7.895 3.59-7.895 8.002 0 2.143 0.827 4.157 2.33 5.67 1.489 1.501 3.464 2.327 5.562 2.327h42.281v12.8h-42.277c-0.003 0-0.005 0-0.008 0z" fill="#000000"></path>
</svg>
