<?xml version="1.0" encoding="utf-8"?>
<!-- Generated by IcoMoon.io -->
<!DOCTYPE svg PUBLIC "-//W3C//DTD SVG 1.1//EN" "http://www.w3.org/Graphics/SVG/1.1/DTD/svg11.dtd">
<svg version="1.1" xmlns="http://www.w3.org/2000/svg" xmlns:xlink="http://www.w3.org/1999/xlink" width="128" height="128" viewBox="0 0 128 128">
<g id="icomoon-ignore">
	<line stroke-width="1" x1="" y1="" x2="" y2="" stroke="#449FDB" opacity=""></line>
</g>
	<path d="M88.18 91.689c-3.836-4.451-9.33-6.9-15.47-6.9-0.554 0-1.179 0.002-1.866 0.006-0.794 0.004-1.5 0.008-2.449 0.008-11.052 0-17.195-0.769-19.755-1.444v-10.399h14.122c5.569 0 9.846-0.302 10.138-0.302 11.489-0.073 20.183-8.943 20.229-20.439 0.046-11.413-8.791-20.555-20.119-20.717-2.212-0.029-6.432-0.083-12.89-0.083-3.828 0-7.639-0.031-11.479-0.026v-10.441c0-4.509-1.871-8.777-5.073-12.032-3.861-3.925-9.845-6.175-16.267-6.175-6.367 0-12.256 2.231-16.083 6.122-3.205 3.258-4.968 7.537-4.933 12.068l-0.128 67.181c-0.093 9.043 3.101 17.114 9.252 23.341 9.939 10.063 26.664 14.957 51.133 14.957 1.723 0 3.206 0.16 4.382 0.141 0.649-0.009 1.184 0.165 1.591 0.165h0.264c11.442 0 20.404-9.356 20.404-21.065 0-5.146-1.777-10.223-5.002-13.966zM72.778 113.92c-0.023 0-0.046 0-0.069 0-0.061 0-0.127 0-0.195 0-1.161 0-3.26-0.122-5.975-0.122-14.79 0-47.889-1.921-47.594-25.509l0.118-67.36c-0.059-3.579 4.206-5.362 8.321-5.362 4.16 0 8.456 1.777 8.456 5.316v23.342c0 0 13.185-0.045 24.246-0.045 5.531 0 10.4 0.011 12.827 0.045 9.896 0.141 10.067 15.268-0.042 15.331-0.29 0.001-4.385 0.002-9.915 0.002-11.062 0-27.116-0.002-27.116-0.002s0 18.716 0 28.879c0 8.595 21.080 9.167 32.556 9.167 1.764 0 3.212 0.17 4.401 0.17 10.423 0 9.928 16.147-0.018 16.147z" fill="#000000"></path>
</svg>
