<?xml version="1.0" encoding="utf-8"?>
<!-- Generator: Adobe Illustrator 16.0.0, SVG Export Plug-In . SVG Version: 6.00 Build 0)  -->
<!DOCTYPE svg PUBLIC "-//W3C//DTD SVG 1.1//EN" "http://www.w3.org/Graphics/SVG/1.1/DTD/svg11.dtd">
<svg version="1.1" id="Capa_1" xmlns="http://www.w3.org/2000/svg" xmlns:xlink="http://www.w3.org/1999/xlink" x="0px" y="0px"
	 width="128px" height="128px" viewBox="0 0 128 128" enable-background="new 0 0 128 128" xml:space="preserve">
<path d="M62.807,69.221c-26.468,0-48,22.922-48,51.1c0,4.24,3.439,7.68,7.68,7.68h80.64c4.241,0,7.68-3.439,7.68-7.68
	C110.807,92.143,89.275,69.221,62.807,69.221z M22.487,120.32c0-23.983,18.056-43.42,40.32-43.42c22.263,0,40.32,19.437,40.32,43.42
	H22.487z"/>
<path d="M64.036,61.336c13.764,0,24.961-11.674,24.961-26.024c0-14.349-11.198-26.022-24.961-26.022
	c-13.763,0-24.959,11.674-24.959,26.022C39.077,49.662,50.273,61.336,64.036,61.336z M64.036,16.97
	c9.546,0,17.28,8.209,17.28,18.342c0,10.135-7.734,18.344-17.28,18.344c-9.544,0-17.279-8.209-17.279-18.344
	C46.757,25.178,54.492,16.97,64.036,16.97z"/>
</svg>
