<?xml version="1.0" encoding="utf-8"?>
<!-- Generated by IcoMoon.io -->
<!DOCTYPE svg PUBLIC "-//W3C//DTD SVG 1.1//EN" "http://www.w3.org/Graphics/SVG/1.1/DTD/svg11.dtd">
<svg version="1.1" xmlns="http://www.w3.org/2000/svg" xmlns:xlink="http://www.w3.org/1999/xlink" width="128" height="128" viewBox="0 0 128 128">
<g id="icomoon-ignore">
	<line stroke-width="1" x1="" y1="" x2="" y2="" stroke="#449FDB" opacity=""></line>
</g>
	<path d="M93.147 54.264c-0.063-0.008-0.123-0.022-0.186-0.027-1.645-0.179-3.323-0.282-5.025-0.282-11.38 0.001-21.603 4.072-28.788 11.442-0.054 0.054-0.104 0.126-0.156 0.186 4.352 1.587 8.424 3.725 12.126 6.377 4.406-3.191 10.098-4.648 16.827-4.648 16.462 0 26.833 10.73 26.87 27.319 0.001 0.009 0.002 0.034 0.002 0.088h-26.305c1.468 3.858 2.51 7.68 3.094 12.8h23.212c7.037 0 12.745-6.118 12.795-13.146-0.050-11.068-3.905-21.681-10.879-28.837-6.069-6.228-14.312-10.189-23.585-11.273z" fill="#000000"></path>
	<path d="M39.686 75.046c-11.383 0-21.608 4.060-28.795 11.433-7.023 7.205-10.892 17.442-10.892 28.593 0 7.068 5.732 12.928 12.8 12.928h53.76c7.068 0 12.8-5.86 12.8-12.928 0-11.15-3.866-21.385-10.884-28.59-7.183-7.374-17.408-11.436-28.79-11.436zM12.8 115.2c0-16.64 10.392-27.098 26.886-27.098 16.493 0 26.874 10.458 26.874 27.098h-53.76z" fill="#000000"></path>
	<path d="M38.399 32.035c6.011 0 10.881 5.146 10.881 11.486 0 6.344-4.87 11.486-10.881 11.486-6.008 0-10.879-5.142-10.879-11.486 0-6.34 4.87-11.486 10.879-11.486zM38.399 20.515c-12.351 0-22.399 10.321-22.399 23.006s10.048 23.006 22.399 23.006c12.352 0 22.401-10.321 22.401-23.005s-10.049-23.006-22.401-23.006v0z" fill="#000000"></path>
	<path d="M87.039 11.555c6.011 0 10.881 5.146 10.881 11.485 0 6.342-4.87 11.486-10.881 11.486-6.008 0-10.879-5.143-10.879-11.486 0-6.34 4.87-11.486 10.879-11.486zM87.039 0.035c-12.351 0-22.399 10.321-22.399 23.006s10.048 23.006 22.399 23.006c12.352 0 22.401-10.321 22.401-23.006s-10.049-23.006-22.401-23.006v0z" fill="#000000"></path>
</svg>
