<?xml version="1.0" encoding="utf-8"?>
<!-- Generator: Adobe Illustrator 16.0.0, SVG Export Plug-In . SVG Version: 6.00 Build 0)  -->
<!DOCTYPE svg PUBLIC "-//W3C//DTD SVG 1.1//EN" "http://www.w3.org/Graphics/SVG/1.1/DTD/svg11.dtd">
<svg version="1.1" id="Capa_1" xmlns="http://www.w3.org/2000/svg" xmlns:xlink="http://www.w3.org/1999/xlink" x="0px" y="0px"
	 width="128px" height="128px" viewBox="0 0 128 128" enable-background="new 0 0 128 128" xml:space="preserve">
<path d="M44.8,93.439H18.688c0-16.641,13.183-31.197,29.44-31.197c9.125,0,17.278,4.316,22.679,11.998h9.161
	c-6.495-11.52-18.336-19.487-31.84-19.487c-20.467,0-37.12,17.317-37.12,39.039c0,4.239,3.441,7.328,7.68,7.328H44.8V93.439z"/>
<path d="M48.126,5.388c-11.19,0-20.293,9.453-20.293,21.071c0,11.62,9.102,21.073,20.293,21.073
	c11.192,0,20.297-9.453,20.297-21.073C68.423,14.841,59.318,5.388,48.126,5.388z M48.126,39.852c-6.97,0-12.613-5.983-12.613-13.393
	c0-7.392,5.642-13.391,12.613-13.391c6.975,0,12.617,5.999,12.617,13.391C60.743,33.869,55.101,39.852,48.126,39.852z"/>
<path d="M52.968,81.128v21.761h66.56V81.128H52.968z M113.128,96.488h-53.76v-8.961h53.76V96.488z"/>
</svg>
