<?xml version="1.0" encoding="utf-8"?>
<!-- Generated by IcoMoon.io -->
<!DOCTYPE svg PUBLIC "-//W3C//DTD SVG 1.1//EN" "http://www.w3.org/Graphics/SVG/1.1/DTD/svg11.dtd">
<svg version="1.1" xmlns="http://www.w3.org/2000/svg" xmlns:xlink="http://www.w3.org/1999/xlink" width="128" height="128" viewBox="0 0 128 128">
<g id="icomoon-ignore">
	<line stroke-width="1" x1="" y1="" x2="" y2="" stroke="#449FDB" opacity=""></line>
</g>
	<path d="M24.48 107.52h31.84v-12.8h-31.84c0 0 0.013 0 0.014 0h-0.014c0-16.64 10.392-28.188 26.886-28.188 13.288 0 22.597 7.708 25.719 19.228h13.037c-1.525-7.68-4.928-14.586-9.965-20.005-7.183-7.73-17.408-11.814-28.79-11.814s-21.608 4.346-28.795 12.072c-6.998 7.531-10.861 17.38-10.889 29.023 0.026 7.38 5.745 12.485 12.796 12.485z" fill="#000000"></path>
	<path d="M66.72 92.16v15.36h53.76v-15.36z" fill="#000000"></path>
	<path d="M51.039 12.63c6.365 0 11.521 5.448 11.521 12.16 0 6.718-5.156 12.16-11.521 12.16-6.363 0-11.519-5.442-11.519-12.16 0-6.712 5.156-12.16 11.519-12.16zM51.039 1.11c-12.704 0-23.039 10.623-23.039 23.68s10.335 23.68 23.039 23.68c12.705 0 23.041-10.623 23.041-23.68s-10.336-23.68-23.041-23.68v0z" fill="#000000"></path>
</svg>
