<?xml version="1.0" encoding="utf-8"?>
<!-- Generated by IcoMoon.io -->
<!DOCTYPE svg PUBLIC "-//W3C//DTD SVG 1.1//EN" "http://www.w3.org/Graphics/SVG/1.1/DTD/svg11.dtd">
<svg version="1.1" xmlns="http://www.w3.org/2000/svg" xmlns:xlink="http://www.w3.org/1999/xlink" width="128" height="128" viewBox="0 0 128 128">
<g id="icomoon-ignore">
	<line stroke-width="1" x1="" y1="" x2="" y2="" stroke="#449FDB" opacity=""></line>
</g>
	<path d="M63.654 63.616c-28.906 0-49.094 21.247-49.094 51.392 0 7.070 5.73 12.992 12.8 12.992h72.576c7.070 0 12.8-5.922 12.8-12.992 0-30.145-20.183-51.392-49.082-51.392zM27.36 115.2c0-23.040 14.030-38.4 36.294-38.4s36.282 15.36 36.282 38.4h-72.576z" fill="#000000"></path>
	<path d="M63.822-0.256c-15.526 0-28.159 13.056-28.159 29.105s12.632 29.105 28.159 29.105c15.528 0 28.161-13.056 28.161-29.105s-12.632-29.105-28.161-29.105zM63.822 45.153c-8.483 0-15.359-7.295-15.359-16.305 0-9.009 6.876-16.305 15.359-16.305 8.485 0 15.361 7.296 15.361 16.305 0 9.010-6.876 16.305-15.361 16.305z" fill="#000000"></path>
</svg>
