<?xml version="1.0" encoding="utf-8"?>
<!-- Generator: Adobe Illustrator 16.0.0, SVG Export Plug-In . SVG Version: 6.00 Build 0)  -->
<!DOCTYPE svg PUBLIC "-//W3C//DTD SVG 1.1//EN" "http://www.w3.org/Graphics/SVG/1.1/DTD/svg11.dtd">
<svg version="1.1" id="Capa_1" xmlns="http://www.w3.org/2000/svg" xmlns:xlink="http://www.w3.org/1999/xlink" x="0px" y="0px"
	 width="128px" height="128px" viewBox="0 0 128 128" enable-background="new 0 0 128 128" xml:space="preserve">
<path d="M63.995,57.647c-9.328-4.21-20.186-3.96-29.39,0.447c-7.915,3.79-14.267,10.435-17.962,18.369
	c-1.94,4.166-3.147,8.661-3.587,13.234c-0.216,2.248-0.52,4.77,0.386,6.904c0.852,2.004,2.606,3.513,4.676,4.154
	c1.717,0.532,3.644,0.363,5.422,0.363c2.925,0,5.85,0,8.775,0c4.588,0,9.176,0,13.765,0v-7.68H20.544
	c0-9.076,4.016-17.982,10.827-23.983c7.375-6.498,17.699-8.955,27.126-5.884C60.33,61.597,62.163,59.622,63.995,57.647z"/>
<path d="M49.981,5.083c-9.139,0-17.096,6.55-19.507,15.256c-2.459,8.881,1.087,18.782,8.902,23.776
	c7.682,4.909,17.856,3.787,24.398-2.515c6.656-6.412,8.363-16.788,4.27-25.05C64.663,9.724,57.656,5.083,49.981,5.083z
	 M49.981,39.547c-9.777,0-15.262-11.192-11.218-19.521c1.912-3.938,5.74-6.82,10.143-7.215c4.432-0.397,8.708,1.77,11.23,5.393
	c2.845,4.087,3.239,9.613,1.067,14.086C59.123,36.574,54.794,39.547,49.981,39.547z"/>
<path d="M120.393,82.895l-9.57-0.963c1.549-1.896,3.098-3.793,4.647-5.69c0.54-0.661,1.116-1.306,1.626-1.991
	c1.091-1.329,0.601-2.918-0.496-4.015c-2.013-2.012-4.025-4.024-6.039-6.037c-0.591-0.591-1.18-1.344-1.885-1.81
	c-1.267-0.911-2.667-0.353-3.729,0.514c-2.444,1.997-4.888,3.993-7.332,5.99c-0.247-2.423-0.493-4.846-0.74-7.269
	c-0.236-2.323-0.238-5.353-3.388-5.353c-2.818,0-5.638,0-8.457,0c-0.826,0-1.696-0.08-2.52,0.016
	c-1.688,0.197-2.38,1.734-2.53,3.221c-0.304,2.996-0.606,5.992-0.91,8.987c-1.93-1.567-3.859-3.135-5.789-4.702
	c-0.779-0.633-1.664-1.578-2.674-1.805c-1.468-0.331-2.403,0.574-3.331,1.502c-2.069,2.07-4.138,4.14-6.208,6.21
	c-0.834,0.834-1.707,1.617-1.652,2.929c0.048,1.176,0.917,2.007,1.613,2.868c1.725,2.131,3.45,4.263,5.174,6.394
	c-2.422,0.243-4.844,0.487-7.266,0.73c-2.3,0.231-5.176,0.194-5.176,3.312c0,2.789,0,5.578,0,8.366c0,0.799-0.038,1.608,0,2.406
	c0,1.687,1.349,2.637,2.88,2.791c3.158,0.319,6.316,0.638,9.474,0.956c-1.551,1.897-3.102,3.795-4.653,5.693
	c-0.57,0.698-1.314,1.407-1.738,2.215c-0.741,1.411-0.065,2.685,0.937,3.687c2.042,2.042,4.085,4.085,6.128,6.128
	c0.608,0.608,1.301,1.521,2.129,1.834c1.323,0.611,2.467-0.121,3.452-0.925c2.246-1.834,4.493-3.668,6.74-5.502
	c0.251,2.484,0.502,4.969,0.753,7.452c0.111,1.104,0.088,2.321,0.797,3.242c0.849,1.102,1.983,1.107,3.215,1.107
	c2.886,0,5.772,0,8.658,0c1.269,0,2.425-0.091,3.217-1.288c0.573-0.867,0.58-2.038,0.708-3.04c0.339-2.657,0.677-5.315,1.016-7.973
	c1.922,1.562,3.845,3.125,5.767,4.688c0.735,0.599,1.566,1.49,2.482,1.81c1.506,0.524,2.562-0.366,3.533-1.341
	c2.035-2.04,4.069-4.081,6.104-6.122c0.88-0.883,1.798-1.794,1.473-3.195c-0.243-1.046-1.201-1.974-1.852-2.791
	c-1.515-1.905-3.03-3.811-4.546-5.716c2.274-0.225,4.548-0.449,6.822-0.673c2.124-0.21,5.617-0.097,5.617-3.118
	c0-2.44,0-4.88,0-7.32c0-2.194,0.659-6.083-2.482-6.411V82.895L120.393,82.895z M66.223,82.536H66.2v-0.022L66.223,82.536z
	 M117.35,94.207c-2.167,0.219-4.335,0.438-6.502,0.656c-1.304,0.131-2.608,0.263-3.912,0.395c-1.198,0.121-2.344,0.342-2.978,1.532
	c-0.786,1.478-0.82,2.764,0.199,4.086c0.738,0.958,1.476,1.916,2.214,2.873c1.393,1.808,2.785,3.614,4.178,5.422l-4.09,4.093
	c-1.796-1.458-3.592-2.916-5.389-4.374c-0.923-0.749-1.846-1.499-2.77-2.248c-0.267-0.217-0.516-0.419-0.828-0.577
	c-0.295-0.147-0.664-0.183-0.98-0.086c-0.472,0.143-0.995-0.192-1.422,0.018c-3.02,0.728-2.792,4.42-3.1,6.841
	c-0.298,2.342-0.596,4.683-0.894,7.024h-5.791c-0.229-2.247-0.456-4.494-0.685-6.742c-0.124-1.223-0.248-2.445-0.372-3.668
	c-0.147-1.447-0.738-2.37-2.087-3.022c-1.41-0.683-2.56-0.343-3.694,0.583c-0.968,0.789-1.936,1.578-2.903,2.367
	c-1.789,1.459-3.578,2.918-5.367,4.377l-4.281-4.292l0.002-0.002l-0.002-0.002c1.434-1.756,2.867-3.511,4.301-5.267
	c0.779-0.955,1.56-1.911,2.34-2.866c1.081-1.323,1.059-2.489,0.371-4.04c-0.606-1.366-1.596-1.868-2.997-2.01
	c-1.243-0.125-2.485-0.251-3.729-0.376c-2.297-0.232-4.595-0.464-6.893-0.696v-6.059c2.244-0.226,4.488-0.451,6.731-0.677
	c1.252-0.125,2.503-0.251,3.754-0.377c1.461-0.146,2.499-0.702,3.047-2.167c0.448-1.198,0.926-2.281,0.154-3.484
	c-0.149-0.233-0.34-0.445-0.515-0.66c-0.771-0.95-1.543-1.9-2.315-2.851c-1.419-1.746-2.837-3.493-4.256-5.239l4.291-4.289
	c1.746,1.419,3.493,2.839,5.239,4.258c0.95,0.772,1.9,1.545,2.851,2.316c1.236,1.005,2.375,1.101,3.855,0.465
	c2.526-1.086,2.221-4.437,2.455-6.738c0.235-2.301,0.47-4.602,0.704-6.903h6.071c0.229,2.237,0.456,4.474,0.685,6.711
	c0.127,1.247,0.255,2.495,0.382,3.742c0.15,1.477,0.689,2.477,2.113,3.115c1.181,0.529,2.292,1.046,3.518,0.26
	c0.234-0.15,0.447-0.343,0.662-0.518c0.948-0.773,1.896-1.546,2.845-2.319c1.797-1.466,3.595-2.931,5.392-4.396l4.281,4.287
	l-0.002,0.002l0.002,0.002c-1.419,1.738-2.838,3.478-4.257,5.216c-0.811,0.992-1.62,1.985-2.43,2.978
	c-0.935,1.144-1.298,2.215-0.731,3.685c0.585,1.52,1.354,2.354,3.005,2.52c1.191,0.12,2.383,0.24,3.575,0.36
	c2.318,0.232,4.637,0.466,6.955,0.699v6.062h-0.002V94.207z"/>
<path d="M94.464,91.087c0,3.488-2.911,6.399-6.399,6.399s-6.399-2.911-6.399-6.399s2.911-6.399,6.399-6.399
	S94.464,87.599,94.464,91.087z"/>
</svg>
