<?xml version="1.0" encoding="utf-8"?>
<!-- Generator: Adobe Illustrator 16.0.0, SVG Export Plug-In . SVG Version: 6.00 Build 0)  -->
<!DOCTYPE svg PUBLIC "-//W3C//DTD SVG 1.1//EN" "http://www.w3.org/Graphics/SVG/1.1/DTD/svg11.dtd">
<svg version="1.1" id="Capa_1" xmlns="http://www.w3.org/2000/svg" xmlns:xlink="http://www.w3.org/1999/xlink" x="0px" y="0px"
	 width="128px" height="128px" viewBox="0 0 128 128" enable-background="new 0 0 128 128" xml:space="preserve">
<path d="M24.343,107.52H56.32v-12.8H24.343c0,0,0.013,0,0.014,0h-0.014c0-16.64,10.392-27.415,26.886-27.415
	c10.828,0,18.833,4.859,24.154,12.098c0.278,0.377,0.129-17.624,0-17.738C69.068,55.9,60.44,54.161,51.31,54.161
	c-11.383,0-21.647,4.04-28.834,11.412c-6.999,7.18-10.883,17.755-10.909,28.856c0.027,7.045,5.726,13.09,12.777,13.09H24.343
	L24.343,107.52z"/>
<path d="M101.279,92.16v-19.2H85.92v19.2H66.721v15.359H85.92v19.199h15.359V107.52h19.201V92.16H101.279z"/>
<path d="M51.199,12.16c6.365,0,11.521,5.448,11.521,12.16c0,6.718-5.156,12.16-11.521,12.16c-6.363,0-11.519-5.442-11.519-12.16
	C39.68,17.608,44.836,12.16,51.199,12.16z M51.199,0.64c-12.704,0-23.039,10.623-23.039,23.68C28.16,37.377,38.495,48,51.199,48
	C63.904,48,74.24,37.377,74.24,24.32C74.24,11.263,63.904,0.64,51.199,0.64L51.199,0.64z"/>
</svg>
