<?xml version="1.0" encoding="utf-8"?>
<!-- Generator: Adobe Illustrator 16.0.0, SVG Export Plug-In . SVG Version: 6.00 Build 0)  -->
<!DOCTYPE svg PUBLIC "-//W3C//DTD SVG 1.1//EN" "http://www.w3.org/Graphics/SVG/1.1/DTD/svg11.dtd">
<svg version="1.1" id="Capa_1" xmlns="http://www.w3.org/2000/svg" xmlns:xlink="http://www.w3.org/1999/xlink" x="0px" y="0px"
	 width="128px" height="128px" viewBox="0 0 128 128" enable-background="new 0 0 128 128" xml:space="preserve">
<path d="M65.484,125.814c-25.227,0-29.466-15.291-46.939-79.527c-0.859,0.429-2.072,1.15-3.693,2.36
	c-1.897,1.416-4.422,1.669-6.563,0.66l-2.702-1.276c-1.766-0.833-3.054-2.427-3.498-4.329C1.645,41.8,2.09,39.801,3.303,38.271
	c3.366-4.251,20.934-25.455,36.319-25.455c7.588,0,17.041,4.568,18.989,26.332c3.607,40.377,12.192,42.189,12.276,42.189
	c0.736,0,1.764-0.674,2.217-1.085c4.008-4.755,17.627-30.475,14.166-38.028c-0.146-0.319-0.535-1.166-3.438-1.166
	c-1.654,0-3.684,0.298-6.031,0.888c-2.484,0.621-5.096-0.292-6.646-2.325c-1.553-2.034-1.742-4.795-0.488-7.023
	c0.484-0.858,12.061-21.005,31.919-21.005c6.374,0,12.778,2.103,19.03,6.252c10.182,6.753,7.761,27.653-7.196,62.117
	c-4.625,10.656-11.571,21.444-19.058,29.597c-9.678,10.541-19.783,16.161-29.227,16.252l-0.65,0.002V125.814z M30.892,42.91
	c18.015,66.189,20.864,70.105,34.592,70.105l0.529-0.002c12.471-0.119,28.741-19.894,36.664-38.145
	c11.635-26.812,13.891-43.474,11.764-46.422c-4.084-2.691-8.073-4.053-11.857-4.053c-4.788,0-8.979,2.165-12.316,4.823
	c5.371,1.779,7.812,5.65,8.873,8.218c6.676,16.147-14.035,48.93-16.941,51.827c-1.139,1.139-5.34,4.877-11.309,4.877
	c-0.002,0-0.004,0-0.004,0C57.282,94.141,49.098,76.525,45.86,40.291c-0.307-3.441-1.668-14.673-6.239-14.673
	c-3.718,0-9.262,3.675-14.598,8.365C28.47,35.742,30.5,39.327,30.892,42.91L30.892,42.91z"/>
</svg>
