<?xml version="1.0" encoding="utf-8"?>
<!-- Generator: Adobe Illustrator 16.0.0, SVG Export Plug-In . SVG Version: 6.00 Build 0)  -->
<!DOCTYPE svg PUBLIC "-//W3C//DTD SVG 1.1//EN" "http://www.w3.org/Graphics/SVG/1.1/DTD/svg11.dtd">
<svg version="1.1" id="Capa_1" xmlns="http://www.w3.org/2000/svg" xmlns:xlink="http://www.w3.org/1999/xlink" x="0px" y="0px"
	 width="128px" height="128px" viewBox="0 0 128 128" enable-background="new 0 0 128 128" xml:space="preserve">
<path d="M117.966,20.047c-5.5-3.912-11.112-5.893-16.68-5.893c-17.37,0-27.552,18.991-27.976,19.8
	c-0.711,1.352-0.554,2.994,0.398,4.186c0.955,1.193,2.527,1.71,3.996,1.308c2.341-0.63,4.389-0.949,6.084-0.949
	c3.932,0,4.716,1.716,5.05,2.449c4.171,9.133-10.423,37.497-13.597,41.161c-0.463,0.498-2.002,1.787-3.53,1.787
	c-1.01,0-9.97-1.246-13.576-44.499c-1.587-19.026-9.215-23.021-15.334-23.021c-14.666,0-33.553,25.041-35.658,27.896
	c-0.67,0.909-0.906,2.067-0.645,3.168c0.261,1.098,0.993,2.027,2.002,2.537l2.522,1.276c1.339,0.678,2.959,0.512,4.133-0.429
	c5.418-4.339,8.314-4.808,9.307-4.808c0.26,0,0.452,0.028,0.59,0.064c16.481,64.905,20.384,77.173,41.62,77.173l0.589-0.002
	c18.545-0.191,35.965-26.654,43.146-44.396C127.088,37.668,123.725,24.141,117.966,20.047z M66.673,115.2
	c-14.709,0-17.608-5.911-34.463-72.323c-0.084-0.331-0.212-0.557-0.381-0.854c-0.987-1.742-3.509-3.731-7.366-3.731
	c-0.841,0-1.707,0.115-2.601,0.301c7.013-7.519,15.389-14.547,20.94-14.547c5.247,0,7.073,8.987,7.682,16.276
	c2.89,34.683,9.834,51.837,21.227,51.837h0.002c4.948,0,8.484-3.813,9.141-4.515c2.364-2.524,21.422-34.879,15.073-49.513
	c-1.35-3.115-4.368-6.871-11.099-7.215c3.699-4.271,9.396-9.047,16.457-9.047c3.939,0,8.055,1.487,12.23,4.456
	c0.394,0.28,3.717,3.244-0.732,21.213c-2.874,11.607-7.598,23.566-9.494,28.251C95.449,95.154,79.8,115.2,67.184,115.2H66.673
	L66.673,115.2z"/>
</svg>
