<?xml version="1.0" encoding="utf-8"?>
<!-- Generated by IcoMoon.io -->
<!DOCTYPE svg PUBLIC "-//W3C//DTD SVG 1.1//EN" "http://www.w3.org/Graphics/SVG/1.1/DTD/svg11.dtd">
<svg version="1.1" xmlns="http://www.w3.org/2000/svg" xmlns:xlink="http://www.w3.org/1999/xlink" width="128" height="128" viewBox="0 0 128 128">
<g id="icomoon-ignore">
	<line stroke-width="1" x1="" y1="" x2="" y2="" stroke="#449FDB" opacity=""></line>
</g>
	<path d="M117.504 21.76h-107.52c-4.242 0-7.424 3.305-7.424 7.547v88.837c0 2.039 0.682 3.802 2.125 5.242 1.44 1.44 3.264 2.054 5.299 2.054 0.002 0 0.005 0 0.008 0l107.649 0.079c4.237-0.004 7.799-3.249 7.799-7.487v-88.726c0-4.242-3.695-7.547-7.936-7.547zM117.76 118.033l-107.52 0.111v-88.704h107.52v88.593z" fill="#000000"></path>
	<path d="M49.444 106.853c0.525 0.25 1.035 0.373 1.595 0.373 0.867 0 1.699-0.293 2.396-0.862l35.827-29.165c0.896-0.73 1.409-1.824 1.409-2.978s-0.522-2.249-1.418-2.978l-35.843-29.165c-1.15-0.933-2.628-1.125-3.965-0.489-1.339 0.636-2.085 1.985-2.085 3.468v58.33c0 1.484 0.745 2.831 2.084 3.468zM55.040 53.132l25.916 21.091-25.916 21.089v-42.18z" fill="#000000"></path>
</svg>
