<?xml version="1.0" encoding="utf-8"?>
<!-- Generated by IcoMoon.io -->
<!DOCTYPE svg PUBLIC "-//W3C//DTD SVG 1.1//EN" "http://www.w3.org/Graphics/SVG/1.1/DTD/svg11.dtd">
<svg version="1.1" xmlns="http://www.w3.org/2000/svg" xmlns:xlink="http://www.w3.org/1999/xlink" width="128" height="128" viewBox="0 0 128 128">
<g id="icomoon-ignore">
	<line stroke-width="1" x1="" y1="" x2="" y2="" stroke="#449FDB" opacity=""></line>
</g>
	<path d="M115.2 12.8h-102.4c-7.068 0-12.8 5.092-12.8 12.16v89.6c0 3.397 1.35 6.975 3.754 9.376 2.4 2.397 5.654 4.064 9.046 4.064 0.005 0 0.009 0 0.014 0h102.135c7.063-0.008 13.051-6.487 13.051-13.551v-89.489c0-7.068-5.732-12.16-12.8-12.16zM115.2 114.449l-102.4 0.111v-88.96h102.4v88.849z" fill="#000000"></path>
	<path d="M48.472 105.326c0.876 0.416 1.825 0.62 2.757 0.62 1.445 0 2.883-0.489 4.046-1.436l35.843-29.165c1.493-1.215 2.362-3.039 2.362-4.964s-0.867-3.749-2.359-4.964l-35.84-29.165c-1.917-1.559-4.576-1.878-6.808-0.817-2.23 1.062-3.672 3.311-3.672 5.781v58.33c0 2.47 1.443 4.719 3.672 5.781zM57.6 54.675l19.3 15.707-19.3 15.706v-31.413z" fill="#000000"></path>
</svg>
