<?xml version="1.0" encoding="utf-8"?>
<!-- Generator: Adobe Illustrator 16.0.0, SVG Export Plug-In . SVG Version: 6.00 Build 0)  -->
<!DOCTYPE svg PUBLIC "-//W3C//DTD SVG 1.1//EN" "http://www.w3.org/Graphics/SVG/1.1/DTD/svg11.dtd">
<svg version="1.1" xmlns="http://www.w3.org/2000/svg" xmlns:xlink="http://www.w3.org/1999/xlink" x="0px" y="0px" width="100px"
	 height="100px" viewBox="0 0 100 100" enable-background="new 0 0 100 100" xml:space="preserve">
<g id="Layer_3">
</g>
<g id="Your_Icon">
</g>
<g id="Layer_4">
	<g>
		<path fill="#211915" d="M98.682,94.5l-46-91.691C52.173,1.795,51.135,1.154,50,1.154s-2.173,0.641-2.682,1.655l-46,91.691
			c-0.467,0.93-0.418,2.112,0.129,2.998C1.993,98.384,2.96,99,4,99h92c1.04,0,2.007-0.616,2.553-1.501
			C99.1,96.613,99.148,95.431,98.682,94.5z M8.861,93L50,10.999L91.139,93H8.861z"/>
		<rect x="47" y="40" fill="#211915" width="6" height="30"/>
		<rect x="47" y="74.5" fill="#211915" width="6" height="6"/>
	</g>
</g>
</svg>
