<?xml version="1.0" encoding="utf-8"?>
<!-- Generator: Adobe Illustrator 16.0.0, SVG Export Plug-In . SVG Version: 6.00 Build 0)  -->
<!DOCTYPE svg PUBLIC "-//W3C//DTD SVG 1.1//EN" "http://www.w3.org/Graphics/SVG/1.1/DTD/svg11.dtd">
<svg version="1.1" xmlns="http://www.w3.org/2000/svg" xmlns:xlink="http://www.w3.org/1999/xlink" x="0px" y="0px" width="100px"
	 height="100px" viewBox="0 0 100 100" enable-background="new 0 0 100 100" xml:space="preserve">
<g id="Layer_3">
</g>
<g id="Your_Icon">
</g>
<g id="Layer_4">
	<g>
		<path d="M89,7c0-3.313-2.687-6-6-6H17c-3.313,0-6,2.687-6,6v86c0,3.313,2.687,6,6,6h66c3.313,0,6-2.687,6-6V7z M83,93H17V7h66V93z
			"/>
		<path fill="#211915" d="M29.998,86l40.003-0.002c3.313,0,5.999-2.687,5.999-6V20c0-1.592-0.631-3.117-1.757-4.243
			C73.118,14.632,71.592,14,70.002,14H29.999C26.686,14,24,16.688,24,20.002V80c0,1.592,0.631,3.117,1.757,4.243
			C26.882,85.368,28.407,86,29.998,86z M30,20h40v59.998L30,80V20z"/>
	</g>
</g>
</svg>
