<?xml version="1.0" encoding="utf-8"?>
<!-- Generator: Adobe Illustrator 16.0.0, SVG Export Plug-In . SVG Version: 6.00 Build 0)  -->
<!DOCTYPE svg PUBLIC "-//W3C//DTD SVG 1.1//EN" "http://www.w3.org/Graphics/SVG/1.1/DTD/svg11.dtd">
<svg version="1.1" xmlns="http://www.w3.org/2000/svg" xmlns:xlink="http://www.w3.org/1999/xlink" x="0px" y="0px" width="62px"
	 height="100px" viewBox="0 0 62 100" enable-background="new 0 0 62 100" xml:space="preserve">
<g id="Layer_3">
</g>
<g id="Your_Icon">
</g>
<g id="Layer_4">
	<g>
		<path fill="none" d="M31,44c-3.311,0-6,2.69-6,6.003C25,53.31,27.689,56,31,56s6-2.69,6-5.997C37,46.69,34.311,44,31,44z"/>
		<path fill="#211915" d="M31,38c-6.617,0-12,5.384-12,12.003C19,56.618,24.383,62,31,62s12-5.382,12-11.997
			C43,43.384,37.617,38,31,38z M31,56c-3.311,0-6-2.69-6-5.997C25,46.69,27.689,44,31,44s6,2.69,6,6.003C37,53.31,34.311,56,31,56z"
			/>
	</g>
</g>
</svg>
