<?xml version="1.0" encoding="utf-8"?>
<!-- Generator: Adobe Illustrator 16.0.0, SVG Export Plug-In . SVG Version: 6.00 Build 0)  -->
<!DOCTYPE svg PUBLIC "-//W3C//DTD SVG 1.1//EN" "http://www.w3.org/Graphics/SVG/1.1/DTD/svg11.dtd">
<svg version="1.1" xmlns="http://www.w3.org/2000/svg" xmlns:xlink="http://www.w3.org/1999/xlink" x="0px" y="0px" width="100px"
	 height="100px" viewBox="0 0 100 100" enable-background="new 0 0 100 100" xml:space="preserve">
<g id="Layer_3">
</g>
<g id="Your_Icon">
</g>
<g id="Layer_4">
	<g>
		<path fill="none" d="M66.996,42.283c0.988-0.109,1.99-0.166,3.004-0.166c-1.054,0-2.094,0.063-3.12,0.181
			C66.919,42.294,66.957,42.287,66.996,42.283z"/>
		<path fill="none" d="M33.12,59.298c-1.025-0.117-2.065-0.181-3.12-0.181c1.014,0,2.016,0.057,3.004,0.166
			C33.043,59.287,33.081,59.294,33.12,59.298z"/>
		<path fill="none" d="M92.998,73H61.023c0.017,0,0.032-0.033,0.049,0H93C93,72.967,92.998,73,92.998,73z"/>
		<path fill="none" d="M79.855,20.262c0-5.775-4.408-10.461-9.857-10.461c-5.445,0-9.854,4.686-9.854,10.461
			c0,5.789,4.409,10.463,9.854,10.463C75.447,30.725,79.855,26.051,79.855,20.262z"/>
		<path fill="none" d="M39.855,37.262c0-5.775-4.408-10.461-9.857-10.461c-5.445,0-9.854,4.686-9.854,10.461
			c0,5.789,4.409,10.463,9.854,10.463C35.447,47.725,39.855,43.051,39.855,37.262z"/>
		<path fill="none" d="M73.12,42.298c-1.025-0.117-2.065-0.181-3.12-0.181c1.014,0,2.016,0.057,3.004,0.166
			C73.043,42.287,73.081,42.294,73.12,42.298z"/>
		<path fill="none" d="M7,90h46c0-0.033-0.002,0-0.002,0H7.002C7.002,90,7,89.967,7,90z"/>
		<path fill="none" d="M99,72.897L99,72.897c0-0.037-0.002-0.073-0.002-0.109C98.998,72.825,99,72.861,99,72.897z"/>
		<path fill="none" d="M59,89.897L59,89.897c0-0.037-0.002-0.073-0.002-0.109C58.998,89.825,59,89.861,59,89.897z"/>
		<path fill="none" d="M1.002,89.788C1.002,89.824,1,89.86,1,89.896v0.001C1,89.861,1.002,89.825,1.002,89.788z"/>
		<path fill="none" d="M26.996,59.283c0.988-0.109,1.99-0.166,3.004-0.166c-1.054,0-2.094,0.063-3.12,0.181
			C26.919,59.294,26.957,59.287,26.996,59.283z"/>
		<path fill="#211915" d="M45.301,56.825c1.755,0.9,3.424,1.956,5.001,3.141C54.33,52.79,61.645,48.177,70,48.177
			C82.701,48.177,93,59,93,73h-0.002c0,0,0.002-0.033,0.002,0H61.072c0.929,1.88,1.716,4,2.329,6H93c3.308,0,5.99-2.732,5.999-6.038
			c-0.016-15.877-11.421-29.05-25.995-30.653c-0.988-0.109-1.99-0.179-3.004-0.179s-2.016,0.05-3.004,0.159
			C57.827,43.299,49.915,48.873,45.301,56.825z"/>
		<path fill="#FFFFFF" d="M1.002,89.788C1.002,89.825,1,89.861,1,89.897v-0.001C1,89.86,1.002,89.824,1.002,89.788z M59,89.897
			c0-0.036-0.002-0.072-0.002-0.109C58.998,89.824,59,89.86,59,89.897L59,89.897z M99,72.897c0-0.036-0.002-0.072-0.002-0.109
			C98.998,72.824,99,72.86,99,72.897L99,72.897z"/>
		<g>
			<path d="M69.998,4.1c-8.577,0-15.555,7.25-15.555,16.162c0,8.062,5.717,14.747,13.157,15.951
				c0.784,0.127,1.581,0.213,2.398,0.213c0.818,0,1.615-0.086,2.399-0.213c7.44-1.205,13.158-7.889,13.158-15.951
				C85.556,11.35,78.576,4.1,69.998,4.1z M69.998,30.725c-5.445,0-9.854-4.674-9.854-10.463c0-5.775,4.409-10.461,9.854-10.461
				c5.449,0,9.857,4.686,9.857,10.461C79.855,26.051,75.447,30.725,69.998,30.725z"/>
		</g>
		<path fill="#211915" d="M1.001,89.962C1.01,93.268,3.692,96,7,96h46c3.308,0,5.99-2.732,5.999-6.038
			c-0.016-15.877-11.421-29.05-25.995-30.653c-0.988-0.109-1.99-0.179-3.004-0.179s-2.016,0.075-3.004,0.185
			C12.422,60.919,1.017,74.085,1.001,89.962z M53,90h-0.002C52.998,90,53,89.967,53,90H7c0-0.033,0.002,0,0.002,0H7
			c0-14,10.299-24.773,23-24.773S53,76,53,90z"/>
		<g>
			<path d="M29.998,21.1c-8.577,0-15.555,7.25-15.555,16.162c0,8.062,5.717,14.747,13.157,15.951
				c0.784,0.127,1.581,0.213,2.398,0.213c0.818,0,1.615-0.086,2.399-0.213c7.44-1.205,13.158-7.889,13.158-15.951
				C45.556,28.35,38.576,21.1,29.998,21.1z M29.998,47.725c-5.445,0-9.854-4.674-9.854-10.463c0-5.775,4.409-10.461,9.854-10.461
				c5.449,0,9.857,4.686,9.857,10.461C39.855,43.051,35.447,47.725,29.998,47.725z"/>
		</g>
	</g>
</g>
</svg>
