<?xml version="1.0" encoding="utf-8"?>
<!-- Generator: Adobe Illustrator 16.0.0, SVG Export Plug-In . SVG Version: 6.00 Build 0)  -->
<!DOCTYPE svg PUBLIC "-//W3C//DTD SVG 1.1//EN" "http://www.w3.org/Graphics/SVG/1.1/DTD/svg11.dtd">
<svg version="1.1" xmlns="http://www.w3.org/2000/svg" xmlns:xlink="http://www.w3.org/1999/xlink" x="0px" y="0px" width="100px"
	 height="100px" viewBox="0 0 100 100" enable-background="new 0 0 100 100" xml:space="preserve">
<g id="Layer_3">
</g>
<g id="Your_Icon">
</g>
<g id="Layer_4">
	<path d="M49.996,45.037c-3.379-1.525-7.074-2.38-10.946-2.38c-15.99,0-29,13.59-29,30.559c0,3.312,2.688,5.784,6,5.784H36v-0.738
		V73H16.05c0-13,10.299-24.373,23-24.373c2.313,0,4.546,0.355,6.651,1.04L49.996,45.037z"/>
	<path d="M39.048,3.971c-8.742,0-15.854,7.385-15.854,16.462c0,9.078,7.111,16.463,15.854,16.463
		c8.744,0,15.857-7.385,15.857-16.463C54.905,11.355,47.792,3.971,39.048,3.971z M39.048,30.896c-5.445,0-9.854-4.674-9.854-10.463
		c0-5.775,4.408-10.462,9.854-10.462c5.449,0,9.857,4.687,9.857,10.462C48.905,26.222,44.497,30.896,39.048,30.896z"/>
	<path fill="none" d="M59.191,96.029c0.049,0,0.097-0.008,0.146-0.012c-0.064,0.004-0.128,0.009-0.192,0.007
		C59.16,96.025,59.176,96.029,59.191,96.029z"/>
	<path d="M94.056,64.761l-7.476-0.752l4.901-6.001c0.704-0.858,0.639-2.11-0.143-2.891l-6.11-6.109
		c-0.102-0.102-0.211-0.191-0.325-0.267c-0.044-0.031-0.092-0.05-0.137-0.077c-0.073-0.044-0.149-0.084-0.226-0.119
		c-0.055-0.024-0.111-0.038-0.167-0.055c-0.075-0.026-0.146-0.05-0.222-0.064c-0.06-0.016-0.119-0.021-0.18-0.027
		c-0.071-0.009-0.146-0.018-0.218-0.02c-0.076-0.002-0.149,0.003-0.222,0.008c-0.05,0.004-0.1,0.005-0.148,0.012
		c-0.081,0.011-0.158,0.034-0.238,0.053c-0.045,0.012-0.086,0.022-0.131,0.036c-0.087,0.026-0.167,0.066-0.251,0.107
		c-0.036,0.015-0.068,0.025-0.103,0.047c-0.114,0.062-0.224,0.133-0.328,0.22l-6.073,4.962l-0.791-7.79
		c-0.117-1.102-1.042-2.071-2.149-2.071H64.68c-1.107,0-2.032,0.97-2.149,2.071l-0.758,7.479l-5.729-4.654
		c-0.396-0.324-0.879-0.483-1.362-0.483c-0.554,0-1.11,0.213-1.53,0.633l-6.107,6.109c-0.041,0.037-0.072,0.083-0.106,0.126
		c-0.315,0.371-0.498,0.824-0.521,1.283c-0.006,0.136,0.001,0.289,0.018,0.448c0.055,0.367,0.2,0.722,0.45,1.029l4.835,5.973v0.002
		l-7.787,0.782C42.826,64.876,42,65.802,42,66.911v8.641c0,1.109,0.84,2.039,1.944,2.15l7.708,0.777l-4.753,5.816
		c-0.7,0.858-0.639,2.109,0.146,2.895l6.109,6.11c0.099,0.103,0.212,0.188,0.326,0.268c0.036,0.023,0.078,0.039,0.119,0.064
		c0.077,0.047,0.159,0.094,0.244,0.126c0.05,0.023,0.098,0.035,0.147,0.051c0.08,0.028,0.156,0.053,0.238,0.072
		c0.055,0.011,0.109,0.015,0.165,0.021c0.08,0.01,0.156,0.02,0.236,0.021c0.068,0.006,0.136-0.003,0.204-0.007
		c0.054-0.004,0.112-0.006,0.161-0.013c0.078-0.011,0.15-0.032,0.227-0.051c0.048-0.011,0.098-0.02,0.142-0.038
		c0.084-0.025,0.165-0.064,0.242-0.103c0.038-0.017,0.074-0.028,0.111-0.051c0.113-0.062,0.223-0.133,0.327-0.219l5.762-4.703
		l0.723,7.15c0.117,1.102,1.042,2.071,2.149,2.071h8.371c0.134,0,0.269-0.014,0.396-0.043c0.908-0.192,1.621-1.031,1.742-1.975
		l0.966-7.592l5.799,4.713c0.396,0.324,0.875,0.483,1.355,0.483c0.557,0,1.101-0.213,1.52-0.633l5.9-5.918
		c0.383-0.383,0.562-0.881,0.593-1.387c0.035-0.51-0.181-1.03-0.511-1.46l-4.53-5.693v-0.002l7.639-0.754
		c1.102-0.111,2.08-1.041,2.08-2.15v-8.641C96,65.802,95.16,64.876,94.056,64.761z M51.736,64.481h-0.018v-0.018L51.736,64.481z
		 M91.68,73.599l-8.772,0.885c-0.794,0.078-1.479,0.59-1.782,1.328c-0.067,0.166-0.144,0.33-0.217,0.494
		c-0.168,0.365-0.231,0.764-0.188,1.148c0.044,0.384,0.191,0.761,0.438,1.079l5.207,6.755l-0.001,0.001l0.001,0.001l-3.195,3.197
		l-6.639-5.39c-0.118-0.098-0.25-0.167-0.382-0.234c-0.039-0.021-0.079-0.022-0.119-0.039c-0.104-0.046-0.21-0.053-0.319-0.083
		c-0.036-0.009-0.076,0.037-0.117,0.029c-0.142-0.029-0.28,0.07-0.426,0.07c-0.004,0-0.007,0-0.011,0
		c-0.171,0-0.346-0.091-0.515-0.052c-0.072,0.021-0.148-0.071-0.22-0.047c-0.051,0.021-0.101,0.043-0.15,0.067l-0.173,0.078
		c-0.227,0.104-0.452,0.218-0.682,0.309c-0.075,0.039-0.146,0.111-0.212,0.156c-0.522,0.348-0.87,0.968-0.948,1.591l-1.106,8.698
		h-4.524l-0.867-8.543c-0.023-0.201-0.073-0.395-0.144-0.584c-0.009-0.022-0.027-0.047-0.036-0.069
		c-0.23-0.55-0.662-1.014-1.223-1.216c-0.124-0.047-0.249-0.114-0.371-0.173c-0.046-0.018-0.091-0.038-0.137-0.06
		c-0.735-0.307-1.577-0.201-2.193,0.305l-6.831,5.571l-3.345-3.353l0.002-0.002l-0.002-0.002l5.449-6.674
		c0.267-0.326,0.426-0.714,0.473-1.118c0.047-0.399-0.019-0.814-0.205-1.192c-0.022-0.051-0.045-0.102-0.067-0.152
		c-0.089-0.188-0.175-0.372-0.253-0.562c-0.303-0.74-0.989-1.256-1.785-1.334l-8.772-0.885v-4.734l8.672-0.871
		c0.828-0.085,1.532-0.634,1.817-1.416c0.109-0.305,0.226-0.608,0.359-0.902c0.331-0.743,0.217-1.612-0.298-2.245l-5.394-6.639
		l3.353-3.352l6.639,5.395c0.151,0.121,0.315,0.214,0.484,0.292c0.032,0.013,0.064,0.026,0.093,0.038
		c0.165,0.067,0.334,0.107,0.51,0.132c0.031,0.004,0.065,0.006,0.1,0.008c0.138,0.011,0.279,0.003,0.42-0.012
		c0.057-0.006,0.112-0.008,0.168-0.022c0.18-0.032,0.36-0.085,0.528-0.168c0.084-0.039,0.182-0.076,0.338-0.143
		c0.004-0.002,0.098-0.042,0.102-0.044l0.138-0.067c0.02-0.008,0.043-0.031,0.062-0.039c0.261-0.105,0.479-0.307,0.678-0.498
		c0.177-0.171,0.327-0.386,0.44-0.625c0.114-0.237,0.192-0.498,0.218-0.759l0.881-8.645h4.744l0.881,8.645
		c0.081,0.808,0.612,1.571,1.375,1.86c0.305,0.116,0.599,0.28,0.893,0.419c0.753,0.354,1.641,0.262,2.283-0.266l6.751-5.505
		l3.345,3.349l-0.002,0.002l0.002,0.002l-5.575,6.831c-0.383,0.466-0.546,1.058-0.471,1.637c0.022,0.19,0.073,0.384,0.153,0.57
		c0.103,0.238,0.19,0.485,0.277,0.735c0.274,0.793,0.988,1.354,1.826,1.44l8.569,0.862V73.599z"/>
	<circle cx="68.8" cy="71.162" r="5"/>
</g>
</svg>
