<?xml version="1.0" encoding="utf-8"?>
<!-- Generator: Adobe Illustrator 16.0.0, SVG Export Plug-In . SVG Version: 6.00 Build 0)  -->
<!DOCTYPE svg PUBLIC "-//W3C//DTD SVG 1.1//EN" "http://www.w3.org/Graphics/SVG/1.1/DTD/svg11.dtd">
<svg version="1.1" xmlns="http://www.w3.org/2000/svg" xmlns:xlink="http://www.w3.org/1999/xlink" x="0px" y="0px" width="100px"
	 height="100px" viewBox="0 0 100 100" enable-background="new 0 0 100 100" xml:space="preserve">
<g id="Layer_3">
</g>
<g id="Your_Icon">
</g>
<g id="Layer_4">
	<path fill="#211915" d="M90.193,62.091l-25.06-38.58C57.283,11.424,45.98,4.881,34.13,5.51C23.731,6.078,14.366,12.193,9.688,21.47
		C4.379,32,5.861,44.916,13.745,56.891l9.987,15.377l5.032-3.269l-9.997-15.392c-6.779-10.297-8.1-20.75-3.721-29.437
		c3.713-7.364,11.151-12.219,19.412-12.67c9.797-0.518,18.898,4.892,25.645,15.277l25.012,38.505
		c0.321,0.527,7.657,12.942-5.059,22.006c-2.064,0.725-13.42,4.195-19.26-4.798L33.348,40.237c-0.008-0.012-0.776-1.285-0.887-2.907
		c-0.149-2.182,0.967-4.015,3.413-5.603c4.341-2.821,7.151,0.635,7.896,1.742l17.743,27.318l5.032-3.269L48.801,30.202
		c-0.161-0.248-1.651-2.471-4.281-4.03c-3.745-2.222-7.976-2.033-11.915,0.524c-5.449,3.538-6.341,7.958-6.13,11.042
		c0.217,3.187,1.676,5.514,1.841,5.768L55.763,85.76c4.385,6.752,11.107,8.772,17.076,8.772c3.821,0,7.333-0.828,9.723-1.773
		l0.32-0.127l0.283-0.195C100.897,80.176,90.35,62.345,90.193,62.091z"/>
</g>
</svg>
