<?xml version="1.0" encoding="utf-8"?>
<!-- Generator: Adobe Illustrator 16.0.0, SVG Export Plug-In . SVG Version: 6.00 Build 0)  -->
<!DOCTYPE svg PUBLIC "-//W3C//DTD SVG 1.1//EN" "http://www.w3.org/Graphics/SVG/1.1/DTD/svg11.dtd">
<svg version="1.1" xmlns="http://www.w3.org/2000/svg" xmlns:xlink="http://www.w3.org/1999/xlink" x="0px" y="0px" width="100px"
	 height="100px" viewBox="0 0 100 100" enable-background="new 0 0 100 100" xml:space="preserve">
<g id="Layer_3">
</g>
<g id="Your_Icon">
</g>
<g id="Layer_4">
	<g>
		<polygon fill="none" points="56,10.892 56,29 74.512,29 		"/>
		<path fill="none" d="M53,35c-1.657,0-3-1.343-3-3V9H23v83h54V35H53z"/>
		<g>
			<path d="M81.03,26.82L57.833,4.461C56.712,3.364,55.123,3,53.555,3H23.332C20.019,3,17,5.187,17,8.5v83
				c0,3.313,3.019,6.5,6.332,6.5h53.336C79.981,98,83,94.813,83,91.5V31.109C83,29.495,82.184,27.948,81.03,26.82z M56,10.892
				L74.512,29H56V10.892z M77,92H23V9h27v23c0,1.657,1.343,3,3,3h24V92z"/>
		</g>
	</g>
</g>
</svg>
