<?xml version="1.0" encoding="utf-8"?>
<!-- Generator: Adobe Illustrator 16.0.0, SVG Export Plug-In . SVG Version: 6.00 Build 0)  -->
<!DOCTYPE svg PUBLIC "-//W3C//DTD SVG 1.1//EN" "http://www.w3.org/Graphics/SVG/1.1/DTD/svg11.dtd">
<svg version="1.1" xmlns="http://www.w3.org/2000/svg" xmlns:xlink="http://www.w3.org/1999/xlink" x="0px" y="0px" width="100px"
	 height="100px" viewBox="0 0 100 100" enable-background="new 0 0 100 100" xml:space="preserve">
<g id="Layer_3">
</g>
<g id="Your_Icon">
</g>
<g id="Layer_4">
	<g>
		<path fill="none" d="M50.028,41.919c7.458,0,13.501-6.413,13.501-14.331c0-7.917-6.043-14.33-13.501-14.33
			c-7.456,0-13.499,6.413-13.499,14.33C36.529,35.506,42.572,41.919,50.028,41.919z"/>
		<path fill="none" d="M49.068,60.079c-17.394,0-31.5,15.184-31.5,33.921h63C80.568,75.263,66.462,60.079,49.068,60.079z"/>
		<path fill="#211915" d="M49.068,54.079c-20.678,0-37.5,17.908-37.5,39.921c0,3.313,2.687,6,6,6h63c3.313,0,6-2.687,6-6
			C86.568,71.987,69.746,54.079,49.068,54.079z M17.568,94c0-18.737,14.106-33.921,31.5-33.921s31.5,15.184,31.5,33.921H17.568z"/>
		<path fill="#211915" d="M50.028,47.919c10.753,0,19.501-9.12,19.501-20.331c0-11.21-8.748-20.33-19.501-20.33
			c-10.752,0-19.499,9.12-19.499,20.33C30.529,38.799,39.276,47.919,50.028,47.919z M50.028,13.258
			c7.458,0,13.501,6.413,13.501,14.33c0,7.918-6.043,14.331-13.501,14.331c-7.456,0-13.499-6.413-13.499-14.331
			C36.529,19.671,42.572,13.258,50.028,13.258z"/>
	</g>
</g>
</svg>
