<?xml version="1.0" encoding="utf-8"?>
<!-- Generator: Adobe Illustrator 16.0.0, SVG Export Plug-In . SVG Version: 6.00 Build 0)  -->
<!DOCTYPE svg PUBLIC "-//W3C//DTD SVG 1.1//EN" "http://www.w3.org/Graphics/SVG/1.1/DTD/svg11.dtd">
<svg version="1.1" xmlns="http://www.w3.org/2000/svg" xmlns:xlink="http://www.w3.org/1999/xlink" x="0px" y="0px" width="100px"
	 height="100px" viewBox="0 0 100 100" enable-background="new 0 0 100 100" xml:space="preserve">
<g id="Layer_3">
</g>
<g id="Your_Icon">
</g>
<g id="Layer_4">
	<g>
		<path fill="none" d="M57.83,61H39.4l0,0h18.668C57.988,60.833,57.912,61,57.83,61z"/>
		<rect x="44" y="66" fill="none" width="0" height="6"/>
		<path fill="none" d="M66.557,73H86.4l0,0H66.59C66.584,73,66.574,72.836,66.557,73z"/>
		<path fill="none" d="M64.566,61H91v17l0,0V61H64.379C64.445,61,64.504,60.833,64.566,61z"/>
		<path d="M35,73H14.6c0-13,10.299-24.373,23-24.373c7.129,0,13.498,3.373,17.717,9.373h7.158C57.4,49,48.15,42.776,37.6,42.776
			c-15.99,0-29,13.53-29,30.499c0,3.312,2.688,5.725,6,5.725H35v-0.5V73z"/>
		<path fill="#211915" d="M64.566,61c-0.062-0.167-0.121,0-0.188,0H57.83c0.082,0,0.158-0.167,0.238,0H64.566z"/>
		<path fill="#211915" d="M63.4,73H44v-1l0,0v1H63.4h3.156c0.018-0.164,0.027,0,0.033,0H63.4z"/>
		<g>
			<path d="M37.598,4.209c-8.742,0-15.854,7.385-15.854,16.462c0,9.078,7.111,16.463,15.854,16.463
				c8.744,0,15.857-7.385,15.857-16.463C53.455,11.594,46.342,4.209,37.598,4.209z M37.598,31.134
				c-5.445,0-9.854-4.674-9.854-10.463c0-5.775,4.408-10.462,9.854-10.462c5.449,0,9.857,4.687,9.857,10.462
				C47.455,26.46,43.047,31.134,37.598,31.134z"/>
		</g>
		<path d="M39,61v17h52V61H39z M86,73H44v-7l0,0l0,0h42V73L86,73L86,73z"/>
	</g>
</g>
</svg>
