<?xml version="1.0" encoding="utf-8"?>
<!-- Generator: Adobe Illustrator 16.0.0, SVG Export Plug-In . SVG Version: 6.00 Build 0)  -->
<!DOCTYPE svg PUBLIC "-//W3C//DTD SVG 1.1//EN" "http://www.w3.org/Graphics/SVG/1.1/DTD/svg11.dtd">
<svg version="1.1" xmlns="http://www.w3.org/2000/svg" xmlns:xlink="http://www.w3.org/1999/xlink" x="0px" y="0px" width="100px"
	 height="100px" viewBox="0 0 100 100" enable-background="new 0 0 100 100" xml:space="preserve">
<g id="Layer_3">
</g>
<g id="Your_Icon">
</g>
<g id="Layer_4">
	<rect x="46.5" y="18.5" fill="#211915" width="6" height="62"/>
	<path d="M29.25,77.243L3.629,51.62c-0.562-0.562-0.879-1.326-0.879-2.121c0-0.796,0.316-1.559,0.879-2.122l25.621-25.62L33.492,26
		l-23.5,23.499L33.492,73L29.25,77.243z"/>
	<path d="M69.75,77.243L65.508,73l23.5-23.501L65.508,26l4.242-4.243l25.621,25.62c0.562,0.563,0.879,1.326,0.879,2.122
		c0,0.795-0.316,1.559-0.879,2.121L69.75,77.243z"/>
</g>
</svg>
