<?xml version="1.0" encoding="utf-8"?>
<!-- Generator: Adobe Illustrator 16.0.0, SVG Export Plug-In . SVG Version: 6.00 Build 0)  -->
<!DOCTYPE svg PUBLIC "-//W3C//DTD SVG 1.1//EN" "http://www.w3.org/Graphics/SVG/1.1/DTD/svg11.dtd">
<svg version="1.1" xmlns="http://www.w3.org/2000/svg" xmlns:xlink="http://www.w3.org/1999/xlink" x="0px" y="0px" width="100px"
	 height="100px" viewBox="0 0 100 100" enable-background="new 0 0 100 100" xml:space="preserve">
<g id="Layer_3">
</g>
<g id="Your_Icon">
</g>
<g id="Layer_4">
	<g>
		<g>
			<path fill="none" d="M11.535,57H23.5c1.657,0,2.5,0.933,2.5,2.59v32.389l46,0.021V59.59c0-1.657,1.843-2.59,3.5-2.59h12.865
				L49.477,10.143L11.535,57z"/>
			<path d="M97.062,57.674L51.757,3.084C51.187,2.397,50.341,2,49.448,2c-0.006,0-0.012,0-0.019,0
				c-0.898,0.006-1.747,0.414-2.312,1.112L2.915,57.702c-0.729,0.898-0.875,2.341-0.377,3.385C3.036,62.13,4.09,63,5.246,63H20
				v31.978c0,1.656,1.593,2.999,3.249,3L75.374,98h0.063c0.796,0,1.34-0.315,1.902-0.878S78,95.796,78,95V63h16.754
				c1.163,0,2.221-0.877,2.716-1.93C97.964,60.018,97.805,58.568,97.062,57.674z M75.5,57c-1.657,0-3.5,0.933-3.5,2.59v32.409
				l-46-0.021V59.59c0-1.657-0.843-2.59-2.5-2.59H11.535l37.941-46.857L88.365,57H75.5z"/>
		</g>
	</g>
</g>
</svg>
