<?xml version="1.0" encoding="utf-8"?>
<!-- Generator: Adobe Illustrator 16.0.0, SVG Export Plug-In . SVG Version: 6.00 Build 0)  -->
<!DOCTYPE svg PUBLIC "-//W3C//DTD SVG 1.1//EN" "http://www.w3.org/Graphics/SVG/1.1/DTD/svg11.dtd">
<svg version="1.1" xmlns="http://www.w3.org/2000/svg" xmlns:xlink="http://www.w3.org/1999/xlink" x="0px" y="0px" width="100px"
	 height="100px" viewBox="0 0 100 100" enable-background="new 0 0 100 100" xml:space="preserve">
<g id="Layer_3">
</g>
<g id="Your_Icon">
</g>
<g id="Layer_4">
	<g>
		<path fill="none" d="M51.5,37.5c-5.249,0-9.5,4.253-9.5,9.501c0,5.245,4.251,9.499,9.5,9.499c5.24,0,9.5-4.254,9.5-9.499
			C61,41.753,56.74,37.5,51.5,37.5z"/>
		<path fill="none" d="M51,22c-16.569,0-40,28-40,28s23.431,28,40,28c16.568,0,38-28,38-28S67.568,22,51,22z M51.5,62.5
			c-8.547,0-15.5-6.953-15.5-15.499C36,38.454,42.953,31.5,51.5,31.5S67,38.454,67,47.001C67,55.547,60.047,62.5,51.5,62.5z"/>
		<path d="M51.5,31.5c-8.547,0-15.5,6.954-15.5,15.501C36,55.547,42.953,62.5,51.5,62.5S67,55.547,67,47.001
			C67,38.454,60.047,31.5,51.5,31.5z M51.5,56.5c-5.249,0-9.5-4.254-9.5-9.499c0-5.248,4.251-9.501,9.5-9.501
			c5.24,0,9.5,4.253,9.5,9.501C61,52.246,56.74,56.5,51.5,56.5z"/>
		<path d="M93.765,46.353c-0.231-0.301-5.742-7.47-13.437-14.72C69.319,21.26,59.452,16,51,16C32.171,16,8.981,43.063,6.398,46.149
			c-1.865,2.229-1.865,5.473,0,7.701C8.981,56.937,32.171,84,51,84c8.452,0,18.319-5.26,29.328-15.633
			c7.695-7.25,13.206-14.418,13.437-14.72C95.412,51.495,95.412,48.505,93.765,46.353z M51,78c-16.569,0-40-28-40-28
			s23.431-28,40-28c16.568,0,38,28,38,28S67.568,78,51,78z"/>
	</g>
</g>
</svg>
