<?xml version="1.0" encoding="utf-8"?>
<!-- Generator: Adobe Illustrator 16.0.0, SVG Export Plug-In . SVG Version: 6.00 Build 0)  -->
<!DOCTYPE svg PUBLIC "-//W3C//DTD SVG 1.1//EN" "http://www.w3.org/Graphics/SVG/1.1/DTD/svg11.dtd">
<svg version="1.1" xmlns="http://www.w3.org/2000/svg" xmlns:xlink="http://www.w3.org/1999/xlink" x="0px" y="0px" width="100px"
	 height="100px" viewBox="0 0 100 100" enable-background="new 0 0 100 100" xml:space="preserve">
<g id="Layer_3">
</g>
<g id="Your_Icon">
</g>
<g id="Layer_4">
	<g>
		<polygon fill="none" points="76.412,69.075 76.412,69.079 76.412,69.075 		"/>
		<path d="M94.889,42.965l-6.57-17.994C87.886,23.787,86.76,23,85.5,23H70v6h13.401l4.723,12.932
			c-5.351-0.025-12.806-0.004-18.728,0.016c-2.961,0.009-5.534,0.017-7.259,0.017c-0.188,0-0.378,0.015-0.569,0.036H38.432
			c-0.191-0.021-0.382-0.036-0.569-0.036c-1.725,0-4.298-0.008-7.259-0.017c-5.996-0.019-13.567-0.04-18.932-0.014L17.446,29H30v-6
			H15.5c-1.184,0-2.257,0.696-2.739,1.777L4.312,43.703c-1.014,1.155-1.717,2.902-1.707,5.508C2.637,57.133,9.833,72,23.479,72
			c0.006,0,0.103,0,0.108,0c5.866,0,11.199-2.967,15.017-8.424c2.956-4.225,4.792-9.623,4.792-14.118
			c0-0.527-0.035-0.993-0.086-1.458h13.379c-0.051,0.465-0.086,0.91-0.086,1.438C56.604,57.549,63.223,72,76.412,72
			c0.006,0,0.103,0,0.108,0c13.646,0,20.843-14.867,20.875-22.789C97.408,45.965,96.315,44.026,94.889,42.965z M23.723,66
			c-6.741,0-10.773-5.307-12.516-8.465c-2.465-4.469-2.757-8.297-2.44-9.599c5.143-0.06,26.798,0.021,28.497,0.022
			c0.396,1.431,0.319,5.647-2.143,10.195C33.527,61.099,30,66,24,66H23.723z M76,66c-6,0-9.521-4.898-11.114-7.844
			c-2.443-4.514-2.528-8.694-2.145-10.156c0,0,23.4-0.06,28.544,0c0.316,1.302,0.075,5.066-2.39,9.535
			C87.153,60.693,83.019,66,76.277,66H76z"/>
	</g>
</g>
</svg>
