<?xml version="1.0" encoding="utf-8"?>
<!-- Generator: Adobe Illustrator 16.0.0, SVG Export Plug-In . SVG Version: 6.00 Build 0)  -->
<!DOCTYPE svg PUBLIC "-//W3C//DTD SVG 1.1//EN" "http://www.w3.org/Graphics/SVG/1.1/DTD/svg11.dtd">
<svg version="1.1" xmlns="http://www.w3.org/2000/svg" xmlns:xlink="http://www.w3.org/1999/xlink" x="0px" y="0px" width="100px"
	 height="100px" viewBox="0 0 100 100" enable-background="new 0 0 100 100" xml:space="preserve">
<g id="Layer_3">
</g>
<g id="Your_Icon">
</g>
<g id="Layer_4">
	<g>
		<rect x="33" y="29" fill="#211915" width="6" height="38"/>
		<rect x="21.8" y="35.9" fill="#211915" width="6" height="31"/>
		<rect x="10.8" y="50" fill="#211915" width="6" height="17"/>
		<path fill="#211915" d="M87.892,44.443c-3.586-1.88-7.86-1.775-11.713,0.153C71.98,33.4,61.778,27.3,47,27.3c-1.657,0-3,1.343-3,3
			V64c0,1.657,1.343,3,3,3h44.801c1.657,0,3-1.343,3-3c0-0.691,0.014-1.404,0.027-2.13C94.938,56.106,95.089,48.213,87.892,44.443z
			 M88.842,61H50V33.401c8.856,0.613,18.762,4.229,21.548,16.639c0.233,1.044,1.006,1.884,2.026,2.204
			c1.021,0.322,2.134,0.076,2.924-0.646c1.733-1.584,3.916-2.53,5.839-2.53c0.964,0,1.896,0.232,2.771,0.69
			C88.593,51.583,88.921,55.403,88.842,61z"/>
		<rect y="45" fill="#211915" width="6" height="22"/>
	</g>
</g>
</svg>
