<?xml version="1.0" encoding="utf-8"?>
<!-- Generator: Adobe Illustrator 16.0.0, SVG Export Plug-In . SVG Version: 6.00 Build 0)  -->
<!DOCTYPE svg PUBLIC "-//W3C//DTD SVG 1.1//EN" "http://www.w3.org/Graphics/SVG/1.1/DTD/svg11.dtd">
<svg version="1.1" xmlns="http://www.w3.org/2000/svg" xmlns:xlink="http://www.w3.org/1999/xlink" x="0px" y="0px" width="100px"
	 height="100px" viewBox="0 0 100 100" enable-background="new 0 0 100 100" xml:space="preserve">
<g id="Layer_3" display="none">
</g>
<g id="Your_Icon">
</g>
<g id="Layer_4">
	<g>
		<path fill="none" d="M49,20.946c3.311,0,6-2.69,6-5.997c0-3.312-2.689-6.003-6-6.003s-6,2.69-6,6.003
			C43,18.255,45.689,20.946,49,20.946z"/>
		<path fill="#211915" d="M50,46.799c-7.168,0-13,5.832-13,13.001V100h6V59.8c0-3.86,3.141-7.001,7-7.001s7,3.141,7,7.001V100h6
			V59.8C63,52.631,57.168,46.799,50,46.799z"/>
		<path fill="#211915" d="M49,26.946c6.617,0,12-5.382,12-11.997C61,8.33,55.617,2.946,49,2.946S37,8.33,37,14.949
			C37,21.564,42.383,26.946,49,26.946z M49,8.946c3.311,0,6,2.69,6,6.003c0,3.307-2.689,5.997-6,5.997s-6-2.69-6-5.997
			C43,11.636,45.689,8.946,49,8.946z"/>
		<path fill="#211915" d="M73.7,6c0,15-11.215,27.146-25,27.146S23.7,21,23.7,6h-6c0,19,13.906,33.146,31,33.146S79.7,25,79.7,6
			H73.7z"/>
	</g>
</g>
</svg>
