<?xml version="1.0" encoding="utf-8"?>
<!-- Generator: Adobe Illustrator 16.0.0, SVG Export Plug-In . SVG Version: 6.00 Build 0)  -->
<!DOCTYPE svg PUBLIC "-//W3C//DTD SVG 1.1//EN" "http://www.w3.org/Graphics/SVG/1.1/DTD/svg11.dtd">
<svg version="1.1" xmlns="http://www.w3.org/2000/svg" xmlns:xlink="http://www.w3.org/1999/xlink" x="0px" y="0px" width="100px"
	 height="100px" viewBox="0 0 100 100" enable-background="new 0 0 100 100" xml:space="preserve">
<g id="Layer_3">
</g>
<g id="Your_Icon">
</g>
<g id="Layer_4">
	<path fill="#211915" d="M49.95,15.7c-11.805,0-22.528,5.843-28.95,15.328V13h-6v27.5c0,1.657,1.343,3.5,3,3.5h28v-6H24.126
		c4.93-10,14.813-16.05,25.824-16.05c15.99,0,29,12.884,29,28.875s-13.01,28.938-29,28.938c-12.17,0-23.292-7.715-27.437-19.152
		C21.902,58.923,21.5,57.9,21,55.365V52h-6v4.055c0.342,2.235,1.185,4.445,1.954,6.568C21.955,76.426,35.224,85.7,49.91,85.7
		c19.299,0,35.02-15.701,35.02-35S69.249,15.7,49.95,15.7z"/>
</g>
</svg>
