<?xml version="1.0" encoding="utf-8"?>
<!-- Generator: Adobe Illustrator 16.0.0, SVG Export Plug-In . SVG Version: 6.00 Build 0)  -->
<!DOCTYPE svg PUBLIC "-//W3C//DTD SVG 1.1//EN" "http://www.w3.org/Graphics/SVG/1.1/DTD/svg11.dtd">
<svg version="1.1" xmlns="http://www.w3.org/2000/svg" xmlns:xlink="http://www.w3.org/1999/xlink" x="0px" y="0px" width="100px"
	 height="100px" viewBox="0 0 100 100" enable-background="new 0 0 100 100" xml:space="preserve">
<g id="Layer_3" display="none">
</g>
<g id="Your_Icon">
</g>
<g id="Layer_4">
	<g>
		<path fill="none" d="M50.125,8.5C35.168,8.5,23,20.594,23,35.459c0,7.103,2.212,13.316,6.398,17.967
			c3.214,3.57,9.51,14.253,10.221,15.46C39.892,69.347,40,69.873,40,70.409v15.873c0,2.755,3.456,5.107,6.287,5.218
			c0.03,0,6.188-0.003,6.464-0.007C55.612,91.382,58,88.992,58,86.277V70.409c0-0.603,0.268-1.191,0.607-1.689
			c0.333-0.488,8.229-11.998,11.197-15.296c4.612-5.125,7.174-11.505,7.174-17.965C76.979,20.594,64.944,8.5,50.125,8.5z M56,85.5
			c0,0-0.321,3-7.569,3c-6.325,0-6.431-3-6.431-3V76h14V85.5z M56,74H42v-6h14V74z"/>
		<path fill="#211915" d="M50.125,2.5C31.86,2.5,17,17.285,17,35.459c0,8.609,2.71,16.21,7.903,21.98
			C27.125,59.907,32,67.659,34,71.232v15.05c0,6.331,6.369,11.241,12.038,11.463C46.078,97.747,46.532,98,47.095,98h2.87
			c0.117,0,2.788-0.25,2.99-0.26C59.093,97.502,64,92.223,64,86.277v-14.94c3-3.695,8.138-11.584,10.222-13.899
			c5.605-6.229,8.735-14.034,8.735-21.979C82.957,17.285,68.252,2.5,50.125,2.5z M69.848,53.424
			C66.88,56.722,58.94,68.231,58.607,68.72C58.268,69.218,58,69.807,58,70.409v15.868c0,2.715-2.938,5.211-5.8,5.322
			c-0.275,0.004-5.927-0.1-5.956-0.1C43.412,91.39,40,89.037,40,86.282V70.409c0-0.536-0.108-1.062-0.381-1.523
			c-0.711-1.207-7.025-11.89-10.239-15.46c-4.186-4.651-6.389-10.864-6.389-17.967C22.991,20.594,35.164,8.5,50.121,8.5
			c14.819,0,26.877,12.094,26.877,26.959C76.998,41.919,74.46,48.299,69.848,53.424z"/>
		<path fill="#211915" d="M42,85.5c0,0,0.106,3,6.431,3c7.249,0,7.569-3,7.569-3V76H42V85.5z"/>
		<rect x="42" y="68" fill="#211915" width="14" height="6"/>
	</g>
</g>
</svg>
