<?xml version="1.0" encoding="utf-8"?>
<!-- Generator: Adobe Illustrator 16.0.0, SVG Export Plug-In . SVG Version: 6.00 Build 0)  -->
<!DOCTYPE svg PUBLIC "-//W3C//DTD SVG 1.1//EN" "http://www.w3.org/Graphics/SVG/1.1/DTD/svg11.dtd">
<svg version="1.1" xmlns="http://www.w3.org/2000/svg" xmlns:xlink="http://www.w3.org/1999/xlink" x="0px" y="0px" width="100px"
	 height="100px" viewBox="0 0 100 100" enable-background="new 0 0 100 100" xml:space="preserve">
<g id="Layer_3">
</g>
<g id="Your_Icon">
</g>
<g id="Layer_4">
	<path d="M74.536,71.242l-4.192-4.292L88.207,49.5L70.344,32.05l4.192-4.292l20.06,19.596c0.578,0.564,0.904,1.338,0.904,2.146
		s-0.326,1.582-0.904,2.146L74.536,71.242z"/>
	<path d="M25.264,71.242L5.204,51.646C4.625,51.082,4.3,50.308,4.3,49.5s0.326-1.582,0.904-2.146l20.06-19.596l4.192,4.292
		L11.593,49.5l17.863,17.45L25.264,71.242z"/>
	
		<rect x="46.5" y="15.622" transform="matrix(0.9658 0.2591 -0.2591 0.9658 14.5172 -11.1358)" fill="#211915" width="6" height="67.757"/>
</g>
</svg>
