<?xml version="1.0" encoding="utf-8"?>
<!-- Generator: Adobe Illustrator 16.0.0, SVG Export Plug-In . SVG Version: 6.00 Build 0)  -->
<!DOCTYPE svg PUBLIC "-//W3C//DTD SVG 1.1//EN" "http://www.w3.org/Graphics/SVG/1.1/DTD/svg11.dtd">
<svg version="1.1" xmlns="http://www.w3.org/2000/svg" xmlns:xlink="http://www.w3.org/1999/xlink" x="0px" y="0px" width="100px"
	 height="100px" viewBox="0 0 100 100" enable-background="new 0 0 100 100" xml:space="preserve">
<g id="Layer_3" display="none">
</g>
<g id="Your_Icon">
</g>
<g id="Layer_4">
	<g>
		<rect x="26" y="81" fill="#211915" width="48" height="6"/>
		<path d="M80,28.78V4c0-1.657-1.143-3-2.8-3h-54C21.543,1,20,2.343,20,4v24.78c0,2.662,1.865,6.54,14.955,15.125
			c3.537,2.32,7.083,4.413,9.665,5.911c-2.599,1.505-6.16,3.646-9.79,6.027C21.74,64.43,20,68.308,20,70.97v24.78
			c0,1.657,1.343,3.25,3,3.25h54c1.657,0,3-1.593,3-3.25V70.97c0-2.646-1.765-6.509-14.853-15.106
			c-3.543-2.327-7.044-4.428-9.627-5.931c2.6-1.509,6.092-3.659,9.728-6.047C78.335,35.289,80,31.426,80,28.78z M74,71.069V81v6v6
			H26v-6v-6v-9.937c0.765-2.679,11.551-10.471,23.998-17.388C62.428,60.605,73.212,68.397,74,71.069z M49.998,46.075
			C37.551,39.16,27,31.369,26,28.687V19v-6V7h48v6v6v9.681C73,31.353,62.428,39.145,49.998,46.075z"/>
		<rect x="26" y="13" fill="#211915" width="48" height="6"/>
	</g>
</g>
</svg>
