<?xml version="1.0" encoding="utf-8"?>
<!-- Generator: Adobe Illustrator 16.0.0, SVG Export Plug-In . SVG Version: 6.00 Build 0)  -->
<!DOCTYPE svg PUBLIC "-//W3C//DTD SVG 1.1//EN" "http://www.w3.org/Graphics/SVG/1.1/DTD/svg11.dtd">
<svg version="1.1" xmlns="http://www.w3.org/2000/svg" xmlns:xlink="http://www.w3.org/1999/xlink" x="0px" y="0px" width="100px"
	 height="100px" viewBox="0 0 100 100" enable-background="new 0 0 100 100" xml:space="preserve">
<g id="Layer_3">
</g>
<g id="Your_Icon">
</g>
<g id="Layer_4">
	<g>
		<path fill="none" d="M72.45,38.228c-0.224,1.753-1.384,5.663-7.03,9.502c4.428,1.109,11.279,1.841,20.02-0.309
			c-2.589-7.395-4.031-15.931-4.687-20.611C77.311,28.944,73.941,34.79,72.45,38.228z"/>
		<path fill="none" d="M30.968,71.471c2.299,1.248,5.518,2.464,9.354,2.488c1.546,0.01,2.831,1.192,2.97,2.732
			c0.014,0.149,1.536,14.575,8.404,15.996c2.475-2.701,9.275-10.465,14.548-19.7c-4.36-3.687-9.907-5.553-16.523-5.553
			C42.395,67.435,35.353,69.7,30.968,71.471z"/>
		<path d="M34.791,50.838C34.993,50.88,35.197,50.9,35.4,50.9c0.592,0,1.176-0.176,1.675-0.511c0.841-0.566,1.773-1.141,2.761-1.748
			C46.742,44.39,56.2,38.566,56.1,22.382l-6,0.037c0.079,12.809-7.087,17.221-13.409,21.113c-0.626,0.385-1.23,0.758-1.818,1.131
			c-10.345-3.333-8.609-20.455-8.591-20.63c0.094-0.841-0.172-1.683-0.731-2.317s-1.361-1.003-2.207-1.016
			c-3.459-0.05-8.352-4.227-11.929-6.132c7.124-4.736,24.579-11.357,44.092,0.874c0.892,0.559,2.01,0.609,2.948,0.135
			c0.414-0.21,10.152-5.255,10.11-15.59l-6,0.025c0.02,4.753-3.506,7.945-5.494,9.367C28.571-7.117,4.231,12.438,3.985,12.663
			c-0.689,0.625-1.05,1.534-0.976,2.462s0.574,1.769,1.354,2.275c0.98,0.638,8.752,7.602,15.788,8.958
			C20.047,32.907,21.298,48.04,34.791,50.838z"/>
		<g>
			<path d="M72.146,67.285C66.402,61.406,58.856,58.4,49.721,58.4c-13.479,0-25.646,6.559-26.158,6.838
				c-0.83,0.453-1.397,1.271-1.532,2.206c-0.134,0.937,0.181,1.881,0.85,2.549c0.256,0.256,5.879,5.875,14.79,6.877
				c0.982,5.746,4.411,19.096,15.136,19.096c0.01,0,0.105,0,0.114,0c0.8,0,1.563-0.434,2.122-1.008
				c0.43-0.441,10.61-11.013,17.605-24.141C73.263,69.663,73.06,68.221,72.146,67.285z M51.696,89.653
				c-6.868-1.421-8.391-15.847-8.404-15.996c-0.139-1.54-1.424-2.723-2.97-2.732c-3.837-0.024-7.056-1.24-9.354-2.488
				c4.385-1.771,11.427-4.036,18.753-4.036c6.616,0,12.163,1.866,16.523,5.553C60.972,79.188,54.171,86.952,51.696,89.653z"/>
		</g>
		<g>
			<path d="M99.982,46.375l-8.524,0.05c-3.736-10.048-5.159-23.588-5.174-23.73c-0.155-1.516-1.423-2.675-2.946-2.694
				c-0.039,0-0.078-0.001-0.117-0.001c-9.496,0-15.805,14.681-16.495,16.36C66.576,36.722,66.5,37.108,66.5,37.5
				c0,2.54-5.503,6.243-9.473,7.939c-1.041,0.441-1.744,1.432-1.82,2.56s0.489,2.203,1.461,2.78c0.381,0.227,6.927,4.011,17.85,4.01
				c4.429,0,9.578-0.622,15.325-2.355l10.175-0.059L99.982,46.375z M65.42,47.729c5.646-3.839,6.807-7.749,7.03-9.502
				c1.491-3.438,4.86-9.283,8.303-11.418c0.655,4.681,2.098,13.217,4.687,20.611C76.699,49.57,69.848,48.839,65.42,47.729z"/>
		</g>
	</g>
</g>
</svg>
