<?xml version="1.0" encoding="utf-8"?>
<!-- Generator: Adobe Illustrator 16.0.0, SVG Export Plug-In . SVG Version: 6.00 Build 0)  -->
<!DOCTYPE svg PUBLIC "-//W3C//DTD SVG 1.1//EN" "http://www.w3.org/Graphics/SVG/1.1/DTD/svg11.dtd">
<svg version="1.1" xmlns="http://www.w3.org/2000/svg" xmlns:xlink="http://www.w3.org/1999/xlink" x="0px" y="0px" width="100px"
	 height="100px" viewBox="0 0 100 100" enable-background="new 0 0 100 100" xml:space="preserve">
<g id="Layer_3">
</g>
<g id="Your_Icon">
</g>
<g id="Layer_4">
	<g>
		<path fill="none" d="M8,92h84V18H8V92z M48.043,50.059l12.466,8.904l16.213-18.915c0.818-0.954,2.142-1.298,3.319-0.861
			C81.218,39.622,82,40.745,82,42v38c0,1.657-1.343,3-3,3H20.8c-1.193,0-2.272-0.707-2.75-1.8s-0.261-2.365,0.55-3.24l25.5-27.5
			C45.126,49.354,46.815,49.182,48.043,50.059z M27.299,24.8c6.617,0,12.001,5.383,12.001,12s-5.384,12-12.001,12
			c-6.616,0-11.999-5.383-11.999-12S20.683,24.8,27.299,24.8z"/>
		<path fill="none" d="M27.299,42.8c3.314,0,6.001-2.687,6.001-6s-2.685-6-6.001-6c-3.307,0-5.999,2.687-5.999,6
			S23.992,42.8,27.299,42.8z"/>
		<path d="M18.05,81.2c0.477,1.093,1.557,1.8,2.75,1.8H79c1.657,0,3-1.343,3-3V42c0-1.255-0.782-2.378-1.959-2.813
			c-1.177-0.437-2.501-0.092-3.319,0.861L60.509,58.963l-12.466-8.904c-1.228-0.877-2.917-0.704-3.943,0.401l-25.5,27.5
			C17.789,78.835,17.573,80.107,18.05,81.2z M59.256,65.441c1.264,0.904,3.011,0.691,4.021-0.489L76,50.11V77H27.673l19.032-20.524
			L59.256,65.441z"/>
		<g>
			<path fill="none" d="M27.299,30.8c-3.307,0-5.999,2.687-5.999,6s2.692,6,5.999,6c3.314,0,6.001-2.687,6.001-6
				S30.615,30.8,27.299,30.8z"/>
			<g>
				<path d="M27.299,24.8c-6.616,0-11.999,5.383-11.999,12s5.383,12,11.999,12c6.617,0,12.001-5.383,12.001-12
					S33.916,24.8,27.299,24.8z M27.299,42.8c-3.307,0-5.999-2.687-5.999-6s2.692-6,5.999-6c3.316,0,6.001,2.687,6.001,6
					S30.613,42.8,27.299,42.8z"/>
			</g>
		</g>
		<path d="M92,12H8c-3.313,0-6,2.687-6,6v74c0,3.313,2.687,6,6,6h84c3.313,0,6-2.687,6-6V18C98,14.687,95.313,12,92,12z M92,92H8V18
			h84V92z"/>
	</g>
</g>
</svg>
