<?xml version="1.0" encoding="utf-8"?>
<!-- Generator: Adobe Illustrator 16.0.0, SVG Export Plug-In . SVG Version: 6.00 Build 0)  -->
<!DOCTYPE svg PUBLIC "-//W3C//DTD SVG 1.1//EN" "http://www.w3.org/Graphics/SVG/1.1/DTD/svg11.dtd">
<svg version="1.1" xmlns="http://www.w3.org/2000/svg" xmlns:xlink="http://www.w3.org/1999/xlink" x="0px" y="0px" width="100px"
	 height="100px" viewBox="0 0 100 100" enable-background="new 0 0 100 100" xml:space="preserve">
<g id="Layer_3">
</g>
<g id="Your_Icon">
</g>
<g id="Layer_4">
	<path d="M5,99.8c-0.795,0-1.558-0.315-2.121-0.878C2.316,98.359,2,97.596,2,96.8V34.499c0-1.657,1.344-3,3-3h90
		c1.656,0,3,1.343,3,3v62.222c0,1.656-1.342,2.999-2.998,3l-90,0.079C5.002,99.8,5.001,99.8,5,99.8z M8,37.499v56.298l84-0.073
		V37.499H8z"/>
	<path fill="#211915" d="M70.5,30h-6v-3.828c0-4.7-2.998-8.859-7.141-9.922c-0.776-0.104-4.278-0.218-7.154-0.266
		c-2.678,0.032-6.004,0.108-6.699,0.178c-4.568,0.93-8.006,5.221-8.006,10.01V30h-6v-3.828c0-7.63,5.557-14.471,12.924-15.912
		c0.25-0.049,1.006-0.196,7.796-0.275c7.29,0.121,8.204,0.348,8.504,0.422C65.656,12.116,70.5,18.6,70.5,26.172V30z"/>
</g>
</svg>
