<?xml version="1.0" encoding="utf-8"?>
<!-- Generator: Adobe Illustrator 16.0.0, SVG Export Plug-In . SVG Version: 6.00 Build 0)  -->
<!DOCTYPE svg PUBLIC "-//W3C//DTD SVG 1.1//EN" "http://www.w3.org/Graphics/SVG/1.1/DTD/svg11.dtd">
<svg version="1.1" xmlns="http://www.w3.org/2000/svg" xmlns:xlink="http://www.w3.org/1999/xlink" x="0px" y="0px" width="64px"
	 height="100px" viewBox="0 0 64 100" enable-background="new 0 0 64 100" xml:space="preserve">
<g id="Layer_3">
</g>
<g id="Your_Icon">
</g>
<g id="Layer_4">
	<g>
		<path fill="none" d="M39.022,63.479l2.292-1.936c3.343-2.822,4.958-6.575,4.115-9.561c-1.916-6.775-7.493-9.349-13.952-12.329
			c-2.213-1.021-4.52-2.088-6.711-3.385l0.211,0.251l-2.292,1.936c-3.343,2.823-4.958,6.575-4.115,9.561
			c1.916,6.775,7.493,9.349,13.952,12.328c2.213,1.021,4.52,2.089,6.712,3.385L39.022,63.479z"/>
		<path d="M43.947,67.174l1.238-1.046c5.217-4.404,7.522-10.449,6.018-15.776c-2.667-9.435-10.395-13-17.212-16.145
			c-6.489-2.994-12.094-5.58-13.759-12.482c-0.568-2.357,0.232-5.041,2.198-7.535C24.962,10.976,28.842,9,32.317,9
			c0,0,0.003,0,0.005,0c3.216,0,6.077,1.121,8.346,3.34C42.919,14.541,44,17.364,44,20.471V23h6v-2.529
			c0-4.734-1.723-9.08-5.137-12.42C41.468,4.729,37.116,3,32.323,3c-0.004,0-0.006,0-0.008,0c-5.323,0-10.917,2.803-14.599,7.477
			c-3.11,3.949-4.319,8.548-3.316,12.705c1.021,4.234,3.082,7.284,5.652,9.67l-1.238,1.033c-5.217,4.405-7.522,10.443-6.018,15.77
			c2.667,9.435,10.395,12.996,17.212,16.142c6.489,2.994,12.094,5.579,13.759,12.481c0.568,2.358-0.232,5.04-2.198,7.535
			C39.038,89.025,35.159,91,31.684,91c0,0-0.003,0-0.005,0c-3.216,0-6.078-1.121-8.346-3.34C21.081,85.458,20,82.636,20,79.529V77
			h-6v2.529c0,4.734,1.723,9.08,5.137,12.42C22.533,95.271,26.885,97,31.678,97c0.003,0,0.004,0,0.008,0
			c5.323,0,10.916-2.803,14.598-7.477c3.11-3.949,4.319-8.549,3.316-12.705C48.579,72.584,46.518,69.56,43.947,67.174z
			 M18.57,48.017c-0.843-2.985,0.772-6.737,4.115-9.561l2.292-1.936l-0.211-0.251c2.191,1.297,4.498,2.364,6.711,3.385
			c6.459,2.98,12.036,5.554,13.952,12.329c0.843,2.985-0.772,6.738-4.115,9.561l-2.292,1.936l0.212,0.25
			c-2.192-1.296-4.499-2.363-6.712-3.385C26.063,57.365,20.486,54.792,18.57,48.017z"/>
	</g>
</g>
</svg>
