<?xml version="1.0" encoding="utf-8"?>
<!-- Generator: Adobe Illustrator 16.0.0, SVG Export Plug-In . SVG Version: 6.00 Build 0)  -->
<!DOCTYPE svg PUBLIC "-//W3C//DTD SVG 1.1//EN" "http://www.w3.org/Graphics/SVG/1.1/DTD/svg11.dtd">
<svg version="1.1" xmlns="http://www.w3.org/2000/svg" xmlns:xlink="http://www.w3.org/1999/xlink" x="0px" y="0px" width="100px"
	 height="100px" viewBox="0 0 100 100" enable-background="new 0 0 100 100" xml:space="preserve">
<g id="Layer_3">
</g>
<g id="Your_Icon">
</g>
<g id="Layer_4">
	<g>
		<path d="M88,71.365v-20.66C88,49.049,86.657,48,85,48H53V30.236c-1.972,0.466-4.027,0.466-6-0.001V48H15c-1.657,0-3,1.049-3,2.705
			v20.658c1.973-0.466,4.027-0.465,6,0.002V54h29v17.364c1.973-0.466,4.027-0.465,6,0.002V54h29v17.363
			C83.973,70.897,86.027,70.898,88,71.365z"/>
	</g>
	<g>
		<path d="M57.042,10.896c-1.951-1.931-4.496-2.895-7.04-2.895c-2.574,0-5.148,0.987-7.105,2.961
			c-3.885,3.923-3.86,10.255,0.064,14.14c1.951,1.933,4.495,2.897,7.039,2.897c2.574,0,5.147-0.988,7.104-2.96
			C60.988,21.117,60.964,14.783,57.042,10.896z M52.845,20.812c-0.759,0.766-1.77,1.187-2.846,1.187
			c-1.062,0-2.062-0.412-2.818-1.162c-0.757-0.749-1.177-1.75-1.182-2.817c-0.005-1.068,0.407-2.076,1.156-2.832
			c0.759-0.765,1.77-1.187,2.846-1.187c1.062,0,2.064,0.412,2.816,1.156C54.384,16.709,54.394,19.248,52.845,20.812z"/>
	</g>
	<g>
		<path d="M57.042,76.896c-1.951-1.931-4.496-2.895-7.04-2.895c-2.574,0-5.148,0.987-7.105,2.961
			c-3.885,3.923-3.86,10.255,0.064,14.14c1.951,1.933,4.495,2.897,7.039,2.897c2.574,0,5.147-0.988,7.104-2.96
			C60.988,87.117,60.964,80.783,57.042,76.896z M52.845,86.812c-0.759,0.766-1.77,1.187-2.846,1.187
			c-1.062,0-2.062-0.412-2.818-1.162c-0.757-0.749-1.177-1.75-1.182-2.817c-0.005-1.068,0.407-2.076,1.156-2.832
			c0.759-0.765,1.77-1.187,2.846-1.187c1.062,0,2.064,0.412,2.816,1.156C54.384,82.709,54.394,85.248,52.845,86.812z"/>
	</g>
	<g>
		<path d="M92.042,76.896c-1.951-1.931-4.496-2.895-7.04-2.895c-2.574,0-5.148,0.987-7.105,2.961
			c-3.885,3.923-3.86,10.255,0.064,14.14c1.951,1.933,4.495,2.897,7.039,2.897c2.574,0,5.147-0.988,7.104-2.96
			C95.988,87.117,95.964,80.783,92.042,76.896z M87.845,86.812c-0.759,0.766-1.77,1.187-2.846,1.187
			c-1.062,0-2.062-0.412-2.818-1.162c-0.757-0.749-1.177-1.75-1.182-2.817c-0.005-1.068,0.407-2.076,1.156-2.832
			c0.759-0.765,1.77-1.187,2.846-1.187c1.062,0,2.064,0.412,2.816,1.156C89.384,82.709,89.394,85.248,87.845,86.812z"/>
	</g>
	<g>
		<path d="M22.042,76.896c-1.951-1.931-4.496-2.895-7.04-2.895c-2.574,0-5.148,0.987-7.105,2.961
			c-3.885,3.923-3.86,10.255,0.064,14.14c1.951,1.933,4.495,2.897,7.039,2.897c2.574,0,5.147-0.988,7.104-2.96
			C25.988,87.117,25.964,80.783,22.042,76.896z M17.845,86.812c-0.759,0.766-1.77,1.187-2.846,1.187
			c-1.062,0-2.062-0.412-2.818-1.162c-0.757-0.749-1.177-1.75-1.182-2.817c-0.005-1.068,0.407-2.076,1.156-2.832
			c0.759-0.765,1.77-1.187,2.846-1.187c1.062,0,2.064,0.412,2.816,1.156C19.384,82.709,19.394,85.248,17.845,86.812z"/>
	</g>
</g>
</svg>
