<?xml version="1.0" encoding="utf-8"?>
<!-- Generator: Adobe Illustrator 16.0.0, SVG Export Plug-In . SVG Version: 6.00 Build 0)  -->
<!DOCTYPE svg PUBLIC "-//W3C//DTD SVG 1.1//EN" "http://www.w3.org/Graphics/SVG/1.1/DTD/svg11.dtd">
<svg version="1.1" xmlns="http://www.w3.org/2000/svg" xmlns:xlink="http://www.w3.org/1999/xlink" x="0px" y="0px" width="100px"
	 height="100px" viewBox="0 0 100 100" enable-background="new 0 0 100 100" xml:space="preserve">
<g id="Layer_3" display="none">
</g>
<g id="Your_Icon">
</g>
<g id="Layer_4">
	<path d="M97.292,21.003L79.118,3.255c-1.166-1.139-2.68-1.708-4.192-1.708c-1.533,0-3.065,0.584-4.236,1.75L6.832,66.953
		c-0.965,0.963-1.574,2.226-1.727,3.581l-2.39,21.298c-0.201,1.792,0.415,3.58,1.678,4.868C5.526,97.856,7.074,98.5,8.679,98.5
		c0.182,0,0.364-0.008,0.548-0.025l20.722-1.9c1.422-0.13,2.75-0.764,3.747-1.786l63.699-65.304
		C99.707,27.114,99.661,23.317,97.292,21.003z M8.679,92.5l2.223-19.806L28.7,90.664L8.679,92.5z M33.212,86.692L14.49,67.791
		L74.926,7.547L93.1,25.296L33.212,86.692z"/>
</g>
</svg>
