<?xml version="1.0" encoding="utf-8"?>
<!-- Generator: Adobe Illustrator 16.0.0, SVG Export Plug-In . SVG Version: 6.00 Build 0)  -->
<!DOCTYPE svg PUBLIC "-//W3C//DTD SVG 1.1//EN" "http://www.w3.org/Graphics/SVG/1.1/DTD/svg11.dtd">
<svg version="1.1" xmlns="http://www.w3.org/2000/svg" xmlns:xlink="http://www.w3.org/1999/xlink" x="0px" y="0px" width="100px"
	 height="100px" viewBox="0 0 100 100" enable-background="new 0 0 100 100" xml:space="preserve">
<g id="Layer_3" display="none">
</g>
<g id="Your_Icon">
</g>
<g id="Layer_4">
	<g>
		<path d="M75.036,28.258l-4.192,4.292L88.707,50L70.844,67.45l4.192,4.292l20.06-19.596C95.674,51.582,96,50.808,96,50
			s-0.326-1.582-0.904-2.146L75.036,28.258z"/>
		<path d="M25.764,28.258L5.704,47.854C5.125,48.418,4.8,49.192,4.8,50s0.326,1.582,0.904,2.146l20.06,19.596l4.192-4.292L12.093,50
			l17.863-17.45L25.764,28.258z"/>
		
			<rect x="47" y="16.122" transform="matrix(-0.9658 -0.2591 0.2591 -0.9658 85.3362 111.2483)" fill="#211915" width="6" height="67.757"/>
	</g>
</g>
</svg>
