<?xml version="1.0" encoding="utf-8"?>
<!-- Generator: Adobe Illustrator 16.0.0, SVG Export Plug-In . SVG Version: 6.00 Build 0)  -->
<!DOCTYPE svg PUBLIC "-//W3C//DTD SVG 1.1//EN" "http://www.w3.org/Graphics/SVG/1.1/DTD/svg11.dtd">
<svg version="1.1" xmlns="http://www.w3.org/2000/svg" xmlns:xlink="http://www.w3.org/1999/xlink" x="0px" y="0px" width="100px"
	 height="100px" viewBox="0 0 100 100" enable-background="new 0 0 100 100" xml:space="preserve">
<g id="Layer_3">
</g>
<g id="Your_Icon">
</g>
<g id="Layer_4">
	<g>
		<g>
			<g>
				<g>
					<path fill="none" d="M47,80.01c0,0.286,0.591,1.394,3,1.394s3-1.107,3-1.394V51.888l-6-3.127V80.01z"/>
					<path d="M41,39.5v40.51c0,4.088,3.543,7.394,9,7.394c5.457,0,9-3.306,9-7.394V48L41,39.5z M53,80.01
						c0,0.286-0.591,1.394-3,1.394s-3-1.107-3-1.394V48.761l6,3.127V80.01z"/>
				</g>
			</g>
		</g>
		<g>
			<path d="M69.685,20H81l0-19H19l0.001,19H30v57.414c0,21.887,20.305,22.48,20.305,22.48c6.145-0.342,10.986-2.547,14.39-6.454
				c5.408-6.207,5.108-14.683,5.032-15.925L69.685,20z M63.727,77.596l0.009,0.232c0.005,0.069,0.474,7.019-3.592,11.652
				c-2.281,2.599-5.742,4.051-10.138,4.317C48.695,93.756,36,92.941,36,77.414V14H25V7h50v7H63.681L63.727,77.596z"/>
		</g>
	</g>
</g>
</svg>
