<?xml version="1.0" encoding="utf-8"?>
<!-- Generator: Adobe Illustrator 16.0.0, SVG Export Plug-In . SVG Version: 6.00 Build 0)  -->
<!DOCTYPE svg PUBLIC "-//W3C//DTD SVG 1.1//EN" "http://www.w3.org/Graphics/SVG/1.1/DTD/svg11.dtd">
<svg version="1.1" xmlns="http://www.w3.org/2000/svg" xmlns:xlink="http://www.w3.org/1999/xlink" x="0px" y="0px" width="100px"
	 height="100px" viewBox="0 0 100 100" enable-background="new 0 0 100 100" xml:space="preserve">
<g id="Layer_3">
</g>
<g id="Your_Icon">
</g>
<g id="Layer_4">
	<g>
		<path fill="none" d="M40.961,20.121c-22.662,0-41.536,13.369-25.384,67.379c0,0,2.742,0.633,5.695,0.633
			c4.922,0,10.43-1.758,4.805-11.133c0,0,5.63,0.987,10.831,0.987c6.503,0,12.336-1.542,5.669-8.487c0,0,4.43,0.633,9.07,0.633
			c7.734,0,16.055-1.758,5.43-11.133c0,0,28-0.5,11-12.5c0,0,2.756,0.394,6.322,0.394c7.802,0,19.481-1.884,14.678-13.894
			C89.077,33,63.196,20.121,40.961,20.121z"/>
		<path fill="#211915" d="M94.648,30.771c-0.548-1.368-1.579-2.486-2.898-3.144c-1.108-0.551-27.412-13.507-50.789-13.507
			c-13.643,0-23.797,4.348-30.182,12.92C1.396,39.643,1.085,59.98,9.829,89.219c0.617,2.066,2.297,3.643,4.398,4.128
			c0.35,0.08,3.511,0.786,7.045,0.786c7.229,0,10.46-3.026,11.897-5.564c0.8-1.413,1.223-2.962,1.271-4.64
			c0.816,0.037,1.645,0.059,2.467,0.059c3.098,0,11.326-0.065,13.959-6.243C51.103,77.191,51.276,77,51.389,76
			c0.086,0,0.173,0,0.259,0c3.634,0,13.288,0.066,15.916-6.885c0.709-1.877,0.686-3.666,0.233-5.36
			c3.708-0.805,9.738-2.748,11.375-8.068c0.329-1.071,0.444-2.091,0.393-3.069c6.888-0.766,11.733-3.16,14.438-7.155
			C95.873,42.699,97.504,37.911,94.648,30.771z M74.399,46.894c-3.566,0-6.322-0.394-6.322-0.394c17,12-11,12.5-11,12.5
			c10.625,9.375,2.305,11.133-5.43,11.133c-4.641,0-9.07-0.633-9.07-0.633c6.667,6.945,0.834,8.487-5.669,8.487
			C31.707,77.987,26.077,77,26.077,77c5.625,9.375,0.117,11.133-4.805,11.133c-2.953,0-5.695-0.633-5.695-0.633
			c-16.152-54.01,2.722-67.379,25.384-67.379C63.196,20.121,89.077,33,89.077,33C93.881,45.01,82.201,46.894,74.399,46.894z"/>
	</g>
</g>
</svg>
