<?xml version="1.0" encoding="utf-8"?>
<!-- Generator: Adobe Illustrator 16.0.0, SVG Export Plug-In . SVG Version: 6.00 Build 0)  -->
<!DOCTYPE svg PUBLIC "-//W3C//DTD SVG 1.1//EN" "http://www.w3.org/Graphics/SVG/1.1/DTD/svg11.dtd">
<svg version="1.1" xmlns="http://www.w3.org/2000/svg" xmlns:xlink="http://www.w3.org/1999/xlink" x="0px" y="0px" width="100px"
	 height="100px" viewBox="0 0 100 100" enable-background="new 0 0 100 100" xml:space="preserve">
<g id="Layer_3" display="none">
</g>
<g id="Your_Icon">
</g>
<g id="Layer_4">
	<g>
		<polygon fill="none" points="80,35 68,35 32.02,35 32,35 20,35 10,35 10,92.699 91,92.609 91,35 80.02,35 		"/>
		<g>
			<g>
				<path d="M91,15h-8.014l-0.007-8.104C82.979,5.242,81.636,4,79.979,4H66c-1.657,0-3,1.343-3,3v8H37.004l-0.007-8.104
					C36.996,5.242,35.653,4,33.997,4H20c-1.657,0-3,1.343-3,3v8h-7c-3.313,0-6,2.887-6,6.2v71.499c0,1.593,0.633,3.27,1.76,4.396
					C6.885,98.219,8.41,99,10,99c0.002,0,0.004,0,0.007,0l81-0.24C94.317,98.756,97,95.921,97,92.609V21.2
					C97,17.887,94.313,15,91,15z M69,10h7.982l0.015,19H69V10z M23,10h8l0.015,19H23V10z M91,92.609l-81,0.09V35h10h12h0.02H68h12
					h0.02H91V92.609z"/>
			</g>
		</g>
	</g>
</g>
</svg>
