<?xml version="1.0" encoding="utf-8"?>
<!-- Generator: Adobe Illustrator 16.0.0, SVG Export Plug-In . SVG Version: 6.00 Build 0)  -->
<!DOCTYPE svg PUBLIC "-//W3C//DTD SVG 1.1//EN" "http://www.w3.org/Graphics/SVG/1.1/DTD/svg11.dtd">
<svg version="1.1" xmlns="http://www.w3.org/2000/svg" xmlns:xlink="http://www.w3.org/1999/xlink" x="0px" y="0px" width="100px"
	 height="100px" viewBox="0 0 100 100" enable-background="new 0 0 100 100" xml:space="preserve">
<g id="Layer_3">
</g>
<g id="Your_Icon">
</g>
<g id="Layer_4">
	<path fill="#211915" d="M35.451,67.501l-18.5-0.001c-8.357,0-15.161-6.538-15.488-14.883c-0.005-0.154-0.004-2.06-0.003-2.827
		l0-0.291c0-0.174,0.005-2.936,0.012-3.106c0.33-8.357,7.133-14.894,15.488-14.894h21.5v6h-21.5c-5.121,0-9.291,4.005-9.493,9.119
		c-0.004,0.249-0.007,2.721-0.007,2.881l0,0.301c-0.001,0.695-0.004,2.383,0,2.627c0.199,5.067,4.369,9.072,9.491,9.072l18.5,0.001
		V67.501z"/>
	<rect x="29.5" y="46.5" fill="#211915" width="40" height="6"/>
	<path fill="#211915" d="M63.512,67.501v-6l18.5-0.001c5.121,0,9.29-4.005,9.491-9.119c0.004-0.234,0-1.893-0.002-2.58l0-0.303
		c0-0.158-0.001-2.589-0.008-2.907c-0.2-5.088-4.369-9.093-9.492-9.093H60.5v-6H82c8.357,0,15.161,6.537,15.488,14.882
		c0.012,0.245,0.012,2.825,0.012,3.118l0,0.289c0.006,2.642,0.002,2.734-0.004,2.852C97.17,60.962,90.368,67.5,82.012,67.5
		L63.512,67.501z"/>
</g>
</svg>
