<?xml version="1.0" encoding="utf-8"?>
<!-- Generator: Adobe Illustrator 16.0.0, SVG Export Plug-In . SVG Version: 6.00 Build 0)  -->
<!DOCTYPE svg PUBLIC "-//W3C//DTD SVG 1.1//EN" "http://www.w3.org/Graphics/SVG/1.1/DTD/svg11.dtd">
<svg version="1.1" xmlns="http://www.w3.org/2000/svg" xmlns:xlink="http://www.w3.org/1999/xlink" x="0px" y="0px" width="100px"
	 height="100px" viewBox="0 0 100 100" enable-background="new 0 0 100 100" xml:space="preserve">
<g id="Layer_3" display="none">
</g>
<g id="Your_Icon">
</g>
<g id="Layer_4">
	<g>
		<path fill="#211915" d="M51.9,0c-18.748,0-34,16.149-34,36c0,17.926,26.092,56.12,29.067,60.416C48.088,98.034,49.931,99,51.9,99
			s3.812-0.966,4.933-2.584C59.808,92.12,85.9,53.926,85.9,36C85.9,16.149,70.647,0,51.9,0z M51.9,93c0,0-28-40.432-28-57
			c0-16.569,12.535-30,28-30s28,13.431,28,30C79.9,52.568,51.9,93,51.9,93z"/>
		<polygon fill="#211915" points="55,21 49,21 49,31 39,31 39,37 49,37 49,47 55,47 55,37 65,37 65,31 55,31 		"/>
	</g>
</g>
</svg>
