<?xml version="1.0" encoding="utf-8"?>
<!-- Generator: Adobe Illustrator 16.0.0, SVG Export Plug-In . SVG Version: 6.00 Build 0)  -->
<!DOCTYPE svg PUBLIC "-//W3C//DTD SVG 1.1//EN" "http://www.w3.org/Graphics/SVG/1.1/DTD/svg11.dtd">
<svg version="1.1" xmlns="http://www.w3.org/2000/svg" xmlns:xlink="http://www.w3.org/1999/xlink" x="0px" y="0px" width="100px"
	 height="100px" viewBox="0 0 100 100" enable-background="new 0 0 100 100" xml:space="preserve">
<g id="Layer_3">
</g>
<g id="Your_Icon">
</g>
<g id="Layer_4">
	<g>
		<path fill="none" d="M49.976,22c-5.075,0-10.214,1.381-14.833,4.273c-13.107,8.207-17.078,25.48-8.867,38.587
			C31.588,73.345,40.702,78,50.027,78c5.074,0,10.213-1.38,14.831-4.272c13.107-8.206,17.073-25.485,8.871-38.582
			C68.415,26.655,59.3,22,49.976,22z M62.088,59.372l-12.956-3.798C47.854,55.2,47,54.027,47,52.695V31h6v19.447l10.798,3.166
			L62.088,59.372z"/>
		<path fill="#211915" d="M78.826,31.961C72.57,21.967,62,16,50,16v6v-6h-0.013c-6.369,0.001-12.605,1.795-18.023,5.188
			c-7.697,4.819-13.061,12.348-15.094,21.197c-2.034,8.85-0.499,17.963,4.321,25.66C27.447,78.035,38.227,84,50.028,84
			c6.368,0,12.597-1.794,18.015-5.188c7.696-4.818,13.062-12.347,15.096-21.198C85.172,48.765,83.645,39.654,78.826,31.961z
			 M64.858,73.728C60.24,76.62,55.102,78,50.027,78c-9.325,0-18.439-4.655-23.752-13.14c-8.211-13.106-4.24-30.38,8.867-38.587
			C39.762,23.381,44.9,22,49.976,22c9.324,0,18.439,4.655,23.754,13.146C81.932,48.242,77.966,65.521,64.858,73.728z"/>
		<path d="M53,31h-6v21.695c0,1.332,0.854,2.505,2.132,2.879l12.969,3.798l1.704-5.759L53,50.447V31z"/>
	</g>
</g>
</svg>
