<?xml version="1.0" encoding="utf-8"?>
<!-- Generator: Adobe Illustrator 16.0.0, SVG Export Plug-In . SVG Version: 6.00 Build 0)  -->
<!DOCTYPE svg PUBLIC "-//W3C//DTD SVG 1.1//EN" "http://www.w3.org/Graphics/SVG/1.1/DTD/svg11.dtd">
<svg version="1.1" xmlns="http://www.w3.org/2000/svg" xmlns:xlink="http://www.w3.org/1999/xlink" x="0px" y="0px" width="100px"
	 height="100px" viewBox="0 0 100 100" enable-background="new 0 0 100 100" xml:space="preserve">
<g id="Layer_3" display="none">
</g>
<g id="Your_Icon">
</g>
<g id="Layer_4">
	<g>
		<path d="M77.2,1h-54C21.543,1,20,2.343,20,4v9h6V7h48v6h6V4C80,2.343,78.857,1,77.2,1z"/>
		<g>
			<rect x="26" y="87" fill="none" width="48" height="6"/>
			<path fill="none" d="M26,71.063V81h48v-9.931c-0.788-2.672-11.572-10.464-24.002-17.394C37.551,60.592,26.765,68.384,26,71.063z"
				/>
			<path fill="none" d="M26,28.687c1,2.682,11.551,10.473,23.998,17.388C62.428,39.145,73,31.353,74,28.681V19H26V28.687z"/>
			<path d="M20,13v6v9.78c0,2.662,1.865,6.54,14.955,15.125c3.537,2.32,7.083,4.413,9.665,5.911c-2.599,1.505-6.16,3.646-9.79,6.027
				C21.74,64.43,20,68.308,20,70.97V81v6v8.75c0,1.657,1.343,3.25,3,3.25h54c1.657,0,3-1.593,3-3.25V87v-6V70.97
				c0-2.646-1.765-6.509-14.853-15.106c-3.543-2.327-7.044-4.428-9.627-5.931c2.6-1.509,6.092-3.659,9.728-6.047
				C78.335,35.289,80,31.426,80,28.78V19v-6H20z M74,93H26v-6h48V93z M74,71.069V81H26v-9.937
				c0.765-2.679,11.551-10.471,23.998-17.388C62.428,60.605,73.212,68.397,74,71.069z M74,28.681
				c-1,2.672-11.572,10.464-24.002,17.394C37.551,39.16,27,31.369,26,28.687V19h48V28.681z"/>
		</g>
	</g>
</g>
</svg>
