<?xml version="1.0" encoding="utf-8"?>
<!-- Generator: Adobe Illustrator 16.0.0, SVG Export Plug-In . SVG Version: 6.00 Build 0)  -->
<!DOCTYPE svg PUBLIC "-//W3C//DTD SVG 1.1//EN" "http://www.w3.org/Graphics/SVG/1.1/DTD/svg11.dtd">
<svg version="1.1" xmlns="http://www.w3.org/2000/svg" xmlns:xlink="http://www.w3.org/1999/xlink" x="0px" y="0px" width="100px"
	 height="100px" viewBox="0 0 100 100" enable-background="new 0 0 100 100" xml:space="preserve">
<g id="Layer_3">
</g>
<g id="Your_Icon">
</g>
<g id="Layer_4">
	<g>
		<path d="M86,6c0-3.313-2.687-6-6-6H20c-3.313,0-6,2.687-6,6v88c0,3.313,2.687,6,6,6h60c3.313,0,6-2.687,6-6V6z M80,94H20V6h60V94z
			"/>
		<path fill="#211915" d="M74,19c0-3.313-2.687-6-6-6H32c-3.313,0-6,2.687-6,6v46c0,3.313,2.687,6,6,6h36c3.313,0,6-2.687,6-6V19z
			 M32,19h36v46H32V19z"/>
		<g>
			<path d="M49.999,77C46.691,77,44,79.688,44,83s2.691,6,5.999,6C53.313,89,56,86.312,56,83S53.315,77,49.999,77z"/>
		</g>
	</g>
</g>
</svg>
