<?xml version="1.0" encoding="utf-8"?>
<!-- Generator: Adobe Illustrator 16.0.0, SVG Export Plug-In . SVG Version: 6.00 Build 0)  -->
<!DOCTYPE svg PUBLIC "-//W3C//DTD SVG 1.1//EN" "http://www.w3.org/Graphics/SVG/1.1/DTD/svg11.dtd">
<svg version="1.1" xmlns="http://www.w3.org/2000/svg" xmlns:xlink="http://www.w3.org/1999/xlink" x="0px" y="0px" width="100px"
	 height="100px" viewBox="0 0 100 100" enable-background="new 0 0 100 100" xml:space="preserve">
<g id="Layer_3">
</g>
<g id="Your_Icon">
</g>
<g id="Layer_4">
	<g>
		<path d="M94.539,21.674l-17-16.957C76.414,3.591,74.888,3,73.297,3c-0.005,0-0.01,0-0.014,0c-1.597,0-3.125,0.603-4.248,1.736
			L8.447,65.865c-0.907,0.916-1.495,2.088-1.678,3.363L3.764,90.237c-0.278,1.942,0.412,3.896,1.847,5.234
			c1.122,1.047,2.589,1.612,4.093,1.612c0.419,0,0.841-0.045,1.26-0.135l19.598-4.207c1.129-0.242,2.164-0.806,2.981-1.623
			l60.996-60.958c1.126-1.125,1.759-2.652,1.759-4.243C96.297,24.326,95.665,22.799,94.539,21.674z M29.301,86.875L9.703,91.082
			l3.006-21.014l48.945-49.399l6.707,6.709L22.537,73.201l4.242,4.243l45.823-45.822l5.989,5.993L29.301,86.875z M82.836,33.373
			L65.877,16.407l7.42-7.488l17,16.998L82.836,33.373z"/>
	</g>
</g>
</svg>
