<?xml version="1.0" encoding="utf-8"?>
<!-- Generator: Adobe Illustrator 16.0.0, SVG Export Plug-In . SVG Version: 6.00 Build 0)  -->
<!DOCTYPE svg PUBLIC "-//W3C//DTD SVG 1.1//EN" "http://www.w3.org/Graphics/SVG/1.1/DTD/svg11.dtd">
<svg version="1.1" xmlns="http://www.w3.org/2000/svg" xmlns:xlink="http://www.w3.org/1999/xlink" x="0px" y="0px" width="100px"
	 height="100px" viewBox="0 0 100 100" enable-background="new 0 0 100 100" xml:space="preserve">
<g id="Layer_3">
</g>
<g id="Your_Icon">
</g>
<g id="Layer_4">
	<g>
		<path d="M95,31H79V13.8c0-1.657-0.843-2.8-2.5-2.8h-50c-1.657,0-3.5,1.143-3.5,2.8V31H5c-1.657,0-3,1.643-3,3.3v40
			C2,75.957,3.343,77,5,77h17v17.8c0,0.796,0.566,1.66,1.13,2.223C23.693,97.584,24.705,98,25.5,98c0.002,0,0.003,0,0.005,0
			l49.75-0.178C76.91,97.82,78,96.377,78,94.722V77h17c1.657,0,3-1.043,3-2.7v-40C98,32.643,96.657,31,95,31z M29,17h44v13.758
			l-44,0.039V17z M72,91.727l-44,0.068V64h44V91.727z M92,71H78V60.8c0-1.657-0.843-2.8-2.5-2.8h-50c-1.657,0-3.5,1.143-3.5,2.8V71
			H8V37h84V71z"/>
	</g>
</g>
</svg>
