<?xml version="1.0" encoding="utf-8"?>
<!-- Generator: Adobe Illustrator 16.0.0, SVG Export Plug-In . SVG Version: 6.00 Build 0)  -->
<!DOCTYPE svg PUBLIC "-//W3C//DTD SVG 1.1//EN" "http://www.w3.org/Graphics/SVG/1.1/DTD/svg11.dtd">
<svg version="1.1" xmlns="http://www.w3.org/2000/svg" xmlns:xlink="http://www.w3.org/1999/xlink" x="0px" y="0px" width="100px"
	 height="100px" viewBox="0 0 100 100" enable-background="new 0 0 100 100" xml:space="preserve">
<g id="Layer_3" display="none">
</g>
<g id="Your_Icon">
</g>
<g id="Layer_4">
	<g>
		<path fill="none" d="M53.569,60.445c-0.295,0.344-0.465,0.762-0.487,1.191c-0.007,0.137,0.003,0.274,0.023,0.411
			c-0.017-0.147-0.023-0.289-0.018-0.413C53.11,61.207,53.277,60.789,53.569,60.445z"/>
		<path fill="none" d="M63.011,80.016L63.011,80.016c0.021,0.047,0.04,0.094,0.062,0.141c0.171,0.351,0.232,0.734,0.189,1.106
			c0.043-0.372-0.019-0.757-0.189-1.107C63.051,80.109,63.032,80.062,63.011,80.016z"/>
		<path fill="none" d="M68.466,85.959c-0.453,0-0.901,0.154-1.266,0.451l-6.323,5.165l-3.097-3.097l-0.002,0.002l3.099,3.103
			l6.323-5.157c0.573-0.467,1.353-0.564,2.033-0.281c-0.062-0.026-0.119-0.06-0.179-0.087
			C68.861,85.998,68.664,85.959,68.466,85.959z"/>
		<path fill="none" d="M69.885,86.394c-0.176-0.064-0.354-0.121-0.526-0.193c0.114,0.055,0.228,0.114,0.344,0.157
			c0.518,0.19,0.918,0.619,1.133,1.126C70.646,87.02,70.314,86.605,69.885,86.394z"/>
		<path fill="none" d="M78.284,63.79c0.281,0.108,0.556,0.229,0.826,0.356c0.271,0.127,0.562,0.19,0.852,0.19
			c0.452,0,0.9-0.154,1.264-0.452l6.251-5.106l3.097,3.097l0.002-0.002l-3.099-3.103l-6.251,5.099
			c-0.596,0.488-1.417,0.573-2.115,0.246c-0.271-0.127-0.545-0.279-0.826-0.388c-0.704-0.27-1.196-0.975-1.273-1.724
			C77.088,62.753,77.58,63.521,78.284,63.79z"/>
		<polygon fill="none" points="58.014,69 58,68.982 58,69 		"/>
		<path fill="none" d="M87.063,72.259c-0.775-0.078-1.435-0.601-1.689-1.335C85.629,71.659,86.288,72.181,87.063,72.259z"/>
		<path fill="none" d="M85.374,70.924c-0.079-0.23-0.163-0.458-0.258-0.681c-0.072-0.171-0.119-0.349-0.142-0.527
			c0.022,0.18,0.069,0.357,0.142,0.528C85.211,70.467,85.295,70.694,85.374,70.924z"/>
		<path fill="none" d="M86.346,54.536c0.097-0.079,0.198-0.146,0.305-0.204c0.03-0.018,0.062-0.028,0.095-0.043
			c0.076-0.037,0.152-0.073,0.231-0.1c0.041-0.014,0.082-0.021,0.123-0.032c0.072-0.019,0.146-0.038,0.219-0.049
			c0.045-0.007,0.091-0.008,0.137-0.012c0.068-0.005,0.138-0.01,0.206-0.008c-0.017-0.001-0.033-0.005-0.05-0.005
			c-0.053,0-0.104,0.008-0.156,0.012c-0.046,0.004-0.092,0.005-0.137,0.012c-0.074,0.011-0.146,0.029-0.219,0.048
			c-0.041,0.012-0.082,0.017-0.123,0.03c-0.079,0.026-0.155,0.059-0.231,0.096c-0.032,0.015-0.064,0.018-0.095,0.035
			c-0.106,0.058-0.208,0.109-0.305,0.188l-5.624,4.563l-0.732-7.149l0.732,7.212L86.346,54.536z"/>
		<ellipse fill="none" cx="39.999" cy="17.814" rx="11.146" ry="11.83"/>
		<path fill="none" d="M79.443,75.916c0.008-0.126,0.025-0.248,0.025-0.376c0-0.014-0.002-0.026-0.002-0.04
			C79.466,75.641,79.454,75.778,79.443,75.916z"/>
		<path fill="none" d="M73.846,81.082c-0.664-0.001-1.299-0.122-1.89-0.334c0.116,0.046,0.226,0.105,0.34,0.157
			c0.492,0.139,1.012,0.217,1.55,0.218c0.604,0,1.186-0.097,1.731-0.271c0.155-0.074,0.311-0.148,0.472-0.212l0.484-0.2
			c0.016-0.007,0.027-0.011,0.043-0.017c1.572-0.865,2.671-2.458,2.854-4.333C79.116,78.897,76.737,81.082,73.846,81.082z"/>
		<path fill="none" d="M60.741,96.268c0.049,0,0.097-0.008,0.146-0.012c-0.064,0.004-0.128,0.009-0.192,0.007
			C60.71,96.264,60.726,96.268,60.741,96.268z"/>
		<path fill="none" d="M69.433,78.933c-0.013,0.009-0.025,0.02-0.038,0.028c0.472,0.604,1.062,1.11,1.744,1.479
			c0.112,0.04,0.229,0.067,0.34,0.112C70.675,80.178,69.975,79.621,69.433,78.933z"/>
		<path fill="none" d="M90.08,88.265L90.08,88.265l-4.823-6.256c-0.228-0.295-0.363-0.641-0.403-0.997
			c0.04,0.356,0.176,0.703,0.403,0.998L90.08,88.265z"/>
		<path fill="none" d="M62.007,95.817c-0.097,0.078-0.198,0.146-0.304,0.203c-0.033,0.019-0.069,0.03-0.104,0.047
			c-0.073,0.034-0.146,0.069-0.223,0.095c-0.044,0.015-0.09,0.023-0.134,0.034c-0.068,0.019-0.137,0.036-0.207,0.047
			c-0.049,0.007-0.1,0.009-0.149,0.013c0.05-0.004,0.101-0.005,0.149-0.012c0.07-0.011,0.139-0.027,0.207-0.046
			c0.044-0.011,0.09-0.018,0.134-0.032c0.076-0.025,0.149-0.056,0.223-0.091c0.034-0.017,0.07-0.021,0.104-0.039
			c0.105-0.058,0.207-0.109,0.304-0.188l5.332-4.324l0.672,6.557l-0.672-6.619L62.007,95.817z"/>
		<path fill="#211915" d="M68.513,64.193c-0.129,0.015-0.259,0.022-0.389,0.012c0.055,0.005,0.108,0.014,0.163,0.014
			C68.363,64.219,68.438,64.202,68.513,64.193z"/>
		<path fill="#211915" d="M62.776,79.495c-0.279-0.686-0.915-1.161-1.652-1.235C61.861,78.334,62.497,78.811,62.776,79.495
			c0.07,0.176,0.152,0.349,0.233,0.521h0.001C62.929,79.843,62.848,79.671,62.776,79.495z"/>
		<path fill="#211915" d="M43,79.25v-5.234V74H14c0-15,11.644-27.99,26-27.99c5.428,0,10.466,1.797,14.636,4.86l0.002-0.002
			c0,0,3.062-2.268,4.862-3.468c-5.576-5.011-11.643-7.383-19.5-7.383c-17.645,0-32,15.244-32,33.99C8,77.321,10.687,80,14,80h29
			c0-0.002,0-0.005,0-0.007C43,79.973,43,79.504,43,79.25z"/>
		<g>
			<path d="M39.999-0.016c-9.453,0-17.144,7.999-17.144,17.83s7.69,17.83,17.144,17.83c9.454,0,17.146-7.999,17.146-17.83
				S49.453-0.016,39.999-0.016z M39.999,29.645c-6.155,0-11.144-5.295-11.144-11.83s4.988-11.83,11.144-11.83
				c6.157,0,11.146,5.295,11.146,11.83S46.156,29.645,39.999,29.645z"/>
		</g>
		<path d="M97.2,69.26l-6.921-0.697l4.538-5.556c0.649-0.796,0.592-1.954-0.135-2.68l-5.657-5.656
			c-0.094-0.094-0.195-0.176-0.302-0.247c-0.04-0.027-0.084-0.046-0.125-0.069c-0.069-0.04-0.138-0.08-0.21-0.111
			c-0.051-0.021-0.104-0.034-0.155-0.051c-0.067-0.022-0.134-0.046-0.202-0.061c-0.056-0.012-0.111-0.017-0.168-0.023
			c-0.067-0.009-0.135-0.018-0.202-0.02c-0.068-0.002-0.138,0.003-0.206,0.008c-0.046,0.004-0.092,0.005-0.137,0.012
			c-0.073,0.011-0.146,0.03-0.219,0.049c-0.041,0.012-0.082,0.019-0.123,0.032c-0.079,0.026-0.155,0.062-0.231,0.1
			c-0.032,0.015-0.064,0.025-0.095,0.043c-0.106,0.058-0.208,0.125-0.305,0.204l-5.624,4.595l-0.732-7.212
			C79.884,50.899,79.025,50,78,50h-8c-1.025,0-1.884,0.899-1.989,1.919l-0.703,6.925l-5.304-4.311
			c-0.369-0.301-0.816-0.448-1.261-0.448c-0.515,0-1.028,0.197-1.417,0.586l-5.658,5.656c-0.037,0.037-0.064,0.079-0.099,0.118
			c-0.292,0.344-0.459,0.762-0.481,1.189c-0.006,0.124,0.001,0.266,0.018,0.413c0.051,0.34,0.185,0.671,0.415,0.955L58,68.53v0.002
			l-7.213,0.728C49.764,69.363,49,70.223,49,71.25v8c0,1.027,0.777,1.887,1.8,1.99l7.138,0.719l-4.401,5.387
			c-0.649,0.796-0.592,1.953,0.135,2.68l5.656,5.657c0.095,0.095,0.196,0.176,0.303,0.248c0.036,0.023,0.074,0.039,0.111,0.061
			c0.073,0.043,0.147,0.086,0.225,0.118c0.046,0.02,0.094,0.031,0.14,0.047c0.072,0.024,0.145,0.049,0.219,0.064
			c0.051,0.011,0.102,0.015,0.153,0.021c0.072,0.01,0.145,0.02,0.217,0.021c0.064,0.002,0.128-0.003,0.192-0.007
			c0.05-0.004,0.101-0.006,0.149-0.013c0.07-0.011,0.139-0.028,0.207-0.047c0.044-0.011,0.09-0.02,0.134-0.034
			c0.076-0.025,0.149-0.061,0.223-0.095c0.034-0.017,0.07-0.028,0.104-0.047c0.105-0.058,0.207-0.125,0.304-0.203l5.332-4.355
			l0.672,6.619C68.116,99.101,68.975,100,70,100h7.75c0.126,0,0.249-0.014,0.369-0.039c0.838-0.181,1.5-0.957,1.613-1.83
			l0.892-7.029l5.369,4.365c0.369,0.301,0.812,0.448,1.258,0.448c0.514,0,1.019-0.197,1.406-0.586l5.463-5.48
			c0.355-0.355,0.519-0.814,0.55-1.285s-0.169-0.952-0.476-1.351L90,81.941v-0.002l7.072-0.699C98.096,81.137,99,80.277,99,79.25v-8
			C99,70.223,98.223,69.363,97.2,69.26z M58.014,69H58v-0.018L58.014,69z M95,77.441l-8.124,0.818
			c-0.735,0.074-1.369,0.547-1.649,1.23c-0.063,0.154-0.132,0.307-0.201,0.459c-0.156,0.338-0.212,0.705-0.172,1.062
			c0.04,0.356,0.176,0.702,0.403,0.997l4.824,6.255l-0.001,0.001l0.001,0.001l-2.961,2.963l-6.146-4.991
			c-0.11-0.09-0.23-0.155-0.354-0.219c-0.035-0.018-0.071-0.019-0.107-0.035c-0.096-0.042-0.194-0.049-0.296-0.075
			c-0.036-0.009-0.072,0.033-0.109,0.025C79.977,85.908,79.846,86,79.712,86c-0.004,0-0.007,0-0.011,0
			c-0.159,0-0.318-0.087-0.476-0.048c-0.068,0.018-0.137-0.067-0.204-0.043c-0.047,0.017-0.093,0.039-0.139,0.06l-0.161,0.074
			c-0.207,0.096-0.417,0.202-0.631,0.285c-0.067,0.035-0.134,0.104-0.196,0.145c-0.483,0.32-0.804,0.897-0.878,1.474L75.992,96
			h-4.188l-0.805-7.91c-0.02-0.186-0.065-0.367-0.132-0.541c-0.009-0.022-0.023-0.043-0.032-0.065
			c-0.215-0.507-0.615-0.936-1.133-1.126c-0.116-0.043-0.229-0.103-0.344-0.157c-0.042-0.018-0.083-0.038-0.125-0.056
			c-0.681-0.283-1.46-0.186-2.033,0.281l-6.323,5.157l-3.099-3.103l0.002-0.002l-0.002-0.002l5.047-6.178
			c0.247-0.303,0.395-0.663,0.438-1.036c0.043-0.372-0.019-0.756-0.189-1.106c-0.022-0.047-0.041-0.094-0.063-0.141
			c-0.081-0.172-0.163-0.345-0.233-0.52c-0.279-0.686-0.915-1.162-1.652-1.236L53,77.441v-4.383l8.031-0.809
			c0.766-0.077,1.419-0.587,1.681-1.311c0.102-0.281,0.21-0.562,0.332-0.836c0.308-0.688,0.201-1.491-0.274-2.077l-4.995-6.146
			l3.106-3.105l6.146,4.996c0.14,0.113,0.292,0.198,0.449,0.269c0.028,0.013,0.057,0.026,0.085,0.038
			c0.153,0.06,0.311,0.1,0.471,0.12c0.031,0.004,0.062,0.006,0.092,0.008c0.13,0.011,0.26,0.003,0.389-0.012
			c0.053-0.006,0.104-0.008,0.156-0.019c0.168-0.032,0.333-0.081,0.489-0.156c0.08-0.035,0.17-0.072,0.314-0.131
			c0.004-0.002,0.09-0.042,0.094-0.044l0.126-0.06c0.02-0.008,0.039-0.031,0.059-0.039c0.241-0.098,0.444-0.283,0.627-0.459
			c0.165-0.159,0.304-0.358,0.409-0.578c0.106-0.222,0.177-0.463,0.202-0.704L71.804,54h4.393l0.814,8.004
			c0.077,0.749,0.569,1.454,1.273,1.724c0.281,0.108,0.556,0.261,0.826,0.388c0.698,0.327,1.52,0.242,2.115-0.246l6.251-5.099
			l3.099,3.103l-0.002,0.002l0.002,0.002L85.41,68.2c-0.352,0.431-0.503,0.979-0.436,1.516c0.022,0.179,0.069,0.356,0.142,0.527
			c0.095,0.223,0.179,0.45,0.258,0.681c0.255,0.734,0.914,1.257,1.689,1.335l7.937,0.8V77.441z"/>
		<circle cx="74" cy="75" r="5"/>
	</g>
</g>
</svg>
