<?xml version="1.0" encoding="utf-8"?>
<!-- Generator: Adobe Illustrator 16.0.0, SVG Export Plug-In . SVG Version: 6.00 Build 0)  -->
<!DOCTYPE svg PUBLIC "-//W3C//DTD SVG 1.1//EN" "http://www.w3.org/Graphics/SVG/1.1/DTD/svg11.dtd">
<svg version="1.1" xmlns="http://www.w3.org/2000/svg" xmlns:xlink="http://www.w3.org/1999/xlink" x="0px" y="0px" width="100px"
	 height="100px" viewBox="0 0 100 100" enable-background="new 0 0 100 100" xml:space="preserve">
<g id="Layer_3" display="none">
</g>
<g id="Your_Icon">
</g>
<g id="Layer_4">
	<g>
		<path d="M50.365,22.613c-3.267,3.293-8.581,3.319-11.878,0.052c-3.297-3.262-3.318-8.58-0.055-11.874
			c3.269-3.296,8.581-3.319,11.88-0.057C53.607,14,53.628,19.32,50.365,22.613z"/>
		<path d="M44.4,14.304c0.369,0,1.08,0.091,1.688,0.692c0.939,0.931,0.946,2.454,0.017,3.392c-0.614,0.619-1.333,0.711-1.706,0.711
			c-0.368,0-1.077-0.09-1.692-0.699c-0.611-0.605-0.706-1.316-0.707-1.687c-0.002-0.371,0.086-1.085,0.693-1.697
			C43.308,14.396,44.026,14.304,44.4,14.304 M44.4,8.304c-2.162,0-4.323,0.83-5.968,2.488c-3.264,3.294-3.242,8.612,0.055,11.874
			c1.639,1.624,3.775,2.434,5.912,2.434c2.161,0,4.323-0.83,5.966-2.486c3.263-3.293,3.242-8.613-0.053-11.879
			C48.673,9.113,46.536,8.304,44.4,8.304L44.4,8.304z"/>
	</g>
	<g>
		<path d="M37.863,94.913c-3.266,3.293-8.58,3.319-11.877,0.053c-3.297-3.263-3.318-8.58-0.055-11.875
			c3.268-3.295,8.58-3.318,11.879-0.057C41.105,86.3,41.127,91.62,37.863,94.913z"/>
		<path d="M31.898,86.604L31.898,86.604c0.369,0,1.08,0.091,1.688,0.692c0.939,0.932,0.946,2.454,0.016,3.393
			c-0.613,0.618-1.331,0.711-1.705,0.711c-0.368,0-1.077-0.091-1.69-0.698c-0.612-0.606-0.707-1.317-0.708-1.688
			c-0.002-0.371,0.086-1.086,0.693-1.698C30.807,86.696,31.525,86.604,31.898,86.604 M31.898,80.604
			c-2.162,0-4.323,0.83-5.967,2.487c-3.264,3.295-3.242,8.612,0.055,11.875c1.639,1.624,3.775,2.434,5.911,2.434
			c2.162,0,4.323-0.83,5.966-2.486c3.264-3.293,3.242-8.613-0.053-11.879C36.171,81.413,34.034,80.604,31.898,80.604L31.898,80.604z
			"/>
	</g>
	<g>
		<path d="M17.967,49.913c-3.268,3.293-8.582,3.319-11.879,0.053c-3.297-3.263-3.318-8.58-0.055-11.875
			c3.27-3.295,8.582-3.318,11.881-0.057C21.209,41.3,21.229,46.62,17.967,49.913z"/>
		<path d="M12.002,41.604L12.002,41.604c0.369,0,1.08,0.091,1.688,0.692c0.939,0.931,0.945,2.454,0.018,3.391
			c-0.615,0.62-1.335,0.712-1.709,0.712c-0.368,0-1.077-0.09-1.69-0.698c-0.612-0.606-0.707-1.317-0.708-1.688
			c-0.002-0.371,0.086-1.085,0.691-1.697C10.908,41.696,11.628,41.604,12.002,41.604 M12.002,35.604
			c-2.162,0-4.324,0.83-5.969,2.487c-3.264,3.295-3.242,8.612,0.055,11.875c1.639,1.624,3.775,2.434,5.911,2.434
			c2.162,0,4.324-0.83,5.968-2.486c3.262-3.293,3.242-8.613-0.053-11.879C16.274,36.413,14.138,35.604,12.002,35.604L12.002,35.604z
			"/>
	</g>
	<g>
		<g>
			<path d="M41.655,51.946l4.388-24.887c-2.002,0.316-4.072,0.051-5.952-0.795l-4.156,23.573L22.46,44.869
				c-0.165,1.987-0.896,3.935-2.189,5.588l14.605,5.385l-4.004,22.711c2.007-0.195,4.06,0.186,5.89,1.144l3.834-21.745
				l36.998,13.643c0.247-1.978,1.055-3.894,2.426-5.5L41.655,51.946z"/>
		</g>
		<g>
			<path d="M93.967,78.813c-3.268,3.293-8.582,3.319-11.879,0.053c-3.297-3.263-3.318-8.58-0.055-11.875
				c3.27-3.295,8.582-3.318,11.881-0.057C97.209,70.2,97.229,75.521,93.967,78.813z"/>
			<path d="M88.002,70.504L88.002,70.504c0.369,0,1.08,0.091,1.688,0.692c0.939,0.931,0.945,2.454,0.018,3.391
				c-0.615,0.62-1.335,0.713-1.709,0.713c-0.368,0-1.077-0.091-1.69-0.698c-0.612-0.606-0.707-1.317-0.708-1.688
				c-0.002-0.371,0.086-1.086,0.691-1.696C86.908,70.597,87.628,70.504,88.002,70.504 M88.002,64.504
				c-2.162,0-4.324,0.83-5.969,2.487c-3.264,3.295-3.242,8.612,0.055,11.875c1.639,1.624,3.775,2.434,5.911,2.434
				c2.162,0,4.324-0.83,5.968-2.486c3.262-3.293,3.242-8.613-0.053-11.879C92.274,65.313,90.138,64.504,88.002,64.504L88.002,64.504
				z"/>
		</g>
	</g>
</g>
</svg>
