<?xml version="1.0" encoding="utf-8"?>
<!-- Generator: Adobe Illustrator 16.0.0, SVG Export Plug-In . SVG Version: 6.00 Build 0)  -->
<!DOCTYPE svg PUBLIC "-//W3C//DTD SVG 1.1//EN" "http://www.w3.org/Graphics/SVG/1.1/DTD/svg11.dtd">
<svg version="1.1" xmlns="http://www.w3.org/2000/svg" xmlns:xlink="http://www.w3.org/1999/xlink" x="0px" y="0px" width="100px"
	 height="100px" viewBox="0 0 100 100" enable-background="new 0 0 100 100" xml:space="preserve">
<g id="Layer_3" display="none">
</g>
<g id="Your_Icon">
</g>
<g id="Layer_4">
	<g>
		<path d="M89,65.697V34.809c-2,0.546-5,0.377-6-0.009v28.582L61.998,42.692c-3.211,1.763-7.126,2.062-10.542,0.907L38.848,71.93
			L20.868,23.962c-1.725,1.136-3.677,1.814-5.657,2.042l18.297,48.918c3.338-1.322,7.103-1.204,10.366,0.346l12.879-29.087
			l22.497,22.18C82.01,66.202,85,65.313,89,65.697z"/>
	</g>
	<g>
		<path d="M21.141,5.497c-1.951-1.93-4.495-2.894-7.038-2.894c-2.574,0-5.148,0.988-7.106,2.961
			C3.111,9.488,3.137,15.819,7.062,19.704c1.95,1.933,4.494,2.896,7.038,2.896c2.574,0,5.147-0.987,7.104-2.959
			C25.088,15.719,25.063,9.385,21.141,5.497z M16.945,15.415c-0.76,0.765-1.77,1.186-2.846,1.186c-1.061,0-2.061-0.412-2.817-1.161
			c-0.758-0.75-1.178-1.75-1.182-2.817c-0.005-1.068,0.406-2.076,1.155-2.831c0.759-0.766,1.771-1.188,2.847-1.188
			c1.062,0,2.062,0.412,2.814,1.155C18.483,11.311,18.494,13.85,16.945,15.415z"/>
	</g>
	<g>
		<path d="M45.241,80.598c-1.951-1.93-4.495-2.895-7.038-2.895c-2.574,0-5.148,0.988-7.106,2.962
			c-3.885,3.923-3.859,10.254,0.065,14.139c1.95,1.933,4.494,2.896,7.038,2.896c2.574,0,5.147-0.987,7.104-2.959
			C49.188,90.819,49.164,84.485,45.241,80.598z M41.046,90.515c-0.76,0.765-1.77,1.187-2.846,1.187
			c-1.061,0-2.061-0.412-2.817-1.162c-0.758-0.75-1.178-1.75-1.182-2.816c-0.005-1.068,0.406-2.076,1.155-2.832
			c0.759-0.766,1.771-1.188,2.847-1.188c1.062,0,2.062,0.412,2.814,1.155C42.584,86.411,42.595,88.95,41.046,90.515z"/>
	</g>
	<g>
		<path d="M62.841,23.793c-1.951-1.93-4.495-2.894-7.038-2.894c-2.574,0-5.148,0.988-7.106,2.961
			C44.812,27.785,44.837,34.115,48.762,38c1.95,1.933,4.494,2.896,7.038,2.896c2.574,0,5.147-0.987,7.104-2.959
			C66.788,34.016,66.764,27.682,62.841,23.793z M58.646,33.711c-0.76,0.765-1.77,1.186-2.846,1.186
			c-1.061,0-2.061-0.412-2.817-1.161c-0.758-0.75-1.178-1.75-1.182-2.817c-0.005-1.068,0.406-2.076,1.155-2.831
			c0.759-0.766,1.771-1.188,2.847-1.188c1.062,0,2.062,0.412,2.814,1.155C60.184,29.607,60.194,32.146,58.646,33.711z"/>
	</g>
	<g>
		<path d="M95.041,72.895C93.09,70.965,90.545,70,88.002,70c-2.574,0-5.148,0.988-7.105,2.962
			c-3.885,3.923-3.859,10.254,0.064,14.139c1.951,1.933,4.494,2.896,7.039,2.896c2.574,0,5.146-0.987,7.104-2.959
			C98.988,83.116,98.963,76.782,95.041,72.895z M90.846,82.812c-0.76,0.765-1.77,1.187-2.846,1.187
			c-1.061,0-2.061-0.412-2.818-1.162S84.004,81.086,84,80.02c-0.004-1.068,0.406-2.076,1.156-2.832
			C85.914,76.422,86.926,76,88.002,76c1.062,0,2.062,0.412,2.814,1.155C92.383,78.708,92.395,81.247,90.846,82.812z"/>
	</g>
	<g>
		<path d="M93.041,14.697c-1.951-1.93-4.496-2.894-7.039-2.894c-2.574,0-5.148,0.988-7.105,2.961
			c-3.885,3.923-3.859,10.254,0.064,14.139C80.912,30.836,83.455,31.8,86,31.8c2.574,0,5.146-0.987,7.104-2.959
			C96.988,24.919,96.963,18.585,93.041,14.697z M88.846,24.614C88.086,25.379,87.076,25.8,86,25.8c-1.061,0-2.061-0.412-2.818-1.161
			c-0.758-0.75-1.178-1.75-1.182-2.817c-0.004-1.068,0.406-2.076,1.156-2.831c0.758-0.766,1.77-1.188,2.846-1.188
			c1.062,0,2.062,0.412,2.814,1.155C90.383,20.511,90.395,23.05,88.846,24.614z"/>
	</g>
</g>
</svg>
