<?xml version="1.0" encoding="utf-8"?>
<!-- Generator: Adobe Illustrator 16.0.0, SVG Export Plug-In . SVG Version: 6.00 Build 0)  -->
<!DOCTYPE svg PUBLIC "-//W3C//DTD SVG 1.1//EN" "http://www.w3.org/Graphics/SVG/1.1/DTD/svg11.dtd">
<svg version="1.1" xmlns="http://www.w3.org/2000/svg" xmlns:xlink="http://www.w3.org/1999/xlink" x="0px" y="0px" width="100px"
	 height="100px" viewBox="0 0 100 100" enable-background="new 0 0 100 100" xml:space="preserve">
<g id="Layer_3">
</g>
<g id="Your_Icon">
</g>
<g id="Layer_4">
	<path fill="#211915" d="M89.2,83.5h-64c-1.657,0-3-1.343-3-3v-78c0-1.657,1.343-3,3-3h64c1.657,0,3,1.343,3,3v78
		C92.2,82.157,90.856,83.5,89.2,83.5z M28.2,77.5h58v-72h-58V77.5z"/>
	<path fill="#211915" d="M76.7,99H9.9c-1.657,0-3-1.343-3-3V23.5h6V93h63.8V99z"/>
	<rect x="38.2" y="22.5" width="38" height="6"/>
	<rect x="38.2" y="38.5" width="38" height="6"/>
	<rect x="38.2" y="54.5" width="38" height="6"/>
</g>
</svg>
