<?xml version="1.0" encoding="utf-8"?>
<!-- Generator: Adobe Illustrator 16.0.0, SVG Export Plug-In . SVG Version: 6.00 Build 0)  -->
<!DOCTYPE svg PUBLIC "-//W3C//DTD SVG 1.1//EN" "http://www.w3.org/Graphics/SVG/1.1/DTD/svg11.dtd">
<svg version="1.1" xmlns="http://www.w3.org/2000/svg" xmlns:xlink="http://www.w3.org/1999/xlink" x="0px" y="0px" width="100px"
	 height="100px" viewBox="0 0 100 100" enable-background="new 0 0 100 100" xml:space="preserve">
<g id="Layer_3">
</g>
<g id="Your_Icon">
</g>
<g id="Layer_4">
	<g>
		<path fill="#211915" d="M13.352,14.348c0,11.782-1.906,25.809-4.702,27.879l-4.393,3.137C3.469,45.927,3,46.836,3,47.805v4.182
			c0,0.969,0.469,1.878,1.258,2.441l4.352,3.107c2.836,2.099,4.742,16.232,4.742,28.117C13.352,93.046,22.484,99,30.045,99H38v-6
			h-7.955c-4.472,0-10.693-3.702-10.693-7.348c0-6.482-0.518-28.016-7.215-32.971L9,50.442v-1.094l3.178-2.27
			c6.656-4.927,7.174-26.299,7.174-32.731C19.352,10.702,25.574,7,30.045,7H38V1h-7.955C22.484,1,13.352,6.954,13.352,14.348z"/>
		<path fill="#211915" d="M95.743,45.363l-4.351-3.106c-2.838-2.101-4.744-16.127-4.744-27.909C86.648,6.954,77.516,1,69.955,1H62v6
			h7.955c4.472,0,10.693,3.702,10.693,7.348c0,6.433,0.519,27.804,7.216,32.762L91,49.349v1.094l-3.176,2.269
			c-6.657,4.926-7.176,26.459-7.176,32.941c0,3.646-6.222,7.348-10.694,7.348H62v6h7.955c7.561,0,16.693-5.954,16.693-13.348
			c0-11.884,1.906-26.019,4.703-28.088l4.392-3.137C96.531,53.864,97,52.955,97,51.986v-4.182
			C97,46.836,96.531,45.927,95.743,45.363z"/>
	</g>
</g>
</svg>
