<?xml version="1.0" encoding="utf-8"?>
<!-- Generator: Adobe Illustrator 16.0.0, SVG Export Plug-In . SVG Version: 6.00 Build 0)  -->
<!DOCTYPE svg PUBLIC "-//W3C//DTD SVG 1.1//EN" "http://www.w3.org/Graphics/SVG/1.1/DTD/svg11.dtd">
<svg version="1.1" xmlns="http://www.w3.org/2000/svg" xmlns:xlink="http://www.w3.org/1999/xlink" x="0px" y="0px" width="100px"
	 height="100px" viewBox="0 0 100 100" enable-background="new 0 0 100 100" xml:space="preserve">
<g id="Layer_3">
</g>
<g id="Your_Icon">
</g>
<g id="Layer_4">
	<g>
		<path fill="none" d="M50.125,8.5C35.168,8.5,23,20.594,23,35.459c0,7.104,2.212,13.316,6.398,17.967
			c3.214,3.57,9.51,14.253,10.221,15.46C39.892,69.347,40,69.873,40,70.409V74h18v-3.591c0-0.603,0.268-1.191,0.607-1.689
			c0.333-0.488,8.229-11.998,11.197-15.296c4.612-5.125,7.174-11.505,7.174-17.965C76.979,20.594,64.944,8.5,50.125,8.5z M64.65,35
			c0-9-9.18-13.604-9.272-13.647l2.545-5.327C58.443,16.269,70.65,22,70.65,35H64.65z"/>
		<path fill="none" d="M40,79v7.282c0,2.755,3.456,5.107,6.287,5.218c0.03,0,6.188-0.003,6.464-0.007
			C55.612,91.382,58,88.992,58,86.277V79H40z"/>
		<g>
			<path d="M50.125,2.5C31.86,2.5,17,17.285,17,35.459c0,8.609,2.71,16.21,7.903,21.98C27.125,59.907,32,67.659,34,71.232v15.05
				c0,6.331,6.369,10.991,12.038,11.213c0.04,0.002,6.697,0.004,6.899-0.005C59.075,97.252,64,92.223,64,86.277v-14.94
				c3-3.695,8.138-11.584,10.222-13.899c5.605-6.229,8.735-14.033,8.735-21.979C82.957,17.285,68.252,2.5,50.125,2.5z M58,86.277
				c0,2.715-2.37,5.104-5.231,5.216c-0.275,0.004-6.495,0.007-6.524,0.007C43.412,91.39,40,89.037,40,86.282V79h18V86.277z
				 M69.848,53.424C66.88,56.722,58.94,68.231,58.607,68.72C58.268,69.218,58,69.807,58,70.409V74H40v-3.591
				c0-0.536-0.108-1.062-0.381-1.523c-0.711-1.207-7.025-11.89-10.239-15.46c-4.186-4.65-6.389-10.863-6.389-17.967
				C22.991,20.594,35.164,8.5,50.121,8.5c14.819,0,26.877,12.094,26.877,26.959C76.998,41.919,74.46,48.299,69.848,53.424z"/>
		</g>
		<path fill="#211915" d="M57.923,16.025l-2.545,5.327C55.471,21.396,64.65,26,64.65,35h6C70.65,22,58.443,16.269,57.923,16.025z"/>
	</g>
</g>
</svg>
