<?xml version="1.0" encoding="utf-8"?>
<!-- Generator: Adobe Illustrator 16.0.0, SVG Export Plug-In . SVG Version: 6.00 Build 0)  -->
<!DOCTYPE svg PUBLIC "-//W3C//DTD SVG 1.1//EN" "http://www.w3.org/Graphics/SVG/1.1/DTD/svg11.dtd">
<svg version="1.1" xmlns="http://www.w3.org/2000/svg" xmlns:xlink="http://www.w3.org/1999/xlink" x="0px" y="0px" width="100px"
	 height="100px" viewBox="0 0 100 100" enable-background="new 0 0 100 100" xml:space="preserve">
<g id="Layer_3">
</g>
<g id="Your_Icon">
</g>
<g id="Layer_4">
	<g>
		<path fill="#211915" d="M74.035,66.964l-1.414,1.415L62.055,57.812C67.01,51.904,70,44.296,70,36C70,17.252,54.748,2,36,2
			S2,17.252,2,36s15.252,34,34,34c8.296,0,15.904-2.991,21.812-7.945l10.566,10.566l-1.414,1.415l24.5,24.5l7.07-7.071
			L74.035,66.964z M8,36C8,20.533,20.533,8,36,8s28,12.533,28,28c0,15.459-12.533,28-28,28S8,51.459,8,36z"/>
	</g>
</g>
</svg>
