<?xml version="1.0" encoding="utf-8"?>
<!-- Generator: Adobe Illustrator 16.0.0, SVG Export Plug-In . SVG Version: 6.00 Build 0)  -->
<!DOCTYPE svg PUBLIC "-//W3C//DTD SVG 1.1//EN" "http://www.w3.org/Graphics/SVG/1.1/DTD/svg11.dtd">
<svg version="1.1" xmlns="http://www.w3.org/2000/svg" xmlns:xlink="http://www.w3.org/1999/xlink" x="0px" y="0px" width="100px"
	 height="100px" viewBox="0 0 100 100" enable-background="new 0 0 100 100" xml:space="preserve">
<g id="Layer_3">
</g>
<g id="Your_Icon">
</g>
<g id="Layer_4">
	<g>
		<path fill="#211915" d="M49.875,22.5c-7.72,0-14,6.28-14,14s6.28,14,14,14s14-6.28,14-14S57.595,22.5,49.875,22.5z M49.875,44.5
			c-4.418,0-8-3.581-8-8s3.582-8,8-8c4.419,0,8,3.581,8,8S54.294,44.5,49.875,44.5z"/>
		<path fill="#211915" d="M49.875,1.5c-18.748,0-34,16.149-34,36c0,17.926,26.092,54.12,29.067,58.416
			c1.121,1.618,2.964,2.584,4.933,2.584s3.812-0.966,4.933-2.584c2.975-4.296,29.067-40.49,29.067-58.416
			C83.875,17.649,68.623,1.5,49.875,1.5z M49.875,92.5c0,0-28-38.432-28-55c0-16.569,12.535-30,28-30s28,13.431,28,30
			C77.875,54.068,49.875,92.5,49.875,92.5z"/>
	</g>
</g>
</svg>
