<?xml version="1.0" encoding="utf-8"?>
<!-- Generator: Adobe Illustrator 16.0.0, SVG Export Plug-In . SVG Version: 6.00 Build 0)  -->
<!DOCTYPE svg PUBLIC "-//W3C//DTD SVG 1.1//EN" "http://www.w3.org/Graphics/SVG/1.1/DTD/svg11.dtd">
<svg version="1.1" xmlns="http://www.w3.org/2000/svg" xmlns:xlink="http://www.w3.org/1999/xlink" x="0px" y="0px" width="100px"
	 height="100px" viewBox="0 0 100 100" enable-background="new 0 0 100 100" xml:space="preserve">
<g id="Layer_3">
</g>
<g id="Your_Icon">
</g>
<g id="Layer_4">
	<g>
		<path d="M95.301,39.677l-15.231-1.535l9.953-12.185c0.975-1.193,0.887-2.93-0.202-4.019L78.753,10.871
			c-1.089-1.09-2.826-1.177-4.019-0.202L62.417,20.73L60.81,4.936C60.652,3.406,59.364,2,57.826,2H42.174
			c-1.538,0-2.826,1.406-2.984,2.936l-1.549,15.105l-11.688-9.438c-1.193-0.97-2.927-0.851-4.013,0.237L10.871,21.923
			c-1.087,1.087-1.177,2.828-0.207,4.021l9.859,12.136L4.699,39.675C3.167,39.83,2,41.122,2,42.662v15.652
			c0,1.541,1.167,2.831,2.699,2.985l15.657,1.578l-9.687,11.855c-0.975,1.193-0.887,2.93,0.202,4.019L21.938,89.82
			c1.09,1.09,2.827,1.177,4.02,0.202l11.745-9.594l1.488,14.636C39.348,96.594,40.636,98,42.174,98h15.163
			c1.508,0,2.782-1.364,2.975-2.86l1.956-15.256l11.781,9.513c1.192,0.969,2.925,0.85,4.014-0.238l10.722-10.738
			c1.066-1.066,1.175-2.766,0.254-3.96l-8.96-11.623l15.224-1.537C96.833,61.147,98,59.855,98,58.314V42.662
			C98,41.122,96.833,39.832,95.301,39.677z M92,55.602l-16.717,1.685c-1.104,0.111-2.056,0.823-2.476,1.85
			c-0.128,0.313-0.267,0.623-0.409,0.931c-0.467,1.014-0.333,2.204,0.349,3.087l9.928,12.875l-6.943,6.944L63.067,72.68
			c-0.76-0.617-1.771-0.825-2.713-0.557c-0.084,0.024-0.172,0.053-0.257,0.086c-0.058,0.022-0.115,0.045-0.171,0.071
			c-0.118,0.053-0.237,0.101-0.357,0.149L59.153,72.6c-0.141,0.06-0.283,0.121-0.427,0.176c-0.075,0.029-0.148,0.061-0.221,0.095
			c-0.073,0.035-0.146,0.072-0.212,0.11c-0.815,0.467-1.366,1.532-1.486,2.464L54.7,92h-9.82l-1.66-16.295
			c-0.117-1.135-0.869-2.228-1.939-2.625c-0.315-0.117-0.629-0.297-0.939-0.428c-1.024-0.434-2.206-0.295-3.067,0.409L24.263,83.675
			l-7.231-7.239l0.003-0.004L27.43,63.707c0.462-0.566,0.693-1.269,0.676-1.973c-0.01-0.422-0.109-0.845-0.301-1.239
			c-0.218-0.448-0.425-0.901-0.611-1.357c-0.42-1.027-1.373-1.738-2.476-1.85L8,55.602V45.375l16.536-1.666
			c1.149-0.116,2.129-0.88,2.521-1.966c0.24-0.666,0.454-1.205,0.673-1.694c0.173-0.387,0.259-0.799,0.261-1.208
			c0.003-0.682-0.226-1.359-0.672-1.908L17.027,24.268h0l7.241-7.241L36.934,27.32c0.871,0.707,2.061,0.867,3.084,0.425
			c0.019-0.008,0.037-0.016,0.055-0.024c0.164-0.074,0.332-0.142,0.5-0.209l0.429-0.178c0.082-0.035,0.163-0.07,0.247-0.102
			c0.032-0.012,0.064-0.025,0.094-0.037c1.028-0.416,1.745-1.61,1.859-2.717L44.88,8h10.24l1.678,16.479
			c0.116,1.126,0.856,2.212,1.914,2.616c0.499,0.19,1.03,0.481,1.672,0.782c1.046,0.49,2.279,0.37,3.174-0.361l12.871-10.499
			l7.231,7.238l-0.003,0.004L73.03,37.271c-0.528,0.646-0.755,1.473-0.653,2.278c0.034,0.269,0.105,0.535,0.213,0.791
			c0.192,0.455,0.365,0.919,0.527,1.387c0.383,1.103,1.372,1.883,2.533,2L92,45.375V55.602z"/>
		<path fill="#211915" d="M49.999,43C53.868,43,57,46.134,57,50s-3.134,7-7.001,7C46.142,57,43,53.866,43,50S46.142,43,49.999,43
			 M49.999,37C42.832,37,37,42.832,37,50s5.832,13,12.999,13C57.168,63,63,57.168,63,50S57.168,37,49.999,37L49.999,37z"/>
	</g>
</g>
</svg>
