<?xml version="1.0" encoding="utf-8"?>
<!-- Generator: Adobe Illustrator 16.0.0, SVG Export Plug-In . SVG Version: 6.00 Build 0)  -->
<!DOCTYPE svg PUBLIC "-//W3C//DTD SVG 1.1//EN" "http://www.w3.org/Graphics/SVG/1.1/DTD/svg11.dtd">
<svg version="1.1" xmlns="http://www.w3.org/2000/svg" xmlns:xlink="http://www.w3.org/1999/xlink" x="0px" y="0px" width="100px"
	 height="100px" viewBox="0 0 100 100" enable-background="new 0 0 100 100" xml:space="preserve">
<g id="Layer_3">
</g>
<g id="Your_Icon">
</g>
<g id="Layer_4">
	<path fill="#211915" d="M79.928,48H20.071c-0.001,0-0.001,0-0.002,0c-2.242,0-4.352-0.888-5.94-2.488
		c-1.595-1.606-2.473-3.74-2.473-6.013c0-4.688,3.775-8.499,8.416-8.499h59.854c0.001,0,0.003,0,0.004,0
		c3.854,0,7.476-1.518,10.199-4.262c2.717-2.737,4.213-6.372,4.213-10.239C94.344,8.505,87.877,2,79.928,2H50v6h29.927
		c4.641,0,8.417,3.81,8.417,8.496c0,2.273-0.878,4.412-2.473,6.02C84.283,24.116,82.174,25,79.93,25c0,0-0.001,0-0.002,0H20.072
		c-7.949,0-14.416,6.501-14.416,14.496c0,3.866,1.497,7.507,4.213,10.245C12.593,52.485,16.215,54,20.068,54
		c0.001,0,0.003,0,0.004,0h59.855c4.641,0,8.417,3.809,8.417,8.496c0,2.272-0.878,4.412-2.473,6.019
		C84.283,70.115,82.173,71,79.93,71c0,0-0.001,0-0.002,0H20.072c-7.949,0-14.416,6.501-14.416,14.496
		c0,3.866,1.497,7.507,4.213,10.245C12.593,98.485,16.215,100,20.068,100c0.001,0,0.003,0,0.004,0H50v-6H20.071
		c-0.001,0-0.001,0-0.002,0c-2.242,0-4.352-0.888-5.94-2.488c-1.595-1.606-2.473-3.74-2.473-6.013c0-4.688,3.775-8.499,8.416-8.499
		h59.854c0.001,0,0.003,0,0.004,0c3.854,0,7.476-1.518,10.199-4.262c2.717-2.738,4.213-6.373,4.213-10.239
		C94.344,54.504,87.877,48,79.928,48z"/>
</g>
</svg>
