<?xml version="1.0" encoding="utf-8"?>
<!-- Generator: Adobe Illustrator 16.0.0, SVG Export Plug-In . SVG Version: 6.00 Build 0)  -->
<!DOCTYPE svg PUBLIC "-//W3C//DTD SVG 1.1//EN" "http://www.w3.org/Graphics/SVG/1.1/DTD/svg11.dtd">
<svg version="1.1" xmlns="http://www.w3.org/2000/svg" xmlns:xlink="http://www.w3.org/1999/xlink" x="0px" y="0px" width="100px"
	 height="100px" viewBox="0 0 100 100" enable-background="new 0 0 100 100" xml:space="preserve">
<g id="Layer_3">
</g>
<g id="Your_Icon">
</g>
<g id="Layer_4">
	<g>
		<path d="M60.903,44.501c-1.864-1.469-14.862-11.291-26.93-9.588c-4.216,0.596-7.806,2.512-10.731,5.663
			c-4.376-7.253-8.151-14.279-9.548-20.072c-0.579-2.398,0.166-5.228,2.162-7.763c2.569-3.263,6.97-5.556,9.97-5.556
			c0,0,0.129,0.015,0.131,0.015c3.266,0,6.235,1.226,8.539,3.479C36.781,12.916,38,16.07,38,19.226V22h6v-2.774
			c0-4.783-1.825-9.461-5.274-12.835C35.294,3.033,30.812,1,25.969,1c-0.003,0-0.005,0-0.006,0c-5.378,0-11.031,3.12-14.751,7.843
			c-3.142,3.989-4.363,8.778-3.351,12.974c2.191,9.088,9.099,20.117,15.779,30.739c6,9.54,12.204,19.428,14.353,27.029
			c0.861,3.047-0.839,6.114-1.929,7.555C33.5,90.527,29.334,93,25.696,93c-0.001,0-0.001,0-0.003,0C18.977,93,14,87.312,14,80.774
			v-3l-6,0.002v3C8,90.622,15.668,99,25.692,99c0.001,0,0.003,0,0.005,0c5.506,0,11.453-3.342,15.15-8.228
			c3.043-4.021,4.081-8.592,2.919-12.703c-2.383-8.433-8.535-18.259-15.047-28.614c-0.722-1.148-1.447-2.325-2.168-3.479
			c2.194-2.939,4.894-4.631,8.249-5.109c8.221-1.174,17.808,5.028,21.233,7.491c2.207,0.626,4.729,1.278,6.647,1.665
			C62.244,48.471,61.595,46.466,60.903,44.501z"/>
		<g>
			<path d="M91.862,57.479C88.742,43.89,83.656,37,76.746,37c-3.578,0-7.221,1.879-11.138,5.746
				c-0.843,0.832-1.117,2.083-0.701,3.191c0.274,0.729,0.551,1.494,0.822,2.265c0.691,1.965,1.341,3.97,1.777,5.522
				c-1.918-0.387-4.441-1.038-6.647-1.665c-0.75-0.213-1.464-0.422-2.104-0.618c-1.06-0.323-2.214-0.037-2.998,0.748
				c-4.75,4.749-6.329,9.274-4.695,13.45c2.125,5.433,9.52,9.242,22.604,11.645c9.007,1.654,17.364,2,17.715,2.013
				c0.04,0.001,0.079,0.002,0.118,0.002c0.801,0,1.57-0.32,2.135-0.893c0.593-0.601,0.905-1.423,0.86-2.265
				C94.476,75.761,93.979,66.701,91.862,57.479z M83.497,72.682c-11.883-1.307-24.976-4.445-26.847-9.229
				c-0.683-1.747,0.594-3.917,2.157-5.738c2.948,0.851,8.282,2.284,10.984,2.353c0.067,0.001,0.141,0.006,0.205,0.006
				c0.772,0,1.908-0.094,2.855-0.904c0.714-0.61,1.377-1.181,1.198-3.343c-0.154-1.854-0.928-4.875-2.824-10.103
				c2.1-1.789,3.987-2.725,5.52-2.725c5.543,0,9.377,13.234,10.999,25.436c0.211,1.587,0.386,3.158,0.521,4.68
				C86.72,73.006,85.119,72.86,83.497,72.682z"/>
		</g>
	</g>
</g>
</svg>
