<?xml version="1.0" encoding="utf-8"?>
<!-- Generator: Adobe Illustrator 16.0.0, SVG Export Plug-In . SVG Version: 6.00 Build 0)  -->
<!DOCTYPE svg PUBLIC "-//W3C//DTD SVG 1.1//EN" "http://www.w3.org/Graphics/SVG/1.1/DTD/svg11.dtd">
<svg version="1.1" xmlns="http://www.w3.org/2000/svg" xmlns:xlink="http://www.w3.org/1999/xlink" x="0px" y="0px" width="100px"
	 height="100px" viewBox="0 0 100 100" enable-background="new 0 0 100 100" xml:space="preserve">
<g id="Layer_3">
</g>
<g id="Your_Icon">
</g>
<g id="Layer_4">
	<g>
		<path fill="#211915" d="M92.161,15.662c-4.297-3.056-8.682-4.604-13.031-4.604c-13.57,0-21.524,14.837-21.856,15.469
			c-0.555,1.056-0.432,2.339,0.312,3.27c0.746,0.932,1.975,1.336,3.122,1.022c1.829-0.492,3.429-0.741,4.753-0.741
			c3.071,0,3.684,1.341,3.945,1.913c3.259,7.135-8.143,29.295-10.623,32.158c-0.362,0.389-1.564,1.396-2.758,1.396
			c-0.789,0-7.789-0.974-10.606-34.765c-1.24-14.864-7.199-17.985-11.98-17.985c-11.458,0-26.213,19.563-27.858,21.794
			c-0.523,0.71-0.708,1.615-0.504,2.475c0.204,0.858,0.776,1.584,1.564,1.982l1.97,0.997c1.046,0.53,2.312,0.4,3.229-0.335
			c4.233-3.39,6.495-3.756,7.271-3.756c0.203,0,0.353,0.022,0.461,0.05C32.448,86.71,35.497,96.293,52.088,96.293l0.46-0.002
			c14.488-0.149,28.097-20.824,33.708-34.685C99.287,29.429,96.66,18.861,92.161,15.662z M52.088,90
			c-11.491,0-13.756-4.618-26.924-56.502c-0.066-0.259-0.166-0.435-0.298-0.667c-0.771-1.361-2.741-2.915-5.755-2.915
			c-0.657,0-1.334,0.09-2.032,0.235c5.479-5.874,12.023-11.365,16.359-11.365c4.099,0,5.526,7.021,6.002,12.716
			C41.698,58.598,47.123,72,56.024,72h0.002c3.866,0,6.629-2.979,7.141-3.527c1.847-1.973,16.735-27.25,11.776-38.682
			c-1.055-2.434-3.413-5.368-8.671-5.637c2.89-3.337,7.341-7.068,12.857-7.068c3.078,0,6.293,1.162,9.555,3.481
			c0.308,0.219,2.904,2.534-0.572,16.573c-2.245,9.068-5.936,18.411-7.417,22.071C74.57,74.339,62.344,90,52.487,90H52.088z"/>
	</g>
</g>
</svg>
