<?xml version="1.0" encoding="utf-8"?>
<!-- Generator: Adobe Illustrator 16.0.0, SVG Export Plug-In . SVG Version: 6.00 Build 0)  -->
<!DOCTYPE svg PUBLIC "-//W3C//DTD SVG 1.1//EN" "http://www.w3.org/Graphics/SVG/1.1/DTD/svg11.dtd">
<svg version="1.1" xmlns="http://www.w3.org/2000/svg" xmlns:xlink="http://www.w3.org/1999/xlink" x="0px" y="0px" width="100px"
	 height="100px" viewBox="0 0 100 100" enable-background="new 0 0 100 100" xml:space="preserve">
<g id="Layer_3" display="none">
</g>
<g id="Your_Icon">
</g>
<g id="Layer_4">
	<g>
		<path fill="none" d="M50.3,19.299c3.311,0,6-2.69,6-5.997c0-3.312-2.689-6.003-6-6.003s-6,2.69-6,6.003
			C44.3,16.609,46.989,19.299,50.3,19.299z"/>
		<path fill="#211915" d="M51,44.299c-7.168,0-13,5.832-13,13.001V97h6V57.3c0-3.86,3.141-7.001,7-7.001s7,3.141,7,7.001V97h6V57.3
			C64,50.131,58.168,44.299,51,44.299z"/>
		<path fill="#211915" d="M50.3,25.299c6.617,0,12-5.382,12-11.997c0-6.619-5.383-12.003-12-12.003s-12,5.384-12,12.003
			C38.3,19.917,43.683,25.299,50.3,25.299z M50.3,7.299c3.311,0,6,2.69,6,6.003c0,3.307-2.689,5.997-6,5.997s-6-2.69-6-5.997
			C44.3,9.99,46.989,7.299,50.3,7.299z"/>
		<path fill="#211915" d="M75,6c0,15-11.215,27.146-25,27.146S25,21,25,6h-6c0,18,13.906,33.146,31,33.146S81,24,81,6H75z"/>
	</g>
</g>
</svg>
