<?xml version="1.0" encoding="utf-8"?>
<!-- Generator: Adobe Illustrator 16.0.0, SVG Export Plug-In . SVG Version: 6.00 Build 0)  -->
<!DOCTYPE svg PUBLIC "-//W3C//DTD SVG 1.1//EN" "http://www.w3.org/Graphics/SVG/1.1/DTD/svg11.dtd">
<svg version="1.1" xmlns="http://www.w3.org/2000/svg" xmlns:xlink="http://www.w3.org/1999/xlink" x="0px" y="0px" width="100px"
	 height="100px" viewBox="0 0 100 100" enable-background="new 0 0 100 100" xml:space="preserve">
<g id="Layer_3">
</g>
<g id="Your_Icon">
</g>
<g id="Layer_4">
	<g>
		<path fill="none" d="M50.3,19.299c3.311,0,6-2.69,6-5.997c0-3.312-2.689-6.003-6-6.003s-6,2.69-6,6.003
			C44.3,16.609,46.989,19.299,50.3,19.299z"/>
		<path fill="#211915" d="M50,47.299c-7.168,0-13,5.832-13,13.001V100h6V60.3c0-3.86,3.141-7.001,7-7.001s7,3.141,7,7.001V100h6
			V60.3C63,53.131,57.168,47.299,50,47.299z"/>
		<path fill="#211915" d="M50,28c6.617,0,12-5.382,12-11.997C62,9.384,56.617,4,50,4S38,9.384,38,16.003C38,22.618,43.383,28,50,28z
			 M50,10c3.311,0,6,2.69,6,6.003C56,19.31,53.311,22,50,22s-6-2.69-6-5.997C44,12.69,46.689,10,50,10z"/>
		<path fill="#211915" d="M75,7.055c0,15-11.215,27.146-25,27.146S25,22.055,25,7.055V3h-6v4.055c0,18,13.906,33.146,31,33.146
			S81,25.055,81,7.055V3h-6V7.055z"/>
	</g>
</g>
</svg>
