<?xml version="1.0" encoding="utf-8"?>
<!-- Generator: Adobe Illustrator 16.0.0, SVG Export Plug-In . SVG Version: 6.00 Build 0)  -->
<!DOCTYPE svg PUBLIC "-//W3C//DTD SVG 1.1//EN" "http://www.w3.org/Graphics/SVG/1.1/DTD/svg11.dtd">
<svg version="1.1" xmlns="http://www.w3.org/2000/svg" xmlns:xlink="http://www.w3.org/1999/xlink" x="0px" y="0px" width="100px"
	 height="100px" viewBox="0 0 100 100" enable-background="new 0 0 100 100" xml:space="preserve">
<g id="Layer_3" display="none">
</g>
<g id="Your_Icon">
</g>
<g id="Layer_4">
	<g>
		<path fill="#211915" d="M49.875,21c-7.72,0-14,6.28-14,14s6.28,14,14,14s14-6.28,14-14S57.595,21,49.875,21z M49.875,43
			c-4.418,0-8-3.581-8-8s3.582-8,8-8c4.419,0,8,3.581,8,8S54.294,43,49.875,43z"/>
		<path fill="#211915" d="M49.875,0c-18.748,0-34,16.149-34,36c0,17.926,26.092,56.12,29.067,60.416
			C46.063,98.034,47.906,99,49.875,99s3.812-0.966,4.933-2.584C57.783,92.12,83.875,53.926,83.875,36
			C83.875,16.149,68.623,0,49.875,0z M49.875,93c0,0-28-40.432-28-57c0-16.569,12.535-30,28-30s28,13.431,28,30
			C77.875,52.568,49.875,93,49.875,93z"/>
	</g>
</g>
</svg>
