<?xml version="1.0" encoding="utf-8"?>
<!-- Generator: Adobe Illustrator 16.0.0, SVG Export Plug-In . SVG Version: 6.00 Build 0)  -->
<!DOCTYPE svg PUBLIC "-//W3C//DTD SVG 1.1//EN" "http://www.w3.org/Graphics/SVG/1.1/DTD/svg11.dtd">
<svg version="1.1" xmlns="http://www.w3.org/2000/svg" xmlns:xlink="http://www.w3.org/1999/xlink" x="0px" y="0px" width="100px"
	 height="100px" viewBox="0 0 100 100" enable-background="new 0 0 100 100" xml:space="preserve">
<g id="Layer_3">
</g>
<g id="Your_Icon">
</g>
<g id="Layer_4">
	<g>
		<path d="M93,1H7C3.687,1,1,3.971,1,7.284v65.432C1,76.029,3.687,79,7,79h29.171l-8.793,15.686
			c-0.517,0.93-0.503,1.991,0.036,2.907S28.938,99,30,99h40c1.062,0,2.047-0.562,2.586-1.479s0.553-1.906,0.036-2.836L63.829,79H93
			c3.313,0,6-2.971,6-6.284V7.284C99,3.971,96.313,1,93,1z M35.099,93l6.667-12h16.469l6.667,12H35.099z M93,73H7V7h86V73z"/>
		<path fill="#211915" d="M20.002,66H80c1.592,0,3.117-0.631,4.243-1.757C85.368,63.118,86,61.592,86,60.002l-0.002-40.003
			c0-3.313-2.687-5.999-6-5.999H20c-1.592,0-3.117,0.631-4.243,1.757C14.632,16.882,14,18.408,14,19.998l0.002,40.003
			C14.002,63.314,16.688,66,20.002,66z M79.998,20L80,60H20.002L20,20H79.998z"/>
	</g>
</g>
</svg>
