<?xml version="1.0" encoding="utf-8"?>
<!-- Generator: Adobe Illustrator 16.0.0, SVG Export Plug-In . SVG Version: 6.00 Build 0)  -->
<!DOCTYPE svg PUBLIC "-//W3C//DTD SVG 1.1//EN" "http://www.w3.org/Graphics/SVG/1.1/DTD/svg11.dtd">
<svg version="1.1" xmlns="http://www.w3.org/2000/svg" xmlns:xlink="http://www.w3.org/1999/xlink" x="0px" y="0px" width="100px"
	 height="100px" viewBox="0 0 100 100" enable-background="new 0 0 100 100" xml:space="preserve">
<g id="Layer_3">
</g>
<g id="Your_Icon">
</g>
<g id="Layer_4">
	<g>
		<g>
			<path d="M61,42c0-3.865-3.134-7-7.003-7C50.141,35,47,38.135,47,42s3.141,7,6.997,7C57.864,49,61,45.865,61,42z"/>
		</g>
		<path fill="#211915" d="M82.816,17.188c-4.176-5.53-9.382-9.697-21.218-12.061C49.282,2.666,37.952,2.521,37.476,2.516l-0.062,6
			c0.111,0.001,11.239,0.144,23.01,2.494c11.096,2.217,14.781,6.054,17.605,9.793c13.205,17.488,2.414,45.63-0.258,50.495
			C73.274,79.488,54.863,91,43.64,91c-0.027,0-0.053,0-0.08,0c-4.821,0-6.055-1.95-6.463-2.677
			c-1.297-2.303-1.647-15.132-1.228-25.809c0.032-0.84-0.288-1.594-0.884-2.186c-0.595-0.592-1.401-0.882-2.251-0.839l-13.933,0.65
			l10.92-23.525l-5.443-2.521l-13,28.02c-0.441,0.951-0.354,2.064,0.23,2.936c0.584,0.869,1.562,1.367,2.628,1.326l15.631-0.713
			c-0.194,7.569-0.22,21.485,2.101,25.604C33.402,93.997,36.676,97,43.56,97c0.037,0,0.073,0,0.109,0
			c13.792,0,33.866-12.806,39.361-22.814C86.623,67.644,97.881,37.136,82.816,17.188z"/>
	</g>
</g>
</svg>
