<?xml version="1.0" encoding="utf-8"?>
<!-- Generator: Adobe Illustrator 16.0.0, SVG Export Plug-In . SVG Version: 6.00 Build 0)  -->
<!DOCTYPE svg PUBLIC "-//W3C//DTD SVG 1.1//EN" "http://www.w3.org/Graphics/SVG/1.1/DTD/svg11.dtd">
<svg version="1.1" xmlns="http://www.w3.org/2000/svg" xmlns:xlink="http://www.w3.org/1999/xlink" x="0px" y="0px" width="100px"
	 height="100px" viewBox="0 0 100 100" enable-background="new 0 0 100 100" xml:space="preserve">
<g id="Layer_3" display="none">
</g>
<g id="Your_Icon">
</g>
<g id="Layer_4">
	<g>
		<path fill="#211915" d="M30.736,50.679c-0.161,2.084-0.817,4.028-1.849,5.723l40.478,16.271c0.302-2.039,1.075-3.94,2.225-5.572
			L30.736,50.679z"/>
		<path fill="#211915" d="M92.037,72.713c-0.02-0.107-0.05-0.209-0.074-0.315c-0.047-0.214-0.094-0.429-0.155-0.637
			c-0.036-0.124-0.083-0.243-0.123-0.364c-0.062-0.184-0.121-0.369-0.193-0.547c-0.051-0.126-0.11-0.248-0.166-0.372
			c-0.075-0.167-0.148-0.333-0.232-0.495c-0.064-0.124-0.136-0.244-0.205-0.365c-0.087-0.153-0.174-0.306-0.27-0.453
			c-0.076-0.119-0.159-0.232-0.24-0.348c-0.1-0.142-0.2-0.282-0.307-0.418c-0.087-0.111-0.179-0.218-0.271-0.326
			c-0.111-0.129-0.224-0.258-0.341-0.382c-0.099-0.103-0.2-0.203-0.302-0.301c-0.122-0.118-0.246-0.234-0.374-0.345
			c-0.107-0.094-0.217-0.184-0.329-0.273c-0.132-0.105-0.267-0.208-0.404-0.308c-0.116-0.083-0.233-0.165-0.353-0.244
			c-0.141-0.093-0.285-0.181-0.431-0.267c-0.124-0.072-0.248-0.144-0.375-0.211c-0.15-0.08-0.304-0.154-0.458-0.227
			c-0.129-0.061-0.259-0.121-0.391-0.176c-0.159-0.066-0.322-0.125-0.485-0.183c-0.134-0.048-0.269-0.097-0.405-0.139
			c-0.167-0.051-0.338-0.094-0.508-0.137c-0.138-0.035-0.276-0.072-0.417-0.101c-0.176-0.036-0.354-0.062-0.533-0.088
			c-0.14-0.021-0.279-0.045-0.42-0.06c-0.187-0.02-0.376-0.027-0.566-0.037c-0.137-0.006-0.273-0.019-0.412-0.02
			c-0.316-0.002-0.634,0.007-0.956,0.035c-5.5,0.481-9.571,5.33-9.09,10.833c0.029,0.335,0.076,0.664,0.137,0.988
			c0.021,0.109,0.052,0.214,0.076,0.321c0.047,0.212,0.093,0.425,0.153,0.631c0.036,0.124,0.083,0.243,0.123,0.365
			c0.062,0.184,0.122,0.369,0.193,0.547c0.05,0.126,0.109,0.247,0.165,0.37c0.075,0.167,0.148,0.334,0.232,0.496
			c0.064,0.124,0.136,0.243,0.205,0.364c0.087,0.153,0.174,0.306,0.27,0.454c0.076,0.119,0.159,0.233,0.24,0.348
			c0.1,0.142,0.2,0.282,0.307,0.418c0.088,0.111,0.18,0.218,0.271,0.325c0.112,0.13,0.225,0.259,0.343,0.383
			c0.098,0.103,0.199,0.202,0.301,0.3c0.122,0.118,0.247,0.234,0.375,0.347c0.107,0.093,0.217,0.184,0.328,0.272
			c0.132,0.106,0.267,0.209,0.405,0.308c0.116,0.083,0.233,0.165,0.352,0.243c0.142,0.094,0.287,0.183,0.434,0.269
			c0.123,0.072,0.246,0.143,0.371,0.209c0.152,0.081,0.306,0.156,0.462,0.228c0.129,0.061,0.258,0.12,0.389,0.175
			c0.16,0.066,0.322,0.125,0.485,0.184c0.134,0.048,0.269,0.097,0.405,0.139c0.167,0.052,0.338,0.095,0.508,0.137
			c0.138,0.035,0.276,0.072,0.416,0.1c0.176,0.036,0.355,0.062,0.534,0.089c0.14,0.021,0.279,0.045,0.42,0.06
			c0.187,0.02,0.376,0.027,0.566,0.037c0.137,0.006,0.273,0.019,0.411,0.02c0.316,0.002,0.634-0.007,0.955-0.035
			c5.503-0.481,9.571-5.33,9.09-10.833C92.145,73.367,92.098,73.037,92.037,72.713z"/>
		<path fill="#211915" d="M30.744,50.526l41.464-16.667c-1.308-1.532-2.254-3.366-2.742-5.364L29.699,44.48
			c0.696,1.591,1.088,3.345,1.088,5.19C30.787,49.959,30.762,50.242,30.744,50.526z"/>
		<path fill="#211915" d="M81.215,35.388c0.321,0.028,0.64,0.038,0.956,0.035c0.138-0.001,0.274-0.013,0.412-0.02
			c0.189-0.009,0.379-0.017,0.566-0.037c0.142-0.015,0.28-0.039,0.42-0.06c0.179-0.027,0.357-0.052,0.533-0.088
			c0.141-0.029,0.278-0.066,0.417-0.101c0.17-0.043,0.341-0.086,0.508-0.137c0.137-0.042,0.271-0.091,0.405-0.139
			c0.163-0.058,0.326-0.117,0.485-0.183c0.132-0.055,0.262-0.115,0.391-0.176c0.155-0.072,0.308-0.146,0.458-0.227
			c0.127-0.067,0.251-0.139,0.375-0.211c0.146-0.086,0.29-0.174,0.431-0.267c0.12-0.079,0.237-0.16,0.353-0.244
			c0.138-0.099,0.272-0.202,0.404-0.308c0.111-0.089,0.221-0.18,0.329-0.273c0.127-0.111,0.251-0.227,0.374-0.345
			c0.102-0.099,0.204-0.198,0.302-0.301c0.118-0.124,0.23-0.253,0.341-0.382c0.092-0.107,0.184-0.214,0.271-0.326
			c0.107-0.136,0.208-0.276,0.307-0.418c0.081-0.115,0.164-0.229,0.24-0.348c0.095-0.147,0.182-0.3,0.27-0.453
			c0.069-0.121,0.141-0.241,0.205-0.365c0.083-0.161,0.157-0.328,0.232-0.495c0.056-0.124,0.115-0.245,0.166-0.372
			c0.072-0.179,0.131-0.364,0.193-0.547c0.041-0.122,0.087-0.24,0.123-0.364c0.061-0.208,0.107-0.423,0.155-0.637
			c0.023-0.105,0.054-0.208,0.074-0.315c0.061-0.324,0.108-0.653,0.137-0.988c0.481-5.503-3.587-10.352-9.09-10.833
			c-0.321-0.028-0.639-0.038-0.955-0.035c-0.138,0.001-0.274,0.013-0.411,0.02c-0.189,0.009-0.379,0.017-0.566,0.037
			c-0.141,0.015-0.28,0.039-0.42,0.06c-0.179,0.027-0.358,0.053-0.534,0.089c-0.14,0.028-0.278,0.065-0.416,0.1
			c-0.17,0.042-0.341,0.085-0.508,0.137c-0.137,0.042-0.271,0.091-0.405,0.139c-0.163,0.058-0.326,0.117-0.485,0.184
			c-0.131,0.055-0.26,0.114-0.389,0.175c-0.156,0.072-0.31,0.147-0.462,0.228c-0.125,0.066-0.249,0.137-0.371,0.209
			c-0.147,0.086-0.292,0.175-0.434,0.269c-0.119,0.078-0.236,0.159-0.352,0.243c-0.138,0.099-0.272,0.202-0.405,0.308
			c-0.111,0.089-0.221,0.179-0.328,0.272c-0.128,0.112-0.253,0.229-0.375,0.347c-0.102,0.099-0.203,0.197-0.301,0.3
			c-0.118,0.124-0.231,0.253-0.343,0.383c-0.092,0.107-0.184,0.214-0.271,0.325c-0.106,0.136-0.207,0.276-0.307,0.418
			c-0.082,0.115-0.164,0.229-0.24,0.348c-0.095,0.147-0.182,0.301-0.27,0.454c-0.069,0.121-0.141,0.24-0.205,0.364
			c-0.084,0.162-0.158,0.329-0.232,0.496c-0.056,0.124-0.115,0.244-0.165,0.37c-0.072,0.179-0.132,0.364-0.193,0.547
			c-0.041,0.122-0.087,0.241-0.123,0.365c-0.06,0.206-0.106,0.419-0.153,0.631c-0.024,0.107-0.055,0.212-0.076,0.321
			c-0.061,0.324-0.107,0.653-0.137,0.988C71.644,30.058,75.715,34.907,81.215,35.388z"/>
		<circle fill="#211915" cx="17.787" cy="49.67" r="10"/>
	</g>
</g>
</svg>
