<?xml version="1.0" encoding="utf-8"?>
<!-- Generator: Adobe Illustrator 16.0.0, SVG Export Plug-In . SVG Version: 6.00 Build 0)  -->
<!DOCTYPE svg PUBLIC "-//W3C//DTD SVG 1.1//EN" "http://www.w3.org/Graphics/SVG/1.1/DTD/svg11.dtd">
<svg version="1.1" xmlns="http://www.w3.org/2000/svg" xmlns:xlink="http://www.w3.org/1999/xlink" x="0px" y="0px" width="100px"
	 height="100px" viewBox="0 0 100 100" enable-background="new 0 0 100 100" xml:space="preserve">
<g id="Layer_3">
</g>
<g id="Your_Icon">
</g>
<g id="Layer_4">
	<path fill="#211915" d="M96,78.5H32c-1.657,0-3-1.343-3-3v-69c0-1.657,1.343-3,3-3h64c1.657,0,3,1.343,3,3v69
		C99,77.157,97.657,78.5,96,78.5z M35,72.5h58v-63H35V72.5z"/>
	<path fill="#211915" d="M68,98.5H4.2c-1.657,0-3-1.343-3-3V26c0-1.657,1.343-3,3-3H23v6H7.2v63.5H65V84h6v11.5
		C71,97.157,69.657,98.5,68,98.5z"/>
	<rect x="45" y="24" width="38" height="6"/>
	<rect x="45" y="38" width="38" height="6"/>
	<rect x="45" y="52.5" width="38" height="6"/>
</g>
</svg>
