<?xml version="1.0" encoding="utf-8"?>
<!-- Generator: Adobe Illustrator 16.0.0, SVG Export Plug-In . SVG Version: 6.00 Build 0)  -->
<!DOCTYPE svg PUBLIC "-//W3C//DTD SVG 1.1//EN" "http://www.w3.org/Graphics/SVG/1.1/DTD/svg11.dtd">
<svg version="1.1" xmlns="http://www.w3.org/2000/svg" xmlns:xlink="http://www.w3.org/1999/xlink" x="0px" y="0px" width="100px"
	 height="100px" viewBox="0 0 100 100" enable-background="new 0 0 100 100" xml:space="preserve">
<g id="Layer_3">
</g>
<g id="Your_Icon">
</g>
<g id="Layer_4">
	<g>
		<path d="M77,2H23c-1.657,0-3,1.336-3,2.993v89.746c0,1.184,0.696,2.257,1.776,2.739c1.082,0.482,2.345,0.284,3.227-0.505
			l24.986-22.399l24.997,22.643c0.562,0.51,1.283,0.776,2.015,0.776c0.41,0,0.824-0.084,1.215-0.257
			C79.301,97.254,80,96.179,80,94.993v-90C80,3.336,78.657,2,77,2z M74,88.228L52.014,68.312c-0.571-0.518-1.292-0.776-2.014-0.776
			c-0.716,0-1.433,0.255-2.003,0.766L26,88.021V8h48V88.228z"/>
	</g>
</g>
</svg>
