<?xml version="1.0" encoding="utf-8"?>
<!-- Generated by IcoMoon.io -->
<!DOCTYPE svg PUBLIC "-//W3C//DTD SVG 1.1//EN" "http://www.w3.org/Graphics/SVG/1.1/DTD/svg11.dtd">
<svg version="1.1" xmlns="http://www.w3.org/2000/svg" xmlns:xlink="http://www.w3.org/1999/xlink" width="672" height="672" viewBox="0 0 672 672">
<g id="icomoon-ignore">
	<line stroke-width="1" x1="16" y1="0" x2="16" y2="672" stroke="#449FDB" opacity="0.3"></line>
	<line stroke-width="1" x1="32" y1="0" x2="32" y2="672" stroke="#449FDB" opacity="1"></line>
	<line stroke-width="1" x1="48" y1="0" x2="48" y2="672" stroke="#449FDB" opacity="0.3"></line>
	<line stroke-width="1" x1="64" y1="0" x2="64" y2="672" stroke="#449FDB" opacity="1"></line>
	<line stroke-width="1" x1="80" y1="0" x2="80" y2="672" stroke="#449FDB" opacity="0.3"></line>
	<line stroke-width="1" x1="96" y1="0" x2="96" y2="672" stroke="#449FDB" opacity="1"></line>
	<line stroke-width="1" x1="112" y1="0" x2="112" y2="672" stroke="#449FDB" opacity="0.3"></line>
	<line stroke-width="1" x1="128" y1="0" x2="128" y2="672" stroke="#449FDB" opacity="1"></line>
	<line stroke-width="1" x1="144" y1="0" x2="144" y2="672" stroke="#449FDB" opacity="0.3"></line>
	<line stroke-width="1" x1="160" y1="0" x2="160" y2="672" stroke="#449FDB" opacity="1"></line>
	<line stroke-width="1" x1="176" y1="0" x2="176" y2="672" stroke="#449FDB" opacity="0.3"></line>
	<line stroke-width="1" x1="192" y1="0" x2="192" y2="672" stroke="#449FDB" opacity="1"></line>
	<line stroke-width="1" x1="208" y1="0" x2="208" y2="672" stroke="#449FDB" opacity="0.3"></line>
	<line stroke-width="1" x1="224" y1="0" x2="224" y2="672" stroke="#449FDB" opacity="1"></line>
	<line stroke-width="1" x1="240" y1="0" x2="240" y2="672" stroke="#449FDB" opacity="0.3"></line>
	<line stroke-width="1" x1="256" y1="0" x2="256" y2="672" stroke="#449FDB" opacity="1"></line>
	<line stroke-width="1" x1="272" y1="0" x2="272" y2="672" stroke="#449FDB" opacity="0.3"></line>
	<line stroke-width="1" x1="288" y1="0" x2="288" y2="672" stroke="#449FDB" opacity="1"></line>
	<line stroke-width="1" x1="304" y1="0" x2="304" y2="672" stroke="#449FDB" opacity="0.3"></line>
	<line stroke-width="1" x1="320" y1="0" x2="320" y2="672" stroke="#449FDB" opacity="1"></line>
	<line stroke-width="1" x1="336" y1="0" x2="336" y2="672" stroke="#449FDB" opacity="0.3"></line>
	<line stroke-width="1" x1="352" y1="0" x2="352" y2="672" stroke="#449FDB" opacity="1"></line>
	<line stroke-width="1" x1="368" y1="0" x2="368" y2="672" stroke="#449FDB" opacity="0.3"></line>
	<line stroke-width="1" x1="384" y1="0" x2="384" y2="672" stroke="#449FDB" opacity="1"></line>
	<line stroke-width="1" x1="400" y1="0" x2="400" y2="672" stroke="#449FDB" opacity="0.3"></line>
	<line stroke-width="1" x1="416" y1="0" x2="416" y2="672" stroke="#449FDB" opacity="1"></line>
	<line stroke-width="1" x1="432" y1="0" x2="432" y2="672" stroke="#449FDB" opacity="0.3"></line>
	<line stroke-width="1" x1="448" y1="0" x2="448" y2="672" stroke="#449FDB" opacity="1"></line>
	<line stroke-width="1" x1="464" y1="0" x2="464" y2="672" stroke="#449FDB" opacity="0.3"></line>
	<line stroke-width="1" x1="480" y1="0" x2="480" y2="672" stroke="#449FDB" opacity="1"></line>
	<line stroke-width="1" x1="496" y1="0" x2="496" y2="672" stroke="#449FDB" opacity="0.3"></line>
	<line stroke-width="1" x1="512" y1="0" x2="512" y2="672" stroke="#449FDB" opacity="1"></line>
	<line stroke-width="1" x1="528" y1="0" x2="528" y2="672" stroke="#449FDB" opacity="0.3"></line>
	<line stroke-width="1" x1="544" y1="0" x2="544" y2="672" stroke="#449FDB" opacity="1"></line>
	<line stroke-width="1" x1="560" y1="0" x2="560" y2="672" stroke="#449FDB" opacity="0.3"></line>
	<line stroke-width="1" x1="576" y1="0" x2="576" y2="672" stroke="#449FDB" opacity="1"></line>
	<line stroke-width="1" x1="592" y1="0" x2="592" y2="672" stroke="#449FDB" opacity="0.3"></line>
	<line stroke-width="1" x1="608" y1="0" x2="608" y2="672" stroke="#449FDB" opacity="1"></line>
	<line stroke-width="1" x1="624" y1="0" x2="624" y2="672" stroke="#449FDB" opacity="0.3"></line>
	<line stroke-width="1" x1="640" y1="0" x2="640" y2="672" stroke="#449FDB" opacity="1"></line>
	<line stroke-width="1" x1="656" y1="0" x2="656" y2="672" stroke="#449FDB" opacity="0.3"></line>
	<line stroke-width="1" x1="0" y1="16" x2="672" y2="16" stroke="#449FDB" opacity="0.3"></line>
	<line stroke-width="1" x1="0" y1="32" x2="672" y2="32" stroke="#449FDB" opacity="1"></line>
	<line stroke-width="1" x1="0" y1="48" x2="672" y2="48" stroke="#449FDB" opacity="0.3"></line>
	<line stroke-width="1" x1="0" y1="64" x2="672" y2="64" stroke="#449FDB" opacity="1"></line>
	<line stroke-width="1" x1="0" y1="80" x2="672" y2="80" stroke="#449FDB" opacity="0.3"></line>
	<line stroke-width="1" x1="0" y1="96" x2="672" y2="96" stroke="#449FDB" opacity="1"></line>
	<line stroke-width="1" x1="0" y1="112" x2="672" y2="112" stroke="#449FDB" opacity="0.3"></line>
	<line stroke-width="1" x1="0" y1="128" x2="672" y2="128" stroke="#449FDB" opacity="1"></line>
	<line stroke-width="1" x1="0" y1="144" x2="672" y2="144" stroke="#449FDB" opacity="0.3"></line>
	<line stroke-width="1" x1="0" y1="160" x2="672" y2="160" stroke="#449FDB" opacity="1"></line>
	<line stroke-width="1" x1="0" y1="176" x2="672" y2="176" stroke="#449FDB" opacity="0.3"></line>
	<line stroke-width="1" x1="0" y1="192" x2="672" y2="192" stroke="#449FDB" opacity="1"></line>
	<line stroke-width="1" x1="0" y1="208" x2="672" y2="208" stroke="#449FDB" opacity="0.3"></line>
	<line stroke-width="1" x1="0" y1="224" x2="672" y2="224" stroke="#449FDB" opacity="1"></line>
	<line stroke-width="1" x1="0" y1="240" x2="672" y2="240" stroke="#449FDB" opacity="0.3"></line>
	<line stroke-width="1" x1="0" y1="256" x2="672" y2="256" stroke="#449FDB" opacity="1"></line>
	<line stroke-width="1" x1="0" y1="272" x2="672" y2="272" stroke="#449FDB" opacity="0.3"></line>
	<line stroke-width="1" x1="0" y1="288" x2="672" y2="288" stroke="#449FDB" opacity="1"></line>
	<line stroke-width="1" x1="0" y1="304" x2="672" y2="304" stroke="#449FDB" opacity="0.3"></line>
	<line stroke-width="1" x1="0" y1="320" x2="672" y2="320" stroke="#449FDB" opacity="1"></line>
	<line stroke-width="1" x1="0" y1="336" x2="672" y2="336" stroke="#449FDB" opacity="0.3"></line>
	<line stroke-width="1" x1="0" y1="352" x2="672" y2="352" stroke="#449FDB" opacity="1"></line>
	<line stroke-width="1" x1="0" y1="368" x2="672" y2="368" stroke="#449FDB" opacity="0.3"></line>
	<line stroke-width="1" x1="0" y1="384" x2="672" y2="384" stroke="#449FDB" opacity="1"></line>
	<line stroke-width="1" x1="0" y1="400" x2="672" y2="400" stroke="#449FDB" opacity="0.3"></line>
	<line stroke-width="1" x1="0" y1="416" x2="672" y2="416" stroke="#449FDB" opacity="1"></line>
	<line stroke-width="1" x1="0" y1="432" x2="672" y2="432" stroke="#449FDB" opacity="0.3"></line>
	<line stroke-width="1" x1="0" y1="448" x2="672" y2="448" stroke="#449FDB" opacity="1"></line>
	<line stroke-width="1" x1="0" y1="464" x2="672" y2="464" stroke="#449FDB" opacity="0.3"></line>
	<line stroke-width="1" x1="0" y1="480" x2="672" y2="480" stroke="#449FDB" opacity="1"></line>
	<line stroke-width="1" x1="0" y1="496" x2="672" y2="496" stroke="#449FDB" opacity="0.3"></line>
	<line stroke-width="1" x1="0" y1="512" x2="672" y2="512" stroke="#449FDB" opacity="1"></line>
	<line stroke-width="1" x1="0" y1="528" x2="672" y2="528" stroke="#449FDB" opacity="0.3"></line>
	<line stroke-width="1" x1="0" y1="544" x2="672" y2="544" stroke="#449FDB" opacity="1"></line>
	<line stroke-width="1" x1="0" y1="560" x2="672" y2="560" stroke="#449FDB" opacity="0.3"></line>
	<line stroke-width="1" x1="0" y1="576" x2="672" y2="576" stroke="#449FDB" opacity="1"></line>
	<line stroke-width="1" x1="0" y1="592" x2="672" y2="592" stroke="#449FDB" opacity="0.3"></line>
	<line stroke-width="1" x1="0" y1="608" x2="672" y2="608" stroke="#449FDB" opacity="1"></line>
	<line stroke-width="1" x1="0" y1="624" x2="672" y2="624" stroke="#449FDB" opacity="0.3"></line>
	<line stroke-width="1" x1="0" y1="640" x2="672" y2="640" stroke="#449FDB" opacity="1"></line>
	<line stroke-width="1" x1="0" y1="656" x2="672" y2="656" stroke="#449FDB" opacity="0.3"></line>
</g>
	<path d="M518.784 6.72h-362.88c-11.135 0-21.504 9.025-21.504 20.16v60.48h40.32v-40.32h322.56v40.32h40.32v-60.48c0-11.135-7.681-20.16-18.816-20.16z"></path>
	<path d="M134.4 87.36v106.041c0 17.889 12.533 43.949 100.497 101.64 23.769 15.591 47.598 29.655 64.949 39.722-17.465 10.113-41.395 24.501-65.789 40.501-87.965 57.705-99.657 83.765-99.657 101.653v166.521c0 11.135 9.025 21.84 20.16 21.84h362.88c11.135 0 20.16-10.705 20.16-21.84v-166.521c0-17.781-11.861-43.74-99.812-101.512-23.809-15.637-47.336-29.756-64.693-39.856 17.472-10.14 40.938-24.588 65.372-40.636 87.945-57.772 99.133-83.731 99.133-101.512v-106.041h-403.2zM497.28 624.96h-322.56v-40.32h322.56v40.32zM497.28 477.584v66.736h-322.56v-66.777c5.141-18.003 77.623-70.365 161.267-116.847 83.529 46.569 155.998 98.932 161.293 116.888zM497.28 192.736c-6.72 17.956-77.764 70.318-161.293 116.888-83.644-46.469-154.547-98.824-161.267-116.847v-65.097h322.56v65.056z"></path>
</svg>
