<?xml version="1.0" encoding="utf-8"?>
<!-- Generator: Adobe Illustrator 16.0.0, SVG Export Plug-In . SVG Version: 6.00 Build 0)  -->
<!DOCTYPE svg PUBLIC "-//W3C//DTD SVG 1.1//EN" "http://www.w3.org/Graphics/SVG/1.1/DTD/svg11.dtd">
<svg version="1.1" xmlns="http://www.w3.org/2000/svg" xmlns:xlink="http://www.w3.org/1999/xlink" x="0px" y="0px" width="100px"
	 height="100px" viewBox="0 0 100 100" enable-background="new 0 0 100 100" xml:space="preserve">
<g id="Layer_3">
</g>
<g id="Your_Icon">
</g>
<g id="Layer_4">
	<g>
		<g>
			<g>
				<g>
					<path d="M44.642,82.597c-1.951-1.931-4.496-2.895-7.04-2.895c-2.574,0-5.148,0.987-7.105,2.961
						c-3.885,3.923-3.86,10.255,0.064,14.14c1.951,1.933,4.495,2.897,7.039,2.897c2.574,0,5.147-0.988,7.104-2.96
						C48.588,92.818,48.564,86.484,44.642,82.597z M40.445,92.514c-0.759,0.766-1.77,1.187-2.846,1.187
						c-1.062,0-2.062-0.412-2.818-1.162c-0.757-0.749-1.177-1.75-1.182-2.817c-0.005-1.068,0.407-2.076,1.156-2.832
						c0.759-0.765,1.77-1.187,2.846-1.187c1.062,0,2.064,0.412,2.816,1.156C41.984,88.41,41.994,90.949,40.445,92.514z"/>
				</g>
			</g>
		</g>
	</g>
	<g>
		<path d="M89,66.965v-31.03c-2,0.466-4,0.466-6,0v29.938L60.899,43.692c-3.486,1.915-7.59,2.11-11.221,0.58L38.926,75.271
			l-18.808-50.31c-1.725,1.136-3.652,1.813-5.633,2.042l18.871,50.42c3.554-1.223,7.526-0.862,10.829,1.087L55.34,46.473
			l22.811,22.89C81.328,66.875,86,66.076,89,66.965z"/>
	</g>
	<g>
		<path d="M93.24,73.095c-1.951-1.931-4.496-2.895-7.039-2.895c-2.574,0-5.148,0.987-7.105,2.961
			c-3.885,3.923-3.861,10.255,0.064,14.14c1.951,1.933,4.494,2.897,7.039,2.897c2.574,0,5.146-0.988,7.104-2.96
			C97.188,83.316,97.164,76.982,93.24,73.095z M89.045,83.012c-0.76,0.766-1.77,1.187-2.846,1.187c-1.062,0-2.062-0.412-2.818-1.162
			c-0.758-0.749-1.178-1.75-1.182-2.817c-0.006-1.068,0.406-2.076,1.156-2.832c0.758-0.765,1.77-1.187,2.846-1.187
			c1.062,0,2.064,0.412,2.816,1.156C90.584,78.908,90.594,81.447,89.045,83.012z"/>
	</g>
	<g>
		<path d="M93.041,16.494c-1.951-1.93-4.496-2.895-7.04-2.895c-2.574,0-5.148,0.988-7.105,2.961
			c-3.885,3.924-3.86,10.256,0.064,14.141c1.951,1.932,4.495,2.896,7.039,2.896c2.574,0,5.147-0.988,7.104-2.959
			C96.987,26.717,96.964,20.383,93.041,16.494z M88.845,26.412c-0.759,0.766-1.77,1.186-2.846,1.186
			c-1.062,0-2.062-0.412-2.818-1.162c-0.757-0.748-1.177-1.75-1.182-2.816c-0.005-1.068,0.407-2.076,1.156-2.832
			c0.759-0.766,1.77-1.188,2.846-1.188c1.062,0,2.064,0.412,2.816,1.156C90.384,22.309,90.394,24.848,88.845,26.412z"/>
	</g>
	<g>
		<path d="M62.042,24.896c-1.951-1.931-4.496-2.895-7.04-2.895c-2.574,0-5.148,0.987-7.105,2.961
			c-3.885,3.923-3.86,10.255,0.064,14.14c1.951,1.933,4.495,2.897,7.039,2.897c2.574,0,5.147-0.988,7.104-2.96
			C65.988,35.117,65.965,28.783,62.042,24.896z M57.846,34.812c-0.759,0.766-1.77,1.187-2.846,1.187
			c-1.062,0-2.062-0.412-2.818-1.162c-0.757-0.749-1.177-1.75-1.182-2.817c-0.005-1.068,0.407-2.076,1.156-2.832
			c0.759-0.765,1.77-1.187,2.846-1.187c1.062,0,2.064,0.412,2.816,1.156C59.385,30.709,59.395,33.248,57.846,34.812z"/>
	</g>
	<g>
		<path d="M20.042,6.896c-1.951-1.931-4.496-2.895-7.04-2.895c-2.574,0-5.148,0.987-7.105,2.961
			c-3.885,3.923-3.86,10.255,0.064,14.14c1.951,1.933,4.495,2.897,7.039,2.897c2.574,0,5.147-0.988,7.104-2.96
			C23.988,17.117,23.965,10.783,20.042,6.896z M15.846,16.812c-0.759,0.766-1.77,1.187-2.846,1.187
			c-1.062,0-2.062-0.412-2.818-1.162C9.425,16.088,9.005,15.087,9,14.02c-0.005-1.068,0.407-2.076,1.156-2.832
			c0.759-0.765,1.77-1.187,2.846-1.187c1.062,0,2.064,0.412,2.816,1.156C17.385,12.709,17.395,15.248,15.846,16.812z"/>
	</g>
</g>
</svg>
