<?xml version="1.0" encoding="utf-8"?>
<!-- Generator: Adobe Illustrator 16.0.0, SVG Export Plug-In . SVG Version: 6.00 Build 0)  -->
<!DOCTYPE svg PUBLIC "-//W3C//DTD SVG 1.1//EN" "http://www.w3.org/Graphics/SVG/1.1/DTD/svg11.dtd">
<svg version="1.1" xmlns="http://www.w3.org/2000/svg" xmlns:xlink="http://www.w3.org/1999/xlink" x="0px" y="0px" width="100px"
	 height="100px" viewBox="0 0 100 100" enable-background="new 0 0 100 100" xml:space="preserve">
<g id="Layer_3" display="none">
</g>
<g id="Your_Icon">
</g>
<g id="Layer_4">
	<g>
		<path d="M41.655,52.446l4.407-24.999c-2.005,0.164-4.041-0.129-5.935-0.894l-4.193,23.784L22.951,45.55
			c-0.16,1.991-0.786,3.947-1.862,5.709l13.787,5.083l-3.56,20.19c2.008-0.104,4.029,0.252,5.902,1.074l3.377-19.155l36.656,13.517
			c0.386-1.95,1.224-3.827,2.509-5.47L41.655,52.446z"/>
		<path fill="#FFFFFF" d="M38.919,22.428c-0.064-0.05-0.133-0.092-0.197-0.144C38.786,22.336,38.854,22.378,38.919,22.428z"/>
		<path fill="#FFFFFF" d="M48.292,5.068c0.146,0.051,0.296,0.095,0.44,0.153C48.588,5.163,48.438,5.12,48.292,5.068z"/>
		<path fill="#FFFFFF" d="M50.115,5.919c0.118,0.07,0.239,0.132,0.354,0.207C50.354,6.051,50.233,5.989,50.115,5.919z"/>
		<path fill="#FFFFFF" d="M49.212,5.441c0.135,0.063,0.273,0.118,0.406,0.188C49.485,5.559,49.347,5.504,49.212,5.441z"/>
		<path fill="#FFFFFF" d="M46.419,4.614c0.155,0.022,0.311,0.037,0.465,0.066C46.729,4.651,46.574,4.636,46.419,4.614z"/>
		<path fill="#FFFFFF" d="M47.361,4.794c0.152,0.037,0.307,0.067,0.457,0.111C47.668,4.861,47.514,4.832,47.361,4.794z"/>
		<path fill="#FFFFFF" d="M50.115,23.08c-0.145,0.086-0.285,0.179-0.433,0.257C49.83,23.259,49.971,23.166,50.115,23.08z"/>
		<path fill="#FFFFFF" d="M48.327,23.919c-0.149,0.053-0.298,0.113-0.45,0.158C48.029,24.032,48.178,23.972,48.327,23.919z"/>
		<path fill="#FFFFFF" d="M49.234,23.547c-0.146,0.069-0.291,0.145-0.439,0.206C48.943,23.692,49.088,23.616,49.234,23.547z"/>
		<path fill="#FFFFFF" d="M52.104,21.538c-0.244,0.246-0.497,0.476-0.759,0.691C51.606,22.014,51.859,21.784,52.104,21.538z"/>
		<path fill="#FFFFFF" d="M47.406,24.194c-0.156,0.039-0.312,0.084-0.469,0.115C47.096,24.279,47.25,24.233,47.406,24.194z"/>
		<path fill="#FFFFFF" d="M50.991,6.506c0.096,0.071,0.195,0.134,0.288,0.209C51.187,6.64,51.087,6.577,50.991,6.506z"/>
		<path fill="#FFFFFF" d="M40.384,23.373c0.104,0.054,0.213,0.097,0.319,0.147C40.597,23.47,40.488,23.427,40.384,23.373z"/>
		<path fill="#FFFFFF" d="M39.807,5.968c0.17-0.104,0.337-0.212,0.512-0.304C40.144,5.756,39.977,5.864,39.807,5.968z"/>
		<path fill="#FFFFFF" d="M39.81,23.037c-0.092-0.056-0.188-0.104-0.277-0.163C39.622,22.933,39.718,22.981,39.81,23.037z"/>
		<path fill="#FFFFFF" d="M40.684,5.492c0.174-0.083,0.347-0.172,0.524-0.245C41.03,5.32,40.857,5.409,40.684,5.492z"/>
		<path fill="#FFFFFF" d="M38.927,6.57c0.178-0.136,0.354-0.275,0.538-0.398C39.281,6.294,39.104,6.434,38.927,6.57z"/>
		<path fill="#FFFFFF" d="M43.473,4.63c0.182-0.028,0.363-0.062,0.546-0.08C43.836,4.569,43.654,4.602,43.473,4.63z"/>
		<path fill="#FFFFFF" d="M41.593,5.111c0.177-0.064,0.353-0.134,0.532-0.188C41.945,4.977,41.77,5.046,41.593,5.111z"/>
		<path fill="#FFFFFF" d="M44.439,4.529c0.18-0.01,0.359-0.025,0.54-0.026C44.799,4.503,44.619,4.519,44.439,4.529z"/>
		<path fill="#FFFFFF" d="M42.524,4.824c0.18-0.046,0.358-0.097,0.541-0.133C42.883,4.727,42.704,4.778,42.524,4.824z"/>
		<path fill="#FFFFFF" d="M45.465,4.524c0.156,0.007,0.313,0.008,0.47,0.022C45.778,4.532,45.621,4.531,45.465,4.524z"/>
		<path fill="#FFFFFF" d="M50.98,22.5c-0.148,0.11-0.293,0.228-0.445,0.329C50.688,22.728,50.832,22.61,50.98,22.5z"/>
		<path fill="#FFFFFF" d="M44.487,24.475c-0.14-0.007-0.28-0.007-0.42-0.02C44.207,24.468,44.348,24.468,44.487,24.475z"/>
		<path fill="#FFFFFF" d="M43.533,24.381c-0.139-0.021-0.277-0.033-0.415-0.06C43.256,24.348,43.395,24.36,43.533,24.381z"/>
		<path fill="#FFFFFF" d="M42.573,24.191c-0.129-0.032-0.261-0.057-0.39-0.095C42.312,24.134,42.444,24.159,42.573,24.191z"/>
		<path fill="#FFFFFF" d="M45.505,24.475c-0.16,0.008-0.321,0.023-0.481,0.023C45.184,24.498,45.345,24.483,45.505,24.475z"/>
		<path fill="#FFFFFF" d="M41.623,23.903c-0.117-0.042-0.236-0.076-0.353-0.123C41.387,23.827,41.506,23.861,41.623,23.903z"/>
		<path fill="#FFFFFF" d="M46.465,24.38c-0.16,0.024-0.32,0.054-0.481,0.07C46.145,24.434,46.305,24.404,46.465,24.38z"/>
		<path fill="#FFFFFF" d="M25.883,81.602c0.191-0.148,0.383-0.298,0.583-0.431C26.266,81.304,26.074,81.453,25.883,81.602z"/>
		<path fill="#FFFFFF" d="M24.896,82.463c0.244-0.246,0.498-0.477,0.76-0.692C25.394,81.986,25.14,82.217,24.896,82.463z"/>
		<path fill="#FFFFFF" d="M26.788,80.979c0.176-0.107,0.35-0.22,0.53-0.315C27.138,80.759,26.964,80.871,26.788,80.979z"/>
		<path fill="#FFFFFF" d="M28.609,80.104c0.172-0.062,0.341-0.129,0.515-0.181C28.95,79.975,28.781,80.042,28.609,80.104z"/>
		<path fill="#FFFFFF" d="M37.206,80.971c0.087,0.053,0.177,0.098,0.263,0.153C37.383,81.068,37.293,81.023,37.206,80.971z"/>
		<path fill="#FFFFFF" d="M38.086,81.574c0.063,0.048,0.131,0.09,0.192,0.14C38.217,81.664,38.149,81.622,38.086,81.574z"/>
		<path fill="#FFFFFF" d="M29.567,79.812c0.165-0.041,0.329-0.089,0.496-0.122C29.896,79.724,29.732,79.771,29.567,79.812z"/>
		<path fill="#FFFFFF" d="M27.684,80.491c0.174-0.083,0.347-0.172,0.524-0.245C28.03,80.319,27.857,80.408,27.684,80.491z"/>
		<path fill="#FFFFFF" d="M31.592,99.479c-0.177-0.007-0.354-0.009-0.529-0.024C31.238,99.47,31.415,99.472,31.592,99.479z"/>
		<path fill="#FFFFFF" d="M32.617,99.469c-0.2,0.012-0.399,0.028-0.6,0.028C32.218,99.497,32.417,99.48,32.617,99.469z"/>
		<path fill="#FFFFFF" d="M33.59,99.36c-0.203,0.033-0.406,0.069-0.611,0.089C33.184,99.43,33.387,99.394,33.59,99.36z"/>
		<path fill="#FFFFFF" d="M30.636,99.395c-0.174-0.024-0.349-0.042-0.521-0.075C30.287,99.353,30.462,99.37,30.636,99.395z"/>
		<path fill="#FFFFFF" d="M31.017,79.551c-0.164,0.016-0.326,0.047-0.489,0.07C30.69,79.598,30.853,79.566,31.017,79.551z"/>
		<path fill="#FFFFFF" d="M31.495,79.525c0.16-0.008,0.321-0.022,0.481-0.023C31.816,79.503,31.655,79.518,31.495,79.525z"/>
		<path fill="#FFFFFF" d="M34.432,79.811c0.128,0.032,0.258,0.057,0.385,0.094C34.689,79.867,34.56,79.843,34.432,79.811z"/>
		<path fill="#FFFFFF" d="M32.521,79.525c0.137,0.007,0.274,0.007,0.412,0.02C32.795,79.532,32.657,79.532,32.521,79.525z"/>
		<path fill="#FFFFFF" d="M36.284,80.474c0.11,0.053,0.224,0.097,0.333,0.153C36.508,80.57,36.395,80.526,36.284,80.474z"/>
		<path fill="#FFFFFF" d="M35.361,80.092c0.123,0.044,0.248,0.079,0.369,0.128C35.609,80.171,35.484,80.136,35.361,80.092z"/>
		<path fill="#FFFFFF" d="M33.481,79.622c0.134,0.02,0.268,0.031,0.399,0.057C33.749,79.653,33.615,79.642,33.481,79.622z"/>
		<path fill="#FFFFFF" d="M10.521,34.526c0.137,0.007,0.274,0.007,0.412,0.02C10.795,34.533,10.657,34.533,10.521,34.526z"/>
		<path fill="#FFFFFF" d="M15.187,35.96c0.094,0.057,0.19,0.105,0.282,0.166C15.377,36.065,15.28,36.017,15.187,35.96z"/>
		<path fill="#FFFFFF" d="M16.076,36.567c0.066,0.051,0.137,0.095,0.202,0.147C16.213,36.662,16.143,36.619,16.076,36.567z"/>
		<path fill="#FFFFFF" d="M11.473,34.621c0.137,0.02,0.273,0.033,0.409,0.059C11.746,34.654,11.609,34.641,11.473,34.621z"/>
		<path fill="#FFFFFF" d="M14.305,53.515c-0.17,0.081-0.338,0.168-0.512,0.239C13.967,53.683,14.135,53.596,14.305,53.515z"/>
		<path fill="#FFFFFF" d="M12.425,34.81c0.13,0.032,0.262,0.057,0.392,0.095C12.687,34.867,12.555,34.842,12.425,34.81z"/>
		<path fill="#FFFFFF" d="M13.362,35.092c0.122,0.044,0.247,0.08,0.368,0.128C13.609,35.172,13.484,35.136,13.362,35.092z"/>
		<path fill="#FFFFFF" d="M14.285,35.475c0.11,0.052,0.223,0.096,0.332,0.152C14.508,35.571,14.396,35.526,14.285,35.475z"/>
		<path fill="#FFFFFF" d="M12.441,54.186c-0.168,0.042-0.335,0.091-0.505,0.124C12.106,54.276,12.273,54.228,12.441,54.186z"/>
		<path fill="#FFFFFF" d="M13.387,53.897c-0.17,0.062-0.339,0.128-0.512,0.18C13.048,54.025,13.217,53.959,13.387,53.897z"/>
		<path fill="#FFFFFF" d="M11.473,54.379c-0.163,0.023-0.325,0.055-0.489,0.07C11.147,54.434,11.31,54.402,11.473,54.379z"/>
		<path fill="#FFFFFF" d="M15.221,53.017c-0.179,0.11-0.355,0.224-0.539,0.321C14.865,53.24,15.042,53.127,15.221,53.017z"/>
		<path fill="#FFFFFF" d="M16.095,52.415c-0.185,0.143-0.369,0.287-0.561,0.415C15.726,52.702,15.91,52.558,16.095,52.415z"/>
		<path fill="#FFFFFF" d="M17.104,51.539c-0.244,0.246-0.497,0.477-0.76,0.691C16.606,52.016,16.859,51.785,17.104,51.539z"/>
	</g>
	<g>
		<path d="M17.042,37.896c-1.951-1.931-4.496-2.895-7.04-2.895c-2.574,0-5.148,0.987-7.105,2.961
			c-3.885,3.923-3.86,10.255,0.064,14.14c1.951,1.933,4.495,2.897,7.039,2.897c2.574,0,5.147-0.988,7.104-2.96
			C20.988,48.117,20.965,41.783,17.042,37.896z M12.846,47.812c-0.759,0.766-1.77,1.187-2.846,1.187
			c-1.062,0-2.062-0.412-2.818-1.162C6.425,47.088,6.005,46.087,6,45.02c-0.005-1.068,0.407-2.076,1.156-2.832
			c0.759-0.765,1.77-1.187,2.846-1.187c1.062,0,2.064,0.412,2.816,1.156C14.385,43.709,14.395,46.248,12.846,47.812z"/>
	</g>
	<g>
		<path d="M52.041,6.896c-1.951-1.931-4.496-2.895-7.04-2.895c-2.574,0-5.148,0.987-7.105,2.961
			c-3.885,3.923-3.86,10.255,0.064,14.14c1.951,1.933,4.495,2.897,7.039,2.897c2.574,0,5.147-0.988,7.104-2.96
			C55.987,17.117,55.964,10.783,52.041,6.896z M47.845,16.812c-0.759,0.766-1.77,1.187-2.846,1.187
			c-1.062,0-2.062-0.412-2.818-1.162c-0.757-0.749-1.177-1.75-1.182-2.817c-0.005-1.068,0.407-2.076,1.156-2.832
			c0.759-0.765,1.77-1.187,2.846-1.187c1.062,0,2.064,0.412,2.816,1.156C49.384,12.709,49.394,15.248,47.845,16.812z"/>
	</g>
	<g>
		<path d="M97.041,67.896c-1.951-1.931-4.496-2.895-7.04-2.895c-2.574,0-5.148,0.987-7.105,2.961
			c-3.885,3.923-3.86,10.255,0.064,14.14c1.951,1.933,4.495,2.897,7.039,2.897c2.574,0,5.147-0.988,7.104-2.96
			C100.987,78.117,100.964,71.783,97.041,67.896z M92.845,77.812c-0.759,0.766-1.77,1.187-2.846,1.187
			c-1.062,0-2.062-0.412-2.818-1.162c-0.757-0.749-1.177-1.75-1.182-2.817c-0.005-1.068,0.407-2.076,1.156-2.832
			c0.759-0.765,1.77-1.187,2.846-1.187c1.062,0,2.064,0.412,2.816,1.156C94.384,73.709,94.394,76.248,92.845,77.812z"/>
	</g>
	<g>
		<path d="M39.042,82.896c-1.951-1.931-4.496-2.895-7.04-2.895c-2.574,0-5.148,0.987-7.105,2.961
			c-3.885,3.923-3.86,10.255,0.064,14.14C26.912,99.035,29.456,100,32,100c2.574,0,5.147-0.988,7.104-2.96
			C42.988,93.118,42.965,86.784,39.042,82.896z M34.846,92.813C34.087,93.579,33.076,94,32,94c-1.062,0-2.062-0.412-2.818-1.162
			c-0.757-0.749-1.177-1.75-1.182-2.817c-0.005-1.068,0.407-2.076,1.156-2.832c0.759-0.765,1.77-1.187,2.846-1.187
			c1.062,0,2.064,0.412,2.816,1.156C36.385,88.71,36.395,91.249,34.846,92.813z"/>
	</g>
</g>
</svg>
