<?xml version="1.0" encoding="utf-8"?>
<!-- Generator: Adobe Illustrator 16.0.0, SVG Export Plug-In . SVG Version: 6.00 Build 0)  -->
<!DOCTYPE svg PUBLIC "-//W3C//DTD SVG 1.1//EN" "http://www.w3.org/Graphics/SVG/1.1/DTD/svg11.dtd">
<svg version="1.1" xmlns="http://www.w3.org/2000/svg" xmlns:xlink="http://www.w3.org/1999/xlink" x="0px" y="0px" width="100px"
	 height="100px" viewBox="0 0 100 100" enable-background="new 0 0 100 100" xml:space="preserve">
<g id="Layer_3">
	<rect x="18" opacity="0.4" fill="none" stroke="#000000" stroke-miterlimit="10" width="64" height="100"/>
	<rect opacity="0.4" fill="none" stroke="#000000" stroke-miterlimit="10" width="100" height="100"/>
	<g opacity="0.4">
		<path fill="none" stroke="#211915" stroke-miterlimit="10" d="M50,18c17.677,0,32,14.323,32,32c0,17.667-14.323,32-32,32
			S18,67.667,18,50C18,32.323,32.323,18,50,18 M50,11c-21.506,0-39,17.496-39,39s17.494,39,39,39s39-17.496,39-39S71.506,11,50,11
			L50,11z"/>
	</g>
	
		<line opacity="0.4" fill="none" stroke="#211915" stroke-linecap="square" stroke-miterlimit="10" x1="18.5" y1="149" x2="18.5" y2="7"/>
	
		<line opacity="0.4" fill="none" stroke="#211915" stroke-linecap="square" stroke-miterlimit="10" x1="-52" y1="78.5" x2="90" y2="78.5"/>
</g>
<g id="Your_Icon">
</g>
<g id="Layer_4">
	<g>
		<path d="M28.229,72.14c-2.278-2.272-5.289-3.518-8.49-3.518c-3.208,0-6.224,1.251-8.49,3.523c-2.262,2.261-3.51,5.275-3.51,8.479
			s1.248,6.218,3.516,8.485c2.272,2.267,5.285,3.513,8.487,3.513c3.204,0,6.217-1.248,8.481-3.513
			c2.266-2.259,3.516-5.274,3.516-8.483C31.739,77.423,30.493,74.409,28.229,72.14z M23.981,84.868
			c-1.171,1.171-2.705,1.755-4.239,1.755c-1.536,0-3.072-0.586-4.245-1.755c-2.344-2.344-2.344-6.141,0-8.484
			c1.172-1.175,2.707-1.761,4.242-1.761s3.07,0.586,4.242,1.755C26.325,78.727,26.325,82.53,23.981,84.868z"/>
	</g>
	<path d="M89.261,78.367h-6v-3c0.002-32.525-26.466-58.988-59-58.99h-3v-6h3c35.843,0.002,65.002,29.157,65,64.99V78.367z"/>
	<path d="M69.886,78.367h-6v-3c0.001-21.841-17.775-39.612-39.625-39.615l-3,0v-6l3,0c25.159,0.003,45.626,20.466,45.625,45.615
		V78.367z"/>
	<path d="M44.512,78.367l-0.001-3c-0.003-11.159-9.088-20.238-20.25-20.239l-3,0v-6l3,0c14.47,0.001,26.245,11.771,26.25,26.237
		l0.001,3L44.512,78.367z"/>
</g>
</svg>
