<?xml version="1.0" encoding="utf-8"?>
<!-- Generator: Adobe Illustrator 16.0.0, SVG Export Plug-In . SVG Version: 6.00 Build 0)  -->
<!DOCTYPE svg PUBLIC "-//W3C//DTD SVG 1.1//EN" "http://www.w3.org/Graphics/SVG/1.1/DTD/svg11.dtd">
<svg version="1.1" xmlns="http://www.w3.org/2000/svg" xmlns:xlink="http://www.w3.org/1999/xlink" x="0px" y="0px" width="100px"
	 height="100px" viewBox="0 0 100 100" enable-background="new 0 0 100 100" xml:space="preserve">
<g id="Layer_3" display="none">
</g>
<g id="Your_Icon">
</g>
<g id="Layer_4">
	<g>
		<path d="M88,73.492V60.804C88,59.146,86.657,58,85,58H53V36.704c-0.286,0.074-0.572,0.149-0.867,0.203
			c-1.764,0.319-3.504,0.223-5.133-0.199V58H15c-1.657,0-3,1.146-3,2.804v12.689c0.285-0.073,0.569-0.148,0.863-0.202
			c1.766-0.319,3.507-0.222,5.137,0.201V64h29v9.493c0.285-0.073,0.569-0.148,0.863-0.202c1.766-0.319,3.507-0.222,5.137,0.201V64
			h29v9.493c0.285-0.073,0.569-0.148,0.863-0.202C84.628,72.972,86.37,73.069,88,73.492z"/>
		<g>
			<path fill="#FFFFFF" d="M49.992,28.603c0.209,0,0.423-0.019,0.634-0.057c1.896-0.344,3.162-2.169,2.818-4.069
				c-0.303-1.666-1.748-2.876-3.436-2.876c-0.211,0-0.425,0.019-0.637,0.058c-0.917,0.166-1.717,0.681-2.249,1.448
				c-0.532,0.767-0.732,1.695-0.565,2.613C46.859,27.394,48.303,28.603,49.992,28.603z"/>
		</g>
		<path d="M51.692,34.45c5.161-0.936,8.591-5.877,7.655-11.043c-0.834-4.589-4.832-7.808-9.34-7.807c-0.561,0-1.13,0.05-1.702,0.153
			c-5.163,0.936-8.591,5.877-7.651,11.04c0.829,4.592,4.83,7.81,9.337,7.81C50.552,34.603,51.122,34.553,51.692,34.45z
			 M47.123,23.105c0.532-0.768,1.333-1.282,2.249-1.448c0.211-0.039,0.426-0.058,0.637-0.058c1.688,0,3.133,1.211,3.436,2.876
			c0.344,1.9-0.922,3.726-2.818,4.069c-0.211,0.038-0.425,0.057-0.634,0.057c-1.688,0-3.132-1.209-3.434-2.884
			C46.39,24.8,46.591,23.872,47.123,23.105z"/>
		<path d="M85.005,75.6c-0.56,0-1.129,0.05-1.7,0.152c-5.163,0.936-8.591,5.877-7.651,11.041c0.829,4.591,4.83,7.81,9.336,7.81
			c0.561,0,1.13-0.05,1.702-0.153c5.161-0.936,8.591-5.877,7.655-11.043C93.513,78.816,89.515,75.599,85.005,75.6z M85.625,88.545
			c-0.211,0.038-0.425,0.058-0.634,0.058c-1.688,0-3.131-1.209-3.433-2.884c-0.167-0.919,0.033-1.847,0.565-2.613
			c0.532-0.769,1.333-1.283,2.248-1.449c0.211-0.038,0.425-0.057,0.636-0.057c1.689,0,3.134,1.211,3.437,2.876
			C88.787,86.375,87.521,88.201,85.625,88.545z"/>
		<path fill="#FFFFFF" d="M57.32,79.054c0.074,0.09,0.146,0.183,0.217,0.276C57.466,79.236,57.395,79.144,57.32,79.054z"/>
		<path fill="#FFFFFF" d="M44.587,92.907c-0.005-0.003-0.01-0.008-0.015-0.012C44.577,92.899,44.582,92.904,44.587,92.907z"/>
		<path fill="#FFFFFF" d="M43.901,92.382c-0.072-0.061-0.14-0.127-0.21-0.189C43.762,92.255,43.829,92.321,43.901,92.382z"/>
		<path fill="#FFFFFF" d="M53.598,76.317c0.102,0.042,0.205,0.081,0.305,0.127C53.803,76.398,53.7,76.359,53.598,76.317z"/>
		<path fill="#FFFFFF" d="M45.566,93.493c-0.081-0.043-0.165-0.081-0.245-0.127C45.401,93.412,45.485,93.45,45.566,93.493z"/>
		<path fill="#FFFFFF" d="M48.101,94.404c-0.119-0.024-0.237-0.051-0.355-0.08C47.864,94.354,47.982,94.38,48.101,94.404z"/>
		<path fill="#FFFFFF" d="M48.979,94.542c-0.121-0.013-0.24-0.03-0.36-0.048C48.739,94.512,48.858,94.529,48.979,94.542z"/>
		<path fill="#FFFFFF" d="M46.403,93.885c-0.104-0.042-0.208-0.082-0.309-0.128C46.196,93.803,46.3,93.843,46.403,93.885z"/>
		<path fill="#FFFFFF" d="M47.243,94.186c-0.114-0.035-0.227-0.069-0.339-0.107C47.016,94.116,47.129,94.15,47.243,94.186z"/>
		<path fill="#FFFFFF" d="M41.29,88.872c-0.046-0.106-0.094-0.212-0.136-0.321C41.195,88.66,41.244,88.765,41.29,88.872z"/>
		<path fill="#FFFFFF" d="M43.264,91.795c-0.079-0.08-0.154-0.164-0.23-0.246C43.11,91.631,43.185,91.715,43.264,91.795z"/>
		<path fill="#FFFFFF" d="M40.956,87.977c-0.03-0.096-0.065-0.188-0.092-0.285C40.891,87.788,40.926,87.881,40.956,87.977z"/>
		<path fill="#FFFFFF" d="M41.689,89.689c-0.059-0.106-0.117-0.212-0.171-0.32C41.573,89.478,41.631,89.583,41.689,89.689z"/>
		<path fill="#FFFFFF" d="M42.154,90.447c-0.068-0.101-0.135-0.202-0.2-0.306C42.019,90.245,42.085,90.347,42.154,90.447z"/>
		<path fill="#FFFFFF" d="M42.681,91.149c-0.076-0.092-0.149-0.187-0.222-0.282C42.532,90.963,42.604,91.058,42.681,91.149z"/>
		<path fill="#FFFFFF" d="M58.71,81.328c0.046,0.106,0.094,0.212,0.137,0.32C58.805,81.539,58.756,81.435,58.71,81.328z"/>
		<path fill="#FFFFFF" d="M57.846,79.754c0.068,0.101,0.134,0.201,0.199,0.304C57.98,79.955,57.914,79.854,57.846,79.754z"/>
		<path fill="#FFFFFF" d="M49.873,94.598c-0.117-0.002-0.233-0.01-0.35-0.016C49.64,94.588,49.755,94.596,49.873,94.598z"/>
		<path fill="#FFFFFF" d="M56.735,78.407c0.078,0.078,0.151,0.161,0.226,0.241C56.886,78.567,56.813,78.485,56.735,78.407z"/>
		<path fill="#FFFFFF" d="M53.094,76.124c-0.112-0.039-0.226-0.073-0.339-0.107C52.868,76.051,52.982,76.085,53.094,76.124z"/>
		<path fill="#FFFFFF" d="M50.777,94.567c-0.098,0.008-0.196,0.008-0.293,0.013C50.582,94.575,50.679,94.575,50.777,94.567z"/>
		<path fill="#FFFFFF" d="M54.441,76.713c0.078,0.041,0.158,0.078,0.234,0.121C54.599,76.791,54.519,76.754,54.441,76.713z"/>
		<path fill="#FFFFFF" d="M59.044,82.223c0.03,0.096,0.065,0.188,0.093,0.285C59.11,82.411,59.075,82.318,59.044,82.223z"/>
		<path fill="#FFFFFF" d="M58.311,80.512c0.058,0.105,0.117,0.211,0.171,0.319C58.427,80.723,58.369,80.617,58.311,80.512z"/>
		<path fill="#FFFFFF" d="M56.302,78.004c-0.068-0.061-0.133-0.125-0.203-0.184C56.168,77.879,56.233,77.943,56.302,78.004z"/>
		<path fill="#FFFFFF" d="M51.894,75.797c0.121,0.025,0.241,0.052,0.361,0.081C52.135,75.849,52.015,75.822,51.894,75.797z"/>
		<path fill="#FFFFFF" d="M51.014,75.659c0.125,0.014,0.248,0.031,0.372,0.05C51.262,75.69,51.139,75.673,51.014,75.659z"/>
		<path fill="#FFFFFF" d="M49.215,75.635c0.109-0.009,0.217-0.009,0.326-0.015C49.432,75.626,49.324,75.626,49.215,75.635z"/>
		<path fill="#FFFFFF" d="M50.119,75.604c0.124,0.002,0.246,0.01,0.369,0.017C50.365,75.614,50.243,75.606,50.119,75.604z"/>
		<path d="M54.675,76.834c-0.077-0.043-0.157-0.08-0.234-0.121c-0.177-0.094-0.355-0.187-0.538-0.269
			c-0.1-0.046-0.203-0.085-0.305-0.127c-0.167-0.068-0.333-0.135-0.504-0.193c-0.112-0.039-0.226-0.073-0.339-0.107
			c-0.166-0.051-0.332-0.098-0.5-0.139c-0.12-0.029-0.24-0.056-0.361-0.081c-0.168-0.034-0.337-0.062-0.508-0.088
			c-0.124-0.019-0.247-0.036-0.372-0.05c-0.174-0.019-0.35-0.029-0.526-0.038c-0.123-0.007-0.245-0.015-0.369-0.017
			c-0.038,0-0.075-0.005-0.113-0.005c-0.154,0-0.31,0.014-0.465,0.021c-0.109,0.006-0.217,0.006-0.326,0.015
			c-0.302,0.025-0.605,0.062-0.909,0.117c-5.163,0.936-8.591,5.877-7.651,11.041c0.055,0.307,0.127,0.605,0.209,0.898
			c0.027,0.097,0.062,0.189,0.092,0.285c0.062,0.194,0.124,0.387,0.197,0.574c0.042,0.109,0.09,0.215,0.136,0.321
			c0.073,0.168,0.147,0.335,0.229,0.497c0.054,0.108,0.113,0.214,0.171,0.32c0.084,0.153,0.172,0.305,0.265,0.452
			c0.065,0.104,0.132,0.205,0.2,0.306c0.098,0.144,0.2,0.283,0.305,0.42c0.073,0.096,0.146,0.19,0.222,0.282
			c0.114,0.138,0.233,0.269,0.354,0.399c0.076,0.082,0.151,0.166,0.23,0.246c0.137,0.138,0.282,0.268,0.427,0.397
			c0.071,0.062,0.138,0.129,0.21,0.189c0.216,0.181,0.439,0.354,0.671,0.514c0.005,0.004,0.01,0.009,0.015,0.012
			c0.237,0.165,0.483,0.316,0.734,0.459c0.08,0.046,0.164,0.084,0.245,0.127c0.174,0.093,0.349,0.183,0.528,0.264
			c0.102,0.046,0.206,0.086,0.309,0.128c0.165,0.068,0.331,0.135,0.501,0.193c0.112,0.038,0.225,0.072,0.339,0.107
			c0.166,0.051,0.333,0.098,0.503,0.139c0.118,0.029,0.236,0.056,0.355,0.08c0.171,0.035,0.344,0.064,0.518,0.09
			c0.12,0.018,0.239,0.035,0.36,0.048c0.18,0.02,0.362,0.03,0.544,0.04c0.117,0.006,0.233,0.014,0.35,0.016
			c0.04,0,0.078,0.005,0.118,0.005c0.164,0,0.329-0.014,0.493-0.022c0.098-0.005,0.195-0.005,0.293-0.013
			c0.304-0.025,0.609-0.062,0.915-0.118c5.161-0.936,8.591-5.877,7.655-11.043c-0.056-0.306-0.127-0.604-0.21-0.898
			c-0.027-0.097-0.062-0.189-0.093-0.285c-0.062-0.194-0.125-0.387-0.197-0.574c-0.042-0.108-0.091-0.214-0.137-0.32
			c-0.073-0.168-0.147-0.335-0.229-0.497c-0.055-0.108-0.113-0.214-0.171-0.319c-0.085-0.154-0.173-0.306-0.266-0.454
			c-0.064-0.103-0.13-0.203-0.199-0.304c-0.099-0.145-0.202-0.285-0.309-0.424c-0.071-0.094-0.143-0.187-0.217-0.276
			c-0.115-0.14-0.236-0.272-0.359-0.405c-0.075-0.08-0.148-0.163-0.226-0.241c-0.14-0.14-0.286-0.272-0.434-0.403
			c-0.068-0.061-0.133-0.125-0.203-0.184C55.655,77.449,55.179,77.119,54.675,76.834z M50.625,88.545
			c-0.211,0.038-0.425,0.058-0.634,0.058c-1.688,0-3.131-1.209-3.433-2.884c-0.167-0.919,0.033-1.847,0.565-2.613
			c0.532-0.769,1.333-1.283,2.248-1.449c0.211-0.038,0.425-0.057,0.636-0.057c1.689,0,3.134,1.211,3.437,2.876
			C53.788,86.375,52.522,88.201,50.625,88.545z"/>
		<g>
			<path fill="#FFFFFF" d="M15.007,81.6c-0.211,0-0.425,0.019-0.636,0.057c-0.916,0.166-1.716,0.681-2.248,1.449
				c-0.532,0.767-0.732,1.694-0.565,2.613c0.302,1.675,1.745,2.884,3.433,2.884c0.209,0,0.423-0.02,0.634-0.058
				c1.897-0.344,3.163-2.17,2.819-4.069C18.141,82.811,16.696,81.6,15.007,81.6z"/>
		</g>
		<path d="M13.306,75.752c-5.163,0.936-8.591,5.877-7.651,11.041c0.829,4.591,4.83,7.81,9.336,7.81c0.561,0,1.13-0.05,1.702-0.153
			c5.161-0.936,8.591-5.877,7.655-11.043c-0.834-4.59-4.833-7.808-9.342-7.807C14.446,75.6,13.876,75.649,13.306,75.752z
			 M15.625,88.545c-0.211,0.038-0.425,0.058-0.634,0.058c-1.688,0-3.131-1.209-3.433-2.884c-0.167-0.919,0.033-1.847,0.565-2.613
			c0.532-0.769,1.333-1.283,2.248-1.449c0.211-0.038,0.425-0.057,0.636-0.057c1.689,0,3.134,1.211,3.437,2.876
			C18.788,86.375,17.522,88.201,15.625,88.545z"/>
	</g>
</g>
</svg>
