<?xml version="1.0" encoding="utf-8"?>
<!-- Generator: Adobe Illustrator 16.0.0, SVG Export Plug-In . SVG Version: 6.00 Build 0)  -->
<!DOCTYPE svg PUBLIC "-//W3C//DTD SVG 1.1//EN" "http://www.w3.org/Graphics/SVG/1.1/DTD/svg11.dtd">
<svg version="1.1" xmlns="http://www.w3.org/2000/svg" xmlns:xlink="http://www.w3.org/1999/xlink" x="0px" y="0px" width="100px"
	 height="100px" viewBox="0 0 100 100" enable-background="new 0 0 100 100" xml:space="preserve">
<g id="Layer_3" display="none">
</g>
<g id="Your_Icon">
</g>
<g id="Layer_4">
	<g>
		<circle fill="none" cx="18" cy="50" r="6"/>
		<circle fill="none" cx="50" cy="50" r="6"/>
		<path fill="#211915" d="M18,38c-6.617,0-12,5.383-12,12s5.383,12,12,12s12-5.383,12-12S24.617,38,18,38z M18,56
			c-3.313,0-6-2.688-6-6s2.687-6,6-6s6,2.688,6,6S21.313,56,18,56z"/>
		<path fill="#211915" d="M50,38c-6.617,0-12,5.383-12,12s5.383,12,12,12s12-5.383,12-12S56.617,38,50,38z M50,56
			c-3.313,0-6-2.688-6-6s2.687-6,6-6s6,2.688,6,6S53.313,56,50,56z"/>
		<g>
			<path d="M82,38c-6.617,0-12,5.383-12,12s5.383,12,12,12s12-5.383,12-12S88.617,38,82,38z M82,56c-3.313,0-6-2.688-6-6
				s2.687-6,6-6s6,2.688,6,6S85.313,56,82,56z"/>
		</g>
	</g>
</g>
</svg>
