<?xml version="1.0" encoding="utf-8"?>
<!-- Generator: Adobe Illustrator 16.0.0, SVG Export Plug-In . SVG Version: 6.00 Build 0)  -->
<!DOCTYPE svg PUBLIC "-//W3C//DTD SVG 1.1//EN" "http://www.w3.org/Graphics/SVG/1.1/DTD/svg11.dtd">
<svg version="1.1" xmlns="http://www.w3.org/2000/svg" xmlns:xlink="http://www.w3.org/1999/xlink" x="0px" y="0px" width="100px"
	 height="100px" viewBox="0 0 100 100" enable-background="new 0 0 100 100" xml:space="preserve">
<g id="Layer_3" display="none">
</g>
<g id="Your_Icon">
</g>
<g id="Layer_4">
	<g>
		<polygon fill="none" points="25.8,85 19,85 19,94 81,94 81,85 74.2,85 		"/>
		<path fill="none" d="M71,71h-8.7c-0.84,0-1.642-0.303-2.21-0.922c-0.568-0.618-0.851-1.422-0.779-2.26
			c0.059-0.686,0.238-1.092,1.633-4.357c2.85-6.671,10.418-24.154,10.352-32.17C71.198,19.161,64.778,7.08,50.653,7.08h-0.201
			c-6.389,0-11.867,2.388-15.843,7.041c-3.863,4.521-5.96,10.68-5.904,17.479c0.057,7.201,7.452,24.112,10.61,31.384
			c1.66,3.821,1.833,4.202,1.879,4.95c0.051,0.826-0.241,1.578-0.809,2.181C39.819,70.718,39.028,71,38.2,71H29v8h42V71z"/>
		<g>
			<path fill="none" d="M71,71h-8.7c-0.84,0-1.642-0.284-2.21-0.903c-0.568-0.618-0.851-1.379-0.779-2.216
				c0.059-0.686,0.238-1.066,1.633-4.332c2.85-6.671,10.418-24.236,10.352-32.252C71.198,19.168,64.778,7.08,50.653,7.08h-0.201
				c-6.389,0-11.867,2.385-15.843,7.038c-3.863,4.521-5.96,10.603-5.904,17.401c0.057,7.201,7.452,24.143,10.61,31.414
				c1.66,3.821,1.833,4.209,1.879,4.957c0.051,0.826-0.241,1.611-0.809,2.214C39.819,70.708,39.028,71,38.2,71H29v8h42V71z"/>
			<polygon fill="none" points="25.8,85 19,85 19,94 81,94 81,85 74.2,85 			"/>
			<g>
				<path d="M84,79h-7V68.1c0-1.657-1.143-3.1-2.8-3.1h-7.427c5.293-12,10.588-25.791,10.522-33.803
					C77.152,13.348,66.197,1.08,50.653,1.08h-0.249c-8.061,0-15.291,3.215-20.357,9.144c-4.802,5.621-7.41,13.132-7.342,21.374
					C22.771,39.941,30.088,57,33.709,65H25.8c-1.657,0-2.8,1.442-2.8,3.1V79h-7c-1.657,0-3,1.412-3,3.069v15
					c0,1.657,1.343,2.931,3,2.931h68c1.657,0,3-1.273,3-2.931v-15C87,80.412,85.657,79,84,79z M29,71h9.2
					c0.828,0,1.619-0.292,2.186-0.896c0.567-0.603,0.86-1.388,0.809-2.214c-0.046-0.748-0.22-1.136-1.879-4.957
					c-3.158-7.271-10.553-24.213-10.61-31.414c-0.056-6.799,2.041-12.88,5.904-17.401c3.976-4.653,9.455-7.038,15.843-7.038h0.201
					c14.125,0,20.545,12.088,20.642,24.217c0.067,8.016-7.502,25.581-10.352,32.252c-1.395,3.266-1.574,3.646-1.633,4.332
					c-0.071,0.837,0.211,1.598,0.779,2.216C60.658,70.716,61.459,71,62.3,71H71v8H29V71z M81,94H19v-9h6.8h48.4H81V94z"/>
			</g>
		</g>
	</g>
</g>
</svg>
