<?xml version="1.0" encoding="utf-8"?>
<!-- Generator: Adobe Illustrator 16.0.0, SVG Export Plug-In . SVG Version: 6.00 Build 0)  -->
<!DOCTYPE svg PUBLIC "-//W3C//DTD SVG 1.1//EN" "http://www.w3.org/Graphics/SVG/1.1/DTD/svg11.dtd">
<svg version="1.1" xmlns="http://www.w3.org/2000/svg" xmlns:xlink="http://www.w3.org/1999/xlink" x="0px" y="0px" width="100px"
	 height="100px" viewBox="0 0 100 100" enable-background="new 0 0 100 100" xml:space="preserve">
<g id="Layer_3">
</g>
<g id="Your_Icon">
</g>
<g id="Layer_4">
	<g>
		<path fill="none" d="M49.072,18.55c-7.48,0-14.342,2.649-19.697,7.061L73.01,69.246c4.412-5.356,7.062-12.218,7.062-19.696
			C80.072,32.426,66.195,18.55,49.072,18.55z"/>
		<path fill="none" d="M25.133,29.853c-4.411,5.355-7.061,12.216-7.061,19.697c0,17.114,13.877,31,31,31
			c7.48,0,14.34-2.65,19.695-7.062L25.133,29.853z"/>
		<path fill="#211915" d="M49.072,12.55c-20.402,0-37,16.599-37,37s16.598,37,37,37s37-16.599,37-37S69.475,12.55,49.072,12.55z
			 M18.072,49.55c0-7.481,2.649-14.342,7.061-19.697l43.635,43.636c-5.355,4.411-12.215,7.062-19.695,7.062
			C31.949,80.55,18.072,66.664,18.072,49.55z M73.01,69.246L29.375,25.61c5.355-4.411,12.217-7.061,19.697-7.061
			c17.123,0,31,13.876,31,31C80.072,57.028,77.422,63.89,73.01,69.246z"/>
	</g>
</g>
</svg>
