<?xml version="1.0" encoding="utf-8"?>
<!-- Generator: Adobe Illustrator 16.0.0, SVG Export Plug-In . SVG Version: 6.00 Build 0)  -->
<!DOCTYPE svg PUBLIC "-//W3C//DTD SVG 1.1//EN" "http://www.w3.org/Graphics/SVG/1.1/DTD/svg11.dtd">
<svg version="1.1" xmlns="http://www.w3.org/2000/svg" xmlns:xlink="http://www.w3.org/1999/xlink" x="0px" y="0px" width="100px"
	 height="100px" viewBox="0 0 100 100" enable-background="new 0 0 100 100" xml:space="preserve">
<g id="Layer_3" display="none">
</g>
<g id="Your_Icon">
</g>
<g id="Layer_4">
	<g>
		<path fill="#211915" d="M7.979,52.928C7.976,52.683,8,50.995,8,50.3v-0.301c0-0.16-0.016-2.632-0.012-2.881
			C8.19,42.005,12.34,38,17.461,38H39v-6H17.461C9.106,32,2.322,38.536,1.992,46.893C1.986,47.064,2,49.825,2,49.999v0.291
			c0,0.767-0.022,2.672-0.017,2.827C2.311,61.462,9.094,68,17.451,68L36,68.001V62H17.451C12.329,62,8.179,57.995,7.979,52.928z"/>
		<rect x="30" y="47" fill="#211915" width="40" height="6"/>
		<path fill="#211915" d="M98,49.999c0-0.293,0-2.872-0.012-3.117C97.661,38.537,90.857,32,82.5,32H61v6h21.5
			c5.123,0,9.292,4.004,9.492,9.092C91.999,47.41,92,49.841,92,49.999l0,0.303c0.001,0.687,0.006,2.346,0.002,2.58
			C91.802,57.995,87.633,62,82.512,62L64,62.001V68h18.512c8.356,0,15.158-6.538,15.484-14.86C98.002,53.022,98,52.93,98,50.288
			V49.999z"/>
	</g>
</g>
</svg>
