<?xml version="1.0" encoding="utf-8"?>
<!-- Generator: Adobe Illustrator 16.0.0, SVG Export Plug-In . SVG Version: 6.00 Build 0)  -->
<!DOCTYPE svg PUBLIC "-//W3C//DTD SVG 1.1//EN" "http://www.w3.org/Graphics/SVG/1.1/DTD/svg11.dtd">
<svg version="1.1" xmlns="http://www.w3.org/2000/svg" xmlns:xlink="http://www.w3.org/1999/xlink" x="0px" y="0px" width="100px"
	 height="100px" viewBox="0 0 100 100" enable-background="new 0 0 100 100" xml:space="preserve">
<g id="Layer_3">
</g>
<g id="Your_Icon">
</g>
<g id="Layer_4">
	<g>
		<path d="M68,92H7V31h24v-6H4.5C2.843,25,1,25.843,1,27.5v67C1,96.157,2.843,98,4.5,98h67c1.657,0,2.5-1.843,2.5-3.5V70h-6V92z"/>
		<path d="M88.758,10.242c-0.571-0.571-1.328-0.869-2.156-0.879L49.975,9.791l0.07,6l29.264-0.341L30.242,64.516l4.242,4.242
			l49.067-49.067l-0.343,29.263l6,0.07l0.428-36.625C89.646,11.59,89.329,10.813,88.758,10.242z"/>
	</g>
</g>
</svg>
