<?xml version="1.0" encoding="utf-8"?>
<!-- Generator: Adobe Illustrator 16.0.0, SVG Export Plug-In . SVG Version: 6.00 Build 0)  -->
<!DOCTYPE svg PUBLIC "-//W3C//DTD SVG 1.1//EN" "http://www.w3.org/Graphics/SVG/1.1/DTD/svg11.dtd">
<svg version="1.1" xmlns="http://www.w3.org/2000/svg" xmlns:xlink="http://www.w3.org/1999/xlink" x="0px" y="0px" width="100px"
	 height="100px" viewBox="0 0 100 100" enable-background="new 0 0 100 100" xml:space="preserve">
<g id="Layer_3" display="none">
</g>
<g id="Your_Icon">
</g>
<g id="Layer_4">
	<g>
		<path fill="none" d="M15.062,42.271C15.059,42.478,15,44.402,15,44.541v0.264c0,0.578,0.05,2.061,0.055,2.307
			C15.225,51.355,18.614,55,23.1,55h3.827c0.634,0,1.338,0,2.073,0c2.943,0,11.835,0,12,0V35H23.423
			C18.858,35,15.231,38.065,15.062,42.271z"/>
		<path fill="none" d="M48.216,54.587c0.18-0.005,0.398-0.007,0.577-0.007C61.646,54.58,78,66.795,86,73.685V15.77
			C78,22.97,63.743,35,49.758,35H47v19.602C47.564,54.598,48.009,54.593,48.216,54.587z"/>
		<path d="M26.927,55H23.1c-4.486,0-7.875-3.645-8.045-7.889C15.05,46.865,15,45.383,15,44.805v-0.264
			c0-0.139,0.059-2.063,0.062-2.27C15.231,38.065,18.858,35,23.423,35H41v-0.211V29H23.423c-7.722,0-14.059,5.664-14.357,13.049
			C9.061,42.199,9,44.389,9,44.541v0.247c0,2.273,0.054,2.354,0.059,2.436c0.3,7.503,6.609,13.38,14.328,13.38l3.318,0.004
			C27.457,60.608,29,60.609,29,60.609l0.033-0.018L29,55C28.266,55,27.562,55,26.927,55z"/>
		<path d="M89.978,5.593c-1.169-0.44-2.528-0.004-3.353,0.934C86.428,6.75,66.754,29,49.758,29H47v5.789V35h2.758
			C63.743,35,78,22.97,86,15.77v57.915c-8-6.89-24.354-19.104-37.207-19.104c-0.179,0-0.397,0.002-0.577,0.007
			c-0.207,0.006-0.651,0.011-1.216,0.015V55v5.598c1-0.004,0.947-0.008,1.135-0.013l0.478-0.005
			c15.101,0,37.866,21.759,38.093,21.979c0.57,0.551,1.347,0.842,2.109,0.842c0.395,0,0.886-0.078,1.265-0.239
			C91.188,82.691,92,81.604,92,80.4v-72C92,7.151,91.146,6.033,89.978,5.593z"/>
		<path fill="#211915" d="M47,54.602V35v-0.211V29h-6v5.789V35v20c-0.165,0-9.057,0-12,0l0.033,5.592l0.167,28.598
			c0,4.168,3.479,7.555,7.792,7.709l1.357,0.002c0.071,0,1.035-0.007,1.14-0.01C43.798,96.724,47,93.341,47,89.189V60.598V55V54.602
			z M41,89.189c0,0.915-0.644,1.714-1.663,1.754C39.204,90.945,38.48,91,38.396,91h-1.133c-1.032,0-1.864-0.892-1.864-1.786
			L35.401,61H41V89.189z"/>
	</g>
</g>
</svg>
