<?xml version="1.0" encoding="utf-8"?>
<!-- Generator: Adobe Illustrator 16.0.0, SVG Export Plug-In . SVG Version: 6.00 Build 0)  -->
<!DOCTYPE svg PUBLIC "-//W3C//DTD SVG 1.1//EN" "http://www.w3.org/Graphics/SVG/1.1/DTD/svg11.dtd">
<svg version="1.1" xmlns="http://www.w3.org/2000/svg" xmlns:xlink="http://www.w3.org/1999/xlink" x="0px" y="0px" width="100px"
	 height="100px" viewBox="0 0 100 100" enable-background="new 0 0 100 100" xml:space="preserve">
<g id="Layer_3">
</g>
<g id="Your_Icon">
</g>
<g id="Layer_4">
	<g>
		<path fill="none" d="M50,45c-7.718,0-14,6.278-14,14s6.282,14,14,14s14-6.278,14-14S57.718,45,50,45z"/>
		<path d="M96,21H70.972L65.956,7.902C65.512,6.741,64.397,6,63.153,6H36.677c-1.251,0-2.372,0.751-2.81,1.923L28.968,21H4
			c-1.657,0-3,1.396-3,3.053v69.946c0,0.796,0.316,1.56,0.88,2.122C2.442,96.684,3.205,97,4,97c0.001,0,0.002,0,0.003,0l92-0.1
			c1.655-0.002,2.997-1.345,2.997-3V24.053C99,22.396,97.657,21,96,21z M93,90.903L7,90.996V27h24.049
			c1.251,0,2.372-0.751,2.81-1.923L38.758,12h22.331l5.017,13.098C66.549,26.259,67.664,27,68.907,27H93V90.903z"/>
		<g>
			<path d="M50,39c-11.028,0-20,8.972-20,20s8.972,20,20,20s20-8.972,20-20S61.028,39,50,39z M50,73c-7.718,0-14-6.278-14-14
				s6.282-14,14-14s14,6.278,14,14S57.718,73,50,73z"/>
		</g>
	</g>
</g>
</svg>
