<?xml version="1.0" encoding="utf-8"?>
<!-- Generator: Adobe Illustrator 16.0.0, SVG Export Plug-In . SVG Version: 6.00 Build 0)  -->
<!DOCTYPE svg PUBLIC "-//W3C//DTD SVG 1.1//EN" "http://www.w3.org/Graphics/SVG/1.1/DTD/svg11.dtd">
<svg version="1.1" xmlns="http://www.w3.org/2000/svg" xmlns:xlink="http://www.w3.org/1999/xlink" x="0px" y="0px" width="100px"
	 height="100px" viewBox="0 0 100 100" enable-background="new 0 0 100 100" xml:space="preserve">
<g id="Layer_3">
</g>
<g id="Your_Icon">
</g>
<g id="Layer_4">
	<path fill="#211915" d="M17.375,8.064c3.544,0,7.107,1.533,7.057,4.549V32.5c0,0,11.378-0.039,20.8-0.039
		c4.712,0,8.933,0.01,11,0.039c8.431,0.118,8.612,13.004,0,13.057c-0.247,0.001-3.863,0.002-8.574,0.002
		c-9.422,0-23.227-0.002-23.227-0.002s0,15.944,0,24.601c0,7.323,18.099,7.812,27.875,7.812c1.505,0,2.812-0.012,3.826-0.012
		c8.88,0,8.531,13.6,0.058,13.6c-0.02,0-0.038,0-0.058,0c-0.053,0-0.109-0.001-0.168-0.001c-0.988,0-2.776,0.053-5.087,0.053
		c-12.597,0-40.796-1.557-40.545-21.651l0.1-57.344C10.382,9.565,13.869,8.064,17.375,8.064 M17.375,2.064
		c-4.117,0-7.823,1.368-10.168,3.752c-1.815,1.846-2.799,4.269-2.774,6.828l-0.1,57.273c-0.072,6.467,2.104,11.986,6.471,16.408
		c7.394,7.486,20.876,11.282,40.074,11.282c1.435,0,2.672-0.02,3.652-0.035c0.585-0.009,1.069-0.018,1.436-0.018l0.123,0.001h0.103
		c7.114,0,12.479-5.539,12.479-12.885c0-7.249-5.39-12.715-12.537-12.715c-0.465,0-0.991,0.002-1.568,0.005
		c-0.684,0.003-1.441,0.007-2.258,0.007c-15.836,0-20.556-1.836-21.875-2.659V51.557l17.227,0.002c4.728,0,8.357-0.001,8.605-0.002
		c7.021-0.043,12.332-5.373,12.36-12.399c0.028-7.116-5.263-12.558-12.307-12.656c-1.856-0.026-5.586-0.04-11.084-0.04
		c-5.032,0-10.664,0.012-14.8,0.021v-13.83c0.026-2.54-0.955-4.949-2.767-6.792C25.292,3.448,21.542,2.064,17.375,2.064
		L17.375,2.064z"/>
</g>
</svg>
