<?xml version="1.0" encoding="utf-8"?>
<!-- Generator: Adobe Illustrator 16.0.0, SVG Export Plug-In . SVG Version: 6.00 Build 0)  -->
<!DOCTYPE svg PUBLIC "-//W3C//DTD SVG 1.1//EN" "http://www.w3.org/Graphics/SVG/1.1/DTD/svg11.dtd">
<svg version="1.1" xmlns="http://www.w3.org/2000/svg" xmlns:xlink="http://www.w3.org/1999/xlink" x="0px" y="0px" width="100px"
	 height="100px" viewBox="0 0 100 100" enable-background="new 0 0 100 100" xml:space="preserve">
<g id="Layer_3">
</g>
<g id="Your_Icon">
</g>
<g id="Layer_4">
	<g>
		<path fill="none" d="M7,6.424v31.453l50.2,51.762l0.408-29.748C57.63,58.249,58.968,57,60.607,57c0.009,0,0.019,0,0.028,0
			l28.947,0.201L40.183,6.018L7,6.424z M25.099,30.2c-3.312-0.003-5.999-2.69-5.999-6.001c0-3.313,2.687-6.003,6-6.001
			c3.313-0.003,6,2.689,6,5.999C31.1,27.512,28.414,30.201,25.099,30.2z"/>
		<path d="M98.903,58.107L43.584,1.309c-0.573-0.589-1.36-0.936-2.187-0.908H3.963C2.32,0.421,1,1.818,1,3.461v35.633
			c0,0.78,0.304,1.529,0.847,2.089l56.1,57.807c0.576,0.594,1.357,0.911,2.153,0.911c0.373,0,0.748-0.069,1.108-0.212
			c1.128-0.449,1.875-1.533,1.891-2.747l0.467-34.15L96.725,63c0.009,0,0.019,0,0.028,0c1.2,0,2.286-0.615,2.758-1.721
			C99.987,60.166,99.748,58.976,98.903,58.107z M60.635,57c-0.009,0-0.019,0-0.028,0c-1.639,0-2.977,1.249-2.999,2.891L57.2,89.639
			L7,37.877V6.424L40.183,6.4l49.399,50.801L60.635,57z"/>
		<path d="M25.1,18.198c-3.313-0.002-6,2.688-6,6.001c0,3.311,2.687,5.998,5.999,6.001c3.314,0.001,6.001-2.688,6.001-6.003
			C31.1,20.888,28.414,18.195,25.1,18.198z"/>
	</g>
</g>
</svg>
