<?xml version="1.0" encoding="utf-8"?>
<!-- Generator: Adobe Illustrator 16.0.0, SVG Export Plug-In . SVG Version: 6.00 Build 0)  -->
<!DOCTYPE svg PUBLIC "-//W3C//DTD SVG 1.1//EN" "http://www.w3.org/Graphics/SVG/1.1/DTD/svg11.dtd">
<svg version="1.1" xmlns="http://www.w3.org/2000/svg" xmlns:xlink="http://www.w3.org/1999/xlink" x="0px" y="0px" width="100px"
	 height="100px" viewBox="0 0 100 100" enable-background="new 0 0 100 100" xml:space="preserve">
<g id="Layer_3" display="none">
</g>
<g id="Your_Icon">
</g>
<g id="Layer_4">
	<g>
		<polygon fill="none" points="25.8,85 19,85 19,93 81,93 81,85 74.2,85 		"/>
		<path fill="none" d="M71,72h-8.7c-0.84,0-1.642-0.303-2.21-0.922c-0.568-0.618-0.851-1.422-0.779-2.26
			c0.059-0.686,0.238-1.092,1.633-4.357c2.85-6.671,10.418-24.234,10.352-32.25C71.198,20.081,64.778,8,50.653,8h-0.201
			c-6.389,0-11.867,2.388-15.843,7.041c-3.863,4.521-5.96,10.68-5.904,17.479c0.057,7.201,7.452,24.192,10.61,31.464
			c1.66,3.821,1.833,4.202,1.879,4.95c0.051,0.826-0.241,1.578-0.809,2.181C39.819,71.718,39.028,72,38.2,72H29v7h42V72z"/>
		<g>
			<path fill="none" d="M71,72h-8.7c-0.84,0-1.642-0.284-2.21-0.903c-0.568-0.618-0.851-1.379-0.779-2.216
				c0.059-0.686,0.238-1.066,1.633-4.332c2.85-6.671,10.418-24.316,10.352-32.332C71.198,20.088,64.778,8,50.653,8h-0.201
				c-6.389,0-11.867,2.385-15.843,7.038c-3.863,4.521-5.96,10.603-5.904,17.401c0.057,7.201,7.452,24.223,10.61,31.494
				c1.66,3.821,1.833,4.209,1.879,4.957c0.051,0.826-0.241,1.611-0.809,2.214C39.819,71.708,39.028,72,38.2,72H29v7h42V72z"/>
			<polygon fill="none" points="25.8,85 19,85 19,93 81,93 81,85 74.2,85 			"/>
			<g>
				<path d="M84,79h-7v-9.9c0-1.657-1.143-3.1-2.8-3.1h-7.427c5.293-12,10.588-25.871,10.522-33.883
					C77.152,14.268,66.197,2,50.653,2h-0.249c-8.061,0-15.291,3.215-20.357,9.144c-4.802,5.621-7.41,13.132-7.342,21.374
					C22.771,40.861,30.088,58,33.709,66H25.8c-1.657,0-2.8,1.442-2.8,3.1V79h-7c-1.657,0-3,1.412-3,3.069v14
					C13,97.727,14.343,99,16,99h68c1.657,0,3-1.273,3-2.931v-14C87,80.412,85.657,79,84,79z M29,72h9.2
					c0.828,0,1.619-0.292,2.186-0.896c0.567-0.603,0.86-1.388,0.809-2.214c-0.046-0.748-0.22-1.136-1.879-4.957
					c-3.158-7.271-10.553-24.293-10.61-31.494c-0.056-6.799,2.041-12.88,5.904-17.401C38.585,10.385,44.063,8,50.452,8h0.201
					c14.125,0,20.545,12.088,20.642,24.217c0.067,8.016-7.502,25.661-10.352,32.332c-1.395,3.266-1.574,3.646-1.633,4.332
					c-0.071,0.837,0.211,1.598,0.779,2.216C60.658,71.716,61.459,72,62.3,72H71v7H29V72z M81,93H19v-8h6.8h48.4H81V93z"/>
			</g>
		</g>
	</g>
</g>
</svg>
