<?xml version="1.0" encoding="utf-8"?>
<!-- Generator: Adobe Illustrator 16.0.0, SVG Export Plug-In . SVG Version: 6.00 Build 0)  -->
<!DOCTYPE svg PUBLIC "-//W3C//DTD SVG 1.1//EN" "http://www.w3.org/Graphics/SVG/1.1/DTD/svg11.dtd">
<svg version="1.1" xmlns="http://www.w3.org/2000/svg" xmlns:xlink="http://www.w3.org/1999/xlink" x="0px" y="0px" width="100px"
	 height="100px" viewBox="0 0 100 100" enable-background="new 0 0 100 100" xml:space="preserve">
<g id="Layer_3">
</g>
<g id="Your_Icon">
</g>
<g id="Layer_4">
	<g>
		<path d="M77.301,97c-0.805,0-1.594-0.323-2.171-0.929L49.284,69H27.266c-8.208,0-15.156-6.879-15.488-15.335
			c-0.005-0.154-0.004-2.418-0.002-3.271v-0.299c0-0.175,0.006-2.635,0.012-2.806C12.109,39.139,18.768,33,27.275,33h21.617
			L75.023,3.992c0.83-0.923,2.144-1.24,3.303-0.793c1.159,0.444,1.925,1.558,1.926,2.799l0.048,88
			c0.001,1.227-0.745,2.33-1.884,2.786C78.055,96.93,77.676,97,77.301,97z M27.275,39c-5.306,0-9.298,3.581-9.492,8.516
			c-0.005,0.238-0.008,2.421-0.008,2.58v0.309c-0.002,0.781-0.005,2.813-0.001,3.075C17.977,58.617,22.323,63,27.266,63h23.302
			c0.819,0,1.604,0.336,2.17,0.929l21.559,22.58l-0.04-72.701l-21.8,24.2C51.888,38.64,51.077,39,50.228,39H27.275z"/>
	</g>
</g>
</svg>
