<?xml version="1.0" encoding="utf-8"?>
<!-- Generator: Adobe Illustrator 16.0.0, SVG Export Plug-In . SVG Version: 6.00 Build 0)  -->
<!DOCTYPE svg PUBLIC "-//W3C//DTD SVG 1.1//EN" "http://www.w3.org/Graphics/SVG/1.1/DTD/svg11.dtd">
<svg version="1.1" xmlns="http://www.w3.org/2000/svg" xmlns:xlink="http://www.w3.org/1999/xlink" x="0px" y="0px" width="100px"
	 height="100px" viewBox="0 0 100 100" enable-background="new 0 0 100 100" xml:space="preserve">
<g id="Layer_3">
</g>
<g id="Your_Icon">
</g>
<g id="Layer_4">
	<g>
		<path fill="none" d="M47,25.557c-4.271-2.265-11.573-4.677-13-4.881C30.543,20.18,27.186,20,24.129,20
			C15.996,20,10,21.275,10,21.275v58.019c0,0,3.316-0.407,8.341-0.407c4.304,0,9.86,0.299,15.659,1.407
			c1.112,0.213,8.652,4.571,13,8.406V25.557z"/>
		<path fill="none" d="M53,88.7c4.348-3.834,11.888-8.148,13-8.363c5.777-1.116,11.312-1.418,15.607-1.418
			C86.661,78.92,90,79.337,90,79.337V21.275c0,0-5.955-1.145-13.986-1.145c-3.103,0-6.516,0.171-10.014,0.645
			c-1.272,0.172-8.692,2.538-13,4.786V88.7z"/>
		<path d="M67.841,86.097c4.297-0.781,8.925-1.178,13.767-1.178c4.562,0.001,7.626,0.369,7.656,0.373
			c0.243,0.029,0.486,0.044,0.729,0.044c1.457,0,2.877-0.53,3.979-1.507C95.26,82.69,96,81.055,96,79.337V21.275
			c0-2.877-2.042-5.35-4.867-5.893c-0.267-0.051-6.615-1.252-15.118-1.252c-3.755,0-7.396,0.235-10.82,0.699
			c-1.172,0.158-3.118,0.729-8.379,2.318c-2.182,0.659-5.281,1.597-6.821,2.004c-1.521-0.409-4.576-1.359-6.725-2.027
			c-5.112-1.591-7.163-2.209-8.42-2.389C31.444,14.248,27.836,14,24.129,14c-8.665,0-15.107,1.35-15.377,1.406
			C5.981,15.996,4,18.442,4,21.275v58.019c0,1.719,0.737,3.354,2.024,4.493c1.103,0.977,2.52,1.507,3.976,1.507
			c0.243,0,0.486-0.015,0.73-0.045c0.022-0.002,3.069-0.362,7.61-0.362c4.862,0,9.509,0.394,13.824,1.169
			c1.277,0.746,4.356,1.766,6.469,3.197C42.209,91.677,44.395,93,45.967,94H0v6h47h6h47v-6H54.031c1.574-1,3.76-2.324,7.338-4.749
			C63.483,87.818,66.565,86.841,67.841,86.097z M66,20.775c3.498-0.474,6.911-0.645,10.014-0.645c8.031,0,13.986,1.145,13.986,1.145
			v58.062c0,0-3.339-0.417-8.393-0.418c-4.296,0-9.83,0.302-15.607,1.418c-1.112,0.215-8.652,4.529-13,8.363V25.562
			C57.308,23.313,64.728,20.947,66,20.775z M34,80.294c-5.799-1.108-11.355-1.407-15.659-1.407c-5.024,0-8.341,0.407-8.341,0.407
			V21.275c0,0,5.996-1.275,14.129-1.275c3.057,0,6.414,0.18,9.871,0.676c1.427,0.204,8.729,2.616,13,4.881V88.7
			C42.652,84.865,35.112,80.507,34,80.294z"/>
	</g>
</g>
</svg>
