<?xml version="1.0" encoding="utf-8"?>
<!-- Generator: Adobe Illustrator 16.0.0, SVG Export Plug-In . SVG Version: 6.00 Build 0)  -->
<!DOCTYPE svg PUBLIC "-//W3C//DTD SVG 1.1//EN" "http://www.w3.org/Graphics/SVG/1.1/DTD/svg11.dtd">
<svg version="1.1" xmlns="http://www.w3.org/2000/svg" xmlns:xlink="http://www.w3.org/1999/xlink" x="0px" y="0px" width="100px"
	 height="100px" viewBox="0 0 100 100" enable-background="new 0 0 100 100" xml:space="preserve">
<g id="Layer_3">
</g>
<g id="Your_Icon">
</g>
<g id="Layer_4">
	<g>
		<path d="M67.472,59.357l-14.357-2.442l5.934-32.841c-1.989,0.085-4.006-0.28-5.893-1.133l-5.956,32.967l-13.646-2.321
			c0.141,2.006-0.177,4.036-0.965,5.921l13.544,2.305l-2.551,14.119c1.988-0.111,4.012,0.225,5.906,1.053l2.56-14.166l14.39,2.448
			C66.32,63.26,66.662,61.234,67.472,59.357z"/>
		<path fill="#FFFFFF" d="M42.17,79.14c0.244-0.053,0.489-0.097,0.735-0.131C42.658,79.043,42.414,79.087,42.17,79.14z"/>
		<path fill="#FFFFFF" d="M45.257,78.95c0.095,0.009,0.189,0.02,0.283,0.031C45.445,78.97,45.352,78.959,45.257,78.95z"/>
		<path fill="#FFFFFF" d="M43.266,78.961c0.278-0.029,0.559-0.044,0.839-0.05C43.824,78.917,43.544,78.932,43.266,78.961z"/>
		<path fill="#FFFFFF" d="M44.374,78.902c0.076,0,0.153,0.006,0.229,0.008C44.527,78.908,44.45,78.902,44.374,78.902z"/>
		<path fill="#FFFFFF" d="M46.184,79.083c0.078,0.016,0.157,0.027,0.235,0.045C46.341,79.11,46.262,79.099,46.184,79.083z"/>
		<path fill="#FFFFFF" d="M63.042,20.01c-0.326,0.166-0.661,0.312-1.002,0.439C62.381,20.321,62.716,20.176,63.042,20.01z"/>
		<path fill="#FFFFFF" d="M63.166,2.263c0.082,0.043,0.164,0.085,0.245,0.131C63.33,2.348,63.248,2.306,63.166,2.263z"/>
		<path fill="#FFFFFF" d="M61.759,20.544c-0.253,0.086-0.507,0.165-0.765,0.231C61.252,20.709,61.506,20.63,61.759,20.544z"/>
		<path fill="#FFFFFF" d="M60.63,20.859c-0.241,0.053-0.485,0.096-0.73,0.131C60.145,20.955,60.388,20.912,60.63,20.859z"/>
		<path fill="#FFFFFF" d="M53.959,2.189c0.326-0.166,0.662-0.311,1.003-0.439C54.621,1.879,54.285,2.023,53.959,2.189z"/>
		<path fill="#FFFFFF" d="M53.009,2.747c0.26-0.171,0.527-0.327,0.8-0.473C53.536,2.42,53.269,2.576,53.009,2.747z"/>
		<path fill="#FFFFFF" d="M55.247,1.655c0.25-0.086,0.503-0.165,0.76-0.23C55.75,1.49,55.497,1.569,55.247,1.655z"/>
		<path fill="#FFFFFF" d="M56.376,1.339c0.239-0.052,0.48-0.095,0.723-0.129C56.856,1.244,56.615,1.287,56.376,1.339z"/>
		<path fill="#FFFFFF" d="M62.315,1.86c0.087,0.036,0.174,0.075,0.261,0.114C62.489,1.936,62.402,1.896,62.315,1.86z"/>
		<path fill="#FFFFFF" d="M61.473,1.551c0.047,0.015,0.094,0.034,0.141,0.049C61.566,1.585,61.52,1.565,61.473,1.551z"/>
		<path fill="#FFFFFF" d="M58.578,1.103c0.072,0,0.145,0.006,0.217,0.008C58.723,1.108,58.65,1.103,58.578,1.103z"/>
		<path fill="#FFFFFF" d="M57.471,1.161c0.273-0.028,0.548-0.043,0.822-0.049C58.018,1.118,57.744,1.133,57.471,1.161z"/>
		<path fill="#FFFFFF" d="M59.458,1.15c0.094,0.009,0.188,0.02,0.282,0.031C59.646,1.17,59.552,1.159,59.458,1.15z"/>
		<path fill="#FFFFFF" d="M60.382,1.283c0.079,0.016,0.159,0.027,0.238,0.045C60.541,1.311,60.461,1.299,60.382,1.283z"/>
		<path fill="#FFFFFF" d="M57.552,21.05c-0.099-0.01-0.197-0.021-0.295-0.033C57.355,21.029,57.453,21.04,57.552,21.05z"/>
		<path fill="#FFFFFF" d="M58.429,21.098c-0.077-0.001-0.154-0.007-0.231-0.009C58.274,21.091,58.352,21.097,58.429,21.098z"/>
		<path fill="#FFFFFF" d="M59.536,21.038c-0.277,0.029-0.556,0.044-0.836,0.05C58.98,21.082,59.259,21.067,59.536,21.038z"/>
		<path fill="#FFFFFF" d="M56.629,20.917c-0.083-0.016-0.166-0.028-0.248-0.047C56.464,20.889,56.546,20.901,56.629,20.917z"/>
		<path fill="#FFFFFF" d="M53.837,19.938c-0.082-0.044-0.165-0.086-0.246-0.132C53.672,19.852,53.755,19.894,53.837,19.938z"/>
		<path fill="#FFFFFF" d="M54.689,20.34c-0.089-0.036-0.178-0.076-0.266-0.116C54.512,20.264,54.6,20.303,54.689,20.34z"/>
		<path fill="#FFFFFF" d="M55.532,20.649c-0.051-0.017-0.1-0.036-0.15-0.053C55.433,20.613,55.481,20.633,55.532,20.649z"/>
	</g>
	<g>
		<path d="M65.142,3.896c-1.951-1.931-4.496-2.895-7.04-2.895c-2.574,0-5.148,0.987-7.105,2.961
			c-3.885,3.923-3.86,10.255,0.064,14.14C53.012,20.035,55.556,21,58.1,21c2.574,0,5.147-0.988,7.104-2.96
			C69.088,14.118,69.064,7.784,65.142,3.896z M60.945,13.813C60.187,14.579,59.176,15,58.1,15c-1.062,0-2.062-0.412-2.818-1.162
			c-0.757-0.749-1.177-1.75-1.182-2.817c-0.005-1.068,0.407-2.076,1.156-2.832c0.759-0.765,1.77-1.187,2.846-1.187
			c1.062,0,2.064,0.412,2.816,1.156C62.484,9.71,62.494,12.249,60.945,13.813z"/>
	</g>
	<g>
		<path d="M51.741,81.895C49.79,79.964,47.245,79,44.701,79c-2.574,0-5.148,0.987-7.105,2.961c-3.885,3.923-3.86,10.255,0.064,14.14
			c1.951,1.933,4.495,2.897,7.039,2.897c2.574,0,5.147-0.988,7.104-2.96C55.688,92.116,55.664,85.782,51.741,81.895z M47.545,91.812
			c-0.759,0.766-1.77,1.187-2.846,1.187c-1.062,0-2.062-0.412-2.818-1.162c-0.757-0.749-1.177-1.75-1.182-2.817
			c-0.005-1.068,0.407-2.076,1.156-2.832C42.614,85.422,43.625,85,44.701,85c1.062,0,2.064,0.412,2.816,1.156
			C49.084,87.708,49.094,90.247,47.545,91.812z"/>
	</g>
	<g>
		<path d="M86.742,57.295c-1.951-1.931-4.496-2.895-7.04-2.895c-2.574,0-5.148,0.987-7.105,2.961
			c-3.885,3.923-3.86,10.255,0.064,14.14c1.951,1.933,4.495,2.897,7.039,2.897c2.574,0,5.147-0.988,7.104-2.96
			C90.688,67.517,90.665,61.183,86.742,57.295z M82.546,67.212c-0.759,0.766-1.77,1.187-2.846,1.187
			c-1.062,0-2.062-0.412-2.818-1.162c-0.757-0.749-1.177-1.75-1.182-2.817c-0.005-1.068,0.407-2.076,1.156-2.832
			c0.759-0.765,1.77-1.187,2.846-1.187c1.062,0,2.064,0.412,2.816,1.156C84.085,63.108,84.095,65.647,82.546,67.212z"/>
	</g>
	<g>
		<path d="M27.342,47.895C25.391,45.964,22.846,45,20.302,45c-2.574,0-5.148,0.987-7.105,2.961
			c-3.885,3.923-3.86,10.255,0.064,14.14c1.951,1.933,4.495,2.897,7.039,2.897c2.574,0,5.147-0.988,7.104-2.96
			C31.288,58.116,31.265,51.782,27.342,47.895z M23.146,57.812c-0.759,0.766-1.77,1.187-2.846,1.187
			c-1.062,0-2.062-0.412-2.818-1.162c-0.757-0.749-1.177-1.75-1.182-2.817c-0.005-1.068,0.407-2.076,1.156-2.832
			C18.215,51.422,19.226,51,20.302,51c1.062,0,2.064,0.412,2.816,1.156C24.685,53.708,24.694,56.247,23.146,57.812z"/>
	</g>
</g>
</svg>
