<?xml version="1.0" encoding="utf-8"?>
<!-- Generator: Adobe Illustrator 16.0.0, SVG Export Plug-In . SVG Version: 6.00 Build 0)  -->
<!DOCTYPE svg PUBLIC "-//W3C//DTD SVG 1.1//EN" "http://www.w3.org/Graphics/SVG/1.1/DTD/svg11.dtd">
<svg version="1.1" xmlns="http://www.w3.org/2000/svg" xmlns:xlink="http://www.w3.org/1999/xlink" x="0px" y="0px" width="100px"
	 height="100px" viewBox="0 0 100 100" enable-background="new 0 0 100 100" xml:space="preserve">
<g id="Layer_3" display="none">
</g>
<g id="Your_Icon">
</g>
<g id="Layer_4">
	<g>
		<path d="M91.604,25.362c-3.891-3.922-10.218-3.953-14.143-0.064c-3.925,3.885-3.95,10.216-0.065,14.139
			c3.893,3.923,10.218,3.951,14.145,0.068C95.463,35.616,95.487,29.282,91.604,25.362z"/>
		<path d="M84.498,22.4c-2.543,0-5.087,0.964-7.037,2.897c-3.925,3.885-3.95,10.216-0.065,14.139
			c1.958,1.974,4.532,2.961,7.106,2.961c2.543,0,5.087-0.964,7.038-2.894c3.923-3.888,3.947-10.223,0.063-14.143
			C89.646,23.389,87.072,22.4,84.498,22.4L84.498,22.4z"/>
	</g>
	<g>
		<path d="M22.604,56.937c-3.891,3.922-10.218,3.953-14.143,0.064c-3.925-3.885-3.95-10.216-0.065-14.139
			c3.893-3.923,10.218-3.951,14.145-0.068C26.463,46.683,26.488,53.017,22.604,56.937z"/>
		<path d="M15.502,39.901c-2.574,0-5.148,0.988-7.106,2.961c-3.885,3.923-3.859,10.254,0.065,14.139
			c1.951,1.933,4.494,2.897,7.037,2.897c2.574,0,5.148-0.988,7.105-2.961c3.884-3.92,3.859-10.254-0.063-14.143
			C20.589,40.865,18.045,39.901,15.502,39.901L15.502,39.901z"/>
	</g>
	<g>
		<path fill="#211915" d="M30.841,50.053l42.302-11.347c-0.999-1.799-1.536-3.779-1.617-5.778L27.433,44.755
			c1.452,3.367,1.405,7.217-0.131,10.561l44.218,11.861c0.065-2,0.584-3.985,1.567-5.792L30.841,50.053z"/>
	</g>
	<g>
		<path d="M91.604,74.638c-3.891,3.922-10.218,3.953-14.143,0.064c-3.925-3.885-3.95-10.216-0.065-14.139
			c3.893-3.923,10.218-3.951,14.145-0.068C95.463,64.383,95.487,70.718,91.604,74.638z"/>
		<path d="M84.502,57.602c-2.574,0-5.148,0.988-7.106,2.961c-3.885,3.923-3.859,10.254,0.065,14.139
			c1.95,1.933,4.494,2.897,7.037,2.897c2.574,0,5.148-0.988,7.105-2.961c3.884-3.92,3.859-10.254-0.063-14.143
			C89.589,58.565,87.045,57.602,84.502,57.602L84.502,57.602z"/>
	</g>
</g>
</svg>
