<?xml version="1.0" encoding="utf-8"?>
<!-- Generator: Adobe Illustrator 16.0.0, SVG Export Plug-In . SVG Version: 6.00 Build 0)  -->
<!DOCTYPE svg PUBLIC "-//W3C//DTD SVG 1.1//EN" "http://www.w3.org/Graphics/SVG/1.1/DTD/svg11.dtd">
<svg version="1.1" xmlns="http://www.w3.org/2000/svg" xmlns:xlink="http://www.w3.org/1999/xlink" x="0px" y="0px" width="100px"
	 height="100px" viewBox="0 0 100 100" enable-background="new 0 0 100 100" xml:space="preserve">
<g id="Layer_3" display="none">
</g>
<g id="Your_Icon">
</g>
<g id="Layer_4">
	<g>
		<path fill="#211915" d="M16.966,97.988c-3.786,0-7.346-1.485-10.022-4.183c-2.67-2.691-4.141-6.266-4.141-10.065
			c0-7.857,6.355-14.251,14.167-14.252h65.684c0.001,0,0.002,0,0.002,0c2.177,0,4.224-0.855,5.766-2.409
			c1.547-1.56,2.4-3.633,2.4-5.839c0-4.55-3.665-8.251-8.168-8.252H16.971c-0.001,0-0.003,0-0.004,0
			c-3.786,0-7.346-1.485-10.022-4.183c-2.67-2.691-4.141-6.266-4.141-10.065c0-7.857,6.355-14.251,14.167-14.252h65.684
			c0.001,0,0.002,0,0.002,0c2.177,0,4.224-0.855,5.766-2.409c1.547-1.56,2.4-3.633,2.4-5.839c0-4.549-3.665-8.251-8.169-8.252H50v-6
			h32.654c7.812,0.003,14.168,6.396,14.168,14.252c0,3.8-1.471,7.375-4.141,10.065c-2.677,2.697-6.236,4.183-10.023,4.183
			c-0.001,0-0.003,0-0.004,0H16.971c-4.503,0.001-8.168,3.702-8.168,8.252c0,2.206,0.853,4.279,2.4,5.839
			c1.542,1.554,3.589,2.409,5.765,2.409c0.001,0,0.001,0,0.002,0h65.685c7.812,0.001,14.168,6.395,14.168,14.252
			c0,3.8-1.471,7.374-4.141,10.065c-2.677,2.697-6.236,4.183-10.023,4.183c-0.001,0-0.003,0-0.004,0H16.971
			c-4.503,0.001-8.168,3.702-8.168,8.252c0,2.206,0.853,4.279,2.4,5.839c1.542,1.554,3.589,2.409,5.765,2.409
			c0.001,0,0.001,0,0.002,0H50v6H16.971C16.969,97.988,16.967,97.988,16.966,97.988z"/>
	</g>
</g>
</svg>
