<?xml version="1.0" encoding="utf-8"?>
<!-- Generator: Adobe Illustrator 16.0.0, SVG Export Plug-In . SVG Version: 6.00 Build 0)  -->
<!DOCTYPE svg PUBLIC "-//W3C//DTD SVG 1.1//EN" "http://www.w3.org/Graphics/SVG/1.1/DTD/svg11.dtd">
<svg version="1.1" xmlns="http://www.w3.org/2000/svg" xmlns:xlink="http://www.w3.org/1999/xlink" x="0px" y="0px" width="100px"
	 height="100px" viewBox="0 0 100 100" enable-background="new 0 0 100 100" xml:space="preserve">
<g id="Layer_3">
</g>
<g id="Your_Icon">
</g>
<g id="Layer_4">
	<g>
		<path d="M91.8,17h-84C4.486,17,2,19.582,2,22.896V92.3c0,1.593,0.533,2.97,1.66,4.095C4.785,97.52,6.21,98,7.8,98
			c0.002,0,0.004,0,0.006,0l84.101,0.062C95.217,98.059,98,95.524,98,92.213V22.896C98,19.582,95.113,17,91.8,17z M92,92.213L8,92.3
			V23h84V92.213z"/>
		<path d="M38.628,83.479c0.41,0.195,0.809,0.291,1.246,0.291c0.677,0,1.327-0.229,1.872-0.673l27.99-22.785
			c0.7-0.57,1.101-1.425,1.101-2.327s-0.408-1.757-1.108-2.327L41.727,32.873c-0.898-0.729-2.053-0.879-3.098-0.382
			C37.583,32.988,37,34.042,37,35.2v45.57C37,81.929,37.582,82.982,38.628,83.479z M43,41.509l20.247,16.477L43,74.462V41.509z"/>
	</g>
</g>
</svg>
