<?xml version="1.0" encoding="utf-8"?>
<!-- Generator: Adobe Illustrator 16.0.0, SVG Export Plug-In . SVG Version: 6.00 Build 0)  -->
<!DOCTYPE svg PUBLIC "-//W3C//DTD SVG 1.1//EN" "http://www.w3.org/Graphics/SVG/1.1/DTD/svg11.dtd">
<svg version="1.1" xmlns="http://www.w3.org/2000/svg" xmlns:xlink="http://www.w3.org/1999/xlink" x="0px" y="0px" width="100px"
	 height="100px" viewBox="0 0 100 100" enable-background="new 0 0 100 100" xml:space="preserve">
<g id="Layer_3">
	<rect x="18" fill="none" stroke="#000000" stroke-miterlimit="10" width="64" height="100"/>
	<rect fill="none" stroke="#000000" stroke-miterlimit="10" width="100" height="100"/>
	<g>
		<path fill="none" stroke="#000000" stroke-miterlimit="10" d="M50.1,40.3c-5.52,0-10,4.477-10,10s4.48,10,10,10
			c5.523,0,10-4.477,10-10S55.623,40.3,50.1,40.3z"/>
		<path fill="none" stroke="#211915" stroke-miterlimit="10" d="M50.1,30.3c-11.027,0-20,8.972-20,20s8.973,20,20,20s20-8.972,20-20
			S61.127,30.3,50.1,30.3L50.1,30.3z"/>
	</g>
	<g>
		<path fill="none" stroke="#211915" stroke-miterlimit="10" d="M50.6,19.08c17.245,0,31.22,13.974,31.22,31.22
			c0,17.236-13.975,31.22-31.22,31.22S19.38,67.536,19.38,50.3C19.38,33.054,33.354,19.08,50.6,19.08 M50.6,10.3
			c-22.057,0-40,17.944-40,40s17.943,40,40,40s40-17.944,40-40S72.656,10.3,50.6,10.3L50.6,10.3z"/>
	</g>
</g>
<g id="Your_Icon">
</g>
<g id="Layer_4">
	<g>
		<path d="M86,44H14c-1.657,0-3,1.516-3,3.172v50c0,0.796,0.316,1.473,0.88,2.036C12.442,99.771,13.205,100,14,100
			c0.001,0,0.002,0,0.003,0l72,0.011C87.659,100.009,89,98.753,89,97.097V47.172C89,45.516,87.657,44,86,44z M83,94.1l-66,0.069V50
			h66V94.1z"/>
		<path d="M25,30.006c0-12.82,11.215-23.25,25-23.25s25,10.43,25,23.25V42h6V30.006c0-16.128-13.906-29.25-31-29.25
			s-31,13.122-31,29.25V42h6V30.006z"/>
		<path d="M44.796,74.89l3.305-5.008c-0.778-0.514-1.226-1.437-1.226-2.532c0-1.634,1.402-3.014,3.062-3.014
			c1.586,0,2.781,1.287,2.781,2.993c0,1.776-0.405,2.204-1.623,2.589L49,70.581V83h6v-8.302c1.98-1.21,3.719-3.402,3.719-7.369
			c0-5.043-3.857-8.993-8.781-8.993c-4.997,0-9.062,4.043-9.062,9.014C40.875,70.45,42.341,73.269,44.796,74.89z"/>
	</g>
</g>
</svg>
