<?xml version="1.0" encoding="utf-8"?>
<!-- Generator: Adobe Illustrator 16.0.0, SVG Export Plug-In . SVG Version: 6.00 Build 0)  -->
<!DOCTYPE svg PUBLIC "-//W3C//DTD SVG 1.1//EN" "http://www.w3.org/Graphics/SVG/1.1/DTD/svg11.dtd">
<svg version="1.1" xmlns="http://www.w3.org/2000/svg" xmlns:xlink="http://www.w3.org/1999/xlink" x="0px" y="0px" width="100px"
	 height="100px" viewBox="0 0 100 100" enable-background="new 0 0 100 100" xml:space="preserve">
<g id="Layer_3">
</g>
<g id="Your_Icon">
</g>
<g id="Layer_4">
	<g>
		<path fill="#211915" d="M17.6,45H46v-6H22.982c3.521-13,14.763-21.25,27.729-21.25C64.539,17.75,77,27.277,79,40.789V45h6.1
			l-0.002-5.059C81.973,23.461,67.785,11.5,50.986,11.5C38.301,11.5,27,18.414,21,28.933V14h-6v27.5C15,43.157,15.943,45,17.6,45z"
			/>
		<path fill="#211915" d="M82.4,56H54v6h23.018c-3.521,12-14.763,20.75-27.729,20.75C35.461,82.75,23,72.723,21,59.211V56h-6.1
			l0.002,4.059C18.027,76.539,32.215,88.5,49.014,88.5C61.699,88.5,73,81.586,79,71.066V87h6V58.5C85,56.843,84.057,56,82.4,56z"/>
	</g>
</g>
</svg>
