<?xml version="1.0" encoding="utf-8"?>
<!-- Generator: Adobe Illustrator 16.0.0, SVG Export Plug-In . SVG Version: 6.00 Build 0)  -->
<!DOCTYPE svg PUBLIC "-//W3C//DTD SVG 1.1//EN" "http://www.w3.org/Graphics/SVG/1.1/DTD/svg11.dtd">
<svg version="1.1" xmlns="http://www.w3.org/2000/svg" xmlns:xlink="http://www.w3.org/1999/xlink" x="0px" y="0px" width="100px"
	 height="100px" viewBox="0 0 100 100" enable-background="new 0 0 100 100" xml:space="preserve">
<g id="Layer_3">
</g>
<g id="Your_Icon">
</g>
<g id="Layer_4">
	<g>
		<path fill="#211915" d="M30.681,50.253l40.612-12.299c-0.796-1.878-1.193-3.885-1.188-5.893L29.23,44.431
			c1.517,3.716,1.466,7.915-0.13,11.61l40.928,12.384c0.077-2,0.55-3.983,1.422-5.831L30.681,50.253z"/>
	</g>
	<g>
		<path d="M90.042,24.896c-1.951-1.931-4.496-2.895-7.04-2.895c-2.574,0-5.148,0.987-7.105,2.961
			c-3.885,3.923-3.86,10.255,0.064,14.14C77.912,41.035,80.456,42,83,42c2.574,0,5.147-0.988,7.104-2.96
			C93.988,35.118,93.964,28.784,90.042,24.896z M85.845,34.813C85.086,35.579,84.076,36,83,36c-1.062,0-2.062-0.412-2.818-1.162
			c-0.757-0.749-1.177-1.75-1.182-2.817c-0.005-1.068,0.407-2.076,1.156-2.832c0.759-0.765,1.77-1.187,2.846-1.187
			c1.062,0,2.064,0.412,2.816,1.156C87.384,30.71,87.394,33.249,85.845,34.813z"/>
	</g>
	<g>
		<path d="M90.042,60.896c-1.951-1.931-4.496-2.895-7.04-2.895c-2.574,0-5.148,0.987-7.105,2.961
			c-3.885,3.923-3.86,10.255,0.064,14.14c1.951,1.933,4.495,2.897,7.039,2.897c2.574,0,5.147-0.988,7.104-2.96
			C93.988,71.117,93.964,64.783,90.042,60.896z M85.845,70.812c-0.759,0.766-1.77,1.187-2.846,1.187
			c-1.062,0-2.062-0.412-2.818-1.162c-0.757-0.749-1.177-1.75-1.182-2.817c-0.005-1.068,0.407-2.076,1.156-2.832
			c0.759-0.765,1.77-1.187,2.846-1.187c1.062,0,2.064,0.412,2.816,1.156C87.384,66.709,87.394,69.248,85.845,70.812z"/>
	</g>
	<g>
		<path d="M24.042,42.896c-1.951-1.931-4.496-2.895-7.04-2.895c-2.574,0-5.148,0.987-7.105,2.961
			c-3.885,3.923-3.86,10.255,0.064,14.14c1.951,1.933,4.495,2.897,7.039,2.897c2.574,0,5.147-0.988,7.104-2.96
			C27.988,53.117,27.964,46.783,24.042,42.896z M19.845,52.812c-0.759,0.766-1.77,1.187-2.846,1.187
			c-1.062,0-2.062-0.412-2.818-1.162c-0.757-0.749-1.177-1.75-1.182-2.817c-0.005-1.068,0.407-2.076,1.156-2.832
			c0.759-0.765,1.77-1.187,2.846-1.187c1.062,0,2.064,0.412,2.816,1.156C21.384,48.709,21.394,51.248,19.845,52.812z"/>
	</g>
</g>
</svg>
