<?xml version="1.0" encoding="utf-8"?>
<!-- Generator: Adobe Illustrator 16.0.0, SVG Export Plug-In . SVG Version: 6.00 Build 0)  -->
<!DOCTYPE svg PUBLIC "-//W3C//DTD SVG 1.1//EN" "http://www.w3.org/Graphics/SVG/1.1/DTD/svg11.dtd">
<svg version="1.1" xmlns="http://www.w3.org/2000/svg" xmlns:xlink="http://www.w3.org/1999/xlink" x="0px" y="0px" width="100px"
	 height="100px" viewBox="0 0 100 100" enable-background="new 0 0 100 100" xml:space="preserve">
<g id="Layer_3">
</g>
<g id="Your_Icon">
</g>
<g id="Layer_4">
	<g>
		<path fill="none" d="M15.062,49.54C15.059,49.746,15,51.671,15,51.81v0.264c0,0.578,0.05,2.061,0.055,2.307
			c0.17,4.244,3.559,7.889,8.045,7.889h3.827c0.634,0,1.338,0,2.073,0c2.943,0,11.835,0,12,0v-20H23.423
			C18.858,42.269,15.231,45.334,15.062,49.54z"/>
		<path fill="none" d="M48.216,61.855c0.18-0.005,0.398-0.007,0.577-0.007C61.646,61.849,78,73.011,86,79.9V24.049
			c-8,7.2-22.257,18.22-36.242,18.22H47V61.87C47.564,61.866,48.009,61.861,48.216,61.855z"/>
		<path d="M26.927,62.269H23.1c-4.486,0-7.875-3.645-8.045-7.889C15.05,54.134,15,52.651,15,52.073V51.81
			c0-0.139,0.059-2.063,0.062-2.27c0.17-4.206,3.797-7.271,8.362-7.271H41v-0.211v-5.789H23.423
			c-7.722,0-14.059,5.664-14.357,13.049C9.061,49.468,9,51.657,9,51.81v0.247c0,2.273,0.054,2.354,0.059,2.436
			c0.3,7.503,6.609,13.38,14.328,13.38l3.318,0.004C27.457,67.877,29,67.878,29,67.878l0.033-0.018L29,62.269
			C28.266,62.269,27.562,62.269,26.927,62.269z"/>
		<path d="M89.978,13.872c-1.169-0.44-2.528-0.004-3.353,0.934c-0.197,0.224-19.871,21.463-36.867,21.463H47v5.789v0.211h2.758
			C63.743,42.269,78,31.249,86,24.049V79.9c-8-6.89-24.354-18.052-37.207-18.052c-0.179,0-0.397,0.002-0.577,0.007
			c-0.207,0.006-0.651,0.011-1.216,0.015v0.398v5.598c1-0.004,0.947-0.008,1.135-0.013l0.478-0.005
			c15.101,0,37.866,20.706,38.093,20.926c0.57,0.551,1.347,0.842,2.109,0.842c0.395,0,0.886-0.078,1.265-0.239
			c1.108-0.47,1.92-1.557,1.92-2.761V16.68C92,15.431,91.146,14.312,89.978,13.872z"/>
		<path fill="#211915" d="M47,61.87V42.269v-0.211v-5.789h-6v5.789v0.211v20c-0.165,0-9.057,0-12,0l0.033,5.592l0.167,24.429
			c0,4.168,3.479,7.555,7.792,7.709L38.348,100c0.071,0,1.035-0.007,1.14-0.01C43.798,99.823,47,96.44,47,92.289V67.866v-5.598
			V61.87z M41,92.289c0,0.915-0.644,1.714-1.663,1.754c-0.133,0.002-0.857,0.057-0.94,0.057h-1.133
			c-1.032,0-1.864-0.892-1.864-1.786l0.001-24.045H41V92.289z"/>
	</g>
</g>
</svg>
