<?xml version="1.0" encoding="utf-8"?>
<!-- Generator: Adobe Illustrator 16.0.0, SVG Export Plug-In . SVG Version: 6.00 Build 0)  -->
<!DOCTYPE svg PUBLIC "-//W3C//DTD SVG 1.1//EN" "http://www.w3.org/Graphics/SVG/1.1/DTD/svg11.dtd">
<svg version="1.1" xmlns="http://www.w3.org/2000/svg" xmlns:xlink="http://www.w3.org/1999/xlink" x="0px" y="0px" width="100px"
	 height="100px" viewBox="0 0 100 100" enable-background="new 0 0 100 100" xml:space="preserve">
<g id="Layer_3">
</g>
<g id="Your_Icon">
</g>
<g id="Layer_4">
	<path fill="#211915" d="M83.571,47H16.428c-0.001,0-0.001,0-0.002,0c-2.242,0-4.352-0.888-5.94-2.488
		c-1.595-1.606-2.473-3.74-2.473-6.013c0-4.688,3.775-8.499,8.416-8.499H83.57c0.001,0,0.003,0,0.004,0
		c3.854,0,7.476-1.518,10.199-4.262c2.717-2.737,4.213-6.372,4.213-10.239C97.987,7.505,91.521,1,83.571,1H50v6h33.57
		c4.641,0,8.417,3.81,8.417,8.496c0,2.273-0.878,4.412-2.473,6.02C87.927,23.116,85.817,24,83.574,24c0,0-0.001,0-0.002,0H16.428
		C8.479,24,2.013,30.501,2.013,38.496c0,3.866,1.497,7.507,4.213,10.245C8.95,51.485,12.571,53,16.424,53c0.001,0,0.003,0,0.004,0
		h67.142c4.641,0,8.417,3.809,8.417,8.496c0,2.272-0.878,4.412-2.473,6.019C87.926,69.115,85.817,70,83.574,70c0,0-0.001,0-0.002,0
		H16.428C8.479,70,2.013,76.501,2.013,84.496c0,3.866,1.497,7.507,4.213,10.245C8.95,97.485,12.571,99,16.424,99
		c0.001,0,0.003,0,0.004,0H50v-6H16.428c-0.001,0-0.001,0-0.002,0c-2.242,0-4.352-0.888-5.94-2.488
		c-1.595-1.606-2.473-3.74-2.473-6.013c0-4.688,3.775-8.499,8.416-8.499H83.57c0.001,0,0.003,0,0.004,0
		c3.854,0,7.476-1.518,10.199-4.262c2.717-2.738,4.213-6.373,4.213-10.239C97.987,53.504,91.521,47,83.571,47z"/>
</g>
</svg>
