<?xml version="1.0" encoding="utf-8"?>
<!-- Generator: Adobe Illustrator 16.0.0, SVG Export Plug-In . SVG Version: 6.00 Build 0)  -->
<!DOCTYPE svg PUBLIC "-//W3C//DTD SVG 1.1//EN" "http://www.w3.org/Graphics/SVG/1.1/DTD/svg11.dtd">
<svg version="1.1" xmlns="http://www.w3.org/2000/svg" xmlns:xlink="http://www.w3.org/1999/xlink" x="0px" y="0px" width="100px"
	 height="100px" viewBox="0 0 100 100" enable-background="new 0 0 100 100" xml:space="preserve">
<g id="Layer_3">
</g>
<g id="Your_Icon">
</g>
<g id="Layer_4">
	<g>
		<path fill="none" d="M16,92h68V8H16V92z M44.695,20.277c11.663,0,21.151,9.487,21.151,21.148c0,5.144-1.85,9.86-4.914,13.531
			l18.86,19.169l-4.277,4.208L56.475,58.981c-3.369,2.269-7.422,3.595-11.78,3.595c-11.659,0-21.145-9.488-21.145-21.15
			C23.55,29.765,33.036,20.277,44.695,20.277z"/>
		<path fill="none" d="M44.695,56.576c8.354,0,15.151-6.797,15.151-15.15c0-8.353-6.797-15.148-15.151-15.148
			c-8.351,0-15.145,6.796-15.145,15.148C29.55,49.779,36.344,56.576,44.695,56.576z"/>
		<path d="M87,2H13c-1.657,0-3,1.343-3,3v90c0,1.657,1.343,3,3,3h74c1.657,0,3-1.343,3-3V5C90,3.343,88.657,2,87,2z M84,92H16V8h68
			V92z"/>
		<path fill="#211915" d="M44.695,62.576c4.358,0,8.411-1.326,11.78-3.595l19.041,19.353l4.277-4.208l-18.86-19.169
			c3.064-3.671,4.914-8.388,4.914-13.531c0-11.661-9.488-21.148-21.151-21.148c-11.659,0-21.145,9.487-21.145,21.148
			C23.55,53.088,33.036,62.576,44.695,62.576z M44.695,26.277c8.354,0,15.151,6.796,15.151,15.148c0,8.354-6.797,15.15-15.151,15.15
			c-8.351,0-15.145-6.797-15.145-15.15C29.55,33.073,36.344,26.277,44.695,26.277z"/>
	</g>
</g>
</svg>
