<?xml version="1.0" encoding="utf-8"?>
<!-- Generator: Adobe Illustrator 16.0.0, SVG Export Plug-In . SVG Version: 6.00 Build 0)  -->
<!DOCTYPE svg PUBLIC "-//W3C//DTD SVG 1.1//EN" "http://www.w3.org/Graphics/SVG/1.1/DTD/svg11.dtd">
<svg version="1.1" xmlns="http://www.w3.org/2000/svg" xmlns:xlink="http://www.w3.org/1999/xlink" x="0px" y="0px" width="100px"
	 height="100px" viewBox="0 0 100 100" enable-background="new 0 0 100 100" xml:space="preserve">
<g id="Layer_3">
</g>
<g id="Your_Icon">
</g>
<g id="Layer_4">
	<g>
		<rect x="44" y="33" fill="none" width="12" height="44"/>
		<rect x="0.3" y="90" width="99.5" height="6"/>
		<g>
			<path d="M26,3H8C6.343,3,5,4.344,5,6v75c0,1.657,1.343,3,3,3h18c1.657,0,3-1.343,3-3V6C29,4.344,27.657,3,26,3z M23,78H11V9h12
				V78z"/>
		</g>
		<g>
			<path d="M59,27H41c-1.657,0-3,1.344-3,3v51c0,1.657,1.343,3,3,3h18c1.657,0,3-1.343,3-3V30C62,28.344,60.657,27,59,27z M56,77H44
				V33h12V77z"/>
		</g>
		<g>
			<path d="M92,55H74c-1.657,0-3,1.343-3,3v23c0,1.657,1.343,3,3,3h18c1.657,0,3-1.343,3-3V58C95,56.343,93.657,55,92,55z M89,77H77
				V61h12V77z"/>
		</g>
	</g>
</g>
</svg>
