<?xml version="1.0" encoding="utf-8"?>
<!-- Generator: Adobe Illustrator 16.0.0, SVG Export Plug-In . SVG Version: 6.00 Build 0)  -->
<!DOCTYPE svg PUBLIC "-//W3C//DTD SVG 1.1//EN" "http://www.w3.org/Graphics/SVG/1.1/DTD/svg11.dtd">
<svg version="1.1" xmlns="http://www.w3.org/2000/svg" xmlns:xlink="http://www.w3.org/1999/xlink" x="0px" y="0px" width="100px"
	 height="100px" viewBox="0 0 100 100" enable-background="new 0 0 100 100" xml:space="preserve">
<g id="Layer_3">
</g>
<g id="Your_Icon">
</g>
<g id="Layer_4">
	<g>
		<path fill="#211915" d="M94.8,33H65.326L52.832,3.981C52.357,2.886,51.279,2,50.086,2c-0.002,0-0.005,0-0.007,0
			c-1.19,0-2.269,0.884-2.747,1.975L34.68,33H5.196c-1.21,0-2.302,0.544-2.769,1.661c-0.466,1.116-0.216,2.312,0.635,3.173
			l23.213,23.431l-9.612,32.91c-0.351,1.202,0.082,2.484,1.086,3.233c1.004,0.749,2.368,0.79,3.42,0.111l28.935-18.663
			l29.881,18.682c0.488,0.306,1.04,0.456,1.591,0.456c0.651,0,1.302-0.212,1.841-0.631c0.993-0.772,1.399-2.083,1.018-3.282
			L73.933,61.177l23.008-23.43c0.847-0.862,1.094-1.971,0.626-3.085S96.008,33,94.8,33z M68.384,58.441
			c-0.779,0.794-1.056,1.865-0.718,2.925l8.564,26.79L51.67,72.778c-0.487-0.305-1.039-0.468-1.591-0.468
			c-0.565,0-1.131,0.154-1.626,0.474L24.677,88.115l7.853-26.908c0.306-1.045,0.02-1.993-0.746-2.767L12.381,39H36.64
			c1.19,0,2.269-0.888,2.747-1.979l10.675-24.429l10.542,24.469C61.079,38.158,62.16,39,63.356,39h24.293L68.384,58.441z"/>
	</g>
</g>
</svg>
