<?xml version="1.0" encoding="utf-8"?>
<!-- Generator: Adobe Illustrator 16.0.0, SVG Export Plug-In . SVG Version: 6.00 Build 0)  -->
<!DOCTYPE svg PUBLIC "-//W3C//DTD SVG 1.1//EN" "http://www.w3.org/Graphics/SVG/1.1/DTD/svg11.dtd">
<svg version="1.1" xmlns="http://www.w3.org/2000/svg" xmlns:xlink="http://www.w3.org/1999/xlink" x="0px" y="0px" width="100px"
	 height="100px" viewBox="0 0 100 100" enable-background="new 0 0 100 100" xml:space="preserve">
<g id="Layer_3" display="none">
	<rect x="18" display="inline" opacity="0.4" fill="none" stroke="#000000" stroke-miterlimit="10" width="64" height="100"/>
	<rect display="inline" opacity="0.4" fill="none" stroke="#000000" stroke-miterlimit="10" width="100" height="100"/>
	<g display="inline" opacity="0.4">
		<path fill="none" stroke="#211915" stroke-miterlimit="10" d="M50,18c17.677,0,32,14.323,32,32c0,17.667-14.323,32-32,32
			S18,67.667,18,50C18,32.323,32.323,18,50,18 M50,11c-21.506,0-39,17.496-39,39s17.494,39,39,39s39-17.496,39-39S71.506,11,50,11
			L50,11z"/>
	</g>
	
		<line display="inline" opacity="0.4" fill="none" stroke="#211915" stroke-linecap="square" stroke-miterlimit="10" x1="18.5" y1="149" x2="18.5" y2="7"/>
	
		<line display="inline" opacity="0.4" fill="none" stroke="#211915" stroke-linecap="square" stroke-miterlimit="10" x1="-52" y1="78.5" x2="90" y2="78.5"/>
</g>
<g id="Your_Icon">
</g>
<g id="Layer_4">
	<g>
		<path d="M29.849,70.469c-3.917-3.893-10.245-3.902-14.15,0.003c-3.898,3.909-3.896,10.241,0,14.147
			c3.905,3.896,10.233,3.905,14.154-0.001C33.752,80.716,33.749,74.383,29.849,70.469z"/>
	</g>
	<path d="M90.225,77.445h-6v-3c0.002-32.525-26.466-58.988-59-58.99h-3v-6h3c35.843,0.002,65.002,29.157,65,64.99V77.445z"/>
	<path d="M70.85,77.445h-6v-3c0.001-21.841-17.775-39.612-39.625-39.615l-3,0v-6l3,0c25.159,0.003,45.626,20.466,45.625,45.615
		V77.445z"/>
	<path d="M45.476,77.445l-0.001-3c-0.003-11.159-9.088-20.238-20.25-20.239l-3,0v-6l3,0c14.47,0.001,26.245,11.771,26.25,26.237
		l0.001,3L45.476,77.445z"/>
</g>
</svg>
