<?xml version="1.0" encoding="utf-8"?>
<!-- Generator: Adobe Illustrator 16.0.0, SVG Export Plug-In . SVG Version: 6.00 Build 0)  -->
<!DOCTYPE svg PUBLIC "-//W3C//DTD SVG 1.1//EN" "http://www.w3.org/Graphics/SVG/1.1/DTD/svg11.dtd">
<svg version="1.1" xmlns="http://www.w3.org/2000/svg" xmlns:xlink="http://www.w3.org/1999/xlink" x="0px" y="0px" width="100px"
	 height="100px" viewBox="0 0 100 100" enable-background="new 0 0 100 100" xml:space="preserve">
<g id="Layer_3">
</g>
<g id="Your_Icon">
</g>
<g id="Layer_4">
	<g>
		<path fill="#211915" d="M25.689,26.412C14.116,26.412,4.7,35.828,4.7,47.401c0,11.572,9.416,20.987,20.989,20.987
			c11.585,0,21.011-9.415,21.011-20.987C46.7,35.828,37.274,26.412,25.689,26.412z M25.689,62.389
			c-8.272,0-14.989-6.696-14.989-14.987c0-8.295,6.717-14.989,14.989-14.989c8.286,0,15.011,6.694,15.011,14.989
			C40.7,55.692,33.976,62.389,25.689,62.389z"/>
		<path fill="#211915" d="M74.022,26.412c-11.586,0-21.012,9.416-21.012,20.989c0,11.572,9.426,20.987,21.012,20.987
			c11.573,0,20.988-9.415,20.988-20.987C95.011,35.828,85.596,26.412,74.022,26.412z M74.022,62.389
			c-8.295,0-15.012-6.696-15.012-14.987c0-8.295,6.717-14.989,15.012-14.989c8.264,0,14.988,6.694,14.988,14.989
			C89.011,55.692,82.286,62.389,74.022,62.389z"/>
	</g>
</g>
</svg>
