<?xml version="1.0" encoding="utf-8"?>
<!-- Generator: Adobe Illustrator 16.0.0, SVG Export Plug-In . SVG Version: 6.00 Build 0)  -->
<!DOCTYPE svg PUBLIC "-//W3C//DTD SVG 1.1//EN" "http://www.w3.org/Graphics/SVG/1.1/DTD/svg11.dtd">
<svg version="1.1" xmlns="http://www.w3.org/2000/svg" xmlns:xlink="http://www.w3.org/1999/xlink" x="0px" y="0px" width="62px"
	 height="100px" viewBox="0 0 62 100" enable-background="new 0 0 62 100" xml:space="preserve">
<g id="Layer_3">
</g>
<g id="Your_Icon">
</g>
<g id="Layer_4">
	<path d="M29.831,98.63c-0.002,0-0.004,0-0.005,0c-10.023,0-18.181-8.008-18.185-17.854l-0.001-3l6-0.002l0.001,3
		c0.002,6.537,5.469,11.855,12.186,11.855c0.002,0,0.002,0,0.003,0c3.638,0,7.803-2.276,10.367-5.663
		c1.09-1.44,2.79-4.312,1.929-7.358c-2.148-7.601-8.353-17.465-14.353-27.005c-6.68-10.622-13.588-21.605-15.779-30.693
		c-1.012-4.197,0.209-8.893,3.351-12.882c3.72-4.724,9.373-7.658,14.751-7.658c0.001-0.001,0.003,0,0.006,0
		c4.843,0,9.4,1.848,12.831,5.205c3.45,3.375,5.35,7.867,5.35,12.65v3h-6v-3c0-3.155-1.259-6.125-3.545-8.362
		c-2.303-2.253-5.371-3.494-8.636-3.494c-0.001,0-0.002,0-0.003,0h-0.001c-3.529,0-7.469,2.108-10.039,5.371
		c-1.997,2.535-2.81,5.365-2.231,7.763c1.96,8.132,8.603,18.692,15.025,28.905C39.366,59.764,45.517,69.544,47.9,77.977
		c1.162,4.111,0.125,8.589-2.919,12.61C41.284,95.473,35.337,98.629,29.831,98.63z"/>
</g>
</svg>
