<?xml version="1.0" encoding="utf-8"?>
<!-- Generator: Adobe Illustrator 16.0.0, SVG Export Plug-In . SVG Version: 6.00 Build 0)  -->
<!DOCTYPE svg PUBLIC "-//W3C//DTD SVG 1.1//EN" "http://www.w3.org/Graphics/SVG/1.1/DTD/svg11.dtd">
<svg version="1.1" xmlns="http://www.w3.org/2000/svg" xmlns:xlink="http://www.w3.org/1999/xlink" x="0px" y="0px" width="100px"
	 height="100px" viewBox="0 0 100 100" enable-background="new 0 0 100 100" xml:space="preserve">
<g id="Layer_3">
</g>
<g id="Your_Icon">
</g>
<g id="Layer_4">
	<g>
		<circle fill="none" cx="50" cy="82" r="6"/>
		<circle fill="none" cx="50" cy="50" r="6"/>
		<path fill="#211915" d="M38,82c0,6.617,5.383,12,12,12s12-5.383,12-12s-5.383-12-12-12S38,75.383,38,82z M56,82
			c0,3.313-2.688,6-6,6s-6-2.687-6-6s2.688-6,6-6S56,78.687,56,82z"/>
		<path fill="#211915" d="M38,50c0,6.617,5.383,12,12,12s12-5.383,12-12s-5.383-12-12-12S38,43.383,38,50z M56,50
			c0,3.313-2.688,6-6,6s-6-2.687-6-6s2.688-6,6-6S56,46.687,56,50z"/>
		<g>
			<path d="M38,18c0,6.617,5.383,12,12,12s12-5.383,12-12S56.617,6,50,6S38,11.383,38,18z M56,18c0,3.313-2.688,6-6,6s-6-2.687-6-6
				s2.688-6,6-6S56,14.687,56,18z"/>
		</g>
	</g>
</g>
</svg>
