<?xml version="1.0" encoding="utf-8"?>
<!-- Generator: Adobe Illustrator 16.0.0, SVG Export Plug-In . SVG Version: 6.00 Build 0)  -->
<!DOCTYPE svg PUBLIC "-//W3C//DTD SVG 1.1//EN" "http://www.w3.org/Graphics/SVG/1.1/DTD/svg11.dtd">
<svg version="1.1" xmlns="http://www.w3.org/2000/svg" xmlns:xlink="http://www.w3.org/1999/xlink" x="0px" y="0px" width="100px"
	 height="100px" viewBox="0 0 100 100" enable-background="new 0 0 100 100" xml:space="preserve">
<g id="Layer_3" display="none">
</g>
<g id="Your_Icon">
</g>
<g id="Layer_4">
	<g>
		<path d="M57.833,4.461C56.712,3.364,55.123,3,53.555,3H23.332C20.019,3,17,5.187,17,8.5v83c0,3.313,3.019,6.5,6.332,6.5h53.336
			C79.981,98,83,94.813,83,91.5V31.109c0-1.614-0.816-3.161-1.97-4.289L57.833,4.461z M58,13.337L70.934,26H58V13.337z M77,92H23V9
			h29v19.5c0,1.657,1.843,3.5,3.5,3.5H77V92z"/>
	</g>
</g>
</svg>
