<?xml version="1.0" encoding="utf-8"?>
<!-- Generator: Adobe Illustrator 16.0.0, SVG Export Plug-In . SVG Version: 6.00 Build 0)  -->
<!DOCTYPE svg PUBLIC "-//W3C//DTD SVG 1.1//EN" "http://www.w3.org/Graphics/SVG/1.1/DTD/svg11.dtd">
<svg version="1.1" xmlns="http://www.w3.org/2000/svg" xmlns:xlink="http://www.w3.org/1999/xlink" x="0px" y="0px" width="100px"
	 height="100px" viewBox="0 0 100 100" enable-background="new 0 0 100 100" xml:space="preserve">
<g id="Layer_3" display="none">
</g>
<g id="Your_Icon">
</g>
<g id="Layer_4">
	<path d="M28.853,98.337c-0.471,0-0.944-0.111-1.379-0.336c-1.002-0.519-1.629-1.558-1.621-2.687
		c0.044-6.004,0.089-15.024,0.063-19.309c-7.177-1.031-9.946-3.081-13.675-6.831C5.613,62.513,1.976,53.669,2,44.273
		c0.024-9.395,3.708-18.219,10.371-24.846c6.325-6.293,23.851-7.729,37.44-7.825L50.71,11.6c8.76,0,29.907,0.775,37.056,7.961
		C94.39,26.22,98.024,35.062,98,44.457c-0.024,9.397-3.707,18.222-10.37,24.847c-4.108,4.088-21.341,6.603-27.694,7.404
		L30.604,97.773C30.083,98.146,29.47,98.337,28.853,98.337z M50.71,17.6l-0.856,0.003c-16.862,0.119-29.603,2.449-33.251,6.079
		C11.075,29.179,8.021,36.497,8,44.289c-0.021,7.793,2.997,15.128,8.496,20.654c3.267,3.285,4.9,4.648,12.65,5.406
		c1.229,0.12,2.258,0.98,2.595,2.169c0.133,0.471,0.25,0.883,0.153,16.941l25.164-18.071c0.41-0.294,0.887-0.48,1.387-0.541
		c10.526-1.283,23.065-3.919,24.954-5.798c5.527-5.495,8.581-12.814,8.601-20.608c0.021-7.793-2.994-15.126-8.488-20.649
		C78.964,19.222,63,17.6,50.71,17.6z"/>
</g>
</svg>
