<?xml version="1.0" encoding="utf-8"?>
<!-- Generator: Adobe Illustrator 16.0.0, SVG Export Plug-In . SVG Version: 6.00 Build 0)  -->
<!DOCTYPE svg PUBLIC "-//W3C//DTD SVG 1.1//EN" "http://www.w3.org/Graphics/SVG/1.1/DTD/svg11.dtd">
<svg version="1.1" xmlns="http://www.w3.org/2000/svg" xmlns:xlink="http://www.w3.org/1999/xlink" x="0px" y="0px" width="100px"
	 height="100px" viewBox="0 0 100 100" enable-background="new 0 0 100 100" xml:space="preserve">
<g id="Layer_3">
</g>
<g id="Your_Icon">
</g>
<g id="Layer_4">
	<g>
		<path d="M92,14h-9.014l-0.007-8.229C82.979,4.117,81.636,3,79.979,3H68c-1.657,0-3,1.093-3,2.75V14H34.986l-0.007-8.229
			C34.979,4.117,33.636,3,31.979,3H20c-1.657,0-3,1.093-3,2.75V14H8c-3.313,0-6,2.887-6,6.2v71.499c0,1.593,0.633,3.27,1.76,4.396
			C4.885,97.219,6.41,98,8,98c0.002,0,0.004,0,0.007,0l84-0.24C95.317,97.756,98,94.921,98,91.609V20.2C98,16.887,95.313,14,92,14z
			 M71,9h5.982l0.015,18H71V9z M23,9h5.982l0.015,18H23V9z M92,91.609l-84,0.09V46h84V91.609z M92,40H8V20h9v10.25
			c0,1.657,1.343,2.75,3,2.75h12c0.007,0,0.015,0,0.02,0c1.657,0,3-1.218,3-2.875c0-0.118-0.007-0.273-0.02-0.389L34.992,20H65
			v10.25c0,1.657,1.343,2.75,3,2.75h12c0.008,0,0.016,0,0.02,0c1.657,0,3-1.218,3-2.875c0-0.118-0.007-0.273-0.02-0.389L82.992,20
			H92V40z"/>
	</g>
</g>
</svg>
