<?xml version="1.0" encoding="utf-8"?>
<!-- Generator: Adobe Illustrator 16.0.0, SVG Export Plug-In . SVG Version: 6.00 Build 0)  -->
<!DOCTYPE svg PUBLIC "-//W3C//DTD SVG 1.1//EN" "http://www.w3.org/Graphics/SVG/1.1/DTD/svg11.dtd">
<svg version="1.1" xmlns="http://www.w3.org/2000/svg" xmlns:xlink="http://www.w3.org/1999/xlink" x="0px" y="0px" width="100px"
	 height="100px" viewBox="0 0 100 100" enable-background="new 0 0 100 100" xml:space="preserve">
<g id="Layer_3">
</g>
<g id="Your_Icon">
</g>
<g id="Layer_4">
	<g>
		<path d="M26,30.3c0-12.82,11.215-23.25,25-23.25c14.019,0,25,9.751,25,22.2V32h6v-2.75c0-15.813-13.617-28.2-31-28.2
			c-17.094,0-31,13.122-31,29.25V42h6V30.3z"/>
		<path d="M86,44H14c-1.657,0-3,1.293-3,2.95v50c0,0.796,0.316,1.584,0.88,2.147C12.442,99.66,13.205,100,14,100
			c0.001,0,0.002,0,0.003,0l72-0.1C87.659,99.898,89,98.531,89,96.875V46.95C89,45.293,87.657,44,86,44z M83,93.878l-66,0.069V50h66
			V93.878z"/>
		<path d="M45.795,74.739l3.307-5.007c-0.745-0.492-1.227-1.53-1.227-2.644c0-1.664,1.402-3.069,3.062-3.069
			c1.611,0,2.781,1.247,2.781,2.965c0,1.752-0.405,2.176-1.623,2.562L50,70.208V83h6v-8.658c2.47-1.475,3.719-3.941,3.719-7.357
			c0-5.027-3.857-8.965-8.781-8.965c-4.997,0-9.062,4.068-9.062,9.069C41.875,70.258,43.341,73.118,45.795,74.739z"/>
	</g>
</g>
</svg>
