<?xml version="1.0" encoding="utf-8"?>
<!-- Generator: Adobe Illustrator 16.0.0, SVG Export Plug-In . SVG Version: 6.00 Build 0)  -->
<!DOCTYPE svg PUBLIC "-//W3C//DTD SVG 1.1//EN" "http://www.w3.org/Graphics/SVG/1.1/DTD/svg11.dtd">
<svg version="1.1" xmlns="http://www.w3.org/2000/svg" xmlns:xlink="http://www.w3.org/1999/xlink" x="0px" y="0px" width="100px"
	 height="100px" viewBox="0 0 100 100" enable-background="new 0 0 100 100" xml:space="preserve">
<g id="Layer_3" display="none">
</g>
<g id="Your_Icon">
</g>
<g id="Layer_4">
	<g>
		<path fill="#FFFFFF" d="M31.592,97.479c-0.177-0.007-0.354-0.009-0.529-0.024C31.238,97.47,31.415,97.472,31.592,97.479z"/>
		<path fill="#FFFFFF" d="M32.617,97.469c-0.2,0.012-0.399,0.028-0.6,0.028C32.218,97.497,32.417,97.48,32.617,97.469z"/>
		<path fill="#FFFFFF" d="M33.59,97.36c-0.203,0.033-0.406,0.069-0.611,0.089C33.184,97.43,33.387,97.394,33.59,97.36z"/>
		<path fill="#FFFFFF" d="M30.636,97.395c-0.174-0.024-0.349-0.042-0.521-0.075C30.287,97.353,30.462,97.37,30.636,97.395z"/>
		<g>
			<path d="M77.657,54.754l-36.11-6.523l4.151-23.55c-2.007,0.062-4.021-0.343-5.879-1.207l-4.177,23.689L23.562,44.98
				c0.142,1.988-0.171,4.017-0.968,5.923l12.007,2.169l-3.999,22.683c2.006-0.169,4.042,0.118,5.938,0.877l3.966-22.493l36.02,6.508
				C76.439,58.657,76.805,56.641,77.657,54.754z"/>
		</g>
	</g>
	<g>
		<path d="M17.042,38.997c-1.951-1.93-4.496-2.895-7.04-2.895c-2.574,0-5.148,0.988-7.105,2.961
			c-3.885,3.924-3.86,10.255,0.064,14.14C4.912,55.135,7.456,56.1,10,56.1c2.574,0,5.147-0.988,7.104-2.959
			C20.988,49.219,20.965,42.885,17.042,38.997z M12.846,48.915C12.087,49.68,11.076,50.1,10,50.1c-1.062,0-2.062-0.412-2.818-1.162
			C6.425,48.19,6.005,47.188,6,46.122c-0.005-1.068,0.407-2.076,1.156-2.832c0.759-0.766,1.77-1.188,2.846-1.188
			c1.062,0,2.064,0.412,2.816,1.156C14.385,44.811,14.395,47.35,12.846,48.915z"/>
	</g>
	<g>
		<path d="M52.041,3.895C50.09,1.964,47.545,1,45.001,1c-2.574,0-5.148,0.987-7.105,2.961c-3.885,3.923-3.86,10.255,0.064,14.14
			c1.951,1.933,4.495,2.897,7.039,2.897c2.574,0,5.147-0.988,7.104-2.96C55.987,14.116,55.964,7.782,52.041,3.895z M47.845,13.812
			c-0.759,0.766-1.77,1.187-2.846,1.187c-1.062,0-2.062-0.412-2.818-1.162c-0.757-0.749-1.177-1.75-1.182-2.817
			c-0.005-1.068,0.407-2.076,1.156-2.832C42.914,7.422,43.925,7,45.001,7c1.062,0,2.064,0.412,2.816,1.156
			C49.384,9.708,49.394,12.247,47.845,13.812z"/>
	</g>
	<g>
		<path d="M97.041,52.797c-1.951-1.931-4.496-2.895-7.04-2.895c-2.574,0-5.148,0.987-7.105,2.961
			c-3.885,3.923-3.86,10.255,0.064,14.14c1.951,1.933,4.495,2.897,7.039,2.897c2.574,0,5.147-0.988,7.104-2.96
			C100.987,63.019,100.964,56.685,97.041,52.797z M92.845,62.714c-0.759,0.766-1.77,1.187-2.846,1.187
			c-1.062,0-2.062-0.412-2.818-1.162c-0.757-0.749-1.177-1.75-1.182-2.817c-0.005-1.068,0.407-2.076,1.156-2.832
			c0.759-0.765,1.77-1.187,2.846-1.187c1.062,0,2.064,0.412,2.816,1.156C94.384,58.61,94.394,61.149,92.845,62.714z"/>
	</g>
	<g>
		<path d="M39.042,81.994c-1.951-1.931-4.496-2.895-7.04-2.895c-2.574,0-5.148,0.987-7.105,2.961
			c-3.885,3.923-3.86,10.255,0.064,14.14c1.951,1.933,4.495,2.897,7.039,2.897c2.574,0,5.147-0.988,7.104-2.96
			C42.988,92.216,42.965,85.882,39.042,81.994z M34.846,91.911c-0.759,0.766-1.77,1.187-2.846,1.187
			c-1.062,0-2.062-0.412-2.818-1.162c-0.757-0.749-1.177-1.75-1.182-2.817c-0.005-1.068,0.407-2.076,1.156-2.832
			c0.759-0.765,1.77-1.187,2.846-1.187c1.062,0,2.064,0.412,2.816,1.156C36.385,87.808,36.395,90.347,34.846,91.911z"/>
	</g>
</g>
</svg>
