<?xml version="1.0" encoding="utf-8"?>
<!-- Generator: Adobe Illustrator 16.0.0, SVG Export Plug-In . SVG Version: 6.00 Build 0)  -->
<!DOCTYPE svg PUBLIC "-//W3C//DTD SVG 1.1//EN" "http://www.w3.org/Graphics/SVG/1.1/DTD/svg11.dtd">
<svg version="1.1" xmlns="http://www.w3.org/2000/svg" xmlns:xlink="http://www.w3.org/1999/xlink" x="0px" y="0px" width="100px"
	 height="100px" viewBox="0 0 100 100" enable-background="new 0 0 100 100" xml:space="preserve">
<g id="Layer_3" display="none">
</g>
<g id="Your_Icon">
</g>
<g id="Layer_4">
	<g>
		<path fill="none" d="M30,66.227C17.299,66.227,7,78,7,91h46C53,78,42.701,66.227,30,66.227z"/>
		<path fill="none" d="M29.998,50.024c5.449,0,9.857-4.674,9.857-10.463c0-5.775-4.408-10.462-9.857-10.462
			c-5.445,0-9.854,4.687-9.854,10.462C20.144,45.351,24.553,50.024,29.998,50.024z"/>
		<path fill="none" d="M69.998,29.024c5.449,0,9.857-4.674,9.857-10.463c0-5.775-4.408-10.462-9.857-10.462
			c-5.445,0-9.854,4.687-9.854,10.462C60.144,24.351,64.553,29.024,69.998,29.024z"/>
		<path fill="#211915" d="M70,39.417c-11.688,0-21.777,7.33-26.363,17.899c1.863,0.829,3.639,1.831,5.322,2.972
			C52.528,51.672,60.604,45.227,70,45.227C82.701,45.227,93,57,93,70H58.605c1.265,1.879,2.365,3.886,3.281,6H93
			c3.313,0,6-2.592,6-5.904C99,53.127,85.99,39.417,70,39.417z"/>
		<g>
			<path fill="none" d="M69.998,8.1c-5.445,0-9.854,4.687-9.854,10.462c0,5.789,4.409,10.463,9.854,10.463
				c5.449,0,9.857-4.674,9.857-10.463C79.855,12.786,75.447,8.1,69.998,8.1z"/>
			<g>
				<path d="M69.998,3.1c-8.19,0-14.854,6.937-14.854,15.462c0,7.3,4.89,13.419,11.436,15.033c1.1,0.271,2.241,0.43,3.419,0.43
					c1.179,0,2.32-0.159,3.421-0.43c6.546-1.614,11.437-7.733,11.437-15.033C84.855,10.036,78.19,3.1,69.998,3.1z M69.998,29.024
					c-5.445,0-9.854-4.674-9.854-10.463c0-5.775,4.409-10.462,9.854-10.462c5.449,0,9.857,4.687,9.857,10.462
					C79.855,24.351,75.447,29.024,69.998,29.024z"/>
			</g>
		</g>
		<path fill="#211915" d="M30,60.417c-15.99,0-29,13.71-29,30.679C1,94.408,3.687,97,7,97h46c3.313,0,6-2.592,6-5.904
			C59,74.127,45.99,60.417,30,60.417z M7,91c0-13,10.299-24.773,23-24.773S53,78,53,91H7z"/>
		<g>
			<path d="M29.998,24.1c-8.19,0-14.854,6.937-14.854,15.462c0,7.3,4.89,13.419,11.436,15.033c1.1,0.271,2.241,0.43,3.419,0.43
				c1.179,0,2.32-0.159,3.421-0.43c2.662-0.657,5.049-2.051,6.945-3.977c1.189-1.208,2.176-2.624,2.925-4.187
				c0.994-2.072,1.567-4.4,1.567-6.87C44.855,31.036,38.19,24.1,29.998,24.1z M29.998,50.024c-5.445,0-9.854-4.674-9.854-10.463
				c0-5.775,4.409-10.462,9.854-10.462c5.449,0,9.857,4.687,9.857,10.462C39.855,45.351,35.447,50.024,29.998,50.024z"/>
		</g>
	</g>
</g>
</svg>
