<?xml version="1.0" encoding="utf-8"?>
<!-- Generator: Adobe Illustrator 16.0.0, SVG Export Plug-In . SVG Version: 6.00 Build 0)  -->
<!DOCTYPE svg PUBLIC "-//W3C//DTD SVG 1.1//EN" "http://www.w3.org/Graphics/SVG/1.1/DTD/svg11.dtd">
<svg version="1.1" xmlns="http://www.w3.org/2000/svg" xmlns:xlink="http://www.w3.org/1999/xlink" x="0px" y="0px" width="100px"
	 height="100px" viewBox="0 0 100 100" enable-background="new 0 0 100 100" xml:space="preserve">
<g id="Layer_3">
</g>
<g id="Your_Icon">
</g>
<g id="Layer_4">
	<g>
		<g>
			<path fill="#211915" d="M35.299,72.3H13.7c0-14,10.299-24.773,23-24.773c6.741,0,12.893,3.034,17.1,7.976l-0.005-8.055
				c-4.797-3.728-10.708-5.931-17.095-5.931c-15.99,0-29,13.811-29,30.779c0,3.312,2.687,6.004,6,6.004h21.599V72.3z"/>
		</g>
	</g>
	<g>
		<path d="M36.698,3.499c-8.577,0-15.555,7.25-15.555,16.162s6.978,16.164,15.555,16.164c8.578,0,15.558-7.252,15.558-16.164
			S45.276,3.499,36.698,3.499z M36.698,30.124c-5.445,0-9.854-4.674-9.854-10.463c0-5.775,4.409-10.461,9.854-10.461
			c5.449,0,9.857,4.686,9.857,10.461C46.556,25.45,42.147,30.124,36.698,30.124z"/>
	</g>
	<g>
		<g>
			<g>
				<g>
					<path d="M92,61H75V47.798V42.2l-4.963,0.002l-6.058,0.002L58,42.206V47.8V61H46.385H40v4.353v5.898V78h6.385H58v12.7V97h7.003
						h3.752H75.4l-0.002-4.826L75.4,78H92V61z M70,73v19h-7V73H45v-7h18V47.8l7-0.002V66h17v7H70z"/>
				</g>
			</g>
		</g>
	</g>
</g>
</svg>
