<?xml version="1.0" encoding="utf-8"?>
<!-- Generator: Adobe Illustrator 16.0.0, SVG Export Plug-In . SVG Version: 6.00 Build 0)  -->
<!DOCTYPE svg PUBLIC "-//W3C//DTD SVG 1.1//EN" "http://www.w3.org/Graphics/SVG/1.1/DTD/svg11.dtd">
<svg version="1.1" xmlns="http://www.w3.org/2000/svg" xmlns:xlink="http://www.w3.org/1999/xlink" x="0px" y="0px" width="100px"
	 height="100px" viewBox="0 0 100 100" enable-background="new 0 0 100 100" xml:space="preserve">
<g id="Layer_3" display="none">
</g>
<g id="Your_Icon">
</g>
<g id="Layer_4">
	<g>
		<path d="M19.665,20.011c-3.267,3.293-8.581,3.319-11.878,0.053c-3.297-3.263-3.318-8.58-0.055-11.875
			c3.269-3.295,8.581-3.318,11.88-0.057C22.907,11.398,22.928,16.718,19.665,20.011z"/>
		<path d="M13.7,11.702L13.7,11.702c0.369,0,1.08,0.091,1.688,0.692c0.939,0.931,0.946,2.454,0.017,3.392
			c-0.614,0.62-1.333,0.712-1.707,0.712c-0.368,0-1.077-0.09-1.69-0.698c-0.612-0.606-0.707-1.317-0.708-1.688
			c-0.002-0.371,0.086-1.085,0.692-1.697C12.607,11.794,13.326,11.702,13.7,11.702 M13.7,5.702c-2.162,0-4.323,0.83-5.968,2.487
			c-3.264,3.295-3.242,8.612,0.055,11.875c1.639,1.624,3.775,2.434,5.911,2.434c2.162,0,4.323-0.83,5.967-2.486
			c3.263-3.293,3.242-8.613-0.053-11.879C17.973,6.511,15.836,5.702,13.7,5.702L13.7,5.702z"/>
	</g>
	<g>
		<path d="M44.665,92.413c-3.267,3.293-8.581,3.319-11.878,0.053c-3.297-3.263-3.318-8.58-0.055-11.875
			c3.269-3.295,8.581-3.318,11.88-0.057C47.907,83.8,47.928,89.12,44.665,92.413z"/>
		<path d="M38.7,84.104L38.7,84.104c0.369,0,1.08,0.091,1.688,0.692c0.939,0.931,0.946,2.454,0.017,3.392
			c-0.614,0.619-1.333,0.712-1.707,0.712c-0.368,0-1.077-0.091-1.69-0.698c-0.612-0.606-0.707-1.317-0.708-1.688
			c-0.002-0.371,0.086-1.086,0.692-1.697C37.607,84.196,38.326,84.104,38.7,84.104 M38.7,78.104c-2.162,0-4.323,0.83-5.968,2.487
			c-3.264,3.295-3.242,8.612,0.055,11.875c1.639,1.624,3.775,2.434,5.911,2.434c2.162,0,4.323-0.83,5.967-2.486
			c3.263-3.293,3.242-8.613-0.053-11.879C42.973,78.913,40.836,78.104,38.7,78.104L38.7,78.104z"/>
	</g>
	<g>
		<path d="M50.551,46.361L38.785,72.93L19.928,22.535c-1.682,1.245-3.646,1.924-5.645,2.035l19.672,52.57
			c2.984-1.512,6.54-1.513,9.521,0.014l13.176-29.75C54.583,47.67,52.452,47.327,50.551,46.361z"/>
		<g>
			<path d="M61.267,42.913c-3.267,3.293-8.581,3.319-11.878,0.053c-3.297-3.263-3.318-8.58-0.055-11.875
				c3.269-3.295,8.581-3.318,11.88-0.057C64.509,34.3,64.529,39.62,61.267,42.913z"/>
			<path d="M55.302,34.604L55.302,34.604c0.369,0,1.08,0.091,1.688,0.692c0.939,0.931,0.946,2.454,0.017,3.392
				c-0.614,0.62-1.333,0.712-1.707,0.712c-0.368,0-1.077-0.09-1.69-0.698c-0.612-0.606-0.707-1.317-0.708-1.688
				c-0.002-0.371,0.086-1.085,0.692-1.697C54.209,34.696,54.928,34.604,55.302,34.604 M55.302,28.604
				c-2.162,0-4.323,0.83-5.968,2.487c-3.264,3.295-3.242,8.612,0.055,11.875c1.639,1.624,3.775,2.434,5.911,2.434
				c2.162,0,4.323-0.83,5.967-2.486c3.263-3.293,3.242-8.613-0.053-11.879C59.574,29.413,57.438,28.604,55.302,28.604L55.302,28.604
				z"/>
		</g>
	</g>
	<g>
		<path d="M92.667,81.912c-3.267,3.293-8.581,3.319-11.878,0.053c-3.297-3.263-3.318-8.58-0.055-11.875
			c3.269-3.295,8.581-3.318,11.88-0.057C95.909,73.299,95.93,78.619,92.667,81.912z"/>
		<path d="M86.702,73.603L86.702,73.603c0.369,0,1.08,0.091,1.688,0.692c0.939,0.931,0.946,2.454,0.017,3.392
			c-0.614,0.619-1.333,0.712-1.707,0.712c-0.368,0-1.077-0.091-1.69-0.698c-0.612-0.606-0.707-1.317-0.708-1.688
			c-0.002-0.371,0.086-1.086,0.692-1.697C85.609,73.695,86.328,73.603,86.702,73.603 M86.702,67.603
			c-2.162,0-4.323,0.83-5.968,2.487c-3.264,3.295-3.242,8.612,0.055,11.875c1.639,1.623,3.775,2.434,5.911,2.434
			c2.162,0,4.323-0.83,5.967-2.486c3.263-3.293,3.242-8.613-0.053-11.879C90.975,68.412,88.838,67.603,86.702,67.603L86.702,67.603z
			"/>
	</g>
	<g>
		<g>
			<path d="M89,65.663V35.08c-2,0.745-5,0.904-6,0.479v28.824L62.845,44.537c-1.611,1.561-3.722,2.5-5.79,2.824l21.779,21.772
				c0.154-0.177,0.521-0.357,0.688-0.526C82.034,66.075,85,65.096,89,65.663z"/>
		</g>
		<g>
			<path d="M91.268,31.41c-3.267,3.293-8.581,3.319-11.878,0.053c-3.297-3.263-3.318-8.58-0.055-11.875
				c3.269-3.295,8.581-3.318,11.88-0.057C94.51,22.796,94.53,28.117,91.268,31.41z"/>
		</g>
	</g>
</g>
</svg>
