<?xml version="1.0" encoding="utf-8"?>
<!-- Generator: Adobe Illustrator 16.0.0, SVG Export Plug-In . SVG Version: 6.00 Build 0)  -->
<!DOCTYPE svg PUBLIC "-//W3C//DTD SVG 1.1//EN" "http://www.w3.org/Graphics/SVG/1.1/DTD/svg11.dtd">
<svg version="1.1" xmlns="http://www.w3.org/2000/svg" xmlns:xlink="http://www.w3.org/1999/xlink" x="0px" y="0px" width="100px"
	 height="100px" viewBox="0 0 100 100" enable-background="new 0 0 100 100" xml:space="preserve">
<g id="Layer_3" display="none">
</g>
<g id="Your_Icon">
</g>
<g id="Layer_4">
	<g>
		<rect x="47" y="19" fill="#211915" width="6" height="62"/>
		<path d="M29.75,22.257L4.129,47.877C3.566,48.44,3.25,49.203,3.25,49.999c0,0.795,0.316,1.559,0.879,2.121L29.75,77.743
			l4.242-4.243l-23.5-23.501l23.5-23.499L29.75,22.257z"/>
		<path d="M95.871,47.877L70.25,22.257L66.008,26.5l23.5,23.499L66.008,73.5l4.242,4.243L95.871,52.12
			c0.562-0.562,0.879-1.326,0.879-2.121C96.75,49.203,96.434,48.44,95.871,47.877z"/>
	</g>
</g>
</svg>
