<?xml version="1.0" encoding="utf-8"?>
<!-- Generator: Adobe Illustrator 16.0.0, SVG Export Plug-In . SVG Version: 6.00 Build 0)  -->
<!DOCTYPE svg PUBLIC "-//W3C//DTD SVG 1.1//EN" "http://www.w3.org/Graphics/SVG/1.1/DTD/svg11.dtd">
<svg version="1.1" xmlns="http://www.w3.org/2000/svg" xmlns:xlink="http://www.w3.org/1999/xlink" x="0px" y="0px" width="100px"
	 height="100px" viewBox="0 0 100 100" enable-background="new 0 0 100 100" xml:space="preserve">
<g id="Layer_3">
</g>
<g id="Your_Icon">
</g>
<g id="Layer_4">
	<g>
		<path fill="#211915" d="M74.036,65.964l-1.415,1.415L62.055,56.812C67.009,50.904,70,43.296,70,35C70,16.252,54.748,1,36,1
			S2,16.252,2,35s15.252,34,34,34c8.296,0,15.904-2.991,21.812-7.945l10.566,10.566l-1.415,1.415l24.5,24.5l7.071-7.071
			L74.036,65.964z M8,35C8,19.533,20.534,7,36,7s28,12.533,28,28c0,15.459-12.534,28-28,28S8,50.459,8,35z"/>
		<rect x="23" y="32" fill="#211915" width="26" height="6"/>
	</g>
</g>
</svg>
