<?xml version="1.0" encoding="utf-8"?>
<!-- Generator: Adobe Illustrator 16.0.0, SVG Export Plug-In . SVG Version: 6.00 Build 0)  -->
<!DOCTYPE svg PUBLIC "-//W3C//DTD SVG 1.1//EN" "http://www.w3.org/Graphics/SVG/1.1/DTD/svg11.dtd">
<svg version="1.1" xmlns="http://www.w3.org/2000/svg" xmlns:xlink="http://www.w3.org/1999/xlink" x="0px" y="0px" width="100px"
	 height="100px" viewBox="0 0 100 100" enable-background="new 0 0 100 100" xml:space="preserve">
<g id="Layer_3" display="none">
</g>
<g id="Your_Icon">
</g>
<g id="Layer_4">
	<g>
		<path d="M69,92H8V31h24v-6H5c-1.657,0-3,1.343-3,3v67c0,1.657,1.343,3,3,3h67c1.657,0,3-1.343,3-3V70h-6V92z"/>
		<path d="M87.102,9.863l-36.627,0.428l0.07,6l29.264-0.341L30.742,65.016l4.242,4.242l49.067-49.067l-0.343,29.263l6,0.07
			l0.428-36.625c0.009-0.808-0.308-1.585-0.879-2.156C88.688,10.171,87.899,9.877,87.102,9.863z"/>
	</g>
</g>
</svg>
