<?xml version="1.0" encoding="utf-8"?>
<!-- Generator: Adobe Illustrator 16.0.0, SVG Export Plug-In . SVG Version: 6.00 Build 0)  -->
<!DOCTYPE svg PUBLIC "-//W3C//DTD SVG 1.1//EN" "http://www.w3.org/Graphics/SVG/1.1/DTD/svg11.dtd">
<svg version="1.1" xmlns="http://www.w3.org/2000/svg" xmlns:xlink="http://www.w3.org/1999/xlink" x="0px" y="0px" width="100px"
	 height="100px" viewBox="0 0 100 100" enable-background="new 0 0 100 100" xml:space="preserve">
<g id="Layer_3" display="none">
</g>
<g id="Your_Icon">
</g>
<g id="Layer_4">
	<g>
		<path fill="#211915" d="M50.053,81.052c-1.889-0.354-9.2-0.24-11.768-0.144c-1.128-2.468-0.988-11.947,0.37-21.171
			c0.133-0.898-0.149-1.809-0.766-2.475c-0.617-0.667-1.509-1.021-2.408-0.956l-7.974,0.55c2.311-6.507,6.191-18.281,6.191-23.987
			c0-13.849,16.521-24.935,30.201-24.935c16.025,0,28,13.065,28,25.065h3h3c0-17-15.888-31.065-34-31.065
			c-16.741,0-36.201,13.509-36.201,30.968c0,5.557-5.344,20.804-7.403,26.215c-0.364,0.957-0.216,2.023,0.394,2.846
			c0.609,0.821,1.604,1.278,2.616,1.202l8.924-0.618c-0.882,7.441-1.596,19.038,1.849,22.781c1.035,1.125,2.405,1.699,3.897,1.601
			c1.709-0.109,8.293-0.177,10.451-0.033c0.81,1.636,1.358,7.11,1.175,12.125l5.996,0.222c0.064-1.744,0.068-3.35,0.025-4.847
			C55.383,86.193,53.52,81.701,50.053,81.052z"/>
		<path fill="#211915" d="M57.301,29.393c-6.617,0-12,5.383-12,12s5.383,12,12,12s12-5.383,12-12S63.918,29.393,57.301,29.393z
			 M57.301,47.393c-3.314,0-6-2.686-6-6s2.686-6,6-6s6,2.686,6,6S60.615,47.393,57.301,47.393z"/>
	</g>
</g>
</svg>
