<?xml version="1.0" encoding="utf-8"?>
<!-- Generator: Adobe Illustrator 16.0.0, SVG Export Plug-In . SVG Version: 6.00 Build 0)  -->
<!DOCTYPE svg PUBLIC "-//W3C//DTD SVG 1.1//EN" "http://www.w3.org/Graphics/SVG/1.1/DTD/svg11.dtd">
<svg version="1.1" xmlns="http://www.w3.org/2000/svg" xmlns:xlink="http://www.w3.org/1999/xlink" x="0px" y="0px" width="100px"
	 height="100px" viewBox="0 0 100 100" enable-background="new 0 0 100 100" xml:space="preserve">
<g id="Layer_3" display="none">
</g>
<g id="Your_Icon">
</g>
<g id="Layer_4">
	<g>
		<polygon fill="none" points="80,35 68,35 32.02,35 32,35 20,35 8,35 8,92.699 92,92.609 92,35 80.02,35 		"/>
		<g>
			<path d="M92,15h-9.014l-0.007-8.104C82.979,5.242,81.636,4,79.979,4H68c-1.657,0-3,1.343-3,3v8H34.986l-0.007-8.104
				C34.979,5.242,33.636,4,31.979,4H20c-1.657,0-3,1.343-3,3v8H8c-3.313,0-6,2.887-6,6.2v71.499c0,1.593,0.633,3.27,1.76,4.396
				C4.885,98.219,6.41,99,8,99c0.002,0,0.004,0,0.007,0l84-0.24C95.317,98.756,98,95.921,98,92.609V21.2C98,17.887,95.313,15,92,15z
				 M71,10h5.982l0.015,19H71V10z M23,10h5.982l0.015,19H23V10z M92,92.609l-84,0.09V35h12h12h0.02H68h12h0.02H92V92.609z"/>
		</g>
	</g>
</g>
</svg>
