<?xml version="1.0" encoding="utf-8"?>
<!-- Generator: Adobe Illustrator 16.0.0, SVG Export Plug-In . SVG Version: 6.00 Build 0)  -->
<!DOCTYPE svg PUBLIC "-//W3C//DTD SVG 1.1//EN" "http://www.w3.org/Graphics/SVG/1.1/DTD/svg11.dtd">
<svg version="1.1" xmlns="http://www.w3.org/2000/svg" xmlns:xlink="http://www.w3.org/1999/xlink" x="0px" y="0px" width="100px"
	 height="100px" viewBox="0 0 100 100" enable-background="new 0 0 100 100" xml:space="preserve">
<g id="Layer_3" display="none">
</g>
<g id="Your_Icon">
</g>
<g id="Layer_4">
	<g>
		<rect x="43" y="33" fill="none" width="14" height="44"/>
		<rect x="6" y="9" fill="none" width="14" height="69"/>
		<rect x="80" y="61" fill="none" width="14" height="16"/>
		<rect y="91" width="100" height="6"/>
		<g>
			<path d="M23,3H3C1.343,3,0,4.343,0,6v75c0,1.657,1.343,3,3,3h20c1.657,0,3-1.343,3-3V6C26,4.343,24.657,3,23,3z M20,78H6V9h14V78
				z"/>
		</g>
		<g>
			<path d="M60,27H40c-1.657,0-3,1.343-3,3v51c0,1.657,1.343,3,3,3h20c1.657,0,3-1.343,3-3V30C63,28.343,61.657,27,60,27z M57,77H43
				V33h14V77z"/>
		</g>
		<g>
			<path d="M97,55H77c-1.657,0-3,1.343-3,3v23c0,1.657,1.343,3,3,3h20c1.657,0,3-1.343,3-3V58C100,56.343,98.657,55,97,55z M94,77
				H80V61h14V77z"/>
		</g>
	</g>
</g>
</svg>
