<?xml version="1.0" encoding="utf-8"?>
<!-- Generator: Adobe Illustrator 16.0.0, SVG Export Plug-In . SVG Version: 6.00 Build 0)  -->
<!DOCTYPE svg PUBLIC "-//W3C//DTD SVG 1.1//EN" "http://www.w3.org/Graphics/SVG/1.1/DTD/svg11.dtd">
<svg version="1.1" xmlns="http://www.w3.org/2000/svg" xmlns:xlink="http://www.w3.org/1999/xlink" x="0px" y="0px" width="100px"
	 height="100px" viewBox="0 0 100 100" enable-background="new 0 0 100 100" xml:space="preserve">
<g id="Layer_3">
</g>
<g id="Your_Icon">
</g>
<g id="Layer_4">
	<g>
		<path fill="#211915" d="M34.979,80.983c-3.622,3.622-9.403,3.738-13.125,0.299c-0.149-0.144-1.053-1.051-1.614-1.614l-0.458-0.459
			c-0.113-0.113-1.842-1.847-2.031-2.044c-3.473-3.758-3.357-9.539,0.264-13.16l13.082-13.081l-4.242-4.243L13.772,59.763
			c-5.909,5.908-6.097,15.341-0.433,21.469c0.116,0.126,2.076,2.096,2.209,2.229l0.443,0.444c0.625,0.627,1.651,1.653,1.754,1.75
			c2.985,2.759,6.752,4.13,10.514,4.13c3.967,0,7.929-1.525,10.962-4.559l13.082-13.08l-4.242-4.243L34.979,80.983z"/>
		
			<rect x="46.51" y="29.483" transform="matrix(-0.7071 -0.7071 0.7071 -0.7071 49.5288 119.4813)" fill="#211915" width="6" height="40"/>
		<path fill="#211915" d="M85.671,17.767c-0.08-0.087-0.143-0.157-2.016-2.021l-0.205-0.204c-0.611-0.611-2.053-2.051-2.213-2.196
			c-6.133-5.671-15.566-5.482-21.474,0.428L46.681,26.855l4.242,4.242l13.083-13.082c3.622-3.623,9.401-3.738,13.143-0.279
			c0.233,0.223,1.947,1.936,2.06,2.047l0.214,0.214c0.486,0.484,1.661,1.653,1.825,1.823c3.474,3.757,3.358,9.537-0.263,13.158
			L67.903,48.062l4.243,4.242l13.081-13.083C91.136,33.312,91.323,23.879,85.671,17.767z"/>
	</g>
</g>
</svg>
