<?xml version="1.0" encoding="utf-8"?>
<!-- Generator: Adobe Illustrator 16.0.0, SVG Export Plug-In . SVG Version: 6.00 Build 0)  -->
<!DOCTYPE svg PUBLIC "-//W3C//DTD SVG 1.1//EN" "http://www.w3.org/Graphics/SVG/1.1/DTD/svg11.dtd">
<svg version="1.1" xmlns="http://www.w3.org/2000/svg" xmlns:xlink="http://www.w3.org/1999/xlink" x="0px" y="0px" width="100px"
	 height="100px" viewBox="0 0 100 100" enable-background="new 0 0 100 100" xml:space="preserve">
<g id="Layer_3" display="none">
</g>
<g id="Your_Icon">
</g>
<g id="Layer_4">
	<g>
		<path fill="#FFFFFF" d="M66.105,27.098L61.088,14H38.758l-4.899,13.077C33.42,28.249,32.3,29,31.049,29H7v63.996l86-0.093V29
			H68.907C67.664,29,66.549,28.259,66.105,27.098z M50,81c-11.028,0-20-8.972-20-20s8.972-20,20-20s20,8.972,20,20S61.028,81,50,81z
			"/>
		<path d="M96,23H70.972L65.956,9.902C65.512,8.741,64.397,8,63.153,8H36.677c-1.251,0-2.372,0.751-2.81,1.923L28.968,23H4
			c-1.657,0-3,1.396-3,3.053v69.946c0,0.796,0.316,1.56,0.88,2.122C2.442,98.684,3.205,99,4,99c0.001,0,0.002,0,0.003,0l92-0.1
			c1.655-0.002,2.997-1.345,2.997-3V26.053C99,24.396,97.657,23,96,23z M93,92.903L7,92.996V29h24.049
			c1.251,0,2.372-0.751,2.81-1.923L38.758,14h22.331l5.017,13.098C66.549,28.259,67.664,29,68.907,29H93V92.903z"/>
		<g>
			<path fill="none" d="M50,47c-7.718,0-14,6.278-14,14s6.282,14,14,14s14-6.278,14-14S57.718,47,50,47z"/>
			<path d="M50,41c-11.028,0-20,8.972-20,20s8.972,20,20,20s20-8.972,20-20S61.028,41,50,41z M50,75c-7.718,0-14-6.278-14-14
				s6.282-14,14-14s14,6.278,14,14S57.718,75,50,75z"/>
		</g>
	</g>
</g>
</svg>
