<?xml version="1.0" encoding="utf-8"?>
<!-- Generator: Adobe Illustrator 16.0.0, SVG Export Plug-In . SVG Version: 6.00 Build 0)  -->
<!DOCTYPE svg PUBLIC "-//W3C//DTD SVG 1.1//EN" "http://www.w3.org/Graphics/SVG/1.1/DTD/svg11.dtd">
<svg version="1.1" xmlns="http://www.w3.org/2000/svg" xmlns:xlink="http://www.w3.org/1999/xlink" x="0px" y="0px" width="100px"
	 height="100px" viewBox="0 0 100 100" enable-background="new 0 0 100 100" xml:space="preserve">
<g id="Layer_3">
</g>
<g id="Your_Icon">
</g>
<g id="Layer_4">
	<g>
		<path fill="none" d="M84.971,35h-41c-1.108,0-2.126-0.654-2.647-1.632s-0.461-2.185,0.156-3.104
			c0.104-0.163,2.928-4.729-0.195-11.018c-0.61-1.229-1.103-1.234-1.339-1.234c-1.172,0-3.019,1.234-3.898,2.07
			c-0.09,0.086-0.193,0.173-0.294,0.246l-23.88,17.641c-3.861,4.112-4.038,14.888-3.774,18.738c0.009,0.138,0.009,0.278,0,0.416
			c-0.267,3.895-0.082,14.886,3.915,18.884c2.522,2.522,9.194,4.028,17.848,4.028c2.307,0,3.874-0.112,3.89-0.113
			c0.134-0.009,0.269-0.01,0.402-0.002c0.041,0.002,0.648,0.036,1.623,0.036c6.975-0.001,12.614-1.477,15.087-3.949
			c3.756-3.756,4.394-17.269,3.914-24.904c-0.052-0.827,0.24-1.595,0.808-2.199C56.151,48.299,56.943,48,57.771,48h27.199
			c1.155,0,7-0.363,7-6C91.971,35.196,85.688,35,84.971,35z"/>
		<path d="M84.971,29H48.323c0.692-3,0.797-7.432-1.666-12.391c-1.97-3.969-5.051-4.582-6.712-4.582
			c-3.727,0-7.065,2.824-7.897,3.588L8.11,33.293c-0.12,0.09-0.233,0.184-0.339,0.29C1.354,40,1.946,54.435,2.099,56.915
			c-0.152,2.48-0.744,16.917,5.673,23.335c4.781,4.782,14.651,5.785,22.09,5.785c2.082,0,3.607-0.083,4.133-0.116
			c0.303,0.014,0.927,0.037,1.782,0.037c5.088,0,14.365-0.699,19.329-5.664C60.633,74.766,61.024,60,60.89,54h24.081
			c0.322,0,3.23-0.082,6.231-1.433c4.364-1.964,6.769-5.71,6.769-10.589C97.971,32.44,90.196,29,84.971,29z M84.971,48H57.771
			c-0.828,0-1.62,0.299-2.187,0.903c-0.567,0.604-0.859,1.394-0.808,2.221c0.479,7.636-0.158,21.138-3.914,24.894
			c-2.473,2.473-8.112,3.943-15.087,3.943c-0.975,0-1.582-0.036-1.623-0.038c-0.134-0.008-0.269-0.009-0.402,0
			c-0.016,0.001-1.583,0.113-3.89,0.113c-8.653,0-15.325-1.507-17.848-4.029c-3.997-3.998-4.182-14.989-3.915-18.884
			c0.009-0.138,0.009-0.278,0-0.416c-0.264-3.851-0.087-14.627,3.774-18.738l23.88-17.642c0.101-0.073,0.204-0.162,0.294-0.247
			c0.88-0.837,2.727-2.074,3.898-2.074c0.236,0,0.729,0,1.339,1.229c3.123,6.291,0.299,10.845,0.195,11.008
			c-0.617,0.92-0.678,2.148-0.156,3.126S42.862,35,43.971,35h41c0.717,0,7,0.196,7,7C91.971,47.637,86.126,48,84.971,48z"/>
	</g>
</g>
</svg>
