<?xml version="1.0" encoding="utf-8"?>
<!-- Generator: Adobe Illustrator 16.0.0, SVG Export Plug-In . SVG Version: 6.00 Build 0)  -->
<!DOCTYPE svg PUBLIC "-//W3C//DTD SVG 1.1//EN" "http://www.w3.org/Graphics/SVG/1.1/DTD/svg11.dtd">
<svg version="1.1" xmlns="http://www.w3.org/2000/svg" xmlns:xlink="http://www.w3.org/1999/xlink" x="0px" y="0px" width="100px"
	 height="100px" viewBox="0 0 100 100" enable-background="new 0 0 100 100" xml:space="preserve">
<g id="Layer_3">
</g>
<g id="Your_Icon">
</g>
<g id="Layer_4">
	<g>
		<g>
			<path fill="#211915" d="M88.2,8.557v10.506c-0.018,0-0.036,0-0.054,0c-11.516-0.001-13.446,11.8-13.446,11.8v10.755h14v10h-14
				V91.6h-11V51.617h-15v-10h15V31.199C63.7,10.899,88.2,8.557,88.2,8.557 M88.201,2.557c-0.19,0-0.381,0.009-0.572,0.027
				c-0.297,0.028-7.343,0.735-14.404,4.336C63.213,12.025,57.7,20.647,57.7,31.199v4.418h-9c-3.313,0-6,2.687-6,6v10
				c0,3.313,2.687,6,6,6h9V91.6c0,3.313,2.687,6,6,6h11c3.313,0,6-2.687,6-6V57.617h8c3.313,0,6-2.687,6-6v-10c0-3.313-2.687-6-6-6
				h-8v-4.141c0.41-1.713,2.03-6.414,7.445-6.414c0.006,0,0.011,0,0.017,0c1.589,0,3.131-0.63,4.256-1.751
				c1.129-1.126,1.782-2.655,1.782-4.249V8.557c0-1.69-0.714-3.303-1.964-4.439C91.127,3.108,89.686,2.557,88.201,2.557
				L88.201,2.557z"/>
		</g>
	</g>
</g>
</svg>
