<?xml version="1.0" encoding="utf-8"?>
<!-- Generator: Adobe Illustrator 16.0.0, SVG Export Plug-In . SVG Version: 6.00 Build 0)  -->
<!DOCTYPE svg PUBLIC "-//W3C//DTD SVG 1.1//EN" "http://www.w3.org/Graphics/SVG/1.1/DTD/svg11.dtd">
<svg version="1.1" xmlns="http://www.w3.org/2000/svg" xmlns:xlink="http://www.w3.org/1999/xlink" x="0px" y="0px" width="100px"
	 height="100px" viewBox="0 0 100 100" enable-background="new 0 0 100 100" xml:space="preserve">
<g id="Layer_3">
</g>
<g id="Your_Icon">
</g>
<g id="Layer_4">
	<g>
		<path fill="#211915" d="M51.9,1.5c-18.748,0-34,16.149-34,36c0,17.926,26.092,54.12,29.067,58.416
			c1.121,1.618,2.964,2.584,4.933,2.584s3.812-0.966,4.933-2.584C59.808,91.62,85.9,55.426,85.9,37.5
			C85.9,17.649,70.647,1.5,51.9,1.5z M51.9,92.5c0,0-28-38.432-28-55c0-16.569,12.535-30,28-30s28,13.431,28,30
			C79.9,54.068,51.9,92.5,51.9,92.5z"/>
		<polygon fill="#211915" points="55,23 49,23 49,33 39,33 39,39 49,39 49,49 55,49 55,39 65,39 65,33 55,33 		"/>
	</g>
</g>
</svg>
