<?xml version="1.0" encoding="utf-8"?>
<!-- Generator: Adobe Illustrator 16.0.0, SVG Export Plug-In . SVG Version: 6.00 Build 0)  -->
<!DOCTYPE svg PUBLIC "-//W3C//DTD SVG 1.1//EN" "http://www.w3.org/Graphics/SVG/1.1/DTD/svg11.dtd">
<svg version="1.1" xmlns="http://www.w3.org/2000/svg" xmlns:xlink="http://www.w3.org/1999/xlink" x="0px" y="0px" width="100px"
	 height="100px" viewBox="0 0 100 100" enable-background="new 0 0 100 100" xml:space="preserve">
<g id="Layer_3">
</g>
<g id="Your_Icon">
</g>
<g id="Layer_4">
	<g>
		<path fill="none" d="M49.976,22c-5.075,0-10.214,1.381-14.833,4.273c-13.107,8.207-17.078,25.48-8.867,38.587
			C31.588,73.345,40.702,78,50.027,78c5.074,0,10.213-1.38,14.831-4.272c13.107-8.206,17.073-25.485,8.871-38.582
			C68.414,26.655,59.3,22,49.976,22z M62.101,59.372l-12.968-3.798C47.854,55.2,47,54.027,47,52.695V31h6v19.447l10.805,3.166
			L62.101,59.372z"/>
		<path fill="#211915" d="M50,16h-0.025c-6.367,0.001-12.598,1.795-18.017,5.188C24.26,26.008,18.9,33.536,16.867,42.386
			c-2.034,8.85-0.498,17.963,4.324,25.66C27.445,78.035,38.226,84,50.027,84c6.367,0,12.598-1.794,18.016-5.188
			c7.696-4.818,13.056-12.347,15.09-21.198c2.033-8.85,0.512-17.96-4.307-25.653C72.569,21.967,62,16,50,16z M64.858,73.728
			C60.24,76.62,55.102,78,50.027,78c-9.325,0-18.439-4.655-23.752-13.14c-8.211-13.106-4.24-30.38,8.867-38.587
			C39.762,23.381,44.9,22,49.976,22c9.324,0,18.438,4.655,23.754,13.146C81.932,48.242,77.966,65.521,64.858,73.728z"/>
		<path d="M53,31h-6v21.695c0,1.332,0.854,2.505,2.133,2.879l12.968,3.798l1.704-5.759L53,50.447V31z"/>
		<path fill="#211915" d="M18.992,29.757c2.887-4.555,6.688-8.327,11.3-11.214l2.543-1.592l-3.184-5.086l-2.543,1.592
			c-5.378,3.366-9.813,7.77-13.184,13.087l-1.606,2.534l5.068,3.212L18.992,29.757z"/>
		<path fill="#211915" d="M81.766,30.007l1.606,2.533l5.067-3.212l-1.605-2.534c-3.371-5.317-7.807-9.721-13.184-13.087
			l-2.543-1.592l-3.184,5.086l2.543,1.592C75.078,21.68,78.879,25.452,81.766,30.007z"/>
	</g>
</g>
</svg>
