<?xml version="1.0" encoding="utf-8"?>
<!-- Generator: Adobe Illustrator 16.0.0, SVG Export Plug-In . SVG Version: 6.00 Build 0)  -->
<!DOCTYPE svg PUBLIC "-//W3C//DTD SVG 1.1//EN" "http://www.w3.org/Graphics/SVG/1.1/DTD/svg11.dtd">
<svg version="1.1" xmlns="http://www.w3.org/2000/svg" xmlns:xlink="http://www.w3.org/1999/xlink" x="0px" y="0px" width="100px"
	 height="100px" viewBox="0 0 100 100" enable-background="new 0 0 100 100" xml:space="preserve">
<g id="Layer_3">
</g>
<g id="Your_Icon">
</g>
<g id="Layer_4">
	<g>
		<path fill="#211915" d="M92.218,13.622C87.476,6.867,79.68,2.993,70.829,2.993c-12.029,0-17.732,5.985-20.931,11.258
			C44.651,6.862,36.952,2.993,27.35,2.993c-8.244,0-15.442,3.518-19.748,9.651c-4.59,6.537-5.464,15.152-2.398,23.637
			c7.691,21.289,41.123,58.175,42.542,59.735C48.312,96.64,49.116,97,49.96,97c0.001,0,0.003,0,0.003,0
			c0.843,0,1.646-0.357,2.215-0.979c1.427-1.56,35.037-38.447,42.729-59.739C97.761,28.382,96.78,20.122,92.218,13.622z
			 M89.264,34.242c-6.191,17.14-31.596,46.569-39.294,55.25c-7.665-8.688-32.931-38.11-39.124-55.25
			c-2.392-6.62-1.784-13.236,1.666-18.151c3.214-4.578,8.483-7.099,14.838-7.099c9.195,0,15.926,4.286,20.004,12.737
			c0.501,1.037,1.551,1.696,2.702,1.696s2.201-0.659,2.702-1.696l0.201-0.418c2.498-5.199,5.919-12.319,17.87-12.319
			c6.869,0,12.875,2.944,16.478,8.076C90.731,21.947,91.444,28.206,89.264,34.242z"/>
	</g>
</g>
</svg>
