<?xml version="1.0" encoding="utf-8"?>
<!-- Generator: Adobe Illustrator 16.0.0, SVG Export Plug-In . SVG Version: 6.00 Build 0)  -->
<!DOCTYPE svg PUBLIC "-//W3C//DTD SVG 1.1//EN" "http://www.w3.org/Graphics/SVG/1.1/DTD/svg11.dtd">
<svg version="1.1" xmlns="http://www.w3.org/2000/svg" xmlns:xlink="http://www.w3.org/1999/xlink" x="0px" y="0px" width="100px"
	 height="100px" viewBox="0 0 100 100" enable-background="new 0 0 100 100" xml:space="preserve">
<g id="Layer_3" display="none">
</g>
<g id="Your_Icon">
</g>
<g id="Layer_4">
	<path d="M49.996,45.037c-3.379-1.525-7.074-2.38-10.946-2.38c-15.99,0-29,13.59-29,30.559c0,3.312,2.688,5.784,6,5.784H36v-0.738
		V73H16.05c0-13,10.299-24.373,23-24.373c2.313,0,4.546,0.355,6.651,1.04L49.996,45.037z"/>
	<path d="M39.048,3.971c-8.742,0-15.854,7.385-15.854,16.462c0,9.078,7.111,16.463,15.854,16.463
		c8.744,0,15.857-7.385,15.857-16.463C54.905,11.355,47.792,3.971,39.048,3.971z M39.048,30.896c-5.445,0-9.854-4.674-9.854-10.463
		c0-5.775,4.408-10.462,9.854-10.462c5.449,0,9.857,4.687,9.857,10.462C48.905,26.222,44.497,30.896,39.048,30.896z"/>
	<path fill="none" d="M59.191,96.029c0.049,0,0.097-0.008,0.146-0.012c-0.064,0.004-0.128,0.009-0.192,0.007
		C59.16,96.025,59.176,96.029,59.191,96.029z"/>
	<path d="M88.15,65.222l-6.921-0.697l4.538-5.556c0.649-0.796,0.592-1.954-0.135-2.68l-5.657-5.656
		c-0.094-0.094-0.195-0.176-0.302-0.247c-0.04-0.027-0.084-0.046-0.125-0.069c-0.069-0.04-0.138-0.08-0.21-0.111
		c-0.051-0.021-0.104-0.034-0.155-0.051c-0.067-0.022-0.134-0.046-0.202-0.061c-0.056-0.012-0.111-0.017-0.168-0.023
		c-0.067-0.009-0.135-0.018-0.202-0.02c-0.068-0.002-0.138,0.003-0.206,0.008c-0.046,0.004-0.092,0.005-0.137,0.012
		c-0.073,0.011-0.146,0.03-0.219,0.049c-0.041,0.012-0.082,0.019-0.123,0.032c-0.079,0.026-0.155,0.062-0.231,0.1
		c-0.032,0.015-0.064,0.025-0.095,0.043c-0.106,0.058-0.208,0.125-0.305,0.204l-5.624,4.595l-0.732-7.212
		c-0.105-1.02-0.964-1.919-1.989-1.919h-8c-1.025,0-1.884,0.899-1.989,1.919l-0.703,6.925l-5.304-4.311
		c-0.369-0.301-0.816-0.448-1.261-0.448c-0.515,0-1.028,0.197-1.417,0.586l-5.658,5.656c-0.037,0.037-0.064,0.079-0.099,0.118
		c-0.292,0.344-0.459,0.762-0.481,1.189c-0.006,0.124,0.001,0.266,0.018,0.413c0.051,0.34,0.185,0.671,0.415,0.955l4.479,5.527
		v0.002l-7.213,0.728c-1.023,0.104-1.787,0.963-1.787,1.99v8c0,1.027,0.777,1.887,1.8,1.99l7.138,0.719l-4.401,5.387
		c-0.649,0.796-0.592,1.953,0.135,2.68l5.656,5.657c0.095,0.095,0.196,0.176,0.303,0.248c0.036,0.023,0.074,0.039,0.111,0.061
		c0.073,0.043,0.147,0.086,0.225,0.118c0.046,0.02,0.094,0.031,0.14,0.047c0.072,0.024,0.145,0.049,0.219,0.064
		c0.051,0.011,0.102,0.015,0.153,0.021c0.072,0.01,0.145,0.02,0.217,0.021c0.064,0.002,0.128-0.003,0.192-0.007
		c0.05-0.004,0.101-0.006,0.149-0.013c0.07-0.011,0.139-0.028,0.207-0.047c0.044-0.011,0.09-0.02,0.134-0.034
		c0.076-0.025,0.149-0.061,0.223-0.095c0.034-0.017,0.07-0.028,0.104-0.047c0.105-0.058,0.207-0.125,0.304-0.203l5.332-4.355
		l0.672,6.619c0.105,1.02,0.964,1.919,1.989,1.919h7.75c0.126,0,0.249-0.014,0.369-0.039c0.838-0.181,1.5-0.957,1.613-1.83
		l0.892-7.029l5.369,4.365c0.369,0.301,0.812,0.448,1.258,0.448c0.514,0,1.019-0.197,1.406-0.586l5.463-5.48
		c0.355-0.355,0.519-0.814,0.55-1.285s-0.169-0.952-0.476-1.351l-4.194-5.271v-0.002l7.072-0.699
		c1.023-0.104,1.928-0.963,1.928-1.99v-8C89.95,66.185,89.173,65.325,88.15,65.222z M48.964,64.962H48.95v-0.018L48.964,64.962z
		 M85.95,73.403l-8.124,0.818c-0.735,0.074-1.369,0.547-1.649,1.23c-0.063,0.154-0.132,0.307-0.201,0.459
		c-0.156,0.338-0.212,0.705-0.172,1.062c0.04,0.356,0.176,0.702,0.403,0.997l4.824,6.255l-0.001,0.001l0.001,0.001L78.07,87.19
		l-6.146-4.991c-0.11-0.09-0.23-0.155-0.354-0.219c-0.035-0.018-0.071-0.019-0.107-0.035c-0.096-0.042-0.194-0.049-0.296-0.075
		c-0.036-0.009-0.072,0.033-0.109,0.025c-0.13-0.025-0.261,0.066-0.395,0.066c-0.004,0-0.007,0-0.011,0
		c-0.159,0-0.318-0.087-0.476-0.048c-0.068,0.018-0.137-0.067-0.204-0.043c-0.047,0.017-0.093,0.039-0.139,0.06l-0.161,0.074
		c-0.207,0.096-0.417,0.202-0.631,0.285c-0.067,0.035-0.134,0.104-0.196,0.145c-0.483,0.32-0.804,0.897-0.878,1.474l-1.024,8.054
		h-4.188l-0.805-7.91c-0.02-0.186-0.065-0.367-0.132-0.541c-0.009-0.022-0.023-0.043-0.032-0.065
		c-0.215-0.507-0.615-0.936-1.133-1.126c-0.116-0.043-0.229-0.103-0.344-0.157c-0.042-0.018-0.083-0.038-0.125-0.056
		c-0.681-0.283-1.46-0.186-2.033,0.281l-6.323,5.157l-3.099-3.103l0.002-0.002l-0.002-0.002l5.047-6.178
		c0.247-0.303,0.395-0.663,0.438-1.036c0.043-0.372-0.019-0.756-0.189-1.106c-0.022-0.047-0.041-0.094-0.063-0.141
		c-0.081-0.172-0.163-0.345-0.233-0.52c-0.279-0.686-0.915-1.162-1.652-1.236l-8.124-0.818v-4.383l8.031-0.809
		c0.766-0.077,1.419-0.587,1.681-1.311c0.102-0.281,0.21-0.562,0.332-0.836c0.308-0.688,0.201-1.491-0.274-2.077l-4.995-6.146
		l3.106-3.105l6.146,4.996c0.14,0.113,0.292,0.198,0.449,0.269c0.028,0.013,0.057,0.026,0.085,0.038
		c0.153,0.06,0.311,0.1,0.471,0.12c0.031,0.004,0.062,0.006,0.092,0.008c0.13,0.011,0.26,0.003,0.389-0.012
		c0.053-0.006,0.104-0.008,0.156-0.019c0.168-0.032,0.333-0.081,0.489-0.156c0.08-0.035,0.17-0.072,0.314-0.131
		c0.004-0.002,0.09-0.042,0.094-0.044l0.126-0.06c0.02-0.008,0.039-0.031,0.059-0.039c0.241-0.098,0.444-0.283,0.627-0.459
		c0.165-0.159,0.304-0.358,0.409-0.578c0.106-0.222,0.177-0.463,0.202-0.704l0.814-8.004h4.393l0.814,8.004
		c0.077,0.749,0.569,1.454,1.273,1.724c0.281,0.108,0.556,0.261,0.826,0.388c0.698,0.327,1.52,0.242,2.115-0.246l6.251-5.099
		l3.099,3.103l-0.002,0.002l0.002,0.002l-5.165,6.323c-0.352,0.431-0.503,0.979-0.436,1.516c0.022,0.179,0.069,0.356,0.142,0.527
		c0.095,0.223,0.179,0.45,0.258,0.681c0.255,0.734,0.914,1.257,1.689,1.335l7.937,0.8V73.403z"/>
	<circle cx="64.65" cy="71.162" r="5"/>
</g>
</svg>
