<?xml version="1.0" encoding="utf-8"?>
<!-- Generator: Adobe Illustrator 16.0.0, SVG Export Plug-In . SVG Version: 6.00 Build 0)  -->
<!DOCTYPE svg PUBLIC "-//W3C//DTD SVG 1.1//EN" "http://www.w3.org/Graphics/SVG/1.1/DTD/svg11.dtd">
<svg version="1.1" xmlns="http://www.w3.org/2000/svg" xmlns:xlink="http://www.w3.org/1999/xlink" x="0px" y="0px" width="100px"
	 height="100px" viewBox="0 0 100 100" enable-background="new 0 0 100 100" xml:space="preserve">
<g id="Layer_3">
</g>
<g id="Your_Icon">
</g>
<g id="Layer_4">
	<path d="M78.388,2H25.49c-1.623,0-3.135,1.316-3.135,2.938v8.816h5.878V7.878h47.02v5.877h5.878V4.938
		C81.131,3.316,80.012,2,78.388,2z"/>
	<path d="M22.355,13.755v15.458c0,2.608,1.827,6.407,14.649,14.816c3.465,2.273,6.938,4.323,9.468,5.791
		c-2.545,1.474-6.034,3.571-9.59,5.903C24.06,64.136,22.355,67.935,22.355,70.542v24.274c0,1.623,1.316,3.184,2.938,3.184h52.899
		c1.622,0,2.938-1.561,2.938-3.184V70.542c0-2.592-1.729-6.376-14.551-14.798c-3.47-2.279-6.899-4.337-9.429-5.81
		c2.546-1.478,5.966-3.583,9.529-5.923c12.82-8.422,14.451-12.206,14.451-14.798V13.755H22.355L22.355,13.755z M75.253,92.123
		h-47.02v-5.878h47.02V92.123z M75.253,70.64v9.729h-47.02v-9.734c0.749-2.624,11.314-10.257,23.508-17.033
		C63.917,60.389,74.481,68.022,75.253,70.64L75.253,70.64z M75.253,29.117c-0.979,2.618-11.336,10.25-23.512,17.039
		c-12.193-6.773-22.529-14.406-23.508-17.033v-9.489h47.02V29.117z"/>
</g>
</svg>
