<?xml version="1.0" standalone="no"?>
<!DOCTYPE svg PUBLIC "-//W3C//DTD SVG 1.1//EN" "http://www.w3.org/Graphics/SVG/1.1/DTD/svg11.dtd" >
<svg xmlns="http://www.w3.org/2000/svg">
<metadata>Generated by IcoMoon</metadata>
<defs>
<font id="eadiconos" horiz-adv-x="1024">
<font-face units-per-em="1024" ascent="960" descent="-64" />
<missing-glyph horiz-adv-x="1024" />
<glyph unicode="&#x20;" d="" horiz-adv-x="512" />
<glyph unicode="&#xe600;" d="M419.83 258.56c0-42.415-34.385-76.8-76.8-76.8s-76.8 34.385-76.8 76.8c0 42.415 34.385 76.8 76.8 76.8 42.415 0 76.8-34.385 76.8-76.8zM235.203 535.634l0.635-71.68c79.636 0.901 155.269-30.29 212.306-87.327 57.221-57.211 89.139-133.734 89.866-215.47l71.68 0.635c-0.901 100.649-40.284 194.949-110.868 265.523-70.738 70.738-164.854 109.281-263.619 108.319zM942.080 780.8c0 48.067-38.973 87.040-87.040 87.040h-686.080c-48.067 0-87.040-38.973-87.040-87.040v-675.84c0-48.067 38.973-87.040 87.040-87.040h686.080c48.067 0 87.040 38.973 87.040 87.040v675.84zM870.4 104.96c0-8.489-6.881-15.36-15.36-15.36h-686.080c-8.479 0-15.36 6.871-15.36 15.36v675.84c0 8.489 6.881 15.36 15.36 15.36h686.080c8.479 0 15.36-6.871 15.36-15.36v-675.84zM236.012 699.843l0.635-71.68c1.413 0.010 2.796 0.020 4.198 0.020 121.508 0 236.042-47.677 322.908-134.543 88.054-88.033 137.175-205.763 138.301-331.489l71.68 0.635c-1.3 144.64-57.856 280.125-159.293 381.532-101.581 101.571-236.38 156.631-378.429 155.525z" />
<glyph unicode="&#xe601;" d="M752.64 867.84h-501.76c-19.794 0-35.84-16.046-35.84-35.84v-773.12c0-14.172 8.346-27.013 21.299-32.758 4.669-2.068 9.615-3.082 14.531-3.082 8.724 0 17.326 3.185 24.064 9.257l221.164 200.090 233.708-193.239c10.691-8.837 25.549-10.742 38.103-4.813 12.564 5.919 20.582 18.555 20.582 32.43v765.235c-0.010 19.794-16.056 35.84-35.85 35.84zM716.8 142.909l-198.932 164.485c-13.711 11.336-33.669 10.906-46.879-1.044l-184.269-166.707v656.517h430.080v-653.251z" />
<glyph unicode="&#xe602;" d="M899.195 667.853l-173.363 171.52c-6.707 6.738-15.831 7.987-25.344 7.987-0.020 0-0.031 0-0.051 0-9.503 0-18.606-1.208-25.334-7.916l-563.907-561.92c-6.062-6.052-9.748-13.435-10.404-21.975l-15.36-199.363c-0.809-10.455 3.011-20.582 10.445-27.986 6.738-6.707 15.852-10.363 25.293-10.363 0.963 0 1.925 0.082 2.898 0.164l189.44 15.38c8.581 0.686 16.63 4.475 22.671 10.619l10.537 10.742c4.086 1.516 7.424 4.772 9.001 9.001 0.031 0.072 0.020 0.143 0.051 0.215l543.611 553.492c13.763 14.008 13.681 36.485-0.184 50.401zM311.255 120.924l-128.266 128.256 403.487 402.985 124.385-124.375-399.606-406.866zM169.82 218.911l115.855-115.855-125.553-10.179 9.697 126.034zM608.215 673.884l14.131 14.111 124.037-124.037-13.998-14.244-124.17 124.17zM767.898 585.871l-123.822 123.832 56.289 56.218 123.034-123.546-55.501-56.504z" />
<glyph unicode="&#xe603;" d="M849.92 744.96h-61.44v112.64c0 19.794-10.926 30.72-30.72 30.72h-481.28c-19.794 0-40.96-10.926-40.96-30.72v-112.64h-71.68c-47.995 0-92.16-33.925-92.16-81.92v-399.36c0-47.995 44.165-92.16 92.16-92.16h71.68v-112.64c0-19.794 21.166-40.96 40.96-40.96h481.28c19.794 0 30.72 21.166 30.72 40.96v112.64h61.44c47.995 0 81.92 44.165 81.92 92.16v399.36c0 47.995-33.925 81.92-81.92 81.92zM860.16 263.68c0-8.325-1.915-20.48-10.24-20.48h-61.44v112.64c0 19.794-10.926 30.72-30.72 30.72h-481.28c-19.794 0-40.96-10.926-40.96-30.72v-112.64h-71.68c-8.325 0-20.48 12.155-20.48 20.48v399.36c0 8.325 12.155 10.24 20.48 10.24h686.080c8.325 0 10.24-1.915 10.24-10.24v-399.36zM307.2 89.6v225.28h409.6v-225.28h-409.6zM307.2 816.64h409.6v-61.44h-409.6v61.44zM245.76 611.84h133.12v-40.96h-133.12v40.96z" />
<glyph unicode="&#xe604;" d="M798.72 729.6c0 8.479-6.881 15.36-15.36 15.36h-122.88c-8.479 0-15.36-6.881-15.36-15.36v-696.32c0-8.479 6.881-15.36 15.36-15.36h122.88c8.479 0 15.36 6.881 15.36 15.36v696.32zM583.68 463.36c0 8.479-6.881 15.36-15.36 15.36h-122.88c-8.479 0-15.36-6.881-15.36-15.36v-430.080c0-8.479 6.881-15.36 15.36-15.36h122.88c8.479 0 15.36 6.881 15.36 15.36v430.080zM378.88 309.76c0 8.479-6.881 15.36-15.36 15.36h-122.88c-8.479 0-15.36-6.881-15.36-15.36v-276.48c0-8.479 6.881-15.36 15.36-15.36h122.88c8.479 0 15.36 6.881 15.36 15.36v276.48z" />
<glyph unicode="&#xe605;" d="M836.577 815.954c-68.762 68.065-176.2 77.353-256.041 21.709-7.629-5.304-21.842-15.165-69.888-63.232l-76.708-86.692c-13.097-14.828-11.715-37.478 3.133-50.586 14.797-13.076 37.458-11.725 50.586 3.133l74.455 84.244c42.885 42.854 54.405 50.852 59.996 54.743 50.883 35.471 119.869 29.471 164.045-14.254 43.827-43.387 50.76-111.585 16.66-162.775-14.254-16.374-147.64-152.115-163.103-167.711-24.197-24.443-56.463-37.734-90.849-37.734-0.225 0-0.451 0-0.686 0-34.13 0-66.263 12.769-90.522 36.803-14.060 13.916-36.751 13.609-50.688-0.471-13.916-14.070-13.814-36.434 0.246-50.36 37.786-37.417 87.808-57.651 140.954-57.651 0.358 0 0.717 0 1.065 0 53.545 0 103.762 20.941 141.404 58.962 1.597 1.608 162.017 164.157 170.639 176.855 54.456 79.831 44.073 186.952-24.699 255.017zM478.177 241.459l-74.086-77.65c-45.988-45.773-60.713-56.248-60.815-56.33-50.893-35.471-119.9-29.501-164.076 14.244-43.837 43.407-50.76 111.616-16.66 162.775 14.264 16.374 148.48 152.494 163.113 167.229 24.177 24.433 56.433 37.233 90.829 37.233 0.215 0 0.451 0 0.666 0 34.14 0 66.273-12.278 90.563-36.321 14.049-13.937 36.751-13.343 50.678 0.727s13.814 36.055-0.256 49.981c-37.806 37.427-87.828 57.293-140.974 57.293-0.348 0-0.696 0-1.055 0-53.535 0-103.762-20.449-141.373-58.46-1.587-1.597-161.946-163.84-170.65-176.62-54.456-79.8-44.093-186.921 24.678-255.007 38.748-38.359 89.774-57.938 141.117-57.938 39.803 0 79.8 11.889 114.422 36.035 5.786 4.055 24.248 18.452 71.004 65.004l74.742 78.326c13.66 14.305 13.128 36.997-1.188 50.668-14.326 13.65-37.018 13.128-50.678-1.188z" />
<glyph unicode="&#xe606;" d="M942.080 657.92c0 48.067-38.973 87.040-87.040 87.040h-686.080c-48.067 0-87.040-38.973-87.040-87.040v-552.96c0-48.067 38.973-87.040 87.040-87.040h686.080c48.067 0 87.040 38.973 87.040 87.040v552.96zM153.6 110.080v421.734l218.767-193.454-216.893-232.202c-0.348 1.27-1.874 2.56-1.874 3.922zM405.463 308.48l92.877-81.818c3.891-3.482 8.776-4.577 13.66-4.577s9.769 2.058 13.66 5.54l114.381 102.502-19.64-22.118 215.921-218.409h-631.736l200.878 218.88zM644.762 339.077l225.638 201.892v-427.53l-225.638 225.638zM174.080 673.28h686.080c8.325 0 10.24-1.915 10.24-10.24v-67.103l-363.52-325.253-353.28 316.088v76.268c0 8.325 12.155 10.24 20.48 10.24z" />
<glyph unicode="&#xe607;" d="M784.179 867.84h-395.059v3.738c0-0.082-1.311-0.051-0.901-0.164 5.745-1.567 8.98-8.376 10.004-14.244l9.155-61.010h376.801c8.325 0 14.541-2.898 14.541-11.233v-675.84c0-8.325-6.205-19.487-14.541-19.487h-542.72c-8.325 0-16.179 11.162-16.179 19.487v483.676l-55.941 0.102c-5.99 0.010-11.223 4.004-13.722 9.441-1.341 2.877-1.423 9.533-0.911 9.533h-1.106v-502.753c0-47.985 39.875-91.167 87.859-91.167h542.72c47.995 0 86.221 43.182 86.221 91.167v675.84c0 47.995-38.226 82.913-86.221 82.913zM155.822 601.805c2.509-5.437 7.936-8.929 13.926-8.94l56.351-0.625 199.127-0.881c0.010 0 0.020 0 0.031 0 4.526 0 8.827 2.519 11.745 5.98s4.157 8.315 3.379 12.78l-33.014 190.044-10.24 59.023c-1.024 5.857-5.335 10.639-11.069 12.206-0.41 0.113-0.829 0.092-1.249 0.174-5.366 1.004-10.906-0.788-14.49-4.977l-212.224-248.392c-1.823-2.14-2.918-4.69-3.389-7.352-0.512-3.011-0.215-6.154 1.116-9.042z" />
<glyph unicode="&#xe608;" d="M901.12 345.6h-183.685c-1.26 0-2.785-5.192-4.71-7.506l-53.146-64.174h200.581v-194.56h-706.56v194.56h231.823l-54.313 63.795c-2.058 2.427-3.707 7.885-5.038 7.885h-203.192c-19.794 0-40.96-10.926-40.96-30.72v-266.24c0-19.794 21.166-40.96 40.96-40.96h778.24c19.794 0 30.72 21.166 30.72 40.96v266.24c0 19.794-10.926 30.72-30.72 30.72zM510.638 250.409c3.901-4.577 9.605-7.209 15.606-7.209 0.051 0 0.092 0 0.143 0 6.052 0.041 11.766 2.765 15.626 7.424l251.996 304.312c5.059 6.113 6.144 16.026 2.765 23.224-3.379 7.178-10.598 13.199-18.534 13.199h-194.56v276.48h-133.12v-276.48h-183.347c-7.987 0-15.237-6.083-18.586-13.332s-2.181-16.497 2.99-22.579l259.021-305.039z" />
<glyph unicode="&#xe609;" d="M696.31 299.52c-43.53 0-82.606-18.944-109.793-48.876l-163.215 118.692c7.639 17.879 11.899 37.54 11.899 58.184 0 26.614-7.127 51.548-19.436 73.175l165.253 120.177c27.238-33.577 68.792-55.122 115.302-55.122 81.869 0.010 148.48 66.621 148.48 148.49s-66.611 148.48-148.49 148.48c-81.869 0-148.47-66.611-148.47-148.48 0-20.644 4.26-40.305 11.899-58.184l-168.909-122.839c-26.819 26.419-63.58 42.783-104.12 42.783-81.869 0-148.47-66.611-148.47-148.48s66.601-148.48 148.47-148.48c46.52 0 88.074 21.545 115.313 55.122l161.382-117.361c-9.871-19.855-15.565-42.127-15.565-65.761 0-81.869 66.601-148.48 148.47-148.48 81.879 0 148.49 66.611 148.49 148.48s-66.611 148.48-148.49 148.48zM696.31 791.040c42.353 0 76.81-34.447 76.81-76.8s-34.458-76.8-76.81-76.8c-42.342 0-76.79 34.447-76.79 76.8s34.447 76.8 76.79 76.8zM286.71 350.72c-42.342 0-76.79 34.447-76.79 76.8s34.447 76.8 76.79 76.8c42.353 0 76.81-34.447 76.81-76.8s-34.458-76.8-76.81-76.8zM696.31 74.24c-42.342 0-76.79 34.447-76.79 76.8s34.447 76.8 76.79 76.8c42.353 0 76.81-34.447 76.81-76.8s-34.458-76.8-76.81-76.8z" />
<glyph unicode="&#xe60a;" d="M788.47 478.72h-552.94c-42.353 0-76.81 26.86-76.81 61.44s34.458 61.44 76.81 61.44h552.94c81.879 0 148.49 59.013 148.49 133.12s-66.611 133.12-148.49 133.12h-174.070c-19.794 0-35.84-16.046-35.84-35.84s16.046-35.84 35.84-35.84h174.070c42.353 0 76.81-26.86 76.81-61.44s-34.458-61.44-76.81-61.44h-552.94c-81.879 0-148.49-59.013-148.49-133.12s66.611-133.12 148.49-133.12h552.94c42.353 0 76.81-26.86 76.81-61.44s-34.458-61.44-76.81-61.44h-552.94c-81.879 0-148.49-64.133-148.49-138.24s66.611-138.24 148.49-138.24h184.31v71.68h-184.31c-42.353 0-76.81 31.98-76.81 66.56s34.458 66.56 76.81 66.56h552.94c81.879 0 148.49 59.013 148.49 133.12s-66.611 133.12-148.49 133.12z" />
<glyph unicode="&#xe60b;" d="M808.96 826.88c0 8.581-5.356 16.261-13.414 19.22s-17.121 0.594-22.671-5.96c-54.671-64.297-148.296-154.399-187.771-156.436-12.841-24.443-38.441-41.144-67.994-41.144-30.515 0-56.812 17.859-69.192 43.663-44.001 15.032-126.382 95.191-176.323 153.917-5.55 6.543-14.612 8.909-22.671 5.96-8.049-2.959-13.404-10.639-13.404-19.22 0-91.259 117.504-198.349 163.84-237.046v-530.954c0-10.076 7.332-18.647 17.275-20.234 10.004-1.567 19.569 4.321 22.692 13.896l77.496 238.377 88.617-239.155c3.011-8.141 10.762-13.363 19.19-13.363 1.198 0 2.406 0.102 3.625 0.317 9.769 1.751 16.865 10.25 16.865 20.163v530.954c46.336 38.697 163.84 145.787 163.84 237.046zM517.11 878.080c-53.627 0-97.27-43.643-97.27-97.28 0-22.467 7.731-43.121 20.572-59.607 17.818-22.876 45.527-37.673 76.698-37.673 31.181 0 58.9 14.797 76.718 37.673 12.841 16.486 20.572 37.14 20.572 59.607 0 53.637-43.643 97.28-97.29 97.28z" />
<glyph unicode="&#xe60c;" d="M798.72 688.271v153.969c0 19.794-16.046 35.84-35.84 35.84h-501.76c-19.794 0-35.84-16.046-35.84-35.84v-153.969c0-7.025 2.068-13.885 5.939-19.753l148.951-225.485-148.756-220.375c-4.004-5.919-6.134-12.902-6.134-20.050v-148.849c0-19.794 16.046-35.84 35.84-35.84h501.76c19.794 0 35.84 16.046 35.84 35.84v148.849c0 7.148-2.13 14.131-6.134 20.050l-148.746 220.385 148.951 225.485c3.86 5.847 5.929 12.718 5.929 19.743zM727.040 699.044l-152.781-231.291c-4.024-6.093-5.919-12.964-5.908-19.753 0-1.7 0.236-3.369 0.471-5.048-0.256-1.72-0.502-3.451-0.502-5.192-0.010-6.912 1.976-13.885 6.134-20.050l152.586-226.058v-102.052h-430.080v102.052l152.586 226.058c4.157 6.164 6.144 13.138 6.134 20.050 0 1.741-0.246 3.471-0.502 5.192 0.236 1.679 0.471 3.348 0.471 5.048 0 6.789-1.884 13.66-5.908 19.753l-152.781 231.291v107.356h430.080v-107.356zM493.937 489.216c3.707-6.164 10.373-10.496 17.551-10.496 0.113 0 0.225 0 0.348 0 7.311 0 14.008 4.71 17.562 11.1l113.142 204.227c3.523 6.349 3.43 14.080-0.246 20.337-3.686 6.257-10.404 10.097-17.654 10.097h-235.52c-7.383 0-14.193-4.106-17.828-10.537-3.635-6.42-3.533-14.438 0.266-20.777l122.378-203.95zM399.913 254.054l-38.4-61.44c-3.953-6.308-4.157-14.275-0.553-20.777 3.615-6.513 10.476-10.557 17.92-10.557h266.24c0.072 0.010 0.143 0.010 0.205 0 11.305 0 20.48 9.175 20.48 20.48 0 4.946-1.751 9.482-4.68 13.015l-37.048 59.269c-3.727 6.001-10.301 9.636-17.357 9.636h-189.44c-7.055 0-13.629-3.635-17.367-9.626z" />
<glyph unicode="&#xe60d;" d="M506.88 862.72c-231.496 0-419.84-188.344-419.84-419.84s188.344-419.84 419.84-419.84 419.84 188.344 419.84 419.84-188.344 419.84-419.84 419.84zM506.88 94.72c-191.98 0-348.16 156.18-348.16 348.16s156.18 348.16 348.16 348.16 348.16-156.18 348.16-348.16-156.18-348.16-348.16-348.16zM486.41 705.28l-67.41-24.381 83.671-231.434-185.436-1.065 0.41-71.68 236.186 1.362c11.643 0.072 22.528 5.786 29.194 15.34s8.274 21.74 4.311 32.676l-100.925 279.183z" />
<glyph unicode="&#xe60e;" d="M777.103 553.052c-52.275 146.186-213.74 222.618-359.997 170.353-34.406-12.319-65.536-30.781-92.539-54.845-5.263-4.69-8.735-10.609-10.527-16.927l46.182-43.653c4.321 1.505 8.438 3.85 12.063 7.076 20.091 17.92 43.305 31.672 68.977 40.858 108.995 38.963 229.376-18.012 268.349-126.986 38.963-109.005-18.002-229.376-126.986-268.349-108.984-38.963-229.376 18.002-268.36 126.986-6.656 18.637-27.167 28.324-45.814 21.678-18.637-6.666-28.344-27.177-21.678-45.824 41.114-114.985 149.78-186.798 265.452-186.798 31.396 0 63.314 5.294 94.536 16.445 146.186 52.285 222.607 213.77 170.342 359.987zM236.001 725.402c-4.444 4.209-10.967 5.356-16.62 2.949-5.632-2.417-9.288-7.967-9.288-14.1l-0.174-204.8c0-4.506 1.976-8.796 5.427-11.735 2.796-2.365 6.318-3.635 9.933-3.635 0.84 0 1.69 0.072 2.529 0.215l184.32 30.72c5.755 0.963 10.465 5.089 12.165 10.67 1.71 5.581 0.102 11.643-4.137 15.636l-184.156 174.080z" />
<glyph unicode="&#xe60f;" d="M865.28 744.96h-30.73c-2.468 40.96-9.196 76.012-25.528 94.689-11.52 13.148-32.532 20.9-56.218 20.9-22.61 0-42.875-7.127-55.593-19.845-18.248-18.248-25.283-54.784-27.525-95.744h-285.706c-2.468 40.96-9.185 76.012-25.528 94.669-11.52 13.169-32.532 20.92-56.218 20.92-22.61 0-42.885-7.127-55.603-19.866-18.237-18.227-25.272-54.764-27.505-95.724h-39.926c-48.005 0-87.040-39.485-87.040-87.48v-563.2c0-47.985 39.035-86.6 87.040-86.6h686.080c47.995 0 87.040 38.615 87.040 86.6v563.2c0 47.995-39.045 87.48-87.040 87.48zM275.599 811.919c4.884 4.884 15.34 7.803 26.644 7.803 13.261 0 22.825-3.758 25.385-6.687 12.728-14.551 17.971-78.316 16.323-129.516h-84.040c-2.437 51.2 2.365 115.077 15.688 128.399zM726.159 811.93c4.874 4.874 15.329 7.793 26.634 7.793 13.271 0 22.835-3.758 25.385-6.666 12.739-14.561 17.981-78.336 16.333-129.536h-84.040c-2.437 51.2 2.365 115.077 15.688 128.41zM865.28 79.36h-686.080c-8.325 0-15.36 6.595-15.36 14.92v466.36h716.8v-466.36c0-8.325-7.035-14.92-15.36-14.92zM466.76 314.378c-6.103 6.564-13.036 12.022-21.053 16.364-8.028 4.321-15.626 7.619-25.866 9.861v1.925c20.48 6.42 30.034 15.565 40.305 27.443 10.26 11.858 15.34 27.095 15.34 45.722 0 12.524-2.284 23.583-6.769 33.198-4.495 9.636-10.844 17.736-19.026 24.32-8.182 6.564-17.9 11.622-29.123 15.155-11.233 3.523-23.583 5.284-37.059 5.284-18.289 0-34.58-3.604-48.855-10.824-14.285-7.219-27.361-16.435-39.229-27.679l21.176-25.016c9.308 9.298 19.323 16.845 30.085 22.62 10.742 5.775 22.538 8.663 35.379 8.663 16.364 0 29.276-4.342 38.738-13.005s14.203-20.541 14.203-35.604c0-8.038-1.444-15.575-4.332-22.62-2.888-7.055-7.782-13.158-14.684-18.299-6.902-5.14-15.749-9.144-26.808-12.022-11.080-2.908-20.541-4.342-41.021-4.342v-30.321c20.48 0 33.546-1.444 46.060-4.342 12.513-2.877 22.548-7.055 30.249-12.503 7.7-5.458 13.199-11.96 16.568-19.497s5.038-15.8 5.038-24.781c0-17.316-5.949-31.037-17.818-41.165-11.868-10.097-27.116-15.155-45.722-15.155-18.289 0-33.618 3.697-45.967 11.080-12.36 7.383-23.183 15.882-32.492 25.498l-20.214-25.979c5.12-5.775 10.988-11.244 17.562-16.364 6.574-5.14 14.029-9.718 22.385-13.722 8.335-4.024 17.562-7.219 27.679-9.636 10.107-2.396 21.248-3.604 33.444-3.604 14.111 0 27.269 1.997 39.465 6.021 12.186 4.004 22.866 9.779 32 17.316 9.144 7.537 16.364 16.763 21.658 27.679 5.294 10.895 7.936 23.101 7.936 36.577 0 10.578-1.69 20.204-5.059 28.856-3.348 8.694-8.090 16.323-14.172 22.897zM696.32 488.96h-32.246c-8.346-10.24-15.206-10.097-25.62-13.783-10.435-3.697-24.054-7.352-34.294-9.912v-27.505h51.2v-225.28h-71.68v-30.72h174.080v30.72h-61.44v276.48z" />
<glyph unicode="&#xe610;" d="M692.070 431.145c7.301 71.721-40.11 114.309-89.313 146.944-2.765 4.372-6.4 8.274-11.059 11.213-9.718 6.144-20.122 11.192-30.925 15.206-2.785 1.731-5.591 3.43-8.346 5.181-0.031 0.020-0.061 0.031-0.092 0.041-0.113 0.082-0.205 0.174-0.307 0.236-6.584 4.024-13.24 7.977-19.886 11.93-57.088 33.905-91.914 56.73-88.433 97.065 4.526 52.541 51.22 91.576 103.916 87.071 26.941-2.314 50.934-15.278 67.564-36.536 12.206-15.585 34.734-18.309 50.319-6.144 15.585 12.196 18.33 34.734 6.144 50.319-28.621 36.567-71.588 59.812-117.903 63.785-92.14 7.967-173.537-60.447-181.463-152.33-4.905-57.037 24.453-95.13 61.624-124.375-53.965-24.013-93.604-75.766-99-138.506-5.847-67.922 36.844-109.015 83.528-140.216 2.458-3.994 5.734-7.557 9.789-10.445 12.933-9.175 27.146-16.343 42.117-21.504 2.079-1.249 4.188-2.488 6.257-3.748 0.061-0.041 0.102-0.092 0.164-0.133 6.523-4.116 13.128-8.192 19.722-12.237 56.535-34.775 90.993-58.132 86.866-98.427-5.345-52.46-52.48-90.86-105.267-85.412-26.921 2.734-50.708 16.077-66.99 37.581-11.95 15.759-34.406 18.883-50.207 6.932-15.78-11.95-18.883-34.427-6.932-50.207 28.017-36.997 70.615-60.908 116.879-65.618 5.775-0.604 11.5-0.891 17.162-0.891 84.89 0.010 157.911 64.297 166.666 150.333 5.919 58.051-24.044 96.973-61.727 127.007 53.248 23.593 92.815 74.045 99.133 135.885zM620.759 438.405c-5.366-52.46-52.695-90.839-105.298-85.443-5.386 0.553-10.65 1.7-15.831 3.123-1.618 0.963-3.215 1.935-4.844 2.898-57.108 33.905-91.945 56.73-88.463 97.075 4.506 52.552 51.323 91.658 103.895 87.081 6.81-0.594 13.373-1.966 19.732-3.881 1.311-0.799 2.601-1.618 3.901-2.417 56.556-34.785 91.003-58.143 86.907-98.437z" />
<glyph unicode="&#xe611;" d="M778.24 857.6h-240.333c-146.975 0-266.547-91.607-266.547-207.36 0-106.086 100.475-191.427 230.4-205.384v-437.176h71.68v467.958c0.092 1.044 0.307 2.028 0.307 3.082s-0.215 2.038-0.307 3.082v304.118h71.68v-778.24h71.68v778.24h61.44c19.794 0 35.84 16.046 35.84 35.84s-16.046 35.84-35.84 35.84z" />
<glyph unicode="&#xe612;" d="M938.752 872.079c-7.731 9.155-19.487 13.793-31.437 12.503-39.342-4.475-387.041-46.162-481.495-130.775-79.124-70.871-104.929-169.226-69.079-263.148 13.691 10.22 33.106 9.533 45.978-2.601 14.387-13.588 15.053-36.27 1.475-50.668-4.024-4.26-7.731-7.997-11.295-11.489 45.24-59.054 114.145-95.652 187.156-95.652 58.348 0 115.487 23.572 165.253 68.147 95.447 85.524 190.013 404.5 200.479 440.596 3.338 11.51 0.696 23.931-7.035 33.085zM404.183 437.381c13.578 14.397 12.923 37.079-1.475 50.668-12.872 12.134-32.287 12.82-45.978 2.601-1.638-1.229-3.236-2.529-4.69-4.065-4.076-4.332-9.892-10.271-15.964-15.841 15.217 6.472 33.413 1.71 43.305-12.39 11.377-16.2 7.465-38.554-8.745-49.92-8.407-5.908-17.029-11.991-25.528-18.012 2.13 0.819 4.219 1.772 6.185 3 8.489 4.444 21.504 12.739 41.595 32.471 3.564 3.492 7.27 7.229 11.295 11.489zM379.382 458.353c-9.892 14.1-28.078 18.862-43.305 12.39-2.284-0.973-4.506-2.171-6.615-3.645-6.328-4.444-14.623-10.281-23.747-16.732-3.574 6.072-6.953 11.899-9.923 17.203-14.879 29.491-36.69 61.123-59.802 94.607-34.099 49.398-76.534 110.889-77.189 146.196-0.942 51.825 40.643 94.781 92.682 95.764 26.696 0.266 51.354-9.728 69.765-28.795 13.773-14.254 36.475-14.633 50.678-0.881 14.244 13.763 14.633 36.454 0.881 50.678-31.959 33.065-77.148 51.569-122.665 50.657-91.546-1.72-164.659-77.404-163-168.745 1.055-56.934 46.203-122.337 89.856-185.6 21.924-31.764 42.619-61.757 55.245-87.040 0.164-0.328 0.379-0.614 0.553-0.932 0.092-0.174 0.133-0.358 0.225-0.532 4.239-7.598 9.073-15.882 14.234-24.576-12.39-9.124-22.149-16.568-25.887-20.040-6.789-6.298-15.442-13.384-24.586-20.879-39.803-32.614-94.31-77.271-106.988-146.463-8.284-45.292 2.714-92.396 30.147-129.26 2.806-3.768 6.339-6.625 10.117-8.94 1.413-2.529 3.021-7.526 5.089-9.738 31.293-33.434 75.51-55.132 121.375-55.132 0.164 0 0.317 0 0.481 0 91.587 10.24 165.878 77.363 165.632 168.704-0.154 57.272-40.632 133.98-80.056 200.714 0.85 0.614 1.69 1.843 2.54 2.447 8.499 6.021 17.121 12.421 25.528 18.33 16.189 11.366 20.111 34.038 8.735 50.237zM350.945 186.429c0.143-51.825-42.086-86.589-94.147-96.829-0.102 0-0.205 0-0.287 0-26.481 0-50.995 13.169-69.048 32.451-2.304 2.458-4.936 5.652-7.69 7.311-0.737 1.321-1.413 3.297-2.345 4.547-15.606 20.951-21.852 48.077-17.142 73.851 7.936 43.315 47.237 75.684 81.91 104.090 10.025 8.212 19.487 16.046 27.781 23.726 1.925 1.7 7.014 4.352 14.162 9.636 32.041-54.712 66.714-120.986 66.806-158.781z" />
<glyph unicode="&#xe613;" d="M901.12 253.44c-0.020 0-0.031 0-0.051 0-19.794 0-35.82-17.787-35.789-37.581 0.051-33.946-14.203-67.584-39.096-90.819-27.873-26.020-64.676-36.997-99.748-32.44 2.345 113.367 1.853 390.82-54.938 491.233-47.196 83.415-118.63 131.43-202.301 136.581-10.516 35.697-24.433 66.765-44.462 88.904-71.711 79.227-194.744 85.187-274.196 13.343-39.956-36.116-63.324-88.822-64.082-142.612-0.276-19.804 15.544-37.489 35.338-37.489 0.184 0 0.348 0 0.522 0 19.558 0 35.553 16.845 35.83 36.465 0.481 33.946 15.227 67.082 40.468 89.897 50.176 45.363 127.785 41.974 172.984-7.987 9.81-10.844 17.797-27.156 24.545-47.012-69.796-16.558-132.936-61.921-169.708-124.948-45.466-77.947-43.909-167.916 4.393-253.327 50.985-90.153 268.708-210.504 387.461-271.206 35.656-29.788 79.759-44.943 124.068-44.943 47.565 0 95.273 17.316 132.741 52.296 39.393 36.762 61.952 90.378 61.87 144.169-0.041 19.773-16.077 37.478-35.85 37.478zM401.285 661.217l8.315 3.707c0-0.020 0-0.041 0-0.061l-8.315-3.676c-4.055-1.823-67.942-31.314-111.739-86.016 43.786 54.723 107.674 84.224 111.739 86.047zM289.649 468.224c0.614 71.588 70.308 122.337 106.752 143.995 56.883-211.896 123.402-345.539 166.738-417.659-224.85 119.112-274.002 213.504-273.49 273.664z" />
<glyph unicode="&#xe614;" d="M631.818 84.838c-52.777-4.567-99.4 34.529-103.926 87.060-6.103 70.851-10.414 154.235-10.455 155.064-0.297 5.868 0.338 11.561-2.683 16.599-1.3 2.181-33.475 49.725-84.675 92.262v15.124c30.72 28.723 75.489 79.77 81.152 86.385 5.161 6.011 6.994 13.568 7.393 21.484 0.051 0.829 3.758 84.173 9.861 155.054 4.536 52.541 50.811 91.668 103.639 87.071 19.538-1.731 36.925 12.933 38.615 32.645s-13.015 37.079-32.727 38.769c-92.17 7.936-173.568-60.436-181.504-152.34-4.792-55.736-8.52-118.938-9.974-145.142-23.562-26.757-57.252-65.034-74.547-76.564-9.964-6.656-13.588-17.848-13.588-29.829v-51.2c0-11.981 3.615-23.173 13.578-29.819 41.042-27.361 65.731-60.211 75.592-74.076 1.352-24.484 4.547-90.030 9.492-147.63 7.516-87.040 80.66-152.955 166.697-152.955 4.792 0 9.472 0.205 14.326 0.625 19.722 1.69 34.263 19.046 32.573 38.769s-19.067 34.273-38.84 32.645z" />
<glyph unicode="&#xe615;" d="M392.182 84.838c52.777-4.567 99.4 34.529 103.926 87.060 6.103 70.851 10.414 154.235 10.455 155.064 0.297 5.868-0.338 11.561 2.683 16.599 1.3 2.181 33.475 49.725 84.675 92.262v15.124c-30.72 28.723-75.489 79.77-81.152 86.385-5.161 6.011-6.994 13.568-7.393 21.484-0.051 0.829-3.758 84.173-9.861 155.054-4.536 52.541-50.811 91.668-103.639 87.071-19.538-1.731-36.925 12.933-38.615 32.645s13.015 37.079 32.727 38.769c92.17 7.936 173.568-60.436 181.504-152.34 4.792-55.736 8.52-118.938 9.974-145.142 23.562-26.757 57.252-65.034 74.547-76.564 9.964-6.656 13.588-17.848 13.588-29.829v-51.2c0-11.981-3.615-23.173-13.578-29.819-41.042-27.361-65.731-60.211-75.592-74.076-1.352-24.484-4.547-90.030-9.492-147.63-7.516-87.040-80.66-152.955-166.697-152.955-4.792 0-9.472 0.205-14.326 0.625-19.722 1.69-34.263 19.046-32.573 38.769s19.067 34.273 38.84 32.645z" />
<glyph unicode="&#xe616;" d="M244.992 547.564c5.161 6.011 6.994 13.568 7.393 21.484 0.051 0.829 3.758 84.173 9.861 155.054 4.536 52.541 50.852 91.556 103.639 87.071 19.569-1.597 36.925 12.933 38.615 32.645s-13.015 37.079-32.727 38.769c-92.232 7.967-173.578-60.436-181.504-152.34-4.792-55.736-8.52-118.938-9.974-145.142-23.562-26.757-57.252-65.034-74.547-76.564-9.964-6.646-13.588-17.838-13.588-29.819v-51.2c0-11.981 3.615-23.173 13.578-29.819 41.042-27.361 65.731-60.211 75.592-74.076 1.352-24.484 4.547-90.030 9.492-147.63 7.516-87.040 80.66-152.955 166.697-152.955 4.792 0 9.472 0.205 14.326 0.625 19.722 1.69 34.263 19.046 32.573 38.769s-18.995 34.294-38.799 32.645c-52.746-4.495-99.42 34.529-103.946 87.060-6.103 70.851-10.424 154.235-10.465 155.064-0.297 5.868 0.328 11.561-2.693 16.599-1.3 2.181-33.475 49.725-84.675 92.262v15.124c30.72 28.713 75.489 79.759 81.152 86.374zM918.262 508.539c-17.275 11.51-52.152 49.787-75.735 76.575-1.454 26.204-4.567 89.385-9.349 145.142-7.936 91.884-89.027 160.41-181.176 152.32-19.722-1.69-34.191-19.046-32.502-38.769s19.067-34.273 38.851-32.645c52.869 4.444 99.43-34.529 103.956-87.060 6.103-70.851 10.435-154.235 10.476-155.064 0.399-7.905 1.055-15.473 6.205-21.484 5.673-6.605 50.452-57.651 81.172-86.374v-15.124c-51.2-42.527-83.374-90.081-84.675-92.262-3.021-5.038-3.574-10.732-3.871-16.599-0.051-0.829-3.758-84.173-9.861-155.054-4.536-52.541-50.821-91.525-103.639-87.071-19.702 1.812-36.925-12.923-38.615-32.645-1.69-19.722 13.015-37.079 32.727-38.769 4.864-0.42 9.718-0.625 14.51-0.625 86.026 0.010 159.498 65.915 167.014 152.965 4.946 57.58 8.745 123.116 10.097 147.61 9.912 13.947 33.423 46.756 74.414 74.086 9.964 6.656 13.578 17.848 13.578 29.829v51.2c0 11.981-3.615 23.173-13.578 29.819z" />
<glyph unicode="&#xe617;" d="M240.445 469.258l298.22 253.85c15.073 12.851 37.693 11.018 50.524-4.055s11.008-37.693-4.055-50.524l-265.708-226.171 265.329-219.73c15.237-12.626 17.367-35.215 4.741-50.463-7.076-8.561-17.306-12.984-27.617-12.984-8.049 0-16.148 2.703-22.835 8.233l-298.22 246.938c-8.161 6.758-12.913 16.773-12.984 27.361s4.536 20.675 12.605 27.546z" />
<glyph unicode="&#xe618;" d="M783.555 469.258l-298.22 253.85c-15.073 12.851-37.693 11.018-50.524-4.055s-11.008-37.693 4.055-50.524l265.708-226.171-265.329-219.73c-15.237-12.626-17.367-35.215-4.741-50.463 7.076-8.561 17.306-12.984 27.617-12.984 8.049 0 16.148 2.703 22.835 8.233l298.22 246.938c8.161 6.758 12.913 16.773 12.984 27.361s-4.536 20.675-12.605 27.546z" />
<glyph unicode="&#xe619;" d="M799.539 722.575c-15.913 11.766-38.339 8.387-50.125-7.516l-321.024-434.33-124.385 149.258c-12.677 15.196-35.267 17.254-50.473 4.588-15.206-12.677-17.265-35.277-4.588-50.483l182.825-219.382 375.286 507.74c11.776 15.923 8.407 38.369-7.516 50.125z" />
<glyph unicode="&#xe61a;" d="M511.99 545.28c-53.627 0-97.27-43.643-97.27-97.28s43.643-97.28 97.27-97.28c53.647 0 97.29 43.643 97.29 97.28s-43.643 97.28-97.29 97.28z" />
<glyph unicode="&#xe61b;" d="M675.789 818.79c-28.6 36.567-71.567 59.822-117.893 63.785-92.119 7.936-173.548-60.436-181.473-152.34-4.925-57.313 33.608-127.887 70.881-196.147 18.739-34.324 36.434-66.734 46.49-93.553 0.123-0.307 0.287-0.584 0.42-0.891 0.082-0.215 0.113-0.44 0.205-0.645 6.564-15.309 14.909-33.167 23.736-52.070 29.553-63.232 74.199-158.771 69.335-206.285-5.335-52.46-52.419-90.86-105.257-85.412-26.921 2.734-50.708 16.077-66.99 37.581-11.94 15.759-34.396 18.883-50.207 6.932-15.78-11.95-18.883-34.427-6.932-50.207 28.017-36.997 70.615-60.908 116.879-65.618 5.765-0.584 11.479-0.87 17.162-0.87 84.89 0.010 157.901 64.297 166.656 150.333 6.871 67.195-38.922 165.171-75.715 243.896-8.54 18.278-16.609 35.553-22.712 49.756-11.868 31.212-30.464 65.311-50.166 101.396-30.679 56.187-65.454 119.869-62.372 155.648 4.526 52.541 51.077 91.668 103.926 87.071 26.941-2.314 50.934-15.278 67.553-36.526 12.206-15.606 34.755-18.34 50.309-6.154 15.606 12.196 18.371 34.734 6.164 50.319z" />
<glyph unicode="&#xe61c;" d="M562.668 448l155.156 155.238c13.988 13.998 13.988 36.69-0.010 50.688s-36.69 13.978-50.688-0.010l-155.126-155.218-155.116 155.208c-13.978 13.998-36.669 14.008-50.688 0.010-13.998-13.988-13.998-36.69-0.010-50.688l155.146-155.228-155.156-155.238c-13.988-13.998-13.988-36.69 0.010-50.688 7.004-6.994 16.169-10.486 25.344-10.486 9.175 0 18.35 3.502 25.354 10.506l155.116 155.208 155.116-155.208c7.004-7.004 16.169-10.506 25.354-10.506 9.175 0 18.34 3.492 25.344 10.486 13.998 13.988 13.998 36.69 0.010 50.688l-155.156 155.238z" />
<glyph unicode="&#xe61d;" d="M762.88 478.72h-220.16v220.16c0 19.794-16.046 35.84-35.84 35.84s-35.84-16.046-35.84-35.84v-220.16h-209.92c-19.794 0-35.84-16.046-35.84-35.84s16.046-35.84 35.84-35.84h209.92v-209.92c0-19.794 16.046-35.84 35.84-35.84s35.84 16.046 35.84 35.84v209.92h220.16c19.794 0 35.84 16.046 35.84 35.84s-16.046 35.84-35.84 35.84z" />
<glyph unicode="&#xe61e;" d="M766.587 474.235l-168.735 0.051 119.89 119.941c13.988 13.998 13.988 36.69-0.010 50.688s-36.69 13.978-50.688-0.010l-119.931-120.013-0.051 168.878c-0.010 19.794-16.046 35.83-35.84 35.83h-0.010c-19.794 0-35.84-16.056-35.83-35.85l0.051-167.547-118.63 118.702c-13.988 13.998-36.68 14.008-50.688 0.010-13.998-13.988-13.998-36.69-0.010-50.688l119.818-119.89-169.923 0.051c-19.794 0-35.83-16.036-35.84-35.83-0.010-19.794 16.036-35.84 35.83-35.85l168.95-0.051-118.835-118.907c-13.988-13.998-13.988-36.69 0.010-50.688 7.004-6.994 16.169-10.486 25.344-10.486 9.175 0 18.35 3.502 25.354 10.506l118.671 118.743 0.051-168.653c0.010-19.794 16.046-35.83 35.84-35.83h0.010c19.794 0 35.84 16.056 35.83 35.85l-0.051 169.841 119.89-119.951c7.004-7.004 16.169-10.506 25.354-10.506 9.175 0 18.34 3.492 25.344 10.486 13.998 13.988 13.998 36.69 0.010 50.688l-118.784 118.856 167.619-0.051c19.794 0 35.83 16.036 35.84 35.83-0.010 19.794-16.056 35.85-35.85 35.85z" />
<glyph unicode="&#xe61f;" d="M514.396 876.37c-143.329 0-288.42-100.116-288.42-291.461 0-153.354 245.688-503.9 273.705-543.365 6.738-9.482 17.644-15.094 29.225-15.094 0.348 0 0.707 0 1.065 0.010 11.991 0.358 22.999 6.676 29.348 16.855 24.32 38.984 237.691 385.362 237.691 540.6 0 200.94-146.504 292.454-282.614 292.454zM297.656 584.909c0 151.009 112.353 219.781 216.74 219.781 104.991 0 210.934-68.27 210.934-220.785 0-99.584-124.713-331.172-198.39-455.731-84.419 124.948-229.284 359.588-229.284 456.735zM515.4 738.13c-73.4 0-133.11-59.72-133.11-133.12s59.709-133.12 133.11-133.12c73.411 0 133.13 59.72 133.13 133.12s-59.72 133.12-133.13 133.12zM515.4 512.85c-50.811 0-92.15 41.349-92.15 92.16s41.339 92.16 92.15 92.16c50.821 0 92.17-41.349 92.17-92.16s-41.349-92.16-92.17-92.16z" />
<glyph unicode="&#xe620;" d="M513.7 878.080c-143.329 0-288.42-100.116-288.42-291.461 0-153.354 245.688-503.9 273.705-543.365 6.738-9.492 17.633-15.094 29.225-15.094 0.348 0 0.707 0 1.065 0.010 11.991 0.358 22.999 6.676 29.348 16.855 24.32 38.984 237.691 385.362 237.691 540.6 0 200.929-146.504 292.454-282.614 292.454zM526.244 129.894c-84.419 124.938-229.284 359.567-229.284 456.724 0 150.999 112.353 219.781 216.74 219.781 104.991 0 210.934-68.27 210.934-220.785 0-99.584-124.713-331.172-198.39-455.721zM642.714 591.36h-110.234v112.64c0 11.305-9.175 20.48-20.48 20.48s-20.48-9.175-20.48-20.48v-112.64h-104.806c-11.305 0-20.48-9.523-20.48-20.828 0-8.53 5.233-15.667 12.646-18.739 2.406-1.004 5.059-1.393 7.834-1.393h104.806v-102.4c0-3.748 3.123-7.219 4.884-10.24 3.543-6.093 9.062-10.24 16.62-10.24 0.215 0 0.389 0.051 0.604 0.061 10.977 0.328 18.852 9.318 18.852 20.419v102.4h110.234c11.305 0 20.48 9.175 20.48 20.48s-9.175 20.48-20.48 20.48z" />
<glyph unicode="&#xe621;" d="M926.495 73.964l-280.965 281.539c38.001 48.005 60.774 108.585 60.774 174.418 0 155.269-126.331 281.6-281.6 281.6s-281.6-126.331-281.6-281.6 126.331-281.6 281.6-281.6c63.652 0 122.419 21.258 169.626 56.996l281.416-281.999c7.004-7.004 16.189-10.516 25.375-10.516 9.165 0 18.319 3.492 25.324 10.465 14.008 13.988 14.029 36.68 0.051 50.698zM214.784 529.92c0 115.753 94.167 209.92 209.92 209.92s209.92-94.167 209.92-209.92-94.167-209.92-209.92-209.92-209.92 94.167-209.92 209.92z" />
<glyph unicode="&#xe622;" d="M296.96 540.16h256v-40.96h-256v40.96zM926.495 73.964l-273.347 273.92c37.908 49.019 58.532 108.82 58.532 171.796 0 155.269-126.331 281.6-281.6 281.6s-281.6-126.331-281.6-281.6 126.331-281.6 281.6-281.6c63.283 0 123.31 20.787 172.442 59.044l273.234-273.797c6.994-7.014 16.179-10.527 25.364-10.527 9.165 0 18.319 3.492 25.324 10.465 14.008 13.988 14.029 36.68 0.051 50.698zM220.16 519.68c0 115.753 94.167 209.92 209.92 209.92s209.92-94.167 209.92-209.92c0-55.941-21.74-108.554-61.225-148.163-39.68-39.823-92.498-61.757-148.695-61.757-115.753 0-209.92 94.167-209.92 209.92z" />
<glyph unicode="&#xe623;" d="M450.56 652.8h-40.96v-112.64h-112.64v-40.96h112.64v-102.4h40.96v102.4h102.4v40.96h-102.4zM927.775 73.964l-273.439 274.022c36.71 47.565 58.634 107.1 58.634 171.704 0 155.269-126.331 281.6-281.6 281.6s-281.6-126.331-281.6-281.6 126.331-281.6 281.6-281.6c64.891 0 124.672 22.118 172.339 59.136l273.326-273.9c7.004-7.014 16.179-10.516 25.375-10.516 9.165 0 18.319 3.492 25.324 10.465 13.998 13.978 14.019 36.669 0.041 50.688zM221.44 519.68c0 115.753 94.167 209.92 209.92 209.92s209.92-94.167 209.92-209.92-94.167-209.92-209.92-209.92-209.92 94.167-209.92 209.92z" />
<glyph unicode="&#xe624;" d="M935.813 544.031c-3.738 14.438-16.036 25.057-30.874 26.655l-264.479 28.334-87.931 242.442c-4.966 13.701-17.725 23.030-32.297 23.593-14.633 0.635-28.017-7.731-34.028-21.012l-111.063-244.91-256.215-28.467c-14.94-1.659-27.249-12.462-30.843-27.064s2.314-29.88 14.766-38.277l213.842-144.108-84.869-292.342c-4.342-14.961 1.485-31.017 14.397-39.721 12.913-8.673 29.972-8.049 42.22 1.587l223.56 176.404 223.56-176.415c6.482-5.1 14.326-7.69 22.2-7.69 6.789 0 13.599 1.925 19.569 5.816 12.892 8.387 18.985 24.084 15.135 38.984l-75.735 293.448 205.025 144.445c12.206 8.602 17.807 23.859 14.060 38.298zM655.196 405.617c-12.186-8.591-17.787-23.818-14.060-38.257l55.347-214.477-162.284 128.061c-6.513 5.13-14.346 7.7-22.2 7.7s-15.688-2.57-22.2-7.7l-157.962-124.641 60.979 210.033c4.342 14.961-1.475 31.007-14.387 39.711l-154.563 104.151 179.446 19.937c12.564 1.403 23.46 9.308 28.682 20.818l83.149 183.337 65.556-180.756c4.669-12.872 16.261-21.965 29.87-23.419l192.123-20.582-147.497-103.916z" />
<glyph unicode="&#xe625;" d="M512 584.366c-76.227 0-138.24-62.013-138.24-138.23 0-76.227 62.013-138.25 138.24-138.25s138.24 62.024 138.24 138.25c0 76.227-62.013 138.23-138.24 138.23zM511.99 359.086c-47.995 0-87.030 39.045-87.030 87.040s39.035 87.040 87.030 87.040c48.005 0 87.050-39.045 87.050-87.040s-39.045-87.040-87.050-87.040zM784.681 414.72c1.096 9.964 1.7 20.070 1.7 30.321 0 10.353-0.625 20.562-1.731 30.618 9.789 5.396 82.196 46.080 89.887 71.956 3.963 13.302-21.432 60.6-30.085 77.025-9.687 18.391-34.099 63.048-46.735 66.273-28.293 7.178-98.396-28.785-109.865-34.806-1.044-0.543-1.772-0.942-1.772-0.942s0.717 0.389 1.761 0.942c-21.852 18.33-42.721 33.311-73.441 44.206 0 0.532-0.215 91.822-21.74 115.139-8.847 9.595-59.74 9.769-80.517 9.533-18.575-0.215-72.284-0.44-82.084-10.24-19.19-19.2-20.46-103.117-20.46-113.582-30.72-10.834-52.541-25.846-74.772-44.36-14.858 7.741-81.244 41.062-108.554 34.12-12.636-3.215-37.048-47.882-46.735-66.273-8.653-16.425-34.038-63.734-30.085-77.025 7.311-24.586 73.001-62.515 87.931-70.871-1.188-10.414-1.864-20.982-1.864-31.713 0-10.629 0.655-21.094 1.843-31.406-15.032-8.407-80.599-46.295-87.9-70.851-3.963-13.302 21.432-60.6 30.085-77.015 9.687-18.401 34.099-63.058 46.735-66.284 27.156-6.881 92.959 26.040 108.329 34.017 22.303-18.596 47.585-33.7 75.028-44.564 0.215-16.343 2.14-93.143 20.419-111.421 9.8-9.8 63.488-10.025 82.063-10.24 20.777-0.236 71.68-0.061 80.527 9.523 19.692 21.35 21.545 99.41 21.729 112.968 26.952 10.936 51.784 25.989 73.697 44.421 12.083-6.349 81.51-41.841 109.64-34.714 12.636 3.215 37.048 47.882 46.735 66.284 8.653 16.425 34.038 63.724 30.085 77.015-7.68 25.856-79.944 66.488-89.856 71.946zM512 277.166c-93.164 0-168.96 75.796-168.96 168.97 0 93.164 75.796 168.95 168.96 168.95s168.96-75.786 168.96-168.95c0-93.164-75.796-168.97-168.96-168.97z" />
<glyph unicode="&#xe626;" d="M511.98 693.76c-73.4 0-133.11-59.72-133.11-133.12 0-5.212 0.379-10.332 0.973-15.391 7.66-66.171 63.949-117.729 132.137-117.729 68.219 0 124.539 51.589 132.178 117.791 0.584 5.038 0.952 10.138 0.952 15.329 0 73.4-59.72 133.12-133.13 133.12zM844.8 867.84h-686.080c-48.067 0-87.040-38.973-87.040-87.040v-675.84c0-48.067 38.973-87.040 87.040-87.040h686.080c48.067 0 87.040 38.973 87.040 87.040v675.84c0 48.067-38.973 87.040-87.040 87.040zM860.16 110.080c0-8.325-1.915-20.48-10.24-20.48h-61.44v61.44c0 128.461-83.937 237.025-201.728 270.725-21.832-15.647-47.206-24.965-76.042-24.965s-54.845 9.318-76.667 24.965c-117.78-33.7-203.96-142.264-203.96-270.725 0-15.288 0.072-32.154-0.020-46.029-0.031-4.321 0.113-5.171 0.082-15.411h-66.304c-8.325 0-20.48 12.155-20.48 20.48v675.84c0 8.325 12.155 10.24 20.48 10.24h686.080c8.325 0 10.24-1.915 10.24-10.24v-675.84z" />
<glyph unicode="&#xe627;" d="M901.12 867.84h-266.24c-19.794 0-40.96-10.926-40.96-30.72v-139.305l71.68 0.512v97.833h194.56v-706.56h-194.56v87.060l-71.68-0.020v-117.76c0-19.794 21.166-40.96 40.96-40.96h266.24c19.794 0 30.72 21.166 30.72 40.96v778.24c0 19.794-10.926 30.72-30.72 30.72zM747.52 386.56v133.12h-276.48v194.56c0 7.936-6.021 15.155-13.199 18.534-7.188 3.379-16.404 2.304-22.497-2.765l-304.681-251.996c-4.659-3.86-7.557-9.585-7.598-15.636s2.509-11.817 7.117-15.739l304.282-259.031c3.758-3.215 8.468-4.884 13.24-4.884 2.908 0 7.27 0.625 10.025 1.894 7.24 3.348 13.312 10.609 13.312 18.596v183.347h276.48z" />
<glyph unicode="&#xe628;" d="M901.12 867.84h-266.24c-19.794 0-40.96-10.926-40.96-30.72v-183.685c10.24-1.26 5.192-2.785 7.506-4.71l64.174-53.135v200.571h194.56v-706.56h-194.56v231.823l-63.795-54.313c-2.417-2.058 2.355-3.625-7.885-4.946v-203.284c0-19.794 21.166-40.96 40.96-40.96h266.24c19.794 0 30.72 21.166 30.72 40.96v778.24c0 19.794-10.926 30.72-30.72 30.72zM699.351 446.648c4.608 3.922 7.25 9.677 7.209 15.739-0.041 6.052-2.765 11.776-7.424 15.636l-304.312 251.996c-6.113 5.059-16.036 6.124-23.224 2.765-7.178-3.389-13.199-10.609-13.199-18.545v-194.56h-276.48v-133.12h276.48v-183.347c0-7.987 6.083-15.237 13.332-18.586 2.755-1.27 6.39-1.894 9.308-1.894 4.772 0 9.861 1.669 13.629 4.884l304.681 259.031z" />
<glyph unicode="&#xe629;" d="M793.498 517.171c0.123 36.925 0.215 89.242-0.164 105.728-0.389 16.998-10.045 51.548-14.193 65.618l-0.942 3.226-1.536 2.99c-2.867 5.612-26.245 55.521-47.493 79.268-53.268 59.505-135.25 93.686-206.93 93.829v0.010c0 0-5.038 0-5.12 0s-5.12 0-5.12 0v-0.010c-71.68-0.143-153.661-34.314-206.94-93.829-21.238-23.736-45.844-73.646-48.712-79.268l-0.932-2.99-0.635-3.226c-4.137-14.070-13.64-48.62-14.029-65.628-0.369-16.466-0.215-68.782-0.092-105.708-38.185-9.226-66.58-43.581-66.58-84.541v-327.68c0-47.995 39.045-87.040 87.040-87.040h512c47.995 0 87.040 39.045 87.040 87.040v327.68c0 40.96-28.477 75.315-66.662 84.531zM394.322 601.283c0.297 14.828 1.628 28.948 3.215 34.345 2.396 8.172 11.704 23.931 21.699 34.365 28.795 30.024 54.825 41.728 92.764 41.738 37.939-0.010 63.959-11.725 92.754-41.738 10.015-10.445 19.313-26.204 21.709-34.376 1.587-5.396 2.918-19.517 3.215-34.314 0.369-20.050 0-80.927 0-81.541l15.36-0.092-250.716 0.092c0 0.625-0.369 61.501 0 81.521zM245.76 432.64c0 8.325 7.035 15.36 15.36 15.36h512c8.325 0 15.36-7.035 15.36-15.36v-327.68c0-8.325-7.035-15.36-15.36-15.36h-512c-8.325 0-15.36 7.035-15.36 15.36v327.68zM312.545 621.076c0.317 5.478 5.048 25.467 10.363 43.96 9.656 18.504 27.167 49.060 37.99 61.143 39.762 44.411 96.686 69.898 156.221 69.98 59.535-0.072 116.46-25.569 156.221-69.97 10.783-12.042 28.314-42.619 37.99-61.153 5.315-18.483 10.035-38.441 10.353-43.756 0.338-15.268 0.256-65.167 0.154-101.601h-61.43c0.020 3.103 0.379 61.88 0 82.237-0.195 8.796-0.993 30.556-4.465 42.373-4.106 13.967-16.353 33.71-29.061 46.971-34.386 35.85-63.683 52.408-114.883 52.439v1.26c0 0 0.031 0 0 0s0 0 0 0v-1.26c-51.2-0.041-80.497-15.974-114.893-51.825-12.698-13.251-24.924-33.311-29.030-47.278-3.471-11.817-4.28-33.731-4.475-42.568-0.379-20.316-0.031-79.258-0.010-82.36h-51.19c-0.102 36.424-0.184 86.262 0.143 101.407z" />
<glyph unicode="&#xe62a;" d="M768 509.44h-394.158l15.278-10.24c0 0.614-0.287 75.663 0.082 95.683 0.297 14.828 1.628 29.594 3.215 34.99 2.396 8.172 11.704 24.248 21.699 34.693 28.795 30.013 54.815 41.882 92.744 41.902 29.635-0.041 78.397-31.293 94.71-43.366l9.789-7.209 115.681 99.287-10.363 10.25c-53.279 59.515-122.757 97.116-204.677 97.28v-5.11c0 0 0.082 0-0.010 0-0.082 0 0.010 0 0.010 0v5.11c-81.92-0.143-156.221-34.314-209.5-93.829-21.238-23.736-47.124-73.646-49.992-79.268l-1.567-2.99-0.963-3.226c-4.137-14.070-13.804-48.62-14.193-65.628-0.369-16.466-2.847-68.782-2.734-105.708-38.175-9.226-69.212-43.581-69.212-84.541v-327.68c0-47.995 44.165-92.16 92.16-92.16h512c47.995 0 81.92 44.165 81.92 92.16v327.68c0 47.995-33.925 81.92-81.92 81.92zM778.24 94.72c0-8.489-6.881-15.36-15.36-15.36h-512c-8.479 0-15.36 6.871-15.36 15.36v327.68c0 8.489 6.881 15.36 15.36 15.36h512c8.479 0 15.36-6.871 15.36-15.36v-327.68zM307.425 613.396c0.317 5.478 5.048 26.747 10.363 45.24 9.656 18.504 27.167 49.695 37.99 61.778 39.762 44.401 96.676 70.216 156.221 70.287 53.719-0.061 105.257-20.716 144.036-57.385l-46.193-38.492c-20.552 13.937-66.836 41.062-102.892 41.144v-1.249c-0.031 0-0.061 0-0.082 0-0.031 0-0.061 0-0.082 0v1.3c-46.111-0.041-80.456-14.694-114.852-50.545-12.698-13.251-24.904-32.676-29.010-46.633-3.471-11.817-4.27-35.973-4.465-44.81-0.379-20.316-0.020-74.363 0-84.603h-51.19c-0.092 40.97-0.174 88.822 0.154 103.967z" />
<glyph unicode="&#xe62b;" d="M930.437 120.75l-363.325 717.599c-12.39 24.463-32.481 38.492-55.112 38.492s-42.721-14.029-55.101-38.492l-363.346-717.599c-11.807-23.337-11.756-50.401 0.154-69.775 11.899-19.384 33.731-33.055 59.894-33.055h716.8c26.163 0 47.995 13.67 59.904 33.055 11.909 19.374 11.96 46.438 0.133 69.775zM160.717 89.6l351.283 693.78 351.283-693.78h-702.566zM460.8 581.12h102.4v-266.24h-102.4v266.24zM563.19 202.24c0-28.277-22.923-51.2-51.2-51.2s-51.2 22.923-51.2 51.2c0 28.277 22.923 51.2 51.2 51.2 28.277 0 51.2-22.923 51.2-51.2z" />
</font>
</defs>
</svg>
