<?xml version="1.0" encoding="utf-8"?>
<!-- Generator: Adobe Illustrator 16.0.0, SVG Export Plug-In . SVG Version: 6.00 Build 0)  -->
<!DOCTYPE svg PUBLIC "-//W3C//DTD SVG 1.1//EN" "http://www.w3.org/Graphics/SVG/1.1/DTD/svg11.dtd">
<svg version="1.1" xmlns="http://www.w3.org/2000/svg" xmlns:xlink="http://www.w3.org/1999/xlink" x="0px" y="0px" width="100px"
	 height="100px" viewBox="0 0 100 100" enable-background="new 0 0 100 100" xml:space="preserve">
<g id="Layer_3" display="none">
	<g display="inline" opacity="0.31">
		<path fill="#FFFFFF" d="M59.8,153.8c-1.325,0-2.596-0.525-3.533-1.462c-0.939-0.938-1.467-2.211-1.467-3.538v-70
			c0-2.762,2.238-5,5-5h80c2.762,0,5,2.238,5,5v69.901c0,2.759-2.234,4.997-4.994,5C139.806,153.701,59.802,153.8,59.8,153.8z"/>
		<path d="M139.8,78.8v69.901l-80,0.099v-70H139.8 M139.8,68.8h-80c-5.522,0-10,4.478-10,10v70c0,2.654,1.056,5.2,2.934,7.075
			c1.875,1.873,4.417,2.925,7.066,2.925c0.004,0,0.008,0,0.013,0l80-0.099c5.518-0.007,9.987-4.482,9.987-10V78.8
			C149.8,73.277,145.322,68.8,139.8,68.8L139.8,68.8z"/>
	</g>
</g>
<g id="Your_Icon">
</g>
<g id="Layer_4">
	<g>
		<path d="M20,65c-8.271,0-15-6.729-15-15c0-8.271,6.729-15,15-15s15,6.729,15,15C35,58.271,28.271,65,20,65z"/>
		<path fill="#FFFFFF" d="M20,40c5.524,0,10,4.477,10,10s-4.476,10-10,10c-5.522,0-10-4.477-10-10S14.478,40,20,40 M20,30
			C8.972,30,0,38.972,0,50c0,11.027,8.972,20,20,20s20-8.973,20-20C40,38.972,31.028,30,20,30L20,30z"/>
	</g>
	<g>
		<path d="M50,65c-8.271,0-15-6.729-15-15c0-8.271,6.729-15,15-15s15,6.729,15,15C65,58.271,58.271,65,50,65z"/>
		<path fill="#FFFFFF" d="M50,40c5.524,0,10,4.477,10,10s-4.476,10-10,10c-5.522,0-10-4.477-10-10S44.478,40,50,40 M50,30
			c-11.028,0-20,8.972-20,20c0,11.027,8.972,20,20,20s20-8.973,20-20C70,38.972,61.028,30,50,30L50,30z"/>
	</g>
	<g>
		<path d="M80,65c-8.271,0-15-6.729-15-15c0-8.271,6.729-15,15-15s15,6.729,15,15C95,58.271,88.271,65,80,65z"/>
		<path fill="#FFFFFF" d="M80,40c5.524,0,10,4.477,10,10s-4.476,10-10,10c-5.522,0-10-4.477-10-10S74.478,40,80,40 M80,30
			c-11.028,0-20,8.972-20,20c0,11.027,8.972,20,20,20s20-8.973,20-20C100,38.972,91.028,30,80,30L80,30z"/>
	</g>
</g>
</svg>
