<?xml version="1.0" encoding="utf-8"?>
<!-- Generator: Adobe Illustrator 16.0.0, SVG Export Plug-In . SVG Version: 6.00 Build 0)  -->
<!DOCTYPE svg PUBLIC "-//W3C//DTD SVG 1.1//EN" "http://www.w3.org/Graphics/SVG/1.1/DTD/svg11.dtd">
<svg version="1.1" xmlns="http://www.w3.org/2000/svg" xmlns:xlink="http://www.w3.org/1999/xlink" x="0px" y="0px" width="100px"
	 height="100px" viewBox="0 0 100 100" enable-background="new 0 0 100 100" xml:space="preserve">
<g id="Layer_3" display="none">
</g>
<g id="Your_Icon">
</g>
<g id="Layer_4">
	<g>
		<path d="M26.2,40c-5.525,0-10,4.477-10,10.001c0,5.521,4.475,9.999,10,9.999c5.52,0,10-4.478,10-9.999
			C36.2,44.477,31.72,40,26.2,40z"/>
		<path d="M26.2,30c-11.028,0-20,8.973-20,20.001C6.2,61.028,15.172,70,26.2,70s20-8.972,20-19.999C46.2,38.973,37.228,30,26.2,30z
			 M26.2,60c-5.525,0-10-4.478-10-9.999C16.2,44.477,20.675,40,26.2,40c5.52,0,10,4.477,10,10.001C36.2,55.522,31.72,60,26.2,60z"/>
	</g>
	<g>
		<path d="M73.8,40c-5.525,0-10,4.477-10,10.001c0,5.521,4.475,9.999,10,9.999c5.52,0,10-4.478,10-9.999
			C83.8,44.477,79.319,40,73.8,40z"/>
		<path d="M73.8,30c-11.028,0-20,8.973-20,20.001C53.8,61.028,62.772,70,73.8,70s20-8.972,20-19.999C93.8,38.973,84.828,30,73.8,30z
			 M73.8,60c-5.525,0-10-4.478-10-9.999C63.8,44.477,68.274,40,73.8,40c5.52,0,10,4.477,10,10.001C83.8,55.522,79.319,60,73.8,60z"
			/>
	</g>
</g>
</svg>
