<?xml version="1.0" encoding="utf-8"?>
<!-- Generator: Adobe Illustrator 16.0.0, SVG Export Plug-In . SVG Version: 6.00 Build 0)  -->
<!DOCTYPE svg PUBLIC "-//W3C//DTD SVG 1.1//EN" "http://www.w3.org/Graphics/SVG/1.1/DTD/svg11.dtd">
<svg version="1.1" xmlns="http://www.w3.org/2000/svg" xmlns:xlink="http://www.w3.org/1999/xlink" x="0px" y="0px" width="100px"
	 height="100px" viewBox="0 0 100 100" enable-background="new 0 0 100 100" xml:space="preserve">
<g id="Layer_3" display="none">
</g>
<g id="Your_Icon">
</g>
<g id="Layer_4">
	<g>
		<path fill="none" d="M32.153,60.096C29.826,63.35,27,65,24,65c3,0,5.833-1.65,8.16-4.905c0.368-0.515,0.685-1.041,0.978-1.568
			C32.841,59.055,32.521,59.581,32.153,60.096z"/>
		<path fill="none" d="M17.654,50.841c0.854,0,1.726,0,2.605,0.001C19.38,50.841,18.509,50.841,17.654,50.841z"/>
		<path fill="none" d="M68.414,50.868c3.942-0.012,8.572-0.026,12.798-0.027c-4.241,0-8.894,0.015-12.843,0.027
			c-1.776,0.006-3.465,0.011-4.865,0.014c0.127,2.034,0.898,5.483,2.979,8.654c-2.07-3.171-2.751-6.62-2.878-8.654
			C65.004,50.878,66.638,50.874,68.414,50.868z"/>
		<path fill="none" d="M21.69,64.773c0.649,0.138,1.329,0.223,2.045,0.227L24,69.996L23.742,65
			C23.025,64.996,22.344,64.911,21.69,64.773z"/>
		<path fill="none" d="M88.22,51.044l0.062,0.186l-0.021-0.002c-0.27,2.056-1.284,5.301-3.556,8.399
			c-1.646,2.247-4.476,4.89-8.421,5.31c3.959-0.42,6.875-3.063,8.521-5.31c2.271-3.098,3.23-6.343,3.5-8.399l-0.011,0.002
			L88.22,51.044z"/>
		<path d="M95.918,43.007l-6.231-16.75C88.958,24.299,87.089,23,85,23H68v10h13.525l2.918,8c-0.928-0.002-1.926,0-2.998,0
			c-4.299,0-9.033-0.012-13.055,0c-2.958,0.009-5.529,0-7.253,0c-0.415,0-22.86,0-23.275,0c-1.724,0-4.295,0.009-7.253,0
			c-4.021-0.012-8.756,0-13.055,0c-0.978,0-1.885-0.002-2.742,0l3.45-8H32V23H15c-1.983,0-3.778,1.172-4.577,2.987L2.808,43.302
			C1.7,45.3,0.593,47.09,0.604,50.179C0.64,59.037,8.31,74.907,23.467,75c0.011,0,0.111,0,0.121,0c14.198,0,21.477-15.076,21.793-24
			h8.238c0.316,8.924,7.595,24,21.793,24c0.01,0,0.11,0,0.121,0C90.69,75,98.36,59.037,98.396,50.179
			C98.408,46.883,97,44.9,95.918,43.007z M24,65h-0.265c-0.716,0-1.396-0.089-2.045-0.227c-3.412-0.725-5.896-3.099-7.396-5.146
			c-2.406-3.282-3.406-6.746-3.605-8.767c2.007-0.014,4.409-0.02,6.965-0.019c0.854,0,1.726,0,2.605,0.001
			c3.512,0.004,7.151,0.016,10.345,0.025c1.776,0.006,3.401,0.011,4.801,0.014c-0.114,1.819-0.672,4.773-2.268,7.646
			c-0.293,0.528-0.609,1.054-0.978,1.568C29.833,63.35,27,65,24,65z M84.806,59.627c-1.646,2.247-4.562,4.89-8.521,5.31
			c-0.334,0.036-0.673,0.061-1.021,0.063L75,65c-3,0-5.826-1.65-8.153-4.905c-0.132-0.184-0.241-0.374-0.364-0.56
			c-2.08-3.171-2.852-6.62-2.979-8.654c1.4-0.003,3.089-0.008,4.865-0.014c3.949-0.012,8.602-0.026,12.843-0.027
			c2.537,0,4.928,0.005,6.933,0.018l0.075,0.185l0.075,0.186l0.011-0.002C88.036,53.284,87.077,56.529,84.806,59.627z"/>
	</g>
</g>
</svg>
