<?xml version="1.0" encoding="utf-8"?>
<!-- Generator: Adobe Illustrator 16.0.0, SVG Export Plug-In . SVG Version: 6.00 Build 0)  -->
<!DOCTYPE svg PUBLIC "-//W3C//DTD SVG 1.1//EN" "http://www.w3.org/Graphics/SVG/1.1/DTD/svg11.dtd">
<svg version="1.1" xmlns="http://www.w3.org/2000/svg" xmlns:xlink="http://www.w3.org/1999/xlink" x="0px" y="0px" width="100px"
	 height="100px" viewBox="0 0 100 100" enable-background="new 0 0 100 100" xml:space="preserve">
<g id="Layer_3" display="none">
</g>
<g id="Your_Icon">
</g>
<g id="Layer_4">
	<path d="M83.18,5.997c-0.001-2.069-1.277-3.924-3.209-4.665C78.04,0.59,75.85,1.117,74.465,2.653L48.93,31H34.275
		c-9.604,0-17.009,6.964-17.375,16.219c-0.006,0.175,0.1,2.698,0.1,2.877v0.296c0,0.872-0.114,3.186-0.108,3.352
		C17.265,63.259,24.997,71,34.266,71h15.09l25.256,26.453C75.573,98.461,76.888,99,78.229,99c0.626,0,1.257-0.117,1.86-0.359
		c1.896-0.761,3.14-2.6,3.139-4.644L83.18,5.997z"/>
</g>
</svg>
