<?xml version="1.0" encoding="utf-8"?>
<!-- Generator: Adobe Illustrator 16.0.0, SVG Export Plug-In . SVG Version: 6.00 Build 0)  -->
<!DOCTYPE svg PUBLIC "-//W3C//DTD SVG 1.1//EN" "http://www.w3.org/Graphics/SVG/1.1/DTD/svg11.dtd">
<svg version="1.1" xmlns="http://www.w3.org/2000/svg" xmlns:xlink="http://www.w3.org/1999/xlink" x="0px" y="0px" width="100px"
	 height="100px" viewBox="0 0 100 100" enable-background="new 0 0 100 100" xml:space="preserve">
<g id="Layer_3" display="none">
</g>
<g id="Your_Icon">
</g>
<g id="Layer_4">
	<g>
		<path d="M45,68.06c0-2.761,2.239-5.06,5-5.06h13v-2.03c-4.58-13.28-16.523-23.041-30.5-23.041C14.579,37.929,0,53.923,0,72.859
			C0,77.583,3.829,82,8.552,82h36.465C45.015,82,45,81.996,45,81.94V68.06z"/>
		<path d="M32.499,34.209c9.432,0,17.107-7.674,17.107-17.105C49.606,7.672,41.931,0,32.499,0S15.394,7.672,15.394,17.104
			C15.394,26.535,23.067,34.209,32.499,34.209z"/>
		<polygon points="82,50 68,50 68,68 50,68 50,82 68,82 68,100 82,100 82,82 100,82 100,68 82,68 		"/>
	</g>
</g>
</svg>
