<?xml version="1.0" encoding="utf-8"?>
<!-- Generator: Adobe Illustrator 16.0.0, SVG Export Plug-In . SVG Version: 6.00 Build 0)  -->
<!DOCTYPE svg PUBLIC "-//W3C//DTD SVG 1.1//EN" "http://www.w3.org/Graphics/SVG/1.1/DTD/svg11.dtd">
<svg version="1.1" xmlns="http://www.w3.org/2000/svg" xmlns:xlink="http://www.w3.org/1999/xlink" x="0px" y="0px" width="100px"
	 height="100px" viewBox="0 0 100 100" enable-background="new 0 0 100 100" xml:space="preserve">
<g id="Layer_3" display="none">
	<g display="inline" opacity="0.31">
		<path fill="#FFFFFF" d="M9.8,93.8c-1.325,0-2.596-0.525-3.533-1.462C5.327,91.399,4.8,90.127,4.8,88.8v-70c0-2.762,2.238-5,5-5h80
			c2.762,0,5,2.238,5,5v69.901c0,2.759-2.234,4.997-4.994,5C89.806,93.701,9.802,93.8,9.8,93.8z"/>
		<path d="M89.8,18.8v69.901L9.8,88.8v-70H89.8 M89.8,8.8h-80c-5.522,0-10,4.478-10,10v70c0,2.654,1.056,5.2,2.934,7.075
			C4.608,97.748,7.15,98.8,9.8,98.8c0.004,0,0.008,0,0.013,0l80-0.099c5.518-0.007,9.987-4.482,9.987-10V18.8
			C99.8,13.277,95.322,8.8,89.8,8.8L89.8,8.8z"/>
	</g>
</g>
<g id="Your_Icon">
</g>
<g id="Layer_4">
	<path d="M28.854,98.838c-0.807,0-1.614-0.194-2.353-0.588c-1.642-0.875-2.662-2.591-2.647-4.451
		c0.047-5.962,0.077-12.468,0.07-16.526c-6.218-1.138-9.251-3.253-13.101-7.124C3.818,63.108-0.026,53.762,0,43.832
		s3.918-19.255,10.96-26.259c3.755-3.736,13.541-8.228,38.837-8.407l0.913-0.003c11.191,0,31.072,1.11,38.474,8.551
		c7.001,7.038,10.842,16.382,10.816,26.312c-0.026,9.932-3.918,19.258-10.96,26.26c-4.17,4.15-12.423,6.825-24.528,7.951
		c-0.112,0.011-0.226,0.018-0.338,0.02l-3.766,0.095L31.673,97.968C30.826,98.545,29.842,98.838,28.854,98.838z M50.71,19.163
		l-0.842,0.003c-19.574,0.139-29.394,3.048-31.855,5.496C12.864,29.783,10.019,36.6,10,43.858
		c-0.019,7.258,2.791,14.091,7.913,19.238c2.89,2.905,4.085,4.107,11.427,4.825c2.048,0.2,3.765,1.635,4.325,3.615
		c0.198,0.702,0.309,1.093,0.252,12.79l22.071-15.068c0.796-0.543,1.731-0.845,2.694-0.868l5.07-0.127
		c13.472-1.274,17.361-4.199,18.235-5.067C87.136,58.076,89.98,51.26,90,44c0.019-7.259-2.789-14.09-7.906-19.233
		C78.812,21.467,65.906,19.163,50.71,19.163z"/>
</g>
</svg>
