<?xml version="1.0" encoding="utf-8"?>
<!-- Generator: Adobe Illustrator 16.0.0, SVG Export Plug-In . SVG Version: 6.00 Build 0)  -->
<!DOCTYPE svg PUBLIC "-//W3C//DTD SVG 1.1//EN" "http://www.w3.org/Graphics/SVG/1.1/DTD/svg11.dtd">
<svg version="1.1" xmlns="http://www.w3.org/2000/svg" xmlns:xlink="http://www.w3.org/1999/xlink" x="0px" y="0px" width="100px"
	 height="100px" viewBox="0 0 100 100" enable-background="new 0 0 100 100" xml:space="preserve">
<g id="Layer_3" display="none">
</g>
<g id="Your_Icon">
</g>
<g id="Layer_4">
	<g>
		<path fill="none" d="M75.025,66.541C78.167,61.797,80,56.113,80,50c0-16.571-13.43-30-30-30c-6.115,0-11.799,1.833-16.542,4.974
			L75.025,66.541z"/>
		<path fill="none" d="M24.973,33.459C21.833,38.201,20,43.885,20,50c0,16.563,13.43,30,30,30c6.114,0,11.797-1.833,16.54-4.975
			L24.973,33.459z"/>
		<path d="M50,10c-22.056,0-40,17.944-40,40s17.944,40,40,40s40-17.944,40-40S72.056,10,50,10z M80,50
			c0,6.113-1.833,11.797-4.975,16.541L33.458,24.974C38.201,21.833,43.885,20,50,20C66.57,20,80,33.429,80,50z M20,50
			c0-6.115,1.833-11.799,4.973-16.541L66.54,75.025C61.797,78.167,56.114,80,50,80C33.43,80,20,66.563,20,50z"/>
	</g>
</g>
</svg>
