<?xml version="1.0" encoding="utf-8"?>
<!-- Generator: Adobe Illustrator 16.0.0, SVG Export Plug-In . SVG Version: 6.00 Build 0)  -->
<!DOCTYPE svg PUBLIC "-//W3C//DTD SVG 1.1//EN" "http://www.w3.org/Graphics/SVG/1.1/DTD/svg11.dtd">
<svg version="1.1" xmlns="http://www.w3.org/2000/svg" xmlns:xlink="http://www.w3.org/1999/xlink" x="0px" y="0px" width="100px"
	 height="100px" viewBox="0 0 100 100" enable-background="new 0 0 100 100" xml:space="preserve">
<g id="Layer_3" display="none">
</g>
<g id="Your_Icon">
</g>
<g id="Layer_4">
	<path d="M49.999,4.4C38.972,4.4,30,13.373,30,24.4s8.972,20,19.999,20C61.028,44.4,70,35.428,70,24.4S61.028,4.4,49.999,4.4z"/>
	<g>
		<path d="M50,49.445c-20.953,0-38,18.213-38,40.354c0,5.522,4.477,10.2,10,10.2h56c5.523,0,10-4.678,10-10.2
			C88,67.658,70.953,49.445,50,49.445z M65,77H52.073l0.004,12.863l-4.546-0.066L47.527,77H35v-4h12.526l-0.004-12.863l4.546,0.066
			L52.072,73H65V77z"/>
	</g>
</g>
</svg>
