<?xml version="1.0" encoding="utf-8"?>
<!-- Generator: Adobe Illustrator 16.0.0, SVG Export Plug-In . SVG Version: 6.00 Build 0)  -->
<!DOCTYPE svg PUBLIC "-//W3C//DTD SVG 1.1//EN" "http://www.w3.org/Graphics/SVG/1.1/DTD/svg11.dtd">
<svg version="1.1" xmlns="http://www.w3.org/2000/svg" xmlns:xlink="http://www.w3.org/1999/xlink" x="0px" y="0px" width="100px"
	 height="100px" viewBox="0 0 100 100" enable-background="new 0 0 100 100" xml:space="preserve">
<g id="Layer_3" display="none">
</g>
<g id="Your_Icon">
</g>
<g id="Layer_4">
	<g>
		<path fill="none" d="M46,50.797c8,0.079,17.552,4.356,28.897,12.729C63.505,55.118,54,50.838,46,50.793V50.797z"/>
		<path d="M87.928,0.404c-1.97-0.723-4.076-0.247-5.434,1.349C77.199,7.969,60.643,24,47.318,24H20.983
			c-8.802,0-15.798,6.855-16.136,15.509c-0.005,0.158-0.013,5.562-0.006,5.673c0.34,8.766,7.417,15.631,16.216,15.631l3.446,0.004
			c3.164,0.004,7.757,0.01,11.905,0.01c7.457,0,9.018-0.019,9.554-0.033l0.318-0.004c11.822,0,30.426,15.928,36.597,22.064
			c0.956,0.95,2.229,1.455,3.526,1.455c0.646,0,1.098-0.125,1.718-0.383C89.985,83.15,91,81.329,91,79.31V5.097
			C91,3.001,89.894,1.128,87.928,0.404z M81,68.143c-1-1.467-3.766-3.039-5.902-4.616C63.752,55.153,54,50.876,46,50.797v-0.004V34
			h1.318C60.064,34,73,24.727,81,17.238V68.143z"/>
		<path d="M27,91.163c0,4.402,3.423,7.977,7.921,8.137l0.928,0.003c0.056,0,1.029-0.008,1.065-0.01
			C41.406,99.121,45,95.55,45,91.163V65H27V91.163z"/>
	</g>
</g>
</svg>
