<?xml version="1.0" encoding="utf-8"?>
<!-- Generator: Adobe Illustrator 16.0.0, SVG Export Plug-In . SVG Version: 6.00 Build 0)  -->
<!DOCTYPE svg PUBLIC "-//W3C//DTD SVG 1.1//EN" "http://www.w3.org/Graphics/SVG/1.1/DTD/svg11.dtd">
<svg version="1.1" xmlns="http://www.w3.org/2000/svg" xmlns:xlink="http://www.w3.org/1999/xlink" x="0px" y="0px" width="100px"
	 height="100px" viewBox="0 0 100 100" enable-background="new 0 0 100 100" xml:space="preserve">
<g id="Layer_3" display="none">
</g>
<g id="Your_Icon">
</g>
<g id="Layer_4">
	<g>
		<path fill="none" d="M32.272,20.895c-5.619,0-13.638,6.918-19.431,12.947c0.021-0.008,0.042-0.013,0.064-0.021
			c5.788-6.014,13.768-12.838,19.367-12.838c3.973,0,6.377,4.449,7.146,13.047C38.649,25.433,36.245,20.895,32.272,20.895z"/>
		<path fill="none" d="M66.198,27.182c-0.012,0.016-0.026,0.03-0.039,0.045c6.346-0.125,8.999,3.036,10.084,5.663
			c0.589,1.425,0.863,3.052,0.89,4.812c-0.02-1.795-0.292-3.454-0.89-4.901C75.16,30.18,72.515,27.072,66.198,27.182z"/>
		<path fill="none" d="M92.552,26.313c0.017,1.584-0.12,3.557-0.384,5.766C92.433,29.871,92.569,27.899,92.552,26.313z"/>
		<path d="M94.872,18.726c-4.414-3.395-8.984-5.116-13.583-5.116c-13.677,0-22.429,15.031-22.795,15.671
			c-0.497,0.87-0.427,1.953,0.178,2.752c0.605,0.798,1.628,1.16,2.601,0.914c2.034-0.511,3.824-0.77,5.321-0.77
			c3.541,0,4.555,1.419,5.009,2.486c3.407,8-9.546,30.244-11.583,32.364c-0.017,0.016-1.639,1.617-3.539,1.617h0
			c-2.097,0-9.16-2.543-12.082-35.237c-1.295-14.474-7.309-17.513-12.126-17.513c-5.227,0-11.782,3.691-19.483,10.971
			c-5.51,5.208-9.58,10.338-9.75,10.554c-0.473,0.598-0.646,1.379-0.473,2.121c0.174,0.742,0.678,1.364,1.367,1.689l2.112,0.997
			c0.837,0.396,1.823,0.295,2.563-0.258c4.562-3.408,7.163-3.917,8.308-3.917c0.582,0,0.937,0.126,1.133,0.232
			c13.759,50.564,16.97,60.108,34.209,60.108l0.484-0.002c14.005-0.135,26.236-18.274,35.329-34.065
			C92.746,56.185,101.967,24.165,94.872,18.726z M32.272,20.983c-5.599,0-13.579,6.824-19.367,12.838
			c-0.021,0.008-0.042,0.013-0.064,0.021c5.793-6.029,13.812-12.947,19.431-12.947c3.973,0,6.377,4.538,7.146,13.136
			C38.649,25.433,36.245,20.983,32.272,20.983z M76.244,32.89c-1.086-2.627-3.738-5.788-10.084-5.663
			c0.012-0.015,0.026-0.029,0.039-0.045c6.317-0.109,8.962,2.998,10.046,5.619c0.598,1.447,0.871,3.106,0.89,4.901
			C77.107,35.941,76.833,34.314,76.244,32.89z M92.168,32.079c0.264-2.209,0.401-4.182,0.384-5.766
			C92.569,27.899,92.433,29.871,92.168,32.079z"/>
	</g>
</g>
</svg>
