<?xml version="1.0" encoding="utf-8"?>
<!-- Generator: Adobe Illustrator 16.0.0, SVG Export Plug-In . SVG Version: 6.00 Build 0)  -->
<!DOCTYPE svg PUBLIC "-//W3C//DTD SVG 1.1//EN" "http://www.w3.org/Graphics/SVG/1.1/DTD/svg11.dtd">
<svg version="1.1" xmlns="http://www.w3.org/2000/svg" xmlns:xlink="http://www.w3.org/1999/xlink" x="0px" y="0px" width="100px"
	 height="100px" viewBox="0 0 100 100" enable-background="new 0 0 100 100" xml:space="preserve">
<g id="Layer_3" display="none">
</g>
<g id="Your_Icon">
</g>
<g id="Layer_4">
	<g>
		<path d="M90,14H10C4.478,14,0,18.477,0,24v66.1c0,2.654,1.055,5.149,2.933,7.025C4.808,98.998,7.35,100,10,100
			c0.004,0,0.007,0,0.011,0l80-0.033c5.519-0.006,9.989-4.432,9.989-9.95V24C100,18.477,95.522,14,90,14z M71.188,61.378l-28,22.785
			c-0.909,0.74-2.028,1.122-3.157,1.122c-0.729,0-1.479-0.159-2.162-0.484C36.127,83.972,35,82.215,35,80.285v-45.57
			c0-1.93,1.127-3.687,2.869-4.516c1.744-0.829,3.814-0.58,5.312,0.637l28.004,22.785c1.166,0.95,1.846,2.374,1.846,3.878
			S72.354,60.429,71.188,61.378z"/>
	</g>
</g>
</svg>
