<?xml version="1.0" encoding="utf-8"?>
<!-- Generator: Adobe Illustrator 16.0.0, SVG Export Plug-In . SVG Version: 6.00 Build 0)  -->
<!DOCTYPE svg PUBLIC "-//W3C//DTD SVG 1.1//EN" "http://www.w3.org/Graphics/SVG/1.1/DTD/svg11.dtd">
<svg version="1.1" xmlns="http://www.w3.org/2000/svg" xmlns:xlink="http://www.w3.org/1999/xlink" x="0px" y="0px" width="100px"
	 height="100px" viewBox="0 0 100 100" enable-background="new 0 0 100 100" xml:space="preserve">
<g id="Layer_3" display="none">
</g>
<g id="Your_Icon">
</g>
<g id="Layer_4">
	<g>
		<path fill="none" d="M50,60.847C34.537,60.847,22,74,22,91h56C78,74,65.463,60.847,50,60.847z"/>
		<circle fill="none" cx="49.999" cy="25.2" r="10"/>
		<path d="M50,50.246c-20.953,0-38,18.313-38,40.454c0,5.523,4.478,10.3,10,10.3h56c5.522,0,10-4.777,10-10.3
			C88,68.559,70.953,50.246,50,50.246z M22,91c0-17,12.537-30.153,28-30.153S78,74,78,91H22z"/>
		<path d="M49.999,45.2C61.027,45.2,70,36.228,70,25.2s-8.973-20-20.001-20C38.972,5.2,30,14.172,30,25.2S38.972,45.2,49.999,45.2z
			 M49.999,15.2C55.523,15.2,60,19.677,60,25.2s-4.477,10-10.001,10c-5.522,0-9.999-4.477-9.999-10S44.477,15.2,49.999,15.2z"/>
	</g>
</g>
</svg>
