<?xml version="1.0" encoding="utf-8"?>
<!-- Generator: Adobe Illustrator 16.0.0, SVG Export Plug-In . SVG Version: 6.00 Build 0)  -->
<!DOCTYPE svg PUBLIC "-//W3C//DTD SVG 1.1//EN" "http://www.w3.org/Graphics/SVG/1.1/DTD/svg11.dtd">
<svg version="1.1" xmlns="http://www.w3.org/2000/svg" xmlns:xlink="http://www.w3.org/1999/xlink" x="0px" y="0px" width="100px"
	 height="100px" viewBox="0 0 100 100" enable-background="new 0 0 100 100" xml:space="preserve">
<g id="Layer_3" display="none">
</g>
<g id="Your_Icon">
</g>
<g id="Layer_4">
	<path d="M49.996,59.446c15.463,0,28,13.5,28,30.153h-56C21.996,72.946,34.533,59.446,49.996,59.446 M49.996,49.446
		c-20.953,0-38,18.013-38,40.153c0,5.523,4.478,10,10,10h56c5.522,0,10-4.477,10-10C87.996,67.459,70.949,49.446,49.996,49.446
		L49.996,49.446z"/>
	<path d="M49.995,14.4c5.524,0,10.001,4.477,10.001,10s-4.477,10-10.001,10c-5.522,0-9.999-4.477-9.999-10S44.473,14.4,49.995,14.4
		 M49.995,4.4c-11.027,0-19.999,8.972-19.999,20s8.972,20,19.999,20c11.028,0,20.001-8.972,20.001-20S61.023,4.4,49.995,4.4
		L49.995,4.4z"/>
</g>
</svg>
