<?xml version="1.0" encoding="utf-8"?>
<!-- Generator: Adobe Illustrator 16.0.0, SVG Export Plug-In . SVG Version: 6.00 Build 0)  -->
<!DOCTYPE svg PUBLIC "-//W3C//DTD SVG 1.1//EN" "http://www.w3.org/Graphics/SVG/1.1/DTD/svg11.dtd">
<svg version="1.1" xmlns="http://www.w3.org/2000/svg" xmlns:xlink="http://www.w3.org/1999/xlink" x="0px" y="0px" width="100px"
	 height="100px" viewBox="0 0 100 100" enable-background="new 0 0 100 100" xml:space="preserve">
<g id="Layer_3" display="none">
</g>
<g id="Your_Icon">
</g>
<g id="Layer_4">
	<path d="M89.7,10h-80C4.178,10,0,14.177,0,19.7v70c0,2.654,0.906,5.351,2.783,7.226C4.658,98.799,7.051,100,9.7,100
		c0.004,0,0.008,0,0.013,0h80.15C95.381,99.992,100,95.119,100,89.602V19.7C100,14.177,95.223,10,89.7,10z"/>
	<g>
		<polygon points="30.932,24.9 69.068,24.9 66.867,4.9 32.967,4.9 		"/>
		<path d="M69.068,29.9H30.932c-1.414,0-2.762-0.599-3.71-1.648c-0.948-1.049-1.407-2.451-1.265-3.858l2.035-20
			c0.26-2.552,2.409-4.494,4.975-4.494h33.9c2.55,0,4.691,1.918,4.97,4.453l2.201,20c0.155,1.413-0.297,2.825-1.246,3.883
			C71.844,29.295,70.489,29.9,69.068,29.9z M36.466,19.9h27.022l-1.101-10H37.483L36.466,19.9z"/>
	</g>
	<g>
		<circle fill="#FFFFFF" cx="50" cy="54" r="10"/>
		<path fill="#FFFFFF" d="M50,44c5.522,0,10,4.479,10,10s-4.478,10-10,10s-10-4.479-10-10S44.478,44,50,44 M50,34
			c-11.028,0-20,8.972-20,20c0,11.028,8.972,20,20,20s20-8.972,20-20C70,42.972,61.028,34,50,34L50,34z"/>
	</g>
</g>
</svg>
