<?xml version="1.0" encoding="utf-8"?>
<!-- Generator: Adobe Illustrator 16.0.0, SVG Export Plug-In . SVG Version: 6.00 Build 0)  -->
<!DOCTYPE svg PUBLIC "-//W3C//DTD SVG 1.1//EN" "http://www.w3.org/Graphics/SVG/1.1/DTD/svg11.dtd">
<svg version="1.1" xmlns="http://www.w3.org/2000/svg" xmlns:xlink="http://www.w3.org/1999/xlink" x="0px" y="0px" width="100px"
	 height="100px" viewBox="0 0 100 100" enable-background="new 0 0 100 100" xml:space="preserve">
<g id="Layer_3" display="none">
	<polyline display="inline" opacity="0.15" points="165,75.5 75,75.5 75,165.5 165,165.5 	"/>
</g>
<g id="Your_Icon">
</g>
<g id="Layer_4">
	<g>
		<path d="M96.086,46.24c-0.443-1.781-1.827-3.176-3.604-3.634c-0.673-0.174-12.276-3.146-26.739-5.81
			c-0.448,0.083-0.873,0.13-1.268,0.13c-5.916,0-6.525-4.477-6.525-10c0-4.615,0.438-8.488,4.028-9.642
			c-0.575-3.522-1.865-6.805-4.429-9.618c-2.303-2.527-6.566-5.54-13.799-5.54c-10.127,0-20.303,5.127-27.916,14.067
			C8.79,24.466,4.75,34.903,4.75,44.83c0,20.952,17.047,37.997,38,37.997c3.082,0,12.459,0,18.134-7.209
			c2.236-2.841,3.322-6.009,3.687-9.408c4.066,1.104,8.177,1.727,11.773,1.727c4.912,0,8.735-1.131,11.363-3.359
			C98.096,55.765,96.322,47.188,96.086,46.24z"/>
		<g>
			<path fill="#FFFFFF" d="M68.725,19.629c0.187-0.008,0.392,0.017,0.592,0.032c-0.136-0.011-0.281-0.036-0.411-0.036
				C68.845,19.625,68.784,19.627,68.725,19.629z"/>
		</g>
		<path d="M68.905,18.625c-0.074,0-0.148,0.002-0.222,0.005c-6.214,0.254-5.984,5.884-5.848,9.247
			c0.182,4.45,0.53,6.088,0.546,6.156c0.071,0.327,0.302,0.597,0.614,0.718c0.117,0.046,0.24,0.068,0.362,0.068
			c0.203,0,0.405-0.062,0.576-0.183c5.583-3.94,13.013-5.712,16.302-6.342c1.038-0.198,1.668-0.284,1.693-0.288
			c0.396-0.052,0.724-0.335,0.832-0.719c0.109-0.385-0.021-0.797-0.332-1.049c-0.342-0.278-7.591-6.111-12.758-7.365
			C70.051,18.724,69.452,18.625,68.905,18.625C68.905,18.625,68.905,18.625,68.905,18.625z M68.725,19.629
			c0.06-0.002,0.12-0.004,0.181-0.004c0.13,0,0.275,0.025,0.411,0.036C69.116,19.646,68.911,19.621,68.725,19.629z"/>
		<path d="M70.248,73.727c-0.115-0.087-0.264-0.118-0.405-0.088s-0.263,0.121-0.332,0.248
			c-6.192,11.301-17.256,12.521-21.726,12.521h-0.001c-1.104,0-1.77-0.077-1.776-0.077c-0.178-0.024-0.353,0.053-0.459,0.197
			c-0.106,0.143-0.13,0.331-0.06,0.495c0.123,0.287,3.024,7.047,4.805,8.854c2.283,2.319,5.037,3.495,8.186,3.495h0.001
			c7.226,0,15.168-6.496,17.896-10.986C80.547,81.526,70.671,74.041,70.248,73.727z"/>
		<path d="M41.978,86.457c-0.012,0-0.517,0.042-1.397,0.042c-4.771,0-21.001-1.186-29.565-16.509
			c-0.129-0.231-0.419-0.312-0.656-0.195c-0.238,0.117-0.345,0.419-0.24,0.664C10.524,71.418,20.212,94,32.021,94
			c0.001,0,0.002,0,0.003,0c3.706,0,7.205-2.284,10.399-6.716c0.114-0.157,0.126-0.406,0.03-0.576S42.17,86.443,41.978,86.457z"/>
	</g>
</g>
</svg>
