<?xml version="1.0" encoding="utf-8"?>
<!-- Generator: Adobe Illustrator 16.0.0, SVG Export Plug-In . SVG Version: 6.00 Build 0)  -->
<!DOCTYPE svg PUBLIC "-//W3C//DTD SVG 1.1//EN" "http://www.w3.org/Graphics/SVG/1.1/DTD/svg11.dtd">
<svg version="1.1" xmlns="http://www.w3.org/2000/svg" xmlns:xlink="http://www.w3.org/1999/xlink" x="0px" y="0px" width="100px"
	 height="100px" viewBox="0 0 100 100" enable-background="new 0 0 100 100" xml:space="preserve">
<g id="Layer_3" display="none">
</g>
<g id="Your_Icon">
</g>
<g id="Layer_4">
	<g>
		<path d="M60.34,60.349c0.082-0.969,17.517-16.713,17.428-27.515c-0.12-14.988-12.37-27.129-27.346-27.008
			C35.43,5.945,23.382,18.275,23.505,33.257c0.079,9.965,15.623,26.123,15.684,27.092H21.891v13.569h56l-0.064-13.569H60.34z"/>
		<path d="M77.891,78.918h-56c-2.762,0-5-2.238-5-5V60.349c0-2.762,2.238-5,5-5h7.091c-5.792-7.644-10.423-15.34-10.477-22.052
			c-0.07-8.582,3.204-16.69,9.219-22.828c6.027-6.149,14.074-9.574,22.658-9.643l0.262-0.001c17.572,0,31.982,14.341,32.124,31.969
			c0.062,7.645-5.994,16.229-11.349,22.555h6.407c2.752,0,4.987,2.224,5,4.977l0.064,13.569c0.006,1.33-0.518,2.607-1.456,3.551
			C80.496,78.388,79.221,78.918,77.891,78.918z M26.891,68.918h45.977l-0.018-3.569H60.34c-1.399,0-2.734-0.587-3.682-1.617
			s-1.419-2.41-1.301-3.805c0.163-1.927,1.014-2.846,3.538-5.574c3.444-3.722,13.925-15.048,13.872-21.478
			c-0.098-12.158-10.022-22.05-22.124-22.05l-0.182,0.001c-5.906,0.047-11.444,2.405-15.596,6.642
			c-4.15,4.235-6.41,9.828-6.361,15.748c0.047,5.907,9.035,16.969,12.418,21.133c2.414,2.97,3.142,3.865,3.256,5.688
			c0.086,1.377-0.401,2.729-1.346,3.735c-0.945,1.006-2.265,1.576-3.645,1.576H26.891V68.918z"/>
	</g>
	<path d="M91.068,99.5H8.932c-2.762,0-5-2.238-5-5v-18c0-2.762,2.238-5,5-5h82.002c2.747,0,4.979,2.216,5,4.963l0.135,18
		c0.01,1.332-0.513,2.613-1.451,3.56C93.679,98.968,92.401,99.5,91.068,99.5z M13.932,89.5h72.1l-0.061-8H13.932V89.5z"/>
</g>
</svg>
