<?xml version="1.0" encoding="utf-8"?>
<!-- Generator: Adobe Illustrator 16.0.0, SVG Export Plug-In . SVG Version: 6.00 Build 0)  -->
<!DOCTYPE svg PUBLIC "-//W3C//DTD SVG 1.1//EN" "http://www.w3.org/Graphics/SVG/1.1/DTD/svg11.dtd">
<svg version="1.1" xmlns="http://www.w3.org/2000/svg" xmlns:xlink="http://www.w3.org/1999/xlink" x="0px" y="0px" width="100px"
	 height="100px" viewBox="0 0 100 100" enable-background="new 0 0 100 100" xml:space="preserve">
<g id="Layer_3" display="none">
</g>
<g id="Your_Icon">
</g>
<g id="Layer_4">
	<g>
		<path d="M45,68.056C45,65.294,47.239,63,50,63h13.63C59.61,48.697,47.18,37.929,32.5,37.929C14.579,37.929,0,53.922,0,72.859
			C0,77.583,3.829,82,8.552,82h36.464C45.014,82,45,81.999,45,81.944V68.056z"/>
		<path d="M32.499,34.209c9.432,0,17.106-7.674,17.106-17.105C49.605,7.671,41.931,0,32.499,0c-9.432,0-17.105,7.671-17.105,17.104
			C15.394,26.535,23.067,34.209,32.499,34.209z"/>
		<rect x="50" y="68" width="50" height="14"/>
	</g>
</g>
</svg>
