<?xml version="1.0" encoding="utf-8"?>
<!-- Generator: Adobe Illustrator 16.0.0, SVG Export Plug-In . SVG Version: 6.00 Build 0)  -->
<!DOCTYPE svg PUBLIC "-//W3C//DTD SVG 1.1//EN" "http://www.w3.org/Graphics/SVG/1.1/DTD/svg11.dtd">
<svg version="1.1" xmlns="http://www.w3.org/2000/svg" xmlns:xlink="http://www.w3.org/1999/xlink" x="0px" y="0px" width="100px"
	 height="100px" viewBox="0 0 100 100" enable-background="new 0 0 100 100" xml:space="preserve">
<g id="Layer_3" display="none">
</g>
<g id="Your_Icon">
</g>
<g id="Layer_4">
	<g>
		<path d="M100,0.062l-28.654,0.05c-17.665,0-38.2,14.415-38.2,33c0,3.396-5.417,11.984-10.435,17.992
			c-1.134,1.355-1.468,3.208-0.88,4.874c0.589,1.666,2.013,2.897,3.746,3.24l12.116,2.392c-1.023,11.763-0.129,19.275,2.669,22.356
			c1.315,1.448,2.841,2.222,4.749,2.186C46.002,86.135,51,86.185,55,86.244V100h10V87.969v-6.656c0-2.733-1.971-4.96-4.705-5
			C59.221,76.297,49.2,77.5,47.549,76.157c-1.054-0.856-0.329-10.939,0.494-17.989c0.303-2.591-1.41-4.981-3.97-5.486l-8.72-1.725
			c3.634-5.239,7.785-12.408,7.785-17.845c0-12.387,15.509-23,28.212-23l26.981-0.046L100,10.062V0.062z"/>
	</g>
	<g>
		<circle cx="64.746" cy="38.612" r="10"/>
	</g>
</g>
</svg>
