<?xml version="1.0" encoding="utf-8"?>
<!-- Generator: Adobe Illustrator 16.0.0, SVG Export Plug-In . SVG Version: 6.00 Build 0)  -->
<!DOCTYPE svg PUBLIC "-//W3C//DTD SVG 1.1//EN" "http://www.w3.org/Graphics/SVG/1.1/DTD/svg11.dtd">
<svg version="1.1" xmlns="http://www.w3.org/2000/svg" xmlns:xlink="http://www.w3.org/1999/xlink" x="0px" y="0px" width="100px"
	 height="100px" viewBox="0 0 100 100" enable-background="new 0 0 100 100" xml:space="preserve">
<g id="Layer_3" display="none">
</g>
<g id="Your_Icon">
</g>
<g id="Layer_4">
	<g>
		<path d="M20,65c-8.271,0-15-6.729-15-15s6.729-15,15-15s15,6.729,15,15S28.271,65,20,65z"/>
		<path fill="#FFFFFF" d="M20,40c5.524,0,10,4.477,10,10s-4.476,10-10,10c-5.522,0-10-4.477-10-10S14.478,40,20,40 M20,30
			C8.972,30,0,38.972,0,50s8.972,20,20,20s20-8.972,20-20S31.028,30,20,30L20,30z"/>
	</g>
	<g>
		<path d="M50,65c-8.271,0-15-6.729-15-15s6.729-15,15-15s15,6.729,15,15S58.271,65,50,65z"/>
		<path fill="#FFFFFF" d="M50,40c5.524,0,10,4.477,10,10s-4.476,10-10,10c-5.522,0-10-4.477-10-10S44.478,40,50,40 M50,30
			c-11.028,0-20,8.972-20,20s8.972,20,20,20s20-8.972,20-20S61.028,30,50,30L50,30z"/>
	</g>
	<g>
		<path d="M80,65c-8.271,0-15-6.729-15-15s6.729-15,15-15s15,6.729,15,15S88.271,65,80,65z"/>
		<path fill="#FFFFFF" d="M80,40c5.524,0,10,4.477,10,10s-4.476,10-10,10c-5.522,0-10-4.477-10-10S74.478,40,80,40 M80,30
			c-11.028,0-20,8.972-20,20s8.972,20,20,20s20-8.972,20-20S91.028,30,80,30L80,30z"/>
	</g>
</g>
</svg>
