<?xml version="1.0" encoding="utf-8"?>
<!-- Generator: Adobe Illustrator 16.0.0, SVG Export Plug-In . SVG Version: 6.00 Build 0)  -->
<!DOCTYPE svg PUBLIC "-//W3C//DTD SVG 1.1//EN" "http://www.w3.org/Graphics/SVG/1.1/DTD/svg11.dtd">
<svg version="1.1" xmlns="http://www.w3.org/2000/svg" xmlns:xlink="http://www.w3.org/1999/xlink" x="0px" y="0px" width="100px"
	 height="100px" viewBox="0 0 100 100" enable-background="new 0 0 100 100" xml:space="preserve">
<g id="Layer_3" display="none">
</g>
<g id="Your_Icon">
</g>
<g id="Layer_4">
	<path d="M49.999,4.701c-11.027,0-19.999,8.972-19.999,20s8.972,20,19.999,20c11.029,0,20.001-8.972,20.001-20
		S61.028,4.701,49.999,4.701z"/>
	<g>
		<path d="M50,49.747c-20.953,0-38,18.062-38,40.203C12,95.473,16.477,100,22,100h19.359c0.571-6.237,1.691-17.87,2.341-20.785
			c0.864-3.881,6.3-7.2,6.3-7.2s5.219,3.373,6.3,7.2c0.591,2.092,1.757,14.323,2.344,20.785H78c5.523,0,10-4.527,10-10.05
			C88,67.81,70.953,49.747,50,49.747z M49.988,71.375c0,0-7.199-3.223-7.199-7.2c0-3.976,7.199-7.198,7.199-7.198
			s7.2,3.223,7.2,7.198C57.188,68.152,49.988,71.375,49.988,71.375z"/>
	</g>
</g>
</svg>
