<?xml version="1.0" encoding="utf-8"?>
<!-- Generator: Adobe Illustrator 16.0.0, SVG Export Plug-In . SVG Version: 6.00 Build 0)  -->
<!DOCTYPE svg PUBLIC "-//W3C//DTD SVG 1.1//EN" "http://www.w3.org/Graphics/SVG/1.1/DTD/svg11.dtd">
<svg version="1.1" xmlns="http://www.w3.org/2000/svg" xmlns:xlink="http://www.w3.org/1999/xlink" x="0px" y="0px" width="100px"
	 height="100px" viewBox="0 0 100 100" enable-background="new 0 0 100 100" xml:space="preserve">
<g id="Layer_3" display="none">
</g>
<g id="Your_Icon">
</g>
<g id="Layer_4">
	<g>
		<path d="M70.054,38.144c-8.961-0.15-16.688,2.219-23.092,7.095l-4.824-4.316c-0.916-0.819-2.292-0.852-3.246-0.075
			c-0.953,0.776-1.2,2.131-0.583,3.194l3.308,5.695c-8.584,9.377-11.28,20.6-11.396,21.096c-0.245,1.049,0.209,2.137,1.127,2.699
			c0.403,0.247,0.856,0.369,1.308,0.369c0.575,0,1.147-0.198,1.609-0.587L48.61,61.241l5.31,8.619
			c0.382,0.618,1.013,1.04,1.729,1.156c0.721,0.115,1.449-0.085,2.006-0.553l6.58-5.521c0.552-0.463,0.877-1.141,0.893-1.86
			c0.017-0.72-0.279-1.411-0.81-1.897l-7.124-6.529l14.418-12.098c0.799-0.67,1.098-1.765,0.751-2.747
			C72.017,38.828,71.096,38.164,70.054,38.144z"/>
		<path d="M17.514,29.154c-0.231,1.208,0.449,2.404,1.605,2.822l6.195,2.237c-0.548,12.703,4.601,23.032,4.83,23.487
			c0.431,0.849,1.298,1.37,2.229,1.37c0.122,0,0.246-0.009,0.369-0.027c1.065-0.158,1.909-0.981,2.095-2.042l3.229-18.47l9.607,3.19
			c0.69,0.228,1.445,0.147,2.069-0.227c0.624-0.372,1.055-0.997,1.181-1.713l1.49-8.459c0.125-0.709-0.062-1.437-0.512-1.998
			c-0.451-0.562-1.121-0.901-1.841-0.934l-9.651-0.424l3.268-18.535c0.181-1.025-0.294-2.057-1.191-2.587
			c-0.896-0.529-2.029-0.447-2.841,0.208c-6.945,5.604-11.354,12.417-13.129,20.278l-6.469-0.207
			C18.775,27.08,17.744,27.947,17.514,29.154z"/>
		<path d="M98.522,5.882c-0.845-0.669-2.021-0.723-2.922-0.137l-15.7,10.25l-4.23-9.198c-0.304-0.66-0.88-1.155-1.577-1.356
			c-0.7-0.203-1.45-0.091-2.059,0.307l-7.198,4.687c-0.604,0.393-1.008,1.026-1.11,1.738c-0.103,0.713,0.107,1.436,0.575,1.982
			l6.282,7.34L54.81,31.761c-0.873,0.569-1.302,1.62-1.076,2.637c0.226,1.018,1.059,1.788,2.091,1.935
			c2.031,0.287,4.05,0.433,5.999,0.433h0.001c6.485,0,12.456-1.575,17.778-4.688l4.267,4.87c0.49,0.559,1.182,0.853,1.882,0.853
			c0.458,0,0.92-0.126,1.332-0.385c1.04-0.655,1.449-1.97,0.965-3.101l-2.596-6.053C95.106,19.988,99.14,9.176,99.314,8.697
			C99.685,7.686,99.365,6.552,98.522,5.882z"/>
		<path d="M62.932,81.791c-0.336-0.505-0.988-0.69-1.539-0.438l-3.131,1.435c-4.388-4.891-10.033-6.839-10.282-6.923
			c-0.503-0.17-1.058,0.001-1.378,0.425c-0.318,0.423-0.332,1.004-0.031,1.441l5.53,8.031l-4.755,2.331
			c-0.322,0.157-0.559,0.447-0.65,0.793c-0.092,0.347-0.027,0.716,0.176,1.011l2.512,3.657c0.2,0.292,0.518,0.483,0.869,0.525
			c0.354,0.042,0.707-0.07,0.97-0.308l3.761-3.381l5.54,8.068c0.291,0.423,0.813,0.621,1.312,0.498
			c0.499-0.124,0.868-0.544,0.928-1.054c0.019-0.153,0.034-0.305,0.049-0.455c0.426-4.401-0.438-8.355-2.565-11.771l2.495-2.298
			C63.187,82.969,63.268,82.295,62.932,81.791z"/>
		<path d="M46.09,18.855c0.406,0.343,0.985,0.388,1.438,0.11l8.324-5.08l2.066,4.877c0.139,0.33,0.415,0.583,0.756,0.692
			c0.342,0.109,0.713,0.065,1.019-0.12l3.788-2.306c0.305-0.185,0.513-0.49,0.574-0.84s-0.031-0.709-0.254-0.985l-3.169-3.941
			l8.36-5.086c0.439-0.267,0.667-0.779,0.57-1.283c-0.096-0.503-0.495-0.896-1-0.985c-4.548-0.783-8.695-0.164-12.348,1.841
			L54.059,3.13c-0.395-0.469-1.055-0.584-1.576-0.278c-0.522,0.309-0.744,0.95-0.521,1.513l1.26,3.207
			c-5.126,4.112-7.381,9.642-7.479,9.886c-0.174,0.436-0.085,0.927,0.219,1.271C46,18.772,46.043,18.816,46.09,18.855z"/>
		<path d="M28.29,68.899c0.319-0.16,0.554-0.452,0.642-0.798l1.084-4.301c0.088-0.345,0.021-0.709-0.18-1.002
			c-0.201-0.292-0.52-0.483-0.871-0.524l-5.022-0.588l2.396-9.488c0.124-0.498-0.072-1.022-0.494-1.314s-0.982-0.293-1.404-0.001
			c-3.793,2.63-6.315,5.979-7.514,9.971l-3.373-0.356c-0.61-0.058-1.162,0.323-1.319,0.907c-0.155,0.586,0.136,1.199,0.688,1.444
			l3.147,1.403c-0.771,6.525,1.498,12.049,1.6,12.293c0.181,0.432,0.589,0.72,1.048,0.751c0.059,0.005,0.119,0.006,0.182,0
			c0.528-0.039,0.973-0.415,1.102-0.929l2.373-9.458l4.893,2.027C27.596,69.074,27.971,69.062,28.29,68.899z"/>
		<path d="M37.369,81.197l4.212-3.21c0.284-0.218,0.462-0.547,0.483-0.905c0.02-0.357-0.113-0.706-0.369-0.956l-3.174-3.099
			c-0.254-0.248-0.602-0.375-0.955-0.348c-0.355,0.027-0.68,0.206-0.892,0.49l-3.032,4.047l-7.002-6.837
			c-0.367-0.359-0.92-0.452-1.384-0.234c-0.464,0.219-0.746,0.702-0.706,1.215c0.369,4.599,1.997,8.463,4.846,11.504l-2.002,2.738
			c-0.355,0.499-0.305,1.167,0.121,1.596c0.43,0.431,1.105,0.485,1.596,0.131l2.793-2.017c5.256,3.946,11.171,4.759,11.434,4.794
			c0.465,0.061,0.917-0.147,1.176-0.528c0.033-0.049,0.065-0.102,0.091-0.157c0.231-0.478,0.131-1.05-0.248-1.42L37.369,81.197z"/>
		<path d="M6.279,16.935c-0.266,0.24-0.414,0.583-0.406,0.941s0.17,0.694,0.445,0.924l3.418,2.827
			c0.273,0.228,0.63,0.324,0.98,0.269c0.351-0.057,0.66-0.262,0.848-0.562l2.689-4.282l7.539,6.241
			c0.396,0.327,0.954,0.375,1.399,0.119c0.444-0.255,0.685-0.761,0.604-1.268c-0.745-4.554-2.685-8.271-5.773-11.068l1.771-2.894
			c0.314-0.526,0.208-1.188-0.252-1.581c-0.463-0.393-1.141-0.393-1.601,0.002L15.324,8.84C9.762,5.339,3.8,5.015,3.537,5.001
			C3.068,4.979,2.633,5.224,2.406,5.623C2.378,5.675,2.351,5.729,2.329,5.787C2.138,6.282,2.285,6.845,2.693,7.183l7.521,6.206
			L6.279,16.935z"/>
		<path d="M94.269,42.392c-0.942-0.525-2.113-0.384-2.904,0.342L77.546,55.408l-5.675-8.385c-0.407-0.602-1.056-0.996-1.777-1.081
			c-0.719-0.086-1.445,0.147-1.98,0.638l-6.336,5.798c-0.531,0.486-0.827,1.178-0.812,1.897c0.015,0.719,0.339,1.397,0.89,1.86
			l7.396,6.219L55.363,75.056c-0.769,0.703-1.021,1.609-0.632,2.576c0.381,0.949,1.3,1.368,2.319,1.368c0.02,0,0.039,0,0.059,0
			c8.922,0,16.569-2.721,22.768-7.875l5.004,4.209c0.95,0.778,2.326,0.803,3.246-0.014c0.919-0.816,1.108-2.155,0.446-3.191
			l-3.548-5.537c8.174-9.736,10.391-21.057,10.485-21.558C95.71,43.977,95.21,42.915,94.269,42.392z"/>
		<path d="M95.053,77.328c-4.445-1.238-8.634-1.041-12.47,0.585l-1.881-2.822c-0.346-0.507-0.99-0.689-1.541-0.437
			c-0.55,0.254-0.835,0.869-0.671,1.452l0.93,3.317c-5.515,3.575-8.315,8.849-8.438,9.081c-0.218,0.416-0.178,0.914,0.089,1.287
			c0.034,0.048,0.073,0.096,0.116,0.14c0.369,0.381,0.941,0.485,1.42,0.255l8.793-4.216l1.562,5.062
			c0.107,0.343,0.355,0.622,0.684,0.766c0.328,0.143,0.701,0.137,1.025-0.018l4.002-1.912c0.32-0.151,0.559-0.436,0.656-0.777
			c0.096-0.341,0.039-0.709-0.154-1.005l-2.755-4.24l8.831-4.218c0.464-0.222,0.742-0.708,0.697-1.219S95.547,77.468,95.053,77.328z
			"/>
		<path d="M14.09,50.952c0.085,0.524,0.496,0.935,1.021,1.019c0.059,0.012,0.12,0.015,0.18,0.017
			c0.459,0.007,0.891-0.245,1.107-0.66c0.121-0.233,2.854-5.545,2.642-12.112l3.256-1.13c0.571-0.196,0.914-0.782,0.809-1.379
			c-0.106-0.597-0.624-1.021-1.237-1.017l-3.392,0.067c-0.853-4.08-3.081-7.632-6.635-10.574c-0.396-0.327-0.954-0.374-1.399-0.119
			c-0.445,0.254-0.687,0.762-0.604,1.267l1.576,9.659l-5.055,0.158c-0.354,0.009-0.687,0.173-0.913,0.447
			c-0.226,0.275-0.321,0.632-0.265,0.983l0.714,4.377c0.059,0.352,0.267,0.663,0.572,0.85c0.306,0.189,0.675,0.234,1.019,0.125
			l5.047-1.604L14.09,50.952z"/>
	</g>
</g>
</svg>
