<?xml version="1.0" encoding="utf-8"?>
<!-- Generator: Adobe Illustrator 16.0.0, SVG Export Plug-In . SVG Version: 6.00 Build 0)  -->
<!DOCTYPE svg PUBLIC "-//W3C//DTD SVG 1.1//EN" "http://www.w3.org/Graphics/SVG/1.1/DTD/svg11.dtd">
<svg version="1.1" xmlns="http://www.w3.org/2000/svg" xmlns:xlink="http://www.w3.org/1999/xlink" x="0px" y="0px" width="100px"
	 height="100px" viewBox="0 0 100 100" enable-background="new 0 0 100 100" xml:space="preserve">
<g id="Layer_3" display="none">
</g>
<g id="Your_Icon">
</g>
<g id="Layer_4">
	<g>
		<path fill="none" d="M62.728,95.816c-0.087,0.022-0.175,0.045-0.263,0.059C62.553,95.861,62.64,95.838,62.728,95.816z"/>
		<path fill="none" d="M62.086,95.906c0.063,0,0.125-0.011,0.188-0.016c-0.083,0.006-0.166,0.012-0.249,0.01
			C62.046,95.9,62.066,95.906,62.086,95.906z"/>
		<path fill="none" d="M63.706,95.332c-0.123,0.1-0.253,0.186-0.387,0.259C63.454,95.517,63.583,95.432,63.706,95.332z"/>
		<path fill="none" d="M61.75,95.874c-0.066-0.009-0.133-0.014-0.199-0.028C61.616,95.86,61.683,95.865,61.75,95.874z"/>
		<path fill="none" d="M63.181,95.653c-0.092,0.043-0.184,0.087-0.28,0.119C62.997,95.74,63.088,95.696,63.181,95.653z"/>
		<path fill="none" d="M60.693,53.287c0.045-0.03,0.094-0.049,0.14-0.075C60.787,53.238,60.738,53.257,60.693,53.287z"/>
		<path fill="none" d="M60.802,95.553c-0.046-0.027-0.095-0.047-0.14-0.077C60.707,95.506,60.755,95.526,60.802,95.553z"/>
		<path fill="none" d="M88.426,95.706c0.034,0,0.068-0.009,0.103-0.01c-0.077,0.003-0.153,0.004-0.23,0
			C88.341,95.698,88.384,95.706,88.426,95.706z"/>
		<path fill="none" d="M89.016,95.631c-0.065,0.015-0.131,0.025-0.196,0.035C88.885,95.656,88.95,95.646,89.016,95.631z"/>
		<path fill="none" d="M89.486,95.475c-0.059,0.026-0.119,0.044-0.18,0.066C89.367,95.52,89.428,95.501,89.486,95.475z"/>
		<path fill="none" d="M89.928,95.232c-0.046,0.031-0.095,0.054-0.143,0.083C89.833,95.287,89.882,95.264,89.928,95.232z"/>
		<path fill="none" d="M61.111,53.067c0.058-0.024,0.119-0.036,0.179-0.055C61.23,53.031,61.169,53.043,61.111,53.067z"/>
		<path fill="none" d="M87.297,95.425c-0.13-0.07-0.256-0.15-0.375-0.247C87.041,95.274,87.167,95.355,87.297,95.425z"/>
		<path fill="none" d="M87.701,95.592c-0.092-0.029-0.181-0.067-0.269-0.107C87.521,95.525,87.609,95.563,87.701,95.592z"/>
		<path fill="none" d="M88.125,95.682c-0.087-0.011-0.173-0.028-0.259-0.048C87.951,95.653,88.037,95.671,88.125,95.682z"/>
		<path fill="none" d="M61.271,95.764c-0.06-0.02-0.122-0.035-0.18-0.06C61.15,95.729,61.211,95.744,61.271,95.764z"/>
		<path fill="none" d="M89.654,52.926c0.058,0.02,0.118,0.034,0.175,0.058C89.772,52.96,89.713,52.945,89.654,52.926z"/>
		<path fill="none" d="M90.117,53.136c0.045,0.027,0.094,0.047,0.138,0.077C90.21,53.183,90.162,53.163,90.117,53.136z"/>
		<path fill="none" d="M89.183,52.815c0.064,0.009,0.129,0.014,0.193,0.027C89.312,52.829,89.248,52.824,89.183,52.815z"/>
		<path fill="none" d="M61.556,52.934c0.065-0.013,0.132-0.015,0.199-0.023C61.688,52.918,61.622,52.921,61.556,52.934z"/>
		<path fill="none" d="M88.85,52.783c-0.062,0-0.123,0.011-0.184,0.016c0.081-0.006,0.162-0.012,0.243-0.01
			C88.89,52.788,88.87,52.783,88.85,52.783z"/>
		<path fill="none" d="M88.219,52.873c0.085-0.022,0.171-0.045,0.258-0.059C88.39,52.827,88.305,52.85,88.219,52.873z"/>
		<path fill="none" d="M62.906,53.03c0.094,0.033,0.185,0.078,0.276,0.122C63.091,53.108,63,53.062,62.906,53.03z"/>
		<path fill="none" d="M63.328,53.218c0.136,0.076,0.268,0.163,0.392,0.264C63.596,53.381,63.464,53.293,63.328,53.218z"/>
		<path fill="none" d="M62.465,52.919c0.089,0.015,0.175,0.041,0.263,0.064C62.64,52.959,62.554,52.934,62.465,52.919z"/>
		<path fill="none" d="M62.049,52.883c-0.011,0-0.021,0.003-0.032,0.003c0.086-0.001,0.172,0.009,0.257,0.017
			C62.2,52.896,62.125,52.883,62.049,52.883z"/>
		<path fill="none" d="M87.769,53.037c0.092-0.043,0.184-0.087,0.278-0.12C87.952,52.949,87.86,52.993,87.769,53.037z"/>
		<path fill="none" d="M87.248,53.357c0.123-0.1,0.252-0.186,0.386-0.259C87.5,53.171,87.371,53.257,87.248,53.357z"/>
		<path d="M45,70.433c0-3.015,1.803-5.558,4.195-6.772c-1.029-2.702-0.317-5.843,1.846-8.014l5.682-5.589
			c0.034-0.034,0.099-0.062,0.133-0.095c-5.96-7.322-14.664-12.034-24.37-12.034c-17.922,0-32.493,15.992-32.493,34.931
			c0,4.724,3.837,9.14,8.559,9.14H46.36C45.789,81,45,79.76,45,78.403V70.433z"/>
		<path d="M32.499,34.208c9.432,0,17.107-7.672,17.107-17.106C49.606,7.671,41.931,0,32.499,0S15.394,7.671,15.394,17.103
			C15.394,26.537,23.067,34.208,32.499,34.208z"/>
		<g>
			<path fill="none" d="M75.32,66.635c-0.901,0-1.79,0.158-2.639,0.471c-3.949,1.457-5.979,5.854-4.526,9.806
				c1.102,2.987,3.981,4.996,7.167,4.996h0c0.9,0,1.789-0.158,2.639-0.473c1.913-0.705,3.438-2.112,4.292-3.963
				c0.855-1.852,0.938-3.926,0.233-5.84C81.384,68.642,78.505,66.635,75.32,66.635z"/>
			<path d="M98.097,67.905l-5.676-0.596l3.964-4.736c0.83-1.013,0.802-2.485-0.122-3.409l-5.609-5.636
				c-0.12-0.12-0.256-0.224-0.392-0.315c-0.044-0.03-0.096-0.05-0.142-0.077c-0.094-0.055-0.19-0.11-0.289-0.152
				c-0.057-0.024-0.118-0.039-0.176-0.058c-0.092-0.031-0.184-0.063-0.278-0.083c-0.064-0.014-0.129-0.019-0.194-0.027
				c-0.091-0.012-0.182-0.024-0.274-0.026c-0.081-0.002-0.162,0.004-0.243,0.01c-0.063,0.004-0.126,0.006-0.188,0.016
				c-0.087,0.013-0.173,0.036-0.258,0.059c-0.058,0.015-0.116,0.025-0.172,0.044c-0.095,0.032-0.187,0.076-0.278,0.12
				c-0.044,0.021-0.091,0.037-0.135,0.061c-0.134,0.074-0.263,0.159-0.386,0.259l-4.797,3.929l-0.62-5.52
				C81.698,50.468,80.608,50,79.305,50h-7.97c-1.303,0-2.398,0.468-2.531,1.766l-0.595,5.496l-4.489-3.78
				c-0.124-0.101-0.255-0.188-0.392-0.264c-0.047-0.026-0.098-0.043-0.146-0.066c-0.091-0.044-0.182-0.089-0.276-0.122
				c-0.059-0.02-0.119-0.03-0.179-0.046c-0.087-0.024-0.174-0.05-0.263-0.064c-0.063-0.01-0.126-0.011-0.19-0.016
				c-0.085-0.008-0.171-0.018-0.257-0.017c-0.088,0.001-0.175,0.014-0.263,0.024c-0.066,0.008-0.133,0.01-0.199,0.023
				c-0.09,0.019-0.178,0.05-0.267,0.078c-0.06,0.019-0.121,0.031-0.179,0.055c-0.096,0.039-0.187,0.093-0.278,0.145
				c-0.046,0.026-0.095,0.045-0.14,0.075c-0.133,0.088-0.26,0.19-0.377,0.307l-5.637,5.6c-0.922,0.925-0.998,2.378-0.174,3.392
				l3.828,4.701l-6.106,0.619C50.925,68.035,50,69.127,50,70.433v7.97c0,1.306,0.925,2.4,2.227,2.532l5.593,0.614l-3.521,4.569
				c-0.827,1.011-0.65,2.485,0.277,3.409l5.685,5.634c0.12,0.12,0.257,0.224,0.394,0.315c0.045,0.03,0.098,0.05,0.144,0.077
				c0.095,0.055,0.191,0.11,0.291,0.151c0.059,0.024,0.121,0.04,0.181,0.06c0.092,0.03,0.185,0.062,0.279,0.082
				c0.066,0.014,0.133,0.019,0.2,0.028c0.092,0.012,0.183,0.024,0.276,0.026c0.083,0.002,0.166-0.004,0.249-0.01
				c0.063-0.004,0.127-0.006,0.19-0.016c0.088-0.013,0.176-0.036,0.263-0.059c0.058-0.015,0.116-0.025,0.173-0.044
				c0.096-0.032,0.188-0.075,0.28-0.119c0.045-0.022,0.093-0.038,0.138-0.062c0.134-0.074,0.265-0.159,0.387-0.259l4.525-3.688
				l0.568,6.216c0.136,1.297,1.233,2.141,2.537,2.141h7.72c1.28,0,2.359-0.808,2.525-2.078l0.759-6.276l4.581,3.532
				c0.119,0.097,0.246,0.177,0.375,0.247c0.044,0.023,0.09,0.039,0.135,0.06c0.088,0.04,0.177,0.079,0.269,0.107
				c0.054,0.017,0.109,0.028,0.164,0.042c0.086,0.02,0.172,0.038,0.259,0.048c0.058,0.007,0.116,0.011,0.174,0.014
				c0.077,0.004,0.153,0.003,0.23,0c0.097-0.004,0.194-0.015,0.291-0.03c0.065-0.01,0.131-0.02,0.196-0.035
				c0.099-0.023,0.195-0.055,0.291-0.09c0.061-0.021,0.121-0.04,0.18-0.066c0.103-0.045,0.201-0.102,0.299-0.16
				c0.047-0.028,0.097-0.051,0.143-0.083c0.141-0.096,0.275-0.204,0.398-0.327l5.459-5.508c0.905-0.905,0.997-2.364,0.215-3.376
				l-3.443-4.477l5.539-0.604c1.3-0.131,1.903-1.232,1.903-2.538v-7.97C100,69.127,99.396,68.035,98.097,67.905z M82.252,77.472
				c-0.854,1.851-2.379,3.258-4.292,3.963c-0.85,0.315-1.739,0.473-2.639,0.473h0c-3.186,0-6.065-2.009-7.167-4.996
				c-1.454-3.951,0.577-8.349,4.526-9.806c0.85-0.313,1.738-0.471,2.639-0.471c3.185,0,6.064,2.006,7.166,4.997
				C83.19,73.546,83.107,75.62,82.252,77.472z"/>
		</g>
	</g>
</g>
</svg>
