<?xml version="1.0" encoding="utf-8"?>
<!-- Generator: Adobe Illustrator 16.0.0, SVG Export Plug-In . SVG Version: 6.00 Build 0)  -->
<!DOCTYPE svg PUBLIC "-//W3C//DTD SVG 1.1//EN" "http://www.w3.org/Graphics/SVG/1.1/DTD/svg11.dtd">
<svg version="1.1" xmlns="http://www.w3.org/2000/svg" xmlns:xlink="http://www.w3.org/1999/xlink" x="0px" y="0px" width="100px"
	 height="100px" viewBox="0 0 100 100" enable-background="new 0 0 100 100" xml:space="preserve">
<g id="Layer_3" display="none">
</g>
<g id="Your_Icon">
</g>
<g id="Layer_4">
	<g>
		<path d="M90,0H10C4.477,0,0,4.678,0,10.2v63C0,78.723,4.477,83,10,83h18.605c-0.098,0-0.18,0.619-0.236,0.893l-2.035,9.951
			c-0.303,1.472,0.073,3.076,1.022,4.24c0.949,1.165,2.373,1.916,3.875,1.916h38.137c1.517,0,2.951-0.738,3.9-1.921
			c0.949-1.184,1.31-2.759,0.98-4.239l-2.201-10.013C71.993,83.579,71.912,83,71.823,83H90c5.523,0,10-4.277,10-9.8v-63
			C100,4.678,95.523,0,90,0z M90,10v52H10V10H90z"/>
	</g>
</g>
</svg>
