<?xml version="1.0" encoding="utf-8"?>
<!-- Generator: Adobe Illustrator 16.0.0, SVG Export Plug-In . SVG Version: 6.00 Build 0)  -->
<!DOCTYPE svg PUBLIC "-//W3C//DTD SVG 1.1//EN" "http://www.w3.org/Graphics/SVG/1.1/DTD/svg11.dtd">
<svg version="1.1" xmlns="http://www.w3.org/2000/svg" xmlns:xlink="http://www.w3.org/1999/xlink" x="0px" y="0px" width="100px"
	 height="100px" viewBox="0 0 100 100" enable-background="new 0 0 100 100" xml:space="preserve">
<g id="Layer_3" display="none">
</g>
<g id="Your_Icon">
</g>
<g id="Layer_4">
	<g>
		<path d="M75,0H25c-5.523,0-10,4.477-10,10v80c0,5.522,4.477,10,10,10h50c5.523,0,10-4.478,10-10V10C85,4.477,80.523,0,75,0z
			 M75,10v61H25V10H75z M42,86c0-4.418,3.59-8,7.999-8C54.421,78,58,81.582,58,86s-3.581,8-8.001,8C45.59,94,42,90.418,42,86z"/>
	</g>
</g>
</svg>
