<?xml version="1.0" encoding="utf-8"?>
<!-- Generator: Adobe Illustrator 16.0.0, SVG Export Plug-In . SVG Version: 6.00 Build 0)  -->
<!DOCTYPE svg PUBLIC "-//W3C//DTD SVG 1.1//EN" "http://www.w3.org/Graphics/SVG/1.1/DTD/svg11.dtd">
<svg version="1.1" xmlns="http://www.w3.org/2000/svg" xmlns:xlink="http://www.w3.org/1999/xlink" x="0px" y="0px" width="100px"
	 height="100px" viewBox="0 0 100 100" enable-background="new 0 0 100 100" xml:space="preserve">
<g id="Layer_3" display="none">
	<g display="inline" opacity="0.31">
		<path fill="#FFFFFF" d="M59.8,13.8c-1.325,0-2.596-0.525-3.533-1.462C55.327,11.399,54.8,10.127,54.8,8.8v-70c0-2.762,2.238-5,5-5
			h80c2.762,0,5,2.238,5,5V8.701c0,2.759-2.234,4.997-4.994,5C139.806,13.701,59.802,13.8,59.8,13.8z"/>
		<path d="M139.8-61.2V8.701L59.8,8.8v-70H139.8 M139.8-71.2h-80c-5.522,0-10,4.478-10,10v70c0,2.654,1.056,5.2,2.934,7.075
			C54.608,17.748,57.15,18.8,59.8,18.8c0.004,0,0.008,0,0.013,0l80-0.099c5.518-0.007,9.987-4.482,9.987-10V-61.2
			C149.8-66.723,145.322-71.2,139.8-71.2L139.8-71.2z"/>
	</g>
</g>
<g id="Your_Icon">
</g>
<g id="Layer_4">
	<g>
		<path d="M40.568,63.223c1.472,2.587,2.943,5.173,4.415,7.761c2.043,3.591,4.341,1.743,6.849-0.217
			c1.834-1.433,7.236-4.301,4.322-7.166c-2.26-2.22-4.518-4.439-6.776-6.66c2.756-2.146,5.513-4.292,8.269-6.438
			c1.719-1.339,8.32-4.882,7.406-7.791c-0.767-2.444-14.828,1.761-19.021,3.244c-2.326,0.823-4.791,2.535-9.701-0.138
			c-1.527-0.831-2.522-2.052-3.444-0.57c-1.255,2.016-0.849,3.642-0.683,5.862c0.406,5.42-1.956,10.563-5.141,14.81
			c-1.01,1.347-9.196,9.179-2.881,9.399c1.729,0.06,3.766-2.206,4.961-3.142C32.951,69.191,36.76,66.206,40.568,63.223z"/>
		<path d="M65.053,42.711C65.365,43.704,64.741,41.715,65.053,42.711L65.053,42.711z"/>
		<path d="M10.666,30.768c-1.09,2.981,4.335,4.836,5.987,6.548c2.216,2.295,3.684,5.192,4.53,8.25
			c0.84,3.032-0.405,15.796,3.203,15.922c4.361,0.152,6.657-18.52,7.355-21.834c2.791,1.035,4.627,3.578,7.418,4.613
			c3.874,1.438,4.445-1.455,5.107-4.569c0.483-2.276,2.775-7.944-1.298-8.266c-3.155-0.25-6.312-0.499-9.469-0.748
			c1.128-5.307,2.255-10.614,3.384-15.921c0.433-2.034,1.098-6.678-2.725-5.373c-1.562,0.53-2.983,2.086-4.301,3.075
			c-3.105,4.925-6.076,8.893-8.241,14.435C19.365,32.667,12.256,26.409,10.666,30.768z"/>
		<path d="M39.293,21.549c0.018,0.022,0.043,0.053,0.077,0.094C39.387,21.662,39.334,21.599,39.293,21.549z"/>
		<path d="M55.707,41.09c2.975,0.805,1.25-4.259,4.447-4.147c1.279,0.045,7.87,3.588,8.824,1.131
			c0.154-0.396-9.867-9.05-9.879-9.048c-0.347,0.016-13.141,2.723-13.013,3.961c0.123,1.184,1.731,2.256,3.926,2.102
			c2.794-0.195,2.544,0.26,2.69,3.195C52.703,38.283,51.512,39.955,55.707,41.09z"/>
		<path d="M26.453,13.453c0.746-2.68-4.642,2.476-5.102,2.823c-1.176,0.892-2.02,1.684-3.096,2.693
			c-1.986,1.868-1.369,0.409-3.588-1.23c0,0-2.736-2.072-3.533-1.436c-0.816,0.648,1.658,5.981,1.062,4.845
			c1.746,3.335-12.51,2.794-9.962,6.678c0.233,0.357,16.839-0.024,16.911-0.217C21.801,20.685,25.086,18.37,26.453,13.453z"/>
		<path d="M59.688,8.844c3.468,3.401,6.627,6.802,10.094,10.203c-2.492,1.951-4.986,3.904-7.479,5.856
			c-3.217,2.518,1.824,5.976,3.486,7.605c2.272,2.23,4.349,4.324,6.782,0.985c1.753-2.406,3.507-4.811,5.261-7.217
			c2.984,2.938,5.973,5.874,8.959,8.811c0.892,0.877,9.943,9.508,8.63,2.118c-0.321-1.812-2.545-3.726-3.528-5.24
			c-1.286-1.978-2.39-4.074-3.22-6.286c-1.713-4.568-1.956-9.582,0.03-14.117c2.031-4.641-0.411-7.153-4.356-3.375
			c-3.02,2.894-4.411,2.654-7.693,0.233c-1.595-1.177-0.627-0.462-0.012-0.008C72.29,5.212,59.999,1.723,59,1.655
			c0-0.001,0,0.036,0,0.036C52,1.267,58.325,7.507,59.688,8.844z"/>
		<path d="M61.478,53.144c4.185,1.279,11.731-6.562,14.821-5.317c1.747,0.712,4.43,6.137,5.873,5.814
			c1.475-0.334,0.287-5.307,3.959-6.149c2.307-0.525,10.873-0.249,11.824-2.66l0.048-0.155c-0.352-0.193-17.474-8.857-20.341-8.707
			C74.625,36.12,58.585,52.26,61.478,53.144z"/>
		<path d="M18.467,63.087c1.638,0.245,0.559-15.623,0.504-15.875c-0.301-1.359-9.797-10.479-9.861-9.85
			c-0.395,3.675,4.865,9.676-0.799,14.28c-0.89,0.722-1.674,3.505-1.157,4.462c1.349,2.5,2.089,2.777,3.236,2.076
			C16.518,54.431,15.568,62.654,18.467,63.087z"/>
		<path d="M43.248,82.681c-0.838-4.152-6.701-2.936-5.617-8.201c0,0,1.449-4.252,2.77-7.708c0.912-2.384-11.424,7.062-12.492,8.981
			c-1.123,2.023,5.259,20.93,6.5,16.525c0.91-3.231-1.182-11.287,1.052-10.07C36.834,82.957,43.471,83.786,43.248,82.681z"/>
		<path d="M36.057,28.857c1.006,1.243,2.363-0.34,4.726-2.119c3.003-2.265,6.852-3.74,7.55-0.815c0,0,0.722,1.627,2.343,1.684
			c1.898,0.066,3.058-1.595,3.2-5.692c0.043-1.216,12.426-0.611,11.707-4.078c-0.117-0.559-17.746-2.975-17.758-2.965
			C47.444,15.142,35.006,27.558,36.057,28.857z"/>
		<path d="M75.282,74.306c1.073-0.645,19.353-6.293,12.171-8.479c-1.761-0.537-5.336-0.873-6.917-0.908
			c-4.421-0.097-11.187-1.799-11.862-2.563c-1.829-2.064-3.799-7.312-7.463,1.642c-1.61,3.935-10.848,10-13.436,12.488
			c-4.524,4.349,5.268,3.203,7.077,2.594c4.604-1.545,8.267-4.972,10.354,6.999c0.646,3.701,7.927,0.716,10.133-0.024
			c3.018-1.011,4.185-0.621,2.313-4.306C76.307,79.093,72.797,75.799,75.282,74.306z"/>
		<path d="M19.506,74.693c-3.248-1.903,9.128-8.996,4.91-10.941c-0.387-0.181-14.269,8.942-14.228,9.146
			c1.418,7.277-0.142,10.982,1.306,15.878c0.787,2.668,2.623-4.56,2.829-5.099c0.525-1.379,0.821-2.497,1.199-3.926
			c0.693-2.637,0.944-1.073,3.693-0.857c0,0,3.419,0.308,3.759-0.654C23.322,77.256,18.398,74.045,19.506,74.693z"/>
		<path d="M60.955,81.51c-2.682-1.433-24.743,4.158-22.72,6.406c2.929,3.253,12.109-1.308,14.117,1.353
			c1.131,1.509-0.105,4.539,1.3,5.005c1.437,0.475,1.894-2.471,5.477-1.303c2.246,0.74,4.467,7.029,6.523,5.029h0.5
			C65.896,98,63.49,82.858,60.955,81.51z"/>
		<path d="M97.679,69.299c-0.409-0.398-16.376,7.457-16.38,7.471c-0.164,0.438,0.467,17.686,2.065,18.176
			c1.528,0.469,1.769-1.603,2.732-4.398c1.224-3.557,0.541-8.502,2.756-6.469c0,0,0.612,1.557,1.5,0.2
			c3.569-5.456,1.175-3.019-0.099-5.053C89.609,78.193,100.213,71.771,97.679,69.299z"/>
	</g>
</g>
</svg>
