<?xml version="1.0" encoding="utf-8"?>
<!-- Generator: Adobe Illustrator 16.0.0, SVG Export Plug-In . SVG Version: 6.00 Build 0)  -->
<!DOCTYPE svg PUBLIC "-//W3C//DTD SVG 1.1//EN" "http://www.w3.org/Graphics/SVG/1.1/DTD/svg11.dtd">
<svg version="1.1" xmlns="http://www.w3.org/2000/svg" xmlns:xlink="http://www.w3.org/1999/xlink" x="0px" y="0px" width="100px"
	 height="100px" viewBox="0 0 100 100" enable-background="new 0 0 100 100" xml:space="preserve">
<g id="Layer_3" display="none">
</g>
<g id="Your_Icon">
</g>
<g id="Layer_4">
	<path d="M94.872,18.726c-4.414-3.395-8.983-5.116-13.584-5.116c-13.676,0-22.429,15.031-22.794,15.671
		c-0.498,0.87-0.428,1.953,0.178,2.752c0.605,0.798,1.628,1.158,2.601,0.914c2.034-0.511,3.825-0.77,5.321-0.77
		c3.541,0,4.555,1.419,5.009,2.486c3.407,8-9.545,30.244-11.583,32.364c-0.017,0.016-1.64,1.617-3.539,1.617c0,0,0,0-0.001,0
		c-2.096,0-9.159-2.543-12.081-35.237c-1.295-14.474-7.309-17.513-12.127-17.513c-5.227,0-11.781,3.691-19.482,10.971
		c-5.51,5.208-9.58,10.338-9.75,10.554c-0.473,0.598-0.647,1.379-0.473,2.121c0.174,0.742,0.677,1.364,1.366,1.689l2.112,0.997
		c0.836,0.394,1.823,0.295,2.563-0.258c4.562-3.408,7.163-3.917,8.308-3.917c0.582,0,0.938,0.126,1.134,0.232
		c13.759,50.564,16.97,60.108,34.209,60.108l0.484-0.002c14.005-0.135,26.235-18.274,35.328-34.065
		C92.745,56.185,101.967,24.165,94.872,18.726z"/>
</g>
</svg>
