<?xml version="1.0" encoding="utf-8"?>
<!-- Generator: Adobe Illustrator 16.0.0, SVG Export Plug-In . SVG Version: 6.00 Build 0)  -->
<!DOCTYPE svg PUBLIC "-//W3C//DTD SVG 1.1//EN" "http://www.w3.org/Graphics/SVG/1.1/DTD/svg11.dtd">
<svg version="1.1" xmlns="http://www.w3.org/2000/svg" xmlns:xlink="http://www.w3.org/1999/xlink" x="0px" y="0px" width="100px"
	 height="100px" viewBox="0 0 100 100" enable-background="new 0 0 100 100" xml:space="preserve">
<g id="Layer_3" display="none">
</g>
<g id="Your_Icon">
</g>
<g id="Layer_4">
	<g>
		<polygon fill="none" points="76,81 24,81 15,81 15,90 84.964,90 84.905,81 		"/>
		<path d="M95,75.964C94.979,73.217,92.616,71,89.869,71H81V59.424C81,56.662,78.762,54,76,54h-6.096
			c4.24-6,9.158-14.727,9.096-22.293C78.849,12.885,67.188,0,50.644,0h-0.261C41.82,0,34.135,3.533,28.741,9.844
			C23.679,15.77,20.929,23.551,21,32.185C21.053,38.821,25.023,47,29.951,54H24c-2.761,0-5,2.662-5,5.424V71h-9
			c-2.761,0-5,2.238-5,5v19c0,2.762,2.239,5,5,5h80c1.332,0,2.609-0.532,3.549-1.478c0.938-0.945,1.461-2.227,1.451-3.559V75.964z
			 M15,90v-9h9h52h8.905l0.059,9H15z"/>
	</g>
</g>
</svg>
