<?xml version="1.0" encoding="utf-8"?>
<!-- Generator: Adobe Illustrator 16.0.0, SVG Export Plug-In . SVG Version: 6.00 Build 0)  -->
<!DOCTYPE svg PUBLIC "-//W3C//DTD SVG 1.1//EN" "http://www.w3.org/Graphics/SVG/1.1/DTD/svg11.dtd">
<svg version="1.1" xmlns="http://www.w3.org/2000/svg" xmlns:xlink="http://www.w3.org/1999/xlink" x="0px" y="0px" width="100px"
	 height="100px" viewBox="0 0 100 100" enable-background="new 0 0 100 100" xml:space="preserve">
<g id="Layer_3" display="none">
</g>
<g id="Your_Icon">
</g>
<g id="Layer_4">
	<g>
		<path fill="none" d="M37,77.209c0,7.086,5.915,12.852,13,12.852s13-5.766,13-12.852V10H37V77.209z"/>
		<path d="M80,0H20v10h7v67.209c0,12.6,10.4,22.852,23,22.852s23-10.252,23-22.852V10h7V0z M63,77.209
			c0,7.086-5.915,12.852-13,12.852s-13-5.766-13-12.852V10h26V77.209z"/>
	</g>
	<path d="M41.67,44v33.567c0,4.606,3.732,8.333,8.331,8.333c4.6,0,8.329-3.727,8.329-8.333V44"/>
</g>
</svg>
