<?xml version="1.0" encoding="utf-8"?>
<!-- Generator: Adobe Illustrator 16.0.0, SVG Export Plug-In . SVG Version: 6.00 Build 0)  -->
<!DOCTYPE svg PUBLIC "-//W3C//DTD SVG 1.1//EN" "http://www.w3.org/Graphics/SVG/1.1/DTD/svg11.dtd">
<svg version="1.1" xmlns="http://www.w3.org/2000/svg" xmlns:xlink="http://www.w3.org/1999/xlink" x="0px" y="0px" width="100px"
	 height="100px" viewBox="0 0 100 100" enable-background="new 0 0 100 100" xml:space="preserve">
<g id="Layer_3" display="none">
</g>
<g id="Your_Icon">
</g>
<g id="Layer_4">
	<g>
		<path fill="none" d="M50,60.941c3.257,0,6.382,0.621,9.292,1.745c-0.011-0.061-0.011-0.125-0.019-0.186
			c-2.734-1.095-5.66-1.723-8.705-1.793c-0.19,0.006-0.377,0.029-0.569,0.029s-0.378-0.023-0.568-0.029
			c-2.891,0.067-5.673,0.638-8.287,1.632c-0.007,0.064-0.01,0.128-0.02,0.191C43.915,61.508,46.897,60.941,50,60.941z"/>
		<path fill="none" d="M33.26,67c-0.308,0.258-0.607,0.526-0.904,0.797c0.308-0.271,0.618-0.539,0.936-0.797H33.26z"/>
		<path fill="none" d="M59.344,59.343c0.053-0.479,0.124-0.952,0.206-1.42c-0.534,0.343-1.09,0.655-1.662,0.94
			C58.378,59.01,58.863,59.17,59.344,59.343z"/>
		<path fill="none" d="M70.632,99H29.368c-4.028,0-7.297-3.774-7.362-7.799c0,0.085-0.006,0.169-0.006,0.254
			c0,4.069,3.299,8.545,7.368,8.545h41.264C74.701,100,78,95.524,78,91.455c0-0.085-0.006-0.169-0.006-0.254
			C77.929,95.226,74.66,99,70.632,99z"/>
		<path fill="none" d="M42.111,58.863c-0.418-0.208-0.824-0.433-1.223-0.673c0.056,0.337,0.108,0.674,0.147,1.017
			C41.393,59.084,41.751,58.971,42.111,58.863z"/>
		<path fill="none" d="M67.645,67.797c-0.297-0.271-0.597-0.539-0.904-0.797h-0.031C67.026,67.258,67.337,67.525,67.645,67.797z"/>
		<path d="M67.645,67.797c-0.308-0.271-0.618-0.539-0.936-0.797h0.031c-2.251-1.891-7.459-4.374-7.448-4.313
			c-2.91-1.124-6.035-1.745-9.292-1.745c-3.103,0-6.085,0.566-8.876,1.59c0.01-0.063-5.498,2.48-7.864,4.468h0.031
			c-0.317,0.258-0.628,0.525-0.936,0.797C26.042,73.38,22,81.828,22,91.08c0,0.041,0.006,0.081,0.006,0.121
			C22.071,95.226,25.34,99,29.368,99h41.264c4.028,0,7.297-3.774,7.362-7.799c0-0.041,0.006-0.081,0.006-0.121
			C78,81.828,73.958,73.38,67.645,67.797z"/>
		<path d="M79.2,40.691c-4.301,0-8.278,1.449-11.543,3.891c-0.498,5.602-3.61,10.453-8.107,13.341
			c-0.082,0.469-0.153,0.941-0.206,1.42c4.397,1.583,8.396,4.237,11.729,7.657h22.865c2.906,0,5.263-2.312,5.263-5.22
			C99.2,50.128,90.229,40.691,79.2,40.691z"/>
		<path d="M79.199,39C84.714,39,89.2,34.514,89.2,29c0-5.515-4.486-10-10.001-10c-5.514,0-9.999,4.486-9.999,10
			C69.2,34.514,73.686,39,79.199,39z"/>
		<path d="M40.889,58.19c-4.817-2.901-8.143-8.013-8.562-13.93c-3.183-2.253-7.011-3.569-11.126-3.569c-11.028,0-20,9.437-20,21.089
			C1.2,64.688,3.557,67,6.463,67h22.465c3.43-3.519,7.562-6.229,12.108-7.793C40.997,58.864,40.944,58.527,40.889,58.19z"/>
		<path d="M21.199,39C26.714,39,31.2,34.514,31.2,29c0-5.514-4.486-10-10.001-10c-5.514,0-9.999,4.486-9.999,10
			C11.2,34.514,15.686,39,21.199,39z"/>
		<path d="M64.737,43c0-8.126-6.612-14.736-14.738-14.736S35.263,34.874,35.263,43s6.61,14.737,14.736,14.737
			S64.737,51.125,64.737,43z"/>
	</g>
</g>
</svg>
