<?xml version="1.0" encoding="utf-8"?>
<!-- Generator: Adobe Illustrator 16.0.0, SVG Export Plug-In . SVG Version: 6.00 Build 0)  -->
<!DOCTYPE svg PUBLIC "-//W3C//DTD SVG 1.1//EN" "http://www.w3.org/Graphics/SVG/1.1/DTD/svg11.dtd">
<svg version="1.1" xmlns="http://www.w3.org/2000/svg" xmlns:xlink="http://www.w3.org/1999/xlink" x="0px" y="0px" width="100px"
	 height="100px" viewBox="0 0 100 100" enable-background="new 0 0 100 100" xml:space="preserve">
<g id="Layer_3" display="none">
</g>
<g id="Your_Icon">
</g>
<g id="Layer_4">
	<g>
		<path fill="#FFFFFF" d="M78.228,94L78.18,6L51.155,36c-5.797,0-14.825,0-16.88,0c-6.736,0-12.227,4.726-12.49,11.397
			c-0.006,0.164-0.01,2.53-0.01,2.698c0,0.166-0.006,3.286,0,3.452C22.037,60.222,27.529,66,34.266,66c2.678,0,11.682,0,17.229,0
			L78.228,94z"/>
		<path d="M78.229,99c-1.341,0-2.655-0.539-3.617-1.547L49.355,71h-15.09c-9.269,0-17.113-7.741-17.486-17.256
			c-0.006-0.166-0.006-2.48-0.004-3.352v-0.296c0-0.179,0.007-2.702,0.013-2.877C17.154,37.964,24.672,31,34.275,31H48.93
			L74.465,2.653c1.386-1.537,3.575-2.063,5.506-1.321c1.932,0.741,3.208,2.596,3.209,4.665l0.048,88
			c0.001,2.044-1.242,3.883-3.139,4.644C79.485,98.883,78.854,99,78.229,99z M34.275,41c-4.191,0-7.343,2.773-7.494,6.595
			c-0.003,0.237-0.006,2.345-0.006,2.501v0.311c-0.002,0.767-0.005,2.742-0.001,3.044C26.935,57.498,30.366,61,34.266,61h17.229
			c1.366,0,2.673,0.559,3.616,1.547l18.109,18.968l-0.034-62.502L54.87,39.347C53.922,40.399,52.572,41,51.155,41H34.275z"/>
	</g>
</g>
</svg>
