<?xml version="1.0" encoding="utf-8"?>
<!-- Generator: Adobe Illustrator 16.0.0, SVG Export Plug-In . SVG Version: 6.00 Build 0)  -->
<!DOCTYPE svg PUBLIC "-//W3C//DTD SVG 1.1//EN" "http://www.w3.org/Graphics/SVG/1.1/DTD/svg11.dtd">
<svg version="1.1" xmlns="http://www.w3.org/2000/svg" xmlns:xlink="http://www.w3.org/1999/xlink" x="0px" y="0px" width="100px"
	 height="100px" viewBox="0 0 100 100" enable-background="new 0 0 100 100" xml:space="preserve">
<g id="Layer_3" display="none">
</g>
<g id="Your_Icon">
</g>
<g id="Layer_4">
	<g>
		<path fill="none" d="M21,50c0,16.012,12.982,29,29,29c5.837,0,11.266-1.731,15.815-4.698L25.697,34.183
			C22.73,38.732,21,44.163,21,50z"/>
		<path fill="none" d="M50,21c-5.838,0-11.268,1.73-15.817,4.698l40.119,40.119C77.269,61.267,79,55.836,79,50
			C79,33.981,66.018,21,50,21z"/>
		<path d="M50,11c-21.505,0-39,17.495-39,39s17.495,39,39,39s39-17.495,39-39S71.505,11,50,11z M50,79c-16.018,0-29-12.988-29-29
			c0-5.837,1.73-11.268,4.697-15.817l40.118,40.119C61.266,77.269,55.837,79,50,79z M74.301,65.817L34.183,25.698
			C38.732,22.73,44.162,21,50,21c16.018,0,29,12.981,29,29C79,55.836,77.269,61.267,74.301,65.817z"/>
	</g>
</g>
</svg>
