<?xml version="1.0" encoding="utf-8"?>
<!-- Generator: Adobe Illustrator 16.0.0, SVG Export Plug-In . SVG Version: 6.00 Build 0)  -->
<!DOCTYPE svg PUBLIC "-//W3C//DTD SVG 1.1//EN" "http://www.w3.org/Graphics/SVG/1.1/DTD/svg11.dtd">
<svg version="1.1" xmlns="http://www.w3.org/2000/svg" xmlns:xlink="http://www.w3.org/1999/xlink" x="0px" y="0px" width="100px"
	 height="100px" viewBox="0 0 100 100" enable-background="new 0 0 100 100" xml:space="preserve">
<g id="Layer_3" display="none">
</g>
<g id="Your_Icon">
</g>
<g id="Layer_4">
	<g>
		<path d="M89.7,10H72.458l-0.621-5.597C71.559,1.868,69.417,0,66.867,0h-33.9c-2.565,0-4.715,1.892-4.975,4.443L27.422,10H9.7
			C4.178,10,0,14.177,0,19.7v70c0,2.654,0.906,5.35,2.783,7.225C4.658,98.798,7.051,100,9.7,100c0.004,0,0.008,0,0.013,0
			l80.15-0.249C95.381,99.745,100,95.12,100,89.602V19.7C100,14.177,95.223,10,89.7,10z M50,74c-11.028,0-20-8.972-20-20
			s8.972-20,20-20s20,8.972,20,20S61.028,74,50,74z"/>
	</g>
</g>
</svg>
