<?xml version="1.0" encoding="utf-8"?>
<!-- Generator: Adobe Illustrator 16.0.0, SVG Export Plug-In . SVG Version: 6.00 Build 0)  -->
<!DOCTYPE svg PUBLIC "-//W3C//DTD SVG 1.1//EN" "http://www.w3.org/Graphics/SVG/1.1/DTD/svg11.dtd">
<svg version="1.1" xmlns="http://www.w3.org/2000/svg" xmlns:xlink="http://www.w3.org/1999/xlink" x="0px" y="0px" width="100px"
	 height="100px" viewBox="0 0 100 100" enable-background="new 0 0 100 100" xml:space="preserve">
<g id="Layer_3" display="none">
</g>
<g id="Your_Icon">
</g>
<g id="Layer_4">
	<g>
		<path fill="none" d="M79.995,90.845c0-0.014,0.002-0.028,0.002-0.042c0-0.001,0-0.003,0-0.005
			C79.998,90.814,79.995,90.829,79.995,90.845z"/>
		<path fill="none" d="M74.544,72.583C77.966,77.829,80,84.055,80,90.798c0-0.003,0-0.005,0-0.008c0-0.004,0,0.011,0,0.021
			c0,0.017,0,0.034,0,0.052c0,0.015,0-0.087,0-0.073c0,0.003,0,0.005,0,0.008C80,84.055,77.966,77.829,74.544,72.583
			c-1.859-2.89-4.138-5.453-6.731-7.583h-0.157C70.314,67.113,72.647,69.676,74.544,72.583z"/>
		<path fill="none" d="M72.106,99H27.894c-4.325,0-7.836-3.833-7.889-8.155c0,0.045-0.005,0.089-0.005,0.134
			c0,0.015,0.002,0.028,0.002,0.043c0,0.03-0.002,0.06-0.002,0.09c0,4.36,3.535,8.889,7.894,8.889h44.213
			C76.465,100,80,95.472,80,91.111c0-0.03-0.002-0.06-0.002-0.09c0-0.015,0.002-0.028,0.002-0.043c0-0.045-0.005-0.089-0.005-0.134
			C79.942,95.167,76.432,99,72.106,99z"/>
		<g>
			<path d="M50,58.566c-16.542,0-30,14.641-30,32.12C20,95.046,23.535,99,27.895,99h44.211C76.465,99,80,95.046,80,90.687
				C80,73.207,66.542,58.566,50,58.566z"/>
			<path d="M49.999,54.583c8.707,0,15.791-7.083,15.791-15.789s-7.084-15.79-15.791-15.79c-8.706,0-15.789,7.084-15.789,15.79
				S41.293,54.583,49.999,54.583z"/>
		</g>
		<path fill="none" d="M32.344,65h-0.157c-2.592,2.13-4.872,4.693-6.73,7.583C27.354,69.676,29.687,67.114,32.344,65z"/>
		<path fill="none" d="M59.021,59.987c-1.528-0.542-3.106-0.954-4.728-1.217c-0.255,0.057-0.513,0.104-0.771,0.151
			c1.903,0.246,3.747,0.698,5.524,1.315C59.039,60.152,59.024,60.071,59.021,59.987z"/>
		<path d="M39.588,56.261c-5.177-3.221-8.768-8.751-9.302-15.146c-2.778-1.541-5.935-2.423-9.287-2.423
			c-11.028,0-20,9.437-20,21.089C1,62.688,3.356,65,6.263,65H26.39C30.102,61.089,34.609,58.055,39.588,56.261z"/>
		<path d="M20.999,37C26.514,37,31,32.514,31,27c0-5.514-4.486-10-10.001-10C15.485,17,11,21.486,11,27
			C11,32.514,15.485,37,20.999,37z"/>
		<path d="M79,38.691c-3.352,0-6.509,0.882-9.287,2.423c-0.534,6.395-4.125,11.926-9.302,15.146c4.979,1.794,9.487,4.828,13.2,8.739
			h20.126C96.644,65,99,62.688,99,59.78C99,48.128,90.028,38.691,79,38.691z"/>
		<path d="M78.999,37C84.514,37,89,32.514,89,27c0-5.515-4.486-10-10.001-10C73.485,17,69,21.486,69,27
			C69,32.514,73.485,37,78.999,37z"/>
		<path d="M79.998,90.798c0,0.001,0,0.003,0,0.005c0,0.02,0.002,0.039,0.002,0.06c0,0.011-0.001-0.029-0.001-0.052
			c0-0.009,0-0.024,0-0.021C79.998,90.793,79.998,90.795,79.998,90.798z"/>
		<path d="M20.002,90.79c0-0.015-0.002,0.203-0.002,0.188c0-0.045,0.005-0.089,0.005-0.134
			C20.005,90.826,20.002,90.809,20.002,90.79z"/>
	</g>
</g>
</svg>
