<?xml version="1.0" encoding="utf-8"?>
<!-- Generator: Adobe Illustrator 16.0.0, SVG Export Plug-In . SVG Version: 6.00 Build 0)  -->
<!DOCTYPE svg PUBLIC "-//W3C//DTD SVG 1.1//EN" "http://www.w3.org/Graphics/SVG/1.1/DTD/svg11.dtd">
<svg version="1.1" xmlns="http://www.w3.org/2000/svg" xmlns:xlink="http://www.w3.org/1999/xlink" x="0px" y="0px" width="100px"
	 height="100px" viewBox="0 0 100 100" enable-background="new 0 0 100 100" xml:space="preserve">
<g id="Layer_3" display="none">
</g>
<g id="Your_Icon">
</g>
<g id="Layer_4">
	<path d="M28,64v26.96c0,4.402,3.724,7.977,8.222,8.137l1.077,0.003c0.057,0,0.804-0.008,0.841-0.01
		c4.492-0.172,7.86-3.743,7.86-8.13V64H28z"/>
	<g>
		<path d="M88.728,0.201c-1.97-0.725-4.176-0.145-5.534,1.451C77.899,7.868,61.242,24,47.919,24H21.584
			c-8.802,0-16.099,6.754-16.437,15.408C5.142,39.566,5,41.983,5,42.145v0.251c0,2.391,0.135,2.473,0.141,2.583
			c0.34,8.765,7.567,15.63,16.366,15.63l3.521,0.004c3.163,0.004,7.794,0.01,11.942,0.01c7.457,0,9.036-0.019,9.572-0.033
			l0.327-0.004c11.821,0,30.43,15.928,36.601,22.064c0.956,0.95,2.232,1.455,3.529,1.455c0.646,0,1.298-0.125,1.918-0.383
			C90.783,82.947,92,81.126,92,79.106V4.894C92,2.798,90.693,0.925,88.728,0.201z M47,34h0.919C60.665,34,73.693,24.524,82,17.036
			v50.903c-1.777-1.466-3.766-3.038-5.903-4.615C64.704,54.915,54.917,50.635,47,50.59V34z"/>
	</g>
</g>
</svg>
