<?xml version="1.0" encoding="utf-8"?>
<!-- Generator: Adobe Illustrator 16.0.0, SVG Export Plug-In . SVG Version: 6.00 Build 0)  -->
<!DOCTYPE svg PUBLIC "-//W3C//DTD SVG 1.1//EN" "http://www.w3.org/Graphics/SVG/1.1/DTD/svg11.dtd">
<svg version="1.1" xmlns="http://www.w3.org/2000/svg" xmlns:xlink="http://www.w3.org/1999/xlink" x="0px" y="0px" width="100px"
	 height="100px" viewBox="0 0 100 100" enable-background="new 0 0 100 100" xml:space="preserve">
<g id="Layer_3" display="none">
</g>
<g id="Your_Icon">
</g>
<g id="Layer_4">
	<path d="M34.896,21.7c21.422-0.001,50.442,7.559,53.844,11.804c0,0,5.369,13.212-13.563,13.212c-1.351,0-2.823-0.067-4.432-0.211
		c0,0,18.57,12.876-9.996,13.416c0,0,8.314,10.433-7.403,10.433c-2.218,0-4.913-0.208-8.179-0.682c0,0,4.616,9.457-6.107,9.457
		c-2.399,0-5.564-0.474-9.722-1.631c0,0,2.272,11.091-7.389,11.091c-1.883,0-4.216-0.421-7.108-1.426c0,0-7.988-27.074-3.001-56.158
		C13.017,24.139,22.731,21.7,34.896,21.7 M34.898,11.7v10V11.7c-7.692,0-14.092,0.896-19.024,2.663
		C5.373,18.127,2.663,25.346,1.982,29.314c-5.318,31.019,2.913,59.482,3.267,60.679c0.912,3.094,3.262,5.558,6.309,6.616
		c3.833,1.332,7.231,1.979,10.391,1.979c5.577,0,10.405-2.153,13.595-6.062c0.896-1.099,1.603-2.256,2.157-3.43
		c0.461,0.021,0.914,0.031,1.358,0.031c3.87,0,10.947-0.937,14.864-7.208c0.329-0.527,0.615-1.059,0.862-1.593
		c8.45-0.299,14.095-3.28,16.789-8.872c0.418-0.869,0.74-1.773,0.966-2.704c1.158-0.255,2.229-0.551,3.217-0.889
		c6.83-2.338,9.403-6.599,10.36-9.762c0.323-1.07,0.503-2.113,0.562-3.125c4.203-1.489,7.46-3.931,9.732-7.308
		c4.086-6.071,3.412-13.453,1.593-17.93c-0.364-0.896-0.855-1.733-1.46-2.487c-2.102-2.623-5.443-4.646-11.174-6.764
		c-3.967-1.466-8.987-2.924-14.519-4.216C58.417,13.366,45.312,11.7,34.898,11.7L34.898,11.7z"/>
</g>
</svg>
