<?xml version="1.0" encoding="utf-8"?>
<!-- Generator: Adobe Illustrator 16.0.0, SVG Export Plug-In . SVG Version: 6.00 Build 0)  -->
<!DOCTYPE svg PUBLIC "-//W3C//DTD SVG 1.1//EN" "http://www.w3.org/Graphics/SVG/1.1/DTD/svg11.dtd">
<svg version="1.1" xmlns="http://www.w3.org/2000/svg" xmlns:xlink="http://www.w3.org/1999/xlink" x="0px" y="0px" width="100px"
	 height="100px" viewBox="0 0 100 100" enable-background="new 0 0 100 100" xml:space="preserve">
<g id="Layer_3" display="none">
</g>
<g id="Your_Icon">
</g>
<g id="Layer_4">
	<g>
		<path fill="none" d="M69.356,74.137c-0.106,0.007-0.213,0.014-0.319,0.021c-0.684,0.047-1.367,0.103-2.049,0.164
			c-0.11,0.01-0.221,0.021-0.331,0.031c-0.684,0.064-1.363,0.136-2.038,0.216c-0.101,0.012-0.199,0.024-0.299,0.037
			c-0.688,0.084-1.372,0.176-2.045,0.279c0.673-0.103,1.356-0.194,2.045-0.278c0.1-0.012,0.198-0.025,0.299-0.037
			c0.675-0.08,1.354-0.151,2.038-0.216c0.11-0.01,0.221-0.019,0.331-0.029c0.682-0.062,1.365-0.114,2.049-0.162
			c0.106-0.008,0.213-0.01,0.319-0.017c0.693-0.046,1.387-0.078,2.075-0.111c0.079-0.004,0.157,0.012,0.236,0.008
			c-0.079,0.004-0.157-0.032-0.236-0.028C70.743,74.049,70.051,74.09,69.356,74.137z"/>
		<path fill="none" d="M19.513,73.883c-0.087,0.001-0.177,0.001-0.264,0.003c-0.755,0.011-1.479,0.026-2.167,0.045
			c-0.06,0.002-0.115,0.003-0.175,0.005c-0.28,0.008-0.558,0.016-0.826,0.025c-0.082,0.002-0.16,0.005-0.242,0.008
			c-0.239,0.008-0.476,0.017-0.703,0.025c-0.087,0.003-0.169,0.007-0.254,0.01c0.085-0.003,0.167-0.006,0.254-0.01
			c0.228-0.008,0.464-0.017,0.703-0.025c0.082-0.003,0.16-0.005,0.242-0.008c0.269-0.009,0.546-0.016,0.826-0.024
			c0.06-0.002,0.115-0.001,0.175-0.003c0.688-0.019,1.412-0.03,2.167-0.041c0.087-0.001,0.177,0.006,0.264,0.005
			c0.292-0.004,0.585,0.009,0.885,0.006c0.116-0.001,0.234,0.032,0.352,0.031c-0.117,0.001-0.235-0.065-0.352-0.064
			C20.098,73.876,19.805,73.879,19.513,73.883z"/>
		<path fill="none" d="M73.846,74c0.709,0,1.41-0.04,2.1-0.05c0.04,0,0.078-0.003,0.117-0.005c-0.039-0.014-0.078-0.031-0.117-0.03
			C75.256,73.925,74.556,74,73.846,74z"/>
		<path fill="none" d="M73.896,23.176c0.086,0.002,0.172,0.003,0.257,0.006c0.558,0.014,1.108,0.032,1.653,0.051
			c0.093,0.003,0.184,0.007,0.275,0.011c0.469,0.018,0.932,0.037,1.389,0.057c0.102,0.005,0.203,0.009,0.305,0.014
			c0.524,0.024,1.042,0.051,1.548,0.079c0.053,0.003,0.104,0.006,0.157,0.009c-0.053-0.003-0.104-0.007-0.157-0.01
			c-0.506-0.028-1.023-0.054-1.548-0.079c-0.102-0.005-0.203-0.01-0.305-0.015c-0.457-0.021-0.92-0.041-1.389-0.058
			c-0.092-0.004-0.183-0.009-0.275-0.013c-0.545-0.02-1.096-0.042-1.653-0.056c-0.085-0.002-0.171-0.012-0.257-0.014
			c-0.48-0.012-0.966-0.038-1.453-0.045c-0.122-0.001-0.243-0.037-0.365-0.038c0.122,0.001,0.244,0.069,0.365,0.07
			C72.931,23.155,73.416,23.164,73.896,23.176z"/>
		<path d="M64.458,84.671c3.82-0.534,8.522-0.813,13.785-0.813c6.184,0,10.893,0.38,10.939,0.384
			c0.273,0.022,0.546,0.033,0.818,0.033c2.5,0,4.922-0.938,6.775-2.646c2.055-1.893,3.224-4.56,3.224-7.354v-50
			c0-5.065-3.786-9.33-8.815-9.93c-0.416-0.05-10.309-1.215-20.842-1.215c-4.815,0-9.083,0.247-12.685,0.735
			c-2.557,0.346-4.721,1.488-7.875,3.318c-3.514-1.875-5.828-3.043-8.367-3.407C37.824,13.261,33.656,13,29.03,13
			C18.593,13,9.024,14.314,8.622,14.37C3.679,15.058,0,19.285,0,24.275v50c0,2.792,1.167,5.456,3.219,7.349
			c1.854,1.711,4.277,2.651,6.781,2.651c0.267,0,0.534-0.011,0.802-0.032c0.043-0.003,4.782-0.375,10.886-0.375
			c5.292,0,10.02,0.278,13.86,0.809c0.733,0.809,1.597,1.8,2.217,2.511c0.892,1.023,1.712,1.96,2.495,2.812H0v10h100V90H59.74
			c0.784-0.852,1.604-1.789,2.496-2.812C62.857,86.475,63.725,85.481,64.458,84.671z M45,80.27c-2.124-2.434-4.262-4.854-5-4.995
			c-0.682-0.13-1.38-0.248-2.087-0.356c-0.066-0.01-0.132-0.021-0.199-0.032c-0.674-0.102-1.357-0.192-2.047-0.276
			c-0.102-0.013-0.202-0.025-0.304-0.037c-0.675-0.08-1.355-0.15-2.039-0.214c-0.113-0.011-0.227-0.021-0.341-0.031
			c-0.681-0.061-1.364-0.115-2.048-0.163c-0.109-0.007-0.219-0.014-0.329-0.021c-0.692-0.046-1.384-0.086-2.071-0.119
			c-0.087-0.004-0.172-0.007-0.259-0.011c-0.713-0.033-1.423-0.061-2.124-0.082c-0.03-0.001-0.061-0.001-0.091-0.002
			c-0.718-0.021-1.428-0.036-2.125-0.046c-0.032,0-0.065,0.064-0.098,0.063C23.15,73.939,22.477,74,21.815,74
			c-0.042,0-0.086,0-0.128,0c-0.038,0-0.075,0-0.113,0c-0.278,0-0.553-0.064-0.825-0.062c-0.117,0.001-0.235-0.032-0.352-0.031
			c-0.3,0.002-0.593-0.01-0.885-0.006c-0.087,0.001-0.177-0.007-0.264-0.005c-0.755,0.011-1.479,0.022-2.167,0.041
			c-0.06,0.002-0.115,0.001-0.175,0.003c-0.28,0.008-0.558,0.015-0.826,0.024c-0.082,0.002-0.16,0.005-0.242,0.008
			c-0.239,0.008-0.476,0.017-0.703,0.025c-0.087,0.003-0.169,0.006-0.254,0.01c-0.211,0.008-0.418,0.017-0.618,0.025
			c-0.098,0.004-0.189,0.008-0.284,0.013c-0.174,0.008-0.344,0.016-0.507,0.023c-0.104,0.005-0.204,0.01-0.305,0.015
			c-0.145,0.007-0.286,0.015-0.423,0.021c-0.104,0.005-0.203,0.011-0.302,0.016c-0.121,0.007-0.236,0.013-0.35,0.02
			c-0.093,0.005-0.183,0.01-0.27,0.016c-0.108,0.006-0.211,0.012-0.311,0.019c-0.081,0.005-0.16,0.01-0.235,0.014
			c-0.094,0.006-0.178,0.012-0.262,0.017c-0.062,0.004-0.124,0.008-0.182,0.012c-0.09,0.006-0.167,0.011-0.243,0.017
			c-0.035,0.002-0.073,0.005-0.105,0.007c-0.079,0.005-0.144,0.01-0.204,0.015c-0.024,0.001-0.049,0.003-0.07,0.005
			c-0.054,0.004-0.09,0.007-0.124,0.009c-0.01,0-0.024,0.002-0.032,0.002C10.02,74.273,10,74.275,10,74.275v-50
			c0,0,0.04-0.005,0.078-0.011c0.015-0.002,0.035-0.004,0.054-0.007c0.054-0.007,0.133-0.018,0.221-0.029
			c0.026-0.003,0.046-0.006,0.075-0.01c0.117-0.015,0.264-0.034,0.426-0.054c0.04-0.005,0.085-0.011,0.128-0.016
			c0.152-0.019,0.323-0.039,0.508-0.061c0.045-0.005,0.086-0.01,0.134-0.016c0.228-0.027,0.479-0.056,0.748-0.086
			c0.051-0.005,0.104-0.011,0.156-0.017c0.233-0.026,0.484-0.053,0.745-0.081c0.074-0.008,0.146-0.016,0.223-0.023
			c0.315-0.033,0.648-0.067,0.998-0.102c0.067-0.006,0.14-0.013,0.208-0.02c0.298-0.029,0.608-0.058,0.929-0.087
			c0.102-0.009,0.203-0.019,0.307-0.028c0.393-0.036,0.798-0.071,1.219-0.105c0.054-0.004,0.111-0.009,0.165-0.013
			c0.377-0.031,0.766-0.061,1.163-0.09c0.116-0.009,0.233-0.018,0.352-0.026c0.443-0.032,0.896-0.063,1.359-0.093
			c0.021-0.001,0.04-0.003,0.061-0.004c0.471-0.03,0.956-0.058,1.445-0.085c0.135-0.007,0.271-0.014,0.405-0.021
			c0.433-0.022,0.871-0.043,1.314-0.063c0.082-0.003,0.162-0.007,0.244-0.011c0.509-0.021,1.027-0.039,1.549-0.055
			c0.135-0.004,0.271-0.007,0.407-0.011c0.437-0.012,0.877-0.021,1.32-0.029c0.116-0.002,0.23-0.005,0.346-0.007
			C27.82,23.005,28.358,23,28.898,23c0.044,0,0.088,0,0.132,0c0.046,0,0.092,0.001,0.137,0.002c0.834,0.001,1.672,0.011,2.509,0.032
			c0.098,0.002,0.194,0.005,0.292,0.008c0.829,0.023,1.656,0.057,2.479,0.103c0.093,0.005,0.185,0.01,0.277,0.016
			c0.842,0.05,1.677,0.113,2.499,0.191c0.062,0.006,0.125,0.011,0.188,0.017c0.879,0.085,1.745,0.187,2.59,0.308
			c0.934,0.133,2.979,1.211,5,2.291V80.27z M60,75.275c-0.738,0.143-2.876,2.562-5,4.996V25.717c0.206-0.12,0.412-0.238,0.614-0.354
			c1.421-0.811,2.722-1.498,3.386-1.588c0.852-0.115,1.732-0.211,2.632-0.293c0.066-0.006,0.134-0.011,0.201-0.017
			c0.843-0.074,1.702-0.134,2.571-0.181c0.09-0.005,0.179-0.01,0.269-0.014c0.867-0.045,1.743-0.078,2.623-0.1
			c0.076-0.002,0.151-0.07,0.227-0.072C68.447,23.077,69.374,23,70.298,23c0.015,0,0.029,0,0.044,0c0.01,0,0.02,0,0.029,0
			c0.571,0,1.141,0.07,1.707,0.077c0.122,0.001,0.243,0.036,0.365,0.038c0.487,0.007,0.973,0.033,1.453,0.045
			c0.086,0.002,0.172,0.011,0.257,0.014c0.558,0.014,1.108,0.036,1.653,0.056c0.093,0.003,0.184,0.009,0.275,0.013
			c0.469,0.018,0.932,0.038,1.389,0.058c0.102,0.005,0.203,0.01,0.305,0.015c0.524,0.024,1.042,0.051,1.548,0.079
			c0.054,0.003,0.104,0.006,0.157,0.01c0.453,0.025,0.896,0.052,1.331,0.079c0.107,0.007,0.215,0.013,0.32,0.02
			c0.954,0.062,1.856,0.126,2.694,0.191c0.087,0.007,0.172,0.014,0.258,0.02c0.393,0.031,0.774,0.062,1.136,0.093
			c0.015,0.001,0.03,0.002,0.044,0.004c0.388,0.033,0.753,0.065,1.101,0.096c0.063,0.006,0.125,0.011,0.187,0.017
			c0.295,0.027,0.575,0.053,0.837,0.078c0.037,0.004,0.078,0.007,0.115,0.011c0.29,0.028,0.558,0.054,0.802,0.079
			c0.047,0.005,0.089,0.009,0.134,0.014c0.194,0.02,0.374,0.039,0.534,0.056c0.042,0.004,0.086,0.009,0.125,0.013
			c0.175,0.019,0.33,0.035,0.455,0.049c0.03,0.003,0.05,0.005,0.077,0.008c0.092,0.011,0.173,0.02,0.229,0.026
			c0.021,0.002,0.043,0.005,0.058,0.006C89.959,24.27,90,24.275,90,24.275v50c0,0-0.019-0.001-0.053-0.004
			c-0.015-0.001-0.039-0.003-0.061-0.004c-0.029-0.002-0.055-0.004-0.097-0.007c-0.027-0.002-0.062-0.005-0.094-0.007
			c-0.055-0.004-0.11-0.008-0.181-0.013c-0.036-0.003-0.079-0.006-0.119-0.009c-0.072-0.005-0.144-0.01-0.228-0.016
			c-0.061-0.004-0.127-0.008-0.194-0.013c-0.087-0.006-0.176-0.012-0.272-0.018c-0.064-0.004-0.131-0.008-0.2-0.012
			c-0.11-0.007-0.225-0.014-0.347-0.021c-0.077-0.004-0.156-0.009-0.239-0.014c-0.124-0.007-0.252-0.014-0.387-0.021
			c-0.092-0.005-0.183-0.01-0.279-0.016c-0.137-0.007-0.278-0.015-0.424-0.022c-0.105-0.005-0.211-0.011-0.322-0.016
			c-0.147-0.007-0.302-0.014-0.458-0.021c-0.116-0.005-0.23-0.011-0.351-0.016c-0.165-0.007-0.337-0.014-0.509-0.021
			c-0.125-0.005-0.246-0.01-0.374-0.015c-0.179-0.007-0.365-0.014-0.551-0.02c-0.131-0.005-0.258-0.01-0.392-0.014
			c-0.26-0.009-0.528-0.017-0.8-0.024c-0.063-0.002-0.124-0.004-0.188-0.006c-0.341-0.009-0.691-0.018-1.05-0.026
			c-0.103-0.002-0.21-0.003-0.313-0.006c-0.26-0.005-0.52-0.01-0.786-0.014c-0.14-0.002-0.283-0.003-0.425-0.005
			c-0.237-0.003-0.474-0.006-0.716-0.008c-0.159-0.001-0.321,0.069-0.482,0.068C78.877,73.931,78.646,74,78.409,74
			c-0.056,0-0.109,0-0.166,0c-0.053,0-0.11,0-0.163,0c-0.639,0-1.288-0.066-1.952-0.057c-0.021,0-0.043,0.001-0.065,0.002
			c-0.039,0.002-0.077,0.004-0.117,0.005c-0.689,0.01-1.391,0.05-2.1,0.05c-0.014,0-0.026,0-0.039,0
			c-0.706,0-1.42,0.011-2.139,0.044c-0.079,0.004-0.157-0.012-0.236-0.008c-0.688,0.033-1.382,0.064-2.075,0.111
			c-0.106,0.007-0.213,0.009-0.319,0.017c-0.684,0.047-1.367,0.1-2.049,0.162c-0.11,0.01-0.221,0.019-0.331,0.029
			c-0.684,0.064-1.363,0.136-2.038,0.216c-0.101,0.012-0.199,0.024-0.299,0.037c-0.688,0.084-1.372,0.176-2.045,0.278
			c-0.064,0.01-0.128,0.021-0.192,0.031C61.378,75.025,60.681,75.144,60,75.275z"/>
	</g>
</g>
</svg>
