<?xml version="1.0" encoding="utf-8"?>
<!-- Generator: Adobe Illustrator 16.0.0, SVG Export Plug-In . SVG Version: 6.00 Build 0)  -->
<!DOCTYPE svg PUBLIC "-//W3C//DTD SVG 1.0//EN" "http://www.w3.org/TR/2001/REC-SVG-20010904/DTD/svg10.dtd">
<svg version="1.0" xmlns="http://www.w3.org/2000/svg" xmlns:xlink="http://www.w3.org/1999/xlink" x="0px" y="0px" width="100px"
	 height="100px" viewBox="0 0 100 100" enable-background="new 0 0 100 100" xml:space="preserve">
<g id="Layer_3">
</g>
<g id="Your_Icon">
</g>
<g id="Layer_4">
	<g>
		<circle fill="none" cx="50" cy="38" r="9.5"/>
		<path fill="none" d="M50,9C34.535,9,22,22.431,22,39c0,16.568,28,52,28,52s28-35.432,28-52C78,22.431,65.465,9,50,9z M50,55.5
			c-9.649,0-17.5-7.851-17.5-17.5S40.351,20.5,50,20.5S67.5,28.351,67.5,38S59.649,55.5,50,55.5z"/>
		<path d="M50,20.5c-9.649,0-17.5,7.851-17.5,17.5S40.351,55.5,50,55.5S67.5,47.649,67.5,38S59.649,20.5,50,20.5z M50,47.5
			c-5.245,0-9.5-4.252-9.5-9.5s4.255-9.5,9.5-9.5c5.248,0,9.5,4.252,9.5,9.5S55.248,47.5,50,47.5z"/>
		<path d="M50,1C30.149,1,14,18.047,14,39c0,8.544,4.993,20.493,15.263,36.528c7.132,11.135,14.164,20.058,14.46,20.432
			C45.241,97.88,47.553,99,50,99s4.759-1.12,6.277-3.04c0.296-0.374,7.328-9.297,14.46-20.432C81.007,59.493,86,47.544,86,39
			C86,18.047,69.851,1,50,1z M50,91c0,0-28-35.432-28-52C22,22.431,34.535,9,50,9s28,13.431,28,30C78,55.568,50,91,50,91z"/>
	</g>
</g>
</svg>
