<?xml version="1.0" encoding="utf-8"?>
<!-- Generator: Adobe Illustrator 16.0.0, SVG Export Plug-In . SVG Version: 6.00 Build 0)  -->
<!DOCTYPE svg PUBLIC "-//W3C//DTD SVG 1.0//EN" "http://www.w3.org/TR/2001/REC-SVG-20010904/DTD/svg10.dtd">
<svg version="1.0" xmlns="http://www.w3.org/2000/svg" xmlns:xlink="http://www.w3.org/1999/xlink" x="0px" y="0px" width="100px"
	 height="100px" viewBox="0 0 100 100" enable-background="new 0 0 100 100" xml:space="preserve">
<g id="Layer_3">
</g>
<g id="Your_Icon">
</g>
<g id="Layer_4">
	<rect x="46" y="18" width="8" height="64"/>
	<path d="M29.75,79.157L3.422,52.827c-0.751-0.75-1.172-1.768-1.172-2.828c0-1.061,0.422-2.078,1.172-2.829L29.75,20.843
		l5.657,5.657l-23.5,23.499l23.5,23.501L29.75,79.157z"/>
	<path d="M70.25,79.157L64.593,73.5l23.5-23.501L64.593,26.5l5.657-5.657L96.578,47.17c0.75,0.75,1.172,1.768,1.172,2.829
		c0,1.061-0.421,2.078-1.172,2.828L70.25,79.157z"/>
</g>
</svg>
