<?xml version="1.0" encoding="utf-8"?>
<!-- Generator: Adobe Illustrator 16.0.0, SVG Export Plug-In . SVG Version: 6.00 Build 0)  -->
<!DOCTYPE svg PUBLIC "-//W3C//DTD SVG 1.0//EN" "http://www.w3.org/TR/2001/REC-SVG-20010904/DTD/svg10.dtd">
<svg version="1.0" xmlns="http://www.w3.org/2000/svg" xmlns:xlink="http://www.w3.org/1999/xlink" x="0px" y="0px" width="100px"
	 height="100px" viewBox="0 0 100 100" enable-background="new 0 0 100 100" xml:space="preserve">
<g id="Layer_3">
</g>
<g id="Your_Icon">
</g>
<g id="Layer_4">
	<g>
		<path d="M75,35.601c-13.785,0-25,11.843-25,26.392C50,65.859,53.134,69,57,69h36c3.866,0,7-3.141,7-7.008
			C100,47.443,88.785,35.601,75,35.601z M57,62c0-10,8.06-19.385,18-19.385S93,52,93,62H57z"/>
		<path d="M74.905,31c8.547,0,15.5-6.953,15.5-15.499C90.405,6.954,83.452,0,74.905,0c-8.546,0-15.5,6.954-15.5,15.501
			C59.405,24.047,66.358,31,74.905,31z M74.905,7c4.696,0,8.5,3.805,8.5,8.501S79.601,24,74.905,24c-4.695,0-8.5-3.803-8.5-8.499
			S70.21,7,74.905,7z"/>
		<path d="M25,66.6c-13.785,0-25,11.844-25,26.393C0,96.858,3.134,100,7,100h36c3.866,0,7-3.142,7-7.008
			C50,78.443,38.785,66.6,25,66.6z M7,93c0-11,8.06-19.385,18-19.385S43,82,43,93H7z"/>
		<g>
			<circle fill="none" cx="24.999" cy="46.6" r="8.5"/>
			<path d="M24.999,31.1C16.453,31.1,9.5,38.054,9.5,46.601c0,8.546,6.953,15.499,15.499,15.499c8.547,0,15.501-6.953,15.501-15.499
				C40.5,38.054,33.546,31.1,24.999,31.1z M24.999,55.1c-4.694,0-8.499-3.803-8.499-8.499s3.805-8.501,8.499-8.501
				c4.696,0,8.501,3.805,8.501,8.501S29.695,55.1,24.999,55.1z"/>
		</g>
	</g>
</g>
</svg>
