<?xml version="1.0" encoding="utf-8"?>
<!-- Generator: Adobe Illustrator 16.0.0, SVG Export Plug-In . SVG Version: 6.00 Build 0)  -->
<!DOCTYPE svg PUBLIC "-//W3C//DTD SVG 1.0//EN" "http://www.w3.org/TR/2001/REC-SVG-20010904/DTD/svg10.dtd">
<svg version="1.0" xmlns="http://www.w3.org/2000/svg" xmlns:xlink="http://www.w3.org/1999/xlink" x="0px" y="0px" width="64px"
	 height="100px" viewBox="0 0 64 100" enable-background="new 0 0 64 100" xml:space="preserve">
<g id="Layer_3">
</g>
<g id="Your_Icon">
</g>
<g id="Layer_4">
	<g>
		<path fill="none" d="M40.998,60.915c3.074-2.597,4.58-5.983,3.835-8.617c-1.808-6.399-7.246-8.925-13.543-11.83
			c-2.411-1.112-4.952-2.476-7.363-4.174l-0.925,0.782c-3.074,2.596-4.58,5.983-3.835,8.617c1.808,6.398,7.246,8.925,13.543,11.829
			c2.411,1.113,4.952,2.476,7.363,4.176L40.998,60.915z"/>
		<path d="M50.749,76.609c-0.897-3.726-2.572-6.811-4.675-9.398l0.137-0.115c5.576-4.707,8.028-11.214,6.399-16.981
			c-2.821-9.978-10.851-13.682-17.936-16.951C27.481,29.845,22.699,25.77,21.13,19.73l0.017-0.102
			c-0.512-2.119,0.241-4.468,2.065-6.784C25.624,9.783,29.291,8,32.559,8c0,0,0.002,0,0.004,0c3.034,0,5.452,0.956,7.589,3.045
			C42.265,13.113,43,15.661,43,18.575V23h8v-4.425c0-5.105-1.557-9.664-5.238-13.264C42.105,1.734,37.722,0,32.564,0
			c-0.002,0-0.002,0-0.007,0c-5.736,0-11.75,2.876-15.694,7.885c-3.347,4.25-4.648,9.154-3.587,13.674l-0.025-0.053
			c0.897,3.725,2.572,6.747,4.675,9.334l-0.137,0.084c-5.576,4.708-8.028,11.198-6.399,16.966
			c2.821,9.978,10.851,13.675,17.936,16.943c7.193,3.319,11.976,7.391,13.545,13.43l-0.017,0.1c0.512,2.119-0.241,4.972-2.065,7.287
			C38.376,88.713,34.709,91,31.441,91c0,0-0.002,0-0.004,0c-3.034,0-5.452-1.461-7.589-3.551C21.735,85.383,21,82.328,21,79.415V76
			h-8v3.415c0,5.105,1.557,10.669,5.238,14.27c3.656,3.577,8.04,6.315,13.197,6.315c0.002,0,0.002,0,0.007,0
			c5.736,0,11.75-3.881,15.694-8.89c3.347-4.25,4.648-9.657,3.587-14.177L50.749,76.609z M19.167,45.692
			c-0.745-2.634,0.761-6.021,3.835-8.617l0.925-0.782c2.411,1.699,4.952,3.062,7.363,4.174c6.297,2.905,11.735,5.431,13.543,11.83
			c0.745,2.634-0.761,6.021-3.835,8.617l-0.925,0.782c-2.411-1.7-4.952-3.062-7.363-4.176
			C26.413,54.617,20.975,52.091,19.167,45.692z"/>
	</g>
</g>
</svg>
