<?xml version="1.0" encoding="utf-8"?>
<!-- Generator: Adobe Illustrator 16.0.0, SVG Export Plug-In . SVG Version: 6.00 Build 0)  -->
<!DOCTYPE svg PUBLIC "-//W3C//DTD SVG 1.1//EN" "http://www.w3.org/Graphics/SVG/1.1/DTD/svg11.dtd">
<svg version="1.1" xmlns="http://www.w3.org/2000/svg" xmlns:xlink="http://www.w3.org/1999/xlink" x="0px" y="0px" width="100px"
	 height="100px" viewBox="0 0 100 100" enable-background="new 0 0 100 100" xml:space="preserve">
<g id="Layer_3" display="none">
</g>
<g id="Your_Icon">
</g>
<g id="Layer_4">
	<g>
		<path fill="none" d="M10,90h80V20H10V90z M49.435,50.608l7.971,2.757L72.847,40.82c1.496-1.217,3.559-1.464,5.302-0.634
			C79.891,41.015,81,42.771,81,44.7V77c0,2.761-2.239,5-5,5H29.7c-1.941,0-3.707-1.124-4.529-2.882s-0.552-3.834,0.692-5.324
			l18.1-21.667C45.294,50.533,47.47,49.927,49.435,50.608z M29.999,29.1C35.526,29.1,40,33.579,40,39.1s-4.476,10-10.001,10
			c-5.513,0-9.999-4.479-9.999-10S24.486,29.1,29.999,29.1z"/>
		<path fill="#FFFFFF" d="M71,55.205l-9.447,7.675c-1.343,1.091-3.153,1.409-4.788,0.845l-7.34-2.539L40.392,72H71V55.205z"/>
		<g>
			<path d="M78.149,40.186c-1.743-0.83-3.806-0.583-5.302,0.634L57.406,53.365l-7.971-2.757c-1.965-0.681-4.141-0.075-5.472,1.52
				l-18.1,21.667c-1.244,1.49-1.514,3.565-0.692,5.324S27.759,82,29.7,82H76c2.761,0,5-2.239,5-5V44.7
				C81,42.771,79.891,41.015,78.149,40.186z M71,72H40.392l9.034-10.814l7.34,2.539c1.634,0.564,3.445,0.246,4.788-0.845L71,55.205
				V72z"/>
		</g>
		<g>
			<path fill="#211915" d="M29.999,49.1C35.524,49.1,40,44.621,40,39.1s-4.474-10-10.001-10c-5.513,0-9.999,4.479-9.999,10
				S24.486,49.1,29.999,49.1z"/>
		</g>
		<path d="M90,10H10C4.477,10,0,14.477,0,20v70c0,5.523,4.477,10,10,10h80c5.523,0,10-4.477,10-10V20C100,14.477,95.523,10,90,10z
			 M90,90H10V20h80V90z"/>
	</g>
</g>
</svg>
