<?xml version="1.0" encoding="utf-8"?>
<!-- Generator: Adobe Illustrator 16.0.0, SVG Export Plug-In . SVG Version: 6.00 Build 0)  -->
<!DOCTYPE svg PUBLIC "-//W3C//DTD SVG 1.1//EN" "http://www.w3.org/Graphics/SVG/1.1/DTD/svg11.dtd">
<svg version="1.1" xmlns="http://www.w3.org/2000/svg" xmlns:xlink="http://www.w3.org/1999/xlink" x="0px" y="0px" width="100px"
	 height="100px" viewBox="0 0 100 100" enable-background="new 0 0 100 100" xml:space="preserve">
<g id="Layer_3" display="none">
</g>
<g id="Your_Icon">
</g>
<g id="Layer_4">
	<g>
		<polygon fill="none" points="10,89.512 90,89.449 90,45 10,45 		"/>
		<g>
			<path d="M95,35H5c-2.762,0-5,1.754-5,4.516v55c0,1.327,0.527,2.841,1.466,3.779C2.403,99.231,3.675,100,5,100
				c0.002,0,0.003,0,0.003,0h90.001c2.76-0.002,4.996-2.795,4.996-5.555v-54.93C100,36.754,97.762,35,95,35z M90,90H10V45h80V90z"/>
		</g>
		<path fill="#211915" d="M37,25.088c0-3.817,2.945-7.237,6.543-8.026c0.857-0.062,4.041-0.131,6.574-0.16
			c2.62,0.045,5.63,0.147,6.562,0.237C59.883,18.031,62,21.34,62,25.088V31h10v-5.912c0-8.494-5.219-15.776-13.045-17.707
			c-0.502-0.124-1.31-0.355-8.741-0.479C50.166,6.899,50.182,6.9,50.134,6.9c-6.972,0.082-7.959,0.231-8.375,0.312
			C33.47,8.835,27,16.52,27,25.088V31h10V25.088z"/>
	</g>
</g>
</svg>
