<?xml version="1.0" encoding="utf-8"?>
<!-- Generator: Adobe Illustrator 16.0.0, SVG Export Plug-In . SVG Version: 6.00 Build 0)  -->
<!DOCTYPE svg PUBLIC "-//W3C//DTD SVG 1.0//EN" "http://www.w3.org/TR/2001/REC-SVG-20010904/DTD/svg10.dtd">
<svg version="1.0" xmlns="http://www.w3.org/2000/svg" xmlns:xlink="http://www.w3.org/1999/xlink" x="0px" y="0px" width="100px"
	 height="100px" viewBox="0 0 100 100" enable-background="new 0 0 100 100" xml:space="preserve">
<g id="Layer_3">
</g>
<g id="Your_Icon">
</g>
<g id="Layer_4">
	<path d="M14,99.676c-1.061,0-2.077-0.421-2.827-1.17C10.422,97.755,10,96.737,10,95.676v-43c0-2.209,1.791-4,4-4h72
		c2.209,0,4,1.791,4,4v42.935c0,2.208-1.789,3.998-3.996,4l-72,0.065C14.002,99.676,14.001,99.676,14,99.676z M18,56.676v34.997
		l64-0.058V56.676H18z"/>
	<path d="M82,46.5h-8V33.812c0-12.269-10.767-22.25-24-22.25s-24,9.981-24,22.25V46.5h-8V33.812c0-16.68,14.355-30.25,32-30.25
		s32,13.57,32,30.25V46.5z"/>
</g>
</svg>
