<?xml version="1.0" encoding="utf-8"?>
<!-- Generator: Adobe Illustrator 16.0.0, SVG Export Plug-In . SVG Version: 6.00 Build 0)  -->
<!DOCTYPE svg PUBLIC "-//W3C//DTD SVG 1.1//EN" "http://www.w3.org/Graphics/SVG/1.1/DTD/svg11.dtd">
<svg version="1.1" xmlns="http://www.w3.org/2000/svg" xmlns:xlink="http://www.w3.org/1999/xlink" x="0px" y="0px" width="100px"
	 height="100px" viewBox="0 0 100 100" enable-background="new 0 0 100 100" xml:space="preserve">
<g id="Layer_3" display="none">
</g>
<g id="Your_Icon">
</g>
<g id="Layer_4">
	<path fill="#211915" d="M50,10.5c15.465,0,28,13.431,28,30c0,16.568-28,49-28,49s-28-32.432-28-49C22,23.931,34.535,10.5,50,10.5
		 M50,0.5c-20.953,0-38,17.944-38,40c0,9.059,5.155,20.958,15.76,36.379c7.229,10.511,14.37,18.808,14.67,19.156
		C44.33,98.235,47.093,99.5,50,99.5s5.67-1.265,7.569-3.465c0.3-0.348,7.442-8.645,14.67-19.156C82.845,61.458,88,49.559,88,40.5
		C88,18.444,70.953,0.5,50,0.5L50,0.5z"/>
	<rect x="33" y="35" fill="#211915" width="34" height="10"/>
	<rect x="45" y="23" fill="#211915" width="10" height="34"/>
</g>
</svg>
