<?xml version="1.0" encoding="utf-8"?>
<!-- Generator: Adobe Illustrator 16.0.0, SVG Export Plug-In . SVG Version: 6.00 Build 0)  -->
<!DOCTYPE svg PUBLIC "-//W3C//DTD SVG 1.0//EN" "http://www.w3.org/TR/2001/REC-SVG-20010904/DTD/svg10.dtd">
<svg version="1.0" xmlns="http://www.w3.org/2000/svg" xmlns:xlink="http://www.w3.org/1999/xlink" x="0px" y="0px" width="100px"
	 height="100px" viewBox="0 0 100 100" enable-background="new 0 0 100 100" xml:space="preserve">
<g id="Layer_3">
</g>
<g id="Your_Icon">
</g>
<g id="Layer_4">
	<g>
		<path d="M78,8v84H22V8H78 M78,0H22c-4.418,0-8,3.582-8,8v84c0,4.418,3.582,8,8,8h56c4.418,0,8-3.582,8-8V8C86,3.582,82.418,0,78,0
			L78,0z"/>
	</g>
	<g>
		<path d="M69,21c0-2.209-1.791-4-4-4H35c-2.209,0-4,1.791-4,4v39c0,2.209,1.791,4,4,4h30c2.209,0,4-1.791,4-4V21z M61,56H39V25h22
			V56z"/>
	</g>
	<g>
		<path d="M55.9,78.5c0,3.312-2.687,6-6.001,6c-3.308,0-5.999-2.688-5.999-6s2.691-6,5.999-6C53.216,72.5,55.9,75.188,55.9,78.5z"/>
	</g>
</g>
</svg>
