<?xml version="1.0" encoding="utf-8"?>
<!-- Generator: Adobe Illustrator 16.0.0, SVG Export Plug-In . SVG Version: 6.00 Build 0)  -->
<!DOCTYPE svg PUBLIC "-//W3C//DTD SVG 1.1//EN" "http://www.w3.org/Graphics/SVG/1.1/DTD/svg11.dtd">
<svg version="1.1" xmlns="http://www.w3.org/2000/svg" xmlns:xlink="http://www.w3.org/1999/xlink" x="0px" y="0px" width="100px"
	 height="100px" viewBox="0 0 100 100" enable-background="new 0 0 100 100" xml:space="preserve">
<g id="Layer_3" display="none">
	<g display="inline" opacity="0.39">
		<line opacity="0.3" fill="none" stroke="#699BD0" enable-background="new    " x1="3.325" y1="-71" x2="3.325" y2="29"/>
		<line fill="none" stroke="#699BD0" x1="6.45" y1="-71" x2="6.45" y2="29"/>
		<line opacity="0.3" fill="none" stroke="#699BD0" enable-background="new    " x1="9.575" y1="-71" x2="9.575" y2="29"/>
		<line fill="none" stroke="#699BD0" x1="12.7" y1="-71" x2="12.7" y2="29"/>
		<line opacity="0.3" fill="none" stroke="#699BD0" enable-background="new    " x1="15.825" y1="-71" x2="15.825" y2="29"/>
		<line fill="none" stroke="#699BD0" x1="18.95" y1="-71" x2="18.95" y2="29"/>
		<line opacity="0.3" fill="none" stroke="#699BD0" enable-background="new    " x1="22.075" y1="-71" x2="22.075" y2="29"/>
		<line fill="none" stroke="#699BD0" x1="25.2" y1="-71" x2="25.2" y2="29"/>
		<line opacity="0.3" fill="none" stroke="#699BD0" enable-background="new    " x1="28.325" y1="-71" x2="28.325" y2="29"/>
		<line fill="none" stroke="#699BD0" x1="31.45" y1="-71" x2="31.45" y2="29"/>
		<line opacity="0.3" fill="none" stroke="#699BD0" enable-background="new    " x1="34.575" y1="-71" x2="34.575" y2="29"/>
		<line fill="none" stroke="#699BD0" x1="37.7" y1="-71" x2="37.7" y2="29"/>
		<line opacity="0.3" fill="none" stroke="#699BD0" enable-background="new    " x1="40.825" y1="-71" x2="40.825" y2="29"/>
		<line fill="none" stroke="#699BD0" x1="43.95" y1="-71" x2="43.95" y2="29"/>
		<line opacity="0.3" fill="none" stroke="#699BD0" enable-background="new    " x1="47.075" y1="-71" x2="47.075" y2="29"/>
		<line fill="none" stroke="#699BD0" x1="50.2" y1="-71" x2="50.2" y2="29"/>
		<line opacity="0.3" fill="none" stroke="#699BD0" enable-background="new    " x1="53.325" y1="-71" x2="53.325" y2="29"/>
		<line fill="none" stroke="#699BD0" x1="56.45" y1="-71" x2="56.45" y2="29"/>
		<line opacity="0.3" fill="none" stroke="#699BD0" enable-background="new    " x1="59.575" y1="-71" x2="59.575" y2="29"/>
		<line fill="none" stroke="#699BD0" x1="62.7" y1="-71" x2="62.7" y2="29"/>
		<line opacity="0.3" fill="none" stroke="#699BD0" enable-background="new    " x1="65.825" y1="-71" x2="65.825" y2="29"/>
		<line fill="none" stroke="#699BD0" x1="68.95" y1="-71" x2="68.95" y2="29"/>
		<line opacity="0.3" fill="none" stroke="#699BD0" enable-background="new    " x1="72.075" y1="-71" x2="72.075" y2="29"/>
		<line fill="none" stroke="#699BD0" x1="75.2" y1="-71" x2="75.2" y2="29"/>
		<line opacity="0.3" fill="none" stroke="#699BD0" enable-background="new    " x1="78.325" y1="-71" x2="78.325" y2="29"/>
		<line fill="none" stroke="#699BD0" x1="81.45" y1="-71" x2="81.45" y2="29"/>
		<line opacity="0.3" fill="none" stroke="#699BD0" enable-background="new    " x1="84.575" y1="-71" x2="84.575" y2="29"/>
		<line fill="none" stroke="#699BD0" x1="87.7" y1="-71" x2="87.7" y2="29"/>
		<line opacity="0.3" fill="none" stroke="#699BD0" enable-background="new    " x1="90.825" y1="-71" x2="90.825" y2="29"/>
		<line fill="none" stroke="#699BD0" x1="93.95" y1="-71" x2="93.95" y2="29"/>
		<line opacity="0.3" fill="none" stroke="#699BD0" enable-background="new    " x1="97.075" y1="-71" x2="97.075" y2="29"/>
		<line opacity="0.3" fill="none" stroke="#699BD0" enable-background="new    " x1="0.2" y1="0.875" x2="100.2" y2="0.875"/>
		<line fill="none" stroke="#699BD0" x1="0.2" y1="4" x2="100.2" y2="4"/>
		<line opacity="0.3" fill="none" stroke="#699BD0" enable-background="new    " x1="0.2" y1="7.125" x2="100.2" y2="7.125"/>
		<line fill="none" stroke="#699BD0" x1="0.2" y1="10.25" x2="100.2" y2="10.25"/>
		<line opacity="0.3" fill="none" stroke="#699BD0" enable-background="new    " x1="0.2" y1="13.375" x2="100.2" y2="13.375"/>
		<line fill="none" stroke="#699BD0" x1="0.2" y1="16.5" x2="100.2" y2="16.5"/>
		<line opacity="0.3" fill="none" stroke="#699BD0" enable-background="new    " x1="0.2" y1="19.625" x2="100.2" y2="19.625"/>
		<line fill="none" stroke="#699BD0" x1="0.2" y1="22.75" x2="100.2" y2="22.75"/>
		<line opacity="0.3" fill="none" stroke="#699BD0" enable-background="new    " x1="0.2" y1="25.875" x2="100.2" y2="25.875"/>
	</g>
	
		<rect x="20" y="-70" display="inline" opacity="0.78" fill="none" stroke="#000000" stroke-miterlimit="10" width="62" height="100"/>
	
		<rect x="1" y="-70" display="inline" opacity="0.78" fill="none" stroke="#000000" stroke-miterlimit="10" width="100" height="100"/>
	<g display="inline" opacity="0.78">
		<path fill="none" stroke="#211915" stroke-miterlimit="10" d="M51-40c-11.028,0-20,8.972-20,20S39.972,0,51,0s20-8.972,20-20
			S62.028-40,51-40L51-40z"/>
	</g>
	<g display="inline" opacity="0.78">
		<path fill="none" stroke="#211915" stroke-miterlimit="10" d="M51-51c17.123,0,31,13.876,31,31c0,17.115-13.877,31-31,31
			S20-2.885,20-20C20-37.124,33.877-51,51-51 M51-60c-22.056,0-40,17.944-40,40s17.944,40,40,40S91,2.056,91-20S73.056-60,51-60
			L51-60z"/>
	</g>
</g>
<g id="Your_Icon">
</g>
<g id="Layer_4">
	<path fill="none" stroke="#000000" stroke-width="10" stroke-linecap="square" stroke-linejoin="round" stroke-miterlimit="10" d="
		M50.83,71.804"/>
	<g>
		<path fill="none" d="M50.938,71.085c-0.542,0.007-1.12,0.015-1.67,0.015c-0.568,0-1.108-0.008-1.55-0.033
			C43.773,70.844,31.099,63.3,10,48.629V90h80V48.646c-32.143,22.41-36.498,22.429-38,22.429
			C51.715,71.075,51.343,71.08,50.938,71.085z"/>
		<path fill="none" d="M50.806,61.086c0.281-0.003,0.548-0.007,0.787-0.009C55.6,59.798,73.856,47.803,90,36.423V20H10v16.416
			c16.25,11.421,34.622,23.462,38.54,24.677C49.127,61.109,50.082,61.096,50.806,61.086z"/>
		<path d="M90,10H10C4.477,10,0,14.477,0,20v70c0,5.523,4.477,10,10,10h80c5.523,0,10-4.477,10-10V20C100,14.477,95.523,10,90,10z
			 M90,48.646V90H10V48.629c-0.066-0.046-0.128-0.089-0.195-0.135c-2.757-1.918-5.657-3.957-8.699-6.117l5.789-8.154
			c0.99,0.703,1.992,1.411,3.003,2.121c0.034,0.024,0.068,0.048,0.103,0.072V20h80v16.423c1.043-0.735,2.078-1.468,3.1-2.196
			l5.801,8.146C95.709,44.645,92.764,46.719,90,48.646z"/>
		<path d="M90,36.423c-16.144,11.38-34.4,23.375-38.407,24.654c-0.239,0.002-0.506,0.006-0.787,0.009
			c-0.725,0.01-1.679,0.023-2.267,0.007C44.622,59.877,26.25,47.837,10,36.416c-0.034-0.024-0.068-0.048-0.103-0.072
			c-1.011-0.71-2.013-1.418-3.003-2.121l-5.789,8.154c3.042,2.16,5.942,4.199,8.699,6.117c0.067,0.046,0.129,0.089,0.195,0.135
			C31.099,63.3,43.773,70.844,47.717,71.067c0.442,0.025,0.982,0.033,1.55,0.033c0.551,0,1.128-0.008,1.67-0.015
			c0.406-0.005,0.777-0.01,1.062-0.01c1.502,0,5.857-0.019,38-22.429c2.764-1.927,5.709-4,8.9-6.273L93.1,34.227
			C92.078,34.955,91.043,35.688,90,36.423z"/>
	</g>
</g>
</svg>
