<?xml version="1.0" encoding="utf-8"?>
<!-- Generator: Adobe Illustrator 16.0.0, SVG Export Plug-In . SVG Version: 6.00 Build 0)  -->
<!DOCTYPE svg PUBLIC "-//W3C//DTD SVG 1.1//EN" "http://www.w3.org/Graphics/SVG/1.1/DTD/svg11.dtd">
<svg version="1.1" xmlns="http://www.w3.org/2000/svg" xmlns:xlink="http://www.w3.org/1999/xlink" x="0px" y="0px" width="100px"
	 height="100px" viewBox="0 0 100 100" enable-background="new 0 0 100 100" xml:space="preserve">
<g id="Layer_3" display="none">
</g>
<g id="Your_Icon">
</g>
<g id="Layer_4">
	<path d="M75.003,74.571l-6.988-7.153L85.845,50l-17.83-17.417l6.988-7.153l21.491,20.994C97.457,47.364,98,48.654,98,50
		s-0.543,2.636-1.506,3.577L75.003,74.571z"/>
	<path d="M25.796,74.571L4.306,53.577C3.343,52.636,2.8,51.346,2.8,50s0.543-2.636,1.506-3.577l21.491-20.994l6.988,7.153L14.955,50
		l17.83,17.417L25.796,74.571z"/>
	
		<rect x="45" y="14.122" transform="matrix(0.9659 0.2591 -0.2591 0.9659 14.6619 -11.2472)" fill="#211915" width="10" height="71.757"/>
</g>
</svg>
