<?xml version="1.0" encoding="utf-8"?>
<!-- Generator: Adobe Illustrator 16.0.0, SVG Export Plug-In . SVG Version: 6.00 Build 0)  -->
<!DOCTYPE svg PUBLIC "-//W3C//DTD SVG 1.1//EN" "http://www.w3.org/Graphics/SVG/1.1/DTD/svg11.dtd">
<svg version="1.1" xmlns="http://www.w3.org/2000/svg" xmlns:xlink="http://www.w3.org/1999/xlink" x="0px" y="0px" width="100px"
	 height="100px" viewBox="0 0 100 100" enable-background="new 0 0 100 100" xml:space="preserve">
<g id="Layer_3" display="none">
</g>
<g id="Your_Icon">
</g>
<g id="Layer_4">
	<g>
		<path fill="none" d="M52.986,35.276c6.629,0,12.001-5.699,12.001-12.738C64.987,15.5,59.615,9.8,52.986,9.8
			c-6.627,0-11.999,5.7-11.999,12.738C40.987,29.577,46.359,35.276,52.986,35.276z"/>
		<g>
			<path d="M52.855,49.7C30.272,49.7,14.5,66.299,14.5,89.85c0,5.523,4.477,10.15,10,10.15h56.7c5.523,0,10-4.627,10-10.15
				C91.2,66.299,75.432,49.7,52.855,49.7z M24.5,90c0-18,10.961-30,28.355-30S81.2,72,81.2,90H24.5z"/>
		</g>
		<g>
			<path d="M52.986-0.2c-12.13,0-21.999,10.2-21.999,22.738s9.869,22.738,21.999,22.738c12.131,0,22.001-10.2,22.001-22.738
				S65.118-0.2,52.986-0.2z M52.986,35.276c-6.627,0-11.999-5.699-11.999-12.738C40.987,15.5,46.359,9.8,52.986,9.8
				c6.629,0,12.001,5.7,12.001,12.738C64.987,29.577,59.615,35.276,52.986,35.276z"/>
		</g>
	</g>
</g>
</svg>
