<?xml version="1.0" encoding="utf-8"?>
<!-- Generator: Adobe Illustrator 16.0.0, SVG Export Plug-In . SVG Version: 6.00 Build 0)  -->
<!DOCTYPE svg PUBLIC "-//W3C//DTD SVG 1.1//EN" "http://www.w3.org/Graphics/SVG/1.1/DTD/svg11.dtd">
<svg version="1.1" xmlns="http://www.w3.org/2000/svg" xmlns:xlink="http://www.w3.org/1999/xlink" x="0px" y="0px" width="100px"
	 height="100px" viewBox="0 0 100 100" enable-background="new 0 0 100 100" xml:space="preserve">
<g id="Layer_3" display="none">
</g>
<g id="Your_Icon">
</g>
<g id="Layer_4">
	<g>
		<path fill="#211915" d="M50,42.999c-8.271,0-16,6.729-16,15.001v42h10V58c0-2.757,3.243-5.001,6-5.001s6,2.244,6,5.001v42h10V58
			C66,49.728,58.271,42.999,50,42.999z"/>
		<g>
			<path fill="#211915" d="M49,21.954c5.516,0,10-4.483,10-9.996c0-5.521-4.484-10.004-10-10.004S39,6.438,39,11.958
				C39,17.471,43.484,21.954,49,21.954z"/>
		</g>
		<path fill="#211915" d="M71.7,3c0,14-10.317,25.146-23,25.146S25.7,17,25.7,3h-10c0,20,14.804,35.146,33,35.146S81.7,23,81.7,3
			H71.7z"/>
	</g>
</g>
</svg>
