<?xml version="1.0" encoding="utf-8"?>
<!-- Generator: Adobe Illustrator 16.0.0, SVG Export Plug-In . SVG Version: 6.00 Build 0)  -->
<!DOCTYPE svg PUBLIC "-//W3C//DTD SVG 1.1//EN" "http://www.w3.org/Graphics/SVG/1.1/DTD/svg11.dtd">
<svg version="1.1" xmlns="http://www.w3.org/2000/svg" xmlns:xlink="http://www.w3.org/1999/xlink" x="0px" y="0px" width="100px"
	 height="100px" viewBox="0 0 100 100" enable-background="new 0 0 100 100" xml:space="preserve">
<g id="Layer_3" display="none">
</g>
<g id="Your_Icon">
</g>
<g id="Layer_4">
	<g>
		<path fill="none" d="M70.537,41.796c-0.167-0.413-0.44-0.778-0.542-1.215c-0.32-1.386,0.621-3.555,1.374-4.478l9.116-11.045
			l-5.544-5.543l-11.226,9.616c-1.408,1.151-3.346,1.189-5.02,0.481c-0.276-0.117-0.556-0.281-0.837-0.386
			c-1.749-0.649-2.475-2.354-2.668-4.208l-1.271-14.208l-7.834,0.006L44.82,25.34c-0.198,1.523-0.609,3.125-1.942,3.886
			c-0.108,0.062-0.89,0.459-1.006,0.509c-1.707,0.74-4.334,0.651-5.577-0.357l-11.249-9.863l-5.543,5.543l9.743,10.853
			c1.114,1.443,1.34,3.393,0.578,5.048c-0.128,0.277-0.253,0.554-0.368,0.835c-0.685,1.677-2.241,2.839-4.043,3.021l-14.62,1.271
			l-0.002,7.837l14.502,1.271c1.898,0.192,3.264,0.467,3.889,2.27c0.145,0.417,0.338,0.805,0.46,1.226
			c0.257,0.878,0.326,3.857-0.774,4.957l-9.365,11.306l5.543,5.543l11.228-9.225c1.46-1.193,2.078-2.278,4.377-1.359
			c0.597,0.239,1.062,0.541,1.504,0.709c1.727,0.659,2.456,2.353,2.646,4.193l1.278,14.388l7.844-0.004L55.111,74.8
			c0.188-1.807,0.995-3.613,2.672-4.292c0.038-0.016,0.148-0.091,0.161-0.079c0,0,0.914-0.308,1.052-0.371
			c0.025-0.012,0.058,0.056,0.084,0.045c1.672-0.726,2.479-0.988,4.145,0.776l11.716,9.617l5.544-5.543L70.87,64.215
			c-0.728-0.896-1.273-2.168-1.267-3.282c0.003-0.447,0.813-2.894,1.032-3.499c0.641-1.774,2.242-2.043,4.119-2.232l14.441-1.274
			l0.002-7.839l-14.209-1.174C73.184,44.733,71.222,43.476,70.537,41.796z M56.925,56.938c-3.831,3.823-10.036,3.822-13.86-0.001
			c-3.827-3.828-3.829-10.036,0.001-13.861c3.824-3.829,10.034-3.826,13.858-0.002C60.751,46.902,60.752,53.111,56.925,56.938z"/>
		<g>
			<path d="M43.066,43.076c-3.83,3.825-3.828,10.033-0.001,13.861c3.825,3.824,10.03,3.824,13.86,0.001
				c3.827-3.828,3.826-10.037-0.001-13.864C53.1,39.25,46.89,39.248,43.066,43.076z"/>
		</g>
		<path d="M94.088,38.05l-11.702-1.464l7.846-9.278c1.582-1.313,1.154-4.939-0.267-6.565L79.345,10.09
			c-1.778-1.778-4.688-2.008-6.636-0.416l-8.701,8.292L62.142,6.109C61.885,3.611,60.149,2,57.638,2h-14.7
			c-2.463,0-4.603,1.666-4.919,4.109l-1.744,11.806l-9.034-8.141c-1.949-1.584-4.85-1.398-6.627,0.378L10.088,20.664
			c-1.742,1.741-2.015,4.593-0.51,6.542l8.567,9.381L5.953,38.055C3.449,38.306,2,40.434,2,42.949V57.65
			c0,2.516,1.449,4.256,3.952,4.508l12.117,1.567l-8.542,9.011c-1.594,1.948-1.294,4.872,0.484,6.651l10.655,10.448
			c1.78,1.779,4.72,2.007,6.667,0.416l9.227-7.612l1.474,11.21C38.292,96.347,40.427,98,42.938,98h14.701
			c2.51,0,4.249-1.653,4.508-4.151l1.568-11.229l8.987,7.924c1.948,1.583,4.853,1.267,6.628-0.509l10.665-10.713
			c1.775-1.776,1.866-4.576,0.283-6.524l-7.945-9.061l11.754-1.574C96.591,61.911,98,60.167,98,57.65v-14.7
			C98,40.434,96.591,38.302,94.088,38.05z M89.195,53.927l-14.441,1.274c-1.877,0.189-3.478,0.458-4.119,2.232
			c-0.218,0.605-1.029,3.052-1.032,3.499c-0.006,1.114,0.539,2.386,1.267,3.282l9.615,10.738l-5.544,5.543l-11.716-9.617
			c-1.666-1.764-2.473-1.502-4.145-0.776c-0.026,0.011-0.059-0.057-0.084-0.045c-0.138,0.062-1.052,0.371-1.052,0.371
			c-0.013-0.013-0.123,0.063-0.161,0.079c-1.677,0.679-2.483,2.485-2.672,4.292l-1.187,14.398l-7.844,0.004l-1.278-14.388
			c-0.19-1.84-0.919-3.534-2.646-4.193c-0.443-0.168-0.907-0.47-1.504-0.709c-2.3-0.919-2.917,0.167-4.377,1.359l-11.228,9.225
			l-5.543-5.543l9.365-11.306c1.1-1.099,1.031-4.079,0.774-4.957c-0.122-0.421-0.315-0.809-0.46-1.226
			c-0.625-1.803-1.991-2.077-3.889-2.27l-14.502-1.271l0.002-7.837l14.62-1.271c1.802-0.181,3.358-1.344,4.043-3.021
			c0.115-0.281,0.239-0.558,0.368-0.835c0.762-1.655,0.536-3.605-0.578-5.048l-9.743-10.853l5.543-5.543l11.249,9.863
			c1.242,1.008,3.87,1.097,5.577,0.357c0.116-0.05,0.898-0.447,1.006-0.509c1.333-0.762,1.744-2.363,1.942-3.886l1.264-14.523
			l7.834-0.006l1.271,14.208c0.193,1.854,0.92,3.559,2.668,4.208c0.281,0.105,0.561,0.269,0.837,0.386
			c1.674,0.708,3.612,0.669,5.02-0.481l11.226-9.616l5.544,5.543l-9.116,11.045c-0.753,0.922-1.694,3.091-1.374,4.478
			c0.102,0.437,0.374,0.802,0.542,1.215c0.685,1.68,2.647,2.937,4.451,3.118l14.209,1.174L89.195,53.927z"/>
	</g>
</g>
</svg>
