<?xml version="1.0" encoding="utf-8"?>
<!-- Generator: Adobe Illustrator 16.0.0, SVG Export Plug-In . SVG Version: 6.00 Build 0)  -->
<!DOCTYPE svg PUBLIC "-//W3C//DTD SVG 1.1//EN" "http://www.w3.org/Graphics/SVG/1.1/DTD/svg11.dtd">
<svg version="1.1" xmlns="http://www.w3.org/2000/svg" xmlns:xlink="http://www.w3.org/1999/xlink" x="0px" y="0px" width="100px"
	 height="100px" viewBox="0 0 100 100" enable-background="new 0 0 100 100" xml:space="preserve">
<g id="Layer_3" display="none">
</g>
<g id="Your_Icon">
</g>
<g id="Layer_4">
	<g>
		<path fill="#211915" d="M18.984,84H44v-0.85V74H18.984c0,0,0.01,0,0.012,0h-0.012c0-13,8.119-21.419,21.006-21.419
			c4.217,0,7.736,1.146,10.996,2.345c0.273,0.102,7.973-6.662,7.676-6.889c-5.236-3.996-11.562-5.727-18.609-5.727
			c-8.893,0-16.912,3.156-22.527,8.916c-5.467,5.609-8.502,13.872-8.523,22.546C9.023,79.276,13.477,84,18.984,84z"/>
		<g>
			<path fill="#211915" d="M39.859,9.5c4.973,0,9,4.256,9,9.5c0,5.248-4.027,9.5-9,9.5c-4.971,0-9-4.252-9-9.5
				C30.859,13.756,34.889,9.5,39.859,9.5 M39.859,0.5c-9.925,0-18,8.299-18,18.5s8.075,18.5,18,18.5s18-8.299,18-18.5
				S49.784,0.5,39.859,0.5L39.859,0.5z"/>
		</g>
	</g>
	<g>
		<path d="M93.274,69.223l-6.401-0.643l4.156-5.11c0.596-0.733,0.537-1.798-0.135-2.467l-5.209-5.205
			c-0.086-0.086-0.18-0.16-0.279-0.228c-0.035-0.023-0.078-0.042-0.115-0.062c-0.064-0.036-0.127-0.076-0.195-0.104
			c-0.047-0.018-0.096-0.03-0.141-0.047c-0.062-0.019-0.125-0.042-0.186-0.057c-0.051-0.008-0.104-0.013-0.156-0.02
			c-0.062-0.009-0.123-0.018-0.186-0.02c-0.061-0.002-0.127,0.003-0.191,0.008c-0.041,0.004-0.084,0.005-0.125,0.012
			c-0.064,0.011-0.135,0.026-0.199,0.045c-0.037,0.012-0.078,0.016-0.115,0.028c-0.07,0.026-0.143,0.059-0.211,0.092
			c-0.029,0.015-0.061,0.025-0.088,0.039c-0.098,0.054-0.191,0.117-0.281,0.188l-5.174,4.228l-0.674-6.385
			C77.273,52.58,76.482,52,75.539,52H68.18c-0.943,0-1.732,0.58-1.828,1.518l-0.648,6.246l-4.879-4.029
			c-0.342-0.277-0.754-0.445-1.16-0.445c-0.475,0-0.945,0.166-1.303,0.523l-5.209,5.197c-0.033,0.035-0.057,0.07-0.09,0.105
			c-0.27,0.316-0.42,0.697-0.443,1.094c-0.006,0.111,0.002,0.24,0.018,0.377c0.047,0.312,0.17,0.618,0.381,0.88l4.123,5.084
			l-6.567,0.673C49.632,69.314,49,70.107,49,71.053v7.359c0,0.945,0.646,1.734,1.585,1.83l6.532,0.661l-4.068,4.956
			c-0.598,0.733-0.553,1.797,0.115,2.465l5.201,5.204c0.088,0.088,0.178,0.164,0.275,0.229c0.037,0.023,0.068,0.039,0.102,0.057
			c0.068,0.039,0.135,0.078,0.205,0.11c0.043,0.016,0.088,0.027,0.131,0.043c0.064,0.021,0.133,0.045,0.199,0.057
			c0.047,0.011,0.094,0.015,0.143,0.021c0.064,0.01,0.133,0.02,0.199,0.021c0.059,0,0.117-0.003,0.178-0.007
			c0.047-0.004,0.092-0.006,0.137-0.013c0.064-0.011,0.129-0.025,0.189-0.043c0.039-0.011,0.082-0.02,0.125-0.03
			c0.068-0.025,0.135-0.057,0.203-0.087c0.031-0.017,0.066-0.028,0.096-0.045c0.098-0.052,0.191-0.115,0.281-0.186l4.902-4.008
			l0.621,6.337C66.447,96.922,67.236,98,68.18,98h7.129c0.119,0,0.23-0.263,0.342-0.284c0.77-0.167,1.379-1.007,1.484-1.81
			l0.818-6.529l4.939,3.986c0.342,0.277,0.75,0.396,1.16,0.396c0.471,0,0.936-0.189,1.293-0.547l5.025-5.047
			c0.328-0.328,0.475-0.75,0.506-1.186c0.027-0.432,0.054-0.875-0.229-1.242L87,80.889v-0.002l6.365-0.645
			C94.309,80.146,95,79.357,95,78.412v-7.359C95,70.107,94.216,69.314,93.274,69.223z M71.859,81.502c-3.859,0-7-3.135-7-7
			s3.141-7,7-7c3.869,0,7,3.135,7,7S75.727,81.502,71.859,81.502z"/>
	</g>
</g>
</svg>
