<?xml version="1.0" encoding="utf-8"?>
<!-- Generator: Adobe Illustrator 16.0.0, SVG Export Plug-In . SVG Version: 6.00 Build 0)  -->
<!DOCTYPE svg PUBLIC "-//W3C//DTD SVG 1.1//EN" "http://www.w3.org/Graphics/SVG/1.1/DTD/svg11.dtd">
<svg version="1.1" xmlns="http://www.w3.org/2000/svg" xmlns:xlink="http://www.w3.org/1999/xlink" x="0px" y="0px" width="100px"
	 height="100px" viewBox="0 0 100 100" enable-background="new 0 0 100 100" xml:space="preserve">
<g id="Layer_3" display="none">
</g>
<g id="Your_Icon">
</g>
<g id="Layer_4">
	<g>
		<polygon fill="none" points="89.004,50.208 88.949,50.074 88.993,50.212 		"/>
		<path fill="none" d="M69.414,49.947c3.884-0.012,8.432-0.025,12.604-0.026c-4.188,0.001-8.759,0.015-12.649,0.026
			c-1.776,0.005-3.465,0.01-4.865,0.014c0.127,2.033,0.898,5.482,2.979,8.654c-2.07-3.172-2.751-6.621-2.878-8.654
			C66.004,49.957,67.638,49.952,69.414,49.947z"/>
		<path fill="none" d="M21.69,63.852c0.649,0.139,1.329,0.223,2.045,0.228L24,69.075l-0.258-4.996
			C23.025,64.074,22.344,63.99,21.69,63.852z"/>
		<path fill="none" d="M24,64.079c3,0,5.833-1.649,8.16-4.904c0.368-0.515,0.685-1.04,0.978-1.568
			c-0.297,0.528-0.616,1.054-0.984,1.568C29.826,62.43,27,64.079,24,64.079z"/>
		<path fill="none" d="M85.705,58.706c-1.646,2.246-4.476,4.89-8.421,5.311c3.959-0.421,6.875-3.064,8.521-5.311
			c2.35-3.205,3.3-6.573,3.529-8.612l-0.048,0.017C89.055,52.151,88.049,55.51,85.705,58.706z"/>
		<path d="M96.574,41.748l-6.378-17.463C89.477,22.312,87.6,21,85.5,21H68v10h14.003l3.259,8.923
			c-0.878-0.001-1.812-0.002-2.816-0.002c-4.299,0-9.033,0.014-13.055,0.026c-2.958,0.009-5.529,0.017-7.253,0.017
			c-0.237,0-0.476,0.013-0.712,0.036H38.574c-0.236-0.023-0.475-0.036-0.712-0.036c-1.724,0-4.295-0.008-7.253-0.017
			c-4.021-0.013-8.756-0.026-13.055-0.026c-0.997,0-1.924,0.001-2.795,0.002L18.743,31H32V21H15.5c-1.973,0-3.762,1.16-4.565,2.962
			L2.598,42.636c-1.213,1.518-2.004,3.659-1.993,6.583C0.64,58.076,8.31,74,23.467,74c0.011,0,0.111,0,0.121,0
			c14.24,0,21.52-15.087,21.795-24h9.234c0.275,8.913,7.555,24,21.795,24c0.01,0,0.11,0,0.121,0
			C91.69,74,99.36,58.076,99.396,49.219C99.409,45.672,98.248,43.245,96.574,41.748z M33.138,57.606
			c-0.293,0.528-0.609,1.015-0.978,1.528C29.833,62.391,27,64,24,64h-0.265c-0.716,0-1.396-0.049-2.045-0.188
			c-3.412-0.725-5.896-3.08-7.396-5.126c-2.406-3.282-3.406-6.735-3.605-8.757c2.007-0.014,4.41-0.015,6.966-0.015
			c0.854,0,1.726,0.003,2.604,0.005c3.512,0.004,7.151,0.017,10.345,0.026c1.776,0.005,3.401,0.01,4.801,0.014
			C35.291,51.779,34.733,54.733,33.138,57.606z M85.806,58.706c-1.646,2.246-4.562,4.851-8.521,5.271
			C76.95,64.012,76.611,64,76.263,64H76c-3,0-5.826-1.609-8.153-4.865c-0.132-0.184-0.241-0.353-0.364-0.539
			c-2.08-3.172-2.852-6.611-2.979-8.645c1.4-0.004,3.089-0.004,4.865-0.009c3.891-0.012,8.461-0.022,12.649-0.024
			c2.503,0,4.87,0.006,6.874,0.018l0.057,0.138l0.055,0.135l0.002,0.004l0.281-0.102l0.048-0.017
			C89.105,52.133,88.155,55.501,85.806,58.706z"/>
	</g>
</g>
</svg>
