<?xml version="1.0" encoding="utf-8"?>
<!-- Generator: Adobe Illustrator 16.0.0, SVG Export Plug-In . SVG Version: 6.00 Build 0)  -->
<!DOCTYPE svg PUBLIC "-//W3C//DTD SVG 1.1//EN" "http://www.w3.org/Graphics/SVG/1.1/DTD/svg11.dtd">
<svg version="1.1" xmlns="http://www.w3.org/2000/svg" xmlns:xlink="http://www.w3.org/1999/xlink" x="0px" y="0px" width="100px"
	 height="100px" viewBox="0 0 100 100" enable-background="new 0 0 100 100" xml:space="preserve">
<g id="Layer_3" display="none">
</g>
<g id="Your_Icon">
</g>
<g id="Layer_4">
	<g>
		<path fill="none" d="M49.976,22c-5.075,0-10.214,1.381-14.833,4.273c-13.107,8.207-17.078,25.48-8.867,38.587
			C31.588,73.345,40.702,78,50.027,78c5.074,0,10.213-1.38,14.831-4.272c13.107-8.206,17.073-25.485,8.871-38.582
			C68.415,26.655,59.3,22,49.976,22z M62.446,60.854L47.57,56.494C45.439,55.871,44,53.916,44,51.695V28h10v19.948l11.279,3.307
			L62.446,60.854z"/>
		<path fill="#211915" d="M82.205,29.838C75.213,18.669,63.165,12,49.978,12h-0.003c-7.12,0.001-14.084,2.006-20.14,5.799
			c-8.603,5.386-14.593,13.8-16.866,23.691c-2.273,9.891-0.558,20.076,4.832,28.679C24.791,81.333,36.839,88,50.027,88
			c7.119,0,14.084-2.005,20.139-5.798c8.602-5.385,14.592-13.799,16.865-23.692C89.304,48.619,87.59,38.437,82.205,29.838z
			 M64.858,73.728C60.24,76.62,55.102,78,50.027,78c-9.325,0-18.439-4.655-23.752-13.14c-8.211-13.106-4.24-30.38,8.867-38.587
			C39.762,23.381,44.9,22,49.976,22c9.324,0,18.439,4.655,23.754,13.146C81.932,48.242,77.966,65.521,64.858,73.728z"/>
		<path d="M54,28H44v23.695c0,2.221,1.439,4.176,3.57,4.799l14.889,4.359l2.826-9.599L54,47.948V28z"/>
	</g>
</g>
</svg>
