<?xml version="1.0" encoding="utf-8"?>
<!-- Generator: Adobe Illustrator 16.0.0, SVG Export Plug-In . SVG Version: 6.00 Build 0)  -->
<!DOCTYPE svg PUBLIC "-//W3C//DTD SVG 1.1//EN" "http://www.w3.org/Graphics/SVG/1.1/DTD/svg11.dtd">
<svg version="1.1" xmlns="http://www.w3.org/2000/svg" xmlns:xlink="http://www.w3.org/1999/xlink" x="0px" y="0px" width="100px"
	 height="100px" viewBox="0 0 100 100" enable-background="new 0 0 100 100" xml:space="preserve">
<g id="Layer_3" display="none">
</g>
<g id="Your_Icon">
</g>
<g id="Layer_4">
	<g>
		<path fill="#FFFFFF" d="M15.729,55H25.5c2.762,0,4.5,1.828,4.5,4.59v30.39l38,0.019V59.59c0-2.762,2.738-4.59,5.5-4.59h10.606
			l-34.61-41.703L15.729,55z"/>
		<path d="M98.602,56.396L53.296,1.807C52.346,0.662,50.936,0,49.448,0c-0.01,0-0.021,0-0.03,0
			c-1.498,0.009-2.913,0.689-3.855,1.854L1.36,56.443c-1.213,1.498-1.457,3.765-0.627,5.504C1.563,63.688,3.318,65,5.246,65H20
			v29.978c0,2.761,2.487,4.999,5.248,5L73.498,100H73.5c1.325,0,2.347-0.526,3.285-1.464C77.723,97.599,78,96.326,78,95V65h16.754
			c1.938,0,3.702-1.325,4.525-3.08C100.104,60.166,99.839,57.888,98.602,56.396z M73.5,55c-2.762,0-5.5,1.828-5.5,4.59v30.408
			l-38-0.019V59.59c0-2.762-1.738-4.59-4.5-4.59h-9.771l33.768-41.703L84.106,55H73.5z"/>
	</g>
</g>
</svg>
