<?xml version="1.0" encoding="utf-8"?>
<!-- Generator: Adobe Illustrator 16.0.0, SVG Export Plug-In . SVG Version: 6.00 Build 0)  -->
<!DOCTYPE svg PUBLIC "-//W3C//DTD SVG 1.1//EN" "http://www.w3.org/Graphics/SVG/1.1/DTD/svg11.dtd">
<svg version="1.1" xmlns="http://www.w3.org/2000/svg" xmlns:xlink="http://www.w3.org/1999/xlink" x="0px" y="0px" width="100px"
	 height="100px" viewBox="0 0 100 100" enable-background="new 0 0 100 100" xml:space="preserve">
<g id="Layer_3" display="none">
</g>
<g id="Your_Icon">
</g>
<g id="Layer_4">
	<g>
		<path fill="none" d="M28.872,35.672c0.744,0.915,1.125,2.042,1.12,3.179C29.997,37.714,29.615,36.586,28.872,35.672z"/>
		<path fill="none" d="M29.607,59.631c-0.199-0.412-0.39-0.826-0.561-1.247c-0.699-1.714-2.287-2.902-4.129-3.088L10,53.793
			l14.917,1.504c1.842,0.186,3.43,1.374,4.129,3.088c0.171,0.421,0.362,0.836,0.561,1.248c0.316,0.656,0.48,1.359,0.496,2.061
			C30.088,60.992,29.924,60.288,29.607,59.631z"/>
		<path fill="none" d="M41.978,71.083c-0.288-0.107-0.574-0.214-0.856-0.333c-1.708-0.722-3.676-0.442-5.112,0.732l-11.612,9.485
			l-4.67-4.67l-0.003,0.004l4.673,4.681l11.612-9.47c1.437-1.174,3.405-1.424,5.112-0.702c0.282,0.12,0.568,0.288,0.856,0.395
			c1.783,0.663,3.036,2.402,3.232,4.295C45.014,73.607,43.761,71.745,41.978,71.083z"/>
		<path fill="none" d="M57.999,29.085c0.452,0.172,0.939,0.383,1.535,0.663c1.743,0.819,3.799,0.563,5.29-0.653l11.47-9.37
			l4.67,4.669l0.003-0.004l-4.673-4.68l-11.47,9.354c-1.491,1.217-3.547,1.441-5.29,0.623c-0.595-0.28-1.083-0.551-1.535-0.724
			c-1.763-0.673-2.996-2.403-3.19-4.279C55.003,26.561,56.236,28.413,57.999,29.085z"/>
		<polygon fill="none" points="19.717,24.406 28.872,35.672 19.717,24.406 		"/>
		<path fill="none" d="M71.227,42.38c-0.147-0.425-0.304-0.848-0.478-1.261c-0.271-0.64-0.401-1.316-0.396-1.988
			c-0.005,0.672,0.124,1.35,0.396,1.99C70.923,41.534,71.08,41.956,71.227,42.38c0.638,1.84,2.286,3.142,4.223,3.337L90,47.184
			l-14.55-1.467C73.513,45.521,71.865,44.219,71.227,42.38z"/>
		<path fill="#FFFFFF" d="M71.227,42.381c-0.147-0.425-0.304-0.847-0.478-1.26c-0.271-0.641-0.401-1.318-0.396-1.99
			c0.009-1.121,0.395-2.227,1.128-3.125l9.482-11.611l-4.67-4.669l-11.47,9.37c-1.491,1.217-3.547,1.472-5.29,0.653
			c-0.595-0.28-1.083-0.49-1.535-0.663c-1.763-0.673-2.996-2.525-3.19-4.401L53.316,10h-6.633l-1.492,14.684
			c-0.191,1.844-1.385,3.671-3.096,4.364c-0.04,0.016-0.08,0.032-0.121,0.047v0l-0.65,0.269c-0.144,0.059-0.289,0.116-0.429,0.179
			c-0.027,0.012-0.054,0.024-0.081,0.036c-1.705,0.74-3.688,0.474-5.142-0.707l-11.266-9.156l-4.69,4.689l9.155,11.266
			c0.744,0.914,1.125,2.042,1.12,3.179c-0.002,0.455-0.066,0.912-0.195,1.357c-0.064,0.222-0.144,0.442-0.24,0.657
			c-0.198,0.443-0.395,0.938-0.618,1.556c-0.653,1.811-2.287,3.085-4.202,3.278L10,47.184v6.609l14.917,1.504
			c1.842,0.186,3.43,1.374,4.129,3.088c0.171,0.421,0.362,0.835,0.561,1.247c0.317,0.657,0.48,1.36,0.496,2.062
			c0.026,1.17-0.358,2.337-1.126,3.278l-9.249,11.324l4.67,4.67l11.612-9.485c1.437-1.174,3.405-1.455,5.112-0.732
			c0.282,0.12,0.568,0.227,0.856,0.333c1.783,0.663,3.036,2.524,3.232,4.417L46.684,90h6.258l1.882-14.811
			c0.201-1.554,1.118-3.167,2.479-3.945c0.11-0.063,0.227-0.124,0.345-0.18c0.119-0.057,0.239-0.108,0.362-0.156
			c0.12-0.046,0.238-0.097,0.356-0.146l0.457-0.189c0.095-0.039,0.19-0.076,0.283-0.118c0.093-0.042,0.188-0.081,0.283-0.117
			c0.136-0.052,0.276-0.099,0.414-0.138c1.571-0.45,3.26-0.102,4.527,0.927l11.266,9.156l4.425-4.425l-8.855-11.482
			c-1.136-1.473-1.36-3.456-0.582-5.146c0.129-0.281,0.257-0.564,0.374-0.851c0.7-1.711,2.287-2.897,4.127-3.083L90,53.793v-6.609
			l-14.55-1.467C73.513,45.522,71.865,44.22,71.227,42.381z M50.998,60.901c-5.521-0.005-9.998-4.483-9.998-10
			c0-5.523,4.478-10.002,10-10c5.521-0.004,10,4.478,10,9.997C61,56.421,56.521,60.901,50.998,60.901z"/>
		<g>
			<path d="M95.501,37.688l-11.529-1.162l7.599-9.303c1.625-1.988,1.479-4.883-0.336-6.699L80.167,9.457
				c-1.816-1.815-4.711-1.961-6.699-0.336l-9.443,7.714L62.8,4.73C62.536,2.181,60.389,0,57.826,0H42.174
				c-2.562,0-4.71,2.181-4.974,4.73l-1.168,11.426l-8.818-7.105c-1.988-1.615-4.876-1.438-6.688,0.375L9.457,20.509
				c-1.812,1.812-1.961,4.708-0.345,6.696l7.519,9.256L4.499,37.686C1.944,37.943,0,40.095,0,42.662v15.652
				c0,2.567,1.944,4.717,4.499,4.975l11.953,1.205L9.12,73.467c-1.624,1.988-1.479,4.884,0.336,6.699l11.067,11.068
				c1.814,1.816,4.711,1.96,6.699,0.337l8.872-7.247L37.2,95.27c0.264,2.549,2.411,4.73,4.974,4.73h15.163
				c2.514,0,4.637-2.11,4.959-4.604l1.496-11.697l8.996,7.25c1.989,1.616,4.876,1.437,6.689-0.376l10.722-10.738
				c1.777-1.777,1.959-4.605,0.424-6.596l-6.763-8.773l11.643-1.176c2.554-0.257,4.499-2.409,4.499-4.977V42.662
				C100,40.095,98.056,37.945,95.501,37.688z M90,53.793l-14.917,1.504c-1.84,0.185-3.427,1.371-4.127,3.083
				c-0.117,0.286-0.244,0.569-0.374,0.851c-0.779,1.69-0.555,3.672,0.582,5.146l8.855,11.482l-4.425,4.425l-11.266-9.156
				c-1.267-1.029-2.956-1.377-4.527-0.927c-0.137,0.039-0.277,0.086-0.414,0.138c-0.096,0.036-0.19,0.075-0.283,0.117
				c-0.093,0.042-0.188,0.08-0.283,0.118l-0.457,0.189c-0.118,0.05-0.236,0.101-0.356,0.146c-0.123,0.047-0.243,0.099-0.362,0.156
				c-0.118,0.056-0.235,0.117-0.345,0.18c-1.36,0.777-2.277,2.391-2.479,3.945L52.941,90h-6.258L45.21,75.5
				c-0.196-1.893-1.449-3.632-3.232-4.295c-0.288-0.107-0.574-0.275-0.856-0.395c-1.708-0.722-3.676-0.472-5.112,0.702l-11.612,9.47
				l-4.673-4.681l0.003-0.004l9.249-11.324c0.769-0.941,1.153-2.108,1.126-3.278c-0.016-0.702-0.179-1.404-0.496-2.061
				c-0.199-0.412-0.39-0.827-0.561-1.248c-0.699-1.714-2.287-2.903-4.129-3.088L10,53.793v-6.609l14.736-1.484
				c1.915-0.193,3.549-1.467,4.202-3.278c0.223-0.618,0.419-1.113,0.618-1.556c0.096-0.215,0.176-0.435,0.24-0.657
				c0.128-0.445,0.193-0.902,0.195-1.357c0.006-1.137-0.376-2.265-1.12-3.179l-9.155-11.266l4.69-4.689l11.266,9.156
				c1.454,1.181,3.437,1.447,5.142,0.707c0.027-0.012,0.054-0.023,0.081-0.036c0.141-0.063,0.285-0.121,0.429-0.179l0.65-0.269v0
				c0.041-0.015,0.081-0.031,0.121-0.047c1.711-0.693,2.905-2.52,3.096-4.364L46.684,10h6.633l1.492,14.684
				c0.194,1.876,1.428,3.606,3.19,4.279c0.452,0.172,0.939,0.444,1.535,0.724c1.743,0.819,3.799,0.594,5.29-0.623l11.47-9.354
				l4.673,4.68l-0.003,0.004l-9.482,11.611c-0.733,0.898-1.119,2.004-1.128,3.125c-0.005,0.672,0.125,1.349,0.396,1.988
				c0.174,0.413,0.331,0.836,0.478,1.261c0.638,1.839,2.286,3.142,4.223,3.336L90,47.184V53.793z"/>
		</g>
		<g>
			<path d="M51,40.901c-5.522-0.002-10,4.477-10,10c0,5.518,4.477,9.995,9.998,10c5.523,0,10.002-4.48,10.002-10.003
				C61,45.379,56.521,40.897,51,40.901z"/>
		</g>
	</g>
</g>
</svg>
