<?xml version="1.0" encoding="utf-8"?>
<!-- Generator: Adobe Illustrator 16.0.0, SVG Export Plug-In . SVG Version: 6.00 Build 0)  -->
<!DOCTYPE svg PUBLIC "-//W3C//DTD SVG 1.1//EN" "http://www.w3.org/Graphics/SVG/1.1/DTD/svg11.dtd">
<svg version="1.1" xmlns="http://www.w3.org/2000/svg" xmlns:xlink="http://www.w3.org/1999/xlink" x="0px" y="0px" width="100px"
	 height="100px" viewBox="0 0 100 100" enable-background="new 0 0 100 100" xml:space="preserve">
<g id="Layer_3" display="none">
</g>
<g id="Your_Icon">
</g>
<g id="Layer_4">
	<g>
		<path fill="none" d="M42,83H17.25c-5.509,0-9.977-4.424-9.998-9.927c0,0.031-0.002-0.071-0.002-0.04c0,5.521,4.478,9.967,10,9.967
			H42L42,83z"/>
		<path fill="none" d="M38.255,51.83C25.369,51.83,17.25,60,17.25,73h0.011c0.112-12.842,8.198-20.904,20.994-20.904
			c10.274,0,17.498,5.207,20.009,13.904h0.084C55.909,57.14,48.636,51.83,38.255,51.83z"/>
		<path fill="none" d="M32.224,63h12.058c-1.61-1-3.617-1.17-6.026-1.17C35.843,61.83,33.835,62,32.224,63z"/>
		<ellipse fill="none" cx="38.347" cy="17.883" rx="9.093" ry="9.648"/>
		<path fill="#211915" d="M17.25,83H42v-0.234V73H17.25c0,0,0.01,0.09,0.011,0H17.25c0-13,8.119-21.17,21.005-21.17
			c10.381,0,17.654,5.31,20.093,14.17h10.185c-1.191-5.867-3.85-11.13-7.785-15.17c-5.612-5.762-13.6-8.936-22.492-8.936
			s-16.881,3.172-22.496,8.932c-5.467,5.61-8.485,13.572-8.507,22.247C7.273,78.576,11.741,83,17.25,83z"/>
		<path fill="#211915" d="M47.404,32.823c4.816-3.125,8.035-8.645,8.035-14.94c0-9.73-7.668-17.648-17.093-17.648
			c-9.424,0-17.091,7.918-17.091,17.648c0,6.275,3.197,11.78,7.987,14.91c2.64,1.725,5.756,2.738,9.104,2.738
			C41.675,35.531,44.774,34.528,47.404,32.823z M38.347,8.234c5.023,0,9.093,4.322,9.093,9.648c0,5.33-4.069,9.648-9.093,9.648
			c-5.021,0-9.091-4.318-9.091-9.648C29.256,12.557,33.325,8.234,38.347,8.234z"/>
		<polygon fill="#211915" points="47,71 47,83 59.25,83 93,83 93,71 		"/>
		<path fill="#FFFFFF" d="M32.224,63c1.611-1,3.619-1.17,6.031-1.17c2.409,0,4.416,0.17,6.026,1.17H32.224z"/>
	</g>
</g>
</svg>
