<?xml version="1.0" encoding="utf-8"?>
<!-- Generator: Adobe Illustrator 16.0.0, SVG Export Plug-In . SVG Version: 6.00 Build 0)  -->
<!DOCTYPE svg PUBLIC "-//W3C//DTD SVG 1.1//EN" "http://www.w3.org/Graphics/SVG/1.1/DTD/svg11.dtd">
<svg version="1.1" xmlns="http://www.w3.org/2000/svg" xmlns:xlink="http://www.w3.org/1999/xlink" x="0px" y="0px" width="100px"
	 height="100px" viewBox="0 0 100 100" enable-background="new 0 0 100 100" xml:space="preserve">
<g id="Layer_3" display="none">
</g>
<g id="Your_Icon">
</g>
<g id="Layer_4">
	<g>
		<path fill="#211915" d="M34.065,80.069c-2.846,2.846-7.38,2.95-10.348,0.248c-0.227-0.224-1.042-1.041-1.561-1.562l-0.46-0.461
			c-0.11-0.11-1.783-1.787-1.977-1.987c-2.741-2.966-2.649-7.529,0.21-10.388l13.081-13.081l-7.07-7.071L12.858,58.849
			c-6.671,6.67-6.883,17.321-0.491,24.236c0.23,0.251,2.238,2.261,2.271,2.293l0.437,0.438c0.643,0.646,1.698,1.699,1.813,1.807
			c3.371,3.115,7.623,4.664,11.871,4.664c4.479,0,8.953-1.723,12.376-5.147l13.082-13.08l-7.07-7.071L34.065,80.069z"/>
		
			<rect x="45.01" y="27.983" transform="matrix(0.7071 0.7071 -0.7071 0.7071 49.9908 -20.7226)" fill="#211915" width="10" height="44"/>
		<path fill="#211915" d="M87.651,16.922c-0.117-0.129-0.176-0.194-2.085-2.094l-0.202-0.201c-2.069-2.068-2.238-2.222-2.27-2.25
			c-6.924-6.401-17.575-6.19-24.246,0.482L45.766,25.94l7.071,7.071L65.92,19.93c2.838-2.841,7.359-2.951,10.365-0.229
			c0.324,0.315,1.901,1.891,2.008,1.998l0.218,0.217c0.473,0.472,1.606,1.598,1.767,1.763c2.742,2.965,2.65,7.527-0.208,10.386
			L66.989,47.147l7.071,7.07l13.081-13.083C93.812,34.463,94.023,23.813,87.651,16.922z"/>
	</g>
</g>
</svg>
