<?xml version="1.0" encoding="utf-8"?>
<!-- Generator: Adobe Illustrator 16.0.0, SVG Export Plug-In . SVG Version: 6.00 Build 0)  -->
<!DOCTYPE svg PUBLIC "-//W3C//DTD SVG 1.1//EN" "http://www.w3.org/Graphics/SVG/1.1/DTD/svg11.dtd">
<svg version="1.1" xmlns="http://www.w3.org/2000/svg" xmlns:xlink="http://www.w3.org/1999/xlink" x="0px" y="0px" width="100px"
	 height="100px" viewBox="0 0 100 100" enable-background="new 0 0 100 100" xml:space="preserve">
<g id="Layer_3" display="none">
</g>
<g id="Your_Icon">
</g>
<g id="Layer_4">
	<g>
		<path d="M85.278,32.023l2.646-2.648c4.654-4.654,4.801-12.084,0.325-16.925c-0.061-0.065-0.928-0.935-1.25-1.257L86.9,11.096
			c-0.076-0.075-1.279-1.272-1.37-1.357C83.27,7.65,80.328,6.5,77.247,6.5c-3.26,0-6.325,1.269-8.637,3.578l-2.646,2.649
			c-0.637,0.638-1.033,1.409-1.253,2.221C60.132,13.035,55,12,50,12v10V12h-0.025h-0.002c-5.395,0.001-10.698,1.157-15.585,3.363
			c-0.163-0.706-0.508-1.379-1.058-1.929l-2.651-2.654c-2.118-2.115-4.933-3.28-7.925-3.28c-2.829,0-5.53,1.056-7.616,2.982
			c-0.076,0.071-1.256,1.246-1.331,1.32l-0.104,0.103c-0.319,0.319-1.161,1.162-1.228,1.233c-4.101,4.436-3.966,11.257,0.308,15.53
			l2.646,2.648c0.318,0.319,0.692,0.564,1.09,0.758c-6.197,11.623-6.199,26.154,1.28,38.095c2.936,4.688,6.771,8.57,11.201,11.512
			V99h10V86.371C42.521,87.429,46.224,88,50.029,88c3.738,0,7.428-0.566,10.971-1.64V99h10V81.652
			c16.085-10.666,21.508-31.694,12.953-48.701C84.436,32.711,84.891,32.412,85.278,32.023z M64.86,73.729
			C60.241,76.62,55.104,78,50.029,78c-9.326,0-18.442-4.656-23.754-13.138c-8.21-13.108-4.236-30.383,8.866-38.59
			c4.619-2.892,9.758-4.271,14.833-4.272c9.326,0,18.441,4.655,23.757,13.143C81.933,48.243,77.963,65.522,64.86,73.729z"/>
		<path d="M54,28H44v23.695c0,2.221,1.439,4.175,3.571,4.799l14.887,4.359l2.826-9.598L54,47.948V28z"/>
	</g>
</g>
</svg>
