<?xml version="1.0" encoding="utf-8"?>
<!-- Generator: Adobe Illustrator 16.0.0, SVG Export Plug-In . SVG Version: 6.00 Build 0)  -->
<!DOCTYPE svg PUBLIC "-//W3C//DTD SVG 1.1//EN" "http://www.w3.org/Graphics/SVG/1.1/DTD/svg11.dtd">
<svg version="1.1" xmlns="http://www.w3.org/2000/svg" xmlns:xlink="http://www.w3.org/1999/xlink" x="0px" y="0px" width="100px"
	 height="100px" viewBox="0 0 100 100" enable-background="new 0 0 100 100" xml:space="preserve">
<g id="Layer_3" display="none">
</g>
<g id="Your_Icon">
</g>
<g id="Layer_4">
	<g>
		<path fill="none" d="M28,71.547V83h44V71.56c-1.704-2.73-11.45-9.615-22.003-15.59C39.434,61.935,29.687,68.817,28,71.547z"/>
		<path fill="none" d="M28,27.103c1.686,2.73,11.434,9.613,21.996,15.578C60.552,36.702,70.297,29.817,72,27.09V16H28V27.103z"/>
		<path d="M82,27.68V4.9C82,2.139,79.761,0,77,0H23c-2.761,0-5,2.139-5,4.9v22.78c0,2.057,0.02,8.007,23.452,21.645
			C18.02,62.963,18,68.913,18,70.97V94.8c0,2.761,2.239,5.2,5,5.2h54c2.761,0,5-2.439,5-5.2V70.97c0-2.045-0.019-7.962-23.47-21.645
			C81.981,35.642,82,29.725,82,27.68z M72,71.56V83H28V71.547c1.687-2.73,11.434-9.613,21.997-15.578
			C60.55,61.945,70.296,68.83,72,71.56z M72,27.09c-1.703,2.727-11.448,9.612-22.004,15.59C39.434,36.715,29.686,29.833,28,27.103
			V16h44V27.09z"/>
	</g>
</g>
</svg>
