<?xml version="1.0" encoding="utf-8"?>
<!-- Generator: Adobe Illustrator 16.0.0, SVG Export Plug-In . SVG Version: 6.00 Build 0)  -->
<!DOCTYPE svg PUBLIC "-//W3C//DTD SVG 1.1//EN" "http://www.w3.org/Graphics/SVG/1.1/DTD/svg11.dtd">
<svg version="1.1" xmlns="http://www.w3.org/2000/svg" xmlns:xlink="http://www.w3.org/1999/xlink" x="0px" y="0px" width="100px"
	 height="100px" viewBox="0 0 100 100" enable-background="new 0 0 100 100" xml:space="preserve">
<g id="Layer_3" display="none">
</g>
<g id="Your_Icon">
</g>
<g id="Layer_4">
	<g>
		<path fill="none" d="M31.495,19.369c-0.065-0.007-0.13-0.013-0.194-0.019C31.365,19.356,31.43,19.363,31.495,19.369
			c0.827,0.086,1.663,0.187,2.505,0.308c-0.842-0.121-1.678-0.219-2.505-0.304c-0.065-0.007-0.13-0.009-0.194-0.015
			c-0.767-0.077-1.525-0.134-2.273-0.183c-0.089-0.006-0.178,0.003-0.267-0.003c-0.729-0.046-1.448-0.073-2.155-0.073
			c-0.03,0-0.06,0-0.09,0c0.03,0,0.06-0.036,0.09-0.035c0.707,0.023,1.426,0.034,2.155,0.08c-0.729-0.046-1.448-0.079-2.155-0.103
			c-0.03-0.001-0.06,0.007-0.09,0.014c-0.056,0.002-0.112,0.004-0.168,0.003c-0.714-0.021-1.416-0.006-2.104-0.007
			c-0.037,0-0.077,0.048-0.115,0.048c-0.036,0-0.071,0-0.107,0c-0.148,0-0.294-0.008-0.441-0.015l-0.873-0.022
			c-0.093,0.002-0.183-0.047-0.274-0.045c-0.357,0.008-0.71,0.017-1.057,0.029c-0.106,0.003-0.213,0.004-0.318,0.008
			c-0.412,0.016-0.818,0.027-1.214,0.049c-0.06,0.003-0.117-0.005-0.177-0.002c-0.347,0.02-0.687,0.017-1.02,0.039
			c-0.101,0.007-0.2-0.035-0.299-0.029c-0.374,0.027-0.743-0.012-1.098-0.012l-0.769,0.143c-0.096,0.023-0.19,0.043-0.285,0.053
			c-0.082,0.008-0.163,0.114-0.244,0.123c-0.3,0.03-0.591,0.061-0.871,0.093c-0.033,0.004-0.067,0.007-0.1,0.011
			c-0.309,0.035-0.604,0.07-0.887,0.106c-0.069,0.009-0.136,0.018-0.203,0.026c-0.236,0.03-0.464,0.061-0.681,0.09
			c-0.043,0.006-0.087,0.012-0.129,0.018c-0.251,0.035-0.487,0.07-0.71,0.104c-0.048,0.007-0.092,0.014-0.139,0.021
			c-0.188,0.029-0.367,0.058-0.533,0.084c-0.032,0.005-0.065,0.011-0.097,0.016c-0.188,0.03-0.362,0.06-0.519,0.087
			c-0.029,0.005-0.053,0.01-0.081,0.015c-0.128,0.022-0.247,0.043-0.352,0.062c-0.029,0.005-0.056,0.011-0.083,0.016
			c-0.11,0.021-0.211,0.039-0.289,0.054c-0.017,0.004-0.025,0.005-0.04,0.008c-0.063,0.013-0.117,0.023-0.155,0.031
			c-0.017,0.003-0.022,0.005-0.034,0.007C10.026,20.27,10,20.275,10,20.275v50c0,0,0.014-0.002,0.036-0.004
			c0.035-0.005,0.104-0.013,0.192-0.021c0.026-0.003,0.052-0.006,0.082-0.009c0.042-0.005,0.092-0.01,0.142-0.015
			c0.026-0.003,0.052-0.006,0.081-0.009c0.059-0.006,0.124-0.012,0.192-0.019c0.037-0.003,0.074-0.007,0.114-0.011
			c0.064-0.006,0.132-0.012,0.203-0.019c0.051-0.004,0.104-0.009,0.159-0.014c0.08-0.007,0.164-0.014,0.251-0.021
			c0.051-0.004,0.102-0.008,0.154-0.012c0.097-0.008,0.196-0.016,0.301-0.023c0.056-0.004,0.114-0.009,0.173-0.013
			c0.11-0.008,0.222-0.016,0.339-0.024c0.06-0.004,0.122-0.008,0.184-0.012c0.122-0.008,0.245-0.015,0.374-0.022
			c0.067-0.004,0.138-0.008,0.207-0.012c0.135-0.008,0.27-0.014,0.412-0.021c0.059-0.004,0.121-0.004,0.181-0.007
			c0.162-0.008,0.324-0.008,0.495-0.016c0.021-0.001,0.043,0.012,0.064,0.011c0.83-0.037,1.763-0.036,2.78-0.05
			c0.064-0.001,0.127,0.056,0.192,0.054l1.204-0.002c0.468,0,0.947-0.112,1.443-0.104c0.062,0.001,0.127,0.003,0.189,0.004
			c0.492,0.01,0.998,0.023,1.515,0.042c0.058,0.002,0.112,0.003,0.17,0.006c0.535,0.02,1.086,0.047,1.645,0.078
			c0.092,0.005,0.183,0.01,0.275,0.015c0.548,0.032,1.106,0.071,1.673,0.116c0.107,0.008,0.214,0.017,0.321,0.025
			c0.567,0.046,1.143,0.1,1.725,0.159c0.108,0.011,0.218,0.022,0.327,0.034c0.592,0.063,1.191,0.134,1.797,0.212
			c0.096,0.012,0.191,0.025,0.287,0.038c0.626,0.083,1.256,0.174,1.893,0.274c0.066,0.011,0.134,0.022,0.2,0.033
			c0.671,0.109,1.347,0.226,2.026,0.355c0.955,0.183,6.655,4.178,11,7.086V22.939c-4.246-1.295-9.778-3.089-11-3.264
			C33.158,19.555,32.322,19.454,31.495,19.369z"/>
		<path fill="none" d="M68.014,70.919c0.069-0.012,0.139-0.024,0.208-0.035c0.63-0.101,1.253-0.191,1.872-0.274
			c0.102-0.014,0.204-0.028,0.307-0.042c0.598-0.078,1.189-0.147,1.775-0.211c0.115-0.013,0.229-0.024,0.344-0.036
			c0.574-0.06,1.142-0.113,1.701-0.158c0.115-0.01,0.229-0.019,0.343-0.027c0.56-0.044,1.111-0.082,1.652-0.115
			c0.096-0.005,0.188-0.008,0.283-0.014c0.544-0.03,1.081-0.053,1.604-0.073c0.065-0.002,0.13,0.003,0.194,0.001
			c0.5-0.018,0.987-0.017,1.464-0.025c0.087-0.002,0.176,0.025,0.263,0.024c0.477-0.009,0.938,0.049,1.39,0.048l0.384,0.119
			c0.101,0,0.2-0.119,0.3-0.119c0.19,0.002,0.38-0.118,0.564-0.116c0.115,0.001,0.226,0.003,0.339,0.005
			c0.165,0.003,0.332,0.005,0.493,0.009c0.143,0.003,0.278,0.006,0.417,0.01c0.126,0.003,0.255,0.006,0.377,0.01
			c0.259,0.008,0.511,0.016,0.755,0.025c0.048,0.002,0.091,0.004,0.138,0.006c0.198,0.008,0.395,0.016,0.582,0.024
			c0.074,0.004,0.145,0.008,0.217,0.011c0.158,0.008,0.315,0.016,0.465,0.024c0.064,0.003,0.124,0.007,0.187,0.011
			c0.15,0.009,0.299,0.017,0.439,0.025c0.062,0.004,0.12,0.008,0.18,0.012c0.134,0.009,0.266,0.018,0.391,0.026
			c0.056,0.004,0.109,0.008,0.163,0.012c0.124,0.01,0.244,0.019,0.358,0.027c0.047,0.004,0.092,0.007,0.137,0.011
			c0.108,0.009,0.213,0.017,0.312,0.025c0.047,0.004,0.092,0.008,0.136,0.012c0.094,0.008,0.182,0.017,0.266,0.023
			c0.036,0.004,0.072,0.007,0.106,0.01c0.078,0.008,0.151,0.015,0.22,0.021c0.033,0.003,0.067,0.007,0.099,0.01
			c0.061,0.006,0.115,0.012,0.166,0.018c0.027,0.002,0.055,0.005,0.079,0.008c0.043,0.005,0.079,0.009,0.113,0.013
			c0.024,0.002,0.049,0.005,0.068,0.007c0.026,0.003,0.045,0.006,0.063,0.008c0.014,0.002,0.029,0.003,0.039,0.005
			C89.986,70.273,90,70.275,90,70.275v-50c0,0-0.025-0.005-0.052-0.01c-0.012-0.002-0.019-0.003-0.035-0.006
			c-0.035-0.007-0.087-0.016-0.144-0.026c-0.019-0.003-0.03-0.005-0.052-0.009c-0.078-0.014-0.177-0.03-0.286-0.049
			c-0.027-0.005-0.057-0.01-0.086-0.015c-0.101-0.017-0.213-0.034-0.336-0.054c-0.031-0.005-0.06-0.01-0.093-0.015
			c-0.156-0.024-0.328-0.051-0.516-0.079c-0.028-0.004-0.06-0.008-0.089-0.013c-0.166-0.024-0.345-0.05-0.533-0.075
			c-0.047-0.007-0.091-0.013-0.139-0.02c-0.228-0.03-0.468-0.062-0.725-0.095c-0.016-0.002-0.032-0.004-0.048-0.006
			c-0.237-0.03-0.488-0.061-0.748-0.09c-0.062-0.008-0.124-0.015-0.188-0.022c-0.569-0.064-1.189-0.129-1.855-0.189
			c-0.077-0.008-0.155-0.015-0.234-0.021c-0.302-0.027-0.611-0.053-0.93-0.078c-0.042-0.003-0.082-0.007-0.125-0.01
			c-0.36-0.028-0.732-0.054-1.112-0.079c-0.076-0.005-0.153-0.009-0.229-0.014c-0.331-0.021-0.669-0.04-1.015-0.058
			c-0.07-0.004-0.139-0.008-0.21-0.012c-0.404-0.02-0.818-0.037-1.24-0.052c-0.065-0.002-0.133-0.006-0.199-0.008
			c-0.365-0.012-0.737-0.025-1.114-0.032c-0.096-0.002-0.189-0.012-0.285-0.014l-3.668,0.021c-0.062,0.002-0.126,0.02-0.188,0.021
			c-0.736,0.022-1.486,0.055-2.245,0.1c-0.078,0.005-0.154,0.01-0.231,0.015c-0.768,0.048-1.544,0.107-2.328,0.182
			c-0.061,0.006-0.121,0.011-0.182,0.017C67.7,19.563,66.853,19.66,66,19.775c-1.091,0.147-6.706,1.909-11,3.184v55.402
			c4.345-2.907,10.044-6.901,11-7.086C66.676,71.145,67.347,71.027,68.014,70.919z"/>
		<path d="M69.277,80.844c3.858-0.654,7.999-0.986,12.33-0.986c4.277,0.001,7.146,0.34,7.174,0.344
			c0.399,0.048,0.8,0.071,1.198,0.071c2.434,0,4.805-0.886,6.644-2.517c2.141-1.897,3.377-4.62,3.377-7.48v-50
			c0-4.795-3.403-8.915-8.112-9.82c-0.281-0.054-6.993-1.324-15.873-1.324c-3.934,0-7.755,0.247-11.356,0.735
			c-1.437,0.194-3.092,0.668-8.999,2.453c-1.726,0.521-4.062,1.228-5.653,1.68c-1.598-0.465-3.95-1.196-5.548-1.693
			c-5.444-1.694-7.488-2.307-9.042-2.529C31.824,9.262,28.025,9,24.129,9C15.048,9,8.206,10.434,7.92,10.494
			C3.302,11.477,0,15.555,0,20.275v50c0,2.864,1.229,5.591,3.373,7.489c1.839,1.627,4.199,2.511,6.627,2.511
			c0.404,0,0.812-0.024,1.218-0.074c0.007-0.001,2.861-0.333,7.123-0.333c4.353,0,8.513,0.329,12.39,0.979
			c1.387,0.87,3.889,2.566,5.659,3.766c2.115,1.435,3.8,2.575,5.211,3.486H0v10h100v-10H58.399c1.411-0.912,3.097-2.053,5.214-3.487
			C65.387,83.41,67.893,81.712,69.277,80.844z M45,78.361c-4.345-2.908-10.045-6.903-11-7.086c-0.68-0.13-1.355-0.246-2.026-0.355
			c-0.066-0.011-0.134-0.022-0.2-0.033c-0.637-0.101-1.267-0.191-1.893-0.274c-0.096-0.013-0.191-0.026-0.287-0.038
			c-0.605-0.078-1.205-0.148-1.797-0.212c-0.109-0.012-0.219-0.023-0.327-0.034c-0.582-0.06-1.157-0.113-1.725-0.159
			c-0.107-0.009-0.214-0.018-0.321-0.025c-0.566-0.045-1.125-0.084-1.673-0.116c-0.093-0.005-0.184-0.01-0.275-0.015
			c-0.559-0.031-1.109-0.059-1.645-0.078c-0.058-0.003-0.112-0.004-0.17-0.006c-0.517-0.019-1.022-0.032-1.515-0.042
			c-0.062-0.001-0.127-0.003-0.189-0.004c-0.496-0.009-0.976,0.104-1.443,0.104l-1.204,0.002c-0.065,0.002-0.128-0.055-0.192-0.054
			c-1.018,0.014-1.95,0.013-2.78,0.05c-0.021,0.001-0.044-0.012-0.064-0.011c-0.171,0.008-0.333,0.008-0.495,0.016
			c-0.06,0.003-0.122,0.003-0.181,0.007c-0.143,0.007-0.277,0.013-0.412,0.021c-0.069,0.004-0.14,0.008-0.207,0.012
			c-0.129,0.008-0.252,0.015-0.374,0.022c-0.062,0.004-0.124,0.008-0.184,0.012c-0.117,0.009-0.229,0.017-0.339,0.024
			c-0.059,0.004-0.117,0.009-0.173,0.013c-0.104,0.008-0.204,0.016-0.301,0.023c-0.053,0.004-0.104,0.008-0.154,0.012
			c-0.087,0.008-0.171,0.015-0.251,0.021c-0.055,0.005-0.108,0.01-0.159,0.014c-0.071,0.007-0.139,0.013-0.203,0.019
			c-0.04,0.004-0.077,0.008-0.114,0.011c-0.068,0.007-0.134,0.013-0.192,0.019c-0.029,0.003-0.055,0.006-0.081,0.009
			c-0.05,0.005-0.1,0.01-0.142,0.015c-0.03,0.003-0.056,0.006-0.082,0.009c-0.088,0.009-0.157,0.017-0.192,0.021
			C10.014,70.273,10,70.275,10,70.275v-50c0,0,0.026-0.006,0.052-0.011c0.012-0.002,0.018-0.004,0.034-0.007
			c0.038-0.008,0.092-0.019,0.155-0.031c0.015-0.003,0.023-0.004,0.04-0.008c0.078-0.015,0.179-0.033,0.289-0.054
			c0.027-0.005,0.054-0.011,0.083-0.016c0.104-0.02,0.224-0.04,0.352-0.062c0.028-0.005,0.052-0.01,0.081-0.015
			c0.156-0.027,0.33-0.057,0.519-0.087c0.031-0.005,0.064-0.011,0.097-0.016c0.166-0.026,0.346-0.055,0.533-0.084
			c0.047-0.007,0.091-0.014,0.139-0.021c0.223-0.033,0.459-0.068,0.71-0.104c0.042-0.006,0.086-0.012,0.129-0.018
			c0.217-0.029,0.444-0.06,0.681-0.09c0.067-0.009,0.134-0.018,0.203-0.026c0.283-0.036,0.578-0.071,0.887-0.106
			c0.032-0.004,0.066-0.007,0.1-0.011c0.28-0.032,0.571-0.062,0.871-0.093c0.081-0.009,0.162-0.115,0.244-0.123
			c0.095-0.01,0.189-0.029,0.285-0.053l0.769-0.143c0.354,0,0.724,0.039,1.098,0.012c0.099-0.006,0.198,0.036,0.299,0.029
			c0.333-0.022,0.673-0.02,1.02-0.039c0.06-0.003,0.117,0.005,0.177,0.002c0.396-0.021,0.802-0.033,1.214-0.049
			c0.105-0.004,0.212-0.005,0.318-0.008c0.347-0.013,0.699-0.021,1.057-0.029c0.092-0.002,0.182,0.047,0.274,0.045l0.873,0.022
			c0.147,0.007,0.293,0.015,0.441,0.015c0.036,0,0.071,0,0.107,0c0.038,0,0.078-0.048,0.115-0.048
			c0.688,0.001,1.39-0.015,2.104,0.007c0.056,0.001,0.112-0.001,0.168-0.003c0.03-0.007,0.06-0.015,0.09-0.014
			c0.707,0.023,1.426,0.057,2.155,0.103c-0.729-0.046-1.448-0.057-2.155-0.08c-0.03-0.001-0.06,0.035-0.09,0.035
			c0.03,0,0.06,0,0.09,0c0.707,0,1.426,0.027,2.155,0.073c0.089,0.006,0.178-0.003,0.267,0.003c0.748,0.049,1.507,0.105,2.273,0.183
			c0.064,0.006,0.129,0.008,0.194,0.015c0.827,0.085,1.663,0.183,2.505,0.304c-0.842-0.121-1.678-0.222-2.505-0.307
			c-0.065-0.007-0.13-0.014-0.194-0.02c0.064,0.006,0.129,0.012,0.194,0.019c0.827,0.085,1.663,0.186,2.505,0.307
			c1.222,0.175,6.754,1.969,11,3.264V78.361z M55,78.361V22.959c4.294-1.274,9.909-3.036,11-3.184
			c0.853-0.115,1.7-0.212,2.539-0.293c0.061-0.006,0.121-0.011,0.182-0.017c0.784-0.074,1.561-0.134,2.328-0.182
			c0.077-0.005,0.153-0.01,0.231-0.015c0.759-0.045,1.509-0.077,2.245-0.1c0.062-0.002,0.126-0.02,0.188-0.021l3.668-0.021
			c0.096,0.002,0.189,0.012,0.285,0.014c0.377,0.007,0.749,0.021,1.114,0.032c0.066,0.002,0.134,0.006,0.199,0.008
			c0.422,0.015,0.836,0.032,1.24,0.052c0.071,0.004,0.14,0.008,0.21,0.012c0.346,0.018,0.684,0.037,1.015,0.058
			c0.076,0.005,0.153,0.009,0.229,0.014c0.38,0.025,0.752,0.051,1.112,0.079c0.043,0.003,0.083,0.007,0.125,0.01
			c0.318,0.025,0.628,0.051,0.93,0.078c0.079,0.007,0.157,0.014,0.234,0.021c0.666,0.061,1.286,0.125,1.855,0.189
			c0.064,0.008,0.126,0.015,0.188,0.022c0.26,0.029,0.511,0.06,0.748,0.09c0.016,0.002,0.032,0.004,0.048,0.006
			c0.257,0.032,0.497,0.064,0.725,0.095c0.048,0.007,0.092,0.013,0.139,0.02c0.188,0.025,0.367,0.051,0.533,0.075
			c0.029,0.005,0.061,0.009,0.089,0.013c0.188,0.028,0.359,0.055,0.516,0.079c0.033,0.005,0.062,0.01,0.093,0.015
			c0.123,0.02,0.235,0.037,0.336,0.054c0.029,0.005,0.059,0.01,0.086,0.015c0.109,0.019,0.208,0.035,0.286,0.049
			c0.021,0.004,0.033,0.006,0.052,0.009c0.057,0.011,0.108,0.02,0.144,0.026c0.017,0.003,0.023,0.004,0.035,0.006
			c0.026,0.005,0.052,0.01,0.052,0.01v50c0,0-0.014-0.002-0.035-0.004c-0.01-0.002-0.025-0.003-0.039-0.005
			c-0.019-0.002-0.037-0.005-0.063-0.008c-0.02-0.002-0.044-0.005-0.068-0.007c-0.034-0.004-0.07-0.008-0.113-0.013
			c-0.024-0.003-0.052-0.006-0.079-0.008c-0.051-0.006-0.105-0.012-0.166-0.018c-0.031-0.003-0.065-0.007-0.099-0.01
			c-0.068-0.007-0.142-0.014-0.22-0.021c-0.034-0.003-0.07-0.006-0.106-0.01c-0.084-0.007-0.172-0.016-0.266-0.023
			c-0.044-0.004-0.089-0.008-0.136-0.012c-0.099-0.009-0.203-0.017-0.312-0.025c-0.045-0.004-0.09-0.007-0.137-0.011
			c-0.114-0.009-0.234-0.018-0.358-0.027c-0.054-0.004-0.107-0.008-0.163-0.012c-0.125-0.009-0.257-0.018-0.391-0.026
			c-0.06-0.004-0.118-0.008-0.18-0.012c-0.141-0.009-0.289-0.017-0.439-0.025c-0.062-0.004-0.122-0.008-0.187-0.011
			c-0.149-0.009-0.307-0.017-0.465-0.024c-0.072-0.003-0.143-0.007-0.217-0.011c-0.188-0.009-0.384-0.017-0.582-0.024
			c-0.047-0.002-0.09-0.004-0.138-0.006c-0.244-0.01-0.496-0.018-0.755-0.025c-0.122-0.004-0.251-0.007-0.377-0.01
			c-0.139-0.004-0.274-0.007-0.417-0.01c-0.161-0.004-0.328-0.006-0.493-0.009c-0.113-0.002-0.224-0.004-0.339-0.005
			c-0.185-0.002-0.374,0.118-0.564,0.116c-0.1,0-0.199,0.119-0.3,0.119l-0.384-0.119c-0.451,0.001-0.913-0.057-1.39-0.048
			c-0.087,0.001-0.176-0.026-0.263-0.024c-0.477,0.009-0.964,0.008-1.464,0.025c-0.064,0.002-0.129-0.003-0.194-0.001
			c-0.522,0.021-1.06,0.043-1.604,0.073c-0.095,0.006-0.188,0.009-0.283,0.014c-0.541,0.033-1.093,0.071-1.652,0.115
			c-0.114,0.009-0.228,0.018-0.343,0.027c-0.56,0.045-1.127,0.099-1.701,0.158c-0.114,0.012-0.229,0.023-0.344,0.036
			c-0.586,0.063-1.178,0.133-1.775,0.211c-0.103,0.014-0.205,0.028-0.307,0.042c-0.619,0.083-1.242,0.174-1.872,0.274
			c-0.069,0.011-0.139,0.023-0.208,0.035c-0.667,0.108-1.338,0.226-2.014,0.356C65.044,71.46,59.345,75.454,55,78.361z"/>
	</g>
</g>
</svg>
