<?xml version="1.0" encoding="utf-8"?>
<!-- Generator: Adobe Illustrator 16.0.0, SVG Export Plug-In . SVG Version: 6.00 Build 0)  -->
<!DOCTYPE svg PUBLIC "-//W3C//DTD SVG 1.0//EN" "http://www.w3.org/TR/2001/REC-SVG-20010904/DTD/svg10.dtd">
<svg version="1.0" xmlns="http://www.w3.org/2000/svg" xmlns:xlink="http://www.w3.org/1999/xlink" x="0px" y="0px" width="100px"
	 height="100px" viewBox="0 0 100 100" enable-background="new 0 0 100 100" xml:space="preserve">
<g id="Layer_3">
</g>
<g id="Your_Icon">
</g>
<g id="Layer_4">
	<path d="M24.339,100c-0.002,0-0.002-0.001-0.006,0c-10.574,0-19.18-8.457-19.184-18.853l-0.001-4l8-0.003l0.001,4
		C13.151,87.13,18.169,92,24.334,92c0.002,0,0.002,0,0.003,0c3.34,0,7.186-2.116,9.57-5.267c0.978-1.292,2.507-3.853,1.765-6.483
		c-2.11-7.462-8.275-17.265-14.237-26.745C14.712,42.815,7.76,31.761,5.53,22.515C4.446,18.018,5.735,13.012,9.067,8.78
		c3.906-4.959,9.859-8.04,15.537-8.04c0.003,0.001,0.005,0,0.007,0c5.105,0,9.911,1.949,13.53,5.49
		c3.644,3.564,5.65,8.311,5.65,13.365v4h-8v-4c0-2.884-1.152-5.6-3.245-7.647C30.432,9.88,27.613,8.74,24.61,8.74
		c-0.002,0-0.005,0-0.004,0c-3.235,0-6.866,1.958-9.253,4.989c-1.806,2.293-2.551,4.812-2.045,6.91
		c1.922,7.973,8.52,18.463,14.9,28.607c6.552,10.417,12.74,20.257,15.163,28.829c1.249,4.419,0.153,9.208-3.084,13.486
		C36.407,96.688,30.147,100,24.339,100z"/>
	<g>
		<path fill="none" d="M68.592,35.587c-1.109,0-2.906,0.522-5.52,2.678c4.384,12.163,3.417,13.878,1.516,15.501
			C63.227,54.928,61.537,55,60.971,55c-0.002,0-0.004,0-0.006,0c-2.935,0-8.918-1.644-12.431-2.647
			c-1.429,1.736-2.731,3.848-2.085,5.5c2.059,5.265,18.684,9.315,34.491,10.495C79.522,53.386,74.927,35.587,68.592,35.587z"/>
		<path d="M68.592,27.57c-4.211,0-8.468,2.182-13.015,6.669c-1.124,1.109-1.49,2.776-0.934,4.254
			c0.285,0.758,0.574,1.555,0.858,2.359c-5.383-3.35-14.407-7.78-23.027-6.56C26.97,35.071,27,35.7,22.2,39.5l4.1,7
			c2.087-3.006,4.032-3.82,7.279-4.283c3.654-0.52,7.779,0.581,11.511,2.184c-0.229,0.149-0.45,0.316-0.648,0.514
			C38.888,50.469,37.057,55.803,39,60.769c5.296,13.536,39.339,15.555,46.11,15.823c0.053,0.002,0.105,0.003,0.158,0.003
			c1.068,0,2.094-0.427,2.847-1.19c0.79-0.801,1.207-1.897,1.147-3.02C88.867,64.9,86.016,27.57,68.592,27.57z M46.449,57.853
			c-0.646-1.652,0.656-3.764,2.085-5.5C52.047,53.356,58.03,55,60.965,55c0.002,0,0.004,0,0.006,0c0.565,0,2.255-0.072,3.617-1.234
			c1.901-1.623,2.868-3.338-1.516-15.501c2.614-2.155,4.411-2.678,5.52-2.678c6.334,0,10.93,17.799,12.348,32.761
			C65.133,67.168,48.508,63.117,46.449,57.853z"/>
	</g>
</g>
</svg>
