<?xml version="1.0" encoding="utf-8"?>
<!-- Generator: Adobe Illustrator 16.0.0, SVG Export Plug-In . SVG Version: 6.00 Build 0)  -->
<!DOCTYPE svg PUBLIC "-//W3C//DTD SVG 1.0//EN" "http://www.w3.org/TR/2001/REC-SVG-20010904/DTD/svg10.dtd">
<svg version="1.0" xmlns="http://www.w3.org/2000/svg" xmlns:xlink="http://www.w3.org/1999/xlink" x="0px" y="0px" width="100px"
	 height="100px" viewBox="0 0 100 100" enable-background="new 0 0 100 100" xml:space="preserve">
<g id="Layer_3">
</g>
<g id="Your_Icon">
</g>
<g id="Layer_4">
	<path d="M35.951,69.001L17.451,69C8.554,69,1.312,62.041,0.964,53.156c-0.005-0.16-0.005-2.09-0.003-2.868l0-0.289
		c0-0.176,0.006-2.969,0.012-3.142c0.352-8.899,7.594-15.858,16.488-15.858h22.5v8h-22.5c-4.582,0-8.312,3.583-8.493,8.158
		c-0.003,0.251-0.007,2.684-0.007,2.842l0,0.303c-0.001,0.687-0.004,2.346,0,2.61C9.137,57.417,12.868,61,17.451,61l18.5,0.001
		L35.951,69.001z"/>
	<rect x="29" y="46" width="42" height="8"/>
	<path d="M64.012,69.001l-0.001-8L82.512,61c4.582,0,8.312-3.583,8.491-8.158c0.003-0.234-0.001-1.861-0.002-2.538l0-0.305
		c0-0.157-0.001-2.542-0.008-2.886c-0.178-4.531-3.909-8.114-8.492-8.114H60v-8h22.5c8.896,0,16.139,6.959,16.487,15.843
		C98.998,47.072,99,48.92,99,49.999l0,0.287c0.006,2.666,0.002,2.759-0.005,2.901C98.648,62.041,91.407,69,82.512,69L64.012,69.001z
		"/>
</g>
</svg>
