<?xml version="1.0" encoding="utf-8"?>
<!-- Generator: Adobe Illustrator 16.0.0, SVG Export Plug-In . SVG Version: 6.00 Build 0)  -->
<!DOCTYPE svg PUBLIC "-//W3C//DTD SVG 1.1//EN" "http://www.w3.org/Graphics/SVG/1.1/DTD/svg11.dtd">
<svg version="1.1" xmlns="http://www.w3.org/2000/svg" xmlns:xlink="http://www.w3.org/1999/xlink" x="0px" y="0px" width="100px"
	 height="100px" viewBox="0 0 100 100" enable-background="new 0 0 100 100" xml:space="preserve">
<g id="Layer_3" display="none">
	<rect x="19" y="-70" display="inline" fill="none" stroke="#000000" stroke-miterlimit="10" width="64" height="100"/>
	<rect x="1" y="-70" display="inline" fill="none" stroke="#000000" stroke-miterlimit="10" width="100" height="100"/>
	<g display="inline">
		<path fill="none" stroke="#211915" stroke-miterlimit="10" d="M51.1-39.7c-11.027,0-20,8.972-20,20s8.973,20,20,20s20-8.972,20-20
			S62.127-39.7,51.1-39.7L51.1-39.7z"/>
	</g>
	<g display="inline">
		<path fill="none" stroke="#211915" stroke-miterlimit="10" d="M51.6-50.92c17.245,0,31.22,13.974,31.22,31.22
			c0,17.236-13.975,31.22-31.22,31.22S20.38-2.464,20.38-19.7C20.38-36.946,34.354-50.92,51.6-50.92 M51.6-59.7
			c-22.057,0-40,17.944-40,40s17.943,40,40,40s40-17.944,40-40S73.656-59.7,51.6-59.7L51.6-59.7z"/>
	</g>
</g>
<g id="Your_Icon">
</g>
<g id="Layer_4">
	<g>
		<path d="M86,47H14c-2.762,0-5,1.852-5,4.613v43.091c0,1.327,0.527,2.747,1.466,3.685C11.403,99.326,12.675,100,14,100
			c0.002,0,0.003,0,0.005,0H86c2.76-0.003,5-2.692,5-5.452V51.613C91,48.852,88.762,47,86,47z M81,89.553L19,89.7V57h62V89.553z"/>
	</g>
	<path fill="#211915" d="M83,43.3H73V32.75C73,21.033,62.683,11.5,50,11.5s-23,9.533-23,21.25V43.3H17V32.75
		C17,15.519,31.804,1.5,50,1.5s33,14.019,33,31.25V43.3z"/>
</g>
</svg>
