<?xml version="1.0" encoding="utf-8"?>
<!-- Generator: Adobe Illustrator 16.0.0, SVG Export Plug-In . SVG Version: 6.00 Build 0)  -->
<!DOCTYPE svg PUBLIC "-//W3C//DTD SVG 1.1//EN" "http://www.w3.org/Graphics/SVG/1.1/DTD/svg11.dtd">
<svg version="1.1" xmlns="http://www.w3.org/2000/svg" xmlns:xlink="http://www.w3.org/1999/xlink" x="0px" y="0px" width="100px"
	 height="100px" viewBox="0 0 100 100" enable-background="new 0 0 100 100" xml:space="preserve">
<g id="Layer_3" display="none">
</g>
<g id="Your_Icon">
</g>
<g id="Layer_4">
	<path fill="#211915" d="M49.95,13.7c-10.448,0-20.1,4.326-26.95,11.617V11H13v29.5c0,2.761,2.238,5.5,5,5.5h30V36H27.308
		c4.913-7.595,13.341-12.3,22.643-12.3c14.888,0,27,12.112,27,27s-12.112,27-27,27c-11.331,0-21.535-7.154-25.394-17.802
		c-0.194-0.537-0.373-1.083-0.532-1.631L24,57l-9.999,0.093l0.206,3.195c0.27,1.012,0.589,2.026,0.947,3.017
		C20.441,77.896,34.425,87.7,49.95,87.7c20.402,0,37-16.598,37-37S70.353,13.7,49.95,13.7z"/>
</g>
</svg>
