<?xml version="1.0" encoding="utf-8"?>
<!-- Generator: Adobe Illustrator 16.0.0, SVG Export Plug-In . SVG Version: 6.00 Build 0)  -->
<!DOCTYPE svg PUBLIC "-//W3C//DTD SVG 1.1//EN" "http://www.w3.org/Graphics/SVG/1.1/DTD/svg11.dtd">
<svg version="1.1" xmlns="http://www.w3.org/2000/svg" xmlns:xlink="http://www.w3.org/1999/xlink" x="0px" y="0px" width="100px"
	 height="100px" viewBox="0 0 100 100" enable-background="new 0 0 100 100" xml:space="preserve">
<g id="Layer_3" display="none">
</g>
<g id="Your_Icon">
</g>
<g id="Layer_4">
	<g>
		<path fill="none" d="M38.13,51.83C25.244,51.83,17.125,60,17.125,73h0.011c0.112-13,8.198-20.904,20.994-20.904
			C48.404,52.096,55.628,57,58.139,66h0.084C55.784,57,48.511,51.83,38.13,51.83z"/>
		<path fill="none" d="M41.875,83h-24.75c-5.509,0-9.977-4.482-9.998-9.985c0,0.031-0.002-0.042-0.002-0.011
			c0,5.521,4.478,9.996,10,9.996H41.875L41.875,83z"/>
		<path fill="#211915" d="M17.125,83H42v-0.352V73H17.125c0,0,0.01,0,0.011,0h-0.011c0-13,8.119-21.17,21.005-21.17
			C48.511,51.83,55.784,57,58.223,66H59V53.648v-4.567c-6-4.722-12.798-7.304-20.808-7.304c-8.893,0-16.912,3.172-22.527,8.932
			c-5.467,5.61-8.501,13.631-8.522,22.306C7.164,78.518,11.616,83,17.125,83z"/>
		<g>
			<ellipse fill="none" cx="38.222" cy="17.766" rx="9.091" ry="9.648"/>
			<path fill="#211915" d="M38.222,0.117c-9.424,0-17.091,7.918-17.091,17.648c0,6.275,3.197,11.78,7.987,14.91
				c2.64,1.725,5.756,2.738,9.104,2.738c3.328,0,6.428-1.003,9.058-2.708c4.816-3.125,8.035-8.645,8.035-14.94
				C55.314,8.035,47.646,0.117,38.222,0.117z M38.222,27.414c-5.021,0-9.091-4.318-9.091-9.648c0-5.326,4.069-9.648,9.091-9.648
				c5.023,0,9.093,4.322,9.093,9.648C47.314,23.096,43.245,27.414,38.222,27.414z"/>
		</g>
		<polygon fill="#211915" points="76,71 76,54 64,54 64,71 47,71 47,83 59.125,83 64,83 64,100 76,100 76,83 93,83 93,71 		"/>
	</g>
</g>
</svg>
