<?xml version="1.0" encoding="utf-8"?>
<!-- Generator: Adobe Illustrator 16.0.0, SVG Export Plug-In . SVG Version: 6.00 Build 0)  -->
<!DOCTYPE svg PUBLIC "-//W3C//DTD SVG 1.0//EN" "http://www.w3.org/TR/2001/REC-SVG-20010904/DTD/svg10.dtd">
<svg version="1.0" xmlns="http://www.w3.org/2000/svg" xmlns:xlink="http://www.w3.org/1999/xlink" x="0px" y="0px" width="100px"
	 height="100px" viewBox="0 0 100 100" enable-background="new 0 0 100 100" xml:space="preserve">
<g id="Layer_3">
</g>
<g id="Your_Icon">
</g>
<g id="Layer_4">
	<path d="M38.25,10c15.465,0,28,12.534,28,28c0,15.46-12.535,28-28,28s-28-12.54-28-28C10.25,22.534,22.785,10,38.25,10 M38.25,2
		c-19.851,0-36,16.149-36,36s16.149,36,36,36s36-16.149,36-36S58.101,2,38.25,2L38.25,2z"/>
	<rect x="53.958" y="73" transform="matrix(0.7071 0.7071 -0.7071 0.7071 78 -32.3087)" width="48.083" height="10"/>
	<g>
		<line fill="#FFFFFF" x1="27.6" y1="47.8" x2="27.6" y2="47.8"/>
		<path fill="#FFFFFF" d="M27.6,47.8"/>
	</g>
</g>
</svg>
