<?xml version="1.0" encoding="utf-8"?>
<!-- Generator: Adobe Illustrator 16.0.0, SVG Export Plug-In . SVG Version: 6.00 Build 0)  -->
<!DOCTYPE svg PUBLIC "-//W3C//DTD SVG 1.0//EN" "http://www.w3.org/TR/2001/REC-SVG-20010904/DTD/svg10.dtd">
<svg version="1.0" xmlns="http://www.w3.org/2000/svg" xmlns:xlink="http://www.w3.org/1999/xlink" x="0px" y="0px" width="100px"
	 height="100px" viewBox="0 0 100 100" enable-background="new 0 0 100 100" xml:space="preserve">
<g id="Layer_3">
</g>
<g id="Your_Icon">
</g>
<g id="Layer_4">
	<g>
		<path d="M97.832,57.035L52.526,2.445C51.766,1.529,50.638,1,49.448,1c-0.008,0-0.017,0-0.024,0
			c-1.198,0.007-2.33,0.552-3.084,1.482L2.138,57.072c-0.971,1.199-1.166,3.053-0.502,4.444C2.3,62.909,3.704,64,5.246,64H19v30.978
			c0,2.208,2.04,3.999,4.248,4L75.498,99c0.001,0,0.002,0,0.002,0c1.061,0,1.828-0.421,2.578-1.171S79,96.062,79,95V64h15.754
			c1.551,0,2.962-1.102,3.621-2.505C99.033,60.092,98.822,58.229,97.832,57.035z M75.5,56c-2.209,0-4.5,1.381-4.5,3.59v31.408
			l-44-0.019V59.59c0-2.209-1.291-3.59-3.5-3.59h-9.868l35.854-44.28L86.236,56H75.5z"/>
	</g>
</g>
</svg>
