<?xml version="1.0" encoding="utf-8"?>
<!-- Generator: Adobe Illustrator 16.0.0, SVG Export Plug-In . SVG Version: 6.00 Build 0)  -->
<!DOCTYPE svg PUBLIC "-//W3C//DTD SVG 1.1//EN" "http://www.w3.org/Graphics/SVG/1.1/DTD/svg11.dtd">
<svg version="1.1" xmlns="http://www.w3.org/2000/svg" xmlns:xlink="http://www.w3.org/1999/xlink" x="0px" y="0px" width="100px"
	 height="100px" viewBox="0 0 100 100" enable-background="new 0 0 100 100" xml:space="preserve">
<g id="Layer_3" display="none">
</g>
<g id="Your_Icon">
</g>
<g id="Layer_4">
	<g>
		<path fill="none" d="M67.15,39c0-15.467-12.533-28-28-28c-15.465,0-28,12.534-28,28c0,15.46,12.535,28,28,28S67.15,54.46,67.15,39
			z"/>
		<path fill="#211915" d="M98.386,91.464L69.174,62.252C74.167,55.82,77.15,47.754,77.15,39c0-20.953-17.047-38-38-38
			s-38,17.047-38,38s17.047,38,38,38c8.602,0,16.541-2.876,22.917-7.713l29.248,29.249L98.386,91.464z M11.15,39
			c0-15.466,12.535-28,28-28c15.467,0,28,12.533,28,28c0,15.46-12.535,28-28,28S11.15,54.46,11.15,39z"/>
	</g>
	<g>
		<line fill="#FFFFFF" x1="27.6" y1="47.8" x2="27.6" y2="47.8"/>
		<path fill="#FFFFFF" d="M27.6,47.8"/>
	</g>
</g>
</svg>
