<?xml version="1.0" encoding="utf-8"?>
<!-- Generator: Adobe Illustrator 16.0.0, SVG Export Plug-In . SVG Version: 6.00 Build 0)  -->
<!DOCTYPE svg PUBLIC "-//W3C//DTD SVG 1.1//EN" "http://www.w3.org/Graphics/SVG/1.1/DTD/svg11.dtd">
<svg version="1.1" xmlns="http://www.w3.org/2000/svg" xmlns:xlink="http://www.w3.org/1999/xlink" x="0px" y="0px" width="62px"
	 height="100px" viewBox="0 0 62 100" enable-background="new 0 0 62 100" xml:space="preserve">
<g id="Layer_3" display="none">
	<g display="inline" opacity="0.39">
		<line opacity="0.3" fill="none" stroke="#699BD0" enable-background="new    " x1="3.325" y1="69" x2="3.325" y2="169"/>
		<line fill="none" stroke="#699BD0" x1="6.45" y1="69" x2="6.45" y2="169"/>
		<line opacity="0.3" fill="none" stroke="#699BD0" enable-background="new    " x1="9.575" y1="69" x2="9.575" y2="169"/>
		<line fill="none" stroke="#699BD0" x1="12.7" y1="69" x2="12.7" y2="169"/>
		<line opacity="0.3" fill="none" stroke="#699BD0" enable-background="new    " x1="15.825" y1="69" x2="15.825" y2="169"/>
		<line fill="none" stroke="#699BD0" x1="18.95" y1="69" x2="18.95" y2="169"/>
		<line opacity="0.3" fill="none" stroke="#699BD0" enable-background="new    " x1="22.075" y1="69" x2="22.075" y2="169"/>
		<line fill="none" stroke="#699BD0" x1="25.2" y1="69" x2="25.2" y2="169"/>
		<line opacity="0.3" fill="none" stroke="#699BD0" enable-background="new    " x1="28.325" y1="69" x2="28.325" y2="169"/>
		<line fill="none" stroke="#699BD0" x1="31.45" y1="69" x2="31.45" y2="169"/>
		<line opacity="0.3" fill="none" stroke="#699BD0" enable-background="new    " x1="34.575" y1="69" x2="34.575" y2="169"/>
		<line fill="none" stroke="#699BD0" x1="37.7" y1="69" x2="37.7" y2="169"/>
		<line opacity="0.3" fill="none" stroke="#699BD0" enable-background="new    " x1="40.825" y1="69" x2="40.825" y2="169"/>
		<line fill="none" stroke="#699BD0" x1="43.95" y1="69" x2="43.95" y2="169"/>
		<line opacity="0.3" fill="none" stroke="#699BD0" enable-background="new    " x1="47.075" y1="69" x2="47.075" y2="169"/>
		<line fill="none" stroke="#699BD0" x1="50.2" y1="69" x2="50.2" y2="169"/>
		<line opacity="0.3" fill="none" stroke="#699BD0" enable-background="new    " x1="53.325" y1="69" x2="53.325" y2="169"/>
		<line fill="none" stroke="#699BD0" x1="56.45" y1="69" x2="56.45" y2="169"/>
		<line opacity="0.3" fill="none" stroke="#699BD0" enable-background="new    " x1="59.575" y1="69" x2="59.575" y2="169"/>
		<line opacity="0.3" fill="none" stroke="#699BD0" enable-background="new    " x1="0.2" y1="72.125" x2="100.2" y2="72.125"/>
		<line fill="none" stroke="#699BD0" x1="0.2" y1="75.25" x2="100.2" y2="75.25"/>
		<line opacity="0.3" fill="none" stroke="#699BD0" enable-background="new    " x1="0.2" y1="78.375" x2="100.2" y2="78.375"/>
		<line fill="none" stroke="#699BD0" x1="0.2" y1="81.5" x2="100.2" y2="81.5"/>
		<line opacity="0.3" fill="none" stroke="#699BD0" enable-background="new    " x1="0.2" y1="84.625" x2="100.2" y2="84.625"/>
		<line fill="none" stroke="#699BD0" x1="0.2" y1="87.75" x2="100.2" y2="87.75"/>
		<line opacity="0.3" fill="none" stroke="#699BD0" enable-background="new    " x1="0.2" y1="90.875" x2="100.2" y2="90.875"/>
		<line fill="none" stroke="#699BD0" x1="0.2" y1="94" x2="100.2" y2="94"/>
		<line opacity="0.3" fill="none" stroke="#699BD0" enable-background="new    " x1="0.2" y1="97.125" x2="100.2" y2="97.125"/>
		<line fill="none" stroke="#699BD0" x1="0.2" y1="100.25" x2="100.2" y2="100.25"/>
	</g>
	
		<rect x="20" y="70" display="inline" opacity="0.78" fill="none" stroke="#000000" stroke-miterlimit="10" width="62" height="100"/>
	
		<rect x="1" y="70" display="inline" opacity="0.78" fill="none" stroke="#000000" stroke-miterlimit="10" width="100" height="100"/>
	<g display="inline" opacity="0.78">
		<path fill="none" stroke="#211915" stroke-miterlimit="10" d="M51,100c-11.028,0-20,8.972-20,20s8.972,20,20,20s20-8.972,20-20
			S62.028,100,51,100L51,100z"/>
	</g>
	<g display="inline" opacity="0.78">
		<path fill="none" stroke="#211915" stroke-miterlimit="10" d="M51,89c17.123,0,31,13.876,31,31c0,17.115-13.877,31-31,31
			s-31-13.885-31-31C20,102.876,33.877,89,51,89 M51,80c-22.056,0-40,17.944-40,40s17.944,40,40,40s40-17.944,40-40S73.056,80,51,80
			L51,80z"/>
	</g>
</g>
<g id="Your_Icon">
</g>
<g id="Layer_4">
	<rect y="45" fill="#211915" width="62" height="10"/>
</g>
</svg>
