<?xml version="1.0" encoding="utf-8"?>
<!-- Generator: Adobe Illustrator 16.0.0, SVG Export Plug-In . SVG Version: 6.00 Build 0)  -->
<!DOCTYPE svg PUBLIC "-//W3C//DTD SVG 1.1//EN" "http://www.w3.org/Graphics/SVG/1.1/DTD/svg11.dtd">
<svg version="1.1" xmlns="http://www.w3.org/2000/svg" xmlns:xlink="http://www.w3.org/1999/xlink" x="0px" y="0px" width="100px"
	 height="100px" viewBox="0 0 100 100" enable-background="new 0 0 100 100" xml:space="preserve">
<g id="Layer_3" display="none">
</g>
<g id="Your_Icon">
</g>
<g id="Layer_4">
	<g>
		<path d="M68.891,71.632c-2.997-3.477-7.289-5.391-12.086-5.391c-0.433,0-0.921,0.002-1.458,0.005
			c-0.62,0.003-1.172,0.006-1.913,0.006C44.8,66.252,40,65.651,38,65.124V57h11.033c4.351,0,7.692-0.236,7.92-0.236
			c8.976-0.057,15.768-6.987,15.804-15.968c0.036-8.916-6.868-16.059-15.718-16.185c-1.728-0.023-5.025-0.065-10.07-0.065
			c-2.991,0-5.968-0.024-8.968-0.02v-8.157c0-3.523-1.462-6.857-3.963-9.4c-3.016-3.066-7.691-4.824-12.709-4.824
			c-4.974,0-9.575,1.743-12.565,4.783C6.26,9.473,4.883,12.816,4.91,16.356l-0.1,52.485c-0.073,7.065,2.423,13.37,7.228,18.235
			c7.765,7.862,20.831,11.685,39.948,11.685c1.346,0,2.505,0.125,3.423,0.11C55.916,98.864,56.334,99,56.652,99h0.078h0.128
			c8.939,0,15.941-7.309,15.941-16.457C72.799,78.523,71.411,74.556,68.891,71.632z M56.858,89c-0.018,0-0.036,0-0.054,0
			c-0.048,0-0.099,0-0.152,0c-0.907,0-2.547-0.095-4.668-0.095c-11.555,0-37.413-1.501-37.183-19.929l0.092-52.625
			c-0.046-2.796,3.286-4.189,6.501-4.189c3.25,0,6.606,1.388,6.606,4.153v18.236c0,0,10.301-0.035,18.942-0.035
			c4.321,0,8.125,0.009,10.021,0.035c7.731,0.11,7.865,11.928-0.033,11.977c-0.227,0.001-3.426,0.002-7.746,0.002
			C40.542,46.53,28,46.528,28,46.528s0,14.622,0,22.562c0,6.715,16.469,7.162,25.434,7.162c1.378,0,2.509,0.133,3.438,0.133
			C65.015,76.385,64.628,89,56.858,89z"/>
	</g>
</g>
</svg>
