<?xml version="1.0" encoding="utf-8"?>
<!-- Generator: Adobe Illustrator 16.0.0, SVG Export Plug-In . SVG Version: 6.00 Build 0)  -->
<!DOCTYPE svg PUBLIC "-//W3C//DTD SVG 1.0//EN" "http://www.w3.org/TR/2001/REC-SVG-20010904/DTD/svg10.dtd">
<svg version="1.0" xmlns="http://www.w3.org/2000/svg" xmlns:xlink="http://www.w3.org/1999/xlink" x="0px" y="0px" width="100px"
	 height="100px" viewBox="0 0 100 100" enable-background="new 0 0 100 100" xml:space="preserve">
<g id="Layer_3">
</g>
<g id="Your_Icon">
</g>
<g id="Layer_4">
	<g>
		<polygon fill="none" points="19.195,63.172 37.895,82.063 89.3,29.171 71.326,12.2 		"/>
		<polygon fill="none" points="13.475,68.766 12.8,69.425 10.8,89.125 30.935,89.225 32.317,87.802 		"/>
		<path d="M94.792,23.354L76.818,6.383C75.275,4.927,73.301,4.2,71.326,4.2c-2.021,0-4.04,0.761-5.593,2.28L7.207,63.705
			c-1.34,1.31-2.177,3.048-2.366,4.912l-2,19.7c-0.228,2.244,0.502,4.48,2.01,6.157c1.509,1.677,3.654,2.527,5.909,2.538L30.895,97
			c0.014,0,0.027,0,0.04,0c2.161,0,4.23-0.762,5.737-2.312L95.037,34.69c1.492-1.536,2.307-3.578,2.261-5.72
			C97.252,26.83,96.35,24.824,94.792,23.354z M10.8,89.125l2-19.7l0.675-0.66l18.843,19.036l-1.383,1.423L10.8,89.125z
			 M37.895,82.063L19.195,63.172L71.326,12.2L89.3,29.171L37.895,82.063z"/>
	</g>
</g>
</svg>
