<?xml version="1.0" encoding="utf-8"?>
<!-- Generator: Adobe Illustrator 16.0.0, SVG Export Plug-In . SVG Version: 6.00 Build 0)  -->
<!DOCTYPE svg PUBLIC "-//W3C//DTD SVG 1.1//EN" "http://www.w3.org/Graphics/SVG/1.1/DTD/svg11.dtd">
<svg version="1.1" xmlns="http://www.w3.org/2000/svg" xmlns:xlink="http://www.w3.org/1999/xlink" x="0px" y="0px" width="100px"
	 height="100px" viewBox="0 0 100 100" enable-background="new 0 0 100 100" xml:space="preserve">
<g id="Layer_3" display="none">
</g>
<g id="Your_Icon">
</g>
<g id="Layer_4">
	<g>
		<path d="M82.252,5.997c-0.001-2.069-1.277-3.924-3.209-4.665c-1.931-0.74-4.121-0.216-5.506,1.321L48.002,31H27.275
			C17.672,31,10.267,37.965,9.9,47.219c-0.006,0.175,0.1,2.698,0.1,2.877v0.296c0,0.872-0.114,3.186-0.108,3.353
			C10.265,63.259,17.997,71,27.266,71h21.162l25.256,26.453C74.646,98.461,75.96,99,77.301,99c0.626,0,1.257-0.117,1.86-0.359
			c1.896-0.761,3.14-2.6,3.139-4.644L82.252,5.997z M19.894,47.595C20.045,43.773,23.084,41,27.275,41h22.952
			c1.417,0,2.767-0.601,3.715-1.653l18.316-20.333l0.034,62.502L54.184,62.547C53.24,61.56,51.934,61,50.567,61H27.266
			c-3.899,0-7.219-3.502-7.379-7.549"/>
	</g>
</g>
</svg>
