<?xml version="1.0" encoding="utf-8"?>
<!-- Generator: Adobe Illustrator 16.0.0, SVG Export Plug-In . SVG Version: 6.00 Build 0)  -->
<!DOCTYPE svg PUBLIC "-//W3C//DTD SVG 1.0//EN" "http://www.w3.org/TR/2001/REC-SVG-20010904/DTD/svg10.dtd">
<svg version="1.0" xmlns="http://www.w3.org/2000/svg" xmlns:xlink="http://www.w3.org/1999/xlink" x="0px" y="0px" width="100px"
	 height="100px" viewBox="0 0 100 100" enable-background="new 0 0 100 100" xml:space="preserve">
<g id="Layer_3">
</g>
<g id="Your_Icon">
</g>
<g id="Layer_4">
	<path d="M49.068,60.353c16.023,0,29.016,13.989,29.016,31.247H20.052C20.052,74.342,33.045,60.353,49.068,60.353 M49.068,52.353
		c-20.411,0-37.016,17.606-37.016,39.247c0,4.418,3.582,8,8,8h58.032c4.418,0,8-3.582,8-8
		C86.084,69.959,69.479,52.353,49.068,52.353L49.068,52.353z"/>
	<path d="M49.067,12.6c6.871,0,12.436,5.565,12.436,12.435c0,6.87-5.565,12.436-12.436,12.436c-6.869,0-12.434-5.565-12.434-12.436
		C36.633,18.165,42.199,12.6,49.067,12.6 M49.067,4.6c-11.268,0-20.434,9.167-20.434,20.435c0,11.269,9.167,20.436,20.434,20.436
		c11.269,0,20.436-9.167,20.436-20.436C69.503,13.767,60.336,4.6,49.067,4.6L49.067,4.6z"/>
</g>
</svg>
