<?xml version="1.0" encoding="utf-8"?>
<!-- Generator: Adobe Illustrator 16.0.0, SVG Export Plug-In . SVG Version: 6.00 Build 0)  -->
<!DOCTYPE svg PUBLIC "-//W3C//DTD SVG 1.0//EN" "http://www.w3.org/TR/2001/REC-SVG-20010904/DTD/svg10.dtd">
<svg version="1.0" xmlns="http://www.w3.org/2000/svg" xmlns:xlink="http://www.w3.org/1999/xlink" x="0px" y="0px" width="100px"
	 height="100px" viewBox="0 0 100 100" enable-background="new 0 0 100 100" xml:space="preserve">
<g id="Layer_3">
</g>
<g id="Your_Icon">
</g>
<g id="Layer_4">
	<g>
		<path d="M96,19H71.661L66.89,8.546C66.298,6.997,64.812,6,63.153,6H36.677c-1.669,0-3.162,1.01-3.747,2.573L28.274,19H4
			c-2.209,0-4,1.791-4,4v72.999c0,1.062,0.422,2.081,1.173,2.831C1.923,99.578,2.94,100,4,100c0.001,0,0.003,0,0.004,0l92-0.1
			c2.208-0.002,3.996-1.793,3.996-4V23C100,20.791,98.209,19,96,19z M92,91.904L8,91.995V27h23.049c1.669,0,3.162-1.01,3.747-2.573
			L39.452,14H60.4l4.771,10.454C65.763,26.003,67.249,27,68.907,27H92V91.904z"/>
		<g>
			<path fill="none" d="M50,42.637c-7.368,0-13.363,5.993-13.363,13.363S42.632,69.363,50,69.363S63.363,63.37,63.363,56
				S57.368,42.637,50,42.637z"/>
			<path d="M50,35c-11.579,0-21,9.42-21,21s9.421,21,21,21s21-9.42,21-21S61.579,35,50,35z M50,69c-7.167,0-13-5.83-13-13
				s5.833-13,13-13s13,5.83,13,13S57.167,69,50,69z"/>
		</g>
	</g>
</g>
</svg>
