<?xml version="1.0" encoding="utf-8"?>
<!-- Generator: Adobe Illustrator 16.0.0, SVG Export Plug-In . SVG Version: 6.00 Build 0)  -->
<!DOCTYPE svg PUBLIC "-//W3C//DTD SVG 1.1//EN" "http://www.w3.org/Graphics/SVG/1.1/DTD/svg11.dtd">
<svg version="1.1" xmlns="http://www.w3.org/2000/svg" xmlns:xlink="http://www.w3.org/1999/xlink" x="0px" y="0px" width="100px"
	 height="100px" viewBox="0 0 100 100" enable-background="new 0 0 100 100" xml:space="preserve">
<g id="Layer_3" display="none">
</g>
<g id="Your_Icon">
</g>
<g id="Layer_4">
	<g>
		<path fill="#211915" d="M62,39c0,6.63-5.37,12-12,12c-6.625,0-12-5.37-12-12s5.375-12,12-12C56.63,27,62,32.37,62,39z"/>
	</g>
	<g>
		<path fill="none" d="M50,10c-15.465,0-28,13.431-28,30c0,16.568,28,49,28,49s28-32.432,28-49C78,23.431,65.465,10,50,10z"/>
		<path fill="#211915" d="M50,0C29.047,0,12,17.944,12,40c0,9.059,5.155,20.958,15.76,36.379
			c7.229,10.511,14.37,18.808,14.67,19.156C44.33,97.735,47.093,99,50,99s5.67-1.265,7.569-3.465
			c0.3-0.348,7.442-8.645,14.67-19.156C82.845,60.958,88,49.059,88,40C88,17.944,70.953,0,50,0z M50,89c0,0-28-32.432-28-49
			c0-16.569,12.535-30,28-30s28,13.431,28,30C78,56.568,50,89,50,89z"/>
	</g>
</g>
</svg>
