<?xml version="1.0" encoding="utf-8"?>
<!-- Generator: Adobe Illustrator 16.0.0, SVG Export Plug-In . SVG Version: 6.00 Build 0)  -->
<!DOCTYPE svg PUBLIC "-//W3C//DTD SVG 1.1//EN" "http://www.w3.org/Graphics/SVG/1.1/DTD/svg11.dtd">
<svg version="1.1" xmlns="http://www.w3.org/2000/svg" xmlns:xlink="http://www.w3.org/1999/xlink" x="0px" y="0px" width="100px"
	 height="100px" viewBox="0 0 100 100" enable-background="new 0 0 100 100" xml:space="preserve">
<g id="Layer_3" display="none">
</g>
<g id="Your_Icon">
</g>
<g id="Layer_4">
	<g>
		<path fill="#211915" d="M50,43.999c-8.271,0-15,6.729-15,15.001v42h10V59c0-2.757,2.243-5.001,5-5.001s5,2.244,5,5.001v42h10V59
			C65,50.728,58.271,43.999,50,43.999z"/>
		<g>
			<path fill="#211915" d="M49,23.954c5.516,0,10-4.483,10-9.996c0-5.521-4.484-10.004-10-10.004S39,8.438,39,13.958
				C39,19.471,43.484,23.954,49,23.954z"/>
		</g>
		<path fill="#211915" d="M71.7,4c0,14-10.317,25.146-23,25.146S25.7,18,25.7,4h-10c0,20,14.804,35.146,33,35.146S81.7,24,81.7,4
			H71.7z"/>
	</g>
</g>
</svg>
