<?xml version="1.0" encoding="utf-8"?>
<!-- Generator: Adobe Illustrator 16.0.0, SVG Export Plug-In . SVG Version: 6.00 Build 0)  -->
<!DOCTYPE svg PUBLIC "-//W3C//DTD SVG 1.1//EN" "http://www.w3.org/Graphics/SVG/1.1/DTD/svg11.dtd">
<svg version="1.1" xmlns="http://www.w3.org/2000/svg" xmlns:xlink="http://www.w3.org/1999/xlink" x="0px" y="0px" width="100px"
	 height="100px" viewBox="0 0 100 100" enable-background="new 0 0 100 100" xml:space="preserve">
<g id="Layer_3" display="none">
</g>
<g id="Your_Icon">
</g>
<g id="Layer_4">
	<path fill="#211915" d="M35.951,70.001L17.451,70C8.015,70,0.334,62.618-0.035,53.195c-0.006-0.166-0.006-2.121-0.004-2.908
		l0-0.288c0-0.178,0.007-3.002,0.013-3.177c0.374-9.442,8.054-16.823,17.487-16.823h23.5v10h-23.5c-4.043,0-7.334,3.162-7.494,7.197
		c-0.003,0.249-0.006,2.646-0.006,2.803l0,0.305c-0.001,0.679-0.004,2.314,0,2.595C10.115,56.839,13.407,60,17.451,60l18.5,0.001
		L35.951,70.001z"/>
	<rect x="28" y="45" fill="#211915" width="44" height="10"/>
	<path fill="#211915" d="M64.012,70.001l-0.001-10L82.512,60c4.043,0,7.334-3.161,7.492-7.197c0.002-0.228-0.002-1.828-0.003-2.497
		l0-0.307c0-0.151-0.001-2.383-0.007-2.835c-0.195-4.041-3.472-7.165-7.493-7.165H59v-10h23.5c9.436,0,17.117,7.381,17.486,16.804
		c0.008,0.175,0.014,1.264,0.014,3.196l0,0.285c0.006,2.69,0.002,2.783-0.006,2.95C99.626,62.618,91.947,70,82.512,70L64.012,70.001
		z"/>
</g>
</svg>
