<?xml version="1.0" encoding="utf-8"?>
<!-- Generator: Adobe Illustrator 16.0.0, SVG Export Plug-In . SVG Version: 6.00 Build 0)  -->
<!DOCTYPE svg PUBLIC "-//W3C//DTD SVG 1.1//EN" "http://www.w3.org/Graphics/SVG/1.1/DTD/svg11.dtd">
<svg version="1.1" xmlns="http://www.w3.org/2000/svg" xmlns:xlink="http://www.w3.org/1999/xlink" x="0px" y="0px" width="100px"
	 height="100px" viewBox="0 0 100 100" enable-background="new 0 0 100 100" xml:space="preserve">
<g id="Layer_3" display="none">
</g>
<g id="Your_Icon">
</g>
<g id="Layer_4">
	<g>
		<path fill="none" d="M49.072,18.55c-6.756,0-13.002,2.167-18.094,5.835l43.258,43.258c3.668-5.093,5.836-11.339,5.836-18.093
			C80.072,32.426,66.195,18.55,49.072,18.55z"/>
		<path fill="none" d="M23.906,31.455c-3.667,5.093-5.834,11.339-5.834,18.095c0,17.114,13.877,31,31,31
			c6.756,0,13-2.168,18.092-5.836L23.906,31.455z"/>
		<path fill="#211915" d="M49.072,8.55c-22.607,0-41,18.393-41,41s18.393,41,41,41s41-18.393,41-41S71.68,8.55,49.072,8.55z
			 M18.072,49.55c0-6.756,2.167-13.002,5.834-18.095l43.258,43.259c-5.092,3.668-11.336,5.836-18.092,5.836
			C31.949,80.55,18.072,66.664,18.072,49.55z M74.236,67.643L30.979,24.385c5.092-3.668,11.338-5.835,18.094-5.835
			c17.123,0,31,13.876,31,31C80.072,56.304,77.904,62.55,74.236,67.643z"/>
	</g>
</g>
</svg>
