<?xml version="1.0" encoding="utf-8"?>
<!-- Generator: Adobe Illustrator 16.0.0, SVG Export Plug-In . SVG Version: 6.00 Build 0)  -->
<!DOCTYPE svg PUBLIC "-//W3C//DTD SVG 1.1//EN" "http://www.w3.org/Graphics/SVG/1.1/DTD/svg11.dtd">
<svg version="1.1" xmlns="http://www.w3.org/2000/svg" xmlns:xlink="http://www.w3.org/1999/xlink" x="0px" y="0px" width="100px"
	 height="100px" viewBox="0 0 100 100" enable-background="new 0 0 100 100" xml:space="preserve">
<g id="Layer_3" display="none">
</g>
<g id="Your_Icon">
</g>
<g id="Layer_4">
	<path fill="#211915" d="M90.523,6.389c-1.945-0.734-4.267,0.086-5.642,1.648C79.573,14.07,62.755,30,49.438,30H23.103
		c-8.799,0-15.854,6.34-16.196,14.814c-0.004,0.154-0.014,5.04-0.006,5.154C7.206,57.644,13,63.815,20,65.034v1.163v3.251v17.509
		c0,7.15,6.354,12.871,14.155,13.088l3.145-0.008c7.767-0.227,13.7-5.945,13.7-13.08v-20.76v-0.739
		c12,1.854,28.34,15.652,34.094,21.204c0.951,0.918,2.179,1.402,3.45,1.402c0.659,0,1.552-0.13,2.181-0.397
		C92.572,86.883,94,85.071,94,83.065v-72C94,8.985,92.471,7.123,90.523,6.389z M41,86.957c0,1.691-1.906,3.018-4.24,3.086L34.619,90
		C32.287,90,30,88.648,30,86.957C30,70.055,30,70,30,66h11C41,66,41,86.25,41,86.957z M84,72.062
		c-9-7.175-23.375-16.816-35.367-16.816c-0.197,0-0.513,0.003-0.712,0.008c-0.504,0.014-2.577,0.029-9.302,0.029
		c-4.15,0-8.808-0.006-11.98-0.01l-3.53-0.004c-3.373,0-6.024-2.452-6.206-5.67L16.9,45.184C17.025,42.072,19.633,40,23.103,40
		h26.335C62.179,40,75,30.229,84,22.958V72.062z"/>
</g>
</svg>
