<?xml version="1.0" encoding="utf-8"?>
<!-- Generator: Adobe Illustrator 16.0.0, SVG Export Plug-In . SVG Version: 6.00 Build 0)  -->
<!DOCTYPE svg PUBLIC "-//W3C//DTD SVG 1.1//EN" "http://www.w3.org/Graphics/SVG/1.1/DTD/svg11.dtd">
<svg version="1.1" xmlns="http://www.w3.org/2000/svg" xmlns:xlink="http://www.w3.org/1999/xlink" x="0px" y="0px" width="100px"
	 height="100px" viewBox="0 0 100 100" enable-background="new 0 0 100 100" xml:space="preserve">
<g id="Layer_3" display="none">
</g>
<g id="Your_Icon">
</g>
<g id="Layer_4">
	<g>
		<path fill="#211915" d="M16.55,47H47V37H26.822c4.026-10.077,13.759-17,24.914-17C64.547,20,76,29.01,78,41.49V42h10.3
			l-0.212-1.932C84.783,22.646,69.809,10,52.049,10C39.691,10,28,16.208,22,25.885V12H12v30C12,44.761,13.789,47,16.55,47z"/>
		<path fill="#211915" d="M83.45,53H58v10h15.178c-4.026,10.077-13.759,17-24.914,17C35.453,80,24,70.99,22,58.51V58H11.8
			l0.112,1.932C15.217,77.354,30.191,90,47.951,90C60.309,90,72,83.792,78,74.115V83h10V58C88,55.238,86.211,53,83.45,53z"/>
	</g>
</g>
</svg>
