<?xml version="1.0" encoding="utf-8"?>
<!-- Generator: Adobe Illustrator 16.0.0, SVG Export Plug-In . SVG Version: 6.00 Build 0)  -->
<!DOCTYPE svg PUBLIC "-//W3C//DTD SVG 1.1//EN" "http://www.w3.org/Graphics/SVG/1.1/DTD/svg11.dtd">
<svg version="1.1" xmlns="http://www.w3.org/2000/svg" xmlns:xlink="http://www.w3.org/1999/xlink" x="0px" y="0px" width="100px"
	 height="100px" viewBox="0 0 100 100" enable-background="new 0 0 100 100" xml:space="preserve">
<g id="Layer_3" display="none">
</g>
<g id="Your_Icon">
</g>
<g id="Layer_4">
	<g>
		<path fill="none" d="M14.566,66.301l-1.662,12.252l8.92,8.401l10.9-2.262L88.527,28.93L70.496,10.898L14.566,66.301z
			 M77.363,29.085L32.915,72.363l-6.278-6.448l44.448-43.278L77.363,29.085z"/>
		<path d="M95.599,21.858L77.567,3.827c-1.952-1.952-4.512-2.929-7.071-2.929c-2.544,0-5.088,0.964-7.037,2.896L7.529,59.196
			c-1.566,1.551-2.576,3.576-2.872,5.76L1.563,87.757c-0.437,3.216,0.715,6.444,3.089,8.658c1.869,1.744,4.313,2.687,6.82,2.687
			c0.676,0,23.283-4.618,23.283-4.618c1.908-0.396,3.659-1.34,5.037-2.718l55.803-55.763c1.877-1.875,2.932-4.419,2.932-7.072
			C98.527,26.279,97.475,23.734,95.599,21.858z M32.725,84.692l-10.9,2.262l-8.92-8.401l1.662-12.252l55.93-55.402L88.527,28.93
			L32.725,84.692z"/>
		<rect x="20.981" y="43" transform="matrix(-0.7165 0.6976 -0.6976 -0.7165 122.3933 45.2565)" width="62.038" height="9"/>
	</g>
</g>
</svg>
