<?xml version="1.0" encoding="utf-8"?>
<!-- Generator: Adobe Illustrator 16.0.0, SVG Export Plug-In . SVG Version: 6.00 Build 0)  -->
<!DOCTYPE svg PUBLIC "-//W3C//DTD SVG 1.1//EN" "http://www.w3.org/Graphics/SVG/1.1/DTD/svg11.dtd">
<svg version="1.1" xmlns="http://www.w3.org/2000/svg" xmlns:xlink="http://www.w3.org/1999/xlink" x="0px" y="0px" width="62px"
	 height="100px" viewBox="0 0 62 100" enable-background="new 0 0 62 100" xml:space="preserve">
<g id="Layer_3" display="none">
</g>
<g id="Your_Icon">
</g>
<g id="Layer_4">
	<path fill="none" stroke="#000000" stroke-width="10" stroke-linejoin="round" stroke-miterlimit="10" d="M36.986,99.5"/>
	<g>
		<rect x="43" y="10" width="10" height="90"/>
		<path fill="#211915" d="M20.999,0C9.972,0,1,8.972,1,20s8.972,20,19.999,20H25v-0.5V30h-4.001C15.485,30,11,25.514,11,20
			s4.485-10,9.999-10H25h10h8h10h8V0H20.999z"/>
		<path d="M20.999,10C15.485,10,11,14.486,11,20s4.485,10,9.999,10H25v9.5V40v60h10V34.5V10H25H20.999z"/>
	</g>
</g>
</svg>
