<?xml version="1.0" encoding="utf-8"?>
<!-- Generator: Adobe Illustrator 16.0.0, SVG Export Plug-In . SVG Version: 6.00 Build 0)  -->
<!DOCTYPE svg PUBLIC "-//W3C//DTD SVG 1.0//EN" "http://www.w3.org/TR/2001/REC-SVG-20010904/DTD/svg10.dtd">
<svg version="1.0" xmlns="http://www.w3.org/2000/svg" xmlns:xlink="http://www.w3.org/1999/xlink" x="0px" y="0px" width="100px"
	 height="100px" viewBox="0 0 100 100" enable-background="new 0 0 100 100" xml:space="preserve">
<g id="Layer_3">
</g>
<g id="Your_Icon">
</g>
<g id="Layer_4">
	<g>
		<rect y="92" fill="#030104" width="100" height="8"/>
		<path fill="#030104" d="M28,8c0-2.209-1.791-4-4-4H4C1.791,4,0,5.791,0,8v71c0,2.209,1.791,4,4,4h20c2.209,0,4-1.791,4-4V8z M8,12
			h12v63H8V12z"/>
		<path fill="#030104" d="M64,27c0-2.209-1.791-4-4-4H40c-2.209,0-4,1.791-4,4v52c0,2.209,1.791,4,4,4h20c2.209,0,4-1.791,4-4V27z
			 M44,31h12v44H44V31z"/>
		<path fill="#030104" d="M100,52c0-2.209-1.791-4-4-4H76c-2.209,0-4,1.791-4,4v27c0,2.209,1.791,4,4,4h20c2.209,0,4-1.791,4-4V52z
			 M92,75H80V56h12V75z"/>
	</g>
</g>
</svg>
