<?xml version="1.0" encoding="utf-8"?>
<!-- Generator: Adobe Illustrator 16.0.0, SVG Export Plug-In . SVG Version: 6.00 Build 0)  -->
<!DOCTYPE svg PUBLIC "-//W3C//DTD SVG 1.1//EN" "http://www.w3.org/Graphics/SVG/1.1/DTD/svg11.dtd">
<svg version="1.1" xmlns="http://www.w3.org/2000/svg" xmlns:xlink="http://www.w3.org/1999/xlink" x="0px" y="0px" width="100px"
	 height="100px" viewBox="0 0 100 100" enable-background="new 0 0 100 100" xml:space="preserve">
<g id="Layer_3" display="none">
</g>
<g id="Your_Icon">
</g>
<g id="Layer_4">
	<g>
		<path fill="#211915" d="M52.875,79.095c-1.04-0.016-8.463-0.125-12.561-0.156c-0.537-3.4-0.436-10.938,0.389-17.988
			c0.165-1.406-0.3-2.817-1.235-3.882c-0.935-1.063-2.29-1.682-3.707-1.699l-8.265-0.1c3.642-7,8.206-16.88,8.206-22.4
			c0-12.387,15.506-22.935,28.2-22.935C78.783,9.935,89.9,22,89.9,33h5h5c0-18-16.822-33.065-36-33.065
			c-17.666,0-38.201,14.382-38.201,32.968c0,3.689-5.67,15.724-10.923,24.771c-0.893,1.537-0.902,3.424-0.024,4.97
			c0.877,1.546,2.51,2.507,4.287,2.528l11.133,0.133c-0.9,11.24,0.019,18.441,2.744,21.443c1.315,1.448,3.298,2.242,5.169,2.186
			C38.968,88.921,43,88.965,48,89.023V99h10v-7.701v-7.205C58,81.361,55.606,79.135,52.875,79.095z"/>
		<circle fill="#211915" cx="57.301" cy="41.393" r="10"/>
	</g>
</g>
</svg>
