<?xml version="1.0" encoding="utf-8"?>
<!-- Generator: Adobe Illustrator 16.0.0, SVG Export Plug-In . SVG Version: 6.00 Build 0)  -->
<!DOCTYPE svg PUBLIC "-//W3C//DTD SVG 1.1//EN" "http://www.w3.org/Graphics/SVG/1.1/DTD/svg11.dtd">
<svg version="1.1" xmlns="http://www.w3.org/2000/svg" xmlns:xlink="http://www.w3.org/1999/xlink" x="0px" y="0px" width="100px"
	 height="100px" viewBox="0 0 100 100" enable-background="new 0 0 100 100" xml:space="preserve">
<g id="Layer_3" display="none">
</g>
<g id="Your_Icon">
</g>
<g id="Layer_4">
	<g>
		<ellipse fill="none" cx="68.798" cy="18.133" rx="9.092" ry="9.648"/>
		<path fill="none" d="M72.771,42.355c-0.049-0.006-0.096-0.055-0.145-0.06C71.341,42.156,70.031,42,68.7,42
			c-0.001,0-0.002,0-0.003,0c-8.893,0-16.89,3.256-22.505,9.016c-0.042,0.042-0.098,0.174-0.139,0.221
			C46.047,51.243,46,51.252,46,51.259v0.03c3,1.241,6.628,2.975,9.525,5.051c3.442-2.493,7.923-3.752,13.18-3.752
			c-5.257,0-9.703,1.138-13.146,3.631c-2.892-2.072-6.072-3.742-9.473-4.982c0.041-0.047,0.08-0.103,0.122-0.145
			c5.614-5.759,13.601-8.938,22.491-8.939c1.331,0,2.641,0.08,3.926,0.22c0.049,0.005,0.096,0.016,0.145,0.021
			c7.245,0.848,13.685,3.941,18.426,8.808c5.448,5.592,8.46,13.882,8.499,22.529c0-0.024,0.003-0.177,0.003-0.201
			c0-8.711-3.021-16.836-8.504-22.465C86.455,46.199,80.014,43.177,72.771,42.355z"/>
		<path fill="none" d="M68.96,74c0.063,0,0.127,0.322,0.189,0.484C70.296,77.498,71.11,80,71.566,84c-0.456-4-1.27-6.986-2.417-10
			H68.96z"/>
		<path fill="#211915" d="M72.771,42.394c-0.049-0.006-0.096-0.017-0.145-0.021c-1.285-0.14-2.596-0.22-3.926-0.22
			c-8.891,0.001-16.877,3.181-22.491,8.939c-0.042,0.042-0.081,0.098-0.122,0.145c3.4,1.24,6.581,2.91,9.473,4.982
			c3.442-2.493,7.889-3.631,13.146-3.631c12.861,0,20.963,8.383,20.992,21.343C89.699,73.938,89.7,73.958,89.7,74h-0.019H69.149
			c1.147,3.014,1.961,6,2.417,10H89.7c5.498,0,9.957-4.78,9.996-10.27c-0.039-8.647-3.051-16.938-8.499-22.529
			C86.456,46.335,80.016,43.241,72.771,42.394z"/>
		<path fill="#211915" d="M77.854,33.073c4.817-3.125,8.036-8.645,8.036-14.94c0-9.73-7.668-17.648-17.093-17.648
			c-9.424,0-17.091,7.918-17.091,17.648c0,6.275,3.197,11.78,7.987,14.91c2.639,1.725,5.756,2.738,9.104,2.738
			C72.125,35.781,75.224,34.778,77.854,33.073z M59.706,18.133c0-5.326,4.069-9.648,9.091-9.648c5.023,0,9.093,4.322,9.093,9.648
			c0,5.33-4.069,9.648-9.093,9.648C63.775,27.781,59.706,23.463,59.706,18.133z"/>
		<path fill="#211915" d="M31.005,58.63c-8.893,0-16.881,3.172-22.496,8.932C3.022,73.191,0,81.189,0,89.9
			C0,95.422,4.478,100,10,100h42c5.522,0,10-4.578,10-10.1c0-8.711-3.02-16.707-8.503-22.336
			C47.885,61.803,39.897,58.63,31.005,58.63z M10,90c0-13,8.119-21.17,21.005-21.17C43.89,68.83,52,77,52,90H10z"/>
		<g>
			<ellipse fill="none" cx="31.097" cy="34.618" rx="9.091" ry="9.648"/>
			<path fill="#211915" d="M31.097,16.97c-9.424,0-17.091,7.917-17.091,17.648c0,6.274,3.197,11.78,7.987,14.91
				c2.64,1.725,5.756,2.738,9.104,2.738c8.532,0,15.604-6.495,16.871-14.945c0.132-0.884,0.222-1.781,0.222-2.703
				C48.189,24.887,40.521,16.97,31.097,16.97z M31.097,44.267c-5.021,0-9.091-4.318-9.091-9.648c0-5.326,4.069-9.648,9.091-9.648
				c5.023,0,9.093,4.322,9.093,9.648C40.189,39.948,36.12,44.267,31.097,44.267z"/>
		</g>
	</g>
</g>
</svg>
