<?xml version="1.0" encoding="utf-8"?>
<!-- Generator: Adobe Illustrator 16.0.0, SVG Export Plug-In . SVG Version: 6.00 Build 0)  -->
<!DOCTYPE svg PUBLIC "-//W3C//DTD SVG 1.0//EN" "http://www.w3.org/TR/2001/REC-SVG-20010904/DTD/svg10.dtd">
<svg version="1.0" xmlns="http://www.w3.org/2000/svg" xmlns:xlink="http://www.w3.org/1999/xlink" x="0px" y="0px" width="100px"
	 height="100px" viewBox="0 0 100 100" enable-background="new 0 0 100 100" xml:space="preserve">
<g id="Layer_3">
</g>
<g id="Your_Icon">
</g>
<g id="Layer_4">
	<g>
		<path fill="none" d="M43.373,52.029C29.568,52.029,18.2,64,18.2,79H48v-0.101v-8.007V67h3.761H64v-3.571
			C59,56.506,51.83,52.029,43.373,52.029z"/>
		<path fill="none" d="M43.199,32.262c5.92,0,10.715-4.794,10.715-10.714c0-5.918-4.795-10.713-10.715-10.713
			c-5.918,0-10.714,4.795-10.714,10.713C32.485,27.468,37.281,32.262,43.199,32.262z"/>
		<path d="M48,83.107V79H18.2c0-15,11.368-26.971,25.173-26.971C51.83,52.029,59,56.506,64,63.429V55v-3.475
			c-6-4.719-12.906-7.547-20.627-7.547c-18.195,0-33.086,15.715-33.086,34.971c0,4.418,3.495,8.051,7.913,8.051H48v-0.101V83.107z"
			/>
		<path d="M43.199,40.262c10.319,0,18.715-8.395,18.715-18.714c0-10.318-8.396-18.713-18.715-18.713s-18.714,8.395-18.714,18.713
			C24.485,31.867,32.88,40.262,43.199,40.262z M43.199,10.835c5.92,0,10.715,4.795,10.715,10.713c0,5.92-4.795,10.714-10.715,10.714
			c-5.918,0-10.714-4.794-10.714-10.714C32.485,15.63,37.281,10.835,43.199,10.835z"/>
		<polygon points="80,55 68,55 68,71 52,71 52,83 68,83 68,99 80,99 80,83 96,83 96,71 80,71 		"/>
	</g>
</g>
</svg>
