<?xml version="1.0" encoding="utf-8"?>
<!-- Generator: Adobe Illustrator 16.0.0, SVG Export Plug-In . SVG Version: 6.00 Build 0)  -->
<!DOCTYPE svg PUBLIC "-//W3C//DTD SVG 1.1//EN" "http://www.w3.org/Graphics/SVG/1.1/DTD/svg11.dtd">
<svg version="1.1" xmlns="http://www.w3.org/2000/svg" xmlns:xlink="http://www.w3.org/1999/xlink" x="0px" y="0px" width="100px"
	 height="100px" viewBox="0 0 100 100" enable-background="new 0 0 100 100" xml:space="preserve">
<g id="Layer_3" display="none">
</g>
<g id="Your_Icon">
</g>
<g id="Layer_4">
	<g>
		<path d="M87,47H15c-2.762,0-5,2.539-5,5.3v43c0,1.327,0.527,2.449,1.466,3.387C12.403,99.624,13.675,100,15,100
			c0.002,0,0.003,0,0.005,0h72C89.765,99.998,92,97.995,92,95.235V52.3C92,49.539,89.762,47,87,47z M82,90H20V57h62V90z"/>
	</g>
	<path fill="#211915" d="M28,43.2H18V32.513c0-17.231,14.804-31.25,33-31.25c18.505,0,33,13.266,33,30.2v5H74v-5
		c0-11.516-9.888-20.2-23-20.2c-12.683,0-23,9.533-23,21.25V43.2z"/>
</g>
</svg>
