<?xml version="1.0" encoding="utf-8"?>
<!-- Generator: Adobe Illustrator 16.0.0, SVG Export Plug-In . SVG Version: 6.00 Build 0)  -->
<!DOCTYPE svg PUBLIC "-//W3C//DTD SVG 1.1//EN" "http://www.w3.org/Graphics/SVG/1.1/DTD/svg11.dtd">
<svg version="1.1" xmlns="http://www.w3.org/2000/svg" xmlns:xlink="http://www.w3.org/1999/xlink" x="0px" y="0px" width="100px"
	 height="100px" viewBox="0 0 100 100" enable-background="new 0 0 100 100" xml:space="preserve">
<g id="Layer_3" display="none">
</g>
<g id="Your_Icon">
</g>
<g id="Layer_4">
	<g>
		<path fill="none" d="M45.903,52.506c5.351,0,9.704-4.352,9.704-9.7c0-5.352-4.353-9.706-9.704-9.706
			c-5.35,0-9.703,4.354-9.703,9.706C36.2,48.154,40.553,52.506,45.903,52.506z"/>
		<path fill="none" d="M20,90h60V10H20V90z M45.903,23.1c10.865,0,19.704,8.84,19.704,19.706c0,3.95-1.18,7.625-3.191,10.713
			l15.555,15.809l-7.128,7.014L55.017,60.255c-2.728,1.431-5.825,2.251-9.113,2.251c-10.864,0-19.703-8.838-19.703-19.7
			C26.2,31.939,35.039,23.1,45.903,23.1z"/>
		<path d="M85,0H15c-2.761,0-5,2.238-5,5v90c0,2.762,2.239,5,5,5h70c2.761,0,5-2.238,5-5V5C90,2.238,87.761,0,85,0z M80,90H20V10h60
			V90z"/>
		<path fill="#211915" d="M45.903,62.506c3.289,0,6.385-0.82,9.113-2.251l15.827,16.086l7.128-7.014L62.417,53.519
			c2.011-3.088,3.191-6.763,3.191-10.713c0-10.866-8.839-19.706-19.704-19.706c-10.864,0-19.703,8.84-19.703,19.706
			C26.2,53.668,35.039,62.506,45.903,62.506z M45.903,33.1c5.351,0,9.704,4.354,9.704,9.706c0,5.349-4.353,9.7-9.704,9.7
			c-5.35,0-9.703-4.352-9.703-9.7C36.2,37.454,40.553,33.1,45.903,33.1z"/>
	</g>
</g>
</svg>
