<?xml version="1.0" encoding="utf-8"?>
<!-- Generator: Adobe Illustrator 16.0.0, SVG Export Plug-In . SVG Version: 6.00 Build 0)  -->
<!DOCTYPE svg PUBLIC "-//W3C//DTD SVG 1.1//EN" "http://www.w3.org/Graphics/SVG/1.1/DTD/svg11.dtd">
<svg version="1.1" xmlns="http://www.w3.org/2000/svg" xmlns:xlink="http://www.w3.org/1999/xlink" x="0px" y="0px" width="100px"
	 height="100px" viewBox="0 0 100 100" enable-background="new 0 0 100 100" xml:space="preserve">
<g id="Layer_3" display="none">
</g>
<g id="Your_Icon">
</g>
<g id="Layer_4">
	<g>
		<path d="M39.403,80.089c0.022,0.019,0.047,0.034,0.068,0.053c-0.022-0.02-0.044-0.039-0.067-0.059L39.403,80.089z"/>
		<path d="M76.092,55.464l-30.896-8.229l3.456-19.604c-0.734,0.103-1.475,0.17-2.212,0.17c-2.748,0-5.348-0.708-7.628-1.948
			l-3.328,18.876l-9.477-2.445c0.241,3.517-0.771,6.893-2.695,9.633l10.43,2.691l-3.065,17.386c0.79-0.118,1.588-0.192,2.382-0.192
			h0.001c2.687,0,5.231,0.68,7.476,1.87l2.919-16.558l30.792,8.203C73.706,61.885,74.354,58.443,76.092,55.464z"/>
	</g>
	<path d="M40.66,94.489c-4.085,4.116-10.729,4.149-14.85,0.066c-4.121-4.079-4.148-10.726-0.069-14.846
		c4.088-4.12,10.729-4.149,14.852-0.072C44.712,83.721,44.738,90.372,40.66,94.489z"/>
	<path d="M96.26,70.892c-4.085,4.116-10.729,4.149-14.85,0.066c-4.121-4.079-4.148-10.726-0.069-14.846
		c4.088-4.12,10.729-4.149,14.853-0.072C100.312,60.123,100.338,66.774,96.26,70.892z"/>
	<path d="M53.96,20.592c-4.085,4.116-10.729,4.149-14.85,0.066c-4.121-4.079-4.148-10.726-0.069-14.846
		c4.088-4.12,10.729-4.149,14.852-0.072C58.012,9.823,58.038,16.475,53.96,20.592z"/>
	<path d="M18.46,50.592c-4.085,4.116-10.729,4.149-14.85,0.066c-4.121-4.079-4.148-10.726-0.069-14.846
		c4.088-4.12,10.729-4.149,14.852-0.072C22.512,39.823,22.538,46.475,18.46,50.592z"/>
</g>
</svg>
