<?xml version="1.0" encoding="utf-8"?>
<!-- Generator: Adobe Illustrator 16.0.0, SVG Export Plug-In . SVG Version: 6.00 Build 0)  -->
<!DOCTYPE svg PUBLIC "-//W3C//DTD SVG 1.1//EN" "http://www.w3.org/Graphics/SVG/1.1/DTD/svg11.dtd">
<svg version="1.1" xmlns="http://www.w3.org/2000/svg" xmlns:xlink="http://www.w3.org/1999/xlink" x="0px" y="0px" width="100px"
	 height="100px" viewBox="0 0 100 100" enable-background="new 0 0 100 100" xml:space="preserve">
<g id="Layer_3" display="none">
</g>
<g id="Your_Icon">
</g>
<g id="Layer_4">
	<g>
		<path fill="none" d="M73.683,32.588c-1.08,0-2.524,0.611-4.14,1.832c4.279,12.009,3.56,14.331,1.143,16.394
			C69.042,52.22,67.056,52,66.382,52c-0.005,0-0.011,0-0.016,0c-2.98,0-8.636-1.203-12.499-2.291c-0.069-0.02-0.143,0.19-0.21,0.171
			c0.068,0.019,0.141,0.04,0.21,0.059l-0.764,0.939c-0.028-0.023-0.067-0.051-0.096-0.075c-1.123,1.731-1.481,3.238-1.051,4.498
			c2.196,6.426,19.792,11.926,33.963,14.478C84.35,51.167,79.269,32.588,73.683,32.588z"/>
		<path d="M53.497,39.411c0.344,0.105,0.708,0.21,1.065,0.316c-5.498-3.437-14.85-8.064-23.835-6.794
			c-3.751,0.531-7.128,2.065-10.003,4.471c-3.58-6.097-6.544-11.904-7.7-16.696c-0.415-1.722,0.241-3.841,1.795-5.815
			C16.918,12.227,20,10.218,23,10.218V10c2.645,0,5.213,1.221,7.073,3.04C31.904,14.832,33,17.424,33,19.944V25h10v-5.056
			c0-5.233-2.163-10.364-5.934-14.053C33.326,2.232,28.274,0,23.001,0c-0.002,0-0.003,0-0.007,0C17.122,0,10.978,3.387,6.961,8.487
			c-3.464,4.397-4.797,9.736-3.659,14.456c2.22,9.205,9.058,20.132,15.671,30.647c5.781,9.192,11.76,18.726,13.777,25.862
			c0.619,2.192-0.873,4.721-1.543,5.606C29.109,87.832,25.625,90,22.733,90c0,0-0.001,0-0.001,0c-5.419,0-9.83-4.483-9.832-9.728
			l-0.002-5.109l-10-0.05l0.002,5.19C2.904,91.06,11.799,100,22.729,100c0.001,0,0.003,0,0.006,0c6.003,0,12.458-3.623,16.447-8.894
			c3.324-4.393,4.488-9.651,3.192-14.238c-2.409-8.522-8.494-18.25-14.936-28.493c-0.463-0.737-0.928-1.503-1.391-2.242
			c1.689-1.845,3.683-2.957,6.061-3.296c3.927-0.563,8.466,0.864,12.403,2.741c0.992-1.575,2.286-3.218,3.989-4.921
			C49.807,39.349,51.73,38.869,53.497,39.411z"/>
		<path d="M53.867,49.939c-0.069-0.02-0.143-0.04-0.21-0.059c-0.243,0.315-0.454,0.622-0.65,0.923
			c0.029,0.023,0.068,0.052,0.096,0.075L53.867,49.939z"/>
		<path fill="#211915" d="M93.259,50.629C91.846,43.696,87.547,22.6,73.683,22.6c-4.441,0-8.865,2.236-13.526,6.836
			c-1.405,1.387-1.862,3.47-1.167,5.318c0.796,2.118,1.649,4.589,2.33,6.747c-2.112-0.505-4.532-1.162-6.757-1.82
			c-0.357-0.105-0.722-0.211-1.065-0.316c-1.767-0.542-3.69-0.062-4.997,1.246c-1.703,1.703-2.997,3.346-3.989,4.921
			c-3.355,5.329-3.083,9.843-2.018,12.958c5.437,15.908,41.084,21.221,48.175,22.124c0.211,0.027,0.422,0.04,0.632,0.04
			c1.244,0,2.453-0.465,3.381-1.316c1.084-0.996,1.675-2.418,1.615-3.889C96.275,74.943,95.758,62.894,93.259,50.629z
			 M51.956,55.256c-0.431-1.26,1.842-5.589,1.911-5.57C57.73,50.774,63.386,52,66.366,52c0.005,0,0.01,0,0.016,0
			c0.674,0,2.66,0.197,4.305-1.209c2.417-2.062,3.136-4.396-1.143-16.405c1.616-1.221,3.06-1.837,4.14-1.837
			c5.585,0,10.667,18.576,12.236,37.188C71.748,67.185,54.152,61.682,51.956,55.256z"/>
	</g>
</g>
</svg>
