<?xml version="1.0" encoding="utf-8"?>
<!-- Generator: Adobe Illustrator 16.0.0, SVG Export Plug-In . SVG Version: 6.00 Build 0)  -->
<!DOCTYPE svg PUBLIC "-//W3C//DTD SVG 1.1//EN" "http://www.w3.org/Graphics/SVG/1.1/DTD/svg11.dtd">
<svg version="1.1" xmlns="http://www.w3.org/2000/svg" xmlns:xlink="http://www.w3.org/1999/xlink" x="0px" y="0px" width="100px"
	 height="100px" viewBox="0 0 100 100" enable-background="new 0 0 100 100" xml:space="preserve">
<g id="Layer_3" display="none">
</g>
<g id="Your_Icon">
</g>
<g id="Layer_4">
	<g>
		<path fill="#FFFFFF" d="M10,89.5l80-0.087V20H10V89.5z M35,32.2c0-1.93,1.127-3.687,2.869-4.516
			c1.744-0.829,3.821-0.58,5.319,0.638l28,22.785c1.166,0.949,1.843,2.374,1.843,3.878s-0.679,2.929-1.845,3.878L43.185,81.648
			c-0.909,0.74-2.032,1.122-3.161,1.122c-0.729,0-1.471-0.159-2.154-0.484C36.127,81.457,35,79.7,35,77.771V32.2z"/>
		<path d="M90,10H10c-5.522,0-10,3.978-10,9.5v70c0,2.654,1.055,5.449,2.933,7.325C4.808,98.698,7.35,100,10,100
			c0.004,0,0.007,0,0.011,0h79.793C95.322,99.994,100,94.932,100,89.413V19.5C100,13.978,95.522,10,90,10z M90,89.413L10,89.5V20h80
			V89.413z"/>
		<polygon fill="#FFFFFF" points="45,42.715 45,67.256 60.078,54.985 		"/>
		<path d="M37.869,82.286c0.684,0.325,1.426,0.484,2.154,0.484c1.129,0,2.252-0.382,3.161-1.122l28.002-22.785
			c1.166-0.949,1.845-2.374,1.845-3.878s-0.677-2.929-1.843-3.878l-28-22.785c-1.498-1.218-3.575-1.467-5.319-0.638
			C36.127,28.514,35,30.271,35,32.2v45.57C35,79.7,36.127,81.457,37.869,82.286z M45,42.715l15.078,12.271L45,67.256V42.715z"/>
	</g>
</g>
</svg>
