<?xml version="1.0" encoding="utf-8"?>
<!-- Generator: Adobe Illustrator 16.0.0, SVG Export Plug-In . SVG Version: 6.00 Build 0)  -->
<!DOCTYPE svg PUBLIC "-//W3C//DTD SVG 1.1//EN" "http://www.w3.org/Graphics/SVG/1.1/DTD/svg11.dtd">
<svg version="1.1" xmlns="http://www.w3.org/2000/svg" xmlns:xlink="http://www.w3.org/1999/xlink" x="0px" y="0px" width="100px"
	 height="100px" viewBox="0 0 100 100" enable-background="new 0 0 100 100" xml:space="preserve">
<g id="Layer_3" display="none">
</g>
<g id="Your_Icon">
</g>
<g id="Layer_4">
	<g>
		<path fill="none" d="M13.103,90h73.795L50,16.453L13.103,90z M55,82H45V71h10V82z M55,66H45V42h10V66z"/>
		<rect x="45" y="42" fill="#211915" width="10" height="24"/>
		<rect x="45" y="71" fill="#211915" width="10" height="11"/>
		<path fill="#211915" d="M99.469,92.606l-45-89.697C53.621,1.219,51.892,0.151,50,0.151s-3.621,1.067-4.469,2.758l-45,89.697
			c-0.778,1.55-0.697,3.468,0.214,4.944C1.655,99.026,3.266,100,5,100h90c1.734,0,3.345-0.974,4.255-2.45
			C100.166,96.074,100.247,94.156,99.469,92.606z M13.103,90L50,16.453L86.897,90H13.103z"/>
	</g>
</g>
</svg>
