<?xml version="1.0" encoding="utf-8"?>
<!-- Generator: Adobe Illustrator 16.0.0, SVG Export Plug-In . SVG Version: 6.00 Build 0)  -->
<!DOCTYPE svg PUBLIC "-//W3C//DTD SVG 1.1//EN" "http://www.w3.org/Graphics/SVG/1.1/DTD/svg11.dtd">
<svg version="1.1" xmlns="http://www.w3.org/2000/svg" xmlns:xlink="http://www.w3.org/1999/xlink" x="0px" y="0px" width="100px"
	 height="100px" viewBox="0 0 100 100" enable-background="new 0 0 100 100" xml:space="preserve">
<g id="Layer_3" display="none">
</g>
<g id="Your_Icon">
</g>
<g id="Layer_4">
	<g>
		<path fill="none" d="M64.366,31.691c0.099,0.157,0.192,0.318,0.282,0.482C64.558,32.009,64.465,31.848,64.366,31.691z"/>
		<path fill="none" d="M64.826,32.505c0.087,0.172,0.166,0.35,0.243,0.528C64.992,32.854,64.913,32.677,64.826,32.505z"/>
		<path fill="none" d="M63.833,30.926c0.112,0.146,0.222,0.296,0.326,0.449C64.055,31.222,63.945,31.072,63.833,30.926z"/>
		<path fill="none" d="M65.211,33.366c0.078,0.199,0.145,0.404,0.21,0.61C65.355,33.77,65.289,33.565,65.211,33.366z"/>
		<path fill="none" d="M63.225,30.207c0.13,0.14,0.259,0.282,0.381,0.43C63.482,30.488,63.354,30.347,63.225,30.207z"/>
		<path fill="none" d="M48.81,44.044c0.146,0.146,0.299,0.285,0.453,0.422C49.108,44.329,48.955,44.19,48.81,44.044z"/>
		<path fill="none" d="M65.517,34.271c0.088,0.309,0.163,0.624,0.222,0.946C65.68,34.895,65.604,34.58,65.517,34.271z"/>
		<path fill="none" d="M50.189,45.206c-0.244-0.17-0.48-0.353-0.709-0.544C49.709,44.854,49.945,45.036,50.189,45.206z"/>
		<path fill="none" d="M62.528,29.527c0.158,0.139,0.313,0.281,0.463,0.43C62.842,29.808,62.687,29.667,62.528,29.527z"/>
		<path fill="none" d="M58.27,27.292c0.181,0.044,0.358,0.094,0.535,0.148C58.628,27.386,58.45,27.336,58.27,27.292z"/>
		<path fill="none" d="M6.17,20.288c-0.128-0.138-0.255-0.278-0.375-0.423C5.915,20.01,6.042,20.15,6.17,20.288z"/>
		<path fill="none" d="M56.405,27.022c0.19,0.01,0.38,0.021,0.567,0.042C56.785,27.043,56.596,27.031,56.405,27.022z"/>
		<path fill="none" d="M57.354,27.114c0.183,0.027,0.365,0.058,0.545,0.095C57.719,27.172,57.536,27.141,57.354,27.114z"/>
		<path fill="none" d="M59.155,27.551c0.181,0.062,0.359,0.133,0.536,0.206C59.515,27.685,59.337,27.614,59.155,27.551z"/>
		<path fill="none" d="M60.821,28.3c0.53,0.3,1.031,0.648,1.499,1.039C61.853,28.948,61.352,28.6,60.821,28.3z"/>
		<path fill="none" d="M60.008,27.888c0.192,0.087,0.38,0.184,0.566,0.283C60.388,28.072,60.2,27.976,60.008,27.888z"/>
		<path fill="none" d="M4.572,17.992c-0.086-0.17-0.164-0.346-0.24-0.523C4.408,17.646,4.486,17.821,4.572,17.992z"/>
		<path fill="none" d="M16.755,4.051c0.181,0.062,0.359,0.133,0.536,0.206C17.114,4.185,16.937,4.114,16.755,4.051z"/>
		<path fill="none" d="M21.966,8.191c0.099,0.157,0.192,0.318,0.282,0.482C22.157,8.509,22.064,8.348,21.966,8.191z"/>
		<path fill="none" d="M17.607,4.388c0.192,0.087,0.38,0.184,0.566,0.283C17.987,4.572,17.8,4.476,17.607,4.388z"/>
		<path fill="none" d="M15.869,3.792c0.181,0.044,0.358,0.094,0.535,0.148C16.228,3.886,16.05,3.836,15.869,3.792z"/>
		<path fill="none" d="M21.433,7.426c0.112,0.146,0.222,0.296,0.326,0.449C21.654,7.722,21.545,7.572,21.433,7.426z"/>
		<path fill="none" d="M20.128,6.027c0.158,0.139,0.313,0.281,0.463,0.43C20.441,6.308,20.286,6.167,20.128,6.027z"/>
		<path fill="none" d="M14.953,3.614c0.183,0.027,0.365,0.058,0.545,0.095C15.318,3.672,15.136,3.641,14.953,3.614z"/>
		<path fill="none" d="M20.824,6.707c0.13,0.14,0.259,0.282,0.381,0.43C21.082,6.988,20.954,6.847,20.824,6.707z"/>
		<path fill="none" d="M14.005,3.522c0.19,0.01,0.38,0.021,0.567,0.042C14.385,3.543,14.195,3.531,14.005,3.522z"/>
		<path fill="none" d="M4.188,17.131c-0.077-0.198-0.144-0.402-0.208-0.606C4.045,16.729,4.111,16.933,4.188,17.131z"/>
		<path fill="none" d="M55.909,27c-0.169,0-0.34,0.014-0.51,0.022c0.211-0.01,0.422-0.02,0.631-0.017
			C55.989,27.005,55.95,27,55.909,27z"/>
		<path fill="none" d="M5.032,18.806c-0.099-0.156-0.19-0.316-0.28-0.478C4.842,18.49,4.934,18.65,5.032,18.806z"/>
		<path fill="none" d="M5.564,19.571c-0.111-0.146-0.22-0.294-0.323-0.446C5.345,19.278,5.453,19.426,5.564,19.571z"/>
		<path fill="none" d="M3.884,16.226c-0.087-0.309-0.162-0.624-0.221-0.946C3.722,15.603,3.797,15.917,3.884,16.226z"/>
		<path fill="none" d="M13.509,3.5c-0.169,0-0.34,0.014-0.51,0.022c0.211-0.01,0.422-0.02,0.631-0.017
			C13.589,3.505,13.55,3.5,13.509,3.5z"/>
		<path fill="none" d="M11.717,3.661c0.321-0.058,0.643-0.098,0.962-0.124C12.359,3.563,12.038,3.603,11.717,3.661z"/>
		<path fill="none" d="M18.421,4.8c0.53,0.3,1.031,0.648,1.499,1.039C19.452,5.448,18.951,5.1,18.421,4.8z"/>
		<path fill="none" d="M86.005,16.522c0.19,0.01,0.38,0.021,0.567,0.042C86.385,16.543,86.195,16.531,86.005,16.522z"/>
		<path fill="none" d="M83.717,16.661c0.321-0.058,0.643-0.098,0.962-0.124C84.359,16.563,84.038,16.603,83.717,16.661z"/>
		<path fill="none" d="M54.117,27.161c0.321-0.058,0.643-0.098,0.962-0.124C54.76,27.063,54.438,27.103,54.117,27.161z"/>
		<path fill="none" d="M75.884,29.226c-0.087-0.309-0.162-0.624-0.221-0.946C75.722,28.603,75.797,28.917,75.884,29.226z"/>
		<path fill="none" d="M87.869,16.792c0.181,0.044,0.358,0.094,0.535,0.148C88.228,16.886,88.05,16.836,87.869,16.792z"/>
		<path fill="none" d="M88.755,17.051c0.181,0.062,0.359,0.133,0.536,0.206C89.114,17.185,88.937,17.114,88.755,17.051z"/>
		<path fill="none" d="M86.953,16.614c0.183,0.027,0.365,0.058,0.545,0.095C87.318,16.672,87.136,16.641,86.953,16.614z"/>
		<path fill="none" d="M89.607,17.388c0.192,0.087,0.38,0.184,0.566,0.283C89.987,17.572,89.8,17.476,89.607,17.388z"/>
		<path fill="none" d="M76.188,30.131c-0.077-0.198-0.144-0.402-0.208-0.606C76.045,29.729,76.111,29.933,76.188,30.131z"/>
		<path fill="none" d="M79.789,34.706c-0.244-0.17-0.48-0.353-0.709-0.544C79.309,34.354,79.545,34.536,79.789,34.706z"/>
		<path fill="none" d="M78.862,33.966c-0.154-0.137-0.308-0.275-0.453-0.422C78.555,33.69,78.708,33.829,78.862,33.966z"/>
		<path fill="none" d="M76.572,30.992c-0.086-0.17-0.164-0.346-0.24-0.523C76.408,30.646,76.486,30.821,76.572,30.992z"/>
		<path fill="none" d="M77.032,31.806c-0.099-0.156-0.19-0.316-0.28-0.478C76.842,31.49,76.934,31.65,77.032,31.806z"/>
		<path fill="none" d="M77.564,32.571c-0.111-0.146-0.22-0.294-0.323-0.446C77.345,32.278,77.453,32.426,77.564,32.571z"/>
		<path fill="none" d="M78.17,33.288c-0.128-0.138-0.255-0.278-0.375-0.423C77.915,33.01,78.042,33.15,78.17,33.288z"/>
		<path fill="none" d="M85.509,16.5c-0.169,0-0.34,0.014-0.51,0.022c0.211-0.01,0.422-0.02,0.631-0.017
			C85.589,16.505,85.55,16.5,85.509,16.5z"/>
		<path fill="none" d="M47.965,43.071c-0.111-0.146-0.22-0.294-0.323-0.446C47.745,42.778,47.854,42.926,47.965,43.071z"/>
		<path fill="none" d="M80.504,35.154c-0.239-0.138-0.475-0.281-0.701-0.438c0.228,0.157,0.462,0.305,0.701,0.443V35.154z"/>
		<path fill="none" d="M47.433,42.306c-0.099-0.156-0.19-0.316-0.28-0.478C47.242,41.99,47.334,42.15,47.433,42.306z"/>
		<path fill="none" d="M48.57,43.788c-0.128-0.138-0.255-0.278-0.375-0.423C48.315,43.51,48.442,43.65,48.57,43.788z"/>
		<path fill="none" d="M46.284,39.726c-0.087-0.309-0.162-0.624-0.221-0.946C46.122,39.103,46.197,39.417,46.284,39.726z"/>
		<path fill="none" d="M46.589,40.631c-0.077-0.198-0.144-0.402-0.208-0.606C46.445,40.229,46.512,40.433,46.589,40.631z"/>
		<path fill="none" d="M46.973,41.492c-0.086-0.17-0.164-0.346-0.24-0.523C46.809,41.146,46.887,41.321,46.973,41.492z"/>
		<path fill="none" d="M92.824,19.707c0.13,0.14,0.259,0.282,0.381,0.43C93.082,19.988,92.954,19.847,92.824,19.707z"/>
		<path fill="none" d="M93.433,20.426c0.112,0.146,0.222,0.296,0.326,0.449C93.654,20.722,93.545,20.572,93.433,20.426z"/>
		<path fill="none" d="M95.116,23.771c0.088,0.309,0.163,0.624,0.222,0.946C95.279,24.395,95.204,24.08,95.116,23.771z"/>
		<path fill="none" d="M92.128,19.027c0.158,0.139,0.313,0.281,0.463,0.43C92.441,19.308,92.286,19.167,92.128,19.027z"/>
		<path fill="none" d="M90.421,17.8c0.53,0.3,1.031,0.648,1.499,1.039C91.452,18.448,90.951,18.1,90.421,17.8z"/>
		<path fill="none" d="M93.966,21.191c0.099,0.157,0.192,0.318,0.282,0.482C94.157,21.509,94.064,21.348,93.966,21.191z"/>
		<path fill="none" d="M94.811,22.866c0.078,0.199,0.145,0.404,0.21,0.61C94.955,23.27,94.889,23.065,94.811,22.866z"/>
		<path fill="none" d="M94.426,22.005c0.087,0.172,0.166,0.35,0.243,0.528C94.592,22.354,94.513,22.177,94.426,22.005z"/>
		<path fill="none" d="M28.884,90.726c-0.087-0.309-0.162-0.623-0.221-0.945C28.722,90.103,28.797,90.417,28.884,90.726z"/>
		<path fill="none" d="M82.275,86.195c-0.239-0.167-0.47-0.345-0.693-0.532C81.806,85.851,82.036,86.028,82.275,86.195z"/>
		<path fill="none" d="M83.073,86.698c-0.264-0.149-0.521-0.31-0.77-0.481C82.553,86.389,82.81,86.549,83.073,86.698z"/>
		<path fill="none" d="M83.888,87.109c-0.186-0.084-0.365-0.177-0.545-0.271C83.522,86.933,83.702,87.025,83.888,87.109z"/>
		<path fill="none" d="M80.666,84.784c-0.126-0.137-0.251-0.274-0.37-0.418C80.415,84.51,80.54,84.647,80.666,84.784z"/>
		<path fill="none" d="M79.53,83.304c-0.097-0.154-0.188-0.312-0.276-0.474C79.342,82.991,79.434,83.149,79.53,83.304z"/>
		<path fill="none" d="M81.354,85.459c-0.15-0.135-0.301-0.27-0.443-0.413C81.054,85.189,81.204,85.324,81.354,85.459z"/>
		<path fill="none" d="M84.738,87.446c-0.176-0.061-0.348-0.129-0.52-0.199C84.391,87.317,84.562,87.386,84.738,87.446z"/>
		<path fill="none" d="M80.062,84.068c-0.11-0.144-0.218-0.29-0.32-0.44C79.845,83.778,79.952,83.925,80.062,84.068z"/>
		<path fill="none" d="M89.781,87.839c-0.321,0.058-0.641,0.098-0.959,0.124C89.141,87.937,89.46,87.896,89.781,87.839z"/>
		<path fill="none" d="M45.593,80.959c-0.065-0.065-0.133-0.13-0.2-0.194l-0.002,0.006C45.457,80.834,45.528,80.894,45.593,80.959z"
			/>
		<path fill="none" d="M22.426,9.005c0.087,0.172,0.166,0.35,0.243,0.528C22.592,9.354,22.513,9.177,22.426,9.005z"/>
		<path fill="none" d="M87.492,87.978c-0.188-0.009-0.377-0.021-0.564-0.041C87.115,87.957,87.304,87.969,87.492,87.978z"/>
		<path fill="none" d="M86.542,87.885c-0.181-0.026-0.36-0.057-0.537-0.093C86.183,87.828,86.361,87.858,86.542,87.885z"/>
		<path fill="none" d="M85.625,87.707c-0.176-0.043-0.351-0.093-0.523-0.145C85.274,87.614,85.449,87.664,85.625,87.707z"/>
		<path fill="none" d="M87.99,88c0.167,0,0.336-0.014,0.504-0.022c-0.209,0.011-0.418,0.02-0.626,0.017
			C87.909,87.995,87.949,88,87.99,88z"/>
		<path fill="none" d="M29.188,91.631c-0.076-0.197-0.143-0.4-0.207-0.604C29.045,91.23,29.111,91.434,29.188,91.631z"/>
		<path fill="none" d="M96.926,73.504c0.087,0.173,0.166,0.352,0.244,0.531C97.092,73.855,97.013,73.677,96.926,73.504z"/>
		<path fill="none" d="M96.464,72.688c0.1,0.159,0.194,0.322,0.286,0.488C96.658,73.01,96.563,72.848,96.464,72.688z"/>
		<path fill="none" d="M79.071,82.49c-0.085-0.17-0.163-0.344-0.238-0.52C78.908,82.146,78.986,82.32,79.071,82.49z"/>
		<path fill="none" d="M90.91,68.441c-0.135-0.041-0.27-0.084-0.406-0.119v0.007C90.641,68.364,90.776,68.4,90.91,68.441z"/>
		<path fill="none" d="M97.616,75.271c0.088,0.309,0.163,0.624,0.222,0.946C97.779,75.895,97.704,75.579,97.616,75.271z"/>
		<path fill="none" d="M95.93,71.922c0.114,0.148,0.225,0.3,0.331,0.456C96.154,72.222,96.044,72.07,95.93,71.922z"/>
		<path fill="none" d="M97.311,74.365c0.078,0.2,0.146,0.406,0.211,0.612C97.456,74.771,97.389,74.565,97.311,74.365z"/>
		<path fill="none" d="M91.251,68.55c0.186,0.064,0.368,0.137,0.55,0.211C91.619,68.687,91.438,68.614,91.251,68.55z"/>
		<path fill="none" d="M78.384,80.726c-0.087-0.309-0.162-0.623-0.221-0.945C78.222,80.103,78.297,80.417,78.384,80.726z"/>
		<path fill="none" d="M78.688,81.631c-0.076-0.197-0.143-0.4-0.207-0.604C78.545,81.23,78.611,81.434,78.688,81.631z"/>
		<path fill="none" d="M94.616,70.516c0.163,0.144,0.323,0.289,0.477,0.443C94.939,70.805,94.779,70.659,94.616,70.516z"/>
		<path fill="none" d="M95.318,71.199c0.133,0.144,0.264,0.289,0.389,0.439C95.582,71.487,95.451,71.343,95.318,71.199z"/>
		<path fill="none" d="M92.918,69.298c0.532,0.301,1.035,0.65,1.504,1.043C93.953,69.948,93.45,69.599,92.918,69.298z"/>
		<path fill="none" d="M92.103,68.887c0.201,0.09,0.396,0.19,0.59,0.294C92.498,69.077,92.304,68.977,92.103,68.887z"/>
		<path fill="none" d="M29.571,92.49c-0.085-0.17-0.163-0.344-0.238-0.52C29.408,92.146,29.486,92.32,29.571,92.49z"/>
		<path fill="none" d="M47.426,83.504c0.087,0.173,0.166,0.352,0.244,0.531C47.592,83.855,47.513,83.677,47.426,83.504z"/>
		<path fill="none" d="M46.964,82.688c0.1,0.159,0.194,0.322,0.286,0.488C47.158,83.01,47.063,82.848,46.964,82.688z"/>
		<path fill="none" d="M47.811,84.365c0.078,0.2,0.146,0.406,0.211,0.612C47.956,84.771,47.889,84.565,47.811,84.365z"/>
		<path fill="none" d="M46.43,81.922c0.114,0.148,0.225,0.3,0.331,0.456C46.654,82.222,46.544,82.07,46.43,81.922z"/>
		<path fill="none" d="M38.49,98c0.167,0,0.336-0.014,0.504-0.022c-0.209,0.011-0.418,0.02-0.626,0.017
			C38.409,97.995,38.449,98,38.49,98z"/>
		<path fill="none" d="M45.818,81.199c0.133,0.144,0.264,0.289,0.389,0.439C46.082,81.487,45.951,81.343,45.818,81.199z"/>
		<path fill="none" d="M37.992,97.978c-0.188-0.009-0.377-0.021-0.564-0.041C37.615,97.957,37.804,97.969,37.992,97.978z"/>
		<path fill="none" d="M40.281,97.839c-0.321,0.058-0.641,0.098-0.959,0.124C39.641,97.937,39.96,97.896,40.281,97.839z"/>
		<path fill="none" d="M48.116,85.271c0.088,0.309,0.163,0.624,0.222,0.946C48.279,85.895,48.204,85.579,48.116,85.271z"/>
		<path fill="none" d="M23.116,10.771c0.088,0.309,0.163,0.624,0.222,0.946C23.279,11.395,23.204,11.08,23.116,10.771z"/>
		<path fill="none" d="M10.24,22.947c-0.178-0.062-0.352-0.13-0.524-0.201C9.889,22.817,10.062,22.886,10.24,22.947z"/>
		<path fill="none" d="M22.811,9.866c0.078,0.199,0.145,0.404,0.21,0.61C22.955,10.27,22.889,10.065,22.811,9.866z"/>
		<path fill="none" d="M9.389,22.61c-0.188-0.084-0.37-0.179-0.551-0.275C9.02,22.431,9.201,22.525,9.389,22.61z"/>
		<path fill="none" d="M6.409,20.544c0.146,0.146,0.299,0.285,0.453,0.422C6.708,20.829,6.555,20.69,6.409,20.544z"/>
		<path fill="none" d="M7.789,21.706c-0.244-0.17-0.48-0.353-0.709-0.544C7.309,21.354,7.545,21.536,7.789,21.706z"/>
		<path fill="none" d="M8.574,22.199c-0.264-0.15-0.522-0.31-0.771-0.482C8.052,21.889,8.311,22.049,8.574,22.199z"/>
		<path fill="none" d="M34.388,97.109c-0.186-0.084-0.365-0.177-0.545-0.271C34.022,96.933,34.202,97.025,34.388,97.109z"/>
		<path fill="none" d="M32.775,96.195c-0.239-0.167-0.47-0.345-0.693-0.532C32.306,95.851,32.536,96.028,32.775,96.195z"/>
		<path fill="none" d="M30.03,93.304c-0.097-0.154-0.188-0.312-0.276-0.474C29.842,92.991,29.934,93.149,30.03,93.304z"/>
		<path fill="none" d="M33.573,96.698c-0.264-0.149-0.521-0.31-0.77-0.481C33.053,96.389,33.31,96.549,33.573,96.698z"/>
		<path fill="none" d="M31.854,95.459c-0.15-0.135-0.301-0.27-0.443-0.413C31.554,95.189,31.704,95.324,31.854,95.459z"/>
		<path fill="none" d="M31.166,94.784c-0.126-0.137-0.251-0.274-0.37-0.418C30.915,94.51,31.04,94.647,31.166,94.784z"/>
		<path fill="none" d="M30.562,94.068c-0.11-0.144-0.218-0.29-0.32-0.44C30.345,93.778,30.452,93.925,30.562,94.068z"/>
		<path fill="none" d="M36.125,97.707c-0.176-0.043-0.351-0.093-0.523-0.145C35.774,97.614,35.949,97.664,36.125,97.707z"/>
		<path fill="none" d="M35.238,97.446c-0.176-0.061-0.348-0.129-0.52-0.199C34.891,97.317,35.062,97.386,35.238,97.446z"/>
		<path fill="none" d="M37.042,97.885c-0.181-0.026-0.36-0.057-0.537-0.093C36.683,97.828,36.861,97.858,37.042,97.885z"/>
		<path d="M85.684,65.209C86.451,65.07,87.233,65,88.009,65h0.249C89.109,65,90,65.089,91,65.247V38.49
			c-1,0.354-1.995,0.63-2.938,0.801c-0.768,0.139-1.425,0.209-2.2,0.209c-1.76,0-3.862-0.363-4.862-1.006v24.07L64.807,46.669
			c-1.731,1.556-4.014,2.677-6.468,3.122C57.571,49.93,56.729,50,55.953,50c-2.529,0-4.935-0.737-6.951-2.009L38.957,70.64
			L21.421,23.796c-1.593,1.229-3.49,2.112-5.603,2.495c-0.768,0.139-1.551,0.209-2.326,0.209c-0.608,0-1.206-0.054-1.794-0.136
			L30.836,77.51c1.568-1.146,3.379-1.944,5.348-2.301C36.951,75.07,37.733,75,38.509,75h0.001c3.065,0,5.911,1.076,8.156,2.891
			l10.733-24.238l18.856,18.797c0.304-0.639,0.648-1.263,1.06-1.856C79.293,67.74,82.265,65.828,85.684,65.209z"/>
		<path d="M81,35.159c1,0.859,2.95,1.341,4.738,1.341c0.59,0,1.065-0.052,1.667-0.161c5.432-0.984,8.979-6.186,7.995-11.622
			c-0.059-0.322-0.165-0.637-0.253-0.946c-0.028-0.1-0.08-0.196-0.111-0.294c-0.065-0.206-0.14-0.411-0.218-0.61
			c-0.044-0.113-0.098-0.222-0.146-0.333c-0.077-0.178-0.158-0.355-0.245-0.528c-0.057-0.112-0.118-0.222-0.179-0.332
			c-0.09-0.164-0.185-0.325-0.282-0.482c-0.068-0.107-0.138-0.212-0.208-0.316c-0.104-0.153-0.214-0.302-0.326-0.449
			c-0.075-0.098-0.149-0.195-0.228-0.29c-0.122-0.148-0.251-0.29-0.381-0.43c-0.078-0.083-0.153-0.169-0.233-0.25
			c-0.149-0.149-0.305-0.291-0.463-0.43c-0.069-0.062-0.137-0.128-0.208-0.188c-0.468-0.391-0.969-0.739-1.499-1.039
			c-0.08-0.046-0.165-0.085-0.247-0.128c-0.187-0.099-0.374-0.196-0.566-0.283c-0.104-0.047-0.211-0.087-0.316-0.131
			c-0.177-0.073-0.355-0.144-0.536-0.206c-0.116-0.04-0.233-0.076-0.351-0.111c-0.177-0.054-0.354-0.104-0.535-0.148
			c-0.123-0.03-0.246-0.058-0.371-0.083c-0.18-0.037-0.362-0.068-0.545-0.095c-0.127-0.019-0.253-0.037-0.381-0.051
			c-0.188-0.021-0.377-0.032-0.567-0.042c-0.125-0.006-0.249-0.015-0.375-0.017c-0.209-0.002-0.42,0.007-0.631,0.017
			c-0.106,0.006-0.213,0.006-0.32,0.015c-0.319,0.026-0.641,0.066-0.962,0.124c-5.436,0.984-9.043,6.186-8.054,11.619
			c0.059,0.322,0.134,0.637,0.221,0.946c0.028,0.102,0.065,0.199,0.097,0.299c0.064,0.205,0.131,0.409,0.208,0.606
			c0.044,0.114,0.095,0.225,0.144,0.337c0.076,0.177,0.154,0.353,0.24,0.523c0.057,0.114,0.118,0.225,0.18,0.336
			c0.09,0.162,0.182,0.322,0.28,0.478c0.067,0.108,0.137,0.214,0.209,0.319c0.104,0.152,0.212,0.3,0.323,0.446
			c0.075,0.099,0.151,0.198,0.23,0.293c0.12,0.146,0.247,0.285,0.375,0.423c0.079,0.086,0.157,0.173,0.239,0.256
			c0.146,0.146,0.299,0.285,0.453,0.422c0.073,0.065,0.143,0.134,0.218,0.196c0.229,0.191,0.465,0.374,0.709,0.544
			c0.005,0.003,0.257,0.007,0.262,0.01c0.227,0.157-0.051,0.3,0.949,0.438V35.159z"/>
		<path d="M7.08,21.162c0.229,0.191,0.465,0.374,0.709,0.544c0.005,0.003,0.009,0.007,0.014,0.01
			c0.249,0.173,0.508,0.333,0.771,0.482c0.086,0.048,0.176,0.09,0.264,0.136c0.181,0.096,0.363,0.19,0.551,0.275
			c0.107,0.049,0.218,0.091,0.327,0.136c0.173,0.071,0.347,0.14,0.524,0.201c1.029,0.356,2.123,0.553,3.25,0.553
			c0.59,0,1.189-0.052,1.791-0.161c5.432-0.984,9.041-6.186,8.057-11.622c-0.059-0.322-0.134-0.637-0.222-0.946
			c-0.028-0.1-0.064-0.196-0.096-0.294c-0.065-0.206-0.132-0.411-0.21-0.61c-0.044-0.113-0.094-0.222-0.142-0.333
			c-0.077-0.178-0.156-0.355-0.243-0.528c-0.057-0.112-0.117-0.222-0.178-0.332c-0.09-0.164-0.184-0.325-0.282-0.482
			c-0.067-0.107-0.137-0.212-0.207-0.316c-0.104-0.153-0.214-0.302-0.326-0.449c-0.075-0.098-0.149-0.195-0.228-0.29
			c-0.122-0.148-0.251-0.29-0.381-0.43c-0.078-0.083-0.153-0.169-0.233-0.25c-0.149-0.149-0.305-0.291-0.463-0.43
			c-0.069-0.062-0.137-0.128-0.208-0.188C19.452,5.448,18.951,5.1,18.421,4.8c-0.08-0.046-0.165-0.085-0.247-0.128
			c-0.187-0.099-0.374-0.196-0.566-0.283c-0.104-0.047-0.211-0.087-0.316-0.131c-0.177-0.073-0.355-0.144-0.536-0.206
			c-0.116-0.04-0.233-0.076-0.351-0.111c-0.177-0.054-0.354-0.104-0.535-0.148c-0.123-0.03-0.246-0.058-0.371-0.083
			c-0.18-0.037-0.362-0.068-0.545-0.095c-0.127-0.019-0.253-0.037-0.381-0.051c-0.188-0.021-0.377-0.032-0.567-0.042
			c-0.125-0.006-0.249-0.015-0.375-0.017c-0.209-0.002-0.42,0.007-0.631,0.017c-0.106,0.006-0.213,0.006-0.32,0.015
			c-0.319,0.026-0.641,0.066-0.962,0.124C6.281,4.646,2.674,9.847,3.663,15.28c0.059,0.322,0.134,0.637,0.221,0.946
			c0.028,0.102,0.065,0.199,0.097,0.299c0.064,0.205,0.131,0.409,0.208,0.606c0.044,0.114,0.095,0.225,0.144,0.337
			c0.076,0.177,0.154,0.353,0.24,0.523c0.057,0.114,0.118,0.225,0.18,0.336c0.09,0.162,0.182,0.322,0.28,0.478
			c0.067,0.108,0.137,0.214,0.209,0.319c0.104,0.152,0.212,0.3,0.323,0.446c0.075,0.099,0.151,0.198,0.23,0.293
			c0.12,0.146,0.247,0.285,0.375,0.423c0.079,0.086,0.157,0.173,0.239,0.256c0.146,0.146,0.299,0.285,0.453,0.422
			C6.936,21.031,7.005,21.1,7.08,21.162z"/>
		<path d="M38.509,78c-0.591,0-1.19,0.053-1.792,0.161c-5.436,0.984-9.043,6.186-8.054,11.619c0.059,0.322,0.134,0.637,0.221,0.945
			c0.028,0.103,0.065,0.2,0.097,0.301c0.064,0.204,0.131,0.407,0.207,0.604c0.045,0.115,0.097,0.227,0.146,0.34
			c0.075,0.176,0.153,0.35,0.238,0.52c0.058,0.115,0.12,0.228,0.183,0.34c0.088,0.161,0.18,0.319,0.276,0.474
			c0.069,0.109,0.14,0.218,0.212,0.324c0.103,0.15,0.21,0.297,0.32,0.44c0.076,0.101,0.153,0.201,0.233,0.298
			c0.119,0.144,0.244,0.281,0.37,0.418c0.082,0.088,0.161,0.177,0.245,0.262c0.143,0.144,0.293,0.278,0.443,0.413
			c0.076,0.067,0.149,0.139,0.228,0.204c0.224,0.188,0.454,0.365,0.693,0.532c0.01,0.007,0.019,0.015,0.028,0.021
			c0.249,0.172,0.506,0.332,0.77,0.481c0.088,0.05,0.18,0.092,0.27,0.14c0.18,0.095,0.359,0.188,0.545,0.271
			c0.108,0.05,0.221,0.093,0.331,0.138c0.172,0.07,0.344,0.139,0.52,0.199c0.12,0.042,0.242,0.079,0.363,0.116
			c0.173,0.052,0.348,0.102,0.523,0.145c0.126,0.03,0.252,0.059,0.38,0.085c0.177,0.036,0.356,0.066,0.537,0.093
			c0.128,0.02,0.257,0.038,0.386,0.052c0.188,0.021,0.376,0.032,0.564,0.041c0.125,0.007,0.25,0.016,0.376,0.017
			c0.208,0.003,0.417-0.006,0.626-0.017c0.109-0.006,0.218-0.006,0.328-0.015c0.318-0.026,0.638-0.066,0.959-0.124
			c5.432-0.984,9.041-6.186,8.057-11.622c-0.059-0.322-0.134-0.638-0.222-0.946c-0.028-0.1-0.064-0.194-0.095-0.293
			c-0.065-0.206-0.133-0.412-0.211-0.612c-0.044-0.112-0.094-0.221-0.141-0.33c-0.078-0.18-0.157-0.358-0.244-0.531
			c-0.057-0.111-0.116-0.22-0.176-0.328c-0.092-0.166-0.187-0.329-0.286-0.488c-0.066-0.104-0.134-0.208-0.203-0.31
			c-0.106-0.156-0.217-0.308-0.331-0.456c-0.073-0.096-0.146-0.19-0.223-0.283c-0.125-0.15-0.256-0.296-0.389-0.439
			c-0.075-0.08-0.147-0.162-0.226-0.24c-0.064-0.065-0.136-0.125-0.202-0.188l0.002-0.006C43.572,79.032,41.123,77.999,38.509,78z"
			/>
		<path d="M49.48,44.662c0.229,0.191,0.465,0.374,0.709,0.544C51.829,46.347,53.809,47,55.891,47c0.59,0,1.189-0.052,1.791-0.161
			c5.432-0.984,9.041-6.186,8.057-11.622c-0.059-0.322-0.134-0.637-0.222-0.946c-0.028-0.1-0.064-0.196-0.096-0.294
			c-0.065-0.206-0.132-0.411-0.21-0.61c-0.044-0.113-0.094-0.222-0.142-0.333c-0.077-0.178-0.156-0.355-0.243-0.528
			c-0.057-0.112-0.117-0.222-0.178-0.332c-0.09-0.164-0.184-0.325-0.282-0.482c-0.067-0.107-0.137-0.212-0.207-0.316
			c-0.104-0.153-0.214-0.302-0.326-0.449c-0.075-0.098-0.149-0.195-0.228-0.29c-0.122-0.148-0.251-0.29-0.381-0.43
			c-0.078-0.083-0.153-0.169-0.233-0.25c-0.149-0.149-0.305-0.291-0.463-0.43c-0.069-0.062-0.137-0.128-0.208-0.188
			c-0.468-0.391-0.969-0.739-1.499-1.039c-0.08-0.046-0.165-0.085-0.247-0.128c-0.187-0.099-0.374-0.196-0.566-0.283
			c-0.104-0.047-0.211-0.087-0.316-0.131c-0.177-0.073-0.355-0.144-0.536-0.206c-0.116-0.04-0.233-0.076-0.351-0.111
			c-0.177-0.054-0.354-0.104-0.535-0.148c-0.123-0.03-0.246-0.058-0.371-0.083c-0.18-0.037-0.362-0.068-0.545-0.095
			c-0.127-0.019-0.253-0.037-0.381-0.051c-0.188-0.021-0.377-0.032-0.567-0.042c-0.125-0.006-0.249-0.015-0.375-0.017
			c-0.209-0.002-0.42,0.007-0.631,0.017c-0.106,0.006-0.213,0.006-0.32,0.015c-0.319,0.026-0.641,0.066-0.962,0.124
			c-5.436,0.984-9.043,6.186-8.054,11.619c0.059,0.322,0.134,0.637,0.221,0.946c0.028,0.102,0.065,0.199,0.097,0.299
			c0.064,0.205,0.131,0.409,0.208,0.606c0.044,0.114,0.095,0.225,0.144,0.337c0.076,0.177,0.154,0.353,0.24,0.523
			c0.057,0.114,0.118,0.225,0.18,0.336c0.09,0.162,0.182,0.322,0.28,0.478c0.067,0.108,0.137,0.214,0.209,0.319
			c0.104,0.152,0.212,0.3,0.323,0.446c0.075,0.099,0.151,0.198,0.23,0.293c0.12,0.146,0.247,0.285,0.375,0.423
			c0.079,0.086,0.157,0.173,0.239,0.256c0.146,0.146,0.299,0.285,0.453,0.422C49.336,44.531,49.405,44.6,49.48,44.662z"/>
		<path d="M97.616,75.271c-0.028-0.1-0.064-0.194-0.095-0.293c-0.065-0.206-0.133-0.412-0.211-0.612
			c-0.044-0.112-0.094-0.221-0.141-0.33c-0.078-0.18-0.157-0.358-0.244-0.531c-0.057-0.111-0.116-0.22-0.176-0.328
			c-0.092-0.166-0.187-0.329-0.286-0.488c-0.066-0.104-0.134-0.208-0.203-0.31c-0.106-0.156-0.217-0.308-0.331-0.456
			c-0.073-0.096-0.146-0.19-0.223-0.283c-0.125-0.15-0.256-0.296-0.389-0.439c-0.075-0.08-0.147-0.162-0.226-0.24
			c-0.153-0.154-0.313-0.3-0.477-0.443c-0.065-0.058-0.127-0.119-0.194-0.175c-0.469-0.393-0.972-0.742-1.504-1.043
			c-0.074-0.042-0.151-0.077-0.226-0.117c-0.194-0.104-0.389-0.204-0.59-0.294c-0.099-0.045-0.201-0.084-0.302-0.126
			c-0.182-0.074-0.364-0.146-0.55-0.211c-0.112-0.039,0.021-0.073-0.093-0.108C91.024,68.4,91,68.364,91,68.329v-0.007
			C90,68.113,89.111,68,88.257,68c-0.591,0-1.314,0.053-1.916,0.161c-5.436,0.984-9.104,6.186-8.116,11.619
			c0.059,0.322,0.104,0.637,0.19,0.945c0.028,0.103,0.05,0.2,0.081,0.301c0.064,0.204,0.123,0.407,0.199,0.604
			c0.045,0.115,0.093,0.227,0.142,0.34c0.075,0.176,0.151,0.35,0.236,0.52c0.058,0.115,0.119,0.228,0.182,0.34
			c0.088,0.161,0.179,0.319,0.276,0.474c0.068,0.109,0.139,0.218,0.211,0.324c0.103,0.15,0.21,0.297,0.32,0.44
			c0.076,0.101,0.153,0.201,0.233,0.298c0.119,0.144,0.244,0.281,0.37,0.418c0.082,0.088,0.161,0.177,0.245,0.262
			c0.143,0.144,0.293,0.278,0.443,0.413c0.076,0.067,0.149,0.139,0.228,0.204c0.224,0.188,0.454,0.365,0.693,0.532
			c0.01,0.007,0.019,0.015,0.028,0.021c0.249,0.172,0.506,0.332,0.77,0.481c0.088,0.05,0.18,0.092,0.27,0.14
			c0.18,0.095,0.359,0.188,0.545,0.271c0.108,0.05,0.221,0.093,0.331,0.138c0.172,0.07,0.344,0.139,0.52,0.199
			c0.12,0.042,0.242,0.079,0.363,0.116c0.173,0.052,0.348,0.102,0.523,0.145c0.126,0.03,0.252,0.059,0.38,0.085
			c0.177,0.036,0.356,0.066,0.537,0.093c0.128,0.02,0.257,0.038,0.386,0.052c0.188,0.021,0.376,0.032,0.564,0.041
			c0.125,0.007,0.25,0.016,0.376,0.017c0.208,0.003,0.417-0.006,0.626-0.017c0.109-0.006,0.218-0.006,0.328-0.015
			c0.318-0.026,0.638-0.066,0.959-0.124c5.432-0.984,9.041-6.186,8.057-11.622C97.779,75.895,97.704,75.579,97.616,75.271z"/>
	</g>
</g>
</svg>
