<?xml version="1.0" encoding="utf-8"?>
<!-- Generator: Adobe Illustrator 16.0.0, SVG Export Plug-In . SVG Version: 6.00 Build 0)  -->
<!DOCTYPE svg PUBLIC "-//W3C//DTD SVG 1.0//EN" "http://www.w3.org/TR/2001/REC-SVG-20010904/DTD/svg10.dtd">
<svg version="1.0" xmlns="http://www.w3.org/2000/svg" xmlns:xlink="http://www.w3.org/1999/xlink" x="0px" y="0px" width="100px"
	 height="100px" viewBox="0 0 100 100" enable-background="new 0 0 100 100" xml:space="preserve">
<g id="Layer_3">
</g>
<g id="Your_Icon">
</g>
<g id="Layer_4">
	<g>
		<path d="M44.238,46.506l2.417-13.708c-2.673,0.406-5.447-0.051-7.88-1.384l-2.165,12.28l-10.898-4.019
			c0.161,2.724-0.571,5.453-2.122,7.744l11.609,4.28l-2.733,15.502c2.674-0.405,5.449,0.052,7.88,1.385l2.481-14.073L74.307,66.12
			c0.235-2.687,1.332-5.28,3.217-7.34L44.238,46.506z"/>
		<g>
			<path d="M7.478,32.261c-4.509,3.189-5.58,9.422-2.393,13.936c3.188,4.51,9.426,5.581,13.935,2.388
				c4.51-3.186,5.581-9.425,2.393-13.934C18.225,30.144,11.985,29.069,7.478,32.261z"/>
		</g>
		<g>
			<circle cx="86.75" cy="67.199" r="9.997"/>
		</g>
		<g>
			<path d="M51.873,27.494c3.884-3.921,3.859-10.253-0.064-14.142c-3.926-3.883-10.252-3.855-14.142,0.068
				c-3.885,3.922-3.859,10.253,0.066,14.136C41.655,31.445,47.985,31.415,51.873,27.494z"/>
		</g>
		<g>
			<path d="M27.246,72.506c-3.886,3.926-3.857,10.256,0.069,14.139c3.92,3.891,10.251,3.859,14.14-0.062
				c3.885-3.922,3.859-10.254-0.067-14.139C37.465,68.557,31.137,68.582,27.246,72.506z"/>
		</g>
	</g>
</g>
</svg>
