<?xml version="1.0" encoding="utf-8"?>
<!-- Generator: Adobe Illustrator 16.0.0, SVG Export Plug-In . SVG Version: 6.00 Build 0)  -->
<!DOCTYPE svg PUBLIC "-//W3C//DTD SVG 1.1//EN" "http://www.w3.org/Graphics/SVG/1.1/DTD/svg11.dtd">
<svg version="1.1" xmlns="http://www.w3.org/2000/svg" xmlns:xlink="http://www.w3.org/1999/xlink" x="0px" y="0px" width="100px"
	 height="100px" viewBox="0 0 100 100" enable-background="new 0 0 100 100" xml:space="preserve">
<g id="Layer_3" display="none">
</g>
<g id="Your_Icon">
</g>
<g id="Layer_4">
	<g>
		<path fill="none" d="M84.089,51.021c0.118-0.06,0.238-0.114,0.362-0.155C84.327,50.906,84.207,50.961,84.089,51.021z"/>
		<path fill="none" d="M84.618,50.821c0.101-0.026,0.202-0.053,0.305-0.068C84.82,50.769,84.72,50.795,84.618,50.821z"/>
		<path fill="none" d="M86.264,50.892c0.044,0.016,0.09,0.026,0.133,0.044C86.353,50.918,86.308,50.907,86.264,50.892z"/>
		<path fill="none" d="M85.713,50.756c0.063,0.009,0.127,0.014,0.189,0.027C85.84,50.77,85.776,50.766,85.713,50.756z"/>
		<ellipse fill="none" cx="40.347" cy="17.883" rx="9.093" ry="9.648"/>
		<path fill="none" d="M19.25,83c-5.509,0-9.977-4.424-9.998-9.927c0,0.031-0.002-0.071-0.002-0.04C9.25,78.555,13.728,83,19.25,83
			L19.25,83z"/>
		<path fill="none" d="M86.844,51.174c0.006,0.004,0.013,0.006,0.019,0.01C86.856,51.18,86.85,51.178,86.844,51.174z"/>
		<path fill="none" d="M19.25,73h0.011c0.112-12.842,8.198-20.904,20.994-20.904c3.051,0,5.823,0.473,8.294,1.344l0.201-0.2
			c-2.52-0.918-5.363-1.409-8.495-1.409C27.369,51.83,19.25,60,19.25,73z"/>
		<path fill="none" d="M85.327,50.719c-0.067,0-0.134,0.012-0.2,0.017c0.088-0.006,0.177-0.013,0.266-0.011
			C85.371,50.725,85.35,50.719,85.327,50.719z"/>
		
			<rect x="53.192" y="55.764" transform="matrix(0.7093 -0.7049 0.7049 0.7093 -23.816 53.7807)" fill="none" width="0.219" height="0.006"/>
		<path fill="none" d="M92.284,86.687l-5.278,5.293c-1.017,1.018-2.637,1.132-3.751,0.226l-3.951-3.144l-0.66,5.226
			C78.463,95.686,77.272,97,75.863,97h-7.464c-1.438,0-2.647-1.354-2.796-2.783l-0.14-1.409c-0.002,0.001-0.004,0.001-0.006,0.002
			l0.146,1.407C65.753,95.646,66.962,97,68.399,97h7.464c1.409,0,2.6-1.314,2.78-2.713l0.66-5.226l3.951,3.144
			c0.504,0.41,1.111,0.623,1.72,0.623c0.736,0,1.475-0.283,2.031-0.841l5.278-5.298c0.5-0.501,0.774-1.149,0.815-1.814
			C93.058,85.537,92.782,86.187,92.284,86.687z"/>
		<path fill="none" d="M83.357,51.352c0.137-0.111,0.387-0.208,0.535-0.29c-0.149,0.083-0.454,0.178-0.592,0.29L79,54.746v0.002
			L83.357,51.352z"/>
		<path fill="none" d="M78.89,49.047l0.442,4.734L78.89,49.047C78.741,47.615,77.542,47,76.104,47h-3.633
			c0.06,0,0.116-0.076,0.175,0h3.458C77.542,47,78.742,47.615,78.89,49.047z"/>
		<polygon fill="none" points="89.568,79.146 90.999,79.032 89.567,79.145 		"/>
		<path fill="#211915" d="M19.25,83H41c0-0.002,0-4.433,0-7.166V73H19.25c0,0,0.01,0.09,0.011,0H19.25
			c0-13,8.119-21.17,21.005-21.17c3.132,0,5.976,0.491,8.495,1.409c0,0,6.95-6.739,7.75-7.339
			c-4.788-2.824-10.114-4.006-16.245-4.006c-8.893,0-16.881,3.172-22.496,8.932c-5.467,5.61-8.485,13.572-8.507,22.247
			C9.273,78.576,13.741,83,19.25,83z"/>
		<path fill="#211915" d="M57.497,51.601c1.017-1.016,2.637-1.04,3.752-0.134l3.849,3.243l0.089-0.988
			c-0.002-0.002-0.003-0.005-0.005-0.007l-0.084,0.938l-3.849-3.215c-0.53-0.431-1.175-0.648-1.814-0.648
			c-0.705,0-1.404,0.265-1.938,0.797l-4.12,4.103c0.002,0.001,0.003,0.003,0.005,0.004L57.497,51.601z"/>
		<path fill="#211915" d="M49.404,32.823c4.816-3.125,8.035-8.645,8.035-14.94c0-9.73-7.668-17.648-17.093-17.648
			c-9.424,0-17.091,7.918-17.091,17.648c0,6.275,3.197,11.78,7.987,14.91c2.64,1.725,5.756,2.738,9.104,2.738
			C43.675,35.531,46.774,34.528,49.404,32.823z M40.347,8.234c5.023,0,9.093,4.322,9.093,9.648c0,5.33-4.069,9.648-9.093,9.648
			c-5.021,0-9.091-4.318-9.091-9.648C31.256,12.557,35.325,8.234,40.347,8.234z"/>
		<path d="M68.399,97h7.464c1.409,0,2.6-1.314,2.78-2.713l0.66-5.226l3.951,3.144c1.114,0.906,2.734,0.792,3.751-0.226l5.278-5.293
			c0.498-0.5,0.773-1.147,0.815-1.81c0.042-0.661-0.147-1.409-0.577-1.966L89.783,79H90v0.145l1.215-0.112l5.024-0.403
			C97.673,78.484,98,77.275,98,75.834v-7.703c0-1.438-0.436-2.645-1.867-2.789l-6.814-0.51l3.501-4.086
			c0.911-1.115,0.911-2.738-0.108-3.756l-5.407-5.449c-0.136-0.136-0.285-0.255-0.438-0.357c-0.006-0.004-0.014-0.006-0.02-0.01
			c-0.144-0.094-0.294-0.173-0.448-0.238c-0.043-0.018-0.09-0.028-0.134-0.044c-0.119-0.043-0.238-0.082-0.361-0.108
			c-0.062-0.014-0.126-0.019-0.189-0.027c-0.106-0.015-0.213-0.028-0.32-0.031c-0.089-0.002-0.178,0.005-0.266,0.011
			c-0.068,0.005-0.137,0.008-0.204,0.018c-0.103,0.016-0.204,0.042-0.305,0.068c-0.056,0.015-0.112,0.025-0.167,0.044
			c-0.124,0.041-0.244,0.096-0.362,0.155c-0.03,0.016-0.062,0.025-0.091,0.041c-0.148,0.082-0.504,0.179-0.641,0.29L79,54.748
			v-0.002l0.209,0.002l0.018-0.967l-0.39-4.734C78.689,47.615,77.542,47,76.104,47h-3.458h-4.247c-1.438,0-2.642,0.615-2.791,2.047
			l-0.422,4.675l-0.089,0.988l-3.849-3.243c-1.115-0.906-2.735-0.882-3.752,0.134l-4.115,4.092l-0.155,0.154l-1.179,1.172
			c-0.508,0.508-0.782,1.162-0.816,1.83c-0.033,0.667,0.172,1.442,0.623,1.999L55.158,65h-0.002l0.002-0.094l-1.156,0.056
			l-4.832,0.405C47.738,65.51,46,66.691,46,68.131v7.703c0,1.441,1.736,2.646,3.17,2.791l5.574,0.529l-3.046,3.926
			c-0.911,1.115-0.749,2.738,0.269,3.756l5.489,5.449c0.136,0.136,0.286,0.255,0.442,0.357c0.004,0.003,0.01,0.005,0.015,0.008
			c0.146,0.095,0.3,0.174,0.457,0.239c0.045,0.019,0.094,0.029,0.139,0.046c0.12,0.042,0.24,0.081,0.363,0.106
			c0.065,0.014,0.133,0.02,0.199,0.028c0.105,0.015,0.211,0.027,0.316,0.03c0.094,0.002,0.187-0.004,0.279-0.011
			c0.066-0.005,0.133-0.007,0.198-0.017c0.108-0.016,0.214-0.042,0.32-0.07c0.052-0.014,0.105-0.023,0.157-0.04
			c0.128-0.043,0.252-0.098,0.374-0.159c0.028-0.014,0.057-0.023,0.084-0.038c0.15-0.082,0.236-0.178,0.373-0.289L65,89.312v0.002
			l0.061-0.002l0.106,0.792l0.282,2.703l0.146,1.409C65.744,95.646,66.962,97,68.399,97z M72.003,63.003
			C76.973,63,81,67.038,81,71.998c0,4.963-4.027,8.999-8.999,8.999C67.039,80.986,63,76.958,63,72
			C63,67.038,67.039,63.002,72.003,63.003z"/>
	</g>
</g>
</svg>
