<?xml version="1.0" encoding="utf-8"?>
<!-- Generator: Adobe Illustrator 16.0.0, SVG Export Plug-In . SVG Version: 6.00 Build 0)  -->
<!DOCTYPE svg PUBLIC "-//W3C//DTD SVG 1.1//EN" "http://www.w3.org/Graphics/SVG/1.1/DTD/svg11.dtd">
<svg version="1.1" xmlns="http://www.w3.org/2000/svg" xmlns:xlink="http://www.w3.org/1999/xlink" x="0px" y="0px" width="100px"
	 height="100px" viewBox="0 0 100 100" enable-background="new 0 0 100 100" xml:space="preserve">
<g id="Layer_3" display="none">
</g>
<g id="Your_Icon">
</g>
<g id="Layer_4">
	<g>
		<path d="M84.937,64.801c1.778,0,3.485,0.342,5.063,0.955V51.904C90,49.143,87.492,47,84.73,47H55V27.968
			c-0.879,0.357-1.807,0.632-2.776,0.808c-0.826,0.15-1.669,0.226-2.503,0.226c-1.65,0-3.239-0.292-4.721-0.823V47H14.73
			C11.969,47,10,49.143,10,51.904v13.562c0.66-0.225,1.336-0.417,2.035-0.543c0.826-0.15,1.668-0.226,2.503-0.226h0.001
			c1.93,0,3.773,0.405,5.461,1.122V57h25v14.701c0.783-0.293,1.596-0.526,2.437-0.679c0.825-0.149,1.666-0.224,2.5-0.224
			c1.778,0,3.485,0.342,5.063,0.955V57h25v8.703c0.783-0.293,1.596-0.526,2.437-0.679C83.262,64.875,84.103,64.801,84.937,64.801z"
			/>
	</g>
	<path d="M51.78,24.84c-5.434,0.98-10.637-2.625-11.617-8.061c-0.988-5.434,2.619-10.635,8.053-11.619
		c5.438-0.982,10.635,2.625,11.622,8.057C60.823,18.654,57.213,23.855,51.78,24.84z"/>
	<path d="M16.48,88.84c-5.434,0.98-10.637-2.625-11.617-8.061c-0.988-5.434,2.619-10.635,8.053-11.619
		c5.438-0.982,10.635,2.625,11.622,8.057C25.523,82.654,21.913,87.855,16.48,88.84z"/>
	<path d="M51.78,94.84c-5.434,0.98-10.637-2.625-11.617-8.061c-0.988-5.434,2.619-10.635,8.053-11.619
		c5.438-0.982,10.635,2.625,11.622,8.057C60.823,88.654,57.213,93.855,51.78,94.84z"/>
	<path d="M87.08,88.84c-5.434,0.98-10.637-2.625-11.617-8.061c-0.988-5.434,2.619-10.635,8.053-11.619
		c5.438-0.982,10.635,2.625,11.622,8.057C96.123,82.654,92.513,87.855,87.08,88.84z"/>
</g>
</svg>
