<?xml version="1.0" encoding="utf-8"?>
<!-- Generator: Adobe Illustrator 16.0.0, SVG Export Plug-In . SVG Version: 6.00 Build 0)  -->
<!DOCTYPE svg PUBLIC "-//W3C//DTD SVG 1.1//EN" "http://www.w3.org/Graphics/SVG/1.1/DTD/svg11.dtd">
<svg version="1.1" xmlns="http://www.w3.org/2000/svg" xmlns:xlink="http://www.w3.org/1999/xlink" x="0px" y="0px" width="100px"
	 height="100px" viewBox="0 0 100 100" enable-background="new 0 0 100 100" xml:space="preserve">
<g id="Layer_3" display="none">
</g>
<g id="Your_Icon">
</g>
<g id="Layer_4">
	<g>
		<polygon fill="none" points="53,32 77,32 77,31.292 54.167,10 53,10 		"/>
		<path fill="none" d="M49,42c-2.761,0-6-2.739-6-5.5V10H22v80h55V42H49z"/>
		<path d="M84.248,23.912L60.665,2.37c-1.843-1.686-4-2.37-6.498-2.37H23c-5.523,0-11,3.977-11,9.5v80c0,5.523,5.477,10.5,11,10.5
			h55c5.523,0,9-4.977,9-10.5V31.292C87,28.484,86.32,25.806,84.248,23.912z M77,31.292V32H53V10h1.167L77,31.292z M22,90V10h21
			v26.5c0,2.761,3.239,5.5,6,5.5h28v48H22z"/>
	</g>
</g>
</svg>
