<?xml version="1.0" encoding="utf-8"?>
<!-- Generator: Adobe Illustrator 16.0.0, SVG Export Plug-In . SVG Version: 6.00 Build 0)  -->
<!DOCTYPE svg PUBLIC "-//W3C//DTD SVG 1.1//EN" "http://www.w3.org/Graphics/SVG/1.1/DTD/svg11.dtd">
<svg version="1.1" xmlns="http://www.w3.org/2000/svg" xmlns:xlink="http://www.w3.org/1999/xlink" x="0px" y="0px" width="100px"
	 height="100px" viewBox="0 0 100 100" enable-background="new 0 0 100 100" xml:space="preserve">
<g id="Layer_3" display="none">
</g>
<g id="Your_Icon">
</g>
<g id="Layer_4">
	<path d="M77.001,100c-1.218,0-2.42-0.444-3.357-1.293L49.982,77.296L26.338,98.471c-1.47,1.315-3.576,1.645-5.377,0.842
		C19.16,98.509,18,96.722,18,94.751V4.995C18,2.236,20.238,0,23,0h54c2.762,0,5,2.236,5,4.995v90.01
		c0,1.976-1.165,3.766-2.973,4.566C78.376,99.859,77.686,100,77.001,100z M50,65.577c1.202,0,2.404,0.432,3.356,1.293L72,83.741
		V9.99H28v73.575l18.662-16.713C47.612,66.002,48.807,65.577,50,65.577z"/>
</g>
</svg>
