<?xml version="1.0" encoding="utf-8"?>
<!-- Generator: Adobe Illustrator 16.0.0, SVG Export Plug-In . SVG Version: 6.00 Build 0)  -->
<!DOCTYPE svg PUBLIC "-//W3C//DTD SVG 1.1//EN" "http://www.w3.org/Graphics/SVG/1.1/DTD/svg11.dtd">
<svg version="1.1" xmlns="http://www.w3.org/2000/svg" xmlns:xlink="http://www.w3.org/1999/xlink" x="0px" y="0px" width="100px"
	 height="100px" viewBox="0 0 100 100" enable-background="new 0 0 100 100" xml:space="preserve">
<g id="Layer_3" display="none">
</g>
<g id="Your_Icon">
</g>
<g id="Layer_4">
	<path fill="#211915" d="M39,100h-7.952c-7.622,0-18.693-5.892-18.693-15.123c0-11.474-1.871-23.746-3.932-25.844l-4.282-2.991
		c-1.339-0.936-2.136-2.466-2.136-4.099v-4.092c0-1.633,0.797-3.163,2.136-4.099l4.284-2.993c2.06-2.071,3.929-14.248,3.929-25.637
		C12.355,5.892,23.426,0,31.048,0H39v10h-7.952c-3.947,0-8.693,3.146-8.693,5.123c0,3.812-0.278,10.342-1.063,16.195
		c-1.281,9.554-3.428,14.955-6.962,17.515l-1.523,1.064l1.454,1.016c3.603,2.607,5.751,8.043,7.032,17.672
		c0.784,5.897,1.062,12.462,1.062,16.292c0,1.977,4.747,5.123,8.693,5.123H39V100z"/>
	<path fill="#211915" d="M68.857,100H61V90h7.857c3.947,0,8.693-3.146,8.693-5.123c0-3.829,0.278-10.394,1.063-16.292
		c1.281-9.629,3.429-15.064,6.964-17.623l1.521-1.064l-1.454-1.016c-3.602-2.608-5.749-8.01-7.031-17.563
		c-0.785-5.854-1.064-12.383-1.064-16.195c0-1.977-4.747-5.123-8.693-5.123H61V0h7.857C76.479,0,87.55,5.892,87.55,15.123
		c0,11.388,1.87,23.564,3.93,25.637l4.284,2.993c1.338,0.936,2.136,2.466,2.136,4.099v4.092c0,1.633-0.797,3.163-2.136,4.099
		l-4.281,2.991c-2.062,2.098-3.933,14.37-3.933,25.844C87.55,94.108,76.479,100,68.857,100z"/>
</g>
</svg>
