<?xml version="1.0" encoding="utf-8"?>
<!-- Generator: Adobe Illustrator 16.0.0, SVG Export Plug-In . SVG Version: 6.00 Build 0)  -->
<!DOCTYPE svg PUBLIC "-//W3C//DTD SVG 1.1//EN" "http://www.w3.org/Graphics/SVG/1.1/DTD/svg11.dtd">
<svg version="1.1" xmlns="http://www.w3.org/2000/svg" xmlns:xlink="http://www.w3.org/1999/xlink" x="0px" y="0px" width="100px"
	 height="100px" viewBox="0 0 100 100" enable-background="new 0 0 100 100" xml:space="preserve">
<g id="Layer_3" display="none">
</g>
<g id="Your_Icon">
</g>
<g id="Layer_4">
	<g>
		<path fill="none" d="M36.758,71.547c1.108,0.249,2.306,0.404,3.577,0.412c2.188,0.014,4.113,1.448,4.751,3.542
			c1.672,5.438,4.796,10.965,7.04,12.835c2.604-2.693,7.336-7.995,11.498-14.852c-3.78-2.69-8.44-4.05-13.903-4.05
			C45.081,69.435,40.529,70.399,36.758,71.547z"/>
		<path fill="none" d="M75.525,38.696c-0.385,3.066-2.207,5.698-4.444,7.838c3.443,0.416,7.776,0.425,12.863-0.585
			c-1.665-5.298-2.795-10.906-3.509-15.192C78.634,32.852,76.784,35.849,75.525,38.696z"/>
		<path d="M60.5,2.021c0.012,2.848-1.65,4.45-3.028,5.288C33.923-5.894,11.456,5.206,2.642,13.195
			c-1.148,1.042-1.749,2.558-1.626,4.104c0.124,1.546,0.958,2.947,2.258,3.793c0.945,0.614,7.932,5.062,14.896,6.859
			c0.046,2.197,0.259,4.938,0.866,7.772c2.01,9.374,7.461,15.437,15.351,17.072c0.336,0.07,0.676,0.104,1.015,0.104
			c0.987,0,1.96-0.292,2.792-0.852c0.807-0.544,1.723-1.107,2.692-1.704C47.782,46.098,58.207,39.68,58.1,22.369l-10,0.062
			c0.072,11.683-6.014,15.43-12.458,19.397c-0.334,0.206-0.662,0.408-0.985,0.608c-7.849-3.536-6.402-18.037-6.388-18.183
			c0.157-1.401-0.286-2.804-1.219-3.861s-2.269-1.673-3.678-1.692c-2.104-0.03-5.048-1.043-7.882-2.328
			c7.913-4.459,22.581-9.499,38.954,0.764c1.182,0.741,2.623,0.952,3.971,0.588C62.612,16.58,70.54,11.816,70.5,1.979L60.5,2.021z"
			/>
		<g>
			<path d="M73.576,68.896c-6.134-6.278-14.16-9.462-23.855-9.462c-13.983,0-26.587,6.793-27.116,7.082
				c-1.384,0.755-2.33,2.118-2.554,3.678s0.301,3.134,1.415,4.248c0.271,0.27,6.037,5.931,15.186,7.246
				C38.986,87.799,44.497,99,53.5,99c1.239,0,2.435-0.461,3.354-1.292c0.419-0.38,10.355-9.448,17.559-22.966
				C75.438,72.819,75.099,70.455,73.576,68.896z M52.126,88.336c-2.244-1.87-5.368-7.396-7.04-12.835
				c-0.638-2.094-2.562-3.528-4.751-3.542c-1.271-0.008-2.469-0.163-3.577-0.412c3.771-1.147,8.323-2.112,12.963-2.112
				c5.463,0,10.123,1.359,13.903,4.05C59.462,80.341,54.73,85.643,52.126,88.336z"/>
		</g>
		<g>
			<path d="M93.981,44.468c-3.309-9.629-4.595-21.844-4.608-21.978c-0.26-2.526-2.371-4.457-4.91-4.49
				c-0.05,0-0.1-0.001-0.149-0.001c-4.961,0-9.628,3.162-13.873,9.401c-2.736,4.021-4.396,8.03-4.466,8.199
				c-0.247,0.603-0.373,1.211-0.373,1.863c-0.21,1.258-4.065,4.338-8.257,6.136c-1.734,0.736-2.907,2.386-3.033,4.267
				c-0.127,1.88,0.814,3.672,2.435,4.634c0.405,0.24,7.39,4.279,18.921,4.279c4.521,0,9.741-0.621,15.536-2.335l6.252,0.057l0.09-10
				L93.981,44.468z M71.081,46.534c2.237-2.14,4.06-4.771,4.444-7.838c1.259-2.848,3.108-5.845,4.91-7.939
				c0.714,4.286,1.844,9.895,3.509,15.192C78.857,46.959,74.524,46.95,71.081,46.534z"/>
		</g>
	</g>
</g>
</svg>
