<?xml version="1.0" encoding="utf-8"?>
<!-- Generator: Adobe Illustrator 16.0.0, SVG Export Plug-In . SVG Version: 6.00 Build 0)  -->
<!DOCTYPE svg PUBLIC "-//W3C//DTD SVG 1.0//EN" "http://www.w3.org/TR/2001/REC-SVG-20010904/DTD/svg10.dtd">
<svg version="1.0" xmlns="http://www.w3.org/2000/svg" xmlns:xlink="http://www.w3.org/1999/xlink" x="0px" y="0px" width="100px"
	 height="100px" viewBox="0 0 100 100" enable-background="new 0 0 100 100" xml:space="preserve">
<g id="Layer_3">
</g>
<g id="Your_Icon">
</g>
<g id="Layer_4">
	<g>
		<polygon fill="none" points="25.8,82 17.805,82 17.805,92 82.422,92 82.422,82 74.2,82 		"/>
		<path d="M85,74h-8V61c0-2.209-1.791-4-4-4h-6.3c5.691-10,11.659-18.18,11.595-25.917C78.147,12.648,66.781-0.042,50.653-0.042
			h-0.257c-8.355,0-15.852,3.342-21.109,9.494c-4.959,5.804-7.651,13.563-7.582,22.048C21.762,38.644,26.683,47,32.339,57H27
			c-2.209,0-4,1.791-4,4v13h-8c-2.209,0-4,1.86-4,4.069v18c0,2.209,1.791,3.931,4,3.931h70c2.209,0,4-1.722,4-3.931v-18
			C89,75.86,87.209,74,85,74z M31,65c0,0,9.897,0,11,0c3.8,0-12.242-26.856-12.295-33.609c-0.054-6.557,1.958-12.405,5.664-16.743
			c3.782-4.428,9-6.689,15.091-6.689h0.193c8.975,0,19.504,5.971,19.642,23.225C70.357,38.636,53.1,65,57,65c1.5,0,12,0,12,0v9H31
			V65z M81,92H19V82h6.8H81V92z"/>
	</g>
</g>
</svg>
