<?xml version="1.0" encoding="utf-8"?>
<!-- Generator: Adobe Illustrator 16.0.0, SVG Export Plug-In . SVG Version: 6.00 Build 0)  -->
<!DOCTYPE svg PUBLIC "-//W3C//DTD SVG 1.1//EN" "http://www.w3.org/Graphics/SVG/1.1/DTD/svg11.dtd">
<svg version="1.1" xmlns="http://www.w3.org/2000/svg" xmlns:xlink="http://www.w3.org/1999/xlink" x="0px" y="0px" width="100px"
	 height="100px" viewBox="0 0 100 100" enable-background="new 0 0 100 100" xml:space="preserve">
<g id="Layer_3" display="none">
</g>
<g id="Your_Icon">
</g>
<g id="Layer_4">
	<g>
		<path fill="none" d="M82.094,22.066c-3.282-3.3-16.188-5.604-31.384-5.604l-0.842,0.003c-19.574,0.139-29.394,3.048-31.854,5.496
			C12.864,27.083,10.019,33.899,10,41.158c-0.019,7.258,2.792,14.091,7.914,19.238c2.889,2.905,4.084,4.107,11.426,4.825
			c2.048,0.2,3.765,1.635,4.325,3.615c0.201,0.711,0.312,1.102,0.249,15.107l21.799-17.183c0.719-0.567,1.581-0.926,2.491-1.036
			c10.681-1.303,21.775-3.767,23.846-5.291C87.158,55.322,89.981,48.53,90,41.3C90.019,34.041,87.211,27.21,82.094,22.066z"/>
		<g>
			<path d="M89.184,15.014c-7.401-7.44-27.282-8.551-38.474-8.551l-0.914,0.003c-25.295,0.18-35.081,4.671-38.836,8.407
				C3.918,21.877,0.026,31.202,0,41.132s3.818,19.276,10.823,26.316c3.849,3.871,6.882,5.985,13.099,7.124
				c0.011,4.618-0.02,12.48-0.069,19.693c-0.013,1.922,1.077,3.681,2.803,4.525c0.697,0.342,1.449,0.509,2.197,0.509
				c1.102,0,2.196-0.364,3.096-1.073L60.81,75.478c9.307-1.193,24.005-3.688,28.23-7.893c7.042-7.002,10.934-16.328,10.959-26.26
				C100.025,31.396,96.184,22.052,89.184,15.014z M82.049,60.435c-2.07,1.524-13.165,3.988-23.846,5.291
				c-0.91,0.11-1.771,0.469-2.491,1.036L33.914,83.944c0.062-14.006-0.048-14.396-0.249-15.107c-0.56-1.98-2.276-3.415-4.325-3.615
				c-7.342-0.718-8.537-1.92-11.426-4.825C12.792,55.249,9.981,48.416,10,41.158c0.019-7.259,2.864-14.075,8.013-19.196
				c2.461-2.448,12.281-5.357,31.854-5.496l0.842-0.003c15.196,0,28.102,2.304,31.384,5.604C87.211,27.21,90.019,34.041,90,41.3
				C89.981,48.53,87.158,55.322,82.049,60.435z"/>
		</g>
	</g>
</g>
</svg>
