<?xml version="1.0" encoding="utf-8"?>
<!-- Generator: Adobe Illustrator 16.0.0, SVG Export Plug-In . SVG Version: 6.00 Build 0)  -->
<!DOCTYPE svg PUBLIC "-//W3C//DTD SVG 1.1//EN" "http://www.w3.org/Graphics/SVG/1.1/DTD/svg11.dtd">
<svg version="1.1" xmlns="http://www.w3.org/2000/svg" xmlns:xlink="http://www.w3.org/1999/xlink" x="0px" y="0px" width="100px"
	 height="100px" viewBox="0 0 100 100" enable-background="new 0 0 100 100" xml:space="preserve">
<g id="Layer_3" display="none">
</g>
<g id="Your_Icon">
</g>
<g id="Layer_4">
	<g>
		<path d="M64,0H45v10h14v80H45v10h19c2.761,0,5-2.238,5-5V5C69,2.238,66.761,0,64,0z"/>
		<path d="M11,10h14V0H6C3.239,0,1,2.238,1,5v90c0,2.762,2.239,5,5,5h19V90H11V10z"/>
		<path d="M93,0H76v10h12v80H76v10h17c2.761,0,5-2.238,5-5V5C98,2.238,95.761,0,93,0z"/>
		<polygon fill="#211915" points="52,55 52,45 40,45 40,33 30,33 30,45 18,45 18,55 30,55 30,67 40,67 40,55 		"/>
	</g>
</g>
</svg>
