<?xml version="1.0" encoding="utf-8"?>
<!-- Generator: Adobe Illustrator 16.0.0, SVG Export Plug-In . SVG Version: 6.00 Build 0)  -->
<!DOCTYPE svg PUBLIC "-//W3C//DTD SVG 1.0//EN" "http://www.w3.org/TR/2001/REC-SVG-20010904/DTD/svg10.dtd">
<svg version="1.0" xmlns="http://www.w3.org/2000/svg" xmlns:xlink="http://www.w3.org/1999/xlink" x="0px" y="0px" width="100px"
	 height="100px" viewBox="0 0 100 100" enable-background="new 0 0 100 100" xml:space="preserve">
<g id="Layer_3">
</g>
<g id="Your_Icon">
</g>
<g id="Layer_4">
	<g>
		<path fill="none" d="M45.942,61.642c0-0.002,0.179-0.004,0.25-0.006c0.01,0,0.018,0,0.028-0.001
			c-0.016,0.001-0.032,0.001-0.048,0.001C46.101,61.638,45.942,61.64,45.942,61.642z"/>
		<path fill="none" d="M46.706,62c7.697,0,19.408,4.095,30.67,12.158C66.108,66.091,54.433,62,46.735,62
			C46.725,62,46.715,62,46.706,62z"/>
		<path d="M91.329,12.706c-1.558-0.587-3.357-0.147-4.456,1.104c-0.049,0.056-5.989,5.714-13.067,11.268
			C64.768,32.17,54.381,36,47.7,36H21.365c-8.26,0-15.037,6.11-15.357,14.04c-0.005,0.152-0.066,2.396-0.066,2.55v0.245
			c0,2.301,0.054,2.379,0.06,2.478c0.321,8.041,7.069,14.34,15.327,14.34l3.348,0.004c1.011,0.001,2.265,0.003,3.265,0.004v22.75
			c0,3.859,3.269,6.995,7.225,7.138l1.029,0.003c0.053,0,0.787-0.007,0.825-0.009c3.953-0.151,6.921-3.284,6.921-7.132V69.654
			c1-0.006,1.87-0.012,2.19-0.021l0.437-0.005c12.194,0,34.195,15.663,40.449,21.698c0.761,0.733,1.783,1.122,2.801,1.122
			c0.527,0,1.149-0.104,1.653-0.318C92.95,91.503,94,90.054,94,88.449v-72C94,14.784,92.888,13.293,91.329,12.706z M86,79.601
			c-2-1.775-5.799-3.605-8.624-5.628C66.114,65.909,53.342,61.9,43.942,61.9c-0.004,0,0-18,0-18C60.842,44,78,33.438,86,26.113
			V79.601z"/>
	</g>
</g>
</svg>
