<?xml version="1.0" encoding="utf-8"?>
<!-- Generator: Adobe Illustrator 16.0.0, SVG Export Plug-In . SVG Version: 6.00 Build 0)  -->
<!DOCTYPE svg PUBLIC "-//W3C//DTD SVG 1.1//EN" "http://www.w3.org/Graphics/SVG/1.1/DTD/svg11.dtd">
<svg version="1.1" xmlns="http://www.w3.org/2000/svg" xmlns:xlink="http://www.w3.org/1999/xlink" x="0px" y="0px" width="100px"
	 height="100px" viewBox="0 0 100 100" enable-background="new 0 0 100 100" xml:space="preserve">
<g id="Layer_3" display="none">
</g>
<g id="Your_Icon">
</g>
<g id="Layer_4">
	<g>
		<path fill="none" d="M84.911,37h-40.94c-1.884,0-3.666-1.018-4.518-2.697c-0.853-1.68-0.746-3.635,0.366-5.154
			c0.186-0.309,2.209-3.893-0.319-8.998c-0.653,0.281-1.608,0.934-2.055,1.365c-0.158,0.152-0.327,0.292-0.504,0.423L13.219,39.461
			c-2.738,3.122-3.483,11.798-3.125,17.112c0.016,0.228,0.016,0.461,0,0.688c-0.367,5.441,0.425,14.421,3.335,17.331
			c1.664,1.664,6.854,3.442,16.433,3.442c2.222,0,3.73-0.106,3.745-0.107c0.222-0.016,0.449-0.018,0.668-0.005
			c0.06,0.004,0.618,0.033,1.501,0.033c6.264-0.001,11.631-1.32,13.673-3.363c2.692-2.692,3.896-14.256,3.333-23.367
			c-0.085-1.378,0.402-2.687,1.348-3.692C55.073,46.528,56.392,46,57.771,46h27.199c1.838,0,5-0.607,5-4
			C89.971,37.974,87.22,37,84.911,37z"/>
		<path d="M84.971,27H50.66c0.293-3-0.178-7.186-2.211-11.281c-1.79-3.604-4.89-5.691-8.504-5.691c-4.322,0-7.99,2.969-9.174,4.045
			L6.922,31.686c-0.2,0.146-0.389,0.307-0.564,0.482c-6.917,6.917-6.432,21.799-6.262,24.747c-0.17,2.948-0.655,17.832,6.261,24.749
			c4.229,4.229,12.136,6.371,23.505,6.371c1.999,0,3.513-0.075,4.149-0.113c0.353,0.015,0.963,0.034,1.766,0.034
			c5.397,0,15.27-0.818,20.743-6.292c3.458-3.458,5.466-9.655,6.138-19.035C62.832,60.194,62.89,58,62.894,56h22.077
			c6.029,0,15-3.729,15-14C99.971,30.994,91,27,84.971,27z M84.971,46H57.771c-1.38,0-2.698,0.528-3.643,1.533
			c-0.945,1.006-1.433,2.336-1.348,3.714c0.563,9.111-0.641,20.664-3.333,23.356c-2.042,2.043-7.409,3.357-13.673,3.357
			c-0.883,0-1.441-0.031-1.501-0.035c-0.219-0.013-0.446-0.013-0.668,0.003c-0.015,0.001-1.523,0.107-3.745,0.107
			c-9.578,0-14.769-1.779-16.433-3.443c-2.91-2.91-3.702-11.89-3.335-17.331c0.016-0.228,0.016-0.462,0-0.689
			c-0.358-5.314,0.387-13.99,3.125-17.112l23.723-17.524c0.177-0.131,0.346-0.273,0.504-0.426c0.446-0.432,1.401-1.089,2.055-1.37
			c2.528,5.104,0.505,8.679,0.319,8.987c-1.112,1.52-1.219,3.496-0.366,5.176C40.305,35.982,42.087,37,43.971,37h40.94
			c2.309,0,5.06,0.974,5.06,5C89.971,45.393,86.809,46,84.971,46z"/>
	</g>
</g>
</svg>
