<?xml version="1.0" encoding="utf-8"?>
<!-- Generator: Adobe Illustrator 16.0.0, SVG Export Plug-In . SVG Version: 6.00 Build 0)  -->
<!DOCTYPE svg PUBLIC "-//W3C//DTD SVG 1.1//EN" "http://www.w3.org/Graphics/SVG/1.1/DTD/svg11.dtd">
<svg version="1.1" xmlns="http://www.w3.org/2000/svg" xmlns:xlink="http://www.w3.org/1999/xlink" x="0px" y="0px" width="62px"
	 height="100px" viewBox="0 0 62 100" enable-background="new 0 0 62 100" xml:space="preserve">
<g id="Layer_3" display="none">
</g>
<g id="Your_Icon">
</g>
<g id="Layer_4">
	<path d="M49.475,76.759c-2.409-8.522-8.494-18.196-14.936-28.439c-6.185-9.833-12.579-20-14.415-27.612
		c-0.416-1.722,0.238-4.06,1.793-6.035C24.017,12.008,27.302,10,30.095,10c0.001,0,0.001,0,0.003,0c2.646,0,5.165,1.221,7.025,3.041
		C38.955,14.832,40,17.425,40,19.945V25h10v-5.055c0-5.233-2.113-10.365-5.884-14.053C40.375,2.233,35.374,0,30.099,0
		c-0.002,0-0.004,0-0.006,0c-5.872,0-12.014,3.386-16.031,8.486c-3.464,4.398-4.797,9.737-3.659,14.458
		c2.22,9.204,9.058,20.131,15.671,30.646c5.782,9.193,11.76,18.726,13.778,25.862c0.619,2.192-0.789,4.502-1.459,5.388
		C36.293,87.613,33,89.557,30,89.557v0.003c-6,0-9.914-4.263-9.916-9.507l-0.044-5l-10.021,0.004l-0.008,5.219
		C10.015,91.032,18.899,100,29.829,100c0.001,0,0.004,0,0.005,0c6.003,0,12.459-3.624,16.448-8.895
		C49.606,86.713,50.77,81.346,49.475,76.759z"/>
</g>
</svg>
