<?xml version="1.0" encoding="utf-8"?>
<!-- Generator: Adobe Illustrator 16.0.0, SVG Export Plug-In . SVG Version: 6.00 Build 0)  -->
<!DOCTYPE svg PUBLIC "-//W3C//DTD SVG 1.1//EN" "http://www.w3.org/Graphics/SVG/1.1/DTD/svg11.dtd">
<svg version="1.1" xmlns="http://www.w3.org/2000/svg" xmlns:xlink="http://www.w3.org/1999/xlink" x="0px" y="0px" width="100px"
	 height="100px" viewBox="0 0 100 100" enable-background="new 0 0 100 100" xml:space="preserve">
<g id="Layer_3" display="none">
</g>
<g id="Your_Icon">
</g>
<g id="Layer_4">
	<g>
		<path d="M78,0H22c-5.522,0-10,4.478-10,10v80c0,5.522,4.478,10,10,10h56c5.522,0,10-4.478,10-10V10C88,4.478,83.522,0,78,0z
			 M78,90H22V10h56V90z"/>
		<path fill="#211915" d="M70,22c0-2.762-2.238-5-5-5H35c-2.762,0-5,2.238-5,5v38c0,2.762,2.238,5,5,5h30c2.762,0,5-2.238,5-5V22z
			 M40,27h20v28H40V27z"/>
		<g>
			<path d="M49.899,71.5c-3.858,0-6.999,3.135-6.999,7s3.141,7,6.999,7c3.867,0,7.001-3.135,7.001-7S53.769,71.5,49.899,71.5z"/>
		</g>
	</g>
</g>
</svg>
