<?xml version="1.0" encoding="utf-8"?>
<!-- Generator: Adobe Illustrator 16.0.0, SVG Export Plug-In . SVG Version: 6.00 Build 0)  -->
<!DOCTYPE svg PUBLIC "-//W3C//DTD SVG 1.1//EN" "http://www.w3.org/Graphics/SVG/1.1/DTD/svg11.dtd">
<svg version="1.1" xmlns="http://www.w3.org/2000/svg" xmlns:xlink="http://www.w3.org/1999/xlink" x="0px" y="0px" width="64px"
	 height="100px" viewBox="0 0 64 100" enable-background="new 0 0 64 100" xml:space="preserve">
<g id="Layer_3" display="none">
</g>
<g id="Your_Icon">
</g>
<g id="Layer_4">
	<g>
		<path fill="none" d="M40.024,60.016c2.702-2.282,4.101-5.291,3.48-7.488c-1.585-5.604-5.921-7.853-12.865-11.057
			c-1.715-0.791-3.533-1.631-5.338-2.605l-1.325,1.119c-2.703,2.282-4.102,5.291-3.481,7.488c1.585,5.604,5.921,7.853,12.865,11.057
			c1.715,0.791,3.533,1.631,5.338,2.606L40.024,60.016z"/>
		<path d="M46.852,67.319c5.551-4.89,7.959-11.555,6.276-17.512C50.21,39.486,41.682,35.553,34.829,32.391
			c-6.953-3.207-11.284-5.461-12.652-11.135c-0.424-1.758,0.082-3.82,1.666-5.83C25.976,12.717,29,11,32,11h1.2
			c2.689,0,4.177,1.018,6.068,2.869C41.132,15.691,42,17.906,42,20.471V25h10v-4.529c0-5.276-1.936-10.131-5.738-13.85
			C42.49,2.932,37.642,1,32.324,1c-0.002,0-0.004,0-0.009,0c-5.922,0-12.118,3.095-16.17,8.238
			c-3.492,4.435-4.837,9.655-3.689,14.412c0.912,3.782,2.598,6.688,4.692,9.056c-5.551,4.891-7.959,11.544-6.276,17.499
			c2.918,10.32,11.446,14.248,18.299,17.41c6.953,3.208,11.284,5.459,12.652,11.133c0.424,1.758-0.083,3.918-1.667,5.928
			C38.023,87.384,35,89,32,89h-0.321c-2.69,0-5.056-0.919-6.947-2.77C22.868,84.408,22,82.093,22,79.529V75H12v4.529
			c0,5.276,1.936,10.131,5.738,13.85C21.511,97.068,26.358,99,31.677,99c0,0,0.002,0,0.009,0c5.922,0,12.117-3.095,16.169-8.238
			c3.492-4.435,4.837-9.656,3.689-14.412C50.632,72.566,48.946,69.687,46.852,67.319z M20.495,47.473
			c-0.62-2.197,0.778-5.206,3.481-7.488l1.325-1.119c1.805,0.975,3.623,1.814,5.338,2.605c6.944,3.204,11.28,5.452,12.865,11.057
			c0.62,2.197-0.778,5.206-3.48,7.488l-1.326,1.12c-1.805-0.976-3.623-1.815-5.338-2.606C26.416,55.325,22.08,53.077,20.495,47.473z
			"/>
	</g>
</g>
</svg>
