<?xml version="1.0" encoding="utf-8"?>
<!-- Generator: Adobe Illustrator 16.0.0, SVG Export Plug-In . SVG Version: 6.00 Build 0)  -->
<!DOCTYPE svg PUBLIC "-//W3C//DTD SVG 1.1//EN" "http://www.w3.org/Graphics/SVG/1.1/DTD/svg11.dtd">
<svg version="1.1" xmlns="http://www.w3.org/2000/svg" xmlns:xlink="http://www.w3.org/1999/xlink" x="0px" y="0px" width="100px"
	 height="100px" viewBox="0 0 100 100" enable-background="new 0 0 100 100" xml:space="preserve">
<g id="Layer_3" display="none">
</g>
<g id="Your_Icon">
</g>
<g id="Layer_4">
	<g>
		<path fill="none" d="M35,76.9C35,79.23,38.908,90.1,50,90.1c10.491,0,14.963-11.15,15-13.004V10H35V76.9z M44,31.301l12,6.588
			v36.033c0,4.031-2.55,7.291-5.999,7.291S44,77.953,44,73.922V31.301z"/>
		<path fill="#211915" d="M83,0H17v10h8v66.9c0,8.096,8.586,23.199,25,23.199c16.494,0,25-16.121,25-23V10h8V0z M65,77.096
			C64.963,78.949,60.491,90.1,50,90.1C38.908,90.1,35,79.23,35,76.9V10h30V77.096z"/>
		<path d="M50.001,81.213c3.449,0,5.999-3.26,5.999-7.291V37.889l-12-6.588v42.621C44,77.953,46.552,81.213,50.001,81.213z"/>
	</g>
</g>
</svg>
