<?xml version="1.0" encoding="utf-8"?>
<!-- Generator: Adobe Illustrator 16.0.0, SVG Export Plug-In . SVG Version: 6.00 Build 0)  -->
<!DOCTYPE svg PUBLIC "-//W3C//DTD SVG 1.1//EN" "http://www.w3.org/Graphics/SVG/1.1/DTD/svg11.dtd">
<svg version="1.1" xmlns="http://www.w3.org/2000/svg" xmlns:xlink="http://www.w3.org/1999/xlink" x="0px" y="0px" width="100px"
	 height="100px" viewBox="0 0 100 100" enable-background="new 0 0 100 100" xml:space="preserve">
<g id="Layer_3" display="none">
</g>
<g id="Your_Icon">
</g>
<g id="Layer_4">
	<g>
		<path fill="none" d="M8.529,57.466c-0.097-0.153-0.188-0.312-0.275-0.471C8.342,57.154,8.433,57.312,8.529,57.466z"/>
		<path fill="none" d="M7.687,55.793c-0.076-0.196-0.142-0.398-0.206-0.602C7.545,55.395,7.61,55.597,7.687,55.793z"/>
		<path fill="none" d="M8.07,56.653c-0.085-0.17-0.162-0.344-0.238-0.519C7.908,56.31,7.985,56.483,8.07,56.653z"/>
		<path fill="none" d="M7.382,54.889c-0.087-0.309-0.162-0.623-0.221-0.945C7.22,54.266,7.295,54.58,7.382,54.889z"/>
		<path fill="none" d="M17.011,42.16c-0.177,0-0.355,0.015-0.533,0.023c0.221-0.012,0.441-0.021,0.66-0.018
			C17.095,42.165,17.053,42.16,17.011,42.16z"/>
		<path fill="none" d="M15.217,42.322c0.323-0.059,0.646-0.099,0.966-0.125C15.862,42.224,15.54,42.264,15.217,42.322z"/>
		<path fill="none" d="M10.355,59.623c-0.151-0.135-0.302-0.271-0.445-0.414C10.054,59.353,10.204,59.488,10.355,59.623z"/>
		<path fill="none" d="M12.071,60.86c-0.253-0.144-0.5-0.298-0.74-0.463C11.571,60.562,11.818,60.717,12.071,60.86z"/>
		<path fill="none" d="M12.884,61.271c-0.183-0.083-0.36-0.176-0.537-0.269C12.523,61.097,12.701,61.188,12.884,61.271z"/>
		<path fill="none" d="M11.301,60.378c-0.249-0.172-0.488-0.357-0.72-0.552C10.812,60.021,11.052,60.206,11.301,60.378z"/>
		<path fill="none" d="M9.061,58.23c-0.109-0.144-0.216-0.289-0.318-0.438C8.845,57.941,8.951,58.087,9.061,58.23z"/>
		<path fill="none" d="M9.665,58.946c-0.126-0.136-0.25-0.272-0.368-0.416C9.415,58.674,9.539,58.811,9.665,58.946z"/>
		<path fill="none" d="M17.491,42.182c0.197,0.01,0.394,0.021,0.589,0.043C17.885,42.203,17.688,42.191,17.491,42.182z"/>
		<path fill="none" d="M24.322,45.363c0.132,0.143,0.262,0.286,0.387,0.437C24.584,45.649,24.454,45.506,24.322,45.363z"/>
		<path fill="none" d="M50.832,82.46c0.155,0.174,0.308,0.353,0.452,0.538C51.14,82.812,50.987,82.635,50.832,82.46z"/>
		<path fill="none" d="M18.445,42.273c0.188,0.027,0.374,0.059,0.56,0.097C18.819,42.332,18.633,42.301,18.445,42.273z"/>
		<path fill="none" d="M25.466,46.85c0.1,0.159,0.194,0.322,0.285,0.487C25.66,47.172,25.565,47.009,25.466,46.85z"/>
		<path fill="none" d="M26.617,49.433c0.088,0.309,0.163,0.624,0.222,0.946C26.78,50.057,26.705,49.741,26.617,49.433z"/>
		<path fill="none" d="M24.932,46.083c0.113,0.148,0.225,0.3,0.33,0.456C25.156,46.383,25.045,46.231,24.932,46.083z"/>
		<path fill="none" d="M26.312,48.527c0.077,0.199,0.145,0.405,0.21,0.612C26.457,48.933,26.39,48.727,26.312,48.527z"/>
		<path fill="none" d="M25.927,47.665c0.087,0.174,0.167,0.352,0.244,0.531C26.094,48.017,26.014,47.839,25.927,47.665z"/>
		<path fill="none" d="M21.105,43.048c0.198,0.089,0.391,0.188,0.582,0.29C21.496,43.236,21.304,43.137,21.105,43.048z"/>
		<path fill="none" d="M20.253,42.711c0.185,0.063,0.365,0.135,0.545,0.209C20.618,42.846,20.438,42.774,20.253,42.711z"/>
		<path fill="none" d="M19.366,42.451c0.183,0.045,0.364,0.096,0.544,0.15C19.73,42.547,19.55,42.496,19.366,42.451z"/>
		<path fill="none" d="M23.623,44.682c0.161,0.142,0.319,0.285,0.471,0.438C23.942,44.967,23.784,44.823,23.623,44.682z"/>
		<path fill="none" d="M50.059,81.68c0.223,0.199,0.438,0.409,0.643,0.629C50.496,82.089,50.281,81.879,50.059,81.68z"/>
		<path fill="none" d="M21.92,43.459c0.531,0.301,1.034,0.649,1.503,1.041C22.954,44.108,22.451,43.76,21.92,43.459z"/>
		<path fill="none" d="M13.735,61.608c-0.175-0.061-0.346-0.128-0.516-0.198C13.39,61.48,13.561,61.548,13.735,61.608z"/>
		<path fill="none" d="M57.982,0.127c0.275,0.043,0.548,0.098,0.816,0.164C58.529,0.225,58.258,0.17,57.982,0.127z"/>
		<path fill="none" d="M57.075,0.027c0.205,0.014,0.408,0.036,0.611,0.062C57.483,0.063,57.28,0.041,57.075,0.027z"/>
		<path fill="none" d="M55.086,0.097c0.119-0.017,0.237-0.023,0.356-0.035C55.323,0.073,55.205,0.08,55.086,0.097z"/>
		<path fill="none" d="M56.425,0c-0.063,0-0.129,0.011-0.192,0.012c0.167-0.003,0.333-0.004,0.498,0.001
			C56.629,0.01,56.527,0,56.425,0z"/>
		<path fill="none" d="M58.867,0.306c0.291,0.073,0.578,0.163,0.86,0.263C59.445,0.469,59.158,0.379,58.867,0.306z"/>
		<path fill="none" d="M59.978,0.665c0.196,0.075,0.392,0.154,0.583,0.241C60.369,0.819,60.174,0.74,59.978,0.665z"/>
		<path fill="none" d="M47.372,14.252c-0.089-0.189-0.17-0.384-0.247-0.581C47.202,13.868,47.283,14.062,47.372,14.252z"/>
		<path fill="none" d="M48.969,16.665c-0.156-0.174-0.309-0.353-0.453-0.539C48.66,16.312,48.812,16.491,48.969,16.665z"/>
		<path fill="none" d="M49.74,17.444c-0.223-0.199-0.438-0.409-0.643-0.629C49.303,17.035,49.518,17.245,49.74,17.444z"/>
		<path fill="none" d="M60.851,1.048c0.174,0.086,0.346,0.176,0.514,0.272C61.196,1.224,61.024,1.134,60.851,1.048z"/>
		<path fill="none" d="M47.011,13.384c-0.105-0.296-0.202-0.598-0.281-0.909C46.809,12.786,46.905,13.088,47.011,13.384z"/>
		<path fill="none" d="M48.327,15.868c-0.116-0.16-0.229-0.323-0.336-0.49C48.099,15.546,48.211,15.708,48.327,15.868z"/>
		<path fill="none" d="M16.488,62.139c-0.188-0.01-0.377-0.021-0.564-0.041C16.111,62.118,16.3,62.129,16.488,62.139z"/>
		<path fill="none" d="M18.78,61.997c-0.322,0.059-0.644,0.099-0.963,0.126C18.137,62.096,18.458,62.056,18.78,61.997z"/>
		<path fill="none" d="M16.979,62.16c0.17,0,0.343-0.015,0.514-0.023c-0.21,0.012-0.421,0.021-0.629,0.019
			C16.902,62.155,16.94,62.16,16.979,62.16z"/>
		<path fill="none" d="M50.323,17.919c-0.141-0.107-0.278-0.218-0.413-0.333c0.136,0.116,0.27,0.234,0.411,0.343L50.323,17.919z"/>
		<path fill="none" d="M65.823,6.617c0.106,0.296,0.203,0.599,0.282,0.91C66.026,7.216,65.93,6.913,65.823,6.617z"/>
		<path fill="none" d="M14.62,61.868c-0.175-0.043-0.349-0.092-0.521-0.145C14.271,61.776,14.445,61.825,14.62,61.868z"/>
		<path fill="none" d="M15.537,62.046c-0.18-0.026-0.358-0.057-0.535-0.093C15.18,61.989,15.357,62.02,15.537,62.046z"/>
		<path fill="none" d="M63.093,2.558c0.224,0.2,0.438,0.411,0.645,0.632C63.531,2.969,63.316,2.758,63.093,2.558z"/>
		<path fill="none" d="M61.65,1.488c0.168,0.104,0.332,0.213,0.493,0.326C61.982,1.701,61.818,1.592,61.65,1.488z"/>
		<path fill="none" d="M65.462,5.748c0.09,0.191,0.172,0.389,0.25,0.588C65.634,6.137,65.552,5.94,65.462,5.748z"/>
		<path fill="none" d="M63.86,3.332c0.159,0.177,0.313,0.358,0.46,0.547C64.174,3.689,64.02,3.509,63.86,3.332z"/>
		<path fill="none" d="M62.396,1.992c0.184,0.137,0.36,0.282,0.534,0.431C62.757,2.274,62.58,2.129,62.396,1.992z"/>
		<path fill="none" d="M64.505,4.131c0.117,0.162,0.231,0.327,0.34,0.497C64.736,4.458,64.622,4.293,64.505,4.131z"/>
		<path fill="none" d="M65.024,4.922c0.1,0.169,0.194,0.343,0.284,0.519C65.219,5.265,65.124,5.091,65.024,4.922z"/>
		<path fill="none" d="M47.809,15.078c-0.098-0.167-0.191-0.338-0.28-0.512C47.617,14.74,47.711,14.911,47.809,15.078z"/>
		<path fill="none" d="M72.529,70.966c-0.097-0.153-0.188-0.312-0.275-0.471C72.342,70.654,72.433,70.812,72.529,70.966z"/>
		<path fill="none" d="M73.061,71.73c-0.109-0.144-0.216-0.289-0.318-0.438C72.845,71.441,72.951,71.587,73.061,71.73z"/>
		<path fill="none" d="M72.07,70.153c-0.085-0.17-0.162-0.344-0.238-0.519C71.908,69.81,71.985,69.983,72.07,70.153z"/>
		<path fill="none" d="M79.217,55.822c0.323-0.059,0.646-0.099,0.966-0.125C79.862,55.724,79.54,55.764,79.217,55.822z"/>
		<path fill="none" d="M81.011,55.66c-0.177,0-0.355,0.015-0.533,0.023c0.221-0.012,0.441-0.021,0.66-0.018
			C81.095,55.665,81.053,55.66,81.011,55.66z"/>
		<path fill="none" d="M81.491,55.682c0.197,0.01,0.394,0.021,0.589,0.043C81.885,55.703,81.688,55.691,81.491,55.682z"/>
		<path fill="none" d="M71.687,69.293c-0.076-0.196-0.142-0.398-0.206-0.602C71.545,68.895,71.61,69.097,71.687,69.293z"/>
		<path fill="none" d="M73.665,72.446c-0.126-0.136-0.25-0.272-0.368-0.416C73.415,72.174,73.539,72.311,73.665,72.446z"/>
		<path fill="none" d="M77.735,75.108c-0.175-0.061-0.346-0.128-0.516-0.198C77.39,74.98,77.561,75.048,77.735,75.108z"/>
		<path fill="none" d="M78.62,75.368c-0.175-0.043-0.349-0.092-0.521-0.145C78.271,75.276,78.445,75.325,78.62,75.368z"/>
		<path fill="none" d="M76.884,74.771c-0.183-0.083-0.36-0.176-0.537-0.269C76.523,74.597,76.701,74.688,76.884,74.771z"/>
		<path fill="none" d="M76.071,74.36c-0.253-0.144-0.5-0.298-0.74-0.463C75.571,74.062,75.818,74.217,76.071,74.36z"/>
		<path fill="none" d="M75.301,73.878c-0.249-0.172-0.488-0.357-0.72-0.552C74.812,73.521,75.052,73.706,75.301,73.878z"/>
		<path fill="none" d="M74.355,73.123c-0.151-0.135-0.302-0.271-0.445-0.414C74.054,72.853,74.204,72.988,74.355,73.123z"/>
		<path fill="none" d="M87.623,58.182c0.161,0.142,0.319,0.285,0.471,0.438C87.942,58.467,87.784,58.323,87.623,58.182z"/>
		<path fill="none" d="M89.927,61.165c0.087,0.174,0.167,0.352,0.244,0.531C90.094,61.517,90.014,61.339,89.927,61.165z"/>
		<path fill="none" d="M89.466,60.35c0.1,0.159,0.194,0.322,0.285,0.487C89.66,60.672,89.565,60.509,89.466,60.35z"/>
		<path fill="none" d="M90.312,62.027c0.077,0.199,0.145,0.405,0.21,0.612C90.457,62.433,90.39,62.227,90.312,62.027z"/>
		<path fill="none" d="M88.932,59.583c0.113,0.148,0.225,0.3,0.33,0.456C89.156,59.883,89.045,59.731,88.932,59.583z"/>
		<path fill="none" d="M82.445,55.773c0.188,0.027,0.374,0.059,0.56,0.097C82.819,55.832,82.633,55.801,82.445,55.773z"/>
		<path fill="none" d="M90.617,62.933c0.088,0.309,0.163,0.624,0.222,0.946C90.78,63.557,90.705,63.241,90.617,62.933z"/>
		<path fill="none" d="M88.322,58.863c0.132,0.143,0.262,0.286,0.387,0.437C88.584,59.149,88.454,59.006,88.322,58.863z"/>
		<path fill="none" d="M83.366,55.951c0.183,0.045,0.364,0.096,0.544,0.15C83.73,56.047,83.55,55.996,83.366,55.951z"/>
		<path fill="none" d="M85.105,56.548c0.198,0.089,0.391,0.188,0.582,0.29C85.496,56.736,85.304,56.637,85.105,56.548z"/>
		<path fill="none" d="M84.253,56.211c0.185,0.063,0.365,0.135,0.545,0.209C84.618,56.346,84.438,56.274,84.253,56.211z"/>
		<path fill="none" d="M79.537,75.546c-0.18-0.026-0.358-0.057-0.535-0.093C79.18,75.489,79.357,75.52,79.537,75.546z"/>
		<path fill="none" d="M85.92,56.959c0.531,0.301,1.034,0.649,1.503,1.041C86.954,57.608,86.451,57.26,85.92,56.959z"/>
		<path fill="none" d="M44.71,99.025c-0.121,0.017-0.241,0.023-0.361,0.036C44.469,99.049,44.589,99.042,44.71,99.025z"/>
		<path fill="none" d="M38.147,97.636c-0.167-0.103-0.331-0.212-0.492-0.324C37.816,97.424,37.979,97.533,38.147,97.636z"/>
		<path fill="none" d="M37.4,97.132c-0.181-0.135-0.355-0.278-0.526-0.425C37.045,96.854,37.22,96.997,37.4,97.132z"/>
		<path fill="none" d="M39.831,98.464c-0.201-0.077-0.401-0.157-0.597-0.247C39.43,98.307,39.63,98.387,39.831,98.464z"/>
		<path fill="none" d="M38.949,98.078c-0.175-0.087-0.348-0.178-0.518-0.274C38.602,97.9,38.774,97.991,38.949,98.078z"/>
		<path fill="none" d="M35.933,95.786c-0.156-0.174-0.309-0.353-0.453-0.539C35.624,95.434,35.776,95.612,35.933,95.786z"/>
		<path fill="none" d="M52.788,85.737c0.106,0.297,0.203,0.599,0.282,0.91C52.991,86.336,52.895,86.034,52.788,85.737z"/>
		<path fill="none" d="M42.726,99.096c-0.211-0.014-0.419-0.036-0.627-0.062C42.307,99.06,42.515,99.082,42.726,99.096z"/>
		<path fill="none" d="M52.427,84.869c0.09,0.191,0.172,0.388,0.25,0.587C52.599,85.257,52.517,85.061,52.427,84.869z"/>
		<path fill="none" d="M43.366,99.123c0.065,0,0.132-0.011,0.198-0.013c-0.17,0.004-0.339,0.005-0.508,0
			C43.16,99.113,43.263,99.123,43.366,99.123z"/>
		<path fill="none" d="M35.291,94.989c-0.116-0.16-0.229-0.323-0.336-0.49C35.062,94.667,35.175,94.829,35.291,94.989z"/>
		<path fill="none" d="M40.932,98.819c-0.293-0.075-0.582-0.164-0.866-0.265C40.35,98.655,40.639,98.744,40.932,98.819z"/>
		<path fill="none" d="M41.816,98.997c-0.279-0.044-0.556-0.099-0.828-0.166C41.261,98.898,41.537,98.953,41.816,98.997z"/>
		<path fill="none" d="M36.704,96.565c-0.223-0.199-0.438-0.409-0.642-0.629C36.267,96.156,36.481,96.366,36.704,96.565z"/>
		<path fill="none" d="M34.772,94.199c-0.099-0.167-0.191-0.338-0.28-0.512C34.581,93.861,34.674,94.032,34.772,94.199z"/>
		<path fill="none" d="M49.81,81.475c0.026,0.021,0.054,0.042,0.079,0.063c-0.026-0.021-0.053-0.043-0.078-0.065L49.81,81.475z"/>
		<path fill="none" d="M80.979,75.66c0.17,0,0.343-0.015,0.514-0.023c-0.21,0.012-0.421,0.021-0.629,0.019
			C80.902,75.655,80.94,75.66,80.979,75.66z"/>
		<path fill="none" d="M51.99,84.044c0.099,0.169,0.192,0.341,0.282,0.516C52.183,84.385,52.089,84.213,51.99,84.044z"/>
		<path fill="none" d="M82.78,75.497c-0.322,0.059-0.644,0.099-0.963,0.126C82.137,75.596,82.458,75.556,82.78,75.497z"/>
		<path fill="none" d="M80.488,75.639c-0.188-0.01-0.377-0.021-0.564-0.041C80.111,75.618,80.3,75.629,80.488,75.639z"/>
		<path fill="none" d="M51.472,83.255c0.116,0.161,0.229,0.323,0.337,0.492C51.701,83.578,51.588,83.416,51.472,83.255z"/>
		<path fill="none" d="M33.975,92.505c-0.105-0.296-0.202-0.598-0.281-0.909C33.772,91.907,33.869,92.209,33.975,92.505z"/>
		<path fill="none" d="M34.336,93.373c-0.089-0.189-0.17-0.384-0.247-0.581C34.166,92.989,34.247,93.184,34.336,93.373z"/>
		<path d="M69.323,57.979L53.87,55.254l5.635-31.62c-1.021,0.231-2.062,0.368-3.103,0.368c-2.448,0-4.772-0.64-6.802-1.772
			l-5.58,31.288l-13.059-2.303c0.219,3.162-0.628,6.281-2.459,8.923c-0.17,0.244-0.357,0.471-0.54,0.702l14.404,2.54l-1.682,12.032
			c0.894-0.177,1.796-0.292,2.702-0.292c2.593,0,5.044,0.722,7.155,1.98l1.674-11.984l14.956,2.638
			C66.639,64.218,67.483,60.772,69.323,57.979z"/>
	</g>
	<path d="M53.339,87.719c0.982,5.435-2.625,10.638-8.059,11.618c-5.434,0.989-10.635-2.618-11.619-8.054
		c-0.982-5.437,2.625-10.635,8.056-11.621C47.153,78.678,52.354,82.287,53.339,87.719z"/>
	<path d="M66.755,8.219c0.982,5.435-2.625,10.638-8.059,11.618c-5.434,0.989-10.635-2.618-11.619-8.054
		c-0.982-5.437,2.625-10.635,8.056-11.621C60.569-0.822,65.771,2.787,66.755,8.219z"/>
	<path d="M90.739,64.019c0.982,5.435-2.625,10.638-8.059,11.618c-5.434,0.989-10.635-2.618-11.619-8.054
		c-0.982-5.437,2.625-10.635,8.056-11.621C84.554,54.978,89.755,58.587,90.739,64.019z"/>
	<path d="M26.938,51.019c0.982,5.435-2.625,10.638-8.059,11.618c-5.434,0.989-10.635-2.618-11.619-8.054
		c-0.982-5.437,2.625-10.635,8.056-11.621C20.753,41.978,25.954,45.587,26.938,51.019z"/>
</g>
</svg>
