<?xml version="1.0" encoding="utf-8"?>
<!-- Generator: Adobe Illustrator 16.0.0, SVG Export Plug-In . SVG Version: 6.00 Build 0)  -->
<!DOCTYPE svg PUBLIC "-//W3C//DTD SVG 1.0//EN" "http://www.w3.org/TR/2001/REC-SVG-20010904/DTD/svg10.dtd">
<svg version="1.0" xmlns="http://www.w3.org/2000/svg" xmlns:xlink="http://www.w3.org/1999/xlink" x="0px" y="0px" width="100px"
	 height="100px" viewBox="0 0 100 100" enable-background="new 0 0 100 100" xml:space="preserve">
<g id="Layer_3">
</g>
<g id="Your_Icon">
</g>
<g id="Layer_4">
	<path d="M71.872,92.562c-6.245,0.001-13.295-2.122-17.908-9.224L26.517,41.084c-0.18-0.276-1.766-2.807-2-6.244
		c-0.323-4.738,2.015-8.982,6.583-11.949c4.274-2.777,8.88-2.97,12.969-0.546c2.826,1.676,4.436,4.077,4.61,4.346l18.288,28.156
		l-6.709,4.357L41.97,31.048c-0.987-1.447-3.178-3.611-6.513-1.448c-2.815,1.828-3.037,3.556-2.959,4.695
		c0.091,1.333,0.722,2.422,0.728,2.432L60.673,78.98c5.306,8.171,15.797,5.17,17.959,4.442c11.343-8.191,5.538-19.095,4.684-20.557
		l-25.014-38.51C49.475,10.766,39.009,9.229,33.551,9.533c-7.904,0.431-15.021,5.076-18.573,12.121
		c-4.212,8.353-2.911,18.451,3.663,28.437l10.545,16.235l-6.709,4.357L11.945,54.469C3.863,42.192,2.359,28.911,7.834,18.053
		C12.673,8.457,22.359,2.132,33.115,1.545c12.223-0.66,23.846,6.059,31.896,18.454L90.135,58.68
		c0.114,0.188,11.137,18.821-7.362,31.612l-0.377,0.261l-0.426,0.169C79.486,91.703,75.841,92.562,71.872,92.562z"/>
</g>
</svg>
