<?xml version="1.0" encoding="utf-8"?>
<!-- Generator: Adobe Illustrator 16.0.0, SVG Export Plug-In . SVG Version: 6.00 Build 0)  -->
<!DOCTYPE svg PUBLIC "-//W3C//DTD SVG 1.0//EN" "http://www.w3.org/TR/2001/REC-SVG-20010904/DTD/svg10.dtd">
<svg version="1.0" xmlns="http://www.w3.org/2000/svg" xmlns:xlink="http://www.w3.org/1999/xlink" x="0px" y="0px" width="100px"
	 height="100px" viewBox="0 0 100 100" enable-background="new 0 0 100 100" xml:space="preserve">
<g id="Layer_3">
</g>
<g id="Your_Icon">
</g>
<g id="Layer_4">
	<g>
		<path fill="none" d="M20.049,25c-1.061,0-2.103-0.714-2.853,0.036C16.445,25.786,16,26.668,16,27.729v0.105
			c0-1.061,0.445-2.023,1.196-2.773C17.946,24.311,18.988,25,20.049,25z"/>
		<path fill="none" d="M80.049,72c1.061,0,2.054-0.294,2.804-1.044c0.751-0.75,1.147-1.64,1.147-2.7V68.15
			c0,1.061-0.396,2.027-1.147,2.777C82.103,71.678,81.109,72,80.049,72z"/>
		<path d="M96,11H4c-2.209,0-4,1.791-4,4v69c0,2.209,1.791,4,4,4h24.036l-5.507,7.439l6.91,4.031L32.631,94l5.824-7.984
			c0.722-1.237,0.727-2.766,0.014-4.008C37.755,80.766,36.433,80,35,80H8V19h84v61H65c-1.433,0-2.755,0.766-3.469,2.008
			c-0.713,1.242-0.708,2.771,0.014,4.008L67.369,94l3.191,5.471l6.91-4.031L71.964,88H96c2.209,0,4-1.791,4-4V15
			C100,12.791,98.209,11,96,11z"/>
		<g>
			<g>
				<rect x="24.001" y="33" fill="none" width="51.998" height="32"/>
				<path d="M83.998,28.614c0-2.209-1.791-3.614-4-3.614H20c-1.061,0-2.078,0.061-2.828,0.811C16.421,26.561,16,27.398,16,28.459
					l0.002,40.481c0,2.209,1.791,4.06,4,4.06H80c1.061,0,2.078-0.572,2.828-1.322C83.579,70.928,84,69.961,84,68.9L83.998,28.614z
					 M24,33h51.998L76,65H24"/>
			</g>
		</g>
	</g>
</g>
</svg>
