<?xml version="1.0" encoding="utf-8"?>
<!-- Generator: Adobe Illustrator 16.0.0, SVG Export Plug-In . SVG Version: 6.00 Build 0)  -->
<!DOCTYPE svg PUBLIC "-//W3C//DTD SVG 1.0//EN" "http://www.w3.org/TR/2001/REC-SVG-20010904/DTD/svg10.dtd">
<svg version="1.0" xmlns="http://www.w3.org/2000/svg" xmlns:xlink="http://www.w3.org/1999/xlink" x="0px" y="0px" width="100px"
	 height="100px" viewBox="0 0 100 100" enable-background="new 0 0 100 100" xml:space="preserve">
<g id="Layer_3">
</g>
<g id="Your_Icon">
</g>
<g id="Layer_4">
	<path d="M75.02,73.156l-5.59-5.722L87.276,50L69.43,32.566l5.59-5.722l20.775,20.295C96.565,47.891,97,48.923,97,50
		s-0.435,2.109-1.205,2.861L75.02,73.156z"/>
	<path d="M25.78,73.156L5.004,52.861C4.234,52.109,3.8,51.077,3.8,50s0.435-2.109,1.205-2.861L25.78,26.844l5.59,5.722L13.524,50
		L31.37,67.434L25.78,73.156z"/>
	<rect x="46" y="15.121" transform="matrix(0.9659 0.2591 -0.2591 0.9659 14.6616 -11.247)" width="8" height="69.757"/>
</g>
</svg>
