<?xml version="1.0" encoding="utf-8"?>
<!-- Generator: Adobe Illustrator 16.0.0, SVG Export Plug-In . SVG Version: 6.00 Build 0)  -->
<!DOCTYPE svg PUBLIC "-//W3C//DTD SVG 1.1//EN" "http://www.w3.org/Graphics/SVG/1.1/DTD/svg11.dtd">
<svg version="1.1" xmlns="http://www.w3.org/2000/svg" xmlns:xlink="http://www.w3.org/1999/xlink" x="0px" y="0px" width="100px"
	 height="100px" viewBox="0 0 100 100" enable-background="new 0 0 100 100" xml:space="preserve">
<g id="Layer_3" display="none">
</g>
<g id="Your_Icon">
</g>
<g id="Layer_4">
	<g>
		<path d="M87.753,60.498c1.548,0,3.247,0.24,4.247,0.691V33.31c-1,0.45-2.95,0.688-4.501,0.688c-1.549,0-2.499-0.24-4.499-0.691
			v24.069L65.347,40.98c-2.504,1.76-5.35,2.718-8.475,2.718c-1.957,0-3.794-0.377-5.557-1.09L40.208,69.617L20.665,24.03
			c-2.392,1.536-5.162,2.37-8.074,2.37c-0.22,0-0.433-0.022-0.651-0.032L32.633,74.96c2.272-1.334,4.861-2.06,7.567-2.06
			c2.712,0,5.31,0.732,7.593,2.077l11.393-27.645l18.59,17.1C80.547,61.899,83.974,60.498,87.753,60.498z"/>
		<path d="M20.104,19.741c-3.891,3.919-10.218,3.95-14.143,0.061c-3.925-3.885-3.95-10.216-0.065-14.14
			C9.789,1.738,16.114,1.71,20.041,5.594C23.964,9.483,23.988,15.817,20.104,19.741z"/>
		<path d="M47.104,93.941c-3.891,3.919-10.218,3.95-14.143,0.061c-3.925-3.885-3.95-10.216-0.065-14.14
			c3.893-3.924,10.218-3.952,14.145-0.068C50.964,83.684,50.988,90.018,47.104,93.941z"/>
		<path d="M64.104,36.941c-3.891,3.919-10.218,3.95-14.143,0.061c-3.925-3.885-3.95-10.216-0.065-14.14
			c3.893-3.924,10.218-3.952,14.145-0.068C67.964,26.684,67.988,33.018,64.104,36.941z"/>
		<path d="M94.604,81.441c-3.891,3.919-10.218,3.95-14.143,0.061c-3.925-3.885-3.95-10.216-0.065-14.14
			c3.893-3.924,10.218-3.952,14.145-0.068C98.463,71.184,98.487,77.518,94.604,81.441z"/>
		<path d="M94.203,27.941c-3.891,3.919-10.218,3.95-14.143,0.061c-3.925-3.885-3.95-10.216-0.065-14.14
			c3.893-3.924,10.218-3.952,14.145-0.068C98.062,17.684,98.087,24.018,94.203,27.941z"/>
	</g>
</g>
</svg>
