<?xml version="1.0" encoding="utf-8"?>
<!-- Generator: Adobe Illustrator 16.0.0, SVG Export Plug-In . SVG Version: 6.00 Build 0)  -->
<!DOCTYPE svg PUBLIC "-//W3C//DTD SVG 1.0//EN" "http://www.w3.org/TR/2001/REC-SVG-20010904/DTD/svg10.dtd">
<svg version="1.0" xmlns="http://www.w3.org/2000/svg" xmlns:xlink="http://www.w3.org/1999/xlink" x="0px" y="0px" width="100px"
	 height="100px" viewBox="0 0 100 100" enable-background="new 0 0 100 100" xml:space="preserve">
<g id="Layer_3">
</g>
<g id="Your_Icon">
</g>
<g id="Layer_4">
	<path d="M96,76.5H33c-2.209,0-4-1.791-4-4v-69c0-2.209,1.791-4,4-4h63c2.209,0,4,1.791,4,4v69C100,74.709,98.209,76.5,96,76.5z
		 M37,68.5h55v-61H37V68.5z"/>
	<path d="M67,99.5H4.2c-2.209,0-4-1.791-4-4V26c0-2.209,1.791-4,4-4H24v8H8.2v61.5H63V80h8v15.5C71,97.709,69.209,99.5,67,99.5z"/>
	<rect x="46" y="19.1" width="36" height="8"/>
	<rect x="46" y="34.1" width="36" height="8"/>
	<rect x="46" y="49.5" width="36" height="8"/>
</g>
</svg>
