<?xml version="1.0" encoding="utf-8"?>
<!-- Generator: Adobe Illustrator 16.0.0, SVG Export Plug-In . SVG Version: 6.00 Build 0)  -->
<!DOCTYPE svg PUBLIC "-//W3C//DTD SVG 1.1//EN" "http://www.w3.org/Graphics/SVG/1.1/DTD/svg11.dtd">
<svg version="1.1" xmlns="http://www.w3.org/2000/svg" xmlns:xlink="http://www.w3.org/1999/xlink" x="0px" y="0px" width="100px"
	 height="100px" viewBox="0 0 100 100" enable-background="new 0 0 100 100" xml:space="preserve">
<g id="Layer_3" display="none">
</g>
<g id="Your_Icon">
</g>
<g id="Layer_4">
	<g>
		<path d="M87.753,60.598c1.548,0,3.247,0.24,4.247,0.691v-27.88c-1,0.45-2.95,0.688-4.501,0.688c-1.549,0-2.499-0.24-4.499-0.691
			v24.069L65.347,41.08c-2.504,1.76-5.35,2.718-8.475,2.718c-1.957,0-3.794-0.377-5.557-1.09L40.208,69.717L20.665,24.13
			c-2.392,1.536-5.162,2.37-8.074,2.37c-0.22,0-0.433-0.022-0.651-0.032L32.633,75.06C34.905,73.726,37.494,73,40.2,73
			c2.712,0,5.31,0.732,7.593,2.077l11.393-27.645l18.59,17.1C80.547,61.999,83.974,60.598,87.753,60.598z"/>
		<path d="M19.959,19.112c-4.085,4.115-10.729,4.148-14.85,0.065C0.988,15.099,0.961,8.452,5.04,4.332
			c4.088-4.12,10.729-4.149,14.853-0.072C24.012,8.343,24.037,14.994,19.959,19.112z"/>
		<path d="M64.659,35.49c-4.085,4.115-10.729,4.148-14.85,0.065c-4.121-4.079-4.148-10.726-0.069-14.846
			c4.088-4.12,10.729-4.149,14.853-0.072C68.712,24.721,68.737,31.372,64.659,35.49z"/>
		<path d="M94.959,26.674c-4.085,4.115-10.728,4.148-14.851,0.065c-4.12-4.079-4.146-10.726-0.067-14.846
			c4.088-4.121,10.728-4.149,14.853-0.072C99.012,15.904,99.038,22.556,94.959,26.674z"/>
		<path d="M96.159,83.593c-4.085,4.115-10.729,4.148-14.851,0.065c-4.12-4.079-4.146-10.726-0.067-14.846
			c4.088-4.121,10.728-4.149,14.853-0.072C100.212,72.823,100.238,79.475,96.159,83.593z"/>
		<path d="M47.76,96.092c-4.085,4.116-10.729,4.149-14.85,0.066c-4.121-4.079-4.148-10.726-0.069-14.846
			c4.088-4.12,10.729-4.149,14.852-0.072C51.812,85.323,51.838,91.975,47.76,96.092z"/>
	</g>
</g>
</svg>
