<?xml version="1.0" encoding="utf-8"?>
<!-- Generator: Adobe Illustrator 16.0.0, SVG Export Plug-In . SVG Version: 6.00 Build 0)  -->
<!DOCTYPE svg PUBLIC "-//W3C//DTD SVG 1.1//EN" "http://www.w3.org/Graphics/SVG/1.1/DTD/svg11.dtd">
<svg version="1.1" xmlns="http://www.w3.org/2000/svg" xmlns:xlink="http://www.w3.org/1999/xlink" x="0px" y="0px" width="100px"
	 height="100px" viewBox="0 0 100 100" enable-background="new 0 0 100 100" xml:space="preserve">
<g id="Layer_3" display="none">
</g>
<g id="Your_Icon">
</g>
<g id="Layer_4">
	<g>
		<path d="M86.211,72H79V59.526C79,56.758,78.071,55,75.275,55h-4.962c5.415-10,10.184-18.409,10.121-25.928
			C80.289,11.013,69.204,0,51.505,0h-0.344c-8.92,0-16.477,2.441-21.851,7.71c-5.443,5.336-8.281,12.833-8.208,21.646
			C21.159,36.325,25.634,45,31,55h-4.737C23.466,55,21,56.758,21,59.526V72h-4.662C13.542,72,10,73.802,10,76.571v17.115
			c0,2.769,3.542,6.313,6.338,6.313h69.874C89.008,100,90,96.455,90,93.687V76.571C90,73.802,89.008,72,86.211,72z M36.435,14.822
			C39.896,11.43,45.016,10,51.243,10h0.263c8.507,0,18.674,2.917,18.802,18.898c0.06,7.13-8.344,20.246-11.506,25.267
			c-1.904,3.02-2.356,3.629-2.479,5.043c-0.121,1.399,0.356,2.958,1.315,3.993C58.597,64.236,59.95,65,61.368,65H69v7H31v-7h8.685
			c1.397,0,2.732-0.803,3.689-1.809c0.957-1.008,1.451-2.479,1.365-3.859c-0.089-1.421-0.505-2.18-2.505-5.551
			c-2.995-5.049-10.953-18.338-11.004-24.797C31.179,22.938,32.979,18.21,36.435,14.822z M80,90H21v-8h5.262h49.013H80V90z"/>
	</g>
</g>
</svg>
