<?xml version="1.0" encoding="utf-8"?>
<!-- Generator: Adobe Illustrator 16.0.0, SVG Export Plug-In . SVG Version: 6.00 Build 0)  -->
<!DOCTYPE svg PUBLIC "-//W3C//DTD SVG 1.1//EN" "http://www.w3.org/Graphics/SVG/1.1/DTD/svg11.dtd">
<svg version="1.1" xmlns="http://www.w3.org/2000/svg" xmlns:xlink="http://www.w3.org/1999/xlink" x="0px" y="0px" width="100px"
	 height="100px" viewBox="0 0 100 100" enable-background="new 0 0 100 100" xml:space="preserve">
<g id="Layer_3" display="none">
</g>
<g id="Your_Icon">
</g>
<g id="Layer_4">
	<g>
		<path d="M86.8,33h-3.829c0.184-1,0.443-0.959,0.784-1.42c0.546-0.736,1.081-1.098,2.489-1.098c2.652,0,5.074-1.049,6.949-2.924
			C95.069,25.684,96,23.146,96,20.493V9.987c0-2.818-1.039-5.506-3.124-7.4c-1.849-1.68-4.175-2.6-6.651-2.6
			c-0.316,0-0.596,0.014-0.914,0.045C84.489,0.11,76.14,0.911,68.539,4.786C57.119,10.61,51,20.497,51,32.63V33h-5.3
			c-5.522,0-9.7,4.524-9.7,10.048v10C36,58.569,40.178,63,45.7,63H51v26.931C51,95.452,55.178,100,60.7,100h12.1
			c5.522,0,10.2-4.548,10.2-10.069V63h3.8c5.522,0,10.2-4.431,10.2-9.952v-10C97,37.524,92.322,33,86.8,33z M87,53H73v37H61V53H46
			V43h15V32.63C61,12.329,86,9.987,86,9.987S86.018,22,86,22c-14.6,0.1-13,13.6-13,13.6V43h14V53z"/>
	</g>
</g>
</svg>
