<?xml version="1.0" encoding="utf-8"?>
<!-- Generator: Adobe Illustrator 16.0.0, SVG Export Plug-In . SVG Version: 6.00 Build 0)  -->
<!DOCTYPE svg PUBLIC "-//W3C//DTD SVG 1.1//EN" "http://www.w3.org/Graphics/SVG/1.1/DTD/svg11.dtd">
<svg version="1.1" xmlns="http://www.w3.org/2000/svg" xmlns:xlink="http://www.w3.org/1999/xlink" x="0px" y="0px" width="100px"
	 height="100px" viewBox="0 0 100 100" enable-background="new 0 0 100 100" xml:space="preserve">
<g id="Layer_3" display="none">
</g>
<g id="Your_Icon">
</g>
<g id="Layer_4">
	<g>
		<path fill="#FFFFFF" d="M50,48c-6.615,0-12,5.38-12,12s5.385,12,12,12s12-5.38,12-12S56.615,48,50,48z"/>
		<path d="M95,20H71.964L67.55,8.223C66.82,6.269,64.953,5,62.867,5h-25.9c-2.099,0-3.975,1.285-4.696,3.256L27.966,20H5
			c-2.761,0-5,2.291-5,5.053v69.946c0,1.327,0.527,2.601,1.466,3.538C2.404,99.473,3.675,100,5,100c0.002,0,0.004,0,0.005,0l90-0.1
			c2.759-0.002,4.995-2.241,4.995-5V25.053C100,22.291,97.761,20,95,20z M90,89.906l-80,0.087V30h21.461
			c2.099,0,3.975-1.285,4.696-3.256L40.462,15h18.937l4.414,11.777C64.543,28.731,66.41,30,68.496,30H90V89.906z"/>
		<path d="M50,38c-12.131,0-22,9.869-22,22s9.869,22,22,22s22-9.869,22-22S62.131,38,50,38z M50,72c-6.615,0-12-5.38-12-12
			s5.385-12,12-12s12,5.38,12,12S56.615,72,50,72z"/>
	</g>
</g>
</svg>
