<?xml version="1.0" encoding="utf-8"?>
<!-- Generator: Adobe Illustrator 16.0.0, SVG Export Plug-In . SVG Version: 6.00 Build 0)  -->
<!DOCTYPE svg PUBLIC "-//W3C//DTD SVG 1.1//EN" "http://www.w3.org/Graphics/SVG/1.1/DTD/svg11.dtd">
<svg version="1.1" xmlns="http://www.w3.org/2000/svg" xmlns:xlink="http://www.w3.org/1999/xlink" x="0px" y="0px" width="100px"
	 height="100px" viewBox="0 0 100 100" enable-background="new 0 0 100 100" xml:space="preserve">
<g id="Layer_3" display="none">
</g>
<g id="Your_Icon">
</g>
<g id="Layer_4">
	<g>
		<path fill="#211915" d="M19.018,84H44v-0.848V74H19.018c0,0,0.01,0,0.011,0h-0.011c0-13,8.119-21.418,21.005-21.418
			c8.459,0,14.713,3.796,18.87,9.451c0.217,0.295,0.1-13.768,0-13.859c-4.933-4.502-11.674-5.861-18.807-5.861
			c-8.893,0-16.912,3.156-22.527,8.916C12.091,56.838,9.057,65.1,9.036,73.773C9.057,79.277,13.509,84,19.018,84z"/>
		<polygon fill="#211915" points="76,72 76,57 64,57 64,72 49,72 49,84 64,84 64,99 76,99 76,84 91,84 91,72 		"/>
		<g>
			<path fill="#211915" d="M39.999,9.5C44.972,9.5,49,13.756,49,19c0,5.248-4.028,9.5-9.001,9.5C35.028,28.5,31,24.248,31,19
				C31,13.756,35.028,9.5,39.999,9.5 M39.999,0.5C30.074,0.5,22,8.799,22,19s8.074,18.5,17.999,18.5C49.925,37.5,58,29.201,58,19
				S49.925,0.5,39.999,0.5L39.999,0.5z"/>
		</g>
	</g>
</g>
</svg>
