<?xml version="1.0" encoding="utf-8"?>
<!-- Generator: Adobe Illustrator 16.0.0, SVG Export Plug-In . SVG Version: 6.00 Build 0)  -->
<!DOCTYPE svg PUBLIC "-//W3C//DTD SVG 1.1//EN" "http://www.w3.org/Graphics/SVG/1.1/DTD/svg11.dtd">
<svg version="1.1" xmlns="http://www.w3.org/2000/svg" xmlns:xlink="http://www.w3.org/1999/xlink" x="0px" y="0px" width="100px"
	 height="100px" viewBox="0 0 100 100" enable-background="new 0 0 100 100" xml:space="preserve">
<g id="Layer_3" display="none">
</g>
<g id="Your_Icon">
</g>
<g id="Layer_4">
	<g>
		<path fill="none" d="M51,22c-16.569,0-40,28-40,28s23.431,28,40,28c16.568,0,38-28,38-28S67.568,22,51,22z M51.5,68
			c-11.028,0-20-8.972-20-19.999C31.5,36.972,40.472,28,51.5,28s20,8.972,20,20.001C71.5,59.028,62.528,68,51.5,68z"/>
		<path fill="none" d="M51.5,38c-5.525,0-10,4.477-10,10.001c0,5.521,4.475,9.999,10,9.999c5.516,0,10-4.478,10-9.999
			C61.5,42.477,57.016,38,51.5,38z"/>
		<g>
			<path d="M51.5,28c-11.028,0-20,8.972-20,20.001C31.5,59.028,40.472,68,51.5,68s20-8.972,20-19.999C71.5,36.972,62.528,28,51.5,28
				z M51.5,58c-5.525,0-10-4.478-10-9.999C41.5,42.477,45.975,38,51.5,38c5.516,0,10,4.477,10,10.001C61.5,53.522,57.016,58,51.5,58
				z"/>
		</g>
		<path d="M96.941,43.922c-0.239-0.312-5.942-7.729-13.87-15.2C71.129,17.47,60.639,12,51,12c-9.514,0-20.253,5.398-32.832,16.503
			C9.77,35.918,3.59,43.273,3.331,43.583c-3.108,3.714-3.108,9.121,0,12.835c0.259,0.31,6.439,7.665,14.837,15.079
			C30.747,82.602,41.486,88,51,88c9.639,0,20.129-5.47,32.071-16.722c7.928-7.47,13.631-14.888,13.87-15.2
			C99.687,52.491,99.687,47.509,96.941,43.922z M51,78c-16.569,0-40-28-40-28s23.431-28,40-28c16.568,0,38,28,38,28S67.568,78,51,78
			z"/>
	</g>
</g>
</svg>
