<?xml version="1.0" encoding="utf-8"?>
<!-- Generator: Adobe Illustrator 16.0.0, SVG Export Plug-In . SVG Version: 6.00 Build 0)  -->
<!DOCTYPE svg PUBLIC "-//W3C//DTD SVG 1.1//EN" "http://www.w3.org/Graphics/SVG/1.1/DTD/svg11.dtd">
<svg version="1.1" xmlns="http://www.w3.org/2000/svg" xmlns:xlink="http://www.w3.org/1999/xlink" x="0px" y="0px" width="100px"
	 height="100px" viewBox="0 0 100 100" enable-background="new 0 0 100 100" xml:space="preserve">
<g id="Layer_3" display="none">
</g>
<g id="Your_Icon">
</g>
<g id="Layer_4">
	<g>
		<g>
			<path d="M48.513,51.303c5.249,0,9.502-4.253,9.502-9.5s-4.251-9.5-9.502-9.5c-5.234,0-9.498,4.253-9.498,9.5
				S43.278,51.303,48.513,51.303z"/>
		</g>
		<path fill="#211915" d="M86.966,15.696c-5.811-5.817-19.78-10.26-29.977-12.297C44.491,0.903,32.979,0.755,32.496,0.75l-0.107,10
			c0.11,0.001,11.096,0.149,22.642,2.456c12.426,2.481,22.083,6.776,24.861,9.558c10.053,10.062,6.201,35.178-0.868,48.048
			c-4.067,7.409-25.767,18.841-39.135,18.907c-1.505-0.023-5.073-0.164-6.008-1.819c-1.096-2.471-1.409-14.896-1.015-24.951
			c0.055-1.398-0.479-2.756-1.472-3.743c-0.993-0.985-2.339-1.501-3.752-1.448l-12.18,0.556l5.33-21.516l-9.707-2.404L4.146,62.41
			c-0.379,1.531-0.014,3.152,0.987,4.372c1,1.22,2.51,1.893,4.094,1.825l13.487-0.615c-0.171,9.069,0.112,20.293,2.409,24.37
			C26.921,95.561,30.921,99,39.783,99c0.051,0,0.104,0,0.155,0c16.224,0,41.714-12.557,47.851-23.734
			c4.596-8.366,7.637-19.49,8.137-30.057C96.353,36.182,95.145,23.882,86.966,15.696z"/>
	</g>
</g>
</svg>
