<?xml version="1.0" encoding="utf-8"?>
<!-- Generator: Adobe Illustrator 16.0.0, SVG Export Plug-In . SVG Version: 6.00 Build 0)  -->
<!DOCTYPE svg PUBLIC "-//W3C//DTD SVG 1.1//EN" "http://www.w3.org/Graphics/SVG/1.1/DTD/svg11.dtd">
<svg version="1.1" xmlns="http://www.w3.org/2000/svg" xmlns:xlink="http://www.w3.org/1999/xlink" x="0px" y="0px" width="100px"
	 height="100px" viewBox="0 0 100 100" enable-background="new 0 0 100 100" xml:space="preserve">
<g id="Layer_3" display="none">
</g>
<g id="Your_Icon">
</g>
<g id="Layer_4">
	<g opacity="0.99">
		<path fill="#211915" d="M51.159,98.293c-19.708,0-23.02-11.947-36.671-62.131c-0.671,0.335-1.619,0.898-2.885,1.844
			c-1.482,1.106-3.455,1.304-5.127,0.516l-2.111-0.997c-1.38-0.651-2.386-1.896-2.733-3.382s0.001-3.048,0.948-4.243
			c2.63-3.321,16.355-19.887,28.374-19.887c5.928,0,13.313,3.569,14.835,20.572c2.818,31.545,9.524,32.96,9.591,32.96
			c0.575,0,1.377-0.527,1.731-0.848c3.132-3.715,13.771-23.809,11.067-29.709c-0.114-0.249-0.418-0.911-2.685-0.911
			c-1.292,0-2.877,0.233-4.712,0.694c-1.941,0.485-3.981-0.228-5.192-1.816c-1.213-1.589-1.362-3.746-0.382-5.487
			c0.378-0.67,9.423-16.41,24.937-16.41c4.98,0,9.983,1.643,14.867,4.884c7.955,5.276,6.063,21.604-5.622,48.529
			c-3.613,8.325-9.04,16.753-14.888,23.123C66.94,93.829,59.045,98.22,51.667,98.291L51.159,98.293z M24.134,33.523
			c14.074,51.71,16.3,54.77,27.025,54.77l0.414-0.002c9.743-0.094,22.454-15.542,28.643-29.801
			c9.091-20.947,10.853-33.964,9.191-36.267c-3.19-2.102-6.307-3.166-9.263-3.166c-3.741,0-7.014,1.691-9.622,3.768
			c4.195,1.39,6.102,4.414,6.931,6.42c5.216,12.615-10.965,38.227-13.235,40.49c-0.89,0.89-4.171,3.809-8.835,3.81
			c-0.001,0-0.003,0-0.003,0c-10.628,0.001-17.022-13.76-19.552-42.069c-0.24-2.688-1.303-11.463-4.874-11.463
			c-2.905,0-7.236,2.871-11.405,6.535C22.242,27.922,23.828,30.723,24.134,33.523z"/>
	</g>
</g>
</svg>
