<?xml version="1.0" encoding="utf-8"?>
<!-- Generator: Adobe Illustrator 16.0.0, SVG Export Plug-In . SVG Version: 6.00 Build 0)  -->
<!DOCTYPE svg PUBLIC "-//W3C//DTD SVG 1.0//EN" "http://www.w3.org/TR/2001/REC-SVG-20010904/DTD/svg10.dtd">
<svg version="1.0" xmlns="http://www.w3.org/2000/svg" xmlns:xlink="http://www.w3.org/1999/xlink" x="0px" y="0px" width="100px"
	 height="100px" viewBox="0 0 100 100" enable-background="new 0 0 100 100" xml:space="preserve">
<g id="Layer_3">
</g>
<g id="Your_Icon">
</g>
<g id="Layer_4">
	<g>
		<path fill="none" d="M40.961,20.121c-22.662,0-41.536,13.369-25.384,67.379c0,0,2.742,0.633,5.695,0.633
			c4.922,0,10.43-1.758,4.805-11.133c0,0,5.63,0.987,10.831,0.987c6.503,0,12.336-1.542,5.669-8.487c0,0,4.43,0.633,9.07,0.633
			c7.734,0,16.055-1.758,5.43-11.133c0,0,28-0.5,11-12.5c0,0,2.756,0.394,6.322,0.394c7.802,0,19.481-1.884,14.678-13.894
			C89.077,33,63.196,20.121,40.961,20.121z"/>
		<path d="M96.505,30.029c-0.729-1.824-2.104-3.316-3.864-4.191c-1.125-0.561-27.838-13.717-51.68-13.717
			c-14.309,0-25.003,4.618-31.785,13.726c-9.788,13.143-10.201,34.06-1.264,63.945c0.824,2.756,3.064,4.856,5.866,5.503
			c0.371,0.086,3.738,0.838,7.494,0.838c8.192,0,11.938-3.578,13.638-6.579c0.639-1.128,1.078-2.318,1.321-3.57
			c0.226,0.003,0.452,0.004,0.677,0.004c3.129,0,12.648,0,15.799-7.394c0.067-0.155,0.13-0.312,0.188-0.469
			c4.443-0.069,13.724-0.79,16.538-8.236c0.604-1.596,0.784-3.141,0.666-4.607c4.044-1.132,9.308-3.539,10.984-8.99
			c0.196-0.639,0.335-1.275,0.415-1.908c6.603-1.037,11.351-3.646,14.16-7.796C97.801,43.423,99.687,37.982,96.505,30.029z
			 M74.399,46.894c-3.566,0-6.322-0.394-6.322-0.394c17,12-11,12.5-11,12.5c10.625,9.375,2.305,11.133-5.43,11.133
			c-4.641,0-9.07-0.633-9.07-0.633c6.667,6.945,0.834,8.487-5.669,8.487C31.707,77.987,26.077,77,26.077,77
			c5.625,9.375,0.117,11.133-4.805,11.133c-2.953,0-5.695-0.633-5.695-0.633c-16.152-54.01,2.722-67.379,25.384-67.379
			C63.196,20.121,89.077,33,89.077,33C93.881,45.01,82.201,46.894,74.399,46.894z"/>
	</g>
</g>
</svg>
