<?xml version="1.0" encoding="utf-8"?>
<!-- Generator: Adobe Illustrator 16.0.0, SVG Export Plug-In . SVG Version: 6.00 Build 0)  -->
<!DOCTYPE svg PUBLIC "-//W3C//DTD SVG 1.1//EN" "http://www.w3.org/Graphics/SVG/1.1/DTD/svg11.dtd">
<svg version="1.1" xmlns="http://www.w3.org/2000/svg" xmlns:xlink="http://www.w3.org/1999/xlink" x="0px" y="0px" width="100px"
	 height="100px" viewBox="0 0 100 100" enable-background="new 0 0 100 100" xml:space="preserve">
<g id="Layer_3" display="none">
</g>
<g id="Your_Icon">
</g>
<g id="Layer_4">
	<rect x="32.2" y="31.5" fill="#211915" width="10" height="38"/>
	<rect x="18" y="39.5" fill="#211915" width="10" height="30"/>
	<rect x="3.3" y="49.5" fill="#211915" width="10" height="20"/>
	<g>
		<path fill="#211915" d="M56.972,34.062C67.751,34.062,72.91,39.795,75.2,50c1.689-1.541,5.074-3.586,8.123-3.586
			c0.885,0,1.743,0.173,2.521,0.581c4.852,2.54,4.082,7.627,4.082,12.243H74.558h-0.019H56.972V34.062 M56.972,24.062
			c-5.522,0-10,4.478-10,10v25.177c0,5.522,4.478,10,10,10h17.567h15.388c5.522,0,10-4.478,10-10c0-0.489,0.011-0.984,0.021-1.48
			c0.093-4.712,0.287-14.517-9.464-19.622c-2.181-1.142-4.591-1.722-7.16-1.722c-0.892,0-1.776,0.072-2.647,0.205
			C74.633,26.51,64.938,24.062,56.972,24.062L56.972,24.062z"/>
	</g>
</g>
</svg>
