<?xml version="1.0" encoding="utf-8"?>
<!-- Generator: Adobe Illustrator 16.0.0, SVG Export Plug-In . SVG Version: 6.00 Build 0)  -->
<!DOCTYPE svg PUBLIC "-//W3C//DTD SVG 1.0//EN" "http://www.w3.org/TR/2001/REC-SVG-20010904/DTD/svg10.dtd">
<svg version="1.0" xmlns="http://www.w3.org/2000/svg" xmlns:xlink="http://www.w3.org/1999/xlink" x="0px" y="0px" width="100px"
	 height="100px" viewBox="0 0 100 100" enable-background="new 0 0 100 100" xml:space="preserve">
<g id="Layer_3">
</g>
<g id="Your_Icon">
</g>
<g id="Layer_4">
	<g>
		<g>
			<path d="M18.305,8.064c3.544,0,7.107,1.533,7.057,4.549V32.5c0,0,11.378-0.039,20.8-0.039c4.712,0,8.933,0.01,11,0.039
				c8.431,0.118,8.612,13.004,0,13.057c-0.247,0.001-3.863,0.002-8.574,0.002c-9.422,0-23.227-0.002-23.227-0.002s0,15.944,0,24.601
				c0,7.323,18.099,7.812,27.875,7.812c1.505,0,2.812-0.012,3.826-0.012c8.88,0,8.531,13.6,0.058,13.6c-0.02,0-0.039,0-0.058,0
				c-0.053,0-0.109-0.001-0.168-0.001c-0.988,0-2.776,0.053-5.087,0.053c-12.597,0-40.796-1.557-40.545-21.651l0.1-57.344
				C11.312,9.565,14.799,8.064,18.305,8.064 M18.305,0.064c-4.649,0-8.875,1.586-11.594,4.35c-2.188,2.225-3.375,5.146-3.349,8.237
				l-0.1,57.254c-0.075,6.918,2.362,13.081,7.048,17.826c7.783,7.881,21.745,11.877,41.497,11.877c1.447,0,2.696-0.02,3.683-0.035
				c0.572-0.009,1.045-0.018,1.404-0.018l0.106,0.001h0.12c8.254,0,14.479-6.399,14.479-14.885c0-8.389-6.25-14.715-14.537-14.715
				c-0.468,0-0.997,0.002-1.578,0.005c-0.681,0.003-1.435,0.007-2.249,0.007c-12.676,0-17.857-1.184-19.875-1.941v-14.47
				l15.227,0.001c4.734,0,8.368-0.001,8.616-0.002c8.151-0.05,14.316-6.236,14.349-14.392c0.033-8.245-6.106-14.55-14.279-14.664
				c-1.866-0.026-5.605-0.04-11.113-0.04c-4.261,0-8.951,0.009-12.8,0.018V12.662c0.029-3.071-1.156-5.982-3.341-8.204
				C27.275,1.666,23.005,0.064,18.305,0.064L18.305,0.064z"/>
		</g>
	</g>
</g>
</svg>
