<?xml version="1.0" encoding="utf-8"?>
<!-- Generator: Adobe Illustrator 16.0.0, SVG Export Plug-In . SVG Version: 6.00 Build 0)  -->
<!DOCTYPE svg PUBLIC "-//W3C//DTD SVG 1.1//EN" "http://www.w3.org/Graphics/SVG/1.1/DTD/svg11.dtd">
<svg version="1.1" xmlns="http://www.w3.org/2000/svg" xmlns:xlink="http://www.w3.org/1999/xlink" x="0px" y="0px" width="100px"
	 height="100px" viewBox="0 0 100 100" enable-background="new 0 0 100 100" xml:space="preserve">
<g id="Layer_3" display="none">
	
		<rect x="-17" y="70" display="inline" opacity="0.4" fill="none" stroke="#000000" stroke-miterlimit="10" width="64" height="100"/>
	
		<rect x="-35" y="70" display="inline" opacity="0.4" fill="none" stroke="#000000" stroke-miterlimit="10" width="100" height="100"/>
	<g display="inline" opacity="0.4">
		<path fill="none" stroke="#211915" stroke-miterlimit="10" d="M15,88c17.677,0,32,14.323,32,32c0,17.667-14.323,32-32,32
			s-32-14.333-32-32C-17,102.323-2.677,88,15,88 M15,81c-21.506,0-39,17.496-39,39s17.494,39,39,39s39-17.496,39-39S36.506,81,15,81
			L15,81z"/>
	</g>
</g>
<g id="Your_Icon">
</g>
<g id="Layer_4">
	<g>
		<path d="M94.5,30H80V13.8c0-2.761-1.738-4.8-4.5-4.8h-49c-2.762,0-5.5,2.039-5.5,4.8V30H5.5C2.738,30,0,31.939,0,34.7v45
			C0,82.461,2.738,85,5.5,85H20v9.8c0,1.328,0.778,2.701,1.717,3.638C22.655,99.375,24.176,100,25.5,100c0.003,0,0.005,0,0.008,0
			l48.75-0.178C77.017,99.818,79,97.48,79,94.722V85h15.5c2.762,0,4.5-2.539,4.5-5.3v-45C99,31.939,97.262,30,94.5,30z M31,19h39
			v9.76l-39,0.035V19z M69,89.73l-39,0.062V66h39V89.73z M89,75H79V60.8c0-2.761-1.738-4.8-4.5-4.8h-49c-2.762,0-5.5,2.039-5.5,4.8
			V75H10V40h79V75z"/>
	</g>
	<g>
		<line fill="#FFFFFF" x1="26.3" y1="48.3" x2="26.3" y2="48.3"/>
		<path d="M26.3,48.3"/>
	</g>
</g>
</svg>
