<?xml version="1.0" encoding="utf-8"?>
<!-- Generator: Adobe Illustrator 16.0.0, SVG Export Plug-In . SVG Version: 6.00 Build 0)  -->
<!DOCTYPE svg PUBLIC "-//W3C//DTD SVG 1.1//EN" "http://www.w3.org/Graphics/SVG/1.1/DTD/svg11.dtd">
<svg version="1.1" xmlns="http://www.w3.org/2000/svg" xmlns:xlink="http://www.w3.org/1999/xlink" x="0px" y="0px" width="100px"
	 height="100px" viewBox="0 0 100 100" enable-background="new 0 0 100 100" xml:space="preserve">
<g id="Layer_3" display="none">
</g>
<g id="Your_Icon">
</g>
<g id="Layer_4">
	<g>
		<path fill="#FFFFFF" d="M79.212,60.49c9.091-20.947,10.853-33.964,9.191-36.267c-3.19-2.102-6.307-3.166-9.264-3.166
			c-3.74,0-7.013,1.691-9.621,3.768c4.195,1.39,6.102,4.414,6.931,6.42c5.216,12.615-10.965,38.454-13.235,40.718
			C62.324,72.853,59.043,76,54.379,76c-0.001,0-0.003,0-0.003,0c-10.628,0-17.022-13.987-19.552-42.297
			c-0.571-6.388-2.168-10.795-3.973-10.795c-2.69,0-7.105,3.17-11.588,7.615c0.818,0.336,1.553,0.804,2.163,1.443
			c1.138,1.193,1.549,2.539,1.688,3.517C37.203,87.248,39.426,90.3,50.155,90.3l0.414-0.005
			C60.312,90.201,73.023,74.749,79.212,60.49z"/>
		<path fill="#211915" d="M94.008,15.941c-4.884-3.241-9.887-4.884-14.868-4.884c-15.513,0-24.558,15.74-24.936,16.41
			c-0.98,1.741-0.831,3.898,0.382,5.487c1.211,1.589,3.251,2.303,5.192,1.816c1.835-0.461,3.42-0.694,4.712-0.694
			c2.267,0,2.57,0.662,2.685,0.911c2.704,5.9-7.936,25.994-11.067,29.709c-0.354,0.32-1.156,0.848-1.731,0.848
			c-0.066,0-6.772-1.415-9.591-32.96c-1.464-16.356-8.385-19.79-13.934-19.79c-12.058,0-26.214,18.875-28.93,22.659
			c-0.865,1.205-1.149,2.733-0.777,4.169c0.372,1.437,1.363,2.634,2.705,3.268l2.111,0.997c1.673,0.788,3.645,0.59,5.127-0.516
			c1.33-0.993,2.388-1.701,3.214-2.205c12.975,47.658,16.545,59.126,35.854,59.126l0.508-0.002
			c17.615-0.17,32.378-23.505,37.723-35.82C100.071,37.546,101.963,21.218,94.008,15.941z M50.155,90.293
			c-10.729,0-12.952-3.06-27.041-54.824c-0.139-0.978-0.55-2.337-1.688-3.53c-0.61-0.64-1.345-1.136-2.163-1.472
			c4.482-4.445,8.897-7.672,11.588-7.672c1.805,0,3.401,4.521,3.973,10.908C37.354,62.013,43.748,76,54.376,76c0,0,0.002,0,0.003,0
			c4.664,0,7.945-3.147,8.835-4.037c2.271-2.264,18.451-27.988,13.235-40.604c-0.829-2.006-2.735-5.088-6.931-6.478
			c2.608-2.076,5.881-3.796,9.621-3.796c2.957,0,6.073,1.051,9.264,3.152c1.661,2.303-0.101,15.312-9.191,36.259
			c-6.188,14.259-18.899,29.704-28.643,29.798L50.155,90.293z"/>
	</g>
</g>
</svg>
