<?xml version="1.0" encoding="utf-8"?>
<!-- Generator: Adobe Illustrator 16.0.0, SVG Export Plug-In . SVG Version: 6.00 Build 0)  -->
<!DOCTYPE svg PUBLIC "-//W3C//DTD SVG 1.1//EN" "http://www.w3.org/Graphics/SVG/1.1/DTD/svg11.dtd">
<svg version="1.1" xmlns="http://www.w3.org/2000/svg" xmlns:xlink="http://www.w3.org/1999/xlink" x="0px" y="0px" width="100px"
	 height="100px" viewBox="0 0 100 100" enable-background="new 0 0 100 100" xml:space="preserve">
<g id="Layer_3" display="none">
</g>
<g id="Your_Icon">
</g>
<g id="Layer_4">
	<g>
		<polygon fill="none" points="10,42 10,89.726 90,89.646 90,42 		"/>
		<path d="M90,17h-1.521L88.467,5.107C88.464,2.348,86.226,0,83.467,0H64.5C61.738,0,59,2.238,59,5v12H40.979L40.967,5.107
			C40.964,2.348,38.726,0,35.967,0H17c-2.762,0-5,2.238-5,5v12h-2c-5.522,0-10,4.252-10,9.774v62.951
			c0,2.654,1.055,5.337,2.933,7.212C4.808,98.811,7.35,100,10,100c0.004,0,0.007,0,0.01,0l80-0.217
			c5.52-0.006,9.99-4.618,9.99-10.137V26.774C100,21.252,95.522,17,90,17z M30.973,10l0.021,20H22V10H30.973z M78.473,10l0.021,20
			H69V10H78.473z M10,89.726V42h80v47.646L10,89.726z"/>
		<polygon fill="#FFFFFF" points="22,30 30.994,30 30.973,10 22,10 		"/>
		<polygon fill="#FFFFFF" points="69,30 78.494,30 78.473,10 69,10 		"/>
	</g>
</g>
</svg>
