<?xml version="1.0" encoding="utf-8"?>
<!-- Generator: Adobe Illustrator 16.0.0, SVG Export Plug-In . SVG Version: 6.00 Build 0)  -->
<!DOCTYPE svg PUBLIC "-//W3C//DTD SVG 1.1//EN" "http://www.w3.org/Graphics/SVG/1.1/DTD/svg11.dtd">
<svg version="1.1" xmlns="http://www.w3.org/2000/svg" xmlns:xlink="http://www.w3.org/1999/xlink" x="0px" y="0px" width="100px"
	 height="100px" viewBox="0 0 100 100" enable-background="new 0 0 100 100" xml:space="preserve">
<g id="Layer_3" display="none">
</g>
<g id="Your_Icon">
</g>
<g id="Layer_4">
	<g>
		<path fill="none" d="M40.325,79.188c-0.001-0.382-0.056-0.762-0.144-1.138C40.267,78.424,40.322,78.805,40.325,79.188z"/>
		<path fill="none" d="M60.138,77.086c-0.309,0.665-0.46,1.381-0.464,2.095C59.68,78.464,59.831,77.746,60.138,77.086z"/>
		<path d="M95,0H5C2.238,0,0,2.139,0,4.9v74.479C0,82.141,2.238,84,5,84h19.545l-7.027,8.493l7.634,6.555l5.963-6.999L31.155,92
			l7.987-9.415c0.789-0.932,1.193-2.168,1.183-3.396c-0.003-0.384-0.059-0.765-0.144-1.138c-0.076-0.335-0.175-0.665-0.319-0.977
			C39.043,75.308,37.273,74,35.326,74H10V10h80v64H64.674c-1.947,0-3.717,1.319-4.536,3.086c-0.307,0.66-0.458,1.378-0.464,2.095
			c-0.008,1.202,0.396,2.403,1.184,3.333L68.845,92l0.041,0.049l5.963,7.07l7.634-6.638L75.455,84H95c2.762,0,5-1.859,5-4.621V4.9
			C100,2.139,97.762,0,95,0z"/>
		<path fill="#211915" d="M80.535,64.535C81.474,63.598,82,62.326,82,61l-0.002-38c0-2.762-2.238-5-5-5H23
			c-1.326,0-2.598,0.526-3.535,1.465C18.526,20.402,18,21.674,18,23l0.002,38c0,2.762,2.238,5,5,5H77
			C78.326,66,79.598,65.474,80.535,64.535z M28.002,56L28,28h43.998L72,56H28.002z"/>
	</g>
</g>
</svg>
