<?xml version="1.0" encoding="utf-8"?>
<!-- Generator: Adobe Illustrator 16.0.0, SVG Export Plug-In . SVG Version: 6.00 Build 0)  -->
<!DOCTYPE svg PUBLIC "-//W3C//DTD SVG 1.0//EN" "http://www.w3.org/TR/2001/REC-SVG-20010904/DTD/svg10.dtd">
<svg version="1.0" xmlns="http://www.w3.org/2000/svg" xmlns:xlink="http://www.w3.org/1999/xlink" x="0px" y="0px" width="100px"
	 height="100px" viewBox="0 0 100 100" enable-background="new 0 0 100 100" xml:space="preserve">
<g id="Layer_3">
</g>
<g id="Your_Icon">
</g>
<g id="Layer_4">
	<path d="M50,98c-0.002,0-0.004,0-0.004,0c-1.126-0.001-2.197-0.476-2.954-1.308c-1.425-1.566-34.985-38.592-42.743-60.064
		c-3.178-8.795-2.259-17.744,2.52-24.551C11.314,5.673,18.811,2,27.386,2c9.438,0,17.101,3.607,22.5,10.513
		C53.333,7.444,59.36,2,70.865,2c9.182,0,17.275,4.029,22.207,11.055c4.753,6.771,5.777,15.363,2.811,23.573
		C88.125,58.106,54.384,95.134,52.951,96.7C52.193,97.528,51.122,98,50,98z M27.386,10c-6.02,0-10.998,2.37-14.02,6.673
		c-3.26,4.645-3.823,10.927-1.544,17.236c5.952,16.471,29.78,44.5,38.186,54.078c8.442-9.571,32.404-37.615,38.352-54.078
		c2.068-5.725,1.399-11.651-1.835-16.259C83.111,12.789,77.404,10,70.865,10c-11.322,0-14.586,6.792-16.969,11.752l-0.202,0.42
		c-0.667,1.383-2.067,2.262-3.603,2.262s-2.936-0.879-3.603-2.262C42.592,14.095,36.164,10,27.386,10z"/>
</g>
</svg>
