<?xml version="1.0" encoding="utf-8"?>
<!-- Generator: Adobe Illustrator 16.0.0, SVG Export Plug-In . SVG Version: 6.00 Build 0)  -->
<!DOCTYPE svg PUBLIC "-//W3C//DTD SVG 1.0//EN" "http://www.w3.org/TR/2001/REC-SVG-20010904/DTD/svg10.dtd">
<svg version="1.0" xmlns="http://www.w3.org/2000/svg" xmlns:xlink="http://www.w3.org/1999/xlink" x="0px" y="0px" width="100px"
	 height="100px" viewBox="0 0 100 100" enable-background="new 0 0 100 100" xml:space="preserve">
<g id="Layer_3">
</g>
<g id="Your_Icon">
</g>
<g id="Layer_4">
	<g>
		<path d="M16.966,98.988c-4.055,0-7.866-1.59-10.732-4.479c-2.857-2.88-4.431-6.704-4.431-10.77
			c0-8.408,6.804-15.251,15.167-15.252h65.684c0,0,0.001,0,0.002,0c1.908,0,3.703-0.751,5.056-2.113
			c1.36-1.371,2.11-3.195,2.11-5.135c0-3.998-3.216-7.251-7.168-7.252H16.971c-0.001,0-0.003,0-0.005,0
			c-4.055,0-7.866-1.59-10.732-4.479c-2.857-2.88-4.431-6.704-4.431-10.77c0-8.408,6.804-15.251,15.167-15.252h65.684
			c0,0,0.001,0,0.002,0c1.908,0,3.703-0.75,5.056-2.113c1.36-1.371,2.11-3.194,2.11-5.135c0-3.997-3.216-7.251-7.169-7.252H50v-8
			h32.654c8.364,0.003,15.168,6.845,15.168,15.252c0,4.065-1.574,7.891-4.432,10.77c-2.866,2.889-6.677,4.479-10.732,4.479
			c-0.002,0-0.003,0-0.005,0H16.971c-3.952,0.001-7.168,3.254-7.168,7.252c0,1.939,0.75,3.764,2.11,5.135
			c1.353,1.362,3.147,2.113,5.055,2.113h0.002h65.685c8.364,0.001,15.168,6.844,15.168,15.252c0,4.065-1.574,7.89-4.431,10.77
			c-2.866,2.888-6.678,4.479-10.733,4.479c-0.002,0-0.003,0-0.005,0H16.971c-3.952,0.001-7.168,3.254-7.168,7.252
			c0,1.939,0.75,3.764,2.11,5.135c1.353,1.362,3.147,2.113,5.055,2.113h0.002H50v8H16.971
			C16.969,98.988,16.967,98.988,16.966,98.988z"/>
	</g>
</g>
</svg>
