<?xml version="1.0" encoding="utf-8"?>
<!-- Generator: Adobe Illustrator 16.0.0, SVG Export Plug-In . SVG Version: 6.00 Build 0)  -->
<!DOCTYPE svg PUBLIC "-//W3C//DTD SVG 1.0//EN" "http://www.w3.org/TR/2001/REC-SVG-20010904/DTD/svg10.dtd">
<svg version="1.0" xmlns="http://www.w3.org/2000/svg" xmlns:xlink="http://www.w3.org/1999/xlink" x="0px" y="0px" width="100px"
	 height="100px" viewBox="0 0 100 100" enable-background="new 0 0 100 100" xml:space="preserve">
<g id="Layer_3">
</g>
<g id="Your_Icon">
</g>
<g id="Layer_4">
	<g>
		<path d="M31.002,68.77c-4.113-4.088-10.758-4.098-14.857,0.001c-4.094,4.104-4.091,10.752-0.001,14.853
			c4.099,4.089,10.743,4.099,14.862-0.001C35.101,79.524,35.098,72.877,31.002,68.77z"/>
	</g>
	<path d="M91,79h-8v-3.704C83,43.322,56.908,17,24.925,17H21V9h3.925C61.319,9,91,38.911,91,75.296V79z"/>
	<path d="M72,79h-8v-3.704C64,54.006,46.224,37,24.924,37h-4l0.002-8h4C50.635,29,72,49.595,72,75.296V79z"/>
	<path d="M44,79.296v-4C44,64.688,35.536,56,24.925,56H21v-8h3.925C39.946,48,52,60.277,52,75.294v4L44,79.296z"/>
</g>
</svg>
