<?xml version="1.0" encoding="utf-8"?>
<!-- Generator: Adobe Illustrator 16.0.0, SVG Export Plug-In . SVG Version: 6.00 Build 0)  -->
<!DOCTYPE svg PUBLIC "-//W3C//DTD SVG 1.1//EN" "http://www.w3.org/Graphics/SVG/1.1/DTD/svg11.dtd">
<svg version="1.1" xmlns="http://www.w3.org/2000/svg" xmlns:xlink="http://www.w3.org/1999/xlink" x="0px" y="0px" width="100px"
	 height="100px" viewBox="0 0 100 100" enable-background="new 0 0 100 100" xml:space="preserve">
<g id="Layer_3" display="none">
</g>
<g id="Your_Icon">
</g>
<g id="Layer_4">
	<g>
		<rect y="90" width="100" height="10"/>
		<g>
			<path d="M23,3H5C2.239,3,0,5.238,0,8v71c0,2.762,2.239,5,5,5h18c2.761,0,5-2.238,5-5V8C28,5.238,25.761,3,23,3z M18,74h-8V13h8
				V74z"/>
		</g>
		<g>
			<path d="M59,24H41c-2.761,0-5,2.238-5,5v50c0,2.762,2.239,5,5,5h18c2.761,0,5-2.238,5-5V29C64,26.238,61.761,24,59,24z M54,74h-8
				V34h8V74z"/>
		</g>
		<g>
			<path d="M95,51H77c-2.761,0-5,2.238-5,5v23c0,2.762,2.239,5,5,5h18c2.761,0,5-2.238,5-5V56C100,53.238,97.761,51,95,51z M90,74
				h-8V61h8V74z"/>
		</g>
	</g>
</g>
</svg>
