<?xml version="1.0" encoding="utf-8"?>
<!-- Generator: Adobe Illustrator 16.0.0, SVG Export Plug-In . SVG Version: 6.00 Build 0)  -->
<!DOCTYPE svg PUBLIC "-//W3C//DTD SVG 1.0//EN" "http://www.w3.org/TR/2001/REC-SVG-20010904/DTD/svg10.dtd">
<svg version="1.0" xmlns="http://www.w3.org/2000/svg" xmlns:xlink="http://www.w3.org/1999/xlink" x="0px" y="0px" width="100px"
	 height="100px" viewBox="0 0 100 100" enable-background="new 0 0 100 100" xml:space="preserve">
<g id="Layer_3">
</g>
<g id="Your_Icon">
</g>
<g id="Layer_4">
	<g>
		<path fill="none" d="M66.07,75.312c5.2-1.768,23.964-1.004,23.964-1.004l0.036-53.052c-10-2.477-23-0.577-23-0.577
			c-4.601-0.2-13,5.3-13,5.3s-0.1,57.3,0,56S66.07,75.312,66.07,75.312z"/>
		<path fill="none" d="M33,20.689c0,0-13-1.899-23,0.577l0.036,53.052c0,0,18.764-0.764,23.964,1.004c0,0,11.9,5.367,12,6.667
			s0-56,0-56S37.601,20.489,33,20.689z"/>
		<path d="M54.377,92c0.007-1,14.24-8.005,14.24-8.005c6.348-1.699,18.552-0.806,18.552-0.806c10.4,0,10.831-6.704,10.831-6.704
			l0.062-55.228C98,13,88.753,12.979,88.753,12.979C80,11.7,67,12.801,64,13c-2.916,0.195-13.383,4.722-13.971,4.977
			C49.326,17.672,38.898,13.193,36,13c-3-0.2-16.5-1.5-24.683-0.011c0,0-9.608,0.755-9.309,8.277l0.095,55.227
			c0,0,0.397,6.7,10.798,6.7c0,0,12.204-0.893,18.552,0.807c0,0,14.233,7,14.24,8H2l0.048,8H50l0.035-40.567L50.07,100h47.952
			l0.048-8H54.377z M46,81.989c-0.1-1.3-12-5.663-12-5.663C28.8,74.559,10.036,75,10.036,75L10,21.267c10-2.477,23-0.577,23-0.577
			c4.601-0.2,13,5.3,13,5.3S46.1,83.289,46,81.989z M54.07,25.979c0,0,8.399-5.5,13-5.3c0,0,13-1.899,23,0.577L90.034,75
			c0,0-18.764-0.451-23.964,1.316c0,0-11.9,4.363-12,5.663S54.07,25.979,54.07,25.979z"/>
	</g>
</g>
</svg>
