<?xml version="1.0" encoding="utf-8"?>
<!-- Generator: Adobe Illustrator 16.0.0, SVG Export Plug-In . SVG Version: 6.00 Build 0)  -->
<!DOCTYPE svg PUBLIC "-//W3C//DTD SVG 1.1//EN" "http://www.w3.org/Graphics/SVG/1.1/DTD/svg11.dtd">
<svg version="1.1" xmlns="http://www.w3.org/2000/svg" xmlns:xlink="http://www.w3.org/1999/xlink" x="0px" y="0px" width="100px"
	 height="100px" viewBox="0 0 100 100" enable-background="new 0 0 100 100" xml:space="preserve">
<g id="Layer_3" display="none">
</g>
<g id="Your_Icon">
</g>
<g id="Layer_4">
	<g>
		<g>
			<path d="M42.93,42.93c-3.908,3.903-3.906,10.238-0.001,14.144c3.902,3.901,10.234,3.902,14.143,0.001
				c3.905-3.906,3.904-10.242-0.001-14.147C53.168,39.025,46.831,39.023,42.93,42.93z"/>
		</g>
	</g>
	<g>
		<path d="M4.497,62.401L17.7,64l-8.855,9.195c-1.626,1.988-1.39,4.971,0.425,6.787l10.838,10.661
			c1.816,1.816,4.799,2.048,6.786,0.424L36.3,83.3l1.5,12.001C38.062,97.85,40.236,100,42.799,100H57.8
			c2.562,0,4.336-2.15,4.6-4.699L64,83.001l9.171,8.225c1.987,1.616,4.951,1.363,6.763-0.449L90.816,79.88
			c1.812-1.812,1.904-4.651,0.289-6.64l-8.107-9.238L95.5,62.4c2.555-0.256,4.499-2.032,4.5-4.6v-15c0-2.567-1.945-4.743-4.499-5
			l-12.194-1.494l7.88-9.467c1.614-1.34,1.114-5.04-0.336-6.699L79.98,9.271c-1.814-1.815-4.799-2.049-6.787-0.424l-8.887,8.461
			L62.398,4.701C62.137,2.152,60.361,0,57.799,0h-15c-2.514,0-4.697,2.208-5.02,4.7L36,17.001l-9.219-8.179
			c-1.988-1.616-4.949-1.364-6.763,0.449L9.278,20.028c-1.777,1.777-2.056,4.702-0.521,6.692L17.5,36.3L4.498,37.802
			C1.943,38.058,0,40.234,0,42.8v15C0,60.368,1.943,62.144,4.497,62.401z M9.999,46.001l14.918-1.297
			c1.839-0.185,3.427-1.372,4.126-3.083c0.117-0.287,0.244-0.569,0.375-0.852c0.777-1.689,0.547-3.679-0.59-5.152l-9.941-11.074
			l5.656-5.657l11.479,10.064c1.268,1.029,3.949,1.12,5.69,0.364c0.118-0.051,0.916-0.456,1.026-0.519
			c1.359-0.777,1.779-2.411,1.981-3.965l1.29-14.82l7.994-0.006l1.297,14.499c0.197,1.892,0.938,3.631,2.723,4.293
			c0.287,0.107,0.572,0.274,0.854,0.394c1.708,0.722,3.686,0.683,5.122-0.492l11.455-9.812l5.657,5.657l-9.302,11.271
			c-0.769,0.941-1.729,3.155-1.402,4.569c0.104,0.446,0.382,0.818,0.553,1.239c0.699,1.714,2.701,2.997,4.542,3.182l14.499,1.198
			L90,54.002l-14.736,1.3c-1.916,0.193-3.549,0.468-4.203,2.278c-0.223,0.618-1.05,3.115-1.053,3.57
			c-0.006,1.137,0.55,2.435,1.293,3.35l9.812,10.957l-5.657,5.657L63.5,71.3c-1.7-1.8-2.523-1.532-4.229-0.792
			c-0.026,0.011-0.06-0.059-0.086-0.046c-0.141,0.063-1.073,0.378-1.073,0.378c-0.013-0.013-0.125,0.064-0.164,0.08
			c-1.711,0.693-2.534,2.536-2.727,4.38L54.01,89.993l-8.004,0.004l-1.304-14.682c-0.194-1.877-0.938-3.605-2.7-4.278
			c-0.452-0.172-0.926-0.479-1.535-0.723C38.12,69.375,37.49,70.483,36,71.7l-11.457,9.413l-5.656-5.657l9.556-11.536
			c1.122-1.122,1.052-4.162,0.79-5.058c-0.125-0.43-0.322-0.826-0.47-1.251c-0.638-1.84-2.031-2.12-3.968-2.316L9.997,53.999
			L9.999,46.001z"/>
	</g>
</g>
</svg>
