<?xml version="1.0" encoding="utf-8"?>
<!-- Generator: Adobe Illustrator 16.0.0, SVG Export Plug-In . SVG Version: 6.00 Build 0)  -->
<!DOCTYPE svg PUBLIC "-//W3C//DTD SVG 1.1//EN" "http://www.w3.org/Graphics/SVG/1.1/DTD/svg11.dtd">
<svg version="1.1" xmlns="http://www.w3.org/2000/svg" xmlns:xlink="http://www.w3.org/1999/xlink" x="0px" y="0px" width="100px"
	 height="100px" viewBox="0 0 100 100" enable-background="new 0 0 100 100" xml:space="preserve">
<g id="Layer_3" display="none">
</g>
<g id="Your_Icon">
	<g>
		<path fill="none" d="M94.254,36.353c-0.121,0.171-0.243,0.342-0.372,0.507C94.012,36.695,94.133,36.524,94.254,36.353z"/>
		<path fill="none" d="M91.944,38.81c-0.16,0.128-0.322,0.252-0.489,0.372C91.622,39.062,91.785,38.938,91.944,38.81z"/>
		<path fill="none" d="M93.56,37.246c-0.135,0.158-0.271,0.313-0.415,0.463C93.289,37.559,93.425,37.403,93.56,37.246z"/>
		<path fill="none" d="M92.788,38.066c-0.148,0.143-0.298,0.284-0.453,0.419C92.49,38.35,92.64,38.209,92.788,38.066z"/>
		<path fill="none" d="M94.866,35.39c-0.106,0.186-0.212,0.372-0.328,0.551C94.654,35.762,94.76,35.576,94.866,35.39z"/>
		<path fill="none" d="M96.151,32.057c-0.057,0.258-0.113,0.517-0.187,0.768C96.038,32.573,96.094,32.315,96.151,32.057z"/>
		<path fill="none" d="M95.39,34.358c-0.091,0.202-0.18,0.405-0.281,0.601C95.209,34.764,95.299,34.561,95.39,34.358z"/>
		<path fill="none" d="M95.819,33.257c-0.074,0.222-0.146,0.445-0.233,0.661C95.672,33.703,95.745,33.479,95.819,33.257z"/>
		<path fill="none" d="M72.661,27.218c-0.073,0.389-0.129,0.784-0.165,1.187C72.532,28.002,72.588,27.607,72.661,27.218z"/>
		<path fill="none" d="M86.871,41.2c-0.213,0.043-0.43,0.075-0.647,0.107C86.44,41.275,86.657,41.244,86.871,41.2z"/>
		<path fill="none" d="M84.464,41.45c0.03,0,0.058-0.004,0.088-0.004c-0.379,0.003-0.761-0.008-1.147-0.042
			C83.761,41.435,84.114,41.45,84.464,41.45z"/>
		<path fill="none" d="M85.726,41.379c-0.226,0.023-0.456,0.033-0.686,0.044C85.27,41.412,85.5,41.402,85.726,41.379z"/>
		<path fill="none" d="M91.036,39.471c-0.171,0.112-0.346,0.22-0.522,0.324C90.69,39.691,90.865,39.583,91.036,39.471z"/>
		<path fill="none" d="M96.404,30.496c-0.035,0.402-0.091,0.798-0.165,1.187C96.312,31.293,96.369,30.898,96.404,30.496z"/>
		<path fill="none" d="M90.069,40.045c-0.182,0.097-0.368,0.187-0.555,0.274C89.701,40.232,89.887,40.142,90.069,40.045z"/>
		<path fill="none" d="M87.98,40.915c-0.203,0.062-0.409,0.114-0.615,0.166C87.571,41.029,87.777,40.978,87.98,40.915z"/>
		<path fill="none" d="M89.048,40.528c-0.192,0.08-0.388,0.151-0.585,0.221C88.66,40.68,88.855,40.608,89.048,40.528z"/>
		<path fill="none" d="M78.833,18.854c0.182-0.097,0.368-0.187,0.555-0.274C79.201,18.668,79.015,18.758,78.833,18.854z"/>
		<path fill="none" d="M76.113,20.834c0.148-0.144,0.299-0.284,0.455-0.42C76.412,20.55,76.261,20.691,76.113,20.834z"/>
		<path fill="none" d="M74.646,22.548c0.122-0.172,0.244-0.343,0.374-0.508C74.889,22.205,74.768,22.376,74.646,22.548z"/>
		<path fill="none" d="M75.34,21.656c0.135-0.158,0.272-0.315,0.416-0.465C75.613,21.341,75.476,21.498,75.34,21.656z"/>
		<path fill="none" d="M73.511,24.543c0.091-0.203,0.18-0.406,0.282-0.603C73.691,24.137,73.602,24.34,73.511,24.543z"/>
		<path fill="none" d="M84.437,17.45c-0.03,0-0.059,0.004-0.088,0.004c0.379-0.003,0.761,0.008,1.146,0.042
			C85.14,17.465,84.786,17.45,84.437,17.45z"/>
		<path fill="none" d="M73.082,25.643c0.074-0.222,0.147-0.446,0.233-0.662C73.228,25.197,73.156,25.421,73.082,25.643z"/>
		<path fill="none" d="M72.749,26.842c0.057-0.258,0.113-0.516,0.187-0.767C72.862,26.327,72.806,26.584,72.749,26.842z"/>
		<path fill="none" d="M74.034,23.512c0.106-0.187,0.212-0.373,0.328-0.553C74.247,23.139,74.141,23.325,74.034,23.512z"/>
		<path fill="none" d="M76.956,20.091c0.161-0.128,0.324-0.253,0.491-0.374C77.28,19.838,77.117,19.962,76.956,20.091z"/>
		<path fill="none" d="M82.031,17.7c0.213-0.043,0.43-0.075,0.646-0.107C82.461,17.625,82.244,17.656,82.031,17.7z"/>
		<path fill="none" d="M83.175,17.521c0.226-0.024,0.456-0.033,0.685-0.044C83.631,17.488,83.401,17.497,83.175,17.521z"/>
		<path fill="none" d="M80.922,17.985c0.202-0.062,0.409-0.114,0.615-0.166C81.331,17.871,81.124,17.923,80.922,17.985z"/>
		<path fill="none" d="M77.864,19.43c0.172-0.113,0.348-0.221,0.525-0.325C78.211,19.209,78.036,19.316,77.864,19.43z"/>
		<path fill="none" d="M83.964,58.549c-0.35,0-0.704,0.015-1.059,0.046c0.386-0.034,0.768-0.045,1.147-0.042
			C84.022,58.553,83.994,58.549,83.964,58.549z"/>
		<path fill="none" d="M79.854,18.372c0.192-0.08,0.389-0.151,0.586-0.221C80.242,18.22,80.046,18.292,79.854,18.372z"/>
		<path fill="none" d="M73.862,77.041c-0.116-0.18-0.222-0.366-0.328-0.553C73.641,76.674,73.747,76.861,73.862,77.041z"/>
		<path fill="none" d="M79.939,81.85c-0.197-0.07-0.394-0.142-0.586-0.222C79.546,81.708,79.742,81.779,79.939,81.85z"/>
		<path fill="none" d="M78.888,81.419c-0.188-0.087-0.373-0.177-0.555-0.274C78.515,81.242,78.701,81.332,78.888,81.419z"/>
		<path fill="none" d="M77.89,80.895c-0.178-0.104-0.354-0.212-0.525-0.326C77.536,80.683,77.711,80.791,77.89,80.895z"/>
		<path fill="none" d="M81.037,82.181c-0.207-0.052-0.413-0.104-0.615-0.166C80.624,82.077,80.831,82.129,81.037,82.181z"/>
		<path fill="none" d="M83.937,82.55c0.35,0,0.703-0.015,1.059-0.046c-0.385,0.034-0.768,0.045-1.146,0.042
			C83.878,82.546,83.907,82.55,83.937,82.55z"/>
		<path fill="none" d="M76.947,80.282c-0.167-0.12-0.331-0.245-0.491-0.374C76.617,80.037,76.78,80.162,76.947,80.282z"/>
		<path fill="none" d="M84.541,58.577c0.229,0.011,0.459,0.02,0.686,0.044C85,58.597,84.77,58.588,84.541,58.577z"/>
		<path fill="none" d="M82.178,82.407c-0.217-0.032-0.434-0.063-0.646-0.107C81.744,82.343,81.961,82.375,82.178,82.407z"/>
		<path fill="none" d="M72.815,75.018c-0.086-0.216-0.159-0.439-0.233-0.662C72.656,74.579,72.728,74.802,72.815,75.018z"/>
		<path fill="none" d="M72.436,73.924c-0.073-0.251-0.129-0.509-0.187-0.767C72.306,73.415,72.362,73.673,72.436,73.924z"/>
		<path fill="none" d="M72.023,71.792c0.035,0.333,0.077,0.665,0.138,0.989c-0.061-0.325-0.103-0.656-0.137-0.991L72.023,71.792z"/>
		<path fill="none" d="M95.739,68.317c0.073,0.389,0.129,0.784,0.165,1.187C95.869,69.102,95.812,68.706,95.739,68.317z"/>
		<path fill="none" d="M74.52,77.959c-0.13-0.165-0.252-0.336-0.374-0.508C74.268,77.624,74.389,77.794,74.52,77.959z"/>
		<path fill="none" d="M75.256,78.809c-0.144-0.15-0.281-0.307-0.416-0.465C74.976,78.502,75.113,78.658,75.256,78.809z"/>
		<path fill="none" d="M76.067,79.585c-0.156-0.136-0.306-0.276-0.455-0.42C75.761,79.309,75.912,79.449,76.067,79.585z"/>
		<path fill="none" d="M73.292,76.059c-0.102-0.196-0.191-0.4-0.282-0.603C73.102,75.66,73.191,75.863,73.292,76.059z"/>
		<path fill="none" d="M83.36,82.522c-0.229-0.011-0.459-0.021-0.685-0.044C82.901,82.502,83.131,82.511,83.36,82.522z"/>
		<path fill="none" d="M89.014,59.68c0.188,0.087,0.373,0.177,0.555,0.274C89.387,59.857,89.201,59.768,89.014,59.68z"/>
		<path fill="none" d="M87.963,59.25c0.197,0.07,0.393,0.141,0.585,0.221C88.355,59.391,88.16,59.32,87.963,59.25z"/>
		<path fill="none" d="M90.014,60.205c0.177,0.104,0.352,0.211,0.522,0.324C90.365,60.416,90.19,60.309,90.014,60.205z"/>
		<path fill="none" d="M86.865,58.918c0.207,0.052,0.413,0.104,0.615,0.166C87.277,59.022,87.071,58.97,86.865,58.918z"/>
		<path fill="none" d="M90.956,60.818c0.167,0.12,0.329,0.244,0.489,0.372C91.285,61.062,91.122,60.938,90.956,60.818z"/>
		<path fill="none" d="M85.724,58.692c0.217,0.032,0.434,0.063,0.647,0.107C86.157,58.756,85.94,58.725,85.724,58.692z"/>
		<path fill="none" d="M91.835,61.515c0.155,0.135,0.305,0.276,0.453,0.419C92.14,61.79,91.99,61.65,91.835,61.515z"/>
		<path fill="none" d="M94.039,64.059c0.116,0.179,0.222,0.365,0.328,0.552C94.26,64.424,94.154,64.238,94.039,64.059z"/>
		<path fill="none" d="M94.608,65.04c0.101,0.196,0.19,0.399,0.281,0.601C94.799,65.439,94.709,65.236,94.608,65.04z"/>
		<path fill="none" d="M95.086,66.081c0.086,0.216,0.159,0.439,0.233,0.661C95.245,66.52,95.172,66.297,95.086,66.081z"/>
		<path fill="none" d="M92.646,62.291c0.143,0.15,0.279,0.306,0.415,0.463C92.925,62.596,92.789,62.44,92.646,62.291z"/>
		<path fill="none" d="M93.382,63.14c0.129,0.165,0.251,0.335,0.372,0.507C93.633,63.475,93.512,63.305,93.382,63.14z"/>
		<path fill="none" d="M95.465,67.175c0.073,0.251,0.129,0.51,0.187,0.768C95.594,67.684,95.538,67.426,95.465,67.175z"/>
		<path fill="#211915" d="M69.749,37.95c-1.664-2.869-2.509-6.243-2.241-9.784L29.946,40.25c1.64,2.613,2.604,5.693,2.604,9
			c0,3.486-1.058,6.728-2.864,9.428l37.28,11.993c-0.027-3.513,1.025-6.822,2.878-9.579L33.829,49.505L69.749,37.95z"/>
		<path fill="#211915" d="M83.405,41.404c0.386,0.034,0.768,0.045,1.147,0.042c0.164-0.001,0.326-0.015,0.488-0.023
			c0.229-0.011,0.459-0.021,0.686-0.044c0.167-0.018,0.332-0.047,0.498-0.072c0.217-0.032,0.434-0.063,0.647-0.107
			c0.167-0.035,0.33-0.078,0.494-0.119c0.207-0.052,0.413-0.104,0.615-0.166c0.163-0.05,0.323-0.108,0.483-0.166
			c0.197-0.07,0.393-0.141,0.585-0.221c0.158-0.065,0.312-0.137,0.466-0.209c0.188-0.087,0.373-0.177,0.555-0.274
			c0.15-0.08,0.298-0.165,0.445-0.25c0.177-0.104,0.352-0.211,0.522-0.324c0.142-0.094,0.282-0.19,0.419-0.29
			c0.167-0.12,0.329-0.244,0.489-0.372c0.132-0.106,0.263-0.213,0.391-0.325c0.155-0.135,0.305-0.276,0.453-0.419
			c0.121-0.117,0.242-0.235,0.357-0.357c0.143-0.15,0.279-0.306,0.415-0.463c0.109-0.127,0.218-0.254,0.322-0.386
			c0.129-0.165,0.251-0.335,0.372-0.507c0.096-0.136,0.194-0.271,0.284-0.412c0.116-0.179,0.222-0.366,0.328-0.551
			c0.082-0.143,0.166-0.284,0.242-0.43c0.101-0.196,0.19-0.399,0.281-0.601c0.066-0.146,0.136-0.29,0.196-0.44
			c0.086-0.216,0.159-0.439,0.233-0.661c0.048-0.145,0.103-0.286,0.146-0.433c0.073-0.251,0.129-0.509,0.187-0.768
			c0.028-0.125,0.064-0.248,0.088-0.375c0.073-0.389,0.129-0.784,0.165-1.187c0.577-6.603-4.304-12.422-10.909-13
			c-0.385-0.034-0.768-0.045-1.146-0.042c-0.164,0.001-0.325,0.015-0.488,0.023c-0.229,0.011-0.459,0.02-0.685,0.044
			c-0.167,0.018-0.332,0.046-0.498,0.071c-0.217,0.032-0.434,0.063-0.646,0.107c-0.167,0.035-0.33,0.078-0.494,0.119
			c-0.207,0.052-0.413,0.104-0.615,0.166c-0.163,0.05-0.323,0.108-0.482,0.166c-0.197,0.07-0.394,0.141-0.586,0.221
			c-0.157,0.065-0.312,0.137-0.465,0.209c-0.188,0.087-0.373,0.177-0.555,0.274c-0.15,0.08-0.297,0.164-0.443,0.25
			c-0.178,0.104-0.354,0.212-0.525,0.325c-0.141,0.093-0.28,0.189-0.417,0.288c-0.167,0.121-0.331,0.245-0.491,0.374
			c-0.131,0.105-0.262,0.213-0.389,0.324c-0.156,0.136-0.306,0.276-0.455,0.42c-0.121,0.117-0.241,0.234-0.356,0.356
			c-0.144,0.15-0.281,0.307-0.416,0.465c-0.109,0.126-0.218,0.253-0.321,0.384c-0.13,0.165-0.252,0.336-0.374,0.508
			c-0.096,0.136-0.193,0.271-0.284,0.411c-0.116,0.18-0.222,0.366-0.328,0.553c-0.082,0.142-0.166,0.283-0.242,0.429
			c-0.102,0.196-0.191,0.4-0.282,0.603c-0.066,0.146-0.136,0.289-0.196,0.438c-0.086,0.216-0.159,0.439-0.233,0.662
			c-0.048,0.145-0.103,0.286-0.146,0.433c-0.073,0.251-0.129,0.509-0.187,0.767c-0.028,0.126-0.064,0.249-0.088,0.376
			c-0.073,0.389-0.129,0.784-0.165,1.187C71.919,35.007,76.805,40.827,83.405,41.404z"/>
		<path fill="#211915" d="M71.985,71.595C71.991,71.662,72,71.726,72,71.792v-0.001c0,0.334,0.088,0.666,0.149,0.991
			c0.023,0.127,0.066,0.25,0.094,0.376c0.057,0.258,0.116,0.516,0.189,0.767c0.043,0.147,0.099,0.288,0.147,0.433
			c0.074,0.222,0.147,0.446,0.234,0.662c0.06,0.149,0.13,0.292,0.196,0.438c0.091,0.203,0.181,0.406,0.282,0.603
			c0.076,0.146,0.16,0.287,0.242,0.429c0.106,0.187,0.212,0.373,0.328,0.553c0.09,0.14,0.188,0.275,0.284,0.411
			c0.122,0.172,0.244,0.343,0.374,0.508c0.103,0.131,0.212,0.258,0.321,0.384c0.135,0.158,0.272,0.315,0.416,0.465
			c0.116,0.122,0.236,0.239,0.356,0.356c0.148,0.144,0.299,0.284,0.455,0.42c0.127,0.111,0.257,0.218,0.389,0.324
			c0.161,0.128,0.324,0.253,0.491,0.374c0.137,0.099,0.276,0.194,0.417,0.287c0.172,0.113,0.348,0.221,0.525,0.326
			c0.146,0.086,0.293,0.17,0.443,0.25c0.182,0.097,0.368,0.187,0.555,0.274c0.154,0.072,0.308,0.144,0.465,0.209
			c0.192,0.08,0.389,0.151,0.586,0.222c0.16,0.057,0.319,0.115,0.482,0.165c0.202,0.062,0.409,0.114,0.615,0.166
			c0.164,0.041,0.327,0.085,0.494,0.119c0.213,0.043,0.43,0.075,0.646,0.107c0.166,0.025,0.33,0.054,0.498,0.072
			c0.226,0.023,0.456,0.033,0.685,0.044c0.163,0.008,0.324,0.022,0.488,0.023c0.379,0.003,0.761-0.008,1.146-0.042
			c6.605-0.577,11.486-6.396,10.909-13c-0.035-0.402-0.091-0.798-0.165-1.187c-0.023-0.127-0.06-0.25-0.088-0.375
			c-0.057-0.258-0.113-0.517-0.187-0.768c-0.043-0.147-0.098-0.288-0.146-0.433c-0.074-0.222-0.146-0.445-0.233-0.661
			c-0.06-0.15-0.13-0.293-0.196-0.44c-0.091-0.202-0.18-0.405-0.281-0.601c-0.076-0.146-0.161-0.287-0.242-0.43
			c-0.106-0.187-0.212-0.373-0.328-0.552c-0.09-0.141-0.188-0.275-0.284-0.412c-0.121-0.171-0.243-0.342-0.372-0.507
			c-0.104-0.132-0.213-0.259-0.322-0.386c-0.135-0.157-0.271-0.313-0.415-0.463c-0.116-0.123-0.236-0.24-0.357-0.357
			c-0.148-0.143-0.298-0.284-0.453-0.419c-0.127-0.111-0.258-0.219-0.391-0.325c-0.16-0.128-0.322-0.252-0.489-0.372
			c-0.138-0.099-0.277-0.196-0.419-0.29c-0.171-0.112-0.346-0.22-0.522-0.324c-0.147-0.086-0.294-0.17-0.445-0.25
			c-0.182-0.097-0.368-0.187-0.555-0.274c-0.154-0.072-0.308-0.144-0.466-0.209c-0.192-0.08-0.388-0.151-0.585-0.221
			c-0.16-0.057-0.32-0.115-0.483-0.166c-0.203-0.062-0.409-0.114-0.615-0.166c-0.164-0.041-0.328-0.084-0.494-0.119
			c-0.213-0.043-0.43-0.075-0.647-0.107c-0.166-0.025-0.33-0.054-0.498-0.071c-0.226-0.024-0.456-0.033-0.686-0.044
			c-0.163-0.008-0.324-0.022-0.488-0.023c-0.379-0.003-0.767,0.008-1.153,0.042C76.299,59.173,71.408,64.992,71.985,71.595z"/>
		<circle fill="#211915" cx="15.55" cy="49.25" r="12"/>
	</g>
</g>
<g id="Layer_4">
</g>
</svg>
