<?xml version="1.0" encoding="utf-8"?>
<!-- Generator: Adobe Illustrator 16.0.0, SVG Export Plug-In . SVG Version: 6.00 Build 0)  -->
<!DOCTYPE svg PUBLIC "-//W3C//DTD SVG 1.1//EN" "http://www.w3.org/Graphics/SVG/1.1/DTD/svg11.dtd">
<svg version="1.1" xmlns="http://www.w3.org/2000/svg" xmlns:xlink="http://www.w3.org/1999/xlink" x="0px" y="0px" width="100px"
	 height="100px" viewBox="0 0 100 100" enable-background="new 0 0 100 100" xml:space="preserve">
<g id="Layer_3" display="none">
</g>
<g id="Your_Icon">
</g>
<g id="Layer_4">
	<path d="M72,100H5c-2.762,0-5-2.239-5-5V28c0-2.761,2.238-5,5-5h29v10H10v57h57V68h10v27C77,97.761,74.762,100,72,100z"/>
	<path d="M90.672,9.328C89.721,8.376,88.459,7.986,87.078,8H48v10h26.923L29.328,63.601l7.07,7.071L82,25v26h10V13
		C92.016,11.653,91.624,10.28,90.672,9.328z"/>
</g>
</svg>
