<?xml version="1.0" encoding="utf-8"?>
<!-- Generator: Adobe Illustrator 16.0.0, SVG Export Plug-In . SVG Version: 6.00 Build 0)  -->
<!DOCTYPE svg PUBLIC "-//W3C//DTD SVG 1.1//EN" "http://www.w3.org/Graphics/SVG/1.1/DTD/svg11.dtd">
<svg version="1.1" xmlns="http://www.w3.org/2000/svg" xmlns:xlink="http://www.w3.org/1999/xlink" x="0px" y="0px" width="100px"
	 height="100px" viewBox="0 0 100 100" enable-background="new 0 0 100 100" xml:space="preserve">
<g id="Layer_3" display="none">
	<g display="inline" opacity="0.39">
		<line opacity="0.3" fill="none" stroke="#699BD0" enable-background="new    " x1="2.325" y1="-1" x2="2.325" y2="99"/>
		<line fill="none" stroke="#699BD0" x1="5.45" y1="-1" x2="5.45" y2="99"/>
		<line opacity="0.3" fill="none" stroke="#699BD0" enable-background="new    " x1="8.575" y1="-1" x2="8.575" y2="99"/>
		<line fill="none" stroke="#699BD0" x1="11.7" y1="-1" x2="11.7" y2="99"/>
		<line opacity="0.3" fill="none" stroke="#699BD0" enable-background="new    " x1="14.825" y1="-1" x2="14.825" y2="99"/>
		<line fill="none" stroke="#699BD0" x1="17.95" y1="-1" x2="17.95" y2="99"/>
		<line opacity="0.3" fill="none" stroke="#699BD0" enable-background="new    " x1="21.075" y1="-1" x2="21.075" y2="99"/>
		<line fill="none" stroke="#699BD0" x1="24.2" y1="-1" x2="24.2" y2="99"/>
		<line opacity="0.3" fill="none" stroke="#699BD0" enable-background="new    " x1="27.325" y1="-1" x2="27.325" y2="99"/>
		<line fill="none" stroke="#699BD0" x1="30.45" y1="-1" x2="30.45" y2="99"/>
		<line opacity="0.3" fill="none" stroke="#699BD0" enable-background="new    " x1="33.575" y1="-1" x2="33.575" y2="99"/>
		<line fill="none" stroke="#699BD0" x1="36.7" y1="-1" x2="36.7" y2="99"/>
		<line opacity="0.3" fill="none" stroke="#699BD0" enable-background="new    " x1="39.825" y1="-1" x2="39.825" y2="99"/>
		<line fill="none" stroke="#699BD0" x1="42.95" y1="-1" x2="42.95" y2="99"/>
		<line opacity="0.3" fill="none" stroke="#699BD0" enable-background="new    " x1="46.075" y1="-1" x2="46.075" y2="99"/>
		<line fill="none" stroke="#699BD0" x1="49.2" y1="-1" x2="49.2" y2="99"/>
		<line opacity="0.3" fill="none" stroke="#699BD0" enable-background="new    " x1="52.325" y1="-1" x2="52.325" y2="99"/>
		<line fill="none" stroke="#699BD0" x1="55.45" y1="-1" x2="55.45" y2="99"/>
		<line opacity="0.3" fill="none" stroke="#699BD0" enable-background="new    " x1="58.575" y1="-1" x2="58.575" y2="99"/>
		<line fill="none" stroke="#699BD0" x1="61.7" y1="-1" x2="61.7" y2="99"/>
		<line opacity="0.3" fill="none" stroke="#699BD0" enable-background="new    " x1="64.825" y1="-1" x2="64.825" y2="99"/>
		<line fill="none" stroke="#699BD0" x1="67.95" y1="-1" x2="67.95" y2="99"/>
		<line opacity="0.3" fill="none" stroke="#699BD0" enable-background="new    " x1="71.075" y1="-1" x2="71.075" y2="99"/>
		<line fill="none" stroke="#699BD0" x1="74.2" y1="-1" x2="74.2" y2="99"/>
		<line opacity="0.3" fill="none" stroke="#699BD0" enable-background="new    " x1="77.325" y1="-1" x2="77.325" y2="99"/>
		<line fill="none" stroke="#699BD0" x1="80.45" y1="-1" x2="80.45" y2="99"/>
		<line opacity="0.3" fill="none" stroke="#699BD0" enable-background="new    " x1="83.575" y1="-1" x2="83.575" y2="99"/>
		<line fill="none" stroke="#699BD0" x1="86.7" y1="-1" x2="86.7" y2="99"/>
		<line opacity="0.3" fill="none" stroke="#699BD0" enable-background="new    " x1="89.825" y1="-1" x2="89.825" y2="99"/>
		<line fill="none" stroke="#699BD0" x1="92.95" y1="-1" x2="92.95" y2="99"/>
		<line opacity="0.3" fill="none" stroke="#699BD0" enable-background="new    " x1="96.075" y1="-1" x2="96.075" y2="99"/>
		<line opacity="0.3" fill="none" stroke="#699BD0" enable-background="new    " x1="-0.8" y1="2.125" x2="99.2" y2="2.125"/>
		<line fill="none" stroke="#699BD0" x1="-0.8" y1="5.25" x2="99.2" y2="5.25"/>
		<line opacity="0.3" fill="none" stroke="#699BD0" enable-background="new    " x1="-0.8" y1="8.375" x2="99.2" y2="8.375"/>
		<line fill="none" stroke="#699BD0" x1="-0.8" y1="11.5" x2="99.2" y2="11.5"/>
		<line opacity="0.3" fill="none" stroke="#699BD0" enable-background="new    " x1="-0.8" y1="14.625" x2="99.2" y2="14.625"/>
		<line fill="none" stroke="#699BD0" x1="-0.8" y1="17.75" x2="99.2" y2="17.75"/>
		<line opacity="0.3" fill="none" stroke="#699BD0" enable-background="new    " x1="-0.8" y1="20.875" x2="99.2" y2="20.875"/>
		<line fill="none" stroke="#699BD0" x1="-0.8" y1="24" x2="99.2" y2="24"/>
		<line opacity="0.3" fill="none" stroke="#699BD0" enable-background="new    " x1="-0.8" y1="27.125" x2="99.2" y2="27.125"/>
		<line fill="none" stroke="#699BD0" x1="-0.8" y1="30.25" x2="99.2" y2="30.25"/>
		<line opacity="0.3" fill="none" stroke="#699BD0" enable-background="new    " x1="-0.8" y1="33.375" x2="99.2" y2="33.375"/>
		<line fill="none" stroke="#699BD0" x1="-0.8" y1="36.5" x2="99.2" y2="36.5"/>
		<line opacity="0.3" fill="none" stroke="#699BD0" enable-background="new    " x1="-0.8" y1="39.625" x2="99.2" y2="39.625"/>
		<line fill="none" stroke="#699BD0" x1="-0.8" y1="42.75" x2="99.2" y2="42.75"/>
		<line opacity="0.3" fill="none" stroke="#699BD0" enable-background="new    " x1="-0.8" y1="45.875" x2="99.2" y2="45.875"/>
		<line fill="none" stroke="#699BD0" x1="-0.8" y1="49" x2="99.2" y2="49"/>
		<line opacity="0.3" fill="none" stroke="#699BD0" enable-background="new    " x1="-0.8" y1="52.125" x2="99.2" y2="52.125"/>
		<line fill="none" stroke="#699BD0" x1="-0.8" y1="55.25" x2="99.2" y2="55.25"/>
		<line opacity="0.3" fill="none" stroke="#699BD0" enable-background="new    " x1="-0.8" y1="58.375" x2="99.2" y2="58.375"/>
		<line fill="none" stroke="#699BD0" x1="-0.8" y1="61.5" x2="99.2" y2="61.5"/>
		<line opacity="0.3" fill="none" stroke="#699BD0" enable-background="new    " x1="-0.8" y1="64.625" x2="99.2" y2="64.625"/>
		<line fill="none" stroke="#699BD0" x1="-0.8" y1="67.75" x2="99.2" y2="67.75"/>
		<line opacity="0.3" fill="none" stroke="#699BD0" enable-background="new    " x1="-0.8" y1="70.875" x2="99.2" y2="70.875"/>
		<line fill="none" stroke="#699BD0" x1="-0.8" y1="74" x2="99.2" y2="74"/>
		<line opacity="0.3" fill="none" stroke="#699BD0" enable-background="new    " x1="-0.8" y1="77.125" x2="99.2" y2="77.125"/>
		<line fill="none" stroke="#699BD0" x1="-0.8" y1="80.25" x2="99.2" y2="80.25"/>
		<line opacity="0.3" fill="none" stroke="#699BD0" enable-background="new    " x1="-0.8" y1="83.375" x2="99.2" y2="83.375"/>
		<line fill="none" stroke="#699BD0" x1="-0.8" y1="86.5" x2="99.2" y2="86.5"/>
		<line opacity="0.3" fill="none" stroke="#699BD0" enable-background="new    " x1="-0.8" y1="89.625" x2="99.2" y2="89.625"/>
		<line fill="none" stroke="#699BD0" x1="-0.8" y1="92.75" x2="99.2" y2="92.75"/>
		<line opacity="0.3" fill="none" stroke="#699BD0" enable-background="new    " x1="-0.8" y1="95.875" x2="99.2" y2="95.875"/>
	</g>
	<rect x="19" display="inline" opacity="0.78" fill="none" stroke="#000000" stroke-miterlimit="10" width="62" height="100"/>
	<rect display="inline" opacity="0.78" fill="none" stroke="#000000" stroke-miterlimit="10" width="100" height="100"/>
	<g display="inline" opacity="0.78">
		<path fill="none" stroke="#000000" stroke-miterlimit="10" d="M50,40c-5.52,0-10,4.477-10,10s4.48,10,10,10
			c5.523,0,10-4.477,10-10S55.523,40,50,40z"/>
		<path fill="none" stroke="#211915" stroke-miterlimit="10" d="M50,30c-11.028,0-20,8.972-20,20s8.972,20,20,20s20-8.972,20-20
			S61.028,30,50,30L50,30z"/>
	</g>
	<g display="inline" opacity="0.78">
		<path fill="none" stroke="#211915" stroke-miterlimit="10" d="M50,19c17.123,0,31,13.876,31,31c0,17.115-13.877,31-31,31
			S19,67.115,19,50C19,32.876,32.877,19,50,19 M50,10c-22.056,0-40,17.944-40,40s17.944,40,40,40s40-17.944,40-40S72.056,10,50,10
			L50,10z"/>
	</g>
</g>
<g id="Your_Icon">
</g>
<g id="Layer_4">
	<path fill="none" stroke="#000000" stroke-width="10" stroke-linecap="square" stroke-linejoin="round" stroke-miterlimit="10" d="
		M50.83,71.804"/>
	<g>
		<path fill="none" d="M50.938,71.085c-0.542,0.007-1.12,0.015-1.67,0.015c-0.568,0-1.108-0.008-1.55-0.033
			C43.773,70.844,31.099,63.3,10,48.629V90h80V48.646c-32.143,22.41-36.498,22.429-38,22.429
			C51.715,71.075,51.343,71.08,50.938,71.085z"/>
		<path fill="none" d="M50.806,61.086c0.281-0.003,0.548-0.007,0.787-0.009C55.6,59.798,73.856,47.803,90,36.423V20H10v16.416
			c16.25,11.421,34.622,23.462,38.54,24.677C49.127,61.109,50.082,61.096,50.806,61.086z"/>
		<path d="M90,10H10C4.477,10,0,14.477,0,20v70c0,5.523,4.477,10,10,10h80c5.523,0,10-4.477,10-10V20C100,14.477,95.523,10,90,10z
			 M90,48.646V90H10V48.629c-0.066-0.046-0.128-0.089-0.195-0.135c-2.757-1.918-5.657-3.957-8.699-6.117l5.789-8.154
			c0.99,0.703,1.992,1.411,3.003,2.121c0.034,0.024,0.068,0.048,0.103,0.072V20h80v16.423c1.043-0.735,2.078-1.468,3.1-2.196
			l5.801,8.146C95.709,44.645,92.764,46.719,90,48.646z"/>
		<path d="M90,36.423c-16.144,11.38-34.4,23.375-38.407,24.654c-0.239,0.002-0.506,0.006-0.787,0.009
			c-0.725,0.01-1.679,0.023-2.267,0.007C44.622,59.877,26.25,47.837,10,36.416c-0.034-0.024-0.068-0.048-0.103-0.072
			c-1.011-0.71-2.013-1.418-3.003-2.121l-5.789,8.154c3.042,2.16,5.942,4.199,8.699,6.117c0.067,0.046,0.129,0.089,0.195,0.135
			C31.099,63.3,43.773,70.844,47.717,71.067c0.442,0.025,0.982,0.033,1.55,0.033c0.551,0,1.128-0.008,1.67-0.015
			c0.406-0.005,0.777-0.01,1.062-0.01c1.502,0,5.857-0.019,38-22.429c2.764-1.927,5.709-4,8.9-6.273L93.1,34.227
			C92.078,34.955,91.043,35.688,90,36.423z"/>
	</g>
</g>
</svg>
