<?xml version="1.0" encoding="utf-8"?>
<!-- Generator: Adobe Illustrator 16.0.0, SVG Export Plug-In . SVG Version: 6.00 Build 0)  -->
<!DOCTYPE svg PUBLIC "-//W3C//DTD SVG 1.1//EN" "http://www.w3.org/Graphics/SVG/1.1/DTD/svg11.dtd">
<svg version="1.1" xmlns="http://www.w3.org/2000/svg" xmlns:xlink="http://www.w3.org/1999/xlink" x="0px" y="0px" width="100px"
	 height="100px" viewBox="0 0 100 100" enable-background="new 0 0 100 100" xml:space="preserve">
<g id="Layer_3" display="none">
</g>
<g id="Your_Icon">
</g>
<g id="Layer_4">
	<path fill="#211915" d="M89.47,75.727h-59.5c-2.613,0-4.73-2.117-4.73-4.727V5.727C25.239,3.117,27.356,1,29.97,1h59.5
		c2.613,0,4.73,2.117,4.73,4.727V71C94.2,73.609,92.083,75.727,89.47,75.727z M34.7,66.27h50.039V10.457H34.7V66.27z"/>
	<rect x="42.739" y="24.127" width="34" height="10"/>
	<rect x="42.739" y="43.227" width="34" height="10"/>
	<path fill="#211915" d="M78.518,97h-68.8c-2.761,0-5-2.238-5-5V17.5h10V87h63.8V97z"/>
</g>
</svg>
