<?xml version="1.0" encoding="utf-8"?>
<!-- Generator: Adobe Illustrator 16.0.0, SVG Export Plug-In . SVG Version: 6.00 Build 0)  -->
<!DOCTYPE svg PUBLIC "-//W3C//DTD SVG 1.1//EN" "http://www.w3.org/Graphics/SVG/1.1/DTD/svg11.dtd">
<svg version="1.1" xmlns="http://www.w3.org/2000/svg" xmlns:xlink="http://www.w3.org/1999/xlink" x="0px" y="0px" width="100px"
	 height="100px" viewBox="0 0 100 100" enable-background="new 0 0 100 100" xml:space="preserve">
<g id="Layer_3" display="none">
</g>
<g id="Your_Icon">
</g>
<g id="Layer_4">
	<g>
		<path fill="#FFFFFF" d="M25.689,35.411c6.632,0,12.011,5.354,12.011,11.99c0,6.633-5.379,11.988-12.011,11.988
			c-6.614,0-11.989-5.355-11.989-11.988C13.7,40.765,19.075,35.411,25.689,35.411z"/>
		<path fill="#211915" d="M25.689,35.411c6.632,0,12.011,5.354,12.011,11.99c0,6.633-5.379,11.988-12.011,11.988
			c-6.614,0-11.989-5.355-11.989-11.988C13.7,40.765,19.075,35.411,25.689,35.411 M25.689,25.411
			c-12.125,0-21.989,9.865-21.989,21.99c0,12.124,9.864,21.988,21.989,21.988c12.137,0,22.011-9.864,22.011-21.988
			C47.7,35.276,37.826,25.411,25.689,25.411L25.689,25.411z"/>
	</g>
	<g>
		<path fill="#FFFFFF" d="M75.022,35.411c6.609,0,11.988,5.354,11.988,11.99c0,6.633-5.379,11.988-11.988,11.988
			c-6.637,0-12.012-5.355-12.012-11.988C63.011,40.765,68.386,35.411,75.022,35.411z"/>
		<path fill="#211915" d="M75.022,35.411c6.609,0,11.988,5.354,11.988,11.99c0,6.633-5.379,11.988-11.988,11.988
			c-6.637,0-12.012-5.355-12.012-11.988C63.011,40.765,68.386,35.411,75.022,35.411 M75.022,25.411
			c-12.138,0-22.012,9.865-22.012,21.99c0,12.124,9.874,21.988,22.012,21.988c12.124,0,21.988-9.864,21.988-21.988
			C97.011,35.276,87.146,25.411,75.022,25.411L75.022,25.411z"/>
	</g>
</g>
</svg>
