<?xml version="1.0" encoding="utf-8"?>
<!-- Generator: Adobe Illustrator 16.0.0, SVG Export Plug-In . SVG Version: 6.00 Build 0)  -->
<!DOCTYPE svg PUBLIC "-//W3C//DTD SVG 1.1//EN" "http://www.w3.org/Graphics/SVG/1.1/DTD/svg11.dtd">
<svg version="1.1" xmlns="http://www.w3.org/2000/svg" xmlns:xlink="http://www.w3.org/1999/xlink" x="0px" y="0px" width="100px"
	 height="100px" viewBox="0 0 100 100" enable-background="new 0 0 100 100" xml:space="preserve">
<g id="Layer_3" display="none">
</g>
<g id="Your_Icon">
</g>
<g id="Layer_4">
	<g>
		<path fill="#211915" d="M16.965,99.988c-4.322,0-8.386-1.695-11.441-4.774c-3.045-3.068-4.722-7.143-4.722-11.474
			c0-8.96,7.252-16.251,16.167-16.252h65.685h0.002c1.64,0,3.183-0.646,4.346-1.818c1.173-1.182,1.82-2.756,1.82-4.43
			c0-3.447-2.767-6.251-6.169-6.252H16.971c-0.001,0-0.003,0-0.005,0c-4.322,0-8.386-1.695-11.441-4.774
			c-3.045-3.068-4.722-7.143-4.722-11.474c0-8.96,7.252-16.251,16.167-16.252h65.685h0.002c1.64,0,3.183-0.646,4.346-1.817
			c1.174-1.183,1.82-2.756,1.82-4.431c0-3.446-2.768-6.251-6.169-6.252H50v-10h32.654C91.57-0.009,98.822,7.281,98.822,16.24
			c0,4.331-1.677,8.406-4.722,11.475c-3.055,3.078-7.119,4.773-11.443,4.773c-0.001,0-0.003,0-0.005,0H16.971
			c-3.401,0.001-6.168,2.805-6.168,6.252c0,1.674,0.646,3.248,1.82,4.43c1.163,1.173,2.706,1.818,4.345,1.818h0.002h65.685
			c8.916,0.001,16.168,7.292,16.168,16.252c0,4.331-1.677,8.405-4.722,11.474c-3.055,3.079-7.119,4.774-11.443,4.774
			c-0.001,0-0.003,0-0.005,0H16.971c-3.401,0.001-6.168,2.805-6.168,6.252c0,1.674,0.646,3.248,1.82,4.43
			c1.163,1.173,2.706,1.818,4.345,1.818h0.002H50v10H16.971C16.969,99.988,16.967,99.988,16.965,99.988z"/>
	</g>
</g>
</svg>
