<?xml version="1.0" encoding="utf-8"?>
<!-- Generator: Adobe Illustrator 16.0.0, SVG Export Plug-In . SVG Version: 6.00 Build 0)  -->
<!DOCTYPE svg PUBLIC "-//W3C//DTD SVG 1.1//EN" "http://www.w3.org/Graphics/SVG/1.1/DTD/svg11.dtd">
<svg version="1.1" xmlns="http://www.w3.org/2000/svg" xmlns:xlink="http://www.w3.org/1999/xlink" x="0px" y="0px" width="100px"
	 height="100px" viewBox="0 0 100 100" enable-background="new 0 0 100 100" xml:space="preserve">
<g id="Layer_3" display="none">
</g>
<g id="Your_Icon">
</g>
<g id="Layer_4">
	<g>
		<path fill="none" d="M49.974,21.988c-5.075,0.001-10.214,1.381-14.833,4.272c-13.103,8.207-17.076,25.481-8.866,38.59
			c5.312,8.481,14.429,13.138,23.755,13.138c5.074,0,10.212-1.38,14.831-4.271c13.103-8.206,17.072-25.485,8.87-38.586
			C68.415,26.644,59.299,21.988,49.974,21.988z M62.458,60.842l-14.887-4.359C45.439,55.858,44,53.904,44,51.684V28h10v19.937
			l11.284,3.308L62.458,60.842z"/>
		<path fill="#211915" d="M50,11.988L49.975,12h-0.002c-7.12,0-14.084,2-20.139,5.791C12.076,28.914,6.678,52.405,17.799,70.161
			C24.791,81.326,36.84,87.99,50.029,87.99c7.119,0,14.082-2.005,20.138-5.797c17.756-11.12,23.168-34.613,12.051-52.369
			C75.224,18.655,63,11.988,50,11.988z M64.86,73.717c-4.619,2.892-9.757,4.271-14.831,4.271c-9.326,0-18.443-4.656-23.755-13.138
			c-8.21-13.108-4.236-30.383,8.866-38.59c4.619-2.892,9.758-4.271,14.833-4.272c9.325,0,18.441,4.655,23.757,13.143
			C81.933,48.231,77.963,65.511,64.86,73.717z"/>
		<path d="M54,28H44v23.684c0,2.221,1.439,4.175,3.571,4.799l14.887,4.359l2.826-9.598L54,47.937V28z"/>
		<path fill="#211915" d="M25.818,12.924l4.023-2.968l-5.937-8.048l-4.023,2.969C14.445,8.887,9.75,13.736,5.104,20.14l-2.938,4.046
			l8.094,5.874l2.937-4.047C17.223,20.466,21.232,16.307,25.818,12.924z"/>
		<path fill="#211915" d="M94.896,20.14C90.25,13.736,85.555,8.887,80.118,4.877l-4.023-2.969l-5.937,8.048l4.023,2.968
			c4.586,3.383,8.596,7.542,12.622,13.089l2.937,4.047l8.094-5.874L94.896,20.14z"/>
	</g>
</g>
</svg>
