<?xml version="1.0" encoding="utf-8"?>
<!-- Generator: Adobe Illustrator 16.0.0, SVG Export Plug-In . SVG Version: 6.00 Build 0)  -->
<!DOCTYPE svg PUBLIC "-//W3C//DTD SVG 1.1//EN" "http://www.w3.org/Graphics/SVG/1.1/DTD/svg11.dtd">
<svg version="1.1" xmlns="http://www.w3.org/2000/svg" xmlns:xlink="http://www.w3.org/1999/xlink" x="0px" y="0px" width="100px"
	 height="100px" viewBox="0 0 100 100" enable-background="new 0 0 100 100" xml:space="preserve">
<g id="Layer_3" display="none">
</g>
<g id="Your_Icon">
</g>
<g id="Layer_4">
	<path fill="#211915" d="M81.011,97.992c-0.913,0-1.829-0.25-2.642-0.755L50.12,79.652L22.791,97.199
		c-1.755,1.127-4.027,1.046-5.697-0.205c-1.671-1.25-2.389-3.407-1.802-5.41l9.095-31.023L2.452,38.475
		c-1.423-1.433-1.844-3.581-1.068-5.445C2.16,31.166,3.98,29.951,6,29.951h27.62L45.503,2.976c0.801-1.817,2.596-3.024,4.588-2.984
		c1.985,0.004,3.781,1.184,4.573,3.005l11.732,26.966H94c2.016,0,3.835,1.211,4.613,3.071c0.777,1.86,0.362,4.005-1.054,5.44
		L75.844,60.49l9.93,30.975c0.64,1.997-0.034,4.181-1.688,5.47C83.187,97.636,82.101,97.992,81.011,97.992z M18.012,39.951
		l15.552,15.66c1.284,1.293,1.763,3.182,1.25,4.93l-6.159,21.01l18.724-12.022c1.624-1.042,3.704-1.057,5.344-0.037L72.094,81.55
		l-6.697-20.89c-0.567-1.772-0.104-3.713,1.202-5.038l15.446-15.66H63.119c-1.99,0-3.791-1.18-4.585-3.005l-8.483-19.499
		l-8.594,19.508c-0.8,1.814-2.595,2.984-4.576,2.984H18.012z"/>
	
		<path opacity="0.4" fill="none" stroke="#FFFFFF" stroke-width="10" stroke-linecap="square" stroke-linejoin="round" stroke-miterlimit="10" d="
		M49.509,31.391"/>
</g>
</svg>
