<?xml version="1.0" encoding="utf-8"?>
<!-- Generator: Adobe Illustrator 16.0.0, SVG Export Plug-In . SVG Version: 6.00 Build 0)  -->
<!DOCTYPE svg PUBLIC "-//W3C//DTD SVG 1.0//EN" "http://www.w3.org/TR/2001/REC-SVG-20010904/DTD/svg10.dtd">
<svg version="1.0" xmlns="http://www.w3.org/2000/svg" xmlns:xlink="http://www.w3.org/1999/xlink" x="0px" y="0px" width="100px"
	 height="100px" viewBox="0 0 100 100" enable-background="new 0 0 100 100" xml:space="preserve">
<g id="Layer_3">
</g>
<g id="Your_Icon">
</g>
<g id="Layer_4">
	<g>
		<path fill="none" d="M27,71.271V84h46V71.281c-1.31-2.731-11.495-9.999-23.003-16.46C38.477,61.269,28.291,68.534,27,71.271z"/>
		<path fill="none" d="M73,28.469V16H27.2H27v12.479c1,2.737,11.477,10.002,22.997,16.45C61.505,38.467,72,31.2,73,28.469z"/>
		<path d="M81,28.78V4c0-2.209-1.591-4-3.8-4h-54C20.991,0,19,1.791,19,4v24.78c0,3.076,1.955,7.139,15.406,15.962
			c2.914,1.912,5.853,3.671,8.23,5.074c-2.414,1.421-5.36,3.227-8.355,5.192C20.83,63.831,19,67.894,19,70.97v24.78
			c0,2.209,1.791,4.25,4,4.25h54c2.209,0,4-2.041,4-4.25V70.97c0-3.059-1.854-7.107-15.304-15.942
			c-2.921-1.918-5.817-3.686-8.198-5.094c2.417-1.426,5.294-3.24,8.298-5.212C79.246,35.888,81,31.839,81,28.78z M73,71.281V84H27
			V71.271c1.291-2.737,11.477-10.002,22.997-16.45C61.505,61.283,71.69,68.55,73,71.281z M49.997,44.929
			C38.477,38.481,28,31.216,27,28.479V16h0.2H73v12.469C72,31.2,61.505,38.467,49.997,44.929z"/>
	</g>
</g>
</svg>
