<?xml version="1.0" encoding="utf-8"?>
<!-- Generator: Adobe Illustrator 16.0.0, SVG Export Plug-In . SVG Version: 6.00 Build 0)  -->
<!DOCTYPE svg PUBLIC "-//W3C//DTD SVG 1.1//EN" "http://www.w3.org/Graphics/SVG/1.1/DTD/svg11.dtd">
<svg version="1.1" xmlns="http://www.w3.org/2000/svg" xmlns:xlink="http://www.w3.org/1999/xlink" x="0px" y="0px" width="100px"
	 height="100px" viewBox="0 0 100 100" enable-background="new 0 0 100 100" xml:space="preserve">
<g id="Layer_3" display="none">
</g>
<g id="Your_Icon">
</g>
<g id="Layer_4">
	<g>
		<path d="M85.7,33h-3.829c0.184-1,0.443-0.959,0.784-1.42c0.546-0.736,1.082-1.098,2.49-1.098c2.652,0,5.123-1.049,6.999-2.924
			C94.02,25.684,95,23.146,95,20.493V9.987c0-2.818-1.089-5.506-3.174-7.4c-1.849-1.68-4.2-2.6-6.676-2.6
			c-0.316,0-0.609,0.014-0.927,0.045c-0.821,0.078-8.077,0.879-15.678,4.754C57.126,10.61,51,20.497,51,32.63V33h-5.3
			c-5.523,0-9.7,4.524-9.7,10.048v10C36,58.569,40.177,63,45.7,63H51v26.931C51,95.452,55.177,100,60.7,100h11
			c5.523,0,10.3-4.548,10.3-10.069V63h3.7c5.523,0,10.3-4.431,10.3-9.952v-10C96,37.524,91.223,33,85.7,33z M86,53H72v37H61V53H46
			V43h15V32.63C61,12.329,85,9.987,85,9.987V20c0,0,0.164,0,0.146,0C73.631,20,72,32.292,72,32.292V43h14V53z"/>
	</g>
</g>
</svg>
