<?xml version="1.0" encoding="utf-8"?>
<!-- Generator: Adobe Illustrator 16.0.0, SVG Export Plug-In . SVG Version: 6.00 Build 0)  -->
<!DOCTYPE svg PUBLIC "-//W3C//DTD SVG 1.1//EN" "http://www.w3.org/Graphics/SVG/1.1/DTD/svg11.dtd">
<svg version="1.1" xmlns="http://www.w3.org/2000/svg" xmlns:xlink="http://www.w3.org/1999/xlink" x="0px" y="0px" width="100px"
	 height="100px" viewBox="0 0 100 100" enable-background="new 0 0 100 100" xml:space="preserve">
<g id="Layer_3" display="none">
</g>
<g id="Your_Icon">
</g>
<g id="Layer_4">
	<g>
		<path d="M98.096,52.609L48.729,1.522c-1.018-1.053-2.444-1.609-3.908-1.516L7.282,2.354C4.757,2.512,2.748,4.53,2.602,7.056
			L0.508,43.295c-0.083,1.432,0.454,2.83,1.472,3.84l51.891,51.42c0.955,0.946,2.227,1.448,3.521,1.448
			c0.639,0,1.283-0.122,1.896-0.374c1.857-0.762,3.079-2.561,3.102-4.568l0.378-32.688l31.933-1.292
			c1.968-0.08,3.707-1.308,4.439-3.137C99.874,56.114,99.464,54.026,98.096,52.609z M57.622,52.572
			c-2.658,0.107-4.767,2.278-4.797,4.938l-0.297,25.634L10.622,41.619l1.708-29.562l30.812-1.927l40.014,41.408L57.622,52.572z"/>
		<path d="M33,23c-5.522-0.002-10,4.477-10,10c0,5.52,4.476,9.997,9.999,10C38.523,43.001,43,38.522,43,32.998
			C43,27.479,38.523,22.997,33,23z"/>
	</g>
</g>
</svg>
