<?xml version="1.0" encoding="utf-8"?>
<!-- Generator: Adobe Illustrator 16.0.0, SVG Export Plug-In . SVG Version: 6.00 Build 0)  -->
<!DOCTYPE svg PUBLIC "-//W3C//DTD SVG 1.1//EN" "http://www.w3.org/Graphics/SVG/1.1/DTD/svg11.dtd">
<svg version="1.1" xmlns="http://www.w3.org/2000/svg" xmlns:xlink="http://www.w3.org/1999/xlink" x="0px" y="0px" width="100px"
	 height="100px" viewBox="0 0 100 100" enable-background="new 0 0 100 100" xml:space="preserve">
<g id="Layer_3" display="none">
</g>
<g id="Your_Icon">
</g>
<g id="Layer_4">
	<g>
		<path fill="none" d="M48.764,58c7.91,0,17.759,3.947,29.194,12.135C66.518,61.943,56.704,58,48.793,58
			C48.783,58,48.774,58,48.764,58z"/>
		<path d="M90.684,8.724c-1.945-0.734-4.185-0.081-5.56,1.481C79.814,16.237,63.076,32,49.758,32H23.423
			c-8.799,0-16.014,6.507-16.356,14.982C7.062,47.137,7,49.385,7,49.541v0.242c0,2.33,0.054,2.406,0.061,2.521
			c0.343,8.579,7.53,15.3,16.326,15.3c0,0,4.613,0.006,5.613,0.007l18-0.012c1-0.005,1.042-0.01,1.217-0.015l0.411-0.004
			c11.856,0,30.521,15.46,36.697,21.417c0.951,0.918,2.224,1.402,3.495,1.402c0.659,0,1.414-0.13,2.044-0.397
			C92.709,89.218,94,87.406,94,85.4v-72C94,11.32,92.631,9.458,90.684,8.724z M84,74.45c-2-1.437-3.882-2.769-6.042-4.315
			C66.523,61.947,56.674,58,48.764,58c-0.004,0-0.008,0-0.012,0c-0.184,0-0.318,0-0.498,0c-0.011,0-0.021,0-0.032,0
			c-0.04,0-0.111-0.204-0.163-0.202c-0.033,0-0.06-0.205-0.06-0.205V42h1.758c8.84,0,18.874-4.398,29.664-12.866
			C81.035,27.868,82,26.499,84,25.29V74.45z"/>
		<path fill="#211915" d="M29,67.61v21.751c0,4.4,3.691,7.975,8.188,8.138l1.065,0.003c0.056,0,0.827-0.008,0.864-0.01
			C43.609,97.32,47,93.748,47,89.361V67.599L29,67.61z"/>
	</g>
</g>
</svg>
