<?xml version="1.0" encoding="utf-8"?>
<!-- Generator: Adobe Illustrator 16.0.0, SVG Export Plug-In . SVG Version: 6.00 Build 0)  -->
<!DOCTYPE svg PUBLIC "-//W3C//DTD SVG 1.1//EN" "http://www.w3.org/Graphics/SVG/1.1/DTD/svg11.dtd">
<svg version="1.1" xmlns="http://www.w3.org/2000/svg" xmlns:xlink="http://www.w3.org/1999/xlink" x="0px" y="0px" width="100px"
	 height="100px" viewBox="0 0 100 100" enable-background="new 0 0 100 100" xml:space="preserve">
<g id="Layer_3" display="none">
</g>
<g id="Your_Icon">
</g>
<g id="Layer_4">
	<g>
		<path fill="none" d="M59.126,80.403c0.087,0.173,0.166,0.351,0.243,0.529C59.292,80.754,59.213,80.576,59.126,80.403z"/>
		<path fill="none" d="M58.665,79.589c0.099,0.158,0.193,0.319,0.284,0.484C58.858,79.908,58.764,79.747,58.665,79.589z"/>
		<path fill="none" d="M59.511,81.265c0.078,0.199,0.145,0.404,0.21,0.61C59.655,81.669,59.588,81.464,59.511,81.265z"/>
		<path fill="none" d="M59.816,82.17c0.087,0.31,0.163,0.624,0.222,0.946C59.979,82.794,59.904,82.479,59.816,82.17z"/>
		<path fill="none" d="M18.591,69.556c-0.168-0.069-0.337-0.138-0.509-0.197h-0.005C18.251,69.419,18.422,69.486,18.591,69.556z"/>
		<path fill="none" d="M19.72,70.098c0.53,0.301,1.032,0.648,1.499,1.039C20.752,70.746,20.25,70.398,19.72,70.098z"/>
		<path fill="none" d="M51.981,94.739c-0.322,0.058-0.643,0.098-0.962,0.124C51.339,94.837,51.659,94.797,51.981,94.739z"/>
		<path fill="none" d="M58.131,78.823c0.113,0.147,0.223,0.297,0.328,0.451C58.354,79.12,58.245,78.971,58.131,78.823z"/>
		<path fill="none" d="M21.89,71.755c-0.149-0.149-0.306-0.291-0.464-0.432C21.584,71.464,21.741,71.605,21.89,71.755z"/>
		<path fill="none" d="M57.524,78.105c0.13,0.14,0.259,0.282,0.381,0.43C57.783,78.388,57.654,78.245,57.524,78.105z"/>
		<path fill="none" d="M42.267,90.975c-0.113-0.147-0.223-0.297-0.328-0.451C42.044,90.678,42.154,90.827,42.267,90.975z"/>
		<path fill="none" d="M45.278,93.601c-0.53-0.3-1.032-0.648-1.5-1.04C44.246,92.952,44.748,93.301,45.278,93.601z"/>
		<path fill="none" d="M43.571,92.374c-0.158-0.14-0.314-0.281-0.463-0.432C43.257,92.093,43.413,92.234,43.571,92.374z"/>
		<path fill="none" d="M42.875,91.693c-0.13-0.141-0.259-0.283-0.381-0.431C42.616,91.41,42.744,91.553,42.875,91.693z"/>
		<path fill="none" d="M18.906,69.687c0.194,0.087,0.383,0.185,0.57,0.284C19.288,69.871,19.1,69.773,18.906,69.687z"/>
		<path fill="none" d="M46.092,94.012c-0.195-0.088-0.385-0.186-0.574-0.286C45.708,93.826,45.897,93.924,46.092,94.012z"/>
		<path fill="none" d="M47.832,94.608c-0.181-0.044-0.36-0.095-0.538-0.148C47.471,94.514,47.65,94.564,47.832,94.608z"/>
		<path fill="none" d="M48.75,94.786c-0.185-0.026-0.369-0.058-0.552-0.096C48.381,94.729,48.565,94.76,48.75,94.786z"/>
		<path fill="none" d="M49.702,94.879c-0.194-0.01-0.388-0.021-0.579-0.043C49.314,94.857,49.508,94.869,49.702,94.879z"/>
		<path fill="none" d="M46.944,94.349c-0.182-0.062-0.36-0.134-0.538-0.206C46.584,94.215,46.762,94.286,46.944,94.349z"/>
		<path fill="none" d="M50.191,94.9c0.171,0,0.344-0.015,0.517-0.023c-0.215,0.012-0.429,0.021-0.642,0.018
			C50.107,94.896,50.148,94.9,50.191,94.9z"/>
		<path fill="none" d="M14.791,88.8c0.171,0,0.344-0.015,0.517-0.023c-0.215,0.012-0.429,0.021-0.642,0.018
			C14.707,88.795,14.748,88.8,14.791,88.8z"/>
		<path fill="none" d="M24.11,75.164c0.078,0.199,0.145,0.404,0.21,0.61C24.255,75.568,24.188,75.363,24.11,75.164z"/>
		<path fill="none" d="M24.416,76.069c0.087,0.31,0.163,0.624,0.222,0.946C24.579,76.693,24.503,76.379,24.416,76.069z"/>
		<path fill="none" d="M41.733,90.208c-0.099-0.157-0.192-0.319-0.283-0.483C41.541,89.889,41.635,90.051,41.733,90.208z"/>
		<path fill="none" d="M23.726,74.303c0.087,0.173,0.166,0.351,0.243,0.529C23.892,74.653,23.812,74.476,23.726,74.303z"/>
		<path fill="none" d="M16.581,88.639c-0.322,0.059-0.643,0.098-0.962,0.124C15.938,88.736,16.259,88.696,16.581,88.639z"/>
		<path fill="none" d="M22.731,72.723c0.113,0.147,0.223,0.297,0.328,0.451C22.954,73.02,22.844,72.87,22.731,72.723z"/>
		<path fill="none" d="M5.184,81.525c-0.087-0.309-0.163-0.624-0.221-0.946C5.021,80.901,5.096,81.217,5.184,81.525z"/>
		<path fill="none" d="M14.302,88.778c-0.194-0.01-0.388-0.021-0.579-0.042C13.914,88.757,14.107,88.769,14.302,88.778z"/>
		<path fill="none" d="M23.265,73.488c0.099,0.158,0.193,0.319,0.284,0.484C23.458,73.808,23.364,73.646,23.265,73.488z"/>
		<path fill="none" d="M22.124,72.005c0.13,0.14,0.259,0.282,0.381,0.43C22.382,72.287,22.254,72.145,22.124,72.005z"/>
		<path fill="none" d="M13.35,88.686c-0.185-0.026-0.369-0.058-0.552-0.096C12.98,88.628,13.165,88.659,13.35,88.686z"/>
		<path fill="none" d="M6.867,84.874c-0.113-0.147-0.223-0.297-0.328-0.451C6.644,84.577,6.753,84.727,6.867,84.874z"/>
		<path fill="none" d="M5.873,83.293c-0.087-0.172-0.166-0.35-0.242-0.527C5.708,82.944,5.786,83.121,5.873,83.293z"/>
		<path fill="none" d="M5.488,82.431c-0.077-0.198-0.144-0.402-0.208-0.607C5.345,82.028,5.411,82.232,5.488,82.431z"/>
		<path fill="none" d="M8.171,86.273c-0.158-0.14-0.314-0.281-0.463-0.432C7.856,85.992,8.013,86.134,8.171,86.273z"/>
		<path fill="none" d="M6.333,84.107c-0.099-0.157-0.192-0.319-0.283-0.483C6.141,83.788,6.234,83.95,6.333,84.107z"/>
		<path fill="none" d="M9.878,87.5c-0.53-0.3-1.032-0.648-1.5-1.04C8.846,86.852,9.348,87.2,9.878,87.5z"/>
		<path fill="none" d="M11.544,88.248c-0.182-0.062-0.36-0.134-0.538-0.206C11.184,88.114,11.362,88.186,11.544,88.248z"/>
		<path fill="none" d="M12.431,88.508c-0.181-0.044-0.36-0.095-0.538-0.148C12.071,88.413,12.25,88.464,12.431,88.508z"/>
		<path fill="none" d="M10.692,87.911c-0.195-0.088-0.385-0.187-0.574-0.286C10.307,87.726,10.497,87.823,10.692,87.911z"/>
		<path fill="none" d="M7.474,85.593c-0.13-0.141-0.259-0.283-0.381-0.431C7.215,85.31,7.344,85.452,7.474,85.593z"/>
		<path fill="none" d="M76.273,83.396c-0.087-0.172-0.166-0.349-0.242-0.527C76.108,83.047,76.187,83.224,76.273,83.396z"/>
		<path fill="none" d="M81.944,88.351c-0.182-0.062-0.36-0.134-0.538-0.206C81.584,88.217,81.762,88.288,81.944,88.351z"/>
		<path fill="none" d="M75.584,81.628c-0.087-0.309-0.163-0.624-0.221-0.946C75.421,81.004,75.497,81.319,75.584,81.628z"/>
		<path fill="none" d="M41.273,89.394c-0.087-0.172-0.166-0.349-0.242-0.527C41.108,89.045,41.187,89.222,41.273,89.394z"/>
		<path fill="none" d="M75.889,82.533c-0.077-0.198-0.144-0.402-0.208-0.607C75.745,82.131,75.812,82.335,75.889,82.533z"/>
		<path fill="none" d="M88.454,69.452c0.182,0.062,0.36,0.133,0.538,0.206C88.814,69.585,88.636,69.515,88.454,69.452z"/>
		<path fill="none" d="M80.278,87.603c-0.53-0.3-1.032-0.648-1.5-1.04C79.246,86.954,79.748,87.303,80.278,87.603z"/>
		<path fill="none" d="M81.092,88.014c-0.195-0.088-0.385-0.186-0.574-0.286C80.708,87.828,80.897,87.926,81.092,88.014z"/>
		<path fill="none" d="M77.875,85.695c-0.13-0.141-0.259-0.283-0.381-0.431C77.616,85.412,77.744,85.555,77.875,85.695z"/>
		<path fill="none" d="M78.571,86.376c-0.158-0.14-0.314-0.281-0.463-0.432C78.257,86.095,78.413,86.236,78.571,86.376z"/>
		<path fill="none" d="M76.733,84.21c-0.099-0.157-0.192-0.319-0.283-0.483C76.541,83.891,76.635,84.053,76.733,84.21z"/>
		<path fill="none" d="M93.665,73.591c0.099,0.158,0.193,0.319,0.284,0.484C93.858,73.91,93.764,73.749,93.665,73.591z"/>
		<path fill="none" d="M94.511,75.267c0.078,0.199,0.145,0.404,0.21,0.61C94.655,75.671,94.588,75.466,94.511,75.267z"/>
		<path fill="none" d="M94.126,74.405c0.087,0.173,0.166,0.351,0.243,0.529C94.292,74.756,94.213,74.578,94.126,74.405z"/>
		<path fill="none" d="M89.306,69.789c0.194,0.088,0.383,0.185,0.57,0.284C89.688,69.974,89.5,69.877,89.306,69.789z"/>
		<path fill="none" d="M94.816,76.172c0.087,0.31,0.163,0.624,0.222,0.946C94.979,76.796,94.904,76.481,94.816,76.172z"/>
		<path fill="none" d="M93.131,72.825c0.113,0.147,0.223,0.297,0.328,0.451C93.354,73.122,93.245,72.973,93.131,72.825z"/>
		<path fill="none" d="M90.121,70.2c0.53,0.3,1.032,0.648,1.499,1.039C91.152,70.849,90.651,70.5,90.121,70.2z"/>
		<path fill="none" d="M91.827,71.426c0.158,0.141,0.314,0.282,0.464,0.432C92.141,71.708,91.985,71.566,91.827,71.426z"/>
		<path fill="none" d="M92.524,72.107c0.13,0.14,0.259,0.282,0.381,0.43C92.783,72.39,92.654,72.247,92.524,72.107z"/>
		<path fill="none" d="M77.267,84.977c-0.113-0.147-0.223-0.297-0.328-0.451C77.044,84.68,77.154,84.829,77.267,84.977z"/>
		<path fill="none" d="M51.649,75.013c0.185,0.026,0.369,0.058,0.55,0.095C52.017,75.07,51.834,75.039,51.649,75.013z"/>
		<path fill="none" d="M52.567,75.19c0.181,0.044,0.36,0.095,0.538,0.148C52.927,75.285,52.749,75.234,52.567,75.19z"/>
		<path fill="none" d="M53.454,75.45c0.182,0.062,0.36,0.133,0.538,0.206C53.814,75.583,53.636,75.513,53.454,75.45z"/>
		<path fill="none" d="M50.696,74.92c0.194,0.01,0.387,0.021,0.579,0.043C51.083,74.941,50.891,74.93,50.696,74.92z"/>
		<path fill="none" d="M54.306,75.787c0.194,0.088,0.383,0.185,0.57,0.284C54.688,75.972,54.5,75.875,54.306,75.787z"/>
		<path fill="none" d="M50.207,74.898c-0.171,0-0.344,0.014-0.517,0.023c0.215-0.012,0.43-0.021,0.643-0.018
			C50.291,74.903,50.249,74.898,50.207,74.898z"/>
		<path fill="none" d="M55.121,76.198c0.53,0.3,1.032,0.648,1.499,1.039C56.152,76.847,55.651,76.498,55.121,76.198z"/>
		<path fill="none" d="M82.832,88.61c-0.181-0.044-0.36-0.095-0.538-0.148C82.471,88.516,82.65,88.566,82.832,88.61z"/>
		<path fill="none" d="M40.584,87.626c-0.087-0.309-0.163-0.624-0.221-0.946C40.421,87.002,40.497,87.317,40.584,87.626z"/>
		<path fill="none" d="M48.417,75.06c0.322-0.058,0.643-0.098,0.962-0.124C49.059,74.962,48.738,75.002,48.417,75.06z"/>
		<path fill="none" d="M40.889,88.531c-0.077-0.198-0.144-0.402-0.208-0.607C40.745,88.129,40.812,88.333,40.889,88.531z"/>
		<path fill="none" d="M83.75,88.788c-0.185-0.026-0.369-0.058-0.552-0.096C83.381,88.73,83.565,88.762,83.75,88.788z"/>
		<path fill="none" d="M86.981,88.741c-0.322,0.058-0.643,0.098-0.962,0.124C86.339,88.839,86.659,88.799,86.981,88.741z"/>
		<path fill="none" d="M84.702,88.881c-0.194-0.01-0.388-0.021-0.579-0.043C84.314,88.859,84.508,88.871,84.702,88.881z"/>
		<path fill="none" d="M85.191,88.902c0.171,0,0.344-0.015,0.517-0.023c-0.215,0.012-0.429,0.021-0.642,0.018
			C85.107,88.897,85.148,88.902,85.191,88.902z"/>
		<path fill="none" d="M57.291,77.855c-0.149-0.149-0.306-0.291-0.464-0.432C56.985,77.564,57.141,77.706,57.291,77.855z"/>
		<path d="M85.208,65.9L85.208,65.9c1.686,0,3.302,0.332,4.792,0.926V52.004C90,49.243,87.761,47,85,47H55V27.093
			c-0.849,0.354-1.744,0.629-2.686,0.799c-0.768,0.139-1.549,0.209-2.324,0.209c-1.761,0-3.446-0.364-4.99-1.007V47H15
			c-2.761,0-5,2.243-5,5.004v14.709c0.794-0.312,1.625-0.551,2.483-0.706c0.767-0.139,1.549-0.209,2.324-0.209h0
			c1.838,0,3.593,0.394,5.192,1.093V57h25v15.994c0.916-0.397,1.877-0.704,2.884-0.887c0.767-0.139,1.549-0.209,2.324-0.209h0
			c1.686,0,3.302,0.332,4.792,0.926V57h25v9.996c0.916-0.397,1.877-0.704,2.884-0.887C83.65,65.971,84.433,65.9,85.208,65.9z"/>
		<path d="M40.384,17.827c0.028,0.102,0.065,0.199,0.097,0.3c0.064,0.204,0.13,0.407,0.207,0.604
			c0.044,0.115,0.096,0.226,0.144,0.338c0.076,0.177,0.154,0.353,0.24,0.523c0.057,0.114,0.119,0.225,0.18,0.336
			c0.089,0.162,0.182,0.321,0.28,0.477c0.068,0.108,0.138,0.215,0.209,0.32c0.104,0.152,0.212,0.3,0.323,0.445
			c0.076,0.099,0.151,0.198,0.23,0.293c0.12,0.146,0.246,0.285,0.374,0.423c0.08,0.086,0.158,0.174,0.241,0.257
			c0.145,0.146,0.297,0.283,0.451,0.42c0.074,0.065,0.145,0.135,0.22,0.198c0.23,0.193,0.468,0.377,0.715,0.548
			c0.002,0.002,0.004,0.003,0.006,0.005c0.226,0.157,0.46,0.299,0.698,0.437v0.005c1.487,0.86,3.201,1.343,4.99,1.343
			c0.59,0,1.189-0.052,1.791-0.161c5.432-0.984,9.042-6.186,8.057-11.623c-0.059-0.322-0.134-0.637-0.222-0.946
			c-0.028-0.101-0.065-0.198-0.097-0.297c-0.065-0.205-0.131-0.409-0.208-0.608c-0.044-0.113-0.095-0.223-0.143-0.334
			c-0.077-0.178-0.155-0.354-0.242-0.525c-0.057-0.113-0.118-0.224-0.179-0.335c-0.09-0.162-0.183-0.323-0.281-0.479
			c-0.067-0.107-0.137-0.214-0.208-0.318c-0.104-0.152-0.212-0.301-0.324-0.446c-0.076-0.099-0.151-0.198-0.23-0.293
			c-0.12-0.146-0.247-0.285-0.375-0.423c-0.08-0.086-0.158-0.174-0.241-0.257c-0.145-0.146-0.297-0.284-0.451-0.42
			c-0.074-0.065-0.145-0.135-0.22-0.198c-0.228-0.191-0.463-0.373-0.707-0.542c-0.005-0.004-0.01-0.008-0.016-0.012
			c-0.25-0.173-0.508-0.333-0.772-0.483c-0.085-0.048-0.173-0.088-0.259-0.134c-0.183-0.096-0.367-0.191-0.555-0.277
			c-0.107-0.048-0.217-0.09-0.326-0.135c-0.173-0.071-0.348-0.141-0.526-0.202c-0.118-0.041-0.238-0.077-0.358-0.114
			c-0.174-0.053-0.35-0.103-0.527-0.146c-0.125-0.031-0.25-0.059-0.376-0.084c-0.179-0.037-0.359-0.067-0.541-0.094
			c-0.127-0.019-0.254-0.038-0.383-0.051c-0.188-0.02-0.378-0.032-0.569-0.042c-0.123-0.006-0.247-0.015-0.371-0.017
			c-0.213-0.002-0.428,0.007-0.642,0.018c-0.104,0.005-0.206,0.005-0.31,0.014c-0.32,0.027-0.641,0.066-0.963,0.125
			c-5.435,0.984-9.042,6.186-8.053,11.62C40.221,17.203,40.296,17.518,40.384,17.827z"/>
		<path d="M56.62,77.237c-0.467-0.391-0.969-0.739-1.499-1.039c-0.08-0.045-0.163-0.084-0.244-0.127
			c-0.188-0.1-0.376-0.196-0.57-0.284c-0.104-0.047-0.209-0.088-0.314-0.131c-0.177-0.073-0.356-0.144-0.538-0.206
			c-0.115-0.04-0.232-0.075-0.349-0.111c-0.178-0.054-0.356-0.104-0.538-0.148c-0.122-0.03-0.245-0.058-0.368-0.083
			c-0.182-0.037-0.366-0.068-0.55-0.095c-0.125-0.019-0.249-0.037-0.374-0.05c-0.191-0.021-0.385-0.033-0.579-0.043
			c-0.121-0.006-0.242-0.015-0.363-0.016c-0.213-0.003-0.428,0.006-0.643,0.018c-0.104,0.005-0.207,0.005-0.311,0.014
			c-0.319,0.026-0.641,0.066-0.962,0.124c-5.435,0.984-9.042,6.186-8.053,11.62c0.058,0.322,0.133,0.638,0.221,0.946
			c0.028,0.102,0.065,0.198,0.097,0.298c0.064,0.205,0.131,0.409,0.208,0.607c0.044,0.113,0.094,0.224,0.143,0.335
			c0.077,0.179,0.155,0.355,0.242,0.527c0.056,0.112,0.117,0.222,0.177,0.331c0.09,0.164,0.184,0.326,0.283,0.483
			c0.067,0.106,0.136,0.212,0.206,0.315c0.105,0.154,0.215,0.304,0.328,0.451c0.074,0.097,0.148,0.194,0.226,0.288
			c0.123,0.147,0.251,0.29,0.381,0.431c0.078,0.083,0.153,0.169,0.233,0.249c0.149,0.15,0.305,0.292,0.463,0.432
			c0.069,0.062,0.136,0.127,0.207,0.187c0.468,0.392,0.97,0.74,1.5,1.04c0.079,0.045,0.161,0.083,0.24,0.125
			c0.188,0.101,0.379,0.198,0.574,0.286c0.103,0.047,0.209,0.087,0.314,0.131c0.178,0.072,0.356,0.144,0.538,0.206
			c0.115,0.04,0.232,0.075,0.349,0.111c0.178,0.054,0.357,0.104,0.538,0.148c0.122,0.03,0.244,0.058,0.367,0.082
			c0.183,0.038,0.367,0.069,0.552,0.096c0.124,0.019,0.248,0.037,0.373,0.05c0.191,0.021,0.385,0.033,0.579,0.043
			c0.121,0.006,0.241,0.015,0.363,0.016c0.213,0.003,0.427-0.006,0.642-0.018c0.104-0.005,0.208-0.005,0.312-0.014
			c0.319-0.026,0.64-0.066,0.962-0.124c5.432-0.984,9.042-6.186,8.057-11.623c-0.059-0.322-0.134-0.637-0.222-0.946
			c-0.028-0.1-0.064-0.196-0.096-0.295c-0.065-0.206-0.132-0.411-0.21-0.61c-0.044-0.113-0.094-0.222-0.142-0.332
			c-0.077-0.179-0.156-0.356-0.243-0.529c-0.057-0.112-0.117-0.221-0.177-0.33c-0.091-0.165-0.185-0.326-0.284-0.484
			c-0.067-0.106-0.135-0.211-0.206-0.314c-0.105-0.154-0.215-0.304-0.328-0.451c-0.074-0.097-0.148-0.194-0.226-0.288
			c-0.123-0.147-0.251-0.29-0.381-0.43c-0.078-0.084-0.153-0.169-0.233-0.25c-0.149-0.149-0.306-0.291-0.464-0.432
			C56.757,77.362,56.691,77.297,56.62,77.237z"/>
		<path d="M94.816,76.172c-0.028-0.1-0.064-0.196-0.096-0.295c-0.065-0.206-0.132-0.411-0.21-0.61
			c-0.044-0.113-0.094-0.222-0.142-0.332c-0.077-0.179-0.156-0.356-0.243-0.529c-0.057-0.112-0.117-0.221-0.177-0.33
			c-0.091-0.165-0.185-0.326-0.284-0.484c-0.067-0.106-0.135-0.211-0.206-0.314c-0.105-0.154-0.215-0.304-0.328-0.451
			c-0.074-0.097-0.148-0.194-0.226-0.288c-0.123-0.147-0.251-0.29-0.381-0.43c-0.078-0.084-0.153-0.169-0.233-0.25
			c-0.149-0.149-0.306-0.291-0.464-0.432c-0.069-0.062-0.136-0.127-0.207-0.187c-0.467-0.391-0.969-0.739-1.499-1.039
			c-0.08-0.045-0.163-0.084-0.244-0.127c-0.188-0.1-0.376-0.196-0.57-0.284c-0.104-0.047-0.209-0.088-0.314-0.131
			c-0.177-0.073-0.356-0.144-0.538-0.206c-1.028-0.355-2.121-0.552-3.247-0.552c-0.59,0-1.189,0.053-1.791,0.161
			c-5.435,0.984-9.042,6.186-8.053,11.62c0.058,0.322,0.133,0.638,0.221,0.946c0.028,0.102,0.065,0.198,0.097,0.298
			c0.064,0.205,0.131,0.409,0.208,0.607c0.044,0.113,0.094,0.224,0.143,0.335c0.077,0.179,0.155,0.355,0.242,0.527
			c0.056,0.112,0.117,0.222,0.177,0.331c0.09,0.164,0.184,0.326,0.283,0.483c0.067,0.106,0.136,0.212,0.206,0.315
			c0.105,0.154,0.215,0.304,0.328,0.451c0.074,0.097,0.148,0.194,0.226,0.288c0.123,0.147,0.251,0.29,0.381,0.431
			c0.078,0.083,0.153,0.169,0.233,0.249c0.149,0.15,0.305,0.292,0.463,0.432c0.069,0.062,0.136,0.127,0.207,0.187
			c0.468,0.392,0.97,0.74,1.5,1.04c0.079,0.045,0.161,0.083,0.24,0.125c0.188,0.101,0.379,0.198,0.574,0.286
			c0.103,0.047,0.209,0.087,0.314,0.131c0.178,0.072,0.356,0.144,0.538,0.206c0.115,0.04,0.232,0.075,0.349,0.111
			c0.178,0.054,0.357,0.104,0.538,0.148c0.122,0.03,0.244,0.058,0.367,0.082c0.183,0.038,0.367,0.069,0.552,0.096
			c0.124,0.019,0.248,0.037,0.373,0.05c0.191,0.021,0.385,0.033,0.579,0.043c0.121,0.006,0.241,0.015,0.363,0.016
			c0.213,0.003,0.427-0.006,0.642-0.018c0.104-0.005,0.208-0.005,0.312-0.014c0.319-0.026,0.64-0.066,0.962-0.124
			c5.432-0.984,9.042-6.186,8.057-11.623C94.979,76.796,94.904,76.481,94.816,76.172z"/>
		<path d="M21.62,71.237c-0.467-0.391-0.969-0.739-1.499-1.039c-0.08-0.045-0.163-0.084-0.244-0.127
			c-0.188-0.1-0.376-0.196-0.57-0.284c-0.104-0.047-0.209-0.088-0.314-0.131c-0.177-0.073-0.356-0.144-0.538-0.206
			c-0.115-0.04-0.232-0.075-0.349-0.111c-0.178-0.054-0.356-0.104-0.538-0.148c-0.122-0.03-0.245-0.058-0.368-0.083
			c-0.182-0.037-0.366-0.068-0.55-0.095c-0.125-0.019-0.249-0.037-0.374-0.05c-0.191-0.021-0.385-0.033-0.579-0.043
			c-0.121-0.006-0.242-0.015-0.363-0.016c-0.213-0.003-0.428,0.006-0.643,0.018c-0.104,0.005-0.207,0.005-0.311,0.014
			c-0.319,0.026-0.641,0.066-0.962,0.124c-5.435,0.984-9.042,6.186-8.053,11.62c0.058,0.322,0.133,0.638,0.221,0.946
			c0.028,0.102,0.065,0.198,0.097,0.298c0.064,0.205,0.131,0.409,0.208,0.607c0.044,0.113,0.094,0.224,0.143,0.335
			c0.077,0.179,0.155,0.355,0.242,0.527c0.056,0.112,0.117,0.222,0.177,0.331c0.09,0.164,0.184,0.326,0.283,0.483
			c0.067,0.106,0.136,0.212,0.206,0.315c0.105,0.154,0.215,0.304,0.328,0.451c0.074,0.097,0.148,0.194,0.226,0.288
			c0.123,0.147,0.251,0.29,0.381,0.431c0.078,0.083,0.153,0.169,0.233,0.249c0.149,0.15,0.305,0.292,0.463,0.432
			c0.069,0.062,0.136,0.127,0.207,0.187c0.468,0.392,0.97,0.74,1.5,1.04c0.079,0.045,0.161,0.083,0.24,0.125
			c0.188,0.101,0.379,0.198,0.574,0.286c0.103,0.047,0.209,0.087,0.314,0.131c0.178,0.072,0.356,0.144,0.538,0.206
			c0.115,0.04,0.232,0.075,0.349,0.111c0.178,0.054,0.357,0.104,0.538,0.148c0.122,0.03,0.244,0.058,0.367,0.082
			c0.183,0.038,0.367,0.069,0.552,0.096c0.124,0.019,0.248,0.037,0.373,0.05c0.191,0.021,0.385,0.033,0.579,0.043
			c0.121,0.006,0.241,0.015,0.363,0.016c0.213,0.003,0.427-0.006,0.642-0.018c0.104-0.005,0.208-0.005,0.312-0.014
			c0.319-0.026,0.64-0.066,0.962-0.124c5.432-0.984,9.042-6.186,8.057-11.623c-0.059-0.322-0.134-0.637-0.222-0.946
			c-0.028-0.1-0.064-0.196-0.096-0.295c-0.065-0.206-0.132-0.411-0.21-0.61c-0.044-0.113-0.094-0.222-0.142-0.332
			c-0.077-0.179-0.156-0.356-0.243-0.529c-0.057-0.112-0.117-0.221-0.177-0.33c-0.091-0.165-0.185-0.326-0.284-0.484
			c-0.067-0.106-0.135-0.211-0.206-0.314c-0.105-0.154-0.215-0.304-0.328-0.451c-0.074-0.097-0.148-0.194-0.226-0.288
			c-0.123-0.147-0.251-0.29-0.381-0.43c-0.078-0.084-0.153-0.169-0.233-0.25c-0.149-0.149-0.306-0.291-0.464-0.432
			C21.757,71.362,21.691,71.297,21.62,71.237z"/>
	</g>
</g>
</svg>
