<?xml version="1.0" encoding="utf-8"?>
<!-- Generator: Adobe Illustrator 16.0.0, SVG Export Plug-In . SVG Version: 6.00 Build 0)  -->
<!DOCTYPE svg PUBLIC "-//W3C//DTD SVG 1.1//EN" "http://www.w3.org/Graphics/SVG/1.1/DTD/svg11.dtd">
<svg version="1.1" xmlns="http://www.w3.org/2000/svg" xmlns:xlink="http://www.w3.org/1999/xlink" x="0px" y="0px" width="100px"
	 height="100px" viewBox="0 0 100 100" enable-background="new 0 0 100 100" xml:space="preserve">
<g id="Layer_3" display="none">
</g>
<g id="Your_Icon">
</g>
<g id="Layer_4">
	<g>
		<path d="M98.038,29.461c-0.912-2.28-2.632-4.145-4.83-5.239c-1.134-0.563-28.05-13.819-52.174-13.819
			c-10.229,0-24.29,2.506-33.18,14.443C-2.27,38.44-2.784,59.781,6.279,90.089c1.03,3.444,3.83,6.07,7.332,6.879
			c0.64,0.147,4.026,0.884,7.897,0.884c9.12,0,13.366-4.118,15.322-7.573c0.457-0.807,0.827-1.637,1.11-2.492
			c3.971-0.047,12.674-0.626,16.294-7.831c5.157-0.224,13.979-1.555,16.97-9.466c0.472-1.248,0.743-2.508,0.813-3.776
			c4.18-1.414,9.044-4.181,10.782-9.832c0.066-0.218,0.133-0.456,0.195-0.714c6.398-1.269,11.088-4.064,13.995-8.358
			C99.396,44.257,101.529,38.19,98.038,29.461z M74.196,46.954c-3.536,0-6.27-0.391-6.27-0.391
			c16.859,11.9-10.909,12.396-10.909,12.396c10.537,9.298,2.286,11.041-5.385,11.041c-4.602,0-8.995-0.628-8.995-0.628
			c6.611,6.887,0.826,8.417-5.622,8.417c-5.158,0-10.742-0.979-10.742-0.979c5.578,9.298,0.116,11.041-4.765,11.041
			c-2.929,0-5.648-0.628-5.648-0.628C-0.158,33.661,18.56,20.402,41.034,20.402c22.052,0,47.719,12.772,47.719,12.772
			C93.518,45.087,81.934,46.954,74.196,46.954z"/>
	</g>
</g>
</svg>
