<?xml version="1.0" encoding="utf-8"?>
<!-- Generator: Adobe Illustrator 16.0.0, SVG Export Plug-In . SVG Version: 6.00 Build 0)  -->
<!DOCTYPE svg PUBLIC "-//W3C//DTD SVG 1.0//EN" "http://www.w3.org/TR/2001/REC-SVG-20010904/DTD/svg10.dtd">
<svg version="1.0" xmlns="http://www.w3.org/2000/svg" xmlns:xlink="http://www.w3.org/1999/xlink" x="0px" y="0px" width="100px"
	 height="100px" viewBox="0 0 100 100" enable-background="new 0 0 100 100" xml:space="preserve">
<g id="Layer_3">
</g>
<g id="Your_Icon">
</g>
<g id="Layer_4">
	<path fill="#050306" d="M91.8,10.552h-84c-4.418,0-7.8,3.599-7.8,8.168v73.251c0,2.194,0.744,4.146,2.246,5.701
		C3.746,99.221,5.68,100,7.8,100c0.003,0,0.006-0.064,0.008-0.064L91.908,100c4.414-0.004,8.092-3.553,8.092-8.121V18.72
		C100,14.149,96.218,10.552,91.8,10.552L91.8,10.552z M92,92H8V18.552h84V92z"/>
	<g>
		<path d="M67.831,52.097l-28.264-23c-1.197-0.974-2.721-1.171-4.113-0.51C34.06,29.25,33.3,30.655,33.3,32.199v46
			c0,1.544,0.76,2.949,2.154,3.612c0.547,0.26,1.068,0.388,1.652,0.388c0.902,0,1.766-0.306,2.493-0.897l28.247-23
			c0.934-0.76,1.468-1.899,1.468-3.103S68.765,52.856,67.831,52.097z M41.3,69.787V40.611l17.926,14.588L41.3,69.787z"/>
	</g>
</g>
</svg>
