<?xml version="1.0" encoding="utf-8"?>
<!-- Generator: Adobe Illustrator 16.0.0, SVG Export Plug-In . SVG Version: 6.00 Build 0)  -->
<!DOCTYPE svg PUBLIC "-//W3C//DTD SVG 1.1//EN" "http://www.w3.org/Graphics/SVG/1.1/DTD/svg11.dtd">
<svg version="1.1" xmlns="http://www.w3.org/2000/svg" xmlns:xlink="http://www.w3.org/1999/xlink" x="0px" y="0px" width="100px"
	 height="100px" viewBox="0 0 100 100" enable-background="new 0 0 100 100" xml:space="preserve">
<g id="Layer_3" display="none">
</g>
<g id="Your_Icon">
</g>
<g id="Layer_4">
	<g>
		<path d="M80,0H20c-5.522,0-10,4.478-10,10v80c0,5.522,4.478,10,10,10h60c5.522,0,10-4.478,10-10V10C90,4.478,85.522,0,80,0z
			 M80,90H20V10h60V90z"/>
		<path fill="#211915" d="M72,24c0-2.762-2.238-5-5-5H33c-2.762,0-5,2.238-5,5v52c0,2.762,2.238,5,5,5h34c2.762,0,5-2.238,5-5V24z
			 M38,29h24v42H38V29z"/>
	</g>
</g>
</svg>
