<?xml version="1.0" encoding="utf-8"?>
<!-- Generator: Adobe Illustrator 16.0.0, SVG Export Plug-In . SVG Version: 6.00 Build 0)  -->
<!DOCTYPE svg PUBLIC "-//W3C//DTD SVG 1.1//EN" "http://www.w3.org/Graphics/SVG/1.1/DTD/svg11.dtd">
<svg version="1.1" xmlns="http://www.w3.org/2000/svg" xmlns:xlink="http://www.w3.org/1999/xlink" x="0px" y="0px" width="100px"
	 height="100px" viewBox="0 0 100 100" enable-background="new 0 0 100 100" xml:space="preserve">
<g id="Layer_3" display="none">
</g>
<g id="Your_Icon">
</g>
<g id="Layer_4">
	<g>
		<polygon fill="none" points="22.068,58.869 40.399,77.023 88.527,28.93 70.496,10.898 		"/>
		<polygon fill="none" points="14.964,65.907 14.566,66.301 11.473,89.102 32.725,84.692 33.325,84.092 		"/>
		<g>
			<path d="M95.599,21.858L77.567,3.827c-1.952-1.952-4.512-2.929-7.071-2.929c-2.544,0-5.088,0.964-7.037,2.896L7.529,59.196
				c-1.566,1.551-2.576,3.576-2.872,5.76L1.563,87.757c-0.437,3.216,0.715,6.444,3.089,8.658c1.869,1.744,4.313,2.687,6.82,2.687
				c0.676,0,1.356-0.068,2.031-0.208l21.252-4.409c1.908-0.396,3.659-1.34,5.037-2.718l55.803-55.763
				c1.877-1.875,2.932-4.419,2.932-7.072C98.527,26.279,97.475,23.734,95.599,21.858z M32.725,84.692l-21.252,4.409l3.094-22.801
				l0.397-0.394l18.361,18.185L32.725,84.692z M40.399,77.023L22.068,58.869l48.428-47.971L88.527,28.93L40.399,77.023z"/>
		</g>
	</g>
</g>
</svg>
