<?xml version="1.0" encoding="utf-8"?>
<!-- Generator: Adobe Illustrator 16.0.0, SVG Export Plug-In . SVG Version: 6.00 Build 0)  -->
<!DOCTYPE svg PUBLIC "-//W3C//DTD SVG 1.1//EN" "http://www.w3.org/Graphics/SVG/1.1/DTD/svg11.dtd">
<svg version="1.1" xmlns="http://www.w3.org/2000/svg" xmlns:xlink="http://www.w3.org/1999/xlink" x="0px" y="0px" width="100px"
	 height="100px" viewBox="0 0 100 100" enable-background="new 0 0 100 100" xml:space="preserve">
<g id="Layer_3" display="none">
</g>
<g id="Your_Icon">
</g>
<g id="Layer_4">
	<path fill="#211915" d="M50,99c-0.002,0-0.005,0-0.007,0c-1.405-0.002-2.745-0.595-3.691-1.635
		c-1.43-1.572-35.118-38.74-42.943-60.397C0.068,27.862,1.031,18.58,6,11.502C10.686,4.828,18.48,1,27.386,1
		c9.14,0,16.863,3.455,22.419,9.886C53.479,5.947,59.671,1,70.865,1c9.512,0,17.904,4.184,23.025,11.48
		c4.942,7.041,6.012,15.966,2.933,24.488c-7.825,21.664-41.696,58.835-43.134,60.407C52.742,98.411,51.403,99,50,99z M27.386,11
		c-5.685,0-10.372,2.219-13.201,6.248c-3.07,4.374-3.589,10.323-1.422,16.322c5.729,15.856,28.293,42.647,37.247,52.902
		c8.995-10.25,31.686-37.058,37.409-52.902c1.984-5.494,1.376-10.943-1.713-15.344C82.482,13.634,77.073,11,70.865,11
		c-10.693,0-13.673,6.202-16.067,11.185l-0.203,0.421c-0.834,1.729-2.584,2.827-4.503,2.827s-3.669-1.099-4.503-2.827
		C41.872,14.905,35.748,11,27.386,11z"/>
</g>
</svg>
