<?xml version="1.0" encoding="utf-8"?>
<!-- Generator: Adobe Illustrator 16.0.0, SVG Export Plug-In . SVG Version: 6.00 Build 0)  -->
<!DOCTYPE svg PUBLIC "-//W3C//DTD SVG 1.0//EN" "http://www.w3.org/TR/2001/REC-SVG-20010904/DTD/svg10.dtd">
<svg version="1.0" xmlns="http://www.w3.org/2000/svg" xmlns:xlink="http://www.w3.org/1999/xlink" x="0px" y="0px" width="100px"
	 height="100px" viewBox="0 0 100 100" enable-background="new 0 0 100 100" xml:space="preserve">
<g id="Layer_3">
</g>
<g id="Your_Icon">
</g>
<g id="Layer_4">
	<path d="M64,99.9h-8V59c0-3.309-2.691-6.001-6-6.001S44,55.69,44,59v40.9h-8V59c0-7.72,6.28-14.001,14-14.001S64,51.279,64,59V99.9
		z"/>
	<g>
		<path d="M49,5.5c5.24,0,9.5,4.259,9.5,9.504c0,5.237-4.26,9.496-9.5,9.496s-9.5-4.259-9.5-9.496C39.5,9.759,43.76,5.5,49,5.5z"/>
	</g>
	<path d="M48.7,41.445c-17.645,0-32-15.317-32-34.146h8c0,14.417,10.767,26.146,24,26.146s24-11.729,24-26.146h8
		C80.7,26.128,66.345,41.445,48.7,41.445z"/>
</g>
</svg>
