<?xml version="1.0" encoding="utf-8"?>
<!-- Generator: Adobe Illustrator 16.0.0, SVG Export Plug-In . SVG Version: 6.00 Build 0)  -->
<!DOCTYPE svg PUBLIC "-//W3C//DTD SVG 1.0//EN" "http://www.w3.org/TR/2001/REC-SVG-20010904/DTD/svg10.dtd">
<svg version="1.0" xmlns="http://www.w3.org/2000/svg" xmlns:xlink="http://www.w3.org/1999/xlink" x="0px" y="0px" width="100px"
	 height="100px" viewBox="0 0 100 100" enable-background="new 0 0 100 100" xml:space="preserve">
<g id="Layer_3">
</g>
<g id="Your_Icon">
</g>
<g id="Layer_4">
	<g>
		<path fill="none" d="M51.5,37.5c-5.249,0-9.5,4.253-9.5,9.501c0,5.245,4.251,9.499,9.5,9.499c5.24,0,9.5-4.254,9.5-9.499
			C61,41.753,56.74,37.5,51.5,37.5z"/>
		<path d="M51.5,29.5c-9.649,0-17.5,7.851-17.5,17.501C34,56.65,41.851,64.5,51.5,64.5S69,56.65,69,47.001
			C69,37.351,61.149,29.5,51.5,29.5z M51.5,56.5c-5.249,0-9.5-4.254-9.5-9.499c0-5.248,4.251-9.501,9.5-9.501
			c5.24,0,9.5,4.253,9.5,9.501C61,52.246,56.74,56.5,51.5,56.5z"/>
	</g>
	<g>
		<path fill="none" d="M51,22c-16.569,0-40,28-40,28s23.431,28,40,28c16.568,0,38-28,38-28S67.568,22,51,22z"/>
		<path d="M95.353,45.138c-0.235-0.307-5.842-7.6-13.653-14.96C70.307,19.443,59.978,14,51,14c-9.005,0-19.311,5.234-31.508,16.003
			C11.206,37.318,5.12,44.561,4.865,44.866c-2.486,2.971-2.486,7.297,0,10.269c0.255,0.305,6.341,7.547,14.627,14.863
			C31.689,80.766,41.995,86,51,86c8.978,0,19.307-5.443,30.699-16.178c7.812-7.36,13.418-14.653,13.653-14.96
			C97.549,51.993,97.549,48.007,95.353,45.138z M51,78c-16.569,0-40-28-40-28s23.431-28,40-28c16.568,0,38,28,38,28S67.568,78,51,78
			z"/>
	</g>
</g>
</svg>
