<?xml version="1.0" encoding="utf-8"?>
<!-- Generator: Adobe Illustrator 16.0.0, SVG Export Plug-In . SVG Version: 6.00 Build 0)  -->
<!DOCTYPE svg PUBLIC "-//W3C//DTD SVG 1.1//EN" "http://www.w3.org/Graphics/SVG/1.1/DTD/svg11.dtd">
<svg version="1.1" xmlns="http://www.w3.org/2000/svg" xmlns:xlink="http://www.w3.org/1999/xlink" x="0px" y="0px" width="100px"
	 height="100px" viewBox="0 0 100 100" enable-background="new 0 0 100 100" xml:space="preserve">
<g id="Layer_3" display="none">
</g>
<g id="Your_Icon">
</g>
<g id="Layer_4">
	<path fill="#211915" d="M50.125,0.5C30.757,0.5,15,16.183,15,35.459c0,9.111,2.887,17.175,8.417,23.318
		C25.26,60.826,29,67.395,32,71.783v14.499c0,6.117,5.636,13.136,13.95,13.461c0.043,0.002,7.044-0.003,7.082-0.005
		C60.23,99.461,66,93.283,66,86.277V71.958c3-3.83,7.783-11.044,9.708-13.183c5.936-6.596,9.249-14.877,9.249-23.316
		C84.957,16.183,69.355,0.5,50.125,0.5z M53.1,89.5c-0.477,0.004-7.6,0-7.6,0c-2.128-0.117-3.5-1.954-3.5-3.218V82h14v4.277
		C56,87.901,54.933,89.395,53.1,89.5z M68.362,52.086c-3.006,3.34-10.565,14.271-11.407,15.507C56.389,68.423,56,69.404,56,70.409
		V72H42v-1.591c0-0.894-0.204-1.771-0.658-2.54c-0.722-1.224-7.131-12.065-10.475-15.781c-3.85-4.277-5.876-10.027-5.876-16.629
		c0-13.762,11.275-24.959,25.129-24.959c13.716,0,24.877,11.197,24.877,24.959C74.998,41.424,72.643,47.329,68.362,52.086z"/>
</g>
</svg>
