<?xml version="1.0" encoding="utf-8"?>
<!-- Generator: Adobe Illustrator 16.0.0, SVG Export Plug-In . SVG Version: 6.00 Build 0)  -->
<!DOCTYPE svg PUBLIC "-//W3C//DTD SVG 1.1//EN" "http://www.w3.org/Graphics/SVG/1.1/DTD/svg11.dtd">
<svg version="1.1" xmlns="http://www.w3.org/2000/svg" xmlns:xlink="http://www.w3.org/1999/xlink" x="0px" y="0px" width="100px"
	 height="100px" viewBox="0 0 100 100" enable-background="new 0 0 100 100" xml:space="preserve">
<g id="Layer_3" display="none">
</g>
<g id="Your_Icon">
</g>
<g id="Layer_4">
	<g>
		<path fill="none" d="M13.453,32.614c0.183,0.027,0.365,0.058,0.545,0.095C13.818,32.672,13.636,32.641,13.453,32.614z"/>
		<path fill="none" d="M3.072,46.992c-0.086-0.171-0.164-0.347-0.24-0.524C2.908,46.646,2.986,46.821,3.072,46.992z"/>
		<path fill="none" d="M2.384,45.226c-0.087-0.309-0.162-0.624-0.221-0.946C2.222,44.603,2.297,44.917,2.384,45.226z"/>
		<path fill="none" d="M12.505,32.522c0.19,0.01,0.38,0.021,0.567,0.042C12.885,32.543,12.695,32.531,12.505,32.522z"/>
		<path fill="none" d="M3.532,47.806c-0.099-0.156-0.19-0.316-0.28-0.479C3.342,47.49,3.434,47.65,3.532,47.806z"/>
		<path fill="none" d="M12.009,32.5c-0.169,0-0.34,0.014-0.51,0.022c0.211-0.01,0.422-0.02,0.631-0.017
			C12.089,32.505,12.05,32.5,12.009,32.5z"/>
		<path fill="none" d="M10.217,32.661c0.321-0.058,0.643-0.098,0.962-0.124C10.859,32.563,10.538,32.603,10.217,32.661z"/>
		<path fill="none" d="M2.688,46.131c-0.077-0.198-0.144-0.402-0.208-0.606C2.545,45.729,2.611,45.934,2.688,46.131z"/>
		<path fill="none" d="M7.076,51.2c-0.529-0.3-1.03-0.647-1.497-1.038C6.046,50.553,6.547,50.9,7.076,51.2z"/>
		<path fill="none" d="M7.89,51.611c-0.19-0.086-0.375-0.182-0.56-0.279C7.515,51.43,7.699,51.525,7.89,51.611z"/>
		<path fill="none" d="M8.741,51.948c-0.179-0.062-0.354-0.131-0.528-0.203C8.387,51.817,8.562,51.887,8.741,51.948z"/>
		<path fill="none" d="M4.671,49.29c-0.129-0.139-0.256-0.279-0.377-0.425C4.415,49.011,4.542,49.151,4.671,49.29z"/>
		<path fill="none" d="M4.064,48.572c-0.111-0.146-0.22-0.294-0.324-0.447C3.845,48.278,3.953,48.426,4.064,48.572z"/>
		<path fill="none" d="M5.365,49.969c-0.155-0.138-0.31-0.277-0.456-0.425C5.056,49.691,5.209,49.831,5.365,49.969z"/>
		<path fill="none" d="M9.627,52.208c-0.178-0.044-0.354-0.093-0.529-0.146C9.273,52.115,9.449,52.164,9.627,52.208z"/>
		<path fill="none" d="M21.311,38.866c0.078,0.199,0.145,0.404,0.21,0.61C21.455,39.27,21.389,39.065,21.311,38.866z"/>
		<path fill="none" d="M20.926,38.005c0.087,0.172,0.166,0.35,0.243,0.528C21.092,38.354,21.013,38.177,20.926,38.005z"/>
		<path fill="none" d="M21.811,40.598c-0.055-0.281-0.118-0.557-0.194-0.827C21.692,40.041,21.756,40.317,21.811,40.598
			L21.811,40.598z"/>
		<path fill="none" d="M20.466,37.191c0.099,0.157,0.192,0.318,0.282,0.482C20.657,37.509,20.564,37.348,20.466,37.191z"/>
		<path fill="none" d="M39.83,82.021c0.114,0.148,0.225,0.3,0.331,0.456C40.055,82.321,39.944,82.17,39.83,82.021z"/>
		<path fill="none" d="M39.219,81.299c0.133,0.144,0.264,0.289,0.389,0.439C39.482,81.587,39.352,81.442,39.219,81.299z"/>
		<path fill="none" d="M19.324,35.707c0.13,0.14,0.259,0.282,0.381,0.43C19.582,35.988,19.454,35.847,19.324,35.707z"/>
		<path fill="none" d="M16.107,33.388c0.192,0.087,0.38,0.184,0.566,0.283C16.487,33.572,16.3,33.476,16.107,33.388z"/>
		<path fill="none" d="M15.255,33.051c0.181,0.062,0.359,0.133,0.536,0.206C15.614,33.185,15.437,33.114,15.255,33.051z"/>
		<path fill="none" d="M19.933,36.426c0.112,0.146,0.222,0.296,0.326,0.449C20.154,36.722,20.045,36.572,19.933,36.426z"/>
		<path fill="none" d="M16.921,33.8c0.53,0.3,1.031,0.648,1.499,1.039C17.952,34.448,17.451,34.1,16.921,33.8z"/>
		<path fill="none" d="M18.628,35.027c0.158,0.139,0.313,0.281,0.463,0.43C18.941,35.308,18.786,35.167,18.628,35.027z"/>
		<path fill="none" d="M14.369,32.792c0.181,0.044,0.358,0.094,0.535,0.148C14.728,32.886,14.55,32.836,14.369,32.792z"/>
		<path fill="none" d="M48.655,3.551c0.181,0.062,0.359,0.133,0.536,0.206C49.015,3.685,48.837,3.614,48.655,3.551z"/>
		<path fill="none" d="M35.784,15.726c-0.087-0.309-0.162-0.624-0.221-0.946C35.622,15.103,35.697,15.417,35.784,15.726z"/>
		<path fill="none" d="M45.409,3c-0.169,0-0.34,0.014-0.51,0.022c0.211-0.01,0.422-0.02,0.631-0.017C45.489,3.005,45.45,3,45.409,3z
			"/>
		<path fill="none" d="M43.617,3.161c0.321-0.058,0.643-0.098,0.962-0.124C44.26,3.063,43.938,3.103,43.617,3.161z"/>
		<path fill="none" d="M45.905,3.022c0.19,0.01,0.38,0.021,0.567,0.042C46.285,3.043,46.096,3.031,45.905,3.022z"/>
		<path fill="none" d="M47.77,3.292c0.181,0.044,0.358,0.094,0.535,0.148C48.128,3.386,47.95,3.336,47.77,3.292z"/>
		<path fill="none" d="M46.854,3.114c0.183,0.027,0.365,0.058,0.545,0.095C47.219,3.172,47.036,3.141,46.854,3.114z"/>
		<path fill="none" d="M37.465,19.071c-0.111-0.146-0.22-0.294-0.323-0.446C37.245,18.778,37.354,18.926,37.465,19.071z"/>
		<path fill="none" d="M38.07,19.788c-0.128-0.138-0.255-0.278-0.375-0.423C37.815,19.51,37.942,19.65,38.07,19.788z"/>
		<path fill="none" d="M36.089,16.631c-0.077-0.198-0.144-0.402-0.208-0.606C35.945,16.229,36.012,16.433,36.089,16.631z"/>
		<path fill="none" d="M40.364,82.787c0.1,0.159,0.194,0.322,0.286,0.488C40.559,83.109,40.464,82.947,40.364,82.787z"/>
		<path fill="none" d="M36.473,17.492c-0.086-0.17-0.164-0.346-0.24-0.523C36.309,17.146,36.387,17.321,36.473,17.492z"/>
		<path fill="none" d="M36.933,18.306c-0.099-0.156-0.19-0.316-0.28-0.478C36.742,17.99,36.834,18.15,36.933,18.306z"/>
		<path fill="none" d="M55.017,10.271c0.088,0.309,0.163,0.624,0.222,0.946C55.18,10.895,55.104,10.58,55.017,10.271z"/>
		<path fill="none" d="M54.711,9.366c0.078,0.199,0.145,0.404,0.21,0.61C54.855,9.77,54.789,9.565,54.711,9.366z"/>
		<path fill="none" d="M10.544,52.387c-0.182-0.027-0.362-0.058-0.541-0.095C10.182,52.329,10.362,52.359,10.544,52.387z"/>
		<path fill="none" d="M13.781,52.34c-0.321,0.058-0.641,0.098-0.96,0.124C13.141,52.438,13.46,52.397,13.781,52.34z"/>
		<path fill="none" d="M38.31,20.044c0.142,0.143,0.29,0.277,0.44,0.41v0C38.6,20.32,38.451,20.187,38.31,20.044z"/>
		<path fill="none" d="M11.493,52.479c-0.189-0.009-0.379-0.021-0.565-0.041C11.114,52.458,11.304,52.47,11.493,52.479z"/>
		<path fill="none" d="M11.99,52.501c0.167,0,0.336-0.014,0.505-0.022c-0.21,0.011-0.419,0.02-0.627,0.017
			C11.909,52.496,11.949,52.501,11.99,52.501z"/>
		<path fill="none" d="M50.321,4.3c0.53,0.3,1.031,0.648,1.499,1.039C51.353,4.948,50.852,4.6,50.321,4.3z"/>
		<path fill="none" d="M52.028,5.527c0.158,0.139,0.313,0.281,0.463,0.43C52.342,5.808,52.187,5.667,52.028,5.527z"/>
		<path fill="none" d="M49.508,3.888c0.192,0.087,0.38,0.184,0.566,0.283C49.888,4.072,49.7,3.976,49.508,3.888z"/>
		<path fill="none" d="M52.725,6.207c0.13,0.14,0.259,0.282,0.381,0.43C52.982,6.488,52.854,6.347,52.725,6.207z"/>
		<path fill="none" d="M53.866,7.691c0.099,0.157,0.192,0.318,0.282,0.482C54.058,8.009,53.965,7.848,53.866,7.691z"/>
		<path fill="none" d="M53.333,6.926c0.112,0.146,0.222,0.296,0.326,0.449C53.555,7.222,53.445,7.072,53.333,6.926z"/>
		<path fill="none" d="M54.326,8.505c0.087,0.172,0.166,0.35,0.243,0.528C54.492,8.854,54.413,8.677,54.326,8.505z"/>
		<path fill="none" d="M23.963,94.168c-0.11-0.144-0.218-0.29-0.32-0.44C23.745,93.878,23.853,94.024,23.963,94.168z"/>
		<path fill="none" d="M89.504,59.321c0.19,0.01,0.382,0.021,0.57,0.042C89.885,59.343,89.695,59.331,89.504,59.321z"/>
		<path fill="none" d="M81.666,76.084c-0.126-0.137-0.251-0.274-0.37-0.418C81.415,75.81,81.54,75.947,81.666,76.084z"/>
		<path fill="none" d="M80.071,73.79c-0.085-0.169-0.163-0.344-0.238-0.52C79.908,73.446,79.986,73.62,80.071,73.79z"/>
		<path fill="none" d="M81.062,75.368c-0.11-0.144-0.218-0.29-0.32-0.44C80.845,75.078,80.952,75.225,81.062,75.368z"/>
		<path fill="none" d="M87.217,59.461c0.321-0.058,0.641-0.098,0.96-0.124C87.857,59.363,87.538,59.403,87.217,59.461z"/>
		<path fill="none" d="M89.009,59.3c-0.167,0-0.335,0.014-0.503,0.022c0.208-0.011,0.417-0.02,0.624-0.018
			C89.09,59.305,89.05,59.3,89.009,59.3z"/>
		<path fill="none" d="M80.53,74.604c-0.097-0.154-0.188-0.312-0.276-0.474C80.342,74.291,80.434,74.449,80.53,74.604z"/>
		<path fill="none" d="M85.738,78.746c-0.176-0.061-0.348-0.129-0.52-0.199C85.391,78.617,85.562,78.686,85.738,78.746z"/>
		<path fill="none" d="M86.625,79.007c-0.176-0.044-0.351-0.093-0.523-0.145C86.274,78.914,86.449,78.963,86.625,79.007z"/>
		<path fill="none" d="M87.542,79.185c-0.181-0.026-0.36-0.057-0.537-0.093C87.183,79.128,87.361,79.158,87.542,79.185z"/>
		<path fill="none" d="M84.073,77.998c-0.264-0.149-0.521-0.31-0.77-0.481C83.553,77.688,83.81,77.849,84.073,77.998z"/>
		<path fill="none" d="M82.354,76.759c-0.15-0.134-0.301-0.27-0.443-0.413C82.054,76.489,82.204,76.625,82.354,76.759z"/>
		<path fill="none" d="M83.275,77.495c-0.239-0.167-0.47-0.345-0.693-0.532C82.806,77.15,83.036,77.328,83.275,77.495z"/>
		<path fill="none" d="M84.888,78.409c-0.186-0.084-0.365-0.177-0.545-0.271C84.522,78.232,84.702,78.325,84.888,78.409z"/>
		<path fill="none" d="M97.926,64.804c0.087,0.173,0.166,0.352,0.244,0.531C98.092,65.155,98.013,64.977,97.926,64.804z"/>
		<path fill="none" d="M97.464,63.987c0.1,0.159,0.194,0.322,0.286,0.488C97.658,64.31,97.563,64.146,97.464,63.987z"/>
		<path fill="none" d="M96.93,63.221c0.114,0.149,0.225,0.301,0.331,0.457C97.154,63.521,97.044,63.37,96.93,63.221z"/>
		<path fill="none" d="M98.311,65.665c0.078,0.2,0.146,0.406,0.211,0.612C98.456,66.07,98.389,65.865,98.311,65.665z"/>
		<path fill="none" d="M90.449,59.413c0.186,0.027,0.37,0.059,0.553,0.097C90.819,59.472,90.635,59.44,90.449,59.413z"/>
		<path fill="none" d="M98.616,66.57c0.088,0.309,0.163,0.624,0.222,0.946C98.779,67.194,98.704,66.879,98.616,66.57z"/>
		<path fill="none" d="M79.553,72.547c0.044,0.129,0.086,0.258,0.135,0.384c-0.048-0.125-0.087-0.255-0.13-0.382L79.553,72.547z"/>
		<path fill="none" d="M92.251,59.85c0.186,0.064,0.368,0.137,0.55,0.211C92.619,59.986,92.438,59.914,92.251,59.85z"/>
		<path fill="none" d="M91.365,59.591c0.184,0.045,0.365,0.096,0.545,0.15C91.73,59.687,91.549,59.636,91.365,59.591z"/>
		<path fill="none" d="M96.318,62.5c0.133,0.143,0.264,0.287,0.389,0.438C96.582,62.787,96.451,62.643,96.318,62.5z"/>
		<path fill="none" d="M93.103,60.187c0.201,0.09,0.396,0.19,0.59,0.294C93.498,60.377,93.304,60.276,93.103,60.187z"/>
		<path fill="none" d="M93.918,60.598c0.532,0.301,1.035,0.65,1.504,1.043C94.953,61.248,94.45,60.898,93.918,60.598z"/>
		<path fill="none" d="M95.616,61.815c0.163,0.144,0.323,0.289,0.477,0.443C95.939,62.104,95.779,61.959,95.616,61.815z"/>
		<path fill="none" d="M22.588,91.73c-0.076-0.197-0.143-0.4-0.207-0.604C22.445,91.33,22.512,91.533,22.588,91.73z"/>
		<path fill="none" d="M27.788,97.209c-0.186-0.084-0.365-0.177-0.545-0.271C27.423,97.032,27.603,97.125,27.788,97.209z"/>
		<path fill="none" d="M28.639,97.546c-0.176-0.061-0.348-0.129-0.52-0.199C28.291,97.417,28.463,97.485,28.639,97.546z"/>
		<path fill="none" d="M29.525,97.807c-0.176-0.043-0.351-0.093-0.523-0.145C29.175,97.714,29.35,97.764,29.525,97.807z"/>
		<path fill="none" d="M26.176,96.295c-0.239-0.167-0.47-0.345-0.693-0.532C25.706,95.95,25.937,96.128,26.176,96.295z"/>
		<path fill="none" d="M25.255,95.559c-0.15-0.135-0.301-0.27-0.443-0.413C24.954,95.289,25.104,95.424,25.255,95.559z"/>
		<path fill="none" d="M30.442,97.984c-0.181-0.026-0.36-0.057-0.537-0.093C30.083,97.928,30.262,97.958,30.442,97.984z"/>
		<path fill="none" d="M26.974,96.798c-0.264-0.149-0.521-0.31-0.77-0.481C26.453,96.488,26.71,96.648,26.974,96.798z"/>
		<path fill="none" d="M88.492,79.277c-0.188-0.009-0.377-0.021-0.564-0.041C88.115,79.257,88.304,79.269,88.492,79.277z"/>
		<path fill="none" d="M41.517,85.37c0.088,0.309,0.163,0.624,0.222,0.946C41.68,85.994,41.604,85.679,41.517,85.37z"/>
		<path fill="none" d="M24.566,94.884c-0.126-0.137-0.251-0.274-0.37-0.418C24.315,94.609,24.44,94.747,24.566,94.884z"/>
		<path fill="none" d="M41.211,84.465c0.078,0.2,0.146,0.406,0.211,0.612C41.356,84.871,41.289,84.665,41.211,84.465z"/>
		<path fill="none" d="M33.682,97.938c-0.321,0.058-0.641,0.098-0.959,0.124C33.041,98.036,33.36,97.996,33.682,97.938z"/>
		<path fill="none" d="M31.891,98.1c0.167,0,0.336-0.014,0.504-0.022c-0.209,0.011-0.418,0.02-0.626,0.017
			C31.81,98.095,31.85,98.1,31.891,98.1z"/>
		<path fill="none" d="M31.393,98.077c-0.188-0.009-0.377-0.021-0.564-0.041C31.016,98.057,31.204,98.068,31.393,98.077z"/>
		<path fill="none" d="M22.284,90.825c-0.087-0.309-0.162-0.623-0.221-0.945C22.122,90.202,22.197,90.517,22.284,90.825z"/>
		<path fill="none" d="M38.993,81.059c-0.153-0.154-0.313-0.3-0.477-0.443C38.68,80.759,38.84,80.904,38.993,81.059z"/>
		<path fill="none" d="M90.781,79.139c-0.321,0.058-0.641,0.098-0.959,0.124C90.141,79.236,90.46,79.196,90.781,79.139z"/>
		<path fill="none" d="M88.99,79.3c0.167,0,0.336-0.014,0.504-0.022c-0.209,0.011-0.418,0.02-0.626,0.017
			C88.909,79.295,88.949,79.3,88.99,79.3z"/>
		<path fill="none" d="M22.972,92.59c-0.085-0.17-0.163-0.344-0.238-0.52C22.809,92.246,22.887,92.42,22.972,92.59z"/>
		<path fill="none" d="M23.431,93.403c-0.097-0.154-0.188-0.312-0.276-0.474C23.242,93.091,23.334,93.249,23.431,93.403z"/>
		<path fill="none" d="M40.826,83.604c0.087,0.173,0.166,0.352,0.244,0.531C40.992,83.955,40.913,83.776,40.826,83.604z"/>
		<path d="M78.315,61.893c0.087-0.125,0.185-0.237,0.275-0.358L43.915,48.748l4.058-23.018c-0.087,0.018-0.17,0.044-0.258,0.061
			C46.947,25.93,46.166,26,45.391,26c-2.659,0-5.15-0.811-7.229-2.207l-3.78,21.439l-9.413-3.471
			c0.203,3.546-1.063,6.913-3.329,9.431l10.978,4.048l-3.56,20.19c0.176-0.039,0.349-0.09,0.527-0.122
			c0.768-0.139,1.55-0.209,2.325-0.209h0.001c2.56,0,4.963,0.756,6.995,2.06l3.245-18.403L76.17,71.3
			C75.649,67.987,76.398,64.659,78.315,61.893z"/>
		<path d="M45.391,23c0.59,0,1.189-0.052,1.791-0.161c5.432-0.984,9.041-6.186,8.057-11.622c-0.059-0.322-0.134-0.637-0.222-0.946
			c-0.028-0.1-0.064-0.196-0.096-0.294c-0.065-0.206-0.132-0.411-0.21-0.61c-0.044-0.113-0.094-0.222-0.142-0.333
			c-0.077-0.178-0.156-0.355-0.243-0.528c-0.057-0.112-0.117-0.222-0.178-0.332c-0.09-0.164-0.184-0.325-0.282-0.482
			c-0.067-0.107-0.137-0.212-0.207-0.316c-0.104-0.153-0.214-0.302-0.326-0.449c-0.075-0.098-0.149-0.195-0.228-0.29
			c-0.122-0.148-0.251-0.29-0.381-0.43c-0.078-0.083-0.153-0.169-0.233-0.25c-0.149-0.149-0.305-0.291-0.463-0.43
			c-0.069-0.062-0.137-0.128-0.208-0.188C51.353,4.948,50.852,4.6,50.321,4.3c-0.08-0.046-0.165-0.085-0.247-0.128
			c-0.187-0.099-0.374-0.196-0.566-0.283c-0.104-0.047-0.211-0.087-0.316-0.131c-0.177-0.073-0.355-0.144-0.536-0.206
			c-0.116-0.04-0.233-0.076-0.351-0.111c-0.177-0.054-0.354-0.104-0.535-0.148c-0.123-0.03-0.246-0.058-0.371-0.083
			c-0.18-0.037-0.362-0.068-0.545-0.095c-0.127-0.019-0.253-0.037-0.381-0.051c-0.188-0.021-0.377-0.032-0.567-0.042
			c-0.125-0.006-0.249-0.015-0.375-0.017c-0.209-0.002-0.42,0.007-0.631,0.017c-0.106,0.006-0.213,0.006-0.32,0.015
			c-0.319,0.026-0.641,0.066-0.962,0.124c-5.436,0.984-9.043,6.186-8.054,11.619c0.059,0.322,0.134,0.637,0.221,0.946
			c0.028,0.102,0.065,0.199,0.097,0.299c0.064,0.205,0.131,0.409,0.208,0.606c0.044,0.114,0.095,0.225,0.144,0.337
			c0.076,0.177,0.154,0.353,0.24,0.523c0.057,0.114,0.118,0.225,0.18,0.336c0.09,0.162,0.182,0.322,0.28,0.478
			c0.067,0.108,0.137,0.214,0.209,0.319c0.104,0.152,0.212,0.3,0.323,0.446c0.075,0.099,0.151,0.198,0.23,0.293
			c0.12,0.146,0.247,0.285,0.375,0.423c0.079,0.086,0.157,0.173,0.239,0.256c0.142,0.143,0.29,0.276,0.44,0.41v0
			C40.543,22.052,42.89,23,45.391,23z"/>
		<path d="M31.909,78.1c-0.591,0-1.19,0.053-1.792,0.161c-5.436,0.984-9.043,6.186-8.054,11.619
			c0.059,0.322,0.134,0.637,0.221,0.945c0.028,0.103,0.065,0.2,0.097,0.301c0.064,0.204,0.131,0.407,0.207,0.604
			c0.045,0.115,0.097,0.227,0.146,0.34c0.075,0.176,0.153,0.35,0.238,0.52c0.058,0.115,0.12,0.228,0.183,0.34
			c0.088,0.161,0.18,0.319,0.276,0.474c0.069,0.109,0.14,0.218,0.212,0.324c0.103,0.15,0.21,0.297,0.32,0.44
			c0.076,0.101,0.153,0.201,0.233,0.298c0.119,0.144,0.244,0.281,0.37,0.418c0.082,0.088,0.161,0.177,0.245,0.262
			c0.143,0.144,0.293,0.278,0.443,0.413c0.076,0.067,0.149,0.139,0.228,0.204c0.224,0.188,0.454,0.365,0.693,0.532
			c0.01,0.007,0.019,0.015,0.028,0.021c0.249,0.172,0.506,0.332,0.77,0.481c0.088,0.05,0.18,0.092,0.27,0.14
			c0.18,0.095,0.359,0.188,0.545,0.271c0.108,0.05,0.221,0.093,0.331,0.138c0.172,0.07,0.344,0.139,0.52,0.199
			c0.12,0.042,0.242,0.079,0.363,0.116c0.173,0.052,0.348,0.102,0.523,0.145c0.126,0.03,0.252,0.059,0.38,0.085
			c0.177,0.036,0.356,0.066,0.537,0.093c0.128,0.02,0.257,0.038,0.386,0.052c0.188,0.021,0.376,0.032,0.564,0.041
			c0.125,0.007,0.25,0.016,0.376,0.017c0.208,0.003,0.417-0.006,0.626-0.017c0.109-0.006,0.218-0.006,0.328-0.015
			c0.318-0.026,0.638-0.066,0.959-0.124c5.432-0.984,9.041-6.186,8.057-11.622c-0.059-0.322-0.134-0.638-0.222-0.946
			c-0.028-0.1-0.064-0.194-0.095-0.293c-0.065-0.206-0.133-0.412-0.211-0.612c-0.044-0.112-0.094-0.221-0.141-0.33
			c-0.078-0.18-0.157-0.358-0.244-0.531c-0.057-0.111-0.116-0.22-0.176-0.328c-0.092-0.166-0.187-0.329-0.286-0.488
			c-0.066-0.104-0.134-0.208-0.203-0.31c-0.106-0.156-0.217-0.308-0.331-0.456c-0.073-0.096-0.146-0.19-0.223-0.283
			c-0.125-0.15-0.256-0.296-0.389-0.439c-0.075-0.08-0.147-0.162-0.226-0.24c-0.153-0.154-0.313-0.3-0.477-0.443
			C36.728,79.035,34.395,78.1,31.909,78.1z"/>
		<path d="M21.838,40.717c-0.008-0.041-0.02-0.079-0.027-0.119l-0.001,0c-0.054-0.28-0.117-0.557-0.193-0.827
			c-0.028-0.1-0.064-0.196-0.096-0.294c-0.065-0.206-0.132-0.411-0.21-0.61c-0.044-0.113-0.094-0.222-0.142-0.333
			c-0.077-0.178-0.156-0.355-0.243-0.528c-0.057-0.112-0.117-0.222-0.178-0.332c-0.09-0.164-0.184-0.325-0.282-0.482
			c-0.067-0.107-0.137-0.212-0.207-0.316c-0.104-0.153-0.214-0.302-0.326-0.449c-0.075-0.098-0.149-0.195-0.228-0.29
			c-0.122-0.148-0.251-0.29-0.381-0.43c-0.078-0.083-0.153-0.169-0.233-0.25c-0.149-0.149-0.305-0.291-0.463-0.43
			c-0.069-0.062-0.137-0.128-0.208-0.188c-0.468-0.391-0.969-0.739-1.499-1.039c-0.08-0.046-0.165-0.085-0.247-0.128
			c-0.187-0.099-0.374-0.196-0.566-0.283c-0.104-0.047-0.211-0.087-0.316-0.131c-0.177-0.073-0.355-0.144-0.536-0.206
			c-0.116-0.04-0.233-0.076-0.351-0.111c-0.177-0.054-0.354-0.104-0.535-0.148c-0.123-0.03-0.246-0.058-0.371-0.083
			c-0.18-0.037-0.362-0.068-0.545-0.095c-0.127-0.019-0.253-0.037-0.381-0.051c-0.188-0.021-0.377-0.032-0.567-0.042
			c-0.125-0.006-0.249-0.015-0.375-0.017c-0.209-0.002-0.42,0.007-0.631,0.017c-0.106,0.006-0.213,0.006-0.32,0.015
			c-0.319,0.026-0.641,0.066-0.962,0.124c-5.436,0.984-9.043,6.186-8.054,11.619c0.059,0.322,0.134,0.637,0.221,0.946
			c0.028,0.102,0.065,0.199,0.097,0.299c0.064,0.205,0.131,0.409,0.208,0.606c0.044,0.114,0.095,0.225,0.144,0.337
			c0.076,0.177,0.154,0.353,0.24,0.524c0.058,0.114,0.118,0.225,0.18,0.335c0.09,0.163,0.182,0.322,0.28,0.479
			c0.067,0.108,0.137,0.214,0.208,0.319c0.104,0.152,0.213,0.301,0.324,0.447c0.076,0.099,0.151,0.197,0.229,0.292
			c0.121,0.146,0.248,0.287,0.377,0.425c0.079,0.085,0.156,0.172,0.238,0.254c0.146,0.147,0.301,0.287,0.456,0.425
			c0.071,0.064,0.141,0.131,0.214,0.193C6.046,50.553,6.547,50.9,7.076,51.2c0.083,0.047,0.17,0.087,0.254,0.132
			c0.185,0.098,0.369,0.193,0.56,0.279c0.106,0.048,0.215,0.09,0.323,0.134c0.174,0.072,0.35,0.142,0.528,0.203
			c0.118,0.041,0.237,0.077,0.356,0.113c0.175,0.054,0.352,0.103,0.529,0.146c0.125,0.03,0.25,0.059,0.376,0.084
			c0.179,0.037,0.359,0.067,0.541,0.095c0.127,0.019,0.255,0.037,0.384,0.051c0.187,0.021,0.376,0.032,0.565,0.041
			c0.125,0.007,0.249,0.016,0.375,0.017c0.208,0.003,0.417-0.006,0.627-0.017c0.108-0.006,0.217-0.006,0.326-0.015
			c0.319-0.026,0.639-0.066,0.96-0.124C19.213,51.355,22.822,46.153,21.838,40.717z"/>
		<path d="M98.616,66.57c-0.028-0.1-0.064-0.194-0.095-0.293c-0.065-0.206-0.133-0.412-0.211-0.612
			c-0.044-0.112-0.094-0.221-0.141-0.33c-0.078-0.18-0.157-0.358-0.244-0.531c-0.057-0.111-0.116-0.22-0.176-0.328
			c-0.092-0.166-0.187-0.329-0.286-0.488c-0.066-0.104-0.134-0.208-0.203-0.31c-0.106-0.156-0.217-0.308-0.331-0.457
			c-0.073-0.095-0.146-0.189-0.223-0.282c-0.125-0.151-0.256-0.296-0.389-0.438c-0.075-0.081-0.147-0.163-0.226-0.241
			c-0.153-0.154-0.313-0.3-0.477-0.443c-0.065-0.058-0.127-0.119-0.194-0.175c-0.469-0.393-0.972-0.742-1.504-1.043
			c-0.074-0.042-0.151-0.077-0.226-0.117c-0.194-0.104-0.389-0.204-0.59-0.294c-0.099-0.045-0.201-0.084-0.302-0.126
			c-0.182-0.074-0.364-0.146-0.55-0.211c-0.112-0.039-0.227-0.073-0.341-0.108c-0.18-0.055-0.361-0.105-0.545-0.15
			c-0.121-0.029-0.241-0.057-0.363-0.081c-0.183-0.038-0.367-0.069-0.553-0.097c-0.125-0.018-0.249-0.036-0.375-0.05
			c-0.188-0.021-0.38-0.032-0.57-0.042c-0.125-0.006-0.248-0.015-0.374-0.017c-0.207-0.002-0.416,0.007-0.624,0.018
			c-0.11,0.006-0.219,0.006-0.329,0.015c-0.319,0.026-0.639,0.066-0.96,0.124c-5.436,0.984-9.043,6.186-8.054,11.619
			c0.092,0.507,0.228,0.994,0.39,1.467l0.005,0.002c0.043,0.127,0.082,0.257,0.13,0.382c0.045,0.115,0.097,0.227,0.146,0.34
			c0.075,0.176,0.153,0.351,0.238,0.52c0.058,0.115,0.12,0.228,0.183,0.34c0.088,0.161,0.18,0.319,0.276,0.474
			c0.069,0.109,0.14,0.218,0.212,0.324c0.103,0.15,0.21,0.297,0.32,0.44c0.076,0.101,0.153,0.201,0.233,0.298
			c0.119,0.144,0.244,0.281,0.37,0.418c0.082,0.088,0.161,0.177,0.245,0.262c0.143,0.144,0.293,0.279,0.443,0.413
			c0.076,0.067,0.149,0.14,0.228,0.204c0.224,0.188,0.454,0.365,0.693,0.532c0.01,0.007,0.019,0.015,0.028,0.021
			c0.249,0.172,0.506,0.332,0.77,0.481c0.088,0.05,0.18,0.092,0.27,0.14c0.18,0.095,0.359,0.188,0.545,0.271
			c0.108,0.05,0.221,0.093,0.331,0.138c0.172,0.07,0.344,0.139,0.52,0.199c0.12,0.042,0.242,0.079,0.363,0.116
			c0.173,0.052,0.348,0.101,0.523,0.145c0.126,0.03,0.252,0.059,0.38,0.085c0.177,0.036,0.356,0.066,0.537,0.093
			c0.128,0.02,0.257,0.038,0.386,0.052c0.188,0.021,0.376,0.032,0.564,0.041c0.125,0.007,0.25,0.016,0.376,0.017
			c0.208,0.003,0.417-0.006,0.626-0.017c0.109-0.006,0.218-0.006,0.328-0.015c0.318-0.026,0.638-0.066,0.959-0.124
			c5.432-0.984,9.041-6.186,8.057-11.622C98.779,67.194,98.704,66.879,98.616,66.57z"/>
	</g>
</g>
</svg>
