<?xml version="1.0" encoding="utf-8"?>
<!-- Generator: Adobe Illustrator 16.0.0, SVG Export Plug-In . SVG Version: 6.00 Build 0)  -->
<!DOCTYPE svg PUBLIC "-//W3C//DTD SVG 1.0//EN" "http://www.w3.org/TR/2001/REC-SVG-20010904/DTD/svg10.dtd">
<svg version="1.0" xmlns="http://www.w3.org/2000/svg" xmlns:xlink="http://www.w3.org/1999/xlink" x="0px" y="0px" width="100px"
	 height="100px" viewBox="0 0 100 100" enable-background="new 0 0 100 100" xml:space="preserve">
<g id="Layer_3">
</g>
<g id="Your_Icon">
</g>
<g id="Layer_4">
	<g>
		<path fill="none" d="M17,91h66V9H17V91z M45.903,24.1c10.313,0,18.704,8.392,18.704,18.706c0,4.036-1.299,7.768-3.482,10.826
			l15.432,15.684l-5.703,5.61L55.196,59.012c-2.741,1.577-5.909,2.494-9.292,2.494c-10.313,0-18.703-8.389-18.703-18.7
			C27.2,32.491,35.59,24.1,45.903,24.1z"/>
		<path fill="none" d="M45.903,53.506c5.902,0,10.704-4.8,10.704-10.7c0-5.903-4.802-10.706-10.704-10.706
			c-5.902,0-10.703,4.803-10.703,10.706C35.2,48.706,40.001,53.506,45.903,53.506z"/>
		<path d="M87,1H13c-2.209,0-4,1.791-4,4v90c0,2.209,1.791,4,4,4h74c2.209,0,4-1.791,4-4V5C91,2.791,89.209,1,87,1z M83,91H17V9h66
			V91z"/>
		<path d="M45.903,61.506c3.384,0,6.551-0.917,9.292-2.494l15.659,15.914l5.703-5.61L61.125,53.632
			c2.183-3.059,3.482-6.79,3.482-10.826c0-10.314-8.391-18.706-18.704-18.706C35.59,24.1,27.2,32.491,27.2,42.806
			C27.2,53.117,35.59,61.506,45.903,61.506z M45.903,32.1c5.902,0,10.704,4.803,10.704,10.706c0,5.9-4.802,10.7-10.704,10.7
			c-5.902,0-10.703-4.8-10.703-10.7C35.2,36.902,40.001,32.1,45.903,32.1z"/>
	</g>
</g>
</svg>
