<?xml version="1.0" encoding="utf-8"?>
<!-- Generator: Adobe Illustrator 16.0.0, SVG Export Plug-In . SVG Version: 6.00 Build 0)  -->
<!DOCTYPE svg PUBLIC "-//W3C//DTD SVG 1.0//EN" "http://www.w3.org/TR/2001/REC-SVG-20010904/DTD/svg10.dtd">
<svg version="1.0" xmlns="http://www.w3.org/2000/svg" xmlns:xlink="http://www.w3.org/1999/xlink" x="0px" y="0px" width="100px"
	 height="100px" viewBox="0 0 100 100" enable-background="new 0 0 100 100" xml:space="preserve">
<g id="Layer_3">
</g>
<g id="Your_Icon">
</g>
<g id="Layer_4">
	<g>
		<path fill="none" d="M57.781,68.156c0.838-1.229,8.362-12.11,11.324-15.401c4.446-4.941,6.893-11.083,6.893-17.296
			c0-14.314-11.61-25.959-25.877-25.959c-14.405,0-26.129,11.645-26.129,25.959c0,6.852,2.115,12.833,6.132,17.298
			c3.279,3.644,9.641,14.405,10.357,15.62c0.117,0.199,0.206,0.409,0.281,0.623h16.562C57.451,68.705,57.602,68.419,57.781,68.156z"
			/>
		<g>
			<path fill="none" d="M50.121,9.5c-14.405,0-26.129,11.645-26.129,25.959c0,6.852,2.115,12.833,6.132,17.298
				c3.279,3.644,9.641,14.405,10.357,15.62c0.117,0.199,0.206,0.409,0.281,0.623H57h0.324c0.127-0.295,0.278-0.581,0.458-0.844
				c0.838-1.229,8.362-12.11,11.324-15.401c4.446-4.941,6.893-11.083,6.893-17.296C75.998,21.145,64.388,9.5,50.121,9.5z"/>
			<path d="M50.125,1.5C31.309,1.5,16,16.734,16,35.459c0,8.86,2.798,16.692,8.16,22.649C26.282,60.467,31,67.869,33,71.508V72
				v14.282C33,87.37,34.124,91,34.124,91c2.194,4.475,7.246,7.563,11.872,7.744c0.041,0.002,0.514,0.256,1.1,0.256h2.87
				c1.081,0,2.839-0.252,3.028-0.26C59.662,98.48,65,92.753,65,86.277v-14.63c3-3.773,7.962-11.315,9.965-13.541
				c5.771-6.412,8.992-14.455,8.992-22.647C83.957,16.734,68.804,1.5,50.125,1.5z M69.105,52.755
				c-2.962,3.291-10.485,14.172-11.324,15.401c-0.179,0.263-0.33,0.549-0.458,0.844H57H40.762c-0.076-0.214-0.164-0.424-0.281-0.623
				c-0.717-1.215-7.078-11.977-10.357-15.62c-4.018-4.464-6.132-10.446-6.132-17.298C23.991,21.145,35.715,9.5,50.121,9.5
				c14.268,0,25.877,11.645,25.877,25.959C75.998,41.672,73.551,47.814,69.105,52.755z"/>
		</g>
	</g>
</g>
</svg>
