<?xml version="1.0" encoding="utf-8"?>
<!-- Generator: Adobe Illustrator 16.0.0, SVG Export Plug-In . SVG Version: 6.00 Build 0)  -->
<!DOCTYPE svg PUBLIC "-//W3C//DTD SVG 1.1//EN" "http://www.w3.org/Graphics/SVG/1.1/DTD/svg11.dtd">
<svg version="1.1" xmlns="http://www.w3.org/2000/svg" xmlns:xlink="http://www.w3.org/1999/xlink" x="0px" y="0px" width="100px"
	 height="100px" viewBox="0 0 100 100" enable-background="new 0 0 100 100" xml:space="preserve">
<g id="Layer_3" display="none">
</g>
<g id="Your_Icon">
</g>
<g id="Layer_4">
	<path d="M77.001,99.1c-1.218,0-2.42-0.445-3.357-1.294L49.982,76.374L26.338,97.569c-1.47,1.317-3.576,1.646-5.377,0.842
		S18,95.819,18,93.846V4c0-2.761,2.238-5,5-5h54c2.762,0,5,2.239,5,5v90.1c0,1.978-1.165,3.769-2.973,4.571
		C78.376,98.959,77.686,99.1,77.001,99.1z M50,64.643c1.202,0,2.404,0.432,3.356,1.294L72,82.825V9H28v73.649L46.662,65.92
		C47.612,65.068,48.807,64.643,50,64.643z"/>
</g>
</svg>
