<?xml version="1.0" encoding="utf-8"?>
<!-- Generator: Adobe Illustrator 16.0.0, SVG Export Plug-In . SVG Version: 6.00 Build 0)  -->
<!DOCTYPE svg PUBLIC "-//W3C//DTD SVG 1.0//EN" "http://www.w3.org/TR/2001/REC-SVG-20010904/DTD/svg10.dtd">
<svg version="1.0" xmlns="http://www.w3.org/2000/svg" xmlns:xlink="http://www.w3.org/1999/xlink" x="0px" y="0px" width="100px"
	 height="100px" viewBox="0 0 100 100" enable-background="new 0 0 100 100" xml:space="preserve">
<g id="Layer_3">
</g>
<g id="Your_Icon">
</g>
<g id="Layer_4">
	<path d="M81.577,99c-0.734,0-1.47-0.201-2.121-0.608L50.114,80.045L21.713,98.361c-1.402,0.905-3.221,0.845-4.56-0.155
		c-1.339-0.999-1.916-2.724-1.448-4.327l9.447-32.368L2.354,38.453c-1.135-1.148-1.468-2.865-0.847-4.354
		c0.622-1.489,2.078-2.459,3.691-2.459h28.83l12.39-28.248C47.056,1.939,48.493,1,50.081,1c0.003,0,0.006,0,0.009,0
		c1.592,0.004,3.029,0.95,3.662,2.41l12.233,28.242h28.816c1.611,0,3.065,0.967,3.688,2.453s0.295,3.2-0.834,4.35l-22.586,23
		l10.317,32.329c0.51,1.599-0.031,3.346-1.356,4.375C83.312,98.717,82.446,99,81.577,99z M50.081,71.307
		c0.735,0,1.472,0.203,2.121,0.608l22.249,13.912l-7.735-24.237c-0.451-1.414-0.083-2.96,0.956-4.019l17.596-17.918H63.358
		c-1.595,0-3.037-0.947-3.671-2.41l-9.629-22.231l-9.754,22.237c-0.638,1.454-2.075,2.393-3.663,2.393H14.778l17.718,17.92
		c1.021,1.033,1.402,2.539,0.995,3.933L26.39,85.826l21.523-13.881C48.572,71.52,49.327,71.307,50.081,71.307z"/>
	<path opacity="0.4" fill="none" stroke="#FFFFFF" stroke-linecap="square" stroke-linejoin="round" stroke-miterlimit="10" d="
		M49.5,32"/>
</g>
</svg>
