<?xml version="1.0" encoding="utf-8"?>
<!-- Generator: Adobe Illustrator 16.0.0, SVG Export Plug-In . SVG Version: 6.00 Build 0)  -->
<!DOCTYPE svg PUBLIC "-//W3C//DTD SVG 1.1//EN" "http://www.w3.org/Graphics/SVG/1.1/DTD/svg11.dtd">
<svg version="1.1" xmlns="http://www.w3.org/2000/svg" xmlns:xlink="http://www.w3.org/1999/xlink" x="0px" y="0px" width="100px"
	 height="100px" viewBox="0 0 100 100" enable-background="new 0 0 100 100" xml:space="preserve">
<g id="Layer_3" display="none">
</g>
<g id="Your_Icon">
</g>
<g id="Layer_4">
	<g>
		<path fill="none" d="M43.875,84h-24.75c-5.509,0-9.977-4.24-9.998-9.743c0,0.031-0.002-0.163-0.002-0.132
			c0,5.521,4.478,9.875,10,9.875H43.875L43.875,84z"/>
		<path fill="#211915" d="M19.125,84H44V74H19.125c0,0,0.01,0,0.011,0h-0.011c0-13,8.119-22.022,21.005-22.022
			C50.511,51.978,57.784,58,60.223,67h10.185c-1.191-6-3.85-11.395-7.785-15.629c-5.612-6.039-13.6-9.23-22.492-9.23
			s-16.881,3.395-22.496,9.431c-5.467,5.884-8.485,13.578-8.507,22.674C9.148,80.012,13.616,84,19.125,84z"/>
		<polygon fill="#211915" points="49,72 49,84 61.991,84 91,84 91,72 		"/>
	</g>
	<g>
		<path fill="#211915" d="M39.874,9.867c4.973,0,9.001,4.256,9.001,9.5c0,5.248-4.028,9.5-9.001,9.5c-4.971,0-8.999-4.252-8.999-9.5
			C30.875,14.123,34.903,9.867,39.874,9.867 M39.874,0.867c-9.925,0-17.999,8.299-17.999,18.5s8.074,18.5,17.999,18.5
			c9.926,0,18.001-8.299,18.001-18.5S49.8,0.867,39.874,0.867L39.874,0.867z"/>
	</g>
</g>
</svg>
