<?xml version="1.0" encoding="utf-8"?>
<!-- Generator: Adobe Illustrator 16.0.0, SVG Export Plug-In . SVG Version: 6.00 Build 0)  -->
<!DOCTYPE svg PUBLIC "-//W3C//DTD SVG 1.0//EN" "http://www.w3.org/TR/2001/REC-SVG-20010904/DTD/svg10.dtd">
<svg version="1.0" xmlns="http://www.w3.org/2000/svg" xmlns:xlink="http://www.w3.org/1999/xlink" x="0px" y="0px" width="100px"
	 height="100px" viewBox="0 0 100 100" enable-background="new 0 0 100 100" xml:space="preserve">
<g id="Layer_3">
</g>
<g id="Your_Icon">
</g>
<g id="Layer_4">
	<g>
		<path fill="none" d="M46,42c-2.209,0-4-1.791-4-4V8H22v83h54V42H46z"/>
		<polygon fill="none" points="50,34 76,34 76,30.609 52.555,8 50,8 		"/>
		<path d="M81.428,24.89L58.232,2.281C56.737,0.819,54.646,0,52.555,0H22.332C17.914,0,14,3.582,14,8v83c0,4.418,3.914,8,8.332,8
			h53.336C80.086,99,84,95.418,84,91V30.609C84,28.457,82.967,26.395,81.428,24.89z M76,30.609V34H50V8h2.555L76,30.609z M22,91V8
			h20v30c0,2.209,1.791,4,4,4h30v49H22z"/>
	</g>
</g>
</svg>
