<?xml version="1.0" encoding="utf-8"?>
<!-- Generator: Adobe Illustrator 16.0.0, SVG Export Plug-In . SVG Version: 6.00 Build 0)  -->
<!DOCTYPE svg PUBLIC "-//W3C//DTD SVG 1.1//EN" "http://www.w3.org/Graphics/SVG/1.1/DTD/svg11.dtd">
<svg version="1.1" xmlns="http://www.w3.org/2000/svg" xmlns:xlink="http://www.w3.org/1999/xlink" x="0px" y="0px" width="100px"
	 height="100px" viewBox="0 0 100 100" enable-background="new 0 0 100 100" xml:space="preserve">
<g id="Layer_3" display="none">
</g>
<g id="Your_Icon">
</g>
<g id="Layer_4">
	<g>
		<path fill="none" d="M66.5,38.5c0-15.466-12.535-28-28-28s-28,12.534-28,28c0,15.46,12.535,28,28,28S66.5,53.96,66.5,38.5z"/>
		<path fill="#211915" d="M99.036,91.964l-30.38-30.38C73.57,55.18,76.5,47.178,76.5,38.5c0-20.953-17.047-38-38-38
			s-38,17.047-38,38s17.047,38,38,38c8.678,0,16.68-2.93,23.084-7.844l30.38,30.38L99.036,91.964z M10.5,38.5
			c0-15.466,12.535-28,28-28s28,12.534,28,28c0,15.46-12.535,28-28,28S10.5,53.96,10.5,38.5z"/>
	</g>
	<rect x="21" y="33" fill="#211915" width="34" height="10"/>
	<rect x="33" y="21" fill="#211915" width="10" height="34"/>
</g>
</svg>
