<?xml version="1.0" encoding="utf-8"?>
<!-- Generator: Adobe Illustrator 16.0.0, SVG Export Plug-In . SVG Version: 6.00 Build 0)  -->
<!DOCTYPE svg PUBLIC "-//W3C//DTD SVG 1.1//EN" "http://www.w3.org/Graphics/SVG/1.1/DTD/svg11.dtd">
<svg version="1.1" xmlns="http://www.w3.org/2000/svg" xmlns:xlink="http://www.w3.org/1999/xlink" x="0px" y="0px" width="100px"
	 height="100px" viewBox="0 0 100 100" enable-background="new 0 0 100 100" xml:space="preserve">
<g id="Layer_3" display="none">
</g>
<g id="Your_Icon">
</g>
<g id="Layer_4">
	<path fill="#211915" d="M92.23,76.8h-59.5c-2.613,0-4.73-2.117-4.73-4.727V6.8c0-2.609,2.117-4.727,4.73-4.727h59.5
		c2.613,0,4.73,2.117,4.73,4.727v65.273C96.961,74.683,94.844,76.8,92.23,76.8z M37.461,67.343H87.5V11.53H37.461V67.343z"/>
	<path fill="#211915" d="M67.358,97.454H7.842c-2.62,0-4.742-2.123-4.742-4.743V26.789c0-2.62,2.122-4.743,4.742-4.743H23.7v9.484
		H12.585V87.97h50.03v-7.114H72.1v11.855C72.1,95.331,69.979,97.454,67.358,97.454z"/>
	<rect x="45.5" y="25.25" width="34" height="10"/>
	<rect x="45.5" y="42.3" width="34" height="10"/>
</g>
</svg>
