<?xml version="1.0" encoding="utf-8"?>
<!-- Generator: Adobe Illustrator 16.0.0, SVG Export Plug-In . SVG Version: 6.00 Build 0)  -->
<!DOCTYPE svg PUBLIC "-//W3C//DTD SVG 1.1//EN" "http://www.w3.org/Graphics/SVG/1.1/DTD/svg11.dtd">
<svg version="1.1" xmlns="http://www.w3.org/2000/svg" xmlns:xlink="http://www.w3.org/1999/xlink" x="0px" y="0px" width="100px"
	 height="100px" viewBox="0 0 100 100" enable-background="new 0 0 100 100" xml:space="preserve">
<g id="Layer_3" display="none">
</g>
<g id="Your_Icon">
</g>
<g id="Layer_4">
	<g>
		<polygon fill="none" points="15,89.746 85,89.69 85,56 15,56 		"/>
		<path d="M90,46H10c-2.762,0-5,1.989-5,4.75v44c0,1.327,0.527,2.599,1.466,3.537C7.403,99.224,8.675,100,10,100
			c0.001,0,0.003,0,0.004,0h80C92.764,99.998,95,97.446,95,94.686V50.75C95,47.989,92.762,46,90,46z M85,89.69l-70,0.056V56h70
			V89.69z"/>
	</g>
	<path d="M87,43.25H77v-8c0-13.785-12.112-25-27-25s-27,11.215-27,25v8H13v-8c0-19.299,16.598-35,37-35s37,15.701,37,35V43.25z"/>
</g>
</svg>
