<?xml version="1.0" encoding="utf-8"?>
<!-- Generator: Adobe Illustrator 16.0.0, SVG Export Plug-In . SVG Version: 6.00 Build 0)  -->
<!DOCTYPE svg PUBLIC "-//W3C//DTD SVG 1.1//EN" "http://www.w3.org/Graphics/SVG/1.1/DTD/svg11.dtd">
<svg version="1.1" xmlns="http://www.w3.org/2000/svg" xmlns:xlink="http://www.w3.org/1999/xlink" x="0px" y="0px" width="100px"
	 height="100px" viewBox="0 0 100 100" enable-background="new 0 0 100 100" xml:space="preserve">
<g id="Layer_3" display="none">
</g>
<g id="Your_Icon">
</g>
<g id="Layer_4">
	<g>
		<path d="M97.068,60.247L40.61,2.611C39.67,1.652,38.384,1,37.042,1c-0.011,0-0.021,0-0.032,0L6.218,1.312
			C3.469,1.33,1,3.677,1,6.426v30.34c0,1.341,0.789,2.626,1.745,3.566l58.126,57.121C61.828,98.393,63.22,99,64.502,99
			c0.015,0,0.029,0,0.045,0c2.749,0,4.974-2.361,4.974-5.113c0-0.383-0.043-0.812-0.124-1.171L65.778,65.62l27.15,3.11
			c2.093,0.243,4.133-0.876,5.063-2.779S98.553,61.759,97.068,60.247z M31.071,31.07c-3.906,3.907-10.236,3.907-14.143,0
			c-3.906-3.906-3.904-10.236,0-14.141c3.905-3.907,10.236-3.907,14.143,0C34.978,20.834,34.976,27.166,31.071,31.07z"/>
	</g>
</g>
</svg>
