<?xml version="1.0" encoding="utf-8"?>
<!-- Generator: Adobe Illustrator 16.0.0, SVG Export Plug-In . SVG Version: 6.00 Build 0)  -->
<!DOCTYPE svg PUBLIC "-//W3C//DTD SVG 1.1//EN" "http://www.w3.org/Graphics/SVG/1.1/DTD/svg11.dtd">
<svg version="1.1" xmlns="http://www.w3.org/2000/svg" xmlns:xlink="http://www.w3.org/1999/xlink" x="0px" y="0px" width="100px"
	 height="100px" viewBox="0 0 100 100" enable-background="new 0 0 100 100" xml:space="preserve">
<g id="Layer_3" display="none">
	<g display="inline" opacity="0.31">
		<path d="M73,152c-1.06,0-2.076-0.42-2.826-1.169C69.422,150.08,69,149.062,69,148V92c0-2.209,1.791-4,4-4h56c2.209,0,4,1.791,4,4
			v55.92c0,2.207-1.788,3.997-3.994,4C129.006,151.92,73.002,152,73,152z"/>
		<path d="M129,92v55.92L73,148V92H129 M129,84H73c-4.418,0-8,3.582-8,8v56c0,2.124,0.844,4.16,2.347,5.661
			C68.847,155.159,70.88,156,73,156c0.004,0,0.008,0,0.011,0l56-0.08c4.414-0.006,7.989-3.586,7.989-8V92
			C137,87.582,133.418,84,129,84L129,84z"/>
	</g>
</g>
<g id="Your_Icon">
</g>
<g id="Layer_4">
	<path d="M49.999,4.4L49.999,4.4"/>
	<g>
		<path d="M96.071,17.103L82.854,3.887c-1.875-1.875-4.419-2.929-7.071-2.929h0c-2.652,0-5.196,1.054-7.071,2.929L10.003,62.603
			c-1.149,1.149-2.001,2.562-2.481,4.114L1.447,86.343C0.346,89.9,1.313,93.774,3.956,96.397c1.902,1.888,4.446,2.902,7.045,2.902
			c1.012,0,2.033-0.154,3.028-0.47l18.482-5.874c1.518-0.482,2.898-1.32,4.026-2.443l59.518-59.252
			c1.882-1.874,2.942-4.42,2.945-7.076C99.003,21.529,97.949,18.981,96.071,17.103z M22.64,64.107l36.646-36.65l13.179,13.179
			L35.734,77.203L22.64,64.107z M11,89.3l5.363-17.327l11.854,11.855L11,89.3z M79.552,33.58L66.357,20.385l9.426-9.427L89,24.174
			L79.552,33.58z"/>
	</g>
</g>
</svg>
