<?xml version="1.0" encoding="utf-8"?>
<!-- Generator: Adobe Illustrator 16.0.0, SVG Export Plug-In . SVG Version: 6.00 Build 0)  -->
<!DOCTYPE svg PUBLIC "-//W3C//DTD SVG 1.1//EN" "http://www.w3.org/Graphics/SVG/1.1/DTD/svg11.dtd">
<svg version="1.1" xmlns="http://www.w3.org/2000/svg" xmlns:xlink="http://www.w3.org/1999/xlink" x="0px" y="0px" width="100px"
	 height="100px" viewBox="0 0 100 100" enable-background="new 0 0 100 100" xml:space="preserve">
<g id="Layer_3" display="none">
</g>
<g id="Your_Icon">
</g>
<g id="Layer_4">
	<g>
		<g>
			<polygon fill="none" points="30,90.292 70,90.236 70,69 30,69 			"/>
			<path fill="none" d="M10,69h10v-4.671C20,61.568,22.738,59,25.5,59h50c2.762,0,4.5,2.568,4.5,5.329V69h10V39H10V69z"/>
			<path d="M95,29H80V13.8c0-2.761-1.738-4.8-4.5-4.8h-50c-2.762,0-5.5,2.039-5.5,4.8V29H5c-2.762,0-5,2.539-5,5.3v40
				C0,77.061,2.238,79,5,79h15v16.3c0,1.327,0.777,2.45,1.717,3.388C22.654,99.624,24.175,100,25.5,100c0.002,0,0.005,0,0.007,0
				l49.75,0.079c2.759-0.004,4.743-2.091,4.743-4.85V79h15c2.762,0,5-1.939,5-4.7v-40C100,31.539,97.762,29,95,29z M30,19h40v9.76
				l-40,0.035V19z M70,90.236l-40,0.057V69h40V90.236z M90,69H80v-4.671C80,61.568,78.262,59,75.5,59h-50
				c-2.762,0-5.5,2.568-5.5,5.329V69H10V39h80V69z"/>
		</g>
	</g>
</g>
</svg>
