<?xml version="1.0" encoding="utf-8"?>
<!-- Generator: Adobe Illustrator 16.0.0, SVG Export Plug-In . SVG Version: 6.00 Build 0)  -->
<!DOCTYPE svg PUBLIC "-//W3C//DTD SVG 1.1//EN" "http://www.w3.org/Graphics/SVG/1.1/DTD/svg11.dtd">
<svg version="1.1" xmlns="http://www.w3.org/2000/svg" xmlns:xlink="http://www.w3.org/1999/xlink" x="0px" y="0px" width="100px"
	 height="100px" viewBox="0 0 100 100" enable-background="new 0 0 100 100" xml:space="preserve">
<g id="Layer_3" display="none">
</g>
<g id="Your_Icon">
</g>
<g id="Layer_4">
	<path d="M10,100c-1.325,0-2.597-0.776-3.534-1.713C5.527,97.349,5,96.077,5,94.75v-44c0-2.761,2.238-5,5-5h80c2.762,0,5,2.239,5,5
		v43.936c0,2.76-2.236,5.312-4.996,5.314l-80-0.25C10.004,99.75,10.001,100,10,100z M15,55.75v33.996l70-0.056V55.75H15z"/>
	<path d="M24.991,43.25h-10v-8c0-19.299,16.598-35,37-35c13.402,0,25.788,6.879,32.323,17.954l2.542,4.306l-8.612,5.083
		l-2.541-4.306C70.957,15.245,61.871,10.25,51.991,10.25c-14.888,0-27,11.215-27,25V43.25z"/>
</g>
</svg>
