<?xml version="1.0" encoding="utf-8"?>
<!-- Generator: Adobe Illustrator 16.0.0, SVG Export Plug-In . SVG Version: 6.00 Build 0)  -->
<!DOCTYPE svg PUBLIC "-//W3C//DTD SVG 1.1//EN" "http://www.w3.org/Graphics/SVG/1.1/DTD/svg11.dtd">
<svg version="1.1" xmlns="http://www.w3.org/2000/svg" xmlns:xlink="http://www.w3.org/1999/xlink" x="0px" y="0px" width="100px"
	 height="100px" viewBox="0 0 100 100" enable-background="new 0 0 100 100" xml:space="preserve">
<g id="Layer_3" display="none">
	<polyline display="inline" opacity="0.15" points="6,-64.5 -84,-64.5 -84,25.5 6,25.5 	"/>
</g>
<g id="Your_Icon">
</g>
<g id="Layer_4">
	<path d="M55.802,8.554c-1.454-3.152-4.049-5.55-7.308-6.751C47.047,1.27,45.534,1,44,1c-5.421,0-10.322,3.419-12.195,8.507
		c-1.2,3.257-1.062,6.787,0.393,9.938c1.454,3.153,4.049,5.552,7.309,6.752C40.953,26.729,42.464,27,43.997,27
		c5.422,0,10.323-3.419,12.198-8.507C57.396,15.236,57.256,11.706,55.802,8.554z"/>
	<path d="M56.195,81.508C54.32,76.419,49.419,73,43.997,73c-1.533,0-3.044,0.271-4.493,0.804c-3.258,1.199-5.853,3.598-7.307,6.751
		c-1.454,3.151-1.593,6.682-0.394,9.938C33.678,95.581,38.579,99,44,99c1.534,0,3.047-0.27,4.496-0.804
		c3.257-1.2,5.852-3.598,7.306-6.75S57.396,84.765,56.195,81.508z"/>
	<path d="M18.493,37.405c-1.448-0.533-2.96-0.805-4.494-0.805c-5.42,0-10.32,3.418-12.196,8.506c-1.2,3.259-1.06,6.789,0.395,9.94
		c1.455,3.153,4.052,5.55,7.31,6.749c1.447,0.534,2.96,0.805,4.494,0.805c5.421,0,10.322-3.418,12.196-8.506
		C28.672,47.369,25.216,39.882,18.493,37.405z"/>
	<g>
		<path d="M70.8,45.506c0.063-0.172,0.139-0.338,0.209-0.506H49V28.985C47.442,29.639,45.748,30,43.998,30
			c-1.534,0-3.045-0.271-4.492-0.803c-0.173-0.063-0.337-0.145-0.506-0.215V45h-9.856c1.115,2.93,1.148,6.123,0.055,9.095
			c-0.113,0.309-0.239,0.609-0.374,0.905H39v16.012C40.556,70.359,42.248,70,43.996,70c1.534,0,3.046,0.271,4.494,0.805
			c0.175,0.064,0.339,0.146,0.51,0.217V55h22.022C69.8,52.076,69.621,48.708,70.8,45.506z"/>
	</g>
	<path d="M98.118,44.554c-1.456-3.153-4.052-5.55-7.31-6.748c-1.447-0.534-2.96-0.805-4.495-0.805
		c-5.421,0-10.321,3.418-12.195,8.506c-2.475,6.726,0.981,14.213,7.704,16.689C83.271,62.729,84.782,63,86.316,63
		c5.42,0,10.32-3.417,12.195-8.505C99.713,51.236,99.572,47.706,98.118,44.554z"/>
</g>
</svg>
