<?xml version="1.0" encoding="utf-8"?>
<!-- Generator: Adobe Illustrator 16.0.0, SVG Export Plug-In . SVG Version: 6.00 Build 0)  -->
<!DOCTYPE svg PUBLIC "-//W3C//DTD SVG 1.1//EN" "http://www.w3.org/Graphics/SVG/1.1/DTD/svg11.dtd">
<svg version="1.1" xmlns="http://www.w3.org/2000/svg" xmlns:xlink="http://www.w3.org/1999/xlink" x="0px" y="0px" width="100px"
	 height="100px" viewBox="0 0 100 100" enable-background="new 0 0 100 100" xml:space="preserve">
<g id="Layer_3" display="none">
</g>
<g id="Your_Icon">
</g>
<g id="Layer_4">
	<path d="M50,31c4.419,0,8,3.581,8,8s-3.581,8-8,8c-4.418,0-8-3.581-8-8S45.582,31,50,31 M50,21c-9.925,0-18,8.075-18,18
		s8.075,18,18,18s18-8.075,18-18S59.925,21,50,21L50,21z"/>
	<path d="M50,10c15.465,0,28,13.431,28,30c0,16.568-28,48-28,48S22,56.568,22,40C22,23.431,34.535,10,50,10 M50,0
		C29.047,0,12,17.944,12,40c0,9.102,5.177,20.869,15.827,35.975c7.244,10.276,14.405,18.338,14.706,18.677
		C44.431,96.782,47.147,98,50,98s5.569-1.218,7.467-3.348c0.301-0.338,7.462-8.401,14.706-18.677C82.823,60.869,88,49.102,88,40
		C88,17.944,70.953,0,50,0L50,0z"/>
</g>
</svg>
