<?xml version="1.0" encoding="utf-8"?>
<!-- Generator: Adobe Illustrator 16.0.0, SVG Export Plug-In . SVG Version: 6.00 Build 0)  -->
<!DOCTYPE svg PUBLIC "-//W3C//DTD SVG 1.1//EN" "http://www.w3.org/Graphics/SVG/1.1/DTD/svg11.dtd">
<svg version="1.1" xmlns="http://www.w3.org/2000/svg" xmlns:xlink="http://www.w3.org/1999/xlink" x="0px" y="0px" width="100px"
	 height="100px" viewBox="0 0 100 100" enable-background="new 0 0 100 100" xml:space="preserve">
<g id="Layer_3" display="none">
</g>
<g id="Your_Icon">
</g>
<g id="Layer_4">
	<path d="M73.995,74.571l-6.987-7.153L84.837,50L67.008,32.583l6.987-7.153l21.491,20.994c0.963,0.941,1.506,2.23,1.506,3.577
		s-0.543,2.636-1.506,3.577L73.995,74.571z"/>
	<path d="M26.005,74.571L4.514,53.577C3.551,52.636,3.008,51.346,3.008,50s0.543-2.636,1.506-3.577l21.491-20.994l6.987,7.153
		L15.163,50l17.829,17.417L26.005,74.571z"/>
	<rect x="45" y="14.122" transform="matrix(0.9659 0.2591 -0.2591 0.9659 14.6603 -11.2463)" width="10.001" height="71.757"/>
</g>
</svg>
