<?xml version="1.0" encoding="utf-8"?>
<!-- Generator: Adobe Illustrator 16.0.0, SVG Export Plug-In . SVG Version: 6.00 Build 0)  -->
<!DOCTYPE svg PUBLIC "-//W3C//DTD SVG 1.1//EN" "http://www.w3.org/Graphics/SVG/1.1/DTD/svg11.dtd">
<svg version="1.1" xmlns="http://www.w3.org/2000/svg" xmlns:xlink="http://www.w3.org/1999/xlink" x="0px" y="0px" width="100px"
	 height="100px" viewBox="0 0 100 100" enable-background="new 0 0 100 100" xml:space="preserve">
<g id="Layer_3" display="none">
	
		<rect x="-91.5" y="-30.5" display="inline" fill="#FFFFFF" stroke="#000000" stroke-linejoin="round" stroke-miterlimit="10" width="100" height="100"/>
</g>
<g id="Your_Icon">
</g>
<g id="Layer_4">
	<g>
		<path fill="none" d="M66.504,38.379c0-15.466-12.535-28-28-28s-28,12.534-28,28c0,15.46,12.535,28,28,28
			S66.504,53.839,66.504,38.379z"/>
		<path d="M99.496,91.136L69.159,60.799c4.612-6.29,7.345-14.04,7.345-22.42c0-20.953-17.047-38-38-38s-38,17.047-38,38
			s17.047,38,38,38c8.251,0,15.891-2.652,22.128-7.137l30.379,30.379L99.496,91.136z M10.504,38.379c0-15.466,12.535-28,28-28
			s28,12.534,28,28c0,15.46-12.535,28-28,28S10.504,53.839,10.504,38.379z"/>
	</g>
</g>
</svg>
