<?xml version="1.0" encoding="utf-8"?>
<!-- Generator: Adobe Illustrator 16.0.0, SVG Export Plug-In . SVG Version: 6.00 Build 0)  -->
<!DOCTYPE svg PUBLIC "-//W3C//DTD SVG 1.1//EN" "http://www.w3.org/Graphics/SVG/1.1/DTD/svg11.dtd">
<svg version="1.1" xmlns="http://www.w3.org/2000/svg" xmlns:xlink="http://www.w3.org/1999/xlink" x="0px" y="0px" width="100px"
	 height="100px" viewBox="0 0 100 100" enable-background="new 0 0 100 100" xml:space="preserve">
<g id="Layer_3" display="none">
</g>
<g id="Your_Icon">
</g>
<g id="Layer_4">
	<path fill="none" stroke="#000000" stroke-width="10" stroke-linecap="square" stroke-linejoin="round" stroke-miterlimit="10" d="
		M50.83,73.803"/>
	<g>
		<path fill="none" d="M51.59,71.867c-0.002,0-0.003,0.002-0.007,0.002c-0.177,0.066-0.356,0.125-0.538,0.172
			c-0.406,0.104-0.826,0.158-1.249,0.158c-0.765,0-1.54-0.176-2.267-0.547c-0.003-0.002-0.006-0.002-0.008-0.004L10,45.919V90h80
			V46.792L52.12,71.627C51.947,71.717,51.771,71.797,51.59,71.867z"/>
		<polygon fill="none" points="10,35.432 49.809,61.586 90,35.481 90,24 10,24 		"/>
		<path d="M90,14H10c-5.523,0-10,4.426-10,9.949v4.913c0,3.666,0,8.333,0,10.2v50.988c0,2.654,1.055,5.174,2.933,7.05
			C4.808,98.974,7.35,100,10,100c0.003,0,0.007,0,0.011,0l80-0.059c5.519-0.006,9.989-4.456,9.989-9.975v-49.73
			c0-1.5,0-8.625,0-11.25v-5.037C100,18.426,95.523,14,90,14z M90,90H10V45.919l37.521,25.729c0.002,0.002,0.005,0.002,0.008,0.004
			c0.727,0.371,1.502,0.547,2.267,0.547c0.423,0,0.843-0.055,1.249-0.158c0.182-0.047,0.361-0.105,0.538-0.172
			c0.004,0,0.005-0.002,0.007-0.002c0.181-0.07,0.357-0.15,0.53-0.24L90,46.792V90z M90,35.481L49.809,61.586L10,35.432V24h80
			V35.481z"/>
	</g>
</g>
</svg>
