<?xml version="1.0" encoding="utf-8"?>
<!-- Generator: Adobe Illustrator 16.0.0, SVG Export Plug-In . SVG Version: 6.00 Build 0)  -->
<!DOCTYPE svg PUBLIC "-//W3C//DTD SVG 1.1//EN" "http://www.w3.org/Graphics/SVG/1.1/DTD/svg11.dtd">
<svg version="1.1" xmlns="http://www.w3.org/2000/svg" xmlns:xlink="http://www.w3.org/1999/xlink" x="0px" y="0px" width="100px"
	 height="100px" viewBox="0 0 100 100" enable-background="new 0 0 100 100" xml:space="preserve">
<g id="Layer_3" display="none">
</g>
<g id="Your_Icon">
</g>
<g id="Layer_4">
	<g>
		<path d="M50,0.5c-19.851,0-36,17.047-36,38c0,8.544,4.992,20.493,15.264,36.528c7.132,11.135,14.164,20.058,14.46,20.432
			C45.24,97.38,47.553,98.5,50,98.5s4.76-1.12,6.276-3.04c0.296-0.374,7.328-9.297,14.46-20.432C81.008,58.993,86,47.044,86,38.5
			C86,17.547,69.851,0.5,50,0.5z M68,43H55v13H45V43H32V33h13V20h10v13h13V43z"/>
	</g>
</g>
</svg>
