<?xml version="1.0" encoding="utf-8"?>
<!-- Generator: Adobe Illustrator 16.0.0, SVG Export Plug-In . SVG Version: 6.00 Build 0)  -->
<!DOCTYPE svg PUBLIC "-//W3C//DTD SVG 1.1//EN" "http://www.w3.org/Graphics/SVG/1.1/DTD/svg11.dtd">
<svg version="1.1" xmlns="http://www.w3.org/2000/svg" xmlns:xlink="http://www.w3.org/1999/xlink" x="0px" y="0px" width="100px"
	 height="100px" viewBox="0 0 100 100" enable-background="new 0 0 100 100" xml:space="preserve">
<g id="Layer_3" display="none">
</g>
<g id="Your_Icon">
</g>
<g id="Layer_4">
	<path d="M65,100H55V59.001C55,56.243,52.757,54,50,54s-5,2.243-5,5.001V100H35V59.001C35,50.729,41.729,44,50,44
		s15,6.729,15,15.001V100z"/>
	<g>
		<path d="M49,5c-5.522,0-10,4.48-10,10.002C39,20.518,43.478,25,49,25s10-4.482,10-9.998C59,9.48,54.522,5,49,5z"/>
	</g>
	<path d="M48.7,40.4c-18.196,0-33-15.767-33-35.146h10c0,13.865,10.317,25.146,23,25.146s23-11.28,23-25.146h10
		C81.7,24.634,66.896,40.4,48.7,40.4z"/>
</g>
</svg>
