<?xml version="1.0" encoding="utf-8"?>
<!-- Generator: Adobe Illustrator 16.0.0, SVG Export Plug-In . SVG Version: 6.00 Build 0)  -->
<!DOCTYPE svg PUBLIC "-//W3C//DTD SVG 1.1//EN" "http://www.w3.org/Graphics/SVG/1.1/DTD/svg11.dtd">
<svg version="1.1" xmlns="http://www.w3.org/2000/svg" xmlns:xlink="http://www.w3.org/1999/xlink" x="0px" y="0px" width="100px"
	 height="100px" viewBox="0 0 100 100" enable-background="new 0 0 100 100" xml:space="preserve">
<g id="Layer_3" display="none">
	<polyline display="inline" opacity="0.15" points="146,-64.5 56,-64.5 56,25.5 146,25.5 	"/>
</g>
<g id="Your_Icon">
</g>
<g id="Layer_4">
	<path d="M98.087,17.386C98.033,17.16,97.831,17,97.6,17c0,0-0.001,0-0.002,0c-0.05,0-0.1,0.008-0.147,0.022
		c-2.029,0.635-3.803,0.984-5.396,1.258c2.146-2.029,4.016-5.528,4.287-6.049c0.098-0.186,0.068-0.412-0.072-0.567
		s-0.363-0.207-0.557-0.128c-1.588,0.638-6.296,2.457-8.562,3.331C84.318,9.121,79.879,6.66,72.404,6.66
		c-9.403,0-17.494,8.316-18.164,18.778C53.612,25.658,51.734,26,48.748,26h-0.002c-6.403,0-19.824-2.189-37.775-17.8
		c-0.129-0.11-0.303-0.081-0.465-0.034s-0.289,0.206-0.34,0.367c-0.16,0.503-3.844,12.439,0.764,20.354
		c1.571,2.7,3.932,4.612,7.053,5.688c-2.725,0.261-7.58,0.568-10.898,0.744c-0.141,0.007-0.271,0.077-0.361,0.187
		c-0.089,0.109-0.127,0.253-0.105,0.393c0.022,0.148,0.578,3.671,2.342,7.253c2.342,4.756,5.719,7.307,9.774,7.387
		c-1.801,0.904-5.149,2.382-8.282,3.681c-0.254,0.104-0.375,0.394-0.273,0.647c0.322,0.809,8.039,19.812,19.357,19.812
		c0.472,0,0.945-0.034,1.418-0.102c-10.792,8.959-28.369,9.069-28.555,9.069c-0.205,0-0.391,0.126-0.465,0.317
		c-0.075,0.192-0.025,0.24,0.126,0.38C9.955,91.638,21.585,93,29.951,93c0.002,0,0,0,0.002,0c13.518,0,28.328-4.009,36.852-10.227
		c28.901-21.065,25.621-53.822,25.137-57.587C94.802,23.479,98.23,17.992,98.087,17.386z"/>
	<path fill="none" stroke="#000000" stroke-width="10" stroke-linecap="square" stroke-miterlimit="10" d="M43.098,53.2"/>
</g>
</svg>
