<?xml version="1.0" encoding="utf-8"?>
<!-- Generator: Adobe Illustrator 16.0.0, SVG Export Plug-In . SVG Version: 6.00 Build 0)  -->
<!DOCTYPE svg PUBLIC "-//W3C//DTD SVG 1.1//EN" "http://www.w3.org/Graphics/SVG/1.1/DTD/svg11.dtd">
<svg version="1.1" xmlns="http://www.w3.org/2000/svg" xmlns:xlink="http://www.w3.org/1999/xlink" x="0px" y="0px" width="100px"
	 height="100px" viewBox="0 0 100 100" enable-background="new 0 0 100 100" xml:space="preserve">
<g id="Layer_3" display="none">
	<g display="inline" opacity="0.31">
		<path d="M73,12c-1.06,0-2.076-0.42-2.826-1.169C69.422,10.08,69,9.062,69,8v-56c0-2.209,1.791-4,4-4h56c2.209,0,4,1.791,4,4V7.92
			c0,2.207-1.788,3.997-3.994,4C129.006,11.92,73.002,12,73,12z"/>
		<path d="M129-48V7.92L73,8v-56H129 M129-56H73c-4.418,0-8,3.582-8,8V8c0,2.124,0.844,4.16,2.347,5.661
			C68.847,15.159,70.88,16,73,16c0.004,0,0.008,0,0.011,0l56-0.08c4.414-0.006,7.989-3.586,7.989-8V-48
			C137-52.418,133.418-56,129-56L129-56z"/>
	</g>
	<g display="inline" opacity="0.31">
		<path d="M73,152c-1.06,0-2.076-0.42-2.826-1.169C69.422,150.08,69,149.062,69,148V92c0-2.209,1.791-4,4-4h56c2.209,0,4,1.791,4,4
			v55.92c0,2.207-1.788,3.997-3.994,4C129.006,151.92,73.002,152,73,152z"/>
		<path d="M129,92v55.92L73,148V92H129 M129,84H73c-4.418,0-8,3.582-8,8v56c0,2.124,0.844,4.16,2.347,5.661
			C68.847,155.159,70.88,156,73,156c0.004,0,0.008,0,0.011,0l56-0.08c4.414-0.006,7.989-3.586,7.989-8V92
			C137,87.582,133.418,84,129,84L129,84z"/>
	</g>
</g>
<g id="Your_Icon">
</g>
<g id="Layer_4">
	<g>
		<path d="M97.3,21.873c0.001-1.328-0.525-2.603-1.464-3.542L81.562,4.058c-0.938-0.938-2.209-1.464-3.536-1.464
			s-2.598,0.527-3.536,1.464L64.027,14.523l21.32,21.32l10.48-10.433C96.769,24.474,97.298,23.201,97.3,21.873z"/>
		<polygon points="16.812,61.741 38.024,82.954 78.26,42.899 56.956,21.594 		"/>
		<path d="M9.843,69.526L3.282,90.722c-0.551,1.779-0.067,3.716,1.254,5.027C5.487,96.693,6.759,97.2,8.059,97.2
			c0.506,0,1.017-0.077,1.514-0.235l19.962-6.343c0.482-0.153,0.931-0.385,1.343-0.672L10.011,69.082
			C9.95,69.228,9.89,69.375,9.843,69.526z"/>
	</g>
	<g>
		<path d="M49.999,4.4"/>
	</g>
</g>
</svg>
