<?xml version="1.0" encoding="utf-8"?>
<!-- Generator: Adobe Illustrator 16.0.0, SVG Export Plug-In . SVG Version: 6.00 Build 0)  -->
<!DOCTYPE svg PUBLIC "-//W3C//DTD SVG 1.1//EN" "http://www.w3.org/Graphics/SVG/1.1/DTD/svg11.dtd">
<svg version="1.1" xmlns="http://www.w3.org/2000/svg" xmlns:xlink="http://www.w3.org/1999/xlink" x="0px" y="0px" width="100px"
	 height="100px" viewBox="0 0 100 100" enable-background="new 0 0 100 100" xml:space="preserve">
<g id="Layer_3" display="none">
</g>
<g id="Your_Icon">
</g>
<g id="Layer_4">
	<g>
		<path d="M20.504,2.693c-6.382,3.283-8.899,11.12-5.612,17.504c3.28,6.386,11.115,8.897,17.502,5.618
			c6.381-3.286,8.895-11.12,5.612-17.504C34.726,1.924,26.888-0.59,20.504,2.693z"/>
	</g>
	<g>
		<path d="M67.664,1.575c-6.997,1.596-11.381,8.561-9.784,15.562c1.591,7,8.556,11.38,15.558,9.79
			c6.996-1.597,11.379-8.562,9.785-15.561C81.632,4.363,74.665-0.019,67.664,1.575z"/>
	</g>
	<g>
		<path d="M39.376,31.72c-7.146-0.675-13.489,4.566-14.165,11.716c-0.682,7.146,4.562,13.486,11.708,14.169
			c7.145,0.675,13.488-4.567,14.166-11.714C51.768,38.742,46.524,32.4,39.376,31.72z"/>
	</g>
	<g>
		<path d="M87.863,46.479C80.81,45.148,74.01,49.782,72.68,56.84c-1.336,7.054,3.301,13.85,10.355,15.187
			c7.052,1.33,13.851-3.306,15.185-10.359C99.556,54.611,94.918,47.813,87.863,46.479z"/>
	</g>
	<g>
		<path d="M26.549,76.656c0.134,0.176,0.276,0.341,0.403,0.523c1.917,2.763,2.699,5.976,2.45,9.086l45.054-16.833
			c-2.299-2.487-3.732-5.719-3.958-9.196L26.549,76.656z"/>
		<path d="M70.716,56.47c0.414-2.198,1.301-4.184,2.518-5.895l-20.133-6.83c0.052,0.796,0.059,1.603-0.02,2.422
			c-0.256,2.699-1.222,5.155-2.683,7.223l20.1,6.817C70.421,58.981,70.476,57.731,70.716,56.47z"/>
		<path d="M51.44,37.808l11.7-10.482c-2.932-1.642-5.298-4.251-6.596-7.516L44.083,30.973C47.276,32.348,49.859,34.786,51.44,37.808
			z"/>
		<path d="M56.33,9H40.572c1.18,4,1.12,7,0.003,10h15.75c-0.191,0-0.361-1.098-0.491-1.672C55.178,14.453,55.411,12,56.33,9z"/>
	</g>
	<g>
		<path d="M25.233,78.348c-4.091-5.896-12.189-7.365-18.089-3.271c-5.9,4.087-7.365,12.184-3.276,18.086
			c4.093,5.896,12.188,7.361,18.088,3.272C27.857,92.346,29.322,84.248,25.233,78.348z"/>
	</g>
</g>
</svg>
