<?xml version="1.0" encoding="utf-8"?>
<!-- Generator: Adobe Illustrator 16.0.0, SVG Export Plug-In . SVG Version: 6.00 Build 0)  -->
<!DOCTYPE svg PUBLIC "-//W3C//DTD SVG 1.1//EN" "http://www.w3.org/Graphics/SVG/1.1/DTD/svg11.dtd">
<svg version="1.1" xmlns="http://www.w3.org/2000/svg" xmlns:xlink="http://www.w3.org/1999/xlink" x="0px" y="0px" width="100px"
	 height="100px" viewBox="0 0 100 100" enable-background="new 0 0 100 100" xml:space="preserve">
<g id="Layer_3" display="none">
</g>
<g id="Your_Icon">
</g>
<g id="Layer_4">
	<rect x="45" y="36.5" width="10" height="30"/>
	<rect x="45" y="73" width="10" height="11"/>
	<path d="M95,99.849H5c-1.734,0-3.345-0.898-4.255-2.374c-0.911-1.476-0.992-3.318-0.214-4.868l45-89.697
		c0.848-1.69,2.577-2.758,4.469-2.758s3.621,1.067,4.469,2.758l45,89.697c0.778,1.55,0.697,3.392-0.214,4.868
		C98.345,98.95,96.734,99.849,95,99.849z M13.103,89.849h73.795L50,16.302L13.103,89.849z"/>
</g>
</svg>
