<?xml version="1.0" encoding="utf-8"?>
<!-- Generator: Adobe Illustrator 16.0.0, SVG Export Plug-In . SVG Version: 6.00 Build 0)  -->
<!DOCTYPE svg PUBLIC "-//W3C//DTD SVG 1.1//EN" "http://www.w3.org/Graphics/SVG/1.1/DTD/svg11.dtd">
<svg version="1.1" xmlns="http://www.w3.org/2000/svg" xmlns:xlink="http://www.w3.org/1999/xlink" x="0px" y="0px" width="100px"
	 height="100px" viewBox="0 0 100 100" enable-background="new 0 0 100 100" xml:space="preserve">
<g id="Layer_3" display="none">
</g>
<g id="Your_Icon">
</g>
<g id="Layer_4">
	<g>
		<path fill="none" d="M66,38c0-15.466-12.535-28-28-28S10,22.534,10,38c0,15.46,12.535,28,28,28S66,53.46,66,38z M56,43H20V33h36
			V43z"/>
		<rect x="20" y="33" width="36" height="10"/>
		<path d="M99.243,90.757L68.759,60.274C73.308,54.01,76,46.315,76,38C76,17.047,58.953,0,38,0S0,17.047,0,38s17.047,38,38,38
			c8.315,0,16.01-2.692,22.274-7.241l30.483,30.483L99.243,90.757z M10,38c0-15.466,12.535-28,28-28s28,12.534,28,28
			c0,15.46-12.535,28-28,28S10,53.46,10,38z"/>
	</g>
</g>
</svg>
