<?xml version="1.0" encoding="utf-8"?>
<!-- Generator: Adobe Illustrator 16.0.0, SVG Export Plug-In . SVG Version: 6.00 Build 0)  -->
<!DOCTYPE svg PUBLIC "-//W3C//DTD SVG 1.1//EN" "http://www.w3.org/Graphics/SVG/1.1/DTD/svg11.dtd">
<svg version="1.1" xmlns="http://www.w3.org/2000/svg" xmlns:xlink="http://www.w3.org/1999/xlink" x="0px" y="0px" width="100px"
	 height="100px" viewBox="0 0 100 100" enable-background="new 0 0 100 100" xml:space="preserve">
<g id="Layer_3" display="none">
</g>
<g id="Your_Icon">
</g>
<g id="Layer_4">
	<g>
		<path fill="none" d="M72.593,32.753C72.856,34.13,73,35.549,73,37.001C73,49.407,62.906,59.5,50.5,59.5S28,49.407,28,37.001
			c0-1.376,0.131-2.722,0.368-4.03C18.688,40.819,11,50,11,50s23.431,28,40,28c16.568,0,38-28,38-28S81.835,40.648,72.593,32.753z"
			/>
		<path d="M96.94,43.922c-0.238-0.312-5.941-7.729-13.869-15.2C71.129,17.47,60.639,12,51,12c-9.514,0-20.253,5.398-32.832,16.504
			C9.77,35.918,3.59,43.273,3.331,43.582c-3.108,3.715-3.108,9.121,0,12.836c0.259,0.309,6.438,7.664,14.837,15.078
			C30.747,82.602,41.486,88,51,88c9.639,0,20.129-5.47,32.071-16.722c7.928-7.471,13.631-14.888,13.869-15.2
			C99.687,52.491,99.687,47.509,96.94,43.922z M50.5,24.5c6.895,0,12.5,5.595,12.5,12.501C63,43.904,57.395,49.5,50.5,49.5
			c-6.907,0-12.5-5.596-12.5-12.499C38,30.095,43.593,24.5,50.5,24.5z M51,78c-16.569,0-40-28-40-28s7.688-9.181,17.368-17.029
			C28.131,34.279,28,35.625,28,37.001C28,49.407,38.094,59.5,50.5,59.5S73,49.407,73,37.001c0-1.452-0.144-2.871-0.407-4.248
			C81.835,40.648,89,50,89,50S67.568,78,51,78z"/>
	</g>
</g>
</svg>
