<?xml version="1.0" encoding="utf-8"?>
<!-- Generator: Adobe Illustrator 16.0.0, SVG Export Plug-In . SVG Version: 6.00 Build 0)  -->
<!DOCTYPE svg PUBLIC "-//W3C//DTD SVG 1.1//EN" "http://www.w3.org/Graphics/SVG/1.1/DTD/svg11.dtd">
<svg version="1.1" xmlns="http://www.w3.org/2000/svg" xmlns:xlink="http://www.w3.org/1999/xlink" x="0px" y="0px" width="64px"
	 height="100px" viewBox="0 0 64 100" enable-background="new 0 0 64 100" xml:space="preserve">
<g id="Layer_3" display="none">
	<g display="inline" opacity="0.31">
		<path d="M5,12c-1.06,0-2.076-0.42-2.826-1.169C1.422,10.08,1,9.062,1,8v-56c0-2.209,1.791-4,4-4h56c2.209,0,4,1.791,4,4V7.92
			c0,2.207-1.788,3.997-3.994,4C61.006,11.92,5.002,12,5,12z"/>
		<path d="M61-48V7.92L5,8v-56H61 M61-56H5c-4.418,0-8,3.582-8,8V8c0,2.124,0.844,4.16,2.347,5.661C0.847,15.159,2.88,16,5,16
			c0.004,0,0.008,0,0.011,0l56-0.08c4.414-0.006,7.989-3.586,7.989-8V-48C69-52.418,65.418-56,61-56L61-56z"/>
	</g>
</g>
<g id="Your_Icon">
</g>
<g id="Layer_4">
	<rect y="45" width="64" height="10"/>
</g>
</svg>
