<?xml version="1.0" encoding="utf-8"?>
<!-- Generator: Adobe Illustrator 16.0.0, SVG Export Plug-In . SVG Version: 6.00 Build 0)  -->
<!DOCTYPE svg PUBLIC "-//W3C//DTD SVG 1.1//EN" "http://www.w3.org/Graphics/SVG/1.1/DTD/svg11.dtd">
<svg version="1.1" xmlns="http://www.w3.org/2000/svg" xmlns:xlink="http://www.w3.org/1999/xlink" x="0px" y="0px" width="100px"
	 height="100px" viewBox="0 0 100 100" enable-background="new 0 0 100 100" xml:space="preserve">
<g id="Layer_3" display="none">
</g>
<g id="Your_Icon">
</g>
<g id="Layer_4">
	<g>
		<path fill="none" d="M49.974,22.25c-5.075,0.001-10.214,1.381-14.833,4.272c-13.103,8.207-17.076,25.481-8.866,38.59
			c5.312,8.481,14.429,13.138,23.754,13.138c5.075,0,10.212-1.38,14.832-4.271c13.103-8.206,17.072-25.485,8.87-38.586
			C68.415,26.905,59.299,22.25,49.974,22.25z M65.495,58.705l-16-0.017c-1.326-0.001-2.597-0.529-3.534-1.469
			c-0.937-0.938-1.462-2.211-1.46-3.537l0.026-23.889l10,0.012l-0.021,18.888l11,0.012L65.495,58.705z"/>
		<path d="M85.278,32.273l2.646-2.648c4.654-4.654,4.801-12.084,0.325-16.925c-0.061-0.065-0.928-0.935-1.25-1.257L86.9,11.346
			c-0.076-0.075-1.279-1.272-1.37-1.357C83.27,7.9,80.328,6.75,77.247,6.75c-3.26,0-6.325,1.269-8.637,3.578l-2.646,2.649
			c-0.637,0.638-1.033,1.409-1.253,2.221C60.132,13.285,55,12,50,12l0,0h-0.027c-5.059,0-10.031,1.156-14.662,3.102
			c-0.219-0.822-0.629-1.541-1.274-2.187l-2.651-2.623c-2.307-2.305-5.372-3.558-8.632-3.558c-3.081,0-6.023,1.158-8.297,3.259
			c-0.078,0.072-1.281,1.273-1.356,1.349l-0.099,0.1c-0.323,0.322-1.19,1.192-1.259,1.268c-4.467,4.831-4.321,12.262,0.335,16.918
			l2.645,2.646c0.39,0.391,0.847,0.691,1.332,0.932c-5.735,11.47-5.545,25.575,1.746,37.215c2.936,4.688,6.771,8.57,11.201,11.512
			V100h10V86.621c3.521,1.058,7.224,1.629,11.029,1.629c3.738,0,7.428-0.566,10.971-1.64V100h10V81.902
			c16.085-10.666,21.508-31.694,12.953-48.701C84.436,32.961,84.891,32.662,85.278,32.273z M64.86,73.979
			c-4.619,2.892-9.757,4.271-14.832,4.271c-9.326,0-18.442-4.656-23.754-13.138c-8.21-13.108-4.236-30.383,8.866-38.59
			c4.619-2.892,9.758-4.271,14.833-4.272c9.326,0,18.441,4.655,23.757,13.143C81.933,48.493,77.963,65.772,64.86,73.979z"/>
		<path d="M54.526,29.806l-10-0.012L44.5,53.683c-0.001,1.326,0.524,2.599,1.46,3.537c0.937,0.939,2.208,1.468,3.534,1.469l16,0.017
			l0.011-10l-11-0.012L54.526,29.806z"/>
	</g>
</g>
</svg>
