<?xml version="1.0" encoding="utf-8"?>
<!-- Generator: Adobe Illustrator 16.0.0, SVG Export Plug-In . SVG Version: 6.00 Build 0)  -->
<!DOCTYPE svg PUBLIC "-//W3C//DTD SVG 1.1//EN" "http://www.w3.org/Graphics/SVG/1.1/DTD/svg11.dtd">
<svg version="1.1" xmlns="http://www.w3.org/2000/svg" xmlns:xlink="http://www.w3.org/1999/xlink" x="0px" y="0px" width="100px"
	 height="100px" viewBox="0 0 100 100" enable-background="new 0 0 100 100" xml:space="preserve">
<g id="Layer_3" display="none">
</g>
<g id="Your_Icon">
</g>
<g id="Layer_4">
	<g>
		<rect x="50" y="44" fill="none" width="18" height="8"/>
		<path fill="none" d="M20,73.5V29h-8v61h59V79H25C22.238,79,20,76.262,20,73.5z"/>
		<path fill="none" d="M30,69h58V10H30V69z M40,17h38v10H40V17z M79,58c0,2.762-2.238,5-5,5H45c-2.762,0-5-2.238-5-5V39
			c0-2.762,2.238-5,5-5h29c2.762,0,5,2.238,5,5V58z"/>
		<path d="M93,0H25c-2.762,0-5,1.738-5,4.5V19H7c-2.762,0-5,2.238-5,5v70.5c0,2.762,2.238,5.5,5,5.5h69c2.762,0,5-2.738,5-5.5V79h12
			c2.762,0,5-2.738,5-5.5v-69C98,1.738,95.762,0,93,0z M71,90H12V29h8v44.5c0,2.762,2.238,5.5,5,5.5h46V90z M88,69H30V10h58V69z"/>
		<path d="M78,39c0-2.762-2.238-5-5-5H45c-2.762,0-5,2.238-5,5v19c0,2.762,2.238,5,5,5h28c2.762,0,5-2.238,5-5V39z M50,44h17v8H50
			V44z"/>
		<rect x="40" y="17" width="38" height="10"/>
	</g>
</g>
</svg>
