<?xml version="1.0" encoding="utf-8"?>
<!-- Generator: Adobe Illustrator 16.0.0, SVG Export Plug-In . SVG Version: 6.00 Build 0)  -->
<!DOCTYPE svg PUBLIC "-//W3C//DTD SVG 1.1//EN" "http://www.w3.org/Graphics/SVG/1.1/DTD/svg11.dtd">
<svg version="1.1" xmlns="http://www.w3.org/2000/svg" xmlns:xlink="http://www.w3.org/1999/xlink" x="0px" y="0px" width="100px"
	 height="100px" viewBox="0 0 100 100" enable-background="new 0 0 100 100" xml:space="preserve">
<g id="Layer_3" display="none">
</g>
<g id="Your_Icon">
</g>
<g id="Layer_4">
	<g>
		<path fill="none" d="M49.976,22c-5.076,0-10.214,1.381-14.833,4.273c-13.107,8.207-17.078,25.48-8.867,38.587
			C31.587,73.345,40.702,78,50.027,78c5.075,0,10.213-1.38,14.831-4.272c13.107-8.206,17.073-25.485,8.871-38.582
			C68.415,26.655,59.3,22,49.976,22z M64.495,58.455l-16-0.017c-1.326-0.001-2.597-0.529-3.534-1.469
			c-0.937-0.938-1.462-2.211-1.46-3.537l0.026-23.889l10,0.012l-0.021,18.888l11,0.012L64.495,58.455z"/>
		<path d="M49.978,12h-0.002c-7.121,0.001-14.085,2.006-20.141,5.799c-8.603,5.386-14.593,13.8-16.866,23.691
			c-2.273,9.891-0.557,20.076,4.832,28.679C24.791,81.333,36.839,88,50.027,88c7.12,0,14.083-2.005,20.139-5.798
			c8.601-5.385,14.591-13.799,16.865-23.692c2.272-9.891,0.559-20.073-4.827-28.672C75.213,18.669,63.165,12,49.978,12z
			 M64.858,73.728C60.24,76.62,55.102,78,50.027,78c-9.325,0-18.44-4.655-23.752-13.14c-8.211-13.106-4.24-30.38,8.867-38.587
			C39.761,23.381,44.9,22,49.976,22c9.324,0,18.439,4.655,23.754,13.146C81.932,48.242,77.966,65.521,64.858,73.728z"/>
		<path d="M53.526,29.556l-10-0.012L43.5,53.433c-0.001,1.326,0.524,2.599,1.46,3.537c0.937,0.939,2.208,1.468,3.534,1.469l16,0.017
			l0.011-10l-11-0.012L53.526,29.556z"/>
	</g>
</g>
</svg>
