<?xml version="1.0" encoding="utf-8"?>
<!-- Generator: Adobe Illustrator 16.0.0, SVG Export Plug-In . SVG Version: 6.00 Build 0)  -->
<!DOCTYPE svg PUBLIC "-//W3C//DTD SVG 1.1//EN" "http://www.w3.org/Graphics/SVG/1.1/DTD/svg11.dtd">
<svg version="1.1" xmlns="http://www.w3.org/2000/svg" xmlns:xlink="http://www.w3.org/1999/xlink" x="0px" y="0px" width="100px"
	 height="100px" viewBox="0 0 100 100" enable-background="new 0 0 100 100" xml:space="preserve">
<g id="Layer_3" display="none">
</g>
<g id="Your_Icon">
</g>
<g id="Layer_4">
	<g>
		<polygon fill="none" points="10,89.496 90,89.434 90,45 10,45 		"/>
		<path d="M95,35H5c-2.762,0-5,1.738-5,4.5v55c0,1.327,0.527,2.849,1.466,3.787C2.403,99.224,3.675,100,5,100
			c0.001,0,0.003,0,0.003,0h90.001c2.76-0.002,4.996-2.49,4.996-5.25V39.5C100,36.738,97.762,35,95,35z M90,89.434l-80,0.062V45h80
			V89.434z"/>
	</g>
	<path d="M72.5,32.008h-10V26.18c0-3.748-2.305-7.057-5.508-7.949c-0.933-0.09-4.13-0.192-6.75-0.237
		c-2.533,0.029-5.592,0.098-6.449,0.16c-3.598,0.789-6.293,4.209-6.293,8.026v5.828h-10V26.18c0-8.568,6.251-16.253,14.54-17.875
		c0.416-0.081,1.185-0.23,8.156-0.312c0.047,0.001,0.095-0.001,0.143,0.001c7.432,0.124,8.364,0.355,8.865,0.479
		C67.03,10.403,72.5,17.686,72.5,26.18V32.008z"/>
</g>
</svg>
