<?xml version="1.0" encoding="utf-8"?>
<!-- Generator: Adobe Illustrator 16.0.0, SVG Export Plug-In . SVG Version: 6.00 Build 0)  -->
<!DOCTYPE svg PUBLIC "-//W3C//DTD SVG 1.1//EN" "http://www.w3.org/Graphics/SVG/1.1/DTD/svg11.dtd">
<svg version="1.1" xmlns="http://www.w3.org/2000/svg" xmlns:xlink="http://www.w3.org/1999/xlink" x="0px" y="0px" width="100px"
	 height="100px" viewBox="0 0 100 100" enable-background="new 0 0 100 100" xml:space="preserve">
<g id="Layer_3" display="none">
</g>
<g id="Your_Icon">
</g>
<g id="Layer_4">
	<path d="M49.976,22c9.324,0,18.438,4.655,23.754,13.146c8.202,13.097,4.236,30.376-8.871,38.582C60.24,76.62,55.102,78,50.027,78
		c-9.325,0-18.439-4.655-23.752-13.14c-8.211-13.106-4.24-30.38,8.867-38.587C39.762,23.381,44.9,22,49.976,22 M49.978,12h-0.003
		c-7.12,0.001-14.084,2.006-20.141,5.799c-8.602,5.386-14.592,13.8-16.865,23.691c-2.273,9.891-0.557,20.076,4.832,28.679
		C24.791,81.333,36.839,88,50.027,88c7.119,0,14.084-2.005,20.139-5.798c8.602-5.385,14.592-13.799,16.865-23.692
		c2.272-9.891,0.559-20.073-4.826-28.672C75.213,18.669,63.164,12,49.978,12L49.978,12z"/>
	<path d="M65.494,55.405l-16-0.017c-1.326-0.001-2.598-0.529-3.533-1.469c-0.938-0.938-1.463-2.211-1.461-3.537l0.027-21.789
		l10,0.012l-0.021,16.788l11,0.012L65.494,55.405z"/>
</g>
</svg>
