<?xml version="1.0" encoding="utf-8"?>
<!-- Generator: Adobe Illustrator 16.0.0, SVG Export Plug-In . SVG Version: 6.00 Build 0)  -->
<!DOCTYPE svg PUBLIC "-//W3C//DTD SVG 1.1//EN" "http://www.w3.org/Graphics/SVG/1.1/DTD/svg11.dtd">
<svg version="1.1" xmlns="http://www.w3.org/2000/svg" xmlns:xlink="http://www.w3.org/1999/xlink" x="0px" y="0px" width="100px"
	 height="100px" viewBox="0 0 100 100" enable-background="new 0 0 100 100" xml:space="preserve">
<g id="Layer_3" display="none">
</g>
<g id="Your_Icon">
	<g>
		<g opacity="0.6">
			<path d="M52.807,28.68c-0.122,0.237-0.277,0.573-0.456,0.99c0.17-0.366,0.323-0.658,0.453-0.907
				C52.805,28.727,52.806,28.702,52.807,28.68z"/>
			<path d="M52.807,28.68h0.005H52.807z M52.807,28.68c-0.122,0.237-0.277,0.573-0.456,0.99c0.17-0.366,0.323-0.658,0.453-0.907
				C52.805,28.727,52.806,28.702,52.807,28.68L52.807,28.68z"/>
		</g>
		<g>
			<path d="M98.5,20.9c-3.3,2.3-8.082,3.466-10.3,4.1C93.8,23.4,96,16.9,96,16.9c-2,0.801-9.2,3.199-9.184,3.195
				c-2.679-6.369-8.97-10.838-16.311-10.838c-9.762,0-17.191,8.989-17.679,18.742c-0.009,0.202-16.964,6.388-44.079-17.186
				c0,0-7.069,22.397,9.436,25.925c1.845,0.395-12.962,1.176-12.962,1.176s2.351,15.328,12.962,14.152
				c2.618-0.291-9.436,4.703-9.436,4.703s9.323,23.35,22.121,18.946C20.016,86.239,0.503,86.236,0.503,86.236
				c15.315,14.147,49.379,9.137,64.109-1.608C95.254,62.297,88.9,30.9,88.9,30.9C94,29.4,98.583,20.843,98.5,20.9z"/>
			<path d="M70.505,13.258c5.525,0,10.48,3.293,12.624,8.389l1.569,3.73l3.211-1.396L88.2,25l0.472,1.65
				c-0.31,0.187-0.611,0.327-0.9,0.412l-3.496,1.041l0.701,3.578c0.014,0.073,1.412,7.445-0.717,17.226
				c-2.825,12.976-10.228,23.906-22.005,32.489c-7.816,5.701-21.561,9.531-34.202,9.531c-5.643,0-10.764-0.755-15.126-2.191
				c6.699-1.471,14.781-4.383,20.727-10.147l12.884-12.493l-16.97,5.839c-0.656,0.226-1.286,0.335-1.926,0.335
				c-5.42,0-10.691-7.937-13.516-13.408c7.056-2.992,8.997-4.285,8.352-7.526c-0.384-1.932-2.073-3.28-4.107-3.28
				c-0.201,0-0.407,0.013-0.628,0.037c-0.24,0.026-0.476,0.04-0.702,0.04c-0.861,0-3.481,0-5.866-4.736
				c-0.3-0.595-0.56-1.196-0.784-1.777c0.541-0.034,1.097-0.071,1.651-0.109c1.943-0.133,3.501-0.257,4.632-0.369
				c2.013-0.2,5.381-0.535,5.656-4.01c0.139-1.757-0.953-3.798-3.311-4.303c-2.845-0.607-4.834-1.941-6.083-4.076
				c-1.718-2.938-1.885-7.061-1.544-10.59C26.961,30.197,39.116,32.879,46.85,32.879c2.382,0,4.176-0.271,5.262-0.498
				c1.367-0.285,4.569-0.955,4.71-4.182c0.193-3.873,1.772-7.717,4.332-10.543C63.721,14.82,67.042,13.258,70.505,13.258
				 M70.505,9.258c-9.762,0-17.191,8.989-17.679,18.742c-0.003,0.071-2.094,0.879-5.977,0.879c-7.183,0-20.502-2.763-38.103-18.064
				c0,0-7.069,22.397,9.436,25.925c1.845,0.395-12.962,1.176-12.962,1.176s2.182,14.217,11.82,14.217
				c0.371,0,0.75-0.021,1.143-0.064c0.074-0.008,0.137-0.013,0.188-0.013c1.759,0-9.623,4.716-9.623,4.716
				S16.533,76.27,27.641,76.27c1.047,0,2.124-0.173,3.227-0.553C20.016,86.239,0.503,86.236,0.503,86.236
				c6.673,6.164,16.907,8.691,27.55,8.691c13.781,0,28.248-4.236,36.56-10.3C95.254,62.297,88.9,30.9,88.9,30.9
				c5.083-1.495,9.652-10,9.601-10c0,0,0,0,0,0c-3.3,2.3-8.082,3.466-10.3,4.1C93.8,23.4,96,16.9,96,16.9
				c-1.996,0.799-9.169,3.189-9.184,3.195l0,0l0,0l0,0C84.137,13.727,77.846,9.258,70.505,9.258L70.505,9.258z"/>
		</g>
	</g>
</g>
<g id="Layer_4">
	<path fill="none" stroke="#000000" stroke-width="10" stroke-linecap="square" stroke-miterlimit="10" d="M61,54"/>
</g>
</svg>
