<?xml version="1.0" encoding="utf-8"?>
<!-- Generator: Adobe Illustrator 16.0.0, SVG Export Plug-In . SVG Version: 6.00 Build 0)  -->
<!DOCTYPE svg PUBLIC "-//W3C//DTD SVG 1.1//EN" "http://www.w3.org/Graphics/SVG/1.1/DTD/svg11.dtd">
<svg version="1.1" xmlns="http://www.w3.org/2000/svg" xmlns:xlink="http://www.w3.org/1999/xlink" x="0px" y="0px" width="100px"
	 height="100px" viewBox="0 0 100 100" enable-background="new 0 0 100 100" xml:space="preserve">
<g id="Layer_3" display="none">
	<circle display="inline" fill="none" stroke="#000000" stroke-width="0.25" stroke-miterlimit="10" cx="50" cy="50" r="15.134"/>
	<polyline display="inline" opacity="0.26" points="94,6 6,6 6,94 94,94 	"/>
	<circle display="inline" fill="none" stroke="#000000" stroke-width="0.25" stroke-miterlimit="10" cx="50" cy="50" r="24"/>
	<circle display="inline" fill="none" stroke="#000000" stroke-width="0.25" stroke-miterlimit="10" cx="50" cy="50" r="30"/>
	<circle display="inline" fill="none" stroke="#000000" stroke-width="0.25" stroke-miterlimit="10" cx="50" cy="50" r="9.134"/>
	<path display="inline" fill="none" stroke="#000000" stroke-width="0.25" stroke-miterlimit="10" d="M0,50C0,22.386,22.389,0,50,0
		c27.612,0,50,22.386,50,50"/>
	<path display="inline" fill="none" stroke="#000000" stroke-width="0.25" stroke-miterlimit="10" d="M100,50
		c0,27.614-22.388,50-50,50C22.389,100,0,77.614,0,50"/>
</g>
<g id="Your_Icon">
</g>
<g id="Layer_4">
	<path d="M83.397,30.982c-0.001,0-0.003,0-0.005,0c-2.209-0.001-3.999-1.792-3.999-4.001s1.792-3.999,4-3.999c0,0,0.001,0,0.003,0
		c1.974,0,3.832-0.776,5.232-2.188c1.408-1.418,2.184-3.306,2.184-5.313c0-4.137-3.329-7.504-7.42-7.505H50c-2.209,0-4-1.791-4-4
		s1.791-4,4-4h33.394c8.502,0.003,15.419,6.958,15.419,15.505c0,4.134-1.6,8.022-4.505,10.949
		C91.394,29.366,87.52,30.982,83.397,30.982z"/>
	<path d="M16.228,53.988c-4.123,0-7.997-1.616-10.91-4.552c-2.905-2.928-4.505-6.816-4.505-10.949
		c0-8.548,6.917-15.504,15.418-15.505h67.62c2.209,0,4,1.791,4,4s-1.791,4-4,4h-67.62c-4.09,0.001-7.419,3.367-7.419,7.505
		c0,2.008,0.775,3.895,2.184,5.313c1.4,1.411,3.258,2.188,5.232,2.188c0.002,0,0.002,0,0.003,0c2.208,0,4,1.79,4,3.999
		s-1.79,4-3.999,4.001C16.231,53.988,16.229,53.988,16.228,53.988z"/>
	<path d="M83.397,76.994c-0.001,0-0.003,0-0.005,0c-2.209-0.001-3.999-1.792-3.999-4.001s1.792-3.999,4-3.999
		c0-0.001,0.001-0.001,0.003,0c1.974,0,3.832-0.776,5.232-2.188c1.408-1.419,2.184-3.306,2.184-5.313
		c0-4.138-3.329-7.504-7.419-7.505H15.774c-2.209,0-4-1.791-4-4s1.791-4,4-4h67.62c8.502,0.001,15.419,6.957,15.419,15.505
		c0,4.133-1.6,8.021-4.505,10.949C91.394,75.378,87.519,76.994,83.397,76.994z"/>
	<path d="M16.227,100c-4.121,0-7.995-1.616-10.909-4.552c-2.905-2.928-4.505-6.816-4.505-10.949c0-8.548,6.917-15.504,15.418-15.505
		h67.62c2.209,0,4,1.791,4,4s-1.791,4-4,4h-67.62c-4.09,0.001-7.419,3.367-7.419,7.505c0,2.008,0.775,3.895,2.184,5.313
		c1.4,1.411,3.258,2.188,5.232,2.188c0.001,0,0.001,0,0.002,0H50c2.209,0,4,1.791,4,4s-1.791,4-4,4H16.231
		C16.23,100,16.228,100,16.227,100z"/>
</g>
</svg>
