<?xml version="1.0" encoding="utf-8"?>
<!-- Generator: Adobe Illustrator 16.0.0, SVG Export Plug-In . SVG Version: 6.00 Build 0)  -->
<!DOCTYPE svg PUBLIC "-//W3C//DTD SVG 1.1//EN" "http://www.w3.org/Graphics/SVG/1.1/DTD/svg11.dtd">
<svg version="1.1" xmlns="http://www.w3.org/2000/svg" xmlns:xlink="http://www.w3.org/1999/xlink" x="0px" y="0px" width="100px"
	 height="100px" viewBox="0 0 100 100" enable-background="new 0 0 100 100" xml:space="preserve">
<g id="Layer_3" display="none">
	<g display="inline" opacity="0.31">
		<path d="M-48,12c-1.06,0-2.076-0.42-2.826-1.169C-51.578,10.08-52,9.062-52,8v-56c0-2.209,1.791-4,4-4H8c2.209,0,4,1.791,4,4V7.92
			c0,2.207-1.788,3.997-3.994,4C8.006,11.92-47.998,12-48,12z"/>
		<path d="M8-48V7.92L-48,8v-56H8 M8-56h-56c-4.418,0-8,3.582-8,8V8c0,2.124,0.844,4.16,2.347,5.661C-52.153,15.159-50.12,16-48,16
			c0.004,0,0.008,0,0.011,0l56-0.08c4.414-0.006,7.989-3.586,7.989-8V-48C16-52.418,12.418-56,8-56L8-56z"/>
	</g>
	<g display="inline" opacity="0.31">
		<path d="M92,12c-1.06,0-2.076-0.42-2.826-1.169C88.422,10.08,88,9.062,88,8v-56c0-2.209,1.791-4,4-4h56c2.209,0,4,1.791,4,4V7.92
			c0,2.207-1.788,3.997-3.994,4C148.006,11.92,92.002,12,92,12z"/>
		<path d="M148-48V7.92L92,8v-56H148 M148-56H92c-4.418,0-8,3.582-8,8V8c0,2.124,0.844,4.16,2.347,5.661
			C87.847,15.159,89.88,16,92,16c0.004,0,0.008,0,0.011,0l56-0.08c4.414-0.006,7.989-3.586,7.989-8V-48
			C156-52.418,152.418-56,148-56L148-56z"/>
	</g>
</g>
<g id="Your_Icon">
</g>
<g id="Layer_4">
	<rect x="17" y="45" transform="matrix(0.7073 0.7069 -0.7069 0.7073 49.9793 -20.7107)" width="66" height="10"/>
	<rect x="45" y="17" transform="matrix(0.7071 0.7071 -0.7071 0.7071 50 -20.7107)" width="10" height="66"/>
</g>
</svg>
