<?xml version="1.0" encoding="utf-8"?>
<!-- Generator: Adobe Illustrator 16.0.0, SVG Export Plug-In . SVG Version: 6.00 Build 0)  -->
<!DOCTYPE svg PUBLIC "-//W3C//DTD SVG 1.1//EN" "http://www.w3.org/Graphics/SVG/1.1/DTD/svg11.dtd">
<svg version="1.1" xmlns="http://www.w3.org/2000/svg" xmlns:xlink="http://www.w3.org/1999/xlink" x="0px" y="0px" width="100px"
	 height="100px" viewBox="0 0 100 100" enable-background="new 0 0 100 100" xml:space="preserve">
<g id="Layer_3">
</g>
<g id="Your_Icon">
</g>
<g id="Layer_4">
	<g>
		<path d="M78,8v84H22V8H78 M78,0H22c-4.418,0-8,3.582-8,8v84c0,4.418,3.582,8,8,8h56c4.418,0,8-3.582,8-8V8C86,3.582,82.418,0,78,0
			L78,0z"/>
	</g>
	<g>
		<path d="M69,20c0-2.209-1.791-4-4-4H35c-2.209,0-4,1.791-4,4v40c0,2.209,1.791,4,4,4h30c2.209,0,4-1.791,4-4V20z M61,56H39V24h22
			V56z"/>
	</g>
	<g>
		<path d="M56.9,78.5c0,3.865-3.134,7-7.001,7c-3.858,0-6.999-3.135-6.999-7s3.141-7,6.999-7C53.769,71.5,56.9,74.635,56.9,78.5z"/>
	</g>
</g>
</svg>
