<?xml version="1.0" encoding="utf-8"?>
<!-- Generator: Adobe Illustrator 16.0.0, SVG Export Plug-In . SVG Version: 6.00 Build 0)  -->
<!DOCTYPE svg PUBLIC "-//W3C//DTD SVG 1.1//EN" "http://www.w3.org/Graphics/SVG/1.1/DTD/svg11.dtd">
<svg version="1.1" xmlns="http://www.w3.org/2000/svg" xmlns:xlink="http://www.w3.org/1999/xlink" x="0px" y="0px" width="100px"
	 height="100px" viewBox="0 0 100 100" enable-background="new 0 0 100 100" xml:space="preserve">
<g id="Layer_3" display="none">
</g>
<g id="Your_Icon">
</g>
<g id="Layer_4">
	<path d="M80,100H20c-2.762,0-5-2.238-5-5V5c0-2.762,2.238-5,5-5h60c2.762,0,5,2.238,5,5v21.2H75V10H25v80h50V76.8h10V95
		C85,97.762,82.762,100,80,100z"/>
	<path d="M50.903,57.406c-10.864,0-19.703-8.838-19.703-19.7C31.2,26.84,40.039,18,50.903,18c10.865,0,19.704,8.84,19.704,19.706
		C70.607,48.568,61.769,57.406,50.903,57.406z M50.903,28c-5.351,0-9.703,4.354-9.703,9.706c0,5.349,4.353,9.7,9.703,9.7
		s9.704-4.352,9.704-9.7C60.607,32.354,56.254,28,50.903,28z"/>
	<rect x="52.768" y="51.573" transform="matrix(0.7013 0.7128 -0.7128 0.7013 60.7623 -31.8795)" width="31.315" height="10.001"/>
</g>
</svg>
