<?xml version="1.0" encoding="utf-8"?>
<!-- Generator: Adobe Illustrator 16.0.0, SVG Export Plug-In . SVG Version: 6.00 Build 0)  -->
<!DOCTYPE svg PUBLIC "-//W3C//DTD SVG 1.0//EN" "http://www.w3.org/TR/2001/REC-SVG-20010904/DTD/svg10.dtd">
<svg version="1.0" xmlns="http://www.w3.org/2000/svg" xmlns:xlink="http://www.w3.org/1999/xlink" x="0px" y="0px" width="100px"
	 height="100px" viewBox="0 0 100 100" enable-background="new 0 0 100 100" xml:space="preserve">
<g id="Layer_3">
</g>
<g id="Your_Icon">
</g>
<g id="Layer_4">
	<g>
		<g>
			<g>
				<path d="M90.7,8.4v10.506c-0.018,0-0.037,0-0.054,0c-11.515-0.001-13.446,11.8-13.446,11.8v10.755h14v10h-14v39.982h-11V51.461
					h-15v-10h15V31.043C66.2,10.743,90.7,8.4,90.7,8.4 M90.701,0.4c-0.253,0-0.507,0.012-0.762,0.036
					c-0.782,0.075-7.851,0.838-15.123,4.546C64.101,10.446,58.2,19.701,58.2,31.043v2.418h-7c-4.418,0-8,3.582-8,8v10
					c0,4.418,3.582,8,8,8h7v31.982c0,4.418,3.582,8,8,8h11c4.418,0,8-3.582,8-8V59.461h6c4.418,0,8-3.582,8-8v-10
					c0-4.418-3.582-8-8-8h-6v-1.894c0.454-1.733,1.766-4.661,5.445-4.661c0.009,0,0.018,0,0.026,0c2.117,0,4.162-0.839,5.662-2.334
					c1.506-1.501,2.367-3.54,2.367-5.666V8.4c0-2.254-0.951-4.403-2.619-5.92C94.602,1.136,92.681,0.4,90.701,0.4L90.701,0.4z"/>
			</g>
		</g>
	</g>
</g>
</svg>
