<?xml version="1.0" encoding="utf-8"?>
<!-- Generator: Adobe Illustrator 16.0.0, SVG Export Plug-In . SVG Version: 6.00 Build 0)  -->
<!DOCTYPE svg PUBLIC "-//W3C//DTD SVG 1.0//EN" "http://www.w3.org/TR/2001/REC-SVG-20010904/DTD/svg10.dtd">
<svg version="1.0" xmlns="http://www.w3.org/2000/svg" xmlns:xlink="http://www.w3.org/1999/xlink" x="0px" y="0px" width="100px"
	 height="100px" viewBox="0 0 100 100" enable-background="new 0 0 100 100" xml:space="preserve">
<g id="Layer_3">
</g>
<g id="Your_Icon">
</g>
<g id="Layer_4">
	<path d="M47,44.5H18c-2.209,0-4-1.791-4-4v-29h8v25h25V44.5z"/>
	<path d="M49.95,86.7c-15.105,0-28.711-9.539-33.855-23.736c-0.792-2.185-1.372-4.458-1.726-6.757L14.323,55h8
		c0.277,1.686,0.712,3.635,1.293,5.238C27.617,71.281,38.2,78.7,49.95,78.7c15.439,0,28-12.561,28-28s-12.561-28-28-28
		c-11.432,0-21.61,6.835-25.932,17.413l-1.513,3.703L15.1,40.791l1.513-3.703C22.169,23.488,35.255,14.7,49.95,14.7
		c19.851,0,36,16.149,36,36S69.801,86.7,49.95,86.7z"/>
</g>
</svg>
