<?xml version="1.0" encoding="utf-8"?>
<!-- Generator: Adobe Illustrator 16.0.0, SVG Export Plug-In . SVG Version: 6.00 Build 0)  -->
<!DOCTYPE svg PUBLIC "-//W3C//DTD SVG 1.1//EN" "http://www.w3.org/Graphics/SVG/1.1/DTD/svg11.dtd">
<svg version="1.1" xmlns="http://www.w3.org/2000/svg" xmlns:xlink="http://www.w3.org/1999/xlink" x="0px" y="0px" width="100px"
	 height="100px" viewBox="0 0 100 100" enable-background="new 0 0 100 100" xml:space="preserve">
<g id="Layer_3" display="none">
</g>
<g id="Your_Icon">
</g>
<g id="Layer_4">
	<path d="M25,67.55c-5.52,0-10,4.477-10,10s4.48,10,10,10c5.523,0,10-4.477,10-10S30.523,67.55,25,67.55z"/>
	<path d="M70,70.55H60c0-15.991-13.009-29-29-29v-10C52.505,31.55,70,49.045,70,70.55z"/>
	<path d="M90,70.45H80c0-27.019-21.981-49-49-49v-10C63.533,11.45,90,37.917,90,70.45z"/>
	<path d="M50.1,70.75h-10c0-4.962-4.038-9-9-9v-10C41.577,51.75,50.1,60.273,50.1,70.75z"/>
</g>
</svg>
