<?xml version="1.0" encoding="utf-8"?>
<!-- Generator: Adobe Illustrator 16.0.0, SVG Export Plug-In . SVG Version: 6.00 Build 0)  -->
<!DOCTYPE svg PUBLIC "-//W3C//DTD SVG 1.1//EN" "http://www.w3.org/Graphics/SVG/1.1/DTD/svg11.dtd">
<svg version="1.1" xmlns="http://www.w3.org/2000/svg" xmlns:xlink="http://www.w3.org/1999/xlink" x="0px" y="0px" width="100px"
	 height="100px" viewBox="0 0 100 100" enable-background="new 0 0 100 100" xml:space="preserve">
<g id="Layer_3" display="none">
	<circle display="inline" fill="none" stroke="#000000" stroke-width="0.25" stroke-miterlimit="10" cx="50" cy="51" r="15.134"/>
	<polyline display="inline" opacity="0.26" points="94,7 6,7 6,95 94,95 	"/>
	<circle display="inline" fill="none" stroke="#000000" stroke-width="0.25" stroke-miterlimit="10" cx="50" cy="51" r="24"/>
	<circle display="inline" fill="none" stroke="#000000" stroke-width="0.25" stroke-miterlimit="10" cx="50" cy="51" r="30"/>
	<circle display="inline" fill="none" stroke="#000000" stroke-width="0.25" stroke-miterlimit="10" cx="50" cy="51" r="9.134"/>
	<path display="inline" fill="none" stroke="#000000" stroke-width="0.25" stroke-miterlimit="10" d="M0,51C0,23.386,22.389,1,50,1
		c27.612,0,50,22.386,50,50"/>
	<path display="inline" fill="none" stroke="#000000" stroke-width="0.25" stroke-miterlimit="10" d="M100,51
		c0,27.614-22.388,50-50,50C22.389,101,0,78.614,0,51"/>
</g>
<g id="Your_Icon">
</g>
<g id="Layer_4">
	<path d="M77,100H9c-2.209,0-4-1.791-4-4V21c0-2.209,1.791-4,4-4h7c2.209,0,4,1.791,4,4s-1.791,4-4,4h-3v67h60v-3
		c0-2.209,1.791-4,4-4s4,1.791,4,4v7C81,98.209,79.209,100,77,100z"/>
	<path d="M96,82H28c-2.209,0-4-1.791-4-4V4c0-2.209,1.791-4,4-4h68c2.209,0,4,1.791,4,4v74C100,80.209,98.209,82,96,82z M32,74h60V8
		H32V74z"/>
	<path d="M80,69H44c-2.209,0-4-1.791-4-4V33c0-2.209,1.791-4,4-4h36c2.209,0,4,1.791,4,4v32C84,67.209,82.209,69,80,69z M48,61h28
		V37H48V61z"/>
	<path d="M80.617,23H43.384C41.515,23,40,21.209,40,19s1.515-4,3.384-4h37.233C82.482,15,84,16.791,84,19S82.482,23,80.617,23z"/>
</g>
</svg>
