<?xml version="1.0" encoding="utf-8"?>
<!-- Generator: Adobe Illustrator 16.0.0, SVG Export Plug-In . SVG Version: 6.00 Build 0)  -->
<!DOCTYPE svg PUBLIC "-//W3C//DTD SVG 1.1//EN" "http://www.w3.org/Graphics/SVG/1.1/DTD/svg11.dtd">
<svg version="1.1" xmlns="http://www.w3.org/2000/svg" xmlns:xlink="http://www.w3.org/1999/xlink" x="0px" y="0px" width="100px"
	 height="100px" viewBox="0 0 100 100" enable-background="new 0 0 100 100" xml:space="preserve">
<g id="Layer_3" display="none">
</g>
<g id="Your_Icon">
</g>
<g id="Layer_4">
	<rect y="90" width="100" height="10"/>
	<g>
		<path d="M23,0H5C2.239,0,0,2.238,0,5v73.921c0,1.332,0.531,2.647,1.477,3.587C2.414,83.439,3.68,84,5,84c0.011,0,0.022,0,0.034,0
			l18-0.16C25.782,83.82,28,81.548,28,78.8V5C28,2.238,25.761,0,23,0z"/>
		<path d="M59,25H41c-2.761,0-5,2.238-5,5v48.921c0,1.329,0.529,2.644,1.471,3.581C38.408,83.436,39.677,84,41,84
			c0.006,0,0.012,0,0.019,0l18-0.105c2.754-0.01,4.981-2.286,4.981-5.04V30C64,27.238,61.761,25,59,25z"/>
		<path d="M95,50H77c-2.761,0-5,2.238-5,5v23.921c0,1.329,0.529,2.642,1.47,3.581C74.407,83.436,75.677,84,77,84
			c0.005,0,0.011,0,0.016,0l18-0.096c2.755-0.01,4.984-2.285,4.984-5.04V55C100,52.238,97.761,50,95,50z"/>
	</g>
</g>
</svg>
