<?xml version="1.0" encoding="utf-8"?>
<!-- Generator: Adobe Illustrator 16.0.0, SVG Export Plug-In . SVG Version: 6.00 Build 0)  -->
<!DOCTYPE svg PUBLIC "-//W3C//DTD SVG 1.0//EN" "http://www.w3.org/TR/2001/REC-SVG-20010904/DTD/svg10.dtd">
<svg version="1.0" xmlns="http://www.w3.org/2000/svg" xmlns:xlink="http://www.w3.org/1999/xlink" x="0px" y="0px" width="100px"
	 height="100px" viewBox="0 0 100 100" enable-background="new 0 0 100 100" xml:space="preserve">
<g id="Layer_3">
</g>
<g id="Your_Icon">
</g>
<g id="Layer_4">
	<g>
		<path fill="none" d="M73.549,38.636c-0.386,3.556-2.921,6.521-5.736,8.767c4.045,0.742,9.614,1.014,16.425-0.504
			c-2.117-6.388-3.42-13.415-4.128-18.067C77.624,31.067,75.06,35.198,73.549,38.636z"/>
		<path fill="none" d="M31.493,70.738c1.9,0.771,4.208,1.369,6.812,1.386c2.061,0.013,3.774,1.59,3.959,3.643
			c0.333,3.597,2.321,13.299,7.084,14.956c2.647-2.928,8.694-9.975,13.579-18.331c-4.076-3.183-9.186-4.792-15.23-4.792
			C41.655,67.6,35.771,69.194,31.493,70.738z"/>
		<path d="M32.564,52.018c0.27,0.056,0.542,0.083,0.812,0.083c0.789,0,1.568-0.233,2.233-0.682c0.824-0.555,1.748-1.123,2.727-1.726
			c6.707-4.13,16.843-10.37,16.739-27.117l-8,0.049c0.076,12.246-6.538,16.317-12.934,20.256c-0.484,0.298-0.956,0.589-1.419,0.879
			c-9.078-3.441-7.489-19.255-7.472-19.415c0.125-1.121-0.229-2.243-0.976-3.09c-0.746-0.846-1.814-1.338-2.942-1.354
			c-2.824-0.04-6.709-1.597-9.949-3.21c7.655-4.682,23.723-11.386,41.567-0.2c1.188,0.744,2.68,0.813,3.93,0.18
			C57.318,16.449,67.586,10.945,67.541,0h-8c-0.141,3.967-2.703,6.94-4.565,8.389C26.107-7.852,1.541,13.909,1.29,14.137
			c-0.919,0.833-1.399,2.046-1.301,3.283c0.099,1.236,0.767,2.357,1.807,3.034c0.962,0.626,8.322,5.312,15.338,6.913
			c0.01,2.25,0.19,5.241,0.855,8.347C19.939,44.807,24.979,50.444,32.564,52.018z"/>
		<path d="M47.697,59.6c-13.73,0-26.117,6.676-26.638,6.96c-1.106,0.604-1.863,1.694-2.042,2.942
			c-0.18,1.248,0.24,2.507,1.132,3.397c0.26,0.26,5.797,5.714,14.604,6.98C36.24,88.177,40.794,99,50.782,99
			c0.013,0,0.111,0,0.124,0c1.066,0,2.085-0.463,2.828-1.227c0.435-0.446,10.711-11.076,17.772-24.328
			c0.819-1.538,0.549-3.434-0.669-4.68C64.898,62.686,57.113,59.6,47.697,59.6z M49.349,90.723
			c-4.763-1.657-6.751-11.359-7.084-14.956c-0.185-2.053-1.898-3.63-3.959-3.643c-2.604-0.017-4.912-0.614-6.812-1.386
			c4.278-1.544,10.162-3.139,16.204-3.139c6.045,0,11.154,1.609,15.23,4.792C58.043,80.748,51.996,87.795,49.349,90.723z"/>
		<path d="M92.256,45.62c-3.512-9.842-4.863-22.79-4.877-22.929C87.171,20.672,85.481,19,83.45,19c-0.045,0-0.089,0-0.134,0
			c-9.933,0-16.247,14.235-17.417,17.08c-0.198,0.482-0.3,1.049-0.3,1.57c0,1.657-4.31,5.094-8.863,7.043
			c-1.388,0.59-2.326,1.922-2.428,3.426c-0.101,1.505,0.652,2.944,1.948,3.715c0.394,0.233,7.157,4.147,18.386,4.147
			c4.479-0.001,9.672-0.623,15.449-2.351L100,53.575v-8L92.256,45.62z M67.812,47.402c2.815-2.246,5.351-5.211,5.736-8.767
			c1.511-3.438,4.075-7.568,6.561-9.805c0.708,4.652,2.011,11.68,4.128,18.067C77.427,48.416,71.857,48.145,67.812,47.402z"/>
	</g>
</g>
</svg>
