<?xml version="1.0" encoding="utf-8"?>
<!-- Generator: Adobe Illustrator 16.0.0, SVG Export Plug-In . SVG Version: 6.00 Build 0)  -->
<!DOCTYPE svg PUBLIC "-//W3C//DTD SVG 1.1//EN" "http://www.w3.org/Graphics/SVG/1.1/DTD/svg11.dtd">
<svg version="1.1" xmlns="http://www.w3.org/2000/svg" xmlns:xlink="http://www.w3.org/1999/xlink" x="0px" y="0px" width="100px"
	 height="100px" viewBox="0 0 100 100" enable-background="new 0 0 100 100" xml:space="preserve">
<g id="Layer_3">
</g>
<g id="Your_Icon">
</g>
<g id="Layer_4">
	<path d="M21.269,99c-0.002,0-0.001,0-0.006,0C10.791,99,2.269,90.625,2.267,80.329l-0.001-4l8-0.002l0.001,4
		C10.268,86.213,15.202,91,21.266,91c0,0,0.001,0,0.001,0c3.286,0,7.068-2.083,9.415-5.183c0.96-1.269,2.462-3.782,1.734-6.359
		c-2.074-7.337-8.471-16.993-14.657-26.332C10.793,42.61,3.589,31.736,1.378,22.567C0.303,18.111,1.58,13.15,4.881,8.959
		C8.748,4.05,14.643,1,20.265,1c0.004,0,0.004,0,0.007,0c5.056,0,9.815,1.931,13.398,5.437c3.609,3.53,5.596,8.231,5.595,13.237l0,4
		l-8-0.001l0-4c0-2.835-1.132-5.505-3.189-7.517C25.997,10.121,23.224,9,20.271,9c-0.001,0-0.002,0-0.003,0h-0.001
		c-3.181,0-6.752,1.927-9.101,4.909c-1.774,2.253-2.507,4.726-2.011,6.783c1.88,7.8,8.689,18.077,15.273,28.017
		c6.826,10.303,13.273,20.035,15.686,28.574c1.238,4.379,0.153,9.125-3.053,13.362C33.22,95.72,27.021,99,21.269,99z"/>
	<g>
		<path d="M91.947,78.532c-0.098-2.132-0.652-11.521-3.124-21.055c-5.061-19.519-14.141-23.616-20.867-23.616
			c-4.779,0-10.01,2.097-15.55,6.234c-1.581,1.181-2.064,3.34-1.138,5.083c0.062,0.118,0.125,0.236,0.187,0.355
			c-0.614-0.307-1.232-0.627-1.831-0.951c-1.727-0.932-3.875-0.477-5.073,1.078c-7.04,9.142-5.338,22.314,3.801,29.368
			c7.989,6.143,34.228,7.748,39.406,8.017C87.829,83.048,87.898,83,87.967,83c0.006,0,0.013,0,0.02,0c2.209,0,4-1.741,4-3.95
			C91.987,78.857,91.973,78.717,91.947,78.532z M53.235,68.69c-4.758-3.673-6.253-10.035-3.999-15.327
			c2.772,1.322,5.96,2.594,7.965,2.594c1.561,0,2.6-0.607,3.196-1.116c2.219-1.896,2.173-4.63-0.45-10.214
			c2.999-1.838,5.684-2.767,8.009-2.767c10.521,0,14.634,21.167,15.722,32.965C65.699,73.518,55.524,70.451,53.235,68.69z"/>
	</g>
	<path d="M23.905,55.567l-6.571-4.562l2.281-3.286c4.252-6.125,9.361-9.511,15.183-10.062c9.353-0.883,16.693,6.185,17.001,6.486
		l2.858,2.799l-5.598,5.715l-2.857-2.799c-0.037-0.035-5.052-4.781-10.692-4.233c-3.351,0.333-6.488,2.573-9.323,6.657
		L23.905,55.567z"/>
</g>
</svg>
