<?xml version="1.0" encoding="utf-8"?>
<!-- Generator: Adobe Illustrator 15.0.0, SVG Export Plug-In . SVG Version: 6.00 Build 0)  -->
<!DOCTYPE svg PUBLIC "-//W3C//DTD SVG 1.1//EN" "http://www.w3.org/Graphics/SVG/1.1/DTD/svg11.dtd">
<svg version="1.1" id="Layer_1" xmlns="http://www.w3.org/2000/svg" xmlns:xlink="http://www.w3.org/1999/xlink" x="0px" y="0px"
	 width="100px" height="100px" viewBox="0 0 100 100" enable-background="new 0 0 100 100" xml:space="preserve">
<g>
	<path d="M88,6.167V6.165c-0.001,0-0.062,0.004-0.148,0.01C87.918,6.171,87.97,6.168,88,6.167z"/>
</g>
<g>
	<g>
		<path d="M91.125,8.479v10.505c-0.018,0-0.036,0-0.054,0c-11.515-0.001-13.446,11.8-13.446,11.8v10.755h14v10h-14v39.982h-11
			V51.539h-15v-10h15V31.121C66.625,10.821,91.125,8.479,91.125,8.479 M91.125,0.479c-0.253,0-0.507,0.012-0.762,0.036
			c-0.781,0.075-7.851,0.838-15.122,4.545c-10.715,5.463-16.616,14.719-16.616,26.061v2.418h-7c-4.418,0-8,3.582-8,8v10
			c0,4.418,3.582,8,8,8h7v31.982c0,4.418,3.582,8,8,8h11c4.418,0,8-3.582,8-8V59.539h6c4.418,0,8-3.582,8-8v-10c0-4.418-3.582-8-8-8
			h-6v-1.894c0.454-1.734,1.767-4.662,5.445-4.661c0.009,0,0.018,0,0.026,0c2.117,0,4.162-0.839,5.662-2.334
			c1.506-1.501,2.366-3.54,2.366-5.666V8.479c0-2.254-0.951-4.404-2.619-5.92C95.027,1.215,93.105,0.479,91.125,0.479L91.125,0.479z
			"/>
	</g>
</g>
</svg>
