<?xml version="1.0" encoding="utf-8"?>
<!-- Generator: Adobe Illustrator 16.0.0, SVG Export Plug-In . SVG Version: 6.00 Build 0)  -->
<!DOCTYPE svg PUBLIC "-//W3C//DTD SVG 1.0//EN" "http://www.w3.org/TR/2001/REC-SVG-20010904/DTD/svg10.dtd">
<svg version="1.0" xmlns="http://www.w3.org/2000/svg" xmlns:xlink="http://www.w3.org/1999/xlink" x="0px" y="0px" width="100px"
	 height="100px" viewBox="0 0 100 100" enable-background="new 0 0 100 100" xml:space="preserve">
<g id="Layer_3">
</g>
<g id="Your_Icon">
</g>
<g id="Layer_4">
	<g>
		<path fill="none" d="M49.974,22c-5.075,0.001-10.214,1.381-14.833,4.272c-13.103,8.207-17.076,25.481-8.866,38.59
			C31.586,73.344,40.703,78,50.029,78c5.075,0,10.212-1.38,14.832-4.271c13.103-8.206,17.072-25.485,8.87-38.586
			C68.415,26.655,59.299,22,49.974,22z"/>
		<path d="M81.738,32c0.001,0,0.002,0,0.003,0c1.062,0,2.08-0.178,2.829-0.929l2.647-2.526c4.273-4.272,4.408-11.032,0.299-15.476
			c-0.059-0.063-0.901-0.876-1.22-1.194l-0.104-0.088c-0.074-0.074-1.254-1.241-1.341-1.322c-2.075-1.917-4.776-2.969-7.605-2.969
			c-2.993,0-5.808,1.167-7.929,3.286l-2.647,2.651c-1.129,1.13-1.429,2.766-0.924,4.176c0.193,0.539,0.494,1.05,0.926,1.481
			c-0.432-0.432-0.732-0.941-0.926-1.48C60.925,15.27,55.56,14,49.976,14h-0.003c-5.472,0.001-10.837,1.271-15.734,3.661
			c0.531-1.422,0.234-3.083-0.909-4.227l-2.651-2.654c-2.118-2.115-4.933-3.28-7.925-3.28c-2.829,0-5.53,1.056-7.616,2.982
			c-0.076,0.071-1.256,1.246-1.331,1.32l-0.104,0.103c-0.319,0.319-1.161,1.162-1.228,1.233c-4.101,4.436-3.966,11.257,0.308,15.53
			l2.646,2.402C16.179,31.822,17.197,32,18.259,32c0.001,0,0.002,0,0.003,0c0.107,0,0.211,0.224,0.317,0.215
			c-6.171,11.101-6.289,25.268,0.916,36.771c2.758,4.403,6.354,8.065,10.505,10.856V100h8V83.865
			c3.798,1.345,7.85,2.073,12.029,2.073c4.099,0,8.141-0.7,11.971-2.048V100h8V79.888c15.596-10.419,20.543-31.125,11.437-47.426
			c-0.949-0.072-1.848-0.463-2.526-1.141c0.678,0.678,1.577,0.822,2.526,0.895C81.538,32.224,81.636,32,81.738,32z M64.86,73.729
			C60.241,76.62,55.104,78,50.029,78c-9.326,0-18.442-4.656-23.754-13.138c-8.21-13.108-4.236-30.383,8.866-38.59
			c4.619-2.892,9.758-4.271,14.833-4.272c9.326,0,18.441,4.655,23.757,13.143C81.933,48.243,77.963,65.522,64.86,73.729z"/>
	</g>
	<path d="M64.496,57.454l-15-0.016c-1.061-0.001-2.078-0.424-2.827-1.175s-1.17-1.769-1.168-2.83l0.025-21.438l8,0.01l-0.021,17.438
		l11,0.012L64.496,57.454z"/>
</g>
</svg>
