<?xml version="1.0" encoding="utf-8"?>
<!-- Generator: Adobe Illustrator 16.0.0, SVG Export Plug-In . SVG Version: 6.00 Build 0)  -->
<!DOCTYPE svg PUBLIC "-//W3C//DTD SVG 1.1//EN" "http://www.w3.org/Graphics/SVG/1.1/DTD/svg11.dtd">
<svg version="1.1" xmlns="http://www.w3.org/2000/svg" xmlns:xlink="http://www.w3.org/1999/xlink" x="0px" y="0px" width="100px"
	 height="100px" viewBox="0 0 100 100" enable-background="new 0 0 100 100" xml:space="preserve">
<g id="Layer_3" display="none">
	<circle display="inline" fill="none" stroke="#000000" stroke-width="0.25" stroke-miterlimit="10" cx="50" cy="49.5" r="17.5"/>
	<polyline display="inline" opacity="0.15" points="95,5 5,5 5,95 95,95 	"/>
	<circle display="inline" fill="none" stroke="#000000" stroke-width="0.25" stroke-miterlimit="10" cx="50" cy="50" r="26"/>
	<circle display="inline" fill="none" stroke="#000000" stroke-width="0.25" stroke-miterlimit="10" cx="50" cy="50" r="34"/>
	<circle display="inline" fill="none" stroke="#000000" stroke-width="0.25" stroke-miterlimit="10" cx="50" cy="49.5" r="9"/>
	<path display="inline" fill="none" stroke="#000000" stroke-width="0.25" stroke-miterlimit="10" d="M0,50C0,22.386,22.389,0,50,0
		c27.612,0,50,22.386,50,50"/>
	<path display="inline" fill="none" stroke="#000000" stroke-width="0.25" stroke-miterlimit="10" d="M100,50
		c0,27.614-22.388,50-50,50C22.389,100,0,77.614,0,50"/>
</g>
<g id="Your_Icon">
</g>
<g id="Layer_4">
	<path d="M96,100H46c-2.209,0-4-1.791-4-4s1.791-4,4-4h46V8H46c-2.209,0-4-1.791-4-4s1.791-4,4-4h50c2.209,0,4,1.791,4,4v92
		C100,98.209,98.209,100,96,100z"/>
	<path d="M53.344,77.5c-1.023,0-2.048-0.391-2.828-1.172c-1.562-1.562-1.562-4.095,0-5.657l20.673-20.67L50.516,29.329
		c-1.562-1.562-1.562-4.095,0-5.657c1.561-1.562,4.094-1.562,5.656,0l23.502,23.501c0.75,0.75,1.172,1.768,1.172,2.829
		s-0.422,2.079-1.172,2.829L56.172,76.329C55.391,77.109,54.367,77.5,53.344,77.5z"/>
	<path d="M75,54.001H15c-2.209,0-4-1.791-4-4s1.791-4,4-4h60c2.209,0,4,1.791,4,4S77.209,54.001,75,54.001z"/>
</g>
</svg>
