<?xml version="1.0" encoding="utf-8"?>
<!-- Generator: Adobe Illustrator 16.0.0, SVG Export Plug-In . SVG Version: 6.00 Build 0)  -->
<!DOCTYPE svg PUBLIC "-//W3C//DTD SVG 1.1//EN" "http://www.w3.org/Graphics/SVG/1.1/DTD/svg11.dtd">
<svg version="1.1" xmlns="http://www.w3.org/2000/svg" xmlns:xlink="http://www.w3.org/1999/xlink" x="0px" y="0px" width="100px"
	 height="100px" viewBox="0 0 100 100" enable-background="new 0 0 100 100" xml:space="preserve">
<g id="Layer_3" display="none">
	<circle display="inline" fill="none" stroke="#000000" stroke-width="0.25" stroke-miterlimit="10" cx="50" cy="49.5" r="17.5"/>
	<polyline display="inline" opacity="0.15" points="95,5 5,5 5,95 95,95 	"/>
	<circle display="inline" fill="none" stroke="#000000" stroke-width="0.25" stroke-miterlimit="10" cx="50" cy="50" r="26"/>
	<circle display="inline" fill="none" stroke="#000000" stroke-width="0.25" stroke-miterlimit="10" cx="50" cy="50" r="34"/>
	<circle display="inline" fill="none" stroke="#000000" stroke-width="0.25" stroke-miterlimit="10" cx="50" cy="49.5" r="9"/>
	<path display="inline" fill="none" stroke="#000000" stroke-width="0.25" stroke-miterlimit="10" d="M0,50C0,22.386,22.389,0,50,0
		c27.612,0,50,22.386,50,50"/>
	<path display="inline" fill="none" stroke="#000000" stroke-width="0.25" stroke-miterlimit="10" d="M100,50
		c0,27.614-22.388,50-50,50C22.389,100,0,77.614,0,50"/>
</g>
<g id="Your_Icon">
</g>
<g id="Layer_4">
	<path d="M71,100H4c-2.209,0-4-1.791-4-4V29c0-2.209,1.791-4,4-4h24c2.209,0,4,1.791,4,4s-1.791,4-4,4H8v59h59V74
		c0-2.209,1.791-4,4-4s4,1.791,4,4v22C75,98.209,73.209,100,71,100z"/>
	<path d="M82.729,55.234L82.729,55.234c-2.209,0-4-1.791-4-4L78.73,22l-29.236,0c-2.209,0-4-1.791-4-4s1.791-4,4-4l33.236,0
		c1.061,0,2.078,0.421,2.828,1.171c0.751,0.75,1.172,1.768,1.172,2.829l-0.002,33.234C86.729,53.444,84.938,55.234,82.729,55.234z"
		/>
	<path d="M39,65.731c-1.023,0-2.047-0.391-2.828-1.171c-1.562-1.562-1.562-4.095,0-5.657l42.426-42.426
		c1.561-1.562,4.094-1.562,5.656,0c1.562,1.562,1.562,4.095,0,5.657L41.828,64.56C41.048,65.341,40.023,65.731,39,65.731z"/>
</g>
</svg>
