<?xml version="1.0" encoding="utf-8"?>
<!-- Generator: Adobe Illustrator 16.0.0, SVG Export Plug-In . SVG Version: 6.00 Build 0)  -->
<!DOCTYPE svg PUBLIC "-//W3C//DTD SVG 1.1//EN" "http://www.w3.org/Graphics/SVG/1.1/DTD/svg11.dtd">
<svg version="1.1" xmlns="http://www.w3.org/2000/svg" xmlns:xlink="http://www.w3.org/1999/xlink" x="0px" y="0px" width="100px"
	 height="100px" viewBox="0 0 100 100" enable-background="new 0 0 100 100" xml:space="preserve">
<g id="Layer_3" display="none">
	
		<rect x="-72.5" y="-30.5" display="inline" fill="#FFFFFF" stroke="#000000" stroke-linejoin="round" stroke-miterlimit="10" width="100" height="100"/>
	<g display="inline">
		<path d="M-22-9C-6.535-9,6,3.534,6,19C6,34.46-6.535,47-22,47s-28-12.54-28-28C-50,3.534-37.465-9-22-9 M-22-17
			c-19.851,0-36,16.149-36,36s16.149,36,36,36s36-16.149,36-36S-2.149-17-22-17L-22-17z"/>
	</g>
	<g display="inline" opacity="0.31">
		<path d="M-50.3,51.3c-1.06,0-2.076-0.42-2.826-1.169c-0.751-0.75-1.174-1.769-1.174-2.831v-56c0-2.209,1.791-4,4-4h56
			c2.209,0,4,1.791,4,4v55.92c0,2.207-1.788,3.997-3.994,4C5.706,51.22-50.298,51.3-50.3,51.3z"/>
		<path d="M5.7-8.7v55.92l-56,0.08v-56H5.7 M5.7-16.7h-56c-4.418,0-8,3.582-8,8v56c0,2.124,0.844,4.16,2.347,5.661
			c1.5,1.498,3.533,2.339,5.653,2.339c0.004,0,0.008,0,0.012,0l56-0.08c4.414-0.006,7.988-3.586,7.988-8V-8.7
			C13.7-13.119,10.119-16.7,5.7-16.7L5.7-16.7z"/>
	</g>
</g>
<g id="Your_Icon">
</g>
<g id="Layer_4">
	<g>
		<path fill="none" d="M66.504,38.379c0-15.466-12.535-28-28-28s-28,12.534-28,28c0,15.46,12.535,28,28,28
			S66.504,53.839,66.504,38.379z"/>
		<path d="M99.496,91.136L69.159,60.799c4.612-6.29,7.345-14.04,7.345-22.42c0-20.953-17.047-38-38-38s-38,17.047-38,38
			s17.047,38,38,38c8.251,0,15.891-2.652,22.128-7.137l30.379,30.379L99.496,91.136z M10.504,38.379c0-15.466,12.535-28,28-28
			s28,12.534,28,28c0,15.46-12.535,28-28,28S10.504,53.839,10.504,38.379z"/>
	</g>
</g>
</svg>
