<?xml version="1.0" encoding="utf-8"?>
<!-- Generator: Adobe Illustrator 16.0.0, SVG Export Plug-In . SVG Version: 6.00 Build 0)  -->
<!DOCTYPE svg PUBLIC "-//W3C//DTD SVG 1.1//EN" "http://www.w3.org/Graphics/SVG/1.1/DTD/svg11.dtd">
<svg version="1.1" xmlns="http://www.w3.org/2000/svg" xmlns:xlink="http://www.w3.org/1999/xlink" x="0px" y="0px" width="100px"
	 height="100px" viewBox="0 0 100 100" enable-background="new 0 0 100 100" xml:space="preserve">
<g id="Layer_3" display="none">
</g>
<g id="Your_Icon">
</g>
<g id="Layer_4">
	<g>
		<path d="M50,0.5c-19.851,0-36,17.047-36,38c0,8.544,4.993,20.493,15.263,36.528c7.132,11.135,14.164,20.058,14.46,20.432
			c1.518,1.92,3.83,3.04,6.277,3.04s4.759-1.12,6.277-3.04c0.296-0.374,7.328-9.297,14.46-20.432C81.007,58.993,86,47.044,86,38.5
			C86,17.547,69.851,0.5,50,0.5z M49.999,46C45.583,46,42,42.417,42,38s3.583-8,7.999-8C54.418,30,58,33.583,58,38
			S54.418,46,49.999,46z"/>
	</g>
</g>
</svg>
