<?xml version="1.0" encoding="utf-8"?>
<!-- Generator: Adobe Illustrator 16.0.0, SVG Export Plug-In . SVG Version: 6.00 Build 0)  -->
<!DOCTYPE svg PUBLIC "-//W3C//DTD SVG 1.1//EN" "http://www.w3.org/Graphics/SVG/1.1/DTD/svg11.dtd">
<svg version="1.1" xmlns="http://www.w3.org/2000/svg" xmlns:xlink="http://www.w3.org/1999/xlink" x="0px" y="0px" width="100px"
	 height="100px" viewBox="0 0 100 100" enable-background="new 0 0 100 100" xml:space="preserve">
<g id="Layer_3" display="none">
	<circle display="inline" fill="none" stroke="#000000" stroke-width="0.25" stroke-miterlimit="10" cx="50" cy="50" r="15.134"/>
	<polyline display="inline" opacity="0.26" points="94,6 6,6 6,94 94,94 	"/>
	<circle display="inline" fill="none" stroke="#000000" stroke-width="0.25" stroke-miterlimit="10" cx="50" cy="50" r="24"/>
	<circle display="inline" fill="none" stroke="#000000" stroke-width="0.25" stroke-miterlimit="10" cx="50" cy="50" r="30"/>
	<circle display="inline" fill="none" stroke="#000000" stroke-width="0.25" stroke-miterlimit="10" cx="50" cy="50" r="9.134"/>
	<path display="inline" fill="none" stroke="#000000" stroke-width="0.25" stroke-miterlimit="10" d="M0,50C0,22.386,22.389,0,50,0
		c27.612,0,50,22.386,50,50"/>
	<path display="inline" fill="none" stroke="#000000" stroke-width="0.25" stroke-miterlimit="10" d="M100,50
		c0,27.614-22.388,50-50,50C22.389,100,0,77.614,0,50"/>
</g>
<g id="Your_Icon">
	<path fill="none" stroke="#000000" stroke-width="8" stroke-linecap="round" stroke-linejoin="round" stroke-miterlimit="10" d="
		M47.749,88"/>
	<path d="M67.999,68c-2.192,0-3.979-1.768-3.999-3.964c-0.062-7.03-2.808-13.611-7.729-18.531c-4.9-4.9-11.384-7.567-18.235-7.502
		c-0.012,0-0.024,0-0.037,0c-2.192,0-3.979-1.767-3.999-3.964c-0.02-2.209,1.755-4.016,3.964-4.036C38.066,30,38.17,30,38.272,30
		c8.908,0,17.297,3.489,23.655,9.847c6.413,6.412,9.99,14.977,10.072,24.117c0.02,2.209-1.755,4.016-3.964,4.036
		C68.023,68,68.012,68,67.999,68z"/>
	<path d="M84.999,68c-2.192,0-3.979-1.767-3.999-3.964c-0.104-11.612-4.64-22.484-12.771-30.615
		c-8.112-8.11-18.797-12.539-30.192-12.418c-0.012,0-0.024,0-0.037,0c-2.192,0-3.979-1.767-3.999-3.964
		c-0.02-2.209,1.755-4.016,3.964-4.036c0.153-0.001,0.309-0.002,0.462-0.002c13.35,0,25.925,5.231,35.458,14.762
		C83.509,37.386,88.877,50.242,89,63.964c0.02,2.209-1.755,4.016-3.964,4.036C85.023,68,85.012,68,84.999,68z"/>
	<path d="M50.999,68c-2.192,0-3.979-1.768-3.999-3.964c-0.021-2.449-0.975-4.738-2.685-6.447c-1.69-1.69-3.959-2.636-6.279-2.587
		c-0.012,0-0.024,0-0.037,0c-2.192,0-3.979-1.767-3.999-3.964c-0.02-2.209,1.755-4.016,3.964-4.036
		c4.511-0.041,8.787,1.709,12.008,4.93c3.202,3.202,4.987,7.475,5.028,12.034c0.02,2.209-1.755,4.016-3.965,4.036
		C51.023,68,51.011,68,50.999,68z"/>
</g>
<g id="Layer_4">
	<path d="M28,61c-7.729,0-14,6.266-14,14s6.271,14,14,14c7.734,0,14-6.266,14-14S35.734,61,28,61z"/>
</g>
</svg>
