<?xml version="1.0" encoding="utf-8"?>
<!-- Generator: Adobe Illustrator 16.0.0, SVG Export Plug-In . SVG Version: 6.00 Build 0)  -->
<!DOCTYPE svg PUBLIC "-//W3C//DTD SVG 1.1//EN" "http://www.w3.org/Graphics/SVG/1.1/DTD/svg11.dtd">
<svg version="1.1" xmlns="http://www.w3.org/2000/svg" xmlns:xlink="http://www.w3.org/1999/xlink" x="0px" y="0px" width="100px"
	 height="100px" viewBox="0 0 100 100" enable-background="new 0 0 100 100" xml:space="preserve">
<g id="Layer_3" display="none">
	<circle display="inline" fill="none" stroke="#000000" stroke-width="0.25" stroke-miterlimit="10" cx="50" cy="49.5" r="17.5"/>
	<polyline display="inline" opacity="0.15" points="95,5 5,5 5,95 95,95 	"/>
	<circle display="inline" fill="none" stroke="#000000" stroke-width="0.25" stroke-miterlimit="10" cx="50" cy="50" r="26"/>
	<circle display="inline" fill="none" stroke="#000000" stroke-width="0.25" stroke-miterlimit="10" cx="50" cy="50" r="34"/>
	<circle display="inline" fill="none" stroke="#000000" stroke-width="0.25" stroke-miterlimit="10" cx="50" cy="49.5" r="9"/>
	<path display="inline" fill="none" stroke="#000000" stroke-width="0.25" stroke-miterlimit="10" d="M0,50C0,22.386,22.389,0,50,0
		c27.612,0,50,22.386,50,50"/>
	<path display="inline" fill="none" stroke="#000000" stroke-width="0.25" stroke-miterlimit="10" d="M100,50
		c0,27.614-22.388,50-50,50C22.389,100,0,77.614,0,50"/>
</g>
<g id="Your_Icon">
</g>
<g id="Layer_4">
	<path d="M66.945,77.5c-1.039,0-2.077-0.402-2.861-1.205c-1.544-1.581-1.514-4.113,0.066-5.657L85.276,50L64.15,29.361
		c-1.58-1.544-1.61-4.076-0.066-5.657c1.546-1.58,4.078-1.608,5.656-0.066l24.055,23.5C94.565,47.892,95,48.923,95,50
		s-0.435,2.108-1.205,2.861l-24.055,23.5C68.963,77.121,67.953,77.5,66.945,77.5z"/>
	<path d="M87,54H9c-2.209,0-4-1.791-4-4s1.791-4,4-4h78c2.209,0,4,1.791,4,4S89.209,54,87,54z"/>
</g>
</svg>
