<?xml version="1.0" encoding="utf-8"?>
<!-- Generator: Adobe Illustrator 16.0.0, SVG Export Plug-In . SVG Version: 6.00 Build 0)  -->
<!DOCTYPE svg PUBLIC "-//W3C//DTD SVG 1.0//EN" "http://www.w3.org/TR/2001/REC-SVG-20010904/DTD/svg10.dtd">
<svg version="1.0" xmlns="http://www.w3.org/2000/svg" xmlns:xlink="http://www.w3.org/1999/xlink" x="0px" y="0px" width="100px"
	 height="100px" viewBox="0 0 100 100" enable-background="new 0 0 100 100" xml:space="preserve">
<g id="Layer_3">
</g>
<g id="Your_Icon">
</g>
<g id="Layer_4">
	<g>
		<path fill="none" d="M74.869,68.507C78.72,63.341,81,56.936,81,50c0-17.124-13.877-31-31-31c-6.938,0-13.343,2.279-18.507,6.128
			L74.869,68.507z"/>
		<path fill="none" d="M25.128,31.492C21.279,36.657,19,43.062,19,50c0,17.114,13.877,31,31,31c6.937,0,13.341-2.28,18.505-6.13
			L25.128,31.492z"/>
		<path d="M50,11c-21.505,0-39,17.495-39,39s17.495,39,39,39s39-17.495,39-39S71.505,11,50,11z M81,50
			c0,6.936-2.28,13.341-6.131,18.507L31.493,25.128C36.657,21.279,43.062,19,50,19C67.123,19,81,32.876,81,50z M19,50
			c0-6.938,2.279-13.343,6.128-18.508L68.505,74.87C63.341,78.72,56.937,81,50,81C32.877,81,19,67.114,19,50z"/>
	</g>
</g>
</svg>
