<?xml version="1.0" encoding="utf-8"?>
<!-- Generator: Adobe Illustrator 16.0.0, SVG Export Plug-In . SVG Version: 6.00 Build 0)  -->
<!DOCTYPE svg PUBLIC "-//W3C//DTD SVG 1.1//EN" "http://www.w3.org/Graphics/SVG/1.1/DTD/svg11.dtd">
<svg version="1.1" xmlns="http://www.w3.org/2000/svg" xmlns:xlink="http://www.w3.org/1999/xlink" x="0px" y="0px" width="100px"
	 height="100px" viewBox="0 0 100 100" enable-background="new 0 0 100 100" xml:space="preserve">
<g id="Layer_3" display="none">
</g>
<g id="Your_Icon">
</g>
<g id="Layer_4">
	<path d="M53.136,80.785C53.135,80.785,53.136,80.785,53.136,80.785c-16.082,0-34.136-4.684-34.896-4.883l-6.357-1.667
		l19.445-13.305c-4.205-9.703-3.543-29.282-3.443-31.697l0.266-6.456l4.761,4.37c0.067,0.062,6.564,5.867,16.311,7.431
		c-0.918-7.516,1.424-16.901,8.552-19.368c0.968-0.335,2.058-0.497,3.334-0.497c8.395,0,23.257,7.531,24.924,8.39l3.387,1.745
		l-2.49,2.883c-2.27,2.628-4.843,5.689-6.236,7.444c0.769,1.195,1.422,2.449,1.927,3.702c4.947,12.298,2.089,26.299-7.282,35.67
		C71.195,78.687,63.726,80.785,53.136,80.785z M26.358,71.6c6.633,1.372,17.214,3.186,26.776,3.186
		c8.816,0,15.026-1.549,17.958-4.48c7.668-7.668,10.007-19.125,5.958-29.187c-0.711-1.766-1.691-3.191-2.388-4.076l-2.028-2.575
		l2.144-1.4c0.785-1.196,2.29-3.053,5.066-6.302c-5.435-2.524-14.059-6.052-18.738-6.052c-0.772,0-1.19,0.104-1.371,0.167
		c-4.26,1.475-5.816,10.458-3.869,16.087l1.422,4.107l-4.346-0.128c-8.262-0.245-14.94-3.266-19.154-5.816
		c0.055,9.239,1.041,21.033,3.899,24.992l1.801,2.494L26.358,71.6z"/>
</g>
</svg>
