<?xml version="1.0" encoding="utf-8"?>
<!-- Generator: Adobe Illustrator 16.0.0, SVG Export Plug-In . SVG Version: 6.00 Build 0)  -->
<!DOCTYPE svg PUBLIC "-//W3C//DTD SVG 1.0//EN" "http://www.w3.org/TR/2001/REC-SVG-20010904/DTD/svg10.dtd">
<svg version="1.0" xmlns="http://www.w3.org/2000/svg" xmlns:xlink="http://www.w3.org/1999/xlink" x="0px" y="0px" width="100px"
	 height="100px" viewBox="0 0 100 100" enable-background="new 0 0 100 100" xml:space="preserve">
<g id="Layer_3">
</g>
<g id="Your_Icon">
</g>
<g id="Layer_4">
	<rect x="21" y="34" width="34" height="8"/>
	<path d="M38,10c15.465,0,28,12.534,28,28c0,15.46-12.535,28-28,28S10,53.46,10,38C10,22.534,22.535,10,38,10 M38,2
		C18.149,2,2,18.149,2,38s16.149,36,36,36s36-16.149,36-36S57.851,2,38,2L38,2z"/>
	<rect x="53.958" y="73" transform="matrix(0.7071 0.7071 -0.7071 0.7071 78 -32.3087)" width="48.083" height="10"/>
</g>
</svg>
