<?xml version="1.0" encoding="utf-8"?>
<!-- Generator: Adobe Illustrator 16.0.0, SVG Export Plug-In . SVG Version: 6.00 Build 0)  -->
<!DOCTYPE svg PUBLIC "-//W3C//DTD SVG 1.1//EN" "http://www.w3.org/Graphics/SVG/1.1/DTD/svg11.dtd">
<svg version="1.1" xmlns="http://www.w3.org/2000/svg" xmlns:xlink="http://www.w3.org/1999/xlink" x="0px" y="0px" width="100px"
	 height="100px" viewBox="0 0 100 100" enable-background="new 0 0 100 100" xml:space="preserve">
<g id="Layer_3" display="none">
	<g display="inline" opacity="0.31">
		<path d="M-48,12c-1.06,0-2.076-0.421-2.826-1.17C-51.578,10.08-52,9.062-52,8v-56c0-2.209,1.791-4,4-4H8c2.209,0,4,1.791,4,4V7.92
			c0,2.207-1.787,3.997-3.994,4C8.006,11.92-47.998,12-48,12z"/>
		<path d="M8-48V7.92L-48,8v-56H8 M8-56h-56c-4.418,0-8,3.582-8,8V8c0,2.124,0.844,4.16,2.347,5.661C-52.153,15.159-50.12,16-48,16
			c0.004,0,0.007,0,0.011,0l56-0.08c4.413-0.006,7.988-3.586,7.988-8V-48C16-52.418,12.418-56,8-56L8-56z"/>
	</g>
</g>
<g id="Your_Icon">
</g>
<g id="Layer_4">
	<path d="M22.369,100c-0.004,0-0.005,0-0.007,0C11.34,100,2.369,91.177,2.366,80.329l-0.001-5l10-0.002l0.001,5
		c0.001,5.334,4.487,9.674,9.999,9.673c0.001,0,0.002,0,0.002,0c2.942,0,6.484-1.968,8.617-4.786
		c0.683-0.902,2.202-3.243,1.569-5.484c-2.031-7.187-8.385-16.776-14.528-26.051C11.011,43.091,3.758,32.142,1.506,22.802
		C0.358,18.045,1.703,12.774,5.195,8.34C9.247,3.195,15.442,0,21.365,0c0,0,0.003,0,0.007,0C26.69,0,31.697,2.032,35.47,5.722
		c3.803,3.72,5.896,8.675,5.896,13.952l-0.001,5l-10-0.002l0.001-5c0-2.563-1.025-4.979-2.889-6.802
		C26.585,11.02,24.061,10,21.37,10c-0.001,0-0.002,0-0.003,0c0,0,0,0-0.001,0c-2.841,0-6.182,1.819-8.315,4.527
		c-1.583,2.011-2.248,4.172-1.824,5.931c1.84,7.628,8.599,17.831,15.136,27.698c6.87,10.37,13.358,20.165,15.814,28.854
		c1.306,4.621,0.133,9.811-3.218,14.238C34.936,96.564,28.423,100,22.369,100z"/>
	<path d="M99.188,64.528c-1.68-5.411-10.501-32.756-19.272-39.647c-4.158-3.259-9.144-4.98-14.417-4.98
		c-7.247,0-13.966,3.269-18.434,8.968c-1.703,2.173-1.322,5.314,0.85,7.019l43.412,34.058c0.903,0.709,1.993,1.066,3.086,1.066
		c0.989,0,1.98-0.293,2.837-0.883C99.051,68.887,99.836,66.618,99.188,64.528z"/>
	<path d="M84.023,69.768L47.242,41.429c-1.05-0.81-2.385-1.172-3.695-0.997c-1.315,0.171-2.51,0.857-3.318,1.908
		c-6.884,8.942-5.219,21.825,3.716,28.724c2.274,1.751,7.021,4.306,21.927,6.264c7.754,1.02,14.556,1.38,14.841,1.395
		c0.088,0.005,0.175,0.007,0.262,0.007c2.082,0,3.959-1.296,4.688-3.266C86.42,73.41,85.757,71.104,84.023,69.768z"/>
	<path d="M25.256,56.959l-8.215-5.703l2.852-4.107c4.655-6.705,10.012-10.157,15.92-10.258c0.087-0.002,0.175-0.002,0.262-0.002
		c8.621,0,14.308,7.284,14.933,8.123l2.99,4.007L45.983,55l-2.99-4.008c-0.871-1.134-3.835-4.104-6.929-4.104
		c-0.039,0-0.077,0-0.115,0.001c-3.112,0.075-5.982,3.283-7.842,5.962L25.256,56.959z"/>
</g>
</svg>
