<?xml version="1.0" encoding="utf-8"?>
<!-- Generator: Adobe Illustrator 16.0.0, SVG Export Plug-In . SVG Version: 6.00 Build 0)  -->
<!DOCTYPE svg PUBLIC "-//W3C//DTD SVG 1.1//EN" "http://www.w3.org/Graphics/SVG/1.1/DTD/svg11.dtd">
<svg version="1.1" xmlns="http://www.w3.org/2000/svg" xmlns:xlink="http://www.w3.org/1999/xlink" x="0px" y="0px" width="54px"
	 height="100px" viewBox="0 0 54 100" enable-background="new 0 0 54 100" xml:space="preserve">
<g id="Layer_3">
</g>
<g id="Your_Icon">
</g>
<g id="Layer_4">
	<path d="M27.466,99c-0.002,0-0.001,0-0.006,0C16.989,99,8.467,90.625,8.463,80.33l-0.001-4l8-0.003l0.001,4
		C16.465,86.213,21.4,91,27.463,91c0,0,0.001,0,0.002,0c3.285,0,7.067-2.083,9.413-5.183c0.96-1.269,2.463-3.783,1.735-6.36
		c-2.074-7.336-8.47-16.992-14.656-26.33C16.99,42.611,9.785,31.736,7.574,22.567C6.5,18.111,7.776,13.151,11.077,8.959
		C14.944,4.05,20.839,1,26.462,1c0.004,0,0.004,0,0.007,0c5.056,0,9.814,1.931,13.398,5.437c3.608,3.53,5.596,8.23,5.596,13.236v4
		h-8v-4c0-2.835-1.133-5.505-3.19-7.518C32.193,10.121,29.421,9,26.468,9c-0.001,0-0.002,0-0.003,0h-0.001
		c-3.181,0-6.753,1.927-9.102,4.909c-1.774,2.252-2.507,4.725-2.011,6.783c1.88,7.8,8.689,18.078,15.274,28.018
		c6.826,10.303,13.272,20.034,15.686,28.573c1.237,4.38,0.152,9.126-3.054,13.363C39.416,95.721,33.218,99,27.466,99z"/>
</g>
</svg>
