<?xml version="1.0" encoding="utf-8"?>
<!-- Generator: Adobe Illustrator 16.0.0, SVG Export Plug-In . SVG Version: 6.00 Build 0)  -->
<!DOCTYPE svg PUBLIC "-//W3C//DTD SVG 1.0//EN" "http://www.w3.org/TR/2001/REC-SVG-20010904/DTD/svg10.dtd">
<svg version="1.0" xmlns="http://www.w3.org/2000/svg" xmlns:xlink="http://www.w3.org/1999/xlink" x="0px" y="0px" width="100px"
	 height="100px" viewBox="0 0 100 100" enable-background="new 0 0 100 100" xml:space="preserve">
<g id="Layer_3">
</g>
<g id="Your_Icon">
</g>
<g id="Layer_4">
	<g>
		<path d="M81.5,8v84h-63V8H81.5 M81.5,0h-63c-4.418,0-8,3.582-8,8v84c0,4.418,3.582,8,8,8h63c4.418,0,8-3.582,8-8V8
			C89.5,3.582,85.918,0,81.5,0L81.5,0z"/>
	</g>
	<g>
		<path d="M71.5,21c0-2.209-1.791-4-4-4h-35c-2.209,0-4,1.791-4,4v58c0,2.209,1.791,4,4,4h35c2.209,0,4-1.791,4-4V21z M63.5,75h-27
			V25h27V75z"/>
	</g>
</g>
</svg>
