<?xml version="1.0" encoding="utf-8"?>
<!-- Generator: Adobe Illustrator 16.0.0, SVG Export Plug-In . SVG Version: 6.00 Build 0)  -->
<!DOCTYPE svg PUBLIC "-//W3C//DTD SVG 1.1//EN" "http://www.w3.org/Graphics/SVG/1.1/DTD/svg11.dtd">
<svg version="1.1" xmlns="http://www.w3.org/2000/svg" xmlns:xlink="http://www.w3.org/1999/xlink" x="0px" y="0px" width="100px"
	 height="100px" viewBox="0 0 100 100" enable-background="new 0 0 100 100" xml:space="preserve">
<g id="Layer_3" display="none">
	<circle display="inline" fill="none" stroke="#000000" stroke-width="0.25" stroke-miterlimit="10" cx="50" cy="50" r="15.134"/>
	<polyline display="inline" opacity="0.26" points="94,6 6,6 6,94 94,94 	"/>
	<circle display="inline" fill="none" stroke="#000000" stroke-width="0.25" stroke-miterlimit="10" cx="50" cy="50" r="24"/>
	<circle display="inline" fill="none" stroke="#000000" stroke-width="0.25" stroke-miterlimit="10" cx="50" cy="50" r="30"/>
	<circle display="inline" fill="none" stroke="#000000" stroke-width="0.25" stroke-miterlimit="10" cx="50" cy="50" r="9.134"/>
	<path display="inline" fill="none" stroke="#000000" stroke-width="0.25" stroke-miterlimit="10" d="M0,50C0,22.386,22.389,0,50,0
		c27.612,0,50,22.386,50,50"/>
	<path display="inline" fill="none" stroke="#000000" stroke-width="0.25" stroke-miterlimit="10" d="M100,50
		c0,27.614-22.388,50-50,50C22.389,100,0,77.614,0,50"/>
</g>
<g id="Your_Icon">
</g>
<g id="Layer_4">
	<path d="M59.737,98.971c-1.351,0-2.36-0.045-2.823-0.07c-0.463,0.025-1.474,0.07-2.823,0.07c-6.926,0-16.23-1.048-21.218-6.036
		c-0.141-0.141-0.271-0.291-0.389-0.451L14.697,68.406c-0.124-0.168-0.234-0.345-0.331-0.529c-0.245-0.47-2.346-4.717-0.889-9.19
		c0.608-1.866,2.083-4.465,5.657-6.239c2.934-1.457,5.696-2.195,8.211-2.195c0.193,0,0.383,0.004,0.568,0.012V15.029
		c0-5.628,3.729-14,14-14c9.538,0,13,8.372,13,14v23.08c0.257-0.002,0.522-0.003,0.796-0.003c12.719,0,21.213,2.045,25.247,6.08
		c6.39,6.39,6.086,19.329,5.965,21.812c0.197,2.982,0.987,19.984-5.966,26.937C75.968,97.923,66.664,98.97,59.737,98.971z
		 M56.915,90.894c0.093,0,0.186,0.003,0.277,0.01c0.006,0,1.005,0.067,2.545,0.067c7.321-0.001,13.284-1.415,15.562-3.693
		c3.309-3.309,4.111-14.246,3.625-20.956c-0.013-0.177-0.015-0.357-0.003-0.535c0.262-4.498-0.489-12.81-3.622-15.943
		c-1.807-1.807-7.901-3.736-19.59-3.736c-2.685,0-4.528,0.112-4.547,0.113c-1.095,0.064-2.184-0.321-2.988-1.077
		c-0.804-0.757-1.261-1.812-1.261-2.915V15.029c-0.021-1.385-0.447-6-5-6c-1.769,0-5.895,0.588-6,6.037v40.963
		c0,1.859-1.098,3.775-2.909,4.197c-1.752,0.407-3.382-0.122-4.23-1.668c-0.192-0.114-0.635-0.307-1.429-0.307
		c-0.873,0-2.389,0.235-4.652,1.36c-1.316,0.653-1.537,1.33-1.609,1.553c-0.318,0.976,0.083,2.289,0.291,2.816l17.34,23.473
		c2.404,2.174,8.246,3.517,15.376,3.517c1.54,0,2.539-0.067,2.549-0.067C56.73,90.896,56.823,90.894,56.915,90.894z"/>
</g>
</svg>
