<?xml version="1.0" encoding="utf-8"?>
<!-- Generator: Adobe Illustrator 16.0.0, SVG Export Plug-In . SVG Version: 6.00 Build 0)  -->
<!DOCTYPE svg PUBLIC "-//W3C//DTD SVG 1.1//EN" "http://www.w3.org/Graphics/SVG/1.1/DTD/svg11.dtd">
<svg version="1.1" xmlns="http://www.w3.org/2000/svg" xmlns:xlink="http://www.w3.org/1999/xlink" x="0px" y="0px" width="100px"
	 height="100px" viewBox="0 0 100 100" enable-background="new 0 0 100 100" xml:space="preserve">
<g id="Layer_3" display="none">
	<circle display="inline" fill="none" stroke="#000000" stroke-width="0.25" stroke-miterlimit="10" cx="50" cy="49.5" r="17.5"/>
	<polyline display="inline" opacity="0.14" points="95,6 5,6 5,96 95,96 	"/>
	<circle display="inline" fill="none" stroke="#000000" stroke-width="0.25" stroke-miterlimit="10" cx="50" cy="50" r="26"/>
	<circle display="inline" fill="none" stroke="#000000" stroke-width="0.25" stroke-miterlimit="10" cx="50" cy="50" r="34"/>
	<circle display="inline" fill="none" stroke="#000000" stroke-width="0.25" stroke-miterlimit="10" cx="50" cy="49.5" r="9"/>
	<path display="inline" fill="none" stroke="#000000" stroke-width="0.25" stroke-miterlimit="10" d="M0,50C0,22.386,22.389,0,50,0
		c27.612,0,50,22.386,50,50"/>
	<path display="inline" fill="none" stroke="#000000" stroke-width="0.25" stroke-miterlimit="10" d="M100,50
		c0,27.614-22.388,50-50,50C22.389,100,0,77.614,0,50"/>
</g>
<g id="Your_Icon">
</g>
<g id="Layer_4">
	<path d="M96,100H4c-2.209,0-4-1.791-4-4V46c0-2.209,1.791-4,4-4s4,1.791,4,4v46h84V46c0-2.209,1.791-4,4-4s4,1.791,4,4v50
		C100,98.209,98.209,100,96,100z"/>
	<path d="M49.999,80.845L49.999,80.845c-1.061,0-2.078-0.421-2.828-1.172L23.672,56.172c-1.562-1.562-1.562-4.095,0-5.657
		c1.562-1.562,4.096-1.562,5.656,0l20.671,20.672l20.673-20.673c1.561-1.562,4.096-1.562,5.656,0c1.562,1.562,1.562,4.095,0,5.657
		L52.827,79.674C52.077,80.424,51.06,80.845,49.999,80.845z"/>
	<path d="M49.999,79c-2.209,0-4-1.791-4-4V15c0-2.209,1.791-4,4-4s4,1.791,4,4v60C53.999,77.209,52.208,79,49.999,79z"/>
</g>
</svg>
