<?xml version="1.0" encoding="utf-8"?>
<!-- Generator: Adobe Illustrator 16.0.0, SVG Export Plug-In . SVG Version: 6.00 Build 0)  -->
<!DOCTYPE svg PUBLIC "-//W3C//DTD SVG 1.1//EN" "http://www.w3.org/Graphics/SVG/1.1/DTD/svg11.dtd">
<svg version="1.1" xmlns="http://www.w3.org/2000/svg" xmlns:xlink="http://www.w3.org/1999/xlink" x="0px" y="0px" width="100px"
	 height="100px" viewBox="0 0 100 100" enable-background="new 0 0 100 100" xml:space="preserve">
<g id="Layer_3" display="none">
	<circle display="inline" fill="none" stroke="#000000" stroke-width="0.25" stroke-miterlimit="10" cx="50" cy="50" r="15.134"/>
	<rect x="6" y="6" display="inline" opacity="0.26" width="88" height="88"/>
	<circle display="inline" fill="none" stroke="#000000" stroke-width="0.25" stroke-miterlimit="10" cx="50" cy="50" r="24"/>
	<circle display="inline" fill="none" stroke="#000000" stroke-width="0.25" stroke-miterlimit="10" cx="50" cy="50" r="30"/>
	<circle display="inline" fill="none" stroke="#000000" stroke-width="0.25" stroke-miterlimit="10" cx="50" cy="50" r="9.134"/>
	<g display="inline">
		<path d="M50,0.25c27.433,0,49.75,22.317,49.75,49.75S77.433,99.75,50,99.75C22.568,99.75,0.25,77.433,0.25,50S22.568,0.25,50,0.25
			 M50,0C22.389,0,0,22.386,0,50s22.389,50,50,50c27.612,0,50-22.386,50-50S77.612,0,50,0L50,0z"/>
	</g>
</g>
<g id="Your_Icon">
</g>
<g id="Layer_4">
	<path d="M4,100c-1.06,0-2.077-0.421-2.827-1.17C0.422,98.079,0,97.062,0,96V36c0-2.209,1.791-4,4-4h92c2.209,0,4,1.791,4,4v59.915
		c0,2.208-1.789,3.998-3.996,4l-92,0.085C4.002,100,4.001,100,4,100z M8,40v51.996l84-0.077V40H8z"/>
	<path d="M29.001,88c-1.098,0-2.191-0.449-2.981-1.332c-1.474-1.646-1.334-4.175,0.312-5.648l27.923-25
		c1.174-1.052,2.856-1.316,4.297-0.673c1.44,0.643,2.369,2.07,2.371,3.647l0.017,11.208l21.214-6.049
		c1.204-0.343,2.504-0.103,3.506,0.654c1.002,0.756,1.591,1.938,1.591,3.192v16c0,2.209-1.791,4-4,4s-4-1.791-4-4V73.3
		l-21.206,6.047c-1.202,0.343-2.501,0.104-3.504-0.652c-1.001-0.754-1.591-1.935-1.593-3.188l-0.011-7.567L31.668,86.98
		C30.905,87.663,29.951,88,29.001,88z"/>
	<path d="M25.999,72C18.28,72,12,65.72,12,58s6.28-14,13.999-14C33.719,44,40,50.28,40,58S33.719,72,25.999,72z M25.999,52
		C22.691,52,20,54.691,20,58s2.691,6,5.999,6C29.308,64,32,61.309,32,58S29.308,52,25.999,52z"/>
</g>
</svg>
