<?xml version="1.0" encoding="utf-8"?>
<!-- Generator: Adobe Illustrator 16.0.0, SVG Export Plug-In . SVG Version: 6.00 Build 0)  -->
<!DOCTYPE svg PUBLIC "-//W3C//DTD SVG 1.1//EN" "http://www.w3.org/Graphics/SVG/1.1/DTD/svg11.dtd">
<svg version="1.1" xmlns="http://www.w3.org/2000/svg" xmlns:xlink="http://www.w3.org/1999/xlink" x="0px" y="0px" width="100px"
	 height="100px" viewBox="0 0 100 100" enable-background="new 0 0 100 100" xml:space="preserve">
<g id="Layer_3" display="none">
	<circle display="inline" fill="none" stroke="#000000" stroke-width="0.25" stroke-miterlimit="10" cx="50" cy="50" r="15.134"/>
	<rect x="6" y="6" display="inline" opacity="0.26" width="88" height="88"/>
	<circle display="inline" fill="none" stroke="#000000" stroke-width="0.25" stroke-miterlimit="10" cx="50" cy="50" r="24"/>
	<circle display="inline" fill="none" stroke="#000000" stroke-width="0.25" stroke-miterlimit="10" cx="50" cy="50" r="30"/>
	<circle display="inline" fill="none" stroke="#000000" stroke-width="0.25" stroke-miterlimit="10" cx="50" cy="50" r="9.134"/>
	<g display="inline">
		<path d="M50,0.25c27.433,0,49.75,22.317,49.75,49.75S77.433,99.75,50,99.75S0.25,77.433,0.25,50S22.567,0.25,50,0.25 M50,0
			C22.389,0,0,22.386,0,50s22.389,50,50,50c27.612,0,50-22.386,50-50S77.612,0,50,0L50,0z"/>
	</g>
</g>
<g id="Your_Icon">
</g>
<g id="Layer_4">
	<path d="M41.914,97.971c-10.271,0-14-8.372-14-14V50.736c-0.186,0.008-0.375,0.012-0.568,0.012c-2.515,0-5.277-0.738-8.211-2.194
		c-3.574-1.775-5.049-4.374-5.657-6.24c-1.457-4.474,0.645-8.721,0.889-9.19c0.096-0.185,0.207-0.361,0.331-0.529L32.484,8.517
		c0.118-0.16,0.248-0.311,0.389-0.451c4.988-4.988,14.291-6.036,21.218-6.036c1.35,0,2.36,0.045,2.823,0.07
		c0.463-0.025,1.473-0.07,2.823-0.07c6.927,0,16.229,1.048,21.219,6.035c3.224,3.224,5.189,8.887,5.844,16.831
		c0.396,4.822,0.188,9.005,0.121,10.098c0.122,2.463,0.433,15.423-5.965,21.82c-4.033,4.035-12.527,6.08-25.246,6.08
		c-0.273,0-0.539-0.001-0.796-0.003v21.08C54.914,89.599,51.452,97.971,41.914,97.971z M31.896,40.641
		c0.359,0,0.731,0.045,1.109,0.133c1.812,0.422,2.909,2.338,2.909,4.197v39c0.105,5.412,4.231,6,6,6c4.553,0,4.979-4.615,5-6.029
		V58.772c0-1.104,0.457-2.158,1.262-2.915c0.804-0.756,1.892-1.143,2.987-1.077c0.019,0.001,1.862,0.113,4.547,0.113
		c11.688,0,17.783-1.93,19.589-3.736c3.134-3.134,3.885-11.445,3.622-15.948c-0.01-0.176-0.009-0.357,0.004-0.533
		c0.486-6.707-0.316-17.645-3.625-20.953c-2.278-2.278-8.241-3.693-15.562-3.693c-1.54,0-2.539,0.067-2.549,0.067
		c-0.182,0.014-0.369,0.014-0.553,0c-0.006,0-1.005-0.067-2.545-0.067c-7.131,0-12.973,1.343-15.376,3.517L21.356,37.043
		c-0.892,1.985-0.448,3.459,1.337,4.345c2.264,1.125,3.779,1.36,4.652,1.36c0.795,0,1.237-0.192,1.43-0.307
		C29.44,41.229,30.586,40.641,31.896,40.641z"/>
</g>
</svg>
