<?xml version="1.0" encoding="utf-8"?>
<!-- Generator: Adobe Illustrator 16.0.0, SVG Export Plug-In . SVG Version: 6.00 Build 0)  -->
<!DOCTYPE svg PUBLIC "-//W3C//DTD SVG 1.1//EN" "http://www.w3.org/Graphics/SVG/1.1/DTD/svg11.dtd">
<svg version="1.1" xmlns="http://www.w3.org/2000/svg" xmlns:xlink="http://www.w3.org/1999/xlink" x="0px" y="0px" width="100px"
	 height="100px" viewBox="0 0 100 100" enable-background="new 0 0 100 100" xml:space="preserve">
<g id="Layer_3">
</g>
<g id="Your_Icon">
</g>
<g id="Layer_4">
	<g>
		<path d="M92,9v64H8V9H92 M92,1H8C3.582,1,0,4.582,0,9v64c0,4.418,3.582,8,8,8h84c4.418,0,8-3.582,8-8V9C100,4.582,96.418,1,92,1
			L92,1z"/>
	</g>
	<g>
		<path d="M84,20c0-2.209-1.791-4-4-4H20c-2.209,0-4,1.791-4,4v42c0,2.209,1.791,4,4,4h60c2.209,0,4-1.791,4-4V20z M76,58H24V24h52
			V58z"/>
	</g>
	<path d="M68,99.368H32c-2.209,0-4-1.791-4-4V82.7h8v8.668h28V82.7h8v12.668C72,97.577,70.209,99.368,68,99.368z"/>
</g>
</svg>
