<?xml version="1.0" encoding="utf-8"?>
<!-- Generator: Adobe Illustrator 16.0.0, SVG Export Plug-In . SVG Version: 6.00 Build 0)  -->
<!DOCTYPE svg PUBLIC "-//W3C//DTD SVG 1.1//EN" "http://www.w3.org/Graphics/SVG/1.1/DTD/svg11.dtd">
<svg version="1.1" xmlns="http://www.w3.org/2000/svg" xmlns:xlink="http://www.w3.org/1999/xlink" x="0px" y="0px" width="100px"
	 height="100px" viewBox="0 0 100 100" enable-background="new 0 0 100 100" xml:space="preserve">
<g id="Layer_3" display="none">
</g>
<g id="Your_Icon">
</g>
<g id="Layer_4">
	<rect x="45" y="20" width="10" height="69"/>
	<path d="M90,72H80V56H20v16H10V51c0-2.762,2.238-5,5-5h70c2.762,0,5,2.238,5,5V72z"/>
	<g>
		<path fill="#FFFFFF" d="M45.679,95.326c-6.474-2.386-9.792-9.571-7.402-16.046c2.381-6.477,9.568-9.793,16.046-7.407
			c6.473,2.385,9.79,9.57,7.402,16.048C59.343,94.398,52.155,97.714,45.679,95.326z"/>
	</g>
	<g>
		<path d="M45.506,98.642c-6.733-2.483-10.184-9.953-7.699-16.69c2.478-6.737,9.95-10.184,16.688-7.706
			c6.732,2.484,10.182,9.955,7.7,16.692C59.716,97.676,52.243,101.125,45.506,98.642z"/>
	</g>
	<g>
		<path fill="#FFFFFF" d="M80.678,87.025c-6.474-2.386-9.792-9.571-7.402-16.046c2.381-6.477,9.568-9.793,16.046-7.407
			c6.473,2.385,9.79,9.57,7.402,16.048C94.342,86.098,87.154,89.413,80.678,87.025z"/>
	</g>
	<g>
		<path d="M80.332,91.665c-6.991-2.576-10.575-10.336-7.994-17.33c2.57-6.994,10.334-10.575,17.329-8
			c6.99,2.578,10.573,10.338,7.994,17.332C95.09,90.662,87.326,94.245,80.332,91.665z"/>
	</g>
	<g>
		<path fill="#FFFFFF" d="M10.777,87.326C4.305,84.94,0.986,77.755,3.375,71.28c2.381-6.477,9.568-9.793,16.047-7.407
			c6.473,2.385,9.789,9.57,7.402,16.048C24.441,86.398,17.254,89.714,10.777,87.326z"/>
	</g>
	<g>
		<path d="M10.604,90.594C3.873,88.117,0.421,80.64,2.907,73.906c2.474-6.735,9.952-10.185,16.688-7.705
			c6.731,2.48,10.182,9.958,7.697,16.691C24.817,89.629,17.338,93.08,10.604,90.594z"/>
	</g>
	<g>
		<path fill="#FFFFFF" d="M45.679,4.975c-6.474,2.386-9.792,9.571-7.402,16.046c2.381,6.477,9.568,9.793,16.046,7.407
			c6.473-2.385,9.79-9.57,7.402-16.048C59.343,5.902,52.155,2.587,45.679,4.975z"/>
	</g>
	<g>
		<path d="M45.506,1.899c-6.733,2.483-10.185,9.954-7.699,16.691c2.479,6.737,9.949,10.184,16.688,7.706
			c6.732-2.484,10.182-9.955,7.7-16.691C59.716,2.866,52.243-0.582,45.506,1.899z"/>
	</g>
</g>
</svg>
