<?xml version="1.0" encoding="utf-8"?>
<!-- Generator: Adobe Illustrator 16.0.0, SVG Export Plug-In . SVG Version: 6.00 Build 0)  -->
<!DOCTYPE svg PUBLIC "-//W3C//DTD SVG 1.1//EN" "http://www.w3.org/Graphics/SVG/1.1/DTD/svg11.dtd">
<svg version="1.1" xmlns="http://www.w3.org/2000/svg" xmlns:xlink="http://www.w3.org/1999/xlink" x="0px" y="0px" width="64px"
	 height="100px" viewBox="0 0 64 100" enable-background="new 0 0 64 100" xml:space="preserve">
<g id="Layer_3">
</g>
<g id="Your_Icon">
</g>
<g id="Layer_4">
	<path fill="none" stroke="#000000" stroke-width="8" stroke-linecap="square" stroke-miterlimit="10" d="M33.318,67.799"/>
	<path d="M42.774,69.473l-5.161-6.112l3.057-2.581c3.043-2.569,4.534-5.916,3.797-8.523c-1.79-6.333-7.174-8.817-13.408-11.693
		c-7.111-3.281-15.172-7-17.631-17.198c-1.075-4.457,0.202-9.417,3.504-13.608c3.866-4.909,9.761-7.958,15.384-7.958
		c0.005,0,0.005,0,0.009,0c5.055,0,9.812,1.931,13.396,5.436c3.608,3.53,5.596,8.23,5.596,13.236v4h-8v-4
		c0-2.835-1.133-5.504-3.19-7.517c-2.079-2.035-4.852-3.155-7.804-3.155c-0.002,0-0.003,0-0.005,0c-3.181,0-6.753,1.926-9.102,4.908
		c-1.774,2.253-2.507,4.725-2.011,6.783c1.476,6.122,5.979,8.476,13.205,11.809c7.014,3.236,14.963,6.903,17.756,16.781
		c1.612,5.709-0.815,12.151-6.336,16.812L42.774,69.473z"/>
	<path d="M31.677,98.201c-5.055,0-9.813-1.931-13.397-5.437c-3.608-3.529-5.596-8.23-5.596-13.235v-4h8v4
		c0,2.835,1.133,5.505,3.19,7.517c2.079,2.035,4.852,3.155,7.805,3.155c0.002,0,0.003,0,0.005,0c3.181,0,6.752-1.927,9.101-4.908
		c1.774-2.253,2.507-4.725,2.011-6.783c-1.476-6.121-5.979-8.475-13.205-11.809c-7.014-3.235-14.963-6.903-17.756-16.781
		c-1.612-5.708,0.815-12.15,6.335-16.812l3.057-2.581l5.161,6.112l-3.056,2.581c-3.044,2.57-4.535,5.917-3.798,8.524
		c1.79,6.333,7.174,8.816,13.408,11.693c7.111,3.28,15.172,6.999,17.631,17.197c1.075,4.456-0.202,9.417-3.504,13.608
		c-3.866,4.909-9.761,7.958-15.383,7.958C31.679,98.201,31.679,98.201,31.677,98.201z"/>
</g>
</svg>
