<?xml version="1.0" encoding="utf-8"?>
<!-- Generator: Adobe Illustrator 16.0.0, SVG Export Plug-In . SVG Version: 6.00 Build 0)  -->
<!DOCTYPE svg PUBLIC "-//W3C//DTD SVG 1.1//EN" "http://www.w3.org/Graphics/SVG/1.1/DTD/svg11.dtd">
<svg version="1.1" xmlns="http://www.w3.org/2000/svg" xmlns:xlink="http://www.w3.org/1999/xlink" x="0px" y="0px" width="100px"
	 height="100px" viewBox="0 0 100 100" enable-background="new 0 0 100 100" xml:space="preserve">
<g id="Layer_3" display="none">
	<circle display="inline" fill="none" stroke="#000000" stroke-width="0.25" stroke-miterlimit="10" cx="50" cy="50" r="15.134"/>
	<rect x="6" y="6" display="inline" opacity="0.26" width="88" height="88"/>
	<circle display="inline" fill="none" stroke="#000000" stroke-width="0.25" stroke-miterlimit="10" cx="50" cy="50" r="24"/>
	<circle display="inline" fill="none" stroke="#000000" stroke-width="0.25" stroke-miterlimit="10" cx="50" cy="50" r="30"/>
	
		<circle display="inline" fill="none" stroke="#000000" stroke-width="0.25" stroke-miterlimit="10" cx="51.134" cy="50" r="9.134"/>
	<g display="inline">
		<path d="M50,0.25c27.433,0,49.75,22.318,49.75,49.75S77.433,99.75,50,99.75S0.25,77.432,0.25,50S22.567,0.25,50,0.25 M50,0
			C22.389,0,0,22.386,0,50s22.389,50,50,50c27.612,0,50-22.386,50-50S77.612,0,50,0L50,0z"/>
	</g>
	<polyline display="inline" fill="none" stroke="#FFFFFF" stroke-width="6" stroke-miterlimit="10" points="62.89,76 37.111,50.211 
		62.112,24 	"/>
</g>
<g id="Your_Icon">
</g>
<g id="Layer_4">
	<path d="M70.998,71c1.148,0,2.315,0.199,3.456,0.62c5.182,1.908,7.836,7.657,5.927,12.841c-1.489,4.041-5.314,6.544-9.385,6.544
		c-1.148,0-2.315-0.199-3.456-0.619c-3.835-1.413-6.287-4.929-6.527-8.763c-0.084-1.346,0.104-2.73,0.602-4.077
		c0.542-1.471,1.393-2.737,2.451-3.754C65.918,72.013,68.408,71,70.998,71 M70.998,65L70.998,65c-4.151,0-8.089,1.585-11.088,4.463
		c-1.759,1.689-3.079,3.71-3.926,6.008c-0.775,2.102-1.099,4.298-0.96,6.526c0.396,6.325,4.495,11.828,10.441,14.019
		c1.782,0.657,3.643,0.989,5.53,0.989c6.673,0,12.707-4.207,15.015-10.469c1.478-4.012,1.305-8.357-0.486-12.238
		c-1.792-3.881-4.986-6.831-8.997-8.308C74.747,65.333,72.887,65,70.998,65L70.998,65z"/>
	<path d="M22.645,39.998c1.148,0,2.315,0.199,3.456,0.62c5.182,1.908,7.836,7.657,5.927,12.841
		c-1.489,4.041-5.314,6.545-9.385,6.545c-1.148,0-2.315-0.199-3.456-0.619c-5.183-1.909-7.837-7.658-5.926-12.841
		C14.75,42.502,18.575,39.998,22.645,39.998 M22.646,33.998L22.646,33.998c-6.674,0-12.707,4.208-15.015,10.471
		c-1.479,4.009-1.307,8.355,0.485,12.236c1.79,3.881,4.985,6.832,8.996,8.309c1.781,0.656,3.642,0.989,5.53,0.989
		c6.673,0,12.707-4.208,15.015-10.47c1.478-4.012,1.305-8.357-0.486-12.238c-1.792-3.881-4.986-6.831-8.997-8.308
		C26.394,34.331,24.533,33.998,22.646,33.998L22.646,33.998z"/>
	<path d="M70.998,8.995c1.148,0,2.315,0.199,3.456,0.62c5.183,1.908,7.836,7.657,5.927,12.841C78.892,26.496,75.066,29,70.996,29
		c-1.148,0-2.315-0.199-3.456-0.619c-5.183-1.909-7.836-7.658-5.926-12.841C63.104,11.499,66.929,8.995,70.998,8.995 M70.999,2.995
		L70.999,2.995c-6.674,0-12.707,4.208-15.015,10.471c-1.479,4.01-1.306,8.355,0.485,12.236c1.791,3.88,4.985,6.832,8.996,8.309
		C67.247,34.667,69.107,35,70.996,35c6.673,0,12.707-4.208,15.015-10.47c1.478-4.012,1.305-8.357-0.486-12.238
		c-1.791-3.881-4.986-6.832-8.997-8.308C74.747,3.328,72.887,2.995,70.999,2.995L70.999,2.995z"/>
	<rect x="36.448" y="64.068" transform="matrix(0.8285 0.5599 -0.5599 0.8285 45.3538 -13.9773)" width="18.104" height="6"/>
	<rect x="42.5" y="23.878" transform="matrix(0.5599 0.8285 -0.8285 0.5599 47.3063 -23.2068)" width="5.999" height="18.105"/>
</g>
</svg>
