<?xml version="1.0" encoding="utf-8"?>
<!-- Generator: Adobe Illustrator 16.0.0, SVG Export Plug-In . SVG Version: 6.00 Build 0)  -->
<!DOCTYPE svg PUBLIC "-//W3C//DTD SVG 1.1//EN" "http://www.w3.org/Graphics/SVG/1.1/DTD/svg11.dtd">
<svg version="1.1" xmlns="http://www.w3.org/2000/svg" xmlns:xlink="http://www.w3.org/1999/xlink" x="0px" y="0px" width="100px"
	 height="100px" viewBox="0 0 100 100" enable-background="new 0 0 100 100" xml:space="preserve">
<g id="Layer_3" display="none">
	<circle display="inline" fill="none" stroke="#000000" stroke-width="0.25" stroke-miterlimit="10" cx="48" cy="46" r="24"/>
	<g display="inline">
		<path d="M50,0.25c27.432,0,49.75,22.317,49.75,49.75S77.432,99.75,50,99.75S0.25,77.433,0.25,50S22.568,0.25,50,0.25 M50,0
			C22.389,0,0,22.386,0,50s22.389,50,50,50c27.612,0,50-22.386,50-50S77.612,0,50,0L50,0z"/>
	</g>
	<circle display="inline" fill="none" stroke="#000000" stroke-width="0.25" stroke-miterlimit="10" cx="52" cy="53" r="24"/>
</g>
<g id="Your_Icon">
</g>
<g id="Layer_4">
	<g>
		<path d="M42,40c0-2.209-1.791-4-4-4H20.777c2.67-6.411,7.812-11.539,14.389-14.155c13.317-5.292,28.46,1.236,33.753,14.554
			c1.006,2.532,1.607,5.179,1.787,7.868C70.848,46.38,72.606,48,74.693,48c0.09,0,0.18-0.003,0.271-0.009
			c2.205-0.147,3.872-2.054,3.725-4.258c-0.235-3.521-1.021-6.982-2.334-10.289C69.432,16.027,49.628,7.485,32.211,14.411
			C25.98,16.89,20.746,21.1,17,26.413V15c0-2.209-1.791-4-4-4s-4,1.791-4,4v25c0,2.209,1.791,4,4,4h25C40.209,44,42,42.209,42,40z"
			/>
		<path d="M87,56H62c-2.209,0-4,1.791-4,4s1.791,4,4,4h17.223c-2.67,6.411-7.812,11.539-14.389,14.155
			c-13.32,5.288-28.46-1.237-33.753-14.554c-1.006-2.532-1.607-5.179-1.787-7.868c-0.148-2.205-2.073-3.877-4.258-3.725
			c-2.205,0.147-3.872,2.054-3.725,4.258c0.235,3.521,1.021,6.982,2.334,10.289c5.291,13.312,18.104,21.438,31.629,21.438
			c4.17,0,8.409-0.772,12.514-2.404C74.02,83.11,79.254,78.9,83,73.587V85c0,2.209,1.791,4,4,4s4-1.791,4-4V60
			C91,57.791,89.209,56,87,56z"/>
	</g>
</g>
</svg>
