<?xml version="1.0" encoding="utf-8"?>
<!-- Generator: Adobe Illustrator 16.0.0, SVG Export Plug-In . SVG Version: 6.00 Build 0)  -->
<!DOCTYPE svg PUBLIC "-//W3C//DTD SVG 1.1//EN" "http://www.w3.org/Graphics/SVG/1.1/DTD/svg11.dtd">
<svg version="1.1" xmlns="http://www.w3.org/2000/svg" xmlns:xlink="http://www.w3.org/1999/xlink" x="0px" y="0px" width="100px"
	 height="100px" viewBox="0 0 100 100" enable-background="new 0 0 100 100" xml:space="preserve">
<g id="Layer_3" display="none">
	<g display="inline" opacity="0.31">
		<path d="M92,12c-1.06,0-2.076-0.421-2.826-1.17C88.422,10.08,88,9.062,88,8v-56c0-2.209,1.791-4,4-4h56c2.209,0,4,1.791,4,4V7.92
			c0,2.207-1.787,3.997-3.994,4C148.006,11.92,92.002,12,92,12z"/>
		<path d="M148-48V7.92L92,8v-56H148 M148-56H92c-4.418,0-8,3.582-8,8V8c0,2.124,0.844,4.16,2.347,5.661
			C87.847,15.159,89.88,16,92,16c0.004,0,0.007,0,0.011,0l56-0.08c4.413-0.006,7.988-3.586,7.988-8V-48
			C156-52.418,152.418-56,148-56L148-56z"/>
	</g>
</g>
<g id="Your_Icon">
</g>
<g id="Layer_4">
	<path d="M50.466,100c-0.002,0-0.005,0-0.006,0c-11.022,0-19.994-8.823-19.998-19.67l-0.002-5l10-0.004l0.002,5
		c0.002,5.335,4.488,9.675,10,9.674h0.001c2.941,0,6.483-1.968,8.616-4.786c0.683-0.902,2.203-3.243,1.57-5.484
		c-2.032-7.187-8.384-16.775-14.528-26.05c-7.015-10.589-14.269-21.538-16.521-30.878c-1.147-4.757,0.198-10.027,3.69-14.461
		C37.344,3.196,43.54,0,49.462,0c0.004-0.002,0.005,0,0.007,0c5.318,0,10.325,2.032,14.097,5.722
		c3.802,3.72,5.896,8.674,5.896,13.951v5h-10v-5c0-2.564-1.026-4.98-2.889-6.803C54.682,11.02,52.158,10,49.468,10
		c-0.001,0-0.002,0-0.003,0h0c-2.842,0-6.184,1.819-8.316,4.527c-1.583,2.011-2.249,4.172-1.824,5.931
		c1.839,7.629,8.599,17.832,15.136,27.699c6.87,10.369,13.358,20.164,15.815,28.853c1.305,4.622,0.132,9.812-3.219,14.239
		C63.031,96.565,56.52,100,50.466,100z"/>
</g>
</svg>
