<?xml version="1.0" encoding="utf-8"?>
<!-- Generator: Adobe Illustrator 16.0.0, SVG Export Plug-In . SVG Version: 6.00 Build 0)  -->
<!DOCTYPE svg PUBLIC "-//W3C//DTD SVG 1.1//EN" "http://www.w3.org/Graphics/SVG/1.1/DTD/svg11.dtd">
<svg version="1.1" xmlns="http://www.w3.org/2000/svg" xmlns:xlink="http://www.w3.org/1999/xlink" x="0px" y="0px" width="100px"
	 height="100px" viewBox="0 0 100 100" enable-background="new 0 0 100 100" xml:space="preserve">
<g id="Layer_3" display="none">
	<circle display="inline" fill="none" stroke="#000000" stroke-width="0.25" stroke-miterlimit="10" cx="50" cy="50" r="15.134"/>
	<polyline display="inline" opacity="0.26" points="94,6 6,6 6,94 94,94 	"/>
	<circle display="inline" fill="none" stroke="#000000" stroke-width="0.25" stroke-miterlimit="10" cx="50" cy="50" r="24"/>
	<circle display="inline" fill="none" stroke="#000000" stroke-width="0.25" stroke-miterlimit="10" cx="50" cy="50" r="30"/>
	<circle display="inline" fill="none" stroke="#000000" stroke-width="0.25" stroke-miterlimit="10" cx="50" cy="50" r="9.134"/>
	<path display="inline" fill="none" stroke="#000000" stroke-width="0.25" stroke-miterlimit="10" d="M0,50C0,22.386,22.389,0,50,0
		c27.612,0,50,22.386,50,50"/>
	<path display="inline" fill="none" stroke="#000000" stroke-width="0.25" stroke-miterlimit="10" d="M100,50
		c0,27.614-22.388,50-50,50C22.389,100,0,77.614,0,50"/>
</g>
<g id="Your_Icon">
</g>
<g id="Layer_4">
	<path d="M67,100H49c-2.209,0-4-1.791-4-4s1.791-4,4-4h14V8H49c-2.209,0-4-1.791-4-4s1.791-4,4-4h18c2.209,0,4,1.791,4,4v92
		C71,98.209,69.209,100,67,100z"/>
	<path d="M22,100H4c-2.209,0-4-1.791-4-4V4c0-2.209,1.791-4,4-4h18c2.209,0,4,1.791,4,4s-1.791,4-4,4H8v84h14c2.209,0,4,1.791,4,4
		S24.209,100,22,100z"/>
	<path d="M51,54H21c-2.209,0-4-1.791-4-4s1.791-4,4-4h30c2.209,0,4,1.791,4,4S53.209,54,51,54z"/>
	<path d="M36,69c-2.209,0-4-1.791-4-4V35c0-2.209,1.791-4,4-4s4,1.791,4,4v30C40,67.209,38.209,69,36,69z"/>
	<path d="M96,100H78c-2.209,0-4-1.791-4-4s1.791-4,4-4h14V8H78c-2.209,0-4-1.791-4-4s1.791-4,4-4h18c2.209,0,4,1.791,4,4v92
		C100,98.209,98.209,100,96,100z"/>
</g>
</svg>
