<?xml version="1.0" encoding="utf-8"?>
<!-- Generator: Adobe Illustrator 16.0.0, SVG Export Plug-In . SVG Version: 6.00 Build 0)  -->
<!DOCTYPE svg PUBLIC "-//W3C//DTD SVG 1.1//EN" "http://www.w3.org/Graphics/SVG/1.1/DTD/svg11.dtd">
<svg version="1.1" xmlns="http://www.w3.org/2000/svg" xmlns:xlink="http://www.w3.org/1999/xlink" x="0px" y="0px" width="100px"
	 height="100px" viewBox="0 0 100 100" enable-background="new 0 0 100 100" xml:space="preserve">
<g id="Layer_3" display="none">
</g>
<g id="Your_Icon">
</g>
<g id="Layer_4">
	<path d="M70.139,88.035c-1.999,0-3.513-0.075-4.149-0.113c-0.353,0.015-0.962,0.034-1.765,0.034c0,0,0,0-0.001,0
		c-5.397,0-15.27-0.818-20.744-6.293c-3.457-3.457-5.465-9.697-6.137-19.077c-0.175-2.435-0.232-4.743-0.236-6.672H15.029
		c-6.029,0-15-3.729-15-14c0-11.005,8.971-15,15-15H49.34c-0.293-3.263,0.178-7.143,2.211-11.237c1.79-3.604,4.89-5.671,8.504-5.671
		c4.322,0,7.99,2.979,9.174,4.056l23.85,17.618c0.2,0.147,0.389,0.311,0.564,0.486c6.917,6.916,6.432,21.8,6.262,24.748
		c0.17,2.948,0.655,17.832-6.261,24.749C89.416,85.892,81.508,88.035,70.139,88.035z M66.03,77.914c0.123,0,0.246,0.005,0.367,0.014
		c0.011,0.001,1.52,0.107,3.741,0.107c9.578,0,14.769-1.778,16.433-3.442c2.91-2.91,3.702-11.89,3.335-17.337
		c-0.016-0.228-0.016-0.462,0-0.689c0.358-5.309-0.387-13.984-3.125-17.106L63.059,21.936c-0.177-0.131-0.346-0.273-0.504-0.426
		c-0.564-0.53-1.449-1.106-2.057-1.365c-2.577,5.209-0.341,8.947-0.317,8.982c1.029,1.534,1.13,3.51,0.261,5.14
		s-2.565,2.647-4.412,2.647h-41c-2.249,0.058-5,0.974-5,5c0,3.712,3.827,4,5,4h27.199c1.381,0,2.699,0.571,3.645,1.577
		s1.433,2.358,1.346,3.736c-0.563,9.109,0.641,20.673,3.332,23.364c2.043,2.044,7.41,3.364,13.674,3.364h0.001
		c0.882,0,1.44-0.029,1.508-0.033C65.831,77.917,65.931,77.914,66.03,77.914z"/>
</g>
</svg>
