<?xml version="1.0" encoding="utf-8"?>
<!-- Generator: Adobe Illustrator 16.0.0, SVG Export Plug-In . SVG Version: 6.00 Build 0)  -->
<!DOCTYPE svg PUBLIC "-//W3C//DTD SVG 1.1//EN" "http://www.w3.org/Graphics/SVG/1.1/DTD/svg11.dtd">
<svg version="1.1" xmlns="http://www.w3.org/2000/svg" xmlns:xlink="http://www.w3.org/1999/xlink" x="0px" y="0px" width="100px"
	 height="100px" viewBox="0 0 100 100" enable-background="new 0 0 100 100" xml:space="preserve">
<g id="Layer_3" display="none">
	<circle display="inline" fill="none" stroke="#000000" stroke-width="0.25" stroke-miterlimit="10" cx="50" cy="50" r="15.134"/>
	<polyline display="inline" opacity="0.26" points="94,6 6,6 6,94 94,94 	"/>
	<circle display="inline" fill="none" stroke="#000000" stroke-width="0.25" stroke-miterlimit="10" cx="50" cy="50" r="24"/>
	<circle display="inline" fill="none" stroke="#000000" stroke-width="0.25" stroke-miterlimit="10" cx="50" cy="50" r="30"/>
	<circle display="inline" fill="none" stroke="#000000" stroke-width="0.25" stroke-miterlimit="10" cx="50" cy="50" r="9.134"/>
	<path display="inline" fill="none" stroke="#000000" stroke-width="0.25" stroke-miterlimit="10" d="M0,50C0,22.386,22.389,0,50,0
		c27.612,0,50,22.386,50,50"/>
	<path display="inline" fill="none" stroke="#000000" stroke-width="0.25" stroke-miterlimit="10" d="M100,50
		c0,27.614-22.388,50-50,50C22.389,100,0,77.614,0,50"/>
</g>
<g id="Your_Icon">
	<g>
		<path d="M50,39.138c-7.077-4.6-14.288-14.846-13.598-23.38c0.373-4.595,2.465-8.714,5.893-11.598
			c3.2-2.693,7.213-3.972,11.305-3.597c4.412,0.402,8.494,2.745,11.2,6.428l-4.835,3.553c-1.714-2.333-4.168-3.755-6.911-4.005
			c-2.482-0.227-4.931,0.56-6.897,2.212c-2.192,1.845-3.533,4.505-3.775,7.49c-0.489,6.041,5.345,14.264,10.887,17.866L50,39.138z"
			/>
		<path d="M48.121,68.598l-3.806-2.967c-1.411-0.651-2.714-1.512-3.879-2.564l-1.596-1.44l0.103-0.24
			c-3.109-2.714-7.143-7.259-6.004-13.975c1.364-8.043,7.991-13.881,15.757-13.881c0.735,0,1.475,0.054,2.207,0.162l0.722-1.674
			l3.076,2.492c0.247,0.2,0.496,0.398,0.745,0.596c1.024,0.506,1.994,1.126,2.887,1.848l1.714,1.385l-0.146,0.371
			c4.109,3.565,7.765,8.01,6.528,14.706c-1.459,7.896-8.068,13.627-15.711,13.627c0,0,0,0,0,0c-0.645,0-1.292-0.042-1.936-0.125
			L48.121,68.598z M47.4,60.435l0.45,0.145c0.395,0.127,0.75,0.222,1.085,0.289c0.587,0.116,1.188,0.175,1.782,0.175
			c4.751,0,8.878-3.666,9.812-8.717c0.735-3.981-1.576-6.714-6.099-10.365l-1.715-1.385l0.042-0.105
			c-0.057-0.028-0.115-0.055-0.172-0.082l-0.322-0.149l-0.572-0.194c-0.519-0.177-0.951-0.293-1.358-0.366
			c-0.542-0.098-1.092-0.147-1.636-0.147c-4.83,0-8.969,3.736-9.841,8.884c-0.658,3.877,1.558,6.511,5.607,9.75l1.786,1.429
			l-0.103,0.238c0.293,0.166,0.595,0.316,0.904,0.449L47.4,60.435z"/>
		<path d="M47.212,100.286c-0.549,0-1.1-0.03-1.652-0.09c-4.405-0.477-8.452-2.886-11.1-6.61l4.89-3.478
			c1.679,2.362,4.114,3.826,6.856,4.123c2.48,0.269,4.938-0.476,6.927-2.096c2.217-1.806,3.595-4.442,3.88-7.421
			c0.569-5.945-5.185-14.545-10.711-18.264l3.35-4.978c7.055,4.747,14.159,15.201,13.334,23.813
			c-0.439,4.588-2.592,8.673-6.063,11.501C54.12,99.071,50.722,100.286,47.212,100.286z"/>
	</g>
</g>
<g id="Layer_4">
</g>
</svg>
