<?xml version="1.0" encoding="utf-8"?>
<!-- Generator: Adobe Illustrator 16.0.0, SVG Export Plug-In . SVG Version: 6.00 Build 0)  -->
<!DOCTYPE svg PUBLIC "-//W3C//DTD SVG 1.1//EN" "http://www.w3.org/Graphics/SVG/1.1/DTD/svg11.dtd">
<svg version="1.1" xmlns="http://www.w3.org/2000/svg" xmlns:xlink="http://www.w3.org/1999/xlink" x="0px" y="0px" width="100px"
	 height="100px" viewBox="0 0 100 100" enable-background="new 0 0 100 100" xml:space="preserve">
<g id="Layer_3" display="none">
	<circle display="inline" fill="none" stroke="#000000" stroke-width="0.25" stroke-miterlimit="10" cx="50" cy="49" r="15.134"/>
	<polyline display="inline" opacity="0.26" points="94,5 6,5 6,93 94,93 	"/>
	<circle display="inline" fill="none" stroke="#000000" stroke-width="0.25" stroke-miterlimit="10" cx="50" cy="49" r="24"/>
	<circle display="inline" fill="none" stroke="#000000" stroke-width="0.25" stroke-miterlimit="10" cx="50" cy="49" r="30"/>
	<circle display="inline" fill="none" stroke="#000000" stroke-width="0.25" stroke-miterlimit="10" cx="50" cy="49" r="9.134"/>
	<path display="inline" fill="none" stroke="#000000" stroke-width="0.25" stroke-miterlimit="10" d="M0,49C0,21.386,22.389-1,50-1
		c27.612,0,50,22.386,50,50"/>
	<path display="inline" fill="none" stroke="#000000" stroke-width="0.25" stroke-miterlimit="10" d="M100,49
		c0,27.614-22.388,50-50,50C22.389,99,0,76.614,0,49"/>
</g>
<g id="Your_Icon">
</g>
<g id="Layer_4">
	<path d="M0,101.002V39h100v61.925L0,101.002z M6,45v49.998l88-0.069V45H6z"/>
	<path d="M70.5,34.016h-6v-0.828c0-4.7-2.998-8.859-7.142-9.922c-0.775-0.104-4.277-0.218-7.154-0.266
		c-2.677,0.032-6.003,0.108-6.699,0.178c-4.567,0.93-8.005,5.221-8.005,10.01v0.828h-6v-0.828c0-7.63,5.556-14.471,12.924-15.912
		c0.25-0.049,1.006-0.196,7.796-0.275c7.29,0.121,8.204,0.348,8.504,0.422c6.933,1.71,11.776,8.193,11.776,15.766V34.016z"/>
</g>
</svg>
