<?xml version="1.0" encoding="utf-8"?>
<!-- Generator: Adobe Illustrator 16.0.0, SVG Export Plug-In . SVG Version: 6.00 Build 0)  -->
<!DOCTYPE svg PUBLIC "-//W3C//DTD SVG 1.1//EN" "http://www.w3.org/Graphics/SVG/1.1/DTD/svg11.dtd">
<svg version="1.1" xmlns="http://www.w3.org/2000/svg" xmlns:xlink="http://www.w3.org/1999/xlink" x="0px" y="0px" width="100px"
	 height="100px" viewBox="0 0 100 100" enable-background="new 0 0 100 100" xml:space="preserve">
<g id="Layer_3" display="none">
	<circle display="inline" fill="none" stroke="#000000" stroke-width="0.25" stroke-miterlimit="10" cx="51" cy="49.5" r="17.5"/>
	<polyline display="inline" opacity="0.15" points="96,5 6,5 6,95 96,95 	"/>
	<circle display="inline" fill="none" stroke="#000000" stroke-width="0.25" stroke-miterlimit="10" cx="51" cy="50" r="26"/>
	<circle display="inline" fill="none" stroke="#000000" stroke-width="0.25" stroke-miterlimit="10" cx="51" cy="50" r="34"/>
	<circle display="inline" fill="none" stroke="#000000" stroke-width="0.25" stroke-miterlimit="10" cx="51" cy="49.5" r="9"/>
	<path display="inline" fill="none" stroke="#000000" stroke-width="0.25" stroke-miterlimit="10" d="M1,50C1,22.386,23.389,0,51,0
		c27.612,0,50,22.386,50,50"/>
	<path display="inline" fill="none" stroke="#000000" stroke-width="0.25" stroke-miterlimit="10" d="M101,50
		c0,27.614-22.388,50-50,50C23.389,100,1,77.614,1,50"/>
</g>
<g id="Your_Icon">
</g>
<g id="Layer_4">
	<path d="M52.002,99.998c-0.002,0-0.002,0-0.006,0c-10.471,0-18.994-8.521-18.998-18.996c-0.001-2.209,1.79-4,3.999-4.001
		c0,0,0.001,0,0.001,0c2.208,0,3.999,1.79,4,3.999c0.002,6.064,4.937,10.999,11,10.998c0,0,0.001,0,0.002,0
		c3.204,0,6.936-2.074,9.286-5.163c1.738-2.282,2.414-4.75,1.855-6.77c-2.08-7.521-8.482-17.399-14.673-26.953
		c-6.961-10.74-14.159-21.847-16.364-31.194c-1.084-4.596,0.247-9.698,3.653-14c3.865-4.883,9.705-7.916,15.24-7.916
		c0.004,0,0.004,0,0.007,0c5.072,0,9.842,1.976,13.429,5.562c3.588,3.588,5.564,8.359,5.564,13.436c0,2.209-1.791,4-4,4l0,0
		c-2.209,0-4-1.791-4-4c0-2.939-1.144-5.701-3.221-7.778c-2.076-2.076-4.837-3.22-7.774-3.22c-0.001,0-0.002,0-0.003,0H51
		c-3.102,0-6.621,1.916-8.969,4.882c-1.879,2.373-2.658,4.996-2.139,7.198c1.886,7.997,8.701,18.512,15.291,28.68
		c6.821,10.524,13.263,20.464,15.671,29.172c1.23,4.449,0.063,9.459-3.201,13.747C63.807,96.733,57.663,99.998,52.002,99.998z"/>
</g>
</svg>
