<?xml version="1.0" encoding="utf-8"?>
<!-- Generator: Adobe Illustrator 16.0.0, SVG Export Plug-In . SVG Version: 6.00 Build 0)  -->
<!DOCTYPE svg PUBLIC "-//W3C//DTD SVG 1.1//EN" "http://www.w3.org/Graphics/SVG/1.1/DTD/svg11.dtd">
<svg version="1.1" xmlns="http://www.w3.org/2000/svg" xmlns:xlink="http://www.w3.org/1999/xlink" x="0px" y="0px" width="100px"
	 height="100px" viewBox="0 0 100 100" enable-background="new 0 0 100 100" xml:space="preserve">
<g id="Layer_3" display="none">
</g>
<g id="Your_Icon">
</g>
<g id="Layer_4">
	<path d="M64,100H45V90h14V10H45V0h19c2.762,0,5,2.238,5,5v90C69,97.762,66.762,100,64,100z"/>
	<path d="M24,100H5c-2.762,0-5-2.238-5-5V5c0-2.762,2.238-5,5-5h19v10H10v80h14V100z"/>
	<rect x="14" y="45" width="40" height="10"/>
	<rect x="29" y="30" width="10" height="40"/>
	<path d="M95,100H76V90h14V10H76V0h19c2.762,0,5,2.238,5,5v90C100,97.762,97.762,100,95,100z"/>
	<rect x="14" y="45" width="40" height="10"/>
	<rect x="29" y="30" width="10" height="40"/>
</g>
</svg>
