<?xml version="1.0" encoding="utf-8"?>
<!-- Generator: Adobe Illustrator 16.0.0, SVG Export Plug-In . SVG Version: 6.00 Build 0)  -->
<!DOCTYPE svg PUBLIC "-//W3C//DTD SVG 1.1//EN" "http://www.w3.org/Graphics/SVG/1.1/DTD/svg11.dtd">
<svg version="1.1" xmlns="http://www.w3.org/2000/svg" xmlns:xlink="http://www.w3.org/1999/xlink" x="0px" y="0px" width="100px"
	 height="100px" viewBox="0 0 100 100" enable-background="new 0 0 100 100" xml:space="preserve">
<g id="Layer_3">
</g>
<g id="Your_Icon">
</g>
<g id="Layer_4">
	<g>
		<path fill="none" d="M73.624,28.461c0.043-0.405,0.097-0.817,0.161-1.198c0.02-0.12,0.048-0.232,0.07-0.351
			c0.048-0.255,0.095-0.512,0.151-0.755c0.031-0.134,0.07-0.257,0.104-0.387c0.057-0.218,0.11-0.438,0.174-0.647
			c0.042-0.136,0.09-0.262,0.134-0.395c0.064-0.191,0.125-0.387,0.195-0.57c0.05-0.132,0.106-0.253,0.159-0.381
			c0.072-0.174,0.141-0.351,0.218-0.518c0.058-0.126,0.123-0.243,0.183-0.365c0.079-0.157,0.154-0.318,0.237-0.47
			c0.064-0.117,0.135-0.227,0.202-0.341c0.085-0.145,0.168-0.293,0.257-0.432c0.071-0.11,0.146-0.212,0.22-0.318
			c0.091-0.132,0.18-0.268,0.274-0.395c0.076-0.102,0.156-0.196,0.234-0.294c0.097-0.122,0.191-0.247,0.291-0.362
			c0.08-0.094,0.163-0.179,0.245-0.269c0.102-0.111,0.202-0.227,0.306-0.333c0.084-0.086,0.171-0.165,0.257-0.248
			c0.104-0.102,0.208-0.205,0.315-0.301c0.088-0.08,0.18-0.153,0.27-0.229c0.107-0.091,0.212-0.184,0.32-0.27
			c0.091-0.072,0.183-0.139,0.275-0.207c0.109-0.083,0.218-0.168,0.329-0.245c0.091-0.064,0.184-0.123,0.276-0.185
			c0.112-0.075,0.224-0.152,0.336-0.223c0.093-0.058,0.187-0.11,0.28-0.166c0.113-0.066,0.225-0.135,0.337-0.197
			c0.094-0.052,0.187-0.099,0.28-0.147c0.113-0.06,0.225-0.121,0.338-0.176c0.093-0.047,0.186-0.088,0.278-0.131
			c0.112-0.053,0.224-0.106,0.335-0.155c0.092-0.04,0.183-0.075,0.274-0.113c0.111-0.046,0.222-0.094,0.332-0.137
			c0.091-0.035,0.18-0.065,0.27-0.099c0.108-0.04,0.217-0.081,0.323-0.117c0.089-0.03,0.176-0.058,0.264-0.086
			c0.105-0.033,0.211-0.069,0.314-0.1c0.085-0.026,0.168-0.049,0.252-0.072c0.102-0.029,0.204-0.059,0.304-0.085
			c0.083-0.022,0.163-0.041,0.245-0.062c0.096-0.023,0.192-0.048,0.285-0.069c0.081-0.019,0.158-0.034,0.236-0.051
			c0.089-0.02,0.179-0.039,0.265-0.057c0.076-0.015,0.147-0.027,0.221-0.041c0.083-0.015,0.167-0.031,0.247-0.045
			c0.072-0.012,0.139-0.021,0.207-0.032c0.074-0.012,0.15-0.025,0.221-0.035c0.068-0.01,0.13-0.018,0.195-0.025
			c0.064-0.009,0.13-0.019,0.191-0.025c0.061-0.008,0.115-0.015,0.172-0.021c0.057-0.007,0.116-0.017,0.169-0.021
			c0.053-0.006,0.101-0.017,0.15-0.021c0.047-0.004,0.096-0.023,0.138-0.026c0.044-0.003,0.081-0.034,0.12-0.037
			c0.041-0.002,0.082-0.063,0.116-0.065c0.034-0.002,0.061-0.12,0.089-0.122c0.029,0,0.06-0.238,0.083-0.238C87.2,15,87,15,87,15V8
			h-4.269C65.23,8.465,64,25.783,64,25.783V38H49v8h15v46h10V46h13v-8H73.597L73.624,28.461z"/>
		<g>
			<path d="M87.5,0h-4.769h-0.106l-0.106,0.003C72.51,0.269,64.496,4.958,59.952,13.206C56.743,19.031,56,25.571,56,25.571V30h-6.5
				H41v7.961v7.774V54h8.5H56v38v8h7.851h9.686H82v-8V54h4.985H95v-8.265v-7.774V30h-8.015H81.62l0.003-1.054
				c0.392-2.886,1.632-4.173,2.684-4.76C85.773,23.368,87.368,23,87.585,23H95v-7.533V8V0H87.5z M86.938,15.463
				c-0.042,0.003-0.091,0.022-0.138,0.026c-0.049,0.004-0.097,0.015-0.15,0.021c-0.053,0.004-0.112,0.014-0.169,0.021
				c-0.057,0.006-0.111,0.013-0.172,0.021c-0.061,0.007-0.127,0.017-0.191,0.025c-0.064,0.008-0.127,0.016-0.195,0.025
				c-0.071,0.01-0.146,0.023-0.221,0.035c-0.068,0.011-0.135,0.021-0.207,0.032c-0.08,0.014-0.164,0.03-0.247,0.045
				c-0.073,0.014-0.145,0.026-0.221,0.041c-0.086,0.018-0.176,0.037-0.265,0.057c-0.078,0.017-0.155,0.032-0.236,0.051
				c-0.093,0.021-0.189,0.046-0.285,0.069c-0.082,0.021-0.162,0.039-0.245,0.062c-0.1,0.026-0.202,0.056-0.304,0.085
				c-0.084,0.023-0.167,0.046-0.252,0.072c-0.103,0.03-0.209,0.066-0.314,0.1c-0.088,0.028-0.174,0.056-0.264,0.086
				c-0.106,0.036-0.215,0.077-0.323,0.117c-0.09,0.033-0.179,0.063-0.27,0.099c-0.11,0.043-0.221,0.091-0.332,0.137
				c-0.091,0.038-0.182,0.073-0.274,0.113c-0.111,0.049-0.224,0.103-0.335,0.155c-0.093,0.043-0.186,0.084-0.278,0.131
				c-0.113,0.055-0.225,0.116-0.338,0.176c-0.093,0.049-0.187,0.096-0.28,0.147c-0.112,0.062-0.225,0.131-0.337,0.197
				c-0.093,0.056-0.187,0.108-0.28,0.166c-0.113,0.07-0.224,0.147-0.336,0.223c-0.092,0.062-0.185,0.12-0.276,0.185
				c-0.111,0.077-0.22,0.162-0.329,0.245c-0.092,0.068-0.184,0.135-0.275,0.207c-0.108,0.086-0.213,0.179-0.32,0.27
				c-0.09,0.076-0.181,0.149-0.27,0.229c-0.107,0.096-0.21,0.199-0.315,0.301c-0.086,0.083-0.173,0.162-0.257,0.248
				c-0.104,0.106-0.205,0.222-0.306,0.333c-0.082,0.09-0.165,0.175-0.245,0.269c-0.099,0.115-0.194,0.24-0.291,0.362
				c-0.078,0.098-0.158,0.192-0.234,0.294c-0.094,0.127-0.183,0.263-0.274,0.395c-0.073,0.106-0.149,0.208-0.22,0.318
				c-0.089,0.139-0.172,0.287-0.257,0.432c-0.067,0.114-0.137,0.224-0.202,0.341c-0.083,0.151-0.159,0.312-0.237,0.47
				c-0.061,0.122-0.125,0.239-0.183,0.365c-0.077,0.167-0.146,0.344-0.218,0.518c-0.053,0.128-0.109,0.249-0.159,0.381
				c-0.07,0.184-0.131,0.379-0.195,0.57c-0.044,0.133-0.093,0.259-0.134,0.395c-0.063,0.209-0.117,0.43-0.174,0.647
				c-0.034,0.13-0.072,0.253-0.104,0.387c-0.057,0.243-0.103,0.5-0.151,0.755c-0.022,0.118-0.05,0.23-0.07,0.351
				c-0.064,0.381-0.118,0.793-0.161,1.198L73.597,38H87v8H74v46H64V46H49v-8h15V25.783c0,0,1.23-17.318,18.731-17.783H87v7
				C87,15,86.982,15.46,86.938,15.463z"/>
		</g>
	</g>
</g>
</svg>
