<?xml version="1.0" encoding="utf-8"?>
<!-- Generator: Adobe Illustrator 16.0.0, SVG Export Plug-In . SVG Version: 6.00 Build 0)  -->
<!DOCTYPE svg PUBLIC "-//W3C//DTD SVG 1.1//EN" "http://www.w3.org/Graphics/SVG/1.1/DTD/svg11.dtd">
<svg version="1.1" xmlns="http://www.w3.org/2000/svg" xmlns:xlink="http://www.w3.org/1999/xlink" x="0px" y="0px" width="100px"
	 height="100px" viewBox="0 0 100 100" enable-background="new 0 0 100 100" xml:space="preserve">
<g id="Layer_3" display="none">
	<circle display="inline" fill="none" stroke="#000000" stroke-width="0.25" stroke-miterlimit="10" cx="50" cy="50" r="15.134"/>
	<polyline display="inline" opacity="0.26" points="94,6 6,6 6,94 94,94 	"/>
	<circle display="inline" fill="none" stroke="#000000" stroke-width="0.25" stroke-miterlimit="10" cx="50" cy="50" r="24"/>
	<circle display="inline" fill="none" stroke="#000000" stroke-width="0.25" stroke-miterlimit="10" cx="50" cy="50" r="30"/>
	<circle display="inline" fill="none" stroke="#000000" stroke-width="0.25" stroke-miterlimit="10" cx="50" cy="50" r="9.134"/>
	<path display="inline" fill="none" stroke="#000000" stroke-width="0.25" stroke-miterlimit="10" d="M0,50C0,22.386,22.389,0,50,0
		c27.612,0,50,22.386,50,50"/>
	<path display="inline" fill="none" stroke="#000000" stroke-width="0.25" stroke-miterlimit="10" d="M100,50
		c0,27.614-22.388,50-50,50C22.389,100,0,77.614,0,50"/>
</g>
<g id="Your_Icon">
</g>
<g id="Layer_4">
	<path d="M49,41C30.252,41,15,24.711,15,4.688c0-2.209,1.791-4,4-4s4,1.791,4,4C23,20.3,34.663,33,49,33S75,20.3,75,4.688
		c0-2.209,1.791-4,4-4s4,1.791,4,4C83,24.711,67.748,41,49,41z"/>
	<path d="M49,28c-7.72,0-14-6.28-14-13.999C35,6.281,41.28,0,49,0s14,6.281,14,14.001C63,21.72,56.72,28,49,28z M49,8
		c-3.309,0-6,2.692-6,6.001C43,17.309,45.691,20,49,20s6-2.691,6-5.999C55,10.692,52.309,8,49,8z"/>
	<path d="M60,100c-2.209,0-4-1.791-4-4V60.001C56,56.692,53.309,54,50,54s-6,2.692-6,6.001V96c0,2.209-1.791,4-4,4s-4-1.791-4-4
		V60.001C36,52.281,42.28,46,50,46s14,6.281,14,14.001V96C64,98.209,62.209,100,60,100z"/>
</g>
</svg>
