<?xml version="1.0" encoding="utf-8"?>
<!-- Generator: Adobe Illustrator 16.0.0, SVG Export Plug-In . SVG Version: 6.00 Build 0)  -->
<!DOCTYPE svg PUBLIC "-//W3C//DTD SVG 1.1//EN" "http://www.w3.org/Graphics/SVG/1.1/DTD/svg11.dtd">
<svg version="1.1" xmlns="http://www.w3.org/2000/svg" xmlns:xlink="http://www.w3.org/1999/xlink" x="0px" y="0px" width="100px"
	 height="100px" viewBox="0 0 100 100" enable-background="new 0 0 100 100" xml:space="preserve">
<g id="Layer_3" display="none">
</g>
<g id="Your_Icon">
</g>
<g id="Layer_4">
	<path d="M63,100H44V90h14V10H44V0h19c2.762,0,5,2.238,5,5v90C68,97.762,65.762,100,63,100z"/>
	<path d="M24,100H5c-2.762,0-5-2.238-5-5V5c0-2.762,2.238-5,5-5h19v10H10v80h14V100z"/>
	<rect x="16.5" y="45.625" width="35" height="8.75"/>
	<rect x="29.625" y="32.5" width="8.75" height="35"/>
	<path d="M95,100H76V90h14V10H76V0h19c2.762,0,5,2.238,5,5v90C100,97.762,97.762,100,95,100z"/>
	<rect x="16.5" y="45.625" width="35" height="8.75"/>
	<rect x="29.625" y="32.5" width="8.75" height="35"/>
</g>
</svg>
