<?xml version="1.0" encoding="utf-8"?>
<!-- Generator: Adobe Illustrator 16.0.0, SVG Export Plug-In . SVG Version: 6.00 Build 0)  -->
<!DOCTYPE svg PUBLIC "-//W3C//DTD SVG 1.1//EN" "http://www.w3.org/Graphics/SVG/1.1/DTD/svg11.dtd">
<svg version="1.1" xmlns="http://www.w3.org/2000/svg" xmlns:xlink="http://www.w3.org/1999/xlink" x="0px" y="0px" width="100px"
	 height="100px" viewBox="0 0 100 100" enable-background="new 0 0 100 100" xml:space="preserve">
<g id="Layer_3">
</g>
<g id="Your_Icon">
</g>
<g id="Layer_4">
	<path fill="#050306" d="M91.8,9.9h-84C3.382,9.9,0,13.499,0,18.068v73.902c0,2.194,0.744,4.146,2.246,5.701
		c1.5,1.549,3.434,2.264,5.554,2.264c0.003,0,0.006,0,0.008,0L91.908,100c4.414-0.004,8.092-3.553,8.092-8.121V18.068
		C100,13.498,96.218,9.9,91.8,9.9L91.8,9.9z M92,92H8V17.9h84V92z"/>
	<g>
		<path d="M67.717,51.798l-28.264-23c-1.197-0.974-2.721-1.171-4.113-0.51c-1.395,0.663-2.154,2.068-2.154,3.612v46
			c0,1.544,0.76,2.949,2.154,3.612c0.547,0.26,1.068,0.388,1.652,0.388c0.902,0,1.766-0.306,2.493-0.897l28.247-23
			c0.934-0.76,1.468-1.899,1.468-3.103S68.65,52.558,67.717,51.798z M41.186,69.488V40.312L59.111,54.9L41.186,69.488z"/>
	</g>
</g>
</svg>
