<?xml version="1.0" encoding="utf-8"?>
<!-- Generator: Adobe Illustrator 16.0.0, SVG Export Plug-In . SVG Version: 6.00 Build 0)  -->
<!DOCTYPE svg PUBLIC "-//W3C//DTD SVG 1.1//EN" "http://www.w3.org/Graphics/SVG/1.1/DTD/svg11.dtd">
<svg version="1.1" xmlns="http://www.w3.org/2000/svg" xmlns:xlink="http://www.w3.org/1999/xlink" x="0px" y="0px" width="100px"
	 height="100px" viewBox="0 0 100 100" enable-background="new 0 0 100 100" xml:space="preserve">
<g id="Layer_3">
</g>
<g id="Your_Icon">
</g>
<g id="Layer_4">
	<g>
		<path fill="none" d="M48,61.642c0-0.002,0.179-0.004,0.25-0.006c0.01,0,0.018,0,0.028-0.001c-0.016,0.001-0.032,0.001-0.048,0.001
			C48.159,61.638,48,61.64,48,61.642z"/>
		<path fill="none" d="M48.764,62c7.697,0,17.35,4.095,28.612,12.158C66.108,66.091,56.491,62,48.793,62
			C48.783,62,48.773,62,48.764,62z"/>
		<path d="M90.329,12.706c-1.558-0.587-3.357-0.147-4.456,1.104c-0.049,0.056-4.989,5.714-12.067,11.268
			C64.768,32.17,56.439,36,49.758,36H23.423c-8.26,0-15.037,6.11-15.357,14.04C8.062,50.192,8,52.436,8,52.59v0.245
			c0,2.301,0.054,2.379,0.06,2.478c0.321,8.041,7.069,14.34,15.327,14.34l3.348,0.004C27.746,69.657,29,69.659,30,69.66v22.75
			c0,3.859,3.269,6.995,7.225,7.138l1.029,0.003c0.053,0,0.787-0.007,0.825-0.009C43.031,99.391,46,96.258,46,92.41V69.654
			c1-0.006,1.87-0.012,2.19-0.021l0.437-0.005c12.194,0,31.137,15.663,37.391,21.698c0.761,0.733,1.783,1.122,2.801,1.122
			c0.527,0,1.149-0.104,1.653-0.318C91.95,91.503,93,90.054,93,88.449v-72C93,14.784,91.888,13.293,90.329,12.706z M85,79.601
			c-2-1.775-4.799-3.605-7.624-5.628C66.114,65.909,56.46,62,48.764,62c-0.004,0-0.008,0-0.011,0c-0.177,0-0.302,0-0.475,0
			c-0.01,0-0.018,0-0.028,0c-0.07,0-0.25-0.36-0.25-0.358V44h1.758C63.082,44,77,33.438,85,26.113V79.601z"/>
	</g>
</g>
</svg>
