<?xml version="1.0" encoding="utf-8"?>
<!-- Generator: Adobe Illustrator 16.0.0, SVG Export Plug-In . SVG Version: 6.00 Build 0)  -->
<!DOCTYPE svg PUBLIC "-//W3C//DTD SVG 1.1//EN" "http://www.w3.org/Graphics/SVG/1.1/DTD/svg11.dtd">
<svg version="1.1" xmlns="http://www.w3.org/2000/svg" xmlns:xlink="http://www.w3.org/1999/xlink" x="0px" y="0px" width="100px"
	 height="100px" viewBox="0 0 100 100" enable-background="new 0 0 100 100" xml:space="preserve">
<g id="Layer_3" display="none">
	<circle display="inline" fill="none" stroke="#000000" stroke-width="0.25" stroke-miterlimit="10" cx="50" cy="50" r="15.134"/>
	<polyline display="inline" opacity="0.26" points="94,6 6,6 6,94 94,94 	"/>
	<circle display="inline" fill="none" stroke="#000000" stroke-width="0.25" stroke-miterlimit="10" cx="50" cy="50" r="24"/>
	<circle display="inline" fill="none" stroke="#000000" stroke-width="0.25" stroke-miterlimit="10" cx="50" cy="50" r="30"/>
	<circle display="inline" fill="none" stroke="#000000" stroke-width="0.25" stroke-miterlimit="10" cx="50" cy="50" r="9.134"/>
	<path display="inline" fill="none" stroke="#000000" stroke-width="0.25" stroke-miterlimit="10" d="M0,50C0,22.386,22.389,0,50,0
		c27.612,0,50,22.386,50,50"/>
	<path display="inline" fill="none" stroke="#000000" stroke-width="0.25" stroke-miterlimit="10" d="M100,50
		c0,27.614-22.388,50-50,50C22.389,100,0,77.614,0,50"/>
</g>
<g id="Your_Icon">
</g>
<g id="Layer_4">
	<path d="M19.499,43.489c0.861,0,1.737,0.15,2.592,0.466c1.104,0.405,2.055,1.044,2.815,1.837c1.926,2.005,2.654,5.007,1.63,7.789
		c-1.117,3.031-3.986,4.909-7.04,4.909c-0.86,0-1.735-0.149-2.59-0.464c-3.884-1.432-5.873-5.743-4.442-9.628
		c1.06-2.876,3.696-4.716,6.571-4.895C19.189,43.494,19.344,43.489,19.499,43.489 M19.499,37.489c-0.281,0-0.562,0.009-0.841,0.026
		c-5.332,0.332-9.976,3.789-11.824,8.809c-2.572,6.983,1.016,14.759,7.997,17.332c1.505,0.554,3.073,0.834,4.665,0.834
		c5.632,0,10.724-3.551,12.67-8.835c1.773-4.816,0.622-10.319-2.933-14.02c-1.403-1.463-3.159-2.609-5.074-3.312
		C22.662,37.771,21.092,37.489,19.499,37.489L19.499,37.489z"/>
	<path d="M44.501,6c0.861,0,1.737,0.149,2.593,0.465c3.884,1.432,5.874,5.742,4.441,9.626C50.419,19.122,47.552,21,44.499,21
		c-0.861,0-1.737-0.149-2.593-0.465c-3.884-1.431-5.873-5.741-4.441-9.627C38.58,7.877,41.448,6,44.501,6 M44.501,0L44.501,0
		C38.87,0,33.779,3.551,31.834,8.836c-1.245,3.381-1.101,7.047,0.41,10.32s4.205,5.763,7.588,7.009
		C41.336,26.719,42.905,27,44.499,27c5.631,0,10.722-3.552,12.667-8.837c1.246-3.378,1.102-7.045-0.41-10.319
		c-1.511-3.272-4.205-5.762-7.587-7.009C47.665,0.281,46.095,0,44.501,0L44.501,0z"/>
	<path d="M80.5,43.5c0.861,0,1.736,0.149,2.592,0.465c3.887,1.431,5.876,5.741,4.443,9.626C86.42,56.622,83.552,58.5,80.5,58.5
		c-0.861,0-1.736-0.149-2.592-0.465c-3.885-1.431-5.875-5.742-4.444-9.627C74.582,45.377,77.449,43.5,80.5,43.5 M80.5,37.5
		L80.5,37.5c-5.627,0-10.717,3.55-12.665,8.832c-2.573,6.987,1.016,14.762,8,17.333c1.501,0.554,3.071,0.835,4.665,0.835
		c5.632,0,10.722-3.552,12.666-8.838c1.246-3.379,1.102-7.045-0.41-10.319c-1.511-3.273-4.207-5.763-7.592-7.009
		C83.664,37.781,82.094,37.5,80.5,37.5L80.5,37.5z"/>
	<path d="M44.501,79c0.861,0,1.737,0.149,2.593,0.465c3.884,1.432,5.874,5.742,4.441,9.626c-1.116,3.03-3.984,4.908-7.037,4.908
		c-0.861,0-1.736-0.148-2.592-0.464c-3.884-1.432-5.873-5.74-4.441-9.627C38.58,80.877,41.448,79,44.501,79 M44.501,73L44.501,73
		c-5.631,0-10.722,3.551-12.667,8.836c-2.571,6.981,1.016,14.756,7.997,17.329c1.505,0.554,3.074,0.834,4.667,0.834
		c5.631,0,10.722-3.551,12.668-8.835c1.246-3.379,1.102-7.046-0.41-10.32c-1.511-3.272-4.205-5.762-7.587-7.009
		C47.665,73.281,46.095,73,44.501,73L44.501,73z"/>
	<rect x="37" y="48" width="27" height="6"/>
	<rect x="41" y="30" width="6" height="14"/>
	<rect x="41" y="57" width="6" height="13"/>
</g>
</svg>
