<?xml version="1.0" encoding="utf-8"?>
<!-- Generator: Adobe Illustrator 16.0.0, SVG Export Plug-In . SVG Version: 6.00 Build 0)  -->
<!DOCTYPE svg PUBLIC "-//W3C//DTD SVG 1.1//EN" "http://www.w3.org/Graphics/SVG/1.1/DTD/svg11.dtd">
<svg version="1.1" xmlns="http://www.w3.org/2000/svg" xmlns:xlink="http://www.w3.org/1999/xlink" x="0px" y="0px" width="100px"
	 height="100px" viewBox="0 0 100 100" enable-background="new 0 0 100 100" xml:space="preserve">
<g id="Layer_3" display="none">
	<rect x="6" y="6" display="inline" opacity="0.26" width="88" height="88"/>
	<rect x="-5" y="96" display="inline" opacity="0.26" width="88" height="88"/>
</g>
<g id="Your_Icon">
</g>
<g id="Layer_4">
	<path d="M51.953,83.017c-4.42,0-8.831-0.902-13.004-2.705c-8.055-3.48-14.284-9.908-17.539-18.1l-0.212-0.533v-3.901h6v2.737
		c2.717,6.456,7.716,11.517,14.131,14.288c6.586,2.848,13.9,2.947,20.6,0.285c13.829-5.497,20.609-21.221,15.113-35.051
		c-5.495-13.828-21.22-20.61-35.051-15.113c-8.388,3.335-14.528,10.603-16.428,19.44l-5.865-1.26
		c2.319-10.799,9.825-19.68,20.076-23.757c16.903-6.718,36.125,1.568,42.844,18.474c6.717,16.904-1.57,36.123-18.473,42.843
		C60.196,82.233,56.07,83.017,51.953,83.017z"/>
	<polygon points="44,47 16,47 16,19 22,19 22,41 44,41 	"/>
</g>
</svg>
