<?xml version="1.0" encoding="utf-8"?>
<!-- Generator: Adobe Illustrator 16.0.0, SVG Export Plug-In . SVG Version: 6.00 Build 0)  -->
<!DOCTYPE svg PUBLIC "-//W3C//DTD SVG 1.0//EN" "http://www.w3.org/TR/2001/REC-SVG-20010904/DTD/svg10.dtd">
<svg version="1.0" xmlns="http://www.w3.org/2000/svg" xmlns:xlink="http://www.w3.org/1999/xlink" x="0px" y="0px" width="100px"
	 height="100px" viewBox="0 0 100 100" enable-background="new 0 0 100 100" xml:space="preserve">
<g id="Layer_3">
</g>
<g id="Your_Icon">
</g>
<g id="Layer_4">
	<g>
		<path fill="none" d="M10.481,92h79.037L50,13.229L10.481,92z M54,82h-8v-9h8V82z M54,68h-8V38h8V68z"/>
		<rect x="46" y="38" width="8" height="30"/>
		<rect x="46" y="73" width="8" height="9"/>
		<path d="M99.575,93.913l-46-91.691C52.896,0.869,51.513,0.014,50,0.014s-2.896,0.854-3.575,2.207l-46,91.691
			c-0.622,1.239-0.558,2.86,0.171,4.041S2.612,100,4,100h92c1.388,0,2.676-0.866,3.404-2.047S100.197,95.152,99.575,93.913z
			 M10.481,92L50,13.229L89.519,92H10.481z"/>
	</g>
</g>
</svg>
