<?xml version="1.0" encoding="utf-8"?>
<!-- Generator: Adobe Illustrator 16.0.0, SVG Export Plug-In . SVG Version: 6.00 Build 0)  -->
<!DOCTYPE svg PUBLIC "-//W3C//DTD SVG 1.1//EN" "http://www.w3.org/Graphics/SVG/1.1/DTD/svg11.dtd">
<svg version="1.1" xmlns="http://www.w3.org/2000/svg" xmlns:xlink="http://www.w3.org/1999/xlink" x="0px" y="0px" width="100px"
	 height="100px" viewBox="0 0 100 100" enable-background="new 0 0 100 100" xml:space="preserve">
<g id="Layer_3" display="none">
</g>
<g id="Your_Icon">
</g>
<g id="Layer_4">
	<g>
		<path d="M16.966,99.988c-4.323,0-8.387-1.695-11.441-4.774c-3.045-3.068-4.722-7.143-4.722-11.474
			c0-8.96,7.253-16.251,16.167-16.252h65.685c0.001,0,0.001,0,0.001,0c1.641,0,3.184-0.646,4.348-1.818
			c1.173-1.182,1.819-2.756,1.819-4.43c0-3.447-2.768-6.251-6.169-6.252H16.971c-0.002,0-0.004,0-0.005,0
			c-4.323,0-8.387-1.695-11.441-4.774c-3.045-3.068-4.722-7.143-4.722-11.474c0-8.96,7.253-16.251,16.167-16.252h65.685
			c0.001,0,0.001,0,0.001,0c1.642,0,3.184-0.646,4.348-1.817c1.173-1.183,1.819-2.756,1.819-4.431c0-3.446-2.768-6.251-6.17-6.252
			H50v-10h32.654C91.57-0.009,98.822,7.281,98.822,16.24c0,4.331-1.677,8.406-4.722,11.475c-3.055,3.078-7.119,4.773-11.442,4.773
			c-0.002,0-0.004,0-0.006,0H16.971c-3.4,0.001-6.168,2.805-6.168,6.252c0,1.674,0.646,3.248,1.819,4.43
			c1.164,1.173,2.707,1.818,4.345,1.818h0.002h65.686c8.915,0.001,16.168,7.292,16.168,16.252c0,4.331-1.677,8.405-4.722,11.474
			c-3.055,3.079-7.119,4.774-11.442,4.774c-0.002,0-0.004,0-0.006,0H16.971c-3.4,0.001-6.168,2.805-6.168,6.252
			c0,1.674,0.646,3.248,1.819,4.43c1.164,1.173,2.707,1.818,4.345,1.818h0.002H50v10H16.971
			C16.969,99.988,16.967,99.988,16.966,99.988z"/>
	</g>
</g>
</svg>
