<?xml version="1.0" encoding="utf-8"?>
<!-- Generator: Adobe Illustrator 16.0.0, SVG Export Plug-In . SVG Version: 6.00 Build 0)  -->
<!DOCTYPE svg PUBLIC "-//W3C//DTD SVG 1.1//EN" "http://www.w3.org/Graphics/SVG/1.1/DTD/svg11.dtd">
<svg version="1.1" xmlns="http://www.w3.org/2000/svg" xmlns:xlink="http://www.w3.org/1999/xlink" x="0px" y="0px" width="100px"
	 height="100px" viewBox="0 0 100 100" enable-background="new 0 0 100 100" xml:space="preserve">
<g id="Layer_3" display="none">
	<circle display="inline" fill="none" stroke="#000000" stroke-width="0.25" stroke-miterlimit="10" cx="50" cy="50" r="15.134"/>
	<polyline display="inline" opacity="0.26" points="94,6 6,6 6,94 94,94 	"/>
	<circle display="inline" fill="none" stroke="#000000" stroke-width="0.25" stroke-miterlimit="10" cx="50" cy="50" r="24"/>
	<circle display="inline" fill="none" stroke="#000000" stroke-width="0.25" stroke-miterlimit="10" cx="50" cy="50" r="30"/>
	<circle display="inline" fill="none" stroke="#000000" stroke-width="0.25" stroke-miterlimit="10" cx="50" cy="50" r="9.134"/>
	<path display="inline" fill="none" stroke="#000000" stroke-width="0.25" stroke-miterlimit="10" d="M0,50C0,22.386,22.389,0,50,0
		c27.612,0,50,22.386,50,50"/>
	<path display="inline" fill="none" stroke="#000000" stroke-width="0.25" stroke-miterlimit="10" d="M100,50
		c0,27.614-22.388,50-50,50C22.389,100,0,77.614,0,50"/>
</g>
<g id="Your_Icon">
	<path fill="none" stroke="#000000" stroke-width="6" stroke-linecap="round" stroke-miterlimit="10" d="M47.749,88"/>
	<path d="M65,63.027c-0.065-7.294-2.914-14.123-8.021-19.229c-5.093-5.091-11.829-7.906-18.951-7.795l-0.055-6
		c8.742-0.078,17.008,3.313,23.248,9.552c6.227,6.226,9.7,14.542,9.779,23.419L65,63.027z"/>
	<path d="M79,63.958c-0.102-11.337-4.53-21.953-12.472-29.892c-7.926-7.924-18.415-12.268-29.501-12.132l-0.055-6
		c12.754-0.073,24.726,4.818,33.798,13.889C79.831,38.881,84.884,50.985,85,63.904L79,63.958z"/>
	<path d="M50,61.027c-0.024-2.712-1.082-5.25-2.978-7.146c-1.86-1.859-4.309-2.88-6.905-2.88c-0.03,0-0.06,0-0.09,0l-0.055-6
		c4.293-0.027,8.263,1.608,11.292,4.637c3.016,3.015,4.697,7.04,4.735,11.335L50,61.027z"/>
</g>
<g id="Layer_4">
	<path d="M29.499,86C20.953,86,14,79.047,14,70.5S20.953,55,29.499,55C38.046,55,45,61.953,45,70.5S38.046,86,29.499,86z M29.499,61
		C24.261,61,20,65.262,20,70.5s4.261,9.5,9.499,9.5C34.738,80,39,75.738,39,70.5S34.738,61,29.499,61z"/>
</g>
</svg>
