<?xml version="1.0" encoding="utf-8"?>
<!-- Generator: Adobe Illustrator 16.0.0, SVG Export Plug-In . SVG Version: 6.00 Build 0)  -->
<!DOCTYPE svg PUBLIC "-//W3C//DTD SVG 1.1//EN" "http://www.w3.org/Graphics/SVG/1.1/DTD/svg11.dtd">
<svg version="1.1" xmlns="http://www.w3.org/2000/svg" xmlns:xlink="http://www.w3.org/1999/xlink" x="0px" y="0px" width="100px"
	 height="100px" viewBox="0 0 100 100" enable-background="new 0 0 100 100" xml:space="preserve">
<g id="Layer_3" display="none">
	<circle display="inline" fill="none" stroke="#000000" stroke-width="0.25" stroke-miterlimit="10" cx="50" cy="49.5" r="17.5"/>
	<polyline display="inline" opacity="0.15" points="95,5 5,5 5,95 95,95 	"/>
	<circle display="inline" fill="none" stroke="#000000" stroke-width="0.25" stroke-miterlimit="10" cx="50" cy="50" r="26"/>
	<circle display="inline" fill="none" stroke="#000000" stroke-width="0.25" stroke-miterlimit="10" cx="50" cy="50" r="34"/>
	<circle display="inline" fill="none" stroke="#000000" stroke-width="0.25" stroke-miterlimit="10" cx="50" cy="49.5" r="9"/>
	<path display="inline" fill="none" stroke="#000000" stroke-width="0.25" stroke-miterlimit="10" d="M0,50C0,22.386,22.389,0,50,0
		c27.612,0,50,22.386,50,50"/>
	<path display="inline" fill="none" stroke="#000000" stroke-width="0.25" stroke-miterlimit="10" d="M100,50
		c0,27.614-22.388,50-50,50C22.389,100,0,77.614,0,50"/>
</g>
<g id="Your_Icon">
</g>
<g id="Layer_4">
	<path d="M60,95H40c-2.209,0-4-1.791-4-4V80.985c-2.049-0.926-3.996-2.053-5.827-3.372l-8.681,5.011
		c-1.914,1.103-4.361,0.449-5.464-1.464l-10-17.321c-1.104-1.913-0.449-4.359,1.464-5.464l8.678-5.01C16.057,52.24,16,51.115,16,50
		s0.057-2.24,0.17-3.366l-8.678-5.009c-0.919-0.531-1.589-1.404-1.863-2.429c-0.275-1.024-0.131-2.116,0.399-3.035l10-17.321
		c1.103-1.913,3.55-2.568,5.464-1.464l8.679,5.01c1.831-1.318,3.779-2.445,5.829-3.372V9c0-2.209,1.791-4,4-4h20
		c2.209,0,4,1.791,4,4v10.014c2.05,0.926,3.998,2.054,5.829,3.372l8.679-5.011c1.914-1.104,4.36-0.448,5.464,1.464l10,17.321
		c1.104,1.913,0.449,4.359-1.464,5.464l-8.678,5.01C83.943,47.76,84,48.885,84,50c0,1.116-0.057,2.241-0.17,3.366l8.678,5.01
		c0.919,0.531,1.589,1.404,1.863,2.429c0.275,1.024,0.131,2.116-0.399,3.035l-10,17.321c-1.104,1.913-3.55,2.567-5.464,1.464
		l-8.681-5.012c-1.83,1.318-3.778,2.445-5.827,3.372V91C64,93.209,62.209,95,60,95z M44,87h12v-8.714
		c0-1.695,1.068-3.206,2.666-3.771c3.011-1.065,5.776-2.665,8.22-4.756c1.288-1.104,3.13-1.273,4.601-0.425l7.558,4.363l6-10.393
		l-7.554-4.36c-1.468-0.848-2.242-2.528-1.933-4.195C75.852,53.168,76,51.57,76,50c0-1.568-0.148-3.167-0.441-4.753
		c-0.308-1.665,0.467-3.343,1.934-4.19l7.552-4.36l-6-10.393l-7.556,4.362c-1.469,0.848-3.312,0.679-4.601-0.425
		c-2.444-2.091-5.21-3.691-8.221-4.755C57.068,24.92,56,23.409,56,21.714V13H44v8.714c0,1.695-1.068,3.206-2.667,3.771
		c-3.012,1.064-5.777,2.665-8.221,4.755c-1.289,1.103-3.132,1.272-4.601,0.425l-7.556-4.362l-6,10.393l7.552,4.359
		c1.467,0.847,2.241,2.525,1.934,4.19C24.148,46.833,24,48.432,24,50s0.148,3.167,0.441,4.754c0.308,1.665-0.467,3.344-1.934,4.19
		l-7.552,4.36l6,10.393l7.558-4.363c1.47-0.847,3.312-0.677,4.601,0.425c2.444,2.091,5.209,3.691,8.219,4.755
		C42.932,75.079,44,76.59,44,78.286V87z"/>
	<path d="M49.999,69c-5.074,0-9.846-1.976-13.436-5.563c-7.406-7.411-7.405-19.464,0.003-26.871C40.153,32.977,44.925,31,49.999,31
		s9.845,1.977,13.435,5.565C67.023,40.154,69,44.925,69,50s-1.977,9.846-5.566,13.436C59.844,67.023,55.072,69,49.999,69z
		 M49.999,39c-2.938,0-5.699,1.144-7.775,3.222c-4.29,4.289-4.291,11.267-0.003,15.557c2.077,2.076,4.84,3.22,7.778,3.22
		c2.938,0,5.7-1.145,7.778-3.222C59.855,55.7,61,52.938,61,50s-1.145-5.699-3.223-7.777C55.699,40.145,52.937,39,49.999,39z"/>
</g>
</svg>
