<?xml version="1.0" encoding="utf-8"?>
<!-- Generator: Adobe Illustrator 16.0.0, SVG Export Plug-In . SVG Version: 6.00 Build 0)  -->
<!DOCTYPE svg PUBLIC "-//W3C//DTD SVG 1.0//EN" "http://www.w3.org/TR/2001/REC-SVG-20010904/DTD/svg10.dtd">
<svg version="1.0" xmlns="http://www.w3.org/2000/svg" xmlns:xlink="http://www.w3.org/1999/xlink" x="0px" y="0px" width="100px"
	 height="100px" viewBox="0 0 100 100" enable-background="new 0 0 100 100" xml:space="preserve">
<g id="Layer_3">
</g>
<g id="Your_Icon">
	<g>
		<path d="M39.333,54.748c-0.69,2.653-1.904,5.088-3.536,7.191L60.215,72.22c0.381-2.735,1.312-5.287,2.683-7.55L39.333,54.748z"/>
		<path d="M62.898,36.33c-1.371-2.264-2.302-4.815-2.683-7.55l-23.526,9.906c1.459,2.208,2.483,4.724,2.973,7.429L62.898,36.33z"/>
		<path d="M80,57c-9.925,0-18,8.075-18,18s8.075,18,18,18s18-8.075,18-18S89.925,57,80,57z M80,85c-5.522,0-10-4.476-10-10
			s4.478-10,10-10c5.524,0,10,4.476,10,10S85.524,85,80,85z"/>
		<path d="M80,44c9.925,0,18-8.075,18-18S89.925,8,80,8s-18,8.075-18,18S70.075,44,80,44z M80,16c5.524,0,10,4.476,10,10
			s-4.476,10-10,10c-5.523,0-10-4.476-10-10S74.477,16,80,16z"/>
		<path d="M38,50c0-9.925-8.075-18-18-18S2,40.075,2,50s8.075,18,18,18S38,59.925,38,50z M10,50c0-5.524,4.478-10,10-10
			c5.524,0,10,4.476,10,10s-4.476,10-10,10C14.478,60,10,55.524,10,50z"/>
	</g>
</g>
<g id="Layer_4">
</g>
</svg>
