<?xml version="1.0" encoding="utf-8"?>
<!-- Generator: Adobe Illustrator 16.0.0, SVG Export Plug-In . SVG Version: 6.00 Build 0)  -->
<!DOCTYPE svg PUBLIC "-//W3C//DTD SVG 1.1//EN" "http://www.w3.org/Graphics/SVG/1.1/DTD/svg11.dtd">
<svg version="1.1" xmlns="http://www.w3.org/2000/svg" xmlns:xlink="http://www.w3.org/1999/xlink" x="0px" y="0px" width="100px"
	 height="100px" viewBox="0 0 100 100" enable-background="new 0 0 100 100" xml:space="preserve">
<g id="Layer_3" display="none">
	<circle display="inline" fill="none" stroke="#000000" stroke-width="0.25" stroke-miterlimit="10" cx="50" cy="49.5" r="17.5"/>
	<polyline display="inline" opacity="0.15" points="95,5 5,5 5,95 95,95 	"/>
	<circle display="inline" fill="none" stroke="#000000" stroke-width="0.25" stroke-miterlimit="10" cx="50" cy="50" r="26"/>
	<circle display="inline" fill="none" stroke="#000000" stroke-width="0.25" stroke-miterlimit="10" cx="50" cy="50" r="34"/>
	<circle display="inline" fill="none" stroke="#000000" stroke-width="0.25" stroke-miterlimit="10" cx="50" cy="49.5" r="9"/>
	<path display="inline" fill="none" stroke="#000000" stroke-width="0.25" stroke-miterlimit="10" d="M0,50C0,22.386,22.389,0,50,0
		c27.612,0,50,22.386,50,50"/>
	<path display="inline" fill="none" stroke="#000000" stroke-width="0.25" stroke-miterlimit="10" d="M100,50
		c0,27.614-22.388,50-50,50C22.389,100,0,77.614,0,50"/>
</g>
<g id="Your_Icon">
	<path d="M73.5,32.25c-1.024,0-2.047-0.391-2.829-1.171L50,10.407L29.329,31.079c-1.562,1.562-4.095,1.562-5.657,0
		c-0.781-0.781-1.171-1.805-1.171-2.829s0.391-2.047,1.171-2.829l23.5-23.5c1.562-1.562,4.095-1.562,5.657,0l23.5,23.5
		c1.562,1.562,1.562,4.095,0,5.657C75.547,31.859,74.524,32.25,73.5,32.25z"/>
	<path d="M80,54.25H20c-2.209,0-4-1.791-4-4s1.791-4,4-4h60c2.209,0,4,1.791,4,4S82.209,54.25,80,54.25z"/>
	<path d="M50,99.25c-1.024,0-2.047-0.391-2.829-1.171l-23.5-23.5c-0.781-0.781-1.171-1.805-1.171-2.829s0.391-2.047,1.171-2.829
		c1.562-1.562,4.095-1.562,5.657,0L50,89.593l20.671-20.672c1.562-1.562,4.095-1.562,5.657,0c1.562,1.562,1.562,4.095,0,5.657
		l-23.5,23.5C52.047,98.859,51.024,99.25,50,99.25z"/>
</g>
<g id="Layer_4">
</g>
</svg>
