<?xml version="1.0" encoding="utf-8"?>
<!-- Generator: Adobe Illustrator 16.0.0, SVG Export Plug-In . SVG Version: 6.00 Build 0)  -->
<!DOCTYPE svg PUBLIC "-//W3C//DTD SVG 1.1//EN" "http://www.w3.org/Graphics/SVG/1.1/DTD/svg11.dtd">
<svg version="1.1" xmlns="http://www.w3.org/2000/svg" xmlns:xlink="http://www.w3.org/1999/xlink" x="0px" y="0px" width="100px"
	 height="100px" viewBox="0 0 100 100" enable-background="new 0 0 100 100" xml:space="preserve">
<g id="Layer_3">
</g>
<g id="Your_Icon">
</g>
<g id="Layer_4">
	<g>
		<path fill="none" d="M82.803,24.498C79.293,20.97,66.396,18.6,50.71,18.6l-0.85,0.003c-16.358,0.116-29.136,2.388-32.553,5.788
			C11.97,29.699,9.02,36.767,9,44.292s2.894,14.609,8.205,19.946c2.979,2.996,4.338,4.363,12.038,5.115
			c1.638,0.16,3.011,1.309,3.459,2.893c0.169,0.598,0.281,0.991,0.203,15.257l23.569-16.927c0.546-0.392,1.183-0.641,1.85-0.722
			c10.123-1.233,22.338-3.752,24.391-5.533C88.03,59.034,90.98,51.966,91,44.438C91.019,36.913,88.108,29.831,82.803,24.498z"/>
		<path d="M88.475,18.855C81.328,11.672,61.747,10.6,50.71,10.6l-0.906,0.003c-13.775,0.098-31.574,1.585-38.138,8.116
			C4.813,25.534,1.025,34.608,1,44.271C0.975,53.934,4.716,63.029,11.533,69.88c3.74,3.762,6.549,5.88,13.388,6.986
			c0.016,4.528-0.025,12.829-0.067,18.441c-0.011,1.505,0.824,2.89,2.161,3.581c0.579,0.301,1.21,0.448,1.838,0.448
			c0.822,0,1.641-0.253,2.333-0.751l29.126-20.917c7.761-0.985,23.827-3.481,28.022-7.656C95.187,63.199,98.975,54.124,99,44.46
			C99.025,34.797,95.287,25.704,88.475,18.855z M82.714,64.321c-2.052,1.781-14.268,4.3-24.391,5.533
			c-0.667,0.081-1.303,0.33-1.85,0.722L32.905,87.503c0.078-14.266-0.034-14.659-0.203-15.257c-0.448-1.584-1.821-2.732-3.459-2.893
			c-7.7-0.752-9.059-2.119-12.038-5.115C11.894,58.901,8.98,51.817,9,44.292s2.97-14.593,8.308-19.901
			c3.417-3.4,16.195-5.672,32.553-5.788l0.85-0.003c15.686,0,28.583,2.37,32.093,5.898c5.305,5.333,8.216,12.415,8.197,19.94
			C90.98,51.966,88.03,59.034,82.714,64.321z"/>
	</g>
</g>
</svg>
