<?xml version="1.0" encoding="utf-8"?>
<!-- Generator: Adobe Illustrator 15.0.0, SVG Export Plug-In . SVG Version: 6.00 Build 0)  -->
<!DOCTYPE svg PUBLIC "-//W3C//DTD SVG 1.1//EN" "http://www.w3.org/Graphics/SVG/1.1/DTD/svg11.dtd">
<svg version="1.1" id="Layer_1" xmlns="http://www.w3.org/2000/svg" xmlns:xlink="http://www.w3.org/1999/xlink" x="0px" y="0px"
	 width="100px" height="100px" viewBox="0 0 100 100" enable-background="new 0 0 100 100" xml:space="preserve">
<g>
	<path d="M88,6.167V6.165c-0.001,0-0.062,0.004-0.148,0.01C87.918,6.171,87.97,6.168,88,6.167z"/>
</g>
<g>
	<g>
		<path d="M17.375,8.065c3.544,0,7.107,1.532,7.057,4.548V32.5c0,0,11.378-0.039,20.8-0.039c4.712,0,8.933,0.01,11,0.039
			c8.431,0.118,8.612,13.004,0,13.057c-0.247,0.001-3.863,0.002-8.574,0.002c-9.422,0-23.227-0.002-23.227-0.002s0,15.944,0,24.601
			c0,7.322,18.099,7.812,27.875,7.812c1.505,0,2.812-0.012,3.826-0.012c8.88,0,8.531,13.6,0.059,13.6c-0.02,0-0.039,0-0.059,0
			c-0.053,0-0.109-0.001-0.168-0.001c-0.988,0-2.775,0.053-5.087,0.053c-12.597,0-40.796-1.557-40.545-21.651l0.1-57.344
			C10.382,9.565,13.869,8.065,17.375,8.065 M17.375,0.065c-4.65,0-8.875,1.585-11.594,4.349c-2.188,2.225-3.375,5.147-3.349,8.237
			l-0.1,57.254C2.257,76.823,4.694,82.986,9.38,87.731c7.783,7.881,21.745,11.877,41.497,11.877c1.447,0,2.696-0.02,3.683-0.035
			c0.572-0.009,1.046-0.018,1.404-0.018l0.106,0.001h0.12c8.254,0,14.479-6.399,14.479-14.885c0-8.389-6.25-14.715-14.537-14.715
			c-0.468,0-0.997,0.002-1.578,0.005c-0.68,0.003-1.435,0.007-2.248,0.007c-12.676,0-17.857-1.184-19.875-1.941v-14.47l15.227,0.001
			c4.737,0,8.373-0.001,8.622-0.002c8.146-0.05,14.312-6.237,14.344-14.391c0.032-8.246-6.106-14.55-14.279-14.665
			c-1.866-0.026-5.605-0.04-11.113-0.04c-4.261,0-8.951,0.008-12.8,0.017V12.662c0.029-3.071-1.156-5.981-3.341-8.204
			C26.345,1.666,22.075,0.065,17.375,0.065L17.375,0.065z"/>
	</g>
</g>
</svg>
