<?xml version="1.0" encoding="utf-8"?>
<!-- Generator: Adobe Illustrator 16.0.0, SVG Export Plug-In . SVG Version: 6.00 Build 0)  -->
<!DOCTYPE svg PUBLIC "-//W3C//DTD SVG 1.1//EN" "http://www.w3.org/Graphics/SVG/1.1/DTD/svg11.dtd">
<svg version="1.1" xmlns="http://www.w3.org/2000/svg" xmlns:xlink="http://www.w3.org/1999/xlink" x="0px" y="0px" width="100px"
	 height="100px" viewBox="0 0 100 100" enable-background="new 0 0 100 100" xml:space="preserve">
<g id="Layer_3" display="none">
	<circle display="inline" fill="none" stroke="#000000" stroke-width="0.25" stroke-miterlimit="10" cx="50" cy="50" r="15.134"/>
	<polyline display="inline" opacity="0.26" points="94,6 6,6 6,94 94,94 	"/>
	<circle display="inline" fill="none" stroke="#000000" stroke-width="0.25" stroke-miterlimit="10" cx="50" cy="50" r="24"/>
	<circle display="inline" fill="none" stroke="#000000" stroke-width="0.25" stroke-miterlimit="10" cx="50" cy="50" r="30"/>
	<circle display="inline" fill="none" stroke="#000000" stroke-width="0.25" stroke-miterlimit="10" cx="50" cy="50" r="9.134"/>
	<path display="inline" fill="none" stroke="#000000" stroke-width="0.25" stroke-miterlimit="10" d="M0,50C0,22.386,22.389,0,50,0
		c27.612,0,50,22.386,50,50"/>
	<path display="inline" fill="none" stroke="#000000" stroke-width="0.25" stroke-miterlimit="10" d="M100,50
		c0,27.614-22.388,50-50,50C22.389,100,0,77.614,0,50"/>
</g>
<g id="Your_Icon">
</g>
<g id="Layer_4">
	<path d="M39.5,76c-18.748,0-34-15.252-34-34s15.252-34,34-34s34,15.252,34,34S58.248,76,39.5,76z M39.5,16
		c-14.337,0-26,11.664-26,26s11.663,26,26,26s26-11.664,26-26S53.837,16,39.5,16z"/>
	<path d="M90.5,100c-1.014,0-2.026-0.382-2.806-1.149l-31.5-31c-1.574-1.55-1.595-4.082-0.045-5.657
		c1.549-1.575,4.082-1.594,5.656-0.045l31.5,31c1.574,1.55,1.595,4.082,0.045,5.657C92.568,99.601,91.534,100,90.5,100z"/>
	<path d="M54,46H24c-2.209,0-4-1.791-4-4s1.791-4,4-4h30c2.209,0,4,1.791,4,4S56.209,46,54,46z"/>
</g>
</svg>
