<?xml version="1.0" encoding="utf-8"?>
<!-- Generator: Adobe Illustrator 16.0.0, SVG Export Plug-In . SVG Version: 6.00 Build 0)  -->
<!DOCTYPE svg PUBLIC "-//W3C//DTD SVG 1.1//EN" "http://www.w3.org/Graphics/SVG/1.1/DTD/svg11.dtd">
<svg version="1.1" xmlns="http://www.w3.org/2000/svg" xmlns:xlink="http://www.w3.org/1999/xlink" x="0px" y="0px" width="100px"
	 height="100px" viewBox="0 0 100 100" enable-background="new 0 0 100 100" xml:space="preserve">
<g id="Layer_3" display="none">
	<circle display="inline" fill="none" stroke="#000000" stroke-width="0.25" stroke-miterlimit="10" cx="50" cy="49.5" r="17.5"/>
	<polyline display="inline" opacity="0.15" points="95,5 5,5 5,95 95,95 	"/>
	<circle display="inline" fill="none" stroke="#000000" stroke-width="0.25" stroke-miterlimit="10" cx="50" cy="50" r="26"/>
	<circle display="inline" fill="none" stroke="#000000" stroke-width="0.25" stroke-miterlimit="10" cx="50" cy="50" r="34"/>
	<circle display="inline" fill="none" stroke="#000000" stroke-width="0.25" stroke-miterlimit="10" cx="50" cy="49.5" r="9"/>
	<path display="inline" fill="none" stroke="#000000" stroke-width="0.25" stroke-miterlimit="10" d="M0,50C0,22.386,22.389,0,50,0
		c27.612,0,50,22.386,50,50"/>
	<path display="inline" fill="none" stroke="#000000" stroke-width="0.25" stroke-miterlimit="10" d="M100,50
		c0,27.614-22.388,50-50,50C22.389,100,0,77.614,0,50"/>
</g>
<g id="Your_Icon">
	<path d="M50,99.5c-1.017,0-2.033-0.385-2.813-1.156c-1.57-1.554-1.584-4.086-0.031-5.657L89.374,50L47.156,7.313
		C46.385,6.534,46,5.518,46,4.502c0-1.032,0.396-2.063,1.187-2.846c1.571-1.554,4.104-1.54,5.657,0.031l45,45.5
		c0.002,0.003,0.005,0.006,0.008,0.009c0,0,0,0,0,0c0.001,0.001,0.001,0,0.004,0.005c0.001,0.001,0,0.001,0.004,0.004
		c0.002,0.001,0.003,0.004,0.005,0.004c0.001,0.001,0.002,0.003,0.004,0.004l0,0c0.001,0.001,0.002,0.002,0.004,0.004c0,0,0,0,0,0
		c0.001,0.001,0.002,0.003,0.004,0.004c0,0.001,0.003,0.002,0.004,0.004l0,0c0.003,0.003,0.006,0.006,0.009,0.009l0,0
		c0.725,0.759,1.094,1.732,1.106,2.708v0c0,0.001,0,0.003,0,0.005c0,0,0,0.001,0,0.001c0,0.001,0,0.003,0,0.004
		c0,0.001,0,0.001,0,0.002c0,0.001,0,0.002,0,0.004c0,0.001,0,0.002,0,0.002c0,0.003,0,0.004,0,0.006s0,0.004,0,0.007
		c0,0,0,0.001,0,0.001c0,0.001,0,0.003,0,0.005c0,0,0,0.001,0,0.001c0,0.002,0,0.004,0,0.005v0c0,0.366-0.048,0.732-0.147,1.086l0,0
		c0,0.002-0.001,0.004-0.001,0.005c0,0,0,0,0,0c0,0.001-0.001,0.002-0.001,0.004c-0.001,0-0.002,0.001-0.001,0.004
		c0,0.001-0.001,0.003-0.001,0.004l0,0c-0.179,0.629-0.515,1.223-1.007,1.72L52.844,98.313C52.062,99.104,51.031,99.5,50,99.5z"/>
</g>
<g id="Layer_4">
</g>
</svg>
