<?xml version="1.0" encoding="utf-8"?>
<!-- Generator: Adobe Illustrator 16.0.0, SVG Export Plug-In . SVG Version: 6.00 Build 0)  -->
<!DOCTYPE svg PUBLIC "-//W3C//DTD SVG 1.1//EN" "http://www.w3.org/Graphics/SVG/1.1/DTD/svg11.dtd">
<svg version="1.1" xmlns="http://www.w3.org/2000/svg" xmlns:xlink="http://www.w3.org/1999/xlink" x="0px" y="0px" width="100px"
	 height="100px" viewBox="0 0 100 100" enable-background="new 0 0 100 100" xml:space="preserve">
<g id="Layer_3">
</g>
<g id="Your_Icon">
</g>
<g id="Layer_4">
	<path d="M5,98.5c-1.061,0-2.077-0.421-2.827-1.171C1.422,96.579,1,95.562,1,94.5v-55c0-2.209,1.791-4,4-4h90c2.209,0,4,1.791,4,4
		v54.93c0,2.208-1.789,3.998-3.997,4l-90,0.07C5.002,98.5,5.001,98.5,5,98.5z M9,43.5v46.997l82-0.064V43.5H9z"/>
	<path d="M71.5,34.1h-8v-4.828c0-4.225-2.652-7.959-6.326-8.937c-0.85-0.095-4.186-0.204-6.93-0.251
		c-2.638,0.032-5.814,0.104-6.595,0.169c-4.083,0.859-7.15,4.715-7.15,9.019V34.1h-8v-4.828c0-8.1,5.903-15.361,13.732-16.894
		c0.357-0.069,1.095-0.213,7.976-0.294c0.039,0.001,0.076,0,0.114,0.001c7.318,0.122,8.246,0.353,8.642,0.45
		c7.379,1.82,12.536,8.703,12.536,16.736V34.1z"/>
</g>
</svg>
