<?xml version="1.0" encoding="utf-8"?>
<!-- Generator: Adobe Illustrator 16.0.0, SVG Export Plug-In . SVG Version: 6.00 Build 0)  -->
<!DOCTYPE svg PUBLIC "-//W3C//DTD SVG 1.1//EN" "http://www.w3.org/Graphics/SVG/1.1/DTD/svg11.dtd">
<svg version="1.1" xmlns="http://www.w3.org/2000/svg" xmlns:xlink="http://www.w3.org/1999/xlink" x="0px" y="0px" width="100px"
	 height="100px" viewBox="0 0 100 100" enable-background="new 0 0 100 100" xml:space="preserve">
<g id="Layer_3" display="none">
	<circle display="inline" fill="none" stroke="#000000" stroke-width="0.25" stroke-miterlimit="10" cx="50" cy="49.5" r="17.5"/>
	<polyline display="inline" opacity="0.15" points="95,5 5,5 5,95 95,95 	"/>
	<circle display="inline" fill="none" stroke="#000000" stroke-width="0.25" stroke-miterlimit="10" cx="50" cy="50" r="26"/>
	<circle display="inline" fill="none" stroke="#000000" stroke-width="0.25" stroke-miterlimit="10" cx="50" cy="50" r="34"/>
	<circle display="inline" fill="none" stroke="#000000" stroke-width="0.25" stroke-miterlimit="10" cx="50" cy="49.5" r="9"/>
	<path display="inline" fill="none" stroke="#000000" stroke-width="0.25" stroke-miterlimit="10" d="M0,50C0,22.386,22.389,0,50,0
		c27.612,0,50,22.386,50,50"/>
	<path display="inline" fill="none" stroke="#000000" stroke-width="0.25" stroke-miterlimit="10" d="M100,50
		c0,27.614-22.388,50-50,50C22.389,100,0,77.614,0,50"/>
</g>
<g id="Your_Icon">
</g>
<g id="Layer_4">
	<path d="M50,54c-0.857,0-1.714-0.274-2.432-0.824l-27-20.669C19.58,31.75,19,30.576,19,29.331V4c0-2.209,1.791-4,4-4h54
		c2.209,0,4,1.791,4,4v25.331c0,1.245-0.58,2.419-1.568,3.176l-27,20.669C51.714,53.726,50.857,54,50,54z M27,27.355l23,17.607
		l23-17.607V8H27V27.355z"/>
	<path d="M77,100H23c-2.209,0-4-1.791-4-4V70.669c0-1.245,0.58-2.419,1.568-3.176l27-20.669c1.436-1.099,3.428-1.099,4.863,0
		l27,20.669C80.42,68.25,81,69.424,81,70.669V96C81,98.209,79.209,100,77,100z M27,92h46V72.645L50,55.038L27,72.645V92z"/>
	<path d="M65,82H35c-2.209,0-4-1.791-4-4s1.791-4,4-4h30c2.209,0,4,1.791,4,4S67.209,82,65,82z"/>
	<path d="M65,26H35c-2.209,0-4-1.791-4-4s1.791-4,4-4h30c2.209,0,4,1.791,4,4S67.209,26,65,26z"/>
</g>
</svg>
