<?xml version="1.0" encoding="utf-8"?>
<!-- Generator: Adobe Illustrator 16.0.0, SVG Export Plug-In . SVG Version: 6.00 Build 0)  -->
<!DOCTYPE svg PUBLIC "-//W3C//DTD SVG 1.1//EN" "http://www.w3.org/Graphics/SVG/1.1/DTD/svg11.dtd">
<svg version="1.1" xmlns="http://www.w3.org/2000/svg" xmlns:xlink="http://www.w3.org/1999/xlink" x="0px" y="0px" width="100px"
	 height="100px" viewBox="0 0 100 100" enable-background="new 0 0 100 100" xml:space="preserve">
<g id="Layer_3">
</g>
<g id="Your_Icon">
</g>
<g id="Layer_4">
	<path d="M50,54c-0.844,0-1.687-0.266-2.397-0.798l-27-20.22C19.594,32.227,19,31.041,19,29.78V5c0-2.209,1.791-4,4-4h54
		c2.209,0,4,1.791,4,4v24.78c0,1.26-0.594,2.446-1.603,3.202l-27,20.22C51.687,53.734,50.844,54,50,54z M27,27.778l23,17.225
		l23-17.225V9H27V27.778z"/>
	<path d="M77,99H23c-2.209,0-4-1.791-4-4V70.22c0-1.26,0.594-2.446,1.603-3.202l27-20.22c1.421-1.064,3.374-1.064,4.795,0l27,20.22
		C80.406,67.773,81,68.959,81,70.22V95C81,97.209,79.209,99,77,99z M27,91h46V72.222L50,54.997L27,72.222V91z"/>
	<rect x="20" y="74" width="60" height="8"/>
	<rect x="20" y="18" width="60" height="8"/>
</g>
</svg>
