<?xml version="1.0" encoding="utf-8"?>
<!-- Generator: Adobe Illustrator 16.0.0, SVG Export Plug-In . SVG Version: 6.00 Build 0)  -->
<!DOCTYPE svg PUBLIC "-//W3C//DTD SVG 1.1//EN" "http://www.w3.org/Graphics/SVG/1.1/DTD/svg11.dtd">
<svg version="1.1" xmlns="http://www.w3.org/2000/svg" xmlns:xlink="http://www.w3.org/1999/xlink" x="0px" y="0px" width="100px"
	 height="100px" viewBox="0 0 100 100" enable-background="new 0 0 100 100" xml:space="preserve">
<g id="Layer_3" display="none">
	<circle display="inline" fill="none" stroke="#000000" stroke-width="0.25" stroke-miterlimit="10" cx="50" cy="50" r="15.134"/>
	<polyline display="inline" opacity="0.26" points="94,6 6,6 6,94 94,94 	"/>
	<circle display="inline" fill="none" stroke="#000000" stroke-width="0.25" stroke-miterlimit="10" cx="50" cy="50" r="24"/>
	<circle display="inline" fill="none" stroke="#000000" stroke-width="0.25" stroke-miterlimit="10" cx="50" cy="50" r="30"/>
	<circle display="inline" fill="none" stroke="#000000" stroke-width="0.25" stroke-miterlimit="10" cx="50" cy="50" r="9.134"/>
	<path display="inline" fill="none" stroke="#000000" stroke-width="0.25" stroke-miterlimit="10" d="M0,50C0,22.386,22.389,0,50,0
		c27.612,0,50,22.386,50,50"/>
	<path display="inline" fill="none" stroke="#000000" stroke-width="0.25" stroke-miterlimit="10" d="M100,50
		c0,27.614-22.388,50-50,50C22.389,100,0,77.614,0,50"/>
</g>
<g id="Your_Icon">
</g>
<g id="Layer_4">
	<path d="M50,99c-0.002,0-0.003,0-0.005,0c-1.16-0.002-2.262-0.507-3.021-1.385C45.537,95.953,11.687,56.643,3.87,35.007
		c-3.205-8.872-2.279-17.898,2.541-24.765C10.945,3.784,18.505,0.08,27.155,0.08c9.541,0,17.283,3.654,22.732,10.65
		c3.472-5.126,9.554-10.65,21.191-10.65c9.262,0,17.427,4.064,22.401,11.15c4.793,6.828,5.827,15.495,2.835,23.776
		c-7.817,21.641-41.85,60.954-43.295,62.617C52.26,98.498,51.158,99,50,99z M27.155,8.08c-6.095,0-11.136,2.4-14.196,6.759
		c-3.301,4.703-3.871,11.063-1.564,17.449c6.018,16.658,30.08,46.313,38.613,56.526c8.573-10.206,32.765-39.869,38.782-56.526
		c2.094-5.796,1.417-11.796-1.858-16.461c-3.456-4.924-9.234-7.747-15.854-7.747c-11.462,0-14.766,6.874-17.178,11.894l-0.205,0.426
		c-0.667,1.383-2.067,2.262-3.603,2.262s-2.935-0.879-3.603-2.262C42.545,12.225,36.04,8.08,27.155,8.08z"/>
</g>
</svg>
