<?xml version="1.0" encoding="utf-8"?>
<!-- Generator: Adobe Illustrator 16.0.0, SVG Export Plug-In . SVG Version: 6.00 Build 0)  -->
<!DOCTYPE svg PUBLIC "-//W3C//DTD SVG 1.1//EN" "http://www.w3.org/Graphics/SVG/1.1/DTD/svg11.dtd">
<svg version="1.1" xmlns="http://www.w3.org/2000/svg" xmlns:xlink="http://www.w3.org/1999/xlink" x="0px" y="0px" width="100px"
	 height="100px" viewBox="0 0 100 100" enable-background="new 0 0 100 100" xml:space="preserve">
<g id="Layer_3">
</g>
<g id="Your_Icon">
</g>
<g id="Layer_4">
	<g>
		<path fill="none" d="M74.09,40.794c-0.041,0.568-0.203,1.121-0.476,1.621c-1.099,2.021-2.748,3.675-4.544,5.009
			c3.866,0.555,8.908,0.628,14.922-0.693c-2.44-5.994-4.935-12.259-6.498-16.208C75.363,33.081,74.282,38.151,74.09,40.794z"/>
		<path fill="none" d="M37.807,72.298c0.999,0.468,2.049,0.985,3.144,1.556c1.167,0.608,1.961,1.753,2.121,3.061
			c0.336,2.646,2.095,9.749,5.948,12.269c2.428-2.739,6.93-8.138,10.754-14.498c-3.927-2.183-8.481-3.286-13.586-3.286
			C43.2,71.398,40.346,71.771,37.807,72.298z"/>
		<path d="M34.588,51.817c0.27,0.056,0.542,0.083,0.812,0.083c0.789,0,1.568-0.233,2.233-0.682c1.021-0.688,1.926-1.184,2.801-1.664
			c6.009-3.3,8.457-5.963,14.475-24.945l-7.625-2.418c-5.557,17.526-7.275,18.47-10.7,20.351c-0.558,0.307-1.157,0.636-1.812,1.025
			c-9.383-3.529-8.587-20.466-8.578-20.639c0.104-1.819-1.034-3.479-2.768-4.036l-8.92-2.87c8.303-3.751,23.292-7.51,42.469,0.564
			c1.069,0.449,2.28,0.412,3.322-0.1c0.616-0.304,6.105-3.259,9.099-13.238L61.733,0.95c-1.199,3.996-2.785,6.225-3.867,7.372
			C25.186-4.267,3.207,13.235,2.269,14.003c-1.135,0.928-1.671,2.4-1.399,3.841c0.272,1.439,1.311,2.615,2.705,3.064l14.625,4.707
			c0.082,2.396,0.379,5.893,1.296,9.536C21.848,44.495,27.066,50.258,34.588,51.817z"/>
		<path d="M67.521,70.217c-5.949-4.524-13.127-6.818-21.334-6.818c-11.935,0-21.865,4.918-22.282,5.128
			c-1.517,0.762-2.382,2.397-2.167,4.081s1.474,3.049,3.133,3.406c0.045,0.01,4.271,0.941,10.639,4.054
			c1.004,4.778,4.325,15.816,13.811,17.752c0.266,0.055,0.534,0.081,0.8,0.081c1.068,0,2.105-0.429,2.866-1.209
			c0.382-0.393,9.427-9.742,15.645-21.41C69.554,73.55,69.084,71.404,67.521,70.217z M49.02,89.183
			c-3.854-2.52-5.612-9.623-5.948-12.269c-0.16-1.308-0.954-2.452-2.121-3.061c-1.095-0.57-2.145-1.088-3.144-1.556
			c2.539-0.526,5.394-0.899,8.381-0.899c5.104,0,9.659,1.104,13.586,3.286C55.949,81.045,51.447,86.443,49.02,89.183z"/>
		<path d="M92.839,47.228C88.53,36.755,83.39,23.67,83.338,23.538c-0.657-1.672-2.345-2.7-4.132-2.518
			c-8.846,0.908-12.269,11.397-13.002,18.169c-2.049,2.776-7.239,4.671-9.01,5.14c-1.562,0.405-2.728,1.711-2.954,3.31
			c-0.228,1.599,0.529,3.177,1.917,4.001c0.534,0.317,12.823,7.417,32.079,2.29l3.948,3.911l5.631-5.682L92.839,47.228z
			 M69.07,47.424c1.796-1.334,3.445-2.988,4.544-5.009c0.272-0.5,0.435-1.053,0.476-1.621c0.192-2.643,1.273-7.713,3.404-10.271
			c1.563,3.949,4.058,10.214,6.498,16.208C77.979,48.052,72.937,47.979,69.07,47.424z"/>
	</g>
</g>
</svg>
