<?xml version="1.0" encoding="utf-8"?>
<!-- Generator: Adobe Illustrator 16.0.0, SVG Export Plug-In . SVG Version: 6.00 Build 0)  -->
<!DOCTYPE svg PUBLIC "-//W3C//DTD SVG 1.1//EN" "http://www.w3.org/Graphics/SVG/1.1/DTD/svg11.dtd">
<svg version="1.1" id="Capa_1" xmlns="http://www.w3.org/2000/svg" xmlns:xlink="http://www.w3.org/1999/xlink" x="0px" y="0px"
	 width="100px" height="100px" viewBox="0 0 100 100" enable-background="new 0 0 100 100" xml:space="preserve">
<g id="Layer_3" display="none">
</g>
<g id="Your_Icon">
	<rect x="17" y="45" width="66" height="10"/>
</g>
<g id="Layer_4">
	<path d="M73.5,36.822L50.001,13.321L26.5,36.822l-7.071-7.071L46.465,2.714c0.938-0.938,2.209-1.464,3.536-1.464l0,0
		c1.326,0,2.599,0.527,3.536,1.465l27.035,27.037L73.5,36.822z"/>
	<path d="M50.001,98.75c-1.326,0-2.598-0.525-3.536-1.465L19.429,70.25l7.071-7.07l23.501,23.5L73.5,63.18l7.07,7.07L53.537,97.285
		C52.6,98.225,51.327,98.75,50.001,98.75z"/>
</g>
</svg>
