<?xml version="1.0" encoding="utf-8"?>
<!-- Generator: Adobe Illustrator 16.0.0, SVG Export Plug-In . SVG Version: 6.00 Build 0)  -->
<!DOCTYPE svg PUBLIC "-//W3C//DTD SVG 1.1//EN" "http://www.w3.org/Graphics/SVG/1.1/DTD/svg11.dtd">
<svg version="1.1" xmlns="http://www.w3.org/2000/svg" xmlns:xlink="http://www.w3.org/1999/xlink" x="0px" y="0px" width="100px"
	 height="100px" viewBox="0 0 100 100" enable-background="new 0 0 100 100" xml:space="preserve">
<g id="Layer_3" display="none">
</g>
<g id="Your_Icon">
</g>
<g id="Layer_4">
	<g>
		<path d="M50,22c-15.465,0-28,12.534-28,28c0,15.46,12.535,28,28,28s28-12.54,28-28C78,34.534,65.465,22,50,22z"/>
		<path d="M50,12c-20.953,0-38,17.047-38,38s17.047,38,38,38s38-17.047,38-38S70.953,12,50,12z M50,78c-15.465,0-28-12.54-28-28
			c0-15.466,12.535-28,28-28s28,12.534,28,28C78,65.46,65.465,78,50,78z"/>
	</g>
</g>
</svg>
