<?xml version="1.0" encoding="utf-8"?>
<!-- Generator: Adobe Illustrator 16.0.0, SVG Export Plug-In . SVG Version: 6.00 Build 0)  -->
<!DOCTYPE svg PUBLIC "-//W3C//DTD SVG 1.1//EN" "http://www.w3.org/Graphics/SVG/1.1/DTD/svg11.dtd">
<svg version="1.1" xmlns="http://www.w3.org/2000/svg" xmlns:xlink="http://www.w3.org/1999/xlink" x="0px" y="0px" width="100px"
	 height="100px" viewBox="0 0 100 100" enable-background="new 0 0 100 100" xml:space="preserve">
<g id="Layer_3" display="none">
	<circle display="inline" fill="none" stroke="#000000" stroke-width="0.25" stroke-miterlimit="10" cx="50" cy="50" r="15.134"/>
	<polyline display="inline" opacity="0.26" points="94,6 6,6 6,94 94,94 	"/>
	<circle display="inline" fill="none" stroke="#000000" stroke-width="0.25" stroke-miterlimit="10" cx="50" cy="50" r="24"/>
	<circle display="inline" fill="none" stroke="#000000" stroke-width="0.25" stroke-miterlimit="10" cx="50" cy="50" r="30"/>
	<circle display="inline" fill="none" stroke="#000000" stroke-width="0.25" stroke-miterlimit="10" cx="50" cy="50" r="9.134"/>
	<path display="inline" fill="none" stroke="#000000" stroke-width="0.25" stroke-miterlimit="10" d="M0,50C0,22.386,22.389,0,50,0
		c27.612,0,50,22.386,50,50"/>
	<path display="inline" fill="none" stroke="#000000" stroke-width="0.25" stroke-miterlimit="10" d="M100,50
		c0,27.614-22.388,50-50,50C22.389,100,0,77.614,0,50"/>
</g>
<g id="Your_Icon">
</g>
<g id="Layer_4">
	<path d="M0,100.003V38h100v61.916L0,100.003z M6,44v49.997l88-0.075V44H6z"/>
	<polygon points="0,44.001 0,14 6,14 6,37.999 94,37.972 94,14 100,14 100,43.97 	"/>
	<path d="M34.003,31H14V0h19.974L34.003,31z M20,25h7.997L27.979,6H20V25z"/>
	<path d="M86.003,31H66V0h19.974L86.003,31z M72,25h7.997L79.979,6H72V25z"/>
	<rect x="38" y="14" width="24" height="6"/>
	<rect x="15" y="54" width="6" height="6"/>
	<rect x="28" y="54" width="6" height="6"/>
	<rect x="15" y="66" width="6" height="6"/>
	<rect x="28" y="66" width="6" height="6"/>
	<rect x="15" y="78" width="6" height="6"/>
	<rect x="28" y="78" width="6" height="6"/>
	<rect x="41" y="54" width="6" height="6"/>
	<rect x="54" y="54" width="6" height="6"/>
	<rect x="41" y="66" width="6" height="6"/>
	<rect x="54" y="66" width="6" height="6"/>
	<rect x="41" y="78" width="6" height="6"/>
	<rect x="54" y="78" width="6" height="6"/>
	<rect x="66" y="54" width="6" height="6"/>
	<rect x="79" y="54" width="6" height="6"/>
	<rect x="66" y="66" width="6" height="6"/>
	<rect x="79" y="66" width="6" height="6"/>
	<rect x="66" y="78" width="6" height="6"/>
	<rect x="79" y="78" width="6" height="6"/>
</g>
</svg>
