<?xml version="1.0" encoding="utf-8"?>
<!-- Generator: Adobe Illustrator 16.0.0, SVG Export Plug-In . SVG Version: 6.00 Build 0)  -->
<!DOCTYPE svg PUBLIC "-//W3C//DTD SVG 1.1//EN" "http://www.w3.org/Graphics/SVG/1.1/DTD/svg11.dtd">
<svg version="1.1" xmlns="http://www.w3.org/2000/svg" xmlns:xlink="http://www.w3.org/1999/xlink" x="0px" y="0px" width="100px"
	 height="100px" viewBox="0 0 100 100" enable-background="new 0 0 100 100" xml:space="preserve">
<g id="Layer_3">
</g>
<g id="Your_Icon">
</g>
<g id="Layer_4">
	<g>
		<path fill="none" d="M35,76.891c0,7.639,6.363,13.853,14,13.853s14-6.214,14-13.853V8H35V76.891z M41,44h16v33.067
			c0,4.606-3.399,8.333-7.999,8.333C44.402,85.4,41,81.674,41,77.067V44z"/>
		<path d="M77,0H20v8h7v68.891c0,12.05,9.952,21.853,22,21.853s22-9.803,22-21.853V8h6V0z M63,76.891
			c0,7.639-6.363,13.853-14,13.853s-14-6.214-14-13.853V8h28V76.891z"/>
		<path d="M49.001,85.4c4.6,0,7.999-3.727,7.999-8.333V44H41v33.067C41,81.674,44.402,85.4,49.001,85.4z"/>
	</g>
</g>
</svg>
