<?xml version="1.0" encoding="utf-8"?>
<!-- Generator: Adobe Illustrator 16.0.0, SVG Export Plug-In . SVG Version: 6.00 Build 0)  -->
<!DOCTYPE svg PUBLIC "-//W3C//DTD SVG 1.1//EN" "http://www.w3.org/Graphics/SVG/1.1/DTD/svg11.dtd">
<svg version="1.1" xmlns="http://www.w3.org/2000/svg" xmlns:xlink="http://www.w3.org/1999/xlink" x="0px" y="0px" width="100px"
	 height="100px" viewBox="0 0 100 100" enable-background="new 0 0 100 100" xml:space="preserve">
<g id="Layer_3">
</g>
<g id="Your_Icon">
</g>
<g id="Layer_4">
	<g>
		<path d="M4,99.999c-1.06,0-2.077-0.421-2.827-1.17C0.422,98.079,0,97.061,0,95.999V26.053c0-2.209,1.791-4,4-4h24.274L32.93,9.6
			C33.515,8.036,35.008,7,36.677,7h26.477c1.658,0,3.145,1.023,3.736,2.572l4.771,12.48H96c2.209,0,4,1.791,4,4V95.9
			c0,2.207-1.788,3.998-3.996,4l-92,0.099C4.003,99.999,4.001,99.999,4,99.999z M8,30.053v61.942l84-0.091V30.053H68.907
			c-1.658,0-3.145-1.023-3.736-2.572L60.4,15H39.452l-4.656,12.453c-0.584,1.563-2.078,2.6-3.747,2.6H8z"/>
	</g>
	<path d="M50.2,40.8c-9.925,0-18,8.075-18,18s8.075,18,18,18s18-8.075,18-18S60.125,40.8,50.2,40.8z"/>
</g>
</svg>
