<?xml version="1.0" encoding="utf-8"?>
<!-- Generator: Adobe Illustrator 16.0.0, SVG Export Plug-In . SVG Version: 6.00 Build 0)  -->
<!DOCTYPE svg PUBLIC "-//W3C//DTD SVG 1.1//EN" "http://www.w3.org/Graphics/SVG/1.1/DTD/svg11.dtd">
<svg version="1.1" xmlns="http://www.w3.org/2000/svg" xmlns:xlink="http://www.w3.org/1999/xlink" x="0px" y="0px" width="100px"
	 height="100px" viewBox="0 0 100 100" enable-background="new 0 0 100 100" xml:space="preserve">
<g id="Layer_3">
</g>
<g id="Your_Icon">
</g>
<g id="Layer_4">
	<g>
		<path d="M54,73.796V36.397c-0.601,0.212-1.22,0.392-1.867,0.509c-2.131,0.386-4.228,0.173-6.133-0.502v37.396
			c0.6-0.213,1.217-0.393,1.863-0.51C49.995,72.906,52.094,73.119,54,73.796z"/>
		<g>
			<path d="M59.348,23.407c-0.938-5.16-5.876-8.587-11.042-7.654c-5.163,0.936-8.591,5.877-7.651,11.04
				c0.932,5.163,5.875,8.59,11.038,7.657C56.854,33.514,60.283,28.573,59.348,23.407z"/>
		</g>
		<g>
			<path d="M48.306,75.752c-5.163,0.936-8.591,5.877-7.651,11.041c0.932,5.162,5.875,8.59,11.038,7.656
				c5.161-0.936,8.591-5.877,7.655-11.043C58.41,78.246,53.472,74.82,48.306,75.752z"/>
		</g>
	</g>
	<g>
		<path d="M89,73.796V60.804C89,58.595,87.209,57,85,57H15c-2.209,0-4,1.595-4,3.804v12.997c0.6-0.213,1.217-0.393,1.863-0.51
			c2.132-0.385,4.231-0.172,6.137,0.505V65h62v8.8c0.6-0.212,1.217-0.392,1.863-0.509C84.995,72.906,87.094,73.119,89,73.796z"/>
		<g>
			<path d="M83.305,75.752c-5.163,0.936-8.591,5.877-7.651,11.041c0.932,5.162,5.875,8.59,11.038,7.656
				c5.161-0.936,8.591-5.877,7.655-11.043C93.41,78.246,88.471,74.82,83.305,75.752z"/>
		</g>
		<g>
			<path d="M13.306,75.752c-5.163,0.936-8.591,5.877-7.651,11.041c0.932,5.162,5.875,8.59,11.038,7.656
				c5.161-0.936,8.591-5.877,7.655-11.043C23.41,78.246,18.472,74.82,13.306,75.752z"/>
		</g>
	</g>
</g>
</svg>
