<?xml version="1.0" encoding="utf-8"?>
<!-- Generator: Adobe Illustrator 16.0.0, SVG Export Plug-In . SVG Version: 6.00 Build 0)  -->
<!DOCTYPE svg PUBLIC "-//W3C//DTD SVG 1.0//EN" "http://www.w3.org/TR/2001/REC-SVG-20010904/DTD/svg10.dtd">
<svg version="1.0" xmlns="http://www.w3.org/2000/svg" xmlns:xlink="http://www.w3.org/1999/xlink" x="0px" y="0px" width="100px"
	 height="100px" viewBox="0 0 100 100" enable-background="new 0 0 100 100" xml:space="preserve">
<g id="Layer_3">
</g>
<g id="Your_Icon">
</g>
<g id="Layer_4">
	<path d="M28.76,91.286c-4.005,0-8.014-1.459-11.192-4.397c-0.109-0.102-1.149-1.142-1.784-1.778l-0.44-0.441
		c-0.137-0.137-2.123-2.133-2.241-2.261c-6.027-6.522-5.828-16.563,0.462-22.853l13.082-13.082l5.656,5.657L19.222,65.212
		c-3.24,3.24-3.344,8.412-0.237,11.774c0.194,0.2,1.893,1.904,2.004,2.015l0.459,0.46c0.554,0.555,1.442,1.447,1.603,1.603
		c3.308,3.055,8.48,2.952,11.721-0.289l13.082-13.081l5.656,5.657l-13.082,13.08C37.201,89.662,32.982,91.286,28.76,91.286z"/>
	<rect x="46.01" y="28.983" transform="matrix(0.7071 0.7071 -0.7071 0.7071 49.9908 -20.7226)" width="8" height="42"/>
	<path d="M73.353,53.511l-5.657-5.656l13.082-13.083c3.24-3.24,3.344-8.411,0.236-11.772c-0.165-0.17-1.317-1.316-1.796-1.793
		L79,20.991c-0.11-0.111-1.792-1.791-2.044-2.033c-3.333-3.082-8.504-2.977-11.744,0.264L52.13,32.305l-5.657-5.657l13.083-13.082
		c6.289-6.291,16.332-6.491,22.86-0.455c0.116,0.104,0.881,0.862,2.242,2.223l0.203,0.203c1.891,1.882,1.951,1.948,2.05,2.058
		c6.012,6.502,5.813,16.543-0.477,22.834L73.353,53.511z"/>
</g>
</svg>
