<?xml version="1.0" encoding="utf-8"?>
<!-- Generator: Adobe Illustrator 16.0.0, SVG Export Plug-In . SVG Version: 6.00 Build 0)  -->
<!DOCTYPE svg PUBLIC "-//W3C//DTD SVG 1.1//EN" "http://www.w3.org/Graphics/SVG/1.1/DTD/svg11.dtd">
<svg version="1.1" xmlns="http://www.w3.org/2000/svg" xmlns:xlink="http://www.w3.org/1999/xlink" x="0px" y="0px" width="100px"
	 height="100px" viewBox="0 0 100 100" enable-background="new 0 0 100 100" xml:space="preserve">
<g id="Layer_3" display="none">
</g>
<g id="Your_Icon">
</g>
<g id="Layer_4">
	<path d="M5,100c-1.325,0-2.597-0.526-3.534-1.463C0.527,97.599,0,96.327,0,95V51c0-2.761,2.238-5,5-5h90c2.762,0,5,2.239,5,5
		v43.936c0,2.76-2.236,4.998-4.996,5l-90,0.064C5.002,100,5.001,100,5,100z M10,56v33.997l80-0.057V56H10z"/>
	<path d="M87,43.5H77v-8c0-13.785-12.112-25-27-25s-27,11.215-27,25v8H13v-8c0-19.299,16.598-35,37-35s37,15.701,37,35V43.5z"/>
</g>
</svg>
