<?xml version="1.0" encoding="utf-8"?>
<!-- Generator: Adobe Illustrator 16.0.0, SVG Export Plug-In . SVG Version: 6.00 Build 0)  -->
<!DOCTYPE svg PUBLIC "-//W3C//DTD SVG 1.1//EN" "http://www.w3.org/Graphics/SVG/1.1/DTD/svg11.dtd">
<svg version="1.1" xmlns="http://www.w3.org/2000/svg" xmlns:xlink="http://www.w3.org/1999/xlink" x="0px" y="0px" width="100px"
	 height="100px" viewBox="0 0 100 100" enable-background="new 0 0 100 100" xml:space="preserve">
<g id="Layer_3" display="none">
	<circle display="inline" fill="none" stroke="#000000" stroke-width="0.25" stroke-miterlimit="10" cx="50" cy="49.5" r="17.5"/>
	<polyline display="inline" opacity="0.15" points="95,6 5,6 5,96 95,96 	"/>
	<circle display="inline" fill="none" stroke="#000000" stroke-width="0.25" stroke-miterlimit="10" cx="50" cy="50" r="26"/>
	<circle display="inline" fill="none" stroke="#000000" stroke-width="0.25" stroke-miterlimit="10" cx="50" cy="50" r="34"/>
	<circle display="inline" fill="none" stroke="#000000" stroke-width="0.25" stroke-miterlimit="10" cx="50" cy="49.5" r="9"/>
	<path display="inline" fill="none" stroke="#000000" stroke-width="0.25" stroke-miterlimit="10" d="M0,50C0,22.386,22.389,0,50,0
		c27.612,0,50,22.386,50,50"/>
	<path display="inline" fill="none" stroke="#000000" stroke-width="0.25" stroke-miterlimit="10" d="M100,50
		c0,27.614-22.388,50-50,50C22.389,100,0,77.614,0,50"/>
</g>
<g id="Your_Icon">
</g>
<g id="Layer_4">
	<path d="M28.307,100H9c-2.209,0-4-1.791-4-4V74.759c0-1.063,0.424-2.083,1.177-2.834l62-61.759C68.928,9.419,69.942,9,71,9
		c0.019,0,0.037,0,0.055,0c1.078,0.015,2.104,0.463,2.846,1.245l19,20c1.482,1.561,1.464,4.015-0.043,5.554l-61.693,63
		C30.412,99.567,29.382,100,28.307,100z M13,92h13.625l57.817-59.042L70.921,18.725L13,76.42V92z"/>
	<path d="M69,42c-1.023,0-2.048-0.391-2.828-1.171l-3-3c-1.562-1.562-1.562-4.095,0-5.657c1.561-1.562,4.096-1.562,5.656,0l3,3
		c1.562,1.562,1.562,4.095,0,5.657C71.048,41.609,70.023,42,69,42z"/>
</g>
</svg>
