<?xml version="1.0" encoding="utf-8"?>
<!-- Generator: Adobe Illustrator 16.0.0, SVG Export Plug-In . SVG Version: 6.00 Build 0)  -->
<!DOCTYPE svg PUBLIC "-//W3C//DTD SVG 1.1//EN" "http://www.w3.org/Graphics/SVG/1.1/DTD/svg11.dtd">
<svg version="1.1" xmlns="http://www.w3.org/2000/svg" xmlns:xlink="http://www.w3.org/1999/xlink" x="0px" y="0px" width="100px"
	 height="100px" viewBox="0 0 100 100" enable-background="new 0 0 100 100" xml:space="preserve">
<g id="Layer_3" display="none">
	<circle display="inline" fill="none" stroke="#000000" stroke-width="0.25" stroke-miterlimit="10" cx="50" cy="50" r="15.134"/>
	<rect x="6" y="6" display="inline" opacity="0.26" width="88" height="88"/>
	<circle display="inline" fill="none" stroke="#000000" stroke-width="0.25" stroke-miterlimit="10" cx="50" cy="50" r="24"/>
	<circle display="inline" fill="none" stroke="#000000" stroke-width="0.25" stroke-miterlimit="10" cx="50" cy="50" r="30"/>
	<circle display="inline" fill="none" stroke="#000000" stroke-width="0.25" stroke-miterlimit="10" cx="50" cy="50" r="9.134"/>
	<g display="inline">
		<path d="M50,0.25c27.432,0,49.75,22.317,49.75,49.75S77.432,99.75,50,99.75S0.25,77.433,0.25,50S22.568,0.25,50,0.25 M50,0
			C22.389,0,0,22.386,0,50s22.389,50,50,50c27.612,0,50-22.386,50-50S77.612,0,50,0L50,0z"/>
	</g>
</g>
<g id="Your_Icon">
</g>
<g id="Layer_4">
	<path d="M82,100c-0.733,0-1.469-0.201-2.12-0.608L50.046,80.738L21.168,99.361c-1.404,0.906-3.222,0.842-4.56-0.155
		c-1.338-0.999-1.916-2.724-1.448-4.327l9.604-32.907L1.586,38.526c-1.134-1.147-1.468-2.865-0.846-4.354
		c0.622-1.489,2.077-2.459,3.691-2.459h29.32L46.35,2.99c0.638-1.455,2.076-2.394,3.663-2.394c0.003,0,0.006,0,0.009,0
		c1.591,0.004,3.029,0.95,3.661,2.41l12.441,28.721h29.307c1.611,0,3.065,0.967,3.688,2.452c0.624,1.486,0.294,3.201-0.834,4.351
		L75.321,61.915l10.489,32.869c0.51,1.599-0.032,3.346-1.356,4.375C83.735,99.717,82.869,100,82,100z M50.013,72
		c0.736,0,1.472,0.202,2.121,0.608l22.741,14.219l-7.907-24.778c-0.451-1.413-0.083-2.96,0.957-4.019l17.973-18.303H63.498
		c-1.594,0-3.037-0.947-3.67-2.41l-9.837-22.71L40.027,37.32c-0.638,1.454-2.075,2.394-3.663,2.394H14.01l18.098,18.307
		c1.021,1.033,1.402,2.539,0.995,3.934l-7.259,24.873l22-14.188C48.504,72.213,49.258,72,50.013,72z"/>
</g>
</svg>
