<?xml version="1.0" encoding="utf-8"?>
<!-- Generator: Adobe Illustrator 16.0.0, SVG Export Plug-In . SVG Version: 6.00 Build 0)  -->
<!DOCTYPE svg PUBLIC "-//W3C//DTD SVG 1.1//EN" "http://www.w3.org/Graphics/SVG/1.1/DTD/svg11.dtd">
<svg version="1.1" xmlns="http://www.w3.org/2000/svg" xmlns:xlink="http://www.w3.org/1999/xlink" x="0px" y="0px" width="100px"
	 height="100px" viewBox="0 0 100 100" enable-background="new 0 0 100 100" xml:space="preserve">
<g id="Layer_3" display="none">
</g>
<g id="Your_Icon">
</g>
<g id="Layer_4">
	<rect y="90" width="100" height="10"/>
	<path d="M5,83.921c-1.32,0-2.586-0.521-3.523-1.452C0.531,81.529,0,80.253,0,78.921V5c0-2.762,2.238-5,5-5h18c2.762,0,5,2.238,5,5
		v73.8c0,2.748-2.219,4.981-4.967,5l-18,0.121C5.022,83.921,5.012,83.921,5,83.921z M10,10v63.887l8-0.054V10H10z"/>
	<path d="M41,83.921c-1.322,0-2.592-0.524-3.529-1.458C36.529,81.524,36,80.25,36,78.921V30c0-2.762,2.238-5,5-5h18
		c2.762,0,5,2.238,5,5v48.854c0,2.754-2.228,4.99-4.981,5l-18,0.066C41.012,83.921,41.006,83.921,41,83.921z M46,35v38.902l8-0.029
		V35H46z"/>
	<path d="M77,83.921c-1.323,0-2.593-0.524-3.529-1.459C72.529,81.523,72,80.25,72,78.921V55c0-2.762,2.238-5,5-5h18
		c2.762,0,5,2.238,5,5v23.864c0,2.755-2.229,4.991-4.984,5l-18,0.057C77.011,83.921,77.006,83.921,77,83.921z M82,60v13.905l8-0.025
		V60H82z"/>
</g>
</svg>
