<?xml version="1.0" encoding="utf-8"?>
<!-- Generator: Adobe Illustrator 16.0.0, SVG Export Plug-In . SVG Version: 6.00 Build 0)  -->
<!DOCTYPE svg PUBLIC "-//W3C//DTD SVG 1.0//EN" "http://www.w3.org/TR/2001/REC-SVG-20010904/DTD/svg10.dtd">
<svg version="1.0" xmlns="http://www.w3.org/2000/svg" xmlns:xlink="http://www.w3.org/1999/xlink" x="0px" y="0px" width="100px"
	 height="100px" viewBox="0 0 100 100" enable-background="new 0 0 100 100" xml:space="preserve">
<g id="Layer_3">
</g>
<g id="Your_Icon">
</g>
<g id="Layer_4">
	<g>
		<polygon fill="none" points="8,91.3 92,91.217 92,42 8,42 		"/>
		<path d="M92,17h-3.52L88.467,4.895C88.465,2.688,86.674,1,84.467,1H65.5C63.291,1,61,2.791,61,5v12H38.98L38.967,4.895
			C38.965,2.688,37.174,1,34.967,1H16c-2.209,0-4,1.791-4,4v12H8c-4.418,0-8,3.782-8,8.2v66.1c0,2.123,0.844,4.009,2.346,5.509
			C3.846,98.309,5.88,99,8,99c0.003,0,0.005,0,0.008,0l84,0.066c4.415-0.004,7.992-3.435,7.992-7.85V25.2
			C100,20.782,96.418,17,92,17z M69,9h11.472l0.023,22H69V9z M20,9h10.972l0.023,22H20V9z M92,91.217L8,91.3V42h84V91.217z"/>
	</g>
</g>
</svg>
