<?xml version="1.0" encoding="utf-8"?>
<!-- Generator: Adobe Illustrator 16.0.0, SVG Export Plug-In . SVG Version: 6.00 Build 0)  -->
<!DOCTYPE svg PUBLIC "-//W3C//DTD SVG 1.0//EN" "http://www.w3.org/TR/2001/REC-SVG-20010904/DTD/svg10.dtd">
<svg version="1.0" xmlns="http://www.w3.org/2000/svg" xmlns:xlink="http://www.w3.org/1999/xlink" x="0px" y="0px" width="100px"
	 height="100px" viewBox="0 0 100 100" enable-background="new 0 0 100 100" xml:space="preserve">
<g id="Layer_3">
</g>
<g id="Your_Icon">
</g>
<g id="Layer_4">
	<path d="M37.499,100h-6.955c-7.214,0-17.693-5.589-17.693-14.348c0-12.545-2.067-25.563-4.338-27.314l-4.336-3.097
		c-1.052-0.751-1.676-1.963-1.676-3.255v-4.182c0-1.292,0.624-2.504,1.676-3.255l4.392-3.137c2.215-1.687,4.282-14.606,4.282-27.065
		c0-4.001,2.276-7.776,6.408-10.63C22.63,1.39,26.849,0,30.544,0h6.955v8h-6.955c-4.349,0-9.693,3.5-9.693,6.348
		c0,8.396-0.738,28.472-7.578,33.535l-2.771,1.98v0.064l2.717,1.94c6.895,5.101,7.633,25.324,7.633,33.784
		c0,2.848,5.345,6.348,9.693,6.348h6.955V100z"/>
	<path d="M69.456,100h-6.955v-8h6.955c4.349,0,9.693-3.5,9.693-6.348c0-8.46,0.738-28.683,7.579-33.745l2.771-1.979v-0.065
		l-2.716-1.94c-6.896-5.104-7.634-25.179-7.634-33.575C79.149,11.5,73.805,8,69.456,8h-6.955V0h6.955
		c7.214,0,17.693,5.589,17.693,14.348c0,12.459,2.068,25.378,4.339,27.105l4.336,3.097c1.051,0.751,1.675,1.963,1.675,3.255v4.182
		c0,1.292-0.624,2.504-1.675,3.255l-4.391,3.137c-2.216,1.711-4.284,14.73-4.284,27.274c0,4.001-2.276,7.776-6.408,10.63
		C77.37,98.61,73.151,100,69.456,100z"/>
</g>
</svg>
