<?xml version="1.0" encoding="utf-8"?>
<!-- Generator: Adobe Illustrator 16.0.0, SVG Export Plug-In . SVG Version: 6.00 Build 0)  -->
<!DOCTYPE svg PUBLIC "-//W3C//DTD SVG 1.0//EN" "http://www.w3.org/TR/2001/REC-SVG-20010904/DTD/svg10.dtd">
<svg version="1.0" xmlns="http://www.w3.org/2000/svg" xmlns:xlink="http://www.w3.org/1999/xlink" x="0px" y="0px" width="100px"
	 height="100px" viewBox="0 0 100 100" enable-background="new 0 0 100 100" xml:space="preserve">
<g id="Layer_3">
</g>
<g id="Your_Icon">
</g>
<g id="Layer_4">
	<path d="M49.976,22c9.324,0,18.439,4.655,23.754,13.146c8.202,13.097,4.236,30.376-8.871,38.582C60.24,76.62,55.102,78,50.027,78
		c-9.325,0-18.439-4.655-23.752-13.14c-8.211-13.106-4.24-30.38,8.867-38.587C39.762,23.381,44.9,22,49.976,22 M49.978,14v8V14
		L49.978,14h-0.002c-6.745,0.001-13.342,1.9-19.079,5.493c-8.15,5.104-13.825,13.074-15.979,22.444
		c-2.153,9.371-0.528,19.021,4.578,27.17C26.118,79.685,37.532,86,50.027,86c6.744,0,13.341-1.899,19.077-5.492
		c8.149-5.102,13.823-13.073,15.978-22.445c2.153-9.37,0.529-19.018-4.572-27.163C73.886,20.318,62.472,14,49.978,14L49.978,14z"/>
	<path d="M63.496,57.454l-15-0.016c-1.062-0.001-2.078-0.424-2.828-1.175c-0.749-0.751-1.169-1.769-1.168-2.83l0.025-21.438l8,0.01
		l-0.021,17.438l10.999,0.012L63.496,57.454z"/>
</g>
</svg>
