<?xml version="1.0" encoding="utf-8"?>
<!-- Generator: Adobe Illustrator 16.0.0, SVG Export Plug-In . SVG Version: 6.00 Build 0)  -->
<!DOCTYPE svg PUBLIC "-//W3C//DTD SVG 1.1//EN" "http://www.w3.org/Graphics/SVG/1.1/DTD/svg11.dtd">
<svg version="1.1" xmlns="http://www.w3.org/2000/svg" xmlns:xlink="http://www.w3.org/1999/xlink" x="0px" y="0px" width="100px"
	 height="100px" viewBox="0 0 100 100" enable-background="new 0 0 100 100" xml:space="preserve">
<g id="Layer_3" display="none">
	<rect x="6" y="6" display="inline" opacity="0.26" width="88" height="88"/>
</g>
<g id="Your_Icon">
</g>
<g id="Layer_4">
	<path d="M51.953,84.018c-4.556,0-9.1-0.931-13.4-2.788c-8.3-3.587-14.719-10.209-18.071-18.647
		c-0.816-2.054,0.187-4.379,2.239-5.194c2.058-0.819,4.379,0.187,5.194,2.239c2.565,6.455,7.47,11.519,13.811,14.258
		c6.341,2.74,13.386,2.837,19.834,0.274c13.316-5.294,19.845-20.436,14.554-33.752C70.819,27.09,55.679,20.56,42.36,25.853
		c-8.076,3.212-13.99,10.211-15.818,18.722c-0.465,2.16-2.591,3.532-4.751,3.071c-2.16-0.465-3.535-2.592-3.071-4.751
		c2.391-11.126,10.123-20.275,20.685-24.476c17.421-6.925,37.222,1.616,44.143,19.033S81.93,74.67,64.515,81.593
		C60.446,83.21,56.195,84.018,51.953,84.018z"/>
	<path d="M44,48H19c-2.209,0-4-1.791-4-4V19c0-2.209,1.791-4,4-4s4,1.791,4,4v21h21c2.209,0,4,1.791,4,4S46.209,48,44,48z"/>
</g>
</svg>
