<?xml version="1.0" encoding="utf-8"?>
<!-- Generator: Adobe Illustrator 16.0.0, SVG Export Plug-In . SVG Version: 6.00 Build 0)  -->
<!DOCTYPE svg PUBLIC "-//W3C//DTD SVG 1.1//EN" "http://www.w3.org/Graphics/SVG/1.1/DTD/svg11.dtd">
<svg version="1.1" xmlns="http://www.w3.org/2000/svg" xmlns:xlink="http://www.w3.org/1999/xlink" x="0px" y="0px" width="100px"
	 height="100px" viewBox="0 0 100 100" enable-background="new 0 0 100 100" xml:space="preserve">
<g id="Layer_3" display="none">
	<g display="inline" opacity="0.31">
		<path d="M-48,12c-1.06,0-2.076-0.421-2.826-1.17C-51.578,10.08-52,9.062-52,8v-56c0-2.209,1.791-4,4-4H8c2.209,0,4,1.791,4,4V7.92
			c0,2.207-1.787,3.997-3.994,4C8.006,11.92-47.998,12-48,12z"/>
		<path d="M8-48V7.92L-48,8v-56H8 M8-56h-56c-4.418,0-8,3.582-8,8V8c0,2.124,0.844,4.16,2.347,5.661C-52.153,15.159-50.12,16-48,16
			c0.004,0,0.007,0,0.011,0l56-0.08c4.413-0.006,7.988-3.586,7.988-8V-48C16-52.418,12.418-56,8-56L8-56z"/>
	</g>
</g>
<g id="Your_Icon">
</g>
<g id="Layer_4">
	<path d="M50,99c-0.002,0-0.004,0-0.007,0c-1.405-0.002-2.745-0.595-3.69-1.635c-1.432-1.571-35.119-38.74-42.945-60.397
		C0.068,27.861,1.031,18.58,6,11.502C10.686,4.828,18.48,1,27.386,1c9.14,0,16.864,3.455,22.419,9.886
		C53.479,5.947,59.671,1,70.865,1c9.512,0,17.904,4.185,23.025,11.479c4.943,7.042,6.012,15.967,2.934,24.488
		c-7.826,21.663-41.697,58.836-43.135,60.407C52.742,98.41,51.402,99,50,99z M27.386,11c-5.685,0-10.372,2.219-13.2,6.248
		c-3.071,4.374-3.59,10.323-1.422,16.321c5.729,15.856,28.291,42.647,37.246,52.903c8.995-10.251,31.686-37.058,37.408-52.902
		c1.986-5.494,1.377-10.944-1.712-15.345C82.482,13.634,77.073,11,70.865,11c-10.693,0-13.673,6.202-16.067,11.186l-0.203,0.421
		c-0.834,1.729-2.583,2.827-4.503,2.827c-1.919,0-3.669-1.099-4.503-2.827C41.872,14.905,35.748,11,27.386,11z"/>
</g>
</svg>
