<?xml version="1.0" encoding="utf-8"?>
<!-- Generator: Adobe Illustrator 16.0.0, SVG Export Plug-In . SVG Version: 6.00 Build 0)  -->
<!DOCTYPE svg PUBLIC "-//W3C//DTD SVG 1.1//EN" "http://www.w3.org/Graphics/SVG/1.1/DTD/svg11.dtd">
<svg version="1.1" xmlns="http://www.w3.org/2000/svg" xmlns:xlink="http://www.w3.org/1999/xlink" x="0px" y="0px" width="100px"
	 height="100px" viewBox="0 0 100 100" enable-background="new 0 0 100 100" xml:space="preserve">
<g id="Layer_3" display="none">
</g>
<g id="Your_Icon">
</g>
<g id="Layer_4">
	<g>
		<path fill="none" d="M47.687,19.73c0.464-1.257,0.41-2.613-0.149-3.824c-0.559-1.212-1.556-2.134-2.808-2.595
			C44.169,13.105,43.588,13,43.001,13c-2.085,0-3.969,1.315-4.689,3.272c-0.463,1.255-0.409,2.612,0.15,3.825
			c0.559,1.211,1.556,2.133,2.807,2.593c0.561,0.207,1.142,0.312,1.729,0.312C45.082,23.002,46.967,21.687,47.687,19.73z"/>
		<path fill="none" d="M42.997,76.647c-0.586,0-1.168,0.104-1.729,0.312c-1.249,0.46-2.246,1.381-2.805,2.593
			c-0.56,1.213-0.613,2.57-0.151,3.823c0.721,1.959,2.605,3.274,4.689,3.274c0.587,0,1.168-0.105,1.729-0.312
			c1.251-0.461,2.248-1.383,2.808-2.595c0.559-1.211,0.612-2.567,0.151-3.819C46.967,77.963,45.082,76.647,42.997,76.647z"/>
		<path d="M48,67.525V32.124c-1.581,0.564-3.267,0.878-5.003,0.878c-1.704,0-3.383-0.297-4.997-0.867v35.38
			c1.614-0.57,3.294-0.867,4.997-0.867C44.733,66.647,46.418,66.961,48,67.525z"/>
	</g>
	<path d="M57.068,78.965c-2.164-5.871-7.82-9.816-14.075-9.816c-1.769,0-3.512,0.312-5.185,0.928
		c-7.758,2.857-11.743,11.496-8.885,19.259c2.164,5.87,7.819,9.814,14.072,9.815c0.001,0,0.001,0,0.001,0
		c1.77,0,3.515-0.312,5.188-0.929c3.758-1.385,6.752-4.151,8.431-7.788C58.293,86.796,58.454,82.723,57.068,78.965z"/>
	<path d="M20.938,36.279c-1.672-0.616-3.417-0.929-5.188-0.929c-6.252,0-11.906,3.942-14.071,9.812
		c-1.386,3.761-1.224,7.834,0.454,11.471c1.679,3.639,4.674,6.404,8.433,7.788c1.672,0.616,3.417,0.929,5.188,0.929
		c6.256,0,11.91-3.944,14.071-9.814C32.681,47.774,28.693,39.136,20.938,36.279z"/>
	<g>
		<path fill="none" d="M33.249,50.356c0,0.229-0.019,0.459-0.029,0.688C33.231,50.816,33.25,50.59,33.249,50.356z"/>
		<path fill="none" d="M19.979,45.663c-0.563-0.208-1.145-0.312-1.73-0.312c-2.083,0-3.967,1.313-4.688,3.27
			c-0.462,1.254-0.408,2.612,0.151,3.824c0.559,1.212,1.557,2.133,2.81,2.594c0.563,0.208,1.145,0.312,1.73,0.312
			c2.084,0,3.969-1.314,4.689-3.27c0.461-1.253,0.407-2.612-0.152-3.824S21.231,46.124,19.979,45.663z"/>
		<path fill="none" d="M79.602,45.351c-0.586,0-1.167,0.105-1.726,0.312c-1.012,0.372-1.842,1.052-2.425,1.932
			c-0.141,0.213-0.279,0.427-0.389,0.663c-0.027,0.059-0.038,0.12-0.062,0.18v3.841c0.127,0.293,0.276,0.571,0.451,0.833
			c0.913,1.367,2.459,2.239,4.147,2.239c0.587,0,1.168-0.104,1.728-0.311c1.255-0.462,2.253-1.383,2.812-2.595
			s0.613-2.57,0.151-3.824C83.569,46.665,81.686,45.351,79.602,45.351z"/>
		<path d="M66.612,49.98c0.004-1.703,0.335-3.396,1.006-4.98H32.387c0.276,0.96,0.482,1.859,0.626,2.718
			c0.157,0.873,0.238,1.755,0.236,2.639c0.001,0.233-0.018,0.46-0.029,0.688c-0.063,1.332-0.305,2.658-0.729,3.955h34.977
			c-0.021-0.052-0.044-0.102-0.063-0.154C66.821,53.262,66.562,51.616,66.612,49.98z"/>
	</g>
	<path d="M98.378,45.174c-2.175-5.884-7.829-9.824-14.079-9.824c-1.77,0-3.513,0.312-5.179,0.924
		c-7.757,2.861-11.746,11.495-8.902,19.251c2.173,5.886,7.829,9.826,14.081,9.826c1.77,0,3.512-0.311,5.177-0.923
		C97.236,61.566,101.226,52.931,98.378,45.174z"/>
	<path d="M56.618,9.567c-1.678-3.637-4.672-6.402-8.431-7.788C46.516,1.163,44.771,0.851,43,0.851
		c-6.254,0-11.91,3.945-14.072,9.816c-1.386,3.759-1.224,7.832,0.454,11.47s4.672,6.403,8.433,7.789
		c1.671,0.615,3.414,0.927,5.183,0.927c6.256,0,11.911-3.945,14.074-9.815C58.457,17.278,58.296,13.205,56.618,9.567z"/>
</g>
</svg>
