<?xml version="1.0" encoding="utf-8"?>
<!-- Generator: Adobe Illustrator 16.0.0, SVG Export Plug-In . SVG Version: 6.00 Build 0)  -->
<!DOCTYPE svg PUBLIC "-//W3C//DTD SVG 1.1//EN" "http://www.w3.org/Graphics/SVG/1.1/DTD/svg11.dtd">
<svg version="1.1" xmlns="http://www.w3.org/2000/svg" xmlns:xlink="http://www.w3.org/1999/xlink" x="0px" y="0px" width="100px"
	 height="100px" viewBox="0 0 100 100" enable-background="new 0 0 100 100" xml:space="preserve">
<g id="Layer_3">
</g>
<g id="Your_Icon">
</g>
<g id="Layer_4">
	<path d="M92,25.7v65.918L8,91.7v-66H92 M92,17.7H8c-4.418,0-8,3.582-8,8v66c0,2.123,0.844,4.159,2.346,5.66
		C3.846,98.858,5.88,99.7,8,99.7c0.002,0,0.005,0,0.008,0l84-0.082c4.415-0.004,7.992-3.585,7.992-8V25.7
		C100,21.282,96.418,17.7,92,17.7L92,17.7z"/>
	<g>
		<path d="M82.739,45.448c-1.327-0.687-2.977-0.576-4.199,0.286L60.408,58.538l-10.759-3.808c-1.437-0.508-3.042-0.158-4.132,0.904
			l-22.603,22c-1.167,1.135-1.53,3.114-0.917,4.622S24.073,85,25.7,85h55.1c2.209,0,4.2-2.291,4.2-4.5V49
			C85,47.505,84.066,46.135,82.739,45.448z M77,77H35.543l13.765-13.649l10.356,3.544c1.224,0.433,2.684,0.183,3.746-0.567
			L77,56.727V77z"/>
	</g>
	<g>
		<path d="M38.3,45.3c0,5.247-4.252,9.5-9.501,9.5c-5.236,0-9.499-4.253-9.499-9.5s4.263-9.5,9.499-9.5
			C34.05,35.8,38.3,40.053,38.3,45.3z"/>
	</g>
</g>
</svg>
