<?xml version="1.0" encoding="utf-8"?>
<!-- Generator: Adobe Illustrator 16.0.0, SVG Export Plug-In . SVG Version: 6.00 Build 0)  -->
<!DOCTYPE svg PUBLIC "-//W3C//DTD SVG 1.1//EN" "http://www.w3.org/Graphics/SVG/1.1/DTD/svg11.dtd">
<svg version="1.1" xmlns="http://www.w3.org/2000/svg" xmlns:xlink="http://www.w3.org/1999/xlink" x="0px" y="0px" width="100px"
	 height="100px" viewBox="0 0 100 100" enable-background="new 0 0 100 100" xml:space="preserve">
<g id="Layer_3" display="none">
	<polyline display="inline" opacity="0.15" points="25,75.5 -65,75.5 -65,165.5 25,165.5 	"/>
</g>
<g id="Your_Icon">
</g>
<g id="Layer_4">
	<path d="M90,23.5v66.017L10,89.6V23.5H90 M90,13.5H10c-5.522,0-10,4.478-10,10v66.1c0,2.654,1.055,5.199,2.933,7.075
		C4.808,98.548,7.35,99.6,10,99.6c0.004,0,0.007,0,0.011,0l80-0.083c5.519-0.006,9.989-4.481,9.989-10V23.5
		C100,17.978,95.522,13.5,90,13.5L90,13.5z"/>
	<path d="M82.99,60.992c-1.265-0.942-2.901-1.235-4.414-0.785l-18.839,5.595l-0.015-9.81c-0.003-1.971-1.163-3.756-2.963-4.559
		c-1.803-0.801-3.904-0.474-5.372,0.841l-27.923,25c-1.544,1.383-2.075,3.575-1.336,5.511C22.869,84.722,24.728,86,26.8,86H80
		c2.762,0,5-2.238,5-5V65C85,63.422,84.255,61.937,82.99,60.992z"/>
	<g>
		<path d="M35.7,42.3c0,5.523-4.476,10-10.001,10c-5.512,0-9.999-4.477-9.999-10s4.487-10,9.999-10
			C31.227,32.3,35.7,36.776,35.7,42.3z"/>
	</g>
</g>
</svg>
