<?xml version="1.0" encoding="utf-8"?>
<!-- Generator: Adobe Illustrator 16.0.0, SVG Export Plug-In . SVG Version: 6.00 Build 0)  -->
<!DOCTYPE svg PUBLIC "-//W3C//DTD SVG 1.1//EN" "http://www.w3.org/Graphics/SVG/1.1/DTD/svg11.dtd">
<svg version="1.1" xmlns="http://www.w3.org/2000/svg" xmlns:xlink="http://www.w3.org/1999/xlink" x="0px" y="0px" width="100px"
	 height="100px" viewBox="0 0 100 100" enable-background="new 0 0 100 100" xml:space="preserve">
<g id="Layer_3" display="none">
</g>
<g id="Your_Icon">
</g>
<g id="Layer_4">
	<rect x="25" y="45" width="51" height="10"/>
	<rect x="38" y="25" width="10" height="50"/>
	<path fill="#FFFFFF" d="M42.997,33.801c-1.769,0-3.513-0.312-5.183-0.927c-3.76-1.385-6.754-4.15-8.432-7.789
		c-1.678-3.638-1.839-7.712-0.453-11.471c2.16-5.87,7.815-9.815,14.072-9.815c1.77,0,3.515,0.312,5.187,0.929
		c3.758,1.385,6.752,4.15,8.43,7.788c1.679,3.638,1.839,7.712,0.453,11.47C54.911,29.854,49.255,33.801,42.997,33.801z
		 M43.001,13.799c-2.084,0-3.968,1.315-4.688,3.271c-0.463,1.256-0.409,2.613,0.15,3.826c0.559,1.212,1.556,2.133,2.807,2.593
		c0.56,0.207,1.142,0.312,1.728,0.312c2.085,0,3.97-1.315,4.69-3.272c0.463-1.256,0.41-2.612-0.149-3.823
		c-0.559-1.212-1.556-2.134-2.808-2.595C44.169,13.904,43.587,13.799,43.001,13.799z"/>
	<path fill="#FFFFFF" d="M43.001,96.299C43.001,96.299,43.001,96.299,43.001,96.299c-6.257-0.001-11.913-3.946-14.074-9.818
		c-1.385-3.756-1.224-7.83,0.454-11.468c1.678-3.639,4.672-6.404,8.431-7.789c1.671-0.614,3.416-0.927,5.184-0.927
		c6.258,0,11.914,3.946,14.075,9.819c1.385,3.754,1.225,7.828-0.454,11.466c-1.678,3.638-4.672,6.403-8.431,7.788
		C46.517,95.986,44.771,96.299,43.001,96.299z M42.997,76.297c-0.586,0-1.168,0.104-1.729,0.312c-1.25,0.46-2.247,1.381-2.806,2.593
		c-0.559,1.213-0.613,2.57-0.151,3.823c0.721,1.959,2.605,3.274,4.689,3.274h0c0.586,0,1.168-0.105,1.729-0.312
		c1.252-0.461,2.249-1.383,2.808-2.595c0.559-1.211,0.613-2.567,0.151-3.819C46.967,77.612,45.083,76.297,42.997,76.297z"/>
	<path d="M43.001,98.8L43.001,98.8c-6.255-0.001-11.91-3.945-14.073-9.816c-1.385-3.759-1.224-7.832,0.454-11.469
		c1.678-3.639,4.672-6.404,8.431-7.789c1.672-0.616,3.417-0.928,5.185-0.928c6.255,0,11.912,3.945,14.075,9.817
		c1.385,3.757,1.224,7.83-0.454,11.468c-1.678,3.637-4.672,6.402-8.43,7.788C46.516,98.487,44.771,98.8,43.001,98.8z M42.998,78.798
		c-0.586,0-1.168,0.105-1.73,0.312c-1.25,0.46-2.246,1.382-2.805,2.593c-0.559,1.213-0.613,2.571-0.151,3.824
		c0.721,1.958,2.605,3.273,4.689,3.273l0,0c0.586,0,1.168-0.105,1.729-0.312c1.251-0.462,2.249-1.383,2.808-2.595
		s0.613-2.568,0.151-3.819C46.967,80.114,45.082,78.798,42.998,78.798z"/>
	<path fill="#FFFFFF" d="M18.801,65c-1.771,0-3.516-0.312-5.187-0.929c-3.758-1.383-6.754-4.148-8.434-7.787
		c-1.679-3.638-1.84-7.712-0.454-11.472C6.889,38.943,12.543,35,18.796,35c1.771,0,3.516,0.312,5.188,0.93
		c3.756,1.382,6.752,4.147,8.432,7.785c1.679,3.637,1.841,7.711,0.457,11.471C30.71,61.057,25.055,65,18.801,65z M18.796,45
		c-2.083,0-3.967,1.313-4.688,3.27c-0.462,1.254-0.408,2.612,0.151,3.824c0.559,1.212,1.557,2.133,2.81,2.594
		C17.633,54.896,18.214,55,18.801,55c2.084,0,3.968-1.314,4.689-3.27c0.461-1.253,0.407-2.612-0.153-3.824
		c-0.559-1.212-1.557-2.133-2.81-2.594C19.963,45.104,19.382,45,18.796,45z"/>
	<path d="M16.301,65c-1.771,0-3.516-0.312-5.187-0.929c-3.759-1.384-6.754-4.15-8.433-7.788c-1.678-3.637-1.839-7.71-0.455-11.471
		C4.393,38.942,10.047,35,16.298,35c1.771,0,3.516,0.312,5.188,0.929c7.756,2.856,11.744,11.495,8.887,19.257
		C28.212,61.056,22.557,65,16.301,65z M16.298,45c-2.083,0-3.967,1.314-4.688,3.271c-0.461,1.252-0.407,2.61,0.152,3.822
		s1.557,2.133,2.809,2.594C15.133,54.895,15.715,55,16.301,55c2.084,0,3.968-1.313,4.687-3.269c0.953-2.588-0.375-5.468-2.96-6.419
		C17.465,45.104,16.884,45,16.298,45z"/>
	<path fill="#FFFFFF" d="M79.099,62.999L79.099,62.999c-5.42,0-10.321-3.417-12.195-8.504c-1.2-3.26-1.06-6.79,0.395-9.941
		c1.456-3.152,4.052-5.55,7.311-6.749C76.055,37.271,77.568,37,79.102,37c5.419,0,10.319,3.417,12.194,8.503
		c1.201,3.26,1.061,6.791-0.394,9.942c-1.455,3.153-4.052,5.551-7.311,6.75C82.145,62.729,80.633,62.999,79.099,62.999z M79.102,45
		c-0.586,0-1.167,0.105-1.726,0.312c-1.256,0.462-2.254,1.383-2.813,2.595c-0.56,1.212-0.613,2.57-0.152,3.824
		c0.721,1.954,2.605,3.269,4.688,3.269c0.586,0,1.167-0.104,1.728-0.311c1.255-0.462,2.252-1.383,2.812-2.595
		c0.559-1.212,0.613-2.57,0.151-3.824C83.069,46.314,81.185,45,79.102,45z"/>
	<path d="M83.799,44.999c2.035,0,3.945,1.251,4.691,3.271c0.952,2.594-0.371,5.466-2.964,6.422C84.957,54.9,84.373,55,83.799,55
		c-2.035,0-3.947-1.249-4.693-3.27c-0.951-2.594,0.373-5.466,2.965-6.422C82.642,45.099,83.225,44.999,83.799,44.999 M83.799,34.999
		c-1.77,0-3.512,0.312-5.179,0.924c-7.756,2.861-11.746,11.495-8.902,19.251C71.891,61.06,77.546,65,83.799,65
		c1.769,0,3.511-0.311,5.177-0.923c7.76-2.861,11.749-11.497,8.901-19.254C95.703,38.939,90.048,34.999,83.799,34.999L83.799,34.999
		z"/>
	<path fill="#FFFFFF" d="M42.997,33.003c-1.769,0-3.513-0.312-5.183-0.927c-3.76-1.385-6.754-4.15-8.432-7.789
		c-1.678-3.638-1.839-7.712-0.453-11.471c2.16-5.87,7.815-9.815,14.072-9.815c1.77,0,3.515,0.312,5.187,0.929
		c3.758,1.385,6.752,4.15,8.43,7.788c1.679,3.638,1.839,7.712,0.453,11.47C54.911,29.057,49.254,33.003,42.997,33.003z M43,13.001
		c-2.084,0-3.968,1.315-4.688,3.271c-0.463,1.256-0.409,2.613,0.15,3.826c0.559,1.212,1.556,2.133,2.807,2.593
		c0.56,0.207,1.142,0.312,1.728,0.312c2.085,0,3.97-1.315,4.69-3.272c0.463-1.256,0.41-2.612-0.149-3.823
		c-0.559-1.212-1.556-2.134-2.808-2.595C44.169,13.106,43.587,13.001,43,13.001z"/>
	<path d="M42.997,30.502c-1.769,0-3.513-0.312-5.183-0.927c-3.761-1.386-6.754-4.151-8.433-7.79
		c-1.678-3.637-1.839-7.71-0.454-11.469C31.09,4.445,36.746,0.5,43,0.5c1.77,0,3.516,0.312,5.187,0.929
		c3.759,1.386,6.753,4.151,8.431,7.788c1.678,3.638,1.839,7.711,0.454,11.47C54.909,26.557,49.252,30.502,42.997,30.502z M43,10.5
		c-2.083,0-3.968,1.315-4.689,3.273c-0.462,1.253-0.408,2.611,0.151,3.824c0.559,1.211,1.556,2.133,2.807,2.594
		c0.56,0.205,1.142,0.311,1.728,0.311c2.084,0,3.97-1.316,4.691-3.274c0.462-1.253,0.409-2.609-0.15-3.821s-1.557-2.133-2.809-2.595
		C44.169,10.605,43.587,10.5,43,10.5z"/>
</g>
</svg>
