<?xml version="1.0" encoding="utf-8"?>
<!-- Generator: Adobe Illustrator 16.0.0, SVG Export Plug-In . SVG Version: 6.00 Build 0)  -->
<!DOCTYPE svg PUBLIC "-//W3C//DTD SVG 1.1//EN" "http://www.w3.org/Graphics/SVG/1.1/DTD/svg11.dtd">
<svg version="1.1" xmlns="http://www.w3.org/2000/svg" xmlns:xlink="http://www.w3.org/1999/xlink" x="0px" y="0px" width="100px"
	 height="100px" viewBox="0 0 100 100" enable-background="new 0 0 100 100" xml:space="preserve">
<g id="Layer_3" display="none">
	<circle display="inline" fill="none" stroke="#000000" stroke-width="0.25" stroke-miterlimit="10" cx="50" cy="50" r="15.134"/>
	<polyline display="inline" opacity="0.26" points="94,6 6,6 6,94 94,94 	"/>
	<circle display="inline" fill="none" stroke="#000000" stroke-width="0.25" stroke-miterlimit="10" cx="50" cy="50" r="24"/>
	<circle display="inline" fill="none" stroke="#000000" stroke-width="0.25" stroke-miterlimit="10" cx="50" cy="50" r="30"/>
	<circle display="inline" fill="none" stroke="#000000" stroke-width="0.25" stroke-miterlimit="10" cx="50" cy="50" r="9.134"/>
	<path display="inline" fill="none" stroke="#000000" stroke-width="0.25" stroke-miterlimit="10" d="M0,50C0,22.386,22.389,0,50,0
		c27.612,0,50,22.386,50,50"/>
	<path display="inline" fill="none" stroke="#000000" stroke-width="0.25" stroke-miterlimit="10" d="M100,50
		c0,27.614-22.388,50-50,50C22.389,100,0,77.614,0,50"/>
</g>
<g id="Your_Icon">
</g>
<g id="Layer_4">
	<path d="M10,100c-1.061,0-2.077-0.421-2.827-1.17C6.422,98.079,6,97.062,6,96V54c0-2.209,1.791-4,4-4h80c2.209,0,4,1.791,4,4
		v41.939c0,2.208-1.789,3.999-3.997,4l-80,0.061C10.002,100,10.001,100,10,100z M14,58v33.997l72-0.055V58H14z"/>
	<path d="M20,45c-2.209,0-4-1.791-4-4v-7C16,15.252,31.252,0,50,0c16.107,0,30.12,11.441,33.319,27.204
		c0.439,2.165-0.959,4.276-3.125,4.715c-2.161,0.443-4.276-0.959-4.715-3.125C73.034,16.746,62.318,8,50,8C35.664,8,24,19.664,24,34
		v7C24,43.209,22.209,45,20,45z"/>
</g>
</svg>
