<?xml version="1.0" encoding="utf-8"?>
<!-- Generator: Adobe Illustrator 16.0.0, SVG Export Plug-In . SVG Version: 6.00 Build 0)  -->
<!DOCTYPE svg PUBLIC "-//W3C//DTD SVG 1.0//EN" "http://www.w3.org/TR/2001/REC-SVG-20010904/DTD/svg10.dtd">
<svg version="1.0" xmlns="http://www.w3.org/2000/svg" xmlns:xlink="http://www.w3.org/1999/xlink" x="0px" y="0px" width="100px"
	 height="100px" viewBox="0 0 100 100" enable-background="new 0 0 100 100" xml:space="preserve">
<g id="Layer_3">
</g>
<g id="Your_Icon">
</g>
<g id="Layer_4">
	<g>
		<polygon fill="none" points="23.588,69.575 23.588,69.579 23.588,69.575 		"/>
		<path d="M96.5,43.5l-7.243-17.622C88.681,24.3,87.18,24,85.5,24H69v8h13l4.692,10.967C85.429,42.963,84.019,43,82.445,43
			c-4.298,0-60.593,0-64.891,0c-1.609,0-3.053-0.037-4.338-0.033L18.095,32H31v-8H15.5c-1.578,0-3.009,0.178-3.652,1.619L3.5,43.5
			c-1.121,1.317-1.906,3.598-1.896,6.441c0.019,4.685,2.08,10.99,5.38,15.461C11.23,71.154,17.086,75,23.474,75
			c0.008,0,0.106,0,0.114,0c6.202,0,11.826-3.867,15.836-9.602c3.067-4.385,4.973-9.626,4.973-14.315
			c0-0.166-0.012-0.083-0.017-0.083h11.24c-0.005,0-0.017,0.271-0.017,0.438C55.604,59.908,62.558,75,76.412,75
			c0.008,0,0.106,0,0.114,0c6.388,0,12.243-3.939,16.489-9.691c3.3-4.471,5.361-10.515,5.38-15.199
			C98.409,46.627,98.044,44.753,96.5,43.5z M23.729,67c-5.275,0-8.834-4.312-10.803-7.301c-2.578-3.914-3.326-8.024-3.274-9.824
			c5.291-0.048,25.164-0.19,26.756-0.188c0.124,1.932-0.382,6.67-2.93,10.627C31.695,63.082,28,67,24,67H23.729z M76,67
			c-4,0-7.688-4.01-9.471-6.777c-2.548-3.957-3.15-8.416-3.027-10.348c1.592-0.003,21.582-0.235,26.873-0.188
			c0.052,1.8-0.632,6.189-3.211,10.104C85.195,62.779,81.54,67,76.265,67H76z"/>
	</g>
</g>
</svg>
