<?xml version="1.0" encoding="utf-8"?>
<!-- Generator: Adobe Illustrator 16.0.0, SVG Export Plug-In . SVG Version: 6.00 Build 0)  -->
<!DOCTYPE svg PUBLIC "-//W3C//DTD SVG 1.1//EN" "http://www.w3.org/Graphics/SVG/1.1/DTD/svg11.dtd">
<svg version="1.1" xmlns="http://www.w3.org/2000/svg" xmlns:xlink="http://www.w3.org/1999/xlink" x="0px" y="0px" width="100px"
	 height="100px" viewBox="0 0 100 100" enable-background="new 0 0 100 100" xml:space="preserve">
<g id="Layer_3" display="none">
</g>
<g id="Your_Icon">
</g>
<g id="Layer_4">
	<path d="M72,100H5c-2.762,0-5-2.239-5-5V28c0-2.761,2.238-5,5-5h29v10H10v57h57V68h10v27C77,97.761,74.762,100,72,100z"/>
	<path d="M89.798,54.201l-10-0.001L79.8,20.966l-33.236,0v-10l38.236,0c1.326,0,2.598,0.527,3.535,1.464
		c0.938,0.938,1.465,2.21,1.465,3.536L89.798,54.201z"/>
	<rect x="55.213" y="5.518" transform="matrix(0.7071 0.7071 -0.7071 0.7071 46.2867 -30.7094)" width="10" height="70"/>
</g>
</svg>
