<?xml version="1.0" encoding="utf-8"?>
<!-- Generator: Adobe Illustrator 16.0.0, SVG Export Plug-In . SVG Version: 6.00 Build 0)  -->
<!DOCTYPE svg PUBLIC "-//W3C//DTD SVG 1.1//EN" "http://www.w3.org/Graphics/SVG/1.1/DTD/svg11.dtd">
<svg version="1.1" xmlns="http://www.w3.org/2000/svg" xmlns:xlink="http://www.w3.org/1999/xlink" x="0px" y="0px" width="100px"
	 height="100px" viewBox="0 0 100 100" enable-background="new 0 0 100 100" xml:space="preserve">
<g id="Layer_3">
</g>
<g id="Your_Icon">
</g>
<g id="Layer_4">
	<path d="M37.366,100h-7.32c-7.214,0-17.693-5.589-17.693-14.348c0-12.545-2.068-25.563-4.338-27.314l-4.336-3.097
		c-1.051-0.751-1.675-1.963-1.675-3.255v-4.182c0-1.292,0.624-2.504,1.675-3.255l4.392-3.137c2.215-1.687,4.283-14.606,4.283-27.065
		c0-4.001,2.276-7.776,6.408-10.63C22.131,1.39,26.35,0,30.045,0h8.052v8h-8.052c-4.349,0-9.693,3.5-9.693,6.348
		c0,8.396-0.738,28.472-7.578,33.535l-2.771,1.98v0.064l2.716,1.94c6.895,5.101,7.633,25.324,7.633,33.784
		c0,2.848,5.345,6.348,9.693,6.348h7.32V100z"/>
	<path d="M69.955,100h-7.32v-8h7.32c4.349,0,9.693-3.5,9.693-6.348c0-8.46,0.739-28.683,7.58-33.745l2.77-1.979v-0.065l-2.716-1.94
		c-6.896-5.104-7.634-25.179-7.634-33.575C79.648,11.5,74.303,8,69.955,8h-8.051V0h8.051c7.214,0,17.693,5.589,17.693,14.348
		c0,12.459,2.068,25.378,4.339,27.105l4.335,3.097c1.051,0.751,1.675,1.963,1.675,3.255v4.182c0,1.292-0.624,2.504-1.675,3.255
		l-4.391,3.137c-2.216,1.711-4.284,14.73-4.284,27.274c0,4.001-2.276,7.776-6.408,10.63C77.869,98.61,73.65,100,69.955,100z"/>
</g>
</svg>
