<?xml version="1.0" encoding="utf-8"?>
<!-- Generator: Adobe Illustrator 16.0.0, SVG Export Plug-In . SVG Version: 6.00 Build 0)  -->
<!DOCTYPE svg PUBLIC "-//W3C//DTD SVG 1.1//EN" "http://www.w3.org/Graphics/SVG/1.1/DTD/svg11.dtd">
<svg version="1.1" xmlns="http://www.w3.org/2000/svg" xmlns:xlink="http://www.w3.org/1999/xlink" x="0px" y="0px" width="100px"
	 height="100px" viewBox="0 0 100 100" enable-background="new 0 0 100 100" xml:space="preserve">
<g id="Layer_3" display="none">
	<polyline display="inline" opacity="0.15" points="165,-64.5 75,-64.5 75,25.5 165,25.5 	"/>
</g>
<g id="Your_Icon">
</g>
<g id="Layer_4">
	<g>
		<path d="M89.321,63.572c0.233,0.086,0.453,0.191,0.679,0.29V51c0-2.762-2.238-5-5-5H55V28.139
			c-0.225,0.098-0.444,0.203-0.678,0.289c-3.152,1.161-6.47,0.963-9.322-0.284V46H15c-2.762,0-5,2.238-5,5v13.197
			c2.875-1.285,6.233-1.498,9.422-0.324c0.199,0.073,0.386,0.165,0.578,0.247V56h25v16.157c2.853-1.247,6.17-1.445,9.322-0.284
			c0.233,0.086,0.453,0.191,0.678,0.289V56h25v7.856C82.853,62.609,86.169,62.411,89.321,63.572z"/>
	</g>
	<g>
		<path d="M45.506,98.642c-6.733-2.483-10.184-9.953-7.699-16.69c2.478-6.737,9.95-10.184,16.688-7.706
			c6.732,2.484,10.182,9.955,7.7,16.692C59.716,97.676,52.243,101.125,45.506,98.642z"/>
	</g>
	<g>
		<path d="M80.332,91.665c-6.991-2.576-10.575-10.336-7.994-17.33c2.57-6.994,10.334-10.575,17.329-8
			c6.99,2.578,10.573,10.338,7.994,17.332C95.09,90.662,87.326,94.245,80.332,91.665z"/>
	</g>
	<g>
		<path d="M10.604,90.594C3.873,88.117,0.421,80.64,2.907,73.906c2.474-6.735,9.952-10.185,16.688-7.705
			c6.731,2.48,10.182,9.958,7.697,16.691C24.817,89.629,17.338,93.08,10.604,90.594z"/>
	</g>
	<g>
		<path d="M45.506,1.899c-6.733,2.483-10.185,9.954-7.699,16.691c2.479,6.737,9.949,10.184,16.688,7.706
			c6.732-2.484,10.182-9.955,7.7-16.691C59.716,2.866,52.243-0.582,45.506,1.899z"/>
	</g>
</g>
</svg>
