<?xml version="1.0" encoding="utf-8"?>
<!-- Generator: Adobe Illustrator 16.0.0, SVG Export Plug-In . SVG Version: 6.00 Build 0)  -->
<!DOCTYPE svg PUBLIC "-//W3C//DTD SVG 1.1//EN" "http://www.w3.org/Graphics/SVG/1.1/DTD/svg11.dtd">
<svg version="1.1" xmlns="http://www.w3.org/2000/svg" xmlns:xlink="http://www.w3.org/1999/xlink" x="0px" y="0px" width="100px"
	 height="100px" viewBox="0 0 100 100" enable-background="new 0 0 100 100" xml:space="preserve">
<g id="Layer_3" display="none">
	<circle display="inline" fill="none" stroke="#000000" stroke-width="0.25" stroke-miterlimit="10" cx="50" cy="50" r="15.134"/>
	<rect x="6" y="6" display="inline" opacity="0.26" width="88" height="88"/>
	<circle display="inline" fill="none" stroke="#000000" stroke-width="0.25" stroke-miterlimit="10" cx="50" cy="50" r="24"/>
	<circle display="inline" fill="none" stroke="#000000" stroke-width="0.25" stroke-miterlimit="10" cx="50" cy="50" r="30"/>
	<circle display="inline" fill="none" stroke="#000000" stroke-width="0.25" stroke-miterlimit="10" cx="50" cy="50" r="9.134"/>
	<g display="inline">
		<path d="M50,0.25c27.433,0,49.75,22.317,49.75,49.75S77.433,99.75,50,99.75S0.25,77.433,0.25,50S22.567,0.25,50,0.25 M50,0
			C22.389,0,0,22.386,0,50s22.389,50,50,50c27.612,0,50-22.386,50-50S77.612,0,50,0L50,0z"/>
	</g>
</g>
<g id="Your_Icon">
</g>
<g id="Layer_4">
	<path d="M50.03,83c-11.456,0-21.921-5.789-27.993-15.485c-4.679-7.471-6.169-16.315-4.195-24.905
		c1.975-8.589,7.176-15.896,14.646-20.574C37.748,18.741,43.794,17,49.973,17c11.456,0,21.922,5.791,27.995,15.491
		c4.676,7.467,6.164,16.31,4.189,24.899c-1.974,8.591-7.175,15.897-14.645,20.575C62.254,81.259,56.208,83,50.03,83z M49.973,23
		c-5.051,0-9.996,1.425-14.301,4.121c-6.111,3.827-10.367,9.806-11.982,16.832c-1.615,7.028-0.396,14.265,3.433,20.377
		C32.091,72.264,40.654,77,50.03,77c5.051,0,9.995-1.425,14.299-4.12c6.11-3.826,10.365-9.805,11.98-16.833
		c1.615-7.027,0.398-14.263-3.428-20.372C67.913,27.738,59.349,23,49.973,23z"/>
	<polygon points="62.498,56.3 44.997,56.286 45.02,33.404 51.02,33.41 51.003,50.29 62.502,50.3 	"/>
</g>
</svg>
