<?xml version="1.0" encoding="utf-8"?>
<!-- Generator: Adobe Illustrator 16.0.0, SVG Export Plug-In . SVG Version: 6.00 Build 0)  -->
<!DOCTYPE svg PUBLIC "-//W3C//DTD SVG 1.1//EN" "http://www.w3.org/Graphics/SVG/1.1/DTD/svg11.dtd">
<svg version="1.1" xmlns="http://www.w3.org/2000/svg" xmlns:xlink="http://www.w3.org/1999/xlink" x="0px" y="0px" width="100px"
	 height="100px" viewBox="0 0 100 100" enable-background="new 0 0 100 100" xml:space="preserve">
<g id="Layer_3" display="none">
	<circle display="inline" fill="none" stroke="#000000" stroke-width="0.25" stroke-miterlimit="10" cx="50" cy="50" r="15.134"/>
	<rect x="6" y="6" display="inline" opacity="0.26" width="88" height="88"/>
	<circle display="inline" fill="none" stroke="#000000" stroke-width="0.25" stroke-miterlimit="10" cx="50" cy="50" r="24"/>
	<circle display="inline" fill="none" stroke="#000000" stroke-width="0.25" stroke-miterlimit="10" cx="50" cy="50" r="30"/>
	<circle display="inline" fill="none" stroke="#000000" stroke-width="0.25" stroke-miterlimit="10" cx="50" cy="50" r="9.134"/>
	<g display="inline">
		<path d="M50,0.25c27.433,0,49.75,22.318,49.75,49.75S77.433,99.75,50,99.75C22.568,99.75,0.25,77.432,0.25,50S22.568,0.25,50,0.25
			 M50,0C22.389,0,0,22.386,0,50s22.389,50,50,50c27.612,0,50-22.386,50-50S77.612,0,50,0L50,0z"/>
	</g>
</g>
<g id="Your_Icon">
</g>
<g id="Layer_4">
	<path d="M96,82H83c-2.209,0-4-1.791-4-4s1.791-4,4-4h9V25H8v49h9c2.209,0,4,1.791,4,4s-1.791,4-4,4H4c-2.209,0-4-1.791-4-4V21
		c0-2.209,1.791-4,4-4h92c2.209,0,4,1.791,4,4v57C100,80.209,98.209,82,96,82z"/>
	<path d="M30,100c-1.06,0-2.076-0.42-2.826-1.169C26.422,98.081,26,97.062,26,96V64c0-2.209,1.791-4,4-4h40c2.209,0,4,1.791,4,4
		v31.929c0,2.207-1.786,3.996-3.993,4l-40,0.071C30.005,100,30.002,100,30,100z M34,68v23.993l32-0.057V68H34z"/>
	<path d="M21.5,44H21c-2.209,0-4-1.791-4-4s1.791-4,4-4h0.5c2.209,0,4,1.791,4,4S23.709,44,21.5,44z"/>
	<path d="M37,44h-1c-2.209,0-4-1.791-4-4s1.791-4,4-4h1c2.209,0,4,1.791,4,4S39.209,44,37,44z"/>
</g>
</svg>
