<?xml version="1.0" encoding="utf-8"?>
<!-- Generator: Adobe Illustrator 16.0.0, SVG Export Plug-In . SVG Version: 6.00 Build 0)  -->
<!DOCTYPE svg PUBLIC "-//W3C//DTD SVG 1.0//EN" "http://www.w3.org/TR/2001/REC-SVG-20010904/DTD/svg10.dtd">
<svg version="1.0" xmlns="http://www.w3.org/2000/svg" xmlns:xlink="http://www.w3.org/1999/xlink" x="0px" y="0px" width="100px"
	 height="100px" viewBox="0 0 100 100" enable-background="new 0 0 100 100" xml:space="preserve">
<g id="Layer_3">
</g>
<g id="Your_Icon">
</g>
<g id="Layer_4">
	<path d="M63.9,0.935c-17.203,0-37.201,13.946-37.201,31.968c0,4.309-6.467,17.366-11.059,25.273
		c-0.714,1.229-0.722,2.737-0.02,3.975c0.702,1.236,2.008,2.004,3.43,2.021l12.21,0.146c-0.766,8.761-0.734,18.311,2.396,21.758
		c1.118,1.23,2.806,1.895,4.408,1.858C39.094,87.918,44,87.979,49,88.037V99h8V84.094c0-2.186-1.955-3.967-4.141-4
		c-1.114-0.017-9.551-0.14-13.375-0.161c-0.723-3.08-0.687-11.302,0.226-19.098c0.132-1.126-0.244-2.255-0.993-3.106
		c-0.748-0.852-1.835-1.346-2.968-1.359l-9.896-0.12c3.688-6.932,8.849-17.66,8.849-23.38c0-10.87,13.024-23.935,29.2-23.935
		C79.355,8.935,90.9,22,90.9,33h8C98.9,16,82.545,0.935,63.9,0.935z"/>
	<g>
		<circle cx="57.301" cy="41.393" r="10"/>
	</g>
</g>
</svg>
