<?xml version="1.0" encoding="utf-8"?>
<!-- Generator: Adobe Illustrator 16.0.0, SVG Export Plug-In . SVG Version: 6.00 Build 0)  -->
<!DOCTYPE svg PUBLIC "-//W3C//DTD SVG 1.1//EN" "http://www.w3.org/Graphics/SVG/1.1/DTD/svg11.dtd">
<svg version="1.1" xmlns="http://www.w3.org/2000/svg" xmlns:xlink="http://www.w3.org/1999/xlink" x="0px" y="0px" width="100px"
	 height="100px" viewBox="0 0 100 100" enable-background="new 0 0 100 100" xml:space="preserve">
<g id="Layer_3" display="none">
	<g display="inline" opacity="0.31">
		<path d="M92,12c-1.06,0-2.076-0.42-2.826-1.169C88.422,10.08,88,9.062,88,8v-56c0-2.209,1.791-4,4-4h56c2.209,0,4,1.791,4,4V7.92
			c0,2.207-1.788,3.997-3.994,4C148.006,11.92,92.002,12,92,12z"/>
		<path d="M148-48V7.92L92,8v-56H148 M148-56H92c-4.418,0-8,3.582-8,8V8c0,2.124,0.844,4.16,2.347,5.661
			C87.847,15.159,89.88,16,92,16c0.004,0,0.008,0,0.011,0l56-0.08c4.414-0.006,7.989-3.586,7.989-8V-48
			C156-52.418,152.418-56,148-56L148-56z"/>
	</g>
	<g display="inline" opacity="0.31">
		<path d="M92,152c-1.06,0-2.076-0.42-2.826-1.169C88.422,150.08,88,149.062,88,148V92c0-2.209,1.791-4,4-4h56c2.209,0,4,1.791,4,4
			v55.92c0,2.207-1.788,3.997-3.994,4C148.006,151.92,92.002,152,92,152z"/>
		<path d="M148,92v55.92L92,148V92H148 M148,84H92c-4.418,0-8,3.582-8,8v56c0,2.124,0.844,4.16,2.347,5.661
			C87.847,155.159,89.88,156,92,156c0.004,0,0.008,0,0.011,0l56-0.08c4.414-0.006,7.989-3.586,7.989-8V92
			C156,87.582,152.418,84,148,84L148,84z"/>
	</g>
</g>
<g id="Your_Icon">
</g>
<g id="Layer_4">
	<g>
		<path d="M50,49.446c-20.953,0-38,18.213-38,40.354c0,5.523,4.477,10.2,10,10.2h56c5.523,0,10-4.677,10-10.2
			C88,67.659,70.953,49.446,50,49.446z"/>
		<path d="M49.999,44.4C61.028,44.4,70,35.428,70,24.4s-8.972-20-20.001-20C38.972,4.4,30,13.373,30,24.4S38.972,44.4,49.999,44.4z"
			/>
	</g>
</g>
</svg>
