<?xml version="1.0" encoding="utf-8"?>
<!-- Generator: Adobe Illustrator 16.0.0, SVG Export Plug-In . SVG Version: 6.00 Build 0)  -->
<!DOCTYPE svg PUBLIC "-//W3C//DTD SVG 1.1//EN" "http://www.w3.org/Graphics/SVG/1.1/DTD/svg11.dtd">
<svg version="1.1" xmlns="http://www.w3.org/2000/svg" xmlns:xlink="http://www.w3.org/1999/xlink" x="0px" y="0px" width="100px"
	 height="100px" viewBox="0 0 100 100" enable-background="new 0 0 100 100" xml:space="preserve">
<g id="Layer_3" display="none">
</g>
<g id="Your_Icon">
</g>
<g id="Layer_4">
	<rect x="29" y="78.789" width="10" height="20.723"/>
	<rect x="61" y="79.389" width="10" height="20.611"/>
	<path d="M65.495,55.405l-16-0.017c-1.326-0.001-2.598-0.529-3.535-1.469c-0.937-0.938-1.462-2.211-1.46-3.537l0.026-21.789
		l10,0.012l-0.021,16.788l10.999,0.012L65.495,55.405z"/>
	<g>
		<path fill="none" d="M49.974,22c-5.075,0.001-10.215,1.381-14.833,4.272c-13.103,8.207-17.076,25.481-8.866,38.59
			C31.587,73.344,40.703,78,50.028,78c5.075,0,10.213-1.38,14.832-4.271c13.103-8.206,17.072-25.485,8.87-38.586
			C68.415,26.655,59.299,22,49.974,22z"/>
		<path d="M85.278,31.777l2.646-2.525c4.654-4.654,4.802-11.961,0.325-16.802c-0.061-0.065-0.928-0.935-1.251-1.257L86.9,11.096
			c-0.076-0.075-1.279-1.272-1.37-1.357C83.27,7.65,80.328,6.5,77.247,6.5c-3.261,0-6.326,1.269-8.637,3.578l-2.647,2.649
			c-0.637,0.638-1.044,1.409-1.265,2.221C60.119,13.035,55.138,12,49.976,12h-0.001h-0.002c-5.051,0.001-10.017,1.029-14.642,2.969
			c-0.212-0.839-0.631-1.64-1.294-2.303l-2.652-2.593C29.079,7.769,26.014,6.5,22.753,6.5c-3.081,0-6.022,1.15-8.297,3.251
			c-0.077,0.072-1.28,1.27-1.355,1.345l-0.099,0.098c-0.323,0.322-1.19,1.191-1.26,1.267c-4.468,4.831-4.32,12.261,0.335,16.917
			l2.645,2.4c0.43,0.43,0.931,0.718,1.474,0.908C10.32,44.204,10.452,58.438,17.8,70.17C24.792,81.335,36.84,88,50.028,88
			c7.119,0,14.083-2.004,20.139-5.796C86.99,71.668,92.711,50.029,83.812,32.684C84.352,32.492,84.851,32.206,85.278,31.777z
			 M64.86,73.729C60.241,76.62,55.104,78,50.028,78c-9.325,0-18.441-4.656-23.754-13.138c-8.21-13.108-4.236-30.383,8.866-38.59
			c4.618-2.892,9.758-4.271,14.833-4.272c9.325,0,18.441,4.655,23.757,13.143C81.933,48.243,77.963,65.522,64.86,73.729z"/>
	</g>
</g>
</svg>
