<?xml version="1.0" encoding="utf-8"?>
<!-- Generator: Adobe Illustrator 16.0.0, SVG Export Plug-In . SVG Version: 6.00 Build 0)  -->
<!DOCTYPE svg PUBLIC "-//W3C//DTD SVG 1.1//EN" "http://www.w3.org/Graphics/SVG/1.1/DTD/svg11.dtd">
<svg version="1.1" xmlns="http://www.w3.org/2000/svg" xmlns:xlink="http://www.w3.org/1999/xlink" x="0px" y="0px" width="100px"
	 height="100px" viewBox="0 0 100 100" enable-background="new 0 0 100 100" xml:space="preserve">
<g id="Layer_3" display="none">
	<circle display="inline" fill="none" stroke="#000000" stroke-width="0.25" stroke-miterlimit="10" cx="50" cy="50" r="15.134"/>
	<rect x="6" y="6" display="inline" opacity="0.26" width="88" height="88"/>
	<circle display="inline" fill="none" stroke="#000000" stroke-width="0.25" stroke-miterlimit="10" cx="50" cy="50" r="24"/>
	<circle display="inline" fill="none" stroke="#000000" stroke-width="0.25" stroke-miterlimit="10" cx="50" cy="50" r="30"/>
	<circle display="inline" fill="none" stroke="#000000" stroke-width="0.25" stroke-miterlimit="10" cx="50" cy="50" r="9.134"/>
	<g display="inline">
		<path d="M50,0.25c27.432,0,49.75,22.317,49.75,49.75S77.432,99.75,50,99.75S0.25,77.433,0.25,50S22.568,0.25,50,0.25 M50,0
			C22.389,0,0,22.386,0,50s22.389,50,50,50c27.612,0,50-22.386,50-50S77.612,0,50,0L50,0z"/>
	</g>
</g>
<g id="Your_Icon">
</g>
<g id="Layer_4">
	<path d="M96,100H4c-2.209,0-4-1.791-4-4s1.791-4,4-4h92c2.209,0,4,1.791,4,4S98.209,100,96,100z"/>
	<path d="M4,86c-1.056,0-2.069-0.418-2.819-1.162C0.425,84.087,0,83.065,0,82V4c0-2.209,1.791-4,4-4h18c2.209,0,4,1.791,4,4v77.879
		c0,2.198-1.774,3.985-3.973,4L4.027,86C4.018,86,4.009,86,4,86z M8,8v69.973l10-0.067V8H8z"/>
	<path d="M41,86c-1.058,0-2.073-0.419-2.823-1.166C37.423,84.083,37,83.063,37,82V32c0-2.209,1.791-4,4-4h18c2.209,0,4,1.791,4,4
		v49.934c0,2.203-1.782,3.992-3.985,4l-18,0.066C41.01,86,41.005,86,41,86z M45,36v41.985l10-0.037V36H45z"/>
	<path d="M78,86c-1.059,0-2.074-0.42-2.824-1.167C74.423,84.082,74,83.063,74,82V57c0-2.209,1.791-4,4-4h18c2.209,0,4,1.791,4,4
		v24.943c0,2.204-1.783,3.993-3.987,4l-18,0.057C78.008,86,78.004,86,78,86z M82,61v16.987l10-0.031V61H82z"/>
</g>
</svg>
