<?xml version="1.0" encoding="utf-8"?>
<!-- Generator: Adobe Illustrator 16.0.0, SVG Export Plug-In . SVG Version: 6.00 Build 0)  -->
<!DOCTYPE svg PUBLIC "-//W3C//DTD SVG 1.1//EN" "http://www.w3.org/Graphics/SVG/1.1/DTD/svg11.dtd">
<svg version="1.1" xmlns="http://www.w3.org/2000/svg" xmlns:xlink="http://www.w3.org/1999/xlink" x="0px" y="0px" width="100px"
	 height="100px" viewBox="0 0 100 100" enable-background="new 0 0 100 100" xml:space="preserve">
<g id="Layer_3" display="none">
</g>
<g id="Your_Icon">
</g>
<g id="Layer_4">
	<path fill="none" stroke="#000000" stroke-width="10" stroke-linecap="square" stroke-linejoin="round" stroke-miterlimit="10" d="
		M36.238,35.4"/>
	<path d="M42.301,46.4h-30c-2.761,0-5-2.238-5-5v-30h10v25h25V46.4z"/>
	<path fill="none" stroke="#000000" stroke-width="10" stroke-linecap="square" stroke-linejoin="round" stroke-miterlimit="10" d="
		M15.2,57.135"/>
	<path d="M70.001,44.4l-0.127-2.081c-0.263-2.096-0.795-4.166-1.583-6.151c-5.089-12.804-19.648-19.081-32.454-13.993
		c-7.766,3.088-13.452,9.818-15.21,18.002l-1.051,4.889L9.8,42.965l1.05-4.888c2.461-11.453,10.42-20.871,21.293-25.195
		c17.932-7.125,38.315,1.664,45.441,19.594c1.102,2.773,1.846,5.667,2.213,8.604l0.504,3.321H70.001z"/>
	<path fill="none" stroke="#000000" stroke-width="10" stroke-linecap="square" stroke-linejoin="round" stroke-miterlimit="10" d="
		M83.229,35.596"/>
	<path fill="none" stroke="#000000" stroke-width="10" stroke-linecap="square" stroke-linejoin="round" stroke-miterlimit="10" d="
		M63.762,64.6"/>
	<path d="M92.699,88.6h-10v-25h-25v-10h30c2.761,0,5,2.238,5,5V88.6z"/>
	<path fill="none" stroke="#000000" stroke-width="10" stroke-linecap="square" stroke-linejoin="round" stroke-miterlimit="10" d="
		M84.8,42.865"/>
	<path d="M29.999,55.6l0.127,2.081c0.263,2.096,0.795,4.166,1.583,6.151c5.089,12.804,19.648,19.081,32.454,13.993
		c7.766-3.088,13.452-9.818,15.21-18.002l1.051-4.889l9.776,2.101l-1.05,4.888c-2.461,11.453-10.42,20.871-21.293,25.195
		c-17.932,7.125-38.315-1.664-45.441-19.594c-1.102-2.773-1.846-5.667-2.213-8.604L19.699,55.6H29.999z"/>
	<path fill="none" stroke="#000000" stroke-width="10" stroke-linecap="square" stroke-linejoin="round" stroke-miterlimit="10" d="
		M16.771,64.404"/>
</g>
</svg>
