<?xml version="1.0" encoding="utf-8"?>
<!-- Generator: Adobe Illustrator 16.0.0, SVG Export Plug-In . SVG Version: 6.00 Build 0)  -->
<!DOCTYPE svg PUBLIC "-//W3C//DTD SVG 1.1//EN" "http://www.w3.org/Graphics/SVG/1.1/DTD/svg11.dtd">
<svg version="1.1" xmlns="http://www.w3.org/2000/svg" xmlns:xlink="http://www.w3.org/1999/xlink" x="0px" y="0px" width="100px"
	 height="100px" viewBox="0 0 100 100" enable-background="new 0 0 100 100" xml:space="preserve">
<g id="Layer_3" display="none">
</g>
<g id="Your_Icon">
</g>
<g id="Layer_4">
	<path d="M77,100H61c-2.209,0-4-1.791-4-4V60h-8c-2.209,0-4-1.791-4-4V40c0-2.209,1.791-4,4-4h8V22.625
		c0-0.368,0.051-0.734,0.151-1.089C57.342,20.86,62.111,5,86.57,5H90c2.209,0,4,1.791,4,4v14.676c0,1.172-0.515,2.285-1.406,3.045
		c-0.894,0.761-2.076,1.09-3.23,0.904c-1.164-0.178-4.969-0.31-6.902,1.355C82.1,29.292,81,30.237,81,33.109V36h9
		c2.209,0,4,1.791,4,4v16c0,2.209-1.791,4-4,4h-9v36C81,98.209,79.209,100,77,100z M65,92h8V56c0-2.209,1.791-4,4-4h9v-8h-9
		c-2.209,0-4-1.791-4-4v-7.941c0-0.322,0.038-0.636,0.11-0.937c0.483-4.232,2.474-6.793,4.179-8.245
		c2.689-2.291,6.033-3.077,8.711-3.29v-6.584c-15.91,0.191-20.203,8.355-21,10.3V40c0,2.209-1.791,4-4,4h-8v8h8c2.209,0,4,1.791,4,4
		V92z"/>
</g>
</svg>
