<?xml version="1.0" encoding="utf-8"?>
<!-- Generator: Adobe Illustrator 16.0.0, SVG Export Plug-In . SVG Version: 6.00 Build 0)  -->
<!DOCTYPE svg PUBLIC "-//W3C//DTD SVG 1.1//EN" "http://www.w3.org/Graphics/SVG/1.1/DTD/svg11.dtd">
<svg version="1.1" xmlns="http://www.w3.org/2000/svg" xmlns:xlink="http://www.w3.org/1999/xlink" x="0px" y="0px" width="100px"
	 height="100px" viewBox="0 0 100 100" enable-background="new 0 0 100 100" xml:space="preserve">
<g id="Layer_3" display="none">
	<circle display="inline" fill="none" stroke="#000000" stroke-width="0.25" stroke-miterlimit="10" cx="50" cy="50" r="15.134"/>
	<polyline display="inline" opacity="0.26" points="94,6 6,6 6,94 94,94 	"/>
	<circle display="inline" fill="none" stroke="#000000" stroke-width="0.25" stroke-miterlimit="10" cx="50" cy="50" r="24"/>
	<circle display="inline" fill="none" stroke="#000000" stroke-width="0.25" stroke-miterlimit="10" cx="50" cy="50" r="30"/>
	<circle display="inline" fill="none" stroke="#000000" stroke-width="0.25" stroke-miterlimit="10" cx="50" cy="50" r="9.134"/>
	<path display="inline" fill="none" stroke="#000000" stroke-width="0.25" stroke-miterlimit="10" d="M0,50C0,22.386,22.389,0,50,0
		c27.612,0,50,22.386,50,50"/>
	<path display="inline" fill="none" stroke="#000000" stroke-width="0.25" stroke-miterlimit="10" d="M100,50
		c0,27.614-22.388,50-50,50C22.389,100,0,77.614,0,50"/>
</g>
<g id="Your_Icon">
</g>
<g id="Layer_4">
	<path d="M80,101H20c-2.209,0-4-1.791-4-4V3c0-2.209,1.791-4,4-4h60c2.209,0,4,1.791,4,4v18c0,2.209-1.791,4-4,4s-4-1.791-4-4V7H24
		v86h52V79c0-2.209,1.791-4,4-4s4,1.791,4,4v18C84,99.209,82.209,101,80,101z"/>
	<path d="M54.003,56.406c-10.313,0-18.703-8.389-18.703-18.7C35.3,27.392,43.69,19,54.003,19c10.314,0,18.705,8.392,18.705,18.706
		C72.708,48.018,64.317,56.406,54.003,56.406z M54.003,27C48.101,27,43.3,31.803,43.3,37.706c0,5.9,4.801,10.7,10.703,10.7
		c5.902,0,10.705-4.8,10.705-10.7C64.708,31.803,59.905,27,54.003,27z"/>
	<path d="M79,68.17c-1.034,0-2.068-0.398-2.851-1.194L61.2,51.782c-1.55-1.575-1.529-4.107,0.045-5.657s4.107-1.53,5.657,0.046
		l14.949,15.193c1.55,1.575,1.529,4.107-0.045,5.657C81.026,67.788,80.013,68.17,79,68.17z"/>
</g>
</svg>
