<?xml version="1.0" encoding="utf-8"?>
<!-- Generator: Adobe Illustrator 16.0.0, SVG Export Plug-In . SVG Version: 6.00 Build 0)  -->
<!DOCTYPE svg PUBLIC "-//W3C//DTD SVG 1.1//EN" "http://www.w3.org/Graphics/SVG/1.1/DTD/svg11.dtd">
<svg version="1.1" xmlns="http://www.w3.org/2000/svg" xmlns:xlink="http://www.w3.org/1999/xlink" x="0px" y="0px" width="100px"
	 height="100px" viewBox="0 0 100 100" enable-background="new 0 0 100 100" xml:space="preserve">
<g id="Layer_3" display="none">
	<circle display="inline" fill="none" stroke="#000000" stroke-width="0.25" stroke-miterlimit="10" cx="50" cy="50" r="15.134"/>
	<polyline display="inline" opacity="0.26" points="94,6 6,6 6,94 94,94 	"/>
	<circle display="inline" fill="none" stroke="#000000" stroke-width="0.25" stroke-miterlimit="10" cx="50" cy="50" r="24"/>
	<circle display="inline" fill="none" stroke="#000000" stroke-width="0.25" stroke-miterlimit="10" cx="50" cy="50" r="30"/>
	<circle display="inline" fill="none" stroke="#000000" stroke-width="0.25" stroke-miterlimit="10" cx="50" cy="50" r="9.134"/>
	<path display="inline" fill="none" stroke="#000000" stroke-width="0.25" stroke-miterlimit="10" d="M0,50C0,22.386,22.389,0,50,0
		c27.612,0,50,22.386,50,50"/>
	<path display="inline" fill="none" stroke="#000000" stroke-width="0.25" stroke-miterlimit="10" d="M100,50
		c0,27.614-22.388,50-50,50C22.389,100,0,77.614,0,50"/>
</g>
<g id="Your_Icon">
</g>
<g id="Layer_4">
	<path d="M50.03,84c-11.803,0-22.584-5.964-28.841-15.954c-4.821-7.697-6.356-16.811-4.322-25.66s7.394-16.378,15.09-21.197
		C37.377,17.794,43.606,16,49.973,16c11.803,0,22.585,5.967,28.843,15.96c4.817,7.694,6.351,16.805,4.316,25.654
		c-2.034,8.852-7.393,16.38-15.088,21.199C62.625,82.206,56.396,84,50.03,84z M49.973,24c-4.862,0-9.624,1.372-13.77,3.968
		c-5.886,3.687-9.983,9.442-11.539,16.21c-1.555,6.767-0.381,13.735,3.306,19.622C32.754,71.439,41.001,76,50.03,76
		c4.862,0,9.623-1.372,13.768-3.967c5.885-3.686,9.982-9.442,11.537-16.21c1.556-6.768,0.384-13.734-3.301-19.617
		C67.249,28.562,59.002,24,49.973,24z"/>
	<path d="M63,58.354c-0.001,0-0.002,0-0.003,0l-15-0.012c-1.062-0.001-2.078-0.423-2.828-1.174s-1.17-1.77-1.169-2.83l0.021-19.988
		c0.002-2.208,1.793-3.996,4-3.996c0.001,0,0.003,0,0.004,0c2.209,0.002,3.998,1.795,3.996,4.004l-0.017,15.987l10.999,0.009
		c2.209,0.002,3.999,1.794,3.997,4.003C66.998,56.564,65.208,58.354,63,58.354z"/>
	<path d="M20.996,99.756c-0.781,0-1.571-0.229-2.264-0.705c-1.82-1.253-2.28-3.743-1.027-5.562l8-11.623
		c1.251-1.818,3.742-2.28,5.562-1.027s2.28,3.743,1.027,5.562l-8,11.623C23.52,99.15,22.269,99.756,20.996,99.756z"/>
	<path d="M84.238,31c-1.022,0-2.044-0.39-2.825-1.168c-1.563-1.561-1.567-4.093-0.007-5.657l2.655-2.656
		c1.222-1.222,1.261-3.173,0.089-4.441c-0.052-0.051-0.714-0.71-0.989-0.985l-0.125-0.125c-0.062-0.062-1.001-1.001-1.163-1.158
		c-1.219-1.126-3.173-1.085-4.399,0.139l-2.644,2.648l-5.66-5.652l2.646-2.651c4.281-4.272,11.103-4.407,15.536-0.312
		c0.069,0.063,1.266,1.256,1.341,1.331l0.117,0.117c0.325,0.323,1.13,1.128,1.188,1.189c4.128,4.465,3.992,11.286-0.28,15.559
		l-2.646,2.649C86.289,30.608,85.264,31,84.238,31z"/>
	<path d="M14.762,31c-1.025,0-2.051-0.392-2.832-1.175l-2.646-2.648c-4.274-4.273-4.409-11.095-0.308-15.53
		c0.066-0.071,0.915-0.922,1.231-1.237l0.1-0.099c0.074-0.074,1.254-1.249,1.33-1.32c4.444-4.107,11.267-3.972,15.541,0.298
		l2.65,2.654l-5.658,5.654l-2.65-2.652c-1.219-1.219-3.174-1.261-4.444-0.087c-0.096,0.095-1.049,1.047-1.112,1.109l-0.106,0.107
		c-0.262,0.26-0.938,0.935-1.064,1.063c-1.115,1.208-1.076,3.159,0.146,4.382l2.654,2.655c1.561,1.564,1.557,4.097-0.007,5.657
		C16.806,30.61,15.783,31,14.762,31z"/>
	<path d="M79.004,99.756c-1.272,0-2.523-0.605-3.299-1.732l-8-11.623c-1.253-1.819-0.793-4.31,1.027-5.562
		c1.819-1.253,4.311-0.791,5.562,1.027l8,11.623c1.253,1.819,0.793,4.31-1.027,5.562C80.575,99.527,79.785,99.756,79.004,99.756z"/>
</g>
</svg>
