<?xml version="1.0" encoding="utf-8"?>
<!-- Generator: Adobe Illustrator 16.0.0, SVG Export Plug-In . SVG Version: 6.00 Build 0)  -->
<!DOCTYPE svg PUBLIC "-//W3C//DTD SVG 1.1//EN" "http://www.w3.org/Graphics/SVG/1.1/DTD/svg11.dtd">
<svg version="1.1" xmlns="http://www.w3.org/2000/svg" xmlns:xlink="http://www.w3.org/1999/xlink" x="0px" y="0px" width="100px"
	 height="100px" viewBox="0 0 100 100" enable-background="new 0 0 100 100" xml:space="preserve">
<g id="Layer_3" display="none">
</g>
<g id="Your_Icon">
</g>
<g id="Layer_4">
	<rect x="44" y="14.439" transform="matrix(0.4831 0.8756 -0.8756 0.4831 56.8488 -24.2943)" width="10" height="43.121"/>
	<rect x="28.44" y="59.999" transform="matrix(0.8756 0.4831 -0.4831 0.8756 37.6198 -16.0663)" width="43.121" height="10.001"/>
	<g>
		<circle fill="#FFFFFF" cx="25.701" cy="50" r="8.997"/>
		<path fill="#FFFFFF" d="M25.701,41c1.033,0,2.084,0.179,3.11,0.558c4.662,1.716,7.051,6.89,5.332,11.553
			c-1.339,3.637-4.783,5.89-8.445,5.89c-1.033,0-2.082-0.18-3.107-0.557c-4.663-1.72-7.052-6.891-5.331-11.555
			C18.598,43.253,22.04,41,25.701,41 M25.701,31c-7.924,0-15.087,4.997-17.826,12.434c-1.755,4.757-1.551,9.918,0.576,14.527
			c2.126,4.605,5.918,8.109,10.679,9.864c2.118,0.78,4.326,1.175,6.567,1.175c7.926,0,15.091-4.997,17.829-12.434
			c1.754-4.76,1.55-9.92-0.578-14.528c-2.127-4.608-5.921-8.112-10.684-9.865C30.156,31.396,27.945,31,25.701,31L25.701,31z"/>
	</g>
	<path d="M21,40c1.148,0,2.315,0.199,3.456,0.62c5.18,1.907,7.834,7.656,5.924,12.837c-1.487,4.041-5.313,6.544-9.383,6.544
		c-1.147,0-2.313-0.199-3.453-0.618c-5.182-1.911-7.835-7.656-5.924-12.839C13.107,42.503,16.932,40,21,40 M21,30L21,30
		c-8.342,0-15.883,5.26-18.765,13.089c-3.812,10.339,1.501,21.86,11.848,25.675c2.23,0.821,4.554,1.236,6.913,1.236
		c8.345,0,15.887-5.261,18.768-13.091c1.846-5.007,1.63-10.439-0.608-15.291c-2.239-4.851-6.232-8.539-11.245-10.384
		C25.689,30.416,23.363,30,21,30L21,30z"/>
	<g>
		<circle fill="#FFFFFF" cx="75" cy="23.1" r="8.997"/>
		<path fill="#FFFFFF" d="M74.999,14.1c3.662,0,7.104,2.253,8.442,5.889c1.721,4.662-0.668,9.836-5.33,11.554
			c-1.026,0.378-2.076,0.557-3.109,0.557c-3.663,0-7.105-2.253-8.445-5.889c-1.719-4.663,0.67-9.837,5.332-11.554
			C72.916,14.279,73.966,14.1,74.999,14.1 M74.999,4.1c-2.244,0-4.454,0.395-6.568,1.174c-4.759,1.752-8.553,5.256-10.68,9.864
			c-2.127,4.608-2.332,9.769-0.577,14.531c2.74,7.435,9.904,12.43,17.828,12.43c2.242,0,4.451-0.395,6.564-1.172
			c4.764-1.755,8.557-5.259,10.684-9.867c2.127-4.61,2.331-9.771,0.573-14.533C90.087,9.097,82.923,4.1,74.999,4.1L74.999,4.1z"/>
	</g>
	<path d="M78.798,12c4.069,0,7.894,2.503,9.382,6.543c1.911,5.181-0.743,10.929-5.924,12.837C81.116,31.801,79.95,32,78.802,32
		c-4.069,0-7.895-2.503-9.383-6.543c-1.908-5.182,0.745-10.93,5.924-12.837C76.483,12.2,77.65,12,78.798,12 M78.798,2
		c-2.361,0-4.688,0.416-6.913,1.236c-10.344,3.811-15.66,15.329-11.85,25.676C62.918,36.741,70.46,42,78.802,42
		c2.361,0,4.686-0.416,6.911-1.235c5.013-1.847,9.006-5.535,11.244-10.385c2.24-4.852,2.455-10.285,0.605-15.297
		C94.68,7.26,87.138,2,78.798,2L78.798,2z"/>
	<g>
		<circle fill="#FFFFFF" cx="75.09" cy="77" r="8.996"/>
		<path fill="#FFFFFF" d="M75.089,68c3.662,0,7.104,2.253,8.442,5.89c1.721,4.664-0.668,9.835-5.33,11.554
			C77.176,85.821,76.125,86,75.093,86c-3.663,0-7.105-2.252-8.444-5.889c-1.719-4.665,0.67-9.835,5.332-11.555
			C73.006,68.179,74.056,68,75.089,68 M75.089,58c-2.243,0-4.453,0.395-6.566,1.174c-9.829,3.625-14.878,14.568-11.257,24.395
			C60.003,91.004,67.167,96,75.093,96c2.242,0,4.451-0.395,6.564-1.173c4.764-1.756,8.557-5.26,10.683-9.866
			c2.127-4.608,2.331-9.77,0.574-14.532C90.179,62.997,83.015,58,75.089,58L75.089,58z"/>
	</g>
	<path d="M78.798,67.999c4.069,0,7.894,2.503,9.38,6.545c1.912,5.183-0.742,10.929-5.923,12.838c-1.14,0.42-2.306,0.619-3.454,0.619
		c-4.069,0-7.895-2.503-9.383-6.544c-1.908-5.184,0.744-10.928,5.925-12.839C76.483,68.198,77.65,67.999,78.798,67.999
		 M78.798,57.999c-2.361,0-4.688,0.416-6.913,1.236c-10.343,3.815-15.658,15.333-11.851,25.677
		c2.882,7.828,10.424,13.089,18.767,13.089c2.361,0,4.686-0.416,6.911-1.235c5.013-1.848,9.006-5.535,11.244-10.385
		c2.239-4.852,2.454-10.284,0.604-15.298C94.683,63.261,87.142,57.999,78.798,57.999L78.798,57.999z"/>
</g>
</svg>
