<?xml version="1.0" encoding="utf-8"?>
<!-- Generator: Adobe Illustrator 16.0.0, SVG Export Plug-In . SVG Version: 6.00 Build 0)  -->
<!DOCTYPE svg PUBLIC "-//W3C//DTD SVG 1.1//EN" "http://www.w3.org/Graphics/SVG/1.1/DTD/svg11.dtd">
<svg version="1.1" xmlns="http://www.w3.org/2000/svg" xmlns:xlink="http://www.w3.org/1999/xlink" x="0px" y="0px" width="100px"
	 height="100px" viewBox="0 0 100 100" enable-background="new 0 0 100 100" xml:space="preserve">
<g id="Layer_3" display="none">
</g>
<g id="Your_Icon">
</g>
<g id="Layer_4">
	<path d="M41.914,98.971c-11.005,0-15-8.971-15-15V51.664c-0.575,0.054-1.176,0.084-1.801,0.084c-3.189,0-6.364-0.773-9.437-2.299
		c-3.062-1.521-5.029-3.985-5.538-6.939c-0.86-4.984,2.693-9.39,3.924-10.74L31.68,7.923c0.147-0.2,0.311-0.389,0.486-0.564
		c5.23-5.23,14.81-6.328,21.925-6.328c1.331,0,2.324,0.041,2.823,0.067c0.499-0.026,1.492-0.067,2.823-0.067
		c7.115,0,16.695,1.098,21.926,6.327c7.148,7.147,6.53,23.619,6.26,27.657c0.127,2.71,0.372,15.875-6.26,22.506
		c-4.205,4.207-12.868,6.351-25.749,6.373v20.077C55.914,90,52.186,98.971,41.914,98.971z M31.914,39.971
		c0.807,0,1.615,0.194,2.353,0.588c1.63,0.869,2.647,2.565,2.647,4.412v39c0.058,2.249,0.974,5,5,5c3.712,0,4-3.827,4-5V58.772
		c0-1.381,0.57-2.699,1.577-3.645c1.006-0.945,2.36-1.439,3.736-1.346c0.016,0.001,1.834,0.111,4.482,0.111
		c11.396,0,17.294-1.854,18.882-3.443c3.031-3.03,3.554-11.533,3.331-15.176c-0.013-0.224-0.012-0.448,0.005-0.672
		c0.457-6.331-0.286-17.125-3.335-20.173c-2.098-2.098-7.79-3.399-14.855-3.399c-1.5,0-2.472,0.063-2.481,0.064
		c-0.228,0.016-0.462,0.016-0.689,0c-0.004-0.001-0.976-0.064-2.476-0.064c-6.829,0-12.375,1.216-14.632,3.191l-17.523,23.72
		c-0.131,0.178-0.273,0.346-0.426,0.504c-0.53,0.564-1.106,1.449-1.365,2.057c1.671,0.827,3.343,1.246,4.969,1.246
		c2.393,0,4-0.919,4.014-0.929C29.967,40.256,30.939,39.971,31.914,39.971z"/>
</g>
</svg>
