<?xml version="1.0" encoding="utf-8"?>
<!-- Generator: Adobe Illustrator 16.0.0, SVG Export Plug-In . SVG Version: 6.00 Build 0)  -->
<!DOCTYPE svg PUBLIC "-//W3C//DTD SVG 1.0//EN" "http://www.w3.org/TR/2001/REC-SVG-20010904/DTD/svg10.dtd">
<svg version="1.0" xmlns="http://www.w3.org/2000/svg" xmlns:xlink="http://www.w3.org/1999/xlink" x="0px" y="0px" width="100px"
	 height="100px" viewBox="0 0 100 100" enable-background="new 0 0 100 100" xml:space="preserve">
<g id="Layer_3">
</g>
<g id="Your_Icon">
</g>
<g id="Layer_4">
	<path d="M4,100c-1.061,0-2.077-0.421-2.827-1.171C0.422,98.079,0,97.062,0,96V39.5c0-2.209,1.791-4,4-4h92c2.209,0,4,1.791,4,4
		v56.43c0,2.208-1.789,3.998-3.997,4l-92,0.07C4.002,100,4.001,100,4,100z M8,43.5v48.497l84-0.064V43.5H8z"/>
	<path d="M71.5,34.1h-8v-5.912c0-4.225-2.652-7.959-6.326-8.937c-0.85-0.095-4.186-0.204-6.93-0.251
		c-2.638,0.032-5.814,0.104-6.595,0.169c-4.083,0.859-7.15,4.715-7.15,9.019V34.1h-8v-5.912c0-8.1,5.903-15.361,13.732-16.894
		c0.357-0.069,1.095-0.213,7.976-0.294c0.039,0.001,0.076,0,0.114,0.001c7.318,0.122,8.246,0.353,8.642,0.45
		c7.379,1.82,12.536,8.703,12.536,16.736V34.1z"/>
</g>
</svg>
