<?xml version="1.0" encoding="utf-8"?>
<!-- Generator: Adobe Illustrator 16.0.0, SVG Export Plug-In . SVG Version: 6.00 Build 0)  -->
<!DOCTYPE svg PUBLIC "-//W3C//DTD SVG 1.1//EN" "http://www.w3.org/Graphics/SVG/1.1/DTD/svg11.dtd">
<svg version="1.1" xmlns="http://www.w3.org/2000/svg" xmlns:xlink="http://www.w3.org/1999/xlink" x="0px" y="0px" width="100px"
	 height="100px" viewBox="0 0 100 100" enable-background="new 0 0 100 100" xml:space="preserve">
<g id="Layer_3" display="none">
</g>
<g id="Your_Icon">
</g>
<g id="Layer_4">
	<path d="M50.594,99.001c-5.052,0-10.107-1.298-14.627-3.895C25.819,89.276,20,77.938,20,64V22c0-7.165,4.537-20.981,21.706-21.991
		l0.612-0.036l0.604,0.113c0.498,0.093,5.003,0.992,9.631,3.74C59.388,7.884,63,13.822,63,21v46c0,5.226-3.729,13-14,13
		c-9.538,0-13-7.774-13-13V35h10v32c0.104,3,2.208,3,3,3c0.955,0,3.863,0,4.001-3.1L53,21c0-7.644-8.954-10.365-11.366-10.959
		C30.742,11.034,30.03,20.184,30,22.04V64c0,10.411,3.889,18.379,10.949,22.436c5.985,3.439,13.396,3.426,19.34-0.041
		C67.261,82.331,71.064,74.389,71,64.031V45h10v19c0.087,13.854-5.627,25.177-15.675,31.034
		C60.79,97.678,55.693,99.001,50.594,99.001z"/>
</g>
</svg>
