<?xml version="1.0" encoding="utf-8"?>
<!-- Generator: Adobe Illustrator 16.0.0, SVG Export Plug-In . SVG Version: 6.00 Build 0)  -->
<!DOCTYPE svg PUBLIC "-//W3C//DTD SVG 1.1//EN" "http://www.w3.org/Graphics/SVG/1.1/DTD/svg11.dtd">
<svg version="1.1" xmlns="http://www.w3.org/2000/svg" xmlns:xlink="http://www.w3.org/1999/xlink" x="0px" y="0px" width="100px"
	 height="100px" viewBox="0 0 100 100" enable-background="new 0 0 100 100" xml:space="preserve">
<g id="Layer_3">
</g>
<g id="Your_Icon">
</g>
<g id="Layer_4">
	<g>
		<path fill="none" d="M50.819,61.011c0.314-0.004,0.61-0.008,0.868-0.01C55.701,59.705,74.909,45.587,92,32.067V22H8v10.064
			c17.18,13.563,36.49,27.728,40.425,28.951C49.031,61.035,50.052,61.022,50.819,61.011z"/>
		<path fill="none" d="M52,69c-0.289,0-0.665,0.005-1.076,0.011c-0.539,0.007-1.114,0.015-1.659,0.015
			c-0.551,0-1.072-0.008-1.492-0.032c-1.688-0.096-4.513-0.255-26.153-16.4C16.596,48.845,11.705,45.086,8,42.211v49.495L92,92
			V42.221c-3.732,2.902-8.671,6.704-13.731,10.483C56.454,69,53.773,69,52,69z"/>
		<path d="M92,14H8c-4.418,0-8,3.881-8,8.3v69.406c0,4.407,3.564,8.278,7.972,8.294h84c0.009,0,0.019,0,0.028,0
			c2.117,0,4.147-0.839,5.647-2.333C99.153,96.166,100,94.126,100,92V22.3C100,17.881,96.418,14,92,14z M8,22h84v10.067
			C74.909,45.587,56,60.1,51.687,61.001c-0.258,0.002-0.554,0.005-0.868,0.01c-0.768,0.011-1.788,0.024-2.395,0.004
			C44.49,59.792,25.18,45.627,8,32.064V22z M92,92H8V42.211c3.705,2.875,8.596,6.634,13.621,10.383
			c21.64,16.145,24.465,16.304,26.153,16.4c0.42,0.024,0.94,0.032,1.492,0.032c0.545,0,1.12-0.008,1.659-0.015
			C51.335,69.005,51.711,69,52,69c1.773,0,4.454,0,26.269-16.295c5.06-3.779,9.999-7.581,13.731-10.483V92z"/>
	</g>
</g>
</svg>
