<?xml version="1.0" encoding="utf-8"?>
<!-- Generator: Adobe Illustrator 16.0.0, SVG Export Plug-In . SVG Version: 6.00 Build 0)  -->
<!DOCTYPE svg PUBLIC "-//W3C//DTD SVG 1.1//EN" "http://www.w3.org/Graphics/SVG/1.1/DTD/svg11.dtd">
<svg version="1.1" xmlns="http://www.w3.org/2000/svg" xmlns:xlink="http://www.w3.org/1999/xlink" x="0px" y="0px" width="100px"
	 height="100px" viewBox="0 0 100 100" enable-background="new 0 0 100 100" xml:space="preserve">
<g id="Layer_3" display="none">
	<circle display="inline" fill="none" stroke="#000000" stroke-width="0.25" stroke-miterlimit="10" cx="50" cy="50" r="15.134"/>
	<rect x="6" y="6" display="inline" opacity="0.26" width="88" height="88"/>
	<circle display="inline" fill="none" stroke="#000000" stroke-width="0.25" stroke-miterlimit="10" cx="50" cy="50" r="24"/>
	<circle display="inline" fill="none" stroke="#000000" stroke-width="0.25" stroke-miterlimit="10" cx="50" cy="50" r="30"/>
	<circle display="inline" fill="none" stroke="#000000" stroke-width="0.25" stroke-miterlimit="10" cx="50" cy="50" r="9.134"/>
	<g display="inline">
		<path d="M50,0.25c27.432,0,49.75,22.318,49.75,49.75S77.432,99.75,50,99.75S0.25,77.432,0.25,50S22.568,0.25,50,0.25 M50,0
			C22.389,0,0,22.386,0,50s22.389,50,50,50c27.612,0,50-22.386,50-50S77.612,0,50,0L50,0z"/>
	</g>
</g>
<g id="Your_Icon">
	<path d="M49.5,79.5c-1.024,0-2.047-0.391-2.829-1.171l-23.5-23.5C22.391,54.047,22,53.024,22,52s0.391-2.047,1.171-2.829
		c1.562-1.562,4.095-1.562,5.657,0L49.5,69.843l20.671-20.672c1.562-1.562,4.095-1.562,5.657,0c1.562,1.562,1.562,4.095,0,5.657
		l-23.5,23.5C51.547,79.109,50.524,79.5,49.5,79.5z"/>
</g>
<g id="Layer_4">
	<path d="M4,100c-1.06,0-2.077-0.421-2.827-1.17C0.422,98.08,0,97.062,0,96V36c0-2.209,1.791-4,4-4h92c2.209,0,4,1.791,4,4v59.916
		c0,2.208-1.789,3.998-3.997,4l-92,0.084C4.002,100,4.001,100,4,100z M8,40v51.997l84-0.077V40H8z"/>
</g>
</svg>
