<?xml version="1.0" encoding="utf-8"?>
<!-- Generator: Adobe Illustrator 16.0.0, SVG Export Plug-In . SVG Version: 6.00 Build 0)  -->
<!DOCTYPE svg PUBLIC "-//W3C//DTD SVG 1.1//EN" "http://www.w3.org/Graphics/SVG/1.1/DTD/svg11.dtd">
<svg version="1.1" xmlns="http://www.w3.org/2000/svg" xmlns:xlink="http://www.w3.org/1999/xlink" x="0px" y="0px" width="100px"
	 height="100px" viewBox="0 0 100 100" enable-background="new 0 0 100 100" xml:space="preserve">
<g id="Layer_3">
</g>
<g id="Your_Icon">
</g>
<g id="Layer_4">
	<rect x="30.9" y="28.4" width="8" height="39"/>
	<rect x="16.9" y="33.4" width="8" height="34"/>
	<rect x="2.9" y="45.4" width="8" height="22"/>
	<g>
		<path d="M90.355,43.557c-3.562-1.865-7.743-1.944-11.631-0.31C74.164,32.268,63.805,26.3,49,26.3c-2.209,0-4,1.791-4,4V64
			c0,2.209,1.791,4,4,4h44.801c2.209,0,4-1.791,4-4c0-0.686,0.014-1.392,0.027-2.11C97.943,55.864,98.101,47.614,90.355,43.557z
			 M53,34.478c10.867,1.007,17.444,6.304,19.571,15.781c0.312,1.392,1.343,2.512,2.703,2.939c1.359,0.429,2.846,0.099,3.898-0.862
			c1.554-1.421,3.484-2.269,5.164-2.269c0.812,0,1.566,0.188,2.307,0.576c2.812,1.474,3.232,4.554,3.209,9.356H53V34.478z"/>
	</g>
</g>
</svg>
