<?xml version="1.0" encoding="utf-8"?>
<!-- Generator: Adobe Illustrator 16.0.0, SVG Export Plug-In . SVG Version: 6.00 Build 0)  -->
<!DOCTYPE svg PUBLIC "-//W3C//DTD SVG 1.1//EN" "http://www.w3.org/Graphics/SVG/1.1/DTD/svg11.dtd">
<svg version="1.1" xmlns="http://www.w3.org/2000/svg" xmlns:xlink="http://www.w3.org/1999/xlink" x="0px" y="0px" width="100px"
	 height="100px" viewBox="0 0 100 100" enable-background="new 0 0 100 100" xml:space="preserve">
<g id="Layer_3" display="none">
	<circle display="inline" fill="none" stroke="#000000" stroke-width="0.25" stroke-miterlimit="10" cx="50" cy="50" r="15.134"/>
	<polyline display="inline" opacity="0.26" points="94,6 6,6 6,94 94,94 	"/>
	<circle display="inline" fill="none" stroke="#000000" stroke-width="0.25" stroke-miterlimit="10" cx="50" cy="50" r="24"/>
	<circle display="inline" fill="none" stroke="#000000" stroke-width="0.25" stroke-miterlimit="10" cx="50" cy="50" r="30"/>
	<circle display="inline" fill="none" stroke="#000000" stroke-width="0.25" stroke-miterlimit="10" cx="50" cy="50" r="9.134"/>
	<path display="inline" fill="none" stroke="#000000" stroke-width="0.25" stroke-miterlimit="10" d="M0,50C0,22.386,22.389,0,50,0
		c27.612,0,50,22.386,50,50"/>
	<path display="inline" fill="none" stroke="#000000" stroke-width="0.25" stroke-miterlimit="10" d="M100,50
		c0,27.614-22.388,50-50,50C22.389,100,0,77.614,0,50"/>
</g>
<g id="Your_Icon">
</g>
<g id="Layer_4">
	<path d="M50.03,83c-11.456,0-21.921-5.789-27.993-15.485c-4.679-7.471-6.169-16.315-4.195-24.905
		c1.975-8.589,7.176-15.896,14.646-20.574C37.748,18.741,43.794,17,49.973,17c11.456,0,21.922,5.791,27.995,15.491
		c4.676,7.467,6.164,16.31,4.189,24.899c-1.974,8.591-7.175,15.897-14.645,20.575C62.254,81.259,56.208,83,50.03,83z M49.973,23
		c-5.051,0-9.996,1.425-14.301,4.121c-6.111,3.827-10.367,9.806-11.982,16.832c-1.615,7.028-0.396,14.265,3.433,20.377
		C32.091,72.264,40.654,77,50.03,77c5.051,0,9.995-1.425,14.299-4.12c6.11-3.826,10.365-9.805,11.98-16.833
		c1.615-7.027,0.398-14.263-3.428-20.372C67.913,27.738,59.349,23,49.973,23z"/>
	<polygon points="61.498,57.3 43.997,57.286 44.02,34.404 50.02,34.41 50.003,51.29 61.502,51.3 	"/>
	<path d="M86.122,34.503l-4.244-4.242c2.363-2.363,3.304-7.171,1.736-8.868c-0.092-0.094-0.856-0.854-1.174-1.171l-0.143-0.143
		c-0.073-0.073-1.191-1.189-1.35-1.343c-1.66-1.534-6.464-0.597-8.826,1.767l-4.244-4.242c4.273-4.272,12.707-6.031,17.178-1.898
		c0.085,0.079,1.402,1.392,1.484,1.475l0.135,0.134c0.367,0.366,1.276,1.274,1.342,1.346C92.153,21.794,90.394,30.23,86.122,34.503z
		"/>
	<path d="M14.878,33.503c-4.271-4.272-6.031-12.709-1.898-17.183c0.069-0.075,0.979-0.983,1.346-1.35l0.135-0.134
		c0.082-0.083,1.399-1.396,1.483-1.473c4.474-4.138,12.907-2.375,17.179,1.896l-4.244,4.242c-2.36-2.362-7.164-3.304-8.859-1.734
		c-0.125,0.121-1.243,1.237-1.316,1.311l-0.143,0.143c-0.317,0.316-1.082,1.077-1.21,1.209c-1.531,1.659-0.591,6.467,1.772,8.83
		L14.878,33.503z"/>
	<rect x="23.356" y="81.873" transform="matrix(0.8321 0.5547 -0.5547 0.8321 53.1967 0.1471)" width="6" height="12.098"/>
	<rect x="67.595" y="84.078" transform="matrix(0.5547 0.8321 -0.8321 0.5547 105.2473 -22.5001)" width="12.098" height="6"/>
</g>
</svg>
