<?xml version="1.0" encoding="utf-8"?>
<!-- Generator: Adobe Illustrator 16.0.0, SVG Export Plug-In . SVG Version: 6.00 Build 0)  -->
<!DOCTYPE svg PUBLIC "-//W3C//DTD SVG 1.1//EN" "http://www.w3.org/Graphics/SVG/1.1/DTD/svg11.dtd">
<svg version="1.1" xmlns="http://www.w3.org/2000/svg" xmlns:xlink="http://www.w3.org/1999/xlink" x="0px" y="0px" width="100px"
	 height="100px" viewBox="0 0 100 100" enable-background="new 0 0 100 100" xml:space="preserve">
<g id="Layer_3" display="none">
	<g display="inline" opacity="0.31">
		<path d="M-48,12c-1.06,0-2.076-0.42-2.826-1.169C-51.578,10.08-52,9.062-52,8v-56c0-2.209,1.791-4,4-4H8c2.209,0,4,1.791,4,4V7.92
			c0,2.207-1.788,3.997-3.994,4C8.006,11.92-47.998,12-48,12z"/>
		<path d="M8-48V7.92L-48,8v-56H8 M8-56h-56c-4.418,0-8,3.582-8,8V8c0,2.124,0.844,4.16,2.347,5.661C-52.153,15.159-50.12,16-48,16
			c0.004,0,0.008,0,0.011,0l56-0.08c4.414-0.006,7.989-3.586,7.989-8V-48C16-52.418,12.418-56,8-56L8-56z"/>
	</g>
	<g display="inline" opacity="0.31">
		<path d="M-48,152c-1.06,0-2.076-0.42-2.826-1.169C-51.578,150.08-52,149.062-52,148V92c0-2.209,1.791-4,4-4H8c2.209,0,4,1.791,4,4
			v55.92c0,2.207-1.788,3.997-3.994,4C8.006,151.92-47.998,152-48,152z"/>
		<path d="M8,92v55.92L-48,148V92H8 M8,84h-56c-4.418,0-8,3.582-8,8v56c0,2.124,0.844,4.16,2.347,5.661
			C-52.153,155.159-50.12,156-48,156c0.004,0,0.008,0,0.011,0l56-0.08c4.414-0.006,7.989-3.586,7.989-8V92C16,87.582,12.418,84,8,84
			L8,84z"/>
	</g>
	<g display="inline" opacity="0.31">
		<path d="M92,152c-1.06,0-2.076-0.42-2.826-1.169C88.422,150.08,88,149.062,88,148V92c0-2.209,1.791-4,4-4h56c2.209,0,4,1.791,4,4
			v55.92c0,2.207-1.788,3.997-3.994,4C148.006,151.92,92.002,152,92,152z"/>
		<path d="M148,92v55.92L92,148V92H148 M148,84H92c-4.418,0-8,3.582-8,8v56c0,2.124,0.844,4.16,2.347,5.661
			C87.847,155.159,89.88,156,92,156c0.004,0,0.008,0,0.011,0l56-0.08c4.414-0.006,7.989-3.586,7.989-8V92
			C156,87.582,152.418,84,148,84L148,84z"/>
	</g>
</g>
<g id="Your_Icon">
</g>
<g id="Layer_4">
	<path d="M50,59.446c15.463,0,28,13.5,28,30.153H22C22,72.946,34.537,59.446,50,59.446 M50,49.446c-20.953,0-38,18.013-38,40.153
		c0,5.523,4.477,10,10,10h56c5.523,0,10-4.477,10-10C88,67.459,70.953,49.446,50,49.446L50,49.446z"/>
	<path d="M49.999,14.4C55.523,14.4,60,18.877,60,24.4s-4.477,10-10.001,10c-5.522,0-9.999-4.477-9.999-10S44.477,14.4,49.999,14.4
		 M49.999,4.4C38.972,4.4,30,13.373,30,24.4s8.972,20,19.999,20C61.028,44.4,70,35.428,70,24.4S61.028,4.4,49.999,4.4L49.999,4.4z"
		/>
</g>
</svg>
