<?xml version="1.0" encoding="utf-8"?>
<!-- Generator: Adobe Illustrator 16.0.0, SVG Export Plug-In . SVG Version: 6.00 Build 0)  -->
<!DOCTYPE svg PUBLIC "-//W3C//DTD SVG 1.1//EN" "http://www.w3.org/Graphics/SVG/1.1/DTD/svg11.dtd">
<svg version="1.1" xmlns="http://www.w3.org/2000/svg" xmlns:xlink="http://www.w3.org/1999/xlink" x="0px" y="0px" width="100px"
	 height="100px" viewBox="0 0 100 100" enable-background="new 0 0 100 100" xml:space="preserve">
<g id="Layer_3" display="none">
	<circle display="inline" fill="none" stroke="#000000" stroke-width="0.25" stroke-miterlimit="10" cx="50" cy="50" r="15.134"/>
	<polyline display="inline" opacity="0.26" points="94,6 6,6 6,94 94,94 	"/>
	<circle display="inline" fill="none" stroke="#000000" stroke-width="0.25" stroke-miterlimit="10" cx="50" cy="50" r="24"/>
	<circle display="inline" fill="none" stroke="#000000" stroke-width="0.25" stroke-miterlimit="10" cx="50" cy="50" r="30"/>
	<circle display="inline" fill="none" stroke="#000000" stroke-width="0.25" stroke-miterlimit="10" cx="50" cy="50" r="9.134"/>
	<path display="inline" fill="none" stroke="#000000" stroke-width="0.25" stroke-miterlimit="10" d="M0,50C0,22.386,22.389,0,50,0
		c27.612,0,50,22.386,50,50"/>
	<path display="inline" fill="none" stroke="#000000" stroke-width="0.25" stroke-miterlimit="10" d="M100,50
		c0,27.614-22.388,50-50,50C22.389,100,0,77.614,0,50"/>
</g>
<g id="Your_Icon">
</g>
<g id="Layer_4">
	<path d="M4,101c-1.061,0-2.077-0.421-2.827-1.17C0.422,99.079,0,98.062,0,97V41c0-2.209,1.791-4,4-4h92c2.209,0,4,1.791,4,4v55.919
		c0,2.208-1.789,3.998-3.996,4l-92,0.081C4.002,101,4.001,101,4,101z M8,45v47.996l84-0.073V45H8z"/>
	<path d="M4,45c-1.061,0-2.078-0.421-2.828-1.171S0,42.062,0,41V14c0-2.209,1.791-4,4-4s4,1.791,4,4v22.999l84-0.027V14
		c0-2.209,1.791-4,4-4s4,1.791,4,4v26.971c0,2.209-1.79,3.999-3.999,4L4,45L4,45z"/>
	<path d="M32.02,32c-0.005,0-0.013,0-0.02,0H16c-2.209,0-4-1.791-4-4V4c0-2.209,1.791-4,4-4h15.973c2.207,0,3.997,1.788,4,3.995
		L36,27.593c0.013,0.134,0.02,0.27,0.02,0.407C36.02,30.209,34.229,32,32.02,32z M20,24h7.995L27.978,8H20V24z"/>
	<path d="M84.02,32.002c-0.005,0.001-0.012,0-0.02,0H68c-2.209,0-4-1.791-4-4V4c0-2.209,1.791-4,4-4h15.973
		c2.207,0,3.997,1.788,4,3.995L88,27.595c0.013,0.134,0.02,0.27,0.02,0.407C88.02,30.211,86.229,32.002,84.02,32.002z M72,24.002
		h7.995L79.978,8H72V24.002z"/>
	<path d="M55,19H45c-2.209,0-4-1.791-4-4s1.791-4,4-4h10c2.209,0,4,1.791,4,4S57.209,19,55,19z"/>
	<path d="M20.5,61h-1c-2.209,0-4-1.791-4-4s1.791-4,4-4h1c2.209,0,4,1.791,4,4S22.709,61,20.5,61z"/>
	<path d="M35.5,61h-1c-2.209,0-4-1.791-4-4s1.791-4,4-4h1c2.209,0,4,1.791,4,4S37.709,61,35.5,61z"/>
	<path d="M20.5,73h-1c-2.209,0-4-1.791-4-4s1.791-4,4-4h1c2.209,0,4,1.791,4,4S22.709,73,20.5,73z"/>
	<path d="M35.5,73h-1c-2.209,0-4-1.791-4-4s1.791-4,4-4h1c2.209,0,4,1.791,4,4S37.709,73,35.5,73z"/>
	<path d="M20.5,85h-1c-2.209,0-4-1.791-4-4s1.791-4,4-4h1c2.209,0,4,1.791,4,4S22.709,85,20.5,85z"/>
	<path d="M35.5,85h-1c-2.209,0-4-1.791-4-4s1.791-4,4-4h1c2.209,0,4,1.791,4,4S37.709,85,35.5,85z"/>
	<path d="M50.5,61h-1c-2.209,0-4-1.791-4-4s1.791-4,4-4h1c2.209,0,4,1.791,4,4S52.709,61,50.5,61z"/>
	<path d="M65.5,61h-1c-2.209,0-4-1.791-4-4s1.791-4,4-4h1c2.209,0,4,1.791,4,4S67.709,61,65.5,61z"/>
	<path d="M50.5,73h-1c-2.209,0-4-1.791-4-4s1.791-4,4-4h1c2.209,0,4,1.791,4,4S52.709,73,50.5,73z"/>
	<path d="M65.5,73h-1c-2.209,0-4-1.791-4-4s1.791-4,4-4h1c2.209,0,4,1.791,4,4S67.709,73,65.5,73z"/>
	<path d="M50.5,85h-1c-2.209,0-4-1.791-4-4s1.791-4,4-4h1c2.209,0,4,1.791,4,4S52.709,85,50.5,85z"/>
	<path d="M65.5,85h-1c-2.209,0-4-1.791-4-4s1.791-4,4-4h1c2.209,0,4,1.791,4,4S67.709,85,65.5,85z"/>
	<path d="M80.5,61h-1c-2.209,0-4-1.791-4-4s1.791-4,4-4h1c2.209,0,4,1.791,4,4S82.709,61,80.5,61z"/>
	<path d="M80.5,73h-1c-2.209,0-4-1.791-4-4s1.791-4,4-4h1c2.209,0,4,1.791,4,4S82.709,73,80.5,73z"/>
	<path d="M80.5,85h-1c-2.209,0-4-1.791-4-4s1.791-4,4-4h1c2.209,0,4,1.791,4,4S82.709,85,80.5,85z"/>
</g>
</svg>
