<?xml version="1.0" encoding="utf-8"?>
<!-- Generator: Adobe Illustrator 16.0.0, SVG Export Plug-In . SVG Version: 6.00 Build 0)  -->
<!DOCTYPE svg PUBLIC "-//W3C//DTD SVG 1.1//EN" "http://www.w3.org/Graphics/SVG/1.1/DTD/svg11.dtd">
<svg version="1.1" xmlns="http://www.w3.org/2000/svg" xmlns:xlink="http://www.w3.org/1999/xlink" x="0px" y="0px" width="100px"
	 height="100px" viewBox="0 0 100 100" enable-background="new 0 0 100 100" xml:space="preserve">
<g id="Layer_3" display="none">
</g>
<g id="Your_Icon">
</g>
<g id="Layer_4">
	<g>
		<polygon fill="none" points="10,89.995 90,89.909 90.1,35.2 10,35.193 		"/>
		<path d="M95,14h-8.02l-0.012-9.058C86.965,2.184,84.728,0,81.969,0H64c-2.762,0-5,2.137-5,4.898V14H37.98l-0.012-9.007
			C37.965,2.234,35.728,0,32.969,0H15c-2.762,0-5,2.238-5,5v9H5c-2.762,0-5,2.238-5,5v76c0,1.327,0.527,2.6,1.467,3.537
			C2.404,99.474,3.675,100,5,100c0.002,0,0.004,0,0.006,0l90-0.096c2.759-0.003,4.994-2.24,4.994-5V19C100,16.238,97.762,14,95,14z
			 M69,10h7.975l0.02,14H69V10z M20,10h7.975l0.02,14H20V10z M90,89.909l-80,0.086V35.193L90.1,35.2L90,89.909z"/>
	</g>
	<polygon points="30.5,58 20.5,58 20.5,68 30.5,68 30.5,58 	"/>
	<polygon points="30.5,74 20.5,74 20.5,84 30.5,84 30.5,74 	"/>
	<polygon points="46.5,42 36.5,42 36.5,52 46.5,52 46.5,42 	"/>
	<polygon points="46.5,58 36.5,58 36.5,68 46.5,68 46.5,58 	"/>
	<polygon points="46.5,74 36.5,74 36.5,84 46.5,84 46.5,74 	"/>
	<polygon points="62.5,42 52.5,42 52.5,52 62.5,52 62.5,42 	"/>
	<polygon points="62.5,58 52.5,58 52.5,68 62.5,68 62.5,58 	"/>
	<polygon points="62.5,74 52.5,74 52.5,84 62.5,84 62.5,74 	"/>
	<polygon points="78.5,42 68.5,42 68.5,52 78.5,52 78.5,42 	"/>
	<polygon points="78.5,58 68.5,58 68.5,68 78.5,68 78.5,58 	"/>
	<polygon points="78.5,74 68.5,74 68.5,84 78.5,84 78.5,74 	"/>
</g>
</svg>
