<?xml version="1.0" encoding="utf-8"?>
<!-- Generator: Adobe Illustrator 16.0.0, SVG Export Plug-In . SVG Version: 6.00 Build 0)  -->
<!DOCTYPE svg PUBLIC "-//W3C//DTD SVG 1.1//EN" "http://www.w3.org/Graphics/SVG/1.1/DTD/svg11.dtd">
<svg version="1.1" xmlns="http://www.w3.org/2000/svg" xmlns:xlink="http://www.w3.org/1999/xlink" x="0px" y="0px" width="100px"
	 height="100px" viewBox="0 0 100 100" enable-background="new 0 0 100 100" xml:space="preserve">
<g id="Layer_3" display="none">
	<g display="inline" opacity="0.31">
		<path d="M-48,152c-1.06,0-2.076-0.421-2.826-1.17C-51.578,150.08-52,149.062-52,148V92c0-2.209,1.791-4,4-4H8c2.209,0,4,1.791,4,4
			v55.92c0,2.207-1.787,3.997-3.994,4C8.006,151.92-47.998,152-48,152z"/>
		<path d="M8,92v55.92L-48,148V92H8 M8,84h-56c-4.418,0-8,3.582-8,8v56c0,2.124,0.844,4.16,2.347,5.661
			C-52.153,155.159-50.12,156-48,156c0.004,0,0.007,0,0.011,0l56-0.08c4.413-0.006,7.988-3.586,7.988-8V92C16,87.582,12.418,84,8,84
			L8,84z"/>
	</g>
</g>
<g id="Your_Icon">
</g>
<g id="Layer_4">
	<g>
		<polygon fill="none" points="28,18 28,27.278 50,43.753 72,27.278 72,18 		"/>
		<polygon fill="none" points="28,72.722 28,82 72,82 72,72.722 50,56.247 		"/>
		<path d="M82,29.78V5c0-2.761-2.238-5-5-5H23c-2.762,0-5,2.239-5,5v24.78c0,1.575,0.742,3.058,2.003,4.002L41.659,50L20.003,66.218
			C18.742,67.162,18,68.645,18,70.22V95c0,2.762,2.238,5,5,5h54c2.762,0,5-2.238,5-5V70.22c0-1.575-0.742-3.058-2.003-4.002
			L58.341,50l21.656-16.218C81.258,32.838,82,31.355,82,29.78z M72,82H28v-9.278l22-16.475l22,16.475V82z M50,43.753L28,27.278V18
			h44v9.278L50,43.753z"/>
	</g>
</g>
</svg>
