<?xml version="1.0" encoding="utf-8"?>
<!-- Generator: Adobe Illustrator 16.0.0, SVG Export Plug-In . SVG Version: 6.00 Build 0)  -->
<!DOCTYPE svg PUBLIC "-//W3C//DTD SVG 1.1//EN" "http://www.w3.org/Graphics/SVG/1.1/DTD/svg11.dtd">
<svg version="1.1" xmlns="http://www.w3.org/2000/svg" xmlns:xlink="http://www.w3.org/1999/xlink" x="0px" y="0px" width="100px"
	 height="100px" viewBox="0 0 100 100" enable-background="new 0 0 100 100" xml:space="preserve">
<g id="Layer_3" display="none">
	<circle display="inline" fill="none" stroke="#000000" stroke-width="0.25" stroke-miterlimit="10" cx="50" cy="50" r="15.134"/>
	<rect x="6" y="6" display="inline" opacity="0.26" width="88" height="88"/>
	<circle display="inline" fill="none" stroke="#000000" stroke-width="0.25" stroke-miterlimit="10" cx="50" cy="50" r="24"/>
	<circle display="inline" fill="none" stroke="#000000" stroke-width="0.25" stroke-miterlimit="10" cx="50" cy="50" r="30"/>
	<circle display="inline" fill="none" stroke="#000000" stroke-width="0.25" stroke-miterlimit="10" cx="50" cy="50" r="9.134"/>
	<g display="inline">
		<path d="M50,0.25c27.432,0,49.75,22.317,49.75,49.75S77.432,99.75,50,99.75S0.25,77.433,0.25,50S22.568,0.25,50,0.25 M50,0
			C22.389,0,0,22.386,0,50s22.389,50,50,50c27.612,0,50-22.386,50-50S77.612,0,50,0L50,0z"/>
	</g>
</g>
<g id="Your_Icon">
</g>
<g id="Layer_4">
	<path d="M41.914,98.971c-9.538,0-13-7.774-13-13v-34.33c-0.487,0.068-1.009,0.107-1.568,0.107c-2.359,0-4.972-0.703-7.766-2.091
		c-2.583-1.282-4.364-3.237-5.151-5.654c-1.331-4.085,0.6-7.986,0.825-8.418l0.248-0.396l17.92-24.258l0.159-0.158
		c4.746-4.746,13.773-5.743,20.511-5.743c1.389,0,2.405,0.048,2.823,0.071c0.418-0.023,1.434-0.071,2.823-0.071
		c6.737,0,15.765,0.997,20.512,5.743c6.695,6.694,5.856,23.479,5.671,26.221c0.116,2.248,0.478,14.966-5.671,21.113
		c-4.782,4.783-15.984,5.787-24.539,5.787c-0.648,0-1.25-0.006-1.796-0.015v22.092C53.914,91.196,50.718,98.971,41.914,98.971z
		 M35.097,35.481l-0.183,11.489v39c0.016,1.152,0.431,7,7,7c5.636,0,5.987-5.845,6-7.017V57.58l3.188,0.198
		c0.019,0.001,1.887,0.115,4.608,0.115c10.186,0,17.773-1.506,20.296-4.029c3.795-3.795,4.111-13.352,3.913-16.714l-0.012-0.197
		l0.014-0.202c0.468-6.422-0.181-18.002-3.915-21.736c-2.496-2.495-8.578-3.985-16.27-3.985c-1.581,0-2.606,0.069-2.617,0.07
		l-0.207,0.014L56.706,11.1c-0.008-0.001-1.034-0.07-2.615-0.07c-7.547,0-13.543,1.435-16.124,3.846L20.499,38.521
		c-0.3,0.691-0.802,2.325-0.358,3.649c0.289,0.861,0.979,1.554,2.107,2.114c1.929,0.958,3.692,1.464,5.097,1.464
		c1.346,0,2.004-0.463,2.192-0.624L35.097,35.481z"/>
</g>
</svg>
