<?xml version="1.0" encoding="utf-8"?>
<!-- Generator: Adobe Illustrator 16.0.0, SVG Export Plug-In . SVG Version: 6.00 Build 0)  -->
<!DOCTYPE svg PUBLIC "-//W3C//DTD SVG 1.1//EN" "http://www.w3.org/Graphics/SVG/1.1/DTD/svg11.dtd">
<svg version="1.1" xmlns="http://www.w3.org/2000/svg" xmlns:xlink="http://www.w3.org/1999/xlink" x="0px" y="0px" width="100px"
	 height="100px" viewBox="0 0 100 100" enable-background="new 0 0 100 100" xml:space="preserve">
<g id="Layer_3" display="none">
</g>
<g id="Your_Icon">
</g>
<g id="Layer_4">
	<path d="M84,100H64V61H54V41h10V26.658l0.077-0.333C64.221,25.699,67.856,11,89,11h6v20.595l-3.537-0.644
		c-0.998-0.169-4.008-0.291-5.76,1.188C84.573,33.094,84,34.729,84,37v4h10v20H84V100z M70,94h8V55h10v-8H78l0.026-11
		c0.196-3.661,1.489-6.511,3.851-8.481c2.266-1.892,4.989-2.497,7.123-2.635V17c-14.957,0-18.473,8.765-19,10.411V47H60v8h10V94z"/>
</g>
</svg>
