<?xml version="1.0" encoding="utf-8"?>
<!-- Generator: Adobe Illustrator 16.0.0, SVG Export Plug-In . SVG Version: 6.00 Build 0)  -->
<!DOCTYPE svg PUBLIC "-//W3C//DTD SVG 1.1//EN" "http://www.w3.org/Graphics/SVG/1.1/DTD/svg11.dtd">
<svg version="1.1" xmlns="http://www.w3.org/2000/svg" xmlns:xlink="http://www.w3.org/1999/xlink" x="0px" y="0px" width="100px"
	 height="100px" viewBox="0 0 100 100" enable-background="new 0 0 100 100" xml:space="preserve">
<g id="Layer_3" display="none">
	<circle display="inline" fill="none" stroke="#000000" stroke-width="0.25" stroke-miterlimit="10" cx="50" cy="50" r="15.134"/>
	<rect x="6" y="6" display="inline" opacity="0.26" width="88" height="88"/>
	<circle display="inline" fill="none" stroke="#000000" stroke-width="0.25" stroke-miterlimit="10" cx="50" cy="50" r="24"/>
	<circle display="inline" fill="none" stroke="#000000" stroke-width="0.25" stroke-miterlimit="10" cx="50" cy="50" r="30"/>
	<circle display="inline" fill="none" stroke="#000000" stroke-width="0.25" stroke-miterlimit="10" cx="50" cy="50" r="9.134"/>
	<g display="inline">
		<path d="M50,0.25c27.433,0,49.75,22.317,49.75,49.75S77.433,99.75,50,99.75S0.25,77.433,0.25,50S22.567,0.25,50,0.25 M50,0
			C22.389,0,0,22.386,0,50s22.389,50,50,50c27.612,0,50-22.386,50-50S77.612,0,50,0L50,0z"/>
	</g>
</g>
<g id="Your_Icon">
</g>
<g id="Layer_4">
	<g>
		<path d="M22.309,100c-0.548,0-1.098-0.029-1.649-0.088c-4.4-0.471-8.444-2.852-11.094-6.531l4.869-3.506
			c1.679,2.331,4.116,3.777,6.863,4.07c2.501,0.271,4.991-0.48,6.991-2.111c2.182-1.777,3.537-4.355,3.818-7.259
			c0.496-5.106-3.743-14.648-6.839-21.616c-0.859-1.936-1.672-3.765-2.309-5.326l-2.31-5.625
			c-1.657-4.648-9.887-28.293-9.154-37.251c0.371-4.517,2.441-8.574,5.831-11.427c3.211-2.701,7.248-3.986,11.364-3.613
			c4.406,0.396,8.485,2.711,11.192,6.351l-4.814,3.58c-1.713-2.303-4.169-3.708-6.916-3.954c-2.516-0.226-4.986,0.564-6.963,2.228
			c-2.156,1.814-3.476,4.416-3.714,7.325c-0.456,5.571,4.238,21.868,8.802,34.681l2.234,5.434c0.604,1.484,1.398,3.271,2.239,5.163
			c3.554,7.998,7.977,17.953,7.328,24.631c-0.438,4.51-2.568,8.534-6,11.331C29.265,98.779,25.845,100,22.309,100z"/>
	</g>
	<path d="M53.523,71c-8.387,0-16.192-4.503-20.369-11.752c-3.141-5.434-3.976-11.768-2.351-17.833
		c1.625-6.062,5.513-11.128,10.946-14.264c4.537-2.624,13.564-3.901,27.593-3.901c10.402,0,19.518,0.73,19.9,0.762l4.327,0.352
		l-1.859,3.924c-1.622,3.421-16.144,33.6-26.454,39.567C61.679,69.913,57.624,71,53.523,71z M69.343,29.25
		c-16.738,0-22.593,1.94-24.592,3.097c-4.048,2.336-6.941,6.107-8.151,10.621c-1.21,4.517-0.588,9.233,1.752,13.281
		C41.462,61.648,47.275,65,53.523,65c3.052,0,6.071-0.81,8.733-2.342c6.442-3.729,16.784-22.413,22.082-32.957
		C80.689,29.493,75.177,29.25,69.343,29.25z"/>
	<rect x="55" y="28.618" transform="matrix(0.4723 0.8814 -0.8814 0.4723 69.8311 -27.6407)" width="6" height="31.765"/>
</g>
</svg>
