<?xml version="1.0" encoding="utf-8"?>
<!-- Generator: Adobe Illustrator 16.0.0, SVG Export Plug-In . SVG Version: 6.00 Build 0)  -->
<!DOCTYPE svg PUBLIC "-//W3C//DTD SVG 1.1//EN" "http://www.w3.org/Graphics/SVG/1.1/DTD/svg11.dtd">
<svg version="1.1" xmlns="http://www.w3.org/2000/svg" xmlns:xlink="http://www.w3.org/1999/xlink" x="0px" y="0px" width="100px"
	 height="100px" viewBox="0 0 100 100" enable-background="new 0 0 100 100" xml:space="preserve">
<g id="Layer_3" display="none">
</g>
<g id="Your_Icon">
</g>
<g id="Layer_4">
	<path d="M99.413,33.892C98.633,32.034,96.816,31,94.802,31h-28.16L54.669,3.187C53.878,1.361,52.082,0.005,50.092,0
		c-0.004,0-0.007,0-0.011,0c-1.984,0-3.782,1.354-4.579,3.171L33.375,31H5.198c-2.017,0-3.837,1.032-4.614,2.894
		c-0.777,1.861-0.36,3.918,1.058,5.353l22.385,22.595l-9.282,31.78c-0.585,2.004,0.137,4.148,1.81,5.398
		c1.673,1.246,3.945,1.32,5.7,0.188l27.868-17.976L78.926,99.24c0.814,0.509,1.733,0.761,2.65,0.761
		c1.086,0,2.169-0.354,3.068-1.053c1.656-1.286,2.333-3.471,1.696-5.469L76.207,61.726l22.163-22.483
		C99.78,37.806,100.191,35.749,99.413,33.892z M66.959,57.044c-1.299,1.323-1.76,3.17-1.196,4.937l6.906,21.596L52.732,71.089
		c-0.812-0.508-1.731-0.771-2.651-0.771c-0.943,0-1.885,0.262-2.71,0.793L28.101,83.536l6.351-21.761
		c0.509-1.743,0.032-3.446-1.244-4.737L17.173,41h19.469c1.985,0,3.782-1.354,4.579-3.171l8.832-20.226l8.718,20.255
		C59.562,39.688,61.365,41,63.358,41h19.526L66.959,57.044z"/>
	<path opacity="0.4" fill="none" stroke="#FFFFFF" stroke-linecap="square" stroke-linejoin="round" stroke-miterlimit="10" d="
		M49.5,32"/>
</g>
</svg>
