<?xml version="1.0" encoding="utf-8"?>
<!-- Generator: Adobe Illustrator 16.0.0, SVG Export Plug-In . SVG Version: 6.00 Build 0)  -->
<!DOCTYPE svg PUBLIC "-//W3C//DTD SVG 1.1//EN" "http://www.w3.org/Graphics/SVG/1.1/DTD/svg11.dtd">
<svg version="1.1" xmlns="http://www.w3.org/2000/svg" xmlns:xlink="http://www.w3.org/1999/xlink" x="0px" y="0px" width="100px"
	 height="100px" viewBox="0 0 100 100" enable-background="new 0 0 100 100" xml:space="preserve">
<g id="Layer_3" display="none">
</g>
<g id="Your_Icon">
</g>
<g id="Layer_4">
	<g>
		<polygon fill="none" points="30,28.295 70,28.26 70,18 30,18 		"/>
		<path d="M95,29H81V13.3c0-2.761-1.438-5.3-4.2-5.3h-52c-2.762,0-4.8,2.539-4.8,5.3V29H5c-2.762,0-5,2.239-5,5v40
			c0,2.761,2.238,5,5,5h15v15.8c0,1.327,0.424,2.7,1.363,3.638c0.925,0.923,3.049,1.542,4.378,1.559l50.165-0.168
			c2.76-0.004,5.094-2.341,5.094-5.1V79h14c2.762,0,5-2.239,5-5V34C100,31.239,97.762,29,95,29z M70,89.736l-40,0.057V69h40V89.736z
			 M70,28.26l-40,0.035V18h40V28.26z"/>
		<path d="M25.8,100c-0.019,0-0.04-0.003-0.059-0.003L24.8,100C24.798,100,25.802,100,25.8,100z"/>
	</g>
</g>
</svg>
