<?xml version="1.0" encoding="utf-8"?>
<!-- Generator: Adobe Illustrator 16.0.0, SVG Export Plug-In . SVG Version: 6.00 Build 0)  -->
<!DOCTYPE svg PUBLIC "-//W3C//DTD SVG 1.1//EN" "http://www.w3.org/Graphics/SVG/1.1/DTD/svg11.dtd">
<svg version="1.1" xmlns="http://www.w3.org/2000/svg" xmlns:xlink="http://www.w3.org/1999/xlink" x="0px" y="0px" width="100px"
	 height="100px" viewBox="0 0 100 100" enable-background="new 0 0 100 100" xml:space="preserve">
<g id="Layer_3" display="none">
</g>
<g id="Your_Icon">
</g>
<g id="Layer_4">
	<path d="M52.555,10l23.113,22.609V90H22.332V10H52.555 M52.555,0H22.332c-5.522,0-10,4.477-10,10v80c0,5.523,4.478,10,10,10h53.336
		c5.522,0,10-4.477,10-10V32.609c0-2.69-1.084-5.267-3.008-7.148L59.547,2.852C57.679,1.023,55.169,0,52.555,0L52.555,0z"/>
	<path d="M85,46H44c-2.762,0-5-2.239-5-5V0h10v36h36V46z"/>
</g>
</svg>
