<?xml version="1.0" encoding="utf-8"?>
<!-- Generator: Adobe Illustrator 16.0.0, SVG Export Plug-In . SVG Version: 6.00 Build 0)  -->
<!DOCTYPE svg PUBLIC "-//W3C//DTD SVG 1.1//EN" "http://www.w3.org/Graphics/SVG/1.1/DTD/svg11.dtd">
<svg version="1.1" xmlns="http://www.w3.org/2000/svg" xmlns:xlink="http://www.w3.org/1999/xlink" x="0px" y="0px" width="100px"
	 height="100px" viewBox="0 0 100 100" enable-background="new 0 0 100 100" xml:space="preserve">
<g id="Layer_3" display="none">
	<circle display="inline" fill="none" stroke="#000000" stroke-width="0.25" stroke-miterlimit="10" cx="50" cy="50" r="15.134"/>
	<rect x="6" y="6" display="inline" opacity="0.26" width="88" height="88"/>
	<circle display="inline" fill="none" stroke="#000000" stroke-width="0.25" stroke-miterlimit="10" cx="50" cy="50" r="24"/>
	<circle display="inline" fill="none" stroke="#000000" stroke-width="0.25" stroke-miterlimit="10" cx="50" cy="50" r="30"/>
	<circle display="inline" fill="none" stroke="#000000" stroke-width="0.25" stroke-miterlimit="10" cx="50" cy="50" r="9.134"/>
	<g display="inline">
		<path d="M50,0.25c27.433,0,49.75,22.317,49.75,49.75S77.433,99.75,50,99.75S0.25,77.433,0.25,50S22.567,0.25,50,0.25 M50,0
			C22.389,0,0,22.386,0,50s22.389,50,50,50c27.612,0,50-22.386,50-50S77.612,0,50,0L50,0z"/>
	</g>
</g>
<g id="Your_Icon">
</g>
<g id="Layer_4">
	<path d="M50.086,84c-8.357,0-19.053-5.356-31.788-15.921C9.145,60.485,2.324,53.004,2.039,52.689c-1.386-1.525-1.386-3.854,0-5.379
		C4.949,44.106,31.022,16,50.086,16c8.36,0,19.028,5.358,31.708,15.928c9.112,7.594,15.892,15.077,16.176,15.393
		c1.374,1.522,1.374,3.837,0,5.359C95.076,55.886,69.154,84,50.086,84z M10.495,49.999C19.396,59.159,38.214,76,50.086,76
		c11.868,0,30.59-16.844,39.434-26c-8.844-9.156-27.565-26-39.434-26C38.197,24,19.39,40.839,10.495,49.999z"/>
	<path d="M50.5,69c-10.477,0-19-8.522-19-18.999C31.5,39.523,40.023,31,50.5,31s19,8.523,19,19.001C69.5,60.478,60.977,69,50.5,69z
		 M50.5,39c-6.065,0-11,4.935-11,11.001C39.5,56.065,44.435,61,50.5,61s11-4.935,11-10.999C61.5,43.935,56.565,39,50.5,39z"/>
</g>
</svg>
