<?xml version="1.0" encoding="utf-8"?>
<!-- Generator: Adobe Illustrator 16.0.0, SVG Export Plug-In . SVG Version: 6.00 Build 0)  -->
<!DOCTYPE svg PUBLIC "-//W3C//DTD SVG 1.1//EN" "http://www.w3.org/Graphics/SVG/1.1/DTD/svg11.dtd">
<svg version="1.1" xmlns="http://www.w3.org/2000/svg" xmlns:xlink="http://www.w3.org/1999/xlink" x="0px" y="0px" width="100px"
	 height="100px" viewBox="0 0 100 100" enable-background="new 0 0 100 100" xml:space="preserve">
<g id="Layer_3" display="none">
</g>
<g id="Your_Icon">
	<path fill="none" stroke="#000000" stroke-width="10" stroke-linecap="square" stroke-linejoin="round" stroke-miterlimit="10" d="
		M42.749,94"/>
</g>
<g id="Layer_4">
	<path d="M24,70c-5.52,0-10,4.477-10,10s4.48,10,10,10c5.523,0,10-4.477,10-10S29.523,70,24,70z"/>
	<path d="M70.5,78.5h-10v-5c0-16.542-13.458-30-30-30h-5v-10h5c22.056,0,40,17.944,40,40V78.5z"/>
	<path d="M89,79H79v-5c0-27.019-21.981-49-49-49h-5V15h5c32.533,0,59,26.467,59,59V79z"/>
	<path d="M51.125,77.8h-10v-5c0-5.514-4.486-10-10-10h-5v-10h5c11.028,0,20,8.972,20,20V77.8z"/>
</g>
</svg>
