<?xml version="1.0" encoding="utf-8"?>
<!-- Generator: Adobe Illustrator 16.0.0, SVG Export Plug-In . SVG Version: 6.00 Build 0)  -->
<!DOCTYPE svg PUBLIC "-//W3C//DTD SVG 1.0//EN" "http://www.w3.org/TR/2001/REC-SVG-20010904/DTD/svg10.dtd">
<svg version="1.0" xmlns="http://www.w3.org/2000/svg" xmlns:xlink="http://www.w3.org/1999/xlink" x="0px" y="0px" width="100px"
	 height="100px" viewBox="0 0 100 100" enable-background="new 0 0 100 100" xml:space="preserve">
<g id="Layer_3">
</g>
<g id="Your_Icon">
</g>
<g id="Layer_4">
	<g>
		<path d="M95.401,38.682l-13.38-1.349l8.776-10.744c1.299-1.59,1.183-3.906-0.269-5.359L79.46,10.164
			c-1.454-1.453-3.769-1.57-5.359-0.269l-10.879,8.888L61.805,4.833C61.594,2.794,59.876,1,57.826,1H42.174
			c-2.05,0-3.768,1.794-3.979,3.833l-1.358,13.266L26.583,9.827c-1.591-1.293-3.901-1.143-5.351,0.306L10.164,21.216
			c-1.45,1.45-1.569,3.768-0.276,5.358l8.689,10.696L4.599,38.68C2.556,38.886,1,40.608,1,42.662v15.652
			c0,2.054,1.555,3.774,3.599,3.98l13.804,1.391L9.895,74.1c-1.299,1.591-1.183,3.907,0.269,5.359l11.067,11.068
			c1.452,1.452,3.769,1.568,5.359,0.27l10.308-8.42l1.297,12.791C38.406,97.206,40.124,99,42.174,99h15.163
			c2.011,0,3.709-1.737,3.967-3.731l1.726-13.477l10.388,8.381c1.591,1.293,3.902,1.145,5.352-0.307l10.722-10.738
			c1.422-1.422,1.567-3.686,0.339-5.278l-7.861-10.198l13.433-1.356C97.445,62.09,99,60.368,99,58.314V42.662
			C99,40.608,97.445,38.888,95.401,38.682z M91,54.697l-15.817,1.594c-1.472,0.148-2.741,1.097-3.301,2.466
			c-0.123,0.3-0.255,0.596-0.391,0.891c-0.623,1.352-0.444,2.938,0.465,4.117l9.392,12.178l-5.684,5.685l-11.965-9.724
			c-1.015-0.825-2.367-1.101-3.625-0.741c-0.11,0.032-0.224,0.07-0.334,0.112c-0.076,0.029-0.15,0.06-0.224,0.093
			c-0.104,0.047-0.21,0.089-0.316,0.132l-0.445,0.184c-0.128,0.054-0.256,0.109-0.386,0.159c-0.1,0.039-0.198,0.081-0.295,0.127
			c-0.093,0.044-0.185,0.092-0.271,0.141c-1.09,0.622-1.825,1.962-1.986,3.207L53.82,91h-8.039l-1.566-15.397
			c-0.157-1.514-1.159-2.93-2.586-3.46c-0.301-0.112-0.602-0.286-0.897-0.411c-1.365-0.578-2.941-0.383-4.09,0.555L24.331,82.328
			l-5.952-5.96l9.824-12.029c0.984-1.204,1.181-2.871,0.505-4.271c-0.208-0.43-0.407-0.865-0.587-1.305
			c-0.559-1.371-1.83-2.322-3.303-2.471L9,54.697v-8.418l15.636-1.575c1.532-0.154,2.839-1.174,3.362-2.622
			c0.231-0.642,0.437-1.159,0.645-1.625c0.616-1.377,0.404-2.984-0.548-4.154l-9.723-11.966l5.965-5.965l11.966,9.725
			c1.163,0.945,2.749,1.157,4.11,0.567c0.024-0.01,0.047-0.021,0.071-0.031c0.152-0.069,0.308-0.131,0.464-0.194l0.67-0.277
			c0.034-0.013,0.067-0.026,0.1-0.04c1.37-0.554,2.325-2.065,2.478-3.541L45.782,9h8.437l1.585,15.581
			c0.155,1.501,1.143,2.91,2.553,3.448c0.476,0.182,0.985,0.462,1.604,0.753c1.391,0.653,3.038,0.483,4.231-0.492l12.17-9.927
			l5.952,5.959L72.256,36.638c-0.938,1.149-1.164,2.725-0.586,4.091c0.183,0.434,0.348,0.877,0.502,1.323
			c0.511,1.471,1.829,2.513,3.378,2.669L91,46.279V54.697z"/>
	</g>
	<g>
		<path d="M59.5,49.997c0-5.243-4.254-9.5-9.5-9.497c-5.246-0.002-9.5,4.253-9.5,9.5c0,5.242,4.253,9.496,9.498,9.5
			C55.246,59.5,59.5,55.244,59.5,49.997z"/>
	</g>
</g>
</svg>
