<?xml version="1.0" encoding="utf-8"?>
<!-- Generator: Adobe Illustrator 16.0.0, SVG Export Plug-In . SVG Version: 6.00 Build 0)  -->
<!DOCTYPE svg PUBLIC "-//W3C//DTD SVG 1.1//EN" "http://www.w3.org/Graphics/SVG/1.1/DTD/svg11.dtd">
<svg version="1.1" xmlns="http://www.w3.org/2000/svg" xmlns:xlink="http://www.w3.org/1999/xlink" x="0px" y="0px" width="100px"
	 height="100px" viewBox="0 0 100 100" enable-background="new 0 0 100 100" xml:space="preserve">
<g id="Layer_3" display="none">
	<circle display="inline" fill="none" stroke="#000000" stroke-width="0.25" stroke-miterlimit="10" cx="50" cy="50" r="15.134"/>
	<polyline display="inline" opacity="0.26" points="94,6 6,6 6,94 94,94 	"/>
	<circle display="inline" fill="none" stroke="#000000" stroke-width="0.25" stroke-miterlimit="10" cx="50" cy="50" r="24"/>
	<circle display="inline" fill="none" stroke="#000000" stroke-width="0.25" stroke-miterlimit="10" cx="50" cy="50" r="30"/>
	<circle display="inline" fill="none" stroke="#000000" stroke-width="0.25" stroke-miterlimit="10" cx="50" cy="50" r="9.134"/>
	<path display="inline" fill="none" stroke="#000000" stroke-width="0.25" stroke-miterlimit="10" d="M0,50C0,22.386,22.389,0,50,0
		c27.612,0,50,22.386,50,50"/>
	<path display="inline" fill="none" stroke="#000000" stroke-width="0.25" stroke-miterlimit="10" d="M100,50
		c0,27.614-22.388,50-50,50C22.389,100,0,77.614,0,50"/>
</g>
<g id="Your_Icon">
</g>
<g id="Layer_4">
	<path d="M49.999,51C41.453,51,34.5,44.047,34.5,35.5S41.453,20,49.999,20C58.546,20,65.5,26.953,65.5,35.5S58.546,51,49.999,51z
		 M49.999,26c-5.238,0-9.499,4.262-9.499,9.5s4.261,9.5,9.499,9.5c5.239,0,9.501-4.262,9.501-9.5S55.238,26,49.999,26z"/>
	<path d="M50,99.278l-2.468-3.573C46.285,93.9,17,51.305,17,34C17,15.804,31.804,1,50,1s33,14.804,33,33
		c0,17.305-29.285,59.9-30.532,61.705L50,99.278z M50,7C35.112,7,23,19.112,23,34c0,11.686,17.662,40.625,27,54.65
		C59.338,74.623,77,45.681,77,34C77,19.112,64.888,7,50,7z"/>
</g>
</svg>
