<?xml version="1.0" encoding="utf-8"?>
<!-- Generator: Adobe Illustrator 16.0.0, SVG Export Plug-In . SVG Version: 6.00 Build 0)  -->
<!DOCTYPE svg PUBLIC "-//W3C//DTD SVG 1.1//EN" "http://www.w3.org/Graphics/SVG/1.1/DTD/svg11.dtd">
<svg version="1.1" xmlns="http://www.w3.org/2000/svg" xmlns:xlink="http://www.w3.org/1999/xlink" x="0px" y="0px" width="100px"
	 height="100px" viewBox="0 0 100 100" enable-background="new 0 0 100 100" xml:space="preserve">
<g id="Layer_3" display="none">
	<circle display="inline" fill="none" stroke="#000000" stroke-width="0.25" stroke-miterlimit="10" cx="50" cy="50" r="15.134"/>
	<polyline display="inline" opacity="0.26" points="94,6 6,6 6,94 94,94 	"/>
	<circle display="inline" fill="none" stroke="#000000" stroke-width="0.25" stroke-miterlimit="10" cx="50" cy="50" r="24"/>
	<circle display="inline" fill="none" stroke="#000000" stroke-width="0.25" stroke-miterlimit="10" cx="50" cy="50" r="30"/>
	<circle display="inline" fill="none" stroke="#000000" stroke-width="0.25" stroke-miterlimit="10" cx="50" cy="50" r="9.134"/>
	<path display="inline" fill="none" stroke="#000000" stroke-width="0.25" stroke-miterlimit="10" d="M0,50C0,22.386,22.389,0,50,0
		c27.612,0,50,22.386,50,50"/>
	<path display="inline" fill="none" stroke="#000000" stroke-width="0.25" stroke-miterlimit="10" d="M100,50
		c0,27.614-22.388,50-50,50C22.389,100,0,77.614,0,50"/>
	<path display="inline" opacity="0.5" fill="none" stroke="#000000" stroke-width="8" stroke-miterlimit="10" d="M38,3
		c8.285,0,15,6.714,15,15.001C53,26.284,46.285,33,38,33s-15-6.716-15-14.999C23,9.714,29.715,3,38,3z"/>
	<path display="inline" opacity="0.5" fill="none" stroke="#000000" stroke-width="8" stroke-miterlimit="10" d="M52,36
		c16.57,0,30,13.428,30,30.002C82,82.568,68.57,96,52,96S22,82.568,22,66.002C22,49.428,35.43,36,52,36z"/>
</g>
<g id="Your_Icon">
</g>
<g id="Layer_4">
	<path d="M50.026,100.543c-3.76,0-11.353-0.831-17.766-6.363C24.369,87.371,20,75.899,20,60.083V21.749
		C20,14.85,24.746,1.545,41.316,0.57l0.678-0.027l0.53,0.09C49.246,1.893,62,7.717,62,20.739v49.432
		c0,4.866-3.382,12.106-13.004,12.106C40.114,82.277,37,75.037,37,70.171V42.934c0-2.229,1.772-4.035,4-4.035s4,1.807,4,4.035
		v27.237c0,1.815,0.745,4.035,3.996,4.035c4.681,0,5.004-3.088,5.004-4.035V20.739c0-8.637-9.947-11.521-12.287-12.074
		C29.405,9.689,29,20.525,29,21.774v38.309c0,13.291,2.931,22.679,8.902,27.903c6.119,5.354,13.288,4.46,13.592,4.418l0.573-0.08
		l0.612,0.095c0.198,0.025,5.741,0.788,10.807-3.623C69.206,83.812,72,73.894,72,60.108V49.996c0-2.229,1.771-4.036,4-4.036
		s4,1.807,4,4.036v10.087c1,16.545-3.657,28.312-11.432,34.95c-6.848,5.847-14.395,5.636-16.638,5.427
		C51.484,100.501,50.876,100.543,50.026,100.543z"/>
</g>
</svg>
