<?xml version="1.0" encoding="utf-8"?>
<!-- Generator: Adobe Illustrator 16.0.0, SVG Export Plug-In . SVG Version: 6.00 Build 0)  -->
<!DOCTYPE svg PUBLIC "-//W3C//DTD SVG 1.0//EN" "http://www.w3.org/TR/2001/REC-SVG-20010904/DTD/svg10.dtd">
<svg version="1.0" xmlns="http://www.w3.org/2000/svg" xmlns:xlink="http://www.w3.org/1999/xlink" x="0px" y="0px" width="100px"
	 height="100px" viewBox="0 0 100 100" enable-background="new 0 0 100 100" xml:space="preserve">
<g id="Layer_3">
</g>
<g id="Your_Icon">
</g>
<g id="Layer_4">
	<rect x="30.9" y="29.4" width="8" height="39.1"/>
	<rect x="16.9" y="33.4" width="8" height="35.1"/>
	<rect x="2.9" y="46.5" width="8" height="22"/>
	<g>
		<path d="M92.498,42.834c-3.562-1.969-9.886-2.053-13.773-0.328C74.164,30.922,63.805,25.371,49,25.371c-2.209,0-4,1.89-4,4.22
			v34.813c0,2.33,1.791,4.221,4,4.221h46.943c2.209,0,4-1.891,4-4.221c0-0.724,0.014-1.468,0.027-2.227
			C100.086,55.819,100.243,47.113,92.498,42.834z M53,34c10.867,1.062,19.373,4.876,21.5,14.875c0.312,1.47,0.442,2.29,0.5,3.625
			c0.025,0.592,3.29-1.679,4.5-2.5c2.8-1.9,7.4-1.9,9.7-0.4c2.691,1.756,2.818,5.517,2.795,10.585H53V34z"/>
	</g>
</g>
</svg>
