<?xml version="1.0" encoding="utf-8"?>
<!-- Generator: Adobe Illustrator 16.0.0, SVG Export Plug-In . SVG Version: 6.00 Build 0)  -->
<!DOCTYPE svg PUBLIC "-//W3C//DTD SVG 1.1//EN" "http://www.w3.org/Graphics/SVG/1.1/DTD/svg11.dtd">
<svg version="1.1" xmlns="http://www.w3.org/2000/svg" xmlns:xlink="http://www.w3.org/1999/xlink" x="0px" y="0px" width="100px"
	 height="100px" viewBox="0 0 100 100" enable-background="new 0 0 100 100" xml:space="preserve">
<g id="Layer_3" display="none">
	<circle display="inline" fill="none" stroke="#000000" stroke-width="0.25" stroke-miterlimit="10" cx="50" cy="50" r="15.134"/>
	<polyline display="inline" opacity="0.26" points="94,6 6,6 6,94 94,94 	"/>
	<circle display="inline" fill="none" stroke="#000000" stroke-width="0.25" stroke-miterlimit="10" cx="50" cy="50" r="24"/>
	<circle display="inline" fill="none" stroke="#000000" stroke-width="0.25" stroke-miterlimit="10" cx="50" cy="50" r="30"/>
	<circle display="inline" fill="none" stroke="#000000" stroke-width="0.25" stroke-miterlimit="10" cx="50" cy="50" r="9.134"/>
	<path display="inline" fill="none" stroke="#000000" stroke-width="0.25" stroke-miterlimit="10" d="M0,50C0,22.386,22.389,0,50,0
		c27.612,0,50,22.386,50,50"/>
	<path display="inline" fill="none" stroke="#000000" stroke-width="0.25" stroke-miterlimit="10" d="M100,50
		c0,27.614-22.388,50-50,50C22.389,100,0,77.614,0,50"/>
</g>
<g id="Your_Icon">
</g>
<g id="Layer_4">
	<path d="M59.584,71c-1.146,0-2.284-0.49-3.075-1.439c-1.415-1.697-1.185-4.219,0.512-5.633l0.939-0.78
		c5.632-4.665,7.196-6.226,5.853-11.082c-1.791-6.477-7.768-9.167-14.689-12.281c-7.758-3.491-16.552-7.448-19.009-17.865
		c-1.084-4.596,0.247-9.699,3.653-14c3.865-4.883,9.705-7.916,15.24-7.916c0.003,0,0.005,0,0.006,0c5.073,0,9.842,1.975,13.43,5.562
		c3.588,3.588,5.564,8.36,5.564,13.436c0,2.209-1.791,4-4,4l0,0c-2.209,0-4-1.791-4-4c0-2.939-1.144-5.702-3.221-7.778
		c-2.076-2.077-4.837-3.22-7.774-3.22c0,0-0.001,0-0.002,0c0,0,0,0-0.001,0c-3.102,0-6.621,1.916-8.969,4.881
		c-1.879,2.373-2.658,4.997-2.139,7.198c1.552,6.577,7.555,9.278,14.506,12.406c7.652,3.443,16.325,7.345,19.117,17.444
		c2.782,10.062-2.934,14.796-8.46,19.375l-0.921,0.764C61.396,70.696,60.487,71,59.584,71z"/>
	<path d="M50.985,99.996c-5.073,0-9.842-1.975-13.43-5.562c-3.588-3.588-5.564-8.36-5.564-13.436c0-2.209,1.791-4,4-4l0,0
		c2.209,0,4,1.791,4,4c0,2.939,1.144,5.702,3.221,7.778c2.076,2.077,4.837,3.22,7.774,3.22c0,0,0.001,0,0.002,0c0,0,0,0,0.001,0
		c3.102,0,6.621-1.916,8.969-4.881c1.879-2.373,2.658-4.997,2.139-7.198c-1.552-6.577-7.555-9.278-14.506-12.406
		c-7.652-3.443-16.325-7.345-19.117-17.444c-2.782-10.062,2.934-14.796,8.46-19.375l0.921-0.764
		c1.697-1.413,4.219-1.186,5.633,0.512c1.415,1.697,1.185,4.219-0.512,5.633l-0.939,0.78c-5.632,4.665-7.196,6.226-5.853,11.082
		c1.791,6.477,7.768,9.167,14.689,12.281c7.758,3.491,16.552,7.448,19.009,17.865c1.084,4.596-0.247,9.699-3.653,14
		c-3.865,4.883-9.705,7.916-15.24,7.916C50.988,99.996,50.987,99.996,50.985,99.996z"/>
</g>
</svg>
