<?xml version="1.0" encoding="utf-8"?>
<!-- Generator: Adobe Illustrator 16.0.0, SVG Export Plug-In . SVG Version: 6.00 Build 0)  -->
<!DOCTYPE svg PUBLIC "-//W3C//DTD SVG 1.0//EN" "http://www.w3.org/TR/2001/REC-SVG-20010904/DTD/svg10.dtd">
<svg version="1.0" xmlns="http://www.w3.org/2000/svg" xmlns:xlink="http://www.w3.org/1999/xlink" x="0px" y="0px" width="100px"
	 height="100px" viewBox="0 0 100 100" enable-background="new 0 0 100 100" xml:space="preserve">
<g id="Layer_3">
</g>
<g id="Your_Icon">
</g>
<g id="Layer_4">
	<path d="M45.6,43.5h-29c-2.209,0-4-1.791-4-4v-29h8v25h25V43.5z"/>
	<path d="M87.4,43.5h-8v-4.611C76.761,25.893,65.28,16.5,51.961,16.5c-13.224,0-24.757,9.382-27.422,22.308l-0.808,3.917
		l-7.835-1.616l0.808-3.918C20.132,20.567,34.96,8.5,51.961,8.5c17.279,0,32.154,12.303,35.369,29.255l0.07,0.369V43.5z"/>
	<path d="M87.4,89.5h-8v-25h-25v-8h29c2.209,0,4,1.791,4,4V89.5z"/>
	<path d="M48.039,91.5c-17.279,0-32.154-12.304-35.369-29.255l-0.07-0.369V56.5h8v4.611C23.239,74.106,34.72,83.5,48.039,83.5
		c13.224,0,24.756-9.382,27.422-22.308l0.808-3.918l7.835,1.616l-0.808,3.917C79.868,79.434,65.04,91.5,48.039,91.5z"/>
</g>
</svg>
