<?xml version="1.0" encoding="utf-8"?>
<!-- Generator: Adobe Illustrator 16.0.0, SVG Export Plug-In . SVG Version: 6.00 Build 0)  -->
<!DOCTYPE svg PUBLIC "-//W3C//DTD SVG 1.1//EN" "http://www.w3.org/Graphics/SVG/1.1/DTD/svg11.dtd">
<svg version="1.1" xmlns="http://www.w3.org/2000/svg" xmlns:xlink="http://www.w3.org/1999/xlink" x="0px" y="0px" width="100px"
	 height="100px" viewBox="0 0 100 100" enable-background="new 0 0 100 100" xml:space="preserve">
<g id="Layer_3" display="none">
</g>
<g id="Your_Icon">
</g>
<g id="Layer_4">
	<g>
		<polygon fill="#FFFFFF" points="95.5,59.623 49.439,4.123 4.5,59.623 21,59.623 21,95.601 78,95.623 78,59.623 		"/>
		<path d="M78,99.623c0,0-0.001,0-0.001,0l-57-0.022C18.791,99.6,17,97.81,17,95.601l0-31.978H4.5c-1.542,0-2.946-0.886-3.61-2.278
			c-0.664-1.392-0.469-3.041,0.501-4.239l44.939-55.5c0.754-0.931,1.886-1.476,3.085-1.482c1.225,0.005,2.337,0.522,3.102,1.445
			l46.061,55.5c0.99,1.193,1.202,2.852,0.542,4.255s-2.07,2.3-3.621,2.3H82v32c0,1.062-0.422,2.079-1.172,2.829
			C80.078,99.202,79.061,99.623,78,99.623z M25,91.603l49,0.019V59.623c0-2.209,1.791-4,4-4h8.982l-37.505-45.19l-36.592,45.19H21
			c2.209,0,4,1.791,4,4L25,91.603z"/>
	</g>
</g>
</svg>
