<?xml version="1.0" encoding="utf-8"?>
<!-- Generator: Adobe Illustrator 16.0.0, SVG Export Plug-In . SVG Version: 6.00 Build 0)  -->
<!DOCTYPE svg PUBLIC "-//W3C//DTD SVG 1.0//EN" "http://www.w3.org/TR/2001/REC-SVG-20010904/DTD/svg10.dtd">
<svg version="1.0" xmlns="http://www.w3.org/2000/svg" xmlns:xlink="http://www.w3.org/1999/xlink" x="0px" y="0px" width="64px"
	 height="100px" viewBox="0 0 64 100" enable-background="new 0 0 64 100" xml:space="preserve">
<g id="Layer_3">
</g>
<g id="Your_Icon">
</g>
<g id="Layer_4">
	<path d="M31.831,99.63c-0.001,0-0.003-0.001-0.006,0c-10.574,0-19.18-8.457-19.184-18.853l-0.001-4l8-0.003l0.001,4
		c0.002,5.986,5.021,10.856,11.186,10.856c0.002,0,0.002,0,0.003,0c3.34,0,7.186-2.116,9.57-5.267
		c0.978-1.292,2.507-3.853,1.765-6.483c-2.11-7.462-8.275-17.265-14.237-26.745c-6.724-10.69-13.676-21.744-15.905-30.991
		c-1.084-4.497,0.205-9.503,3.537-13.735c3.906-4.959,9.859-8.04,15.537-8.04c0.005,0.001,0.005,0,0.007,0
		c5.105,0,9.911,1.949,13.53,5.49c3.644,3.564,5.65,8.311,5.65,13.365v4h-8v-4c0-2.884-1.152-5.6-3.245-7.647
		C37.924,9.51,35.105,8.37,32.102,8.37c-0.002,0-0.005,0-0.004,0c-3.235,0-6.866,1.958-9.253,4.989
		c-1.806,2.293-2.551,4.812-2.045,6.91c1.922,7.973,8.52,18.463,14.9,28.607c6.552,10.417,12.74,20.257,15.163,28.829
		c1.249,4.419,0.153,9.208-3.084,13.486C43.899,96.317,37.639,99.629,31.831,99.63z"/>
</g>
</svg>
