<?xml version="1.0" encoding="utf-8"?>
<!-- Generator: Adobe Illustrator 16.0.0, SVG Export Plug-In . SVG Version: 6.00 Build 0)  -->
<!DOCTYPE svg PUBLIC "-//W3C//DTD SVG 1.1//EN" "http://www.w3.org/Graphics/SVG/1.1/DTD/svg11.dtd">
<svg version="1.1" xmlns="http://www.w3.org/2000/svg" xmlns:xlink="http://www.w3.org/1999/xlink" x="0px" y="0px" width="100px"
	 height="100px" viewBox="0 0 100 100" enable-background="new 0 0 100 100" xml:space="preserve">
<g id="Layer_3" display="none">
	<circle display="inline" fill="none" stroke="#000000" stroke-width="0.25" stroke-miterlimit="10" cx="50" cy="51" r="15.134"/>
	<polyline display="inline" opacity="0.26" points="94,7 6,7 6,95 94,95 	"/>
	<circle display="inline" fill="none" stroke="#000000" stroke-width="0.25" stroke-miterlimit="10" cx="50" cy="51" r="24"/>
	<circle display="inline" fill="none" stroke="#000000" stroke-width="0.25" stroke-miterlimit="10" cx="50" cy="51" r="30"/>
	<circle display="inline" fill="none" stroke="#000000" stroke-width="0.25" stroke-miterlimit="10" cx="50" cy="51" r="9.134"/>
	<path display="inline" fill="none" stroke="#000000" stroke-width="0.25" stroke-miterlimit="10" d="M0,51C0,23.386,22.389,1,50,1
		c27.612,0,50,22.386,50,50"/>
	<path display="inline" fill="none" stroke="#000000" stroke-width="0.25" stroke-miterlimit="10" d="M100,51
		c0,27.614-22.388,50-50,50C22.389,101,0,78.614,0,51"/>
</g>
<g id="Your_Icon">
</g>
<g id="Layer_4">
	<polygon points="75,100 6,100 6,19 19,19 19,25 12,25 12,94 69,94 69,87 75,87 	"/>
	<path d="M94,81H26V-1h68V81z M32,75h56V5H32V75z"/>
	<path d="M83,69H39V30h44V69z M45,63h32V36H45V63z"/>
	<rect x="39" y="16" width="43" height="6"/>
</g>
</svg>
