<?xml version="1.0" encoding="utf-8"?>
<!-- Generator: Adobe Illustrator 16.0.0, SVG Export Plug-In . SVG Version: 6.00 Build 0)  -->
<!DOCTYPE svg PUBLIC "-//W3C//DTD SVG 1.1//EN" "http://www.w3.org/Graphics/SVG/1.1/DTD/svg11.dtd">
<svg version="1.1" xmlns="http://www.w3.org/2000/svg" xmlns:xlink="http://www.w3.org/1999/xlink" x="0px" y="0px" width="100px"
	 height="100px" viewBox="0 0 100 100" enable-background="new 0 0 100 100" xml:space="preserve">
<g id="Layer_3">
</g>
<g id="Your_Icon">
</g>
<g id="Layer_4">
	<g>
		<path fill="none" d="M31.495,22.373c-0.065-0.008-0.13-0.012-0.194-0.018c-0.767-0.078-1.525-0.139-2.273-0.189
			c-0.089-0.006-0.178-0.008-0.267-0.014c-0.729-0.045-1.448-0.072-2.155-0.096c-0.086-0.002-0.172,0.006-0.258,0.004
			c-0.714-0.021-1.416,0.444-2.104,0.442c-0.037,0-0.077,0.497-0.115,0.497c-0.036,0-0.071,0-0.107,0
			c-0.444,0-0.883-0.493-1.314-0.485c-0.093,0.002-0.184-0.269-0.275-0.267c-0.356,0.008-0.709-0.098-1.055-0.084
			c-0.107,0.002-0.215-0.051-0.32-0.047c-0.411,0.016-0.816,0.008-1.211,0.029c-0.062,0.002-0.123-0.006-0.185-0.002
			c-0.344,0.018-0.681,0.031-1.011,0.053c-0.103,0.008-0.205,0.01-0.306,0.018c-0.372,0.027-0.738,0.055-1.091,0.084
			c-0.014,0.002-0.025,0.002-0.039,0.002c-0.348,0.031-0.684,0.062-1.012,0.094c-0.087,0.01-0.173,0.018-0.258,0.025
			c-0.292,0.031-0.576,0.061-0.851,0.092c-0.038,0.004-0.078,0.008-0.116,0.012c-0.306,0.035-0.597,0.07-0.878,0.105
			c-0.074,0.01-0.146,0.02-0.218,0.029c-0.229,0.029-0.448,0.059-0.659,0.088c-0.048,0.006-0.099,0.012-0.146,0.02
			c-0.246,0.033-0.479,0.068-0.698,0.102c-0.055,0.008-0.104,0.016-0.156,0.023c-0.18,0.027-0.352,0.055-0.511,0.08
			c-0.038,0.006-0.076,0.012-0.113,0.018c-0.185,0.031-0.355,0.059-0.51,0.086c-0.032,0.006-0.06,0.01-0.091,0.016
			c-0.125,0.021-0.24,0.043-0.342,0.061c-0.03,0.006-0.06,0.012-0.088,0.018c-0.109,0.02-0.208,0.039-0.286,0.053
			c-0.019,0.004-0.029,0.006-0.047,0.01c-0.06,0.012-0.112,0.021-0.149,0.029c-0.017,0.004-0.022,0.006-0.034,0.008
			C10.026,23.271,10,23.277,10,23.277v50c0,0,0.014-0.002,0.036-0.004c0.035-0.004,0.104-0.012,0.192-0.021
			c0.026-0.002,0.052-0.006,0.082-0.008c0.042-0.006,0.092-0.01,0.142-0.016c0.026-0.002,0.052-0.006,0.081-0.008
			c0.059-0.006,0.124-0.012,0.192-0.02c0.037-0.002,0.074-0.006,0.114-0.01c0.064-0.006,0.132-0.012,0.203-0.02
			c0.051-0.004,0.104-0.008,0.159-0.014c0.08-0.006,0.164-0.014,0.251-0.021c0.051-0.004,0.102-0.008,0.154-0.012
			c0.097-0.008,0.196-0.016,0.301-0.023c0.056-0.004,0.114-0.008,0.173-0.012c0.11-0.008,0.222-0.016,0.339-0.025
			c0.06-0.004,0.122-0.008,0.184-0.012c0.122-0.008,0.245-0.014,0.374-0.021c0.067-0.004,0.138-0.008,0.207-0.012
			c0.135-0.008,0.27-0.014,0.412-0.021c0.059-0.004,0.121-0.004,0.181-0.006c0.162-0.008,0.324-0.008,0.495-0.016
			c0.021-0.002,0.043,0.012,0.064,0.01c0.83-0.037,1.763-0.035,2.78-0.049c0.064-0.002,0.127,0.505,0.192,0.503
			c0.194-0.002,0.396,0.56,0.596,0.56c0.096,0,0.188,0,0.285,0c0.051,0,0.099,0,0.15,0c0.056,0,0.116-0.563,0.173-0.562
			c0.468,0,0.947-0.337,1.443-0.327c0.062,0,0.127-0.111,0.189-0.111c0.492,0.01,0.998-0.033,1.515-0.016
			c0.058,0.002,0.112-0.023,0.17-0.02c0.535,0.02,1.086,0.033,1.645,0.064c0.092,0.006,0.183,0.002,0.275,0.006
			c0.548,0.033,1.106,0.068,1.673,0.113c0.107,0.008,0.214,0.016,0.321,0.023c0.567,0.047,1.143,0.1,1.725,0.158
			c0.108,0.012,0.218,0.023,0.327,0.035c0.592,0.062,1.191,0.133,1.797,0.211c0.096,0.012,0.191,0.025,0.287,0.039
			c0.626,0.082,1.256,0.174,1.893,0.273c0.066,0.012,0.134,0.023,0.2,0.033c0.671,0.109,1.347,0.227,2.026,0.355
			c1.03,0.197,7.585,4.832,12,7.752V26.244c-4.325-1.297-10.68-3.377-12-3.566C33.158,22.557,32.322,22.457,31.495,22.373z"/>
		<path fill="none" d="M68.014,73.922c0.069-0.012,0.139-0.025,0.208-0.035c0.63-0.102,1.253-0.191,1.872-0.275
			c0.102-0.014,0.204-0.027,0.307-0.041c0.598-0.078,1.189-0.148,1.775-0.211c0.115-0.014,0.229-0.025,0.344-0.037
			c0.574-0.059,1.142-0.113,1.701-0.158c0.115-0.01,0.229-0.018,0.343-0.027c0.56-0.043,1.111-0.082,1.652-0.115
			c0.096-0.004,0.188-0.008,0.283-0.014c0.544-0.029,1.081-0.053,1.604-0.072c0.065-0.002,0.13,0.002,0.194,0
			c0.5-0.018,0.987-0.016,1.464-0.025c0.087-0.002,0.176,0.025,0.263,0.025c0.477-0.01,0.938,0.497,1.39,0.497
			c0.063,0,0.132,0.567,0.194,0.567c0.064,0,0.125,0,0.189,0c0.101,0,0.2-0.567,0.3-0.567c0.19,0.002,0.38-0.343,0.564-0.341
			c0.115,0.002,0.226-0.111,0.339-0.109c0.165,0.004,0.332-0.053,0.493-0.049c0.143,0.004,0.278-0.02,0.417-0.016
			c0.126,0.002,0.255-0.008,0.377-0.004c0.259,0.008,0.511,0.008,0.755,0.018c0.048,0.002,0.091,0,0.138,0.002
			c0.198,0.008,0.395,0.014,0.582,0.023c0.074,0.004,0.145,0.006,0.217,0.01c0.158,0.008,0.315,0.016,0.465,0.023
			c0.064,0.004,0.124,0.008,0.187,0.012c0.15,0.008,0.299,0.016,0.439,0.025c0.062,0.004,0.12,0.008,0.18,0.012
			c0.134,0.008,0.266,0.018,0.391,0.025c0.056,0.004,0.109,0.008,0.163,0.012c0.124,0.01,0.244,0.02,0.358,0.027
			c0.047,0.004,0.092,0.008,0.137,0.012c0.108,0.008,0.213,0.016,0.312,0.025c0.047,0.004,0.092,0.008,0.136,0.012
			c0.094,0.008,0.182,0.016,0.266,0.023c0.036,0.004,0.072,0.006,0.106,0.01c0.078,0.008,0.151,0.014,0.22,0.021
			c0.033,0.002,0.067,0.006,0.099,0.01c0.061,0.006,0.115,0.012,0.166,0.018c0.027,0.002,0.055,0.004,0.079,0.008
			c0.043,0.004,0.079,0.008,0.113,0.012c0.024,0.002,0.049,0.006,0.068,0.008c0.026,0.002,0.045,0.006,0.063,0.008
			c0.014,0.002,0.029,0.002,0.039,0.004C89.986,73.275,90,73.277,90,73.277v-50c0,0-0.025-0.004-0.052-0.01
			c-0.012-0.002-0.019-0.002-0.035-0.006c-0.035-0.006-0.087-0.016-0.144-0.025c-0.019-0.004-0.03-0.006-0.052-0.01
			c-0.078-0.014-0.177-0.029-0.286-0.049c-0.027-0.004-0.057-0.01-0.086-0.014c-0.101-0.018-0.213-0.035-0.336-0.055
			c-0.031-0.004-0.06-0.01-0.093-0.014c-0.156-0.025-0.328-0.051-0.516-0.08c-0.028-0.004-0.06-0.008-0.089-0.012
			c-0.166-0.025-0.345-0.051-0.533-0.076c-0.047-0.006-0.091-0.012-0.139-0.02c-0.228-0.029-0.468-0.062-0.725-0.094
			c-0.016-0.002-0.032-0.004-0.048-0.006c-0.237-0.031-0.488-0.061-0.748-0.09c-0.062-0.008-0.124-0.016-0.188-0.023
			c-0.569-0.064-1.189-0.129-1.855-0.189c-0.077-0.008-0.155-0.014-0.234-0.021c-0.302-0.027-0.611-0.053-0.93-0.078
			c-0.042-0.002-0.082-0.006-0.125-0.01c-0.36-0.027-0.732-0.053-1.112-0.078c-0.076-0.006-0.153-0.01-0.229-0.014
			c-0.331-0.021-0.669-0.041-1.015-0.059c-0.07-0.004-0.139-0.008-0.21-0.012c-0.404-0.02-0.818-0.037-1.24-0.051
			c-0.065-0.002-0.133-0.006-0.199-0.008c-0.365-0.012-0.737-0.025-1.114-0.033c-0.096-0.002-0.189,0.438-0.285,0.437
			C76.94,22.571,76.492,23,76.037,23c-0.008,0-0.016,0-0.023,0c-0.012,0-0.024,0-0.035,0c-0.738,0-1.495-0.421-2.265-0.399
			c-0.062,0.002-0.126-0.204-0.188-0.202c-0.736,0.021-1.485-0.061-2.244-0.016c-0.078,0.006-0.156-0.047-0.234-0.043
			c-0.766,0.049-1.541,0.082-2.324,0.156c-0.062,0.006-0.123-0.002-0.186,0.004c-0.839,0.082-1.686,0.168-2.537,0.283
			c-1.178,0.16-7.631,2.195-12,3.473v55.773c4.415-2.92,10.969-7.553,12-7.752C66.676,74.146,67.347,74.029,68.014,73.922z"/>
		<path d="M68.555,81.941c4.079-0.717,8.465-1.082,13.053-1.082c4.419,0.002,7.385,0.355,7.414,0.357
			c0.322,0.039,0.645,0.059,0.966,0.059c1.944,0,3.84-0.707,5.311-2.01C97.012,77.746,98,75.568,98,73.277v-50
			c0-3.836-2.723-7.131-6.49-7.855c-0.273-0.053-6.804-1.289-15.495-1.289c-3.845,0-7.575,0.242-11.088,0.717
			c-1.267,0.172-2.894,0.635-8.689,2.387c-1.942,0.588-4.636,1.4-6.238,1.846c-1.578-0.447-4.228-1.271-6.135-1.865
			c-5.332-1.658-7.323-2.256-8.731-2.457c-3.499-0.502-7.202-0.758-11.004-0.758c-8.873,0-15.515,1.393-15.793,1.451
			C4.642,16.238,2,19.5,2,23.277v50c0,2.291,0.982,4.473,2.699,5.992C6.17,80.57,8.059,81.277,10,81.277
			c0.323,0,0.648-0.02,0.975-0.059c0.016-0.002,2.966-0.348,7.366-0.348c4.609,0,9.014,0.361,13.111,1.074
			c1.352,0.824,4.127,3.104,6.06,4.415c3.984,2.701,6.359,4.64,8.134,5.64H2v8h96v-8H54.353c1.775-1,4.151-2.938,8.139-5.642
			C64.427,85.048,67.205,82.764,68.555,81.941z M46,82.029c-4.415-2.92-10.97-7.555-12-7.752c-0.68-0.129-1.355-0.246-2.026-0.355
			c-0.066-0.01-0.134-0.021-0.2-0.033c-0.637-0.1-1.267-0.191-1.893-0.273c-0.096-0.014-0.191-0.027-0.287-0.039
			c-0.605-0.078-1.205-0.148-1.797-0.211c-0.109-0.012-0.219-0.023-0.327-0.035c-0.582-0.059-1.157-0.113-1.725-0.158
			c-0.107-0.01-0.214-0.018-0.321-0.025c-0.566-0.045-1.125-0.084-1.673-0.117c-0.093-0.004-0.184-0.01-0.275-0.014
			c-0.559-0.031-1.109-0.059-1.645-0.078c-0.058-0.004-0.112-0.004-0.17-0.006c-0.517-0.02-1.022-0.033-1.515-0.043
			c-0.062,0-0.127-0.002-0.189-0.004c-0.496-0.008-4.79,0.064-5.62,0.102c-0.021,0.002-0.044-0.012-0.064-0.01
			c-0.171,0.008-0.333,0.008-0.495,0.016c-0.06,0.002-0.122,0.002-0.181,0.006c-0.143,0.008-0.277,0.014-0.412,0.021
			c-0.069,0.004-0.14,0.008-0.207,0.012c-0.129,0.008-0.252,0.014-0.374,0.021c-0.062,0.004-0.124,0.008-0.184,0.012
			c-0.117,0.01-0.229,0.018-0.339,0.025c-0.059,0.004-0.117,0.008-0.173,0.012c-0.104,0.008-0.204,0.016-0.301,0.023
			c-0.053,0.004-0.104,0.008-0.154,0.012c-0.087,0.008-0.171,0.016-0.251,0.021c-0.055,0.006-0.108,0.01-0.159,0.014
			c-0.071,0.008-0.139,0.014-0.203,0.02c-0.04,0.004-0.077,0.008-0.114,0.01c-0.068,0.008-0.134,0.014-0.192,0.02
			c-0.029,0.002-0.055,0.006-0.081,0.008c-0.05,0.006-0.1,0.01-0.142,0.016c-0.03,0.002-0.056,0.006-0.082,0.008
			c-0.088,0.01-0.157,0.018-0.192,0.021C10.014,73.275,10,73.277,10,73.277v-50c0,0,0.026-0.006,0.052-0.01
			c0.012-0.002,0.018-0.004,0.034-0.008c0.037-0.008,0.09-0.018,0.149-0.029c0.018-0.004,0.028-0.006,0.047-0.01
			c0.078-0.014,0.177-0.033,0.286-0.053c0.028-0.006,0.058-0.012,0.088-0.018c0.102-0.018,0.217-0.039,0.342-0.061
			c0.031-0.006,0.059-0.01,0.091-0.016c0.154-0.027,0.325-0.055,0.51-0.086c0.037-0.006,0.075-0.012,0.113-0.018
			c0.159-0.025,0.331-0.053,0.511-0.08c0.053-0.008,0.102-0.016,0.156-0.023c0.22-0.033,0.452-0.068,0.698-0.102
			c0.048-0.008,0.099-0.014,0.146-0.02c0.211-0.029,0.431-0.059,0.659-0.088c0.072-0.01,0.144-0.02,0.218-0.029
			c0.281-0.035,0.572-0.07,0.878-0.105c0.038-0.004,0.078-0.008,0.116-0.012c0.274-0.031,0.559-0.061,0.851-0.092
			c0.085-0.008,0.171-0.016,0.258-0.025c0.328-0.031,0.664-0.062,1.012-0.094c0.014,0,0.025-0.002,0.039-0.004
			c0.353-0.029,0.719-0.057,1.091-0.084c0.101-0.008,0.203-0.014,0.306-0.021c0.33-0.021,0.667-0.043,1.011-0.062
			c0.062-0.004,0.122-0.008,0.185-0.01c0.395-0.021,6.674,0.047,6.76,0.049c0.707,0.023,1.426-0.008,2.155,0.039
			c0.089,0.006,0.178-0.02,0.267-0.014c0.748,0.051,1.507,0.1,2.273,0.176c0.064,0.006,0.129,0.002,0.194,0.01
			c0.827,0.084,1.663,0.18,2.505,0.301c1.32,0.189,7.675,2.268,12,3.564V82.029z M54,82.029V26.256
			c4.369-1.277,10.822-3.318,12-3.479c0.852-0.115,1.698-0.211,2.537-0.293c0.062-0.006,0.123-0.01,0.186-0.016
			c0.783-0.074,1.559-0.135,2.324-0.182c0.078-0.006,0.156-0.01,0.234-0.016c0.759-0.045,1.508-0.076,2.244-0.1
			c0.062-0.002,6.291,0.07,6.695,0.09c0.071,0.004,0.14-0.004,0.21,0c0.346,0.018,0.684,0.027,1.015,0.049
			c0.076,0.004,0.153,0.004,0.229,0.01c0.38,0.025,0.752,0.049,1.112,0.078c0.043,0.002,0.083,0.006,0.125,0.008
			c0.318,0.025,0.628,0.051,0.93,0.078c0.079,0.008,0.157,0.014,0.234,0.021c0.666,0.061,1.286,0.125,1.855,0.189
			c0.064,0.008,0.126,0.016,0.188,0.023c0.26,0.029,0.511,0.059,0.748,0.09c0.016,0.002,0.032,0.004,0.048,0.006
			c0.257,0.031,0.497,0.064,0.725,0.094c0.048,0.008,0.092,0.014,0.139,0.02c0.188,0.025,0.367,0.051,0.533,0.076
			c0.029,0.004,0.061,0.008,0.089,0.012c0.188,0.029,0.359,0.055,0.516,0.08c0.033,0.004,0.062,0.01,0.093,0.014
			c0.123,0.02,0.235,0.037,0.336,0.055c0.029,0.004,0.059,0.01,0.086,0.014c0.109,0.02,0.208,0.035,0.286,0.049
			c0.021,0.004,0.033,0.006,0.052,0.01c0.057,0.01,0.108,0.02,0.144,0.025c0.017,0.004,0.023,0.004,0.035,0.006
			c0.026,0.006,0.052,0.01,0.052,0.01v50c0,0-0.014-0.002-0.035-0.004c-0.01-0.002-0.025-0.002-0.039-0.004
			c-0.019-0.002-0.037-0.006-0.063-0.008c-0.02-0.002-0.044-0.006-0.068-0.008c-0.034-0.004-0.07-0.008-0.113-0.012
			c-0.024-0.004-0.052-0.006-0.079-0.008c-0.051-0.006-0.105-0.012-0.166-0.018c-0.031-0.004-0.065-0.008-0.099-0.01
			c-0.068-0.008-0.142-0.014-0.22-0.021c-0.034-0.004-0.07-0.006-0.106-0.01c-0.084-0.008-0.172-0.016-0.266-0.023
			c-0.044-0.004-0.089-0.008-0.136-0.012c-0.099-0.01-0.203-0.018-0.312-0.025c-0.045-0.004-0.09-0.008-0.137-0.012
			c-0.114-0.008-0.234-0.018-0.358-0.027c-0.054-0.004-0.107-0.008-0.163-0.012c-0.125-0.008-0.257-0.018-0.391-0.025
			c-0.06-0.004-0.118-0.008-0.18-0.012c-0.141-0.01-0.289-0.018-0.439-0.025c-0.062-0.004-0.122-0.008-0.187-0.012
			c-0.149-0.008-0.307-0.016-0.465-0.023c-0.072-0.004-0.143-0.008-0.217-0.012c-0.188-0.008-0.384-0.016-0.582-0.023
			c-0.047-0.002-0.09-0.004-0.138-0.006c-0.244-0.01-0.496-0.018-0.755-0.025c-0.122-0.004-0.251-0.008-0.377-0.01
			c-0.139-0.004-0.274-0.008-0.417-0.01c-0.161-0.004-0.328-0.006-0.493-0.01c-0.113-0.002-0.224,0.057-0.339,0.055
			c-0.185-0.002-3.864,0.008-4.364,0.025c-0.064,0.002-0.129-0.01-0.194-0.008c-0.522,0.02-1.06,0.039-1.604,0.068
			c-0.095,0.006-0.188,0.008-0.283,0.012c-0.541,0.033-1.093,0.07-1.652,0.115c-0.114,0.008-0.228,0.016-0.343,0.025
			c-0.56,0.045-1.127,0.1-1.701,0.158c-0.114,0.012-0.229,0.023-0.344,0.037c-0.586,0.062-1.178,0.133-1.775,0.211
			c-0.103,0.014-0.205,0.027-0.307,0.041c-0.619,0.084-1.242,0.174-1.872,0.275c-0.069,0.01-0.139,0.023-0.208,0.035
			c-0.667,0.107-1.338,0.225-2.014,0.355C64.969,74.477,58.415,79.109,54,82.029z"/>
	</g>
</g>
</svg>
