<?xml version="1.0" encoding="utf-8"?>
<!-- Generator: Adobe Illustrator 16.0.0, SVG Export Plug-In . SVG Version: 6.00 Build 0)  -->
<!DOCTYPE svg PUBLIC "-//W3C//DTD SVG 1.1//EN" "http://www.w3.org/Graphics/SVG/1.1/DTD/svg11.dtd">
<svg version="1.1" xmlns="http://www.w3.org/2000/svg" xmlns:xlink="http://www.w3.org/1999/xlink" x="0px" y="0px" width="100px"
	 height="100px" viewBox="0 0 100 100" enable-background="new 0 0 100 100" xml:space="preserve">
<g id="Layer_3" display="none">
</g>
<g id="Your_Icon">
</g>
<g id="Layer_4">
	<g>
		<rect x="50" y="44" fill="none" width="20" height="8"/>
		<path fill="none" d="M31,69h58V10H31V69z M80,57c0,2.762-2.239,5-5,5H45c-2.761,0-5-2.238-5-5V39c0-2.762,2.239-5,5-5h30
			c2.761,0,5,2.238,5,5V57z M39,17h40v10H39V17z"/>
		<path d="M100,5c0-2.762-2.239-5-5-5H27c-2.761,0-5,2.238-5,5v69c0,2.762,2.239,5,5,5h68c2.761,0,5-2.238,5-5V5z M90,69H32V10h58
			V69z"/>
		<path d="M81,39c0-2.762-2.239-5-5-5H46c-2.761,0-5,2.238-5,5v18c0,2.762,2.239,5,5,5h30c2.761,0,5-2.238,5-5V39z M71,52H51v-8h20
			V52z"/>
		<rect x="41" y="17" width="40" height="10"/>
		<path d="M10,21H0v73.5c0,2.762,2.239,5.5,5,5.5h73V90H10V21z"/>
	</g>
</g>
</svg>
