<?xml version="1.0" encoding="utf-8"?>
<!-- Generator: Adobe Illustrator 16.0.0, SVG Export Plug-In . SVG Version: 6.00 Build 0)  -->
<!DOCTYPE svg PUBLIC "-//W3C//DTD SVG 1.1//EN" "http://www.w3.org/Graphics/SVG/1.1/DTD/svg11.dtd">
<svg version="1.1" xmlns="http://www.w3.org/2000/svg" xmlns:xlink="http://www.w3.org/1999/xlink" x="0px" y="0px" width="100px"
	 height="100px" viewBox="0 0 100 100" enable-background="new 0 0 100 100" xml:space="preserve">
<g id="Layer_3" display="none">
	<circle display="inline" fill="none" stroke="#000000" stroke-width="0.25" stroke-miterlimit="10" cx="50" cy="50" r="15.134"/>
	<polyline display="inline" opacity="0.26" points="94,6 6,6 6,94 94,94 	"/>
	<circle display="inline" fill="none" stroke="#000000" stroke-width="0.25" stroke-miterlimit="10" cx="50" cy="50" r="24"/>
	<circle display="inline" fill="none" stroke="#000000" stroke-width="0.25" stroke-miterlimit="10" cx="50" cy="50" r="30"/>
	<circle display="inline" fill="none" stroke="#000000" stroke-width="0.25" stroke-miterlimit="10" cx="50" cy="50" r="9.134"/>
	<path display="inline" fill="none" stroke="#000000" stroke-width="0.25" stroke-miterlimit="10" d="M0,50C0,22.386,22.389,0,50,0
		c27.612,0,50,22.386,50,50"/>
	<path display="inline" fill="none" stroke="#000000" stroke-width="0.25" stroke-miterlimit="10" d="M100,50
		c0,27.614-22.388,50-50,50C22.389,100,0,77.614,0,50"/>
</g>
<g id="Your_Icon">
</g>
<g id="Layer_4">
	<path d="M21,100.254c-1.058,0-2.072-0.419-2.822-1.165C17.424,98.338,17,97.317,17,96.254V64c0-2.209,1.791-4,4-4s4,1.791,4,4
		v28.236l49-0.219V64c0-2.209,1.791-4,4-4s4,1.791,4,4v32c0,2.202-1.78,3.99-3.982,4l-57,0.254
		C21.012,100.254,21.006,100.254,21,100.254z"/>
	<path d="M4.498,63.5c-0.891,0-1.786-0.295-2.529-0.902c-1.71-1.397-1.964-3.918-0.566-5.629l44.939-55
		c0.755-0.923,1.881-1.462,3.073-1.469c0.008,0,0.017,0,0.024,0c1.184,0,2.307,0.524,3.066,1.432l46.061,55
		c1.419,1.693,1.195,4.217-0.498,5.635c-1.693,1.42-4.216,1.195-5.635-0.498L49.478,10.775L7.598,62.031
		C6.807,62.999,5.657,63.5,4.498,63.5z"/>
</g>
</svg>
