<?xml version="1.0" encoding="utf-8"?>
<!-- Generator: Adobe Illustrator 16.0.0, SVG Export Plug-In . SVG Version: 6.00 Build 0)  -->
<!DOCTYPE svg PUBLIC "-//W3C//DTD SVG 1.0//EN" "http://www.w3.org/TR/2001/REC-SVG-20010904/DTD/svg10.dtd">
<svg version="1.0" xmlns="http://www.w3.org/2000/svg" xmlns:xlink="http://www.w3.org/1999/xlink" x="0px" y="0px" width="100px"
	 height="100px" viewBox="0 0 100 100" enable-background="new 0 0 100 100" xml:space="preserve">
<g id="Layer_3">
</g>
<g id="Your_Icon">
</g>
<g id="Layer_4">
	<path d="M57.801,99c-1.035,0-2.053-0.401-2.816-1.158L5.187,46.8c-0.815-0.809-1.244-1.927-1.178-3.072l0.28-36.125
		c0.117-2.021,1.724-3.636,3.744-3.762L45.344,3.5c1.16-0.073,2.312,0.37,3.126,1.213l49.107,48.808
		c1.095,1.133,1.423,2.804,0.836,4.267c-0.586,1.463-1.977,2.445-3.551,2.51l-32.676,1.321l-0.387,33.428
		c-0.019,1.606-0.996,3.046-2.482,3.655C58.827,98.902,58.312,99,57.801,99z M12.1,42.387l41.809,43.127l0.322-27.784
		c0.024-2.129,1.711-3.865,3.838-3.951l27.555-1.114L44,11.6l-31.929,0.005L12.1,42.387z"/>
	<circle cx="33.6" cy="32.698" r="9.5"/>
</g>
</svg>
