<?xml version="1.0" encoding="utf-8"?>
<!-- Generator: Adobe Illustrator 16.0.0, SVG Export Plug-In . SVG Version: 6.00 Build 0)  -->
<!DOCTYPE svg PUBLIC "-//W3C//DTD SVG 1.1//EN" "http://www.w3.org/Graphics/SVG/1.1/DTD/svg11.dtd">
<svg version="1.1" xmlns="http://www.w3.org/2000/svg" xmlns:xlink="http://www.w3.org/1999/xlink" x="0px" y="0px" width="100px"
	 height="100px" viewBox="0 0 100 100" enable-background="new 0 0 100 100" xml:space="preserve">
<g id="Layer_3" display="none">
	<circle display="inline" fill="none" stroke="#000000" stroke-width="0.25" stroke-miterlimit="10" cx="50" cy="49.5" r="17.5"/>
	<polyline display="inline" opacity="0.15" points="95,5 5,5 5,95 95,95 	"/>
	<circle display="inline" fill="none" stroke="#000000" stroke-width="0.25" stroke-miterlimit="10" cx="50" cy="50" r="26"/>
	<circle display="inline" fill="none" stroke="#000000" stroke-width="0.25" stroke-miterlimit="10" cx="50" cy="50" r="34"/>
	<circle display="inline" fill="none" stroke="#000000" stroke-width="0.25" stroke-miterlimit="10" cx="50" cy="49.5" r="9"/>
	<path display="inline" fill="none" stroke="#000000" stroke-width="0.25" stroke-miterlimit="10" d="M0,50C0,22.386,22.389,0,50,0
		c27.612,0,50,22.386,50,50"/>
	<path display="inline" fill="none" stroke="#000000" stroke-width="0.25" stroke-miterlimit="10" d="M100,50
		c0,27.614-22.388,50-50,50C22.389,100,0,77.614,0,50"/>
</g>
<g id="Your_Icon">
</g>
<g id="Layer_4">
	<g>
		<path d="M98.233,67.925c-1.02-3.287-10.217-32.308-18.934-39.157C75.318,25.648,70.546,24,65.499,24
			c-6.938,0-13.37,3.129-17.646,8.585c-1.363,1.738-1.059,4.252,0.679,5.615l43.413,34.058c0.723,0.566,1.595,0.853,2.469,0.853
			c0.791,0,1.584-0.234,2.269-0.706C98.124,71.411,98.751,69.597,98.233,67.925z"/>
		<path d="M85.413,72.56l-35.75-27.544c-0.983-0.91-7.387-6.496-15.689-5.689c-4.547,0.44-8.694,2.651-12.376,6.57
			C15.628,36.646,9.869,27.33,8.16,20.082c-0.519-2.202,0.26-4.825,2.139-7.198c2.348-2.966,5.867-4.883,8.969-4.883L19.269,8
			c0.001,0,0.001,0,0.003,0c2.937,0,5.698,1.145,7.774,3.221c2.077,2.077,3.221,4.84,3.221,7.779c0,2.209,1.791,4,4,4
			c2.209,0,4-1.791,4-4c0-5.076-1.976-9.849-5.564-13.437C29.115,1.977,24.345,0,19.273,0c-0.003,0-0.003,0-0.007,0
			C13.731,0,7.892,3.034,4.026,7.917c-3.406,4.302-4.737,9.405-3.653,14.001c2.205,9.348,9.403,20.454,16.364,31.194
			c6.191,9.554,12.594,19.432,14.673,26.953c0.559,2.02-0.118,4.488-1.855,6.771C27.205,89.925,23.473,92,20.269,92
			c-0.001,0-0.001,0-0.002,0c-6.063,0-10.999-4.936-11-11c-0.001-2.209-1.792-4-4-4c0,0-0.001,0-0.001,0
			c-2.209,0-4,1.793-3.999,4.002C1.271,91.479,9.793,100,20.264,100c0.003,0,0.004,0,0.006,0c5.661,0,11.805-3.266,15.651-8.318
			c3.264-4.288,4.431-9.299,3.201-13.748c-2.09-7.559-7.222-16.047-13-25.039c2.687-3.404,5.564-5.291,8.573-5.601
			c2.305-0.229,4.451,0.466,6.123,1.302c-3.774,8.081-1.608,18.004,5.738,23.676c7.386,5.686,31.459,7.205,36.21,7.451
			c0.07,0.004,0.14,0.006,0.209,0.006c1.666,0,3.167-1.036,3.75-2.612C87.331,75.474,86.8,73.628,85.413,72.56z"/>
	</g>
</g>
</svg>
