<?xml version="1.0" encoding="utf-8"?>
<!-- Generator: Adobe Illustrator 16.0.0, SVG Export Plug-In . SVG Version: 6.00 Build 0)  -->
<!DOCTYPE svg PUBLIC "-//W3C//DTD SVG 1.0//EN" "http://www.w3.org/TR/2001/REC-SVG-20010904/DTD/svg10.dtd">
<svg version="1.0" xmlns="http://www.w3.org/2000/svg" xmlns:xlink="http://www.w3.org/1999/xlink" x="0px" y="0px" width="100px"
	 height="100px" viewBox="0 0 100 100" enable-background="new 0 0 100 100" xml:space="preserve">
<g id="Layer_3">
</g>
<g id="Your_Icon">
</g>
<g id="Layer_4">
	<g>
		<path d="M54,73.795V27.999c-0.601,0.213-1.22,0.393-1.867,0.51c-2.131,0.386-4.228,0.173-6.133-0.503V73.8
			c0.6-0.212,1.217-0.392,1.863-0.509C49.995,72.906,52.094,73.119,54,73.795z"/>
		<g>
			<path d="M59.348,15.009c-0.938-5.16-5.876-8.587-11.042-7.654c-5.163,0.936-8.591,5.877-7.651,11.04
				c0.932,5.163,5.875,8.59,11.038,7.657C56.854,25.116,60.283,20.175,59.348,15.009z"/>
		</g>
		<g>
			<path d="M48.306,75.752c-5.163,0.936-8.591,5.877-7.651,11.041c0.932,5.162,5.875,8.59,11.038,7.656
				c5.161-0.936,8.591-5.877,7.655-11.043C58.41,78.246,53.472,74.82,48.306,75.752z"/>
		</g>
	</g>
	<g>
		<path d="M89,73.796V53.703c0-2.209-1.791-3.803-4-3.803H15c-2.209,0-4,1.594-4,3.803v20.098c0.6-0.213,1.217-0.393,1.863-0.51
			c2.132-0.385,4.231-0.172,6.137,0.505V57.9h62V73.8c0.6-0.212,1.217-0.392,1.863-0.509C84.995,72.906,87.094,73.119,89,73.796z"/>
		<g>
			<path d="M83.305,75.752c-5.163,0.936-8.591,5.877-7.651,11.041c0.932,5.162,5.875,8.59,11.038,7.656
				c5.161-0.936,8.591-5.877,7.655-11.043C93.41,78.246,88.471,74.82,83.305,75.752z"/>
		</g>
		<g>
			<path d="M13.306,75.752c-5.163,0.936-8.591,5.877-7.651,11.041c0.932,5.162,5.875,8.59,11.038,7.656
				c5.161-0.936,8.591-5.877,7.655-11.043C23.41,78.246,18.472,74.82,13.306,75.752z"/>
		</g>
	</g>
</g>
</svg>
