<?xml version="1.0" encoding="utf-8"?>
<!-- Generator: Adobe Illustrator 16.0.0, SVG Export Plug-In . SVG Version: 6.00 Build 0)  -->
<!DOCTYPE svg PUBLIC "-//W3C//DTD SVG 1.1//EN" "http://www.w3.org/Graphics/SVG/1.1/DTD/svg11.dtd">
<svg version="1.1" xmlns="http://www.w3.org/2000/svg" xmlns:xlink="http://www.w3.org/1999/xlink" x="0px" y="0px" width="100px"
	 height="100px" viewBox="0 0 100 100" enable-background="new 0 0 100 100" xml:space="preserve">
<g id="Layer_3" display="none">
</g>
<g id="Your_Icon">
</g>
<g id="Layer_4">
	<path d="M94.297,12.596C89.133,5.238,80.67,1.02,71.078,1.02c-11.325,0-17.573,5.021-21.272,10.019
		C44.2,4.521,36.394,1.02,27.154,1.02c-8.979,0-16.838,3.859-21.562,10.589c-5.01,7.137-5.98,16.496-2.662,25.679
		c7.912,21.898,41.968,58.564,43.414,60.114C47.288,98.413,48.609,99,49.993,99c0.002,0,0.004,0,0.007,0
		c1.381,0,2.702-0.581,3.647-1.589c1.454-1.55,35.695-38.214,43.608-60.119C100.359,28.699,99.281,19.694,94.297,12.596z"/>
</g>
</svg>
