<?xml version="1.0" encoding="utf-8"?>
<!-- Generator: Adobe Illustrator 16.0.0, SVG Export Plug-In . SVG Version: 6.00 Build 0)  -->
<!DOCTYPE svg PUBLIC "-//W3C//DTD SVG 1.1//EN" "http://www.w3.org/Graphics/SVG/1.1/DTD/svg11.dtd">
<svg version="1.1" xmlns="http://www.w3.org/2000/svg" xmlns:xlink="http://www.w3.org/1999/xlink" x="0px" y="0px" width="100px"
	 height="100px" viewBox="0 0 100 100" enable-background="new 0 0 100 100" xml:space="preserve">
<g id="Layer_3" display="none">
</g>
<g id="Your_Icon">
</g>
<g id="Layer_4">
	<path d="M100,34c0-2.761-2.238-5-5-5H5c-2.762,0-5,2.239-5,5v40c0,2.761,2.238,5,5,5h90c2.762,0,5-2.239,5-5V34z"/>
	<g>
		<polygon fill="#FFFFFF" points="75.8,63.829 75.8,94.729 25.8,94.8 25.8,63.829 		"/>
		<path d="M25.8,99.8c-1.325,0-2.596-0.526-3.533-1.462C21.327,97.4,20.8,96.127,20.8,94.8V63.829c0-2.761,2.238-5,5-5h50
			c2.762,0,5,2.239,5,5v30.9c0,2.759-2.234,4.996-4.993,5l-50,0.071C25.805,99.8,25.802,99.8,25.8,99.8z M30.8,68.829v20.963
			l40-0.057V68.829H30.8z"/>
	</g>
	<g>
		<polygon fill="#FFFFFF" points="76.8,13.3 76.8,33.256 26.8,33.3 26.8,13.3 		"/>
		<path d="M26.8,38.3c-1.325,0-2.597-0.526-3.534-1.463c-0.938-0.938-1.466-2.21-1.466-3.537v-20c0-2.761,2.238-5,5-5h50
			c2.762,0,5,2.239,5,5v19.956c0,2.76-2.236,4.998-4.995,5l-50,0.044C26.803,38.3,26.802,38.3,26.8,38.3z M31.8,18.3v9.996l40-0.035
			V18.3H31.8z"/>
	</g>
	<g>
		<line fill="#FFFFFF" x1="26.6" y1="47.8" x2="26.6" y2="47.8"/>
		<path fill="#FFFFFF" d="M26.6,47.8"/>
	</g>
</g>
</svg>
