<?xml version="1.0" encoding="utf-8"?>
<!-- Generator: Adobe Illustrator 16.0.0, SVG Export Plug-In . SVG Version: 6.00 Build 0)  -->
<!DOCTYPE svg PUBLIC "-//W3C//DTD SVG 1.1//EN" "http://www.w3.org/Graphics/SVG/1.1/DTD/svg11.dtd">
<svg version="1.1" xmlns="http://www.w3.org/2000/svg" xmlns:xlink="http://www.w3.org/1999/xlink" x="0px" y="0px" width="100px"
	 height="100px" viewBox="0 0 100 100" enable-background="new 0 0 100 100" xml:space="preserve">
<g id="Layer_3" display="none">
</g>
<g id="Your_Icon">
</g>
<g id="Layer_4">
	<path d="M51.159,84.992c-11.722,0.001-23.015-5.92-29.542-16.345c-0.814-1.301-1.553-2.673-2.193-4.079L18,59h10.178l0.344,1.42
		c0.46,1.007,0.988,1.99,1.571,2.921c6.368,10.168,19.103,14.323,30.275,9.881c12.805-5.09,19.082-19.648,13.993-32.453
		c-5.089-12.806-19.646-19.08-32.453-13.994c-7.766,3.088-13.452,9.818-15.211,18.002l-1.05,4.889l-9.776-2.101l1.049-4.888
		c2.461-11.453,10.421-20.871,21.293-25.195c17.931-7.124,38.316,1.664,45.441,19.594c7.125,17.929-1.664,38.312-19.592,45.439
		C59.848,84.189,55.474,84.992,51.159,84.992z"/>
	<path d="M48.178,49.992h-30c-2.761,0-5-2.238-5-5v-30h10v25h25V49.992z"/>
</g>
</svg>
