<?xml version="1.0" encoding="utf-8"?>
<!-- Generator: Adobe Illustrator 16.0.0, SVG Export Plug-In . SVG Version: 6.00 Build 0)  -->
<!DOCTYPE svg PUBLIC "-//W3C//DTD SVG 1.1//EN" "http://www.w3.org/Graphics/SVG/1.1/DTD/svg11.dtd">
<svg version="1.1" xmlns="http://www.w3.org/2000/svg" xmlns:xlink="http://www.w3.org/1999/xlink" x="0px" y="0px" width="100px"
	 height="100px" viewBox="0 0 100 100" enable-background="new 0 0 100 100" xml:space="preserve">
<g id="Layer_3">
</g>
<g id="Your_Icon">
</g>
<g id="Layer_4">
	<rect x="1" y="91" width="98" height="8"/>
	<g>
		<polygon fill="none" points="45,74.906 55,74.869 55,34 45,34 		"/>
		<polygon fill="none" points="9,74.894 19,74.826 19,9 9,9 		"/>
		<polygon fill="none" points="81,74.908 91,74.877 91,59 81,59 		"/>
		<path d="M23,1H5C2.791,1,1,2.791,1,5v73.921c0,1.065,0.425,2.126,1.181,2.878C2.931,82.543,3.944,83,5,83c0.009,0,0.018,0,0.027,0
			l18-0.16C25.226,82.824,27,80.998,27,78.8V5C27,2.791,25.209,1,23,1z M19,74.826L9,74.894V9h10V74.826z"/>
		<path d="M59,26H41c-2.209,0-4,1.791-4,4v48.921c0,1.063,0.423,2.122,1.177,2.874C38.927,82.541,39.942,83,41,83
			c0.005,0,0.01,0,0.015,0l18-0.105C61.218,82.887,63,81.058,63,78.854V30C63,27.791,61.209,26,59,26z M55,74.869l-10,0.037V34h10
			V74.869z"/>
		<path d="M95,51H77c-2.209,0-4,1.791-4,4v23.921c0,1.063,0.423,2.122,1.176,2.872C74.926,82.541,75.941,83,77,83
			c0.004,0,0.008,0,0.013,0l18-0.096C97.217,82.896,99,81.068,99,78.864V55C99,52.791,97.209,51,95,51z M91,74.877l-10,0.031V59h10
			V74.877z"/>
	</g>
</g>
</svg>
