<?xml version="1.0" encoding="utf-8"?>
<!-- Generator: Adobe Illustrator 16.0.0, SVG Export Plug-In . SVG Version: 6.00 Build 0)  -->
<!DOCTYPE svg PUBLIC "-//W3C//DTD SVG 1.1//EN" "http://www.w3.org/Graphics/SVG/1.1/DTD/svg11.dtd">
<svg version="1.1" xmlns="http://www.w3.org/2000/svg" xmlns:xlink="http://www.w3.org/1999/xlink" x="0px" y="0px" width="100px"
	 height="100px" viewBox="0 0 100 100" enable-background="new 0 0 100 100" xml:space="preserve">
<g id="Layer_3" display="none">
</g>
<g id="Your_Icon">
</g>
<g id="Layer_4">
	<path d="M98.578,57.068l-46.061-55.5c-0.765-0.923-1.882-1.44-3.102-1.445c-1.199,0.007-2.331,0.552-3.085,1.482l-44.939,55.5
		c-0.97,1.198-1.165,3.036-0.501,4.428C1.554,62.926,2.958,64,4.5,64h12.522L17.2,95.812c0.012,2.199,1.798,4.071,3.999,4.071
		l56.8,0.117c0,0,0.001,0,0.001,0c1.061,0,2.078-0.609,2.828-1.359c0.75-0.75,1.172-1.956,1.172-3.018V64h13.5
		c1.551,0,2.961-1.085,3.621-2.488S99.568,58.262,98.578,57.068z"/>
</g>
</svg>
