<?xml version="1.0" encoding="utf-8"?>
<!-- Generator: Adobe Illustrator 16.0.0, SVG Export Plug-In . SVG Version: 6.00 Build 0)  -->
<!DOCTYPE svg PUBLIC "-//W3C//DTD SVG 1.1//EN" "http://www.w3.org/Graphics/SVG/1.1/DTD/svg11.dtd">
<svg version="1.1" xmlns="http://www.w3.org/2000/svg" xmlns:xlink="http://www.w3.org/1999/xlink" x="0px" y="0px" width="100px"
	 height="100px" viewBox="0 0 100 100" enable-background="new 0 0 100 100" xml:space="preserve">
<g id="Layer_3">
</g>
<g id="Your_Icon">
</g>
<g id="Layer_4">
	<g>
		<path d="M91.8,15h-84C3.382,15,0,18.478,0,22.896V92.3c0,2.123,0.744,4.009,2.246,5.511C3.746,99.309,5.68,100,7.8,100
			c0.003,0,0.006,0,0.008,0l84.101,0.062c4.414-0.004,8.092-3.435,8.092-7.85V22.896C100,18.478,96.218,15,91.8,15z M92,92.213
			L8,92.3V23h84V92.213z"/>
		<path d="M38.198,84.383c0.547,0.26,1.092,0.388,1.675,0.388c0.903,0,1.777-0.306,2.504-0.897l27.99-22.785
			c0.934-0.76,1.47-1.899,1.47-3.103s-0.544-2.343-1.478-3.103L42.357,32.098c-1.198-0.974-2.765-1.173-4.158-0.51
			S36,33.656,36,35.2v45.57C36,82.314,36.805,83.72,38.198,84.383z M44,43.612l17.663,14.373L44,72.358V43.612z"/>
	</g>
</g>
</svg>
