<?xml version="1.0" encoding="utf-8"?>
<!-- Generator: Adobe Illustrator 16.0.0, SVG Export Plug-In . SVG Version: 6.00 Build 0)  -->
<!DOCTYPE svg PUBLIC "-//W3C//DTD SVG 1.0//EN" "http://www.w3.org/TR/2001/REC-SVG-20010904/DTD/svg10.dtd">
<svg version="1.0" xmlns="http://www.w3.org/2000/svg" xmlns:xlink="http://www.w3.org/1999/xlink" x="0px" y="0px" width="100px"
	 height="100px" viewBox="0 0 100 100" enable-background="new 0 0 100 100" xml:space="preserve">
<g id="Layer_3">
</g>
<g id="Your_Icon">
</g>
<g id="Layer_4">
	<g>
		<path fill="none" d="M84.934,36H43.971c-1.478,0-2.835-0.857-3.529-2.161c-0.695-1.304-0.615-2.906,0.208-4.133
			c0.075-0.123,2.591-4.273-0.262-10.016c-0.231-0.467-0.425-0.669-0.479-0.706c-0.773,0.026-2.423,1.098-3.158,1.808
			c-0.126,0.123-0.261,0.235-0.402,0.34L12.543,38.717c-3.291,3.62-3.75,13.579-3.447,17.919c0.013,0.186,0.013,0.371,0,0.557
			C8.74,62.433,9.41,71.987,12.722,75.3c2.339,2.339,8.746,3.735,17.14,3.735c2.265,0,3.802-0.109,3.817-0.11
			c0.177-0.012,0.359-0.013,0.535-0.003c0.051,0.003,0.634,0.034,1.562,0.034c5.185,0,11.685-0.961,14.379-3.656
			c3.327-3.326,4.122-16.116,3.624-24.137c-0.068-1.102,0.321-2.14,1.077-2.945C55.613,47.414,56.668,47,57.771,47h27.199
			c1.385,0,6-0.447,6-5C90.971,40.231,90.383,36,84.934,36z"/>
		<path d="M84.971,28H49.524c0.489-3,0.303-7.256-1.972-11.836c-2.21-4.451-5.715-5.137-7.607-5.137
			c-4.023,0-7.48,2.848-8.539,3.819L7.516,32.489c-0.16,0.118-0.311,0.245-0.451,0.386c-6.666,6.667-6.13,21.318-5.967,24.04
			C0.935,59.637,0.398,74.29,7.063,80.957c5.024,5.024,15.171,6.078,22.798,6.078c2.036,0,3.555-0.078,4.141-0.114
			c0.331,0.014,0.947,0.035,1.774,0.035c5.242,0,14.817-0.737,20.036-5.956c5.548-5.548,6.196-19,6.104-26h23.054
			c5.628,0,14-3.462,14-13C98.971,31.729,90.599,28,84.971,28z M84.971,47H57.771c-1.104,0-2.158,0.414-2.915,1.218
			c-0.756,0.805-1.146,1.865-1.077,2.966c0.498,8.021-0.297,20.8-3.624,24.126c-2.694,2.695-9.194,3.65-14.379,3.65
			c-0.929,0-1.512-0.033-1.562-0.036c-0.176-0.01-0.358-0.011-0.535,0.001c-0.016,0.001-1.553,0.11-3.817,0.11
			c-8.394,0-14.801-1.397-17.14-3.736C9.41,71.987,8.74,62.433,9.096,57.192c0.013-0.186,0.013-0.371,0-0.557
			c-0.303-4.34,0.156-14.299,3.447-17.919l23.805-17.585c0.142-0.104,0.276-0.218,0.402-0.341c0.735-0.71,2.385-1.785,3.158-1.811
			c0.055,0.037,0.248,0.233,0.479,0.7c2.853,5.743,0.337,9.882,0.262,10.005c-0.823,1.227-0.903,2.851-0.208,4.154
			C41.136,35.143,42.493,36,43.971,36h40.963c5.449,0,6.037,4.231,6.037,6C90.971,46.553,86.355,47,84.971,47z"/>
	</g>
</g>
</svg>
