<?xml version="1.0" encoding="utf-8"?>
<!-- Generator: Adobe Illustrator 15.0.0, SVG Export Plug-In . SVG Version: 6.00 Build 0)  -->
<!DOCTYPE svg PUBLIC "-//W3C//DTD SVG 1.1//EN" "http://www.w3.org/Graphics/SVG/1.1/DTD/svg11.dtd">
<svg version="1.1" id="Layer_1" xmlns="http://www.w3.org/2000/svg" xmlns:xlink="http://www.w3.org/1999/xlink" x="0px" y="0px"
	 width="100px" height="100px" viewBox="0 0 100 100" enable-background="new 0 0 100 100" xml:space="preserve">
<path d="M92,12H8c-4.418,0-8,3.231-8,7.65v72.393c0,4.407,3.564,7.81,7.971,7.825l84,0.132c0.01,0,0.02,0,0.029,0
	c2.116,0,4.146-0.663,5.646-2.158C99.153,96.341,100,94.477,100,92.35v-72.7C100,15.231,96.418,12,92,12z M92,20v16.584
	C74.816,48.758,55.915,62.336,51.754,62.426c-0.273,0.002-2.783,0.035-3.382,0.012C44.299,62.336,25.289,48.791,8,36.581V20H92z
	 M8,92.043V46.361c14.878,10.4,34.897,23.782,39.773,24.057c0.42,0.024,0.94,0.032,1.492,0.032c0.545,0,1.12-0.008,1.659-0.015
	c0.411-0.006,0.787-0.011,1.076-0.011c1.729,0,4.34,0,26.1-14.563c5.135-3.437,10.149-6.896,13.9-9.51V92L8,92.043z"/>
</svg>
