<?xml version="1.0" encoding="utf-8"?>
<!-- Generator: Adobe Illustrator 16.0.0, SVG Export Plug-In . SVG Version: 6.00 Build 0)  -->
<!DOCTYPE svg PUBLIC "-//W3C//DTD SVG 1.0//EN" "http://www.w3.org/TR/2001/REC-SVG-20010904/DTD/svg10.dtd">
<svg version="1.0" xmlns="http://www.w3.org/2000/svg" xmlns:xlink="http://www.w3.org/1999/xlink" x="0px" y="0px" width="100px"
	 height="100px" viewBox="0 0 100 100" enable-background="new 0 0 100 100" xml:space="preserve">
<g id="Layer_3">
</g>
<g id="Your_Icon">
</g>
<g id="Layer_4">
	<path d="M92,11H8c-4.418,0-8,3.231-8,7.65v73.393C0,96.45,3.564,99.984,7.971,100h84c0.01,0,0.02,0,0.029,0
		c2.116,0,4.146-0.663,5.646-2.158C99.153,96.341,100,94.477,100,92.35v-73.7C100,14.231,96.418,11,92,11z M92,19v17.584
		C74.816,48.758,55.915,62.336,51.754,62.426c-0.273,0.002-2.783,0.035-3.382,0.012C44.299,62.336,25.289,48.791,8,36.581V19H92z
		 M8,92.043V46.361c14.878,10.4,34.897,23.782,39.773,24.057c0.42,0.024,0.94,0.032,1.492,0.032c0.545,0,1.12-0.008,1.659-0.015
		c0.411-0.006,0.787-0.011,1.076-0.011c1.729,0,4.34,0,26.1-14.563c5.135-3.437,10.149-6.896,13.9-9.51V92L8,92.043z"/>
</g>
</svg>
