<?xml version="1.0" encoding="utf-8"?>
<!-- Generator: Adobe Illustrator 16.0.0, SVG Export Plug-In . SVG Version: 6.00 Build 0)  -->
<!DOCTYPE svg PUBLIC "-//W3C//DTD SVG 1.1//EN" "http://www.w3.org/Graphics/SVG/1.1/DTD/svg11.dtd">
<svg version="1.1" xmlns="http://www.w3.org/2000/svg" xmlns:xlink="http://www.w3.org/1999/xlink" x="0px" y="0px" width="100px"
	 height="100px" viewBox="0 0 100 100" enable-background="new 0 0 100 100" xml:space="preserve">
<g id="Layer_3" display="none">
	<circle display="inline" fill="none" stroke="#000000" stroke-width="0.25" stroke-miterlimit="10" cx="50" cy="50" r="15.134"/>
	<rect x="6" y="6" display="inline" opacity="0.26" width="88" height="88"/>
	<circle display="inline" fill="none" stroke="#000000" stroke-width="0.25" stroke-miterlimit="10" cx="50" cy="50" r="24"/>
	<circle display="inline" fill="none" stroke="#000000" stroke-width="0.25" stroke-miterlimit="10" cx="50" cy="50" r="31"/>
	<circle display="inline" fill="none" stroke="#000000" stroke-width="0.25" stroke-miterlimit="10" cx="50" cy="50" r="9.134"/>
	<g display="inline">
		<path d="M50,0.25c27.433,0,49.75,22.317,49.75,49.75S77.433,99.75,50,99.75S0.25,77.433,0.25,50S22.567,0.25,50,0.25 M50,0
			C22.389,0,0,22.386,0,50s22.389,50,50,50c27.612,0,50-22.386,50-50S77.612,0,50,0L50,0z"/>
	</g>
</g>
<g id="Your_Icon">
</g>
<g id="Layer_4">
	<path d="M48.012,7c0.86,0,1.735,0.149,2.59,0.464c2.876,1.06,4.716,3.696,4.895,6.571c0.063,1.009-0.079,2.047-0.451,3.056
		c-0.405,1.104-1.044,2.055-1.837,2.815C51.819,21.24,49.951,22,48.01,22c-0.861,0-1.736-0.149-2.591-0.464
		c-3.886-1.432-5.875-5.743-4.445-9.63C42.09,8.877,44.959,7,48.012,7 M48.012,1L48.012,1c-5.63,0-10.721,3.549-12.668,8.831
		c-2.57,6.988,1.02,14.763,8.001,17.335C44.848,27.72,46.417,28,48.01,28c3.504,0,6.826-1.338,9.354-3.767
		c1.463-1.403,2.609-3.159,3.312-5.074c0.653-1.77,0.926-3.623,0.808-5.501c-0.332-5.332-3.789-9.976-8.809-11.824
		C51.173,1.28,49.604,1,48.012,1L48.012,1z"/>
	<path d="M82,68c0.861,0,1.736,0.149,2.592,0.465c3.887,1.431,5.876,5.742,4.443,9.629C87.919,81.122,85.051,83,82,83
		c-0.86,0-1.735-0.149-2.591-0.465c-3.887-1.431-5.876-5.741-4.444-9.629C76.081,69.877,78.948,68.001,82,68 M82.001,62L82.001,62
		c-5.631,0.001-10.721,3.55-12.666,8.832c-1.247,3.385-1.101,7.051,0.41,10.324c1.511,3.274,4.207,5.764,7.592,7.01
		C78.836,88.719,80.406,89,82,89c5.628,0,10.718-3.549,12.665-8.831c1.247-3.384,1.102-7.051-0.409-10.324
		c-1.511-3.275-4.207-5.765-7.592-7.011C85.163,62.281,83.594,62,82.001,62L82.001,62z"/>
	<path d="M48.002,78c0.86,0,1.735,0.149,2.59,0.464c3.887,1.434,5.875,5.743,4.443,9.628C53.92,91.123,51.052,93,48.001,93
		c-0.861,0-1.736-0.149-2.592-0.465c-3.887-1.43-5.877-5.741-4.444-9.627C42.081,79.878,44.95,78,48.002,78 M48.003,72L48.003,72
		c-5.632,0-10.723,3.551-12.668,8.835c-1.247,3.382-1.102,7.048,0.41,10.322s4.208,5.764,7.593,7.009
		C44.837,98.719,46.407,99,48.001,99c5.63,0,10.72-3.551,12.665-8.836c2.572-6.979-1.016-14.754-7.998-17.329
		C51.164,72.28,49.595,72,48.003,72L48.003,72z"/>
	<path d="M16,67c0.861,0,1.736,0.149,2.592,0.465c3.887,1.431,5.876,5.742,4.443,9.629C21.919,80.122,19.051,82,16,82
		c-0.86,0-1.735-0.149-2.591-0.465c-3.886-1.431-5.876-5.741-4.444-9.629C10.081,68.877,12.948,67.001,16,67 M16,61L16,61
		c-5.629,0.001-10.718,3.55-12.665,8.831c-1.247,3.386-1.101,7.052,0.41,10.326c1.512,3.273,4.207,5.763,7.591,7.009
		C12.836,87.719,14.406,88,16,88c5.628,0,10.718-3.549,12.665-8.831c1.247-3.384,1.102-7.051-0.409-10.324
		c-1.511-3.275-4.207-5.765-7.592-7.011C19.163,61.281,17.593,61,16,61L16,61z"/>
	<rect x="45" y="31" width="6" height="38"/>
	<polygon points="85,58 79,58 79,51 55,51 55,45 85,45 	"/>
	<polygon points="18,58 12,58 12,45 41,45 41,51 18,51 	"/>
</g>
</svg>
