<?xml version="1.0" encoding="utf-8"?>
<!-- Generator: Adobe Illustrator 16.0.0, SVG Export Plug-In . SVG Version: 6.00 Build 0)  -->
<!DOCTYPE svg PUBLIC "-//W3C//DTD SVG 1.1//EN" "http://www.w3.org/Graphics/SVG/1.1/DTD/svg11.dtd">
<svg version="1.1" xmlns="http://www.w3.org/2000/svg" xmlns:xlink="http://www.w3.org/1999/xlink" x="0px" y="0px" width="100px"
	 height="100px" viewBox="0 0 100 100" enable-background="new 0 0 100 100" xml:space="preserve">
<g id="Layer_3" display="none">
	<circle display="inline" fill="none" stroke="#000000" stroke-width="0.25" stroke-miterlimit="10" cx="50" cy="50" r="15.134"/>
	<polyline display="inline" opacity="0.26" points="94,6 6,6 6,94 94,94 	"/>
	<circle display="inline" fill="none" stroke="#000000" stroke-width="0.25" stroke-miterlimit="10" cx="50" cy="50" r="24"/>
	<circle display="inline" fill="none" stroke="#000000" stroke-width="0.25" stroke-miterlimit="10" cx="50" cy="50" r="30"/>
	<circle display="inline" fill="none" stroke="#000000" stroke-width="0.25" stroke-miterlimit="10" cx="50" cy="50" r="9.134"/>
	<path display="inline" fill="none" stroke="#000000" stroke-width="0.25" stroke-miterlimit="10" d="M0,50C0,22.386,22.389,0,50,0
		c27.612,0,50,22.386,50,50"/>
	<path display="inline" fill="none" stroke="#000000" stroke-width="0.25" stroke-miterlimit="10" d="M100,50
		c0,27.614-22.388,50-50,50C22.389,100,0,77.614,0,50"/>
</g>
<g id="Your_Icon">
</g>
<g id="Layer_4">
	<path d="M49,43C30.804,43,16,27.159,16,7.688h6C22,23.851,34.112,37,49,37S76,23.851,76,7.688h6C82,27.159,67.196,43,49,43z"/>
	<path d="M34.142,100.011C34.141,99.693,34.028,68.19,34,64.619c-0.032-4.142,1.551-8.046,4.456-10.996
		c2.905-2.949,6.786-4.592,10.928-4.623c0.04,0,0.081,0,0.12,0c8.491,0,15.43,6.874,15.497,15.381
		c0.021,2.815,0.141,35.417,0.141,35.417l-6,0.021c0,0-0.12-32.58-0.141-35.394C58.959,59.214,54.706,55,49.503,55
		c-0.024,0-0.049,0-0.074,0c-2.539,0.02-4.918,1.025-6.699,2.834c-1.78,1.808-2.75,4.2-2.73,6.739
		c0.028,3.583,0.141,35.099,0.142,35.416L34.142,100.011z"/>
	<path d="M49,31c-8.547,0-15.5-6.953-15.5-15.499C33.5,6.954,40.453,0,49,0s15.5,6.954,15.5,15.501C64.5,24.047,57.547,31,49,31z
		 M49,6c-5.238,0-9.5,4.262-9.5,9.501C39.5,20.738,43.762,25,49,25s9.5-4.262,9.5-9.499C58.5,10.262,54.238,6,49,6z"/>
</g>
</svg>
