<?xml version="1.0" encoding="utf-8"?>
<!-- Generator: Adobe Illustrator 16.0.0, SVG Export Plug-In . SVG Version: 6.00 Build 0)  -->
<!DOCTYPE svg PUBLIC "-//W3C//DTD SVG 1.1//EN" "http://www.w3.org/Graphics/SVG/1.1/DTD/svg11.dtd">
<svg version="1.1" xmlns="http://www.w3.org/2000/svg" xmlns:xlink="http://www.w3.org/1999/xlink" x="0px" y="0px" width="100px"
	 height="100px" viewBox="0 0 100 100" enable-background="new 0 0 100 100" xml:space="preserve">
<g id="Layer_3" display="none">
	<g display="inline" opacity="0.31">
		<path d="M92,152c-1.06,0-2.076-0.42-2.826-1.169C88.422,150.08,88,149.062,88,148V92c0-2.209,1.791-4,4-4h56c2.209,0,4,1.791,4,4
			v55.92c0,2.207-1.788,3.997-3.994,4C148.006,151.92,92.002,152,92,152z"/>
		<path d="M148,92v55.92L92,148V92H148 M148,84H92c-4.418,0-8,3.582-8,8v56c0,2.124,0.844,4.16,2.347,5.661
			C87.847,155.159,89.88,156,92,156c0.004,0,0.008,0,0.011,0l56-0.08c4.414-0.006,7.989-3.586,7.989-8V92
			C156,87.582,152.418,84,148,84L148,84z"/>
	</g>
</g>
<g id="Your_Icon">
</g>
<g id="Layer_4">
	<g>
		<path fill="none" d="M66.379,38.379c0-15.466-12.535-28-28-28s-28,12.534-28,28c0,15.46,12.535,28,28,28
			S66.379,53.839,66.379,38.379z"/>
		<path d="M99.621,91.136L69.138,60.652c4.549-6.264,7.241-13.958,7.241-22.273c0-20.953-17.047-38-38-38s-38,17.047-38,38
			s17.047,38,38,38c8.315,0,16.01-2.692,22.273-7.241l30.483,30.483L99.621,91.136z M10.379,38.379c0-15.466,12.535-28,28-28
			s28,12.534,28,28c0,15.46-12.535,28-28,28S10.379,53.839,10.379,38.379z"/>
	</g>
	<polygon points="56,34 43,34 43,21 33,21 33,34 20,34 20,44 33,44 33,57 43,57 43,44 56,44 	"/>
</g>
</svg>
