<?xml version="1.0" encoding="utf-8"?>
<!-- Generator: Adobe Illustrator 16.0.0, SVG Export Plug-In . SVG Version: 6.00 Build 0)  -->
<!DOCTYPE svg PUBLIC "-//W3C//DTD SVG 1.1//EN" "http://www.w3.org/Graphics/SVG/1.1/DTD/svg11.dtd">
<svg version="1.1" xmlns="http://www.w3.org/2000/svg" xmlns:xlink="http://www.w3.org/1999/xlink" x="0px" y="0px" width="100px"
	 height="100px" viewBox="0 0 100 100" enable-background="new 0 0 100 100" xml:space="preserve">
<g id="Layer_3" display="none">
	<circle display="inline" fill="none" stroke="#000000" stroke-width="0.25" stroke-miterlimit="10" cx="50" cy="49.5" r="17.5"/>
	<polyline display="inline" opacity="0.15" points="95,5 5,5 5,95 95,95 	"/>
	<circle display="inline" fill="none" stroke="#000000" stroke-width="0.25" stroke-miterlimit="10" cx="50" cy="50" r="26"/>
	<circle display="inline" fill="none" stroke="#000000" stroke-width="0.25" stroke-miterlimit="10" cx="50" cy="50" r="34"/>
	<circle display="inline" fill="none" stroke="#000000" stroke-width="0.25" stroke-miterlimit="10" cx="50" cy="49.5" r="9"/>
	<path display="inline" fill="none" stroke="#000000" stroke-width="0.25" stroke-miterlimit="10" d="M0,50C0,22.386,22.389,0,50,0
		c27.612,0,50,22.386,50,50"/>
	<path display="inline" fill="none" stroke="#000000" stroke-width="0.25" stroke-miterlimit="10" d="M100,50
		c0,27.614-22.388,50-50,50C22.389,100,0,77.614,0,50"/>
</g>
<g id="Your_Icon">
</g>
<g id="Layer_4">
	<path d="M64.867,40.788L40.825,64.831c-1.562,1.562-4.095,1.562-5.657,0c-1.562-1.562-1.562-4.095,0-5.657L59.21,35.131
		c1.562-1.562,4.095-1.562,5.656,0C66.429,36.693,66.429,39.226,64.867,40.788z"/>
	<path d="M47.869,67.686L34.787,80.768c-3.24,3.24-8.588,3.167-11.951,0.061c-0.174-0.169-1.858-1.85-2.071-2.062
		c-0.534-0.536-1.595-1.599-1.727-1.736c-3.107-3.362-3.047-8.578,0.192-11.818L32.312,52.13c1.562-1.562,1.562-4.095,0-5.657
		s-4.095-1.562-5.656,0L13.574,59.555c-6.289,6.289-6.485,16.325-0.441,22.867c0.09,0.096,1.254,1.262,1.861,1.869
		c0.001,0.001,0.002,0.002,0.004,0.003c0.013,0.013,0.049,0.049,0.096,0.096c0.137,0.137,0.232,0.233,0.257,0.257
		c0.003,0.003,0.003,0.011,0.007,0.014c0.609,0.607,1.943,1.94,2.041,2.03c6.541,6.043,16.756,6.022,23.046-0.267l13.081-13.082
		c1.562-1.562,1.562-4.094,0-5.656C51.963,66.125,49.431,66.124,47.869,67.686z"/>
	<path d="M84.47,15.174c-0.06-0.06-0.122-0.122-0.177-0.177c0,0-0.001,0-0.001-0.001c-0.758-0.758-1.731-1.746-1.878-1.878
		c-6.527-6.036-16.56-5.845-22.851,0.446L46.482,26.646c-1.562,1.562-1.562,4.094,0,5.656c1.562,1.562,4.096,1.562,5.657,0
		L65.22,19.222c3.241-3.241,8.412-3.345,11.742-0.268c0.208,0.199,1.414,1.404,1.869,1.859c0.455,0.456,1.838,1.839,2.036,2.046
		c3.077,3.33,3.149,8.678-0.091,11.919L67.695,47.859c-1.562,1.562-1.561,4.095,0.001,5.657s4.095,1.562,5.656,0l13.081-13.082
		c6.291-6.291,6.307-16.5,0.27-23.028c-0.132-0.146-1.297-1.297-2.055-2.055c0,0-0.001-0.001-0.002-0.001
		C84.591,15.296,84.529,15.233,84.47,15.174z"/>
</g>
</svg>
