<?xml version="1.0" encoding="utf-8"?>
<!-- Generator: Adobe Illustrator 16.0.0, SVG Export Plug-In . SVG Version: 6.00 Build 0)  -->
<!DOCTYPE svg PUBLIC "-//W3C//DTD SVG 1.1//EN" "http://www.w3.org/Graphics/SVG/1.1/DTD/svg11.dtd">
<svg version="1.1" xmlns="http://www.w3.org/2000/svg" xmlns:xlink="http://www.w3.org/1999/xlink" x="0px" y="0px" width="100px"
	 height="100px" viewBox="0 0 100 100" enable-background="new 0 0 100 100" xml:space="preserve">
<g id="Layer_3" display="none">
</g>
<g id="Your_Icon">
</g>
<g id="Layer_4">
	<g>
		<polygon fill="#FFFFFF" points="83.75,74.3 95,74.3 95,34.3 5,34.3 5,74.3 16.25,74.3 		"/>
		<path d="M95,79.3H5c-2.762,0-5-2.239-5-5v-40c0-2.761,2.238-5,5-5h90c2.762,0,5,2.239,5,5v40C100,77.061,97.762,79.3,95,79.3z
			 M10,69.3h80v-30H10V69.3z"/>
	</g>
	<g>
		<polygon fill="#FFFFFF" points="75.5,64.329 75.5,95.229 25.5,95.3 25.5,64.329 		"/>
		<path d="M25.5,100.3c-1.325,0-2.596-0.526-3.533-1.462C21.027,97.9,20.5,96.627,20.5,95.3V64.329c0-2.761,2.238-5,5-5h50
			c2.762,0,5,2.239,5,5v30.9c0,2.759-2.234,4.996-4.993,5l-50,0.071C25.505,100.3,25.502,100.3,25.5,100.3z M30.5,69.329v20.963
			l40-0.057V69.329H30.5z"/>
	</g>
	<g>
		<polygon fill="#FFFFFF" points="76.5,13.8 76.5,33.756 26.5,33.8 26.5,13.8 		"/>
		<path d="M26.5,38.8c-1.325,0-2.597-0.526-3.534-1.463c-0.938-0.938-1.466-2.21-1.466-3.537v-20c0-2.761,2.238-5,5-5h50
			c2.762,0,5,2.239,5,5v19.956c0,2.76-2.236,4.998-4.995,5l-50,0.044C26.503,38.8,26.502,38.8,26.5,38.8z M31.5,18.8v9.996l40-0.035
			V18.8H31.5z"/>
	</g>
	<g>
		<line fill="#FFFFFF" x1="26.3" y1="48.3" x2="26.3" y2="48.3"/>
		<path d="M26.3,48.3"/>
	</g>
</g>
</svg>
