<?xml version="1.0" encoding="utf-8"?>
<!-- Generator: Adobe Illustrator 16.0.0, SVG Export Plug-In . SVG Version: 6.00 Build 0)  -->
<!DOCTYPE svg PUBLIC "-//W3C//DTD SVG 1.1//EN" "http://www.w3.org/Graphics/SVG/1.1/DTD/svg11.dtd">
<svg version="1.1" xmlns="http://www.w3.org/2000/svg" xmlns:xlink="http://www.w3.org/1999/xlink" x="0px" y="0px" width="100px"
	 height="100px" viewBox="0 0 100 100" enable-background="new 0 0 100 100" xml:space="preserve">
<g id="Layer_3" display="none">
	<circle display="inline" fill="none" stroke="#000000" stroke-width="0.25" stroke-miterlimit="10" cx="50" cy="50" r="15.134"/>
	<polyline display="inline" opacity="0.26" points="94,6 6,6 6,94 94,94 	"/>
	<circle display="inline" fill="none" stroke="#000000" stroke-width="0.25" stroke-miterlimit="10" cx="50" cy="50" r="24"/>
	<circle display="inline" fill="none" stroke="#000000" stroke-width="0.25" stroke-miterlimit="10" cx="50" cy="50" r="30"/>
	<circle display="inline" fill="none" stroke="#000000" stroke-width="0.25" stroke-miterlimit="10" cx="50" cy="50" r="9.134"/>
	<path display="inline" fill="none" stroke="#000000" stroke-width="0.25" stroke-miterlimit="10" d="M0,50C0,22.386,22.389,0,50,0
		c27.612,0,50,22.386,50,50"/>
	<path display="inline" fill="none" stroke="#000000" stroke-width="0.25" stroke-miterlimit="10" d="M100,50
		c0,27.614-22.388,50-50,50C22.389,100,0,77.614,0,50"/>
</g>
<g id="Your_Icon">
</g>
<g id="Layer_4">
	<path d="M54.772,98.971c-1.39,0-2.405-0.048-2.823-0.071c-0.418,0.023-1.434,0.071-2.823,0.071c-6.737,0-15.765-0.997-20.511-5.743
		l-0.292-0.339L10.396,68.623l-0.108-0.208c-0.225-0.432-2.156-4.333-0.825-8.418c0.787-2.417,2.568-4.372,5.151-5.654
		c2.794-1.388,5.407-2.091,7.766-2.091c0.559,0,1.082,0.039,1.568,0.107v-34.33c0-5.226,3.462-13,13-13c8.804,0,12,7.774,12,13
		v22.092c0.545-0.009,1.147-0.015,1.796-0.015c8.555,0,19.757,1.004,24.539,5.787c6.148,6.147,5.787,18.865,5.671,21.113
		c0.186,2.741,1.024,19.526-5.671,26.221C70.538,97.974,61.51,98.97,54.772,98.971z M51.949,92.887l0.209,0.014
		c0.008,0.001,1.033,0.07,2.614,0.07c7.691-0.001,13.773-1.49,16.27-3.985c3.734-3.734,4.384-15.314,3.915-21.736l-0.015-0.2
		l0.013-0.202c0.198-3.359-0.118-12.916-3.913-16.711c-2.523-2.523-10.11-4.029-20.297-4.029c-2.738,0-4.589,0.114-4.608,0.115
		l-3.188,0.2V18.029c-0.013-1.155-0.364-7-6-7c-6.569,0-6.984,5.848-7,7.021v50.188l-5.377-9.362
		c-0.188-0.161-0.846-0.624-2.191-0.624c-1.405,0-3.168,0.506-5.097,1.464c-1.129,0.561-1.818,1.253-2.107,2.114
		c-0.441,1.316,0.052,2.939,0.361,3.653l17.465,23.642c2.58,2.411,8.577,3.846,16.124,3.846c1.581,0,2.606-0.069,2.616-0.07
		L51.949,92.887z"/>
</g>
</svg>
