<?xml version="1.0" encoding="utf-8"?>
<!-- Generator: Adobe Illustrator 16.0.0, SVG Export Plug-In . SVG Version: 6.00 Build 0)  -->
<!DOCTYPE svg PUBLIC "-//W3C//DTD SVG 1.1//EN" "http://www.w3.org/Graphics/SVG/1.1/DTD/svg11.dtd">
<svg version="1.1" xmlns="http://www.w3.org/2000/svg" xmlns:xlink="http://www.w3.org/1999/xlink" x="0px" y="0px" width="100px"
	 height="100px" viewBox="0 0 100 100" enable-background="new 0 0 100 100" xml:space="preserve">
<g id="Layer_3" display="none">
</g>
<g id="Your_Icon">
</g>
<g id="Layer_4">
	<path d="M58.737,99.97c-1.331,0.001-2.324-0.041-2.823-0.067c-0.499,0.026-1.493,0.067-2.823,0.067
		c-7.115,0.001-16.694-1.098-21.925-6.328c-0.176-0.176-0.339-0.364-0.486-0.564L13.062,69.23c-1.23-1.351-4.784-5.756-3.924-10.74
		c0.509-2.954,2.476-5.419,5.538-6.939c3.072-1.525,6.247-2.299,9.437-2.299c0.625,0,1.226,0.03,1.801,0.084V15.029
		c0-6.029,3.995-15,15-15c10.271,0,14,8.971,14,15v22.077c12.881,0.022,21.544,2.166,25.75,6.373
		c6.631,6.631,6.386,19.796,6.259,22.506c0.271,4.038,0.889,20.51-6.26,27.657C75.433,98.872,65.853,99.97,58.737,99.97z
		 M55.916,89.894c0.115,0,0.231,0.004,0.346,0.012c0.004,0.001,0.976,0.065,2.476,0.064c7.066,0,12.758-1.303,14.855-3.399
		c3.049-3.048,3.792-13.842,3.335-20.177c-0.017-0.221-0.018-0.447-0.005-0.668c0.211-3.648-0.325-12.171-3.33-15.176
		c-1.589-1.589-7.487-3.443-18.883-3.443c-2.648,0-4.467,0.11-4.484,0.111c-1.388,0.088-2.729-0.402-3.735-1.348
		c-1.005-0.944-1.576-2.263-1.576-3.643V15.029c-0.037-1.838-0.607-5-4-5c-4.026,0-4.942,2.751-5,5.06v40.94
		c0,1.884-0.975,3.666-2.654,4.518c-1.683,0.854-3.613,0.745-5.133-0.366l0,0c-0.006,0-1.569-0.929-4.014-0.929
		c-1.626,0-3.299,0.419-4.971,1.246c0.283,0.664,0.938,1.612,1.367,2.057c0.152,0.158,0.295,0.326,0.426,0.504l17.523,23.72
		c2.257,1.976,7.803,3.192,14.632,3.191c1.5,0,2.472-0.063,2.481-0.064C55.686,89.897,55.801,89.894,55.916,89.894z"/>
</g>
</svg>
