<?xml version="1.0" encoding="utf-8"?>
<!-- Generator: Adobe Illustrator 16.0.0, SVG Export Plug-In . SVG Version: 6.00 Build 0)  -->
<!DOCTYPE svg PUBLIC "-//W3C//DTD SVG 1.1//EN" "http://www.w3.org/Graphics/SVG/1.1/DTD/svg11.dtd">
<svg version="1.1" xmlns="http://www.w3.org/2000/svg" xmlns:xlink="http://www.w3.org/1999/xlink" x="0px" y="0px" width="100px"
	 height="100px" viewBox="0 0 100 100" enable-background="new 0 0 100 100" xml:space="preserve">
<g id="Layer_3" display="none">
</g>
<g id="Your_Icon">
</g>
<g id="Layer_4">
	<path d="M28.76,92.287c-4.248,0-8.5-1.549-11.871-4.664c-0.115-0.107-1.17-1.161-1.812-1.807l-0.438-0.438
		c-0.033-0.033-2.041-2.042-2.271-2.293c-6.393-6.916-6.18-17.566,0.491-24.236L25.94,45.767l7.07,7.071L19.93,65.919
		c-2.859,2.859-2.951,7.422-0.21,10.388c0.194,0.2,1.866,1.876,1.978,1.987l0.459,0.461c0.52,0.521,1.334,1.338,1.562,1.562
		c2.967,2.702,7.501,2.598,10.348-0.248l13.082-13.081l7.07,7.071L41.137,87.14C37.713,90.564,33.238,92.287,28.76,92.287z"/>
	<rect x="45.01" y="27.983" transform="matrix(0.7071 0.7071 -0.7071 0.7071 49.9908 -20.7226)" width="10" height="44"/>
	<path d="M74.061,54.218l-7.072-7.07L80.07,34.064c2.858-2.859,2.95-7.421,0.209-10.386c-0.162-0.165-1.295-1.292-1.768-1.763
		l-0.219-0.217c-0.106-0.107-1.684-1.683-2.008-1.998c-3.006-2.721-7.527-2.61-10.365,0.229L52.838,33.012l-7.072-7.071
		l13.083-13.082c6.671-6.671,17.321-6.883,24.246-0.482c0.032,0.029,0.201,0.182,2.271,2.25l0.201,0.201
		c1.908,1.9,1.968,1.964,2.085,2.094c6.372,6.891,6.161,17.542-0.511,24.213L74.061,54.218z"/>
</g>
</svg>
