<?xml version="1.0" encoding="utf-8"?>
<!-- Generator: Adobe Illustrator 16.0.0, SVG Export Plug-In . SVG Version: 6.00 Build 0)  -->
<!DOCTYPE svg PUBLIC "-//W3C//DTD SVG 1.0//EN" "http://www.w3.org/TR/2001/REC-SVG-20010904/DTD/svg10.dtd">
<svg version="1.0" xmlns="http://www.w3.org/2000/svg" xmlns:xlink="http://www.w3.org/1999/xlink" x="0px" y="0px" width="100px"
	 height="100px" viewBox="0 0 100 100" enable-background="new 0 0 100 100" xml:space="preserve">
<g id="Layer_3">
</g>
<g id="Your_Icon">
</g>
<g id="Layer_4">
	<g>
		<path fill="none" d="M8,92h84V19H8V92z M27.299,27.3c5.251,0,9.501,4.253,9.501,9.5s-4.252,9.5-9.501,9.5
			c-5.236,0-9.499-4.253-9.499-9.5S22.062,27.3,27.299,27.3z M17.867,77.28l25.5-27.5c1.369-1.478,3.621-1.706,5.258-0.535
			l11.721,8.372l15.617-18.22c1.089-1.271,2.854-1.729,4.425-1.148C81.958,38.829,83,40.326,83,42v38c0,2.209-1.791,4-4,4H20.8
			c-1.59,0-3.03-0.942-3.666-2.4S16.785,78.446,17.867,77.28z"/>
		<path d="M20.8,84H79c2.209,0,4-1.791,4-4V42c0-1.674-1.042-3.171-2.612-3.751c-1.57-0.58-3.335-0.123-4.425,1.148l-15.617,18.22
			l-11.721-8.372c-1.637-1.171-3.889-0.942-5.258,0.535l-25.5,27.5c-1.082,1.166-1.369,2.862-0.733,4.32S19.209,84,20.8,84z
			 M46.839,57.801l11.836,8.454c1.685,1.204,4.013,0.922,5.362-0.652L75,52.813V76H29.964L46.839,57.801z"/>
		<g>
			<path d="M28.299,46.3c5.249,0,9.501-4.253,9.501-9.5s-4.25-9.5-9.501-9.5c-5.236,0-9.499,4.253-9.499,9.5
				S23.062,46.3,28.299,46.3z"/>
		</g>
		<path d="M92,11H8c-4.418,0-8,3.582-8,8v73c0,4.418,3.582,8,8,8h84c4.418,0,8-3.582,8-8V19C100,14.582,96.418,11,92,11z M92,92H8
			V19h84V92z"/>
	</g>
</g>
</svg>
