<?xml version="1.0" encoding="utf-8"?>
<!-- Generator: Adobe Illustrator 16.0.0, SVG Export Plug-In . SVG Version: 6.00 Build 0)  -->
<!DOCTYPE svg PUBLIC "-//W3C//DTD SVG 1.1//EN" "http://www.w3.org/Graphics/SVG/1.1/DTD/svg11.dtd">
<svg version="1.1" xmlns="http://www.w3.org/2000/svg" xmlns:xlink="http://www.w3.org/1999/xlink" x="0px" y="0px" width="100px"
	 height="100px" viewBox="0 0 100 100" enable-background="new 0 0 100 100" xml:space="preserve">
<g id="Layer_3" display="none">
	<circle display="inline" fill="none" stroke="#000000" stroke-width="0.25" stroke-miterlimit="10" cx="48" cy="46" r="24"/>
	<g display="inline">
		<path d="M50,0.25c27.433,0,49.75,22.317,49.75,49.75S77.433,99.75,50,99.75S0.25,77.433,0.25,50S22.567,0.25,50,0.25 M50,0
			C22.389,0,0,22.386,0,50s22.389,50,50,50c27.612,0,50-22.386,50-50S77.612,0,50,0L50,0z"/>
	</g>
	<circle display="inline" fill="none" stroke="#000000" stroke-width="0.25" stroke-miterlimit="10" cx="52" cy="53" r="24"/>
</g>
<g id="Your_Icon">
</g>
<g id="Layer_4">
	<path fill="none" stroke="#000000" stroke-width="6" stroke-miterlimit="10" d="M37.5,39"/>
	<polygon points="39,46 11,46 11,18 17,18 17,40 39,40 	"/>
	<path fill="none" stroke="#000000" stroke-width="6" stroke-miterlimit="10" d="M18.567,58.77"/>
	<path d="M73.267,47.2c-0.187-2.793-0.812-5.542-1.855-8.171C65.916,25.201,50.192,18.42,36.36,23.916
		c-8.388,3.335-14.528,10.603-16.428,19.44l-5.865-1.26c2.319-10.799,9.825-19.68,20.076-23.757
		c16.904-6.717,36.125,1.567,42.844,18.474c1.275,3.21,2.037,6.569,2.266,9.986L73.267,47.2z"/>
	<path fill="none" stroke="#000000" stroke-width="6" stroke-miterlimit="10" d="M60.76,63"/>
	<polygon points="89,82 83,82 83,60 61,60 61,54 89,54 	"/>
	<path fill="none" stroke="#000000" stroke-width="6" stroke-miterlimit="10" d="M79.692,43.23"/>
	<path d="M53.711,83.993c-13.126,0-25.563-7.886-30.698-20.807c-1.275-3.21-2.037-6.569-2.266-9.986l5.986-0.4
		c0.187,2.793,0.812,5.542,1.855,8.171C34.085,74.8,49.812,81.584,63.64,76.084c8.388-3.335,14.528-10.603,16.428-19.44l5.865,1.26
		c-2.319,10.799-9.825,19.68-20.076,23.757C61.872,83.243,57.759,83.993,53.711,83.993z"/>
</g>
</svg>
