<?xml version="1.0" encoding="utf-8"?>
<!-- Generator: Adobe Illustrator 16.0.0, SVG Export Plug-In . SVG Version: 6.00 Build 0)  -->
<!DOCTYPE svg PUBLIC "-//W3C//DTD SVG 1.0//EN" "http://www.w3.org/TR/2001/REC-SVG-20010904/DTD/svg10.dtd">
<svg version="1.0" xmlns="http://www.w3.org/2000/svg" xmlns:xlink="http://www.w3.org/1999/xlink" x="0px" y="0px" width="100px"
	 height="100px" viewBox="0 0 100 100" enable-background="new 0 0 100 100" xml:space="preserve">
<g id="Layer_3">
</g>
<g id="Your_Icon">
</g>
<g id="Layer_4">
	<g>
		<path d="M82.676,67.324C85.122,66.767,87,66.977,90,67.782V38.063c-3,0.88-6,0.817-8-0.062v28.971L63.607,48.886
			c-2.379,1.736-5.495,2.652-8.657,2.349c-1.694-0.16-3.337-0.655-4.751-1.407L38.895,75.284L20.529,26.248
			c-2.366,1.605-5.097,2.286-7.752,2.128L31.092,77.33c2.544-1.542,5.634-2.199,8.786-1.602c2.396,0.452,4.493,1.57,6.159,3.115
			l11.037-24.927l18.269,18.087C77.056,69.72,79.675,68.005,82.676,67.324z"/>
		<g>
			<circle cx="85.603" cy="26.205" r="9.996"/>
		</g>
		<g>
			<path d="M83.083,69.859c-5.382,1.222-8.751,6.579-7.529,11.964c1.229,5.38,6.585,8.752,11.969,7.526
				c5.384-1.224,8.755-6.581,7.529-11.966C93.824,72.002,88.469,68.632,83.083,69.859z"/>
		</g>
		<g>
			<path d="M55.055,48.746c5.499,0.526,10.377-3.509,10.9-9.003c0.52-5.499-3.513-10.376-9.012-10.896
				c-5.497-0.525-10.374,3.509-10.898,9.002C45.525,43.345,49.559,48.224,55.055,48.746z"/>
		</g>
		<g>
			<path d="M39.413,78.086c-5.426-1.028-10.652,2.539-11.682,7.965c-1.021,5.424,2.543,10.656,7.969,11.68
				c5.426,1.028,10.655-2.541,11.682-7.967C48.403,84.34,44.841,79.109,39.413,78.086z"/>
		</g>
		<g>
			<path d="M21.52,10.308C18.375,5.767,12.146,4.64,7.605,7.787c-4.539,3.151-5.664,9.377-2.52,13.916
				c3.146,4.542,9.378,5.668,13.916,2.521C23.539,21.075,24.668,14.846,21.52,10.308z"/>
		</g>
	</g>
</g>
</svg>
