<?xml version="1.0" encoding="utf-8"?>
<!-- Generator: Adobe Illustrator 16.0.0, SVG Export Plug-In . SVG Version: 6.00 Build 0)  -->
<!DOCTYPE svg PUBLIC "-//W3C//DTD SVG 1.0//EN" "http://www.w3.org/TR/2001/REC-SVG-20010904/DTD/svg10.dtd">
<svg version="1.0" xmlns="http://www.w3.org/2000/svg" xmlns:xlink="http://www.w3.org/1999/xlink" x="0px" y="0px" width="100px"
	 height="100px" viewBox="0 0 100 100" enable-background="new 0 0 100 100" xml:space="preserve">
<g id="Layer_3">
</g>
<g id="Your_Icon">
</g>
<g id="Layer_4">
	<path d="M15,100.413c-1.061,0-2.077-0.421-2.827-1.17C11.422,98.493,11,97.475,11,96.413v-43c0-2.209,1.791-4,4-4h72
		c2.209,0,4,1.791,4,4v42.935c0,2.208-1.789,3.998-3.996,4l-72,0.065C15.002,100.413,15.001,100.413,15,100.413z M19,57.413V92.41
		l64-0.058V57.413H19z"/>
	<path d="M27,47.237h-8V34.55C19,17.87,33.355,4.3,51,4.3c17.944,0,32,12.826,32,29.2v4h-8v-4c0-11.888-10.542-21.2-24-21.2
		c-13.233,0-24,9.981-24,22.25V47.237z"/>
</g>
</svg>
