<?xml version="1.0" encoding="utf-8"?>
<!-- Generator: Adobe Illustrator 16.0.0, SVG Export Plug-In . SVG Version: 6.00 Build 0)  -->
<!DOCTYPE svg PUBLIC "-//W3C//DTD SVG 1.1//EN" "http://www.w3.org/Graphics/SVG/1.1/DTD/svg11.dtd">
<svg version="1.1" xmlns="http://www.w3.org/2000/svg" xmlns:xlink="http://www.w3.org/1999/xlink" x="0px" y="0px" width="100px"
	 height="100px" viewBox="0 0 100 100" enable-background="new 0 0 100 100" xml:space="preserve">
<g id="Layer_3" display="none">
	<polyline display="inline" opacity="0.15" points="165,75.5 75,75.5 75,165.5 165,165.5 	"/>
</g>
<g id="Your_Icon">
</g>
<g id="Layer_4">
	<g>
		<path d="M96.94,43.922c-0.238-0.312-5.941-7.729-13.869-15.2C71.129,17.47,60.639,12,51,12c-9.514,0-20.253,5.398-32.832,16.504
			C9.77,35.918,3.59,43.273,3.331,43.582c-3.108,3.715-3.108,9.121,0,12.836c0.259,0.309,6.438,7.664,14.837,15.078
			C30.747,82.602,41.486,88,51,88c9.639,0,20.129-5.47,32.071-16.722c7.928-7.471,13.631-14.888,13.869-15.2
			C99.687,52.491,99.687,47.509,96.94,43.922z M51.5,60c-5.522,0-10-4.479-10-9.999C41.5,44.477,45.978,40,51.5,40
			s10,4.477,10,10.001C61.5,55.521,57.022,60,51.5,60z"/>
	</g>
</g>
</svg>
