<?xml version="1.0" encoding="utf-8"?>
<!-- Generator: Adobe Illustrator 16.0.0, SVG Export Plug-In . SVG Version: 6.00 Build 0)  -->
<!DOCTYPE svg PUBLIC "-//W3C//DTD SVG 1.1//EN" "http://www.w3.org/Graphics/SVG/1.1/DTD/svg11.dtd">
<svg version="1.1" xmlns="http://www.w3.org/2000/svg" xmlns:xlink="http://www.w3.org/1999/xlink" x="0px" y="0px" width="100px"
	 height="100px" viewBox="0 0 100 100" enable-background="new 0 0 100 100" xml:space="preserve">
<g id="Layer_3" display="none">
	<rect x="6" y="6" display="inline" opacity="0.26" width="88" height="88"/>
	
		<circle display="inline" opacity="0.4" fill="none" stroke="#000000" stroke-width="6" stroke-miterlimit="10" cx="49.5" cy="39.5" r="12.5"/>
</g>
<g id="Your_Icon">
</g>
<g id="Layer_4">
	<rect x="34" y="37" width="32" height="6"/>
	<rect x="47" y="24" width="6" height="32"/>
	<path d="M50,99.278l-2.468-3.573C46.285,93.9,17,51.305,17,34C17,15.804,31.804,1,50,1s33,14.804,33,33
		c0,17.305-29.285,59.9-30.532,61.705L50,99.278z M50,7C35.112,7,23,19.112,23,34c0,11.686,17.662,40.625,27,54.65
		C59.338,74.623,77,45.681,77,34C77,19.112,64.888,7,50,7z"/>
</g>
</svg>
