<?xml version="1.0" encoding="utf-8"?>
<!-- Generator: Adobe Illustrator 16.0.0, SVG Export Plug-In . SVG Version: 6.00 Build 0)  -->
<!DOCTYPE svg PUBLIC "-//W3C//DTD SVG 1.1//EN" "http://www.w3.org/Graphics/SVG/1.1/DTD/svg11.dtd">
<svg version="1.1" xmlns="http://www.w3.org/2000/svg" xmlns:xlink="http://www.w3.org/1999/xlink" x="0px" y="0px" width="100px"
	 height="100px" viewBox="0 0 100 100" enable-background="new 0 0 100 100" xml:space="preserve">
<g id="Layer_3" display="none">
	<circle display="inline" fill="none" stroke="#000000" stroke-width="0.25" stroke-miterlimit="10" cx="50" cy="50" r="15.134"/>
	<rect x="6" y="6" display="inline" opacity="0.26" width="88" height="88"/>
	<circle display="inline" fill="none" stroke="#000000" stroke-width="0.25" stroke-miterlimit="10" cx="50" cy="50" r="24"/>
	<circle display="inline" fill="none" stroke="#000000" stroke-width="0.25" stroke-miterlimit="10" cx="50" cy="50" r="30"/>
	<circle display="inline" fill="none" stroke="#000000" stroke-width="0.25" stroke-miterlimit="10" cx="50" cy="50" r="9.134"/>
	<g display="inline">
		<path d="M50,0.25c27.432,0,49.75,22.317,49.75,49.75S77.432,99.75,50,99.75S0.25,77.433,0.25,50S22.568,0.25,50,0.25 M50,0
			C22.389,0,0,22.386,0,50s22.389,50,50,50c27.612,0,50-22.386,50-50S77.612,0,50,0L50,0z"/>
	</g>
</g>
<g id="Your_Icon">
</g>
<g id="Layer_4">
	<path d="M0,83.003V17h100v65.912L0,83.003z M6,23v53.997l88-0.079V23H6z"/>
	<polygon points="23.744,72.742 19.756,68.258 55.663,36.326 55.691,55.526 82,48.025 82,72 76,72 76,55.975 49.703,63.474 
		49.683,49.674 	"/>
	<path d="M27.999,51C23.037,51,19,46.963,19,42s4.037-9,8.999-9C32.962,33,37,37.037,37,42S32.962,51,27.999,51z M27.999,39
		C26.345,39,25,40.346,25,42s1.345,3,2.999,3C29.654,45,31,43.654,31,42S29.654,39,27.999,39z"/>
</g>
</svg>
