<?xml version="1.0" encoding="utf-8"?>
<!-- Generator: Adobe Illustrator 16.0.0, SVG Export Plug-In . SVG Version: 6.00 Build 0)  -->
<!DOCTYPE svg PUBLIC "-//W3C//DTD SVG 1.1//EN" "http://www.w3.org/Graphics/SVG/1.1/DTD/svg11.dtd">
<svg version="1.1" xmlns="http://www.w3.org/2000/svg" xmlns:xlink="http://www.w3.org/1999/xlink" x="0px" y="0px" width="100px"
	 height="100px" viewBox="0 0 100 100" enable-background="new 0 0 100 100" xml:space="preserve">
<g id="Layer_3" display="none">
	<circle display="inline" fill="none" stroke="#000000" stroke-width="0.25" stroke-miterlimit="10" cx="50" cy="50" r="15.134"/>
	<rect x="6" y="6" display="inline" opacity="0.26" width="88" height="88"/>
	<circle display="inline" fill="none" stroke="#000000" stroke-width="0.25" stroke-miterlimit="10" cx="50" cy="50" r="24"/>
	<circle display="inline" fill="none" stroke="#000000" stroke-width="0.25" stroke-miterlimit="10" cx="50" cy="50" r="30"/>
	<circle display="inline" fill="none" stroke="#000000" stroke-width="0.25" stroke-miterlimit="10" cx="50" cy="50" r="9.134"/>
	<g display="inline">
		<path d="M50,0.25c27.432,0,49.75,22.317,49.75,49.75S77.432,99.75,50,99.75S0.25,77.433,0.25,50S22.568,0.25,50,0.25 M50,0
			C22.389,0,0,22.386,0,50s22.389,50,50,50c27.612,0,50-22.386,50-50S77.612,0,50,0L50,0z"/>
	</g>
</g>
<g id="Your_Icon">
</g>
<g id="Layer_4">
	<path d="M47.111,100c-0.587,0-1.024-0.004-1.066-0.006c-6.101-0.24-12.92-5.319-12.92-12.223V71.968
		c-2.167-3.644-6.726-11.062-8.841-13.424c-5.338-5.964-8.159-13.803-8.159-22.67c0-18.748,15.252-34,34-34
		c18.61,0,33.75,15.252,33.75,34c0,8.198-3.164,16.249-8.908,22.668c-1.995,2.229-7.259,9.786-9.842,13.564v15.66
		c0,6.481-5.409,11.964-12.058,12.223c-0.187,0.009-2.024,0.01-3.101,0.01L47.111,100z M50.125,9.874c-14.336,0-26,11.663-26,26
		c0,6.867,2.116,12.861,6.12,17.334c3.266,3.648,9.617,14.426,10.331,15.643c0.36,0.614,0.549,1.312,0.549,2.023v16.897
		c0,1.955,2.7,4.129,5.253,4.229l3.327-0.002L50.038,92c0.034-0.001,2.49-0.002,2.789-0.007c2.298-0.09,4.298-2.026,4.298-4.227
		V70.874c0-0.8,0.24-1.582,0.689-2.244c0.835-1.231,8.242-12.128,11.192-15.424c4.43-4.949,6.869-11.104,6.869-17.332
		C75.875,21.537,64.324,9.874,50.125,9.874z"/>
	<path d="M51,78.767h-4c-2.209,0-4-1.791-4-4s1.791-4,4-4h4c2.209,0,4,1.791,4,4S53.209,78.767,51,78.767z"/>
</g>
</svg>
