<?xml version="1.0" encoding="utf-8"?>
<!-- Generator: Adobe Illustrator 16.0.0, SVG Export Plug-In . SVG Version: 6.00 Build 0)  -->
<!DOCTYPE svg PUBLIC "-//W3C//DTD SVG 1.1//EN" "http://www.w3.org/Graphics/SVG/1.1/DTD/svg11.dtd">
<svg version="1.1" xmlns="http://www.w3.org/2000/svg" xmlns:xlink="http://www.w3.org/1999/xlink" x="0px" y="0px" width="100px"
	 height="100px" viewBox="0 0 100 100" enable-background="new 0 0 100 100" xml:space="preserve">
<g id="Layer_3" display="none">
</g>
<g id="Your_Icon">
</g>
<g id="Layer_4">
	<path d="M71.501,100c-1.41,0-2.788-0.598-3.756-1.699L49.98,78.094L32.238,98.066c-1.38,1.553-3.574,2.089-5.515,1.354
		c-1.94-0.737-3.224-2.598-3.224-4.674V5c0-2.762,2.238-5,5-5h43c2.762,0,5,2.238,5,5v90c0,2.081-1.289,3.944-3.236,4.679
		C72.689,99.896,72.092,100,71.501,100z M50,65.543c0.004,0,0.009,0,0.013,0c1.434,0.004,2.796,0.622,3.742,1.699L66.5,81.739V10
		h-33v71.589l12.762-14.366C47.211,66.154,48.571,65.543,50,65.543z"/>
</g>
</svg>
