<?xml version="1.0" encoding="utf-8"?>
<!-- Generator: Adobe Illustrator 16.0.0, SVG Export Plug-In . SVG Version: 6.00 Build 0)  -->
<!DOCTYPE svg PUBLIC "-//W3C//DTD SVG 1.1//EN" "http://www.w3.org/Graphics/SVG/1.1/DTD/svg11.dtd">
<svg version="1.1" xmlns="http://www.w3.org/2000/svg" xmlns:xlink="http://www.w3.org/1999/xlink" x="0px" y="0px" width="100px"
	 height="100px" viewBox="0 0 100 100" enable-background="new 0 0 100 100" xml:space="preserve">
<g id="Layer_3" display="none">
	<path display="inline" fill="none" stroke="#000000" stroke-width="0.25" stroke-miterlimit="10" d="M-2,73.89
		C18.83,92.019,50.414,89.828,68.541,69c18.128-20.828,15.94-52.412-4.89-70.542"/>
	<polyline display="inline" opacity="0.15" points="95,5.5 5,5.5 5,95.5 95,95.5 	"/>
	<path display="inline" fill="none" stroke="#000000" stroke-width="0.25" stroke-miterlimit="10" d="M99.992-20.595
		C100.321,7.018,78.2,29.668,50.59,29.996C22.98,30.323,0.328,8.206,0-19.406"/>
	<path display="inline" fill="none" stroke="#000000" stroke-width="0.25" stroke-miterlimit="10" d="M101.826,73.716
		c-20.83,18.129-52.414,15.938-70.541-4.89c-18.128-20.828-15.94-52.412,4.89-70.542"/>
</g>
<g id="Your_Icon">
	<g>
		<g opacity="0.6">
			<path d="M52.382,32.156C52.274,32.364,52.148,32.642,52,33c0.141-0.308,0.264-0.556,0.379-0.775
				C52.38,32.203,52.381,32.179,52.382,32.156z"/>
		</g>
		<g>
			<path d="M92,27c-1.607-1.365-7.542,0.261-9.415,0.82C95.552,23.851,89,17,89,17c-2.81,4.903-3.355,5.552-7.764,7.875
				c-2.269-5.402-7.607-9.197-13.836-9.197c-8.283,0-14.585,6.726-14.999,15C52.393,30.851,51.743,31.147,52,32c0,0-14,5-37-15
				c0,0-6,19,8,22c1.567,0.336-11,1-11,1s2,13,11,12c2.223-0.247-8,4-8,4s7.902,19.807,18.768,16.074C24.556,81.003,8,81,8,81
				c13,12,41.896,7.745,54.401-1.37C88.401,60.678,83,34,83,34C83,33.684,92.238,27.202,92,27z"/>
		</g>
	</g>
</g>
<g id="Layer_4">
</g>
</svg>
