<?xml version="1.0" encoding="utf-8"?>
<!-- Generator: Adobe Illustrator 16.0.0, SVG Export Plug-In . SVG Version: 6.00 Build 0)  -->
<!DOCTYPE svg PUBLIC "-//W3C//DTD SVG 1.1//EN" "http://www.w3.org/Graphics/SVG/1.1/DTD/svg11.dtd">
<svg version="1.1" xmlns="http://www.w3.org/2000/svg" xmlns:xlink="http://www.w3.org/1999/xlink" x="0px" y="0px" width="100px"
	 height="100px" viewBox="0 0 100 100" enable-background="new 0 0 100 100" xml:space="preserve">
<g id="Layer_3">
</g>
<g id="Your_Icon">
</g>
<g id="Layer_4">
	<path d="M50,29.5c5.248,0,9.5,4.252,9.5,9.5s-4.252,9.5-9.5,9.5c-5.245,0-9.5-4.252-9.5-9.5S44.755,29.5,50,29.5 M50,21.5
		c-9.649,0-17.5,7.851-17.5,17.5S40.351,56.5,50,56.5S67.5,48.649,67.5,39S59.649,21.5,50,21.5L50,21.5z"/>
	<path d="M50,10c15.465,0,28,13.431,28,30c0,16.568-28,48-28,48S22,56.568,22,40C22,23.431,34.535,10,50,10 M50,2
		C30.149,2,14,19.047,14,40c0,8.675,5.058,20.065,15.461,34.823c7.18,10.184,14.267,18.164,14.565,18.499
		C45.544,95.025,47.718,96,50,96s4.456-0.975,5.974-2.679c0.298-0.334,7.385-8.315,14.565-18.499C80.942,60.065,86,48.675,86,40
		C86,19.047,69.851,2,50,2L50,2z"/>
</g>
</svg>
