<?xml version="1.0" encoding="utf-8"?>
<!-- Generator: Adobe Illustrator 16.0.0, SVG Export Plug-In . SVG Version: 6.00 Build 0)  -->
<!DOCTYPE svg PUBLIC "-//W3C//DTD SVG 1.1//EN" "http://www.w3.org/Graphics/SVG/1.1/DTD/svg11.dtd">
<svg version="1.1" xmlns="http://www.w3.org/2000/svg" xmlns:xlink="http://www.w3.org/1999/xlink" x="0px" y="0px" width="100px"
	 height="100px" viewBox="0 0 100 100" enable-background="new 0 0 100 100" xml:space="preserve">
<g id="Layer_3" display="none">
	<circle display="inline" fill="none" stroke="#000000" stroke-width="0.25" stroke-miterlimit="10" cx="50" cy="50" r="15.134"/>
	<polyline display="inline" opacity="0.26" points="94,6 6,6 6,94 94,94 	"/>
	<circle display="inline" fill="none" stroke="#000000" stroke-width="0.25" stroke-miterlimit="10" cx="50" cy="50" r="24"/>
	<circle display="inline" fill="none" stroke="#000000" stroke-width="0.25" stroke-miterlimit="10" cx="50" cy="50" r="30"/>
	<circle display="inline" fill="none" stroke="#000000" stroke-width="0.25" stroke-miterlimit="10" cx="50" cy="50" r="9.134"/>
	<path display="inline" fill="none" stroke="#000000" stroke-width="0.25" stroke-miterlimit="10" d="M0,50C0,22.386,22.389,0,50,0
		c27.612,0,50,22.386,50,50"/>
	<path display="inline" fill="none" stroke="#000000" stroke-width="0.25" stroke-miterlimit="10" d="M100,50
		c0,27.614-22.388,50-50,50C22.389,100,0,77.614,0,50"/>
</g>
<g id="Your_Icon">
</g>
<g id="Layer_4">
	<path d="M50,67c-2.209,0-4-1.791-4-4V40c0-2.209,1.791-4,4-4s4,1.791,4,4v23C54,65.209,52.209,67,50,67z"/>
	<path d="M50,79.5c-2.209,0-4-1.791-4-4v-1c0-2.209,1.791-4,4-4s4,1.791,4,4v1C54,77.709,52.209,79.5,50,79.5z"/>
	<path d="M96,100.012H4c-1.387,0-2.675-0.719-3.404-1.899s-0.793-2.654-0.171-3.894l46-91.691C47.103,1.174,48.487,0.32,50,0.32
		s2.897,0.854,3.575,2.207l46,91.691c0.622,1.24,0.557,2.713-0.171,3.894S97.387,100.012,96,100.012z M10.482,92.012h79.036
		L50,13.241L10.482,92.012z"/>
</g>
</svg>
