<?xml version="1.0" encoding="utf-8"?>
<!-- Generator: Adobe Illustrator 16.0.0, SVG Export Plug-In . SVG Version: 6.00 Build 0)  -->
<!DOCTYPE svg PUBLIC "-//W3C//DTD SVG 1.1//EN" "http://www.w3.org/Graphics/SVG/1.1/DTD/svg11.dtd">
<svg version="1.1" xmlns="http://www.w3.org/2000/svg" xmlns:xlink="http://www.w3.org/1999/xlink" x="0px" y="0px" width="100px"
	 height="100px" viewBox="0 0 100 100" enable-background="new 0 0 100 100" xml:space="preserve">
<g id="Layer_3" display="none">
	<circle display="inline" fill="none" stroke="#000000" stroke-width="0.25" stroke-miterlimit="10" cx="50" cy="50" r="15.134"/>
	<rect x="6" y="6" display="inline" opacity="0.26" width="88" height="88"/>
	<circle display="inline" fill="none" stroke="#000000" stroke-width="0.25" stroke-miterlimit="10" cx="50" cy="50" r="24"/>
	<circle display="inline" fill="none" stroke="#000000" stroke-width="0.25" stroke-miterlimit="10" cx="50" cy="50" r="30"/>
	<circle display="inline" fill="none" stroke="#000000" stroke-width="0.25" stroke-miterlimit="10" cx="50" cy="50" r="9.134"/>
	<g display="inline">
		<path d="M50,0.25c27.432,0,49.75,22.317,49.75,49.75S77.432,99.75,50,99.75S0.25,77.433,0.25,50S22.568,0.25,50,0.25 M50,0
			C22.389,0,0,22.386,0,50s22.389,50,50,50c27.612,0,50-22.386,50-50S77.612,0,50,0L50,0z"/>
	</g>
</g>
<g id="Your_Icon">
</g>
<g id="Layer_4">
	<path d="M47.425,99c-0.527,0-0.921-0.111-0.961-0.113C40.256,98.643,35,93.396,35,87.556V73.869
		c-2.291-3.604-7.364-11.373-9.596-13.866C19.985,53.948,17,46.134,17,38C17,19.804,31.804,5,50,5s33,14.804,33,33
		c0,8.133-2.984,15.945-8.403,22.001C72.54,62.299,67.356,70.199,65,73.876v13.675c0,5.842-5.253,11.09-11.471,11.332
		C53.332,98.892,50.423,99,50.092,99H47.425z M50,11c-14.888,0-27,12.112-27,27c0,6.655,2.441,13.048,6.875,18.001
		c3.224,3.603,10.361,14.921,10.664,15.4L41,72.134v15.422C41,90.175,43.723,93,46.713,93c0.027,0,0.327,0,0.711,0h2.417h0.304
		c0.052,0,2.911-0.111,3.199-0.115C56.281,92.77,59,90.171,59,87.551V72.127l0.468-0.736c0.782-1.229,7.723-12.112,10.658-15.392
		C74.559,51.046,77,44.654,77,38C77,23.112,64.888,11,50,11z"/>
	<rect x="45" y="72" width="10" height="6"/>
</g>
</svg>
