<?xml version="1.0" encoding="utf-8"?>
<!-- Generator: Adobe Illustrator 16.0.0, SVG Export Plug-In . SVG Version: 6.00 Build 0)  -->
<!DOCTYPE svg PUBLIC "-//W3C//DTD SVG 1.1//EN" "http://www.w3.org/Graphics/SVG/1.1/DTD/svg11.dtd">
<svg version="1.1" xmlns="http://www.w3.org/2000/svg" xmlns:xlink="http://www.w3.org/1999/xlink" x="0px" y="0px" width="100px"
	 height="100px" viewBox="0 0 100 100" enable-background="new 0 0 100 100" xml:space="preserve">
<g id="Layer_3" display="none">
	<circle display="inline" fill="none" stroke="#000000" stroke-width="0.25" stroke-miterlimit="10" cx="50" cy="50" r="15.134"/>
	<polyline display="inline" opacity="0.26" points="94,6 6,6 6,94 94,94 	"/>
	<circle display="inline" fill="none" stroke="#000000" stroke-width="0.25" stroke-miterlimit="10" cx="50" cy="50" r="24"/>
	<circle display="inline" fill="none" stroke="#000000" stroke-width="0.25" stroke-miterlimit="10" cx="50" cy="50" r="30"/>
	<circle display="inline" fill="none" stroke="#000000" stroke-width="0.25" stroke-miterlimit="10" cx="50" cy="50" r="9.134"/>
	<path display="inline" fill="none" stroke="#000000" stroke-width="0.25" stroke-miterlimit="10" d="M0,50C0,22.386,22.389,0,50,0
		c27.612,0,50,22.386,50,50"/>
	<path display="inline" fill="none" stroke="#000000" stroke-width="0.25" stroke-miterlimit="10" d="M100,50
		c0,27.614-22.388,50-50,50C22.389,100,0,77.614,0,50"/>
</g>
<g id="Your_Icon">
</g>
<g id="Layer_4">
	<path d="M51.913,99h-3.637l-0.892-0.971c-1.452-1.582-35.657-38.991-43.611-61.01C0.636,28.335,1.51,19.547,6.171,12.906
		C10.591,6.61,18.035,3,26.595,3c9.958,0,17.931,4.034,23.345,11.739c1.145-1.902,2.604-3.894,4.575-5.708
		C58.862,5.029,64.609,3,71.595,3c9.193,0,17.258,3.977,22.125,10.909c4.635,6.603,5.618,15.025,2.697,23.11
		c-7.955,22.019-42.159,59.428-43.611,61.01L51.913,99z M26.595,9c-6.674,0-12.184,2.611-15.513,7.354
		C7.56,21.372,6.953,28.161,9.416,34.98c6.576,18.2,33.585,49.155,40.679,57.094c7.094-7.939,34.106-38.9,40.679-57.094
		c2.28-6.312,1.583-12.57-1.965-17.624C85.081,12.046,78.806,9,71.595,9c-12.434,0-16.138,7.707-18.589,12.807l-2.911,6.032
		l-2.702-5.598C43.152,13.455,36.154,9,26.595,9z"/>
</g>
</svg>
