<?xml version="1.0" encoding="utf-8"?>
<!-- Generator: Adobe Illustrator 16.0.0, SVG Export Plug-In . SVG Version: 6.00 Build 0)  -->
<!DOCTYPE svg PUBLIC "-//W3C//DTD SVG 1.1//EN" "http://www.w3.org/Graphics/SVG/1.1/DTD/svg11.dtd">
<svg version="1.1" xmlns="http://www.w3.org/2000/svg" xmlns:xlink="http://www.w3.org/1999/xlink" x="0px" y="0px" width="100px"
	 height="100px" viewBox="0 0 100 100" enable-background="new 0 0 100 100" xml:space="preserve">
<g id="Layer_3" display="none">
	<circle display="inline" fill="none" stroke="#000000" stroke-width="0.25" stroke-miterlimit="10" cx="50" cy="50" r="15.134"/>
	<polyline display="inline" opacity="0.26" points="94,6 6,6 6,94 94,94 	"/>
	<circle display="inline" fill="none" stroke="#000000" stroke-width="0.25" stroke-miterlimit="10" cx="50" cy="50" r="24"/>
	<circle display="inline" fill="none" stroke="#000000" stroke-width="0.25" stroke-miterlimit="10" cx="50" cy="50" r="30"/>
	<circle display="inline" fill="none" stroke="#000000" stroke-width="0.25" stroke-miterlimit="10" cx="50" cy="50" r="9.134"/>
	<path display="inline" fill="none" stroke="#000000" stroke-width="0.25" stroke-miterlimit="10" d="M0,50C0,22.386,22.389,0,50,0
		c27.612,0,50,22.386,50,50"/>
	<path display="inline" fill="none" stroke="#000000" stroke-width="0.25" stroke-miterlimit="10" d="M100,50
		c0,27.614-22.388,50-50,50C22.389,100,0,77.614,0,50"/>
</g>
<g id="Your_Icon">
</g>
<g id="Layer_4">
	<path d="M62,98H36.877V81.202l-11.689,12.73L7.038,76.501l12.819-13.129c-0.037-0.083-0.073-0.167-0.109-0.249H2V38h17.448
		c0.113-0.322,0.228-0.615,0.345-0.891L8.072,24.751L25.993,7.269l10.884,11.575V2H62v16.975c0.006,0.002,0.011,0.004,0.017,0.006
		L73.809,7.43l17.989,17.465L80.906,36.317c0.246,0.524,0.48,1.076,0.703,1.683H98v25.123H81.312
		c-0.151,0.336-0.308,0.685-0.471,1.039L92.83,76.354L74.604,93.777L62.001,81.043c0,0-0.001,0-0.001,0.001V98z M42.877,92H56
		V76.647l2.077-0.672c0.324-0.104,0.687-0.215,1.065-0.329c0.85-0.258,1.813-0.549,2.381-0.811l1.909-0.878L74.72,85.365
		l9.565-9.144L73.517,65.271l1.053-1.949c0.46-0.852,0.924-1.887,1.334-2.801c0.297-0.663,0.57-1.269,0.807-1.741l0.83-1.656H92V44
		H77.055l-0.572-2.267c-0.483-1.915-1.073-3.075-1.854-4.504l-1.05-1.923l9.773-10.25l-9.525-9.246L63.37,26.055l-1.878-0.866
		c-0.645-0.298-1.758-0.645-2.651-0.924L56,23.358V8H42.877v15.2l-1.885,0.755c-0.723,0.289-1.43,0.648-2.25,1.064l-2.922,1.46
		L25.808,15.831l-9.312,9.084l10.54,11.112l-1.142,2.237c-0.545,1.059-0.874,1.698-1.228,3.36L24.161,44H8v13.123h15.721
		l0.958,2.269c0.427,1.016,0.912,2.167,1.452,3.232l0.971,1.915L15.558,76.364l9.36,8.99l10.854-11.821l2.315,1.152
		c1.107,0.552,1.981,0.987,2.91,1.362l1.879,0.757V92z"/>
	<path d="M50,40.502c2.431,0,4.862,0.928,6.717,2.783c3.71,3.71,3.71,9.722,0,13.431c-1.855,1.854-4.286,2.782-6.717,2.782
		c-2.431,0-4.862-0.928-6.718-2.782c-3.709-3.709-3.709-9.721,0.001-13.431C45.138,41.43,47.569,40.502,50,40.502 M50,34.502
		c-4.14,0-8.033,1.612-10.96,4.541c-2.928,2.927-4.54,6.818-4.54,10.958c0,4.139,1.612,8.03,4.54,10.958
		c2.929,2.928,6.821,4.539,10.96,4.539c4.141,0,8.033-1.612,10.96-4.54c2.927-2.926,4.54-6.817,4.54-10.957
		s-1.612-8.031-4.541-10.959C58.033,36.115,54.141,34.502,50,34.502L50,34.502z"/>
</g>
</svg>
