<?xml version="1.0" encoding="utf-8"?>
<!-- Generator: Adobe Illustrator 16.0.0, SVG Export Plug-In . SVG Version: 6.00 Build 0)  -->
<!DOCTYPE svg PUBLIC "-//W3C//DTD SVG 1.1//EN" "http://www.w3.org/Graphics/SVG/1.1/DTD/svg11.dtd">
<svg version="1.1" xmlns="http://www.w3.org/2000/svg" xmlns:xlink="http://www.w3.org/1999/xlink" x="0px" y="0px" width="100px"
	 height="100px" viewBox="0 0 100 100" enable-background="new 0 0 100 100" xml:space="preserve">
<g id="Layer_3">
</g>
<g id="Your_Icon">
</g>
<g id="Layer_4">
	<path d="M49.974,22c9.326,0,18.441,4.655,23.757,13.143c8.202,13.101,4.232,30.38-8.87,38.586C60.241,76.62,55.104,78,50.029,78
		c-9.326,0-18.442-4.656-23.754-13.138c-8.21-13.108-4.236-30.383,8.866-38.59C39.759,23.381,44.898,22.001,49.974,22 M49.976,14
		h-0.003c-6.744,0.001-13.341,1.9-19.078,5.492c-16.823,10.537-21.937,32.795-11.4,49.616C26.119,79.686,37.533,86,50.029,86
		c6.743,0,13.34-1.898,19.077-5.491c16.821-10.534,21.937-32.79,11.405-49.611C73.884,20.316,62.47,14,49.976,14L49.976,14z"/>
	<rect x="30" y="79.789" width="8" height="18.723"/>
	<g>
		<path d="M18.262,28.492c0,0-1.174-1.177-2.65-2.652c-2.746-2.746-2.813-7.157-0.198-9.985c0.064-0.069,1.154-1.155,1.223-1.224
			s1.156-1.154,1.227-1.22c2.828-2.612,7.24-2.547,9.989,0.199c1.146,1.148,2.648,2.651,2.648,2.651L18.262,28.492z"/>
		<path d="M18.262,32.492c-0.001,0-0.002,0-0.003,0c-1.062-0.001-2.08-0.424-2.829-1.175l-2.646-2.648
			c-4.274-4.273-4.409-11.095-0.308-15.53c0.066-0.071,0.908-0.914,1.228-1.233l0.104-0.103c0.074-0.074,1.254-1.249,1.331-1.32
			C17.224,8.556,19.924,7.5,22.753,7.5c2.993,0,5.808,1.165,7.925,3.28l2.651,2.654c1.562,1.562,1.561,4.095-0.002,5.656
			l-12.238,12.23C20.339,32.071,19.322,32.492,18.262,32.492z M22.753,15.5c-0.811,0-1.584,0.302-2.177,0.85
			c-0.096,0.095-1.049,1.047-1.112,1.109l-0.111,0.111c-0.264,0.263-0.934,0.932-1.06,1.06c-1.062,1.149-1.078,2.972-0.023,4.198
			l6.567-6.562C24.258,15.771,23.526,15.5,22.753,15.5z"/>
	</g>
	<rect x="62" y="80.389" width="8" height="18.611"/>
	<g>
		<path d="M81.738,28.492c0,0,1.174-1.177,2.65-2.652c2.746-2.746,2.813-7.157,0.198-9.985c-0.064-0.069-1.154-1.155-1.223-1.224
			s-1.156-1.154-1.227-1.22c-2.828-2.612-7.24-2.547-9.989,0.199c-1.146,1.148-2.648,2.651-2.648,2.651L81.738,28.492z"/>
		<path d="M81.738,32.492c-1.061,0-2.078-0.421-2.828-1.171l-12.238-12.23c-1.562-1.562-1.563-4.094-0.002-5.656l2.647-2.65
			C71.439,8.665,74.254,7.5,77.247,7.5c2.829,0,5.53,1.056,7.605,2.973c0.087,0.081,1.267,1.256,1.341,1.33l0.104,0.103
			c0.319,0.319,1.161,1.162,1.22,1.226c4.108,4.443,3.974,11.265-0.299,15.537l-2.647,2.649c-0.75,0.751-1.768,1.174-2.829,1.175
			C81.74,32.492,81.739,32.492,81.738,32.492z M75.164,16.267l6.566,6.562c1.054-1.228,1.036-3.053-0.08-4.259
			c-0.069-0.068-0.739-0.737-1.003-1l-0.111-0.111c-0.062-0.062-1.016-1.015-1.169-1.163C78.32,15.331,76.354,15.248,75.164,16.267z
			"/>
	</g>
	<path d="M64.496,57.454l-15-0.016c-1.061-0.001-2.078-0.424-2.827-1.175s-1.17-1.769-1.168-2.83l0.025-21.438l8,0.01l-0.021,17.438
		l11,0.012L64.496,57.454z"/>
</g>
</svg>
