<?xml version="1.0" encoding="utf-8"?>
<!-- Generator: Adobe Illustrator 16.0.0, SVG Export Plug-In . SVG Version: 6.00 Build 0)  -->
<!DOCTYPE svg PUBLIC "-//W3C//DTD SVG 1.0//EN" "http://www.w3.org/TR/2001/REC-SVG-20010904/DTD/svg10.dtd">
<svg version="1.0" xmlns="http://www.w3.org/2000/svg" xmlns:xlink="http://www.w3.org/1999/xlink" x="0px" y="0px" width="100px"
	 height="100px" viewBox="0 0 100 100" enable-background="new 0 0 100 100" xml:space="preserve">
<g id="Layer_3">
</g>
<g id="Your_Icon">
</g>
<g id="Layer_4">
	<g>
		<path fill="none" d="M40.438,32.227c5.92,0,10.715-4.794,10.715-10.714c0-5.918-4.795-10.713-10.715-10.713
			c-5.918,0-10.714,4.795-10.714,10.713C29.725,27.433,34.521,32.227,40.438,32.227z"/>
		<path fill="none" d="M40.439,52.082c-13.806,0-25,11.918-25,26.918H45v-8.143V67h4h13.814C58.715,58,50.237,52.082,40.439,52.082z
			"/>
		<path d="M45,79H15.439c0-15,11.194-26.918,25-26.918C50.237,52.082,58.715,58,62.814,67h8.615
			c-4.637-13-16.778-22.985-30.99-22.985c-18.196,0-33,15.697-33,34.953c0,4.418,3.582,8.032,8,8.032H45v-3.928V79z"/>
		<path d="M40.438,40.227c10.319,0,18.715-8.395,18.715-18.714c0-10.318-8.396-18.713-18.715-18.713s-18.714,8.395-18.714,18.713
			C21.725,31.832,30.119,40.227,40.438,40.227z M40.438,10.8c5.92,0,10.715,4.795,10.715,10.713c0,5.92-4.795,10.714-10.715,10.714
			c-5.918,0-10.714-4.794-10.714-10.714C29.725,15.595,34.521,10.8,40.438,10.8z"/>
		<rect x="49" y="71" width="44" height="12"/>
	</g>
</g>
</svg>
