<?xml version="1.0" encoding="utf-8"?>
<!-- Generator: Adobe Illustrator 16.0.0, SVG Export Plug-In . SVG Version: 6.00 Build 0)  -->
<!DOCTYPE svg PUBLIC "-//W3C//DTD SVG 1.0//EN" "http://www.w3.org/TR/2001/REC-SVG-20010904/DTD/svg10.dtd">
<svg version="1.0" xmlns="http://www.w3.org/2000/svg" xmlns:xlink="http://www.w3.org/1999/xlink" x="0px" y="0px" width="100px"
	 height="100px" viewBox="0 0 100 100" enable-background="new 0 0 100 100" xml:space="preserve">
<g id="Layer_3">
</g>
<g id="Your_Icon">
</g>
<g id="Layer_4">
	<g>
		<path fill="none" d="M90.037,21.447c-3.384-2.245-6.713-3.375-9.893-3.375c-4.802,0-8.824,2.552-11.758,5.277
			c5.126,0.917,7.279,4.244,8.143,6.334c2.128,5.146,0.834,13.111-3.847,23.557c-3.132,6.99-7.425,14.273-9.171,16.015
			C62.928,69.839,59.773,73,55.382,73H55.38c-10.012,0-16.081-13.698-18.556-41.395c-0.473-5.288-1.838-11.829-5.652-11.829
			c-3.957,0-9.753,4.188-15.017,9.146c4.281,0.135,6.118,2.767,6.45,3.312c0.193,0.319,0.342,0.591,0.439,0.952
			C37.704,87.074,39.729,89,51.159,89h0.423c8.073,0,21.335-11.324,29.552-30.256c1.578-3.637,5.508-12.921,7.894-21.912
			C91.986,25.688,90.715,21.897,90.037,21.447z"/>
		<path d="M94.459,14.774c-4.718-3.13-9.534-4.717-14.314-4.717c-14.936,0-23.699,15.252-24.065,15.901
			c-0.784,1.393-0.664,3.119,0.306,4.39s2.601,1.842,4.153,1.453c1.915-0.48,3.582-0.725,4.956-0.725
			c2.924,0,3.383,1.024,3.604,1.518c0.461,1.025,1.568,5.266-3.496,16.766c-3.183,7.228-7.05,13.226-7.74,14.005
			c-0.311,0.306-1.433,1.18-2.481,1.18c-0.309,0-7.596-0.383-10.587-33.871c-1.396-15.604-8.178-18.879-13.621-18.879
			c-12.586,0-28.623,19.833-30.41,22.094c-0.756,0.957-1.034,2.207-0.756,3.394c0.278,1.188,1.084,2.184,2.187,2.704l2.111,0.997
			c1.337,0.632,2.916,0.474,4.102-0.413c4.236-3.164,6.496-3.593,7.334-3.616c13.252,48.708,16.608,60.339,35.42,60.339l0.498-0.002
			c15.863-0.153,30.707-21.146,36.814-35.218C99.937,35.657,101.95,19.744,94.459,14.774z M89.027,36.832
			c-2.386,8.991-6.315,18.275-7.894,21.912C72.917,77.676,59.655,89,51.582,89h-0.423c-11.431,0-13.455-1.926-28.114-55.813
			c-0.098-0.361-0.246-0.633-0.439-0.952c-0.332-0.546-2.169-3.178-6.45-3.312c5.264-4.957,11.06-9.146,15.017-9.146
			c3.814,0,5.18,6.541,5.652,11.829C39.299,59.302,45.368,73,55.38,73h0.002c4.392,0,7.546-3.161,8.13-3.745
			c1.746-1.741,6.039-9.024,9.171-16.015c4.681-10.445,5.975-18.41,3.847-23.557c-0.863-2.09-3.017-5.417-8.143-6.334
			c2.934-2.726,6.956-5.277,11.758-5.277c3.18,0,6.509,1.13,9.893,3.375C90.715,21.897,91.986,25.688,89.027,36.832z"/>
	</g>
</g>
</svg>
