<?xml version="1.0" encoding="utf-8"?>
<!-- Generator: Adobe Illustrator 16.0.0, SVG Export Plug-In . SVG Version: 6.00 Build 0)  -->
<!DOCTYPE svg PUBLIC "-//W3C//DTD SVG 1.1//EN" "http://www.w3.org/Graphics/SVG/1.1/DTD/svg11.dtd">
<svg version="1.1" xmlns="http://www.w3.org/2000/svg" xmlns:xlink="http://www.w3.org/1999/xlink" x="0px" y="0px" width="100px"
	 height="100px" viewBox="0 0 100 100" enable-background="new 0 0 100 100" xml:space="preserve">
<g id="Layer_3" display="none">
</g>
<g id="Your_Icon">
</g>
<g id="Layer_4">
	<path d="M50.5,40c5.52,0,10,4.477,10,10.001c0,5.521-4.48,9.999-10,9.999c-5.525,0-10-4.478-10-9.999
		C40.5,44.477,44.975,40,50.5,40 M50.5,30c-11.028,0-20,8.973-20,20.001C30.5,61.028,39.472,70,50.5,70s20-8.972,20-19.999
		C70.5,38.973,61.528,30,50.5,30L50.5,30z"/>
	<path d="M51,22c16.568,0,38,28,38,28S67.568,78,51,78c-16.569,0-40-28-40-28S34.431,22,51,22 M51,12
		c-9.514,0-20.253,5.398-32.832,16.504C9.77,35.918,3.59,43.273,3.331,43.582c-3.108,3.715-3.108,9.121,0,12.836
		c0.259,0.309,6.438,7.664,14.837,15.078C30.747,82.602,41.486,88,51,88c9.639,0,20.129-5.47,32.071-16.722
		c7.928-7.471,13.631-14.888,13.869-15.2c2.746-3.587,2.746-8.569,0-12.156c-0.238-0.312-5.941-7.729-13.869-15.2
		C71.129,17.47,60.639,12,51,12L51,12z"/>
</g>
</svg>
