<?xml version="1.0" encoding="utf-8"?>
<!-- Generator: Adobe Illustrator 16.0.0, SVG Export Plug-In . SVG Version: 6.00 Build 0)  -->
<!DOCTYPE svg PUBLIC "-//W3C//DTD SVG 1.1//EN" "http://www.w3.org/Graphics/SVG/1.1/DTD/svg11.dtd">
<svg version="1.1" xmlns="http://www.w3.org/2000/svg" xmlns:xlink="http://www.w3.org/1999/xlink" x="0px" y="0px" width="100px"
	 height="100px" viewBox="0 0 100 100" enable-background="new 0 0 100 100" xml:space="preserve">
<g id="Layer_3">
</g>
<g id="Your_Icon">
</g>
<g id="Layer_4">
	<path d="M77.001,99c-0.975,0-1.936-0.355-2.687-1.036L49.986,75.927L25.67,97.725c-1.175,1.054-2.859,1.318-4.301,0.674
		C19.928,97.755,19,96.324,19,94.746V5c0-2.209,1.791-4,4-4h54c2.209,0,4,1.791,4,4v90c0,1.582-0.933,3.015-2.379,3.657
		C78.101,98.888,77.549,99,77.001,99z M50,66.543c0.962,0,1.924,0.345,2.686,1.036L73,85.979V9H27v76.789l20.33-18.224
		C48.09,66.883,49.045,66.543,50,66.543z"/>
</g>
</svg>
