<?xml version="1.0" encoding="utf-8"?>
<!-- Generator: Adobe Illustrator 16.0.0, SVG Export Plug-In . SVG Version: 6.00 Build 0)  -->
<!DOCTYPE svg PUBLIC "-//W3C//DTD SVG 1.1//EN" "http://www.w3.org/Graphics/SVG/1.1/DTD/svg11.dtd">
<svg version="1.1" xmlns="http://www.w3.org/2000/svg" xmlns:xlink="http://www.w3.org/1999/xlink" x="0px" y="0px" width="100px"
	 height="100px" viewBox="0 0 100 100" enable-background="new 0 0 100 100" xml:space="preserve">
<g id="Layer_3">
</g>
<g id="Your_Icon">
</g>
<g id="Layer_4">
	<g>
		<path fill="none" d="M65.171,24.454L60.4,14H39.452l-4.656,10.427C34.211,25.99,32.718,27,31.049,27H8v64.995l84-0.091V27H68.907
			C67.249,27,65.763,26.003,65.171,24.454z M50,79c-12.131,0-22-9.869-22-22s9.869-22,22-22s22,9.869,22,22S62.131,79,50,79z"/>
		<path fill="none" d="M50,43c-7.718,0-14,6.278-14,14s6.282,14,14,14s14-6.278,14-14S57.718,43,50,43z"/>
		<path d="M96,19H71.661L66.89,8.546C66.298,6.997,64.812,6,63.153,6H36.677c-1.669,0-3.162,1.01-3.747,2.573L28.274,19H4
			c-2.209,0-4,1.791-4,4v72.999c0,1.062,0.422,2.081,1.173,2.831C1.923,99.578,2.94,100,4,100c0.001,0,0.003,0,0.004,0l92-0.1
			c2.208-0.002,3.996-1.793,3.996-4V23C100,20.791,98.209,19,96,19z M92,91.904L8,91.995V27h23.049c1.669,0,3.162-1.01,3.747-2.573
			L39.452,14H60.4l4.771,10.454C65.763,26.003,67.249,27,68.907,27H92V91.904z"/>
		<g>
			<path fill="none" d="M50,42.637c-7.368,0-13.363,5.993-13.363,13.363S42.632,69.363,50,69.363S63.363,63.37,63.363,56
				S57.368,42.637,50,42.637z"/>
			<path d="M50,35c-11.579,0-21,9.42-21,21s9.421,21,21,21s21-9.42,21-21S61.579,35,50,35z M50,69.363
				c-7.368,0-13.363-5.993-13.363-13.363S42.632,42.637,50,42.637S63.363,48.63,63.363,56S57.368,69.363,50,69.363z"/>
		</g>
	</g>
</g>
</svg>
