<?xml version="1.0" encoding="utf-8"?>
<!-- Generator: Adobe Illustrator 16.0.0, SVG Export Plug-In . SVG Version: 6.00 Build 0)  -->
<!DOCTYPE svg PUBLIC "-//W3C//DTD SVG 1.1//EN" "http://www.w3.org/Graphics/SVG/1.1/DTD/svg11.dtd">
<svg version="1.1" xmlns="http://www.w3.org/2000/svg" xmlns:xlink="http://www.w3.org/1999/xlink" x="0px" y="0px" width="100px"
	 height="100px" viewBox="0 0 100 100" enable-background="new 0 0 100 100" xml:space="preserve">
<g id="Layer_3">
</g>
<g id="Your_Icon">
</g>
<g id="Layer_4">
	<g>
		<path fill="none" d="M23.189,30.738c-3.844,5.28-6.117,11.778-6.117,18.812c0,17.667,14.324,32,32,32
			c7.032,0,13.529-2.274,18.809-6.118L23.189,30.738z"/>
		<path fill="none" d="M74.953,68.36c3.845-5.282,6.12-11.78,6.12-18.811c0-17.677-14.324-32-32-32
			c-7.033,0-13.531,2.273-18.812,6.117L74.953,68.36z"/>
		<path d="M49.072,9.55c-22.056,0-40,17.944-40,40s17.944,40,40,40s40-17.944,40-40S71.128,9.55,49.072,9.55z M81.072,49.55
			c0,7.03-2.274,13.528-6.12,18.811L30.261,23.667c5.281-3.844,11.779-6.117,18.812-6.117C66.748,17.55,81.072,31.873,81.072,49.55z
			 M17.072,49.55c0-7.033,2.273-13.531,6.117-18.812l44.692,44.693c-5.28,3.844-11.777,6.118-18.809,6.118
			C31.396,81.55,17.072,67.217,17.072,49.55z"/>
	</g>
</g>
</svg>
