<?xml version="1.0" encoding="utf-8"?>
<!-- Generator: Adobe Illustrator 16.0.0, SVG Export Plug-In . SVG Version: 6.00 Build 0)  -->
<!DOCTYPE svg PUBLIC "-//W3C//DTD SVG 1.1//EN" "http://www.w3.org/Graphics/SVG/1.1/DTD/svg11.dtd">
<svg version="1.1" xmlns="http://www.w3.org/2000/svg" xmlns:xlink="http://www.w3.org/1999/xlink" x="0px" y="0px" width="100px"
	 height="100px" viewBox="0 0 100 100" enable-background="new 0 0 100 100" xml:space="preserve">
<g id="Layer_3" display="none">
</g>
<g id="Your_Icon">
</g>
<g id="Layer_4">
	<g>
		<polygon fill="#FFFFFF" points="89,24.174 29.482,83.426 11,89.3 17.074,69.674 75.783,10.958 		"/>
		<path d="M75.783,10.958L89,24.174L29.482,83.426L11,89.3l6.074-19.626L75.783,10.958 M75.783,0.958
			C75.783,0.958,75.783,0.958,75.783,0.958c-2.653,0-5.196,1.054-7.071,2.929L10.003,62.603c-1.149,1.149-2.001,2.562-2.481,4.114
			L1.447,86.343C0.346,89.9,1.313,93.774,3.956,96.397c1.902,1.888,4.446,2.902,7.045,2.902c1.012,0,2.033-0.154,3.028-0.47
			l18.482-5.874c1.518-0.482,2.898-1.32,4.026-2.443l59.518-59.252c1.882-1.874,2.942-4.42,2.945-7.076
			c0.003-2.656-1.051-5.204-2.929-7.083L82.854,3.887C80.979,2.012,78.435,0.958,75.783,0.958L75.783,0.958z"/>
	</g>
	<rect x="56.038" y="25.649" transform="matrix(0.7071 0.7071 -0.7071 0.7071 42.042 -40.2019)" width="27.023" height="10"/>
	<rect x="11.525" y="68.577" transform="matrix(0.7071 0.7071 -0.7071 0.7071 59.3633 3.848)" width="27.024" height="10"/>
</g>
</svg>
