<?xml version="1.0" encoding="utf-8"?>
<!-- Generator: Adobe Illustrator 16.0.0, SVG Export Plug-In . SVG Version: 6.00 Build 0)  -->
<!DOCTYPE svg PUBLIC "-//W3C//DTD SVG 1.1//EN" "http://www.w3.org/Graphics/SVG/1.1/DTD/svg11.dtd">
<svg version="1.1" xmlns="http://www.w3.org/2000/svg" xmlns:xlink="http://www.w3.org/1999/xlink" x="0px" y="0px" width="100px"
	 height="100px" viewBox="0 0 100 100" enable-background="new 0 0 100 100" xml:space="preserve">
<g id="Layer_3" display="none">
</g>
<g id="Your_Icon">
</g>
<g id="Layer_4">
	<path fill="none" stroke="#000000" stroke-width="10" stroke-linecap="square" stroke-linejoin="round" stroke-miterlimit="10" d="
		M35.974,36.201"/>
	<path d="M42.035,45.5h-30c-2.762,0-5-2.238-5-5v-30h10v25h25V45.5z"/>
	<path d="M69.736,45.5l-0.127-2.381c-0.263-2.096-0.795-4.166-1.583-6.15c-5.089-12.805-19.648-19.082-32.454-13.994
		c-7.766,3.088-13.452,9.818-15.21,18.002L19.335,44l-9.8-0.234l1.05-4.889c2.461-11.453,10.42-20.871,21.293-25.195
		c17.932-7.125,38.315,1.664,45.441,19.594c1.102,2.773,1.846,5.668,2.213,8.604l0.504,3.621H69.736z"/>
	<path fill="none" stroke="#000000" stroke-width="10" stroke-linecap="square" stroke-linejoin="round" stroke-miterlimit="10" d="
		M82.965,36.396"/>
	<path fill="none" stroke="#000000" stroke-width="10" stroke-linecap="square" stroke-linejoin="round" stroke-miterlimit="10" d="
		M83.85,43.516"/>
	<path fill="none" stroke="#000000" stroke-width="10" stroke-linecap="square" stroke-linejoin="round" stroke-miterlimit="10" d="
		M62.562,63.799"/>
	<path d="M56.5,54.5h30c2.762,0,5,2.238,5,5v30h-10v-25h-25V54.5z"/>
	<path d="M28.799,54.5l0.127,2.381c0.263,2.096,0.795,4.166,1.583,6.15c5.089,12.805,19.648,19.082,32.454,13.994
		c7.766-3.088,13.452-9.818,15.21-18.002L79.201,56l9.8,0.234l-1.05,4.889c-2.461,11.453-10.42,20.871-21.293,25.195
		c-17.932,7.125-38.315-1.664-45.441-19.594c-1.102-2.773-1.846-5.668-2.213-8.604L18.5,54.5H28.799z"/>
</g>
</svg>
