<?xml version="1.0" encoding="utf-8"?>
<!-- Generator: Adobe Illustrator 16.0.0, SVG Export Plug-In . SVG Version: 6.00 Build 0)  -->
<!DOCTYPE svg PUBLIC "-//W3C//DTD SVG 1.1//EN" "http://www.w3.org/Graphics/SVG/1.1/DTD/svg11.dtd">
<svg version="1.1" xmlns="http://www.w3.org/2000/svg" xmlns:xlink="http://www.w3.org/1999/xlink" x="0px" y="0px" width="100px"
	 height="100px" viewBox="0 0 100 100" enable-background="new 0 0 100 100" xml:space="preserve">
<g id="Layer_3" display="none">
</g>
<g id="Your_Icon">
</g>
<g id="Layer_4">
	<path d="M95,46H5c-2.761,0-5,2.239-5,5v44c0,1.327,0.527,2.599,1.466,3.537C2.403,99.474,3.674,100,5,100c0.001,0,0.002,0,0.003,0
		l90-0.064c2.76-0.002,4.997-2.24,4.997-5V51C100,48.239,97.761,46,95,46z"/>
	<path d="M87,43.5H77v-8c0-13.785-12.112-25-27-25s-27,11.215-27,25v8H13v-8c0-19.299,16.598-35,37-35s37,15.701,37,35V43.5z"/>
</g>
</svg>
