<?xml version="1.0" encoding="utf-8"?>
<!-- Generator: Adobe Illustrator 16.0.0, SVG Export Plug-In . SVG Version: 6.00 Build 0)  -->
<!DOCTYPE svg PUBLIC "-//W3C//DTD SVG 1.0//EN" "http://www.w3.org/TR/2001/REC-SVG-20010904/DTD/svg10.dtd">
<svg version="1.0" xmlns="http://www.w3.org/2000/svg" xmlns:xlink="http://www.w3.org/1999/xlink" x="0px" y="0px" width="100px"
	 height="100px" viewBox="0 0 100 100" enable-background="new 0 0 100 100" xml:space="preserve">
<g id="Layer_3">
</g>
<g id="Your_Icon">
</g>
<g id="Layer_4">
	<path d="M72,99H5c-2.209,0-4-1.791-4-4V28c0-2.209,1.791-4,4-4h28v8H9v59h59V69h8v26C76,97.209,74.209,99,72,99z"/>
	<path d="M90.697,50.536l-8-0.093l0.392-33.532l-33.532,0.392l-0.094-8L87.09,8.864c1.062-0.058,2.113,0.409,2.875,1.171
		s1.185,1.798,1.172,2.875L90.697,50.536z"/>
	<rect x="54.496" y="5.254" transform="matrix(0.707 0.7072 -0.7072 0.707 46.4869 -29.2078)" width="8" height="72.501"/>
</g>
</svg>
