<?xml version="1.0" encoding="utf-8"?>
<!-- Generator: Adobe Illustrator 16.0.0, SVG Export Plug-In . SVG Version: 6.00 Build 0)  -->
<!DOCTYPE svg PUBLIC "-//W3C//DTD SVG 1.1//EN" "http://www.w3.org/Graphics/SVG/1.1/DTD/svg11.dtd">
<svg version="1.1" xmlns="http://www.w3.org/2000/svg" xmlns:xlink="http://www.w3.org/1999/xlink" x="0px" y="0px" width="100px"
	 height="100px" viewBox="0 0 100 100" enable-background="new 0 0 100 100" xml:space="preserve">
<g id="Layer_3" display="none">
	<circle display="inline" fill="none" stroke="#000000" stroke-width="0.25" stroke-miterlimit="10" cx="50" cy="50" r="15.134"/>
	<polyline display="inline" opacity="0.26" points="94,6 6,6 6,94 94,94 	"/>
	<circle display="inline" fill="none" stroke="#000000" stroke-width="0.25" stroke-miterlimit="10" cx="50" cy="50" r="24"/>
	<circle display="inline" fill="none" stroke="#000000" stroke-width="0.25" stroke-miterlimit="10" cx="50" cy="50" r="30"/>
	<circle display="inline" fill="none" stroke="#000000" stroke-width="0.25" stroke-miterlimit="10" cx="50" cy="50" r="9.134"/>
	<path display="inline" fill="none" stroke="#000000" stroke-width="0.25" stroke-miterlimit="10" d="M0,50C0,22.386,22.389,0,50,0
		c27.612,0,50,22.386,50,50"/>
	<path display="inline" fill="none" stroke="#000000" stroke-width="0.25" stroke-miterlimit="10" d="M100,50
		c0,27.614-22.388,50-50,50C22.389,100,0,77.614,0,50"/>
</g>
<g id="Your_Icon">
	<path d="M25.931,99.002c-5.302,0-10.143-1.858-13.825-5.351c-8.621-8.179-8.012-22.868,1.358-32.747l32.247-34.03
		c0.208-0.214,18.044-18.543,20.272-20.89c6.689-7.045,17.173-7.991,23.371-2.107c6.199,5.885,5.8,16.405-0.889,23.452
		c-2.891,3.047-25.733,26.673-26.704,27.677L42.164,75.685l0,0c0,0-4.562,4.818-5.961,6.291c-2.149,2.266-4.952,3.683-7.893,3.99
		c-3.117,0.324-6.011-0.614-8.151-2.646c-4.283-4.07-4.055-11.29,0.507-16.095c1.787-1.882,27.922-29.01,29.034-30.163l4.321,4.162
		c-0.272,0.283-27.232,28.266-29.004,30.132c-2.285,2.407-2.61,5.822-0.726,7.613c0.846,0.804,2.053,1.169,3.396,1.029
		c1.519-0.159,2.998-0.923,4.165-2.152c1.398-1.474,5.957-6.287,5.957-6.287l19.619-20.701c0.258-0.268,23.814-24.632,26.686-27.658
		c4.412-4.648,4.909-11.364,1.11-14.971c-3.798-3.605-10.478-2.758-14.889,1.887c-2.253,2.374-19.56,20.158-20.296,20.914
		l-32.22,34.003c-7.095,7.479-7.805,18.364-1.584,24.266c2.947,2.796,7.036,4.076,11.512,3.607c4.652-0.487,9.14-2.786,12.635-6.472
		L84.017,41.9l4.286,4.199l-43.6,44.498c-4.445,4.688-10.256,7.639-16.329,8.275C27.55,98.959,26.735,99.002,25.931,99.002z"/>
</g>
<g id="Layer_4">
</g>
</svg>
