<?xml version="1.0" encoding="utf-8"?>
<!-- Generator: Adobe Illustrator 16.0.0, SVG Export Plug-In . SVG Version: 6.00 Build 0)  -->
<!DOCTYPE svg PUBLIC "-//W3C//DTD SVG 1.1//EN" "http://www.w3.org/Graphics/SVG/1.1/DTD/svg11.dtd">
<svg version="1.1" xmlns="http://www.w3.org/2000/svg" xmlns:xlink="http://www.w3.org/1999/xlink" x="0px" y="0px" width="100px"
	 height="100px" viewBox="0 0 100 100" enable-background="new 0 0 100 100" xml:space="preserve">
<g id="Layer_3" display="none">
</g>
<g id="Your_Icon">
</g>
<g id="Layer_4">
	<path d="M95,14H5c-2.761,0-5,2.238-5,5v76c0,1.327,0.527,2.6,1.466,3.537C2.404,99.474,3.675,100,5,100c0.002,0,0.003,0,0.005,0
		l90-0.096c2.759-0.003,4.995-2.24,4.995-5V19C100,16.238,97.761,14,95,14z M10,89.995V35.193L90.1,35.2L90,89.909L10,89.995z"/>
	<g>
		<polygon fill="#FFFFFF" points="15,5 32.969,5 33,29 15,29 		"/>
		<path d="M33.02,34c-0.007-0.001-0.014-0.001-0.02,0H15c-2.761,0-5-2.238-5-5V5c0-2.762,2.239-5,5-5h17.969
			c2.759,0,4.997,2.234,5,4.993L38,28.543c0.014,0.15,0.021,0.303,0.021,0.457C38.02,31.762,35.781,34,33.02,34z M20,24h7.994
			l-0.019-14H20V24z"/>
	</g>
	<g>
		<polygon fill="#FFFFFF" points="64,4.898 81.969,4.898 82,28.9 64,28.9 		"/>
		<path d="M82.02,33.9c-0.007,0-0.013-0.001-0.02,0H64c-2.761,0-5-2.238-5-5V4.898c0-2.762,2.239-5,5-5h17.969
			c2.759,0,4.997,2.234,5,4.993L87,28.443c0.014,0.15,0.021,0.303,0.021,0.457C87.02,31.662,84.781,33.9,82.02,33.9z M69,23.9h7.994
			L76.975,9.898H69V23.9z"/>
	</g>
	<polygon points="30.5,58 20.5,58 20.5,68 30.5,68 30.5,58 	"/>
	<polygon points="30.5,74 20.5,74 20.5,84 30.5,84 30.5,74 	"/>
	<polygon points="46.5,42 36.5,42 36.5,52 46.5,52 46.5,42 	"/>
	<polygon points="46.5,58 36.5,58 36.5,68 46.5,68 46.5,58 	"/>
	<polygon points="46.5,74 36.5,74 36.5,84 46.5,84 46.5,74 	"/>
	<polygon points="62.5,42 52.5,42 52.5,52 62.5,52 62.5,42 	"/>
	<polygon points="62.5,58 52.5,58 52.5,68 62.5,68 62.5,58 	"/>
	<polygon points="62.5,74 52.5,74 52.5,84 62.5,84 62.5,74 	"/>
	<polygon points="78.5,42 68.5,42 68.5,52 78.5,52 78.5,42 	"/>
	<polygon points="78.5,58 68.5,58 68.5,68 78.5,68 78.5,58 	"/>
	<polygon points="78.5,74 68.5,74 68.5,84 78.5,84 78.5,74 	"/>
</g>
</svg>
