<?xml version="1.0" encoding="utf-8"?>
<!-- Generator: Adobe Illustrator 16.0.0, SVG Export Plug-In . SVG Version: 6.00 Build 0)  -->
<!DOCTYPE svg PUBLIC "-//W3C//DTD SVG 1.1//EN" "http://www.w3.org/Graphics/SVG/1.1/DTD/svg11.dtd">
<svg version="1.1" xmlns="http://www.w3.org/2000/svg" xmlns:xlink="http://www.w3.org/1999/xlink" x="0px" y="0px" width="100px"
	 height="100px" viewBox="0 0 100 100" enable-background="new 0 0 100 100" xml:space="preserve">
<g id="Layer_3">
</g>
<g id="Your_Icon">
</g>
<g id="Layer_4">
	<path d="M26.072,71.515c9.94,0,18,8.679,18,19.385h-36C8.072,80.193,16.132,71.515,26.072,71.515 M26.072,65.515
		c-13.233,0-24,11.388-24,25.385c0,3.313,2.687,6,6,6h36c3.313,0,6-2.687,6-6C50.072,76.902,39.306,65.515,26.072,65.515
		L26.072,65.515z"/>
	<path d="M26.072,40.835c4.262,0,7.715,3.453,7.715,7.715s-3.453,7.714-7.715,7.714c-4.261,0-7.714-3.452-7.714-7.714
		S21.811,40.835,26.072,40.835 M26.072,34.835c-7.562,0-13.714,6.152-13.714,13.715c0,7.562,6.152,13.714,13.714,13.714
		c7.562,0,13.715-6.152,13.715-13.714C39.787,40.987,33.634,34.835,26.072,34.835L26.072,34.835z"/>
	<path d="M73.072,36.95c9.94,0,18,8.679,18,19.385h-36C55.072,45.629,63.132,36.95,73.072,36.95 M73.072,30.95
		c-13.233,0-24,11.388-24,25.385c0,3.313,2.687,6,6,6h36c3.313,0,6-2.687,6-6C97.072,42.338,86.306,30.95,73.072,30.95L73.072,30.95
		z"/>
	<path d="M73.072,6.835c4.262,0,7.715,3.453,7.715,7.715s-3.453,7.714-7.715,7.714c-4.261,0-7.714-3.452-7.714-7.714
		S68.811,6.835,73.072,6.835 M73.072,0.835c-7.562,0-13.714,6.152-13.714,13.715c0,7.562,6.152,13.714,13.714,13.714
		c7.562,0,13.715-6.152,13.715-13.714C86.787,6.987,80.634,0.835,73.072,0.835L73.072,0.835z"/>
</g>
</svg>
