<?xml version="1.0" encoding="utf-8"?>
<!-- Generator: Adobe Illustrator 16.0.0, SVG Export Plug-In . SVG Version: 6.00 Build 0)  -->
<!DOCTYPE svg PUBLIC "-//W3C//DTD SVG 1.1//EN" "http://www.w3.org/Graphics/SVG/1.1/DTD/svg11.dtd">
<svg version="1.1" xmlns="http://www.w3.org/2000/svg" xmlns:xlink="http://www.w3.org/1999/xlink" x="0px" y="0px" width="100px"
	 height="100px" viewBox="0 0 100 100" enable-background="new 0 0 100 100" xml:space="preserve">
<g id="Layer_3">
</g>
<g id="Your_Icon">
</g>
<g id="Layer_4">
	<g>
		<polygon fill="none" points="25.8,84 15,84 15,92 85,92 85,84 74.2,84 		"/>
		<path fill="none" d="M70,68h-9.533c-1.12,0-2.189-0.436-2.947-1.26c-0.757-0.826-1.134-1.914-1.039-3.03
			c0.097-1.13,0.425-1.671,2.249-4.725c3.18-5.323,11.626-19.312,11.564-26.765C70.157,14.967,59.628,9,50.653,9H50.46
			c-6.091,0-11.309,2.264-15.091,6.691c-3.707,4.338-5.718,10.264-5.664,16.82c0.053,6.752,8.041,20.911,11.047,26.256
			c1.928,3.426,2.224,3.935,2.294,5.074c0.068,1.102-0.322,2.138-1.078,2.942C41.213,67.588,40.158,68,39.055,68H30v8h40V68z"/>
		<path d="M89,76H78V64.069C78,61.86,76.409,60,74.2,60h-6.815c5.691-10,10.974-20.138,10.91-27.875C78.147,13.69,66.781,1,50.653,1
			h-0.257c-8.355,0-15.852,3.342-21.109,9.494c-4.959,5.804-7.651,13.563-7.582,22.048C21.762,39.686,26.683,50,32.339,60H25.8
			c-2.209,0-3.8,1.86-3.8,4.069V76H11c-2.209,0-4,1.86-4,4.069v16C7,98.278,8.791,100,11,100h78c2.209,0,4-1.722,4-3.931v-16
			C93,77.86,91.209,76,89,76z M30,68h9.055c1.104,0,2.158-0.422,2.914-1.225c0.756-0.805,1.146-1.868,1.078-2.97
			c-0.07-1.14-0.366-1.658-2.294-5.084c-3.007-5.345-10.994-19.536-11.047-26.289c-0.054-6.557,1.958-12.405,5.664-16.743
			C39.151,11.262,44.37,9,50.46,9h0.193c8.975,0,19.504,5.971,19.642,23.225c0.062,7.453-8.385,21.521-11.564,26.845
			c-1.824,3.054-2.152,3.565-2.249,4.695c-0.096,1.116,0.281,2.169,1.039,2.994C58.278,67.584,59.347,68,60.467,68H70v8H30V68z
			 M85,92H15v-8h10.8h48.4H85V92z"/>
	</g>
</g>
</svg>
