<?xml version="1.0" encoding="utf-8"?>
<!-- Generator: Adobe Illustrator 16.0.0, SVG Export Plug-In . SVG Version: 6.00 Build 0)  -->
<!DOCTYPE svg PUBLIC "-//W3C//DTD SVG 1.1//EN" "http://www.w3.org/Graphics/SVG/1.1/DTD/svg11.dtd">
<svg version="1.1" xmlns="http://www.w3.org/2000/svg" xmlns:xlink="http://www.w3.org/1999/xlink" x="0px" y="0px" width="100px"
	 height="100px" viewBox="0 0 100 100" enable-background="new 0 0 100 100" xml:space="preserve">
<g id="Layer_3" display="none">
	<circle display="inline" fill="none" stroke="#000000" stroke-width="0.25" stroke-miterlimit="10" cx="50" cy="49.5" r="17.5"/>
	<polyline display="inline" opacity="0.15" points="95,5 5,5 5,95 95,95 	"/>
	<circle display="inline" fill="none" stroke="#000000" stroke-width="0.25" stroke-miterlimit="10" cx="50" cy="50" r="26"/>
	<circle display="inline" fill="none" stroke="#000000" stroke-width="0.25" stroke-miterlimit="10" cx="50" cy="50" r="34"/>
	<circle display="inline" fill="none" stroke="#000000" stroke-width="0.25" stroke-miterlimit="10" cx="50" cy="49.5" r="9"/>
	<path display="inline" fill="none" stroke="#000000" stroke-width="0.25" stroke-miterlimit="10" d="M0,50C0,22.386,22.389,0,50,0
		c27.612,0,50,22.386,50,50"/>
	<path display="inline" fill="none" stroke="#000000" stroke-width="0.25" stroke-miterlimit="10" d="M100,50
		c0,27.614-22.388,50-50,50C22.389,100,0,77.614,0,50"/>
</g>
<g id="Your_Icon">
</g>
<g id="Layer_4">
	<path d="M54,100H4c-2.209,0-4-1.791-4-4V4c0-2.209,1.791-4,4-4h50c2.209,0,4,1.791,4,4s-1.791,4-4,4H8v84h46c2.209,0,4,1.791,4,4
		S56.209,100,54,100z"/>
	<path d="M46.656,77.5c-1.024,0-2.047-0.391-2.829-1.171L20.326,52.828c-0.75-0.75-1.171-1.768-1.171-2.829s0.421-2.079,1.172-2.829
		l23.501-23.499c1.562-1.562,4.095-1.561,5.657,0c1.562,1.562,1.562,4.095,0,5.657l-20.672,20.67l20.673,20.672
		c1.562,1.562,1.562,4.095,0,5.657C48.703,77.109,47.68,77.5,46.656,77.5z"/>
	<path d="M85,53.999H25c-2.209,0-4-1.791-4-4s1.791-4,4-4h60c2.209,0,4,1.791,4,4S87.209,53.999,85,53.999z"/>
</g>
</svg>
