<?xml version="1.0" encoding="utf-8"?>
<!-- Generator: Adobe Illustrator 16.0.0, SVG Export Plug-In . SVG Version: 6.00 Build 0)  -->
<!DOCTYPE svg PUBLIC "-//W3C//DTD SVG 1.1//EN" "http://www.w3.org/Graphics/SVG/1.1/DTD/svg11.dtd">
<svg version="1.1" xmlns="http://www.w3.org/2000/svg" xmlns:xlink="http://www.w3.org/1999/xlink" x="0px" y="0px" width="100px"
	 height="100px" viewBox="0 0 100 100" enable-background="new 0 0 100 100" xml:space="preserve">
<g id="Layer_3" display="none">
</g>
<g id="Your_Icon">
</g>
<g id="Layer_4">
	<g>
		<polygon fill="#FFFFFF" points="89.7,19.8 89.7,89.701 9.7,89.8 9.7,19.8 		"/>
		<path d="M89.7,19.8v69.901L9.7,89.8v-70H89.7 M89.7,9.8h-80c-5.523,0-10,4.477-10,10v70c0,2.654,1.055,5.2,2.933,7.075
			C4.509,98.748,7.051,99.8,9.7,99.8c0.004,0,0.008,0,0.012,0l80-0.099c5.518-0.007,9.988-4.482,9.988-10V19.8
			C99.7,14.277,95.223,9.8,89.7,9.8L89.7,9.8z"/>
	</g>
	<path fill="none" stroke="#000000" stroke-width="10" stroke-linecap="square" stroke-linejoin="round" stroke-miterlimit="10" d="
		M50.83,71.804"/>
	<path d="M49.796,71.2c-0.765,0-1.54-0.176-2.267-0.547c-0.003-0.002-0.006-0.002-0.008-0.004L0,38.062c0-1.867,0-6.534,0-10.2
		l49.809,32.725L100,27.986c0,2.625,0,9.75,0,11.25L52.12,70.628c-0.173,0.09-0.35,0.17-0.53,0.24c-0.002,0-0.003,0.002-0.007,0.002
		c-0.177,0.066-0.356,0.125-0.538,0.172C50.639,71.146,50.219,71.2,49.796,71.2z"/>
</g>
</svg>
