<?xml version="1.0" encoding="utf-8"?>
<!-- Generator: Adobe Illustrator 16.0.0, SVG Export Plug-In . SVG Version: 6.00 Build 0)  -->
<!DOCTYPE svg PUBLIC "-//W3C//DTD SVG 1.1//EN" "http://www.w3.org/Graphics/SVG/1.1/DTD/svg11.dtd">
<svg version="1.1" xmlns="http://www.w3.org/2000/svg" xmlns:xlink="http://www.w3.org/1999/xlink" x="0px" y="0px" width="100px"
	 height="100px" viewBox="0 0 100 100" enable-background="new 0 0 100 100" xml:space="preserve">
<g id="Layer_3" display="none">
	<circle display="inline" fill="none" stroke="#000000" stroke-width="0.25" stroke-miterlimit="10" cx="50" cy="50" r="15.134"/>
	<rect x="6" y="6" display="inline" opacity="0.26" width="88" height="88"/>
	<circle display="inline" fill="none" stroke="#000000" stroke-width="0.25" stroke-miterlimit="10" cx="50" cy="50" r="24"/>
	<circle display="inline" fill="none" stroke="#000000" stroke-width="0.25" stroke-miterlimit="10" cx="50" cy="50" r="30"/>
	<circle display="inline" fill="none" stroke="#000000" stroke-width="0.25" stroke-miterlimit="10" cx="50" cy="50" r="9.134"/>
	<g display="inline">
		<path d="M50,0.25c27.432,0,49.75,22.317,49.75,49.75S77.432,99.75,50,99.75S0.25,77.433,0.25,50S22.568,0.25,50,0.25 M50,0
			C22.389,0,0,22.386,0,50s22.389,50,50,50c27.612,0,50-22.386,50-50S77.612,0,50,0L50,0z"/>
	</g>
</g>
<g id="Your_Icon">
</g>
<g id="Layer_4">
	<g>
		<path d="M97.592,55.271L44.753,2.715c-0.75-0.745-1.764-1.164-2.821-1.164L5,1.549c-1.061,0-2.078,0.422-2.828,1.172
			C1.421,3.471,1,4.488,1,5.549v37.066c0,1.07,0.429,2.096,1.19,2.847l52.524,51.836c0.764,0.754,1.778,1.153,2.811,1.153
			c0.52,0,1.281-0.102,1.78-0.31C60.793,97.52,62,96.064,62,94.451V62.104L94.973,62c0.009,0,0.018,0,0.027,0
			c0.007,0,0.013,0,0.02,0c2.209,0,4-1.624,4-3.833C99.02,56.938,98.465,56.004,97.592,55.271z M30,44c-7.72,0-14-6.28-14-14
			s6.28-14,14-14s14,6.28,14,14S37.72,44,30,44z"/>
		<path fill="none" d="M16,30c0,7.72,6.28,14,14,14s14-6.28,14-14s-6.28-14-14-14S16,22.28,16,30z"/>
	</g>
</g>
</svg>
