<?xml version="1.0" encoding="utf-8"?>
<!-- Generator: Adobe Illustrator 16.0.0, SVG Export Plug-In . SVG Version: 6.00 Build 0)  -->
<!DOCTYPE svg PUBLIC "-//W3C//DTD SVG 1.0//EN" "http://www.w3.org/TR/2001/REC-SVG-20010904/DTD/svg10.dtd">
<svg version="1.0" xmlns="http://www.w3.org/2000/svg" xmlns:xlink="http://www.w3.org/1999/xlink" x="0px" y="0px" width="100px"
	 height="100px" viewBox="0 0 100 100" enable-background="new 0 0 100 100" xml:space="preserve">
<g id="Layer_3">
</g>
<g id="Your_Icon">
</g>
<g id="Layer_4">
	<g>
		<path d="M24.289,28.401c-11.91,0-21.6,9.689-21.6,21.6c0,11.909,9.689,21.598,21.6,21.598c11.922,0,21.621-9.688,21.621-21.598
			C45.91,38.091,36.211,28.401,24.289,28.401z M24.289,63.599c-7.504,0-13.6-6.075-13.6-13.598c0-7.526,6.096-13.6,13.6-13.6
			c7.52,0,13.621,6.073,13.621,13.6C37.91,57.523,31.809,63.599,24.289,63.599z"/>
	</g>
	<g>
		<path d="M75.711,28.401c-11.922,0-21.621,9.689-21.621,21.6c0,11.909,9.699,21.598,21.621,21.598c11.91,0,21.6-9.688,21.6-21.598
			C97.311,38.091,87.621,28.401,75.711,28.401z M75.711,63.599c-7.525,0-13.621-6.075-13.621-13.598c0-7.526,6.096-13.6,13.621-13.6
			c7.498,0,13.6,6.073,13.6,13.6C89.311,57.523,83.209,63.599,75.711,63.599z"/>
	</g>
</g>
</svg>
