<?xml version="1.0" encoding="utf-8"?>
<!-- Generator: Adobe Illustrator 16.0.0, SVG Export Plug-In . SVG Version: 6.00 Build 0)  -->
<!DOCTYPE svg PUBLIC "-//W3C//DTD SVG 1.1//EN" "http://www.w3.org/Graphics/SVG/1.1/DTD/svg11.dtd">
<svg version="1.1" xmlns="http://www.w3.org/2000/svg" xmlns:xlink="http://www.w3.org/1999/xlink" x="0px" y="0px" width="100px"
	 height="100px" viewBox="0 0 100 100" enable-background="new 0 0 100 100" xml:space="preserve">
<g id="Layer_3" display="none">
</g>
<g id="Your_Icon">
</g>
<g id="Layer_4">
	<path fill="none" stroke="#000000" stroke-width="10" stroke-linecap="square" stroke-miterlimit="10" d="M51.318,67.799"/>
	<path d="M60.655,70.882l-6.451-7.641l3.82-3.226c2.702-2.282,4.101-5.291,3.48-7.488c-1.585-5.604-5.921-7.853-12.865-11.057
		c-6.955-3.209-15.611-7.202-18.185-17.871c-1.146-4.756,0.198-10.027,3.691-14.461c4.051-5.145,10.247-8.34,16.169-8.34
		c0.003,0,0.005,0,0.009,0c5.317,0,10.324,2.032,14.096,5.722c3.803,3.72,5.896,8.674,5.896,13.95v5h-10v-5
		c0-2.563-1.025-4.979-2.889-6.802c-1.893-1.851-4.416-2.87-7.105-2.87c-0.001,0-0.002,0-0.003,0h-0.001
		c-2.843,0-6.184,1.819-8.316,4.527c-1.584,2.01-2.249,4.171-1.824,5.929c1.367,5.674,5.698,7.928,12.65,11.136
		c6.854,3.162,15.383,7.097,18.3,17.417C72.85,55.9,70.3,62.739,64.476,67.656L60.655,70.882z"/>
	<path d="M49.676,99.201c-5.316,0-10.324-2.032-14.096-5.722c-3.803-3.719-5.896-8.674-5.896-13.95v-5h10v5
		c0,2.563,1.025,4.979,2.889,6.802c1.893,1.851,4.416,2.87,7.106,2.87c0.001,0,0.002,0,0.003,0h0.002
		c2.842,0,6.182-1.819,8.314-4.527c1.584-2.01,2.249-4.171,1.824-5.929c-1.367-5.674-5.698-7.928-12.65-11.136
		c-6.854-3.162-15.383-7.097-18.3-17.417c-1.721-6.092,0.828-12.93,6.651-17.849l3.82-3.226l6.452,7.64l-3.819,3.227
		c-2.703,2.282-4.102,5.292-3.481,7.488c1.585,5.604,5.921,7.853,12.865,11.057c6.955,3.209,15.611,7.202,18.185,17.871
		c1.146,4.756-0.198,10.027-3.691,14.462c-4.051,5.144-10.246,8.339-16.168,8.339C49.682,99.201,49.68,99.201,49.676,99.201z"/>
</g>
</svg>
