<?xml version="1.0" encoding="utf-8"?>
<!-- Generator: Adobe Illustrator 16.0.0, SVG Export Plug-In . SVG Version: 6.00 Build 0)  -->
<!DOCTYPE svg PUBLIC "-//W3C//DTD SVG 1.1//EN" "http://www.w3.org/Graphics/SVG/1.1/DTD/svg11.dtd">
<svg version="1.1" xmlns="http://www.w3.org/2000/svg" xmlns:xlink="http://www.w3.org/1999/xlink" x="0px" y="0px" width="100px"
	 height="100px" viewBox="0 0 100 100" enable-background="new 0 0 100 100" xml:space="preserve">
<g id="Layer_3" display="none">
	<circle display="inline" fill="none" stroke="#000000" stroke-width="0.25" stroke-miterlimit="10" cx="50" cy="50" r="15.134"/>
	<rect x="6" y="6" display="inline" opacity="0.26" width="88" height="88"/>
	<circle display="inline" fill="none" stroke="#000000" stroke-width="0.25" stroke-miterlimit="10" cx="50" cy="50" r="24"/>
	<circle display="inline" fill="none" stroke="#000000" stroke-width="0.25" stroke-miterlimit="10" cx="50" cy="50" r="31"/>
	<circle display="inline" fill="none" stroke="#000000" stroke-width="0.25" stroke-miterlimit="10" cx="50" cy="50" r="9.134"/>
	<g display="inline">
		<path d="M50,0.25c27.432,0,49.75,22.317,49.75,49.75S77.432,99.75,50,99.75S0.25,77.433,0.25,50S22.568,0.25,50,0.25 M50,0
			C22.389,0,0,22.386,0,50s22.389,50,50,50c27.612,0,50-22.386,50-50S77.612,0,50,0L50,0z"/>
	</g>
</g>
<g id="Your_Icon">
</g>
<g id="Layer_4">
	<path d="M50,28.999c-1.651,0-3.279-0.291-4.839-0.865c-7.24-2.666-10.963-10.729-8.298-17.973c2.02-5.48,7.298-9.16,13.136-9.16
		c1.651,0,3.279,0.291,4.838,0.866c5.205,1.915,8.791,6.729,9.135,12.264c0.122,1.941-0.161,3.862-0.84,5.707
		c-0.73,1.984-1.918,3.802-3.434,5.257C57.08,27.611,53.634,28.999,50,28.999z M50,9.001c-2.501,0-4.764,1.577-5.628,3.924
		c-1.142,3.104,0.453,6.56,3.555,7.701c2.135,0.789,4.616,0.252,6.232-1.302c0.656-0.63,1.149-1.387,1.467-2.251
		c0.293-0.795,0.415-1.616,0.363-2.443c-0.147-2.373-1.684-4.435-3.915-5.256C51.401,9.126,50.704,9.001,50,9.001z"/>
	<path d="M85,89.5c-1.651,0-3.279-0.292-4.839-0.867c-3.506-1.289-6.303-3.87-7.87-7.268c-1.567-3.396-1.718-7.197-0.425-10.706
		c2.019-5.478,7.296-9.158,13.134-9.158c1.651,0,3.279,0.291,4.839,0.866c3.507,1.289,6.304,3.871,7.871,7.268
		c1.566,3.396,1.717,7.198,0.423,10.707C96.114,85.819,90.836,89.5,85,89.5z M85,69.501c-2.501,0-4.762,1.577-5.627,3.924
		c-0.554,1.504-0.49,3.134,0.182,4.589c0.671,1.454,1.868,2.56,3.37,3.112C83.6,81.374,84.296,81.5,85,81.5
		c2.5,0,4.762-1.578,5.627-3.926c0.554-1.503,0.49-3.133-0.182-4.588c-0.671-1.454-1.868-2.56-3.37-3.112
		C86.402,69.626,85.705,69.501,85,69.501z"/>
	<path d="M85,43H54v-7c0-2.209-1.791-4-4-4s-4,1.791-4,4v7H15c-2.209,0-4,1.791-4,4v6c0,2.209,1.791,4,4,4s4-1.791,4-4v-2h27v13
		c0,2.209,1.791,4,4,4s4-1.791,4-4V51h27v2c0,2.209,1.791,4,4,4s4-1.791,4-4v-6C89,44.791,87.209,43,85,43z"/>
	<path d="M50,99c-1.651,0-3.279-0.292-4.839-0.867c-3.506-1.289-6.303-3.87-7.87-7.268c-1.567-3.396-1.718-7.197-0.425-10.706
		c2.019-5.478,7.296-9.158,13.134-9.158c1.651,0,3.279,0.291,4.839,0.866c3.507,1.289,6.304,3.871,7.871,7.268
		c1.566,3.396,1.717,7.198,0.423,10.707C61.114,95.319,55.836,99,50,99z M50,79.001c-2.501,0-4.762,1.577-5.627,3.924
		c-0.554,1.504-0.49,3.134,0.182,4.589c0.671,1.454,1.868,2.56,3.37,3.112C48.6,90.874,49.296,91,50,91
		c2.5,0,4.762-1.578,5.627-3.926c0.554-1.503,0.49-3.133-0.182-4.588c-0.671-1.454-1.868-2.56-3.37-3.112
		C51.402,79.126,50.705,79.001,50,79.001z"/>
	<path d="M15,88c-1.651,0-3.279-0.292-4.839-0.867c-3.506-1.289-6.303-3.87-7.87-7.268c-1.567-3.396-1.718-7.197-0.425-10.706
		C3.884,63.682,9.162,60.001,15,60.001c1.651,0,3.279,0.291,4.839,0.866c3.507,1.289,6.304,3.871,7.871,7.268
		c1.566,3.396,1.717,7.198,0.423,10.707C26.113,84.319,20.835,88,15,88z M15,68.001c-2.501,0-4.762,1.577-5.627,3.924
		c-0.554,1.504-0.49,3.134,0.182,4.589c0.671,1.454,1.868,2.56,3.37,3.112C13.599,79.874,14.296,80,15,80
		c2.5,0,4.762-1.578,5.627-3.926c0.554-1.503,0.49-3.133-0.182-4.588c-0.671-1.454-1.868-2.56-3.37-3.112
		C16.401,68.126,15.704,68.001,15,68.001z"/>
</g>
</svg>
