<?xml version="1.0" encoding="utf-8"?>
<!-- Generator: Adobe Illustrator 16.0.0, SVG Export Plug-In . SVG Version: 6.00 Build 0)  -->
<!DOCTYPE svg PUBLIC "-//W3C//DTD SVG 1.1//EN" "http://www.w3.org/Graphics/SVG/1.1/DTD/svg11.dtd">
<svg version="1.1" xmlns="http://www.w3.org/2000/svg" xmlns:xlink="http://www.w3.org/1999/xlink" x="0px" y="0px" width="100px"
	 height="100px" viewBox="0 0 100 100" enable-background="new 0 0 100 100" xml:space="preserve">
<g id="Layer_3">
</g>
<g id="Your_Icon">
</g>
<g id="Layer_4">
	<g>
		<path d="M80.536,74.296L30.321,24.081c-1.2,2.423-3.166,4.433-5.652,5.661l49.875,49.875
			C75.88,77.273,77.965,75.379,80.536,74.296z"/>
		<g>
			<path d="M28.969,16.766c-0.984-5.432-6.185-9.043-11.62-8.055c-5.434,0.985-9.038,6.181-8.058,11.619
				c0.984,5.435,6.185,9.042,11.62,8.053C26.345,27.401,29.952,22.199,28.969,16.766z"/>
		</g>
		<g>
			<path d="M83.618,75.962c-5.432,0.985-9.038,6.183-8.057,11.619c0.984,5.435,6.186,9.042,11.62,8.054
				c5.434-0.981,9.04-6.184,8.058-11.617C94.255,78.586,89.054,74.975,83.618,75.962z"/>
		</g>
	</g>
	<g>
		<path d="M48.947,22.672L23.251,48.368c2.423,1.201,4.434,3.167,5.66,5.652l25.696-25.696
			C52.185,27.125,50.174,25.158,48.947,22.672z"/>
		<g>
			<path d="M69.981,15.351c-0.987-5.432-6.186-9.038-11.622-8.056c-5.433,0.984-9.042,6.185-8.054,11.618
				c0.981,5.435,6.185,9.041,11.618,8.059C67.354,25.988,70.966,20.787,69.981,15.351z"/>
		</g>
		<g>
			<path d="M15.933,49.719c-5.434,0.986-9.042,6.187-8.053,11.622c0.98,5.435,6.184,9.041,11.618,8.059
				c5.432-0.984,9.043-6.186,8.056-11.621C26.569,52.346,21.371,48.737,15.933,49.719z"/>
		</g>
	</g>
</g>
</svg>
