<?xml version="1.0" encoding="utf-8"?>
<!-- Generator: Adobe Illustrator 16.0.0, SVG Export Plug-In . SVG Version: 6.00 Build 0)  -->
<!DOCTYPE svg PUBLIC "-//W3C//DTD SVG 1.1//EN" "http://www.w3.org/Graphics/SVG/1.1/DTD/svg11.dtd">
<svg version="1.1" xmlns="http://www.w3.org/2000/svg" xmlns:xlink="http://www.w3.org/1999/xlink" x="0px" y="0px" width="100px"
	 height="100px" viewBox="0 0 100 100" enable-background="new 0 0 100 100" xml:space="preserve">
<g id="Layer_3" display="none">
</g>
<g id="Your_Icon">
</g>
<g id="Layer_4">
	<path d="M29.861,88.035c-11.369,0-19.277-2.144-23.504-6.372c-6.917-6.917-6.431-21.801-6.261-24.749
		c-0.17-2.948-0.655-17.832,6.261-24.748c0.176-0.176,0.365-0.339,0.565-0.486l23.85-17.618c1.184-1.076,4.852-4.056,9.174-4.056
		c3.614,0,6.714,2.066,8.503,5.671c2.034,4.095,2.504,7.975,2.211,11.237h34.311c6.029,0,15,3.995,15,15c0,10.271-8.971,14-15,14
		H62.893c-0.004,1.929-0.061,4.237-0.235,6.672c-0.672,9.38-2.68,15.62-6.138,19.078c-5.473,5.474-15.346,6.292-20.744,6.292
		c-0.802,0-1.413-0.02-1.765-0.034C33.374,87.96,31.86,88.035,29.861,88.035z M13.22,39.459c-2.728,3.118-3.486,11.96-3.127,17.107
		c0.016,0.231,0.016,0.464,0,0.695c-0.367,5.441,0.425,14.421,3.335,17.331c1.664,1.664,6.855,3.442,16.433,3.442
		c2.222,0,3.73-0.106,3.745-0.107c0.221-0.016,0.447-0.018,0.668-0.005c0.059,0.004,0.618,0.033,1.501,0.033
		c6.263,0,11.63-1.32,13.673-3.363c2.948-2.947,3.829-15.463,3.333-23.365c-0.086-1.378,0.4-2.73,1.346-3.736
		c0.945-1.006,2.264-1.577,3.645-1.577h27.199c1.838-0.037,5-0.607,5-4c0-4.026-2.751-4.942-5.059-5H43.971
		c-1.883,0-3.666-0.975-4.518-2.654s-0.747-3.612,0.366-5.133c0.186-0.309,2.208-3.882-0.319-8.987
		c-0.654,0.281-1.608,0.938-2.055,1.37c-0.159,0.152-0.327,0.295-0.504,0.426L13.22,39.459z"/>
</g>
</svg>
