<?xml version="1.0" encoding="utf-8"?>
<!-- Generator: Adobe Illustrator 16.0.0, SVG Export Plug-In . SVG Version: 6.00 Build 0)  -->
<!DOCTYPE svg PUBLIC "-//W3C//DTD SVG 1.1//EN" "http://www.w3.org/Graphics/SVG/1.1/DTD/svg11.dtd">
<svg version="1.1" xmlns="http://www.w3.org/2000/svg" xmlns:xlink="http://www.w3.org/1999/xlink" x="0px" y="0px" width="100px"
	 height="100px" viewBox="0 0 100 100" enable-background="new 0 0 100 100" xml:space="preserve">
<g id="Layer_3" display="none">
</g>
<g id="Your_Icon">
</g>
<g id="Layer_4">
	<path d="M50,55c-1.055,0-2.108-0.333-2.997-0.998l-27-20.22C18.742,32.838,18,31.355,18,29.78V5c0-2.761,2.238-5,5-5h54
		c2.762,0,5,2.239,5,5v24.78c0,1.575-0.742,3.058-2.003,4.002l-27,20.22C52.108,54.667,51.055,55,50,55z M28,27.278l22,16.476
		l22-16.476V10H28V27.278z"/>
	<path d="M77,100H23c-2.762,0-5-2.238-5-5V70.22c0-1.575,0.742-3.058,2.003-4.002l27-20.22c1.777-1.331,4.217-1.331,5.994,0
		l27,20.22C81.258,67.162,82,68.645,82,70.22V95C82,97.762,79.762,100,77,100z M28,90h44V72.722L50,56.247L28,72.722V90z"/>
	<rect x="20" y="73" width="60" height="10"/>
	<rect x="20" y="17.5" width="60" height="9"/>
</g>
</svg>
