<?xml version="1.0" encoding="utf-8"?>
<!-- Generator: Adobe Illustrator 16.0.0, SVG Export Plug-In . SVG Version: 6.00 Build 0)  -->
<!DOCTYPE svg PUBLIC "-//W3C//DTD SVG 1.1//EN" "http://www.w3.org/Graphics/SVG/1.1/DTD/svg11.dtd">
<svg version="1.1" xmlns="http://www.w3.org/2000/svg" xmlns:xlink="http://www.w3.org/1999/xlink" x="0px" y="0px" width="100px"
	 height="100px" viewBox="0 0 100 100" enable-background="new 0 0 100 100" xml:space="preserve">
<g id="Layer_3" display="none">
	<g display="inline" opacity="0.31">
		<path d="M-48,152c-1.06,0-2.076-0.421-2.826-1.17C-51.578,150.08-52,149.062-52,148V92c0-2.209,1.791-4,4-4H8c2.209,0,4,1.791,4,4
			v55.92c0,2.207-1.787,3.997-3.994,4C8.006,151.92-47.998,152-48,152z"/>
		<path d="M8,92v55.92L-48,148V92H8 M8,84h-56c-4.418,0-8,3.582-8,8v56c0,2.124,0.844,4.16,2.347,5.661
			C-52.153,155.159-50.12,156-48,156c0.004,0,0.007,0,0.011,0l56-0.08c4.413-0.006,7.988-3.586,7.988-8V92C16,87.582,12.418,84,8,84
			L8,84z"/>
	</g>
</g>
<g id="Your_Icon">
</g>
<g id="Layer_4">
	<path d="M21,40c1.148,0,2.316,0.199,3.456,0.62c5.18,1.907,7.834,7.656,5.924,12.837c-1.487,4.041-5.313,6.544-9.384,6.544
		c-1.146,0-2.312-0.199-3.452-0.618c-5.182-1.911-7.835-7.656-5.924-12.839C13.107,42.503,16.932,40,21,40 M21,30L21,30
		c-8.342,0-15.883,5.26-18.764,13.089c-3.812,10.339,1.501,21.86,11.848,25.675c2.23,0.821,4.554,1.236,6.912,1.236
		c8.346,0,15.888-5.261,18.769-13.091c1.846-5.007,1.63-10.439-0.608-15.291c-2.238-4.851-6.232-8.539-11.244-10.384
		C25.689,30.416,23.363,30,21,30L21,30z"/>
	<path d="M78.798,12c4.069,0,7.894,2.503,9.382,6.543c1.911,5.181-0.743,10.929-5.924,12.837C81.116,31.801,79.949,32,78.802,32
		c-4.069,0-7.896-2.503-9.383-6.543c-1.908-5.182,0.745-10.93,5.924-12.837C76.482,12.2,77.65,12,78.798,12 M78.798,2
		c-2.361,0-4.688,0.416-6.913,1.236c-10.344,3.811-15.66,15.329-11.85,25.676C62.918,36.741,70.46,42,78.802,42
		c2.36,0,4.686-0.416,6.911-1.235c5.012-1.847,9.006-5.535,11.244-10.385c2.239-4.852,2.454-10.285,0.604-15.297
		C94.68,7.26,87.139,2,78.798,2L78.798,2z"/>
	<g>
		<path fill="none" d="M23.66,40.541c0.135-0.002,0.271-0.003,0.408,0.001c-0.09-0.002-0.18-0.012-0.268-0.012
			C23.753,40.53,23.707,40.54,23.66,40.541z"/>
		<path fill="none" d="M74.999,14.1c-0.085,0-0.172,0.009-0.258,0.011c0.132-0.004,0.263-0.003,0.394-0.001
			C75.09,14.11,75.045,14.1,74.999,14.1z"/>
		<path fill="none" d="M23.797,59.47c0.049,0,0.098-0.011,0.146-0.011c-0.141,0.002-0.281,0.003-0.422-0.001
			C23.613,59.46,23.705,59.47,23.797,59.47z"/>
		<path fill="none" d="M75.002,32.1c0.086,0,0.172-0.009,0.258-0.011c-0.131,0.004-0.263,0.003-0.394,0.001
			C74.912,32.09,74.957,32.1,75.002,32.1z"/>
		<path fill="none" d="M75.089,68c-0.083,0-0.167,0.009-0.251,0.011c0.128-0.003,0.256-0.003,0.383-0.001
			C75.176,68.01,75.133,68,75.089,68z"/>
		<path fill="none" d="M75.093,86c0.086,0,0.173-0.009,0.259-0.012c-0.133,0.004-0.264,0.003-0.396,0.001
			C75.002,85.99,75.047,86,75.093,86z"/>
		<path d="M43.129,44.95l17.387-9.592c-1.412-1.662-2.561-3.572-3.341-5.688c-0.41-1.113-0.703-2.25-0.899-3.394L38.26,36.215
			c1.496,1.572,2.754,3.38,3.689,5.408C42.449,42.706,42.832,43.82,43.129,44.95z"/>
		<path d="M43.019,55.438c-0.14,0.493-0.283,0.985-0.462,1.472c-1.011,2.745-2.604,5.164-4.594,7.16l18.348,10.123
			c0.51-3.367,1.93-6.535,4.072-9.175L43.019,55.438z"/>
	</g>
	<path d="M78.799,67.999c4.068,0,7.893,2.503,9.38,6.545c1.912,5.183-0.742,10.929-5.923,12.838c-1.14,0.42-2.307,0.619-3.454,0.619
		c-4.069,0-7.896-2.503-9.383-6.544c-1.908-5.184,0.744-10.928,5.925-12.839C76.483,68.198,77.65,67.999,78.799,67.999
		 M78.799,57.999c-2.361,0-4.688,0.416-6.914,1.236c-10.343,3.815-15.658,15.333-11.85,25.677
		c2.882,7.828,10.424,13.089,18.767,13.089c2.36,0,4.687-0.416,6.911-1.235c5.014-1.848,9.006-5.535,11.244-10.385
		c2.238-4.852,2.453-10.284,0.604-15.298C94.683,63.261,87.142,57.999,78.799,57.999L78.799,57.999z"/>
</g>
</svg>
