<?xml version="1.0" encoding="utf-8"?>
<!-- Generator: Adobe Illustrator 16.0.0, SVG Export Plug-In . SVG Version: 6.00 Build 0)  -->
<!DOCTYPE svg PUBLIC "-//W3C//DTD SVG 1.1//EN" "http://www.w3.org/Graphics/SVG/1.1/DTD/svg11.dtd">
<svg version="1.1" xmlns="http://www.w3.org/2000/svg" xmlns:xlink="http://www.w3.org/1999/xlink" x="0px" y="0px" width="100px"
	 height="100px" viewBox="0 0 100 100" enable-background="new 0 0 100 100" xml:space="preserve">
<g id="Layer_3" display="none">
	<circle display="inline" fill="none" stroke="#000000" stroke-width="0.25" stroke-miterlimit="10" cx="50" cy="49.5" r="17.5"/>
	<polyline display="inline" opacity="0.15" points="95,5 5,5 5,95 95,95 	"/>
	<circle display="inline" fill="none" stroke="#000000" stroke-width="0.25" stroke-miterlimit="10" cx="50" cy="50" r="26"/>
	<circle display="inline" fill="none" stroke="#000000" stroke-width="0.25" stroke-miterlimit="10" cx="50" cy="50" r="34"/>
	<circle display="inline" fill="none" stroke="#000000" stroke-width="0.25" stroke-miterlimit="10" cx="50" cy="49.5" r="9"/>
	<path display="inline" fill="none" stroke="#000000" stroke-width="0.25" stroke-miterlimit="10" d="M0,50C0,22.386,22.389,0,50,0
		c27.612,0,50,22.386,50,50"/>
	<path display="inline" fill="none" stroke="#000000" stroke-width="0.25" stroke-miterlimit="10" d="M100,50
		c0,27.614-22.388,50-50,50C22.389,100,0,77.614,0,50"/>
</g>
<g id="Your_Icon">
</g>
<g id="Layer_4">
	<path d="M35.951,70.044l-18.5-0.001c-8.897,0-16.139-6.959-16.487-15.844c-0.005-0.16-0.005-2.09-0.003-2.868l0-0.289
		c0-0.176,0.006-2.969,0.012-3.142C1.325,39,8.567,32.042,17.461,32.042h18.5v8h-18.5c-4.582,0-8.312,3.583-8.493,8.158
		c-0.003,0.251-0.007,2.684-0.007,2.842l0,0.303c-0.001,0.687-0.004,2.346,0,2.61c0.177,4.504,3.908,8.088,8.491,8.088l18.5,0.001
		L35.951,70.044z"/>
	<rect x="33" y="46" width="34" height="8"/>
	<path d="M64.012,70.044v-8l18.5-0.001c4.582,0,8.312-3.583,8.491-8.158c0.004-0.234-0.001-1.861-0.002-2.538L91,51.042
		c0-0.157-0.001-2.542-0.008-2.886c-0.179-4.531-3.909-8.114-8.492-8.114H64v-8h18.5c8.896,0,16.139,6.959,16.487,15.843
		C98.998,48.115,99,49.963,99,51.042l0.001,0.287c0.006,2.666,0.001,2.759-0.006,2.901c-0.347,8.854-7.588,15.813-16.483,15.813
		L64.012,70.044z"/>
</g>
</svg>
