<?xml version="1.0" encoding="utf-8"?>
<!-- Generator: Adobe Illustrator 16.0.0, SVG Export Plug-In . SVG Version: 6.00 Build 0)  -->
<!DOCTYPE svg PUBLIC "-//W3C//DTD SVG 1.1//EN" "http://www.w3.org/Graphics/SVG/1.1/DTD/svg11.dtd">
<svg version="1.1" xmlns="http://www.w3.org/2000/svg" xmlns:xlink="http://www.w3.org/1999/xlink" x="0px" y="0px" width="100px"
	 height="100px" viewBox="0 0 100 100" enable-background="new 0 0 100 100" xml:space="preserve">
<g id="Layer_3" display="none">
</g>
<g id="Your_Icon">
</g>
<g id="Layer_4">
	<path d="M80,100H56V59.121H44V36.445h12V22.07l0.151-0.534C56.342,20.86,61.111,5,85.57,5H93v23.373l-4.637-0.748
		c-1.164-0.178-4.969-0.31-6.902,1.355C81.1,29.292,80,30.237,80,33.109v3.336h13v22.676H80V100z M64,92h8V51.121h13v-6.676H72
		l0.03-12.387c0.277-4.796,2.432-7.626,4.259-9.182c2.689-2.291,6.033-3.077,8.711-3.29v-6.584c-15.91,0.191-20.203,8.355-21,10.3
		v21.143H52v6.676h12V92z"/>
</g>
</svg>
