<?xml version="1.0" encoding="utf-8"?>
<!-- Generator: Adobe Illustrator 16.0.0, SVG Export Plug-In . SVG Version: 6.00 Build 0)  -->
<!DOCTYPE svg PUBLIC "-//W3C//DTD SVG 1.1//EN" "http://www.w3.org/Graphics/SVG/1.1/DTD/svg11.dtd">
<svg version="1.1" xmlns="http://www.w3.org/2000/svg" xmlns:xlink="http://www.w3.org/1999/xlink" x="0px" y="0px" width="100px"
	 height="100px" viewBox="0 0 100 100" enable-background="new 0 0 100 100" xml:space="preserve">
<g id="Layer_3" display="none">
	<path display="inline" fill="none" stroke="#000000" stroke-width="0.25" stroke-miterlimit="10" d="M-2,73.89
		C18.83,92.019,50.414,89.828,68.541,69c18.128-20.828,15.94-52.412-4.89-70.542"/>
	<polyline display="inline" opacity="0.15" points="95,5.5 5,5.5 5,95.5 95,95.5 	"/>
	<path display="inline" fill="none" stroke="#000000" stroke-width="0.25" stroke-miterlimit="10" d="M99.992-20.595
		C100.321,7.018,78.2,29.668,50.59,29.996C22.98,30.323,0.328,8.206,0-19.406"/>
	<path display="inline" fill="none" stroke="#000000" stroke-width="0.25" stroke-miterlimit="10" d="M101.826,73.716
		c-20.83,18.129-52.414,15.938-70.541-4.89c-18.128-20.828-15.94-52.412,4.89-70.542"/>
</g>
<g id="Your_Icon">
	<g>
		<g opacity="0.6">
			<path d="M52.382,32.156C52.274,32.364,52.148,32.642,52,33c0.141-0.308,0.264-0.556,0.379-0.775
				C52.38,32.203,52.381,32.179,52.382,32.156z"/>
			<path d="M52.382,32.156C52.274,32.364,52.148,32.642,52,33c0.141-0.308,0.264-0.556,0.379-0.775
				C52.38,32.203,52.381,32.179,52.382,32.156L52.382,32.156z"/>
		</g>
		<g>
			<path d="M89,17c-2.81,4.903-3.355,5.552-7.764,7.875c-2.269-5.402-7.607-9.197-13.836-9.197c-8.283,0-14.585,6.726-14.999,15
				C52.393,30.851,51.743,31.147,52,32c0,0-14,5-37-15c0,0-6,19,8,22c1.567,0.336-11,1-11,1s2,13,11,12c2.223-0.247-8,4-8,4
				s7.902,19.807,18.768,16.074C24.556,81.003,8,81,8,81c13,12,41.896,7.745,54.401-1.37C88.401,60.678,83,34,83,34
				c0-0.316,9.238-6.798,9-7c-1.915-1.627-10,1-10,1C95.766,24.061,89,17,89,17z"/>
			<path d="M67.4,23.678c2.829,0,5.364,1.686,6.46,4.295l1.477,3.516C75.106,32.228,75,33.044,75,34v0.802l0.159,0.786
				c0.044,0.216,4.133,21.83-17.47,37.577c-4.766,3.474-12.885,6.089-20.98,6.924c0.907-0.7,1.786-1.456,2.627-2.271l25.755-24.963
				L31.169,64.508c-0.079,0.027-0.125,0.034-0.139,0.034c-0.322,0-2.189-0.817-4.817-4.597c-0.039-0.058-0.079-0.114-0.118-0.172
				c0.456-0.24,0.836-0.458,1.174-0.672c3.674-2.329,4.42-5.983,3.893-8.626c-0.419-2.097-1.6-3.847-3.233-4.999
				c2.078-1.545,3.028-3.835,3.183-5.78c0.08-1.01-0.026-1.99-0.294-2.906c6.824,2.921,12.464,3.766,16.702,3.766
				c4,0,6.501-0.782,7.172-1.021l7.164-2.559l-1.541-5.115c0.041-0.279,0.065-0.542,0.078-0.783
				C60.603,26.859,63.615,23.678,67.4,23.678 M67.4,15.678c-8.283,0-14.585,6.726-14.999,15C52.393,30.851,51.743,31.147,52,32
				c0,0-1.556,0.556-4.481,0.556C41.667,32.556,30.334,30.334,15,17c0,0-6,19,8,22c1.567,0.336-11,1-11,1
				s1.854,12.055,10.028,12.055c0.314,0,0.639-0.018,0.972-0.055c0.062-0.007,0.115-0.011,0.159-0.011C24.653,51.989,15,56,15,56
				s6.601,16.543,16.03,16.543c0.889,0,1.802-0.147,2.737-0.469C24.556,81.003,8,81,8,81c5.663,5.228,14.344,7.37,23.371,7.37
				c11.695,0,23.973-3.596,31.03-8.74C88.401,60.678,83,34,83,34c0-0.316,9.238-6.798,9-7c-0.453-0.385-1.251-0.531-2.205-0.531
				c-2.221,0-5.29,0.796-6.831,1.24C82.654,27.808,82.334,27.904,82,28c0,0,0.367-0.119,0.964-0.291C95.44,23.723,89,17,89,17
				c-2.81,4.903-3.355,5.552-7.764,7.875C78.968,19.473,73.629,15.678,67.4,15.678L67.4,15.678z"/>
		</g>
	</g>
</g>
<g id="Layer_4">
</g>
</svg>
