<?xml version="1.0" encoding="utf-8"?>
<!-- Generator: Adobe Illustrator 16.0.0, SVG Export Plug-In . SVG Version: 6.00 Build 0)  -->
<!DOCTYPE svg PUBLIC "-//W3C//DTD SVG 1.1//EN" "http://www.w3.org/Graphics/SVG/1.1/DTD/svg11.dtd">
<svg version="1.1" xmlns="http://www.w3.org/2000/svg" xmlns:xlink="http://www.w3.org/1999/xlink" x="0px" y="0px" width="100px"
	 height="100px" viewBox="0 0 100 100" enable-background="new 0 0 100 100" xml:space="preserve">
<g id="Layer_3" display="none">
	<g display="inline" opacity="0.31">
		<path d="M92,152c-1.06,0-2.076-0.421-2.826-1.17C88.422,150.08,88,149.062,88,148V92c0-2.209,1.791-4,4-4h56c2.209,0,4,1.791,4,4
			v55.92c0,2.207-1.787,3.997-3.994,4C148.006,151.92,92.002,152,92,152z"/>
		<path d="M148,92v55.92L92,148V92H148 M148,84H92c-4.418,0-8,3.582-8,8v56c0,2.124,0.844,4.16,2.347,5.661
			C87.847,155.159,89.88,156,92,156c0.004,0,0.007,0,0.011,0l56-0.08c4.413-0.006,7.988-3.586,7.988-8V92
			C156,87.582,152.418,84,148,84L148,84z"/>
	</g>
</g>
<g id="Your_Icon">
</g>
<g id="Layer_4">
	<g>
		<path fill="none" d="M47.533,70.778l0.138-0.129l-0.138-0.095l-0.001-0.001L10,44.714l37.529,26.284
			C47.531,70.992,47.532,70.777,47.533,70.778z"/>
		<path fill="none" d="M49.814,71c-0.758,0-1.489-0.078-2.209-0.446l0.067,0.046c0,0.001-0.025-0.008-0.045-0.015
			c0.003,0.005,0.003,0.005,0.007,0.011C48.33,70.923,49.067,71,49.796,71C49.802,71,49.808,71,49.814,71z"/>
		<path fill="none" d="M52.25,70.631c-0.077,0.037-0.178,0.066-0.284,0.101c-0.136,0.044-0.273,0.073-0.371,0.111
			c-0.002,0,0.001-0.022-0.002-0.022c-0.177,0.066-0.347,0.074-0.529,0.121c0.182-0.047,0.352-0.005,0.529-0.071
			c0.004,0,0-0.002,0.002-0.002c0.098-0.038,0.235-0.08,0.371-0.124c0.106-0.034,0.208-0.07,0.284-0.107
			c0.006-0.003,0.017-0.006,0.022-0.009L90,45.989L52.272,70.625C52.267,70.628,52.256,70.628,52.25,70.631z"/>
		<path fill="#FFFFFF" d="M47.604,70.554c-0.001-0.001,0.012,0.018,0.021,0.031c0.02,0.007,0.046,0.016,0.045,0.015L47.604,70.554z"
			/>
		<path d="M89.7,10h-80C4.177,10,0,14.277,0,19.8v70c0,2.654,0.905,5.3,2.783,7.175C4.659,98.848,7.051,100,9.7,100
			c0.004,0,0.008,0,0.012,0l80.15-0.199C95.38,99.795,100,95.219,100,89.701V39.433v-0.196c0-1.466,0-8.296,0-11.055v-0.195V19.8
			C100,14.277,95.223,10,89.7,10z M90,89.701L10,89.8V44.714l37.532,25.839l0.001,0.001l0.138,0.095
			c0.001,0.001-0.019-0.027-0.038-0.054c-0.004-0.006-0.004-0.006-0.007-0.011c-0.01-0.014-0.022-0.032-0.021-0.031
			C48.325,70.922,49.056,71,49.814,71c0.006,0,0.013,0,0.02,0c0.423,0,0.824,0.045,1.23-0.059c0.182-0.047,0.352-0.055,0.529-0.121
			c0.004,0,0,0.022,0.002,0.022c0.098-0.038,0.235-0.067,0.371-0.111c0.106-0.034,0.207-0.063,0.284-0.101
			c0.006-0.003,0.017-0.003,0.022-0.006L90,45.989V89.701z M90,34.676L50.108,60.587L10,34.235V20h80V34.676z"/>
	</g>
</g>
</svg>
