<?xml version="1.0" encoding="utf-8"?>
<!-- Generator: Adobe Illustrator 16.0.0, SVG Export Plug-In . SVG Version: 6.00 Build 0)  -->
<!DOCTYPE svg PUBLIC "-//W3C//DTD SVG 1.1//EN" "http://www.w3.org/Graphics/SVG/1.1/DTD/svg11.dtd">
<svg version="1.1" id="Your_Icon" xmlns="http://www.w3.org/2000/svg" xmlns:xlink="http://www.w3.org/1999/xlink" x="0px" y="0px"
	 width="100px" height="100px" viewBox="0 0 100 100" enable-background="new 0 0 100 100" xml:space="preserve">
<g>
	<path d="M42.932,30.652c10.643-3.807,22.4,1.758,26.206,12.402c0.512,1.431,1.859,2.322,3.296,2.322
		c0.392,0,0.789-0.066,1.179-0.205c1.82-0.651,2.768-2.654,2.117-4.475c-5.105-14.276-20.876-21.739-35.155-16.636
		c-3.36,1.203-6.401,3.005-9.037,5.356c-0.137,0.122-0.251,0.26-0.363,0.396l5.067,4.791C38.193,32.875,40.443,31.543,42.932,30.652
		z"/>
	<path d="M43.269,42.394c0.166-0.545,0.01-1.137-0.404-1.527l-6.623-6.261l-5.067-4.791l-6.293-5.948
		c-0.436-0.411-1.074-0.523-1.623-0.288c-0.55,0.236-0.906,0.778-0.907,1.377l-0.017,20c0,0.44,0.193,0.859,0.53,1.146
		c0.272,0.231,0.617,0.355,0.97,0.355c0.082,0,0.164-0.007,0.247-0.021l18-3C42.643,43.342,43.103,42.938,43.269,42.394z"/>
	<path d="M57.936,69.26c-10.643,3.804-22.4-1.759-26.206-12.402c-0.651-1.821-2.657-2.766-4.475-2.117
		c-1.82,0.651-2.768,2.654-2.117,4.475c4.016,11.229,14.627,18.242,25.923,18.242c3.066,0,6.184-0.517,9.232-1.606
		c3.36-1.203,6.401-3.005,9.037-5.356c0.137-0.122,0.251-0.26,0.363-0.396l-5.067-4.791C62.674,67.037,60.424,68.369,57.936,69.26z"
		/>
	<path d="M78.003,53.812c-0.336-0.285-0.778-0.408-1.217-0.335l-18,3c-0.562,0.094-1.021,0.497-1.188,1.042s-0.01,1.137,0.404,1.527
		l6.623,6.261l5.067,4.791l6.293,5.948c0.284,0.269,0.654,0.41,1.03,0.41c0.2,0,0.402-0.04,0.593-0.122
		c0.55-0.236,0.906-0.778,0.907-1.377l0.017-20C78.533,54.517,78.34,54.098,78.003,53.812z"/>
</g>
</svg>
