<?xml version="1.0" encoding="utf-8"?>
<!-- Generator: Adobe Illustrator 16.0.0, SVG Export Plug-In . SVG Version: 6.00 Build 0)  -->
<!DOCTYPE svg PUBLIC "-//W3C//DTD SVG 1.1//EN" "http://www.w3.org/Graphics/SVG/1.1/DTD/svg11.dtd">
<svg version="1.1" xmlns="http://www.w3.org/2000/svg" xmlns:xlink="http://www.w3.org/1999/xlink" x="0px" y="0px" width="100px"
	 height="100px" viewBox="0 0 100 100" enable-background="new 0 0 100 100" xml:space="preserve">
<g id="Layer_3" display="none">
	<circle display="inline" fill="none" stroke="#000000" stroke-width="0.25" stroke-miterlimit="10" cx="50" cy="49.5" r="17.5"/>
	<polyline display="inline" opacity="0.15" points="95,5 5,5 5,95 95,95 	"/>
	<circle display="inline" fill="none" stroke="#000000" stroke-width="0.25" stroke-miterlimit="10" cx="50" cy="50" r="26"/>
	<circle display="inline" fill="none" stroke="#000000" stroke-width="0.25" stroke-miterlimit="10" cx="50" cy="50" r="34"/>
	<circle display="inline" fill="none" stroke="#000000" stroke-width="0.25" stroke-miterlimit="10" cx="50" cy="49.5" r="9"/>
	<path display="inline" fill="none" stroke="#000000" stroke-width="0.25" stroke-miterlimit="10" d="M0,50C0,22.386,22.389,0,50,0
		c27.612,0,50,22.386,50,50"/>
	<path display="inline" fill="none" stroke="#000000" stroke-width="0.25" stroke-miterlimit="10" d="M100,50
		c0,27.614-22.388,50-50,50C22.389,100,0,77.614,0,50"/>
</g>
<g id="Your_Icon">
</g>
<g id="Layer_4">
	<path d="M20.27,99.998c-0.002,0-0.002,0-0.006,0c-10.471,0-18.994-8.521-18.998-18.996l8-0.002c0.002,6.064,4.937,10.999,11,10.998
		c0,0,0.001,0,0.002,0c3.204,0,6.936-2.074,9.286-5.163c1.738-2.282,2.414-4.75,1.855-6.77c-2.08-7.521-8.482-17.399-14.673-26.953
		C9.776,42.372,2.578,31.266,0.374,21.918c-1.084-4.596,0.247-9.698,3.653-14c3.865-4.883,9.705-7.916,15.24-7.916
		c0.003,0,0.004,0,0.007,0c5.072,0,9.842,1.976,13.429,5.562c3.588,3.588,5.564,8.359,5.564,13.436h-8
		c0-2.939-1.144-5.701-3.221-7.778c-2.076-2.076-4.837-3.22-7.774-3.22c-0.001,0-0.002,0-0.003,0h-0.001
		c-3.102,0-6.621,1.916-8.969,4.882C8.42,15.257,7.641,17.88,8.16,20.082c1.886,7.997,8.701,18.512,15.291,28.68
		c6.821,10.524,13.263,20.464,15.671,29.172c1.23,4.449,0.063,9.459-3.201,13.747C32.075,96.733,25.931,99.998,20.27,99.998z"/>
	<g>
		<path d="M51.612,35.707c5.627-7.441,16.218-8.914,23.656-3.292C82.698,38.045,92,66.271,92,66.271L51.612,35.707z"/>
		<path d="M99.813,77.199L46.01,36.483l2.412-3.189C52.408,28.023,58.488,25,65.102,25c4.573,0,8.923,1.461,12.579,4.224
			c8.021,6.078,16.5,30.884,18.118,35.795L99.813,77.199z M57.713,35.308L83.57,54.875c-4.714-11.555-8.832-17.843-10.717-19.271
			C70.601,33.901,67.919,33,65.102,33C62.402,33,59.846,33.815,57.713,35.308z"/>
	</g>
	<g>
		<path d="M47.053,48.118c-4.946,6.425-3.757,15.642,2.661,20.596C56.137,73.658,81.944,75,81.944,75L47.053,48.118z"/>
		<path d="M94.547,79.661l-12.811-0.667c-4.518-0.234-27.409-1.681-34.462-7.11c-8.152-6.293-9.672-18.047-3.391-26.206l2.441-3.17
			L94.547,79.661z M48.396,54.203c-1.132,4.07,0.22,8.61,3.761,11.345c2.276,1.751,9.094,3.193,16.382,4.175L48.396,54.203z"/>
	</g>
	<path d="M25.089,54.281l-6.571-4.562c4.393-6.327,9.593-9.824,15.456-10.393c8.841-0.859,15.532,5.533,15.812,5.806l-5.573,5.74
		c-0.027-0.025-4.389-4.089-9.52-3.578C31.297,47.644,28.065,49.994,25.089,54.281z"/>
</g>
</svg>
