<?xml version="1.0" encoding="utf-8"?>
<!-- Generator: Adobe Illustrator 16.0.0, SVG Export Plug-In . SVG Version: 6.00 Build 0)  -->
<!DOCTYPE svg PUBLIC "-//W3C//DTD SVG 1.1//EN" "http://www.w3.org/Graphics/SVG/1.1/DTD/svg11.dtd">
<svg version="1.1" id="Your_Icon" xmlns="http://www.w3.org/2000/svg" xmlns:xlink="http://www.w3.org/1999/xlink" x="0px" y="0px"
	 width="100px" height="100px" viewBox="0 0 100 100" enable-background="new 0 0 100 100" xml:space="preserve">
<g>
	<path fill="none" d="M23.652,63.28c-3.386,2.774-7.224,5.919-7.999,10.149c-0.46,2.517,0.149,5.135,1.674,7.181
		c0.091,0.122,0.156,0.253,0.229,0.382c0.269,0.162,0.526,0.599,0.751,0.839C20.069,83.714,22.464,85,25.05,85
		c0.009,0,0.019,0,0.028,0c5.084-1,9.208-4.395,9.194-9.456c-0.01-3.691-3.396-10.167-6.524-15.511
		c-0.698,0.517-1.194,0.834-1.383,1C25.556,61.783,24.632,62.479,23.652,63.28z"/>
	<path d="M91.675,8.586c-0.755-0.894-1.903-1.347-3.07-1.221c-3.842,0.437-37.797,4.508-47.021,12.771
		c-7.727,6.921-10.247,16.526-6.746,25.698c1.337-0.998,3.233-0.931,4.49,0.254c1.405,1.327,1.47,3.542,0.144,4.948
		c-0.393,0.416-0.755,0.781-1.103,1.122c4.418,5.767,11.147,9.341,18.277,9.341c5.698,0,11.278-2.302,16.138-6.655
		c9.321-8.352,18.556-39.502,19.578-43.027C92.688,10.693,92.43,9.48,91.675,8.586z"/>
	<path fill="#FFFFFF" d="M39.471,51.037c1.326-1.406,1.262-3.621-0.144-4.948c-1.257-1.185-3.153-1.252-4.49-0.254
		c-0.16,0.12-0.316,0.247-0.458,0.397c-0.398,0.423-0.966,1.003-1.559,1.547c1.486-0.632,3.263-0.167,4.229,1.21
		c1.111,1.582,0.729,3.765-0.854,4.875c-0.821,0.577-1.663,1.171-2.493,1.759c0.208-0.08,0.412-0.173,0.604-0.293
		c0.829-0.434,2.1-1.244,4.062-3.171C38.716,51.818,39.078,51.453,39.471,51.037z"/>
	<path d="M37.049,48.989c-0.966-1.377-2.742-1.842-4.229-1.21c-0.223,0.095-0.44,0.212-0.646,0.356
		c-0.618,0.434-1.428,1.004-2.319,1.634c-0.349-0.593-0.679-1.162-0.969-1.68c-1.453-2.88-3.583-5.969-5.84-9.239
		c-3.33-4.824-7.474-10.829-7.538-14.277c-0.092-5.061,3.969-9.256,9.051-9.352c2.607-0.026,5.015,0.95,6.813,2.812
		c1.345,1.392,3.562,1.429,4.949,0.086c1.391-1.344,1.429-3.56,0.086-4.949c-3.121-3.229-7.534-5.036-11.979-4.947
		C15.488,8.391,8.348,15.782,8.51,24.702c0.103,5.56,4.512,11.947,8.775,18.125c2.141,3.102,4.162,6.031,5.395,8.5
		c0.016,0.032,0.037,0.06,0.054,0.091c0.009,0.017,0.013,0.035,0.022,0.052c0.414,0.742,0.886,1.551,1.39,2.4
		c-1.21,0.891-2.163,1.618-2.528,1.957c-0.663,0.615-1.508,1.307-2.401,2.039c-3.887,3.185-9.21,7.546-10.448,14.303
		c-0.809,4.423,0.265,9.023,2.944,12.623c0.274,0.368,0.619,0.647,0.988,0.873c0.138,0.247,0.295,0.735,0.497,0.951
		C16.254,89.881,20.572,92,25.051,92c0.016,0,0.031,0,0.047,0c8.944-1,16.199-7.555,16.175-16.475
		c-0.015-5.593-3.968-13.084-7.818-19.601c0.083-0.06,0.165-0.18,0.248-0.239c0.83-0.588,1.672-1.213,2.493-1.79
		C37.777,52.785,38.16,50.571,37.049,48.989z M34.272,75.544C34.286,80.605,30.162,84,25.078,85c-0.01,0-0.02,0-0.028,0
		c-2.586,0-4.98-1.286-6.743-3.169c-0.225-0.24-0.482-0.552-0.751-0.714c-0.072-0.129-0.138-0.322-0.229-0.444
		c-1.524-2.046-2.134-4.695-1.674-7.212c0.775-4.23,4.613-7.391,7.999-10.165c0.979-0.802,1.903-1.567,2.713-2.317
		c0.188-0.166,0.685-0.425,1.383-0.941C30.877,65.381,34.263,71.853,34.272,75.544z"/>
</g>
</svg>
