<?xml version="1.0" encoding="utf-8"?>
<!-- Generator: Adobe Illustrator 16.0.0, SVG Export Plug-In . SVG Version: 6.00 Build 0)  -->
<!DOCTYPE svg PUBLIC "-//W3C//DTD SVG 1.1//EN" "http://www.w3.org/Graphics/SVG/1.1/DTD/svg11.dtd">
<svg version="1.1" xmlns="http://www.w3.org/2000/svg" xmlns:xlink="http://www.w3.org/1999/xlink" x="0px" y="0px" width="100px"
	 height="100px" viewBox="0 0 100 100" enable-background="new 0 0 100 100" xml:space="preserve">
<g id="Layer_3" display="none">
	<circle display="inline" fill="none" stroke="#000000" stroke-width="0.25" stroke-miterlimit="10" cx="50" cy="50" r="15.134"/>
	<polyline display="inline" opacity="0.26" points="94,6 6,6 6,94 94,94 	"/>
	<circle display="inline" fill="none" stroke="#000000" stroke-width="0.25" stroke-miterlimit="10" cx="50" cy="50" r="24"/>
	<circle display="inline" fill="none" stroke="#000000" stroke-width="0.25" stroke-miterlimit="10" cx="50" cy="50" r="30"/>
	<circle display="inline" fill="none" stroke="#000000" stroke-width="0.25" stroke-miterlimit="10" cx="50" cy="50" r="9.134"/>
	<path display="inline" fill="none" stroke="#000000" stroke-width="0.25" stroke-miterlimit="10" d="M0,50C0,22.386,22.389,0,50,0
		c27.612,0,50,22.386,50,50"/>
	<path display="inline" fill="none" stroke="#000000" stroke-width="0.25" stroke-miterlimit="10" d="M100,50
		c0,27.614-22.388,50-50,50C22.389,100,0,77.614,0,50"/>
	<path display="inline" opacity="0.5" fill="none" stroke="#000000" stroke-width="8" stroke-miterlimit="10" d="M38,3
		c8.285,0,15,6.714,15,15.001C53,26.284,46.285,33,38,33s-15-6.716-15-14.999C23,9.714,29.715,3,38,3z"/>
	<path display="inline" opacity="0.5" fill="none" stroke="#000000" stroke-width="8" stroke-miterlimit="10" d="M52,36
		c16.57,0,30,13.428,30,30.002C82,82.568,68.57,96,52,96S22,82.568,22,66.002C22,49.428,35.43,36,52,36z"/>
</g>
<g id="Your_Icon">
</g>
<g id="Layer_4">
	<path d="M51.873,99.118c-0.861,0-1.543-0.053-1.988-0.101c-2.185,0.103-10.053,0.006-17.103-6.422
		C24.552,85.091,21,72.074,21,53.909V21c0-6.839,4.34-20.027,20.765-20.993l0.542-0.032l0.531,0.114C48.774,1.36,60,7.159,60,20
		v45.69c0.233,1.652,0.72,7.293-2.683,11.37C55.817,78.858,52.983,81,48,81c-4.443,0-7.025-1.977-8.409-3.635
		C36.198,73.3,36.754,67.381,37,65.685V40h8v26.36l-0.064,0.355c-0.26,1.523-0.188,4.354,0.804,5.531C45.914,72.453,46.375,73,48,73
		c2.286,0,2.955-0.802,3.175-1.065c1.241-1.486,1.013-4.542,0.89-5.219L52,66.36V20c0-8.472-8.206-11.354-10.359-11.964
		C29.508,9.087,29.016,19.79,29,21.025V54c-0.354,15.619,2.818,26.89,9.173,32.685c5.354,4.883,11.31,4.348,11.368,4.342
		l0.574-0.066l0.57,0.1c0.188,0.027,5.521,0.795,10.11-3.249c5.048-4.45,7.54-13.338,7.206-25.702L68,62V44h8v17.946
		c0.399,15.112-2.989,25.881-10.072,32.004C60.798,98.384,55.088,99.118,51.873,99.118z"/>
</g>
</svg>
