<?xml version="1.0" encoding="utf-8"?>
<!-- Generator: Adobe Illustrator 16.0.0, SVG Export Plug-In . SVG Version: 6.00 Build 0)  -->
<!DOCTYPE svg PUBLIC "-//W3C//DTD SVG 1.1//EN" "http://www.w3.org/Graphics/SVG/1.1/DTD/svg11.dtd">
<svg version="1.1" xmlns="http://www.w3.org/2000/svg" xmlns:xlink="http://www.w3.org/1999/xlink" x="0px" y="0px" width="100px"
	 height="100px" viewBox="0 0 100 100" enable-background="new 0 0 100 100" xml:space="preserve">
<g id="Layer_3" display="none">
	<circle display="inline" fill="none" stroke="#000000" stroke-width="0.25" stroke-miterlimit="10" cx="50" cy="50" r="15.134"/>
	<polyline display="inline" opacity="0.26" points="94,6 6,6 6,94 94,94 	"/>
	<circle display="inline" fill="none" stroke="#000000" stroke-width="0.25" stroke-miterlimit="10" cx="50" cy="50" r="24"/>
	<circle display="inline" fill="none" stroke="#000000" stroke-width="0.25" stroke-miterlimit="10" cx="50" cy="50" r="30"/>
	<circle display="inline" fill="none" stroke="#000000" stroke-width="0.25" stroke-miterlimit="10" cx="50" cy="50" r="9.134"/>
	<path display="inline" fill="none" stroke="#000000" stroke-width="0.25" stroke-miterlimit="10" d="M0,50C0,22.386,22.389,0,50,0
		c27.612,0,50,22.386,50,50"/>
	<path display="inline" fill="none" stroke="#000000" stroke-width="0.25" stroke-miterlimit="10" d="M100,50
		c0,27.614-22.388,50-50,50C22.389,100,0,77.614,0,50"/>
</g>
<g id="Your_Icon">
</g>
<g id="Layer_4">
	<path d="M54.772,98.941c-1.351,0-2.36-0.045-2.823-0.07c-0.463,0.025-1.474,0.07-2.823,0.07c-6.926,0-16.23-1.048-21.218-6.036
		l-0.389-0.451L9.546,68.125l-0.145-0.277c-0.245-0.47-2.346-4.717-0.889-9.19c0.608-1.866,2.083-4.465,5.657-6.239
		c2.934-1.457,5.696-2.195,8.211-2.195c0.193,0,0.383,0.004,0.568,0.012V15c0-5.628,3.729-14,14-14c9.538,0,13,8.372,13,14v23.08
		c0.257-0.002,0.522-0.003,0.796-0.003c12.719,0,21.213,2.045,25.247,6.08c6.39,6.39,6.086,19.329,5.965,21.812
		c0.197,2.982,0.987,19.984-5.966,26.937C71.003,97.894,61.699,98.94,54.772,98.941z M51.949,90.855l0.278,0.019
		c0.006,0,1.005,0.067,2.545,0.067c7.321-0.001,13.284-1.415,15.562-3.693c3.309-3.309,4.111-14.246,3.625-20.956l-0.02-0.267
		l0.017-0.269c0.262-4.498-0.489-12.81-3.622-15.943c-1.807-1.807-7.901-3.736-19.59-3.736c-2.685,0-4.528,0.112-4.546,0.113
		l-4.248,0.264L41.949,15c-0.021-1.385-0.447-6-5-6c-1.769,0-5.895,0.588-6,6.037v58.132l-7.146-14.644
		c-0.196-0.115-0.637-0.303-1.422-0.303c-0.873,0-2.389,0.235-4.652,1.36c-1.316,0.653-1.537,1.33-1.609,1.553
		c-0.318,0.976,0.083,2.289,0.291,2.816l17.34,23.473c2.404,2.174,8.246,3.517,15.376,3.517c1.54,0,2.539-0.067,2.549-0.067
		L51.949,90.855z"/>
</g>
</svg>
