<?xml version="1.0" encoding="utf-8"?>
<!-- Generator: Adobe Illustrator 16.0.0, SVG Export Plug-In . SVG Version: 6.00 Build 0)  -->
<!DOCTYPE svg PUBLIC "-//W3C//DTD SVG 1.1//EN" "http://www.w3.org/Graphics/SVG/1.1/DTD/svg11.dtd">
<svg version="1.1" id="Your_Icon" xmlns="http://www.w3.org/2000/svg" xmlns:xlink="http://www.w3.org/1999/xlink" x="0px" y="0px"
	 width="100px" height="100px" viewBox="0 0 100 100" enable-background="new 0 0 100 100" xml:space="preserve">
<path d="M76.999,47H53h-5H23.001c-4.136,0-7.501-2.623-7.501-6s3.365-6,7.501-6H47h5h24.999C84.995,35,91.5,29.237,91.5,22
	S84.995,9,76.999,9H60c-1.933,0-3.5,1.567-3.5,3.5S58.067,16,60,16h16.999c4.136,0,7.501,2.623,7.501,6s-3.365,6-7.501,6H52h-5
	H23.001C15.005,28,8.5,33.763,8.5,41s6.505,13,14.501,13H48h5h23.999c4.136,0,7.501,2.623,7.501,6s-3.365,6-7.501,6H52h-5H23.001
	C15.005,66,8.5,72.263,8.5,79.5S15.005,93,23.001,93H41v-7H23.001c-4.136,0-7.501-3.123-7.501-6.5s3.365-6.5,7.501-6.5H47h5h24.999
	C84.995,73,91.5,67.237,91.5,60S84.995,47,76.999,47z"/>
</svg>
