<?xml version="1.0" encoding="utf-8"?>
<!-- Generator: Adobe Illustrator 16.0.0, SVG Export Plug-In . SVG Version: 6.00 Build 0)  -->
<!DOCTYPE svg PUBLIC "-//W3C//DTD SVG 1.1//EN" "http://www.w3.org/Graphics/SVG/1.1/DTD/svg11.dtd">
<svg version="1.1" id="Your_Icon" xmlns="http://www.w3.org/2000/svg" xmlns:xlink="http://www.w3.org/1999/xlink" x="0px" y="0px"
	 width="100px" height="100px" viewBox="0 0 100 100" enable-background="new 0 0 100 100" xml:space="preserve">
<g>
	<path fill="none" d="M83,16H16c-0.813,0-2,0.187-2,1v66c0,0.813,1.187,2,2,2h6.475c0.003-1,0.005-1.083,0.008-1.505
		c0.009-1.355,0.018-2.877,0.018-4.37c0-12.545,8.447-23.21,19.949-26.5C39.156,50.264,37,46.383,37,42.031
		c0-0.507,0.036-1.021,0.094-1.513c-0.058-0.494-0.095-1.001-0.095-1.511c0-7.168,5.831-13.004,12.999-13.004
		c7.169,0,13.001,5.83,13.001,12.998c0,0.507-0.036,1.004-0.093,1.496C62.963,40.992,63,41.491,63,42
		c0,4.352-2.407,8.202-5.7,10.562C68.803,55.853,77,66.455,77,79v6h6c0.813,0,1-1.187,1-2V17C84,16.187,83.813,16,83,16z"/>
	<path d="M49.998,26c-7.168,0-12.999,5.832-12.999,13c0,0.509,0.037,1.009,0.095,1.503C37.842,46.965,43.339,52,49.998,52
		c6.662,0,12.162-5.038,12.908-11.503c0.057-0.492,0.093-0.99,0.093-1.497C62.999,31.832,57.167,26,49.998,26z"/>
	<g>
		<path fill="none" d="M83,16H16c-0.813,0-2,0.187-2,1v66c0,0.813,1.187,2,2,2h6.475c0.003-1-0.011-1.083-0.008-1.505
			c0.009-1.355,0.002-3.002,0.002-4.495c0-12.545,8.416-23.147,19.918-26.438C44.518,54.09,47.058,55,49.874,55
			s5.294-0.91,7.426-2.438C68.803,55.853,77,66.455,77,79v6h6c0.813,0,1-1.187,1-2V17C84,16.187,83.813,16,83,16z"/>
		<path d="M82.5,9h-67C10.806,9,7,12.806,7,17.5v66c0,4.694,3.806,8.5,8.5,8.5h67c4.694,0,8.5-3.806,8.5-8.5v-66
			C91,12.806,87.194,9,82.5,9z M84,83c0,0.813-0.187,2-1,2h-6v-6c0-12.545-8.197-23.147-19.7-26.438
			C55.168,54.09,52.69,55,49.874,55s-5.356-0.91-7.487-2.438C30.885,55.853,22.469,66.455,22.469,79c0,1.493,0.007,3.14-0.002,4.495
			C22.464,83.917,22.478,84,22.475,85H16c-0.813,0-2-1.187-2-2V17c0-0.813,1.187-1,2-1h67c0.813,0,1,0.187,1,1V83z"/>
	</g>
</g>
</svg>
