<?xml version="1.0" encoding="utf-8"?>
<!-- Generator: Adobe Illustrator 16.0.0, SVG Export Plug-In . SVG Version: 6.00 Build 0)  -->
<!DOCTYPE svg PUBLIC "-//W3C//DTD SVG 1.1//EN" "http://www.w3.org/Graphics/SVG/1.1/DTD/svg11.dtd">
<svg version="1.1" id="Your_Icon" xmlns="http://www.w3.org/2000/svg" xmlns:xlink="http://www.w3.org/1999/xlink" x="0px" y="0px"
	 width="100px" height="100px" viewBox="0 0 100 100" enable-background="new 0 0 100 100" xml:space="preserve">
<path d="M61.701,85.465c-5.154,0.446-9.707-3.372-10.149-8.502c-0.596-6.919-1.017-15.062-1.021-15.143
	c-0.029-0.573,0.033-1.129-0.262-1.621C50.142,59.986,47,55.343,42,51.189v-1.477c3-2.805,7.372-7.79,7.925-8.436
	c0.504-0.587,0.683-1.325,0.722-2.098c0.005-0.081,0.367-8.22,0.963-15.142c0.443-5.131,4.962-8.952,10.121-8.503
	c1.908,0.169,3.606-1.263,3.771-3.188s-1.271-3.621-3.196-3.786c-9.001-0.775-16.95,5.902-17.725,14.877
	c-0.468,5.443-0.832,11.615-0.974,14.174c-2.301,2.613-5.591,6.351-7.28,7.477C35.354,45.737,35,46.83,35,48v5
	c0,1.17,0.353,2.263,1.326,2.912c4.008,2.672,6.419,5.88,7.382,7.234c0.132,2.391,0.444,8.792,0.927,14.417
	c0.734,8.5,7.877,14.937,16.279,14.937c0.468,0,0.925-0.02,1.399-0.061c1.926-0.165,3.346-1.86,3.181-3.786
	S63.632,85.306,61.701,85.465z"/>
</svg>
