<?xml version="1.0" encoding="utf-8"?>
<!-- Generator: Adobe Illustrator 16.0.0, SVG Export Plug-In . SVG Version: 6.00 Build 0)  -->
<!DOCTYPE svg PUBLIC "-//W3C//DTD SVG 1.1//EN" "http://www.w3.org/Graphics/SVG/1.1/DTD/svg11.dtd">
<svg version="1.1" id="Your_Icon" xmlns="http://www.w3.org/2000/svg" xmlns:xlink="http://www.w3.org/1999/xlink" x="0px" y="0px"
	 width="100px" height="100px" viewBox="0 0 100 100" enable-background="new 0 0 100 100" xml:space="preserve">
<g>
	<path d="M24.096,44h49.905c1.356,0,2.59-1.033,3.167-2.261c0.577-1.227,0.394-2.802-0.472-3.846L52.087,8.221
		C51.428,7.424,50.449,7,49.415,7c-0.008,0-0.016,0-0.023,0c-1.025,0-2,0.34-2.665,1.122L21.431,37.787
		c-0.885,1.039-1.085,2.72-0.513,3.958C21.491,42.984,22.731,44,24.096,44z M49.354,16.224L66.559,37H31.671L49.354,16.224z"/>
	<path d="M74.001,53H24.096c-1.364,0-2.604,0.684-3.178,1.923c-0.572,1.238-0.372,2.642,0.513,3.681l25.296,29.942
		C47.392,89.328,48.366,90,49.392,90c0.008,0,0.016,0,0.023,0c1.034-1,2.013-0.721,2.672-1.518l24.609-29.844
		c0.865-1.045,1.049-2.448,0.472-3.675C76.591,53.736,75.357,53,74.001,53z M31.671,60h34.888L49.354,80.776L31.671,60z"/>
</g>
</svg>
