<?xml version="1.0" encoding="utf-8"?>
<!-- Generator: Adobe Illustrator 16.0.0, SVG Export Plug-In . SVG Version: 6.00 Build 0)  -->
<!DOCTYPE svg PUBLIC "-//W3C//DTD SVG 1.1//EN" "http://www.w3.org/Graphics/SVG/1.1/DTD/svg11.dtd">
<svg version="1.1" xmlns="http://www.w3.org/2000/svg" xmlns:xlink="http://www.w3.org/1999/xlink" x="0px" y="0px" width="100px"
	 height="100px" viewBox="0 0 100 100" enable-background="new 0 0 100 100" xml:space="preserve">
<g id="Layer_3" display="none">
	<circle display="inline" fill="none" stroke="#000000" stroke-width="0.25" stroke-miterlimit="10" cx="50" cy="50" r="15.134"/>
	<polyline display="inline" opacity="0.26" points="94,6 6,6 6,94 94,94 	"/>
	<circle display="inline" fill="none" stroke="#000000" stroke-width="0.25" stroke-miterlimit="10" cx="50" cy="50" r="24"/>
	<circle display="inline" fill="none" stroke="#000000" stroke-width="0.25" stroke-miterlimit="10" cx="50" cy="50" r="30"/>
	<circle display="inline" fill="none" stroke="#000000" stroke-width="0.25" stroke-miterlimit="10" cx="50" cy="50" r="9.134"/>
	<path display="inline" fill="none" stroke="#000000" stroke-width="0.25" stroke-miterlimit="10" d="M0,50C0,22.386,22.389,0,50,0
		c27.612,0,50,22.386,50,50"/>
	<path display="inline" fill="none" stroke="#000000" stroke-width="0.25" stroke-miterlimit="10" d="M100,50
		c0,27.614-22.388,50-50,50C22.389,100,0,77.614,0,50"/>
</g>
<g id="Your_Icon">
</g>
<g id="Layer_4">
	<path d="M0,101.004V37h100v63.915L0,101.004z M8,45v47.996l84-0.073V45H8z"/>
	<polygon points="0,45.001 0,14 8,14 8,36.999 92,36.972 92,14 100,14 100,44.97 	"/>
	<path d="M35.004,32H13V0h21.973L35.004,32z M21,24h5.996L26.98,8H21V24z"/>
	<path d="M87.004,32.002H65V0h21.973L87.004,32.002z M73,24.002h5.996L78.98,8H73V24.002z"/>
	<rect x="40" y="14" width="20" height="8"/>
	<rect x="16" y="53" width="8" height="8"/>
	<rect x="31" y="53" width="8" height="8"/>
	<rect x="16" y="65" width="8" height="8"/>
	<rect x="31" y="65" width="8" height="8"/>
	<rect x="16" y="77" width="8" height="8"/>
	<rect x="31" y="77" width="8" height="8"/>
	<rect x="46" y="53" width="8" height="8"/>
	<rect x="61" y="53" width="8" height="8"/>
	<rect x="46" y="65" width="8" height="8"/>
	<rect x="61" y="65" width="8" height="8"/>
	<rect x="46" y="77" width="8" height="8"/>
	<rect x="61" y="77" width="8" height="8"/>
	<rect x="76" y="53" width="8" height="8"/>
	<rect x="76" y="65" width="8" height="8"/>
	<rect x="76" y="77" width="8" height="8"/>
</g>
</svg>
