<?xml version="1.0" encoding="utf-8"?>
<!-- Generator: Adobe Illustrator 16.0.0, SVG Export Plug-In . SVG Version: 6.00 Build 0)  -->
<!DOCTYPE svg PUBLIC "-//W3C//DTD SVG 1.1//EN" "http://www.w3.org/Graphics/SVG/1.1/DTD/svg11.dtd">
<svg version="1.1" id="Your_Icon" xmlns="http://www.w3.org/2000/svg" xmlns:xlink="http://www.w3.org/1999/xlink" x="0px" y="0px"
	 width="100px" height="100px" viewBox="0 0 100 100" enable-background="new 0 0 100 100" xml:space="preserve">
<g>
	<path fill="none" d="M39.188,29.182L40,28.822c0-0.002,0-0.004,0-0.006l-0.812,0.361c-0.396,0.179-6.636,3.06-10.912,8.404
		C32.553,32.239,38.791,29.359,39.188,29.182z"/>
	<path fill="none" d="M28.286,48.025c-0.05,5.875,4.75,15.093,26.708,26.726c-4.232-7.043-10.729-20.094-16.283-40.787
		C35.152,36.078,28.346,41.034,28.286,48.025z"/>
	<path d="M88,69c-0.002,0-0.003,0-0.005,0c-1.933,0-3.498,1.737-3.495,3.67c0.005,3.315-1.387,6.6-3.818,8.869
		c-2.722,2.541-6.316,3.613-9.741,3.168c0.229-11.071,0.181-38.166-5.365-47.972C60.967,28.589,53.991,23.9,45.82,23.397
		c-1.027-3.486-2.386-6.52-4.342-8.682c-7.003-7.737-19.018-8.319-26.777-1.303c-3.902,3.527-6.184,8.674-6.258,13.927
		C8.416,29.273,9.961,31,11.894,31c0.018,0,0.034,0,0.051,0c1.91,0,3.472-1.645,3.499-3.561c0.047-3.315,1.487-6.551,3.952-8.779
		c4.9-4.43,12.479-4.099,16.893,0.78c0.958,1.059,1.738,2.652,2.397,4.591c-6.816,1.617-12.982,6.047-16.573,12.202
		c-4.44,7.612-4.288,16.398,0.429,24.739c4.979,8.804,26.241,20.557,37.838,26.485c3.482,2.909,7.789,4.389,12.116,4.389
		c4.645,0,9.304-1.691,12.963-5.107c3.847-3.59,6.05-8.826,6.042-14.079C91.497,70.729,89.931,69,88,69z M39.188,29.178L40,28.816
		c0,0.002,0,0.004,0,0.006l-0.812,0.359c-0.396,0.178-6.635,3.058-10.912,8.4C32.552,32.237,38.791,29.356,39.188,29.178z
		 M28.286,48.025c0.06-6.991,6.866-11.947,10.425-14.062c5.555,20.693,12.051,33.744,16.283,40.787
		C33.036,63.118,28.236,53.9,28.286,48.025z"/>
</g>
</svg>
