<?xml version="1.0" encoding="utf-8"?>
<!-- Generator: Adobe Illustrator 16.0.0, SVG Export Plug-In . SVG Version: 6.00 Build 0)  -->
<!DOCTYPE svg PUBLIC "-//W3C//DTD SVG 1.1//EN" "http://www.w3.org/Graphics/SVG/1.1/DTD/svg11.dtd">
<svg version="1.1" xmlns="http://www.w3.org/2000/svg" xmlns:xlink="http://www.w3.org/1999/xlink" x="0px" y="0px" width="100px"
	 height="100px" viewBox="0 0 100 100" enable-background="new 0 0 100 100" xml:space="preserve">
<g id="Layer_3" display="none">
	<circle display="inline" fill="none" stroke="#000000" stroke-width="0.25" stroke-miterlimit="10" cx="50" cy="50" r="15.134"/>
	<rect x="6" y="6" display="inline" opacity="0.26" width="88" height="88"/>
	<circle display="inline" fill="none" stroke="#000000" stroke-width="0.25" stroke-miterlimit="10" cx="50" cy="50" r="24"/>
	<circle display="inline" fill="none" stroke="#000000" stroke-width="0.25" stroke-miterlimit="10" cx="50" cy="50" r="30"/>
	<circle display="inline" fill="none" stroke="#000000" stroke-width="0.25" stroke-miterlimit="10" cx="50" cy="50" r="9.134"/>
	<g display="inline">
		<path d="M50,0.25c27.432,0,49.75,22.317,49.75,49.75S77.432,99.75,50,99.75S0.25,77.433,0.25,50S22.568,0.25,50,0.25 M50,0
			C22.389,0,0,22.386,0,50s22.389,50,50,50c27.612,0,50-22.386,50-50S77.612,0,50,0L50,0z"/>
	</g>
</g>
<g id="Your_Icon">
</g>
<g id="Layer_4">
	<path d="M47.108,100c-0.585,0-1.021-0.004-1.063-0.006c-6.101-0.24-12.92-5.319-12.92-12.223v-17.57
		c-2.167-3.644-6.726-11.062-8.841-13.424c-5.338-5.964-8.159-13.803-8.159-22.67c0-18.748,15.252-34,34-34
		c18.61,0,33.75,15.252,33.75,34c0,8.198-3.164,16.249-8.908,22.668c-1.995,2.229-7.259,9.786-9.842,13.564v17.427
		c0,6.481-5.409,11.964-12.058,12.223c-0.188,0.009-2.024,0.01-3.101,0.01L47.108,100z M50.125,8.107c-14.336,0-26,11.663-26,26
		c0,6.867,2.116,12.861,6.12,17.334c3.266,3.648,9.617,14.426,10.331,15.643l0.549,0.938v19.75c0,1.955,2.7,4.129,5.253,4.229
		l3.324-0.002L50.039,92c0.033-0.001,2.49-0.002,2.789-0.007c2.297-0.09,4.298-2.026,4.298-4.227V67.879l0.689-1.016
		c0.835-1.231,8.242-12.128,11.192-15.424c4.43-4.949,6.869-11.104,6.869-17.332C75.875,19.771,64.324,8.107,50.125,8.107z"/>
	<rect x="45" y="71" width="8" height="8"/>
</g>
</svg>
