<?xml version="1.0" encoding="utf-8"?>
<!-- Generator: Adobe Illustrator 16.0.0, SVG Export Plug-In . SVG Version: 6.00 Build 0)  -->
<!DOCTYPE svg PUBLIC "-//W3C//DTD SVG 1.1//EN" "http://www.w3.org/Graphics/SVG/1.1/DTD/svg11.dtd">
<svg version="1.1" id="Your_Icon" xmlns="http://www.w3.org/2000/svg" xmlns:xlink="http://www.w3.org/1999/xlink" x="0px" y="0px"
	 width="100px" height="100px" viewBox="0 0 100 100" enable-background="new 0 0 100 100" xml:space="preserve">
<g>
	<polygon fill="none" points="16.584,72.372 15.637,84.68 27.898,83.687 	"/>
	<polygon fill="none" points="57.273,30.062 17.87,69.416 30.396,81.941 69.42,42.208 	"/>
	<polygon fill="none" points="60.775,26.563 59.396,27.941 71.521,40.067 72.889,38.677 	"/>
	<polygon fill="none" points="62.898,24.443 74.99,36.536 80.41,31.018 68.396,18.953 	"/>
	<path d="M87.812,28.53L70.882,11.78C70.227,11.122,69.336,11,68.407,11c-0.002,0-0.003,0-0.005,0c-0.928,0-1.817,0.118-2.474,0.773
		L10.859,66.648c-0.592,0.591-0.952,1.312-1.016,2.146l-1.5,19.469c-0.079,1.021,0.294,2.01,1.02,2.733
		c0.658,0.655,1.548,1.012,2.47,1.012c0.094,0,0.188-0.008,0.283-0.016l18.5-1.502c0.838-0.067,1.624-0.437,2.214-1.037l1.029-1.049
		c0.399-0.148,0.725-0.466,0.879-0.879c0.003-0.007,0.002-0.014,0.005-0.021L87.83,33.452C89.174,32.084,89.166,29.889,87.812,28.53
		z M30.396,81.941L17.87,69.416l39.403-39.354L69.42,42.208L30.396,81.941z M16.584,72.372l11.314,11.314L15.637,84.68
		L16.584,72.372z M59.396,27.941l1.38-1.378l12.113,12.113l-1.367,1.391L59.396,27.941z M74.99,36.536L62.898,24.443l5.497-5.49
		L80.41,31.018L74.99,36.536z"/>
</g>
</svg>
