<?xml version="1.0" encoding="utf-8"?>
<!-- Generator: Adobe Illustrator 16.0.0, SVG Export Plug-In . SVG Version: 6.00 Build 0)  -->
<!DOCTYPE svg PUBLIC "-//W3C//DTD SVG 1.1//EN" "http://www.w3.org/Graphics/SVG/1.1/DTD/svg11.dtd">
<svg version="1.1" xmlns="http://www.w3.org/2000/svg" xmlns:xlink="http://www.w3.org/1999/xlink" x="0px" y="0px" width="100px"
	 height="100px" viewBox="0 0 100 100" enable-background="new 0 0 100 100" xml:space="preserve">
<g id="Layer_3" display="none">
	<g display="inline" opacity="0.31">
		<path d="M-48,152c-1.06,0-2.076-0.42-2.826-1.169C-51.578,150.08-52,149.062-52,148V92c0-2.209,1.791-4,4-4H8c2.209,0,4,1.791,4,4
			v55.92c0,2.207-1.788,3.997-3.994,4C8.006,151.92-47.998,152-48,152z"/>
		<path d="M8,92v55.92L-48,148V92H8 M8,84h-56c-4.418,0-8,3.582-8,8v56c0,2.124,0.844,4.16,2.347,5.661
			C-52.153,155.159-50.12,156-48,156c0.004,0,0.008,0,0.011,0l56-0.08c4.414-0.006,7.989-3.586,7.989-8V92C16,87.582,12.418,84,8,84
			L8,84z"/>
	</g>
</g>
<g id="Your_Icon">
</g>
<g id="Layer_4">
	<g>
		<path fill="none" d="M66,38c0-15.466-12.535-28-28-28S10,22.534,10,38c0,15.46,12.535,28,28,28S66,53.46,66,38z M56,43H20V33h36
			V43z"/>
		<rect x="20" y="33" width="36" height="10"/>
		<path d="M99.243,90.757L68.759,60.274C73.308,54.01,76,46.315,76,38C76,17.047,58.953,0,38,0S0,17.047,0,38s17.047,38,38,38
			c8.315,0,16.01-2.692,22.274-7.241l30.483,30.483L99.243,90.757z M10,38c0-15.466,12.535-28,28-28s28,12.534,28,28
			c0,15.46-12.535,28-28,28S10,53.46,10,38z"/>
	</g>
</g>
</svg>
