<?xml version="1.0" encoding="utf-8"?>
<!-- Generator: Adobe Illustrator 16.0.0, SVG Export Plug-In . SVG Version: 6.00 Build 0)  -->
<!DOCTYPE svg PUBLIC "-//W3C//DTD SVG 1.1//EN" "http://www.w3.org/Graphics/SVG/1.1/DTD/svg11.dtd">
<svg version="1.1" id="Your_Icon" xmlns="http://www.w3.org/2000/svg" xmlns:xlink="http://www.w3.org/1999/xlink" x="0px" y="0px"
	 width="100px" height="100px" viewBox="0 0 100 100" enable-background="new 0 0 100 100" xml:space="preserve">
<g>
	<path fill="none" d="M15,41.815V83c0,0.133,0.274,0.259,0.308,0.383l20.932-22.676L15,41.815z"/>
	<path fill="none" d="M60.586,63.664l1.918-2.043l-11.17,9.932c-0.38,0.34-0.857,0.479-1.334,0.479s-0.954-0.186-1.334-0.525
		l-9.07-7.873L19.979,85h61.692L60.586,63.664z"/>
	<path fill="none" d="M49.5,67.316L85,35.553V29c0-0.813-0.187-1-1-1H17c-0.813,0-2,0.187-2,1v7.448L49.5,67.316z"/>
	<polygon fill="none" points="62.965,60.637 85,82.672 85,40.921 	"/>
	<path d="M92,29.5c0-4.694-3.806-8.5-8.5-8.5h-67C11.806,21,8,24.806,8,29.5v54c0,4.694,3.806,8.5,8.5,8.5h67
		c4.694,0,8.5-3.806,8.5-8.5V29.5z M15,83V41.815l21.364,18.892L15.183,83.383C15.149,83.259,15,83.133,15,83z M39.596,63.625
		l9.07,7.99c0.38,0.34,0.857,0.447,1.334,0.447s0.954-0.201,1.334-0.541l11.17-10.01l-1.918,2.16L81.672,85H19.979L39.596,63.625z
		 M62.965,60.637L85,40.921v41.751L62.965,60.637z M17,28h67c0.813,0,1,0.187,1,1v6.553L49.5,67.316L15,36.448V29
		C15,28.187,16.187,28,17,28z"/>
</g>
</svg>
