<?xml version="1.0" encoding="utf-8"?>
<!-- Generator: Adobe Illustrator 16.0.0, SVG Export Plug-In . SVG Version: 6.00 Build 0)  -->
<!DOCTYPE svg PUBLIC "-//W3C//DTD SVG 1.1//EN" "http://www.w3.org/Graphics/SVG/1.1/DTD/svg11.dtd">
<svg version="1.1" id="Your_Icon" xmlns="http://www.w3.org/2000/svg" xmlns:xlink="http://www.w3.org/1999/xlink" x="0px" y="0px"
	 width="100px" height="100px" viewBox="0 0 100 100" enable-background="new 0 0 100 100" xml:space="preserve">
<g>
	<path d="M75.889,39.741c-5.105-14.276-20.873-21.74-35.156-16.636c-3.36,1.203-6.4,3.006-9.037,5.356
		c-0.514,0.458-0.853,1.036-1.028,1.653l4.51,4.263c0.422-0.147,0.824-0.376,1.178-0.691c1.962-1.75,4.229-3.093,6.736-3.99
		c10.644-3.805,22.4,1.759,26.206,12.401c3.805,10.645-1.758,22.4-12.401,26.206c-10.643,3.805-22.4-1.758-26.207-12.401
		c-0.65-1.82-2.653-2.766-4.474-2.117c-1.82,0.651-2.768,2.654-2.117,4.475c4.015,11.229,14.627,18.242,25.923,18.242
		c3.066,0,6.183-0.517,9.232-1.606C73.53,69.79,80.993,54.02,75.889,39.741z"/>
	<path d="M23.047,22.91c-0.434-0.411-1.071-0.523-1.623-0.288c-0.55,0.236-0.907,0.778-0.907,1.377l-0.017,20
		c0,0.44,0.193,0.859,0.53,1.146C21.303,45.376,21.647,45.5,22,45.5c0.082,0,0.165-0.007,0.247-0.021l18-3
		c0.562-0.094,1.022-0.497,1.188-1.042c0.167-0.545,0.01-1.137-0.404-1.527l-5.853-5.532l-4.51-4.263L23.047,22.91z"/>
</g>
</svg>
