<?xml version="1.0" encoding="utf-8"?>
<!-- Generator: Adobe Illustrator 16.0.0, SVG Export Plug-In . SVG Version: 6.00 Build 0)  -->
<!DOCTYPE svg PUBLIC "-//W3C//DTD SVG 1.1//EN" "http://www.w3.org/Graphics/SVG/1.1/DTD/svg11.dtd">
<svg version="1.1" xmlns="http://www.w3.org/2000/svg" xmlns:xlink="http://www.w3.org/1999/xlink" x="0px" y="0px" width="100px"
	 height="100px" viewBox="0 0 100 100" enable-background="new 0 0 100 100" xml:space="preserve">
<g id="Layer_3" display="none">
	<circle display="inline" fill="none" stroke="#000000" stroke-width="0.25" stroke-miterlimit="10" cx="50" cy="49.5" r="17.5"/>
	<polyline display="inline" opacity="0.15" points="95,5 5,5 5,95 95,95 	"/>
	<circle display="inline" fill="none" stroke="#000000" stroke-width="0.25" stroke-miterlimit="10" cx="50" cy="50" r="26"/>
	<circle display="inline" fill="none" stroke="#000000" stroke-width="0.25" stroke-miterlimit="10" cx="50" cy="50" r="34"/>
	<circle display="inline" fill="none" stroke="#000000" stroke-width="0.25" stroke-miterlimit="10" cx="50" cy="49.5" r="9"/>
	<path display="inline" fill="none" stroke="#000000" stroke-width="0.25" stroke-miterlimit="10" d="M0,50C0,22.386,22.389,0,50,0
		c27.612,0,50,22.386,50,50"/>
	<path display="inline" fill="none" stroke="#000000" stroke-width="0.25" stroke-miterlimit="10" d="M100,50
		c0,27.614-22.388,50-50,50C22.389,100,0,77.614,0,50"/>
</g>
<g id="Your_Icon">
</g>
<g id="Layer_4">
	<path d="M76.998,71c1.148,0,2.315,0.199,3.456,0.62c5.182,1.908,7.836,7.657,5.927,12.841c-1.489,4.041-5.314,6.544-9.385,6.544
		c-1.148,0-2.315-0.199-3.456-0.619c-3.835-1.413-6.287-4.929-6.527-8.763c-0.084-1.346,0.104-2.73,0.602-4.077
		c0.542-1.471,1.393-2.737,2.451-3.754C71.918,72.013,74.408,71,76.998,71 M76.998,63L76.998,63c-4.671,0-9.1,1.783-12.473,5.02
		c-1.979,1.901-3.465,4.174-4.418,6.759c-0.872,2.364-1.235,4.835-1.079,7.342c0.446,7.117,5.057,13.306,11.746,15.771
		c2.004,0.738,4.097,1.112,6.222,1.112c7.507,0,14.295-4.733,16.892-11.778c1.662-4.513,1.468-9.402-0.548-13.768
		c-2.015-4.366-5.609-7.685-10.121-9.347C81.217,63.374,79.123,63,76.998,63L76.998,63z"/>
	<path d="M22.645,39.998c1.148,0,2.315,0.199,3.456,0.62c5.182,1.908,7.836,7.657,5.927,12.841
		c-1.489,4.041-5.315,6.545-9.385,6.545c-1.148,0-2.315-0.199-3.456-0.619c-5.183-1.909-7.837-7.658-5.926-12.841
		C14.75,42.502,18.575,39.998,22.645,39.998 M22.646,31.998L22.646,31.998c-7.508,0-14.295,4.734-16.892,11.78
		c-1.663,4.51-1.469,9.399,0.546,13.766c2.015,4.366,5.609,7.685,10.121,9.347c2.004,0.738,4.097,1.112,6.221,1.112
		c7.507,0,14.295-4.733,16.892-11.779c1.663-4.513,1.468-9.402-0.547-13.768c-2.015-4.366-5.609-7.685-10.121-9.347
		C26.863,32.372,24.77,31.998,22.646,31.998L22.646,31.998z"/>
	<path d="M76.998,8.995c1.148,0,2.315,0.199,3.456,0.62c5.183,1.908,7.836,7.657,5.927,12.841C84.892,26.496,81.065,29,76.996,29
		c-1.148,0-2.315-0.199-3.456-0.619c-5.183-1.909-7.836-7.658-5.926-12.841C69.104,11.499,72.929,8.995,76.998,8.995 M76.999,0.995
		L76.999,0.995c-7.508,0-14.296,4.734-16.892,11.78c-1.662,4.511-1.469,9.4,0.546,13.766s5.609,7.686,10.121,9.348
		C72.778,36.626,74.871,37,76.996,37c7.507,0,14.295-4.733,16.892-11.779c1.662-4.513,1.468-9.402-0.547-13.767
		c-2.016-4.366-5.61-7.686-10.123-9.347C81.217,1.369,79.123,0.995,76.999,0.995L76.999,0.995z"/>
	<rect x="40.448" y="63.069" transform="matrix(0.8286 0.5599 -0.5599 0.8286 46.0384 -16.217)" width="18.104" height="8"/>
	<rect x="45.5" y="23.878" transform="matrix(0.56 0.8285 -0.8285 0.56 49.0658 -26.5207)" width="8" height="18.105"/>
</g>
</svg>
