<?xml version="1.0" encoding="utf-8"?>
<!-- Generator: Adobe Illustrator 16.0.0, SVG Export Plug-In . SVG Version: 6.00 Build 0)  -->
<!DOCTYPE svg PUBLIC "-//W3C//DTD SVG 1.1//EN" "http://www.w3.org/Graphics/SVG/1.1/DTD/svg11.dtd">
<svg version="1.1" xmlns="http://www.w3.org/2000/svg" xmlns:xlink="http://www.w3.org/1999/xlink" x="0px" y="0px" width="100px"
	 height="100px" viewBox="0 0 100 100" enable-background="new 0 0 100 100" xml:space="preserve">
<g id="Layer_3" display="none">
	<circle display="inline" fill="none" stroke="#000000" stroke-width="0.25" stroke-miterlimit="10" cx="50" cy="50" r="15.134"/>
	<rect x="6" y="6" display="inline" opacity="0.26" width="88" height="88"/>
	<circle display="inline" fill="none" stroke="#000000" stroke-width="0.25" stroke-miterlimit="10" cx="50" cy="50" r="24"/>
	<circle display="inline" fill="none" stroke="#000000" stroke-width="0.25" stroke-miterlimit="10" cx="50" cy="50" r="31"/>
	<circle display="inline" fill="none" stroke="#000000" stroke-width="0.25" stroke-miterlimit="10" cx="50" cy="50" r="9.134"/>
	<g display="inline">
		<path d="M50,0.25c27.432,0,49.75,22.317,49.75,49.75S77.432,99.75,50,99.75S0.25,77.433,0.25,50S22.568,0.25,50,0.25 M50,0
			C22.389,0,0,22.386,0,50s22.389,50,50,50c27.612,0,50-22.386,50-50S77.612,0,50,0L50,0z"/>
	</g>
</g>
<g id="Your_Icon">
</g>
<g id="Layer_4">
	<g>
		<path fill="#FFFFFF" d="M59.88,17.955c-0.541,1.47-1.392,2.738-2.45,3.753c-2.673,2.568-6.676,3.538-10.386,2.172
			c-5.181-1.907-7.832-7.657-5.926-12.838c1.908-5.178,7.656-7.831,12.837-5.922c3.834,1.411,6.287,4.927,6.525,8.759
			C60.565,15.225,60.375,16.609,59.88,17.955z"/>
		<path d="M50.501,28.499c-1.651,0-3.279-0.291-4.839-0.865c-7.24-2.666-10.963-10.729-8.298-17.973
			c2.02-5.48,7.298-9.16,13.136-9.16c1.651,0,3.279,0.291,4.838,0.866c5.205,1.915,8.791,6.729,9.135,12.264
			c0.122,1.941-0.161,3.862-0.84,5.707c-0.73,1.984-1.918,3.802-3.434,5.257C57.58,27.111,54.135,28.499,50.501,28.499z M50.5,8.501
			c-2.501,0-4.764,1.577-5.628,3.924c-1.142,3.104,0.453,6.56,3.555,7.701c2.136,0.789,4.616,0.252,6.232-1.302
			c0.656-0.63,1.149-1.387,1.467-2.251c0.293-0.795,0.415-1.616,0.363-2.443c-0.147-2.373-1.684-4.435-3.915-5.256
			C51.902,8.626,51.204,8.501,50.5,8.501z"/>
	</g>
	<g>
		<path fill="#FFFFFF" d="M93.88,78.958c-1.909,5.178-7.655,7.832-12.835,5.922c-5.182-1.905-7.834-7.656-5.925-12.838
			c1.908-5.178,7.654-7.831,12.836-5.922C93.138,68.025,95.791,73.777,93.88,78.958z"/>
		<path d="M84.5,89.5c-1.651,0-3.279-0.292-4.839-0.867c-3.506-1.289-6.303-3.87-7.87-7.268c-1.567-3.396-1.718-7.197-0.425-10.706
			c2.019-5.478,7.296-9.158,13.134-9.158c1.651,0,3.279,0.291,4.839,0.866c3.507,1.289,6.304,3.871,7.871,7.268
			c1.566,3.396,1.717,7.198,0.423,10.707C95.614,85.819,90.336,89.5,84.5,89.5z M84.5,69.501c-2.501,0-4.762,1.577-5.627,3.924
			c-0.554,1.504-0.49,3.134,0.182,4.589c0.671,1.454,1.868,2.56,3.37,3.112C83.1,81.374,83.796,81.5,84.5,81.5
			c2.5,0,4.762-1.578,5.627-3.926c0.554-1.503,0.49-3.133-0.182-4.588c-0.671-1.454-1.868-2.56-3.37-3.112
			C85.902,69.626,85.205,69.501,84.5,69.501z"/>
	</g>
	<rect x="46" y="33" width="8" height="34"/>
	<polygon points="89,56 81,56 81,51 37,51 37,43 89,43 	"/>
	<polygon points="18,56 10,56 10,43 41,43 41,51 18,51 	"/>
	<g>
		<path fill="#FFFFFF" d="M59.38,89.457c-1.909,5.178-7.655,7.832-12.835,5.922c-5.182-1.905-7.834-7.656-5.925-12.838
			c1.908-5.178,7.654-7.831,12.836-5.922C58.638,78.524,61.291,84.276,59.38,89.457z"/>
		<path d="M50,99.999c-1.651,0-3.279-0.292-4.839-0.867c-3.506-1.289-6.303-3.87-7.87-7.268c-1.567-3.396-1.718-7.197-0.425-10.706
			C38.885,75.681,44.163,72,50,72c1.651,0,3.279,0.291,4.839,0.866c3.507,1.289,6.304,3.871,7.871,7.268
			c1.566,3.396,1.717,7.198,0.423,10.707C61.114,96.318,55.836,99.999,50,99.999z M50,80c-2.501,0-4.762,1.577-5.627,3.924
			c-0.554,1.504-0.49,3.134,0.182,4.589c0.671,1.454,1.868,2.56,3.37,3.112c0.674,0.248,1.371,0.374,2.075,0.374
			c2.5,0,4.762-1.578,5.627-3.926c0.554-1.503,0.49-3.133-0.182-4.588c-0.671-1.454-1.868-2.56-3.37-3.112
			C51.402,80.125,50.705,80,50,80z"/>
	</g>
	<g>
		<path fill="#FFFFFF" d="M24.38,77.458c-1.909,5.178-7.655,7.832-12.835,5.922c-5.182-1.905-7.834-7.656-5.925-12.838
			c1.908-5.178,7.654-7.831,12.836-5.922C23.638,66.525,26.29,72.277,24.38,77.458z"/>
		<path d="M15,88c-1.651,0-3.279-0.292-4.839-0.867c-3.506-1.289-6.303-3.87-7.87-7.268c-1.567-3.396-1.718-7.197-0.425-10.706
			C3.884,63.682,9.162,60.001,15,60.001c1.651,0,3.279,0.291,4.839,0.866c3.507,1.289,6.304,3.871,7.871,7.268
			c1.566,3.396,1.717,7.198,0.423,10.707C26.113,84.319,20.835,88,15,88z M15,68.001c-2.501,0-4.762,1.577-5.627,3.924
			c-0.554,1.504-0.49,3.134,0.182,4.589c0.671,1.454,1.868,2.56,3.37,3.112C13.599,79.874,14.296,80,15,80
			c2.5,0,4.762-1.578,5.627-3.926c0.554-1.503,0.49-3.133-0.182-4.588c-0.671-1.454-1.868-2.56-3.37-3.112
			C16.401,68.126,15.704,68.001,15,68.001z"/>
	</g>
</g>
</svg>
