<?xml version="1.0" encoding="utf-8"?>
<!-- Generator: Adobe Illustrator 16.0.0, SVG Export Plug-In . SVG Version: 6.00 Build 0)  -->
<!DOCTYPE svg PUBLIC "-//W3C//DTD SVG 1.1//EN" "http://www.w3.org/Graphics/SVG/1.1/DTD/svg11.dtd">
<svg version="1.1" id="Your_Icon" xmlns="http://www.w3.org/2000/svg" xmlns:xlink="http://www.w3.org/1999/xlink" x="0px" y="0px"
	 width="100px" height="100px" viewBox="0 0 100 100" enable-background="new 0 0 100 100" xml:space="preserve">
<g>
	<path fill="none" d="M35.008,44c-0.002-1-0.037-6.293,0-8.278c0.019-0.863,0.097-3.112,0.436-4.267
		c0.401-1.364,1.593-3.355,2.833-4.649c3.358-3.501,6.713-4.899,11.216-4.903V22c0.002,0,0.005,0,0.008,0c0.002,0,0.005,0,0.008,0
		v-0.127c3.521,0.008,8.041,2.717,10.048,4.078l4.511-3.799c-3.787-3.581-8.82-5.629-14.066-5.636
		c-5.814,0.007-11.373,2.488-15.256,6.825c-1.057,1.18-2.767,4.16-3.71,5.967c-0.519,1.807-0.98,4.006-1.012,4.542
		C29.99,35.329,29.998,40,30.009,44H35.008z"/>
	<path d="M75,44H36.508L38,45c0-0.06-0.028-7.389,0.008-9.344c0.029-1.448,0.159-2.89,0.314-3.417
		c0.234-0.798,1.143-2.368,2.119-3.388c2.812-2.931,5.353-4.09,9.057-4.092c2.894,0.004,7.656,3.056,9.249,4.235l0.956,0.704
		L71,20.002l-1.012-1.001C64.785,13.189,58,9.517,50,9.501V10c0,0,0.008,0-0.001,0C49.991,10,50,10,50,10V9.501
		c-8,0.014-15.256,3.351-20.459,9.163c-2.074,2.318-4.602,7.192-4.882,7.741l-0.153,0.292l-0.094,0.315
		c-0.404,1.374-1.348,4.748-1.386,6.409c-0.036,1.608-0.278,6.717-0.267,10.323C19.031,44.645,16,48,16,52v32c0,4.687,4.313,9,9,9
		h50c4.687,0,8-4.313,8-9V52C83,47.313,79.687,44,75,44z M76,84.5c0,0.829-0.672,1.5-1.5,1.5h-50c-0.828,0-1.5-0.671-1.5-1.5v-32
		c0-0.829,0.672-1.5,1.5-1.5h50c0.828,0,1.5,0.671,1.5,1.5V84.5z M30.022,33.848c0.031-0.535,0.493-2.612,1.012-4.418
		c0.943-1.807,2.653-4.853,3.71-6.033c3.883-4.336,9.441-6.857,15.256-6.864c5.246,0.006,10.279,2.023,14.066,5.604l-4.511,3.759
		c-2.007-1.361-6.527-4.01-10.048-4.018V22c-0.003,0-0.006,0-0.008,0c-0.003,0-0.006,0-0.008,0v-0.127
		c-4.503,0.004-7.857,1.435-11.216,4.936c-1.24,1.294-2.432,3.191-2.833,4.554c-0.339,1.154-0.417,3.513-0.436,4.376
		c-0.037,1.984-0.002,7.262,0,8.262h-4.999C29.998,40,29.99,35.327,30.022,33.848z"/>
</g>
</svg>
