<?xml version="1.0" encoding="utf-8"?>
<!-- Generator: Adobe Illustrator 16.0.0, SVG Export Plug-In . SVG Version: 6.00 Build 0)  -->
<!DOCTYPE svg PUBLIC "-//W3C//DTD SVG 1.1//EN" "http://www.w3.org/Graphics/SVG/1.1/DTD/svg11.dtd">
<svg version="1.1" id="Your_Icon" xmlns="http://www.w3.org/2000/svg" xmlns:xlink="http://www.w3.org/1999/xlink" x="0px" y="0px"
	 width="100px" height="100px" viewBox="0 0 100 100" enable-background="new 0 0 100 100" xml:space="preserve">
<g>
	<path d="M79,13c0-0.838-0.523-1.588-1.31-1.877s-1.672-0.058-2.214,0.582c-5.339,6.279-14.482,15.078-18.337,15.277
		C55.885,29.369,53.385,31,50.499,31c-2.98,0-5.548-1.744-6.757-4.264C39.445,25.268,31.4,17.44,26.523,11.705
		c-0.542-0.639-1.427-0.87-2.214-0.582C23.523,11.412,23,12.162,23,13c0,8.912,11.475,19.37,16,23.149V88
		c0,0.984,0.716,1.821,1.687,1.976c0.977,0.153,1.911-0.422,2.216-1.357l7.568-23.279l8.654,23.355
		C59.419,89.49,60.176,90,60.999,90c0.117,0,0.235-0.01,0.354-0.031C62.307,89.798,63,88.968,63,88V36.149
		C67.525,32.37,79,21.912,79,13z"/>
	<path d="M50.499,8C45.262,8,41,12.262,41,17.5c0,2.194,0.755,4.211,2.009,5.821c1.74,2.234,4.446,3.679,7.49,3.679
		c3.045,0,5.752-1.445,7.492-3.679C59.245,21.711,60,19.694,60,17.5C60,12.262,55.738,8,50.499,8z"/>
</g>
</svg>
