<?xml version="1.0" encoding="utf-8"?>
<!-- Generator: Adobe Illustrator 16.0.0, SVG Export Plug-In . SVG Version: 6.00 Build 0)  -->
<!DOCTYPE svg PUBLIC "-//W3C//DTD SVG 1.1//EN" "http://www.w3.org/Graphics/SVG/1.1/DTD/svg11.dtd">
<svg version="1.1" id="Your_Icon" xmlns="http://www.w3.org/2000/svg" xmlns:xlink="http://www.w3.org/1999/xlink" x="0px" y="0px"
	 width="100px" height="100px" viewBox="0 0 100 100" enable-background="new 0 0 100 100" xml:space="preserve">
<g>
	<path d="M88,9H62c-1.933,0-4,1.067-4,3v13.604l7-0.05V16h19v69H65v-8.502L58,76.5V88c0,1.933,2.067,4,4,4h26c1.933,0,3-2.067,3-4
		V12C91,10.067,89.933,9,88,9z"/>
	<path d="M73,56V43H50.498H46V24c0-0.775-0.588-1.48-1.289-1.81c-0.702-0.33-1.602-0.225-2.197,0.27L12.76,47.069
		c-0.455,0.377-0.738,0.936-0.742,1.527c-0.004,0.591,0.245,1.154,0.695,1.537l29.715,25.296c0.367,0.314,0.827,0.477,1.293,0.477
		c0.284,0,0.71-0.061,0.979-0.185C45.407,75.394,46,74.685,46,73.905V56h4.495H73z"/>
</g>
</svg>
