<?xml version="1.0" encoding="utf-8"?>
<!-- Generator: Adobe Illustrator 16.0.0, SVG Export Plug-In . SVG Version: 6.00 Build 0)  -->
<!DOCTYPE svg PUBLIC "-//W3C//DTD SVG 1.1//EN" "http://www.w3.org/Graphics/SVG/1.1/DTD/svg11.dtd">
<svg version="1.1" xmlns="http://www.w3.org/2000/svg" xmlns:xlink="http://www.w3.org/1999/xlink" x="0px" y="0px" width="100px"
	 height="100px" viewBox="0 0 100 100" enable-background="new 0 0 100 100" xml:space="preserve">
<g id="Layer_3" display="none">
	<circle display="inline" fill="none" stroke="#000000" stroke-width="0.25" stroke-miterlimit="10" cx="50" cy="50" r="15.134"/>
	<rect x="6" y="6" display="inline" opacity="0.26" width="88" height="88"/>
	<circle display="inline" fill="none" stroke="#000000" stroke-width="0.25" stroke-miterlimit="10" cx="50" cy="50" r="24"/>
	<circle display="inline" fill="none" stroke="#000000" stroke-width="0.25" stroke-miterlimit="10" cx="50" cy="50" r="30"/>
	<circle display="inline" fill="none" stroke="#000000" stroke-width="0.25" stroke-miterlimit="10" cx="50" cy="50" r="9.134"/>
	<g display="inline">
		<path d="M50,0.25c27.433,0,49.75,22.317,49.75,49.75S77.433,99.75,50,99.75S0.25,77.433,0.25,50S22.567,0.25,50,0.25 M50,0
			C22.389,0,0,22.386,0,50s22.389,50,50,50c27.612,0,50-22.386,50-50S77.612,0,50,0L50,0z"/>
	</g>
</g>
<g id="Your_Icon">
</g>
<g id="Layer_4">
	<path d="M50.03,84c-11.803,0-22.584-5.964-28.841-15.954c-4.821-7.697-6.356-16.811-4.322-25.66s7.394-16.378,15.09-21.197
		C37.377,17.794,43.606,16,49.973,16c11.803,0,22.585,5.967,28.843,15.96c4.817,7.694,6.351,16.805,4.316,25.654
		c-2.034,8.852-7.393,16.38-15.088,21.199C62.625,82.206,56.396,84,50.03,84z M49.973,24c-4.862,0-9.624,1.372-13.77,3.968
		c-5.886,3.687-9.983,9.442-11.539,16.21c-1.555,6.767-0.381,13.735,3.306,19.622C32.754,71.439,41.001,76,50.03,76
		c4.862,0,9.623-1.372,13.768-3.967c5.885-3.686,9.982-9.442,11.537-16.21c1.556-6.768,0.384-13.734-3.301-19.617
		C67.249,28.562,59.002,24,49.973,24z"/>
	<polygon points="62.747,57.354 43.746,57.339 43.771,33.35 51.771,33.357 51.754,49.345 62.753,49.354 	"/>
</g>
</svg>
