<?xml version="1.0" encoding="utf-8"?>
<!-- Generator: Adobe Illustrator 16.0.0, SVG Export Plug-In . SVG Version: 6.00 Build 0)  -->
<!DOCTYPE svg PUBLIC "-//W3C//DTD SVG 1.1//EN" "http://www.w3.org/Graphics/SVG/1.1/DTD/svg11.dtd">
<svg version="1.1" id="Your_Icon" xmlns="http://www.w3.org/2000/svg" xmlns:xlink="http://www.w3.org/1999/xlink" x="0px" y="0px"
	 width="100px" height="100px" viewBox="0 0 100 100" enable-background="new 0 0 100 100" xml:space="preserve">
<g>
	<path d="M83,21h-6V10c0-1.933-1.067-3-3-3H27c-1.933,0-4,1.067-4,3v11h-7c-4.687,0-9,3.313-9,8v39c0,4.687,4.313,9,9,9h7v11
		c0,1.933,2.067,4,4,4h47c1.933,0,3-2.067,3-4V77h6c4.687,0,8-4.313,8-9V29C91,24.313,87.687,21,83,21z M84,68c0,0.813-0.187,2-1,2
		h-6V59c0-1.933-1.067-3-3-3H27c-1.933,0-4,1.067-4,3v11h-7c-0.813,0-2-1.187-2-2V29c0-0.813,1.187-1,2-1h67c0.813,0,1,0.187,1,1V68
		z M30,85V63h40v22H30z M30,14h40v6H30V14z"/>
	<rect x="24" y="34" width="13" height="4"/>
</g>
</svg>
