<?xml version="1.0" encoding="utf-8"?>
<!-- Generator: Adobe Illustrator 16.0.0, SVG Export Plug-In . SVG Version: 6.00 Build 0)  -->
<!DOCTYPE svg PUBLIC "-//W3C//DTD SVG 1.1//EN" "http://www.w3.org/Graphics/SVG/1.1/DTD/svg11.dtd">
<svg version="1.1" xmlns="http://www.w3.org/2000/svg" xmlns:xlink="http://www.w3.org/1999/xlink" x="0px" y="0px" width="100px"
	 height="100px" viewBox="0 0 100 100" enable-background="new 0 0 100 100" xml:space="preserve">
<g id="Layer_3" display="none">
	<circle display="inline" fill="none" stroke="#000000" stroke-width="0.25" stroke-miterlimit="10" cx="50" cy="50" r="15.134"/>
	<rect x="6" y="6" display="inline" opacity="0.26" width="88" height="88"/>
	<circle display="inline" fill="none" stroke="#000000" stroke-width="0.25" stroke-miterlimit="10" cx="50" cy="50" r="24"/>
	<circle display="inline" fill="none" stroke="#000000" stroke-width="0.25" stroke-miterlimit="10" cx="50" cy="50" r="30"/>
	<circle display="inline" fill="none" stroke="#000000" stroke-width="0.25" stroke-miterlimit="10" cx="50" cy="50" r="9.134"/>
	<g display="inline">
		<path d="M50,0.25c27.432,0,49.75,22.317,49.75,49.75S77.432,99.75,50,99.75S0.25,77.433,0.25,50S22.568,0.25,50,0.25 M50,0
			C22.389,0,0,22.386,0,50s22.389,50,50,50c27.612,0,50-22.386,50-50S77.612,0,50,0L50,0z"/>
	</g>
</g>
<g id="Your_Icon">
</g>
<g id="Layer_4">
	<path d="M14.808,98.046L27.65,59.072L1.351,32.474h34.336L50.023-0.21l14.165,32.697h34.278L72.417,59.008l14.104,39.038
		L50.036,76.657L14.808,98.046z M49.964,67.343l21.515,12.611l-8.296-22.962l16.212-16.505h-20.46L49.977,19.81l-9.064,20.664
		H20.511L36.78,56.928l-7.587,23.026L49.964,67.343z"/>
</g>
</svg>
