<?xml version="1.0" encoding="utf-8"?>
<!-- Generator: Adobe Illustrator 16.0.0, SVG Export Plug-In . SVG Version: 6.00 Build 0)  -->
<!DOCTYPE svg PUBLIC "-//W3C//DTD SVG 1.1//EN" "http://www.w3.org/Graphics/SVG/1.1/DTD/svg11.dtd">
<svg version="1.1" id="Your_Icon" xmlns="http://www.w3.org/2000/svg" xmlns:xlink="http://www.w3.org/1999/xlink" x="0px" y="0px"
	 width="100px" height="100px" viewBox="0 0 100 100" enable-background="new 0 0 100 100" xml:space="preserve">
<path d="M74.862,47.438l-16.478-0.005L70.092,35.72c1.366-1.367,1.366-3.583-0.001-4.95c-1.367-1.367-3.583-1.365-4.95,0.001
	L53.429,42.491l-0.005-16.492c-0.001-1.933-1.567-3.499-3.5-3.499h-0.001c-1.933,0-3.5,1.568-3.499,3.501l0.005,16.362
	L34.844,30.771c-1.366-1.367-3.582-1.368-4.95-0.001c-1.367,1.366-1.367,3.583-0.001,4.95l11.701,11.708l-16.593-0.005H25
	c-1.933,0-3.499,1.566-3.5,3.499c-0.001,1.933,1.566,3.5,3.499,3.501l16.499,0.005L29.893,66.04
	c-1.366,1.367-1.366,3.583,0.001,4.95c0.684,0.683,1.579,1.024,2.475,1.024c0.896,0,1.792-0.342,2.476-1.026l11.589-11.596
	l0.005,16.47c0.001,1.933,1.567,3.499,3.5,3.499h0.001c1.933,0,3.5-1.568,3.499-3.501l-0.005-16.586l11.708,11.714
	c0.684,0.684,1.579,1.026,2.476,1.026c0.896,0,1.791-0.341,2.475-1.024c1.367-1.366,1.367-3.583,0.001-4.95l-11.6-11.607
	l16.368,0.005h0.001c1.933,0,3.499-1.566,3.5-3.499C78.362,49.006,76.795,47.438,74.862,47.438z"/>
</svg>
