<?xml version="1.0" encoding="utf-8"?>
<!-- Generator: Adobe Illustrator 16.0.0, SVG Export Plug-In . SVG Version: 6.00 Build 0)  -->
<!DOCTYPE svg PUBLIC "-//W3C//DTD SVG 1.1//EN" "http://www.w3.org/Graphics/SVG/1.1/DTD/svg11.dtd">
<svg version="1.1" xmlns="http://www.w3.org/2000/svg" xmlns:xlink="http://www.w3.org/1999/xlink" x="0px" y="0px" width="100px"
	 height="100px" viewBox="0 0 100 100" enable-background="new 0 0 100 100" xml:space="preserve">
<g id="Layer_3" display="none">
	<circle display="inline" fill="none" stroke="#000000" stroke-width="0.25" stroke-miterlimit="10" cx="48" cy="46" r="24"/>
	<g display="inline">
		<path d="M50,0.25c27.432,0,49.75,22.317,49.75,49.75S77.432,99.75,50,99.75S0.25,77.433,0.25,50S22.568,0.25,50,0.25 M50,0
			C22.389,0,0,22.386,0,50s22.389,50,50,50c27.612,0,50-22.386,50-50S77.612,0,50,0L50,0z"/>
	</g>
	<circle display="inline" fill="none" stroke="#000000" stroke-width="0.25" stroke-miterlimit="10" cx="52" cy="53" r="24"/>
</g>
<g id="Your_Icon">
</g>
<g id="Layer_4">
	<path fill="none" stroke="#000000" stroke-width="8" stroke-miterlimit="10" d="M36.375,35"/>
	<polygon points="37.875,43 8.875,43 8.875,14 16.875,14 16.875,35 37.875,35 	"/>
	<path fill="none" stroke="#000000" stroke-width="8" stroke-miterlimit="10" d="M20.567,60.77"/>
	<path d="M71.144,43.267c-0.18-2.689-0.781-5.336-1.787-7.868c-5.293-13.317-20.435-19.844-33.753-14.554
		c-8.076,3.212-13.99,10.211-15.818,18.722l-7.821-1.68c2.39-11.126,10.123-20.275,20.685-24.476
		c17.417-6.925,37.221,1.616,44.143,19.033c1.313,3.307,2.099,6.769,2.334,10.289L71.144,43.267z"/>
	<path fill="none" stroke="#000000" stroke-width="8" stroke-miterlimit="10" d="M62.192,60"/>
	<polygon points="92,84 84,84 84,63 63,63 63,55 92,55 	"/>
	<path fill="none" stroke="#000000" stroke-width="8" stroke-miterlimit="10" d="M78.567,39.23"/>
	<path d="M55.712,86.993c-13.524,0-26.338-8.125-31.629-21.438c-1.313-3.307-2.099-6.769-2.334-10.289l7.982-0.533
		c0.18,2.689,0.781,5.336,1.787,7.868c5.292,13.316,20.433,19.844,33.753,14.554c8.076-3.212,13.99-10.211,15.818-18.722l7.821,1.68
		c-2.39,11.126-10.123,20.275-20.685,24.476C64.121,86.221,59.882,86.993,55.712,86.993z"/>
</g>
</svg>
