<?xml version="1.0" encoding="utf-8"?>
<!-- Generator: Adobe Illustrator 16.0.0, SVG Export Plug-In . SVG Version: 6.00 Build 0)  -->
<!DOCTYPE svg PUBLIC "-//W3C//DTD SVG 1.1//EN" "http://www.w3.org/Graphics/SVG/1.1/DTD/svg11.dtd">
<svg version="1.1" id="Your_Icon" xmlns="http://www.w3.org/2000/svg" xmlns:xlink="http://www.w3.org/1999/xlink" x="0px" y="0px"
	 width="100px" height="100px" viewBox="0 0 100 100" enable-background="new 0 0 100 100" xml:space="preserve">
<g>
	<path d="M23.925,40.277c0.504-0.587,0.683-1.325,0.722-2.098c0.005-0.081,0.367-8.22,0.963-15.142
		c0.443-5.131,4.966-8.941,10.121-8.503c1.911,0.156,3.606-1.263,3.771-3.188s-1.271-3.621-3.196-3.786
		c-9.007-0.778-16.951,5.902-17.725,14.877c-0.468,5.443-0.832,11.615-0.974,14.174c-2.301,2.613-5.591,6.351-7.28,7.477
		C9.354,44.737,9,45.83,9,47v5c0,1.17,0.353,2.263,1.326,2.912c4.008,2.672,6.419,5.88,7.382,7.234
		c0.132,2.391,0.444,8.792,0.927,14.417c0.734,8.5,7.877,14.937,16.279,14.937c0.468,0,0.925-0.02,1.399-0.061
		c1.926-0.165,3.346-1.86,3.181-3.786s-1.855-3.349-3.789-3.188c-5.151,0.439-9.709-3.372-10.151-8.502
		c-0.596-6.919-1.018-15.062-1.022-15.143c-0.029-0.573,0.032-1.129-0.263-1.621C24.142,58.986,21,54.343,16,50.189v-1.477
		C19,45.908,23.372,40.923,23.925,40.277z"/>
	<path d="M89.674,44.088c-1.687-1.124-5.093-4.862-7.396-7.478c-0.142-2.559-0.446-8.729-0.913-14.174
		C80.59,13.463,72.671,6.771,63.672,7.561c-1.926,0.165-3.339,1.86-3.174,3.786s1.862,3.347,3.794,3.188
		c5.163-0.434,9.71,3.372,10.152,8.502c0.596,6.919,1.019,15.062,1.023,15.143c0.039,0.772,0.103,1.511,0.606,2.098
		C76.627,40.923,81,45.908,84,48.713v1.477c-5,4.153-8.142,8.797-8.269,9.01c-0.295,0.492-0.349,1.048-0.378,1.621
		c-0.005,0.081-0.367,8.22-0.963,15.142c-0.443,5.131-4.963,8.938-10.121,8.503c-1.924-0.177-3.606,1.262-3.771,3.188
		c-0.165,1.926,1.271,3.621,3.196,3.786c0.475,0.041,0.949,0.061,1.417,0.061c8.401-0.001,15.576-6.437,16.31-14.938
		c0.483-5.623,0.854-12.023,0.986-14.415c0.968-1.362,3.264-4.566,7.267-7.235C90.647,54.263,91,53.17,91,52v-5
		C91,45.83,90.647,44.737,89.674,44.088z"/>
</g>
</svg>
