<?xml version="1.0" encoding="utf-8"?>
<!-- Generator: Adobe Illustrator 16.0.0, SVG Export Plug-In . SVG Version: 6.00 Build 0)  -->
<!DOCTYPE svg PUBLIC "-//W3C//DTD SVG 1.1//EN" "http://www.w3.org/Graphics/SVG/1.1/DTD/svg11.dtd">
<svg version="1.1" id="Your_Icon" xmlns="http://www.w3.org/2000/svg" xmlns:xlink="http://www.w3.org/1999/xlink" x="0px" y="0px"
	 width="100px" height="100px" viewBox="0 0 100 100" enable-background="new 0 0 100 100" xml:space="preserve">
<g>
	<path fill="none" d="M15.695,85h68.609L50,17.248L15.695,85z M49.999,79C47.239,79,45,76.761,45,74s2.239-5,4.999-5
		C52.762,69,55,71.239,55,74S52.762,79,49.999,79z M55,63H45V37h10V63z"/>
	<path d="M90.863,81.958L55.382,11.88C54.172,9.491,52.21,8.121,50,8.121s-4.172,1.37-5.381,3.759L9.136,81.958
		c-1.153,2.279-1.148,4.922,0.015,6.814C10.313,90.665,12.445,92,15,92h70c2.555,0,4.687-1.335,5.85-3.228
		C92.013,86.88,92.018,84.237,90.863,81.958z M15.695,85L50,17.248L84.305,85H15.695z"/>
	<rect x="45" y="37" width="10" height="26"/>
	<circle cx="49.999" cy="74" r="5"/>
</g>
</svg>
