<?xml version="1.0" encoding="utf-8"?>
<!-- Generator: Adobe Illustrator 16.0.0, SVG Export Plug-In . SVG Version: 6.00 Build 0)  -->
<!DOCTYPE svg PUBLIC "-//W3C//DTD SVG 1.1//EN" "http://www.w3.org/Graphics/SVG/1.1/DTD/svg11.dtd">
<svg version="1.1" xmlns="http://www.w3.org/2000/svg" xmlns:xlink="http://www.w3.org/1999/xlink" x="0px" y="0px" width="100px"
	 height="100px" viewBox="0 0 100 100" enable-background="new 0 0 100 100" xml:space="preserve">
<g id="Layer_3" display="none">
	<circle display="inline" fill="none" stroke="#000000" stroke-width="0.25" stroke-miterlimit="10" cx="50" cy="50" r="15.134"/>
	<rect x="6" y="6" display="inline" opacity="0.26" width="88" height="88"/>
	<circle display="inline" fill="none" stroke="#000000" stroke-width="0.25" stroke-miterlimit="10" cx="50" cy="50" r="24"/>
	<circle display="inline" fill="none" stroke="#000000" stroke-width="0.25" stroke-miterlimit="10" cx="50" cy="50" r="30"/>
	<circle display="inline" fill="none" stroke="#000000" stroke-width="0.25" stroke-miterlimit="10" cx="50" cy="50" r="9.134"/>
	<g display="inline">
		<path d="M50,0.25c27.433,0,49.75,22.318,49.75,49.75S77.433,99.75,50,99.75C22.568,99.75,0.25,77.432,0.25,50S22.568,0.25,50,0.25
			 M50,0C22.389,0,0,22.386,0,50s22.389,50,50,50c27.612,0,50-22.386,50-50S77.612,0,50,0L50,0z"/>
	</g>
</g>
<g id="Your_Icon">
</g>
<g id="Layer_4">
	<polygon points="100,82 83,82 83,74 92,74 92,25 8,25 8,74 17,74 17,82 0,82 0,17 100,17 	"/>
	<path d="M26,100.007V60h48v39.923L26,100.007z M34,68v23.993l32-0.057V68H34z"/>
	<rect x="18" y="36" width="8" height="8"/>
	<rect x="34" y="36" width="8" height="8"/>
</g>
</svg>
