<?xml version="1.0" encoding="utf-8"?>
<!-- Generator: Adobe Illustrator 16.0.0, SVG Export Plug-In . SVG Version: 6.00 Build 0)  -->
<!DOCTYPE svg PUBLIC "-//W3C//DTD SVG 1.1//EN" "http://www.w3.org/Graphics/SVG/1.1/DTD/svg11.dtd">
<svg version="1.1" xmlns="http://www.w3.org/2000/svg" xmlns:xlink="http://www.w3.org/1999/xlink" x="0px" y="0px" width="100px"
	 height="100px" viewBox="0 0 100 100" enable-background="new 0 0 100 100" xml:space="preserve">
<g id="Layer_3" display="none">
	<circle display="inline" fill="none" stroke="#000000" stroke-width="0.25" stroke-miterlimit="10" cx="50" cy="50" r="15.134"/>
	<polyline display="inline" opacity="0.26" points="94,6 6,6 6,94 94,94 	"/>
	<circle display="inline" fill="none" stroke="#000000" stroke-width="0.25" stroke-miterlimit="10" cx="50" cy="50" r="24"/>
	<circle display="inline" fill="none" stroke="#000000" stroke-width="0.25" stroke-miterlimit="10" cx="50" cy="50" r="30"/>
	<circle display="inline" fill="none" stroke="#000000" stroke-width="0.25" stroke-miterlimit="10" cx="50" cy="50" r="9.134"/>
	<path display="inline" fill="none" stroke="#000000" stroke-width="0.25" stroke-miterlimit="10" d="M0,50C0,22.386,22.389,0,50,0
		c27.612,0,50,22.386,50,50"/>
	<path display="inline" fill="none" stroke="#000000" stroke-width="0.25" stroke-miterlimit="10" d="M100,50
		c0,27.614-22.388,50-50,50C22.389,100,0,77.614,0,50"/>
</g>
<g id="Your_Icon">
</g>
<g id="Layer_4">
	<path d="M50.719,99.369l-4.072-4.175C45.224,93.632,11.705,56.693,3.87,35.007c-3.205-8.872-2.279-17.898,2.541-24.765
		C10.945,3.784,18.505,0.08,27.155,0.08c9.541,0,17.283,3.654,22.732,10.65c3.472-5.126,9.554-10.65,21.191-10.65
		c9.262,0,17.427,4.064,22.401,11.15c4.793,6.828,5.827,15.495,2.835,23.776C88.49,56.668,54.994,94.553,53.572,96.155
		L50.719,99.369z M27.155,8.08c-6.095,0-11.136,2.4-14.196,6.759c-3.301,4.703-3.871,11.063-1.564,17.449
		c6.24,17.273,31.644,46.771,39.101,55.206c8.365-9.762,32.268-38.521,38.294-55.206c2.094-5.796,1.417-11.796-1.858-16.461
		c-3.456-4.924-9.234-7.747-15.854-7.747c-11.462,0-14.766,6.874-17.178,11.894l-3.808,7.891l-3.603-7.465
		C42.545,12.225,36.04,8.08,27.155,8.08z"/>
</g>
</svg>
