<?xml version="1.0" encoding="utf-8"?>
<!-- Generator: Adobe Illustrator 16.0.0, SVG Export Plug-In . SVG Version: 6.00 Build 0)  -->
<!DOCTYPE svg PUBLIC "-//W3C//DTD SVG 1.1//EN" "http://www.w3.org/Graphics/SVG/1.1/DTD/svg11.dtd">
<svg version="1.1" id="Your_Icon" xmlns="http://www.w3.org/2000/svg" xmlns:xlink="http://www.w3.org/1999/xlink" x="0px" y="0px"
	 width="100px" height="100px" viewBox="0 0 100 100" enable-background="new 0 0 100 100" xml:space="preserve">
<g>
	<path fill="none" d="M44.451,50.493C44.476,50.661,44.5,50.83,44.5,51h11c0-0.17,0.024-0.339,0.049-0.507
		c-0.023-0.164-0.046-0.327-0.046-0.493H44.498C44.497,50.166,44.475,50.329,44.451,50.493z"/>
	<path d="M78,26.536V11.5C78,9.567,76.433,8,74.5,8h-49C23.567,8,22,9.567,22,11.5v15.036c0,0.686,0.202,1.356,0.58,1.929
		l14.546,22.02L22.599,72.006C22.208,72.584,22,73.266,22,73.964V88.5c0,1.933,1.567,3.5,3.5,3.5h49c1.933,0,3.5-1.567,3.5-3.5
		V73.964c0-0.698-0.208-1.38-0.599-1.958L62.875,50.484l14.546-22.02C77.798,27.893,78,27.222,78,26.536z M71,25.484L56.08,48.071
		c-0.393,0.595-0.578,1.266-0.577,1.929c0,0.166,0.023,0.329,0.046,0.493C55.524,50.661,55.5,50.83,55.5,51
		c-0.001,0.675,0.193,1.356,0.599,1.958L71,75.034V85H29v-9.966l14.901-22.076c0.406-0.602,0.6-1.283,0.599-1.958
		c0-0.17-0.024-0.339-0.049-0.507c0.023-0.164,0.046-0.327,0.046-0.493c0-0.663-0.184-1.334-0.577-1.929L29,25.484V15h42V25.484z"/>
	<path d="M48.236,45.975C48.598,46.577,49.249,47,49.95,47c0.011,0,0.022,0,0.034,0c0.714,0,1.368-0.46,1.715-1.084l11.049-19.944
		c0.344-0.62,0.335-1.375-0.024-1.986C62.364,23.375,61.708,23,61,23H38c-0.721,0-1.386,0.401-1.741,1.029
		c-0.355,0.627-0.345,1.41,0.026,2.029L48.236,45.975z"/>
	<path d="M39.054,68.94l-3.75,6c-0.386,0.616-0.406,1.394-0.054,2.029C35.603,77.605,36.273,78,37,78h26
		c0.007-0.001,0.014-0.001,0.02,0c1.104,0,2-0.896,2-2c0-0.483-0.171-0.926-0.457-1.271l-3.618-5.788
		C60.581,68.355,59.939,68,59.25,68h-18.5C40.061,68,39.419,68.355,39.054,68.94z"/>
</g>
</svg>
