<?xml version="1.0" encoding="utf-8"?>
<!-- Generator: Adobe Illustrator 16.0.0, SVG Export Plug-In . SVG Version: 6.00 Build 0)  -->
<!DOCTYPE svg PUBLIC "-//W3C//DTD SVG 1.1//EN" "http://www.w3.org/Graphics/SVG/1.1/DTD/svg11.dtd">
<svg version="1.1" xmlns="http://www.w3.org/2000/svg" xmlns:xlink="http://www.w3.org/1999/xlink" x="0px" y="0px" width="100px"
	 height="100px" viewBox="0 0 100 100" enable-background="new 0 0 100 100" xml:space="preserve">
<g id="Layer_3" display="none">
	<circle display="inline" fill="none" stroke="#000000" stroke-width="0.25" stroke-miterlimit="10" cx="50" cy="50" r="15.134"/>
	<polyline display="inline" opacity="0.26" points="94,6 6,6 6,94 94,94 	"/>
	<circle display="inline" fill="none" stroke="#000000" stroke-width="0.25" stroke-miterlimit="10" cx="50" cy="50" r="24"/>
	<circle display="inline" fill="none" stroke="#000000" stroke-width="0.25" stroke-miterlimit="10" cx="50" cy="50" r="30"/>
	<circle display="inline" fill="none" stroke="#000000" stroke-width="0.25" stroke-miterlimit="10" cx="50" cy="50" r="9.134"/>
	<path display="inline" fill="none" stroke="#000000" stroke-width="0.25" stroke-miterlimit="10" d="M0,50C0,22.386,22.389,0,50,0
		c27.612,0,50,22.386,50,50"/>
	<path display="inline" fill="none" stroke="#000000" stroke-width="0.25" stroke-miterlimit="10" d="M100,50
		c0,27.614-22.388,50-50,50C22.389,100,0,77.614,0,50"/>
</g>
<g id="Your_Icon">
	<path fill="none" stroke="#000000" stroke-width="8" stroke-linecap="round" stroke-miterlimit="10" d="M47.749,88"/>
	<path d="M64,63.036c-0.062-7.03-2.808-13.611-7.729-18.531c-4.9-4.9-11.384-7.595-18.235-7.502l-0.072-8
		c9.073-0.093,17.533,3.415,23.964,9.845c6.413,6.412,9.99,14.977,10.072,24.117L64,63.036z"/>
	<path d="M79,62.036c-0.099-11.073-4.424-21.441-12.179-29.193c-7.646-7.645-17.725-11.841-28.416-11.841
		c-0.123,0-0.246,0-0.37,0.002l-0.072-8c0.147-0.001,0.297-0.002,0.444-0.002c12.828,0,24.91,5.026,34.069,14.184
		C81.725,36.429,86.882,48.781,87,61.964L79,62.036z"/>
	<path d="M48,63.035c-0.021-2.449-0.975-4.738-2.685-6.447C43.645,54.917,41.446,54,39.117,54c-0.027,0-0.054,0-0.081,0l-0.072-8
		c4.534-0.063,8.788,1.71,12.008,4.93c3.202,3.202,4.987,7.475,5.028,12.034L48,63.035z"/>
</g>
<g id="Layer_4">
	<g>
		<circle fill="#FFFFFF" cx="27" cy="73" r="10"/>
		<path d="M27,87c-7.719,0-14-6.28-14-14s6.28-14,14-14c7.72,0,14,6.28,14,14S34.719,87,27,87z M27,67c-3.308,0-6,2.691-6,6
			s2.691,6,6,6c3.309,0,6-2.691,6-6S30.308,67,27,67z"/>
	</g>
</g>
</svg>
