<?xml version="1.0" encoding="utf-8"?>
<!-- Generator: Adobe Illustrator 16.0.0, SVG Export Plug-In . SVG Version: 6.00 Build 0)  -->
<!DOCTYPE svg PUBLIC "-//W3C//DTD SVG 1.1//EN" "http://www.w3.org/Graphics/SVG/1.1/DTD/svg11.dtd">
<svg version="1.1" id="Your_Icon" xmlns="http://www.w3.org/2000/svg" xmlns:xlink="http://www.w3.org/1999/xlink" x="0px" y="0px"
	 width="100px" height="100px" viewBox="0 0 100 100" enable-background="new 0 0 100 100" xml:space="preserve">
<g>
	<path d="M50.234,8.167c-13.997,0-28.166,9.777-28.166,28.463c0,14.976,23.993,49.209,26.729,53.063
		c0.658,0.926,1.723,1.474,2.854,1.474c0.034,0,0.069,0,0.104-0.001c1.171-0.035,2.246-0.652,2.866-1.646
		c2.375-3.807,23.212-37.633,23.212-52.793C77.833,17.104,63.526,8.167,50.234,8.167z M29.068,36.63
		c0-14.747,10.972-21.463,21.166-21.463c10.253,0,20.599,6.667,20.599,21.561c0,9.725-12.179,32.341-19.374,44.505
		C43.215,69.031,29.068,46.117,29.068,36.63z"/>
	<path d="M50.332,21.667c-7.168,0-12.999,5.832-12.999,13s5.831,13,12.999,13c7.169,0,13.001-5.832,13.001-13
		S57.501,21.667,50.332,21.667z M50.332,43.667c-4.962,0-8.999-4.038-8.999-9s4.037-9,8.999-9c4.963,0,9.001,4.038,9.001,9
		S55.295,43.667,50.332,43.667z"/>
</g>
</svg>
