<?xml version="1.0" encoding="utf-8"?>
<!-- Generator: Adobe Illustrator 16.0.0, SVG Export Plug-In . SVG Version: 6.00 Build 0)  -->
<!DOCTYPE svg PUBLIC "-//W3C//DTD SVG 1.1//EN" "http://www.w3.org/Graphics/SVG/1.1/DTD/svg11.dtd">
<svg version="1.1" xmlns="http://www.w3.org/2000/svg" xmlns:xlink="http://www.w3.org/1999/xlink" x="0px" y="0px" width="100px"
	 height="100px" viewBox="0 0 100 100" enable-background="new 0 0 100 100" xml:space="preserve">
<g id="Layer_3" display="none">
	<circle display="inline" fill="none" stroke="#000000" stroke-width="0.25" stroke-miterlimit="10" cx="50" cy="50" r="15.134"/>
	<polyline display="inline" opacity="0.26" points="94,6 6,6 6,94 94,94 	"/>
	<circle display="inline" fill="none" stroke="#000000" stroke-width="0.25" stroke-miterlimit="10" cx="50" cy="50" r="24"/>
	<circle display="inline" fill="none" stroke="#000000" stroke-width="0.25" stroke-miterlimit="10" cx="50" cy="50" r="30"/>
	<circle display="inline" fill="none" stroke="#000000" stroke-width="0.25" stroke-miterlimit="10" cx="50" cy="50" r="9.134"/>
	<path display="inline" fill="none" stroke="#000000" stroke-width="0.25" stroke-miterlimit="10" d="M0,50C0,22.386,22.389,0,50,0
		c27.612,0,50,22.386,50,50"/>
	<path display="inline" fill="none" stroke="#000000" stroke-width="0.25" stroke-miterlimit="10" d="M100,50
		c0,27.614-22.388,50-50,50C22.389,100,0,77.614,0,50"/>
</g>
<g id="Your_Icon">
</g>
<g id="Layer_4">
	<path d="M42.997,29.002c-1.65,0-3.278-0.291-4.838-0.865c-3.509-1.292-6.303-3.874-7.869-7.27s-1.717-7.197-0.423-10.706
		C31.883,4.683,37.161,1,43.001,1c1.651,0,3.28,0.292,4.841,0.867c3.508,1.292,6.302,3.873,7.868,7.269s1.717,7.197,0.423,10.705
		C54.116,25.319,48.838,29.002,42.997,29.002z M43.001,9c-2.502,0-4.763,1.578-5.627,3.927c-0.555,1.505-0.49,3.135,0.181,4.59
		c0.671,1.454,1.867,2.56,3.369,3.112c0.671,0.247,1.369,0.373,2.073,0.373c2.503,0,4.765-1.578,5.629-3.928
		c0.556-1.505,0.491-3.133-0.18-4.587s-1.868-2.561-3.37-3.114C44.404,9.126,43.706,9,43.001,9z"/>
	<rect x="32" y="48" width="35" height="8"/>
	<rect x="39" y="33" width="8" height="31"/>
	<rect x="39" y="55" width="8" height="13"/>
	<path d="M13.997,67c-1.65,0-3.278-0.291-4.838-0.865c-3.509-1.292-6.303-3.874-7.869-7.27s-1.717-7.197-0.423-10.706
		c2.016-5.479,7.294-9.161,13.134-9.161c1.651,0,3.28,0.292,4.841,0.867c3.508,1.292,6.302,3.873,7.868,7.269
		s1.717,7.197,0.423,10.705C25.116,63.317,19.838,67,13.997,67z M14.001,46.998c-2.502,0-4.763,1.578-5.627,3.927
		c-0.555,1.505-0.49,3.135,0.181,4.59c0.671,1.454,1.867,2.56,3.369,3.112C12.595,58.874,13.293,59,13.997,59
		c2.503,0,4.765-1.578,5.629-3.928c0.556-1.505,0.491-3.133-0.18-4.587s-1.868-2.561-3.37-3.114
		C15.404,47.124,14.706,46.998,14.001,46.998z"/>
	<path d="M85.997,66.001c-1.65,0-3.278-0.291-4.838-0.865c-3.509-1.292-6.303-3.874-7.869-7.27s-1.717-7.197-0.423-10.706
		c2.016-5.479,7.294-9.161,13.134-9.161c1.651,0,3.28,0.292,4.841,0.867c3.508,1.292,6.302,3.873,7.868,7.269
		s1.717,7.197,0.423,10.705C97.116,62.318,91.838,66.001,85.997,66.001z M86.001,45.999c-2.502,0-4.763,1.578-5.627,3.927
		c-0.555,1.505-0.49,3.135,0.181,4.59c0.671,1.454,1.867,2.56,3.369,3.112c0.671,0.247,1.369,0.373,2.073,0.373
		c2.503,0,4.765-1.578,5.629-3.928c0.556-1.505,0.491-3.133-0.18-4.587s-1.868-2.561-3.37-3.114
		C87.404,46.125,86.706,45.999,86.001,45.999z"/>
	<path d="M42.997,99.002c-1.65,0-3.278-0.291-4.838-0.865c-3.509-1.292-6.303-3.874-7.869-7.27s-1.717-7.197-0.423-10.706
		C31.883,74.683,37.161,71,43.001,71c1.651,0,3.28,0.292,4.841,0.867c3.508,1.292,6.302,3.873,7.868,7.269s1.717,7.197,0.423,10.705
		C54.116,95.319,48.838,99.002,42.997,99.002z M43.001,79c-2.502,0-4.763,1.578-5.627,3.927c-0.555,1.505-0.49,3.135,0.181,4.59
		c0.671,1.454,1.867,2.56,3.369,3.112c0.671,0.247,1.369,0.373,2.073,0.373c2.503,0,4.765-1.578,5.629-3.928
		c0.556-1.505,0.491-3.133-0.18-4.587s-1.868-2.561-3.37-3.114C44.404,79.126,43.706,79,43.001,79z"/>
</g>
</svg>
