<?xml version="1.0" encoding="utf-8"?>
<!-- Generator: Adobe Illustrator 16.0.0, SVG Export Plug-In . SVG Version: 6.00 Build 0)  -->
<!DOCTYPE svg PUBLIC "-//W3C//DTD SVG 1.1//EN" "http://www.w3.org/Graphics/SVG/1.1/DTD/svg11.dtd">
<svg version="1.1" xmlns="http://www.w3.org/2000/svg" xmlns:xlink="http://www.w3.org/1999/xlink" x="0px" y="0px" width="100px"
	 height="100px" viewBox="0 0 100 100" enable-background="new 0 0 100 100" xml:space="preserve">
<g id="Layer_3" display="none">
</g>
<g id="Your_Icon">
</g>
<g id="Layer_4">
	<g>
		<path d="M98.602,56.396L53.296,1.807C52.34,0.654,50.945-0.021,49.418,0c-1.498,0.009-2.913,0.689-3.855,1.854L1.36,56.443
			c-1.213,1.498-1.457,3.765-0.627,5.504C1.563,63.688,3.319,65,5.246,65H16v29.978c0,2.761,2.475,4.999,5.236,5L77.539,100
			c0,0,0.001,0,0.002,0c1.326,0,2.827-0.526,3.764-1.464C82.244,97.599,83,96.326,83,95V65h11.754c1.938,0,3.702-1.325,4.526-3.08
			C100.104,60.166,99.839,57.888,98.602,56.396z M77.541,55C74.78,55,73,56.828,73,59.59v30.408l-47-0.019V59.59
			c0-2.762-1.763-4.59-4.524-4.59h-5.748l33.768-41.703L84.106,55H77.541z"/>
	</g>
</g>
</svg>
