<?xml version="1.0" encoding="utf-8"?>
<!-- Generator: Adobe Illustrator 16.0.0, SVG Export Plug-In . SVG Version: 6.00 Build 0)  -->
<!DOCTYPE svg PUBLIC "-//W3C//DTD SVG 1.1//EN" "http://www.w3.org/Graphics/SVG/1.1/DTD/svg11.dtd">
<svg version="1.1" id="Your_Icon" xmlns="http://www.w3.org/2000/svg" xmlns:xlink="http://www.w3.org/1999/xlink" x="0px" y="0px"
	 width="100px" height="100px" viewBox="0 0 100 100" enable-background="new 0 0 100 100" xml:space="preserve">
<g>
	<path fill="none" d="M52.135,41.323c-0.127-0.078-0.253-0.158-0.381-0.236c-0.621-0.187-1.262-0.321-1.927-0.379
		c-5.135-0.447-9.706,3.372-10.146,8.504c-0.34,3.94,3.062,6.17,8.639,9.48c0.158,0.094,0.314,0.189,0.473,0.283
		c0.506,0.139,1.02,0.251,1.546,0.305c5.137,0.527,9.759-3.221,10.283-8.344C61.021,47.002,57.657,44.721,52.135,41.323z"/>
	<path d="M67.585,51.646c0.713-7.004-3.917-11.163-8.722-14.35c-0.27-0.427-0.625-0.808-1.08-1.095
		c-0.949-0.6-1.965-1.093-3.02-1.485c-0.272-0.169-0.546-0.335-0.815-0.506c-0.003-0.002-0.006-0.003-0.009-0.004
		c-0.011-0.008-0.02-0.017-0.03-0.023c-0.643-0.393-1.293-0.779-1.942-1.165c-5.575-3.311-8.976-5.54-8.636-9.479
		c0.442-5.131,5.002-8.943,10.148-8.503c2.631,0.226,4.974,1.492,6.598,3.568c1.192,1.522,3.392,1.788,4.914,0.6
		c1.522-1.191,1.79-3.392,0.6-4.914c-2.795-3.571-6.991-5.841-11.514-6.229c-8.998-0.778-16.947,5.903-17.721,14.876
		c-0.479,5.57,2.388,9.29,6.018,12.146c-5.27,2.345-9.141,7.399-9.668,13.526c-0.571,6.633,3.598,10.646,8.157,13.693
		c0.24,0.39,0.56,0.738,0.956,1.02c1.263,0.896,2.651,1.596,4.113,2.1c0.203,0.122,0.409,0.243,0.611,0.366
		c0.006,0.004,0.01,0.009,0.016,0.013c0.637,0.402,1.282,0.8,1.926,1.195c5.521,3.396,8.886,5.677,8.483,9.612
		c-0.522,5.123-5.125,8.873-10.28,8.341c-2.629-0.267-4.952-1.57-6.542-3.67c-1.167-1.539-3.36-1.844-4.903-0.677
		c-1.541,1.167-1.844,3.362-0.677,4.903c2.736,3.613,6.896,5.948,11.414,6.408C46.544,91.972,47.103,92,47.656,92
		c8.29-0.001,15.421-6.279,16.276-14.681c0.578-5.669-2.348-9.47-6.028-12.403C63.104,62.612,66.968,57.685,67.585,51.646z
		 M60.621,50.937c-0.524,5.123-5.146,8.871-10.283,8.344c-0.526-0.054-1.04-0.166-1.546-0.305c-0.158-0.094-0.314-0.189-0.473-0.283
		c-5.577-3.311-8.979-5.54-8.639-9.48c0.44-5.132,5.012-8.951,10.146-8.504c0.665,0.058,1.306,0.192,1.927,0.379
		c0.128,0.078,0.254,0.158,0.381,0.236C57.657,44.721,61.021,47.002,60.621,50.937z"/>
</g>
</svg>
