<?xml version="1.0" encoding="utf-8"?>
<!-- Generator: Adobe Illustrator 16.0.0, SVG Export Plug-In . SVG Version: 6.00 Build 0)  -->
<!DOCTYPE svg PUBLIC "-//W3C//DTD SVG 1.1//EN" "http://www.w3.org/Graphics/SVG/1.1/DTD/svg11.dtd">
<svg version="1.1" id="Your_Icon" xmlns="http://www.w3.org/2000/svg" xmlns:xlink="http://www.w3.org/1999/xlink" x="0px" y="0px"
	 width="100px" height="100px" viewBox="0 0 100 100" enable-background="new 0 0 100 100" xml:space="preserve">
<g>
	<path fill="none" d="M28,80.113l17.995-16.28c1.29-1.167,3.239-1.209,4.578-0.102L70,79.794V16H28V80.113z"/>
	<path d="M73.5,9h-49c-1.933,0-3.5,1.567-3.5,3.5V88c0,1.384,0.815,2.638,2.08,3.199c0.456,0.202,0.939,0.301,1.419,0.301
		c0.852,0,1.692-0.311,2.35-0.904l21.598-19.54L71.27,89.927c1.044,0.863,2.495,1.049,3.721,0.47c1.227-0.578,2.01-1.812,2.01-3.167
		V12.5C77,10.567,75.433,9,73.5,9z M70,79.794L50.573,63.731c-1.339-1.107-3.288-1.065-4.578,0.102L28,80.113V16h42V79.794z"/>
</g>
</svg>
