<?xml version="1.0" encoding="utf-8"?>
<!-- Generator: Adobe Illustrator 16.0.0, SVG Export Plug-In . SVG Version: 6.00 Build 0)  -->
<!DOCTYPE svg PUBLIC "-//W3C//DTD SVG 1.1//EN" "http://www.w3.org/Graphics/SVG/1.1/DTD/svg11.dtd">
<svg version="1.1" id="Your_Icon" xmlns="http://www.w3.org/2000/svg" xmlns:xlink="http://www.w3.org/1999/xlink" x="0px" y="0px"
	 width="100px" height="100px" viewBox="0 0 100 100" enable-background="new 0 0 100 100" xml:space="preserve">
<g>
	<path d="M88,9H62c-1.933,0-4,1.067-4,3v17.938c1,0.123,0.507,0.272,0.733,0.46L65,35.587V16h19v69H65V62.361l-6.23,5.304
		C58.534,67.866,59,68.019,58,68.148V88c0,1.933,2.067,4,4,4h26c1.933,0,3-2.067,3-4V12C91,10.067,89.933,9,88,9z"/>
	<path d="M68.296,50.132c0.45-0.383,0.708-0.945,0.704-1.537c-0.004-0.591-0.27-1.15-0.725-1.527L53.501,34.834L38.557,22.459
		c-0.597-0.494-1.566-0.598-2.268-0.27C35.588,22.52,35,23.225,35,24v19H8v13h27v17.905c0,0.78,0.594,1.488,1.302,1.815
		c0.269,0.124,0.624,0.185,0.909,0.185c0.466,0,0.963-0.163,1.331-0.477l14.941-12.703L68.296,50.132z"/>
</g>
</svg>
