<?xml version="1.0" encoding="utf-8"?>
<!-- Generator: Adobe Illustrator 16.0.0, SVG Export Plug-In . SVG Version: 6.00 Build 0)  -->
<!DOCTYPE svg PUBLIC "-//W3C//DTD SVG 1.1//EN" "http://www.w3.org/Graphics/SVG/1.1/DTD/svg11.dtd">
<svg version="1.1" xmlns="http://www.w3.org/2000/svg" xmlns:xlink="http://www.w3.org/1999/xlink" x="0px" y="0px" width="100px"
	 height="100px" viewBox="0 0 100 100" enable-background="new 0 0 100 100" xml:space="preserve">
<g id="Layer_3" display="none">
</g>
<g id="Your_Icon">
</g>
<g id="Layer_4">
	<g>
		<path d="M95.502,37.688l-11.529-1.162l7.599-9.303c1.624-1.988,1.479-4.883-0.337-6.699L80.168,9.457
			c-1.816-1.816-4.713-1.962-6.699-0.336l-9.443,7.714L62.8,4.73C62.536,2.181,60.389,0,57.826,0H42.174
			c-2.562,0-4.71,2.181-4.974,4.73l-1.168,11.426l-8.818-7.105c-1.987-1.615-4.876-1.438-6.688,0.375L9.457,20.509
			c-1.812,1.812-1.961,4.708-0.346,6.696l7.52,9.256L4.499,37.686C1.944,37.943,0,40.095,0,42.662v15.652
			c0,2.567,1.944,4.718,4.498,4.975l11.953,1.205L9.12,73.469c-1.624,1.988-1.479,4.883,0.337,6.698l11.066,11.067
			c1.815,1.815,4.711,1.962,6.699,0.337l8.871-7.246L37.2,95.27c0.264,2.549,2.411,4.73,4.974,4.73h15.163
			c2.514,0,4.637-2.11,4.959-4.604l1.495-11.697l8.996,7.25c1.988,1.615,4.877,1.438,6.689-0.376l10.721-10.737
			c1.777-1.777,1.959-4.605,0.424-6.597l-6.762-8.772l11.643-1.176c2.554-0.257,4.498-2.409,4.498-4.977V42.662
			C100,40.095,98.056,37.945,95.502,37.688z M55.186,64.273c-1.671,0.615-3.414,0.928-5.184,0.928l0,0
			c-6.256-0.001-11.912-3.945-14.074-9.815c-2.857-7.762,1.129-16.4,8.889-19.258c1.669-0.615,3.413-0.927,5.183-0.927
			c6.255,0,11.91,3.944,14.073,9.815c1.386,3.759,1.225,7.833-0.455,11.471C61.938,60.123,58.943,62.889,55.186,64.273z"/>
	</g>
</g>
</svg>
