<?xml version="1.0" encoding="utf-8"?>
<!-- Generator: Adobe Illustrator 16.0.0, SVG Export Plug-In . SVG Version: 6.00 Build 0)  -->
<!DOCTYPE svg PUBLIC "-//W3C//DTD SVG 1.1//EN" "http://www.w3.org/Graphics/SVG/1.1/DTD/svg11.dtd">
<svg version="1.1" xmlns="http://www.w3.org/2000/svg" xmlns:xlink="http://www.w3.org/1999/xlink" x="0px" y="0px" width="100px"
	 height="100px" viewBox="0 0 100 100" enable-background="new 0 0 100 100" xml:space="preserve">
<g id="Layer_3" display="none">
	<circle display="inline" fill="none" stroke="#000000" stroke-width="0.25" stroke-miterlimit="10" cx="50" cy="49.5" r="17.5"/>
	<polyline display="inline" opacity="0.15" points="95,5 5,5 5,95 95,95 	"/>
	<circle display="inline" fill="none" stroke="#000000" stroke-width="0.25" stroke-miterlimit="10" cx="50" cy="50" r="26"/>
	<circle display="inline" fill="none" stroke="#000000" stroke-width="0.25" stroke-miterlimit="10" cx="50" cy="50" r="34"/>
	<circle display="inline" fill="none" stroke="#000000" stroke-width="0.25" stroke-miterlimit="10" cx="50" cy="49.5" r="9"/>
	<path display="inline" fill="none" stroke="#000000" stroke-width="0.25" stroke-miterlimit="10" d="M0,50C0,22.386,22.389,0,50,0
		c27.612,0,50,22.386,50,50"/>
	<path display="inline" fill="none" stroke="#000000" stroke-width="0.25" stroke-miterlimit="10" d="M100,50
		c0,27.614-22.388,50-50,50C22.389,100,0,77.614,0,50"/>
</g>
<g id="Your_Icon">
</g>
<g id="Layer_4">
	<path d="M27.077,93.02c-4.005,0-8.015-1.46-11.193-4.399c-0.122-0.114-1.482-1.476-2.03-2.024l-0.205-0.205
		c-0.02-0.021-2.026-2.027-2.24-2.262c-6.017-6.508-5.817-16.55,0.473-22.84l13.082-13.082l5.657,5.657L17.54,66.946
		c-3.24,3.24-3.345,8.411-0.237,11.772c0.206,0.213,1.894,1.905,2.005,2.016l0.213,0.214c0.486,0.488,1.661,1.667,1.848,1.849
		c3.308,3.059,8.48,2.954,11.721-0.288l13.083-13.08l5.656,5.657l-13.082,13.08C35.518,91.395,31.3,93.02,27.077,93.02z"/>
	<path d="M75.002,53.861l-5.657-5.656l13.081-13.083c3.241-3.24,3.345-8.411,0.237-11.772c-0.151-0.155-1.315-1.313-1.798-1.794
		l-0.216-0.214c-0.11-0.111-1.813-1.811-2.052-2.041c-3.324-3.072-8.496-2.967-11.736,0.273L53.781,32.655l-5.657-5.657
		l13.081-13.081c6.29-6.29,16.332-6.49,22.861-0.456c0.12,0.11,2.117,2.099,2.242,2.223l0.204,0.204
		c0.555,0.553,1.933,1.93,2.032,2.038c6.03,6.522,5.831,16.564-0.46,22.854L75.002,53.861z"/>
	<rect x="46" y="33" transform="matrix(0.7071 0.7071 -0.7071 0.7071 49.997 -20.7107)" width="8" height="33.999"/>
</g>
</svg>
