<?xml version="1.0" encoding="utf-8"?>
<!-- Generator: Adobe Illustrator 16.0.0, SVG Export Plug-In . SVG Version: 6.00 Build 0)  -->
<!DOCTYPE svg PUBLIC "-//W3C//DTD SVG 1.1//EN" "http://www.w3.org/Graphics/SVG/1.1/DTD/svg11.dtd">
<svg version="1.1" xmlns="http://www.w3.org/2000/svg" xmlns:xlink="http://www.w3.org/1999/xlink" x="0px" y="0px" width="100px"
	 height="100px" viewBox="0 0 100 100" enable-background="new 0 0 100 100" xml:space="preserve">
<g id="Layer_3" display="none">
</g>
<g id="Your_Icon">
</g>
<g id="Layer_4">
	<g>
		<path fill="none" d="M39,41V10H22v80h54V46H44C41.238,46,39,43.761,39,41z"/>
		<polygon fill="none" points="49,10 49,36 76,36 76,32.609 52.555,10 		"/>
		<path d="M82.826,25.46L59.63,2.852C57.762,1.023,55.169,0,52.555,0H49H39H22.332C16.81,0,12,4.477,12,10v80
			c0,5.523,4.81,10,10.332,10h53.336C81.19,100,86,95.523,86,90V32.609C86,29.918,84.75,27.342,82.826,25.46z M76,90H22V10h17v31
			c0,2.761,2.238,5,5,5h32V90z M76,36H49V10h3.555L76,32.609V36z"/>
	</g>
</g>
</svg>
