<?xml version="1.0" encoding="utf-8"?>
<!-- Generator: Adobe Illustrator 16.0.0, SVG Export Plug-In . SVG Version: 6.00 Build 0)  -->
<!DOCTYPE svg PUBLIC "-//W3C//DTD SVG 1.1//EN" "http://www.w3.org/Graphics/SVG/1.1/DTD/svg11.dtd">
<svg version="1.1" xmlns="http://www.w3.org/2000/svg" xmlns:xlink="http://www.w3.org/1999/xlink" x="0px" y="0px" width="100px"
	 height="100px" viewBox="0 0 100 100" enable-background="new 0 0 100 100" xml:space="preserve">
<g id="Layer_3" display="none">
	<circle display="inline" fill="none" stroke="#000000" stroke-width="0.25" stroke-miterlimit="10" cx="50" cy="49" r="15.134"/>
	<polyline display="inline" opacity="0.26" points="94,5 6,5 6,93 94,93 	"/>
	<circle display="inline" fill="none" stroke="#000000" stroke-width="0.25" stroke-miterlimit="10" cx="50" cy="49" r="24"/>
	<circle display="inline" fill="none" stroke="#000000" stroke-width="0.25" stroke-miterlimit="10" cx="50" cy="49" r="30"/>
	<circle display="inline" fill="none" stroke="#000000" stroke-width="0.25" stroke-miterlimit="10" cx="50" cy="49" r="9.134"/>
	<path display="inline" fill="none" stroke="#000000" stroke-width="0.25" stroke-miterlimit="10" d="M0,49C0,21.386,22.389-1,50-1
		c27.612,0,50,22.386,50,50"/>
	<path display="inline" fill="none" stroke="#000000" stroke-width="0.25" stroke-miterlimit="10" d="M100,49
		c0,27.614-22.388,50-50,50C22.389,99,0,76.614,0,49"/>
</g>
<g id="Your_Icon">
</g>
<g id="Layer_4">
	<path d="M0,100.003V38h100v61.928L0,100.003z M8,46v45.997l84-0.063V46H8z"/>
	<path d="M71.5,34.008h-8V33.18c0-4.225-2.652-7.959-6.326-8.937c-0.85-0.095-4.186-0.204-6.93-0.251
		c-2.638,0.032-5.814,0.104-6.595,0.169c-4.083,0.859-7.15,4.715-7.15,9.019v0.828h-8V33.18c0-8.1,5.903-15.361,13.732-16.894
		c0.357-0.069,1.095-0.213,7.976-0.294l0.114,0.001c7.318,0.122,8.246,0.353,8.642,0.45C66.343,18.264,71.5,25.146,71.5,33.18
		V34.008z"/>
</g>
</svg>
