<?xml version="1.0" encoding="utf-8"?>
<!-- Generator: Adobe Illustrator 16.0.0, SVG Export Plug-In . SVG Version: 6.00 Build 0)  -->
<!DOCTYPE svg PUBLIC "-//W3C//DTD SVG 1.1//EN" "http://www.w3.org/Graphics/SVG/1.1/DTD/svg11.dtd">
<svg version="1.1" xmlns="http://www.w3.org/2000/svg" xmlns:xlink="http://www.w3.org/1999/xlink" x="0px" y="0px" width="100px"
	 height="100px" viewBox="0 0 100 100" enable-background="new 0 0 100 100" xml:space="preserve">
<g id="Layer_3" display="none">
	<rect x="6" y="6" display="inline" opacity="0.26" width="88" height="88"/>
	
		<circle display="inline" opacity="0.4" fill="none" stroke="#000000" stroke-width="6" stroke-miterlimit="10" cx="49.5" cy="39.5" r="12.5"/>
</g>
<g id="Your_Icon">
</g>
<g id="Layer_4">
	<path d="M50,99.929l-3.266-4.62C43.588,90.86,16,51.339,16,34C16,15.252,31.252,0,50,0s34,15.252,34,34
		c0,17.339-27.588,56.86-30.734,61.309L50,99.929z M50,8C35.664,8,24,19.664,24,34c0,11.101,16.553,37.945,26,51.951
		C59.447,71.945,76,45.101,76,34C76,19.664,64.336,8,50,8z"/>
	<rect x="36" y="33" width="28" height="8"/>
	<rect x="46" y="22" width="8" height="30"/>
</g>
</svg>
