<?xml version="1.0" encoding="utf-8"?>
<!-- Generator: Adobe Illustrator 16.0.0, SVG Export Plug-In . SVG Version: 6.00 Build 0)  -->
<!DOCTYPE svg PUBLIC "-//W3C//DTD SVG 1.1//EN" "http://www.w3.org/Graphics/SVG/1.1/DTD/svg11.dtd">
<svg version="1.1" id="Your_Icon" xmlns="http://www.w3.org/2000/svg" xmlns:xlink="http://www.w3.org/1999/xlink" x="0px" y="0px"
	 width="100px" height="100px" viewBox="0 0 100 100" enable-background="new 0 0 100 100" xml:space="preserve">
<g>
	<path fill="none" d="M16,39v45.543C16,85.356,16.687,86,17.5,86h67c0.813,0,1.5-0.644,1.5-1.457V39H16z M46.686,71.674
		c-0.517,1.066-1.222,1.967-2.115,2.703c-0.893,0.736-1.935,1.301-3.125,1.691c-1.191,0.393-2.476,0.588-3.854,0.588
		c-1.191,0-2.279-0.117-3.266-0.352c-0.987-0.236-1.888-0.549-2.703-0.941c-0.815-0.391-1.544-0.838-2.186-1.34
		c-0.643-0.5-1.215-1.033-1.715-1.598l1.974-2.537c0.909,0.939,1.966,1.77,3.173,2.49c1.206,0.721,2.702,1.082,4.488,1.082
		c1.817,0,3.306-0.494,4.465-1.48c1.159-0.988,1.739-2.328,1.739-4.02c0-0.877-0.165-1.684-0.494-2.42s-0.869-1.371-1.622-1.904
		c-0.752-0.531-1.725-0.939-2.947-1.221C37.276,62.133,36,61.992,34,61.992v-2.961c2,0,2.924-0.141,4.005-0.424
		c1.081-0.281,1.951-0.672,2.625-1.174c0.673-0.502,1.148-1.098,1.43-1.787c0.282-0.688,0.421-1.424,0.421-2.209
		c0-1.471-0.463-2.631-1.388-3.477s-2.186-1.27-3.784-1.27c-1.253,0-2.406,0.281-3.455,0.846c-1.05,0.564-2.029,1.301-2.938,2.209
		l-2.068-2.443c1.159-1.098,2.436-1.998,3.831-2.703c1.394-0.705,2.984-1.057,4.771-1.057c1.316,0,2.521,0.172,3.619,0.516
		c1.097,0.346,2.044,0.84,2.844,1.48c0.799,0.643,1.417,1.434,1.856,2.375c0.438,0.939,0.658,2.02,0.658,3.242
		c0,1.818-0.49,3.307-1.492,4.465C43.933,58.781,43,59.674,41,60.301v0.188c1,0.219,1.742,0.541,2.526,0.963
		c0.783,0.424,1.466,0.957,2.062,1.598c0.595,0.643,1.054,1.387,1.383,2.234c0.329,0.846,0.492,1.785,0.492,2.818
		C47.463,69.418,47.203,70.609,46.686,71.674z M74,76H57v-3h7V51h-5v-2.686c1-0.25,2.33-0.607,3.349-0.969
		C63.366,46.986,64.036,47,64.851,46H68v27h6V76z"/>
	<path d="M84.5,21h-3.001c-0.241-4-0.898-7.423-2.493-9.247c-1.125-1.284-3.177-2.041-5.49-2.041c-2.208,0-4.187,0.696-5.429,1.938
		C66.305,13.432,65.618,17,65.399,21H37.498c-0.241-4-0.897-7.423-2.493-9.245c-1.125-1.286-3.177-2.043-5.49-2.043
		c-2.208,0-4.188,0.696-5.43,1.94C22.304,13.432,21.617,17,21.399,21H17.5C12.812,21,9,24.856,9,29.543v55
		C9,89.229,12.812,93,17.5,93h67c4.687,0,8.5-3.771,8.5-8.457v-55C93,24.856,89.187,21,84.5,21z M26.914,14.461
		c0.477-0.477,1.498-0.762,2.602-0.762c1.295,0,2.229,0.367,2.479,0.653C33.238,15.773,33.75,22,33.589,27h-8.207
		C25.144,22,25.613,15.762,26.914,14.461z M70.914,14.46c0.476-0.476,1.497-0.761,2.601-0.761c1.296,0,2.23,0.367,2.479,0.651
		C77.238,15.772,77.75,22,77.589,27h-8.207C69.144,22,69.613,15.762,70.914,14.46z M84.5,86h-67c-0.813,0-1.5-0.644-1.5-1.457V39h70
		v45.543C86,85.356,85.313,86,84.5,86z"/>
	<path d="M45.582,63.049c-0.596-0.641-1.273-1.174-2.056-1.598C42.742,61.029,42,60.707,41,60.488v-0.188
		c2-0.627,2.933-1.52,3.936-2.68c1.002-1.158,1.498-2.646,1.498-4.465c0-1.223-0.223-2.303-0.661-3.242
		c-0.439-0.941-1.059-1.732-1.858-2.375c-0.799-0.641-1.748-1.135-2.844-1.48c-1.097-0.344-2.303-0.516-3.619-0.516
		c-1.786,0-3.377,0.352-4.771,1.057c-1.395,0.705-2.672,1.605-3.831,2.703l2.068,2.443c0.909-0.908,1.887-1.645,2.938-2.209
		c1.049-0.564,2.201-0.846,3.455-0.846c1.598,0,2.859,0.424,3.783,1.27s1.387,2.006,1.387,3.477c0,0.785-0.141,1.521-0.423,2.209
		c-0.282,0.689-0.76,1.285-1.434,1.787c-0.674,0.502-1.538,0.893-2.618,1.174C36.924,58.891,36,59.031,34,59.031v2.961
		c2,0,3.276,0.141,4.498,0.424c1.222,0.281,2.202,0.689,2.954,1.221c0.752,0.533,1.289,1.168,1.618,1.904s0.492,1.543,0.492,2.42
		c0,1.691-0.581,3.031-1.74,4.02c-1.159,0.986-2.648,1.48-4.465,1.48c-1.786,0-3.283-0.361-4.489-1.082
		c-1.207-0.721-2.264-1.551-3.173-2.49l-1.974,2.537c0.5,0.564,1.073,1.098,1.715,1.598c0.642,0.502,1.37,0.949,2.186,1.34
		c0.814,0.393,1.715,0.705,2.703,0.941c0.987,0.234,2.075,0.352,3.266,0.352c1.378,0,2.663-0.195,3.854-0.588
		c1.19-0.391,2.233-0.955,3.125-1.691c0.893-0.736,1.598-1.637,2.115-2.703c0.517-1.064,0.775-2.256,0.775-3.572
		c0-1.033-0.165-1.973-0.494-2.818C46.639,64.436,46.176,63.691,45.582,63.049z"/>
	<path d="M68,46h-3.149c-0.815,1-1.485,0.986-2.502,1.346C61.33,47.707,60,48.064,59,48.314V51h5v22h-7v3h17v-3h-6V46z"/>
</g>
</svg>
