<?xml version="1.0" encoding="utf-8"?>
<!-- Generator: Adobe Illustrator 16.0.0, SVG Export Plug-In . SVG Version: 6.00 Build 0)  -->
<!DOCTYPE svg PUBLIC "-//W3C//DTD SVG 1.1//EN" "http://www.w3.org/Graphics/SVG/1.1/DTD/svg11.dtd">
<svg version="1.1" id="Your_Icon" xmlns="http://www.w3.org/2000/svg" xmlns:xlink="http://www.w3.org/1999/xlink" x="0px" y="0px"
	 width="100px" height="100px" viewBox="0 0 100 100" enable-background="new 0 0 100 100" xml:space="preserve">
<g>
	<path fill="none" d="M62.5,43c0-11.304-9.196-20.5-20.5-20.5S21.5,31.696,21.5,43S30.696,63.5,42,63.5
		c5.488,0,10.646-2.142,14.521-6.031C60.377,53.601,62.5,48.463,62.5,43z M54,45H29v-4h25V45z"/>
	<rect x="29" y="41" width="25" height="4"/>
	<path d="M90.478,86.527l-26.694-26.75C67.486,54.99,69.5,49.15,69.5,43c0-15.163-12.337-27.5-27.5-27.5S14.5,27.837,14.5,43
		S26.837,70.5,42,70.5c6.18,0,12.042-2.03,16.84-5.766l26.683,26.738C86.206,92.157,87.103,92.5,88,92.5
		c0.895,0,1.789-0.341,2.473-1.022C91.841,90.112,91.843,87.896,90.478,86.527z M21.5,43c0-11.304,9.196-20.5,20.5-20.5
		S62.5,31.696,62.5,43c0,5.463-2.123,10.601-5.979,14.469C52.646,61.358,47.488,63.5,42,63.5C30.696,63.5,21.5,54.304,21.5,43z"/>
</g>
</svg>
