<?xml version="1.0" encoding="utf-8"?>
<!-- Generator: Adobe Illustrator 16.0.0, SVG Export Plug-In . SVG Version: 6.00 Build 0)  -->
<!DOCTYPE svg PUBLIC "-//W3C//DTD SVG 1.1//EN" "http://www.w3.org/Graphics/SVG/1.1/DTD/svg11.dtd">
<svg version="1.1" xmlns="http://www.w3.org/2000/svg" xmlns:xlink="http://www.w3.org/1999/xlink" x="0px" y="0px" width="100px"
	 height="100px" viewBox="0 0 100 100" enable-background="new 0 0 100 100" xml:space="preserve">
<g id="Layer_3" display="none">
	<circle display="inline" fill="none" stroke="#000000" stroke-width="0.25" stroke-miterlimit="10" cx="50" cy="50" r="15.134"/>
	<polyline display="inline" opacity="0.26" points="94,6 6,6 6,94 94,94 	"/>
	<circle display="inline" fill="none" stroke="#000000" stroke-width="0.25" stroke-miterlimit="10" cx="50" cy="50" r="24"/>
	<circle display="inline" fill="none" stroke="#000000" stroke-width="0.25" stroke-miterlimit="10" cx="50" cy="50" r="30"/>
	<circle display="inline" fill="none" stroke="#000000" stroke-width="0.25" stroke-miterlimit="10" cx="50" cy="50" r="9.134"/>
	<path display="inline" fill="none" stroke="#000000" stroke-width="0.25" stroke-miterlimit="10" d="M0,50C0,22.386,22.389,0,50,0
		c27.612,0,50,22.386,50,50"/>
	<path display="inline" fill="none" stroke="#000000" stroke-width="0.25" stroke-miterlimit="10" d="M100,50
		c0,27.614-22.388,50-50,50C22.389,100,0,77.614,0,50"/>
</g>
<g id="Your_Icon">
</g>
<g id="Layer_4">
	<path d="M50.03,84c-11.803,0-22.584-5.964-28.841-15.954c-4.821-7.697-6.356-16.811-4.322-25.66s7.394-16.378,15.09-21.197
		C37.377,17.794,43.606,16,49.973,16c11.803,0,22.585,5.967,28.843,15.96c4.817,7.694,6.351,16.805,4.316,25.654
		c-2.034,8.852-7.393,16.38-15.088,21.199C62.625,82.206,56.396,84,50.03,84z M49.973,24c-4.862,0-9.624,1.372-13.77,3.968
		c-5.886,3.687-9.983,9.442-11.539,16.21c-1.555,6.767-0.381,13.735,3.306,19.622C32.754,71.439,41.001,76,50.03,76
		c4.862,0,9.623-1.372,13.768-3.967c5.885-3.686,9.982-9.442,11.537-16.21c1.556-6.768,0.384-13.734-3.301-19.617
		C67.249,28.562,59.002,24,49.973,24z"/>
	<polygon points="61.747,58.354 42.746,58.339 42.771,34.35 50.771,34.357 50.754,50.345 61.753,50.354 	"/>
	<rect x="20.856" y="81.379" transform="matrix(0.8238 0.5669 -0.5669 0.8238 55.3717 1.7597)" width="8" height="17.13"/>
	<path d="M87.151,32.647l-5.658-5.654l3.064-3.065c1.65-1.651,1.704-4.287,0.121-5.999c-0.109-0.111-0.868-0.866-1.173-1.17
		l-0.133-0.133c-0.114-0.114-1.174-1.172-1.35-1.342c-1.667-1.54-4.304-1.488-5.957,0.163l-3.063,3.064l-5.656-5.656l3.062-3.063
		C75.11,5.09,82.616,4.941,87.498,9.451c0.075,0.069,1.463,1.449,1.549,1.536l0.104,0.104c0.379,0.377,1.361,1.362,1.43,1.438
		c4.482,4.847,4.335,12.353-0.366,17.055L87.151,32.647z"/>
	<path d="M12.85,32.647l-3.062-3.063c-4.702-4.702-4.85-12.208-0.338-17.087c0.039-0.044,1.021-1.029,1.4-1.406l0.122-0.121
		c0.068-0.069,1.456-1.449,1.545-1.531C17.384,4.94,24.891,5.09,29.591,9.791l3.063,3.064l-5.656,5.656l-3.064-3.065
		c-1.651-1.65-4.287-1.702-6.001-0.12c-0.131,0.128-1.19,1.186-1.289,1.285l-0.148,0.147c-0.291,0.29-0.995,0.991-1.19,1.189
		c-1.564,1.744-1.496,4.344,0.14,5.979l3.063,3.065L12.85,32.647z"/>
	<rect x="67.291" y="85.945" transform="matrix(0.5669 0.8238 -0.8238 0.5669 106.9478 -23.5339)" width="17.13" height="8"/>
</g>
</svg>
