<?xml version="1.0" encoding="utf-8"?>
<!-- Generator: Adobe Illustrator 16.0.0, SVG Export Plug-In . SVG Version: 6.00 Build 0)  -->
<!DOCTYPE svg PUBLIC "-//W3C//DTD SVG 1.1//EN" "http://www.w3.org/Graphics/SVG/1.1/DTD/svg11.dtd">
<svg version="1.1" id="Your_Icon" xmlns="http://www.w3.org/2000/svg" xmlns:xlink="http://www.w3.org/1999/xlink" x="0px" y="0px"
	 width="100px" height="100px" viewBox="0 0 100 100" enable-background="new 0 0 100 100" xml:space="preserve">
<g>
	<path fill="none" d="M61.975,42c0-11.304-9.196-20.5-20.5-20.5s-20.5,9.196-20.5,20.5s9.196,20.5,20.5,20.5
		S61.975,53.304,61.975,42z"/>
	<path d="M90.478,86.527L63.04,59.033c3.711-4.688,5.935-10.604,5.935-17.033c0-15.163-12.337-27.5-27.5-27.5
		s-27.5,12.337-27.5,27.5s12.337,27.5,27.5,27.5c6.216,0,11.955-2.076,16.565-5.566l27.482,27.539
		C86.206,92.157,87.103,92.5,88,92.5c0.895,0,1.789-0.341,2.473-1.022C91.841,90.112,91.843,87.896,90.478,86.527z M20.975,42
		c0-11.304,9.196-20.5,20.5-20.5s20.5,9.196,20.5,20.5s-9.196,20.5-20.5,20.5S20.975,53.304,20.975,42z"/>
</g>
</svg>
