<?xml version="1.0" encoding="utf-8"?>
<!-- Generator: Adobe Illustrator 16.0.0, SVG Export Plug-In . SVG Version: 6.00 Build 0)  -->
<!DOCTYPE svg PUBLIC "-//W3C//DTD SVG 1.1//EN" "http://www.w3.org/Graphics/SVG/1.1/DTD/svg11.dtd">
<svg version="1.1" xmlns="http://www.w3.org/2000/svg" xmlns:xlink="http://www.w3.org/1999/xlink" x="0px" y="0px" width="100px"
	 height="100px" viewBox="0 0 100 100" enable-background="new 0 0 100 100" xml:space="preserve">
<g id="Layer_3" display="none">
	<circle display="inline" fill="none" stroke="#000000" stroke-width="0.25" stroke-miterlimit="10" cx="50" cy="50" r="15.134"/>
	<polyline display="inline" opacity="0.26" points="94,6 6,6 6,94 94,94 	"/>
	<circle display="inline" fill="none" stroke="#000000" stroke-width="0.25" stroke-miterlimit="10" cx="50" cy="50" r="24"/>
	<circle display="inline" fill="none" stroke="#000000" stroke-width="0.25" stroke-miterlimit="10" cx="50" cy="50" r="30"/>
	<circle display="inline" fill="none" stroke="#000000" stroke-width="0.25" stroke-miterlimit="10" cx="50" cy="50" r="9.134"/>
	<path display="inline" fill="none" stroke="#000000" stroke-width="0.25" stroke-miterlimit="10" d="M0,50C0,22.386,22.389,0,50,0
		c27.612,0,50,22.386,50,50"/>
	<path display="inline" fill="none" stroke="#000000" stroke-width="0.25" stroke-miterlimit="10" d="M100,50
		c0,27.614-22.388,50-50,50C22.389,100,0,77.614,0,50"/>
</g>
<g id="Your_Icon">
</g>
<g id="Layer_4">
	<polygon points="84,101 16,101 16,-1 84,-1 84,21 76,21 76,7 24,7 24,93 76,93 76,79 84,79 	"/>
	<path d="M56.853,60.747c-10.313,0-18.703-8.389-18.703-18.7c0-10.314,8.39-18.706,18.703-18.706
		c10.314,0,18.705,8.392,18.705,18.706C75.558,52.358,67.167,60.747,56.853,60.747z M56.853,31.341
		c-5.902,0-10.703,4.803-10.703,10.706c0,5.9,4.801,10.7,10.703,10.7c5.902,0,10.705-4.8,10.705-10.7
		C67.558,36.144,62.755,31.341,56.853,31.341z"/>
	<rect x="63.718" y="56.914" transform="matrix(0.7014 0.7128 -0.7128 0.7014 65.6319 -34.8241)" width="21.315" height="8"/>
</g>
</svg>
