<?xml version="1.0" encoding="utf-8"?>
<!-- Generator: Adobe Illustrator 16.0.0, SVG Export Plug-In . SVG Version: 6.00 Build 0)  -->
<!DOCTYPE svg PUBLIC "-//W3C//DTD SVG 1.1//EN" "http://www.w3.org/Graphics/SVG/1.1/DTD/svg11.dtd">
<svg version="1.1" xmlns="http://www.w3.org/2000/svg" xmlns:xlink="http://www.w3.org/1999/xlink" x="0px" y="0px" width="100px"
	 height="100px" viewBox="0 0 100 100" enable-background="new 0 0 100 100" xml:space="preserve">
<g id="Layer_3" display="none">
</g>
<g id="Your_Icon">
</g>
<g id="Layer_4">
	<g>
		<path d="M50,1C30.149,1,14,18.047,14,39c0,8.544,4.993,20.493,15.263,36.528c7.132,11.135,14.164,20.058,14.46,20.432
			C45.241,97.88,47.553,99,50,99s4.759-1.12,6.277-3.04c0.296-0.374,7.328-9.297,14.46-20.432C81.007,59.493,86,47.544,86,39
			C86,18.047,69.851,1,50,1z M35,38.5c0-8.271,6.729-15,14.999-15C58.271,23.5,65,30.229,65,38.5s-6.729,15-15.001,15
			C41.729,53.5,35,46.771,35,38.5z"/>
	</g>
</g>
</svg>
