<?xml version="1.0" encoding="utf-8"?>
<!-- Generator: Adobe Illustrator 16.0.0, SVG Export Plug-In . SVG Version: 6.00 Build 0)  -->
<!DOCTYPE svg PUBLIC "-//W3C//DTD SVG 1.1//EN" "http://www.w3.org/Graphics/SVG/1.1/DTD/svg11.dtd">
<svg version="1.1" id="Your_Icon" xmlns="http://www.w3.org/2000/svg" xmlns:xlink="http://www.w3.org/1999/xlink" x="0px" y="0px"
	 width="100px" height="100px" viewBox="0 0 100 100" enable-background="new 0 0 100 100" xml:space="preserve">
<g>
	<path fill="none" d="M62.625,43c0-11.304-9.196-20.5-20.5-20.5s-20.5,9.196-20.5,20.5s9.196,20.5,20.5,20.5
		S62.625,54.304,62.625,43z M54,45H44v10h-4V45H29v-4h11V30h4v11h10V45z"/>
	<polygon points="44,30 40,30 40,41 29,41 29,45 40,45 40,55 44,55 44,45 54,45 54,41 44,41 	"/>
	<path d="M90.603,86.527l-26.703-26.76c3.585-4.645,5.726-10.459,5.726-16.768c0-15.163-12.337-27.5-27.5-27.5
		s-27.5,12.337-27.5,27.5s12.337,27.5,27.5,27.5c6.337,0,12.175-2.16,16.83-5.775l26.692,26.748c0.684,0.685,1.58,1.027,2.478,1.027
		c0.895,0,1.789-0.341,2.473-1.022C91.966,90.112,91.968,87.896,90.603,86.527z M21.625,43c0-11.304,9.196-20.5,20.5-20.5
		s20.5,9.196,20.5,20.5s-9.196,20.5-20.5,20.5S21.625,54.304,21.625,43z"/>
</g>
</svg>
