<?xml version="1.0" encoding="utf-8"?>
<!-- Generator: Adobe Illustrator 16.0.0, SVG Export Plug-In . SVG Version: 6.00 Build 0)  -->
<!DOCTYPE svg PUBLIC "-//W3C//DTD SVG 1.1//EN" "http://www.w3.org/Graphics/SVG/1.1/DTD/svg11.dtd">
<svg version="1.1" xmlns="http://www.w3.org/2000/svg" xmlns:xlink="http://www.w3.org/1999/xlink" x="0px" y="0px" width="100px"
	 height="100px" viewBox="0 0 100 100" enable-background="new 0 0 100 100" xml:space="preserve">
<g id="Layer_3" display="none">
	<circle display="inline" fill="none" stroke="#000000" stroke-width="0.25" stroke-miterlimit="10" cx="50" cy="50" r="15.134"/>
	<polyline display="inline" opacity="0.26" points="94,6 6,6 6,94 94,94 	"/>
	<circle display="inline" fill="none" stroke="#000000" stroke-width="0.25" stroke-miterlimit="10" cx="50" cy="50" r="24"/>
	<circle display="inline" fill="none" stroke="#000000" stroke-width="0.25" stroke-miterlimit="10" cx="50" cy="50" r="30"/>
	<circle display="inline" fill="none" stroke="#000000" stroke-width="0.25" stroke-miterlimit="10" cx="50" cy="50" r="9.134"/>
	<path display="inline" fill="none" stroke="#000000" stroke-width="0.25" stroke-miterlimit="10" d="M0,50C0,22.386,22.389,0,50,0
		c27.612,0,50,22.386,50,50"/>
	<path display="inline" fill="none" stroke="#000000" stroke-width="0.25" stroke-miterlimit="10" d="M100,50
		c0,27.614-22.388,50-50,50C22.389,100,0,77.614,0,50"/>
</g>
<g id="Your_Icon">
</g>
<g id="Layer_4">
	<path d="M83.024,30.75c-0.001,0-0.003,0-0.005,0l0.003-8c0,0,0.001,0,0.002,0c1.94,0,3.766-0.764,5.142-2.149
		c1.384-1.396,2.146-3.25,2.146-5.224c0-4.067-3.271-7.376-7.292-7.377H49.63V0h33.39c8.432,0.001,15.292,6.899,15.292,15.377
		c0,4.099-1.587,7.955-4.468,10.858C90.955,29.146,87.112,30.75,83.024,30.75z"/>
	<path d="M16.601,53.5c-4.088,0-7.931-1.604-10.82-4.515c-2.881-2.903-4.468-6.76-4.468-10.858c0-8.478,6.86-15.376,15.292-15.377
		h66.869v8H16.604c-4.021,0.001-7.292,3.31-7.292,7.377c0,1.974,0.762,3.828,2.146,5.224c1.376,1.386,3.202,2.149,5.142,2.149
		c0,0,0.001,0,0.002,0l0.003,8C16.604,53.5,16.603,53.5,16.601,53.5z"/>
	<path d="M83.024,76.25c-0.001,0-0.003,0-0.005,0l0.003-8c0,0,0.001,0,0.002,0c1.94,0,3.766-0.764,5.142-2.149
		c1.384-1.396,2.146-3.25,2.146-5.224c0-4.067-3.271-7.376-7.292-7.377H16.152v-8h66.868c8.432,0.001,15.292,6.899,15.292,15.377
		c0,4.099-1.587,7.955-4.468,10.858C90.955,74.646,87.112,76.25,83.024,76.25z"/>
	<path d="M16.6,99c-4.087,0-7.929-1.604-10.819-4.515c-2.881-2.903-4.468-6.76-4.468-10.858c0-8.478,6.86-15.376,15.292-15.377
		h66.869v8H16.604c-4.021,0.001-7.292,3.31-7.292,7.377c0,1.974,0.762,3.828,2.146,5.224C12.835,90.236,14.661,91,16.601,91
		c0,0,0.001,0,0.002,0H49.63v8H16.604C16.603,99,16.601,99,16.6,99z"/>
</g>
</svg>
