<?xml version="1.0" encoding="utf-8"?>
<!-- Generator: Adobe Illustrator 16.0.0, SVG Export Plug-In . SVG Version: 6.00 Build 0)  -->
<!DOCTYPE svg PUBLIC "-//W3C//DTD SVG 1.1//EN" "http://www.w3.org/Graphics/SVG/1.1/DTD/svg11.dtd">
<svg version="1.1" id="Your_Icon" xmlns="http://www.w3.org/2000/svg" xmlns:xlink="http://www.w3.org/1999/xlink" x="0px" y="0px"
	 width="100px" height="100px" viewBox="0 0 100 100" enable-background="new 0 0 100 100" xml:space="preserve">
<g>
	<path fill="none" d="M49.5,16.5c-18.748,0-34,15.252-34,34s15.252,34,34,34s34-15.252,34-34S68.248,16.5,49.5,16.5z M56.936,55.33
		c-0.65,0.933-1.713,1.491-2.851,1.498L31.02,56.961l-0.04-7l18.109-0.104l-8.171-22.601l6.583-2.381l9.856,27.264
		C57.744,53.207,57.586,54.397,56.936,55.33z"/>
	<path d="M49.5,9.5c-22.607,0-41,18.393-41,41s18.393,41,41,41s41-18.393,41-41S72.107,9.5,49.5,9.5z M49.5,84.5
		c-18.748,0-34-15.252-34-34s15.252-34,34-34s34,15.252,34,34S68.248,84.5,49.5,84.5z"/>
	<path d="M47.501,24.875l-6.583,2.381l8.171,22.601L30.98,49.961l0.04,7l23.065-0.133c1.137-0.007,2.2-0.565,2.851-1.498
		s0.808-2.123,0.421-3.191L47.501,24.875z"/>
</g>
</svg>
