<?xml version="1.0" encoding="utf-8"?>
<!-- Generator: Adobe Illustrator 16.0.0, SVG Export Plug-In . SVG Version: 6.00 Build 0)  -->
<!DOCTYPE svg PUBLIC "-//W3C//DTD SVG 1.1//EN" "http://www.w3.org/Graphics/SVG/1.1/DTD/svg11.dtd">
<svg version="1.1" xmlns="http://www.w3.org/2000/svg" xmlns:xlink="http://www.w3.org/1999/xlink" x="0px" y="0px" width="100px"
	 height="100px" viewBox="0 0 100 100" enable-background="new 0 0 100 100" xml:space="preserve">
<g id="Layer_3" display="none">
	<rect x="6" y="6" display="inline" opacity="0.26" width="88" height="88"/>
</g>
<g id="Your_Icon">
</g>
<g id="Layer_4">
	<path d="M51.953,84.018c-4.556,0-9.1-0.931-13.4-2.788c-8.3-3.587-14.719-10.209-18.071-18.647l-0.283-0.712v-4.093h8v2.534
		c2.633,6.128,7.412,10.932,13.527,13.573c6.341,2.74,13.386,2.837,19.834,0.274c13.316-5.294,19.845-20.436,14.554-33.752
		C70.819,27.09,55.679,20.56,42.36,25.853c-8.076,3.212-13.99,10.211-15.818,18.722l-7.822-1.68
		c2.391-11.126,10.123-20.275,20.685-24.476c17.421-6.925,37.222,1.616,44.143,19.033S81.93,74.67,64.515,81.593
		C60.446,83.21,56.195,84.018,51.953,84.018z"/>
	<polygon points="44,48 15,48 15,19 23,19 23,40 44,40 	"/>
</g>
</svg>
