<?xml version="1.0" encoding="utf-8"?>
<!-- Generator: Adobe Illustrator 16.0.0, SVG Export Plug-In . SVG Version: 6.00 Build 0)  -->
<!DOCTYPE svg PUBLIC "-//W3C//DTD SVG 1.1//EN" "http://www.w3.org/Graphics/SVG/1.1/DTD/svg11.dtd">
<svg version="1.1" id="Your_Icon" xmlns="http://www.w3.org/2000/svg" xmlns:xlink="http://www.w3.org/1999/xlink" x="0px" y="0px"
	 width="100px" height="100px" viewBox="0 0 100 100" enable-background="new 0 0 100 100" xml:space="preserve">
<g>
	<path fill="none" d="M85,17.5c0-0.829-0.672-1.5-1.5-1.5h-67c-0.828,0-1.5,0.671-1.5,1.5v66c0,0.829,0.672,1.5,1.5,1.5h67
		c0.828,0,1.5-0.671,1.5-1.5V17.5z M33.499,76C29.358,76,26,72.642,26,68.5s3.358-7.5,7.499-7.5C37.643,61,41,64.358,41,68.5
		S37.643,76,33.499,76z M52.541,78.013c-0.071-7.982-3.188-15.456-8.776-21.042c-5.57-5.57-12.956-8.617-20.733-8.528l-0.062-7
		c9.646-0.095,18.836,3.67,25.745,10.578c6.894,6.893,10.739,16.102,10.827,25.93L52.541,78.013z M68.56,77.915
		C68.45,65.637,63.653,54.14,55.055,45.543c-8.483-8.482-19.668-13.139-31.534-13.139c-0.137,0-0.272,0-0.41,0.002l-0.062-7
		c13.872-0.108,27.036,5.269,36.956,15.187c9.905,9.903,15.429,23.135,15.556,37.259L68.56,77.915z"/>
	<circle cx="33.499" cy="68.5" r="7.5"/>
	<path d="M22.969,41.442l0.062,7c7.777-0.088,15.163,2.958,20.733,8.528c5.588,5.587,8.705,13.06,8.776,21.042l7-0.062
		c-0.088-9.829-3.934-19.038-10.827-25.93C41.805,45.112,32.614,41.348,22.969,41.442z"/>
	<path d="M92,17.5c0-4.694-3.806-8.5-8.5-8.5h-67C11.806,9,8,12.806,8,17.5v66c0,4.694,3.806,8.5,8.5,8.5h67
		c4.694,0,8.5-3.806,8.5-8.5V17.5z M85,83.5c0,0.829-0.672,1.5-1.5,1.5h-67c-0.828,0-1.5-0.671-1.5-1.5v-66
		c0-0.829,0.672-1.5,1.5-1.5h67c0.828,0,1.5,0.671,1.5,1.5V83.5z"/>
	<path d="M23.048,25.406l0.062,7c0.138-0.001,0.273-0.002,0.41-0.002c11.866,0,23.051,4.656,31.534,13.139
		C63.653,54.14,68.45,65.637,68.56,77.915l7-0.062c-0.127-14.125-5.65-27.356-15.556-37.259
		C50.084,30.675,36.92,25.298,23.048,25.406z"/>
</g>
</svg>
