<?xml version="1.0" encoding="utf-8"?>
<!-- Generator: Adobe Illustrator 16.0.0, SVG Export Plug-In . SVG Version: 6.00 Build 0)  -->
<!DOCTYPE svg PUBLIC "-//W3C//DTD SVG 1.1//EN" "http://www.w3.org/Graphics/SVG/1.1/DTD/svg11.dtd">
<svg version="1.1" id="Your_Icon" xmlns="http://www.w3.org/2000/svg" xmlns:xlink="http://www.w3.org/1999/xlink" x="0px" y="0px"
	 width="100px" height="100px" viewBox="0 0 100 100" enable-background="new 0 0 100 100" xml:space="preserve">
<path d="M65.995,13.79c-2.793-3.571-6.989-5.842-11.513-6.229c-8.996-0.775-16.948,5.902-17.722,14.877
	c-0.481,5.597,3.282,12.489,6.922,19.155c1.83,3.352,3.558,6.517,4.54,9.136c0.012,0.03,0.028,0.057,0.041,0.087
	c0.008,0.021,0.011,0.043,0.02,0.063c0.641,1.495,1.456,3.239,2.318,5.085c2.886,6.175,7.246,15.505,6.771,20.145
	c-0.521,5.123-5.119,8.873-10.279,8.341c-2.629-0.267-4.952-1.57-6.542-3.67c-1.166-1.539-3.359-1.844-4.903-0.677
	c-1.541,1.167-1.844,3.362-0.677,4.903c2.736,3.613,6.896,5.948,11.414,6.408c0.563,0.057,1.121,0.085,1.676,0.085
	c8.29-0.001,15.42-6.279,16.275-14.681c0.671-6.562-3.801-16.13-7.394-23.818c-0.834-1.785-1.622-3.472-2.218-4.859
	c-1.159-3.048-2.975-6.378-4.899-9.902c-2.996-5.487-6.392-11.706-6.091-15.2c0.442-5.131,4.988-8.952,10.149-8.503
	c2.631,0.226,4.974,1.492,6.597,3.567c1.192,1.524,3.394,1.791,4.913,0.601C66.917,17.513,67.187,15.312,65.995,13.79z"/>
</svg>
