<?xml version="1.0" encoding="utf-8"?>
<!-- Generator: Adobe Illustrator 16.0.0, SVG Export Plug-In . SVG Version: 6.00 Build 0)  -->
<!DOCTYPE svg PUBLIC "-//W3C//DTD SVG 1.1//EN" "http://www.w3.org/Graphics/SVG/1.1/DTD/svg11.dtd">
<svg version="1.1" xmlns="http://www.w3.org/2000/svg" xmlns:xlink="http://www.w3.org/1999/xlink" x="0px" y="0px" width="100px"
	 height="100px" viewBox="0 0 100 100" enable-background="new 0 0 100 100" xml:space="preserve">
<g id="Layer_3" display="none">
</g>
<g id="Your_Icon">
</g>
<g id="Layer_4">
	<path d="M98.087,17.386C98.034,17.16,97.831,17,97.599,17c0,0,0,0-0.001,0c-0.05,0-0.1,0.008-0.148,0.022
		c-2.029,0.635-3.803,0.984-5.395,1.258c2.146-2.029,4.015-5.528,4.287-6.049c0.097-0.186,0.068-0.412-0.073-0.567
		c-0.141-0.155-0.364-0.207-0.557-0.128c-1.587,0.638-6.295,2.457-8.562,3.331C84.318,9.121,79.879,6.66,72.405,6.66
		c-9.404,0-17.494,8.316-18.165,18.778C53.612,25.658,51.734,26,48.748,26c0,0-0.001,0-0.001,0c-6.403,0-19.824-2.189-37.776-17.8
		c-0.128-0.11-0.302-0.081-0.464-0.034c-0.162,0.047-0.29,0.206-0.341,0.367c-0.159,0.503-3.843,12.439,0.764,20.354
		c1.572,2.7,3.932,4.612,7.053,5.688c-2.725,0.261-7.58,0.568-10.898,0.744c-0.141,0.007-0.272,0.077-0.361,0.187
		c-0.089,0.109-0.128,0.253-0.106,0.393c0.023,0.148,0.578,3.671,2.342,7.253c2.342,4.756,5.719,7.307,9.774,7.387
		c-1.801,0.904-5.15,2.382-8.283,3.681c-0.253,0.104-0.375,0.394-0.273,0.647c0.323,0.809,8.04,19.812,19.357,19.812
		c0.472,0,0.946-0.034,1.419-0.102c-10.792,8.959-28.37,9.069-28.555,9.069c-0.206,0-0.391,0.126-0.466,0.317
		c-0.075,0.192-0.025,0.24,0.126,0.38C9.955,91.638,21.585,93,29.951,93c0.001,0,0,0,0.002,0c13.517,0,28.327-4.009,36.851-10.227
		c28.901-21.065,25.621-53.822,25.137-57.587C94.802,23.479,98.231,17.992,98.087,17.386z"/>
	<path fill="none" stroke="#000000" stroke-width="10" stroke-linecap="square" stroke-miterlimit="10" d="M43.097,53.2"/>
</g>
</svg>
