<?xml version="1.0" encoding="utf-8"?>
<!-- Generator: Adobe Illustrator 16.0.0, SVG Export Plug-In . SVG Version: 6.00 Build 0)  -->
<!DOCTYPE svg PUBLIC "-//W3C//DTD SVG 1.1//EN" "http://www.w3.org/Graphics/SVG/1.1/DTD/svg11.dtd">
<svg version="1.1" id="Your_Icon" xmlns="http://www.w3.org/2000/svg" xmlns:xlink="http://www.w3.org/1999/xlink" x="0px" y="0px"
	 width="100px" height="100px" viewBox="0 0 100 100" enable-background="new 0 0 100 100" xml:space="preserve">
<path d="M89.839,49.078L70.84,32.905c-0.447-0.379-1.256-0.464-1.785-0.22C68.523,32.931,68,33.462,68,34.047V47H10.201
	c-1.933,0-3.5,1.567-3.5,3.5s1.567,3.5,3.5,3.5H68v11.953c0,0.581,0.52,1.11,1.045,1.357c0.204,0.096,0.514,0.143,0.73,0.143
	c0.343,0,0.729-0.118,1.003-0.345l19.022-15.732c0.34-0.283,0.551-0.702,0.554-1.145S90.176,49.365,89.839,49.078z"/>
</svg>
