<?xml version="1.0" encoding="utf-8"?>
<!-- Generator: Adobe Illustrator 16.0.0, SVG Export Plug-In . SVG Version: 6.00 Build 0)  -->
<!DOCTYPE svg PUBLIC "-//W3C//DTD SVG 1.1//EN" "http://www.w3.org/Graphics/SVG/1.1/DTD/svg11.dtd">
<svg version="1.1" id="Your_Icon" xmlns="http://www.w3.org/2000/svg" xmlns:xlink="http://www.w3.org/1999/xlink" x="0px" y="0px"
	 width="100px" height="100px" viewBox="0 0 100 100" enable-background="new 0 0 100 100" xml:space="preserve">
<g>
	<path fill="none" d="M67.999,31.5c4.136,0,7.501-3.364,7.501-7.5s-3.365-7.5-7.501-7.5c-4.135,0-7.499,3.364-7.499,7.5
		S63.864,31.5,67.999,31.5z"/>
	<path fill="none" d="M67.999,71.5c-4.135,0-7.499,3.364-7.499,7.5s3.364,7.5,7.499,7.5c4.136,0,7.501-3.364,7.501-7.5
		S72.135,71.5,67.999,71.5z"/>
	<path d="M67.999,64.5c-4.251,0-8.067,1.85-10.722,4.773L41.338,57.682C42.084,55.936,42.5,54.016,42.5,52
		c0-2.599-0.696-5.034-1.898-7.146l16.138-11.736c2.66,3.279,6.718,5.383,11.26,5.383C75.995,38.5,82.5,31.995,82.5,24
		S75.995,9.5,67.999,9.5C60.004,9.5,53.5,16.005,53.5,24c0,2.016,0.416,3.936,1.162,5.682L38.167,41.678
		c-2.619-2.58-6.209-4.178-10.168-4.178C20.004,37.5,13.5,44.005,13.5,52s6.504,14.5,14.499,14.5c4.543,0,8.601-2.104,11.261-5.383
		l15.76,11.461C54.056,74.517,53.5,76.692,53.5,79c0,7.995,6.504,14.5,14.499,14.5C75.995,93.5,82.5,86.995,82.5,79
		S75.995,64.5,67.999,64.5z M67.999,16.5c4.136,0,7.501,3.364,7.501,7.5s-3.365,7.5-7.501,7.5c-4.135,0-7.499-3.364-7.499-7.5
		S63.864,16.5,67.999,16.5z M27.999,59.5c-4.135,0-7.499-3.364-7.499-7.5s3.364-7.5,7.499-7.5c4.136,0,7.501,3.364,7.501,7.5
		S32.135,59.5,27.999,59.5z M67.999,86.5c-4.135,0-7.499-3.364-7.499-7.5s3.364-7.5,7.499-7.5c4.136,0,7.501,3.364,7.501,7.5
		S72.135,86.5,67.999,86.5z"/>
</g>
</svg>
