<?xml version="1.0" encoding="utf-8"?>
<!-- Generator: Adobe Illustrator 16.0.0, SVG Export Plug-In . SVG Version: 6.00 Build 0)  -->
<!DOCTYPE svg PUBLIC "-//W3C//DTD SVG 1.1//EN" "http://www.w3.org/Graphics/SVG/1.1/DTD/svg11.dtd">
<svg version="1.1" xmlns="http://www.w3.org/2000/svg" xmlns:xlink="http://www.w3.org/1999/xlink" x="0px" y="0px" width="100px"
	 height="100px" viewBox="0 0 100 100" enable-background="new 0 0 100 100" xml:space="preserve">
<g id="Layer_3" display="none">
</g>
<g id="Your_Icon">
</g>
<g id="Layer_4">
	<g>
		<path fill="none" d="M28,83.549L46.663,66.82c0.95-0.852,2.144-1.277,3.337-1.277c1.202,0,2.404,0.432,3.357,1.294L72,83.725V10
			H28V83.549z"/>
		<path d="M77,0H23c-2.761,0-5,2.238-5,5v89.746c0,1.973,1.16,3.761,2.961,4.565c1.8,0.804,3.907,0.475,5.376-0.843l23.645-21.195
			l23.661,21.433c0.938,0.85,2.14,1.294,3.358,1.294c0.685,0,1.375-0.141,2.026-0.43C80.834,98.77,82,96.978,82,95V5
			C82,2.238,79.761,0,77,0z M72,83.725L53.357,66.837c-0.953-0.862-2.155-1.294-3.357-1.294c-1.194,0-2.388,0.426-3.337,1.277
			L28,83.549V10h44V83.725z"/>
	</g>
</g>
</svg>
