<?xml version="1.0" encoding="utf-8"?>
<!-- Generator: Adobe Illustrator 16.0.0, SVG Export Plug-In . SVG Version: 6.00 Build 0)  -->
<!DOCTYPE svg PUBLIC "-//W3C//DTD SVG 1.1//EN" "http://www.w3.org/Graphics/SVG/1.1/DTD/svg11.dtd">
<svg version="1.1" id="Your_Icon" xmlns="http://www.w3.org/2000/svg" xmlns:xlink="http://www.w3.org/1999/xlink" x="0px" y="0px"
	 width="100px" height="100px" viewBox="0 0 100 100" enable-background="new 0 0 100 100" xml:space="preserve">
<g>
	<path d="M50,36.683c-7.444,0-13.5,6.056-13.5,13.499c0,7.444,6.056,13.501,13.5,13.501s13.5-6.057,13.5-13.501
		C63.5,42.738,57.444,36.683,50,36.683z M49.999,58.683c-4.687,0-8.499-3.813-8.499-8.5s3.812-8.5,8.499-8.5
		c4.688,0,8.501,3.813,8.501,8.5S54.687,58.683,49.999,58.683z"/>
	<path d="M76.629,53.25c0.107-0.973,0.166-1.96,0.166-2.961c0-1.011-0.061-2.008-0.169-2.99c0.956-0.527,8.027-4.5,8.778-7.027
		c0.387-1.299-2.093-5.918-2.938-7.522c-0.946-1.796-3.33-6.157-4.564-6.472c-2.763-0.701-9.609,2.811-10.729,3.399
		C67.071,29.73,67,29.769,67,29.769s0.07-0.038,0.172-0.092C65.038,27.887,63,26.424,60,25.36c0-0.052-0.021-8.967-2.123-11.244
		c-0.864-0.937-5.834-0.954-7.863-0.931c-1.814,0.021-7.059,0.043-8.016,1C40.124,16.06,40,24.255,40,25.277
		c-3,1.058-5.131,2.524-7.302,4.332c-1.451-0.756-7.934-4.01-10.601-3.332c-1.234,0.314-3.618,4.676-4.564,6.472
		c-0.845,1.604-3.324,6.224-2.938,7.522c0.714,2.401,7.129,6.105,8.587,6.921C23.066,48.209,23,49.241,23,50.289
		c0,1.038,0.064,2.06,0.18,3.067c-1.468,0.821-7.871,4.521-8.584,6.919c-0.387,1.299,2.093,5.918,2.938,7.521
		c0.946,1.797,3.33,6.158,4.564,6.473c2.652,0.672,9.078-2.543,10.579-3.322c2.178,1.816,4.647,3.291,7.327,4.352
		c0.021,1.596,0.209,9.096,1.994,10.881c0.957,0.957,6.2,0.979,8.014,1c2.029,0.023,7,0.006,7.864-0.93
		c1.923-2.085,2.104-9.708,2.122-11.032c2.632-1.068,5.057-2.538,7.197-4.338c1.18,0.62,7.96,4.086,10.707,3.39
		c1.234-0.314,3.618-4.676,4.564-6.473c0.845-1.604,3.324-6.223,2.938-7.521C84.654,57.751,77.597,53.783,76.629,53.25z M50,66.683
		c-9.098,0-16.5-7.402-16.5-16.501c0-9.098,7.402-16.499,16.5-16.499s16.5,7.401,16.5,16.499C66.5,59.28,59.098,66.683,50,66.683z"
		/>
</g>
</svg>
