<?xml version="1.0" encoding="utf-8"?>
<!-- Generator: Adobe Illustrator 16.0.0, SVG Export Plug-In . SVG Version: 6.00 Build 0)  -->
<!DOCTYPE svg PUBLIC "-//W3C//DTD SVG 1.1//EN" "http://www.w3.org/Graphics/SVG/1.1/DTD/svg11.dtd">
<svg version="1.1" xmlns="http://www.w3.org/2000/svg" xmlns:xlink="http://www.w3.org/1999/xlink" x="0px" y="0px" width="100px"
	 height="100px" viewBox="0 0 100 100" enable-background="new 0 0 100 100" xml:space="preserve">
<g id="Layer_3" display="none">
	<circle display="inline" fill="none" stroke="#000000" stroke-width="0.25" stroke-miterlimit="10" cx="50" cy="49.5" r="17.5"/>
	<polyline display="inline" opacity="0.15" points="95,5 5,5 5,95 95,95 	"/>
	<circle display="inline" fill="none" stroke="#000000" stroke-width="0.25" stroke-miterlimit="10" cx="50" cy="50" r="26"/>
	<circle display="inline" fill="none" stroke="#000000" stroke-width="0.25" stroke-miterlimit="10" cx="50" cy="50" r="34"/>
	<circle display="inline" fill="none" stroke="#000000" stroke-width="0.25" stroke-miterlimit="10" cx="50" cy="49.5" r="9"/>
	<path display="inline" fill="none" stroke="#000000" stroke-width="0.25" stroke-miterlimit="10" d="M0,50C0,22.386,22.389,0,50,0
		c27.612,0,50,22.386,50,50"/>
	<path display="inline" fill="none" stroke="#000000" stroke-width="0.25" stroke-miterlimit="10" d="M100,50
		c0,27.614-22.388,50-50,50C22.389,100,0,77.614,0,50"/>
</g>
<g id="Your_Icon">
</g>
<g id="Layer_4">
	<path d="M64,95H36V80.985c-2.049-0.926-3.996-2.053-5.827-3.372l-12.145,7.011l-14-24.249l12.142-7.01
		C16.057,52.24,16,51.115,16,50s0.057-2.24,0.17-3.366L4.028,39.625l14-24.249l12.143,7.01c1.831-1.318,3.779-2.445,5.829-3.372V5
		h28v14.014c2.05,0.926,3.998,2.054,5.829,3.372l12.143-7.01l14,24.249l-12.142,7.01C83.943,47.76,84,48.885,84,50
		c0,1.116-0.057,2.241-0.17,3.366l12.142,7.01l-14,24.249l-12.145-7.011c-1.83,1.318-3.778,2.445-5.827,3.372V95z M44,87h12V75.458
		l2.666-0.943c3.011-1.065,5.776-2.665,8.22-4.756l2.149-1.84l10.009,5.778l6-10.393L75.041,57.53l0.517-2.781
		C75.852,53.168,76,51.57,76,50c0-1.568-0.148-3.167-0.441-4.753l-0.513-2.778l9.998-5.772l-6-10.393l-10.006,5.777l-2.15-1.84
		c-2.444-2.091-5.21-3.691-8.221-4.755L56,24.542V13H44v11.542l-2.667,0.943c-3.012,1.064-5.777,2.665-8.221,4.755l-2.149,1.84
		l-10.007-5.776l-6,10.393l9.998,5.772l-0.513,2.778C24.148,46.833,24,48.432,24,50s0.148,3.167,0.441,4.754l0.513,2.778
		l-9.998,5.772l6,10.393l10.009-5.777l2.149,1.84c2.444,2.091,5.209,3.691,8.219,4.755L44,75.457V87z"/>
	<path d="M49.999,69c-5.074,0-9.846-1.976-13.436-5.563c-7.406-7.411-7.405-19.464,0.003-26.871C40.153,32.977,44.925,31,49.999,31
		s9.845,1.977,13.435,5.565C67.023,40.154,69,44.925,69,50s-1.977,9.846-5.566,13.436C59.844,67.023,55.072,69,49.999,69z
		 M49.999,39c-2.938,0-5.699,1.144-7.775,3.222c-4.29,4.289-4.291,11.267-0.003,15.557c2.077,2.076,4.84,3.22,7.778,3.22
		c2.938,0,5.7-1.145,7.778-3.222C59.855,55.7,61,52.938,61,50s-1.145-5.699-3.223-7.777C55.699,40.145,52.937,39,49.999,39z"/>
</g>
</svg>
