<?xml version="1.0" encoding="utf-8"?>
<!-- Generator: Adobe Illustrator 16.0.0, SVG Export Plug-In . SVG Version: 6.00 Build 0)  -->
<!DOCTYPE svg PUBLIC "-//W3C//DTD SVG 1.1//EN" "http://www.w3.org/Graphics/SVG/1.1/DTD/svg11.dtd">
<svg version="1.1" xmlns="http://www.w3.org/2000/svg" xmlns:xlink="http://www.w3.org/1999/xlink" x="0px" y="0px" width="100px"
	 height="100px" viewBox="0 0 100 100" enable-background="new 0 0 100 100" xml:space="preserve">
<g id="Layer_3" display="none">
</g>
<g id="Your_Icon">
</g>
<g id="Layer_4">
	<path d="M98.602,56.396L53.296,1.807C52.346,0.662,50.935,0,49.448,0c-0.01,0-0.02,0-0.03,0c-1.498,0.009-2.913,0.689-3.855,1.854
		L1.36,56.443c-1.213,1.498-1.457,3.765-0.627,5.504C1.563,63.688,3.319,65,5.246,65h11.256l0.169,30.211
		c0.016,2.749,2.248,4.868,4.998,4.869L77.539,100c0,0,0.001,0,0.002,0c1.326,0,2.827-0.526,3.764-1.464
		C82.244,97.599,83,96.326,83,95V65h11.754c1.938,0,3.702-1.325,4.526-3.08C100.104,60.166,99.839,57.888,98.602,56.396z"/>
</g>
</svg>
