<?xml version="1.0" encoding="utf-8"?>
<!-- Generator: Adobe Illustrator 16.0.0, SVG Export Plug-In . SVG Version: 6.00 Build 0)  -->
<!DOCTYPE svg PUBLIC "-//W3C//DTD SVG 1.1//EN" "http://www.w3.org/Graphics/SVG/1.1/DTD/svg11.dtd">
<svg version="1.1" id="Your_Icon" xmlns="http://www.w3.org/2000/svg" xmlns:xlink="http://www.w3.org/1999/xlink" x="0px" y="0px"
	 width="100px" height="100px" viewBox="0 0 100 100" enable-background="new 0 0 100 100" xml:space="preserve">
<g>
	<path fill="#FFFFFF" d="M49.901,12.5c-10.194,0-21.166,6.717-21.166,21.463c0,9.487,14.147,32.401,22.391,44.602
		C58.321,66.402,70.5,43.786,70.5,34.061C70.5,19.167,60.154,12.5,49.901,12.5z M62,38H52v10h-4V38H37v-4h11V23h4v11h10V38z"/>
	<path d="M49.901,5.5c-13.997,0-28.166,9.777-28.166,28.463c0,14.976,23.993,49.209,26.729,53.063
		c0.658,0.926,1.723,1.474,2.854,1.474c0.034,0,0.069,0,0.104-0.001c1.171-0.035,2.246-0.652,2.866-1.646
		C56.663,83.046,77.5,49.22,77.5,34.061C77.5,14.438,63.193,5.5,49.901,5.5z M28.735,33.963c0-14.747,10.972-21.463,21.166-21.463
		c10.253,0,20.599,6.667,20.599,21.561c0,9.725-12.179,32.341-19.374,44.505C42.883,66.364,28.735,43.451,28.735,33.963z"/>
	<polygon points="52,23 48,23 48,34 37,34 37,38 48,38 48,48 52,48 52,38 62,38 62,34 52,34 	"/>
</g>
</svg>
