<?xml version="1.0" encoding="utf-8"?>
<!-- Generator: Adobe Illustrator 16.0.0, SVG Export Plug-In . SVG Version: 6.00 Build 0)  -->
<!DOCTYPE svg PUBLIC "-//W3C//DTD SVG 1.1//EN" "http://www.w3.org/Graphics/SVG/1.1/DTD/svg11.dtd">
<svg version="1.1" xmlns="http://www.w3.org/2000/svg" xmlns:xlink="http://www.w3.org/1999/xlink" x="0px" y="0px" width="100px"
	 height="100px" viewBox="0 0 100 100" enable-background="new 0 0 100 100" xml:space="preserve">
<g id="Layer_3" display="none">
	<circle display="inline" fill="none" stroke="#000000" stroke-width="0.25" stroke-miterlimit="10" cx="50" cy="50" r="15.134"/>
	<rect x="6" y="6" display="inline" opacity="0.26" width="88" height="88"/>
	<circle display="inline" fill="none" stroke="#000000" stroke-width="0.25" stroke-miterlimit="10" cx="50" cy="50" r="24"/>
	<circle display="inline" fill="none" stroke="#000000" stroke-width="0.25" stroke-miterlimit="10" cx="50" cy="50" r="30"/>
	<circle display="inline" fill="none" stroke="#000000" stroke-width="0.25" stroke-miterlimit="10" cx="50" cy="50" r="9.134"/>
	<g display="inline">
		<path d="M50,0.25c27.433,0,49.75,22.317,49.75,49.75S77.433,99.75,50,99.75S0.25,77.433,0.25,50S22.567,0.25,50,0.25 M50,0
			C22.389,0,0,22.386,0,50s22.389,50,50,50c27.612,0,50-22.386,50-50S77.612,0,50,0L50,0z"/>
	</g>
</g>
<g id="Your_Icon">
</g>
<g id="Layer_4">
	<path d="M50.086,84c-8.378,0-18.919-5.369-31.33-15.957C9.845,60.44,3.265,52.949,2.989,52.634L0.686,50l2.304-2.634
		C5.798,44.156,30.979,16,50.086,16c8.381,0,18.896,5.371,31.251,15.963c8.869,7.604,15.408,15.098,15.683,15.413L99.3,50
		l-2.28,2.624C94.228,55.835,69.198,84,50.086,84z M11.404,50c8.56,9.132,26.822,26,38.682,26c11.856,0,30.024-16.874,38.525-26
		c-8.501-9.126-26.669-26-38.525-26C38.227,24,19.964,40.868,11.404,50z"/>
	<path d="M50.5,69c-10.477,0-19-8.522-19-18.999C31.5,39.523,40.023,31,50.5,31s19,8.523,19,19.001C69.5,60.478,60.977,69,50.5,69z
		 M50.5,39c-6.065,0-11,4.935-11,11.001C39.5,56.065,44.435,61,50.5,61s11-4.935,11-10.999C61.5,43.935,56.565,39,50.5,39z"/>
</g>
</svg>
