<?xml version="1.0" encoding="utf-8"?>
<!-- Generator: Adobe Illustrator 16.0.0, SVG Export Plug-In . SVG Version: 6.00 Build 0)  -->
<!DOCTYPE svg PUBLIC "-//W3C//DTD SVG 1.1//EN" "http://www.w3.org/Graphics/SVG/1.1/DTD/svg11.dtd">
<svg version="1.1" xmlns="http://www.w3.org/2000/svg" xmlns:xlink="http://www.w3.org/1999/xlink" x="0px" y="0px" width="100px"
	 height="100px" viewBox="0 0 100 100" enable-background="new 0 0 100 100" xml:space="preserve">
<g id="Layer_3" display="none">
	<circle display="inline" fill="none" stroke="#000000" stroke-width="0.25" stroke-miterlimit="10" cx="50" cy="50" r="15.134"/>
	<rect x="6" y="6" display="inline" opacity="0.26" width="88" height="88"/>
	<circle display="inline" fill="none" stroke="#000000" stroke-width="0.25" stroke-miterlimit="10" cx="50" cy="50" r="24"/>
	<circle display="inline" fill="none" stroke="#000000" stroke-width="0.25" stroke-miterlimit="10" cx="50" cy="50" r="30"/>
	<circle display="inline" fill="none" stroke="#000000" stroke-width="0.25" stroke-miterlimit="10" cx="50" cy="50" r="9.134"/>
	<g display="inline">
		<path d="M50,0.25c27.433,0,49.75,22.317,49.75,49.75S77.433,99.75,50,99.75S0.25,77.433,0.25,50S22.567,0.25,50,0.25 M50,0
			C22.389,0,0,22.386,0,50s22.389,50,50,50c27.612,0,50-22.386,50-50S77.612,0,50,0L50,0z"/>
	</g>
</g>
<g id="Your_Icon">
</g>
<g id="Layer_4">
	<path d="M41.914,98.941c-10.271,0-14-8.372-14-14V51.707c-0.186,0.008-0.375,0.012-0.568,0.012c-2.515,0-5.277-0.738-8.211-2.194
		c-3.574-1.775-5.049-4.374-5.657-6.24c-1.457-4.474,0.645-8.721,0.889-9.19l0.331-0.529L32.661,9.247l0.212-0.211
		C37.861,4.048,47.164,3,54.091,3c1.35,0,2.36,0.045,2.823,0.07C57.377,3.045,58.387,3,59.737,3c6.927,0,16.229,1.048,21.219,6.035
		c3.224,3.224,5.189,8.887,5.844,16.831c0.396,4.822,0.188,9.005,0.121,10.098c0.122,2.463,0.433,15.423-5.965,21.82
		c-4.033,4.035-12.527,6.08-25.246,6.08c-0.273,0-0.539-0.001-0.796-0.003v21.08C54.914,90.569,51.452,98.941,41.914,98.941z
		 M36.281,28.169l-0.367,17.772v39c0.105,5.412,4.231,6,6,6c4.553,0,4.979-4.615,5-6.029V55.487l4.249,0.264
		c0.019,0.001,1.862,0.113,4.547,0.113c11.688,0,17.783-1.93,19.589-3.736c3.134-3.134,3.885-11.445,3.622-15.948l-0.016-0.264
		l0.02-0.27c0.486-6.707-0.316-17.645-3.625-20.953C73.021,12.415,67.059,11,59.737,11c-1.54,0-2.539,0.067-2.549,0.067
		l-0.274,0.019l-0.278-0.019c-0.006,0-1.005-0.067-2.545-0.067c-7.131,0-12.973,1.343-15.376,3.517L21.356,38.014
		c-0.892,1.985-0.448,3.459,1.337,4.345c2.264,1.125,3.779,1.36,4.652,1.36c0.786,0,1.228-0.188,1.423-0.303L36.281,28.169z"/>
</g>
</svg>
