<?xml version="1.0" encoding="utf-8"?>
<!-- Generator: Adobe Illustrator 16.0.0, SVG Export Plug-In . SVG Version: 6.00 Build 0)  -->
<!DOCTYPE svg PUBLIC "-//W3C//DTD SVG 1.1//EN" "http://www.w3.org/Graphics/SVG/1.1/DTD/svg11.dtd">
<svg version="1.1" id="Your_Icon" xmlns="http://www.w3.org/2000/svg" xmlns:xlink="http://www.w3.org/1999/xlink" x="0px" y="0px"
	 width="100px" height="100px" viewBox="0 0 100 100" enable-background="new 0 0 100 100" xml:space="preserve">
<g>
	<path d="M81.697,14.067c-6.715-6.647-17.207-7.554-25.004-2.12c-0.745,0.518-2.133,1.481-6.825,6.175l-7.491,8.466
		c-1.279,1.448-1.144,3.66,0.306,4.94c1.445,1.277,3.658,1.145,4.94-0.306l7.271-8.227c4.188-4.185,5.313-4.966,5.859-5.346
		c4.969-3.464,11.706-2.878,16.02,1.392c4.28,4.237,4.957,10.897,1.627,15.896c-1.392,1.599-14.418,14.855-15.928,16.378
		C60.109,53.702,56.958,55,53.6,55c-0.022,0-0.044,0-0.067,0c-3.333,0-6.471-1.247-8.84-3.594c-1.373-1.359-3.589-1.329-4.95,0.046
		c-1.359,1.374-1.349,3.558,0.024,4.918c3.69,3.654,8.575,5.63,13.765,5.63c0.035,0,0.07,0,0.104,0
		c5.229,0,10.133-2.045,13.809-5.758c0.156-0.157,15.822-16.031,16.664-17.271C89.427,31.175,88.413,20.714,81.697,14.067z"/>
	<path d="M46.697,70.17l-7.235,7.583c-4.491,4.47-5.929,5.493-5.939,5.501c-4.97,3.464-11.709,2.881-16.023-1.391
		c-4.281-4.239-4.957-10.9-1.627-15.896c1.393-1.599,14.5-14.892,15.929-16.331C34.163,47.25,37.313,46,40.672,46
		c0.021,0,0.044,0,0.065,0c3.334,0,6.472,1.199,8.844,3.547c1.372,1.361,3.589,1.303,4.949-0.071s1.349-3.521-0.025-4.881
		C50.813,40.94,45.928,39,40.738,39c-0.034,0-0.068,0-0.103,0c-5.228,0-10.133,1.997-13.806,5.709
		c-0.155,0.156-15.815,16-16.665,17.248C4.846,69.75,5.858,80.211,12.574,86.86c3.784,3.746,8.767,5.658,13.781,5.658
		c3.887,0,7.793-1.161,11.174-3.519c0.565-0.396,2.368-1.802,6.934-6.348l7.299-7.649c1.334-1.397,1.282-3.613-0.116-4.948
		C50.247,68.721,48.031,68.772,46.697,70.17z"/>
</g>
</svg>
