<?xml version="1.0" encoding="utf-8"?>
<!-- Generator: Adobe Illustrator 16.0.0, SVG Export Plug-In . SVG Version: 6.00 Build 0)  -->
<!DOCTYPE svg PUBLIC "-//W3C//DTD SVG 1.1//EN" "http://www.w3.org/Graphics/SVG/1.1/DTD/svg11.dtd">
<svg version="1.1" id="Your_Icon" xmlns="http://www.w3.org/2000/svg" xmlns:xlink="http://www.w3.org/1999/xlink" x="0px" y="0px"
	 width="100px" height="100px" viewBox="0 0 100 100" enable-background="new 0 0 100 100" xml:space="preserve">
<g>
	<path fill="none" d="M37.765,40c-0.271,0-0.529-0.038-0.765-0.136c-0.725-0.3-1.235-0.997-1.235-1.83
		c0,0.833,0.511,1.581,1.235,1.881V41h11v-1H37.765z"/>
	<path fill="none" d="M50.158,51.994c0.015,0,0.025,0.006,0.041,0.006C51.303,52,52,51.104,52,50
		C52,51.084,51.231,51.962,50.158,51.994z"/>
	<rect x="52" y="40" fill="none" width="10" height="1"/>
	<path fill="none" d="M48,51h0.477C48.305,50.705,48,50.366,48,50V51z"/>
	<path d="M50.166,8C36.169,8,22,17.777,22,36.463c0,14.976,23.993,49.209,26.729,53.063C49.387,90.453,50.451,91,51.583,91
		c0.034,0,0.069,0,0.104-0.001c1.171-0.035,2.246-0.652,2.866-1.646c2.375-3.807,23.212-37.633,23.212-52.793
		C77.765,16.938,63.458,8,50.166,8z M51.391,81.065C43.147,68.864,29,45.951,29,36.463C29,21.717,39.972,15,50.166,15
		c10.253,0,20.599,6.667,20.599,21.561C70.765,46.286,58.586,68.902,51.391,81.065z"/>
	<path d="M62.765,36H52V25c0-1.104-0.896-2-2-2s-2,0.896-2,2v1v10H37.765c-1.104,0-2,0.93-2,2.034c0,0.833,0.511,1.53,1.235,1.83
		C37.235,39.962,37.494,40,37.765,40H48v1v9c0,0.366,0.305,0.705,0.477,1c0.346,0.595,0.885,1,1.623,1
		c0.021,0,0.038-0.005,0.059-0.006C51.231,51.962,52,51.084,52,50v-9v-1h10h0.765c1.104,0,2-0.896,2-2S63.869,36,62.765,36z"/>
</g>
</svg>
