<?xml version="1.0" encoding="utf-8"?>
<!-- Generator: Adobe Illustrator 16.0.0, SVG Export Plug-In . SVG Version: 6.00 Build 0)  -->
<!DOCTYPE svg PUBLIC "-//W3C//DTD SVG 1.1//EN" "http://www.w3.org/Graphics/SVG/1.1/DTD/svg11.dtd">
<svg version="1.1" xmlns="http://www.w3.org/2000/svg" xmlns:xlink="http://www.w3.org/1999/xlink" x="0px" y="0px" width="100px"
	 height="100px" viewBox="0 0 100 100" enable-background="new 0 0 100 100" xml:space="preserve">
<g id="Layer_3" display="none">
</g>
<g id="Your_Icon">
</g>
<g id="Layer_4">
	<g>
		<path fill="none" d="M24.45,61.774"/>
		<path d="M99.412,33.893C98.632,32.035,96.815,31,94.801,31H66.642L54.668,3.186C53.877,1.361,52.081,0.005,50.091,0
			c-0.004,0-0.007,0-0.011,0c-1.984,0-3.782,1.354-4.579,3.172L33.374,31H5.199c-2.017,0-3.836,1.031-4.614,2.893
			s-0.36,3.918,1.058,5.353l22.383,22.596l-9.281,31.781c-0.585,2.004,0.137,4.149,1.81,5.397c1.673,1.247,3.945,1.32,5.7,0.188
			l27.867-17.975L78.925,99.24c0.814,0.509,1.733,0.761,2.65,0.761c1.086,0,2.169-0.354,3.068-1.053
			c1.656-1.286,2.333-3.47,1.696-5.469L76.206,61.726l22.162-22.482C99.779,37.807,100.19,35.75,99.412,33.893z"/>
	</g>
</g>
</svg>
