<?xml version="1.0" encoding="utf-8"?>
<!-- Generator: Adobe Illustrator 16.0.0, SVG Export Plug-In . SVG Version: 6.00 Build 0)  -->
<!DOCTYPE svg PUBLIC "-//W3C//DTD SVG 1.1//EN" "http://www.w3.org/Graphics/SVG/1.1/DTD/svg11.dtd">
<svg version="1.1" id="Your_Icon" xmlns="http://www.w3.org/2000/svg" xmlns:xlink="http://www.w3.org/1999/xlink" x="0px" y="0px"
	 width="100px" height="100px" viewBox="0 0 100 100" enable-background="new 0 0 100 100" xml:space="preserve">
<g>
	<path fill="none" d="M56.71,39.693l-6.402-17.652l-8.12,17.904c-0.51,1.124-1.574,1.896-2.801,2.033l-17.524,1.947l15.094,10.172
		c1.262,0.85,1.829,2.417,1.405,3.878l-5.955,20.511l15.426-12.172c0.636-0.501,1.401-0.752,2.168-0.752s1.532,0.251,2.168,0.752
		L68.017,78.82l-5.405-20.945c-0.364-1.41,0.183-2.897,1.373-3.736L78.389,43.99l-18.762-2.01
		C58.298,41.838,57.166,40.95,56.71,39.693z"/>
	<path d="M91.388,40.622c-0.365-1.41-1.566-2.447-3.015-2.603l-25.828-2.767l-8.587-23.676c-0.485-1.338-1.731-2.249-3.154-2.304
		c-1.429-0.062-2.736,0.755-3.323,2.052L36.635,35.241l-25.021,2.78c-1.459,0.162-2.661,1.217-3.012,2.643s0.226,2.918,1.442,3.738
		l20.883,14.073l-8.288,28.549c-0.424,1.461,0.145,3.029,1.406,3.879c1.261,0.847,2.927,0.786,4.123-0.155L50,73.521l21.832,17.228
		C72.465,91.247,73.231,91.5,74,91.5c0.663,0,1.328-0.188,1.911-0.568c1.259-0.819,1.854-2.352,1.478-3.807l-7.396-28.657
		l20.022-14.106C91.207,43.522,91.754,42.032,91.388,40.622z M63.984,54.139c-1.19,0.839-1.737,2.326-1.373,3.736l5.405,20.945
		L52.168,66.314c-0.636-0.501-1.401-0.752-2.168-0.752s-1.532,0.251-2.168,0.752L32.406,78.486l5.955-20.511
		c0.424-1.461-0.144-3.028-1.405-3.878L21.862,43.926l17.524-1.947c1.227-0.137,2.291-0.909,2.801-2.033l8.12-17.904l6.402,17.652
		c0.456,1.257,1.588,2.145,2.917,2.287l18.762,2.01L63.984,54.139z"/>
</g>
</svg>
