<?xml version="1.0" encoding="utf-8"?>
<!-- Generator: Adobe Illustrator 16.0.0, SVG Export Plug-In . SVG Version: 6.00 Build 0)  -->
<!DOCTYPE svg PUBLIC "-//W3C//DTD SVG 1.1//EN" "http://www.w3.org/Graphics/SVG/1.1/DTD/svg11.dtd">
<svg version="1.1" xmlns="http://www.w3.org/2000/svg" xmlns:xlink="http://www.w3.org/1999/xlink" x="0px" y="0px" width="100px"
	 height="100px" viewBox="0 0 100 100" enable-background="new 0 0 100 100" xml:space="preserve">
<g id="Layer_3" display="none">
	<polyline display="inline" opacity="0.15" points="25,-64.5 -65,-64.5 -65,25.5 25,25.5 	"/>
</g>
<g id="Your_Icon">
</g>
<g id="Layer_4">
	<g>
		<path fill="none" d="M50.121,10.5c-12.747,0-23.113,11.196-23.113,24.959c0,6.665,1.917,12.46,5.528,16.757
			c3.124,3.719,9.138,14.41,9.812,15.634c0.225,0.409,0.395,1.15,0.506,1.15h12.36c0.188,0,0.473-0.939,0.78-1.423
			c0.787-1.236,7.976-12.095,10.783-15.437c4.013-4.776,6.225-10.689,6.225-16.719C73.002,21.659,62.738,10.5,50.121,10.5z"/>
		<path d="M50.117,0.5C31.856,0.5,17,16.183,17,35.459c0,9.049,2.752,17.067,7.896,23.189C26.622,60.703,30,67.313,33,71.703v14.579
			c0,6.11,5.317,13.127,13.257,13.46C46.298,99.744,46.702,100,47.29,100h2.679c2.736,0,2.699-0.26,2.754-0.262
			C59.611,99.453,65,93.276,65,86.277V71.871c3-3.817,7.42-11.08,9.221-13.224c5.523-6.575,8.673-14.81,8.673-23.188
			C82.894,16.183,68.249,0.5,50.117,0.5z M66.777,52.215c-2.808,3.342-9.996,14.274-10.783,15.511
			c-0.308,0.483-0.592,1.018-0.78,1.571C55.09,69.661,55,70.032,55,70.409V76H43v-5.591c0-0.376-0.056-0.748-0.146-1.112
			c-0.111-0.451-0.281-0.89-0.506-1.299c-0.674-1.224-6.688-12.063-9.812-15.782c-3.611-4.297-5.528-10.092-5.528-16.757
			c0-13.763,10.366-24.959,23.113-24.959c12.617,0,22.881,11.196,22.881,24.959C73.002,41.488,70.79,47.438,66.777,52.215z"/>
	</g>
</g>
</svg>
