<?xml version="1.0" encoding="utf-8"?>
<!-- Generator: Adobe Illustrator 16.0.0, SVG Export Plug-In . SVG Version: 6.00 Build 0)  -->
<!DOCTYPE svg PUBLIC "-//W3C//DTD SVG 1.1//EN" "http://www.w3.org/Graphics/SVG/1.1/DTD/svg11.dtd">
<svg version="1.1" id="Your_Icon" xmlns="http://www.w3.org/2000/svg" xmlns:xlink="http://www.w3.org/1999/xlink" x="0px" y="0px"
	 width="100px" height="100px" viewBox="0 0 100 100" enable-background="new 0 0 100 100" xml:space="preserve">
<g>
	<path d="M78,22.5c0-0.828-0.672-1.5-1.5-1.5h-12c-0.828,0-1.5,0.672-1.5,1.5v68c0,0.828,0.672,1.5,1.5,1.5h12
		c0.828,0,1.5-0.672,1.5-1.5V22.5z"/>
	<path d="M57,48.5c0-0.828-0.672-1.5-1.5-1.5h-12c-0.828,0-1.5,0.672-1.5,1.5v42c0,0.828,0.672,1.5,1.5,1.5h12
		c0.828,0,1.5-0.672,1.5-1.5V48.5z"/>
	<path d="M37,63.5c0-0.828-0.672-1.5-1.5-1.5h-12c-0.828,0-1.5,0.672-1.5,1.5v27c0,0.828,0.672,1.5,1.5,1.5h12
		c0.828,0,1.5-0.672,1.5-1.5V63.5z"/>
</g>
</svg>
