<?xml version="1.0" encoding="utf-8"?>
<!-- Generator: Adobe Illustrator 16.0.0, SVG Export Plug-In . SVG Version: 6.00 Build 0)  -->
<!DOCTYPE svg PUBLIC "-//W3C//DTD SVG 1.1//EN" "http://www.w3.org/Graphics/SVG/1.1/DTD/svg11.dtd">
<svg version="1.1" id="Your_Icon" xmlns="http://www.w3.org/2000/svg" xmlns:xlink="http://www.w3.org/1999/xlink" x="0px" y="0px"
	 width="100px" height="100px" viewBox="0 0 100 100" enable-background="new 0 0 100 100" xml:space="preserve">
<path d="M54.948,50L70.1,34.84c1.366-1.367,1.366-3.583-0.001-4.95c-1.367-1.367-3.583-1.365-4.95,0.001L50,45.049L34.852,29.892
	c-1.365-1.367-3.581-1.368-4.95-0.001c-1.367,1.366-1.367,3.583-0.001,4.95L45.052,50L29.9,65.16
	c-1.366,1.367-1.366,3.583,0.001,4.95c0.684,0.683,1.579,1.024,2.475,1.024c0.896,0,1.792-0.342,2.476-1.026L50,54.951
	l15.148,15.157c0.684,0.684,1.579,1.026,2.476,1.026c0.896,0,1.791-0.341,2.475-1.024c1.367-1.366,1.367-3.583,0.001-4.95L54.948,50
	z"/>
</svg>
