<?xml version="1.0" encoding="utf-8"?>
<!-- Generator: Adobe Illustrator 16.0.0, SVG Export Plug-In . SVG Version: 6.00 Build 0)  -->
<!DOCTYPE svg PUBLIC "-//W3C//DTD SVG 1.1//EN" "http://www.w3.org/Graphics/SVG/1.1/DTD/svg11.dtd">
<svg version="1.1" id="Your_Icon" xmlns="http://www.w3.org/2000/svg" xmlns:xlink="http://www.w3.org/1999/xlink" x="0px" y="0px"
	 width="100px" height="100px" viewBox="0 0 100 100" enable-background="new 0 0 100 100" xml:space="preserve">
<g>
	<path fill="none" d="M42.677,35.416C42.392,35.754,41.972,36,41.529,36c-0.001,0-0.002,0-0.003,0L22,35.863v47.233
		C22,83.91,22.767,85,23.58,85h53c0.813,0,1.42-1.09,1.42-1.903v-66C78,16.283,77.394,16,76.58,16H39.783l3.224,18.369
		C43.083,34.806,42.962,35.078,42.677,35.416z"/>
	<path d="M76.58,9H38V8.635c0,0.008-0.128,0.005-0.088,0.016c0.561,0.153,0.877,0.818,0.977,1.391L39.783,16H76.58
		c0.813,0,1.42,0.283,1.42,1.097v66C78,83.91,77.394,85,76.58,85h-53C22.767,85,22,83.91,22,83.097V35.863l-5.463-0.01
		c-0.585-0.001-1.096-0.391-1.34-0.922C15.066,34.65,15.058,34,15.108,34H15v49.097C15,87.783,18.894,92,23.58,92h53
		c4.687,0,8.42-4.217,8.42-8.903v-66C85,12.41,81.267,9,76.58,9z"/>
	<path d="M15.217,34.98c0.245,0.531,0.775,0.872,1.36,0.873l5.503,0.061L41.526,36c0.001,0,0.002,0,0.003,0
		c0.442,0,0.862-0.246,1.147-0.584s0.406-0.812,0.33-1.248l-3.224-18.559l-1-5.764c-0.1-0.572-0.521-1.039-1.081-1.192
		c-0.04-0.011-0.081-0.009-0.122-0.017c-0.524-0.098-1.065,0.077-1.415,0.486L15.439,33.379c-0.178,0.209-0.285,0.458-0.331,0.718
		C15.058,34.391,15.087,34.698,15.217,34.98z"/>
</g>
</svg>
