<?xml version="1.0" encoding="utf-8"?>
<!-- Generator: Adobe Illustrator 16.0.0, SVG Export Plug-In . SVG Version: 6.00 Build 0)  -->
<!DOCTYPE svg PUBLIC "-//W3C//DTD SVG 1.1//EN" "http://www.w3.org/Graphics/SVG/1.1/DTD/svg11.dtd">
<svg version="1.1" id="Your_Icon" xmlns="http://www.w3.org/2000/svg" xmlns:xlink="http://www.w3.org/1999/xlink" x="0px" y="0px"
	 width="100px" height="100px" viewBox="0 0 100 100" enable-background="new 0 0 100 100" xml:space="preserve">
<g>
	<path d="M88,60H70.062c-0.123,0-0.272,0.507-0.46,0.733L64.412,67H84v19H15V67h22.639l-5.304-6.23
		C32.134,60.533,31.973,60,31.843,60H12c-1.933,0-4,1.067-4,3v26c0,1.933,2.067,4,4,4h76c1.933,0,3-2.067,3-4V63
		C91,61.067,89.933,60,88,60z"/>
	<path d="M49.867,69.296C50.248,69.743,50.805,70,51.391,70c0.005,0,0.009,0,0.014,0c0.591-0.004,1.149-0.27,1.526-0.725
		l12.234-14.774L77.54,39.557c0.494-0.597,0.6-1.565,0.27-2.268C77.48,36.588,76.775,36,76,36H57V9H44v27H26.095
		c-0.78,0-1.488,0.594-1.815,1.302s-0.213,1.611,0.292,2.205l12.703,14.959L49.867,69.296z"/>
</g>
</svg>
