<?xml version="1.0" encoding="utf-8"?>
<!-- Generator: Adobe Illustrator 16.0.0, SVG Export Plug-In . SVG Version: 6.00 Build 0)  -->
<!DOCTYPE svg PUBLIC "-//W3C//DTD SVG 1.1//EN" "http://www.w3.org/Graphics/SVG/1.1/DTD/svg11.dtd">
<svg version="1.1" id="Your_Icon" xmlns="http://www.w3.org/2000/svg" xmlns:xlink="http://www.w3.org/1999/xlink" x="0px" y="0px"
	 width="100px" height="100px" viewBox="0 0 100 100" enable-background="new 0 0 100 100" xml:space="preserve">
<g>
	<path d="M42.1,22.44c-1.229-0.577-2.622-0.393-3.667,0.471L8.74,47.521c-0.797,0.66-1.247,1.638-1.254,2.672
		c-0.007,1.035,0.451,2.019,1.238,2.689l29.723,25.296c0.646,0.55,1.455,0.835,2.271,0.835c0.497,0,0.89-0.106,1.358-0.323
		C43.316,78.118,44,76.877,44,75.513V25.607C44,24.251,43.326,23.017,42.1,22.44z M37,67.938L16.224,50.253L37,33.049V67.938z"/>
	<path d="M88.952,47.521L59.231,22.911c-1.045-0.864-2.743-1.049-3.972-0.471C54.033,23.017,53,24.251,53,25.607v49.906
		c0,1.365,1.043,2.605,2.281,3.177c0.469,0.217,1.095,0.323,1.592,0.323c0.816,0,1.687-0.285,2.332-0.834l29.752-25.296
		c0.787-0.67,1.254-1.655,1.247-2.689C90.197,49.158,89.749,48.18,88.952,47.521z M60,67.938V33.049l20.777,17.204L60,67.938z"/>
</g>
</svg>
