<?xml version="1.0" encoding="utf-8"?>
<!-- Generator: Adobe Illustrator 16.0.0, SVG Export Plug-In . SVG Version: 6.00 Build 0)  -->
<!DOCTYPE svg PUBLIC "-//W3C//DTD SVG 1.1//EN" "http://www.w3.org/Graphics/SVG/1.1/DTD/svg11.dtd">
<svg version="1.1" xmlns="http://www.w3.org/2000/svg" xmlns:xlink="http://www.w3.org/1999/xlink" x="0px" y="0px" width="100px"
	 height="100px" viewBox="0 0 100 100" enable-background="new 0 0 100 100" xml:space="preserve">
<g id="Layer_3" display="none">
</g>
<g id="Your_Icon">
</g>
<g id="Layer_4">
	<path d="M50.467,100c-0.003,0-0.006,0-0.006,0c-11.023,0-19.994-8.823-19.998-19.67l-0.002-5l10-0.004l0.002,5
		c0.002,5.335,4.488,9.675,10,9.674h0.002c2.941,0,6.483-1.968,8.616-4.786c0.683-0.902,2.203-3.243,1.57-5.484
		c-2.032-7.187-8.384-16.775-14.528-26.05c-7.016-10.589-14.269-21.538-16.521-30.878c-1.146-4.757,0.198-10.027,3.69-14.461
		C37.344,3.196,43.54,0,49.463,0c0.004-0.002,0.004,0,0.006,0c5.318,0,10.326,2.032,14.098,5.722
		c3.803,3.72,5.896,8.674,5.896,13.951v5h-10v-5c0-2.564-1.026-4.98-2.889-6.803C54.682,11.02,52.158,10,49.468,10h-0.003l0,0
		c-2.843,0-6.184,1.819-8.316,4.527c-1.584,2.011-2.249,4.172-1.824,5.931c1.839,7.629,8.599,17.832,15.135,27.699
		C61.33,58.526,67.818,68.321,70.274,77.01c1.306,4.622,0.132,9.812-3.22,14.239C63.031,96.565,56.52,100,50.467,100z"/>
</g>
</svg>
