<?xml version="1.0" standalone="no"?>
<!DOCTYPE svg PUBLIC "-//W3C//DTD SVG 1.1//EN" "http://www.w3.org/Graphics/SVG/1.1/DTD/svg11.dtd" >
<svg xmlns="http://www.w3.org/2000/svg">
<metadata>
<json>
{
	"fontFamily": "Stampa",
	"majorVersion": 3,
	"minorVersion": 0,
	"fontURL": "http://www.github.io/eadpucv/stampa",
	"designer": "Catalina Reyes",
	"license": "The Artistic License 2.0",
	"licenseURL": "http://www.github.io/eadpucv/stampa/LICENSE",
	"version": "Version 3.0",
	"fontId": "Stampa",
	"psName": "Stampa",
	"subFamily": "Regular",
	"fullName": "Stampa",
	"description": "Font generated by IcoMoon."
}
</json>
</metadata>
<defs>
<font id="Stampa" horiz-adv-x="512">
<font-face units-per-em="512" ascent="480.512" descent="-31.488000000000003" />
<missing-glyph horiz-adv-x="512" />
<glyph unicode="&#x20;" d="" horiz-adv-x="256" />
<glyph unicode="&#xe600;" d="M86.866-26.818c-20.761 0-40.274 8.141-54.948 22.933-14.628 14.745-22.686 34.325-22.686 55.142 0 43.049 34.837 78.085 77.655 78.090h336.302c0 0 0.005 0 0.010 0 9.769 0 18.959 3.845 25.887 10.818 6.963 7.019 10.803 16.358 10.803 26.291 0 20.47-16.466 37.125-36.7 37.13h-336.297c-0.005 0-0.016 0-0.025 0-20.761 0-40.274 8.141-54.948 22.933-14.628 14.745-22.686 34.325-22.686 55.142 0 43.049 34.837 78.085 77.655 78.090h336.302c0 0 0.005 0 0.010 0 9.769 0 18.959 3.84 25.887 10.818 6.963 7.019 10.803 16.353 10.803 26.291 0 20.464-16.466 37.125-36.706 37.13h-167.184v40.96h167.189c42.824-0.016 77.66-35.047 77.66-78.090 0-20.813-8.059-40.402-22.692-55.142-14.674-14.791-34.186-22.933-54.948-22.933-0.010 0-0.015 0-0.026 0h-336.292c-20.234-0.005-36.7-16.661-36.7-37.13 0-9.928 3.84-19.272 10.803-26.291 6.927-6.974 16.112-10.819 25.882-10.819h336.317c42.824-0.005 77.66-35.042 77.66-78.090 0-20.813-8.059-40.397-22.687-55.142-14.674-14.786-34.192-22.933-54.953-22.933-0.010 0-0.015 0-0.026 0h-336.297c-20.234-0.005-36.7-16.661-36.7-37.13 0-9.928 3.84-19.272 10.803-26.291 6.927-6.974 16.112-10.819 25.882-10.819h169.124v-40.96h-169.108c-0.010 0-0.020 0-0.025 0z" />
<glyph unicode="&#xe601;" d="M266.573-14.756l-29.307 28.611 205.158 210.135-205.154 210.15 29.312 28.611 219.126-224.455c7.767-7.957 7.767-20.659 0-28.615l-219.136-224.435z" />
<glyph unicode="&#xe602;" d="M426.25 449.29c-0.005 8.474-5.228 16.077-13.143 19.108-7.911 3.036-16.88 0.886-22.548-5.417l-142.51-146.821h-108.4c-46.362 0-82.079-33.546-83.84-78.105-0.036-0.886-0.082-32.199-0.051-33.024 1.807-45.998 39.102-83.43 83.845-83.43h110.546l141.056-137.022c3.942-4.127 9.329-6.339 14.817-6.339 2.56 0 5.146 0.481 7.618 1.469 7.772 3.118 12.861 10.649 12.856 19.021l-0.246 450.56zM96.701 206.259c-0.020 1.454 0.020 29.025 0.041 30.254 0.88 22.415 18.596 38.686 42.906 38.686h117.514c5.806 0 11.336 2.458 15.216 6.774l112.942 114.007 0.185-346.122-111.785 106.363c-3.865 4.050-9.221 6.339-14.817 6.339h-119.301c-22.636 0-41.979 20.183-42.9 43.699z" />
<glyph unicode="&#xe603;" d="M128 324.864c0 68.464 59.714 124.16 133.12 124.16 74.644 0 133.12-52.178 133.12-118.784v-8.96h20.48v8.96c0 78.090-67.471 139.264-153.6 139.264-84.695 0-153.6-64.886-153.6-144.64v-54.784h20.48v54.784zM440.32 254.72h-368.64c-5.653 0-10.24-4.332-10.24-9.984v-256c0-2.719 1.081-5.453 3.006-7.373 1.92-1.92 4.521-3.123 7.234-3.123 0.005 0 0.005 0 0.010 0l368.64 0.512c5.647 0.005 10.23 4.716 10.23 10.368v255.616c0 5.653-4.587 9.984-10.24 9.984zM430.080-0.65l-348.16-0.363v235.254h348.16v-234.89zM237.292 106.731l11.29 17.091c-5.294 3.497-8.581 10.317-8.581 17.813 0 11.294 9.523 20.834 20.797 20.834 11.034 0 19.358-8.729 19.358-20.301 0-10.644-3-15.186-11.884-17.997l-7.152-2.268v-61.742h20.48v47.38c12.647 6.471 19.041 18.084 19.041 34.617 0 22.866-17.5 40.781-39.839 40.781-22.758 0-41.278-18.534-41.278-41.313-0.005-14.279 6.804-27.653 17.767-34.893z" />
<glyph unicode="&#xe604;" d="M317.44-15.104h-20.48v199.168c0 22.589-18.375 40.965-40.96 40.965s-40.96-18.376-40.96-40.965v-199.168h-20.48v199.168c0 33.879 27.561 61.445 61.44 61.445s61.44-27.566 61.44-61.445v-199.168zM250.88 454.677c-28.232 0-51.2-22.974-51.2-51.216 0-28.221 22.969-51.185 51.2-51.185s51.2 22.963 51.2 51.185c0 28.242-22.969 51.215-51.2 51.215zM250.88 372.757c-16.952 0-30.72 13.773-30.72 30.704 0 16.957 13.768 30.736 30.72 30.736s30.72-13.773 30.72-30.736c0-16.927-13.767-30.704-30.72-30.704zM249.344 299.029c-84.695 0-153.6 73.831-153.6 164.588h20.48c0-79.463 59.715-144.108 133.12-144.108s133.12 64.645 133.12 144.108h20.48c0-90.752-68.905-164.588-153.6-164.588z" />
<glyph unicode="&#xe605;" d="M255.867 367.36c47.749 0 94.418-23.834 121.636-67.292 41.994-67.077 21.668-155.546-45.414-197.56-23.654-14.802-49.956-21.868-75.94-21.868-47.749 0-94.423 23.839-121.62 67.267-42.035 67.113-21.689 155.561 45.394 197.581 23.644 14.802 49.956 21.868 75.945 21.873zM255.877 387.84v0h-0.016c-30.684-0.005-60.697-8.648-86.814-24.996-76.554-47.954-99.825-149.253-51.881-225.808 30.147-48.138 82.105-76.877 138.982-76.877 30.679 0 60.692 8.642 86.805 24.99 76.554 47.943 99.84 149.232 51.906 225.792-30.162 48.148-82.115 76.897-138.982 76.897v0zM163.84 61.24h20.48v-75.382h-20.48v75.382zM93.501 334.121c0 0-6.011 6.026-13.568 13.578-14.059 14.060-14.403 36.644-1.014 51.123 0.328 0.353 5.909 5.913 6.262 6.267s5.918 5.909 6.282 6.247c14.48 13.373 37.069 13.040 51.144-1.019 5.868-5.878 13.558-13.573 13.558-13.573l-62.663-62.623zM93.501 323.881c-0.005 0-0.005 0 0 0-2.724 0-5.33 1.086-7.25 3.011l-13.558 13.563c-17.977 17.981-18.544 46.669-1.296 65.321 0.307 0.333 4.47 4.495 6.016 6.042l0.522 0.517c0.364 0.363 6.169 6.154 6.543 6.502 8.755 8.089 20.117 12.529 32.016 12.529 12.59 0 24.428-4.9 33.341-13.798l13.563-13.578c3.999-3.998 3.994-10.486-0.005-14.484l-62.659-62.618c-1.92-1.925-4.521-3.005-7.234-3.005zM116.496 410.88c-6.733 0-13.159-2.509-18.094-7.065-0.537-0.528-5.653-5.637-5.986-5.965l-0.537-0.537c-1.388-1.382-5.017-5.008-5.555-5.555-9.641-10.425-9.319-26.649 0.85-36.813l6.334-6.339 48.174 48.144-6.328 6.333c-5.028 5.023-11.73 7.798-18.857 7.798zM327.68 58.168h20.48v-74.808h-20.48v74.808zM418.498 334.121c0 0 6.011 6.026 13.568 13.578 14.060 14.060 14.402 36.644 1.014 51.123-0.327 0.353-5.909 5.913-6.262 6.267s-5.918 5.909-6.282 6.247c-14.479 13.373-37.069 13.040-51.144-1.019-5.868-5.878-13.558-13.573-13.558-13.573l62.663-62.623zM418.498 323.881c-2.714 0-5.32 1.081-7.24 2.995l-62.659 62.618c-3.998 3.998-4.004 10.486-0.005 14.484l13.553 13.568c8.919 8.909 20.762 13.809 33.351 13.809 11.904 0 23.26-4.439 31.99-12.503 0.404-0.368 6.205-6.159 6.574-6.523l0.522-0.517c1.546-1.546 5.709-5.704 6-6.021 17.27-18.668 16.702-47.36-1.275-65.337l-13.558-13.568c-1.92-1.925-4.526-3.010-7.245-3.010h-0.010zM370.32 396.743l48.174-48.143 6.339 6.343c10.163 10.158 10.486 26.384 0.738 36.931-0.425 0.43-4.060 4.055-5.442 5.438l-0.538 0.537c-0.333 0.327-5.447 5.438-6.098 6.072-4.823 4.45-11.248 6.958-17.981 6.958-7.127 0-13.824-2.775-18.867-7.808l-6.323-6.329zM319.99 196.086l-66.56 0.072c-2.719 0.005-5.32 1.086-7.239 3.005-1.92 1.925-2.99 4.531-2.99 7.245l0.118 99.522 20.48-0.021-0.108-89.282 56.32-0.062-0.021-20.48z" />
<glyph unicode="&#xe606;" d="M226.499 241.889l12.375 70.185c-13.686-2.079-27.888 0.261-40.345 7.086l-11.085-62.873-55.798 20.577c0.825-13.947-2.923-27.919-10.864-39.649l59.438-21.913-13.993-79.37c13.691 2.074 27.899-0.266 40.346-7.091l12.702 72.054 161.178-59.428c1.203 13.757 6.82 27.034 16.471 37.581l-170.424 62.843zM38.288 314.823c-23.086-16.327-28.57-48.24-12.252-71.352 16.323-23.091 48.261-28.575 71.347-12.226 23.091 16.313 28.575 48.256 12.252 71.342-16.323 23.076-48.272 28.58-71.347 12.237zM495.344 135.941c0-28.269-22.916-51.185-51.185-51.185s-51.185 22.916-51.185 51.185c0 28.269 22.916 51.185 51.185 51.185s51.185-22.916 51.185-51.185zM265.59 339.231c19.886 20.076 19.758 52.495-0.327 72.407-20.101 19.881-52.49 19.738-72.407-0.348-19.891-20.080-19.758-52.495 0.338-72.376 20.081-19.911 52.49-19.758 72.397 0.317zM139.5 108.769c-19.897-20.101-19.748-52.51 0.353-72.392 20.071-19.922 52.485-19.758 72.397 0.317 19.891 20.080 19.758 52.5-0.343 72.392-20.086 19.901-52.485 19.774-72.407-0.317z" />
<glyph unicode="&#xe607;" d="M241.126-14.080c-2.76 0-4.813 0.010-5.007 0.021-26.727 1.045-56.56 22.779-56.56 52.296v78.459c-6.636 11.131-34.796 57.892-48.071 72.642-25.728 28.585-39.327 66.32-39.327 109.113 0 90.225 73.784 163.63 164.48 163.63 89.989 0 163.2-73.406 163.2-163.63 0-39.409-15.339-78.157-43.187-109.107-12.36-13.732-45.2-61.332-53.207-73.011v-78.075c0-27.719-23.358-51.18-52.070-52.291-0.886-0.041-15.406-0.046-15.554-0.046h-14.695zM256.64 441.6c-79.401 0-144-64.215-144-143.15 0-37.652 11.781-70.646 34.073-95.416 16.399-18.222 50.463-75.884 51.906-78.331 0.932-1.577 1.418-3.369 1.418-5.202v-81.27c0-17.116 19.85-31.166 36.93-31.836 0.231 0 1.935 0 4.157 0l14.884 0.005c0.363 0 13.44 0.010 14.695 0.031 17.428 0.676 32.261 15.252 32.261 31.826v81.25c0 2.053 0.62 4.065 1.776 5.765 1.7 2.488 41.718 61.143 56.688 77.773 24.458 27.182 37.929 61.061 37.929 95.406 0 78.935-64.025 143.15-142.72 143.15zM286.72 42.24c0 0-1.132-15.36-38.242-15.36-32.384 0-32.415 15.36-32.415 15.36v46.244h70.656v-46.244zM215.040 116.48h71.68v-20.48h-71.68v20.48z" />
<glyph unicode="&#xe608;" d="M327.68-16.64h-107.52v20.48h97.28v440.32h-97.28v20.48h107.52c5.652 0 10.24-4.588 10.24-10.24v-460.8c0-5.652-4.587-10.24-10.24-10.24zM133.12-16.64h-107.52c-5.652 0-10.24 4.587-10.24 10.24v460.8c0 5.652 4.588 10.24 10.24 10.24h107.52v-20.48h-97.28v-440.32h97.28v-20.48zM486.4-16.64h-128v20.48h117.76v440.32h-117.76v20.48h128c5.652 0 10.24-4.588 10.24-10.24v-460.8c0-5.652-4.587-10.24-10.24-10.24zM112.64 234.24h122.88v-20.48h-122.88v20.48zM163.84 285.44h20.48v-122.88h-20.48v122.88z" />
<glyph unicode="&#xe609;" d="M312.32 234.194l-123.73 0.020 87.798 87.859-14.485 14.48-87.808-87.875-0.016 123.802h-20.48l0.016-123.126-87.138 87.199-14.484-14.48 87.793-87.849-124.426 0.016v-20.48l123.822-0.015-87.189-87.25 14.484-14.479 87.147 87.204 0.016-123.699h20.48l-0.016 124.359 87.798-87.865 14.485 14.479-87.178 87.24 123.111-0.021z" horiz-adv-x="328" />
<glyph unicode="&#xe60a;" d="M494.080 257.28l-37.084 90.225c-2.949 8.079-10.634 9.615-19.236 9.615h-84.48v-40.96h66.56l24.023-56.151c-6.466 0.020-13.686-0.169-21.745-0.169-22.006 0-310.236 0-332.242 0-8.238 0-15.632 0.19-22.21 0.169l24.981 56.151h66.073v40.96h-79.36c-8.079 0-15.406-0.911-18.698-8.289l-42.742-91.551c-5.739-6.743-9.758-18.422-9.707-32.978 0.098-23.987 10.649-56.269 27.546-79.161 21.739-29.45 51.722-49.142 84.429-49.142 0.041 0 0.543 0 0.584 0 31.754 0 60.549 19.799 81.081 49.162 15.703 22.451 25.462 49.285 25.462 73.293 0 0.85-0.061 0.425-0.087 0.425h57.549c-0.026 0-0.087-1.387-0.087-2.243 0.005-43.367 35.61-120.637 106.542-120.637 0.041 0 0.543 0 0.584 0 32.707 0 62.684 20.168 84.423 49.618 16.896 22.892 27.449 53.837 27.546 77.819 0.072 17.833-1.797 27.428-9.702 33.843zM121.493 136.96c-27.008 0-45.23 22.077-55.311 37.381-13.2 20.039-17.029 41.083-16.763 50.299 27.090 0.246 128.839 0.973 136.99 0.963 0.635-9.892-1.956-34.151-15.001-54.41-9.129-14.172-28.047-34.233-48.528-34.233h-1.388zM389.12 136.96c-20.48 0-39.363 20.531-48.491 34.698-13.046 20.26-16.128 43.090-15.498 52.982 8.151 0.016 110.5 1.203 137.59 0.963 0.266-9.216-3.236-31.688-16.44-51.733-10.082-15.298-28.795-36.91-55.803-36.91h-1.357z" />
<glyph unicode="&#xe60b;" d="M435.051 336.64h-181.488c2.503 15.36 1.552 37.15-10.096 60.601-11.315 22.789-29.261 26.301-38.948 26.301-20.598 0-38.297-14.582-43.72-19.553l-122.317-90.332c-0.819-0.604-1.593-1.255-2.309-1.976-34.13-34.135-31.386-109.148-30.551-123.085-0.835-13.937-3.584-88.96 30.541-123.095 25.723-25.723 77.675-31.12 116.726-31.12 10.424 0 18.202 0.399 21.202 0.584 1.695-0.072 4.849-0.179 9.083-0.179 26.839 0 75.863 3.774 102.584 30.495 28.406 28.406 31.724 97.28 31.252 133.12h118.036c28.815 0 71.68 17.726 71.68 66.56 0.005 52.587-42.86 71.68-71.675 71.68zM435.051 239.36h-139.264c-5.652 0-11.049-2.119-14.925-6.236-3.87-4.121-5.868-9.549-5.514-15.186 2.55-41.067-1.521-106.496-18.555-123.525-13.793-13.798-47.073-18.688-73.62-18.688-4.756 0-7.742 0.169-7.998 0.185-0.901 0.051-1.833 0.057-2.739-0.005-0.082-0.005-7.952-0.563-19.543-0.563-42.977 0-75.781 7.152-87.757 19.128-16.957 16.957-20.388 65.874-18.565 92.708 0.066 0.952 0.066 1.899 0 2.852-1.551 22.221 0.798 73.211 17.648 91.745l121.882 90.035c0.727 0.533 1.413 1.116 2.058 1.746 3.763 3.635 12.211 9.139 16.169 9.272 0.281-0.19 1.27-1.193 2.452-3.584 14.607-29.404 1.726-50.596 1.341-51.226-4.214-6.282-4.624-14.597-1.065-21.268 3.559-6.682 10.506-11.070 18.073-11.070h209.731c27.899 0 30.909-21.662 30.909-30.72 0-23.311-23.634-25.6-30.72-25.6z" />
<glyph unicode="&#xe60c;" d="M491.52-20.971h-471.040c-3.548 0-6.851 1.838-8.714 4.864s-2.027 6.794-0.441 9.969l235.52 469.458c1.741 3.461 5.279 5.647 9.155 5.647s7.414-2.186 9.155-5.647l235.52-469.458c1.592-3.175 1.423-6.948-0.44-9.969s-5.166-4.864-8.714-4.864zM37.074-0.491h437.852l-218.926 436.388-218.926-436.388z" />
<glyph unicode="&#xe60d;" d="M445.44-16.64h-378.88c-5.653 0-10.24 4.587-10.24 10.24v460.8c0 5.652 4.587 10.24 10.24 10.24h378.88c5.652 0 10.24-4.588 10.24-10.24v-460.8c0-5.652-4.587-10.24-10.24-10.24zM76.8 3.84h358.4v440.32h-358.4v-440.32zM228.839 164.731c-56.873 0-103.142 46.279-103.142 103.168 0 56.883 46.27 103.158 103.142 103.158 56.889 0 103.173-46.274 103.173-103.158 0-56.889-46.279-103.168-103.173-103.168zM228.839 350.582c-45.578 0-82.662-37.089-82.662-82.678 0-45.594 37.084-82.688 82.662-82.688 45.599 0 82.693 37.094 82.693 82.688 0 45.589-37.094 82.678-82.693 82.678zM292.474 211.164l108.825-110.61-14.594-14.359-108.825 110.61 14.594 14.359z" />
<glyph unicode="&#xe60e;" d="M209.72 376.981c113.843 0 246.354-65.94 246.354-65.94 24.596-61.491-35.205-71.137-75.151-71.137-18.258 0-32.368 2.018-32.368 2.018 87.040-61.44-56.32-64-56.32-64 54.4-48 11.801-57.001-27.801-57.001-23.762 0-46.439 3.241-46.439 3.241 34.135-35.558 4.27-43.454-29.025-43.454-26.629 0-55.454 5.053-55.454 5.053 28.8-48 0.599-57.001-24.602-57.001-15.12 0-29.159 3.241-29.159 3.241-82.698 276.531 13.936 344.981 129.966 344.981zM209.72 397.461c-66.442 0-115.666-20.869-146.314-62.024-45.337-60.887-46.438-164.951-3.272-309.305 2.109-7.050 7.838-12.431 15.017-14.085 0.665-0.154 16.512-3.763 33.767-3.763 25.754 0 43.249 7.839 51.999 23.296 5.438 9.605 6.088 19.973 4.5 29.655 7.526-0.594 15.606-1.003 23.557-1.003 21.99 0 52.347 2.632 62.049 25.406 2.181 5.11 2.867 10.153 2.53 15.007 3.548-0.123 7.199-0.195 10.885-0.195 26.168 0 62.090 3.005 71.911 28.969 4.178 11.059 2.058 21.863-3.134 31.815 0.507 0.087 1.009 0.169 1.515 0.256 35.277 6.016 55.178 17.899 60.851 36.332 2.401 7.813 1.838 15.207-0.486 22 38.149 2.146 64.266 13.271 77.726 33.147 11.909 17.593 12.677 39.695 2.274 65.69-1.869 4.669-5.392 8.489-9.892 10.731-5.591 2.765-138.173 68.071-255.483 68.071v0z" />
<glyph unicode="&#xe60f;" d="M25.6 387.84h465.92v-84.48h-465.92v84.48zM471.040 371.456v-365.614l-430.080-0.461v366.075h430.080zM471.040 397.056h-430.080c-14.142 0-25.6-11.459-25.6-25.6v-366.075c0-6.794 2.698-13.312 7.511-18.11 4.797-4.798 11.305-7.49 18.089-7.49 0.010 0 0.020 0 0.026 0l430.080 0.461c14.131 0.015 25.575 11.469 25.575 25.6v365.614c0 14.142-11.459 25.6-25.6 25.6v0zM102.4 444.16h61.333l0.107-125.44h-61.44zM163.942 305.92c-0.025-0.005-0.066-0.005-0.102 0h-61.44c-7.070 0-12.8 5.73-12.8 12.8v125.44c0 7.071 5.73 12.8 12.8 12.8h61.333c7.065 0 12.795-5.724 12.8-12.79l0.107-123.817c0.066-0.532 0.102-1.080 0.102-1.633 0-7.071-5.734-12.8-12.8-12.8zM115.2 331.52h35.83l-0.087 99.84h-35.743v-99.84zM348.16 444.16h61.332l0.108-125.44h-61.44zM409.702 305.92c-0.026-0.005-0.067-0.005-0.103 0h-61.44c-7.070 0-12.8 5.73-12.8 12.8v125.44c0 7.071 5.729 12.8 12.8 12.8h61.332c7.065 0 12.795-5.724 12.8-12.79l0.108-123.817c0.067-0.532 0.103-1.080 0.103-1.633 0-7.071-5.735-12.8-12.8-12.8zM360.96 331.52h35.83l-0.087 99.84h-35.743v-99.84zM112.64 224h35.84v-35.84h-35.84v35.84zM148.48 224v-35.84h-35.84v35.84h35.84zM168.96 244.48h-76.8v-76.8h76.8v76.8zM174.080 224h35.84v-35.84h-35.84v35.84zM209.92 224v-35.84h-35.84v35.84h35.84zM230.4 244.48h-76.8v-76.8h76.8v76.8zM235.52 224h35.84v-35.84h-35.84v35.84zM271.36 224v-35.84h-35.84v35.84h35.84zM291.84 244.48h-76.8v-76.8h76.8v76.8zM296.96 224h35.84v-35.84h-35.84v35.84zM332.8 224v-35.84h-35.84v35.84h35.84zM353.28 244.48h-76.8v-76.8h76.8v76.8zM358.4 224h35.84v-35.84h-35.84v35.84zM394.24 224v-35.84h-35.84v35.84h35.84zM414.72 244.48h-76.8v-76.8h76.8v76.8zM112.64 167.68h35.84v-35.84h-35.84v35.84zM148.48 167.68v-35.84h-35.84v35.84h35.84zM168.96 188.16h-76.8v-76.8h76.8v76.8zM174.080 167.68h35.84v-35.84h-35.84v35.84zM209.92 167.68v-35.84h-35.84v35.84h35.84zM230.4 188.16h-76.8v-76.8h76.8v76.8zM235.52 167.68h35.84v-35.84h-35.84v35.84zM271.36 167.68v-35.84h-35.84v35.84h35.84zM291.84 188.16h-76.8v-76.8h76.8v76.8zM296.96 167.68h35.84v-35.84h-35.84v35.84zM332.8 167.68v-35.84h-35.84v35.84h35.84zM353.28 188.16h-76.8v-76.8h76.8v76.8zM358.4 167.68h35.84v-35.84h-35.84v35.84zM394.24 167.68v-35.84h-35.84v35.84h35.84zM414.72 188.16h-76.8v-76.8h76.8v76.8zM112.64 111.36h35.84v-35.84h-35.84v35.84zM148.48 111.36v-35.84h-35.84v35.84h35.84zM168.96 131.84h-76.8v-76.8h76.8v76.8zM174.080 111.36h35.84v-35.84h-35.84v35.84zM209.92 111.36v-35.84h-35.84v35.84h35.84zM230.4 131.84h-76.8v-76.8h76.8v76.8zM235.52 111.36h35.84v-35.84h-35.84v35.84zM271.36 111.36v-35.84h-35.84v35.84h35.84zM291.84 131.84h-76.8v-76.8h76.8v76.8z" />
<glyph unicode="&#xe610;" d="M352.804 346.608l-29.461 77.072h-135.557l-28.816-77.072h-138.491v-358.123l471.040 0.507v357.616zM20.48-21.755c-2.713 0-5.319 1.075-7.239 2.995s-3.001 4.526-3.001 7.245v358.123c0 5.652 4.588 10.24 10.24 10.24h131.389l26.322 70.416c1.5 4.004 5.32 6.656 9.595 6.656h135.562c4.245 0 8.048-2.621 9.564-6.584l26.942-70.487h131.666c5.652 0 10.24-4.588 10.24-10.24v-357.616c0-5.652-4.577-10.235-10.23-10.24l-471.040-0.507c0 0-0.010 0-0.010 0zM30.72 336.369v-337.634l450.56 0.486v337.152h-128.476c-4.245 0-8.048 2.622-9.564 6.584l-26.942 70.482h-121.411l-26.327-70.415c-1.495-4.004-5.32-6.656-9.595-6.656h-128.246zM256 239.36c39.516 0 71.68-32.144 71.68-71.68s-32.164-71.68-71.68-71.68-71.68 32.144-71.68 71.68 32.164 71.68 71.68 71.68zM256 259.84c-50.816 0-92.16-41.344-92.16-92.16s41.344-92.16 92.16-92.16 92.16 41.344 92.16 92.16-41.344 92.16-92.16 92.16v0z" />
<glyph unicode="&#xe611;" d="M204.493 108.544l144.712 117.76-144.712 117.76zM204.493 98.304c-1.495 0-2.995 0.322-4.393 0.988-3.569 1.7-5.842 5.299-5.842 9.252v235.52c0 3.947 2.274 7.552 5.842 9.252 3.569 1.695 7.792 1.193 10.859-1.31l144.712-117.76c2.391-1.94 3.779-4.859 3.779-7.941s-1.387-6.001-3.779-7.941l-144.712-117.76c-1.863-1.515-4.153-2.299-6.466-2.299zM214.733 322.529v-192.45l118.252 96.226-118.251 96.226z" />
<glyph unicode="&#xe612;" d="M414.72 423.68h-317.44c-22.62 0-40.96-18.34-40.96-40.96v-317.44c0-22.62 18.34-40.96 40.96-40.96h317.44c22.62 0 40.96 18.34 40.96 40.96v317.44c0 22.62-18.34 40.96-40.96 40.96zM414.72 65.28h-317.44v317.44h317.44v-317.44z" />
<glyph unicode="&#xe613;" d="M82.993 400.866l127.331-340.252-19.181-7.178-127.331 340.252 19.181 7.178zM276.33 269.599l18.731-8.291-95.18-215.055-18.732 8.291 95.18 215.055zM282.187 282.923l162.81-162.304-14.459-14.504-162.81 162.304 14.459 14.504zM427.541 326.866h20.48v-204.8h-20.48v204.8zM108.298 369.961c-20.885-21.069-54.917-21.228-75.996-0.322-21.099 20.874-21.233 54.922-0.348 76.022 20.9 21.069 54.938 21.227 76.007 0.327 21.125-20.874 21.258-54.933 0.338-76.027zM100.685 377.543c-16.727-16.86-43.934-16.993-60.816-0.272-16.881 16.707-16.988 43.93-0.282 60.8 16.738 16.87 43.935 16.988 60.825 0.292 16.87-16.722 16.978-43.96 0.272-60.82zM70.144 430.326v0c5.975 0 11.618-2.32 15.856-6.508 8.822-8.745 8.878-23.035 0.144-31.851-4.27-4.301-9.954-6.671-16.010-6.671-5.97 0-11.602 2.32-15.862 6.538-4.27 4.224-6.636 9.861-6.661 15.872-0.031 6.016 2.288 11.684 6.513 15.949 4.275 4.301 9.968 6.672 16.021 6.672zM70.144 450.806c-11.069 0-22.134-4.249-30.556-12.733-16.712-16.87-16.599-44.093 0.282-60.8 8.392-8.315 19.328-12.462 30.265-12.462 11.070 0 22.134 4.25 30.551 12.728 16.706 16.86 16.599 44.099-0.272 60.821-8.391 8.304-19.333 12.446-30.27 12.446v0zM236.298-0.738c-20.885-21.069-54.917-21.228-75.996-0.322-21.105 20.874-21.233 54.928-0.348 76.027 20.9 21.069 54.938 21.228 76.007 0.327 21.125-20.88 21.258-54.933 0.338-76.032zM228.685 6.846c-16.727-16.86-43.935-16.993-60.815-0.272-16.881 16.707-16.988 43.93-0.281 60.8 16.738 16.87 43.935 16.988 60.826 0.292 16.87-16.722 16.978-43.961 0.272-60.82zM198.144 59.627v0c5.975 0 11.618-2.32 15.857-6.507 8.822-8.745 8.878-23.035 0.143-31.851-4.27-4.306-9.953-6.676-16.010-6.676-5.97 0-11.602 2.32-15.862 6.533-4.27 4.224-6.636 9.866-6.661 15.877-0.030 6.016 2.288 11.678 6.512 15.943 4.275 4.316 9.969 6.682 16.020 6.682zM198.144 80.108c-11.070 0-22.134-4.25-30.556-12.733-16.712-16.87-16.599-44.094 0.281-60.8 8.392-8.31 19.328-12.462 30.264-12.462 11.070 0 22.134 4.25 30.551 12.728 16.707 16.86 16.599 44.099-0.272 60.82-8.392 8.305-19.333 12.447-30.269 12.447v0zM321.3 252.702c-20.885-21.069-54.917-21.227-75.996-0.322-21.105 20.874-21.233 54.928-0.348 76.027 20.9 21.069 54.938 21.228 76.007 0.327 21.12-20.88 21.258-54.933 0.338-76.032zM313.687 260.286c-16.727-16.86-43.935-16.994-60.815-0.272-16.881 16.707-16.988 43.929-0.281 60.8 16.738 16.87 43.935 16.988 60.825 0.292 16.87-16.722 16.973-43.96 0.272-60.82zM283.146 313.067v0c5.975 0 11.618-2.32 15.856-6.507 8.822-8.745 8.878-23.035 0.144-31.851-4.27-4.301-9.954-6.671-16.010-6.671-5.97 0-11.602 2.319-15.862 6.538-4.27 4.224-6.635 9.861-6.661 15.872-0.031 6.016 2.288 11.684 6.512 15.949 4.275 4.301 9.964 6.671 16.020 6.671zM283.146 333.548c-11.070 0-22.134-4.25-30.556-12.733-16.712-16.87-16.599-44.094 0.281-60.8 8.391-8.315 19.328-12.462 30.265-12.462 11.070 0 22.134 4.25 30.551 12.728 16.707 16.86 16.599 44.099-0.272 60.82-8.397 8.305-19.333 12.447-30.269 12.447v0zM482.068 53.028c-20.885-21.069-54.917-21.228-75.996-0.322-21.105 20.874-21.233 54.928-0.348 76.027 20.9 21.069 54.938 21.228 76.007 0.327 21.125-20.88 21.258-54.933 0.338-76.032zM474.455 60.611c-16.727-16.86-43.935-16.993-60.815-0.272-16.88 16.707-16.988 43.93-0.281 60.8 16.738 16.87 43.935 16.988 60.825 0.292 16.87-16.722 16.978-43.961 0.272-60.82zM443.914 113.392v0c5.975 0 11.618-2.32 15.856-6.507 8.822-8.745 8.878-23.035 0.144-31.851-4.27-4.306-9.954-6.676-16.010-6.676-5.97 0-11.602 2.32-15.862 6.533-4.27 4.224-6.635 9.866-6.661 15.877-0.031 6.016 2.288 11.678 6.512 15.943 4.275 4.316 9.969 6.682 16.021 6.682zM443.914 133.873c-11.070 0-22.134-4.25-30.556-12.733-16.712-16.87-16.599-44.094 0.281-60.8 8.392-8.31 19.328-12.462 30.264-12.462 11.070 0 22.134 4.25 30.551 12.728 16.707 16.86 16.599 44.099-0.272 60.82-8.392 8.305-19.333 12.447-30.269 12.447v0zM471.829 312.617c-20.885-21.069-54.917-21.227-75.996-0.322-21.104 20.874-21.233 54.928-0.348 76.027 20.9 21.069 54.938 21.227 76.007 0.327 21.125-20.885 21.258-54.938 0.338-76.032zM464.215 320.195c-16.727-16.86-43.935-16.993-60.815-0.272-16.88 16.707-16.988 43.929-0.281 60.8 16.738 16.87 43.935 16.988 60.825 0.292 16.87-16.722 16.978-43.961 0.272-60.82zM433.674 372.982v0c5.975 0 11.618-2.319 15.856-6.507 8.822-8.745 8.878-23.035 0.144-31.852-4.27-4.301-9.954-6.671-16.010-6.671-5.97 0-11.602 2.319-15.862 6.538-4.27 4.224-6.635 9.861-6.661 15.872-0.031 6.016 2.288 11.684 6.512 15.949 4.275 4.296 9.969 6.671 16.021 6.671zM433.674 393.462c-11.070 0-22.134-4.25-30.556-12.733-16.712-16.87-16.599-44.094 0.281-60.8 8.392-8.315 19.328-12.462 30.264-12.462 11.070 0 22.134 4.25 30.551 12.728 16.707 16.86 16.599 44.099-0.272 60.82-8.392 8.3-19.333 12.447-30.269 12.447v0z" />
<glyph unicode="&#xe614;" d="M256 382.72c87.67 0 158.72-71.045 158.72-158.72 0-87.629-71.050-158.72-158.72-158.72s-158.72 71.091-158.72 158.72c0 87.675 71.050 158.72 158.72 158.72zM256 423.68c-110.106 0-199.68-89.575-199.68-199.68s89.575-199.68 199.68-199.68 199.68 89.575 199.68 199.68-89.575 199.68-199.68 199.68v0z" />
<glyph unicode="&#xe615;" d="M440.32 254.72h-368.64c-5.653 0-10.24-5.832-10.24-11.489v-256c0-2.719 1.081-4.7 3.006-6.62 1.92-1.915 4.521-2.37 7.234-2.37 0.005 0 0.005 0 0.010 0l368.64-0.24c5.647 0.005 10.23 3.968 10.23 9.62v255.611c0 5.657-4.587 11.489-10.24 11.489zM430.080-2.151l-348.16-0.363v236.754h348.16v-236.391zM122.88 326.37c0 68.464 59.714 124.16 133.12 124.16s133.12-55.696 133.12-124.16v-56.29h20.48v56.29c0 79.754-68.905 144.64-153.6 144.64s-153.6-64.886-153.6-144.64v-56.29h20.48v56.29zM232.177 105.595l11.28 17.091c-5.447 3.599-8.576 9.882-8.576 17.239 0 11.33 9.328 20.551 20.797 20.551 11.034 0 19.358-8.791 19.358-20.444 0-10.752-3-15.329-11.884-18.135l-7.153-2.268v-59.469h20.48v45.118c12.647 6.482 19.041 18.14 19.041 34.755 0 22.948-17.5 40.924-39.839 40.924-22.758 0-41.278-18.406-41.278-41.031-0.005-14.151 6.641-26.983 17.772-34.329z" />
<glyph unicode="&#xe616;" d="M89.82 254.72h140.58v20.48h-119.654c16.368 71.68 77.803 119.040 148.746 119.040 73.416 0 139.868-50.75 150.108-122.578v-16.942h20.48v19.83c-15.544 81.961-85.55 141.45-169.103 141.45-70.425 0-132.976-42.834-158.577-105.636v92.836h-20.48v-135.68c0-5.652 2.243-12.8 7.9-12.8zM421.888 188.16h-140.288v-20.48h119.358c-16.374-66.56-77.655-116.48-148.598-116.48-73.416 0-139.72 53.31-149.959 125.138v11.822h-20.48v-14.71c15.544-81.961 85.473-141.45 169.031-141.45 70.425 0 133.048 42.829 158.649 105.636v-97.956h20.48v140.8c0 5.652-2.539 7.68-8.192 7.68z" />
<glyph unicode="&#xe617;" d="M256 403.2c-98.811 0-179.2-80.389-179.2-179.2s80.389-179.2 179.2-179.2 179.2 80.389 179.2 179.2-80.389 179.2-179.2 179.2z" />
<glyph unicode="&#xe618;" d="M256 423.68c-110.106 0-199.68-89.575-199.68-199.68s89.575-199.68 199.68-199.68 199.68 89.575 199.68 199.68-89.575 199.68-199.68 199.68z" />
<glyph unicode="&#xe619;" d="M486.4-26.88h-460.8c-11.31 0-20.48 9.17-20.48 20.48v256h40.96v-235.52h419.84v235.52h40.96v-256c0-11.31-9.17-20.48-20.48-20.48zM380.59 300.744l-119.982 122.813-119.977-122.813-29.302 28.621 134.631 137.815c3.856 3.942 9.134 6.165 14.648 6.165s10.793-2.227 14.649-6.17l134.635-137.805-29.302-28.626zM240.128 431.079h40.96v-371.2h-40.96v371.2z" />
<glyph unicode="&#xe61a;" d="M5.12 244.48h317.44v-40.96h-317.44v40.96z" horiz-adv-x="320" />
<glyph unicode="&#xe61b;" d="M470.016 429.312h-430.080c-22.62 0-39.936-18.427-39.936-41.82v-378.378c0-11.233 3.809-21.228 11.499-29.189 7.68-7.931 17.582-11.591 28.437-11.591 0.016 0 0.031 0 0.041 0l430.592-0.333c22.599 0.020 41.431 18.191 41.431 41.579v377.913c0 23.399-19.364 41.82-41.984 41.82v0zM471.040 8.96h-430.080v379.392h430.080v-379.392zM346.711 214.794l-144.712 117.76c-6.129 4.987-13.931 5.995-21.059 2.611-7.143-3.394-11.029-10.588-11.029-18.494v-235.52c0-7.906 3.891-15.099 11.029-18.493 2.8-1.331 5.468-1.986 8.458-1.986 4.618 0 9.042 1.567 12.764 4.592l144.625 117.76c4.782 3.891 7.516 9.723 7.516 15.887s-2.816 11.991-7.593 15.882zM210.873 124.221v149.381l91.776-74.69-91.776-74.69z" />
<glyph unicode="&#xe61c;" d="M278.41 8.96c0.036 5.12 72.909 40.986 72.909 40.986 32.502 8.699 94.986 4.127 94.986 4.127 53.248 0 55.454 34.325 55.454 34.325l0.317 282.767c-0.317 42.276-47.662 42.384-47.662 42.384-44.815 6.548-111.375 0.911-126.736-0.108-14.93-0.999-68.521-24.177-71.531-25.482-3.6 1.562-56.99 24.494-71.829 25.482-15.36 1.024-84.48 7.68-126.377 0.056 0 0-49.193-3.865-47.662-42.378l0.486-282.762c0 0 2.033-34.304 55.286-34.304 0 0 62.485 4.572 94.986-4.132 0 0 72.873-35.84 72.909-40.96h-223.708l0.246-40.96h245.514l0.179 207.703 0.179-207.703h245.514l0.246 40.96h-223.708zM235.52 60.216c-0.512 6.656-61.44 28.995-61.44 28.995-26.624 9.047-122.695 6.789-122.695 6.789l-0.184 275.113c51.2 12.682 117.76 2.954 117.76 2.954 23.557 1.024 66.56-27.136 66.56-27.136s0.512-293.371 0-286.715zM276.839 346.988c0 0 43.003 28.16 66.56 27.136 0 0 66.56 9.723 117.76-2.954l-0.185-275.17c0 0-96.072 2.309-122.695-6.738 0 0-60.928-22.339-61.44-28.995s0 286.72 0 286.72z" />
<glyph unicode="&#xe61d;" d="M256 382.72c87.67 0 158.72-71.045 158.72-158.72 0-87.629-71.050-158.72-158.72-158.72s-158.72 71.091-158.72 158.72c0 87.675 71.050 158.72 158.72 158.72zM256 403.2c-98.811 0-179.2-80.389-179.2-179.2s80.389-179.2 179.2-179.2 179.2 80.389 179.2 179.2-80.389 179.2-179.2 179.2v0z" />
<glyph unicode="&#xe61e;" d="M368.046 16.286c-29.143 0-61.875 9.82-83.164 42.603l-140.529 216.336c-0.773 1.188-7.588 12.068-8.612 27.090-0.983 14.423 3.256 35.133 29.066 51.901 23.649 15.344 43.294 9.876 55.603 2.57 12.467-7.388 19.482-17.849 20.239-19.021l88.054-135.572-17.173-11.156-88.059 135.572c-1.935 2.918-19.947 28.319-47.508 10.43-14.018-9.109-20.679-20.322-19.789-33.326 0.661-9.718 5.31-17.26 5.356-17.331l140.529-216.34c32.455-49.981 96.455-29.486 105.308-26.348 69.371 48.911 29.599 117.033 27.858 119.926l-128.128 197.248c-35.584 54.784-83.81 83.369-135.875 80.543-44.119-2.406-83.845-28.339-103.68-67.676-23.281-46.183-16.415-101.519 19.344-155.837l48.379-74.486-17.172-11.156-48.343 74.44c-39.347 59.766-46.833 124.032-20.495 176.266 23.127 45.865 69.438 76.099 120.852 78.905 58.809 3.277 114.995-29.538 154.163-89.836l128.307-197.529c0.691-1.137 52.26-88.31-34.601-148.373l-0.967-0.666-1.091-0.43c-11.766-4.659-29.077-8.745-47.872-8.745z" />
<glyph unicode="&#xe61f;" d="M384.272 119.921l-14.31 14.649 91.546 89.431-91.546 89.431 14.31 14.649 99.046-96.752c1.971-1.93 3.082-4.567 3.082-7.327s-1.111-5.397-3.087-7.327l-99.041-96.752zM131.825 119.921l-99.046 96.752c-1.971 1.93-3.082 4.567-3.082 7.327s1.111 5.397 3.087 7.327l99.046 96.752 14.31-14.649-91.55-89.431 91.546-89.431-14.31-14.649zM289.728 389.25l19.781-5.305-87.199-325.195-19.781 5.305 87.199 325.195z" />
<glyph unicode="&#xe620;" d="M483.63 404.357c-24.156 16.026-48.814 24.151-73.288 24.151-76.472 0-121.339-78.090-123.213-81.413-4.014-7.132-3.399-15.97 1.567-22.477s13.317-9.431 21.264-7.44c9.805 2.457 18.34 3.712 25.375 3.712 14.971 0 17.321-5.243 18.452-7.772 2.361-5.248 8.028-26.962-17.899-85.842-16.297-37.007-36.096-67.717-39.629-71.705-1.592-1.567-7.337-6.041-12.702-6.041-1.582 0-38.892 1.961-54.206 173.42-7.148 79.892-41.871 96.66-69.739 96.66-64.441 0-146.55-101.545-155.699-113.121-3.87-4.9-5.294-11.3-3.87-17.377 1.423-6.083 5.55-11.182 11.197-13.844l10.809-5.105c6.846-3.236 14.93-2.427 21.002 2.115 21.689 16.199 33.26 18.396 37.55 18.514 67.85-249.385 85.033-308.936 181.351-308.936l2.55 0.010c81.219 0.784 157.22 108.267 188.488 180.316 58.69 135.255 68.997 216.73 30.643 242.176zM261.934 24.32c-58.526 0-68.889 9.861-143.944 285.762-0.502 1.849-1.26 3.241-2.248 4.874-1.7 2.795-11.106 16.271-33.024 16.957 26.951 25.38 56.627 46.827 76.887 46.827 19.528 0 26.522-33.49 28.938-60.564 12.667-141.804 43.74-211.938 95.001-211.938h0.010c22.487 0 38.635 16.185 41.625 19.175 8.94 8.914 30.92 46.203 46.955 81.997 23.966 53.478 30.592 94.259 19.697 120.612-4.418 10.701-15.447 27.735-41.692 32.43 15.022 13.957 35.615 27.018 60.201 27.018 16.281 0 33.326-5.786 50.652-17.28 3.471-2.304 9.979-21.709-5.171-78.771-12.216-46.034-32.333-93.568-40.418-112.19-42.071-96.932-109.972-154.911-151.306-154.911h-2.166z" />
<glyph unicode="&#xe621;" d="M435.2 101.12h-40.96v66.56c0 11.31-9.17 20.48-20.48 20.48h-32.256c29.138 51.2 59.694 93.082 59.366 132.695-0.758 94.387-58.952 159.36-141.527 159.36h-1.316c-42.778 0-81.162-17.111-108.078-48.61-25.39-29.716-39.173-69.442-38.82-112.886 0.292-36.577 25.488-79.36 54.446-130.56h-27.335c-11.31 0-20.48-9.17-20.48-20.48v-66.56h-40.96c-11.31 0-20.48-9.523-20.48-20.834v-92.16c0-11.31 9.17-20.126 20.48-20.126h358.4c11.31 0 20.48 8.816 20.48 20.126v92.16c0 11.31-9.17 20.834-20.48 20.834zM158.72 147.2c0 0 50.672 0 56.32 0 19.456 0-62.679 137.502-62.951 172.078-0.276 33.572 10.025 63.513 29 85.724 19.364 22.671 46.080 34.248 77.266 34.248h0.988c45.952 0 99.861-30.572 100.567-118.912 0.317-38.154-88.038-173.138-68.070-173.138 7.68 0 61.44 0 61.44 0v-46.080h-194.56v46.080zM414.72 8.96h-317.44v51.2h317.44v-51.2z" />
<glyph unicode="&#xe622;" d="M158.208 329.472h40.96v-200.192h-40.96v200.192zM86.528 308.992h40.96v-179.712h-40.96v179.712zM14.848 241.92h40.96v-112.64h-40.96v112.64zM473.59 260.69c-18.238 10.082-50.617 10.512-70.518 1.68-23.353 59.31-76.39 87.731-152.192 87.731-11.31 0-20.48-9.677-20.48-21.607v-178.243c0-11.93 9.17-21.611 20.48-21.611h240.348c11.31 0 20.48 9.682 20.48 21.611 0 3.707 0.072 7.516 0.138 11.402 0.594 32.553 1.398 77.127-38.257 99.036zM271.36 305.92c55.639-5.438 99.19-24.965 110.080-76.16 1.598-7.526 2.263-11.725 2.56-18.56 0.128-3.031 16.845 8.596 23.040 12.8 14.336 9.728 37.888 9.728 49.664 2.048 13.778-8.99 14.428-28.247 14.31-54.195h-199.654v134.067z" />
<glyph unicode="&#xe623;" d="M467.604 414.945c-7.977 3.006-17.188 0.752-22.815-5.652-0.251-0.287-30.663-29.255-66.903-57.692-46.274-36.311-99.456-55.921-133.662-55.921h-134.835c-42.291 0-76.99-31.283-78.628-71.885-0.026-0.778-0.338-12.267-0.338-13.056v-1.255c0-11.781 0.276-12.18 0.307-12.688 1.643-41.17 36.194-73.421 78.474-73.421l17.142-0.021c5.177-0.005 11.597-0.015 16.717-0.021v-116.48c0-19.758 16.738-35.815 36.992-36.546l5.268-0.015c0.272 0 4.030 0.036 4.224 0.046 20.239 0.773 35.435 16.814 35.435 36.516v116.516c5.12 0.031 9.575 0.062 11.213 0.108l2.238 0.026c62.434 0 175.078-80.195 207.099-111.094 3.897-3.753 9.129-5.745 14.341-5.745 2.698 0 5.883 0.533 8.464 1.628 7.567 3.21 12.944 10.629 12.944 18.846v368.64c0 8.525-5.693 16.159-13.675 19.164zM440.32 72.443c-10.24 9.088-29.691 18.457-44.155 28.815-57.661 41.288-123.054 61.814-171.182 61.814-0.020 0 0 92.16 0 92.16 86.528-0.512 174.377 53.566 215.337 91.070v-273.859z" />
<glyph unicode="&#xe624;" d="M368.64-16.64h-343.040c-5.652 0-10.24 4.587-10.24 10.24v343.040c0 5.652 4.588 10.24 10.24 10.24h133.12v-20.48h-122.88v-322.56h322.56v112.64h20.48v-122.88c0-5.652-4.587-10.24-10.24-10.24zM453.381 421.381c-1.95 1.951-4.798 2.33-7.363 2.299h-184.899v-20.48h160.005l-249.575-249.17 14.48-14.479 249.579 249.579-0.409-154.89h20.48v179.779c0.031 2.76-0.348 5.412-2.299 7.363z" />
<glyph unicode="&#xe625;" d="M191.995-32h-35.609c-36.935 0-90.588 28.615-90.588 73.462 0 64.231-10.583 130.882-22.21 139.847l-22.201 15.856c-5.386 3.845-8.581 10.050-8.581 16.666v21.412c0 6.615 3.195 12.821 8.581 16.666l22.487 16.061c11.341 8.637 21.924 74.782 21.924 138.573 0 20.485 11.653 39.813 32.809 54.425 17.26 11.914 38.861 19.031 57.779 19.031h35.609v-40.96h-35.609c-22.267 0-49.628-17.92-49.628-32.502 0-42.988-3.778-145.776-38.8-171.699l-14.188-10.137v-0.327l13.911-9.933c35.303-26.117 39.081-129.659 39.081-172.974 0-14.582 27.366-32.502 49.628-32.502h35.609v-40.965zM355.615-32h-35.61v40.96h35.61c22.267 0 49.628 17.92 49.628 32.502 0 43.315 3.779 146.857 38.805 172.774l14.188 10.132v0.333l-13.906 9.933c-35.308 26.132-39.086 128.917-39.086 171.904 0 14.582-27.361 32.502-49.628 32.502h-35.61v40.96h35.61c36.935 0 90.588-28.615 90.588-73.462 0-63.79 10.588-129.936 22.216-138.778l22.2-15.857c5.381-3.845 8.576-10.050 8.576-16.666v-21.412c0-6.615-3.195-12.82-8.576-16.666l-22.482-16.062c-11.346-8.76-21.934-75.418-21.934-139.643 0-20.485-11.653-39.813-32.809-54.425-17.26-11.914-38.861-19.031-57.779-19.031z" />
<glyph unicode="&#xe626;" d="M427.52 480h-343.040v-40.96h51.2l-0.512-350.72c0-61.696 61.706-120.32 123.392-120.32s122.88 56.627 122.88 118.318v352.722h46.080v40.96zM340.48 86.318c0-39.106-42.818-77.358-81.92-77.358s-81.92 38.252-81.92 77.358v352.722h163.84v-352.722zM256.005 66.243c17.659 0 30.715 16.691 30.715 37.33v184.489l-61.44 33.731v-218.22c0-20.644 13.066-37.33 30.725-37.33z" />
<glyph unicode="&#xe627;" d="M124.359 334.587c-60.979 0-110.592-49.608-110.592-110.592 0-60.974 49.608-110.582 110.592-110.582 61.041 0 110.7 49.603 110.7 110.582s-49.659 110.592-110.7 110.592zM124.359 154.373c-38.421 0-69.632 31.104-69.632 69.622 0 38.533 31.212 69.632 69.632 69.632 38.502 0 69.739-31.094 69.739-69.632 0-38.512-31.237-69.622-69.74-69.622zM387.64 334.587c-61.041 0-110.7-49.608-110.7-110.592 0-60.974 49.659-110.582 110.7-110.582 60.979 0 110.592 49.603 110.592 110.582s-49.613 110.592-110.592 110.592zM387.64 154.373c-38.528 0-69.74 31.104-69.74 69.622 0 38.533 31.212 69.632 69.74 69.632 38.39 0 69.632-31.094 69.632-69.632 0-38.512-31.242-69.622-69.632-69.622z" />
<glyph unicode="&#xe628;" d="M220.221 138.731l-13.209 15.652 7.823 6.605c18.647 15.744 27.556 37.038 22.692 54.252-10.45 36.962-41.421 51.251-74.215 66.381-35.973 16.599-73.175 33.762-84.603 81.157-4.766 19.748 1.081 41.958 16.031 60.938 17.9 22.722 44.995 36.844 70.718 36.844 0.010 0.005 0.020 0 0.041 0 23.189 0 45.010-8.848 61.435-24.914 16.492-16.133 25.57-37.596 25.57-60.447v-10.24h-20.48v10.24c0 17.29-6.897 33.561-19.41 45.809-12.575 12.298-29.312 19.072-47.119 19.072 0 0-0.010 0-0.020 0 0 0-0.005 0-0.010 0-19.303 0-40.745-11.397-54.641-29.036-11.038-14.013-15.483-29.86-12.206-43.463 9.103-37.755 40.274-52.132 73.278-67.359 33.899-15.642 72.33-33.372 85.346-79.406 7.147-25.313-4.035-54.231-29.189-75.469l-7.828-6.615zM162.191-12.549c-23.194 0-45.015 8.848-61.44 24.914-16.492 16.128-25.57 37.596-25.57 60.447v10.24h20.48v-10.24c0-17.296 6.897-33.562 19.41-45.803 12.575-12.298 29.317-19.077 47.124-19.077 0 0 0.010 0 0.020 0 0 0 0.005 0 0.010 0 19.303 0 40.74 11.397 54.636 29.036 11.038 14.014 15.488 29.854 12.206 43.464-9.103 37.75-40.274 52.137-73.278 67.358-33.9 15.642-72.33 33.367-85.346 79.406-7.148 25.308 4.034 54.226 29.189 75.469l7.818 6.61 13.215-15.647-7.823-6.605c-18.647-15.749-27.55-37.043-22.692-54.251 10.45-36.962 41.421-51.251 74.215-66.381 35.973-16.599 73.175-33.762 84.603-81.157 4.767-19.743-1.081-41.959-16.030-60.938-17.899-22.723-44.994-36.839-70.718-36.839-0.010 0-0.016 0-0.030-0.005z" horiz-adv-x="328" />
<glyph unicode="&#xe629;" d="M366.238 239.887l-144.712 117.76c-6.134 4.987-13.931 5.996-21.059 2.611-7.137-3.4-11.029-10.594-11.029-18.499v-235.52c0-7.906 3.891-15.099 11.029-18.493 2.8-1.331 5.474-1.986 8.464-1.986 4.618 0 9.042 1.567 12.764 4.592l144.63 117.76c4.782 3.891 7.511 9.723 7.511 15.887s-2.821 11.996-7.598 15.887zM230.4 149.31v149.381l91.781-74.691-91.781-74.69z" />
<glyph unicode="&#xe62a;" d="M468.152 407.275c-23.306 33.203-61.696 52.245-105.324 52.245-64.256 0-91.853-34.882-106.818-62.228-25.928 40.802-65.603 62.228-115.794 62.228-41.114 0-75.54-16.773-96.921-47.237-22.523-32.087-26.773-74.486-11.653-116.337 39.040-108.053 209.546-296.162 216.786-304.118 1.94-2.13 4.685-3.344 7.562-3.349h0.010c2.877 0 5.616 1.209 7.557 3.328 7.281 7.957 178.698 196.070 217.733 304.138 14.039 38.856 9.252 79.432-13.138 111.329zM462.029 302.904c-33.127-91.694-171.914-250.649-206.009-288.855-33.956 38.246-171.991 197.166-205.118 288.855-12.82 35.486-9.482 71.060 9.154 97.608 17.439 24.847 45.906 38.528 80.158 38.528 49.214 0 85.228-22.917 107.034-68.111 1.705-3.538 5.289-5.791 9.221-5.791s7.516 2.248 9.221 5.791l1.029 2.135c12.626 26.276 31.698 65.976 96.108 65.976 36.859 0 69.14-15.867 88.555-43.53 18.503-26.358 22.385-60.114 10.644-92.606z" />
<glyph unicode="&#xe62b;" d="M213.72 363.792l20.168-3.56-60.511-342.873-20.168 3.56 60.511 342.873zM82.894 256.66l382.779-141.165-7.086-19.214-382.779 141.166 7.086 19.214zM265.488 356.639c-20.885-21.074-54.917-21.228-75.996-0.323-21.105 20.88-21.233 54.922-0.348 76.027 20.9 21.069 54.938 21.228 76.007 0.333 21.12-20.885 21.253-54.942 0.338-76.037zM257.869 364.221c-16.727-16.86-43.935-16.993-60.815-0.266-16.881 16.701-16.988 43.929-0.281 60.795 16.738 16.875 43.935 16.994 60.825 0.292 16.87-16.722 16.978-43.961 0.272-60.821zM227.328 417.004c5.975 0 11.618-2.32 15.857-6.508 8.822-8.745 8.878-23.035 0.143-31.851-4.27-4.301-9.953-6.671-16.005-6.671-5.975 0-11.607 2.32-15.867 6.538-4.27 4.224-6.636 9.861-6.661 15.872-0.030 6.016 2.288 11.678 6.512 15.949 4.28 4.301 9.969 6.672 16.020 6.672zM227.328 437.483c-11.070 0-22.134-4.249-30.556-12.738-16.712-16.865-16.599-44.094 0.281-60.795 8.392-8.315 19.328-12.462 30.269-12.462 11.065 0 22.134 4.25 30.546 12.728 16.707 16.86 16.599 44.099-0.272 60.821-8.392 8.304-19.333 12.446-30.269 12.446v0zM201.482-13.538c-20.889-21.069-54.922-21.227-76.001-0.322-21.1 20.874-21.227 54.928-0.348 76.027 20.9 21.069 54.937 21.228 76.011 0.327 21.115-20.88 21.258-54.933 0.338-76.032zM193.858-5.954c-16.722-16.86-43.929-16.993-60.81-0.272-16.88 16.707-16.988 43.93-0.281 60.8 16.732 16.87 43.929 16.988 60.821 0.292 16.87-16.722 16.983-43.961 0.272-60.82zM163.318 46.827v0c5.98 0 11.618-2.32 15.857-6.507 8.822-8.745 8.883-23.035 0.143-31.856-4.27-4.301-9.948-6.671-16.005-6.671-5.97 0-11.602 2.32-15.862 6.533-4.27 4.224-6.636 9.866-6.661 15.877-0.030 6.016 2.288 11.678 6.512 15.949 4.275 4.311 9.964 6.676 16.016 6.676zM163.318 67.308c-11.070 0-22.134-4.25-30.551-12.733-16.712-16.87-16.599-44.094 0.281-60.8 8.392-8.31 19.328-12.462 30.264-12.462 11.070 0 22.134 4.25 30.546 12.728 16.712 16.86 16.599 44.099-0.272 60.82-8.392 8.305-19.333 12.447-30.269 12.447v0zM99.6 216.863c-20.88-21.069-54.912-21.228-75.991-0.322-21.11 20.874-21.238 54.928-0.348 76.027 20.9 21.069 54.938 21.227 76.001 0.327 21.13-20.88 21.258-54.933 0.338-76.032zM91.991 224.446c-16.732-16.86-43.94-16.994-60.821-0.272-16.881 16.706-16.988 43.929-0.282 60.8 16.742 16.87 43.94 16.988 60.831 0.292 16.871-16.722 16.973-43.96 0.272-60.82zM61.45 277.227v0c5.975 0 11.617-2.319 15.856-6.507 8.817-8.745 8.878-23.035 0.144-31.852-4.27-4.306-9.954-6.677-16.016-6.677-5.97 0-11.602 2.32-15.862 6.538-4.27 4.224-6.636 9.861-6.661 15.872-0.031 6.016 2.288 11.684 6.508 15.943 4.281 4.311 9.968 6.682 16.031 6.682zM61.45 297.707c-11.069 0-22.139-4.25-30.561-12.733-16.712-16.87-16.599-44.094 0.282-60.8 8.392-8.31 19.328-12.462 30.265-12.462 11.069 0 22.139 4.25 30.556 12.728 16.701 16.86 16.599 44.099-0.272 60.821-8.397 8.304-19.333 12.446-30.27 12.446v0zM488.719 68.894c-20.88-21.069-54.912-21.228-75.991-0.322-21.11 20.874-21.238 54.928-0.348 76.027 20.9 21.069 54.938 21.228 76.001 0.327 21.13-20.88 21.258-54.938 0.338-76.032zM481.111 76.478c-16.732-16.86-43.94-16.993-60.82-0.272-16.88 16.707-16.988 43.93-0.281 60.8 16.743 16.87 43.94 16.988 60.831 0.292 16.87-16.722 16.973-43.966 0.272-60.82zM450.57 129.26v0c5.975 0 11.618-2.32 15.856-6.507 8.817-8.74 8.878-23.035 0.144-31.851-4.27-4.306-9.954-6.676-16.015-6.676-5.97 0-11.602 2.32-15.862 6.533-4.27 4.224-6.635 9.866-6.661 15.877-0.031 6.016 2.288 11.678 6.507 15.944 4.281 4.306 9.969 6.682 16.031 6.682zM450.57 149.74c-11.070 0-22.139-4.25-30.562-12.733-16.712-16.87-16.599-44.094 0.281-60.8 8.392-8.31 19.328-12.462 30.264-12.462 11.070 0 22.139 4.25 30.556 12.728 16.702 16.86 16.599 44.099-0.272 60.82-8.397 8.305-19.333 12.447-30.269 12.447v0z" />
<glyph unicode="&#xe62c;" d="M491.52 382.72h-124.615l-24.428 53.524c-3.031 7.931-10.639 13.036-19.134 13.036h-135.557c-8.546 0-16.19-5.171-19.184-13.174l-23.839-53.386h-124.283c-11.31 0-20.48-9.17-20.48-20.48v-373.755c0-5.438 2.16-10.654 6.006-14.495 3.84-3.83 9.047-5.99 14.474-5.99 0.005 0 0.015 0 0.020 0l471.040 0.512c11.305 0.010 20.459 9.18 20.459 20.48v373.248c0 11.31-9.17 20.48-20.48 20.48zM471.040 9.452l-430.080-0.466v332.774h118.011c8.546 0 16.19 5.171 19.184 13.174l23.839 53.386h107.254l24.428-53.524c3.031-7.931 10.639-13.036 19.128-13.036h118.236v-332.308zM256 300.8c-59.285 0-107.52-48.231-107.52-107.52s48.236-107.52 107.52-107.52 107.52 48.231 107.52 107.52-48.236 107.52-107.52 107.52zM256 124.861c-37.724 0-68.418 30.684-68.418 68.418s30.695 68.418 68.418 68.418 68.418-30.684 68.418-68.418-30.695-68.418-68.418-68.418z" />
<glyph unicode="&#xe62d;" d="M452.992 383.462c-36.593 36.777-136.848 42.266-193.357 42.266l-4.638-0.016c-70.528-0.502-161.659-8.115-195.267-41.554-35.087-34.893-54.482-81.351-54.61-130.826s19.026-96.041 53.929-131.118c19.149-19.262 33.531-24.986 68.546-30.649 0.082-23.183-0.128-70.805-0.343-99.538-0.056-7.705 4.219-14.797 11.064-18.334 2.964-1.541 6.195-2.294 9.411-2.294 4.208 0 8.402 1.296 11.945 3.845l149.125 112.497c39.736 5.043 121.994 12.426 143.472 33.802 35.087 34.877 54.482 81.341 54.61 130.821 0.128 49.475-19.010 96.030-53.888 131.097zM422.4 147.2c-10.506-9.118-73.216-12.288-119.296-17.92-3.415-0.414-9.493-0.553-12.288-2.56l-121.856-94.736c0.399 73.042 0.865 79.933 0 82.995-2.294 8.11-10.85 13.988-19.236 14.812-39.424 3.85-46.382 5.97-61.635 21.31-27.192 27.325-42.112 63.596-42.010 102.124s15.206 74.716 42.537 101.893c17.495 17.408 82.918 29.041 166.672 29.635l4.352 0.016c80.313 0 146.345-12.135 164.316-30.198 27.161-27.305 42.066-63.565 41.969-102.093-0.108-38.543-16.307-78.208-43.525-105.278z" />
<glyph unicode="&#xe62e;" d="M134.272 66.422c-4.649 0-9.195 1.587-12.867 4.546l-117.632 94.955 25.728 31.872 100.040-80.758 156.692 238.914 34.248-22.466-169.088-257.817c-3.169-4.834-8.238-8.105-13.952-9.001-1.054-0.164-2.114-0.246-3.169-0.246z" horiz-adv-x="320" />
<glyph unicode="&#xe62f;" d="M215.040 224c0-28.272-22.928-51.2-51.2-51.2-28.262 0-51.2 22.928-51.2 51.2s22.938 51.2 51.2 51.2c28.273 0 51.2-22.928 51.2-51.2z" horiz-adv-x="320" />
<glyph unicode="&#xe630;" d="M201.385 199.69c-3.533-13.584-9.749-26.050-18.105-36.818l125.020-52.639c1.95 14.003 6.717 27.070 13.737 38.656l-120.653 50.8zM322.038 293.99c-7.019 11.591-11.786 24.653-13.737 38.656l-120.453-50.719c7.47-11.305 12.713-24.187 15.222-38.036l118.969 50.099zM409.6 188.16c-50.816 0-92.16-41.344-92.16-92.16s41.344-92.16 92.16-92.16 92.16 41.344 92.16 92.16-41.344 92.16-92.16 92.16zM409.6 44.8c-28.272 0-51.2 22.917-51.2 51.2s22.928 51.2 51.2 51.2c28.283 0 51.2-22.917 51.2-51.2s-22.917-51.2-51.2-51.2zM409.6 254.72c50.816 0 92.16 41.344 92.16 92.16s-41.344 92.16-92.16 92.16-92.16-41.344-92.16-92.16 41.344-92.16 92.16-92.16zM409.6 398.080c28.283 0 51.2-22.917 51.2-51.2s-22.917-51.2-51.2-51.2c-28.278 0-51.2 22.917-51.2 51.2s22.922 51.2 51.2 51.2zM194.56 224c0 50.816-41.344 92.16-92.16 92.16s-92.16-41.344-92.16-92.16 41.344-92.16 92.16-92.16 92.16 41.344 92.16 92.16zM51.2 224c0 28.283 22.927 51.2 51.2 51.2 28.283 0 51.2-22.917 51.2-51.2s-22.917-51.2-51.2-51.2c-28.272 0-51.2 22.917-51.2 51.2z" />
<glyph unicode="&#xe631;" d="M450.56 448.425v0.010c-0.005 0-0.317-0.021-0.758-0.051 0.338 0.020 0.604 0.036 0.758 0.041zM88.96 438.707c18.145 0 36.388-7.844 36.132-23.286v-101.822c0 0 58.255 0.2 106.496 0.2 24.125 0 45.737-0.051 56.32-0.2 43.166-0.604 44.094-66.581 0-66.852-1.264-0.005-19.779-0.010-43.899-0.010-48.24 0-118.922 0.010-118.922 0.010s0-81.633 0-125.957c0-37.488 92.667-39.998 142.72-39.998 7.705 0 14.397 0.062 19.589 0.062 45.466 0 43.678-69.632 0.302-69.632-0.103 0-0.2 0-0.302 0-0.272 0-0.558 0.005-0.86 0.005-5.058 0-14.208-0.272-26.046-0.272-64.496 0-208.875 7.972-207.59 110.853l0.512 293.601c-0.256 15.616 17.597 23.296 35.548 23.296zM88.96 479.667c-23.808 0-45.44-8.115-59.361-22.267-11.203-11.392-17.28-26.352-17.147-42.173l-0.512-293.14c-0.384-35.42 12.093-66.975 36.086-91.269 39.849-40.351 111.335-60.81 212.465-60.81 7.409 0 13.803 0.103 18.857 0.179 2.928 0.046 5.356 0.092 7.188 0.092l0.543-0.005h0.615c42.26 0 74.132 32.763 74.132 76.211 0 42.952-32 75.341-74.43 75.341-2.396 0-5.104-0.010-8.079-0.026-3.481-0.015-7.347-0.036-11.51-0.036-64.901 0-91.428 6.062-101.76 9.938v74.087l77.962-0.005c24.253 0 42.87 0.005 44.144 0.010 41.707 0.256 73.277 31.934 73.442 73.682 0.164 42.219-31.262 74.496-73.108 75.085-9.554 0.133-28.697 0.205-56.899 0.205-21.816 0-45.829-0.041-65.536-0.087v60.493c0.149 15.724-5.918 30.623-17.106 42.005-14.060 14.295-35.922 22.492-59.986 22.492v0z" />
<glyph unicode="&#xe632;" d="M25.6-24.32c-5.433 0-10.634 2.156-14.474 5.995-3.845 3.84-6.006 9.047-6.006 14.485v281.6c0 11.31 9.17 20.48 20.48 20.48h460.8c11.31 0 20.48-9.17 20.48-20.48v-281.241c0-11.305-9.159-20.47-20.464-20.48l-460.8-0.358c-0.005 0-0.010 0-0.015 0zM46.080 257.28v-240.625l419.84 0.327v240.297h-419.84zM366.080 305.408h-40.96v24.719c0 21.632-13.578 40.75-32.389 45.757-4.352 0.486-21.433 1.044-35.481 1.285-13.506-0.164-29.767-0.532-33.767-0.865-20.905-4.398-36.608-24.141-36.608-46.178v-24.719h-40.96v24.719c0 41.472 30.224 78.649 70.308 86.498 1.828 0.353 5.607 1.090 40.837 1.505 0.2-0.005 0.389 0 0.584-0.005 37.468-0.625 42.219-1.808 44.247-2.304 37.781-9.318 64.185-44.56 64.185-85.688v-24.724z" />
<glyph unicode="&#xe633;" d="M414.72 332.647v126.874c0 11.31-8.146 20.48-19.456 20.48h-276.48c-11.31 0-21.504-9.17-21.504-20.48v-126.874c0-15.749 10.010-36.551 78.879-81.726 14.919-9.79 29.968-18.796 42.137-25.979-12.359-7.276-27.443-16.522-42.778-26.583-68.869-45.174-78.239-65.976-78.239-81.726v-126.874c0-11.31 9.17-21.76 20.48-21.76h276.48c11.31 0 20.48 10.45 20.48 21.76v126.874c0 15.662-9.493 36.388-78.356 81.623-14.956 9.82-29.783 18.873-41.974 26.082 12.375 7.301 27.106 16.589 42.486 26.685 68.864 45.23 77.844 65.961 77.844 81.623zM373.76 115.041v-65.122h-235.52v65.173c6.61 14.014 58.762 51.21 117.744 84.224 58.921-33.086 111.068-70.293 117.776-84.275zM255.984 249.964c-58.982 33.014-112.624 70.21-117.744 84.224v63.892h235.52v-63.841c-5.12-13.983-58.855-51.19-117.775-84.275z" />
<glyph unicode="&#xe634;" d="M414.72 382.72v-317.44h-317.44v317.44h317.44zM414.72 403.2h-317.44c-11.31 0-20.48-9.17-20.48-20.48v-317.44c0-11.31 9.17-20.48 20.48-20.48h317.44c11.31 0 20.48 9.17 20.48 20.48v317.44c0 11.31-9.17 20.48-20.48 20.48v0z" />
<glyph unicode="&#xe635;" d="M146.975-30.106c-0.005 0-0.016 0.005-0.030 0-54.139 0-98.201 43.3-98.222 96.528l-0.005 20.48 40.96 0.015 0.005-20.48c0.010-30.649 25.707-55.582 57.273-55.582 0.010 0 0.010 0 0.016 0 17.101 0 36.792 10.834 48.999 26.967 5.007 6.615 12.836 19.728 9.037 33.193-10.803 38.206-42.368 88.397-72.894 136.935-34.427 54.733-70.021 111.329-81.433 158.674-5.55 23.024 1.050 48.655 18.109 70.323 19.998 25.39 50.478 41.165 79.55 41.165 0.025-0.005 0.025 0 0.036 0 26.137 0 50.745-9.979 69.274-28.109 18.657-18.248 28.928-42.553 28.928-68.429v-20.48h-40.96v20.48c0 14.766-5.898 28.672-16.614 39.153-10.829 10.583-25.262 16.42-40.637 16.42-0.010 0-0.025 0-0.020 0-16.563 0-35.154-10.025-47.376-25.544-9.246-11.74-13.061-24.637-10.471-35.379 9.841-40.822 43.623-94.531 76.288-146.468 33.546-53.335 65.229-103.716 77.635-147.605 6.395-22.625 0.784-47.145-15.79-69.048-19.865-26.245-51.917-43.202-81.654-43.207z" horiz-adv-x="288" />
<glyph unicode="&#xe636;" d="M486.507-26.88h-256v40.96h235.52v419.84h-235.52v40.96h256c11.31 0 20.48-9.17 20.48-20.48v-460.8c0-11.31-9.17-20.48-20.48-20.48zM155.474 76.257l-137.81 134.625c-3.942 3.856-6.169 9.134-6.169 14.649s2.227 10.793 6.169 14.649l137.81 134.631 28.621-29.297-122.814-119.977 122.814-119.982-28.621-29.296zM53.76 246.016h371.2v-40.96h-371.2v40.96z" />
<glyph unicode="&#xe637;" d="M158.73 127.897c-21.059 20.93-55.081 20.982-76.068-0.005-20.962-21.012-20.946-55.050-0.005-76.048 20.987-20.935 55.004-20.987 76.093 0.005 20.966 20.987 20.951 55.019-0.020 76.048zM465.92 75.52h-40.96v18.964c0 163.707-133.591 298.476-297.344 298.476h-20.096v40.96h20.096c186.338 0 338.304-153.144 338.304-339.435v-18.964zM368.64 75.52h-40.96v18.964c0 109.005-91.013 196.075-200.069 196.075h-20.48l0.010 40.96h20.48c131.63 0 241.019-105.447 241.019-237.036v-18.964zM225.28 74.005v20.48c0 54.313-43.335 98.796-97.664 98.796h-20.096v40.96h20.096c76.908 0 138.624-62.858 138.624-139.746v-20.48l-40.96-0.010z" />
<glyph unicode="&#xe638;" d="M255.877 367.36c47.739 0 94.407-23.834 121.62-67.308 41.994-67.056 21.688-155.525-45.42-197.54-23.649-14.807-49.956-21.873-75.94-21.873-47.744 0-94.407 23.834-121.61 67.277-42.041 67.103-21.709 155.546 45.399 197.565 23.654 14.807 49.961 21.878 75.95 21.878zM255.887 408.32v0h-0.010c-34.535-0.005-68.311-9.728-97.685-28.124-41.728-26.133-70.784-66.939-81.813-114.913-11.023-47.98-2.704-97.388 23.439-139.111 33.904-54.159 92.344-86.492 156.318-86.492 34.529 0 68.306 9.723 97.674 28.119 41.723 26.122 70.774 66.934 81.808 114.918 11.024 47.975 2.709 97.372-23.409 139.075-33.915 54.18-92.355 86.528-156.324 86.528v0zM325.099 185.836l-76.8 0.082c-5.438 0.005-10.639 2.171-14.48 6.016-3.835 3.845-5.986 9.058-5.98 14.49l0.128 109.762 40.96-0.051-0.108-89.282 56.315-0.061-0.036-40.955z" />
<glyph unicode="&#xe639;" d="M240.64 252.16h-148.48c-11.31 0-20.48 9.17-20.48 20.48v148.48h40.96v-128h128v-40.96zM255.744 36.096c-77.338 0-147 48.839-173.338 121.529-4.055 11.187-7.025 22.825-8.837 34.596l-0.236 3.108v24.064h40.96v-22.441c1.418-8.632 3.645-17.157 6.62-25.37 20.485-56.54 74.67-94.526 134.83-94.526 79.047 0 143.36 64.313 143.36 143.36s-64.313 143.36-143.36 143.36c-58.532 0-110.643-34.995-132.772-89.154l-7.746-18.959-37.913 15.488 7.746 18.959c28.447 69.632 95.447 114.627 170.685 114.627 101.637 0 184.32-82.683 184.32-184.32s-82.683-184.32-184.32-184.32z" />
<glyph unicode="&#xe63a;" d="M251.228 170.993c82.038 0 148.562-71.623 148.562-159.984h-297.124c0 88.361 66.524 159.985 148.562 159.985zM251.228 211.952c-104.505 0-189.522-90.142-189.522-200.945 0-22.62 18.34-40.96 40.96-40.96h297.124c22.62 0 40.96 18.34 40.96 40.96 0 110.802-85.017 200.945-189.522 200.945v0zM251.223 415.488c35.18 0 63.673-28.493 63.673-63.667s-28.493-63.673-63.673-63.673c-35.169 0-63.662 28.493-63.662 63.673 0 35.174 28.498 63.667 63.662 63.667zM251.223 456.448c-57.692 0-104.622-46.935-104.622-104.627 0-57.697 46.935-104.633 104.622-104.633 57.697 0 104.632 46.935 104.632 104.633 0 57.692-46.935 104.627-104.632 104.627v0z" />
<glyph unicode="&#xe63b;" d="M97.275 480c-53.642 0-97.275-43.638-97.275-97.28s43.633-97.28 97.275-97.28h20.485v-317.44h40.96v471.040h66.56v-471.040h40.96v471.040h51.2v40.96h-220.165z" horiz-adv-x="320" />
<glyph unicode="&#xe63c;" d="M92.16 203.52v40.96h327.68v-40.96h-327.68zM405.284 120.32l-134.81-134.8c-3.84-3.845-9.052-6-14.48-6-5.433 0-10.639 2.161-14.484 6l-134.794 134.799 28.964 28.964 120.315-120.32 120.325 120.32 28.964-28.964zM405.284 327.68l-28.964-28.964-120.325 120.32-120.315-120.32-28.964 28.964 134.794 134.8c3.84 3.84 9.052 6 14.484 6s10.639-2.156 14.479-6l134.81-134.8z" />
<glyph unicode="&#xe63d;" d="M235.52 387.84h40.96v-327.68h-40.96v327.68zM152.32 74.716l-134.799 134.81c-3.845 3.84-6 9.052-6 14.48 0 5.432 2.16 10.639 6 14.484l134.799 134.794 28.964-28.964-120.32-120.315 120.32-120.325-28.964-28.964zM359.68 74.716l-28.964 28.964 120.32 120.325-120.32 120.315 28.964 28.964 134.8-134.794c3.84-3.84 6-9.052 6-14.484s-2.156-10.639-6-14.479l-134.799-134.81z" />
<glyph unicode="&#xe63e;" d="M263.68 328.96c-49.403 0-89.6-40.197-89.6-89.605 0-49.403 40.197-89.595 89.6-89.595s89.6 40.192 89.6 89.595c0 49.408-40.197 89.605-89.6 89.605zM263.68 190.72c-26.875 0-48.64 21.781-48.64 48.635 0 26.87 21.765 48.645 48.64 48.645 26.829 0 48.64-21.775 48.64-48.645 0-26.855-21.811-48.635-48.64-48.635zM488.207 248.893c-1.203 1.572-29.911 38.912-69.904 76.595-58.332 54.963-111.216 82.832-157.184 82.832-46.106 0-98.873-26.798-161.321-81.935-42.425-37.453-73.585-74.537-74.89-76.099-12.729-15.212-12.729-37.361 0-52.577 1.305-1.562 32.466-38.641 74.89-76.099 62.448-55.132 115.215-81.93 161.321-81.93 45.967 0 98.852 27.868 157.179 82.832 39.998 37.683 68.7 75.024 69.904 76.595 11.248 14.69 11.248 35.097 0.005 49.787zM261.12 80.64c-84.834 0-204.8 143.36-204.8 143.36s119.966 143.36 204.8 143.36c84.828 0 194.56-143.36 194.56-143.36s-109.732-143.36-194.56-143.36z" />
<glyph unicode="&#xe63f;" d="M491.52 88.32h-322.56c-11.31 0-20.48 9.17-20.48 20.48v353.28c0 11.31 9.17 20.48 20.48 20.48h322.56c11.31 0 20.48-9.17 20.48-20.48v-353.28c0-11.31-9.17-20.48-20.48-20.48zM189.44 129.28h281.6v312.32h-281.6v-312.32zM343.040-29.44h-321.536c-11.31 0-20.48 9.17-20.48 20.48v355.84c0 11.31 9.17 20.48 20.48 20.48h101.376v-40.96h-80.896v-314.88h280.576v58.88h40.96v-79.36c0-11.31-9.17-20.48-20.48-20.48zM235.52 382.208h184.32v-40.96h-184.32v40.96zM235.52 305.408h184.32v-40.96h-184.32v40.96zM235.52 226.56h184.32v-40.96h-184.32v40.96z" />
<glyph unicode="&#xe640;" d="M394.245-32.292c-4.992 0-9.913 1.817-13.757 5.304l-124.56 112.829-124.498-111.606c-6.016-5.397-14.638-6.748-22.021-3.451-7.378 3.298-12.129 10.624-12.129 18.704v470.031c0 11.31 9.17 20.48 20.48 20.48h276.48c11.31 0 20.48-9.17 20.48-20.48v-471.332c0-8.1-4.777-15.437-12.18-18.724-2.663-1.183-5.488-1.756-8.295-1.756zM256 133.888c4.925 0 9.851-1.767 13.752-5.305l104.007-94.213v404.67h-235.52v-403.692l104.090 93.307c3.891 3.492 8.781 5.233 13.671 5.233z" />
<glyph unicode="&#xe641;" d="M256 375.040c-49.403 0-89.6-40.197-89.6-89.6s40.197-89.6 89.6-89.6 89.6 40.197 89.6 89.6-40.197 89.6-89.6 89.6zM256 236.8c-26.855 0-48.64 21.77-48.64 48.64s21.786 48.64 48.64 48.64c26.87 0 48.64-21.77 48.64-48.64s-21.77-48.64-48.64-48.64zM256 474.88c-101.637 0-184.32-87.281-184.32-194.56 0-43.745 25.564-104.924 78.147-187.024 36.516-57.011 72.519-102.697 74.035-104.612 7.772-9.831 19.609-15.565 32.138-15.565s24.366 5.735 32.138 15.565c1.515 1.915 37.519 47.601 74.035 104.612 52.582 82.099 78.147 143.278 78.147 187.024 0 107.279-82.683 194.56-184.32 194.56zM256 14.080c0 0-143.36 181.412-143.36 266.24 0 84.834 64.179 153.6 143.36 153.6s143.36-68.766 143.36-153.6c0-84.828-143.36-266.24-143.36-266.24z" />
<glyph unicode="&#xe642;" d="M276.48 102.17v234.476c-3.077-1.090-6.247-2.012-9.559-2.611-10.911-1.976-21.648-0.886-31.401 2.575v-234.465c3.072 1.086 6.231 2.007 9.538 2.606 10.916 1.971 21.663 0.88 31.421-2.58zM303.862 403.154c-4.803 26.419-30.085 43.966-56.535 39.188-26.434-4.792-43.986-30.090-39.173-56.525 4.772-26.435 30.080-43.981 56.514-39.204 26.425 4.792 43.981 30.090 39.193 56.54zM247.327 92.15c-26.435-4.793-43.986-30.090-39.173-56.53 4.772-26.43 30.080-43.981 56.514-39.199 26.425 4.793 43.986 30.090 39.193 56.54-4.803 26.419-30.085 43.961-56.535 39.188zM455.68 102.164v102.876c0 11.31-9.17 19.471-20.48 19.471h-358.4c-11.31 0-20.48-8.161-20.48-19.471v-102.902c3.072 1.091 6.231 2.012 9.538 2.611 10.916 1.971 21.663 0.88 31.421-2.586v81.387h317.44v-81.408c3.072 1.086 6.231 2.007 9.538 2.606 10.916 1.971 21.663 0.88 31.421-2.586zM426.522 92.15c-26.435-4.793-43.986-30.090-39.173-56.53 4.772-26.43 30.080-43.981 56.514-39.199 26.425 4.793 43.986 30.090 39.194 56.54-4.798 26.419-30.085 43.961-56.535 39.188zM68.126 92.15c-26.434-4.793-43.986-30.090-39.173-56.53 4.772-26.43 30.080-43.981 56.514-39.199 26.424 4.793 43.986 30.090 39.194 56.54-4.802 26.419-30.085 43.961-56.535 39.188z" />
<glyph unicode="&#xe643;" d="M256 474.88c-101.637 0-184.32-87.281-184.32-194.56 0-43.745 25.564-104.924 78.147-187.024 36.516-57.011 72.519-102.697 74.035-104.612 7.772-9.831 19.609-15.565 32.138-15.565s24.366 5.735 32.138 15.565c1.515 1.915 37.519 47.601 74.035 104.612 52.582 82.099 78.147 143.278 78.147 187.024 0 107.279-82.683 194.56-184.32 194.56zM256 14.080c0 0-143.36 181.412-143.36 266.24 0 84.834 64.179 153.6 143.36 153.6s143.36-68.766 143.36-153.6c0-84.828-143.36-266.24-143.36-266.24zM276.48 377.6h-40.96v-66.56h-66.56v-40.96h66.56v-66.56h40.96v66.56h66.56v40.96h-66.56z" />
<glyph unicode="&#xe644;" d="M414.72 403.2h-317.44c-11.31 0-20.48-9.17-20.48-20.48v-317.44c0-11.31 9.17-20.48 20.48-20.48h317.44c11.31 0 20.48 9.17 20.48 20.48v317.44c0 11.31-9.17 20.48-20.48 20.48z" />
<glyph unicode="&#xe645;" d="M486.4-16.64h-460.8c-5.652 0-10.24 4.587-10.24 10.24v256h20.48v-245.76h440.32v245.76h20.48v-256c0-5.652-4.587-10.24-10.24-10.24zM376.151 203.945l-109.911-112.507v357.842h-20.48v-357.842l-109.911 112.507-14.648-14.31 127.472-130.483c1.93-1.976 4.567-3.087 7.327-3.087s5.397 1.111 7.327 3.087l127.472 130.483-14.649 14.31z" />
<glyph unicode="&#xe646;" d="M195.84 428.8c79.181 0 143.36-64.174 143.36-143.36 0-79.155-64.179-143.36-143.36-143.36s-143.36 64.205-143.36 143.36c0 79.186 64.179 143.36 143.36 143.36zM195.84 469.76c-101.637 0-184.32-82.683-184.32-184.32s82.683-184.32 184.32-184.32 184.32 82.683 184.32 184.32-82.683 184.32-184.32 184.32v0zM330.421 185.788l174.077-174.077-36.204-36.204-174.077 174.077 36.204 36.204z" />
<glyph unicode="&#xe647;" d="M107.52 305.92h174.080v-40.96h-174.080v40.96zM194.56 428.8c79.181 0 143.36-64.174 143.36-143.36 0-79.155-64.179-143.36-143.36-143.36s-143.36 64.205-143.36 143.36c0 79.186 64.179 143.36 143.36 143.36zM194.56 469.76c-101.637 0-184.32-82.683-184.32-184.32s82.683-184.32 184.32-184.32 184.32 82.683 184.32 184.32-82.683 184.32-184.32 184.32v0zM330.421 185.788l174.077-174.077-36.204-36.204-174.077 174.077 36.204 36.204z" />
<glyph unicode="&#xe648;" d="M194.56 428.8c79.181 0 143.36-64.174 143.36-143.36 0-79.155-64.179-143.36-143.36-143.36s-143.36 64.205-143.36 143.36c0 79.186 64.179 143.36 143.36 143.36zM194.56 469.76c-101.637 0-184.32-82.683-184.32-184.32s82.683-184.32 184.32-184.32 184.32 82.683 184.32 184.32-82.683 184.32-184.32 184.32v0zM330.421 185.788l174.077-174.077-36.204-36.204-174.077 174.077 36.204 36.204zM107.52 305.92h174.080v-40.96h-174.080v40.96zM174.080 372.48h40.96v-174.080h-40.96v174.080z" />
<glyph unicode="&#xe649;" d="M485.335 360.428l-92.027 86.891c-7.9 7.455-18.007 11.177-28.119 11.177-10.348 0-20.685-3.897-28.636-11.673l-299.653-292.992c-6.861-6.707-11.146-15.606-12.114-25.149l-10.24-100.864c-1.168-11.49 2.57-22.938 10.291-31.524 7.726-8.586 18.709-12.938 30.254-12.995l103.091 0.062c0.071 0 0.138 0 0.205 0 11.065 0 21.657 3.901 29.374 11.837l298.829 307.19c7.639 7.864 11.812 18.32 11.577 29.286-0.236 10.957-4.854 21.227-12.831 28.754zM55.296 23.68l10.24 100.864 3.456 3.379 96.476-97.464-7.081-7.286-103.091 0.507zM194.023 59.837l-95.744 96.722 266.911 260.976 92.027-86.892-263.193-270.807z" />
<glyph unicode="&#xe64a;" d="M486.4-26.88h-256v40.96h235.52v419.84h-235.52v40.96h256c11.31 0 20.48-9.17 20.48-20.48v-460.8c0-11.31-9.17-20.48-20.48-20.48zM269.486 74.721l-28.621 29.296 122.814 119.982-122.814 119.982 28.621 29.297 137.81-134.631c3.942-3.856 6.17-9.134 6.17-14.648s-2.227-10.793-6.17-14.649l-137.81-134.63zM0 244.48h371.2v-40.96h-371.2v40.96z" />
<glyph unicode="&#xe64b;" d="M491.52 326.4h-81.92v77.824c0 11.31-6.61 19.456-17.92 19.456h-256c-11.31 0-23.040-8.146-23.040-19.456v-77.824h-92.16c-11.31 0-20.48-10.706-20.48-22.016v-204.8c0-11.31 9.17-18.944 20.48-18.944h128v40.96h-107.52v163.84h430.080v-163.84h-102.4v-40.96h122.88c11.31 0 20.48 7.634 20.48 18.944v204.8c0 11.31-9.17 22.016-20.48 22.016zM368.64 326.4h-215.040v56.32h215.040v-56.32zM368.64 131.84v-122.88h-215.040v122.88h215.040zM368.64 172.8h-215.040c-22.62 0-40.96-18.34-40.96-40.96v-122.88c0-22.62 18.34-40.96 40.96-40.96h215.040c22.62 0 40.96 18.34 40.96 40.96v122.88c0 22.62-18.34 40.96-40.96 40.96v0z" />
<glyph unicode="&#xe64c;" d="M106.496 49.92h297.984c11.31 0 20.48 9.17 20.48 20.48v194.56c0 8.571-5.335 16.236-13.373 19.205s-17.075 0.63-22.656-5.878l-79.959-93.286-60.012 42.864c-8.381 5.995-19.911 4.823-26.921-2.739l-130.56-140.8c-5.54-5.97-7.010-14.654-3.753-22.118s10.624-12.288 18.77-12.288zM239.815 184.059l60.601-43.284c8.627-6.164 20.546-4.721 27.454 3.338l56.13 65.485v-118.717h-230.584l86.4 93.179zM144.891 242.944c26.875 0 48.645 21.775 48.645 48.64s-21.76 48.64-48.645 48.64c-26.808 0-48.635-21.776-48.635-48.64s21.822-48.64 48.635-48.64zM471.040 423.68h-430.080c-22.62 0-40.96-18.34-40.96-40.96v-373.76c0-22.62 18.34-40.96 40.96-40.96h430.080c22.62 0 40.96 18.34 40.96 40.96v373.76c0 22.62-18.34 40.96-40.96 40.96zM471.040 8.96h-430.080v373.76h430.080v-373.76z" />
<glyph unicode="&#xe64d;" d="M500.9 187.981l-231.966 279.501c-3.891 4.69-9.666 7.399-15.76 7.399-0.041 0-0.087 0-0.123 0-6.134-0.036-11.929-2.826-15.79-7.588l-226.314-279.501c-4.971-6.139-5.97-15.632-2.57-22.753 3.399-7.132 10.588-12.718 18.483-12.718h70.421v-158.608c0-11.305 10.445-20.475 21.75-20.48l267.52-0.113c0.005 0 0.010 0 0.010 0 5.433 0 9.36 2.156 13.2 5.995s4.721 9.047 4.721 14.485v158.72h80.661c7.941 0 15.166 5.642 18.539 12.825 3.369 7.183 2.288 16.722-2.78 22.835zM386.56 193.28c-11.31 0-23.040-7.070-23.040-18.381v-160.809l-225.28 0.098v160.712c0 11.31-6.61 18.381-17.92 18.381h-50.524l183.572 226.714 188.16-226.714h-54.969z" />
<glyph unicode="&#xe64e;" d="M124.615-32c-0.010 0-0.010 0.005-0.031 0-54.139 0-98.201 43.3-98.222 96.527l-0.005 20.48 40.96 0.015 0.005-20.48c0.010-30.649 25.703-55.582 57.267-55.582 0.010 0 0.010 0 0.016 0 17.101 0 36.792 10.834 48.999 26.967 5.007 6.615 12.836 19.728 9.037 33.193-10.803 38.206-42.368 88.397-72.894 136.935-34.422 54.733-70.016 111.329-81.433 158.669-5.55 23.024 1.050 48.655 18.109 70.323 19.999 25.39 50.478 41.165 79.549 41.165 0.016-0.005 0.025 0 0.036 0 26.137 0 50.745-9.979 69.274-28.109 18.657-18.248 28.928-42.553 28.928-68.429v-20.48h-40.96v20.48c0 14.766-5.898 28.672-16.614 39.153-10.823 10.588-25.257 16.425-40.632 16.425-0.010 0-0.025 0-0.020 0-16.563 0-35.154-10.025-47.376-25.544-9.246-11.74-13.061-24.637-10.471-35.379 9.841-40.822 43.623-94.531 76.288-146.468 33.546-53.335 65.229-103.716 77.635-147.605 6.395-22.625 0.784-47.145-15.79-69.048-19.865-26.25-51.917-43.207-81.654-43.207zM351.191 338.841c-21.56 0-43.356-11.172-66.637-34.145-5.755-5.678-7.629-14.213-4.782-21.781 1.459-3.881 2.939-7.962 4.393-12.078-27.561 17.152-73.764 39.834-117.898 33.587-28.18-3.988-28.027-7.209-52.603-26.665l20.992-35.84c10.685 15.391 20.644 19.559 37.269 21.929 18.709 2.662 39.828-2.975 58.936-11.182-1.173-0.763-2.304-1.618-3.318-2.631-28.436-28.436-37.811-55.746-27.863-81.172 27.115-69.305 201.416-79.642 236.083-81.014 0.272-0.010 0.538-0.015 0.809-0.015 5.468 0 10.721 2.186 14.577 6.093 4.045 4.101 6.18 9.712 5.873 15.462-2.022 38.323-16.62 229.453-105.831 229.453zM237.819 183.793c-3.308 8.458 3.358 19.272 10.675 28.16 17.987-5.135 48.619-13.553 63.646-13.553 0.010 0 0.021 0 0.031 0 2.893 0 11.546 0.368 18.519 6.318 9.733 8.31 14.684 17.091-7.762 79.365 13.384 11.034 22.584 13.712 28.262 13.712 32.43 0 55.962-91.131 63.222-167.737-80.932 6.041-166.052 26.783-176.594 53.735z" />
<glyph unicode="&#xe64f;" d="M0 8.96h512v-40.96h-512v40.96zM143.36 439.040c0 11.31-9.17 20.48-20.48 20.48h-102.4c-11.31 0-20.48-9.17-20.48-20.48v-363.52c0-11.31 9.17-20.48 20.48-20.48h102.4c11.31 0 20.48 9.17 20.48 20.48v363.52zM40.96 418.56h61.44v-322.56h-61.44v322.56zM327.68 341.76c0 11.31-9.17 20.48-20.48 20.48h-102.4c-11.31 0-20.48-9.17-20.48-20.48v-266.24c0-11.31 9.17-20.48 20.48-20.48h102.4c11.31 0 20.48 9.17 20.48 20.48v266.24zM225.28 321.28h61.44v-225.28h-61.44v225.28zM512 213.76c0 11.31-9.17 20.48-20.48 20.48h-102.4c-11.31 0-20.48-9.17-20.48-20.48v-138.24c0-11.31 9.17-20.48 20.48-20.48h102.4c11.31 0 20.48 9.17 20.48 20.48v138.24zM471.040 96h-61.44v97.28h61.44v-97.28z" />
<glyph unicode="&#xe650;" d="M359.086 74.721l-28.621 29.296 122.813 119.982-122.813 119.982 28.621 29.297 137.81-134.631c3.947-3.856 6.17-9.134 6.17-14.648s-2.227-10.793-6.17-14.649l-137.81-134.63zM11.776 244.48h449.024v-40.96h-449.024v40.96z" />
<glyph unicode="&#xe651;" d="M450.56 448.425v0.010c-0.005 0-0.317-0.021-0.758-0.051 0.338 0.020 0.604 0.036 0.758 0.041zM466.56 436.587v-53.785c-0.092 0-0.185 0-0.276 0-58.957 0.005-68.844-60.416-68.844-60.416v-55.065h71.68v-51.2h-71.68v-204.708h-56.32v204.708h-76.8v51.2h76.8v53.34c0 103.936 125.44 115.927 125.44 115.927zM466.56 477.548c-1.296 0-2.596-0.062-3.901-0.185-3.998-0.384-40.197-4.291-77.424-23.27-54.861-27.971-85.074-75.362-85.074-133.433v-12.38h-35.84c-22.62 0-40.96-18.34-40.96-40.96v-51.2c0-22.62 18.34-40.96 40.96-40.96h35.84v-163.748c0-22.62 18.34-40.96 40.96-40.96h56.32c22.62 0 40.96 18.34 40.96 40.96v163.748h30.72c22.62 0 40.96 18.34 40.96 40.96v51.2c0 22.62-18.34 40.96-40.96 40.96h-30.72v9.697c2.325 8.878 9.047 23.87 27.878 23.865 0.046 0 0.092 0 0.133 0 10.839 0 21.31 4.296 28.99 11.95 7.711 7.685 12.114 18.125 12.114 29.010v53.785c0 11.541-4.869 22.548-13.409 30.311-7.567 6.881-17.408 10.649-27.546 10.649v0z" />
<glyph unicode="&#xe652;" d="M295.941-26.88c-5.299 0-10.512 2.053-14.418 5.929l-254.966 261.335c-4.173 4.142-6.37 9.866-6.032 15.728l1.433 184.96c0.599 10.347 8.827 18.616 19.17 19.261l191.032 1.746c5.939 0.374 11.838-1.894 16.005-6.211l251.428-249.897c5.606-5.801 7.286-14.356 4.281-21.847-3-7.49-10.122-12.519-18.181-12.851l-167.301-6.764-1.981-171.151c-0.098-8.223-5.099-15.596-12.708-18.714-2.509-1.024-5.146-1.526-7.762-1.526zM61.952 262.978l214.062-220.81 1.649 142.254c0.123 10.901 8.76 19.789 19.651 20.229l141.082 5.704-213.115 210.253-163.476-0.026 0.148-157.604zM220.672 312.586c0-26.863-21.777-48.64-48.64-48.64s-48.64 21.777-48.64 48.64c0 26.863 21.777 48.64 48.64 48.64s48.64-21.777 48.64-48.64z" />
<glyph unicode="&#xe653;" d="M417.674-26.88c-3.758 0-7.526 1.029-10.86 3.113l-150.231 93.936-145.413-93.778c-7.178-4.634-16.492-4.327-23.347 0.793-6.856 5.115-9.81 13.947-7.414 22.154l48.368 165.724-116.726 118.057c-5.811 5.878-7.516 14.669-4.337 22.292 3.184 7.624 10.64 12.59 18.898 12.59h147.609l63.437 144.63c3.267 7.44 10.624 12.247 18.755 12.247 0.015 0 0.031 0 0.046 0 8.151-0.021 15.509-4.864 18.75-12.339l62.633-144.599h147.538c8.248 0 15.693-4.951 18.882-12.56s1.51-16.384-4.27-22.272l-115.64-117.76 52.823-165.524c2.611-8.187-0.159-17.132-6.942-22.4-3.676-2.857-8.11-4.306-12.56-4.306zM256.414 114.908c3.763 0 7.536-1.039 10.86-3.113l113.915-71.229-39.603 124.094c-2.309 7.24-0.425 15.155 4.894 20.577l90.091 91.74h-112.179c-8.166 0-15.55 4.849-18.796 12.339l-49.3 113.822-49.94-113.853c-3.267-7.445-10.624-12.252-18.755-12.252h-111.939l90.716-91.75c5.227-5.289 7.178-13 5.095-20.137l-36.357-124.575 110.198 71.070c3.374 2.176 7.239 3.267 11.1 3.267z" />
<glyph unicode="&#xe654;" d="M62.428 354.308l231.768-231.637-28.954-28.971-231.768 231.637 28.954 28.971zM265.197 354.339l28.963-28.963-231.702-231.702-28.963 28.963 231.702 231.702z" horiz-adv-x="320" />
<glyph unicode="&#xe655;" d="M147.251 12.615c-20.505 0-41.031 7.47-57.303 22.512-0.558 0.522-5.883 5.847-9.134 9.103l-2.253 2.258c-0.701 0.702-10.87 10.921-11.474 11.577-30.858 33.392-29.84 84.803 2.365 117.007l66.98 66.98 28.959-28.964-66.975-66.974c-16.589-16.589-17.121-43.070-1.213-60.283 0.993-1.024 9.692-9.748 10.26-10.317l2.35-2.355c2.837-2.841 7.383-7.409 8.207-8.207 16.937-15.642 43.418-15.114 60.011 1.479l66.98 66.974 28.959-28.964-66.98-66.969c-16.522-16.543-38.124-24.858-59.74-24.858zM317.596 314.599l28.963-28.963-152.055-152.055-28.963 28.963 152.055 152.055zM375.567 206.024l-28.964 28.959 66.98 66.985c16.589 16.589 17.122 43.065 1.209 60.272-0.845 0.871-6.743 6.738-9.195 9.18l-1.116 1.106c-0.563 0.568-9.175 9.17-10.466 10.409-17.065 15.78-43.541 15.242-60.13-1.351l-66.98-66.985-28.964 28.964 66.985 66.98c32.2 32.21 83.62 33.234 117.043 2.329 0.594-0.533 4.51-4.413 11.479-11.382l1.039-1.040c9.682-9.636 9.989-9.974 10.496-10.537 30.781-33.29 29.762-84.7-2.442-116.91l-66.974-66.98z" />
<glyph unicode="&#xe656;" d="M184.069 126.715l-94.72 0.005c-45.553 0-82.632 35.63-84.413 81.122-0.026 0.819-0.026 10.701-0.016 14.684v1.48c0 0.901 0.030 15.201 0.061 16.087 1.802 45.563 38.882 81.193 84.418 81.193h115.2v-40.96h-115.2c-23.46 0-42.557-18.345-43.484-41.769-0.016-1.285-0.036-13.742-0.036-14.551v-1.552c-0.005-3.517-0.020-12.012 0-13.363 0.901-23.065 20.004-41.411 43.469-41.411l94.72-0.005v-40.96zM148.48 244.48h215.040v-40.96h-215.040v40.96zM327.741 126.715l-0.005 40.96 94.725 0.005c23.46 0 42.558 18.345 43.474 41.769 0.015 1.198-0.005 9.529-0.010 12.995v1.562c0 0.804-0.005 13.015-0.041 14.776-0.911 23.198-20.014 41.543-43.479 41.543h-115.205v40.96h115.2c45.548 0 82.632-35.63 84.413-81.116 0.057-1.178 0.067-10.639 0.067-16.164v-1.469c0.031-13.65 0.010-14.126-0.026-14.853-1.776-45.332-38.851-80.962-84.393-80.962l-94.72-0.005z" />
<glyph unicode="&#xe657;" d="M488.453 281.948l-68.505 6.907 44.933 55.010c6.651 8.141 6.057 19.999-1.377 27.438l-56.668 56.658c-7.445 7.44-19.298 8.038-27.438 1.377l-55.7-45.507-7.255 71.424c-1.080 10.44-9.877 19.625-20.373 19.625h-80.138c-10.496 0-19.292-9.185-20.373-19.625l-6.953-67.922-52.5 42.353c-8.146 6.62-19.973 5.852-27.397-1.567l-56.668-56.745c-7.424-7.424-8.033-19.292-1.413-27.433l44.487-54.763-71.567-7.219c-10.46-1.054-18.427-9.871-18.427-20.388v-80.138c0-10.517 7.962-19.323 18.427-20.377l70.677-7.122-43.561-53.325c-6.651-8.146-6.057-20.004 1.377-27.438l56.663-56.668c7.434-7.434 19.298-8.028 27.438-1.382l52.777 43.111 6.641-65.49c1.081-10.435 9.876-19.62 20.373-19.62h77.635c10.296 0 18.99 8.894 20.311 19.103l8.837 69.002 53.187-42.911c8.146-6.62 19.978-5.863 27.402 1.572l54.897 54.978c7.281 7.281 8.023 18.873 1.736 27.024l-40.248 52.214 68.777 6.942c10.455 1.055 18.416 9.872 18.416 20.388v80.138c0 10.517-7.962 19.323-18.427 20.378zM465.92 199.952l-80.983-8.161c-7.536-0.758-14.034-5.616-16.901-12.626-0.63-1.536-1.305-3.051-2.002-4.562-3.19-6.922-2.274-15.043 2.381-21.079l48.087-62.351-29.102-29.107-61.261 49.787c-5.197 4.224-12.119 5.637-18.56 3.794-0.563-0.164-1.147-0.358-1.71-0.574-0.389-0.149-0.768-0.307-1.147-0.476-0.533-0.24-1.075-0.455-1.618-0.676l-2.279-0.942c-0.656-0.276-1.31-0.558-1.976-0.814-0.512-0.2-1.014-0.414-1.51-0.65-0.476-0.226-0.947-0.471-1.387-0.722-5.581-3.185-9.344-10.046-10.168-16.42l-10.224-80.292h-41.16l-8.018 78.832c-0.804 7.752-5.934 15.002-13.24 17.715-1.541 0.574-3.082 1.464-4.593 2.104-6.989 2.959-15.058 1.961-20.941-2.841l-63.032-51.41-30.474 30.515 50.299 61.589c5.038 6.164 6.047 14.7 2.585 21.868-1.065 2.202-2.084 4.429-3.006 6.682-2.862 7.019-9.369 11.889-16.912 12.651l-80.988 8.166v43.1l80.056 8.064c7.844 0.788 14.535 6.011 17.213 13.424 1.183 3.287 2.238 5.934 3.303 8.32 3.154 7.050 2.069 15.278-2.806 21.268l-49.782 61.266 30.541 30.541 61.266-49.792c5.954-4.839 14.075-5.924 21.043-2.903 0.123 0.051 0.24 0.107 0.363 0.159 0.778 0.353 1.577 0.67 2.375 0.993l3.43 1.418c0.174 0.066 0.343 0.133 0.512 0.205 7.014 2.837 11.904 10.573 12.688 18.13l8.12 79.775h43.198l8.115-79.775c0.793-7.685 5.852-14.899 13.072-17.654 2.437-0.932 5.043-2.365 8.212-3.856 7.122-3.343 15.555-2.473 21.663 2.519l62.31 50.826 30.474-30.51-51.497-63.058c-4.803-5.883-5.959-13.952-3-20.946 0.937-2.222 1.782-4.49 2.57-6.774 2.616-7.531 9.365-12.867 17.296-13.666l79.104-7.977v-43.1zM304.64 224.016c0 26.844-21.781 48.64-48.64 48.624-26.859 0.010-48.64-21.775-48.64-48.64 0-26.839 21.775-48.62 48.63-48.64 26.87 0 48.65 21.791 48.65 48.656z" />
<glyph unicode="&#xe658;" d="M471.040 423.68h-430.080c-22.62 0-40.96-16.543-40.96-39.168v-375.772c0-22.564 18.247-40.658 40.812-40.74h430.080c0.051 0 0.103 0 0.149 0 10.834 0 21.228 3.394 28.907 11.049 7.716 7.685 12.053 17.229 12.053 28.119v377.344c0 22.625-18.34 39.168-40.96 39.168zM471.040 382.72v-90.030c-87.982-62.331-184.755-131.85-206.060-132.311-1.398-0.010-14.249-0.179-17.316-0.062-20.854 0.522-118.185 69.873-206.704 132.388v90.014h430.080zM40.96 8.74v233.892c76.175-53.248 178.673-121.764 203.638-123.172 2.15-0.123 4.813-0.164 7.639-0.164 2.791 0 5.735 0.041 8.494 0.077 2.104 0.031 4.029 0.057 5.509 0.057 8.853 0 22.221 0 133.632 74.563 26.291 17.598 51.963 35.308 71.168 48.691v-233.723l-430.080-0.22z" />
<glyph unicode="&#xe659;" d="M416.911 352.563l-118.763 115.758c-7.654 7.486-18.361 11.678-29.066 11.678h-154.742c-22.62 0-42.66-18.34-42.66-40.96v-424.96c0-22.62 20.040-40.96 42.66-40.96h273.081c22.62 0 42.66 18.34 42.66 40.96v309.202c0 11.018-5.289 21.575-13.168 29.281zM389.12 323.282v-17.362h-133.12v133.12h13.082l120.038-115.758zM112.64 14.080v424.96h102.4v-153.6c0-11.31 9.17-20.48 20.48-20.48h153.6v-250.88h-276.48z" />
<glyph unicode="&#xe65a;" d="M486.4-26.88h-460.8c-11.31 0-20.48 9.17-20.48 20.48v256h40.96v-235.52h419.84v235.52h40.96v-256c0-11.31-9.17-20.48-20.48-20.48zM256 66.304c-5.514 0-10.793 2.227-14.649 6.17l-134.631 137.81 29.297 28.621 119.982-122.814 119.982 122.814 29.296-28.621-134.631-137.81c-3.856-3.942-9.134-6.17-14.649-6.17zM235.52 479.769h40.96v-371.2h-40.96v371.2z" />
<glyph unicode="&#xe65b;" d="M455.68 382.72c0 22.62-18.34 40.96-40.96 40.96h-317.44c-22.62 0-40.96-18.34-40.96-40.96v-317.44c0-22.62 18.34-40.96 40.96-40.96h317.44c22.62 0 40.96 18.34 40.96 40.96v317.44z" />
<glyph unicode="&#xe65c;" d="M184.275 382.726l0.090-317.44-40.96-0.012-0.090 317.44 40.96 0.012zM5.12 244.48h317.44v-40.96h-317.44v40.96z" horiz-adv-x="320" />
<glyph unicode="&#xe65d;" d="M256-21.76c-0.010 0-0.020 0-0.020 0-5.765 0.005-11.249 2.437-15.125 6.697-7.296 8.018-179.123 197.591-218.844 307.527-16.271 45.031-11.566 90.849 12.903 125.701 23.014 32.789 61.399 51.594 105.303 51.594 48.322 0 87.557-18.468 115.2-53.827 17.649 25.953 48.507 53.827 107.412 53.827 47.012 0 88.448-20.629 113.7-56.601 24.336-34.668 29.578-78.659 14.392-120.694-39.721-109.968-212.475-299.55-219.812-307.568-3.881-4.24-9.365-6.656-15.109-6.656zM140.216 428.8c-30.823 0-56.31-12.135-71.782-34.166-16.691-23.783-19.574-55.946-7.906-88.249 30.474-84.332 152.474-227.84 195.512-276.88 43.223 49.004 165.909 192.589 196.362 276.88 10.588 29.312 7.163 59.653-9.395 83.246-17.48 24.889-46.7 39.168-80.179 39.168-57.969 0-74.68-34.775-86.882-60.17l-1.034-2.151c-3.415-7.081-10.583-11.582-18.447-11.582s-15.032 4.5-18.447 11.582c-19.947 41.354-52.859 62.32-97.802 62.32z" />
<glyph unicode="&#xe65e;" d="M259.835 87.762c-4.593 19.077-13.168 34.873-23.936 48.118l0.702 0.589c28.549 24.1 41.103 57.416 32.763 86.942-14.444 51.088-55.557 70.052-91.832 86.789-36.828 16.993-61.312 37.858-69.346 68.782l0.087 0.522c-2.621 10.849 1.234 22.876 10.573 34.734 12.35 15.673 31.125 24.801 47.856 24.801 0 0 0.010 0 0.020 0 15.534 0 27.914-4.894 38.856-15.59 10.819-10.588 14.582-23.634 14.582-38.554v-22.656h40.96v22.656c0 26.138-7.972 49.48-26.819 67.912-18.724 18.314-41.165 27.192-67.574 27.192-0.010 0-0.010 0-0.036 0-29.369 0-60.16-14.725-80.353-40.371-17.136-21.76-23.798-46.869-18.365-70.011l-0.128 0.272c4.593-19.072 13.168-34.544 23.936-47.79l-0.701-0.43c-28.549-24.105-41.103-57.334-32.763-86.866 14.444-51.087 55.557-70.016 91.832-86.748 36.828-16.993 61.317-37.842 69.351-68.762l-0.087-0.512c2.621-10.849-1.234-25.457-10.573-37.31-12.355-15.683-31.13-27.392-47.862-27.392 0 0-0.010 0-0.020 0-15.534 0-27.914 7.481-38.856 18.181-10.819 10.578-14.582 26.219-14.582 41.134v17.485h-40.96v-17.485c0-26.137 7.972-54.625 26.819-73.063 18.719-18.314 41.165-32.333 67.569-32.333 0.010 0 0.010 0 0.036 0 29.369 0 60.16 19.87 80.353 45.517 17.137 21.76 23.798 49.444 18.365 72.586l0.133 1.659zM98.135 246.057c-3.814 13.486 3.897 30.828 19.635 44.119l4.736 4.004c12.344-8.699 25.354-15.678 37.699-21.371 32.24-14.874 60.083-27.806 69.34-60.57 3.815-13.486-3.897-30.827-19.635-44.119l-4.736-4.004c-12.345 8.704-25.354 15.678-37.698 21.381-32.24 14.863-60.083 27.796-69.34 60.56z" horiz-adv-x="320" />
<glyph unicode="&#xe65f;" d="M368.64-26.88h-343.040c-11.31 0-20.48 9.17-20.48 20.48v343.040c0 11.31 9.17 20.48 20.48 20.48h143.36v-40.96h-122.88v-302.080h302.080v112.64h40.96v-133.12c0-11.31-9.17-20.48-20.48-20.48zM464.368 221.255l-40.96 0.476 2.007 171.684-171.684-2.007-0.482 40.96 192.65 2.248c5.438 0.297 10.818-2.094 14.72-5.995s6.067-9.206 6-14.72l-2.253-192.645zM416.255 413.202l28.959-28.967-262.517-262.442-28.959 28.967 262.517 262.442z" />
<glyph unicode="&#xe660;" d="M384.103 105.442l-28.621 29.296 91.372 89.262-91.371 89.262 28.621 29.296 106.368-103.91c3.942-3.85 6.17-9.134 6.17-14.649s-2.227-10.798-6.17-14.649l-106.368-103.911zM131.994 105.442l-106.373 103.911c-3.942 3.85-6.165 9.134-6.165 14.649s2.227 10.798 6.169 14.649l106.368 103.911 28.621-29.297-91.371-89.262 91.371-89.262-28.621-29.296zM282.497 401.782l39.563-10.613-92.539-344.977-39.564 10.613 92.539 344.977z" />
<glyph unicode="&#xe661;" d="M367.985 6.082c-31.974-0.005-68.070 10.865-91.689 47.227l-140.529 216.341c-0.922 1.413-9.042 14.372-10.24 31.969-1.654 24.258 10.317 45.988 33.705 61.179 21.883 14.218 45.465 15.207 66.401 2.795 14.469-8.581 22.713-20.874 23.603-22.251l93.635-144.159-34.35-22.308-93.635 144.159c-5.053 7.409-16.272 18.488-33.346 7.414-14.413-9.36-15.549-18.207-15.15-24.038 0.466-6.825 3.696-12.4 3.727-12.452l140.529-216.336c27.166-41.836 80.88-26.471 91.95-22.743 58.076 41.938 28.354 97.767 23.982 105.252l-128.072 197.171c-45.194 69.575-98.78 77.445-126.725 75.888-40.469-2.206-76.907-25.989-95.094-62.059-21.566-42.768-14.904-94.469 18.755-145.598l53.99-83.123-34.35-22.308-53.924 83.015c-41.38 62.858-49.081 130.857-21.048 186.45 24.775 49.132 74.368 81.516 129.439 84.521 62.582 3.379 122.091-31.022 163.308-94.485l128.635-198.046c0.584-0.962 57.021-96.363-37.693-161.853l-1.93-1.337-2.181-0.865c-12.718-5.022-31.38-9.421-51.702-9.421z" />
<glyph unicode="&#xe662;" d="M233.472 252.16h-148.48c-11.31 0-20.48 9.17-20.48 20.48v148.48h40.96v-128h128v-40.96zM447.488 252.16h-40.96v23.609c-13.512 66.539-72.294 114.631-140.488 114.631-67.707 0-126.756-48.036-140.4-114.217l-4.137-20.055-40.115 8.274 4.137 20.060c17.552 85.115 93.47 146.898 180.516 146.898 88.469 0 164.628-62.992 181.089-149.786l0.358-1.889v-27.525zM447.488 26.88h-40.96v128h-128v40.96h148.48c11.31 0 20.48-9.17 20.48-20.48v-148.48zM245.959 16.64c-88.469 0-164.629 62.996-181.089 149.786l-0.359 1.889v27.525h40.96v-23.608c13.511-66.534 72.294-114.632 140.488-114.632 67.707 0 126.75 48.036 140.401 114.217l4.137 20.060 40.115-8.274-4.137-20.055c-17.551-85.13-93.471-146.908-180.516-146.908z" />
<glyph unicode="&#xe663;" d="M423.301 135.301c12.524 2.852 22.139 1.776 37.499-2.345v152.161c-15.36-4.505-30.72-4.183-40.96 0.317v-148.332l-94.172 92.601c-12.18-8.889-28.135-13.578-44.324-12.027-8.673 0.819-17.086 3.353-24.325 7.204l-57.876-130.334-94.034 251.065c-12.114-8.217-26.097-11.704-39.69-10.895l93.773-250.644c13.025 7.895 28.846 11.259 44.984 8.202 12.268-2.314 23.004-8.038 31.534-15.949l56.51 127.626 93.538-92.606c8.771 11.689 22.18 20.47 37.545 23.957zM489.467 345.831c0-28.266-22.914-51.18-51.18-51.18s-51.18 22.914-51.18 51.18c0 28.265 22.914 51.179 51.18 51.179s51.18-22.914 51.18-51.179zM425.385 122.322c-27.556-6.257-44.805-33.685-38.548-61.255 6.293-27.546 33.715-44.81 61.281-38.533 27.566 6.267 44.825 33.695 38.548 61.266-6.288 27.55-33.705 44.805-61.281 38.523zM281.882 230.421c28.155-2.693 53.13 17.966 55.808 46.096 2.663 28.155-17.986 53.125-46.142 55.787-28.144 2.688-53.115-17.966-55.798-46.090-2.662-28.139 17.992-53.12 46.131-55.792zM201.794 80.2c-27.781 5.264-54.538-13-59.812-40.781-5.227-27.771 13.020-54.558 40.802-59.801 27.781-5.264 54.554 13.010 59.812 40.791 5.227 27.771-13.010 54.553-40.802 59.791zM110.183 427.223c-16.102 23.25-47.995 29.020-71.245 12.907-23.239-16.133-29-48.010-12.902-71.25 16.107-23.255 48.016-29.020 71.25-12.907 23.234 16.123 29.015 48.015 12.898 71.25z" />
<glyph unicode="&#xe664;" d="M71.68-30.341c-5.433 0-10.634 2.156-14.474 5.99-3.845 3.845-6.006 9.058-6.006 14.49v220.16c0 11.31 9.17 20.48 20.48 20.48h368.64c11.31 0 20.48-9.17 20.48-20.48v-219.827c0-11.305-9.159-20.47-20.459-20.48l-368.64-0.333c-0.010 0-0.016 0-0.020 0zM92.16 189.819v-179.185l327.68 0.297v178.887h-327.68zM419.84 241.92h-40.96v64.963c0 62.817-55.127 113.92-122.88 113.92s-122.88-51.103-122.88-113.92v-64.963h-40.96v64.963c0 85.401 73.498 154.88 163.84 154.88s163.84-69.478 163.84-154.88v-64.963z" />
<glyph unicode="&#xe665;" d="M76.8-34.114c-5.433 0-10.634 2.155-14.474 5.99-3.845 3.84-6.006 9.052-6.006 14.49v220.16c0 11.31 9.17 20.48 20.48 20.48h368.64c11.31 0 20.48-9.17 20.48-20.48v-219.827c0-11.305-9.159-20.47-20.459-20.48l-368.64-0.333c-0.010 0-0.016 0-0.020 0zM97.28 186.046v-179.185l327.68 0.297v178.887h-327.68zM138.24 238.147h-40.96v64.957c0 85.401 73.498 154.88 163.84 154.88 91.874 0 163.84-65.669 163.84-149.504v-20.48h-40.96v20.48c0 60.866-53.975 108.544-122.88 108.544-67.753 0-122.88-51.103-122.88-113.92v-64.957z" />
<glyph unicode="&#xe666;" d="M471.040 392.96h-18.022l-0.067 61.978c-0.010 11.3-9.18 19.942-20.48 19.942h-97.111c-11.31 0-23.040-9.17-23.040-20.48v-61.44h-112.743l-0.066 61.978c-0.010 11.3-9.18 19.942-20.48 19.942h-97.111c-11.31 0-20.48-9.17-20.48-20.48v-61.44h-20.48c-22.62 0-40.96-19.364-40.96-41.984v-338.432c0-10.87 4.322-20.526 12.011-28.206 7.68-7.68 18.094-11.218 28.949-11.218 0.016 0 0.026 0 0.041 0l430.080-0.338c22.605 0.021 40.919 17.587 40.919 40.192v338.002c0 22.62-18.34 41.984-40.96 41.984zM353.28 433.92h58.736l0.118-112.64h-58.854v112.64zM102.4 433.92h56.177l0.118-112.64h-56.294v112.64zM471.040 12.969l-430.080-0.425v252.416h430.080v-251.991z" />
<glyph unicode="&#xe667;" d="M445.44 474.88h-378.88c-11.31 0-20.48-9.17-20.48-20.48v-460.8c0-11.31 9.17-20.48 20.48-20.48h378.88c11.31 0 20.48 9.17 20.48 20.48v460.8c0 11.31-9.17 20.48-20.48 20.48zM424.96 14.080h-337.92v419.84h337.92v-419.84zM235.024 165.089c17.326 0 33.541 4.695 47.575 12.769l80.174-81.479 29.2 28.723-79.012 80.302c11.177 15.662 17.828 34.765 17.828 55.429 0 52.808-42.962 95.774-95.764 95.774s-95.76-42.962-95.76-95.774c0-52.793 42.957-95.744 95.76-95.744zM235.024 315.648c30.218 0 54.805-24.591 54.805-54.815 0-30.208-24.586-54.784-54.804-54.784s-54.799 24.576-54.799 54.784c0 30.228 24.581 54.815 54.799 54.815z" />
<glyph unicode="&#xe668;" d="M66.474 351.027l224.402-224.56-28.975-28.954-224.402 224.56 28.975 28.954zM261.902 351.039l28.975-28.95-224.37-224.56-28.975 28.95 224.37 224.56zM5.12 244.459h317.44v-40.96h-317.44v40.96zM184.315 382.723l0.050-317.44-40.96-0.007-0.050 317.44 40.96 0.007z" horiz-adv-x="320" />
<glyph unicode="&#xe669;" d="M327.68-26.88h-92.16v40.96h71.68v419.84h-71.68v40.96h92.16c11.31 0 20.48-9.17 20.48-20.48v-460.8c0-11.31-9.17-20.48-20.48-20.48zM117.76-26.88h-92.16c-11.31 0-20.48 9.17-20.48 20.48v460.8c0 11.31 9.17 20.48 20.48 20.48h92.16v-40.96h-71.68v-419.84h71.68v-40.96zM76.8 244.48h194.56v-40.96h-194.56v40.96zM153.6 321.28h40.96v-194.56h-40.96v194.56zM486.4-26.88h-92.16v40.96h71.68v419.84h-71.68v40.96h92.16c11.31 0 20.48-9.17 20.48-20.48v-460.8c0-11.31-9.17-20.48-20.48-20.48z" />
<glyph unicode="&#xe66a;" d="M256.64 472.32c-96.338 0-174.72-77.998-174.72-173.87 0-45.363 14.326-85.463 41.779-115.963 10.864-12.078 35.021-49.976 45.261-68.608v-75.643c0-5.57 5.755-24.156 5.755-24.156 11.233-22.912 37.1-38.723 60.785-39.649 0.21-0.010 2.631-1.31 5.632-1.31h14.695c5.535 0 14.535 1.29 15.504 1.331 34.14 1.331 61.471 30.654 61.471 63.81v74.906c15.36 19.318 40.766 57.933 51.021 69.33 29.548 32.829 46.039 74.010 46.039 115.952 0 95.872-77.584 173.87-173.22 173.87zM353.817 209.894c-15.166-16.85-53.683-72.56-57.979-78.853-0.916-1.346-1.69-2.811-2.345-4.322h-84.793c-0.389 1.096-0.839 2.171-1.439 3.19-3.671 6.221-36.239 61.322-53.028 79.975-20.572 22.856-31.396 53.483-31.396 88.566-0.005 73.287 60.022 132.91 133.781 132.91 73.052 0 132.49-59.623 132.49-132.91 0-31.811-12.529-63.258-35.292-88.556z" />
<glyph unicode="&#xe66b;" d="M255.867 367.36c47.749 0 94.418-23.834 121.636-67.292 41.994-67.077 21.668-155.546-45.414-197.56-23.654-14.802-49.956-21.868-75.94-21.868-47.749 0-94.423 23.839-121.62 67.267-42.035 67.113-21.689 155.561 45.394 197.581 23.644 14.802 49.956 21.868 75.945 21.873zM255.877 408.32h-0.016c-34.53-0.005-68.306-9.728-97.679-28.119-86.134-53.95-112.317-167.911-58.368-254.034 33.915-54.159 92.355-86.487 156.334-86.487 34.524 0 68.301 9.718 97.674 28.114 86.124 53.934 112.317 167.885 58.394 254.008-33.93 54.18-92.37 86.518-156.339 86.518v0zM153.6 71.481h40.96v-95.862h-40.96v95.862zM93.501 334.121c0 0-6.011 6.026-13.568 13.578-14.059 14.060-14.403 36.644-1.014 51.123 0.328 0.353 5.909 5.913 6.262 6.267s5.918 5.909 6.282 6.247c14.48 13.373 37.069 13.040 51.144-1.019 5.868-5.878 13.558-13.573 13.558-13.573l-62.663-62.623zM93.501 313.641c-0.005 0-0.010 0-0.016 0-5.438 0.005-10.65 2.171-14.484 6.016l-13.547 13.558c-21.883 21.878-22.574 56.806-1.577 79.513 0.338 0.364 4.649 4.68 6.287 6.313l0.532 0.527c0.379 0.379 6.421 6.395 6.814 6.759 10.675 9.866 24.499 15.273 38.983 15.273 15.324 0 29.737-5.965 40.576-16.793l13.573-13.589c7.998-7.998 7.993-20.966-0.010-28.958l-62.659-62.618c-3.84-3.845-9.047-6-14.474-6zM116.496 400.64c-4.153 0-8.11-1.546-11.146-4.352-0.492-0.487-5.371-5.361-5.694-5.678l-0.569-0.569c-1.352-1.346-4.782-4.772-5.427-5.427-5.438-5.883-5.519-15.216-0.118-21.494l33.623 33.597c-2.965 2.535-6.713 3.922-10.67 3.922zM317.44 68.409h40.96v-95.288h-40.96v95.288zM418.498 334.121c0 0 6.011 6.026 13.568 13.578 14.060 14.060 14.402 36.644 1.014 51.123-0.327 0.353-5.909 5.913-6.262 6.267s-5.918 5.909-6.282 6.247c-14.479 13.373-37.069 13.040-51.144-1.019-5.868-5.878-13.558-13.573-13.558-13.573l62.663-62.623zM418.498 313.641c-5.433 0-10.639 2.156-14.479 5.995l-62.659 62.618c-7.998 7.997-8.002 20.962-0.010 28.958l13.553 13.568c10.865 10.855 25.277 16.819 40.601 16.819 14.485 0 28.313-5.406 38.938-15.222 0.445-0.415 6.487-6.43 6.866-6.81l0.533-0.527c1.634-1.634 5.945-5.95 6.247-6.277 21.033-22.748 20.347-57.677-1.531-79.55l-13.553-13.563c-3.84-3.845-9.052-6.011-14.485-6.016-0.010 0.005-0.015 0.005-0.021 0.005zM384.839 396.713l33.618-33.597c5.397 6.288 5.305 15.632-0.409 21.806-0.353 0.348-3.784 3.774-5.135 5.12l-0.568 0.569c-0.317 0.317-5.202 5.197-5.986 5.954-5.361 4.941-15.426 5.366-21.519 0.148zM330.219 185.836l-76.8 0.082c-5.433 0.005-10.639 2.171-14.474 6.016s-5.99 9.058-5.98 14.49l0.128 109.762 40.96-0.051-0.108-89.282 56.32-0.061-0.046-40.955z" />
<glyph unicode="&#xe66c;" d="M235.52 285.44h40.96v-153.6h-40.96v153.6zM235.52 106.24h40.96v-46.080h-40.96v46.080zM509.824-0.834l-235.52 469.458c-3.476 6.928-10.558 11.305-18.304 11.305s-14.828-4.373-18.304-11.3l-235.52-469.458c-3.184-6.344-2.857-14.643 0.875-20.69s10.322-10.48 17.428-10.48h471.040c7.106 0 13.701 4.434 17.428 10.48s4.060 14.341 0.875 20.685zM53.663 8.96l202.338 403.308 202.337-403.308h-404.675z" />
<glyph unicode="&#xe66d;" d="M327.68-31.488h-40.96v209.408c0 16.942-13.778 30.725-30.72 30.725s-30.72-13.778-30.72-30.725v-209.408h-40.96v209.408c0 39.526 32.154 71.685 71.68 71.685s71.68-32.154 71.68-71.685v-209.408zM250.88 451.84c26.829 0 48.64-21.806 48.64-48.661 0-26.814-21.811-48.62-48.64-48.62s-48.64 21.806-48.64 48.62c0 26.854 21.811 48.661 48.64 48.661zM249.344 267.802c-90.343 0-163.84 78.423-163.84 174.827h40.96c0-73.815 55.127-133.868 122.88-133.868s122.88 60.053 122.88 133.868h40.96c0-96.405-73.498-174.827-163.84-174.827z" />
<glyph unicode="&#xe66e;" d="M384 297.723c-70.579 0-128-60.636-128-135.127 0-19.794 16.046-35.876 35.84-35.876h184.32c19.794 0 35.84 16.082 35.84 35.881 0 74.491-57.421 135.122-128 135.122zM291.84 162.56c0 51.2 41.267 99.251 92.16 99.251s92.16-48.051 92.16-99.251h-184.32zM383.514 321.28c43.76 0 79.36 35.6 79.36 79.355 0 43.761-35.599 79.365-79.36 79.365-43.755 0-79.36-35.605-79.36-79.365 0-43.755 35.599-79.355 79.36-79.355zM383.514 444.16c24.043 0 43.52-19.481 43.52-43.525s-19.476-43.515-43.52-43.515c-24.038 0-43.52 19.471-43.52 43.515s19.481 43.525 43.52 43.525zM128 139.008c-70.579 0-128-60.642-128-135.132 0-19.789 16.046-35.876 35.84-35.876h184.32c19.794 0 35.84 16.087 35.84 35.881 0 74.491-57.421 135.127-128 135.127zM35.84 3.84c0 56.32 41.267 99.251 92.16 99.251s92.16-42.931 92.16-99.251h-184.32zM127.995 320.768c-43.755 0-79.355-35.605-79.355-79.365 0-43.755 35.599-79.355 79.355-79.355 43.761 0 79.365 35.599 79.365 79.355 0 43.76-35.605 79.365-79.365 79.365zM127.995 197.888c-24.034 0-43.515 19.471-43.515 43.515s19.481 43.525 43.515 43.525c24.043 0 43.525-19.482 43.525-43.525s-19.482-43.515-43.525-43.515z" />
<glyph unicode="&#xe66f;" d="M230.4 75.52h-151.352c0 76.8 57.314 137.82 128 137.82 50.166 0 93.573-30.3 114.56-76.38h44.109c-23.741 66.56-85.904 117.683-158.669 117.683-93.163 0-168.96-80.368-168.96-178.959 0-22.62 18.34-41.124 40.96-41.124h151.352v40.96zM207.042 274.038c52.833 0 95.821 42.983 95.821 95.815 0 52.828-42.988 95.811-95.821 95.811s-95.816-42.983-95.816-95.811c0.005-52.834 42.983-95.815 95.816-95.815zM207.042 424.704c30.31 0 54.861-24.55 54.861-54.851 0-30.31-24.55-54.856-54.861-54.856-30.3 0-54.856 24.546-54.856 54.856 0.005 30.3 24.56 54.851 54.856 54.851zM250.88 116.48h225.28v-61.44h-225.28v61.44z" />
<glyph unicode="&#xe670;" d="M245.76 54.492v21.028h-152.576c0 76.8 58.204 138.091 128.886 138.091 43.3 0 80.010-22.922 105.61-58.368v60.949c-30.72 24.161-66.079 38.641-105.61 38.641-93.159 0-169.4-80.461-169.4-179.052 0-22.62 17.894-41.221 40.514-41.221h152.576v19.932zM221.179 273.858c52.833 0 95.821 42.983 95.821 95.815 0 52.828-42.988 95.811-95.821 95.811s-95.816-42.983-95.816-95.811c0-52.833 42.983-95.815 95.816-95.815zM221.179 424.525c30.31 0 54.861-24.55 54.861-54.851 0-30.31-24.55-54.856-54.861-54.856-30.3 0-54.856 24.546-54.856 54.856 0 30.3 24.555 54.851 54.856 54.851zM409.6 198.4h-61.44v-81.92h-81.92v-61.44h81.92v-81.92h61.44v81.92h81.92v61.44h-81.92z" />
<glyph unicode="&#xe671;" d="M256 423.68c-110.106 0-199.68-89.575-199.68-199.68s89.575-199.68 199.68-199.68 199.68 89.575 199.68 199.68-89.575 199.68-199.68 199.68zM414.72 224c0-35.512-11.673-68.306-31.39-94.756l-222.085 222.101c26.44 19.707 59.233 31.375 94.756 31.375 87.67 0 158.72-71.045 158.72-158.72zM97.28 224c0 35.523 11.668 68.316 31.375 94.761l222.090-222.095c-26.44-19.712-59.228-31.385-94.745-31.385-87.67 0-158.72 71.096-158.72 158.72z" />
<glyph unicode="&#xe672;" d="M494.106 326.251c-3.733 9.339-10.772 16.978-19.784 21.458-5.76 2.873-142.53 70.231-264.601 70.231-73.262 0-128.016-23.644-162.739-70.277-50.114-67.292-52.229-174.387-6.471-327.399 4.219-14.111 15.688-24.863 30.034-28.175 1.9-0.44 19.138-4.291 38.37-4.291 41.943 0 61.122 18.32 69.826 33.685 3.272 5.776 5.519 11.868 6.763 18.279 1.157-0.015 2.314-0.021 3.466-0.021 16.020 0 64.758 0 80.891 37.858 0.343 0.793 0.666 1.598 0.962 2.401 22.748 0.353 70.267 4.045 84.674 42.168 3.092 8.171 4.014 16.082 3.41 23.588 20.705 5.796 47.657 18.12 56.238 46.029 1.003 3.272 1.715 6.528 2.125 9.769 33.808 5.31 58.117 18.668 72.499 39.916 10.972 16.205 20.628 44.063 4.337 84.782zM380.923 239.903c-18.258 0-32.368 2.018-32.368 2.018 87.040-61.44-56.32-64-56.32-64 54.4-48 11.801-57.001-27.801-57.001-23.762 0-46.439 3.241-46.439 3.241 34.135-35.558 4.27-43.454-29.025-43.454-26.629 0-55.454 5.053-55.454 5.053 28.8-48 0.599-57.001-24.602-57.001-15.12 0-29.159 3.241-29.159 3.241-82.698 276.531 13.936 344.981 129.966 344.981 113.843 0 246.354-65.94 246.354-65.94 24.596-61.491-35.205-71.137-75.151-71.137z" />
<glyph unicode="&#xe673;" d="M220.16 213.356c26.393 0 50.924-8.514 71.301-23.183 7.035 3.108 21.883 9.764 21.883 9.764s15.36 5.637 20.255 8.514c-30.009 28.898-69.817 46.561-113.439 46.561-93.163 0-168.96-80.548-168.96-179.138 0-22.625 18.34-41.313 40.96-41.313 0 0 143.288-0.169 143.36 0v40.96h-143.36c0 76.8 57.314 137.835 128 137.835zM220.155 274.038c52.833 0 95.821 42.983 95.821 95.815 0 52.828-42.988 95.811-95.821 95.811s-95.816-42.983-95.816-95.811c0-52.834 42.983-95.815 95.816-95.815zM220.155 424.704c30.31 0 54.861-24.55 54.861-54.851 0-30.31-24.55-54.856-54.861-54.856-30.3 0-54.856 24.546-54.856 54.856 0 30.3 24.555 54.851 54.856 54.851zM470.594 110.183l-26.020 2.591 16.768 20.726c3.61 4.413 3.205 10.875-0.819 14.919l-24.714 24.642c-0.527 0.527-1.096 0.978-1.695 1.382-0.179 0.118-0.379 0.2-0.563 0.313-0.43 0.251-0.86 0.502-1.31 0.691-0.24 0.103-0.497 0.159-0.743 0.246-0.42 0.138-0.829 0.281-1.26 0.374-0.276 0.057-0.558 0.082-0.839 0.113-0.404 0.057-0.814 0.108-1.224 0.118-0.353 0.010-0.707-0.015-1.060-0.041-0.281-0.021-0.558-0.031-0.839-0.072-0.384-0.057-0.758-0.154-1.137-0.251-0.256-0.067-0.512-0.113-0.758-0.195-0.42-0.138-0.819-0.327-1.224-0.522-0.195-0.092-0.399-0.159-0.589-0.266-0.584-0.317-1.157-0.691-1.69-1.127l-21.063-17.214-2.714 26.537c-0.599 5.693-5.381 10.132-11.085 10.132h-34.862c-5.719 0-10.506-4.439-11.075-10.132l-2.601-25.231-19.635 15.933c-0.517 0.414-1.055 0.778-1.618 1.091-1.68 0.937-3.543 1.392-5.406 1.392-1.214 0-2.427-0.24-3.589-0.64-0.246-0.082-0.491-0.138-0.727-0.24-0.455-0.19-0.886-0.44-1.316-0.691-0.185-0.108-0.379-0.19-0.558-0.313-0.594-0.399-1.168-0.855-1.69-1.382l-24.653-24.647c-4.034-4.045-4.368-10.491-0.768-14.914l16.748-20.587-27.627-2.75c-5.693-0.553-10.639-5.346-10.639-11.070v-34.862c0-5.714 4.946-10.506 10.634-11.075l27.566-2.688-16.497-19.978c-3.615-4.429-3.358-10.875 0.666-14.914l24.601-24.658c0.527-0.527 1.096-0.978 1.69-1.382 0.2-0.133 0.42-0.226 0.625-0.343 0.409-0.236 0.814-0.476 1.244-0.656 0.261-0.108 0.527-0.174 0.788-0.266 0.399-0.133 0.793-0.272 1.203-0.358 0.286-0.062 0.579-0.087 0.87-0.123 0.394-0.051 0.788-0.108 1.183-0.113 0.363-0.005 0.732 0.015 1.091 0.046 0.272 0.021 0.538 0.026 0.809 0.067 0.389 0.062 0.768 0.159 1.152 0.261 0.251 0.067 0.502 0.108 0.748 0.195 0.414 0.133 0.814 0.327 1.214 0.522 0.195 0.098 0.404 0.164 0.599 0.272 0.584 0.322 1.152 0.702 1.685 1.142l19.733 16.144 2.473-26.076c0.568-5.678 5.356-12.242 11.075-12.242h33.874c5.596 0 10.348 6.374 11.044 11.955l3.231 27.546 20.034-16.046c0.533-0.435 1.091-0.804 1.669-1.122 0.185-0.108 0.384-0.169 0.574-0.261 0.404-0.19 0.804-0.374 1.224-0.517 0.231-0.077 0.471-0.118 0.712-0.179 0.389-0.103 0.778-0.491 1.178-0.548 0.251-0.041 0.507-0.358 0.758-0.358 0.031 0 0.062 0 0.087 0 0.333 0 0.666 0 0.998 0 0.015 0 0.026 0 0.041 0 0.384 0 0.768 0.338 1.152 0.389 0.313 0.041 0.62 0.348 0.926 0.42 0.394 0.087 0.778 0.22 1.168 0.348 0.281 0.098 0.568 0.169 0.845 0.292 0.42 0.179 0.814 0.409 1.214 0.645 0.22 0.123 0.455 0.226 0.666 0.368 0.599 0.404 1.173 0.865 1.7 1.387l23.865 23.946c3.963 3.963 4.352 10.271 0.962 14.71l-15.063 19.543 26.599 2.616c5.678 0.584 10.675 5.381 10.675 11.095v34.862c0 5.719-4.997 10.512-10.685 11.079zM368.64 47.36c-18.381 0-33.28 14.899-33.28 33.28s14.899 33.28 33.28 33.28 33.28-14.899 33.28-33.28-14.899-33.28-33.28-33.28z" />
<glyph unicode="&#xe674;" d="M417.28 439.040v-430.080h-322.56v430.080h322.56zM417.28 480h-322.56c-22.62 0-40.96-18.34-40.96-40.96v-430.080c0-22.62 18.34-40.96 40.96-40.96h322.56c22.62 0 40.96 18.34 40.96 40.96v430.080c0 22.62-18.34 40.96-40.96 40.96v0zM366.080 372.48c0 11.31-9.17 20.48-20.48 20.48h-179.2c-11.31 0-20.48-9.17-20.48-20.48v-296.96c0-11.31 9.17-20.48 20.48-20.48h179.2c11.31 0 20.48 9.17 20.48 20.48v296.96zM325.12 96h-138.24v256h138.24v-256z" />
<glyph unicode="&#xe675;" d="M327.168 475.213c-88.079 0-190.469-71.404-190.469-163.676 0-22.062-33.111-88.914-56.622-129.398-3.656-6.293-3.697-14.014-0.103-20.352 3.594-6.329 10.281-10.26 17.561-10.348l62.515-0.748c-3.922-44.856-3.758-93.752 12.268-111.401 5.724-6.298 14.367-9.702 22.569-9.513 5.274 0.082 30.392-0.231 55.993-0.527v-56.13h40.96v76.319c0 11.192-10.010 20.311-21.202 20.48-5.704 0.087-48.901 0.717-68.48 0.825-3.702 15.769-3.518 57.866 1.157 97.782 0.676 5.765-1.25 11.546-5.084 15.902-3.83 4.362-9.395 6.892-15.196 6.958l-50.667 0.615c18.882 35.492 45.307 90.419 45.307 119.706 0 55.654 66.683 122.547 149.504 122.547 79.12 0 138.23-66.893 138.23-123.213h40.96c0 87.040-83.738 164.173-179.2 164.173zM344.581 268.068c0-28.277-22.923-51.2-51.2-51.2s-51.2 22.923-51.2 51.2c0 28.277 22.923 51.2 51.2 51.2s51.2-22.923 51.2-51.2z" />
<glyph unicode="&#xe676;" d="M491.52 423.68h-471.040c-11.31 0-20.48-9.17-20.48-20.48v-353.28c0-11.31 9.17-20.48 20.48-20.48h123.065l-28.196-38.087 35.379-20.639 16.343 28.007 29.819 40.878c3.696 6.334 3.722 14.162 0.071 20.521-3.655 6.359-10.424 10.281-17.762 10.281h-138.24v312.32h430.080v-312.32h-138.24c-7.337 0-14.106-3.922-17.762-10.281-3.651-6.359-3.625-14.188 0.072-20.521l29.819-40.878 16.338-28.012 35.379 20.639-28.19 38.093h123.065c11.31 0 20.48 9.17 20.48 20.48v353.28c0 11.31-9.17 20.48-20.48 20.48zM430.070 333.496c0 11.31-9.17 18.504-20.48 18.504h-307.19c-5.433 0-10.639-0.313-14.48-4.153-3.845-3.84-6.001-8.125-6.001-13.558l0.010-207.262c0-11.31 9.17-20.787 20.48-20.787h307.19c5.433 0 10.639 2.928 14.479 6.769 3.845 3.84 6 8.791 6 14.224l-0.010 206.264zM122.88 311.040h266.23l0.010-163.84h-266.24z" />
<glyph unicode="&#xe677;" d="M399.36 439.040v-430.080h-286.72v430.080h286.72zM399.36 480h-286.72c-22.62 0-40.96-18.34-40.96-40.96v-430.080c0-22.62 18.34-40.96 40.96-40.96h286.72c22.62 0 40.96 18.34 40.96 40.96v430.080c0 22.62-18.34 40.96-40.96 40.96v0zM353.28 367.36c0 11.31-9.17 20.48-20.48 20.48h-153.6c-11.31 0-20.48-9.17-20.48-20.48v-194.56c0-11.31 9.17-20.48 20.48-20.48h153.6c11.31 0 20.48 9.17 20.48 20.48v194.56zM312.32 193.28h-112.64v153.6h112.64v-153.6zM286.208 78.080c0-16.957-13.757-30.72-30.725-30.72-16.937 0-30.715 13.762-30.715 30.72s13.778 30.72 30.715 30.72c16.983 0 30.725-13.762 30.725-30.72z" />
<glyph unicode="&#xe678;" d="M153.6 224c0-28.277-22.923-51.2-51.2-51.2s-51.2 22.923-51.2 51.2c0 28.277 22.923 51.2 51.2 51.2s51.2-22.923 51.2-51.2zM307.2 224c0-28.277-22.923-51.2-51.2-51.2s-51.2 22.923-51.2 51.2c0 28.277 22.923 51.2 51.2 51.2s51.2-22.923 51.2-51.2zM460.8 224c0-28.277-22.923-51.2-51.2-51.2s-51.2 22.923-51.2 51.2c0 28.277 22.923 51.2 51.2 51.2s51.2-22.923 51.2-51.2z" />
</font>
</defs>
</svg>
