<?xml version="1.0" encoding="utf-8"?>
<!-- Generator: Adobe Illustrator 16.0.0, SVG Export Plug-In . SVG Version: 6.00 Build 0)  -->
<!DOCTYPE svg PUBLIC "-//W3C//DTD SVG 1.1//EN" "http://www.w3.org/Graphics/SVG/1.1/DTD/svg11.dtd">
<svg version="1.1" id="Capa_1" xmlns="http://www.w3.org/2000/svg" xmlns:xlink="http://www.w3.org/1999/xlink" x="0px" y="0px"
	 width="128px" height="128px" viewBox="0 0 128 128" enable-background="new 0 0 128 128" xml:space="preserve">
<path d="M64,60.543c-9.175,0-16.64,7.465-16.64,16.641V128h7.68V77.184c0-4.94,4.02-8.961,8.96-8.961c4.939,0,8.96,4.021,8.96,8.961
	V128h7.681V77.184C80.641,68.008,73.175,60.543,64,60.543z"/>
<path d="M64,35.84c8.471,0,15.359-6.889,15.359-15.356C79.359,12.012,72.471,5.12,64,5.12c-8.47,0-15.36,6.892-15.36,15.364
	C48.64,28.951,55.53,35.84,64,35.84z M64,12.8c4.238,0,7.68,3.443,7.68,7.684c0,4.233-3.441,7.676-7.68,7.676
	c-4.238,0-7.68-3.443-7.68-7.676C56.32,16.243,59.762,12.8,64,12.8z"/>
<path d="M96,9.03c0,19.2-14.355,34.747-32,34.747c-17.645,0-32-15.547-32-34.747V3.84h-7.68v5.19c0,23.04,17.8,42.427,39.68,42.427
	S103.68,32.07,103.68,9.03V3.84H96V9.03z"/>
</svg>
