<?xml version="1.0" encoding="utf-8"?>
<!-- Generator: Adobe Illustrator 16.0.0, SVG Export Plug-In . SVG Version: 6.00 Build 0)  -->
<!DOCTYPE svg PUBLIC "-//W3C//DTD SVG 1.1//EN" "http://www.w3.org/Graphics/SVG/1.1/DTD/svg11.dtd">
<svg version="1.1" id="Capa_1" xmlns="http://www.w3.org/2000/svg" xmlns:xlink="http://www.w3.org/1999/xlink" x="0px" y="0px"
	 width="128px" height="128px" viewBox="0 0 128 128" enable-background="new 0 0 128 128" xml:space="preserve">
<path d="M64.16,3.2c-23.379,0-42.4,18.925-42.4,42.188c0,11.02,3.469,20.749,10.116,28.133c2.844,3.16,9.084,13.082,11.644,17.655
	v19.265c0,8.104,8.152,14.068,15.409,14.353c0.051,0.002,8.572,0.005,8.831-0.006c7.857-0.306,14.161-6.742,14.161-14.353V91.312
	c3.841-4.73,10.417-14.828,13.084-17.791c7.175-7.974,11.181-17.963,11.181-28.133C106.186,22.125,87.363,3.2,64.16,3.2L64.16,3.2z
	 M74.24,110.434c0,3.476-3.034,6.533-6.696,6.678c-0.353,0.005-8.314,0.009-8.351,0.009c-3.626-0.142-7.994-3.153-7.994-6.679
	v-9.321h23.039v9.313H74.24z M89.406,68.383c-3.799,4.223-13.963,18.953-14.389,19.579c-0.435,0.638-0.777,1.392-0.777,2.162v4.597
	H51.2v-4.597c0-0.687-0.138-1.358-0.488-1.95c-0.91-1.545-8.992-15.219-13.106-19.789c-5.358-5.953-8.178-13.906-8.178-22.998
	c0-19.027,15.581-34.508,34.726-34.508c18.968,0,34.403,15.48,34.403,34.508c0,8.269-3.248,16.435-9.152,22.995L89.406,68.383z"/>
<path d="M74.141,20.512l-3.258,6.82c0.119,0.055,11.868,5.948,11.868,17.468h7.681C90.432,28.16,74.807,20.824,74.141,20.512
	L74.141,20.512z"/>
</svg>
