<?xml version="1.0" encoding="utf-8"?>
<!-- Generator: Adobe Illustrator 16.0.0, SVG Export Plug-In . SVG Version: 6.00 Build 0)  -->
<!DOCTYPE svg PUBLIC "-//W3C//DTD SVG 1.1//EN" "http://www.w3.org/Graphics/SVG/1.1/DTD/svg11.dtd">
<svg version="1.1" id="Capa_1" xmlns="http://www.w3.org/2000/svg" xmlns:xlink="http://www.w3.org/1999/xlink" x="0px" y="0px"
	 width="128px" height="128px" viewBox="0 0 128 128" enable-background="new 0 0 128 128" xml:space="preserve">
<path d="M81.92,2.56H53.76v7.68h24.32v107.52H53.76v7.68h28.16c2.121,0,3.84-1.719,3.84-3.84V6.4
	C85.76,4.279,84.041,2.56,81.92,2.56z"/>
<path d="M10.24,10.24h24.32V2.56H6.4c-2.121,0-3.84,1.719-3.84,3.84v115.2c0,2.121,1.719,3.84,3.84,3.84h28.16v-7.68H10.24V10.24z"
	/>
<path d="M121.6,2.56H94.721v7.68h23.039v107.52H94.721v7.68H121.6c2.121,0,3.84-1.719,3.84-3.84V6.4
	C125.439,4.279,123.721,2.56,121.6,2.56z"/>
<path d="M60.16,67.84v-7.68h-12.8v-12.8h-7.68v12.8h-12.8v7.68h12.8v12.801h7.68V67.84H60.16z"/>
</svg>
