<?xml version="1.0" encoding="utf-8"?>
<!-- Generator: Adobe Illustrator 16.0.0, SVG Export Plug-In . SVG Version: 6.00 Build 0)  -->
<!DOCTYPE svg PUBLIC "-//W3C//DTD SVG 1.1//EN" "http://www.w3.org/Graphics/SVG/1.1/DTD/svg11.dtd">
<svg version="1.1" id="Capa_1" xmlns="http://www.w3.org/2000/svg" xmlns:xlink="http://www.w3.org/1999/xlink" x="0px" y="0px"
	 width="128px" height="128px" viewBox="0 0 128 128" enable-background="new 0 0 128 128" xml:space="preserve">
<path d="M126.312,120.96L67.434,3.595C66.782,2.297,65.453,1.477,64,1.477s-2.782,0.821-3.433,2.118L1.687,120.96
	c-0.598,1.19-0.535,2.703,0.165,3.838c0.699,1.134,1.937,1.922,3.268,1.922h117.76c1.331,0,2.569-0.788,3.269-1.921
	C126.848,123.665,126.91,122.152,126.312,120.96z M11.342,119.04L64,14.079l52.658,104.961H11.342z"/>
<path d="M60.16,51.2h7.68V89.6h-7.68V51.2z"/>
<path d="M60.16,95.359h7.68v7.681h-7.68V95.359z"/>
</svg>
