<?xml version="1.0" encoding="utf-8"?>
<!-- Generator: Adobe Illustrator 16.0.0, SVG Export Plug-In . SVG Version: 6.00 Build 0)  -->
<!DOCTYPE svg PUBLIC "-//W3C//DTD SVG 1.1//EN" "http://www.w3.org/Graphics/SVG/1.1/DTD/svg11.dtd">
<svg version="1.1" id="Capa_1" xmlns="http://www.w3.org/2000/svg" xmlns:xlink="http://www.w3.org/1999/xlink" x="0px" y="0px"
	 width="128px" height="128px" viewBox="0 0 128 128" enable-background="new 0 0 128 128" xml:space="preserve">
<path d="M121.15,39.387c-0.701-1.751-2.021-3.182-3.711-4.024c-1.418-0.705-35.086-17.289-65.009-17.289
	c-17.463,0-30.46,5.566-38.633,16.538c-12.01,16.132-12.408,42.164-1.216,79.589c0.79,2.644,2.94,4.663,5.629,5.283
	c0.448,0.103,4.494,1.007,9.018,1.007c9.253,0,13.389-3.873,15.228-7.122c1.024-1.809,1.566-3.791,1.627-5.939
	c1.044,0.047,2.106,0.076,3.158,0.076c3.965,0,14.497-0.083,17.866-7.99c0.304-0.709,0.525-0.955,0.67-2.234
	c0.109,0,0.222,0,0.332,0c4.65,0,17.009,0.085,20.373-8.813c0.906-2.403,0.877-4.692,0.297-6.86
	c4.746-1.03,12.466-3.518,14.561-10.328c0.422-1.37,0.568-2.676,0.503-3.928c8.817-0.98,15.019-4.044,18.481-9.158
	C122.718,54.656,124.805,48.528,121.15,39.387L121.15,39.387z M95.23,60.024c-4.563,0-8.092-0.504-8.092-0.504
	c21.76,15.36-14.08,16-14.08,16c13.601,12,2.95,14.25-6.949,14.25c-5.941,0-11.61-0.81-11.61-0.81
	c8.534,8.89,1.068,10.863-7.256,10.863c-6.657,0-13.864-1.263-13.864-1.263c7.2,12,0.15,14.25-6.15,14.25
	c-3.78,0-7.29-0.811-7.29-0.811c-20.674-69.133,3.484-86.245,32.492-86.245c28.461,0,61.588,16.485,61.588,16.485
	C120.168,57.613,105.218,60.024,95.23,60.024z"/>
</svg>
