<?xml version="1.0" encoding="utf-8"?>
<!-- Generator: Adobe Illustrator 16.0.0, SVG Export Plug-In . SVG Version: 6.00 Build 0)  -->
<!DOCTYPE svg PUBLIC "-//W3C//DTD SVG 1.1//EN" "http://www.w3.org/Graphics/SVG/1.1/DTD/svg11.dtd">
<svg version="1.1" id="Capa_1" xmlns="http://www.w3.org/2000/svg" xmlns:xlink="http://www.w3.org/1999/xlink" x="0px" y="0px"
	 width="128px" height="128px" viewBox="0 0 128 128" enable-background="new 0 0 128 128" xml:space="preserve">
<path d="M122.881,26.88H90.845l-6.421-16.765c-0.567-1.486-1.996-2.434-3.588-2.434H46.947c-1.601,0-3.036,0.961-3.597,2.462
	l-6.271,16.738H5.12c-2.121,0-3.84,1.787-3.84,3.908v89.531c0,1.019,0.405,1.996,1.126,2.716c0.719,0.721,1.696,1.125,2.714,1.125
	c0.001,0,0.003,0,0.004,0l117.76-0.128c2.118-0.002,3.836-1.723,3.836-3.84V30.789C126.72,28.668,125.001,26.881,122.881,26.88
	L122.881,26.88z M119.041,116.355l-110.08,0.119V34.56h30.783c1.602,0,3.036-0.961,3.597-2.462l6.271-16.738h28.584l6.422,16.765
	c0.566,1.486,1.994,2.434,3.585,2.434h30.839L119.041,116.355L119.041,116.355z"/>
<path d="M64,49.92c-14.116,0-25.6,11.484-25.6,25.6c0,14.116,11.483,25.601,25.6,25.601S89.6,89.636,89.6,75.52
	C89.6,61.404,78.116,49.92,64,49.92z M64,93.439c-9.879,0-17.92-8.035-17.92-17.92C46.08,65.636,54.121,57.6,64,57.6
	s17.92,8.036,17.92,17.919C81.92,85.404,73.879,93.439,64,93.439z"/>
</svg>
