<?xml version="1.0" encoding="utf-8"?>
<!-- Generator: Adobe Illustrator 16.0.0, SVG Export Plug-In . SVG Version: 6.00 Build 0)  -->
<!DOCTYPE svg PUBLIC "-//W3C//DTD SVG 1.1//EN" "http://www.w3.org/Graphics/SVG/1.1/DTD/svg11.dtd">
<svg version="1.1" id="Capa_1" xmlns="http://www.w3.org/2000/svg" xmlns:xlink="http://www.w3.org/1999/xlink" x="0px" y="0px"
	 width="128px" height="128px" viewBox="0 0 128 128" enable-background="new 0 0 128 128" xml:space="preserve">
<path d="M61.02,43.526L31.58,79.704c-0.933,1.147-1.125,2.696-0.489,4.034c0.636,1.34,1.985,2.153,3.468,2.153h58.88
	c1.482,0,2.83-0.813,3.468-2.153c0.25-0.524,0.373-1.068,0.373-1.63c0-0.866-0.293-1.716-0.862-2.414L66.979,43.522
	c-0.729-0.896-1.823-1.414-2.979-1.414c-1.154,0-2.249,0.521-2.978,1.418H61.02L61.02,43.526z M85.361,78.211H42.633l21.363-26.254
	L85.361,78.211L85.361,78.211z"/>
</svg>
