<?xml version="1.0" encoding="utf-8"?>
<!-- Generator: Adobe Illustrator 16.0.0, SVG Export Plug-In . SVG Version: 6.00 Build 0)  -->
<!DOCTYPE svg PUBLIC "-//W3C//DTD SVG 1.1//EN" "http://www.w3.org/Graphics/SVG/1.1/DTD/svg11.dtd">
<svg version="1.1" id="Capa_1" xmlns="http://www.w3.org/2000/svg" xmlns:xlink="http://www.w3.org/1999/xlink" x="0px" y="0px"
	 width="128px" height="128px" viewBox="0 0 128 128" enable-background="new 0 0 128 128" xml:space="preserve">
<path d="M43.526,66.981l36.178,29.439c1.147,0.933,2.696,1.125,4.034,0.489c1.34-0.636,2.153-1.985,2.153-3.468V34.562
	c0-1.482-0.813-2.83-2.153-3.468c-0.524-0.25-1.068-0.373-1.63-0.373c-0.866,0-1.716,0.293-2.414,0.862L43.522,61.022
	c-0.896,0.729-1.414,1.823-1.414,2.979c0,1.154,0.521,2.249,1.418,2.978V66.981L43.526,66.981z M78.211,42.64v42.729L51.957,64.005
	L78.211,42.64L78.211,42.64z"/>
</svg>
