<?xml version="1.0" encoding="utf-8"?>
<!-- Generator: Adobe Illustrator 16.0.0, SVG Export Plug-In . SVG Version: 6.00 Build 0)  -->
<!DOCTYPE svg PUBLIC "-//W3C//DTD SVG 1.1//EN" "http://www.w3.org/Graphics/SVG/1.1/DTD/svg11.dtd">
<svg version="1.1" id="Capa_1" xmlns="http://www.w3.org/2000/svg" xmlns:xlink="http://www.w3.org/1999/xlink" x="0px" y="0px"
	 width="128px" height="128px" viewBox="0 0 128 128" enable-background="new 0 0 128 128" xml:space="preserve">
<path d="M66.981,84.473l29.439-36.178c0.933-1.147,1.125-2.696,0.489-4.034c-0.636-1.34-1.985-2.153-3.468-2.153H34.561
	c-1.482,0-2.83,0.813-3.468,2.153c-0.25,0.524-0.373,1.068-0.373,1.63c0,0.866,0.293,1.716,0.862,2.414l29.439,36.172
	c0.729,0.896,1.823,1.414,2.979,1.414c1.155,0,2.25-0.521,2.978-1.418H66.981L66.981,84.473z M42.639,49.788h42.729L64.004,76.042
	L42.639,49.788L42.639,49.788z"/>
</svg>
