<?xml version="1.0" encoding="utf-8"?>
<!-- Generator: Adobe Illustrator 16.0.0, SVG Export Plug-In . SVG Version: 6.00 Build 0)  -->
<!DOCTYPE svg PUBLIC "-//W3C//DTD SVG 1.1//EN" "http://www.w3.org/Graphics/SVG/1.1/DTD/svg11.dtd">
<svg version="1.1" id="Capa_1" xmlns="http://www.w3.org/2000/svg" xmlns:xlink="http://www.w3.org/1999/xlink" x="0px" y="0px"
	 width="128px" height="128px" viewBox="0 0 128 128" enable-background="new 0 0 128 128" xml:space="preserve">
<path d="M57.142,105.725c-2.497-2.473-5.755-3.707-9.011-3.707c-3.295,0-6.59,1.264-9.094,3.791
	c-4.973,5.021-4.941,13.125,0.082,18.099c2.497,2.474,5.754,3.708,9.01,3.708c3.295,0,6.588-1.266,9.093-3.789
	c4.971-5.02,4.941-13.128-0.079-18.104L57.142,105.725z M51.77,118.418c-0.971,0.98-2.266,1.52-3.643,1.52
	c-1.359,0-2.639-0.527-3.607-1.487c-0.969-0.959-1.507-2.24-1.513-3.606c-0.006-1.367,0.521-2.656,1.48-3.625
	c0.971-0.979,2.266-1.519,3.643-1.519c1.359,0,2.642,0.526,3.605,1.479C53.741,113.165,53.754,116.415,51.77,118.418L51.77,118.418z
	"/>
<path d="M113.92,85.715V45.997c-2.561,0.596-5.12,0.596-7.68,0v38.321L77.951,55.926c-4.463,2.451-9.715,2.701-14.363,0.742
	l-13.763,39.68L25.751,31.95c-2.208,1.454-4.675,2.322-7.21,2.614L42.696,99.1c4.549-1.565,9.633-1.103,13.861,1.392l14.278-41.006
	l29.197,29.298C104.1,85.6,110.08,84.577,113.92,85.715z"/>
<path d="M119.348,93.562c-2.498-2.473-5.756-3.707-9.011-3.707c-3.295,0-6.59,1.264-9.094,3.791
	c-4.974,5.021-4.942,13.125,0.082,18.099c2.497,2.474,5.752,3.708,9.01,3.708c3.295,0,6.587-1.266,9.093-3.789
	c4.973-5.02,4.942-13.128-0.08-18.104V93.562z M113.979,106.255c-0.974,0.981-2.267,1.519-3.644,1.519
	c-1.358,0-2.64-0.526-3.606-1.486c-0.971-0.959-1.508-2.24-1.514-3.605c-0.008-1.367,0.52-2.658,1.48-3.625
	c0.97-0.979,2.266-1.52,3.643-1.52c1.359,0,2.643,0.527,3.605,1.48C115.949,101.002,115.962,104.252,113.979,106.255
	L113.979,106.255z"/>
<path d="M119.093,21.114c-2.497-2.472-5.755-3.706-9.011-3.706c-3.295,0-6.59,1.263-9.094,3.79
	c-4.973,5.021-4.941,13.126,0.082,18.099c2.496,2.474,5.754,3.708,9.01,3.708c3.295,0,6.588-1.265,9.093-3.789
	c4.972-5.02,4.942-13.128-0.079-18.103L119.093,21.114z M113.723,33.807c-0.973,0.98-2.267,1.519-3.644,1.519
	c-1.358,0-2.64-0.527-3.606-1.487c-0.97-0.959-1.508-2.24-1.514-3.606c-0.006-1.367,0.521-2.657,1.48-3.625
	c0.972-0.979,2.266-1.519,3.643-1.519c1.359,0,2.643,0.527,3.605,1.48C115.693,28.554,115.706,31.804,113.723,33.807L113.723,33.807
	z"/>
<path d="M79.414,31.867c-2.497-2.472-5.755-3.706-9.012-3.706c-3.295,0-6.589,1.263-9.093,3.79
	c-4.973,5.022-4.941,13.126,0.082,18.099c2.497,2.474,5.753,3.708,9.009,3.708c3.295,0,6.588-1.265,9.094-3.789
	C84.466,44.949,84.436,36.841,79.414,31.867L79.414,31.867z M74.043,44.559c-0.973,0.98-2.266,1.519-3.643,1.519
	c-1.359,0-2.639-0.527-3.607-1.487c-0.969-0.959-1.507-2.24-1.514-3.606c-0.006-1.367,0.521-2.657,1.48-3.625
	c0.973-0.979,2.266-1.519,3.643-1.519c1.359,0,2.643,0.527,3.605,1.48C76.014,39.307,76.027,42.557,74.043,44.559L74.043,44.559z"/>
<path d="M25.654,8.827c-2.497-2.472-5.755-3.706-9.011-3.706c-3.295,0-6.59,1.263-9.094,3.79C2.576,13.932,2.608,22.037,7.631,27.01
	c2.497,2.474,5.754,3.708,9.01,3.708c3.295,0,6.588-1.265,9.093-3.789C30.705,21.909,30.676,13.801,25.654,8.827L25.654,8.827z
	 M20.283,21.519c-0.971,0.98-2.266,1.519-3.643,1.519c-1.359,0-2.639-0.527-3.607-1.487c-0.969-0.959-1.506-2.24-1.513-3.606
	c-0.006-1.367,0.521-2.657,1.48-3.625c0.972-0.979,2.266-1.519,3.643-1.519c1.359,0,2.642,0.527,3.604,1.48
	C22.253,16.268,22.265,19.518,20.283,21.519z"/>
</svg>
