<?xml version="1.0" encoding="utf-8"?>
<!-- Generator: Adobe Illustrator 16.0.0, SVG Export Plug-In . SVG Version: 6.00 Build 0)  -->
<!DOCTYPE svg PUBLIC "-//W3C//DTD SVG 1.1//EN" "http://www.w3.org/Graphics/SVG/1.1/DTD/svg11.dtd">
<svg version="1.1" id="Capa_1" xmlns="http://www.w3.org/2000/svg" xmlns:xlink="http://www.w3.org/1999/xlink" x="0px" y="0px"
	 width="128px" height="128px" viewBox="0 0 128 128" enable-background="new 0 0 128 128" xml:space="preserve">
<path d="M88.32,117.76H10.24V39.68h30.72V32H6.4c-2.121,0-3.84,1.719-3.84,3.84v85.76c0,2.121,1.719,3.84,3.84,3.84h85.76
	c2.121,0,3.84-1.719,3.84-3.84v-32h-7.68V117.76z"/>
<path d="M111.49,12.625l-46.883,0.548l0.09,7.68l37.459-0.436L39.35,83.223l5.43,5.43l62.806-62.806l-0.439,37.457l7.681,0.09
	l0.548-46.88c0.012-1.034-0.395-2.029-1.125-2.76c-0.729-0.732-1.738-1.108-2.758-1.126L111.49,12.625z"/>
</svg>
