<?xml version="1.0" encoding="utf-8"?>
<!-- Generator: Adobe Illustrator 16.0.0, SVG Export Plug-In . SVG Version: 6.00 Build 0)  -->
<!DOCTYPE svg PUBLIC "-//W3C//DTD SVG 1.1//EN" "http://www.w3.org/Graphics/SVG/1.1/DTD/svg11.dtd">
<svg version="1.1" id="Capa_1" xmlns="http://www.w3.org/2000/svg" xmlns:xlink="http://www.w3.org/1999/xlink" x="0px" y="0px"
	 width="82px" height="128px" viewBox="0 0 82 128" enable-background="new 0 0 82 128" xml:space="preserve">
<path d="M56.292,85.982l1.585-1.338c6.679-5.638,9.628-13.375,7.703-20.193c-3.414-12.077-13.306-16.64-22.031-20.667
	c-8.306-3.832-15.48-7.141-17.611-15.977c-0.727-3.017,0.297-6.451,2.814-9.645c3.241-4.113,8.207-6.642,12.655-6.642
	c0,0,0.004,0,0.006,0c4.118,0,7.78,1.435,10.684,4.275c2.881,2.819,4.264,6.431,4.264,10.408v3.237h7.681v-3.237
	c0-6.059-2.206-11.622-6.575-15.898C53.12,6.053,47.55,3.84,41.415,3.84c-0.005,0-0.008,0-0.01,0c-6.813,0-13.974,3.588-18.687,9.57
	c-3.981,5.055-5.528,10.942-4.244,16.262c1.307,5.421,3.945,9.325,7.235,12.378l-1.585,1.322
	c-6.678,5.638-9.628,13.368-7.703,20.186c3.414,12.077,13.306,16.635,22.031,20.662c8.306,3.832,15.481,7.142,17.612,15.976
	c0.727,3.019-0.297,6.451-2.813,9.646c-3.239,4.111-8.205,6.64-12.653,6.64c0,0-0.004,0-0.006,0c-4.117,0-7.78-1.436-10.683-4.275
	c-2.883-2.819-4.266-6.432-4.266-10.408v-3.236h-7.68v3.236c0,6.059,2.206,11.622,6.575,15.898
	c4.347,4.252,9.918,6.465,16.052,6.465c0.004,0,0.005,0,0.01,0c6.813,0,13.973-3.588,18.687-9.57
	c3.981-5.055,5.528-10.943,4.245-16.262c-1.307-5.419-3.945-9.29-7.236-12.344L56.292,85.982z M23.81,61.462
	c-1.079-3.821,0.988-8.623,5.267-12.238l2.934-2.478l-0.27-0.32c2.805,1.659,5.757,3.026,8.59,4.333
	c8.268,3.814,15.407,7.108,17.858,15.781c1.08,3.821-0.987,8.625-5.267,12.237l-2.934,2.479l0.271,0.32
	c-2.806-1.659-5.759-3.025-8.591-4.333C33.4,73.427,26.262,70.134,23.81,61.462z"/>
</svg>
