<?xml version="1.0" encoding="utf-8"?>
<!-- Generator: Adobe Illustrator 16.0.0, SVG Export Plug-In . SVG Version: 6.00 Build 0)  -->
<!DOCTYPE svg PUBLIC "-//W3C//DTD SVG 1.1//EN" "http://www.w3.org/Graphics/SVG/1.1/DTD/svg11.dtd">
<svg version="1.1" id="Capa_1" xmlns="http://www.w3.org/2000/svg" xmlns:xlink="http://www.w3.org/1999/xlink" x="0px" y="0px"
	 width="128px" height="128px" viewBox="0 0 128 128" enable-background="new 0 0 128 128" xml:space="preserve">
<path d="M118.039,17.436C111.969,8.79,101.99,3.831,90.661,3.831c-15.397,0-22.697,7.661-26.792,14.41
	c-6.716-9.458-16.571-14.41-28.861-14.41c-10.552,0-19.766,4.503-25.277,12.353c-5.875,8.367-6.994,19.395-3.069,30.255
	c9.845,27.25,52.638,74.463,54.454,76.461c0.724,0.799,1.754,1.26,2.834,1.26c0.001,0,0.004,0,0.005,0
	c1.078,0,2.107-0.457,2.834-1.253c1.826-1.997,44.848-49.212,54.693-76.466C125.135,36.329,123.879,25.756,118.039,17.436
	L118.039,17.436z M114.258,43.83c-7.924,21.939-40.443,59.607-50.296,70.72c-9.811-11.12-42.152-48.78-50.079-70.72
	c-3.062-8.474-2.284-16.942,2.133-23.233c4.114-5.86,10.858-9.087,18.993-9.087c11.77,0,20.385,5.486,25.605,16.303
	c0.641,1.327,1.985,2.171,3.459,2.171c1.474,0,2.817-0.843,3.459-2.171l0.257-0.535c3.197-6.655,7.576-15.768,22.874-15.768
	c8.792,0,16.479,3.768,21.092,10.337c4.384,6.245,5.295,14.257,2.505,21.983H114.258z"/>
</svg>
