<?xml version="1.0" encoding="utf-8"?>
<!-- Generator: Adobe Illustrator 16.0.0, SVG Export Plug-In . SVG Version: 6.00 Build 0)  -->
<!DOCTYPE svg PUBLIC "-//W3C//DTD SVG 1.1//EN" "http://www.w3.org/Graphics/SVG/1.1/DTD/svg11.dtd">
<svg version="1.1" id="Capa_1" xmlns="http://www.w3.org/2000/svg" xmlns:xlink="http://www.w3.org/1999/xlink" x="0px" y="0px"
	 width="128px" height="128px" viewBox="0 0 128 128" enable-background="new 0 0 128 128" xml:space="preserve">
<path d="M117.76,15.36H10.24c-4.241,0-7.68,3.439-7.68,7.68v94.72c0,4.241,3.439,7.68,7.68,7.68h107.52
	c4.241,0,7.68-3.438,7.68-7.68V23.04C125.439,18.799,122.001,15.36,117.76,15.36z M10.24,23.04h107.52v19.313h-0.001l0.001,0.001
	C95.746,57.906,70.559,74.316,66.047,75.168c-1.551,0.004-3.113,0.093-4.663,0.016c-4.348-0.766-29.358-17.705-51.144-33.717V23.04z
	 M10.24,117.76c0,0-0.058-46.391-0.038-66.821c0.014,0.011,0.024,0.031,0.038,0.042c15.986,11.63,44.163,31.498,50.598,31.859
	c1.776,0.099,3.56,0.004,5.337,0.004c6.081,0,33.104-18.162,51.584-31.103l0.001-0.001v66.02H10.24z"/>
</svg>
