<?xml version="1.0" encoding="utf-8"?>
<!-- Generated by IcoMoon.io -->
<!DOCTYPE svg PUBLIC "-//W3C//DTD SVG 1.1//EN" "http://www.w3.org/Graphics/SVG/1.1/DTD/svg11.dtd">
<svg version="1.1" xmlns="http://www.w3.org/2000/svg" xmlns:xlink="http://www.w3.org/1999/xlink" width="128" height="128" viewBox="0 0 128 128">
<g id="icomoon-ignore">
	<line stroke-width="1" x1="" y1="" x2="" y2="" stroke="#449FDB" opacity=""></line>
</g>
	<path d="M44.532 65.073c0.258 0.054 0.52 0.079 0.779 0.079 0.758 0 1.505-0.225 2.144-0.654 1.077-0.724 2.27-1.461 3.534-2.237 8.84-5.441 20.946-12.896 20.818-33.611l-7.68 0.047c0.101 16.395-9.071 22.043-17.163 27.025-0.801 0.493-1.574 0.97-2.327 1.448-13.242-4.266-11.020-26.182-10.996-26.406 0.12-1.076-0.22-2.154-0.936-2.966s-1.742-1.284-2.825-1.3c-4.427-0.064-10.691-5.41-15.269-7.849 9.119-6.062 31.461-14.537 56.438 1.119 1.142 0.715 2.573 0.779 3.773 0.173 0.53-0.269 12.995-6.726 12.941-19.955l-7.68 0.032c0.026 6.084-4.488 10.17-7.032 11.99-36.48-21.115-67.635 3.915-67.95 4.204-0.882 0.8-1.344 1.963-1.249 3.151s0.735 2.264 1.733 2.912c1.254 0.817 11.203 9.73 20.209 11.466-0.133 8.383 1.468 27.753 18.739 31.334z" fill="#000000"></path>
	<path d="M92.347 86.125c-7.352-7.525-17.011-11.373-28.704-11.373-17.253 0-32.827 8.395-33.482 8.753-1.062 0.58-1.788 1.627-1.961 2.824-0.172 1.199 0.232 2.408 1.088 3.263 0.328 0.328 7.525 7.52 18.931 8.802 1.257 7.355 5.646 24.443 19.374 24.443 0.013 0 0.134 0 0.146 0 1.024 0 2.001-0.555 2.716-1.29 0.55-0.564 13.581-14.097 22.534-30.9 0.787-1.477 0.527-3.323-0.642-4.521zM66.171 114.756c-8.791-1.819-10.74-20.284-10.757-20.475-0.178-1.971-1.823-3.486-3.802-3.497-4.911-0.031-9.032-1.587-11.973-3.185 5.613-2.267 14.627-5.166 24.004-5.166 8.468 0 15.569 2.388 21.149 7.108-6.748 11.82-15.454 21.757-18.621 25.215z" fill="#000000"></path>
	<path d="M127.977 59.36l-10.911 0.064c-4.782-12.861-6.603-30.193-6.623-30.374-0.198-1.941-1.822-3.424-3.771-3.448-0.050 0-0.1-0.001-0.15-0.001-12.155 0-20.23 18.792-21.114 20.941-0.192 0.463-0.289 0.958-0.289 1.459 0 3.251-7.044 7.991-12.126 10.162-1.332 0.565-2.232 1.833-2.33 3.277s0.626 2.82 1.87 3.558c0.488 0.29 8.867 5.134 22.848 5.133 5.669 0 12.26-0.796 19.616-3.014l13.024-0.076-0.046-7.68zM83.738 61.093c7.227-4.914 8.713-9.919 8.998-12.163 1.909-4.401 6.221-11.882 10.628-14.615 0.838 5.992 2.686 16.918 5.999 26.382-11.189 2.752-19.958 1.816-25.626 0.395z" fill="#000000"></path>
</svg>
