<?xml version="1.0" encoding="utf-8"?>
<!-- Generated by IcoMoon.io -->
<!DOCTYPE svg PUBLIC "-//W3C//DTD SVG 1.1//EN" "http://www.w3.org/Graphics/SVG/1.1/DTD/svg11.dtd">
<svg version="1.1" xmlns="http://www.w3.org/2000/svg" xmlns:xlink="http://www.w3.org/1999/xlink" width="128" height="128" viewBox="0 0 128 128">
<g id="icomoon-ignore">
	<line stroke-width="1" x1="" y1="" x2="" y2="" stroke="#449FDB" opacity=""></line>
</g>
	<path d="M112.896 10.953v13.448c-0.023 0-0.047 0-0.069 0-14.739-0.001-17.211 15.104-17.211 15.104v13.766h17.92v12.8h-17.92v51.177h-14.080v-51.178h-19.2v-12.8h19.2v-13.335c0-25.984 31.36-28.982 31.36-28.982zM112.897 3.273c-0.243 0-0.488 0.011-0.732 0.034-0.379 0.036-9.399 0.941-18.437 5.55-12.815 6.534-19.872 17.571-19.872 31.077v5.655h-11.52c-4.241 0-7.68 3.439-7.68 7.68v12.8c0 4.241 3.439 7.68 7.68 7.68h11.52v43.498c0 4.241 3.439 7.68 7.68 7.68h14.080c4.241 0 7.68-3.439 7.68-7.68v-43.498h10.24c4.241 0 7.68-3.439 7.68-7.68v-12.8c0-4.241-3.439-7.68-7.68-7.68h-10.24v-5.3c0.525-2.193 2.598-8.21 9.53-8.21 0.008 0 0.014 0 0.022 0 2.033 0 4.006-0.806 5.446-2.241 1.445-1.441 2.281-3.398 2.281-5.439v-13.446c0-2.163-0.913-4.228-2.514-5.682-1.419-1.293-3.263-1.998-5.163-1.998v0z" fill="#000000"></path>
</svg>
