<?xml version="1.0" encoding="utf-8"?>
<!-- Generated by IcoMoon.io -->
<!DOCTYPE svg PUBLIC "-//W3C//DTD SVG 1.1//EN" "http://www.w3.org/Graphics/SVG/1.1/DTD/svg11.dtd">
<svg version="1.1" xmlns="http://www.w3.org/2000/svg" xmlns:xlink="http://www.w3.org/1999/xlink" width="128" height="128" viewBox="0 0 128 128">
<g id="icomoon-ignore">
	<line stroke-width="1" x1="" y1="" x2="" y2="" stroke="#449FDB" opacity=""></line>
</g>
	<path d="M32.882 33.807c-14.813 0-26.866 12.053-26.866 26.866 0 14.812 12.052 26.863 26.866 26.863 14.829 0 26.894-12.051 26.894-26.863 0-14.813-12.065-26.866-26.894-26.866zM32.882 79.858c-10.588 0-19.186-8.571-19.186-19.183 0-10.618 8.598-19.186 19.186-19.186 10.606 0 19.214 8.568 19.214 19.186 0 10.611-8.607 19.183-19.214 19.183z" fill="#000000"></path>
	<path d="M94.748 33.807c-14.83 0-26.895 12.053-26.895 26.866 0 14.812 12.065 26.863 26.895 26.863 14.814 0 26.865-12.051 26.865-26.863 0.001-14.813-12.050-26.866-26.865-26.866zM94.748 79.858c-10.618 0-19.215-8.571-19.215-19.183 0-10.618 8.598-19.186 19.215-19.186 10.578 0 19.185 8.568 19.185 19.186 0.001 10.611-8.607 19.183-19.185 19.183z" fill="#000000"></path>
</svg>
