<?xml version="1.0" encoding="utf-8"?>
<!-- Generated by IcoMoon.io -->
<!DOCTYPE svg PUBLIC "-//W3C//DTD SVG 1.1//EN" "http://www.w3.org/Graphics/SVG/1.1/DTD/svg11.dtd">
<svg version="1.1" xmlns="http://www.w3.org/2000/svg" xmlns:xlink="http://www.w3.org/1999/xlink" width="128" height="128" viewBox="0 0 128 128">
<g id="icomoon-ignore">
	<line stroke-width="1" x1="" y1="" x2="" y2="" stroke="#449FDB" opacity=""></line>
</g>
	<path d="M0.384 115.2h127.36v7.68h-127.36v-7.68z" fill="#000000"></path>
	<path d="M33.28 3.84h-23.040c-2.121 0-3.84 1.719-3.84 3.84v96c0 2.121 1.719 3.84 3.84 3.84h23.040c2.121 0 3.84-1.719 3.84-3.84v-96c0-2.121-1.719-3.84-3.84-3.84zM29.44 99.84h-15.36v-88.32h15.36v88.32z" fill="#000000"></path>
	<path d="M75.52 34.56h-23.040c-2.121 0-3.84 1.719-3.84 3.84v65.28c0 2.121 1.719 3.84 3.84 3.84h23.040c2.121 0 3.84-1.719 3.84-3.84v-65.28c0-2.121-1.719-3.84-3.84-3.84zM71.68 98.56h-15.36v-56.32h15.36v56.32z" fill="#000000"></path>
	<path d="M117.76 70.4h-23.040c-2.121 0-3.84 1.719-3.84 3.84v29.44c0 2.121 1.719 3.84 3.84 3.84h23.040c2.121 0 3.84-1.719 3.84-3.84v-29.44c0-2.121-1.719-3.84-3.84-3.84zM113.92 98.56h-15.36v-20.48h15.36v20.48z" fill="#000000"></path>
</svg>
