<?xml version="1.0" encoding="utf-8"?>
<!-- Generated by IcoMoon.io -->
<!DOCTYPE svg PUBLIC "-//W3C//DTD SVG 1.1//EN" "http://www.w3.org/Graphics/SVG/1.1/DTD/svg11.dtd">
<svg version="1.1" xmlns="http://www.w3.org/2000/svg" xmlns:xlink="http://www.w3.org/1999/xlink" width="128" height="128" viewBox="0 0 128 128">
<g id="icomoon-ignore">
	<line stroke-width="1" x1="" y1="" x2="" y2="" stroke="#449FDB" opacity=""></line>
</g>
	<path d="M77.956 56.961c-2.386-1.88-19.023-14.453-34.47-12.273-5.396 0.763-9.992 3.215-13.736 7.249-5.601-9.284-10.433-18.277-12.221-25.692-0.741-3.070 0.212-6.692 2.767-9.937 3.288-4.177 8.922-7.112 12.762-7.112 0 0 0.165 0.019 0.168 0.019 4.181 0 7.981 1.569 10.93 4.453 2.925 2.863 4.485 6.901 4.485 10.94v3.551h7.68v-3.551c0-6.122-2.336-12.11-6.751-16.429-4.393-4.298-10.13-6.901-16.329-6.901-0.004 0-0.006 0-0.008 0-6.884 0-14.12 3.994-18.881 10.039-4.022 5.106-5.585 11.236-4.289 16.607 2.805 11.633 11.647 25.75 20.197 39.346 7.68 12.211 15.621 24.868 18.372 34.597 1.102 3.9-1.074 7.826-2.469 9.67-3.282 4.335-8.614 7.501-13.271 7.501-0.001 0-0.001 0-0.004 0-8.596 0-14.967-7.281-14.967-15.649v-3.84l-7.68 0.002v3.84c0 12.603 9.815 23.327 22.646 23.327 0.001 0 0.004 0 0.006 0 7.048 0 14.66-4.278 19.392-10.532 3.895-5.147 5.224-10.998 3.736-16.26-3.050-10.794-10.925-23.371-19.26-36.626-0.924-1.47-1.852-2.976-2.775-4.453 2.808-3.762 6.264-5.928 10.559-6.539 10.523-1.503 22.794 6.436 27.178 9.588 2.825 0.801 6.053 1.636 8.508 2.131-0.558-1.986-1.389-4.553-2.275-7.068z" fill="#000000"></path>
	<path d="M117.583 73.573c-3.994-17.394-10.504-26.213-19.349-26.213-4.58 0-9.243 2.405-14.257 7.355-1.079 1.065-1.43 2.666-0.897 4.084 0.351 0.933 0.705 1.912 1.052 2.899 0.885 2.515 1.716 5.082 2.275 7.068-2.455-0.495-5.684-1.329-8.508-2.131-0.96-0.273-1.874-0.54-2.693-0.791-1.357-0.413-2.834-0.047-3.838 0.957-6.080 6.079-8.101 11.871-6.010 17.216 2.72 6.954 12.186 11.83 28.933 14.906 11.529 2.117 22.226 2.56 22.675 2.577 0.051 0.001 0.101 0.002 0.151 0.002 1.025 0 2.010-0.41 2.733-1.143 0.759-0.769 1.158-1.822 1.101-2.899-0.023-0.486-0.659-12.083-3.369-23.887zM106.876 93.033c-15.21-1.673-31.969-5.69-34.364-11.813-0.874-2.236 0.76-5.014 2.761-7.345 3.773 1.089 10.601 2.924 14.059 3.012 0.086 0.001 0.18 0.008 0.262 0.008 0.988 0 2.442-0.12 3.654-1.157 0.914-0.781 1.763-1.512 1.534-4.279-0.197-2.373-1.188-6.24-3.615-12.932 2.688-2.29 5.103-3.488 7.066-3.488 7.095 0 12.002 16.94 14.079 32.558 0.27 2.031 0.494 4.042 0.667 5.99-1.978-0.139-4.027-0.326-6.103-0.554z" fill="#000000"></path>
</svg>
