<?xml version="1.0" encoding="utf-8"?>
<!-- Generated by IcoMoon.io -->
<!DOCTYPE svg PUBLIC "-//W3C//DTD SVG 1.1//EN" "http://www.w3.org/Graphics/SVG/1.1/DTD/svg11.dtd">
<svg version="1.1" xmlns="http://www.w3.org/2000/svg" xmlns:xlink="http://www.w3.org/1999/xlink" width="128" height="128" viewBox="0 0 128 128">
<g id="icomoon-ignore">
	<line stroke-width="1" x1="" y1="" x2="" y2="" stroke="#449FDB" opacity=""></line>
</g>
	<path d="M124.239 73.823l-57.99-69.875c-0.73-0.879-1.813-1.388-2.956-1.388-0.008 0-0.015 0-0.024 0-1.15 0.008-2.236 0.53-2.959 1.423l-56.578 69.875c-0.933 1.15-1.12 2.996-0.482 4.333 0.638 1.335 1.986 2.449 3.466 2.449h18.885v40.932c0 2.12 2.039 3.839 4.159 3.84l66.801 0.028c1.019 0 1.715-0.403 2.434-1.124s0.846-1.697 0.846-2.716v-40.96h21.445c1.489 0 2.843-1.123 3.477-2.47 0.632-1.347 0.429-3.203-0.522-4.347zM96.64 72.96c-2.121 0-4.48 1.194-4.48 3.315v41.483l-58.88-0.027v-41.457c0-2.121-1.079-3.315-3.2-3.315h-15.315l48.565-59.977 49.778 59.977h-16.467z" fill="#000000"></path>
</svg>
