<?xml version="1.0" encoding="utf-8"?>
<!-- Generated by IcoMoon.io -->
<!DOCTYPE svg PUBLIC "-//W3C//DTD SVG 1.1//EN" "http://www.w3.org/Graphics/SVG/1.1/DTD/svg11.dtd">
<svg version="1.1" xmlns="http://www.w3.org/2000/svg" xmlns:xlink="http://www.w3.org/1999/xlink" width="128" height="128" viewBox="0 0 128 128">
<g id="icomoon-ignore">
	<line stroke-width="1" x1="" y1="" x2="" y2="" stroke="#449FDB" opacity=""></line>
</g>
	<path d="M52.48 50.56v51.853c0 5.233 4.535 9.464 11.52 9.464s11.52-4.232 11.52-9.464v-40.973l-23.040-10.88zM67.84 102.413c0 0.366-0.757 1.784-3.84 1.784s-3.84-1.417-3.84-1.784v-39.999l7.68 4.002v35.996z" fill="#000000"></path>
	<path d="M89.197 25.6h14.483v-24.32h-79.36l0.001 24.32h14.079v73.49c0 28.015 25.99 28.774 25.99 28.774 7.866-0.438 14.062-3.26 18.419-8.261 6.922-7.945 6.538-18.794 6.441-20.384l-0.054-73.619zM81.57 99.323l0.011 0.297c0.006 0.088 0.607 8.984-4.598 14.915-2.92 3.327-7.35 5.185-12.977 5.526-1.678-0.052-17.928-1.096-17.928-20.97v-81.17h-14.080v-8.96h64v8.96h-14.488l0.059 81.403z" fill="#000000"></path>
</svg>
