<?xml version="1.0" encoding="utf-8"?>
<!-- Generated by IcoMoon.io -->
<!DOCTYPE svg PUBLIC "-//W3C//DTD SVG 1.1//EN" "http://www.w3.org/Graphics/SVG/1.1/DTD/svg11.dtd">
<svg version="1.1" xmlns="http://www.w3.org/2000/svg" xmlns:xlink="http://www.w3.org/1999/xlink" width="128" height="128" viewBox="0 0 128 128">
<g id="icomoon-ignore">
	<line stroke-width="1" x1="" y1="" x2="" y2="" stroke="#449FDB" opacity=""></line>
</g>
	<path d="M121.010 27.743l-21.76-21.705c-1.44-1.441-3.393-2.198-5.43-2.198-0.006 0-0.013 0-0.018 0-2.044 0-4 0.772-5.438 2.222l-77.553 78.245c-1.161 1.172-1.914 2.673-2.148 4.305l-3.846 26.891c-0.356 2.486 0.527 4.987 2.364 6.7 1.436 1.34 3.314 2.063 5.239 2.063 0.536 0 1.076-0.058 1.613-0.173l25.085-5.385c1.445-0.31 2.77-1.032 3.816-2.078l78.075-78.026c1.441-1.44 2.252-3.395 2.252-5.431-0.001-2.037-0.81-3.991-2.251-5.431zM37.505 111.2l-25.085 5.385 3.848-26.898 62.65-63.231 8.585 8.587-58.655 58.654 5.43 5.431 58.654-58.652 7.666 7.671-63.091 63.053zM106.030 42.718l-21.707-21.716 9.498-9.585 21.76 21.758-9.55 9.544z" fill="#000000"></path>
</svg>
