<?xml version="1.0" encoding="utf-8"?>
<!-- Generated by IcoMoon.io -->
<!DOCTYPE svg PUBLIC "-//W3C//DTD SVG 1.1//EN" "http://www.w3.org/Graphics/SVG/1.1/DTD/svg11.dtd">
<svg version="1.1" xmlns="http://www.w3.org/2000/svg" xmlns:xlink="http://www.w3.org/1999/xlink" width="128" height="128" viewBox="0 0 128 128">
<g id="icomoon-ignore">
	<line stroke-width="1" x1="" y1="" x2="" y2="" stroke="#449FDB" opacity=""></line>
</g>
	<path d="M17.090 18.366c0 15.081-2.44 33.035-6.018 35.685l-5.623 4.015c-1.009 0.721-1.609 1.884-1.609 3.124v5.353c0 1.24 0.6 2.404 1.61 3.124l5.571 3.977c3.63 2.687 6.070 20.777 6.070 35.99 0 9.464 11.689 17.085 21.367 17.085h10.182v-7.68h-10.182c-5.724 0-13.687-4.739-13.687-9.406 0-8.297-0.663-35.861-9.235-42.203l-4.015-2.866v-1.4l4.068-2.906c8.52-6.306 9.183-33.663 9.183-41.896 0-4.666 7.964-9.404 13.687-9.404h10.182v-7.68h-10.182c-9.678 0-21.367 7.621-21.367 17.085z" fill="#000000"></path>
	<path d="M122.551 58.065l-5.569-3.976c-3.633-2.689-6.072-20.642-6.072-35.724 0-9.464-11.689-17.085-21.367-17.085h-10.182v7.68h10.182c5.724 0 13.687 4.739 13.687 9.405 0 8.234 0.664 35.589 9.236 41.935l4.014 2.866v1.4l-4.065 2.904c-8.521 6.305-9.185 33.867-9.185 42.164 0 4.667-7.964 9.406-13.688 9.406h-10.181v7.68h10.182c9.678 0 21.367-7.621 21.367-17.085 0-15.212 2.44-33.304 6.020-35.953l5.622-4.015c1.009-0.722 1.609-1.885 1.609-3.126v-5.353c0-1.239-0.6-2.402-1.609-3.124z" fill="#000000"></path>
</svg>
