<?xml version="1.0" encoding="utf-8"?>
<!-- Generated by IcoMoon.io -->
<!DOCTYPE svg PUBLIC "-//W3C//DTD SVG 1.1//EN" "http://www.w3.org/Graphics/SVG/1.1/DTD/svg11.dtd">
<svg version="1.1" xmlns="http://www.w3.org/2000/svg" xmlns:xlink="http://www.w3.org/1999/xlink" width="128" height="128" viewBox="0 0 128 128">
<g id="icomoon-ignore">
	<line stroke-width="1" x1="" y1="" x2="" y2="" stroke="#449FDB" opacity=""></line>
</g>
	<path d="M94.766 85.714l-1.811 1.811-13.525-13.526c6.341-7.562 10.17-17.3 10.17-27.919 0-23.997-19.523-43.52-43.52-43.52s-43.52 19.523-43.52 43.52 19.523 43.52 43.52 43.52c10.619 0 20.357-3.829 27.919-10.17l13.525 13.525-1.811 1.811 31.36 31.36 9.051-9.051-31.358-31.361zM10.24 46.080c0-19.798 16.044-35.84 35.84-35.84s35.84 16.042 35.84 35.84c0 19.788-16.043 35.84-35.84 35.84s-35.84-16.052-35.84-35.84z" fill="#000000"></path>
	<path d="M49.92 29.44h-7.68v12.8h-12.8v7.68h12.8v12.8h7.68v-12.8h12.8v-7.68h-12.8z" fill="#000000"></path>
</svg>
