<?xml version="1.0" encoding="utf-8"?>
<!-- Generator: Adobe Illustrator 16.0.0, SVG Export Plug-In . SVG Version: 6.00 Build 0)  -->
<!DOCTYPE svg PUBLIC "-//W3C//DTD SVG 1.1//EN" "http://www.w3.org/Graphics/SVG/1.1/DTD/svg11.dtd">
<svg version="1.1" id="Capa_1" xmlns="http://www.w3.org/2000/svg" xmlns:xlink="http://www.w3.org/1999/xlink" x="0px" y="0px"
	 width="128px" height="128px" viewBox="0 0 128 128" enable-background="new 0 0 128 128" xml:space="preserve">
<path d="M38.36,19.225v46.911c-3.84-0.886-9.513-1.021-15.861,2.133c-5.078,2.521-5.864,6.465-5.864,8.591
	c0,4.771,3.615,9.043,4.593,10.108l22.628,30.641c0.114,0.154,0.234,0.298,0.371,0.435c8.214,8.214,26.69,7.455,29.865,7.26
	c3.174,0.194,21.653,0.952,29.869-7.261c6.12-6.12,7.404-18.754,7.404-28.275c0-2.665-0.105-4.617-0.148-5.29
	c0.019-0.388,0.047-1.188,0.047-2.281c0-6.513-0.895-18.387-7.25-24.741c-7.072-7.075-25.974-7.575-33.653-7.403V19.228
	c0-0.412-0.104-4.134-1.834-7.976c-2.515-5.587-7.309-8.664-13.554-8.664c-12.209,0-16.612,9.951-16.612,16.64V19.225z
	 M62.681,19.225v34.816c0,1.061,0.383,2.074,1.156,2.799c0.772,0.726,1.783,1.101,2.843,1.035c9.773-0.613,27.057,0.201,31.863,5.01
	c3.165,3.166,5.047,10.383,5.047,19.311c0,1.248-0.045,2.025-0.049,2.078c-0.01,0.172-0.011,0.344,0,0.514
	c0.001,0.021,0.145,2.026,0.145,4.979c0,11.076-1.928,19.616-5.156,22.846c-5.117,5.116-19.186,5.354-24.171,5.011
	c-0.177-0.011-0.356-0.011-0.532,0c-4.929,0.339-18.721,0.111-23.985-4.83L27.26,82.227c-0.096-0.129-0.207-0.261-0.317-0.376
	c-1.07-1.126-2.655-3.49-2.655-4.989c0-0.302,0-0.933,1.573-1.714c8.051-3.998,13.88-0.383,14.089-0.25
	c1.179,0.79,2.749,0.868,4.001,0.2c1.253-0.671,2.09-1.972,2.09-3.393v-52.48c0-0.918,0.251-8.959,8.96-8.959
	C62.215,10.266,62.681,17.747,62.681,19.225L62.681,19.225z"/>
</svg>
