<?xml version="1.0" encoding="utf-8"?>
<!-- Generator: Adobe Illustrator 16.0.0, SVG Export Plug-In . SVG Version: 6.00 Build 0)  -->
<!DOCTYPE svg PUBLIC "-//W3C//DTD SVG 1.1//EN" "http://www.w3.org/Graphics/SVG/1.1/DTD/svg11.dtd">
<svg version="1.1" id="Capa_1" xmlns="http://www.w3.org/2000/svg" xmlns:xlink="http://www.w3.org/1999/xlink" x="0px" y="0px"
	 width="128px" height="128px" viewBox="0 0 128 128" enable-background="new 0 0 128 128" xml:space="preserve">
<path d="M19.227,38.36c-6.688,0-16.64,4.403-16.64,16.612c0,6.245,3.077,11.039,8.664,13.554c3.842,1.729,7.563,1.834,7.976,1.834
	H50.05c-0.172,7.68,0.328,26.581,7.403,33.653c6.354,6.355,18.228,7.25,24.741,7.25c1.094,0,1.894-0.028,2.281-0.047
	c0.673,0.043,2.625,0.148,5.29,0.148c9.521,0,22.155-1.284,28.275-7.404c8.213-8.217,7.455-26.695,7.261-29.869
	c0.195-3.176,0.954-21.651-7.26-29.865c-0.137-0.137-0.28-0.257-0.435-0.371L86.967,21.228c-1.065-0.978-5.338-4.593-10.108-4.593
	c-2.126,0-6.069,0.786-8.591,5.864c-3.153,6.349-3.019,12.021-2.133,15.861H19.224H19.227z M19.224,62.681
	c-1.478,0-8.959-0.466-8.959-7.681c0-8.709,8.041-8.96,8.959-8.96h52.48c1.421,0,2.722-0.837,3.393-2.09
	c0.668-1.252,0.59-2.822-0.2-4.001c-0.133-0.209-3.748-6.038,0.25-14.089c0.781-1.573,1.412-1.573,1.714-1.573
	c1.499,0,3.863,1.585,4.989,2.655c0.115,0.11,0.247,0.222,0.376,0.317l30.566,22.581c4.941,5.265,5.169,19.056,4.83,23.985
	c-0.011,0.176-0.011,0.355,0,0.531c0.343,4.986,0.105,19.055-5.011,24.172c-3.229,3.229-11.77,5.156-22.846,5.156
	c-2.953,0-4.959-0.144-4.979-0.145c-0.17-0.011-0.342-0.01-0.514,0c-0.053,0.004-0.83,0.049-2.078,0.049
	c-8.928,0-16.145-1.882-19.31-5.047c-4.809-4.807-5.623-22.09-5.01-31.863c0.065-1.06-0.31-2.07-1.035-2.843
	c-0.725-0.773-1.738-1.156-2.799-1.156H19.224L19.224,62.681z"/>
</svg>
