<?xml version="1.0" encoding="utf-8"?>
<!-- Generator: Adobe Illustrator 16.0.0, SVG Export Plug-In . SVG Version: 6.00 Build 0)  -->
<!DOCTYPE svg PUBLIC "-//W3C//DTD SVG 1.1//EN" "http://www.w3.org/Graphics/SVG/1.1/DTD/svg11.dtd">
<svg version="1.1" id="Capa_1" xmlns="http://www.w3.org/2000/svg" xmlns:xlink="http://www.w3.org/1999/xlink" x="0px" y="0px"
	 width="128px" height="128px" viewBox="0 0 128 128" enable-background="new 0 0 128 128" xml:space="preserve">
<path d="M108.775,38.36H61.865c0.886-3.84,1.02-9.513-2.133-15.861c-2.522-5.078-6.465-5.864-8.591-5.864
	c-4.77,0-9.043,3.615-10.108,4.593L10.392,43.855c-0.154,0.114-0.298,0.234-0.434,0.371c-8.214,8.214-7.456,26.69-7.26,29.865
	c-0.195,3.174-0.952,21.653,7.261,29.869c6.12,6.12,18.753,7.404,28.275,7.404c2.665,0,4.617-0.105,5.29-0.148
	c0.388,0.019,1.187,0.047,2.281,0.047c6.513,0,18.387-0.895,24.741-7.25c7.075-7.072,7.575-25.974,7.403-33.653h30.823
	c0.412,0,4.134-0.104,7.976-1.834c5.587-2.515,8.664-7.309,8.664-13.554c0-12.209-9.951-16.612-16.64-16.612H108.775z
	 M108.775,62.681H73.959c-1.061,0-2.074,0.383-2.799,1.156c-0.726,0.772-1.101,1.783-1.035,2.843
	c0.613,9.773-0.201,27.057-5.01,31.863c-3.166,3.165-10.382,5.047-19.311,5.047c-1.248,0-2.025-0.045-2.078-0.049
	c-0.172-0.01-0.344-0.011-0.514,0c-0.02,0.001-2.026,0.145-4.979,0.145c-11.076,0-19.616-1.928-22.846-5.156
	c-5.116-5.117-5.353-19.186-5.011-24.171c0.011-0.177,0.011-0.356,0-0.532c-0.338-4.929-0.111-18.721,4.831-23.985L45.774,27.26
	c0.129-0.096,0.261-0.207,0.376-0.317c1.126-1.07,3.49-2.655,4.989-2.655c0.302,0,0.933,0,1.714,1.573
	c3.998,8.051,0.383,13.88,0.25,14.089c-0.79,1.179-0.868,2.749-0.2,4.001c0.671,1.253,1.972,2.09,3.392,2.09h52.48
	c0.918,0,8.959,0.251,8.959,8.96C117.734,62.215,110.253,62.681,108.775,62.681L108.775,62.681z"/>
</svg>
