<?xml version="1.0" encoding="utf-8"?>
<!-- Generated by IcoMoon.io -->
<!DOCTYPE svg PUBLIC "-//W3C//DTD SVG 1.1//EN" "http://www.w3.org/Graphics/SVG/1.1/DTD/svg11.dtd">
<svg version="1.1" xmlns="http://www.w3.org/2000/svg" xmlns:xlink="http://www.w3.org/1999/xlink" width="128" height="128" viewBox="0 0 128 128">
<g id="icomoon-ignore">
	<line stroke-width="1" x1="" y1="" x2="" y2="" stroke="#449FDB" opacity=""></line>
</g>
	<path d="M48.64 104.96c0 8.47 6.89 15.36 15.36 15.36s15.36-6.89 15.36-15.36-6.89-15.36-15.36-15.36-15.36 6.89-15.36 15.36zM71.68 104.96c0 4.241-3.441 7.68-7.68 7.68s-7.68-3.439-7.68-7.68 3.441-7.68 7.68-7.68 7.68 3.439 7.68 7.68z" fill="#000000"></path>
	<path d="M48.64 64c0 8.47 6.89 15.36 15.36 15.36s15.36-6.89 15.36-15.36-6.89-15.36-15.36-15.36-15.36 6.89-15.36 15.36zM71.68 64c0 4.241-3.441 7.68-7.68 7.68s-7.68-3.439-7.68-7.68 3.441-7.68 7.68-7.68 7.68 3.439 7.68 7.68z" fill="#000000"></path>
	<path d="M48.64 23.040c0 8.47 6.89 15.36 15.36 15.36s15.36-6.89 15.36-15.36-6.89-15.36-15.36-15.36-15.36 6.89-15.36 15.36zM71.68 23.040c0 4.241-3.441 7.68-7.68 7.68s-7.68-3.439-7.68-7.68 3.441-7.68 7.68-7.68 7.68 3.439 7.68 7.68z" fill="#000000"></path>
</svg>
