<?xml version="1.0" encoding="utf-8"?>
<!-- Generated by IcoMoon.io -->
<!DOCTYPE svg PUBLIC "-//W3C//DTD SVG 1.1//EN" "http://www.w3.org/Graphics/SVG/1.1/DTD/svg11.dtd">
<svg version="1.1" xmlns="http://www.w3.org/2000/svg" xmlns:xlink="http://www.w3.org/1999/xlink" width="128" height="128" viewBox="0 0 128 128">
<g id="icomoon-ignore">
	<line stroke-width="1" x1="" y1="" x2="" y2="" stroke="#449FDB" opacity=""></line>
</g>
	<path d="M60.16 24.32h7.68v79.36h-7.68v-79.36z" fill="#000000"></path>
	<path d="M38.080 28.489l-32.795 32.794c-0.721 0.721-1.125 1.697-1.125 2.716 0 1.018 0.404 1.995 1.125 2.715l32.795 32.797 5.43-5.431-30.080-30.081 30.080-30.079-5.43-5.431z" fill="#000000"></path>
	<path d="M122.715 61.282l-32.795-32.794-5.43 5.431 30.080 30.079-30.080 30.081 5.43 5.431 32.795-32.797c0.719-0.719 1.125-1.697 1.125-2.715 0-1.019-0.404-1.995-1.125-2.716z" fill="#000000"></path>
</svg>
