<?xml version="1.0" encoding="utf-8"?>
<!-- Generator: Adobe Illustrator 16.0.0, SVG Export Plug-In . SVG Version: 6.00 Build 0)  -->
<!DOCTYPE svg PUBLIC "-//W3C//DTD SVG 1.1//EN" "http://www.w3.org/Graphics/SVG/1.1/DTD/svg11.dtd">
<svg version="1.1" id="Capa_1" xmlns="http://www.w3.org/2000/svg" xmlns:xlink="http://www.w3.org/1999/xlink" x="0px" y="0px"
	 width="128px" height="128px" viewBox="0 0 128 128" enable-background="new 0 0 128 128" xml:space="preserve">
<path d="M24.32,67.84v-7.68h79.359v7.68H24.32z"/>
<path d="M28.489,89.92l32.794,32.795c0.721,0.721,1.697,1.125,2.716,1.125s1.995-0.404,2.715-1.125L99.511,89.92l-5.431-5.43
	l-30.081,30.08L33.92,84.49L28.489,89.92z"/>
<path d="M61.282,5.285L28.488,38.08l5.431,5.43l30.079-30.08l30.081,30.08l5.431-5.43L66.713,5.285
	c-0.719-0.719-1.697-1.125-2.715-1.125C62.979,4.16,62.003,4.564,61.282,5.285L61.282,5.285z"/>
</svg>
