<?xml version="1.0" encoding="utf-8"?>
<!-- Generated by IcoMoon.io -->
<!DOCTYPE svg PUBLIC "-//W3C//DTD SVG 1.1//EN" "http://www.w3.org/Graphics/SVG/1.1/DTD/svg11.dtd">
<svg version="1.1" xmlns="http://www.w3.org/2000/svg" xmlns:xlink="http://www.w3.org/1999/xlink" width="128" height="128" viewBox="0 0 128 128">
<g id="icomoon-ignore">
	<line stroke-width="1" x1="" y1="" x2="" y2="" stroke="#449FDB" opacity=""></line>
</g>
	<path d="M36.932 128c-0.603 0-1.208-0.142-1.765-0.43-1.282-0.664-2.085-1.994-2.075-3.439 0.056-7.685 0.114-17.921 0.081-23.405-9.187-1.32-12.731-3.944-17.504-8.744-8.484-8.527-13.139-19.848-13.108-31.873s4.746-23.32 13.275-31.803c8.096-8.055 30.529-9.893 47.923-10.016l1.151-0.004c11.213 0 38.281 0.992 47.432 10.19 8.479 8.523 13.13 19.841 13.1 31.868-0.031 12.028-4.745 23.324-13.274 31.804-5.258 5.233-27.317 8.452-35.448 9.477l-37.545 25.654c-0.667 0.478-1.452 0.721-2.241 0.721zM64.909 25.966l-1.096 0.004c-21.583 0.152-37.892 3.135-42.561 7.781-7.076 7.036-10.985 16.404-11.012 26.378-0.027 9.975 3.836 19.364 10.875 26.437 4.182 4.205 6.272 5.95 16.192 6.92 1.573 0.154 2.89 1.254 3.322 2.776 0.17 0.603 0.32-0.18 0.196 20.375l32.21-21.822c0.525-0.376 1.135-0.614 1.775-0.692 13.473-1.642 29.523-5.016 31.941-7.421 7.075-7.034 10.984-16.402 11.009-26.378 0.027-9.975-3.832-19.361-10.865-26.431-5.822-5.851-26.255-7.927-41.987-7.927z" fill="#000000"></path>
</svg>
