<?xml version="1.0" encoding="utf-8"?>
<!-- Generated by IcoMoon.io -->
<!DOCTYPE svg PUBLIC "-//W3C//DTD SVG 1.1//EN" "http://www.w3.org/Graphics/SVG/1.1/DTD/svg11.dtd">
<svg version="1.1" xmlns="http://www.w3.org/2000/svg" xmlns:xlink="http://www.w3.org/1999/xlink" width="128" height="128" viewBox="0 0 128 128">
<g id="icomoon-ignore">
	<line stroke-width="1" x1="" y1="" x2="" y2="" stroke="#449FDB" opacity=""></line>
</g>
	<path d="M98.945 124.16c-1.030 0-2.040-0.413-2.779-1.189l-33.083-34.651h-28.183c-10.506 0-19.4-8.805-19.825-19.629-0.006-0.197-0.005-3.095-0.002-4.187v-0.383c0-0.224 0.008-3.373 0.015-3.592 0.411-10.432 8.934-18.29 19.823-18.29h27.67l33.448-37.13c1.062-1.181 2.744-1.587 4.228-1.015 1.484 0.568 2.464 1.994 2.465 3.583l0.061 112.64c0.001 1.57-0.954 2.982-2.412 3.566-0.462 0.187-0.947 0.276-1.427 0.276zM34.912 49.92c-6.792 0-11.901 4.584-12.15 10.901-0.006 0.305-0.010 3.099-0.010 3.302v0.395c-0.003 1-0.006 3.601-0.001 3.936 0.26 6.575 5.823 12.186 12.15 12.186h29.827c1.048 0 2.053 0.43 2.778 1.189l27.596 28.902-0.051-93.057-27.904 30.976c-0.728 0.809-1.766 1.27-2.853 1.27h-29.38z" fill="#000000"></path>
</svg>
