<?xml version="1.0" encoding="utf-8"?>
<!-- Generated by IcoMoon.io -->
<!DOCTYPE svg PUBLIC "-//W3C//DTD SVG 1.1//EN" "http://www.w3.org/Graphics/SVG/1.1/DTD/svg11.dtd">
<svg version="1.1" xmlns="http://www.w3.org/2000/svg" xmlns:xlink="http://www.w3.org/1999/xlink" width="128" height="128" viewBox="0 0 128 128">
<g id="icomoon-ignore">
	<line stroke-width="1" x1="" y1="" x2="" y2="" stroke="#449FDB" opacity=""></line>
</g>
	<path d="M119.040 1.28h-110.080c-4.241 0-7.68 3.803-7.68 8.043v83.753c0 4.241 3.439 8.043 7.68 8.043h37.339l-11.255 20.078c-0.662 1.19-0.644 2.549 0.046 3.721s1.951 1.801 3.31 1.801h51.2c1.359 0 2.62-0.719 3.31-1.893s0.708-2.44 0.046-3.63l-11.255-20.077h37.339c4.241 0 7.68-3.803 7.68-8.043v-83.753c0-4.241-3.439-8.043-7.68-8.043zM44.927 119.040l8.534-15.36h21.080l8.534 15.36h-38.148zM119.040 93.44h-110.080v-84.48h110.080v84.48z" fill="#000000"></path>
	<path d="M25.602 84.48h76.798c2.038 0 3.99-0.808 5.431-2.249 1.44-1.44 2.249-3.393 2.249-5.428l-0.002-51.204c0-4.241-3.439-7.679-7.68-7.679h-76.797c-2.038 0-3.99 0.808-5.431 2.249-1.44 1.44-2.249 3.393-2.249 5.428l0.003 51.204c0 4.241 3.438 7.679 7.68 7.679zM102.397 25.6l0.002 51.2h-76.797l-0.003-51.2h76.797z" fill="#000000"></path>
</svg>
