<?xml version="1.0" encoding="utf-8"?>
<!-- Generated by IcoMoon.io -->
<!DOCTYPE svg PUBLIC "-//W3C//DTD SVG 1.1//EN" "http://www.w3.org/Graphics/SVG/1.1/DTD/svg11.dtd">
<svg version="1.1" xmlns="http://www.w3.org/2000/svg" xmlns:xlink="http://www.w3.org/1999/xlink" width="128" height="128" viewBox="0 0 128 128">
<g id="icomoon-ignore">
	<line stroke-width="1" x1="" y1="" x2="" y2="" stroke="#449FDB" opacity=""></line>
</g>
	<path d="M39.272 64.324l51.983-15.743c-1.019-2.404-1.527-4.973-1.521-7.543l-52.32 15.834c1.942 4.757 1.877 10.131-0.166 14.861l52.388 15.852c0.099-2.56 0.704-5.098 1.82-7.464l-52.184-15.796z" fill="#000000"></path>
	<path d="M115.254 31.867c-2.497-2.472-5.755-3.706-9.011-3.706-3.295 0-6.59 1.263-9.094 3.79-4.973 5.022-4.941 13.126 0.082 18.099 2.497 2.474 5.754 3.709 9.010 3.709 3.295 0 6.588-1.265 9.093-3.789 4.972-5.020 4.941-13.128-0.079-18.104zM109.882 44.561c-0.972 0.98-2.264 1.519-3.642 1.519-1.359 0-2.639-0.527-3.607-1.487-0.969-0.959-1.507-2.24-1.513-3.606-0.006-1.367 0.521-2.657 1.48-3.625 0.972-0.979 2.266-1.519 3.643-1.519 1.359 0 2.642 0.527 3.605 1.48 2.004 1.986 2.017 5.236 0.034 7.238z" fill="#000000"></path>
	<path d="M115.254 77.947c-2.497-2.472-5.755-3.706-9.011-3.706-3.295 0-6.59 1.263-9.094 3.79-4.973 5.022-4.941 13.126 0.082 18.099 2.497 2.474 5.754 3.708 9.010 3.708 3.295 0 6.588-1.265 9.093-3.789 4.972-5.020 4.941-13.128-0.079-18.103zM109.882 90.639c-0.972 0.981-2.266 1.519-3.643 1.519-1.359 0-2.639-0.527-3.607-1.487-0.969-0.959-1.507-2.24-1.513-3.606-0.006-1.367 0.521-2.657 1.48-3.625 0.972-0.979 2.266-1.519 3.643-1.519 1.359 0 2.642 0.527 3.605 1.48 2.006 1.987 2.019 5.237 0.036 7.238z" fill="#000000"></path>
	<path d="M30.774 54.907c-2.497-2.472-5.755-3.706-9.011-3.706-3.295 0-6.59 1.263-9.094 3.79-4.973 5.022-4.941 13.126 0.082 18.099 2.497 2.474 5.754 3.708 9.010 3.708 3.295 0 6.588-1.265 9.093-3.789 4.971-5.020 4.941-13.128-0.079-18.103zM25.402 67.599c-0.971 0.981-2.266 1.519-3.643 1.519-1.359 0-2.639-0.527-3.607-1.487-0.969-0.959-1.506-2.24-1.513-3.606-0.006-1.367 0.521-2.657 1.48-3.625 0.971-0.979 2.266-1.519 3.643-1.519 1.359 0 2.642 0.527 3.604 1.48 2.006 1.986 2.018 5.237 0.036 7.238z" fill="#000000"></path>
</svg>
