<?xml version="1.0" encoding="utf-8"?>
<!-- Generated by IcoMoon.io -->
<!DOCTYPE svg PUBLIC "-//W3C//DTD SVG 1.1//EN" "http://www.w3.org/Graphics/SVG/1.1/DTD/svg11.dtd">
<svg version="1.1" xmlns="http://www.w3.org/2000/svg" xmlns:xlink="http://www.w3.org/1999/xlink" width="128" height="128" viewBox="0 0 128 128">
<g id="icomoon-ignore">
	<line stroke-width="1" x1="" y1="" x2="" y2="" stroke="#449FDB" opacity=""></line>
</g>
	<path d="M36.133 92.339c-2.916-2.908-6.77-4.503-10.867-4.503-4.106 0-7.967 1.601-10.867 4.51-2.895 2.894-4.493 6.752-4.493 10.853s1.598 7.959 4.5 10.861c2.908 2.902 6.765 4.497 10.863 4.497 4.101 0 7.958-1.597 10.856-4.497 2.901-2.891 4.501-6.751 4.501-10.858 0-4.1-1.595-7.958-4.493-10.862zM30.696 108.631c-1.499 1.499-3.462 2.246-5.426 2.246-1.966 0-3.932-0.75-5.434-2.246-3-3-3-7.861 0-10.859 1.5-1.504 3.465-2.254 5.43-2.254s3.93 0.75 5.43 2.246c3 3.007 3 7.874 0 10.867z" fill="#000000"></path>
	<path d="M114.254 100.31h-7.68v-3.84c0.002-41.632-33.876-75.505-75.52-75.507h-3.84v-7.68h3.84c45.879 0.002 83.203 37.321 83.2 83.187v3.84z" fill="#000000"></path>
	<path d="M89.454 100.31h-7.68v-3.84c0.001-27.956-22.752-50.703-50.72-50.707h-3.84v-7.68h3.84c32.203 0.004 58.401 26.197 58.4 58.387v3.84z" fill="#000000"></path>
	<path d="M56.975 100.31l-0.001-3.84c-0.004-14.284-11.633-25.905-25.92-25.906h-3.84v-7.68h3.84c18.522 0.001 33.594 15.067 33.6 33.583l0.001 3.84-7.68 0.002z" fill="#000000"></path>
</svg>
