<?xml version="1.0" encoding="utf-8"?>
<!-- Generator: Adobe Illustrator 16.0.0, SVG Export Plug-In . SVG Version: 6.00 Build 0)  -->
<!DOCTYPE svg PUBLIC "-//W3C//DTD SVG 1.1//EN" "http://www.w3.org/Graphics/SVG/1.1/DTD/svg11.dtd">
<svg version="1.1" id="Capa_1" xmlns="http://www.w3.org/2000/svg" xmlns:xlink="http://www.w3.org/1999/xlink" x="0px" y="0px"
	 width="128px" height="128px" viewBox="0 0 128 128" enable-background="new 0 0 128 128" xml:space="preserve">
<g id="icomoon-ignore">
	<line fill="none" stroke="#449FDB" x1="0" y1="0" x2="0" y2="0"/>
</g>
<path d="M98.816,1.28H29.696c-2.121,0-4.096,1.719-4.096,3.84v11.519v0.001v20.198c0,3.407,2.387,8.371,19.142,19.36
	c4.527,2.97,9.066,5.649,12.371,7.566c-3.327,1.925-7.885,4.667-12.531,7.714C27.827,82.47,25.6,87.434,25.6,90.841v31.718
	c0,2.121,1.719,4.16,3.84,4.16h69.121c2.121,0,3.84-2.039,3.84-4.16V90.841c0-3.387-2.26-8.332-19.012-19.336
	c-4.535-2.978-9.017-5.668-12.324-7.592c3.328-1.931,7.799-4.684,12.453-7.74c16.75-11.004,18.883-15.949,18.883-19.336V16.64
	v-0.001V5.12C102.4,2.999,100.938,1.28,98.816,1.28z M94.721,119.04H33.28v-7.681h61.441V119.04z M94.721,90.968v12.712H33.28
	V90.961c0.979-3.429,14.785-13.402,30.718-22.257C79.908,77.574,93.712,87.548,94.721,90.968z M94.721,36.712
	c-1.281,3.42-14.812,13.394-30.723,22.264C48.066,50.125,34.56,40.152,33.28,36.719V24.32h61.441V36.712z M33.28,16.639V8.96h61.441
	v7.679H33.28z"/>
</svg>
