<?xml version="1.0" encoding="utf-8"?>
<!-- Generated by IcoMoon.io -->
<!DOCTYPE svg PUBLIC "-//W3C//DTD SVG 1.1//EN" "http://www.w3.org/Graphics/SVG/1.1/DTD/svg11.dtd">
<svg version="1.1" xmlns="http://www.w3.org/2000/svg" xmlns:xlink="http://www.w3.org/1999/xlink" width="128" height="128" viewBox="0 0 128 128">
<g id="icomoon-ignore">
	<line stroke-width="1" x1="" y1="" x2="" y2="" stroke="#449FDB" opacity=""></line>
</g>
	<path d="M6.4 127.744c-1.018 0-1.994-0.403-2.715-1.124s-1.125-1.697-1.125-2.716v-79.745c0-2.121 1.719-3.84 3.84-3.84h115.2c2.121 0 3.84 1.719 3.84 3.84v79.644c0 2.12-1.716 3.839-3.838 3.84l-115.2 0.101c0 0-0.001 0-0.003 0zM10.24 47.999v72.061l107.52-0.094v-71.968h-107.52z" fill="#000000"></path>
	<path d="M90.24 38.4h-7.68v-4.9c0-6.016-3.839-11.34-9.141-12.7-0.993-0.133-5.476-0.279-9.157-0.34-3.426 0.041-7.684 0.138-8.575 0.228-5.847 1.19-10.246 6.683-10.246 12.813v4.9h-7.68v-4.9c0-9.766 7.112-18.523 16.543-20.367 0.32-0.063 1.286-0.251 9.979-0.352 9.332 0.155 10.501 0.445 10.885 0.54 8.872 2.188 15.072 10.487 15.072 20.179v4.9z" fill="#000000"></path>
</svg>
