<?xml version="1.0" encoding="utf-8"?>
<!-- Generated by IcoMoon.io -->
<!DOCTYPE svg PUBLIC "-//W3C//DTD SVG 1.1//EN" "http://www.w3.org/Graphics/SVG/1.1/DTD/svg11.dtd">
<svg version="1.1" xmlns="http://www.w3.org/2000/svg" xmlns:xlink="http://www.w3.org/1999/xlink" width="128" height="128" viewBox="0 0 128 128">
<g id="icomoon-ignore">
	<line stroke-width="1" x1="" y1="" x2="" y2="" stroke="#449FDB" opacity=""></line>
</g>
	<path d="M22.24 10.322c4.536 0 9.097 1.962 9.033 5.823v25.455c0 0 14.564-0.050 26.624-0.050 6.031 0 11.434 0.013 14.080 0.050 10.792 0.151 11.023 16.645 0 16.713-0.316 0.001-4.945 0.002-10.975 0.002-12.060 0-29.73-0.002-29.73-0.002s0 20.408 0 31.489c0 9.373 23.167 9.999 35.68 9.999 1.926 0 3.599-0.015 4.897-0.015 11.366 0 10.92 17.408 0.074 17.408-0.026 0-0.049 0-0.074 0-0.068 0-0.139-0.001-0.215-0.001-1.265 0-3.553 0.068-6.511 0.068-16.124 0-52.219-1.993-51.898-27.713l0.128-73.4c-0.064-3.904 4.399-5.825 8.887-5.825zM22.24 2.642c-5.27 0-10.014 1.751-13.015 4.803-2.323 2.363-3.583 5.464-3.551 8.74l-0.128 73.31c-0.092 8.278 2.693 15.342 8.283 21.002 9.464 9.582 26.721 14.441 51.295 14.441 1.837 0 3.42-0.026 4.674-0.045 0.749-0.011 1.368-0.023 1.838-0.023l0.157 0.001h0.132c9.106 0 15.973-7.090 15.973-16.493 0-9.279-6.899-16.275-16.047-16.275-0.595 0-1.269 0.002-2.007 0.006-0.876 0.004-1.844 0.009-2.89 0.009-20.27 0-26.312-2.35-28-3.403v-22.721l22.050 0.002c6.052 0 10.697-0.001 11.014-0.002 8.987-0.055 15.785-6.877 15.821-15.871 0.036-9.108-6.737-16.074-15.753-16.2-2.376-0.033-7.15-0.051-14.188-0.051-6.441 0-13.65 0.015-18.944 0.027v-17.702c0.033-3.251-1.222-6.335-3.542-8.694-3.040-3.089-7.84-4.86-13.174-4.86v0z" fill="#000000"></path>
</svg>
