<?xml version="1.0" encoding="utf-8"?>
<!-- Generator: Adobe Illustrator 16.0.0, SVG Export Plug-In . SVG Version: 6.00 Build 0)  -->
<!DOCTYPE svg PUBLIC "-//W3C//DTD SVG 1.1//EN" "http://www.w3.org/Graphics/SVG/1.1/DTD/svg11.dtd">
<svg version="1.1" id="Capa_1" xmlns="http://www.w3.org/2000/svg" xmlns:xlink="http://www.w3.org/1999/xlink" x="0px" y="0px"
	 width="128px" height="128px" viewBox="0 0 128 128" enable-background="new 0 0 128 128" xml:space="preserve">
<path d="M45.183,92.544H17.536c0-17.92,13.183-31.709,29.44-31.709c8.629,0,16.503,3.884,21.887,10.209l-0.006-10.31
	c-6.141-4.772-13.707-7.592-21.881-7.592c-20.467,0-37.12,17.678-37.12,39.397c0,4.238,3.439,7.686,7.68,7.686h27.647V92.544z"/>
<path d="M46.974,4.479c-10.978,0-19.91,9.28-19.91,20.687s8.932,20.69,19.91,20.69c10.98,0,19.915-9.282,19.915-20.69
	S57.954,4.479,46.974,4.479z M46.974,38.559c-6.97,0-12.613-5.983-12.613-13.393c0-7.392,5.644-13.39,12.613-13.39
	c6.975,0,12.617,5.998,12.617,13.39C59.592,32.576,53.949,38.559,46.974,38.559z"/>
<path d="M120.809,81.128H99.048V57.064l-21.76,0.008v24.056h-23.04v21.761h23.04v24.319h22.272l-0.002-6.177l0.002-18.143h21.248
	V81.128L120.809,81.128z M92.648,96.488v24.32h-8.961v-24.32H60.647v-8.961h23.041V64.232l8.961-0.002v23.299h21.76v8.96
	L92.648,96.488L92.648,96.488z"/>
</svg>
