<?xml version="1.0" encoding="utf-8"?>
<!-- Generated by IcoMoon.io -->
<!DOCTYPE svg PUBLIC "-//W3C//DTD SVG 1.1//EN" "http://www.w3.org/Graphics/SVG/1.1/DTD/svg11.dtd">
<svg version="1.1" xmlns="http://www.w3.org/2000/svg" xmlns:xlink="http://www.w3.org/1999/xlink" width="128" height="128" viewBox="0 0 128 128">
<g id="icomoon-ignore">
	<line stroke-width="1" x1="" y1="" x2="" y2="" stroke="#449FDB" opacity=""></line>
</g>
	<path d="M57.985 72.736c2.246 1.152 4.383 2.504 6.401 4.020 5.156-9.185 14.519-15.090 25.213-15.090 16.257 0 29.44 13.854 29.44 31.773h-0.002c0 0 0.002-0.042 0.002 0h-40.868c1.189 2.406 2.197 5.12 2.981 7.68h37.887c4.234 0 7.667-3.497 7.679-7.729-0.020-20.323-14.619-37.184-33.274-39.236-1.265-0.139-2.547-0.229-3.845-0.229s-2.581 0.064-3.845 0.203c-11.736 1.293-21.864 8.428-27.77 18.606z" fill="#000000"></path>
	<path d="M1.282 114.929c0 0.047-0.002 0.094-0.002 0.139v-0.001c0-0.046 0.002-0.092 0.002-0.138zM75.52 115.068c0-0.046-0.002-0.092-0.002-0.139 0 0.046 0.002 0.092 0.002 0.139v0zM126.72 93.308c0-0.046-0.002-0.092-0.002-0.139 0 0.046 0.002 0.092 0.002 0.139v0z" fill="#000000"></path>
	<path d="M89.597 5.248c-10.978 0-19.91 9.28-19.91 20.687 0 10.319 7.318 18.876 16.841 20.417 1.004 0.163 2.024 0.273 3.070 0.273 1.047 0 2.067-0.11 3.071-0.273 9.523-1.542 16.842-10.098 16.842-20.417 0.001-11.407-8.933-20.687-19.913-20.687zM89.597 39.328c-6.97 0-12.613-5.983-12.613-13.393 0-7.392 5.644-13.39 12.613-13.39 6.975 0 12.617 5.998 12.617 13.39 0 7.41-5.642 13.393-12.617 13.393z" fill="#000000"></path>
	<path d="M1.281 115.151c0.012 4.232 3.444 7.729 7.679 7.729h58.88c4.234 0 7.667-3.497 7.679-7.729-0.020-20.323-14.619-37.184-33.274-39.236-1.265-0.139-2.547-0.229-3.845-0.229s-2.581 0.096-3.845 0.237c-18.655 2.053-33.253 18.906-33.274 39.228zM67.84 115.2h-0.002c0 0 0.002-0.042 0.002 0h-58.88c0-0.042 0.002 0 0.002 0h-0.002c0-17.92 13.183-31.71 29.44-31.71s29.44 13.79 29.44 31.709z" fill="#000000"></path>
	<path d="M38.398 27.008c-10.979 0-19.91 9.28-19.91 20.687 0 10.319 7.318 18.876 16.841 20.417 1.004 0.162 2.024 0.273 3.069 0.273 1.047 0 2.067-0.11 3.071-0.273 9.523-1.542 16.842-10.098 16.842-20.417 0.001-11.407-8.933-20.687-19.913-20.687zM38.398 61.088c-6.97 0-12.613-5.983-12.613-13.393 0-7.392 5.643-13.39 12.613-13.39 6.975 0 12.617 5.998 12.617 13.39 0 7.41-5.642 13.393-12.617 13.393z" fill="#000000"></path>
</svg>
